<svg width="238" height="348" viewBox="0 0 238 348" fill="none" xmlns="http://www.w3.org/2000/svg">
<path d="M198.053 250.516C192.216 263.641 179.063 272.793 163.771 272.793C148.921 272.793 136.088 264.161 130.013 251.642L91 298.685C91 324.643 238 326.879 238 298.685L198.053 250.516Z" fill="#FFC700"/>
<path d="M163.771 272.793C179.063 272.793 192.216 263.641 198.053 250.516C170.917 262.051 155.999 262.793 130.013 251.642C136.088 264.161 148.921 272.793 163.771 272.793Z" fill="#DE8215"/>
<path d="M24.9989 19.2009L7.16818 29.797L0 25.3969L17.7411 14.8906L24.9989 19.2009Z" fill="#8E82EE"/>
<path d="M24.999 39.5894V19.2031L182.737 110.643L164.907 121.239L24.999 39.5894Z" fill="#8E82EE"/>
<path d="M7.16797 50.689L24.9987 40.0928V39.5859L164.907 121.236V142.129L7.16797 50.689Z" fill="#8E82EE"/>
<path d="M164.907 121.237L182.737 110.641V131.534L164.907 142.13V121.237Z" fill="#8E82EE"/>
<path d="M6.76807 51.6018L24.6704 41.1112V40.6094L165.14 121.445V142.13L6.76807 51.6018Z" fill="#6251F2"/>
<path d="M0 6.01565L25.1024 20.8041L35.1938 14.6631L10.2176 0L0 6.01565Z" fill="#362DC0"/>
<path d="M25.1024 20.8041L0 6.01562V259.994L25.1024 274.783V20.8041Z" fill="#362DC0"/>
<path d="M35.1939 14.6641L25.1025 20.8051V274.784L35.1939 268.643V14.6641Z" fill="#362DC0"/>
<path d="M24.365 20.2356L0 5.41406V259.961L24.365 274.783V20.2356Z" fill="#6251F2"/>
<path d="M25.1024 20.3041L0 5.87107L10.2176 0L35.1938 14.3107L25.1024 20.3041Z" fill="#8E82EE"/>
<path d="M165.5 234C179.583 234 191 222.583 191 208.5C191 194.417 179.583 183 165.5 183C151.417 183 140 194.417 140 208.5C140 222.583 151.417 234 165.5 234Z" fill="#FFC700"/>
<path d="M185.5 258C190.194 258 194 254.194 194 249.5C194 244.806 190.194 241 185.5 241C180.806 241 177 244.806 177 249.5C177 254.194 180.806 258 185.5 258Z" fill="#FFC700"/>
<path d="M159.5 265C161.985 265 164 262.985 164 260.5C164 258.015 161.985 256 159.5 256C157.015 256 155 258.015 155 260.5C155 262.985 157.015 265 159.5 265Z" fill="#FFC700"/>
<path d="M146.5 247C147.881 247 149 245.881 149 244.5C149 243.119 147.881 242 146.5 242C145.119 242 144 243.119 144 244.5C144 245.881 145.119 247 146.5 247Z" fill="#FFC700"/>
<path d="M148.395 203.377C145.066 213.505 155.974 226.187 146.733 223.15C137.492 220.112 132.699 209.44 136.027 199.312C139.356 189.184 152.167 175.462 161.408 178.5C170.65 181.537 151.724 193.249 148.395 203.377Z" fill="#DE8215"/>
<path d="M182.23 203.377C185.559 213.505 174.651 226.187 183.892 223.15C193.134 220.112 197.927 209.44 194.598 199.312C191.269 189.184 178.458 175.462 169.217 178.5C159.976 181.537 178.901 193.249 182.23 203.377Z" fill="#DE8215"/>
<path d="M166 225C172.627 225 178 214.479 178 201.5C178 188.521 172.627 178 166 178C159.373 178 154 188.521 154 201.5C154 214.479 159.373 225 166 225Z" fill="#FF9D28"/>
<path d="M169.5 174H160.5C159.119 174 158 175.119 158 176.5C158 177.881 159.119 179 160.5 179H169.5C170.881 179 172 177.881 172 176.5C172 175.119 170.881 174 169.5 174Z" fill="#FFD600"/>
<path d="M169 141C169 138.791 167.209 137 165 137C162.791 137 161 138.791 161 141V173C161 175.209 162.791 177 165 177C167.209 177 169 175.209 169 173V141Z" fill="#94A8B3"/>
<path d="M83.5064 243.636C90.924 230.788 109.468 230.788 116.886 243.636L158.392 315.527C158.392 347.592 42 345.049 42 315.527L83.5064 243.636Z" fill="#FF9D28"/>
<path d="M86.3142 239.875C85.2645 240.974 84.319 242.226 83.5069 243.633L42.0005 315.524C42.0005 331.355 75.4709 339.428 106.514 338.567C86.3677 326.963 72.8044 305.213 72.8044 280.294C72.8044 265.121 77.8329 251.123 86.3142 239.875Z" fill="#DE8215"/>
</svg>
