<svg width="24" height="25" viewBox="0 0 24 25" fill="none" xmlns="http://www.w3.org/2000/svg">
<path d="M16.7753 0C15.5035 2.04023 14.6405 4.1954 14.1863 6.46552C13.7321 8.73563 13.6867 10.977 14.0501 13.1897C14.4134 15.4023 15.1704 17.5287 16.3211 19.569C17.4717 21.6092 19.0009 23.4195 20.9086 25L23.3613 23.4914C23.8155 23.2328 24.0274 22.9023 23.9972 22.5C23.9366 22.069 23.7852 21.7241 23.543 21.4655C22.7557 20.546 22.0895 19.4397 21.5445 18.1466C20.9691 16.8247 20.6058 15.4167 20.4544 13.9224C20.2727 12.3994 20.3484 10.8333 20.6815 9.22414C20.9843 7.61494 21.605 6.06322 22.5437 4.56896C22.9373 3.96551 23.0585 3.43391 22.9071 2.97414C22.7254 2.48563 22.3469 2.12644 21.7716 1.89655L16.7753 0ZM2.96747 0C1.6957 2.04023 0.83271 4.1954 0.378506 6.46552C-0.0757008 8.73563 -0.121122 10.977 0.242243 13.1897C0.605604 15.4023 1.36261 17.5287 2.51327 19.569C3.66392 21.6092 5.19308 23.4195 7.10074 25L9.55344 23.4914C10.0076 23.2328 10.2196 22.9023 10.1893 22.5C10.1288 22.069 9.97737 21.7241 9.73512 21.4655C8.94784 20.546 8.28167 19.4397 7.73662 18.1466C7.1613 16.8247 6.79793 15.4167 6.64653 13.9224C6.46485 12.3994 6.54055 10.8333 6.87363 9.22414C7.17644 7.61494 7.79718 6.06322 8.73588 4.56896C9.12952 3.96551 9.25064 3.43391 9.09924 2.97414C8.91756 2.48563 8.53905 2.12644 7.96373 1.89655L2.96747 0Z" fill="#00AEEF"/>
</svg>
