<svg width="79" height="63" viewBox="0 0 79 63" fill="none" xmlns="http://www.w3.org/2000/svg">
<path opacity="0.8" d="M37.525 51.1875H17.775C16.6949 51.1875 15.8 52.0796 15.8 53.1562V61.0312C15.8 62.1079 16.6949 63 17.775 63H37.525C38.6051 63 39.5 62.1079 39.5 61.0312V53.1562C39.5 52.0796 38.6051 51.1875 37.525 51.1875ZM37.525 35.4375H17.775C16.6949 35.4375 15.8 36.3295 15.8 37.4062V45.2812C15.8 46.3579 16.6949 47.25 17.775 47.25H37.525C38.6051 47.25 39.5 46.3579 39.5 45.2812V37.4062C39.5 36.3295 38.6051 35.4375 37.525 35.4375ZM61.225 51.1875H45.425C44.3449 51.1875 43.45 52.0796 43.45 53.1562V61.0312C43.45 62.1079 44.3449 63 45.425 63H61.225C62.3051 63 63.2 62.1079 63.2 61.0312V53.1562C63.2 52.0796 62.3051 51.1875 61.225 51.1875ZM75.3586 14.3965L41.7683 0.446046C41.043 0.184571 40.2715 0.0307618 39.5 0C38.7132 0.0307618 37.9417 0.16919 37.2164 0.446046L3.64141 14.3965C1.43496 15.3193 0 17.4573 0 19.8412V61.0312C0 62.1234 0.879492 63 1.975 63H9.875C10.9705 63 11.85 62.1234 11.85 61.0312V31.4999C11.85 29.3314 13.6553 27.5624 15.8771 27.5624H63.123C65.3448 27.5624 67.15 29.3314 67.15 31.4999V61.0312C67.15 62.1234 68.0294 63 69.125 63H77.025C78.1206 63 79 62.1234 79 61.0312V19.8412C79 17.4573 77.5652 15.3193 75.3586 14.3965Z" fill="url(#paint0_linear_10_350)"/>
<defs>
<linearGradient id="paint0_linear_10_350" x1="39.5" y1="0" x2="39.5" y2="63" gradientUnits="userSpaceOnUse">
<stop stop-color="#00AEEF"/>
<stop offset="1" stop-color="#0079A6"/>
</linearGradient>
</defs>
</svg>
