<svg width="74" height="78" viewBox="0 0 74 78" fill="none" xmlns="http://www.w3.org/2000/svg">
<path d="M69.452 12.7481L39.852 0.559406C39.1006 0.249997 37.8239 0 37.0096 0C36.1907 0 34.9186 0.249997 34.1623 0.559406L4.56242 12.7481C1.8019 13.8739 0 16.5406 0 19.4976C0 58.6762 29.1629 78 36.9928 78C45.0127 78 74 58.4715 74 19.4976C74 16.5406 72.1981 13.8739 69.452 12.7481ZM51.8 30.4697C51.8 31.3124 51.5072 32.1594 50.9088 32.8492L36.1088 49.9117C35.0666 51.1119 33.7001 51.1875 33.3 51.1875C32.322 51.1875 31.3777 50.8019 30.6839 50.1165L23.2839 42.804C22.5614 42.0898 22.2 41.1543 22.2 40.2188C22.2 38.2702 23.7875 36.5625 25.9 36.5625C26.8467 36.5625 27.7934 36.9196 28.5161 37.6335L33.0928 42.1563L45.2912 28.0883C46.025 27.2456 47.0613 26.8145 48.103 26.8145C50.932 26.8145 51.8 29.3441 51.8 30.4697Z" fill="#00A651"/>
</svg>
