<svg width="50" height="50" viewBox="0 0 50 50" fill="none" xmlns="http://www.w3.org/2000/svg">
<g clip-path="url(#clip0_10_216)">
<path d="M42 0H8C3.58172 0 0 3.58172 0 8V42C0 46.4183 3.58172 50 8 50H42C46.4183 50 50 46.4183 50 42V8C50 3.58172 46.4183 0 42 0Z" fill="url(#paint0_linear_10_216)"/>
<path d="M24.9997 18.641L14.8826 27.6317C14.8076 27.6998 14.7118 27.7315 14.6294 27.788V36.4144C14.6294 36.8267 14.9609 37.1607 15.3701 37.1607H22.2789L20.5553 33.7645L25.3752 30.7793L22.59 25.2183L29.4442 31.5983L24.6243 34.5836L26.4724 37.1607H34.6293C35.0386 37.1607 35.3701 36.8267 35.3701 36.4144V27.7898C35.2914 27.7357 35.1979 27.7049 35.1266 27.6406L24.9997 18.641ZM38.0872 24.2999L35.3701 21.8823V15.5177C35.3701 15.1054 35.0386 14.7714 34.6293 14.7714H31.6664C31.2571 14.7714 30.9257 15.1054 30.9257 15.5177V17.9288L26.2382 13.7597C25.8849 13.4397 25.4423 13.2793 24.9997 13.2788C24.5572 13.2783 24.1155 13.4379 23.7636 13.7578L11.9123 24.2999C11.6081 24.5756 11.5826 25.0472 11.8563 25.3541L12.847 26.4651C13.1201 26.7716 13.5887 26.7972 13.8933 26.5216L24.5099 17.0864C24.79 16.8378 25.2099 16.8378 25.49 17.0864L36.1067 26.5211C36.4108 26.7963 36.8793 26.7711 37.153 26.4647L38.1437 25.3536C38.4168 25.0472 38.3918 24.5751 38.0872 24.2999Z" fill="white"/>
</g>
<defs>
<linearGradient id="paint0_linear_10_216" x1="-14.0625" y1="-11.6071" x2="81.5127" y2="72.0212" gradientUnits="userSpaceOnUse">
<stop stop-color="#8CCD9E"/>
<stop offset="1" stop-color="#6EEE59"/>
</linearGradient>
<clipPath id="clip0_10_216">
<rect width="50" height="50" fill="white"/>
</clipPath>
</defs>
</svg>
