<svg width="50" height="50" viewBox="0 0 50 50" fill="none" xmlns="http://www.w3.org/2000/svg">
<g clip-path="url(#clip0_10_249)">
<path d="M42 0H8C3.58172 0 0 3.58172 0 8V42C0 46.4183 3.58172 50 8 50H42C46.4183 50 50 46.4183 50 42V8C50 3.58172 46.4183 0 42 0Z" fill="url(#paint0_linear_10_249)"/>
<path d="M35.2624 20.3806C31.2462 13.257 19.4667 11.6978 19.4667 11.6978C19.4667 11.6978 24.9022 17.6333 17.9559 22.3269C13.5634 25.2892 11.8269 29.1387 13.7086 33.343C15.1495 36.5634 18.1979 37.8752 21.4828 38.3645C19.9129 35.4021 21.128 31.7838 21.2624 31.3967C24.3323 36.0419 30.1333 31.3967 27.2194 26.3484C31.0366 27.1763 31.6065 33.8 28.6763 37.9344C33.0043 36.5742 35.886 33.1548 36.6763 30.1064C37.5097 26.9183 36.8753 23.2301 35.2624 20.3806Z" fill="white"/>
</g>
<defs>
<linearGradient id="paint0_linear_10_249" x1="50" y1="-8.59375" x2="-28.5007" y2="82.4613" gradientUnits="userSpaceOnUse">
<stop stop-color="#EA8B8B"/>
<stop offset="1" stop-color="#EE4848"/>
</linearGradient>
<clipPath id="clip0_10_249">
<rect width="50" height="50" fill="white"/>
</clipPath>
</defs>
</svg>
