<svg width="50" height="50" viewBox="0 0 50 50" fill="none" xmlns="http://www.w3.org/2000/svg">
<g clip-path="url(#clip0_10_221)">
<path d="M42 0H8C3.58172 0 0 3.58172 0 8V42C0 46.4183 3.58172 50 8 50H42C46.4183 50 50 46.4183 50 42V8C50 3.58172 46.4183 0 42 0Z" fill="url(#paint0_linear_10_221)"/>
<path d="M25.028 17.0166C6.58627 17.0166 10.1292 33.0261 18.4254 33.0261C20.0879 33.0261 21.6534 32.1635 22.6513 30.6973L23.7234 29.1217C24.3759 28.1633 25.6805 28.1633 26.333 29.1217L27.405 30.6973C28.4025 32.1635 29.968 33.0261 31.6305 33.0261C39.5413 33.0261 43.7401 17.0166 25.028 17.0166ZM19.3334 27.2044C17.6225 27.2044 16.51 26.1346 15.9967 25.4929C15.7788 25.2207 15.7788 24.8221 15.9967 24.5494C16.51 23.9074 17.6221 22.838 19.3334 22.838C21.0446 22.838 22.1567 23.9078 22.67 24.5494C22.8879 24.8217 22.8879 25.2203 22.67 25.4929C22.1567 26.135 21.0442 27.2044 19.3334 27.2044ZM30.6667 27.2044C28.9559 27.2044 27.8434 26.1346 27.33 25.4929C27.1121 25.2207 27.1121 24.8221 27.33 24.5494C27.8434 23.9074 28.9555 22.838 30.6667 22.838C32.378 22.838 33.4901 23.9078 34.0034 24.5494C34.2213 24.8217 34.2213 25.2203 34.0034 25.4929C33.4901 26.135 32.3775 27.2044 30.6667 27.2044Z" fill="white"/>
</g>
<defs>
<linearGradient id="paint0_linear_10_221" x1="-21.0938" y1="-19.5312" x2="77.571" y2="57.8828" gradientUnits="userSpaceOnUse">
<stop stop-color="#E688C6"/>
<stop offset="1" stop-color="#A688E6"/>
</linearGradient>
<clipPath id="clip0_10_221">
<rect width="50" height="50" fill="white"/>
</clipPath>
</defs>
</svg>
