<svg width="50" height="50" viewBox="0 0 50 50" fill="none" xmlns="http://www.w3.org/2000/svg">
<g clip-path="url(#clip0_10_226)">
<path d="M42 0H8C3.58172 0 0 3.58172 0 8V42C0 46.4183 3.58172 50 8 50H42C46.4183 50 50 46.4183 50 42V8C50 3.58172 46.4183 0 42 0Z" fill="url(#paint0_linear_10_226)"/>
<path d="M21.1111 23.4446H28.8889C30.1776 23.4446 31.2222 22.3999 31.2222 21.1112V14.889C31.2222 13.6003 30.1776 12.5557 28.8889 12.5557H21.1111C19.8224 12.5557 18.7778 13.6003 18.7778 14.889V21.1112C18.7778 22.3999 19.8224 23.4446 21.1111 23.4446ZM24.2222 14.1112H25.7778V16.7415L25.3479 16.5266C25.1291 16.4172 24.8709 16.4172 24.6521 16.5266L24.2222 16.7415V14.1112ZM20.3333 14.889C20.3333 14.4602 20.6823 14.1112 21.1111 14.1112H22.6667V18.0001C22.6667 18.2698 22.8064 18.5197 23.0358 18.6617C23.2652 18.8037 23.5508 18.8143 23.7923 18.6959L25 18.092L26.2077 18.6958C26.3178 18.7506 26.4363 18.7779 26.5556 18.7779C26.6976 18.7779 26.8396 18.7391 26.9642 18.6617C27.1936 18.5197 27.3333 18.2698 27.3333 18.0001V14.1112H28.8889C29.3177 14.1112 29.6667 14.4602 29.6667 14.889V21.1112C29.6667 21.5401 29.3177 21.889 28.8889 21.889H21.1111C20.6823 21.889 20.3333 21.5401 20.3333 21.1112V14.889ZM21.1111 26.5557H13.3333C12.0447 26.5557 11 27.6003 11 28.889V35.1112C11 36.3999 12.0447 37.4446 13.3333 37.4446H21.1111C22.3998 37.4446 23.4444 36.3999 23.4444 35.1112V28.889C23.4444 27.6003 22.3998 26.5557 21.1111 26.5557ZM16.4444 28.1112H18V30.7415L17.5701 30.5266C17.3513 30.4172 17.0931 30.4172 16.8744 30.5266L16.4444 30.7415V28.1112ZM21.8889 35.1112C21.8889 35.5401 21.54 35.889 21.1111 35.889H13.3333C12.9045 35.889 12.5556 35.5401 12.5556 35.1112V28.889C12.5556 28.4602 12.9045 28.1112 13.3333 28.1112H14.8889V32.0001C14.8889 32.2698 15.0286 32.5197 15.258 32.6617C15.4874 32.8037 15.773 32.8143 16.0145 32.6959L17.2222 32.092L18.4299 32.6958C18.54 32.7506 18.6585 32.7779 18.7778 32.7779C18.9198 32.7779 19.0619 32.7391 19.1864 32.6617C19.4158 32.5197 19.5556 32.2698 19.5556 32.0001V28.1112H21.1111C21.54 28.1112 21.8889 28.4602 21.8889 28.889V35.1112ZM36.6667 26.5557H28.8889C27.6002 26.5557 26.5556 27.6003 26.5556 28.889V35.1112C26.5556 36.3999 27.6002 37.4446 28.8889 37.4446H36.6667C37.9553 37.4446 39 36.3999 39 35.1112V28.889C39 27.6003 37.9553 26.5557 36.6667 26.5557ZM32 28.1112H33.5556V30.7415L33.1256 30.5266C32.9069 30.4172 32.6487 30.4172 32.4299 30.5266L32 30.7415V28.1112ZM37.4444 35.1112C37.4444 35.5401 37.0955 35.889 36.6667 35.889H28.8889C28.46 35.889 28.1111 35.5401 28.1111 35.1112V28.889C28.1111 28.4602 28.46 28.1112 28.8889 28.1112H30.4444V32.0001C30.4444 32.2698 30.5842 32.5197 30.8136 32.6617C31.043 32.8037 31.3286 32.8143 31.5701 32.6959L32.7778 32.092L33.9855 32.6958C34.0956 32.7506 34.2141 32.7779 34.3333 32.7779C34.4754 32.7779 34.6174 32.7391 34.742 32.6617C34.9714 32.5197 35.1111 32.2698 35.1111 32.0001V28.1112H36.6667C37.0955 28.1112 37.4444 28.4602 37.4444 28.889V35.1112Z" fill="url(#paint1_linear_10_226)"/>
</g>
<defs>
<linearGradient id="paint0_linear_10_226" x1="57.0575" y1="53.447" x2="-3.0988" y2="-5.53741" gradientUnits="userSpaceOnUse">
<stop stop-color="#3AB11C"/>
<stop offset="1" stop-color="#7DD168"/>
</linearGradient>
<linearGradient id="paint1_linear_10_226" x1="7.57759" y1="10.4614" x2="48.6012" y2="51.273" gradientUnits="userSpaceOnUse">
<stop stop-color="white"/>
<stop offset="0.576716" stop-color="white" stop-opacity="0.8"/>
<stop offset="1" stop-color="white" stop-opacity="0"/>
</linearGradient>
<clipPath id="clip0_10_226">
<rect width="50" height="50" fill="white"/>
</clipPath>
</defs>
</svg>
