<svg width="50" height="50" viewBox="0 0 50 50" fill="none" xmlns="http://www.w3.org/2000/svg">
<g clip-path="url(#clip0_10_242)">
<path d="M42 0H8C3.58172 0 0 3.58172 0 8V42C0 46.4183 3.58172 50 8 50H42C46.4183 50 50 46.4183 50 42V8C50 3.58172 46.4183 0 42 0Z" fill="url(#paint0_linear_10_242)"/>
<path d="M34.4749 17.9943L28.6502 12.1697C27.9938 11.5132 27.1036 11.1445 26.1752 11.1445H18C16.067 11.1445 14.5 12.7116 14.5 14.6445V35.6445C14.5 37.5774 16.067 39.1445 18 39.1445H32C33.9331 39.1445 35.5 37.5774 35.5 35.6445V20.4692C35.5 19.541 35.1313 18.6508 34.4749 17.9943ZM26.75 13.0082C26.9948 13.0936 27.2239 13.2184 27.4128 13.4072L33.2374 19.2317C33.4263 19.4205 33.5508 19.6497 33.6365 19.8945H27.625C27.1431 19.8945 26.75 19.5023 26.75 19.0195V13.0082ZM33.75 35.6445C33.75 36.6095 32.965 37.3945 32 37.3945H18C17.035 37.3945 16.25 36.6095 16.25 35.6445V14.6445C16.25 13.6796 17.035 12.8945 18 12.8945H25V19.0195C25 20.467 26.1775 21.6445 27.625 21.6445H33.75V35.6445ZM18.875 27.7695C18.875 30.6646 21.23 33.0195 24.125 33.0195C25.257 33.0195 26.2995 32.6513 27.1578 32.0396L30.5063 35.3881C30.6772 35.5591 30.9011 35.6445 31.125 35.6445C31.3489 35.6445 31.5728 35.5591 31.7436 35.3881C32.0854 35.0463 32.0854 34.4926 31.7436 34.1509L28.3951 30.8023C29.0067 29.944 29.375 28.9015 29.375 27.7695C29.375 24.8745 27.02 22.5195 24.125 22.5195C21.23 22.5195 18.875 24.8745 18.875 27.7695ZM27.625 27.7695C27.625 29.6989 26.0544 31.2695 24.125 31.2695C22.1956 31.2695 20.625 29.6989 20.625 27.7695C20.625 25.8401 22.1956 24.2695 24.125 24.2695C26.0544 24.2695 27.625 25.8401 27.625 27.7695Z" fill="white"/>
</g>
<defs>
<linearGradient id="paint0_linear_10_242" x1="53.125" y1="-8.59375" x2="-28.4879" y2="82.2616" gradientUnits="userSpaceOnUse">
<stop stop-color="#A98BEA"/>
<stop offset="1" stop-color="#682CE9"/>
</linearGradient>
<clipPath id="clip0_10_242">
<rect width="50" height="50" fill="white"/>
</clipPath>
</defs>
</svg>
