<svg width="50" height="50" viewBox="0 0 50 50" fill="none" xmlns="http://www.w3.org/2000/svg">
<g clip-path="url(#clip0_10_259)">
<path d="M42 0H8C3.58172 0 0 3.58172 0 8V42C0 46.4183 3.58172 50 8 50H42C46.4183 50 50 46.4183 50 42V8C50 3.58172 46.4183 0 42 0Z" fill="url(#paint0_linear_10_259)"/>
<path d="M33.3284 27.7279L34.5732 24.4674C34.7815 23.9205 34.3805 23.3371 33.7919 23.3371H30.745C31.3179 22.3527 31.6721 21.2225 31.6721 20.0037V19.9881C33.7138 19.5818 35.0055 18.9933 35.0055 18.337C35.0055 17.6443 33.5836 17.0297 31.3544 16.6182C30.8752 14.9098 29.9481 13.191 29.2397 12.3056C28.7449 11.6858 27.8907 11.4931 27.1824 11.8472L25.7448 12.566C25.2761 12.8004 24.724 12.8004 24.2552 12.566L22.8177 11.8472C22.1093 11.4931 21.2551 11.6858 20.7603 12.3056C20.0572 13.191 19.1248 14.9098 18.6457 16.6182C16.4216 17.0297 14.9997 17.6443 14.9997 18.337C14.9997 18.9933 16.2914 19.5818 18.3331 19.9881V20.0037C18.3331 21.2225 18.6873 22.3527 19.2603 23.3371H16.2654C15.6664 23.3371 15.2654 23.9465 15.4997 24.4986L16.8435 27.6341C14.7549 28.8477 13.333 31.0822 13.333 33.6708V36.0042C13.333 37.2907 14.3799 38.3376 15.6664 38.3376H34.3336C35.6201 38.3376 36.667 37.2907 36.667 36.0042V33.6708C36.667 31.1499 35.3232 28.9623 33.3284 27.7279ZM22.4999 36.6709L20.3332 26.6706L22.9166 28.3373L24.1666 30.4207L22.4999 36.6709ZM27.5001 36.6709L25.8334 30.4207L27.0834 28.3373L29.6668 26.6706L27.5001 36.6709ZM29.672 21.1235C29.4689 21.7434 29.3074 22.4048 28.8126 22.8632C28.2866 23.3476 26.3125 24.0299 25.4792 21.5611C25.3333 21.1235 24.6771 21.1235 24.526 21.5611C23.6406 24.1757 21.6093 23.2486 21.1926 22.8632C20.6978 22.4048 20.5311 21.7434 20.3332 21.1235C20.2915 20.9933 20.0051 20.8267 20.0051 20.8215V20.2589C21.4791 20.4464 23.1822 20.561 25.0052 20.561C26.8282 20.561 28.5314 20.4516 30.0054 20.2589V20.8215C30.0001 20.8267 29.7137 20.9881 29.672 21.1235Z" fill="white"/>
<path d="M42 0H8C3.58172 0 0 3.58172 0 8V42C0 46.4183 3.58172 50 8 50H42C46.4183 50 50 46.4183 50 42V8C50 3.58172 46.4183 0 42 0Z" fill="url(#paint1_linear_10_259)"/>
<path d="M36.0141 24.2435C36.1344 23.8102 36.2 23.3605 36.2 22.8943C36.2 20.1794 34.007 17.98 31.3 17.98C30.5672 17.98 29.8617 18.1391 29.2 18.4517C27.8164 16.4772 25.5141 15.1719 22.9 15.1719C18.7711 15.1719 15.3859 18.4407 15.2109 22.5542C12.7172 23.4318 11 25.8011 11 28.5106C11 32.0043 13.8164 34.8289 17.3 34.8289H33.4C36.4953 34.8289 39 32.3169 39 29.2126C39 27.1504 37.8734 25.2307 36.0141 24.2435ZM33.2049 33.4248H17.5394C14.9884 33.4248 12.6872 31.5748 12.4266 29.0297C12.1723 26.5456 13.7678 24.3833 15.9994 23.7707C16.3655 23.6702 16.6022 23.3205 16.6001 22.9399C16.6 22.9252 16.6 22.9105 16.6 22.8958C16.5995 20.2327 18.2244 17.7771 20.7435 16.9351C23.8704 15.8899 26.8339 17.2303 28.2807 19.6069C28.5425 20.037 29.0837 20.1331 29.5153 19.8751C30.254 19.4335 31.1682 19.2578 32.1378 19.4807C33.3125 19.7508 34.3011 20.6654 34.6428 21.8244C34.8965 22.6848 34.8311 23.5242 34.5331 24.2446C34.352 24.682 34.6232 25.1551 35.0573 25.3413C36.691 26.0423 37.7881 27.7572 37.5731 29.696C37.3333 31.8593 35.3752 33.4248 33.2049 33.4248Z" fill="white"/>
</g>
<defs>
<linearGradient id="paint0_linear_10_259" x1="1.5625" y1="-1.56223" x2="50" y2="48.4378" gradientUnits="userSpaceOnUse">
<stop stop-color="#FDC196"/>
<stop offset="1" stop-color="#EB6B0E"/>
</linearGradient>
<linearGradient id="paint1_linear_10_259" x1="1.5625" y1="-1.56223" x2="50" y2="48.4378" gradientUnits="userSpaceOnUse">
<stop stop-color="#ADFDF3"/>
<stop offset="1" stop-color="#62C2F9"/>
</linearGradient>
<clipPath id="clip0_10_259">
<rect width="50" height="50" fill="white"/>
</clipPath>
</defs>
</svg>
