<svg width="50" height="50" viewBox="0 0 50 50" fill="none" xmlns="http://www.w3.org/2000/svg">
<path d="M42 0H8C3.58172 0 0 3.58172 0 8V42C0 46.4183 3.58172 50 8 50H42C46.4183 50 50 46.4183 50 42V8C50 3.58172 46.4183 0 42 0Z" fill="url(#paint0_linear_4_666)"/>
<path d="M34.375 17.1875H30.8594L30.445 16.0866C29.9866 14.8688 28.8216 14.0625 27.5203 14.0625H22.4797C21.1784 14.0625 20.0134 14.8688 19.555 16.0866L19.1406 17.1875H15.625C13.8991 17.1875 12.5 18.5866 12.5 20.3125V32.8125C12.5 34.5384 13.8991 35.9375 15.625 35.9375H34.375C36.1009 35.9375 37.5 34.5384 37.5 32.8125V20.3125C37.5 18.5866 36.1009 17.1875 34.375 17.1875ZM35.9375 32.8125C35.9375 33.6719 35.2344 34.375 34.375 34.375H15.625C14.7656 34.375 14.0625 33.6719 14.0625 32.8125V20.3125C14.0625 19.4531 14.7656 18.75 15.625 18.75H20.2271L21.0134 16.6415C21.2414 16.0303 21.8251 15.625 22.4774 15.625H27.5226C28.1749 15.625 28.7586 16.0303 28.9866 16.6415L29.7729 18.75H34.375C35.2344 18.75 35.9375 19.4531 35.9375 20.3125V32.8125ZM25 20.7031C21.7651 20.7031 19.1406 23.3276 19.1406 26.5625C19.1406 29.7974 21.7651 32.4219 25 32.4219C28.2349 32.4219 30.8594 29.7974 30.8594 26.5625C30.8594 23.3276 28.2349 20.7031 25 20.7031ZM25 30.8594C22.6318 30.8594 20.7031 28.9307 20.7031 26.5625C20.7031 24.1943 22.6318 22.2656 25 22.2656C27.3682 22.2656 29.2969 24.1943 29.2969 26.5625C29.2969 28.9307 27.3682 30.8594 25 30.8594Z" fill="white"/>
<defs>
<linearGradient id="paint0_linear_4_666" x1="-14.0625" y1="-11.6071" x2="81.5127" y2="72.0212" gradientUnits="userSpaceOnUse">
<stop stop-color="#FDDDAC"/>
<stop offset="1" stop-color="#FDC4AC"/>
</linearGradient>
</defs>
</svg>
