<svg width="50" height="50" viewBox="0 0 50 50" fill="none" xmlns="http://www.w3.org/2000/svg">
<path d="M42 0H8C3.58172 0 0 3.58172 0 8V42C0 46.4183 3.58172 50 8 50H42C46.4183 50 50 46.4183 50 42V8C50 3.58172 46.4183 0 42 0Z" fill="url(#paint0_linear_4_672)"/>
<path d="M34.375 23.5932C34.0295 23.5932 33.75 23.8728 33.75 24.2182V29.5957C33.75 29.8784 33.5589 30.1268 33.2861 30.2L25.625 32.2424V23.5932C25.625 23.2478 25.3454 22.9682 25 22.9682C24.6545 22.9682 24.375 23.2478 24.375 23.5932V32.2429L16.7144 30.2C16.441 30.1268 16.25 29.8784 16.25 29.5957V24.2182C16.25 23.8728 15.9704 23.5932 15.625 23.5932C15.2795 23.5932 15 23.8728 15 24.2182V29.5957C15 30.4429 15.5719 31.1882 16.3916 31.4073L24.1955 33.4887C24.4586 33.5583 24.7289 33.5937 25 33.5937C25.271 33.5937 25.5413 33.5583 25.805 33.4881L33.609 31.4073C34.428 31.1882 35 30.4429 35 29.5957V24.2182C35 23.8728 34.7204 23.5932 34.375 23.5932ZM37.4494 20.8474L35.5744 16.472C35.4645 16.2163 35.2021 16.0666 34.9225 16.0978L25 17.3382L15.0775 16.0978C14.7979 16.0666 14.5355 16.2163 14.4256 16.472L12.5506 20.8474C12.4774 21.0171 12.4841 21.2113 12.5677 21.3761C12.6513 21.5415 12.8039 21.6611 12.9846 21.7026L21.1096 23.5779C21.156 23.5882 21.2035 23.5937 21.25 23.5937C21.4441 23.5937 21.6302 23.5034 21.7498 23.3435L25 19.0095L28.2501 23.3435C28.3697 23.5034 28.5558 23.5937 28.75 23.5937C28.7963 23.5937 28.8439 23.5882 28.8903 23.5779L37.0154 21.7026C37.1961 21.6611 37.3487 21.5415 37.4323 21.3761C37.5159 21.2113 37.5226 21.0171 37.4494 20.8474ZM20.9942 22.2679L13.9941 20.6527L15.3894 17.3967L23.8537 18.4546L20.9942 22.2679ZM29.0057 22.2679L26.1462 18.4546L34.6106 17.3967L36.0059 20.6527L29.0057 22.2679Z" fill="white"/>
<defs>
<linearGradient id="paint0_linear_4_672" x1="53.9062" y1="-9.375" x2="-25.3882" y2="39.8078" gradientUnits="userSpaceOnUse">
<stop stop-color="#B6DA4F"/>
<stop offset="1" stop-color="#CBDE96"/>
</linearGradient>
</defs>
</svg>
