<svg width="50" height="50" viewBox="0 0 50 50" fill="none" xmlns="http://www.w3.org/2000/svg">
<path d="M42 0H8C3.58172 0 0 3.58172 0 8V42C0 46.4183 3.58172 50 8 50H42C46.4183 50 50 46.4183 50 42V8C50 3.58172 46.4183 0 42 0Z" fill="url(#paint0_linear_4_654)"/>
<path d="M33.1795 25.6641C31.2021 25.6641 29.5567 26.9873 29.0098 28.7891H27.5548V16.9141C27.5548 16.2266 28.1173 15.6641 28.8048 15.6641H36.9293C37.2745 15.6641 37.5543 15.3843 37.5543 15.0391C37.5543 14.6939 37.2745 14.4141 36.9293 14.4141H28.8047C27.4297 14.4141 26.3049 15.5391 26.3049 16.914V28.9569L12.9906 33.1934C12.661 33.2984 12.4791 33.65 12.5841 33.9783C12.6683 34.2444 12.9149 34.4141 13.1798 34.4141C13.242 34.4141 13.3067 34.405 13.3689 34.3848L27.0266 30.0391H28.8047C28.8047 32.4767 30.7961 34.4474 33.2414 34.4136C35.5651 34.3816 37.5218 32.4247 37.5538 30.101C37.5876 27.6556 35.617 25.6641 33.1795 25.6641ZM33.1795 33.1641C31.4559 33.1641 30.0547 31.7627 30.0547 30.0391C30.0547 28.3155 31.4559 26.9141 33.1795 26.9141C34.9031 26.9141 36.3043 28.3155 36.3043 30.0391C36.3043 31.7627 34.9031 33.1641 33.1795 33.1641ZM13.753 28.645C13.9508 29.383 14.66 30.0373 15.5524 30.0373C15.7123 30.0373 15.8795 30.0159 16.0504 29.9701L23.2953 28.0255C23.7787 27.8955 24.1827 27.5855 24.433 27.1515C24.6832 26.7182 24.7491 26.2122 24.6197 25.7288L22.9986 19.6912C22.7362 18.714 21.6461 18.1122 20.7025 18.3673L13.4601 20.3083C12.4615 20.5768 11.867 21.6065 12.1344 22.6044L13.7518 28.6444L13.753 28.645ZM18.3995 20.2789L18.9752 22.309L17.3565 22.7411L16.7835 20.7119L18.3995 20.2789ZM13.7848 21.5155L15.5754 21.0357L16.3214 23.6743C16.3995 23.949 16.6498 24.1291 16.9232 24.1291C16.9757 24.1291 17.0306 24.1223 17.0844 24.1077L19.9103 23.3527C20.0726 23.31 20.2094 23.2032 20.2924 23.0579C20.3754 22.9126 20.3961 22.7399 20.351 22.5788L19.6076 19.9551L21.0297 19.574C21.3287 19.4922 21.7035 19.6906 21.7914 20.0159L23.4125 26.0529C23.4552 26.214 23.4332 26.3831 23.3502 26.5271C23.2672 26.6718 23.1317 26.775 22.9706 26.8183L15.7269 28.7628C15.3094 28.8746 15.025 28.5645 14.9603 28.321L13.3429 22.2809C13.2538 21.9483 13.4515 21.6053 13.7848 21.5155Z" fill="white"/>
<defs>
<linearGradient id="paint0_linear_4_654" x1="-21.0938" y1="-19.5312" x2="77.571" y2="57.8828" gradientUnits="userSpaceOnUse">
<stop stop-color="#E688C6"/>
<stop offset="1" stop-color="#A688E6"/>
</linearGradient>
</defs>
</svg>
