<svg width="50" height="50" viewBox="0 0 50 50" fill="none" xmlns="http://www.w3.org/2000/svg">
<path d="M42 0H8C3.58172 0 0 3.58172 0 8V42C0 46.4183 3.58172 50 8 50H42C46.4183 50 50 46.4183 50 42V8C50 3.58172 46.4183 0 42 0Z" fill="url(#paint0_linear_4_660)"/>
<path d="M31.25 18.75H29.6875V14.8438C29.6875 13.5513 28.6362 12.5 27.3438 12.5H22.6562C21.3638 12.5 20.3125 13.5513 20.3125 14.8438V18.75H18.75C17.0241 18.75 15.625 20.1491 15.625 21.875V32.8125C15.625 34.5384 17.0241 35.9375 18.75 35.9375V36.7188C18.75 37.1502 19.0998 37.5 19.5312 37.5C19.9627 37.5 20.3125 37.1502 20.3125 36.7188V35.9375H29.6875V36.7188C29.6875 37.1502 30.0373 37.5 30.4688 37.5C30.9002 37.5 31.25 37.1502 31.25 36.7188V35.9375C32.976 35.9375 34.375 34.5384 34.375 32.8125V21.875C34.375 20.1491 32.976 18.75 31.25 18.75ZM21.875 14.8438C21.875 14.4127 22.2252 14.0625 22.6562 14.0625H27.3438C27.7748 14.0625 28.125 14.4127 28.125 14.8438V18.75H21.875V14.8438ZM32.8125 32.8125C32.8125 33.6741 32.1116 34.375 31.25 34.375H18.75C17.8884 34.375 17.1875 33.6741 17.1875 32.8125V21.875C17.1875 21.0134 17.8884 20.3125 18.75 20.3125H31.25C32.1116 20.3125 32.8125 21.0134 32.8125 21.875V32.8125ZM28.9062 28.9062H21.0938C20.6623 28.9062 20.3125 29.256 20.3125 29.6875C20.3125 30.1189 20.6623 30.4688 21.0938 30.4688H28.9062C29.3377 30.4688 29.6875 30.1189 29.6875 29.6875C29.6875 29.256 29.3377 28.9062 28.9062 28.9062ZM28.9062 24.2188H21.0938C20.6623 24.2188 20.3125 24.5685 20.3125 25C20.3125 25.4314 20.6623 25.7812 21.0938 25.7812H28.9062C29.3377 25.7812 29.6875 25.4314 29.6875 25C29.6875 24.5685 29.3377 24.2188 28.9062 24.2188Z" fill="white"/>
<defs>
<linearGradient id="paint0_linear_4_660" x1="62.5" y1="-39.0625" x2="10.488" y2="99.6361" gradientUnits="userSpaceOnUse">
<stop stop-color="#77E0D4"/>
<stop offset="1" stop-color="#77CDE0"/>
</linearGradient>
</defs>
</svg>
