<svg width="50" height="50" viewBox="0 0 50 50" fill="none" xmlns="http://www.w3.org/2000/svg">
<path d="M42 0H8C3.58172 0 0 3.58172 0 8V42C0 46.4183 3.58172 50 8 50H42C46.4183 50 50 46.4183 50 42V8C50 3.58172 46.4183 0 42 0Z" fill="url(#paint0_linear_4_642)"/>
<path d="M15.3125 22.6563C15.3125 23.1719 15.7344 23.5938 16.25 23.5938C16.7656 23.5938 17.1875 23.1719 17.1875 22.6563C17.1875 22.1406 16.7656 21.7188 16.25 21.7188C15.7344 21.7188 15.3125 22.1406 15.3125 22.6563ZM21.9482 24.8438H14.3066C13.999 24.8438 13.75 24.5947 13.75 24.2871V22.1338C13.75 21.2158 14.4971 20.4688 15.415 20.4688H25.835C25.8447 20.4688 25.8545 20.4737 25.8643 20.4737C25.8887 20.4737 25.9131 20.4688 25.9424 20.4688H28.2129C27.9102 20.0342 27.4902 19.6875 27.0068 19.4727L26.3867 16.7822C26.1279 15.6446 25.1172 14.8389 23.9502 14.8438H17.1924C16.0254 14.8389 15.0098 15.6446 14.7559 16.7822L14.1162 19.5362C13.1641 20.0196 12.5 20.9961 12.5 22.1338V24.2871C12.5049 25.0684 13.0078 25.7569 13.75 25.9961V27.3438C13.75 27.6905 14.0283 27.9688 14.375 27.9688C14.7217 27.9688 15 27.6905 15 27.3438V26.0938H21.2354C21.4062 25.9278 21.5723 25.7569 21.7676 25.6153L21.9482 24.8438ZM15.9717 17.0606C16.1035 16.4942 16.6064 16.0938 17.1924 16.0938H23.9502C24.5312 16.0938 25.0391 16.4942 25.1709 17.0606L25.6689 19.2188H15.4736L15.9717 17.0606ZM33.75 28.5938C33.2344 28.5938 32.8125 29.0156 32.8125 29.5313C32.8125 30.0469 33.2344 30.4688 33.75 30.4688C34.2656 30.4688 34.6875 30.0469 34.6875 29.5313C34.6875 29.0156 34.2656 28.5938 33.75 28.5938ZM25 28.5938C24.4844 28.5938 24.0625 29.0156 24.0625 29.5313C24.0625 30.0469 24.4844 30.4688 25 30.4688C25.5156 30.4688 25.9375 30.0469 25.9375 29.5313C25.9375 29.0156 25.5156 28.5938 25 28.5938ZM35.7568 26.3477L35.1367 23.6572C34.8779 22.5196 33.8672 21.7139 32.7002 21.7188H25.9424C24.7754 21.7139 23.7598 22.5196 23.5059 23.6572L22.8662 26.4112C21.9141 26.8946 21.25 27.8711 21.25 29.0088V31.1621C21.2549 31.9434 21.7578 32.6319 22.5 32.8711V34.2188C22.5 34.5655 22.7783 34.8438 23.125 34.8438C23.4717 34.8438 23.75 34.5655 23.75 34.2188V32.9688H35V34.2188C35 34.5655 35.2783 34.8438 35.625 34.8438C35.9717 34.8438 36.25 34.5655 36.25 34.2188V32.8711C36.9922 32.6319 37.4951 31.9434 37.5 31.1621V29.0088C37.5 27.8565 36.8164 26.8115 35.7568 26.3477ZM24.7217 23.9356C24.8535 23.3692 25.3564 22.9688 25.9424 22.9688H32.7002C33.2812 22.9688 33.7891 23.3692 33.9209 23.9356L34.4189 26.0938H24.2236L24.7217 23.9356ZM36.25 31.1621C36.25 31.4697 36.001 31.7188 35.6934 31.7188H23.0566C22.749 31.7188 22.5 31.4697 22.5 31.1621V29.0088C22.5 28.0908 23.2471 27.3438 24.165 27.3438H34.585C35.5029 27.3438 36.25 28.0908 36.25 29.0088V31.1621Z" fill="white"/>
<defs>
<linearGradient id="paint0_linear_4_642" x1="-1.95312" y1="-0.390627" x2="50" y2="54.6875" gradientUnits="userSpaceOnUse">
<stop stop-color="#A2BFF5"/>
<stop offset="1" stop-color="#4A82EC"/>
</linearGradient>
</defs>
</svg>
