<svg width="50" height="50" viewBox="0 0 50 50" fill="none" xmlns="http://www.w3.org/2000/svg">
<path d="M42 0H8C3.58172 0 0 3.58172 0 8V42C0 46.4183 3.58172 50 8 50H42C46.4183 50 50 46.4183 50 42V8C50 3.58172 46.4183 0 42 0Z" fill="url(#paint0_linear_4_648)"/>
<path d="M28.3783 28.0176C28.1509 27.6498 27.6657 27.5399 27.3026 27.7688C26.9363 27.9978 26.825 28.4784 27.0539 28.8447L30.1514 33.8041C30.246 33.9613 30.2735 34.1047 30.2353 34.2527C30.185 34.4496 30.0339 34.5991 29.9546 34.6434C26.9501 36.3433 22.995 36.325 20.0562 34.6495C19.9692 34.5991 19.812 34.4419 19.7617 34.2405C19.7266 34.0956 19.7556 33.9582 19.8532 33.8041L22.9477 28.837C23.1751 28.4708 23.0637 27.9886 22.6975 27.7597C22.3359 27.5369 21.8491 27.6422 21.6202 28.01L18.5288 32.974C18.2068 33.4836 18.1076 34.0498 18.2434 34.6098C18.3823 35.1774 18.7744 35.71 19.2734 36.003C20.9915 36.9827 22.9721 37.5 25 37.5C27.0142 37.5 28.9932 36.9827 30.7282 36.0015C31.2134 35.7222 31.604 35.2019 31.749 34.6418C31.8924 34.0818 31.8008 33.5111 31.4804 32.9846L28.3783 28.0176ZM35.9329 18.5581C34.9274 16.8124 33.49 15.3565 31.7734 14.3463C31.2897 14.0641 30.6427 13.9862 30.0858 14.1403C29.5273 14.296 29.0787 14.6592 28.7827 15.2024L26.033 20.3724C25.8301 20.7524 25.9751 21.2254 26.3565 21.4284C26.7334 21.6329 27.211 21.4879 27.4124 21.1049L30.1575 15.944C30.246 15.7823 30.3559 15.6877 30.5039 15.6465C30.7038 15.5885 30.9036 15.648 30.983 15.6938C32.4646 16.5666 33.7082 17.8271 34.581 19.3394C35.4584 20.8623 35.9284 22.5683 35.9375 24.2667C35.9375 24.3674 35.8796 24.5811 35.73 24.7245C35.6216 24.8283 35.5042 24.897 35.3058 24.8649L29.4587 24.6681C29.0207 24.6803 28.6667 24.9931 28.6514 25.4234C28.6377 25.8538 28.9749 26.2154 29.4068 26.2307L35.2493 26.4275C35.2814 26.4275 35.315 26.4291 35.347 26.4291C35.9116 26.4291 36.4151 26.2322 36.8088 25.8553C37.2315 25.4509 37.497 24.8451 37.5 24.2667C37.4893 22.2891 36.9477 20.316 35.9329 18.5581ZM21.3425 25.4173C21.3272 24.987 20.9519 24.6146 20.5338 24.6635L14.6912 24.868C14.5066 24.8665 14.3708 24.8252 14.2609 24.7169C14.1159 24.575 14.0625 24.3689 14.0625 24.279C14.0778 22.5592 14.5478 20.8516 15.419 19.3394C16.2979 17.818 17.54 16.5575 19.0079 15.6999C19.0949 15.6496 19.3069 15.5931 19.5084 15.6496C19.6518 15.6923 19.7571 15.7853 19.841 15.9456L22.5937 21.111C22.7966 21.4925 23.2712 21.6344 23.6511 21.433C24.0311 21.23 24.176 20.757 23.9731 20.3755L21.2219 15.2131C20.9397 14.679 20.4987 14.3113 19.9448 14.1495C19.3833 13.9893 18.7271 14.0595 18.2251 14.3463C16.5176 15.3458 15.0788 16.8017 14.0671 18.5581C13.06 20.3038 12.5183 22.2769 12.5 24.2698C12.4985 24.8283 12.7548 25.428 13.1684 25.8324C13.5666 26.2246 14.0854 26.4306 14.6775 26.4306H14.737L20.5887 26.2261C21.019 26.2108 21.3577 25.8492 21.3425 25.4173ZM22.6563 24.9992C22.6563 26.2937 23.7056 27.3431 25 27.3431C26.2944 27.3431 27.3438 26.2937 27.3438 24.9992C27.3438 23.7047 26.2944 22.6553 25 22.6553C23.7056 22.6553 22.6563 23.7047 22.6563 24.9992ZM25 24.2179C25.4308 24.2179 25.7813 24.5684 25.7813 24.9992C25.7813 25.43 25.4308 25.7805 25 25.7805C24.5693 25.7805 24.2188 25.43 24.2188 24.9992C24.2188 24.5685 24.5693 24.2179 25 24.2179Z" fill="white"/>
<defs>
<linearGradient id="paint0_linear_4_648" x1="1.5625" y1="-1.56223" x2="50" y2="48.4378" gradientUnits="userSpaceOnUse">
<stop stop-color="#FDD1AD"/>
<stop offset="1" stop-color="#F9A662"/>
</linearGradient>
</defs>
</svg>
