<svg width="50" height="50" viewBox="0 0 50 50" fill="none" xmlns="http://www.w3.org/2000/svg">
<path d="M42 0H8C3.58172 0 0 3.58172 0 8V42C0 46.4183 3.58172 50 8 50H42C46.4183 50 50 46.4183 50 42V8C50 3.58172 46.4183 0 42 0Z" fill="url(#paint0_linear_4_631)"/>
<path d="M35.4388 21.5056L29.0865 20.5814L26.2465 14.8353C25.9916 14.3217 25.4969 14.0624 24.9991 14.0625C24.5046 14.0625 24.007 14.3185 23.7517 14.8353L20.9118 20.5814L14.5594 21.5056C13.4194 21.6704 12.9628 23.072 13.789 23.8749L18.3858 28.3449L17.2988 34.6593C17.1441 35.5618 17.8637 36.2847 18.6706 36.2847C18.8847 36.2847 19.1049 36.2339 19.3166 36.122L24.9991 33.1404L30.6817 36.122C30.8928 36.2328 31.1125 36.2831 31.326 36.2831C32.1336 36.2831 32.8543 35.5624 32.6996 34.6593L31.6125 28.3449L36.2093 23.8749C37.0355 23.072 36.579 21.6704 35.4388 21.5056ZM30.1814 28.2197L31.327 34.8921L25.3218 31.7412C25.1197 31.6352 24.8785 31.6352 24.6764 31.7412L18.6675 34.8949L19.8787 27.8593L14.7594 22.8801L21.4729 21.9033C21.6988 21.8704 21.8941 21.7286 21.9954 21.524L24.9991 15.4514L28.0029 21.5239C28.1041 21.7286 28.2995 21.8704 28.5254 21.9032L35.2411 22.8792L30.3817 27.6044C30.2176 27.764 30.1427 27.9941 30.1814 28.2197Z" fill="white"/>
<defs>
<linearGradient id="paint0_linear_4_631" x1="51.1719" y1="47.6562" x2="0" y2="0" gradientUnits="userSpaceOnUse">
<stop stop-color="#0088FF"/>
<stop offset="1" stop-color="#69B7FC"/>
</linearGradient>
</defs>
</svg>
