<svg width="50" height="50" viewBox="0 0 50 50" fill="none" xmlns="http://www.w3.org/2000/svg">
<path d="M42 0H8C3.58172 0 0 3.58172 0 8V42C0 46.4183 3.58172 50 8 50H42C46.4183 50 50 46.4183 50 42V8C50 3.58172 46.4183 0 42 0Z" fill="url(#paint0_linear_4_636)"/>
<path d="M33.4598 18.6159L28.2591 13.4153C27.673 12.8292 26.8782 12.5 26.0493 12.5H18.75C17.0241 12.5 15.625 13.8991 15.625 15.625V34.375C15.625 36.1009 17.0241 37.5 18.75 37.5H31.25C32.976 37.5 34.375 36.1009 34.375 34.375V20.8257C34.375 19.9968 34.0458 19.2021 33.4598 18.6159ZM26.5625 14.1639C26.7811 14.2404 26.9856 14.3517 27.1542 14.5203L32.3548 19.7207C32.5234 19.8893 32.6346 20.0939 32.7111 20.3125H27.3438C26.9135 20.3125 26.5625 19.9623 26.5625 19.5312V14.1639ZM32.8125 34.375C32.8125 35.2366 32.1116 35.9375 31.25 35.9375H18.75C17.8884 35.9375 17.1875 35.2366 17.1875 34.375V15.625C17.1875 14.7634 17.8884 14.0625 18.75 14.0625H25V19.5312C25 20.8237 26.0513 21.875 27.3438 21.875H32.8125V34.375ZM25 31.6406C24.3528 31.6406 23.8281 32.1653 23.8281 32.8125C23.8281 33.4597 24.3528 33.9844 25 33.9844C25.6473 33.9844 26.1719 33.4597 26.1719 32.8125C26.1719 32.1653 25.6473 31.6406 25 31.6406ZM25 30.4688C25.4318 30.4688 25.7812 30.1193 25.7812 29.6875V24.2188C25.7812 23.7869 25.4318 23.4375 25 23.4375C24.5682 23.4375 24.2188 23.7869 24.2188 24.2188V29.6875C24.2188 30.1193 24.5682 30.4688 25 30.4688Z" fill="white"/>
<defs>
<linearGradient id="paint0_linear_4_636" x1="50" y1="-8.59375" x2="-28.5007" y2="82.4613" gradientUnits="userSpaceOnUse">
<stop stop-color="#EA8B8B"/>
<stop offset="1" stop-color="#EE4848"/>
</linearGradient>
</defs>
</svg>
