<svg width="40" height="30" viewBox="0 0 40 30" fill="none" xmlns="http://www.w3.org/2000/svg">
<path d="M14.2479 15.1621H9.1453C8.70793 15.1621 8.35156 15.5185 8.35156 15.9558V20.1513C8.35156 20.5887 8.70793 20.945 9.1453 20.945H14.2479C14.6853 20.945 15.0416 20.5887 15.0416 20.1513V15.9558C15.0416 15.5185 14.6853 15.1621 14.2479 15.1621ZM13.4542 19.3576H9.92284V16.7496H13.4542V19.3576Z" fill="#00AEEF"/>
<path d="M22.5731 15.1621H17.4705C17.0331 15.1621 16.6768 15.5185 16.6768 15.9558V20.1513C16.6768 20.5887 17.0331 20.945 17.4705 20.945H22.5731C23.0105 20.945 23.3668 20.5887 23.3668 20.1513V15.9558C23.3668 15.5185 23.0105 15.1621 22.5731 15.1621ZM21.7793 19.3576H18.248V16.7496H21.7793V19.3576Z" fill="#00AEEF"/>
<path d="M30.9159 15.1621H25.8133C25.3759 15.1621 25.0195 15.5185 25.0195 15.9558V20.1513C25.0195 20.5887 25.3759 20.945 25.8133 20.945H30.9159C31.3532 20.945 31.7096 20.5887 31.7096 20.1513V15.9558C31.7096 15.5185 31.3532 15.1621 30.9159 15.1621ZM30.1221 19.3576H26.5908V16.7496H30.1221V19.3576Z" fill="#00AEEF"/>
<path d="M39.5518 8.95788L36.7656 0.550756C36.6522 0.226781 36.3606 0 36.0205 0H4.02803C3.68786 0 3.38008 0.210583 3.28289 0.550756L0.480514 8.95788C0.415719 9.07127 0.383322 9.18466 0.383322 9.33045C0.367123 9.76782 0.739693 10.1242 1.17706 10.1404C2.26237 10.1728 3.29909 10.5778 4.06043 11.3067C4.17382 11.4201 4.30341 11.5335 4.433 11.6469L4.4168 29.2063C4.4168 29.4168 4.49779 29.6112 4.64358 29.7732C4.78937 29.919 4.99995 30 5.21053 30H34.8218C35.2591 30 35.6155 29.6436 35.6155 29.2063V11.6307C35.7289 11.5335 35.8585 11.4363 35.9557 11.3229C36.7494 10.594 37.7699 10.1728 38.8714 10.1404C39.3088 10.1242 39.649 9.75162 39.649 9.33045C39.649 9.20086 39.6004 9.07127 39.5518 8.95788ZM34.028 28.3963H6.00427V25.2052H34.0118L34.028 28.3963ZM34.028 23.6339H6.00427L6.02047 12.473C6.45783 12.6026 6.9114 12.6836 7.38116 12.6836C8.62846 12.6836 9.81097 12.1976 10.7019 11.3067C12.2732 9.73542 15.0107 9.75162 16.6792 11.3229C17.5863 12.1976 18.7688 12.6836 20.0161 12.6836C21.2634 12.6836 22.446 12.1976 23.3531 11.3229C24.9892 9.75162 27.7267 9.75162 29.3304 11.3067C30.2213 12.1976 31.3876 12.6836 32.6511 12.6836C33.1209 12.6836 33.5745 12.6026 34.028 12.473V23.6339ZM34.8542 10.1728C34.757 10.27 34.6436 10.3672 34.514 10.4644C34.4168 10.513 34.3358 10.5616 34.2548 10.6425C33.7688 10.9341 33.2181 11.0961 32.6511 11.0961C31.825 11.0961 31.0475 10.7721 30.4481 10.1728C28.2289 8.03456 24.487 8.03456 22.2516 10.1728C21.636 10.7559 20.8423 11.0799 20.0161 11.0961C19.19 11.0961 18.3801 10.7721 17.7645 10.1728C16.6306 9.10367 15.1241 8.56911 13.6339 8.56911C12.1436 8.56911 10.6533 9.10367 9.56799 10.189C8.98483 10.7721 8.20729 11.0961 7.38116 11.0961C6.83041 11.0961 6.29585 10.9503 5.80989 10.6749C5.72889 10.5778 5.6155 10.513 5.50211 10.4644C5.38872 10.3834 5.27533 10.2862 5.16194 10.1728C4.352 9.41145 3.33149 8.89309 2.26237 8.6825L4.61118 1.60367H35.4373L37.7861 8.6825C36.6846 8.89309 35.6803 9.39525 34.8542 10.1728Z" fill="#00AEEF"/>
</svg>
