<svg width="36" height="36" viewBox="0 0 36 36" fill="none" xmlns="http://www.w3.org/2000/svg">
<path d="M18 18L24.75 11.25" stroke="#00AEEF" stroke-width="2" stroke-miterlimit="10" stroke-linecap="round" stroke-linejoin="round"/>
<path d="M33.75 6.75H29.25V2.25L24.75 6.75V11.25H29.25L33.75 6.75Z" stroke="#00AEEF" stroke-width="2" stroke-miterlimit="10" stroke-linecap="round" stroke-linejoin="round"/>
<path d="M18 24.75C21.7279 24.75 24.75 21.7279 24.75 18C24.75 14.2721 21.7279 11.25 18 11.25C14.2721 11.25 11.25 14.2721 11.25 18C11.25 21.7279 14.2721 24.75 18 24.75Z" stroke="#00AEEF" stroke-width="2" stroke-miterlimit="10" stroke-linecap="round" stroke-linejoin="round"/>
<path d="M30.375 10.125C31.8375 12.375 32.625 15.075 32.625 18C32.625 26.1 26.1 32.625 18 32.625C9.9 32.625 3.375 26.1 3.375 18C3.375 9.9 9.9 3.375 18 3.375C20.925 3.375 23.625 4.1625 25.875 5.625" stroke="#00AEEF" stroke-width="2" stroke-miterlimit="10" stroke-linecap="round" stroke-linejoin="round"/>
</svg>
