<svg width="30" height="30" viewBox="0 0 30 30" fill="none" xmlns="http://www.w3.org/2000/svg">
<g clip-path="url(#clip0_23_534)">
<path fill-rule="evenodd" clip-rule="evenodd" d="M29.3727 15.6145V15.6276C29.3727 15.8276 29.2727 15.9982 29.1258 16.1126L17.2889 27.9495C17.0508 28.1876 16.6652 28.1876 16.4258 27.9495C16.1877 27.7107 16.1877 27.3245 16.4258 27.0863L28.1227 15.3895V11.2526C28.1227 10.9076 28.4033 10.6276 28.7477 10.6276C29.0933 10.6276 29.3727 10.9076 29.3727 11.2526V15.6107C29.3727 15.612 29.3727 15.6126 29.3727 15.6145ZM12.3789 29.1095C12.3589 29.1395 12.3458 29.1732 12.3196 29.1995C12.1964 29.322 12.0339 29.3788 11.8727 29.3751C11.7114 29.3788 11.5489 29.322 11.4258 29.1995C11.3996 29.1732 11.3871 29.1395 11.3664 29.1095L0.890801 18.6332C0.860801 18.6132 0.827676 18.6001 0.800801 18.5738C0.677676 18.4507 0.622051 18.2888 0.625176 18.1276C0.621426 17.9663 0.677676 17.8038 0.800801 17.6807C0.827676 17.6545 0.860801 17.642 0.890801 17.6213L15.1383 3.37383C15.2527 3.22758 15.4227 3.12695 15.6227 3.12695H15.6358C15.6371 3.12695 15.6383 3.12695 15.6396 3.12695H18.1577C18.2408 2.1882 18.6239 1.36445 19.2014 0.825078L19.2114 0.836328C19.3333 0.706953 19.5008 0.626953 19.6852 0.626953C20.0552 0.626953 20.3552 0.946953 20.3552 1.34133C20.3552 1.5757 20.2427 1.7732 20.0796 1.9032C19.7802 2.17945 19.5671 2.61508 19.4958 3.12695H22.4802C22.4814 3.12695 22.4827 3.12695 22.4852 3.12695H22.4977C22.6977 3.12695 22.8689 3.22695 22.9821 3.37383L26.6258 7.01758C26.7721 7.13195 26.8727 7.30258 26.8727 7.50258V7.5157C26.8727 7.51695 26.8727 7.5182 26.8727 7.51945V14.3601C26.8727 14.3613 26.8727 14.3626 26.8727 14.3645V14.3776C26.8727 14.5776 26.7727 14.7482 26.6258 14.862L12.3789 29.1095ZM25.6227 7.7407L22.2596 4.37758H19.6264C19.7364 4.65508 19.8914 4.89133 20.0796 5.06508C20.1052 5.0857 20.1371 5.0982 20.1589 5.12258L20.1702 5.11133C20.8208 5.71945 21.2483 6.67883 21.2483 7.77008C21.2483 7.79633 21.2421 7.81945 21.2408 7.84508C21.9889 8.27695 22.4983 9.07633 22.4983 10.0026C22.4983 11.3832 21.3789 12.5026 19.9983 12.5026C18.6177 12.5026 17.4983 11.3832 17.4983 10.0026C17.4983 8.6607 18.5577 7.57445 19.8858 7.51383C19.8296 6.95883 19.6102 6.48383 19.2927 6.19008C19.2671 6.16945 19.2352 6.15695 19.2121 6.13258L19.2021 6.14383C18.7371 5.70945 18.3939 5.0907 18.2314 4.37758H15.8608L2.1108 18.1276L11.8727 27.8895L25.6227 14.1395V7.7407ZM19.2921 9.3507C19.4471 9.20758 19.5739 9.01508 19.6777 8.79883C19.1433 8.94133 18.7477 9.42383 18.7477 10.002C18.7477 10.692 19.3077 11.252 19.9977 11.252C20.6883 11.252 21.2477 10.692 21.2477 10.002C21.2477 9.70633 21.1414 9.43883 20.9696 9.22445C20.5852 10.1901 20.1589 10.4176 20.1589 10.4176C20.0383 10.547 19.8708 10.6263 19.6852 10.6263C19.3152 10.6263 19.0164 10.3063 19.0164 9.91195C19.0164 9.67883 19.1283 9.48133 19.2921 9.3507ZM7.67643 17.0557C7.91518 16.8176 8.30143 16.8176 8.53955 17.0557L12.9452 21.4613C13.1833 21.6995 13.1833 22.0857 12.9452 22.3245C12.7071 22.5626 12.3202 22.5626 12.0821 22.3245L7.67643 17.9188C7.4383 17.6807 7.4383 17.2945 7.67643 17.0557ZM10.1764 14.5557C10.4152 14.3176 10.8014 14.3176 11.0396 14.5557L15.4452 18.9613C15.6827 19.1995 15.6827 19.5857 15.4452 19.8245C15.2071 20.0626 14.8202 20.0626 14.5821 19.8245L10.1764 15.4188C9.9383 15.1807 9.9383 14.7945 10.1764 14.5557Z" fill="#00AEEF"/>
</g>
<defs>
<clipPath id="clip0_23_534">
<rect width="30" height="30" fill="white"/>
</clipPath>
</defs>
</svg>
