<svg width="28" height="28" viewBox="0 0 28 28" fill="none" xmlns="http://www.w3.org/2000/svg">
<g clip-path="url(#clip0_6569_63838)">
<path d="M14 2.33594C7.56004 2.33594 2.33337 7.5626 2.33337 14.0026C2.33337 20.4426 7.56004 25.6693 14 25.6693C20.44 25.6693 25.6667 20.4426 25.6667 14.0026C25.6667 7.5626 20.44 2.33594 14 2.33594ZM8.24837 21.3293C8.75004 20.2793 11.8067 19.2526 14 19.2526C16.1934 19.2526 19.2617 20.2793 19.7517 21.3293C18.165 22.5893 16.17 23.3359 14 23.3359C11.83 23.3359 9.83504 22.5893 8.24837 21.3293ZM21.42 19.6376C19.7517 17.6076 15.7034 16.9193 14 16.9193C12.2967 16.9193 8.24837 17.6076 6.58004 19.6376C5.39004 18.0743 4.66671 16.1259 4.66671 14.0026C4.66671 8.8576 8.85504 4.66927 14 4.66927C19.145 4.66927 23.3334 8.8576 23.3334 14.0026C23.3334 16.1259 22.61 18.0743 21.42 19.6376ZM14 7.0026C11.7367 7.0026 9.91671 8.8226 9.91671 11.0859C9.91671 13.3493 11.7367 15.1693 14 15.1693C16.2634 15.1693 18.0834 13.3493 18.0834 11.0859C18.0834 8.8226 16.2634 7.0026 14 7.0026ZM14 12.8359C13.0317 12.8359 12.25 12.0543 12.25 11.0859C12.25 10.1176 13.0317 9.33594 14 9.33594C14.9684 9.33594 15.75 10.1176 15.75 11.0859C15.75 12.0543 14.9684 12.8359 14 12.8359Z" fill="#606060"/>
</g>
<defs>
<clipPath id="clip0_6569_63838">
<rect width="28" height="28" fill="white"/>
</clipPath>
</defs>
</svg>
