<svg width="16" height="16" viewBox="0 0 16 16" fill="none" xmlns="http://www.w3.org/2000/svg">
<path id="Vector" d="M5.49959 0.00100235C5.367 0.00100235 5.23983 0.0538087 5.14607 0.147804C5.05231 0.2418 4.99963 0.369286 4.99963 0.502216V2.96818H2.49982C2.36722 2.96818 2.24005 3.02099 2.14629 3.11499C2.05253 3.20898 1.99985 3.33647 1.99985 3.4694V7.54226L0.365973 7.99936C0.295997 8.01897 0.231126 8.05364 0.175876 8.10095C0.120626 8.14825 0.0763252 8.20706 0.0460581 8.27328C0.0157911 8.3395 0.000285079 8.41154 0.000619843 8.48438C0.000954606 8.55722 0.0171221 8.62911 0.0479966 8.69505L1.84986 12.5343C2.06989 12.2683 2.37464 12.0863 2.7128 12.0191L1.20391 8.80532L7.45945 7.05808C7.81073 6.95993 8.18209 6.95993 8.53337 7.05808L14.7899 8.80532L13.25 12.0121C13.5888 12.0685 13.898 12.2398 14.126 12.4973L15.9508 8.70006C15.9824 8.634 15.9992 8.5618 16 8.48854C16.0007 8.41528 15.9855 8.34274 15.9553 8.27604C15.925 8.20933 15.8806 8.15008 15.8251 8.10245C15.7695 8.05482 15.7043 8.01997 15.6338 8.00037L13.999 7.54326V3.4694C13.999 3.33647 13.9463 3.20898 13.8525 3.11499C13.7588 3.02099 13.6316 2.96818 13.499 2.96818H10.9992V0.501213C10.9992 0.368283 10.9465 0.240798 10.8528 0.146802C10.759 0.0528061 10.6318 0 10.4992 0H5.49959V0.00100235ZM9.99926 2.96818H5.99956V1.00343H9.99926V2.96818ZM12.999 3.97061V7.26358L8.80035 6.09074C8.27375 5.94369 7.71707 5.94369 7.19047 6.09074L2.99978 7.26459V3.97061H12.999ZM13.487 13.3834L13.484 13.3734C13.4582 13.2697 13.4 13.1771 13.3179 13.1089C13.2358 13.0407 13.1342 13.0007 13.0278 12.9945C12.9214 12.9883 12.8158 13.0164 12.7264 13.0747C12.6371 13.1329 12.5686 13.2183 12.5311 13.3182L12.5261 13.3283L12.5061 13.3794C12.3787 13.6667 12.2147 13.9363 12.0181 14.1813C11.6601 14.6224 11.1632 14.9973 10.4992 14.9973C9.83527 14.9973 9.33731 14.6214 8.97734 14.1793C8.76872 13.92 8.59647 13.6334 8.46537 13.3273L8.46038 13.3162C8.42409 13.2213 8.35984 13.1396 8.27616 13.0821C8.19248 13.0246 8.09333 12.9939 7.99188 12.9943C7.89042 12.9946 7.79147 13.0259 7.70816 13.0839C7.62484 13.1419 7.56112 13.224 7.52544 13.3192L7.52045 13.3293L7.50045 13.3804C7.37379 13.6674 7.21043 13.9366 7.01448 14.1813C6.65851 14.6224 6.16355 14.9973 5.49959 14.9973C4.83564 14.9973 4.33968 14.6214 3.98171 14.1803C3.7736 13.9211 3.60201 13.6344 3.47174 13.3283L3.46774 13.3182V13.3172C3.43018 13.2172 3.36173 13.1319 3.27238 13.0737C3.18303 13.0154 3.07745 12.9873 2.97106 12.9935C2.86466 12.9997 2.76301 13.0397 2.68093 13.1079C2.59886 13.1761 2.54065 13.2687 2.51481 13.3724V13.3714L2.51281 13.3804L2.49882 13.4265C2.40752 13.7025 2.27283 13.962 2.09985 14.1954C1.79287 14.6064 1.3039 14.9973 0.499963 14.9973C0.367365 14.9973 0.240197 15.0501 0.146436 15.1441C0.0526746 15.2381 0 15.3656 0 15.4985C0 15.6314 0.0526746 15.7589 0.146436 15.8529C0.240197 15.9469 0.367365 15.9997 0.499963 15.9997C1.69587 15.9997 2.45682 15.3903 2.89979 14.7968C2.94978 14.7297 2.99778 14.6615 3.03978 14.5953C3.09077 14.6665 3.14577 14.7397 3.20576 14.8129C3.65973 15.3742 4.41367 15.9997 5.49959 15.9997C6.58551 15.9997 7.33746 15.3732 7.79143 14.8119C7.86318 14.7232 7.93123 14.6315 7.99541 14.5372C8.05841 14.6274 8.1274 14.7206 8.2024 14.8139C8.65936 15.3752 9.41331 15.9997 10.4992 15.9997C11.5851 15.9997 12.3391 15.3742 12.7931 14.8129C12.8511 14.7417 12.905 14.6705 12.955 14.6003C12.998 14.6675 13.045 14.7367 13.095 14.8048C13.539 15.4023 14.3019 16.0148 15.5049 15.9997C15.5705 15.9989 15.6354 15.9852 15.6957 15.9593C15.7561 15.9334 15.8108 15.8958 15.8566 15.8487C15.9025 15.8016 15.9387 15.7459 15.9631 15.6848C15.9875 15.6237 15.9996 15.5583 15.9988 15.4925C15.998 15.4267 15.9843 15.3617 15.9585 15.3012C15.9326 15.2406 15.8951 15.1858 15.8481 15.1399C15.8012 15.0939 15.7456 15.0576 15.6846 15.0332C15.6237 15.0087 15.5585 14.9965 15.4929 14.9973C14.6899 15.0073 14.203 14.6174 13.898 14.2064C13.7249 13.9708 13.5909 13.7088 13.501 13.4305L13.487 13.3834Z" fill="#00AEEF"/>
</svg>
