<svg width="49" height="49" viewBox="0 0 49 49" fill="none" xmlns="http://www.w3.org/2000/svg">
<path d="M44.1 19.6H39.2L27.4645 11.025C28.0561 10.6105 28.5403 10.0608 28.8769 9.42168C29.2135 8.78254 29.3928 8.07233 29.4 7.35C29.388 6.49596 29.1564 5.65939 28.7272 4.92089C28.2981 4.18239 27.6861 3.56684 26.95 3.13355V0H24.5V4.9C24.9846 4.9 25.4582 5.04369 25.8611 5.3129C26.264 5.58211 26.5781 5.96475 26.7635 6.41243C26.9489 6.8601 26.9975 7.35272 26.9029 7.82797C26.8084 8.30322 26.575 8.73977 26.2324 9.08241C25.8898 9.42505 25.4532 9.65839 24.978 9.75292C24.5027 9.84746 24.0101 9.79894 23.5624 9.6135C23.1147 9.42807 22.7321 9.11405 22.4629 8.71115C22.1937 8.30825 22.05 7.83456 22.05 7.35H19.6C19.6072 8.07393 19.7881 8.78555 20.1274 9.42505C20.4668 10.0646 20.9547 10.6132 21.5502 11.025L9.8 19.6H4.9C3.60084 19.6013 2.35526 20.118 1.43661 21.0366C0.517962 21.9553 0.00129722 23.2008 0 24.5V44.1C0.00129722 45.3992 0.517962 46.6447 1.43661 47.5634C2.35526 48.482 3.60084 48.9987 4.9 49H44.1C44.7437 49.001 45.3814 48.8749 45.9763 48.629C46.5712 48.3831 47.1118 48.0222 47.567 47.567C48.0222 47.1118 48.3831 46.5712 48.629 45.9763C48.8749 45.3814 49.001 44.7437 49 44.1V24.5C48.9987 23.2008 48.482 21.9553 47.5634 21.0366C46.6447 20.118 45.3992 19.6013 44.1 19.6ZM24.5 12.25C24.5147 12.25 34.3 19.6 34.3 19.6H14.7L24.5 12.25ZM44.1 44.1H4.9V24.5H44.1V44.1Z" fill="#00AEEF"/>
<path d="M29.4016 41.6531C30.0513 41.6531 30.6745 41.395 31.134 40.9355C31.5934 40.4761 31.8516 39.8529 31.8516 39.2031V29.4031C31.8516 28.7533 31.5934 28.1302 31.134 27.6707C30.6745 27.2112 30.0513 26.9531 29.4016 26.9531C28.7518 26.9531 28.1286 27.2112 27.6692 27.6707C27.2097 28.1302 26.9516 28.7533 26.9516 29.4031V39.2031C26.9516 39.8529 27.2097 40.4761 27.6692 40.9355C28.1286 41.395 28.7518 41.6531 29.4016 41.6531ZM39.2016 41.6531C39.8513 41.6531 40.4745 41.395 40.934 40.9355C41.3934 40.4761 41.6516 39.8529 41.6516 39.2031V29.4031C41.6516 28.7533 41.3934 28.1302 40.934 27.6707C40.4745 27.2112 39.8513 26.9531 39.2016 26.9531C38.5518 26.9531 37.9286 27.2112 37.4692 27.6707C37.0097 28.1302 36.7516 28.7533 36.7516 29.4031V39.2031C36.7516 39.8529 37.0097 40.4761 37.4692 40.9355C37.9286 41.395 38.5518 41.6531 39.2016 41.6531ZM9.80156 41.6531C10.4513 41.6531 11.0745 41.395 11.534 40.9355C11.9934 40.4761 12.2516 39.8529 12.2516 39.2031V29.4031C12.2516 28.7533 11.9934 28.1302 11.534 27.6707C11.0745 27.2112 10.4513 26.9531 9.80156 26.9531C9.15178 26.9531 8.52862 27.2112 8.06915 27.6707C7.60969 28.1302 7.35156 28.7533 7.35156 29.4031V39.2031C7.35156 39.8529 7.60969 40.4761 8.06915 40.9355C8.52862 41.395 9.15178 41.6531 9.80156 41.6531ZM19.6016 41.6531C20.2513 41.6531 20.8745 41.395 21.334 40.9355C21.7934 40.4761 22.0516 39.8529 22.0516 39.2031V29.4031C22.0516 28.7533 21.7934 28.1302 21.334 27.6707C20.8745 27.2112 20.2513 26.9531 19.6016 26.9531C18.9518 26.9531 18.3286 27.2112 17.8692 27.6707C17.4097 28.1302 17.1516 28.7533 17.1516 29.4031V39.2031C17.1516 39.8529 17.4097 40.4761 17.8692 40.9355C18.3286 41.395 18.9518 41.6531 19.6016 41.6531Z" fill="#00AEEF"/>
</svg>
