<svg width="43" height="18" viewBox="0 0 43 18" fill="none" xmlns="http://www.w3.org/2000/svg">
<path d="M7.74779 2.23913C7.25085 2.82871 6.45599 3.29256 5.66094 3.22628C5.56166 2.43123 5.9525 1.58328 6.40962 1.06652C6.90647 0.463756 7.77434 0.0330924 8.4832 0C8.56266 0.821412 8.238 1.63628 7.74779 2.23913ZM8.46993 3.37847C7.31722 3.31229 6.33016 4.03442 5.78686 4.03442C5.23037 4.03442 4.39559 3.41166 3.48145 3.43147C2.29565 3.45139 1.19595 4.12052 0.593094 5.18703C-0.652343 7.32698 0.268438 10.487 1.47415 12.2294C2.06373 13.0905 2.76595 14.0381 3.69355 14.0048C4.5747 13.9716 4.91908 13.435 5.97905 13.435C7.04566 13.435 7.35714 14.0048 8.28455 13.9914C9.24506 13.9715 9.84792 13.1302 10.4376 12.269C11.1066 11.2884 11.3849 10.3413 11.3982 10.2883C11.3784 10.2682 9.54317 9.56611 9.52335 7.44617C9.50354 5.6707 10.9742 4.82938 11.0404 4.77637C10.2122 3.54412 8.92041 3.41166 8.46993 3.37847ZM15.1212 0.980329V13.8923H17.1286V9.48002H19.9043C22.4417 9.48002 24.2171 7.73773 24.2171 5.22031C24.2171 2.70289 22.4682 0.980329 19.9708 0.980329H15.1212ZM17.1286 2.6697H19.4407C21.1831 2.6697 22.1768 3.59721 22.1768 5.22695C22.1768 6.85659 21.1831 7.79737 19.4341 7.79737H17.1287V2.6697H17.1286ZM27.8742 13.9915C29.1329 13.9915 30.2988 13.3557 30.8289 12.342H30.8686V13.8922H32.7236V7.46599C32.7236 5.60442 31.2329 4.39881 28.9408 4.39881C26.8141 4.39881 25.2374 5.6177 25.1777 7.28716H26.9864C27.1387 6.49211 27.8742 5.96881 28.8812 5.96881C30.1068 5.96881 30.7957 6.53848 30.7957 7.59191V8.3074L28.2915 8.45968C25.9662 8.59878 24.7075 9.55266 24.7075 11.209C24.7141 12.8787 26.0125 13.9915 27.8742 13.9915ZM28.4174 12.4613C27.3507 12.4613 26.6683 11.9446 26.6683 11.1627C26.6683 10.3478 27.3242 9.87759 28.5762 9.80458L30.8022 9.66539V10.3943C30.8023 11.6001 29.7756 12.4613 28.4174 12.4613ZM35.2078 17.4033C37.162 17.4033 38.0829 16.6548 38.8845 14.3956L42.4023 4.52463H40.3618L38.0035 12.1498H37.9638L35.6051 4.52463H33.5117L36.9037 13.9253L36.7182 14.495C36.4133 15.4622 35.9166 15.8399 35.0288 15.8399C34.8699 15.8399 34.5651 15.8201 34.4392 15.8067V17.357C34.5585 17.3836 35.0554 17.4033 35.2078 17.4033Z" fill="#313C42"/>
</svg>
