<svg width="32" height="26" viewBox="0 0 32 26" fill="none" xmlns="http://www.w3.org/2000/svg">
<path d="M20.9867 23.8075C20.1369 23.8012 19.2908 23.6954 18.4659 23.4923C15.6176 22.8108 12.6845 21.082 10.2083 18.6244C7.73213 16.1667 5.98662 13.2576 5.29939 10.4357C4.57577 7.46731 5.09187 4.92775 6.751 3.28247L7.22472 2.8127C7.65453 2.38733 8.23696 2.14844 8.84419 2.14844C9.45143 2.14844 10.0339 2.38733 10.4637 2.8127L13.186 5.51173C13.6152 5.93781 13.8563 6.51542 13.8563 7.11767C13.8563 7.71992 13.6152 8.29754 13.186 8.72362L11.5779 10.3177C12.3488 11.6591 13.3973 13.0017 14.6365 14.2305C15.8757 15.4593 17.2306 16.4996 18.5828 17.2641L20.1903 15.6694C20.4029 15.4585 20.6554 15.2912 20.9333 15.177C21.2111 15.0628 21.509 15.0041 21.8097 15.0041C22.1105 15.0041 22.4084 15.0628 22.6862 15.177C22.9641 15.2912 23.2166 15.4585 23.4292 15.6694L26.151 18.3685C26.5803 18.7944 26.8214 19.3719 26.8214 19.9741C26.8214 20.5763 26.5803 21.1539 26.151 21.5798L25.6767 22.0496C24.507 23.2116 22.8881 23.8075 20.9867 23.8075ZM8.84419 3.76355C8.75745 3.76313 8.6715 3.77987 8.59137 3.8128C8.51124 3.84574 8.43854 3.89419 8.37753 3.95534L7.90326 4.42511C6.66082 5.65718 6.29791 7.65748 6.88138 10.0543C7.49907 12.5933 9.08921 15.2315 11.3584 17.4812C13.6276 19.7309 16.2875 21.3061 18.8484 21.9208C21.2659 22.4994 23.282 22.1396 24.5244 20.9075L24.9982 20.4377C25.1219 20.3149 25.1915 20.1483 25.1915 19.9747C25.1915 19.801 25.1219 19.6345 24.9982 19.5116L22.2769 16.8126C22.1531 16.6899 21.9851 16.6209 21.81 16.6209C21.6349 16.6209 21.4669 16.6899 21.3431 16.8126L19.3053 18.8334C19.183 18.9547 19.025 19.0343 18.8541 19.0606C18.6832 19.087 18.5082 19.0587 18.3546 18.9799C16.684 18.1233 14.9999 16.8762 13.4842 15.3731C11.9685 13.8701 10.7136 12.2011 9.8476 10.5445C9.76808 10.3922 9.73948 10.2188 9.76595 10.0493C9.79242 9.8798 9.87258 9.72306 9.99483 9.60175L12.0332 7.58098C12.1569 7.45814 12.2265 7.29159 12.2265 7.11794C12.2265 6.94429 12.1569 6.77774 12.0332 6.65491L9.3114 3.95534C9.2502 3.8943 9.17739 3.84591 9.09719 3.81299C9.01699 3.78007 8.93099 3.76327 8.84419 3.76355Z" fill="white"/>
<path d="M21.8794 14.3331C21.6535 14.3331 21.4369 14.2441 21.2771 14.0857C21.1174 13.9273 21.0277 13.7125 21.0277 13.4885C21.026 12.007 20.4318 10.5865 19.3753 9.53885C18.3189 8.49117 16.8864 7.90179 15.3923 7.9C15.1664 7.9 14.9498 7.81102 14.79 7.65264C14.6303 7.49426 14.5406 7.27945 14.5406 7.05547C14.5406 6.83148 14.6303 6.61668 14.79 6.45829C14.9498 6.29991 15.1664 6.21094 15.3923 6.21094C19.439 6.21094 22.7311 9.47646 22.7311 13.4885C22.7311 13.7125 22.6413 13.9273 22.4816 14.0857C22.3219 14.2441 22.1053 14.3331 21.8794 14.3331Z" fill="white"/>
<path d="M24.6724 14.3334C24.4631 14.3334 24.2625 14.251 24.1145 14.1043C23.9666 13.9576 23.8835 13.7586 23.8835 13.5512C23.8835 8.87381 20.0443 5.06841 15.3295 5.06841C15.1202 5.06841 14.9196 4.986 14.7716 4.8393C14.6237 4.69259 14.5406 4.49363 14.5406 4.28616C14.5406 4.07869 14.6237 3.87972 14.7716 3.73302C14.9196 3.58632 15.1202 3.50391 15.3295 3.50391C20.9163 3.50391 25.4612 8.01125 25.4612 13.5512C25.4612 13.7586 25.3781 13.9576 25.2302 14.1043C25.0822 14.251 24.8816 14.3334 24.6724 14.3334Z" fill="white"/>
</svg>
