<svg width="50" height="50" viewBox="0 0 50 50" fill="none" xmlns="http://www.w3.org/2000/svg">
<g id="Group 3668">
<rect id="Rectangle 2094" width="50" height="50" rx="8" fill="#00AEEF"/>
<path id="Vector" d="M31.9694 29.9283C31.5025 29.4811 31.0481 29.0211 30.6067 28.5488C30.2359 28.172 30.0126 27.8979 30.0126 27.8979L27.2214 26.5653C28.3389 25.298 28.9556 23.6667 28.9559 21.9772C28.9559 18.1308 25.8258 15 21.978 15C18.1301 15 15 18.1308 15 21.9772C15 25.8237 18.1301 28.9545 21.978 28.9545C23.7354 28.9545 25.3374 28.2966 26.5665 27.2211L27.8993 30.012C27.8993 30.012 28.1734 30.2353 28.5502 30.6061C28.936 30.9679 29.4434 31.4573 29.9299 31.9686L31.2836 33.3561L31.8857 34L34 31.8859L33.356 31.2839C32.9782 30.9131 32.4738 30.4207 31.9694 29.9283ZM21.978 26.961C19.2296 26.961 16.9937 24.7253 16.9937 21.9772C16.9937 19.2292 19.2296 16.9935 21.978 16.9935C24.7263 16.9935 26.9622 19.2292 26.9622 21.9772C26.9622 24.7253 24.7263 26.961 21.978 26.961Z" fill="white"/>
</g>
</svg>
