<svg width="38" height="39" viewBox="0 0 38 39" fill="none" xmlns="http://www.w3.org/2000/svg">
<path d="M19 0C8.50759 0 0 8.61953 0 19.25C0 29.8805 8.50759 38.5 19 38.5C29.4924 38.5 38 29.8805 38 19.25C38 8.61953 29.4924 0 19 0ZM19 35.2344C10.2888 35.2344 3.22321 28.0758 3.22321 19.25C3.22321 10.4242 10.2888 3.26562 19 3.26562C27.7112 3.26562 34.7768 10.4242 34.7768 19.25C34.7768 28.0758 27.7112 35.2344 19 35.2344ZM21.023 18.2531L19.9458 17.9996V12.2289C21.5574 12.4523 22.554 13.475 22.7237 14.7297C22.7449 14.9016 22.8891 15.0262 23.0587 15.0262H24.9629C25.1623 15.0262 25.3192 14.85 25.3022 14.648C25.0435 11.9711 22.8679 10.2523 19.9627 9.95586V8.55078C19.9627 8.36172 19.81 8.20703 19.6234 8.20703H18.4317C18.2451 8.20703 18.0924 8.36172 18.0924 8.55078V9.96875C15.0897 10.2652 12.7402 11.9453 12.7402 15.082C12.7402 17.9867 14.8522 19.3875 17.0703 19.9246L18.1179 20.1953V26.327C16.2433 26.0734 15.1915 25.0594 14.9752 23.693C14.9498 23.5297 14.8056 23.4094 14.6402 23.4094H12.6808C12.4815 23.4094 12.3246 23.5813 12.3415 23.7832C12.5324 26.1465 14.3009 28.3207 18.0754 28.6V29.9492C18.0754 30.1383 18.2281 30.293 18.4147 30.293H19.6192C19.8058 30.293 19.9585 30.1383 19.9585 29.9449L19.95 28.5828C23.2708 28.2863 25.6458 26.4859 25.6458 23.2547C25.6415 20.2727 23.7712 18.9406 21.023 18.2531V18.2531ZM18.1136 17.557C17.8761 17.4883 17.6768 17.4238 17.4775 17.3422C16.044 16.818 15.3781 15.9715 15.3781 14.8801C15.3781 13.3203 16.5444 12.4309 18.1136 12.2289V17.557ZM19.9458 26.3398V20.5949C20.0772 20.6336 20.196 20.6637 20.319 20.6895C22.325 21.3082 22.9993 22.1676 22.9993 23.4867C22.9993 25.1668 21.7525 26.1766 19.9458 26.3398Z" fill="#00AEEF"/>
</svg>
