<svg width="50" height="50" viewBox="0 0 50 50" fill="none" xmlns="http://www.w3.org/2000/svg">
<g clip-path="url(#clip0_1_77)">
<path d="M42 0H8C3.58172 0 0 3.58172 0 8V42C0 46.4183 3.58172 50 8 50H42C46.4183 50 50 46.4183 50 42V8C50 3.58172 46.4183 0 42 0Z" fill="#F53939"/>
<path d="M34.6092 16.2785L31.9009 18.9868L33.2811 20.367C33.7707 20.8566 33.7707 21.6483 33.2811 22.1327L32.3748 23.0389C32.9894 24.3983 33.3332 25.9087 33.3332 27.4973C33.3332 33.4816 28.4842 38.3306 22.4998 38.3306C16.5155 38.3306 11.6665 33.4868 11.6665 27.5025C11.6665 21.5181 16.5155 16.6691 22.4998 16.6691C24.0884 16.6691 25.5988 17.0129 26.9582 17.6275L27.8644 16.7212C28.354 16.2316 29.1457 16.2316 29.63 16.7212L31.0103 18.1014L33.7186 15.3931L34.6092 16.2785ZM37.7082 14.7941H36.4582C36.1144 14.7941 35.8332 15.0754 35.8332 15.4191C35.8332 15.7629 36.1144 16.0441 36.4582 16.0441H37.7082C38.0519 16.0441 38.3332 15.7629 38.3332 15.4191C38.3332 15.0754 38.0519 14.7941 37.7082 14.7941ZM34.5832 11.6691C34.2394 11.6691 33.9582 11.9504 33.9582 12.2941V13.5441C33.9582 13.8879 34.2394 14.1691 34.5832 14.1691C34.9269 14.1691 35.2082 13.8879 35.2082 13.5441V12.2941C35.2082 11.9504 34.9269 11.6691 34.5832 11.6691ZM36.3488 14.5337L37.2342 13.6483C37.479 13.4035 37.479 13.0077 37.2342 12.7629C36.9894 12.5181 36.5936 12.5181 36.3488 12.7629L35.4634 13.6483C35.2186 13.8931 35.2186 14.2889 35.4634 14.5337C35.7134 14.7785 36.1092 14.7785 36.3488 14.5337ZM32.8175 14.5337C33.0623 14.7785 33.4582 14.7785 33.703 14.5337C33.9478 14.2889 33.9478 13.8931 33.703 13.6483L32.8175 12.7629C32.5728 12.5181 32.1769 12.5181 31.9321 12.7629C31.6873 13.0077 31.6873 13.4035 31.9321 13.6483L32.8175 14.5337ZM36.3488 16.3045C36.104 16.0598 35.7082 16.0598 35.4634 16.3045C35.2186 16.5493 35.2186 16.9452 35.4634 17.19L36.3488 18.0754C36.5936 18.3202 36.9894 18.3202 37.2342 18.0754C37.479 17.8306 37.479 17.4348 37.2342 17.19L36.3488 16.3045ZM17.4998 25.8358C17.4998 23.9973 18.9946 22.5025 20.8332 22.5025C21.2915 22.5025 21.6665 22.1275 21.6665 21.6691C21.6665 21.2108 21.2915 20.8358 20.8332 20.8358C18.078 20.8358 15.8332 23.0806 15.8332 25.8358C15.8332 26.2941 16.2082 26.6691 16.6665 26.6691C17.1248 26.6691 17.4998 26.2941 17.4998 25.8358Z" fill="url(#paint0_linear_1_77)"/>
</g>
<defs>
<linearGradient id="paint0_linear_1_77" x1="-3.96683" y1="1.41487" x2="52.427" y2="46.5679" gradientUnits="userSpaceOnUse">
<stop stop-color="white"/>
<stop offset="0.648958" stop-color="white" stop-opacity="0.8"/>
<stop offset="1" stop-color="white" stop-opacity="0"/>
</linearGradient>
<clipPath id="clip0_1_77">
<rect width="50" height="50" fill="white"/>
</clipPath>
</defs>
</svg>
