<svg width="50" height="50" viewBox="0 0 50 50" fill="none" xmlns="http://www.w3.org/2000/svg">
<g clip-path="url(#clip0_1_92)">
<path d="M42 0H8C3.58172 0 0 3.58172 0 8V42C0 46.4183 3.58172 50 8 50H42C46.4183 50 50 46.4183 50 42V8C50 3.58172 46.4183 0 42 0Z" fill="#39B9B9"/>
<path d="M36.2052 35.2632L28.8105 31.6664L36.2057 28.0695C36.6172 27.8638 36.7844 27.3633 36.5781 26.9518L35.8328 25.4607C35.6271 25.0493 35.1266 24.8821 34.7146 25.0878L24.9996 29.8127L15.2847 25.0878C14.8732 24.8821 14.3727 25.0487 14.1665 25.4607L13.4211 26.9518C13.2154 27.3633 13.3821 27.8638 13.7935 28.0695L21.1888 31.6664L13.7941 35.2632C13.3826 35.4689 13.2154 35.9694 13.4217 36.3814L14.167 37.8725C14.3727 38.284 14.8732 38.4512 15.2852 38.2449L24.9996 33.52L34.7146 38.2449C35.1261 38.4507 35.6266 38.284 35.8328 37.8725L36.5781 36.3814C36.7839 35.9694 36.6167 35.4689 36.2052 35.2632ZM21.1455 24.0248L20.8601 25.3722C20.7211 26.0295 21.1424 26.6664 21.7169 26.6664H28.2835C28.8579 26.6664 29.2793 26.0295 29.1402 25.3722L28.8538 24.0248C31.0298 22.8576 32.4995 20.7566 32.4995 18.3332C32.4995 14.6515 29.1418 11.6666 24.9996 11.6666C20.8575 11.6666 17.4997 14.6515 17.4997 18.3332C17.4997 20.7566 18.9695 22.8576 21.1455 24.0248ZM27.9163 17.4999C28.8355 17.4999 29.5829 18.2473 29.5829 19.1665C29.5829 20.0858 28.8355 20.8332 27.9163 20.8332C26.997 20.8332 26.2496 20.0858 26.2496 19.1665C26.2496 18.2473 26.997 17.4999 27.9163 17.4999ZM22.083 17.4999C23.0023 17.4999 23.7497 18.2473 23.7497 19.1665C23.7497 20.0858 23.0023 20.8332 22.083 20.8332C21.1638 20.8332 20.4164 20.0858 20.4164 19.1665C20.4164 18.2473 21.1638 17.4999 22.083 17.4999Z" fill="url(#paint0_linear_1_92)"/>
</g>
<defs>
<linearGradient id="paint0_linear_1_92" x1="-0.346252" y1="1.41036" x2="53.9786" y2="39.4626" gradientUnits="userSpaceOnUse">
<stop stop-color="white"/>
<stop offset="0.648958" stop-color="white" stop-opacity="0.8"/>
<stop offset="1" stop-color="white" stop-opacity="0"/>
</linearGradient>
<clipPath id="clip0_1_92">
<rect width="50" height="50" fill="white"/>
</clipPath>
</defs>
</svg>
