<svg width="31" height="30" viewBox="0 0 31 30" fill="none" xmlns="http://www.w3.org/2000/svg">
<g id="Group 3794">
<rect id="Rectangle 2122" opacity="0.3" x="1.25" y="0.5" width="29" height="29" rx="3.5" fill="#ED1C24" fill-opacity="0.1" stroke="#ED1C24"/>
<path id="Vector" d="M13.7045 8.33333H17.7955C17.7955 7.7808 17.58 7.2509 17.1964 6.86019C16.8128 6.46949 16.2925 6.25 15.75 6.25C15.2075 6.25 14.6872 6.46949 14.3036 6.86019C13.92 7.2509 13.7045 7.7808 13.7045 8.33333ZM12.4773 8.33333C12.4773 7.44928 12.8221 6.60143 13.4358 5.97631C14.0496 5.35119 14.882 5 15.75 5C16.618 5 17.4504 5.35119 18.0642 5.97631C18.6779 6.60143 19.0227 7.44928 19.0227 8.33333H24.1364C24.2991 8.33333 24.4552 8.39918 24.5703 8.51639C24.6854 8.6336 24.75 8.79257 24.75 8.95833C24.75 9.12409 24.6854 9.28306 24.5703 9.40028C24.4552 9.51749 24.2991 9.58333 24.1364 9.58333H23.0645L22.0688 21.7525C21.9964 22.6378 21.5999 23.463 20.9581 24.0645C20.3163 24.666 19.476 24.9999 18.6038 25H12.8962C12.024 24.9999 11.1837 24.666 10.5419 24.0645C9.90006 23.463 9.50362 22.6378 9.43118 21.7525L8.43545 9.58333H7.36364C7.20089 9.58333 7.04481 9.51749 6.92973 9.40028C6.81465 9.28306 6.75 9.12409 6.75 8.95833C6.75 8.79257 6.81465 8.6336 6.92973 8.51639C7.04481 8.39918 7.20089 8.33333 7.36364 8.33333H12.4773ZM10.6544 21.6483C10.7012 22.2212 10.9576 22.7552 11.3728 23.1445C11.7881 23.5338 12.3318 23.7499 12.8962 23.75H18.6038C19.1682 23.7499 19.7119 23.5338 20.1272 23.1445C20.5424 22.7552 20.7988 22.2212 20.8456 21.6483L21.834 9.58333H9.66682L10.6544 21.6483ZM13.9091 12.5C14.0718 12.5 14.2279 12.5658 14.343 12.6831C14.4581 12.8003 14.5227 12.9592 14.5227 13.125V20.2083C14.5227 20.3741 14.4581 20.5331 14.343 20.6503C14.2279 20.7675 14.0718 20.8333 13.9091 20.8333C13.7463 20.8333 13.5903 20.7675 13.4752 20.6503C13.3601 20.5331 13.2955 20.3741 13.2955 20.2083V13.125C13.2955 12.9592 13.3601 12.8003 13.4752 12.6831C13.5903 12.5658 13.7463 12.5 13.9091 12.5ZM18.2045 13.125C18.2045 12.9592 18.1399 12.8003 18.0248 12.6831C17.9097 12.5658 17.7537 12.5 17.5909 12.5C17.4282 12.5 17.2721 12.5658 17.157 12.6831C17.0419 12.8003 16.9773 12.9592 16.9773 13.125V20.2083C16.9773 20.3741 17.0419 20.5331 17.157 20.6503C17.2721 20.7675 17.4282 20.8333 17.5909 20.8333C17.7537 20.8333 17.9097 20.7675 18.0248 20.6503C18.1399 20.5331 18.2045 20.3741 18.2045 20.2083V13.125Z" fill="#ED1C24"/>
</g>
</svg>
