<svg width="31" height="30" viewBox="0 0 31 30" fill="none" xmlns="http://www.w3.org/2000/svg">
<g id="Group 3816">
<rect id="Rectangle 2121" opacity="0.3" x="1.25" y="0.5" width="29" height="29" rx="3.5" fill="#00AEEF" fill-opacity="0.1" stroke="#00AEEF"/>
<path id="Vector" d="M24.5255 17.2879L23.2127 16.1629C23.2749 15.7811 23.3069 15.3914 23.3069 15.0016C23.3069 14.6119 23.2749 14.2221 23.2127 13.8404L24.5255 12.7153C24.6245 12.6303 24.6954 12.5172 24.7287 12.3908C24.762 12.2645 24.7561 12.131 24.7119 12.0081L24.6939 11.9559C24.3325 10.9434 23.7913 10.0047 23.0965 9.18538L23.0604 9.14319C22.9761 9.04384 22.8638 8.97243 22.7382 8.93836C22.6126 8.90429 22.4797 8.90916 22.3569 8.95233L20.7275 9.53295C20.1262 9.03872 19.4548 8.64896 18.7292 8.37572L18.4146 6.66802C18.3908 6.53952 18.3287 6.42131 18.2363 6.32908C18.1439 6.23686 18.0258 6.17498 17.8975 6.15168L17.8434 6.14164C16.7992 5.95279 15.7008 5.95279 14.6566 6.14164L14.6025 6.15168C14.4742 6.17498 14.3561 6.23686 14.2637 6.32908C14.1713 6.42131 14.1092 6.53952 14.0854 6.66802L13.7687 8.38376C13.049 8.65705 12.3787 9.0466 11.7845 9.53696L10.1431 8.95233C10.0203 8.90881 9.88731 8.90377 9.76165 8.93786C9.636 8.97195 9.52366 9.04357 9.43958 9.14319L9.4035 9.18538C8.70953 10.0053 8.16844 10.9438 7.80612 11.9559L7.78808 12.0081C7.69789 12.2593 7.77205 12.5405 7.97448 12.7153L9.30329 13.8524C9.24116 14.2301 9.2111 14.6159 9.2111 14.9996C9.2111 15.3854 9.24116 15.7711 9.30329 16.1468L7.97448 17.2839C7.87546 17.3689 7.80459 17.4821 7.7713 17.6084C7.738 17.7347 7.74386 17.8682 7.78808 17.9911L7.80612 18.0434C8.16889 19.0559 8.70603 19.9901 9.4035 20.8139L9.43958 20.8561C9.52387 20.9554 9.63621 21.0268 9.76179 21.0609C9.88737 21.095 10.0203 21.0901 10.1431 21.0469L11.7845 20.4623C12.3818 20.9545 13.0492 21.3443 13.7687 21.6155L14.0854 23.3312C14.1092 23.4597 14.1713 23.5779 14.2637 23.6702C14.3561 23.7624 14.4742 23.8243 14.6025 23.8476L14.6566 23.8576C15.7104 24.0475 16.7896 24.0475 17.8434 23.8576L17.8975 23.8476C18.0258 23.8243 18.1439 23.7624 18.2363 23.6702C18.3287 23.5779 18.3908 23.4597 18.4146 23.3312L18.7292 21.6235C19.4545 21.351 20.1297 20.96 20.7275 20.4663L22.3569 21.0469C22.4797 21.0904 22.6127 21.0955 22.7383 21.0614C22.864 21.0273 22.9763 20.9557 23.0604 20.8561L23.0965 20.8139C23.794 19.9881 24.3311 19.0559 24.6939 18.0434L24.7119 17.9911C24.8021 17.744 24.7279 17.4627 24.5255 17.2879ZM21.7897 14.0775C21.8398 14.3808 21.8659 14.6922 21.8659 15.0036C21.8659 15.315 21.8398 15.6264 21.7897 15.9298L21.6574 16.7355L23.1546 18.0192C22.9277 18.5434 22.6412 19.0396 22.3008 19.4979L20.4409 18.8369L19.8115 19.3553C19.3325 19.7491 18.7994 20.0585 18.2222 20.2754L17.4586 20.5627L17.0998 22.5115C16.5337 22.5758 15.9623 22.5758 15.3962 22.5115L15.0374 20.5587L14.2798 20.2674C13.7086 20.0504 13.1775 19.741 12.7025 19.3493L12.0732 18.8289L10.2012 19.4959C9.86047 19.0358 9.57587 18.5396 9.34739 18.0172L10.8606 16.7214L10.7303 15.9178C10.6822 15.6184 10.6562 15.309 10.6562 15.0036C10.6562 14.6963 10.6802 14.3889 10.7303 14.0895L10.8606 13.2859L9.34739 11.99C9.57387 11.4657 9.86047 10.9714 10.2012 10.5114L12.0732 11.1784L12.7025 10.658C13.1775 10.2663 13.7086 9.95686 14.2798 9.73988L15.0394 9.45258L15.3982 7.49977C15.9614 7.43548 16.5366 7.43548 17.1018 7.49977L17.4606 9.44857L18.2242 9.73586C18.7994 9.95284 19.3345 10.2622 19.8135 10.656L20.4429 11.1744L22.3028 10.5134C22.6435 10.9734 22.9281 11.4697 23.1566 11.992L21.6595 13.2758L21.7897 14.0775ZM16.252 11.2668C14.3039 11.2668 12.7245 12.8499 12.7245 14.8027C12.7245 16.7555 14.3039 18.3387 16.252 18.3387C18.2001 18.3387 19.7795 16.7555 19.7795 14.8027C19.7795 12.8499 18.2001 11.2668 16.252 11.2668ZM17.8394 16.3939C17.6312 16.6032 17.3837 16.7692 17.1113 16.8823C16.8389 16.9954 16.5469 17.0533 16.252 17.0529C15.6527 17.0529 15.0895 16.8178 14.6646 16.3939C14.4558 16.1852 14.2903 15.9372 14.1775 15.6641C14.0646 15.391 14.0068 15.0983 14.0073 14.8027C14.0073 14.202 14.2417 13.6375 14.6646 13.2115C15.0895 12.7856 15.6527 12.5526 16.252 12.5526C16.8513 12.5526 17.4145 12.7856 17.8394 13.2115C18.0482 13.4202 18.2137 13.6683 18.3266 13.9413C18.4394 14.2144 18.4972 14.5072 18.4968 14.8027C18.4968 15.4034 18.2623 15.968 17.8394 16.3939Z" fill="#00AEEF"/>
</g>
</svg>
