<svg width="15" height="9" viewBox="0 0 15 9" fill="none" xmlns="http://www.w3.org/2000/svg">
<path id="Vector" d="M0.0264945 2.27222C0.025313 2.44298 0.0576163 2.61184 0.12103 2.76638C0.184443 2.92092 0.277357 3.05722 0.392941 3.16526L6.37055 8.70987C6.5488 8.8787 6.77286 8.9715 7.00446 8.97241C7.23606 8.97332 7.46085 8.8823 7.64042 8.71488L13.6624 3.02327C13.8673 2.83006 13.9968 2.55176 14.0224 2.2496C14.048 1.94745 13.9675 1.64618 13.7987 1.41208C13.6299 1.17798 13.3866 1.03022 13.1223 1.00131C12.858 0.972402 12.5944 1.06471 12.3894 1.25792L7.00982 6.34624L1.66984 1.38711C1.52362 1.24675 1.34525 1.15726 1.15583 1.12921C0.966409 1.10117 0.773865 1.13575 0.600985 1.22886C0.428105 1.32198 0.282124 1.46973 0.180313 1.65463C0.0785022 1.83953 0.0251241 2.05385 0.0264945 2.27222Z" fill="#52575C"/>
</svg>
