<svg width="261" height="247" viewBox="0 0 261 247" fill="none" xmlns="http://www.w3.org/2000/svg">
<g id="Group">
<g id="Vector" filter="url(#filter0_d_45_846)">
<path d="M26.32 92.5298H224.43L253.91 122.01V22.0598C253.91 10.6198 244.63 1.33984 233.19 1.33984H21.72C10.28 1.33984 1 10.6198 1 22.0598V117.84L26.32 92.5198V92.5298Z" fill="url(#paint0_linear_45_846)"/>
</g>
<g id="Vector_2" filter="url(#filter1_d_45_846)">
<path d="M33.95 238.309L221.02 238.309C230.398 238.309 238 230.706 238 221.329L238 34.2586C238 24.8808 230.398 17.2786 221.02 17.2786L33.95 17.2786C24.5722 17.2786 16.97 24.8808 16.97 34.2586L16.97 221.329C16.97 230.706 24.5722 238.309 33.95 238.309Z" fill="white"/>
<path d="M221.02 238.059L33.95 238.059C24.7103 238.059 17.22 230.568 17.22 221.329L17.22 34.2586C17.22 25.0189 24.7103 17.5286 33.95 17.5286L221.02 17.5286C230.26 17.5286 237.75 25.0189 237.75 34.2586L237.75 221.329C237.75 230.568 230.26 238.059 221.02 238.059Z" stroke="black" stroke-width="0.5"/>
</g>
</g>
<defs>
<filter id="filter0_d_45_846" x="0" y="0.339844" width="260.906" height="128.67" filterUnits="userSpaceOnUse" color-interpolation-filters="sRGB">
<feFlood flood-opacity="0" result="BackgroundImageFix"/>
<feColorMatrix in="SourceAlpha" type="matrix" values="0 0 0 0 0 0 0 0 0 0 0 0 0 0 0 0 0 0 127 0" result="hardAlpha"/>
<feOffset dx="3" dy="3"/>
<feGaussianBlur stdDeviation="2"/>
<feColorMatrix type="matrix" values="0 0 0 0 0.466667 0 0 0 0 0.466667 0 0 0 0 0.466667 0 0 0 0.35 0"/>
<feBlend mode="normal" in2="BackgroundImageFix" result="effect1_dropShadow_45_846"/>
<feBlend mode="normal" in="SourceGraphic" in2="effect1_dropShadow_45_846" result="shape"/>
</filter>
<filter id="filter1_d_45_846" x="13.9688" y="17.2793" width="229.031" height="229.029" filterUnits="userSpaceOnUse" color-interpolation-filters="sRGB">
<feFlood flood-opacity="0" result="BackgroundImageFix"/>
<feColorMatrix in="SourceAlpha" type="matrix" values="0 0 0 0 0 0 0 0 0 0 0 0 0 0 0 0 0 0 127 0" result="hardAlpha"/>
<feOffset dx="1" dy="4"/>
<feGaussianBlur stdDeviation="2"/>
<feColorMatrix type="matrix" values="0 0 0 0 0.466667 0 0 0 0 0.466667 0 0 0 0 0.466667 0 0 0 0.35 0"/>
<feBlend mode="normal" in2="BackgroundImageFix" result="effect1_dropShadow_45_846"/>
<feBlend mode="normal" in="SourceGraphic" in2="effect1_dropShadow_45_846" result="shape"/>
</filter>
<linearGradient id="paint0_linear_45_846" x1="127.46" y1="1.34984" x2="127.46" y2="122.02" gradientUnits="userSpaceOnUse">
<stop stop-color="#00BDEA"/>
<stop offset="0.51" stop-color="#00BCE7"/>
<stop offset="0.76" stop-color="#01B9E0"/>
<stop offset="0.95" stop-color="#04B4D3"/>
<stop offset="1" stop-color="#05B2CE"/>
</linearGradient>
</defs>
</svg>
