<svg width="262" height="253" viewBox="0 0 262 253" fill="none" xmlns="http://www.w3.org/2000/svg">
<g id="Group">
<g id="Group_2" filter="url(#filter0_d_45_850)">
<path id="Vector" d="M228.996 149.54L30.8863 158.5L1.40625 129.02V224.6C1.40625 236.04 10.6863 245.32 22.1263 245.32H233.596C245.036 245.32 254.316 236.04 254.316 224.6V124.23L228.996 149.55V149.54Z" fill="url(#paint0_linear_45_850)"/>
</g>
<g id="Vector_2" filter="url(#filter1_d_45_850)">
<path d="M221.05 8.34961H33.98C24.6022 8.34961 17 15.9518 17 25.3296V212.4C17 221.777 24.6022 229.38 33.98 229.38H221.05C230.428 229.38 238.03 221.777 238.03 212.4V25.3296C238.03 15.9518 230.428 8.34961 221.05 8.34961Z" fill="white"/>
<path d="M33.98 8.59961H221.05C230.29 8.59961 237.78 16.0899 237.78 25.3296V212.4C237.78 221.639 230.29 229.13 221.05 229.13H33.98C24.7403 229.13 17.25 221.639 17.25 212.4V25.3296C17.25 16.0899 24.7403 8.59961 33.98 8.59961Z" stroke="black" stroke-width="0.5"/>
</g>
</g>
<defs>
<filter id="filter0_d_45_850" x="0.40625" y="123.23" width="260.906" height="129.09" filterUnits="userSpaceOnUse" color-interpolation-filters="sRGB">
<feFlood flood-opacity="0" result="BackgroundImageFix"/>
<feColorMatrix in="SourceAlpha" type="matrix" values="0 0 0 0 0 0 0 0 0 0 0 0 0 0 0 0 0 0 127 0" result="hardAlpha"/>
<feOffset dx="3" dy="3"/>
<feGaussianBlur stdDeviation="2"/>
<feColorMatrix type="matrix" values="0 0 0 0 0.466667 0 0 0 0 0.466667 0 0 0 0 0.466667 0 0 0 0.35 0"/>
<feBlend mode="normal" in2="BackgroundImageFix" result="effect1_dropShadow_45_850"/>
<feBlend mode="normal" in="SourceGraphic" in2="effect1_dropShadow_45_850" result="shape"/>
</filter>
<filter id="filter1_d_45_850" x="14" y="0.349609" width="229.031" height="229.029" filterUnits="userSpaceOnUse" color-interpolation-filters="sRGB">
<feFlood flood-opacity="0" result="BackgroundImageFix"/>
<feColorMatrix in="SourceAlpha" type="matrix" values="0 0 0 0 0 0 0 0 0 0 0 0 0 0 0 0 0 0 127 0" result="hardAlpha"/>
<feOffset dx="1" dy="-4"/>
<feGaussianBlur stdDeviation="2"/>
<feColorMatrix type="matrix" values="0 0 0 0 0.466667 0 0 0 0 0.466667 0 0 0 0 0.466667 0 0 0 0.35 0"/>
<feBlend mode="normal" in2="BackgroundImageFix" result="effect1_dropShadow_45_850"/>
<feBlend mode="normal" in="SourceGraphic" in2="effect1_dropShadow_45_850" result="shape"/>
</filter>
<linearGradient id="paint0_linear_45_850" x1="127.856" y1="124.23" x2="127.856" y2="245.31" gradientUnits="userSpaceOnUse">
<stop stop-color="#FFC261"/>
<stop offset="0.52" stop-color="#FDBF5E"/>
<stop offset="0.78" stop-color="#F8B957"/>
<stop offset="0.98" stop-color="#F0AD4A"/>
<stop offset="1" stop-color="#EFAB48"/>
</linearGradient>
</defs>
</svg>
