<svg width="261" height="253" viewBox="0 0 261 253" fill="none" xmlns="http://www.w3.org/2000/svg">
<g id="Group">
<g id="Vector" filter="url(#filter0_d_45_843)">
<path d="M228.59 149.54L30.48 158.5L1 129.02V224.6C1 236.04 10.28 245.32 21.72 245.32H233.19C244.63 245.32 253.91 236.04 253.91 224.6V124.23L228.59 149.55V149.54Z" fill="url(#paint0_linear_45_843)"/>
</g>
<g id="Vector_2" filter="url(#filter1_d_45_843)">
<path d="M221.05 8.34961H33.98C24.6022 8.34961 17 15.9518 17 25.3296V212.4C17 221.777 24.6022 229.38 33.98 229.38H221.05C230.428 229.38 238.03 221.777 238.03 212.4V25.3296C238.03 15.9518 230.428 8.34961 221.05 8.34961Z" fill="white"/>
<path d="M33.98 8.59961H221.05C230.29 8.59961 237.78 16.0899 237.78 25.3296V212.4C237.78 221.639 230.29 229.13 221.05 229.13H33.98C24.7403 229.13 17.25 221.639 17.25 212.4V25.3296C17.25 16.0899 24.7403 8.59961 33.98 8.59961Z" stroke="black" stroke-width="0.5"/>
</g>
</g>
<defs>
<filter id="filter0_d_45_843" x="0" y="123.23" width="260.906" height="129.09" filterUnits="userSpaceOnUse" color-interpolation-filters="sRGB">
<feFlood flood-opacity="0" result="BackgroundImageFix"/>
<feColorMatrix in="SourceAlpha" type="matrix" values="0 0 0 0 0 0 0 0 0 0 0 0 0 0 0 0 0 0 127 0" result="hardAlpha"/>
<feOffset dx="3" dy="3"/>
<feGaussianBlur stdDeviation="2"/>
<feColorMatrix type="matrix" values="0 0 0 0 0.466667 0 0 0 0 0.466667 0 0 0 0 0.466667 0 0 0 0.35 0"/>
<feBlend mode="normal" in2="BackgroundImageFix" result="effect1_dropShadow_45_843"/>
<feBlend mode="normal" in="SourceGraphic" in2="effect1_dropShadow_45_843" result="shape"/>
</filter>
<filter id="filter1_d_45_843" x="14" y="0.349609" width="229.031" height="229.029" filterUnits="userSpaceOnUse" color-interpolation-filters="sRGB">
<feFlood flood-opacity="0" result="BackgroundImageFix"/>
<feColorMatrix in="SourceAlpha" type="matrix" values="0 0 0 0 0 0 0 0 0 0 0 0 0 0 0 0 0 0 127 0" result="hardAlpha"/>
<feOffset dx="1" dy="-4"/>
<feGaussianBlur stdDeviation="2"/>
<feColorMatrix type="matrix" values="0 0 0 0 0.466667 0 0 0 0 0.466667 0 0 0 0 0.466667 0 0 0 0.35 0"/>
<feBlend mode="normal" in2="BackgroundImageFix" result="effect1_dropShadow_45_843"/>
<feBlend mode="normal" in="SourceGraphic" in2="effect1_dropShadow_45_843" result="shape"/>
</filter>
<linearGradient id="paint0_linear_45_843" x1="127.45" y1="245.31" x2="127.45" y2="124.23" gradientUnits="userSpaceOnUse">
<stop stop-color="#00C5C0"/>
<stop offset="0.49" stop-color="#01C3BD"/>
<stop offset="0.72" stop-color="#06BCB6"/>
<stop offset="0.91" stop-color="#0EB2A9"/>
<stop offset="1" stop-color="#15AA9F"/>
</linearGradient>
</defs>
</svg>
