<svg width="24" height="24" viewBox="0 0 24 24" fill="none" xmlns="http://www.w3.org/2000/svg">
<g clip-path="url(#clip0_6569_63843)">
<path d="M15.55 13C16.3 13 16.96 12.59 17.3 11.97L20.88 5.48C21.25 4.82 20.77 4 20.01 4H5.84494C5.45741 4 5.10476 3.77609 4.93992 3.42536L4.54008 2.57464C4.37524 2.22391 4.02259 2 3.63506 2H2C1.44772 2 1 2.44772 1 3C1 3.55228 1.44772 4 2 4H2.36753C2.75379 4 3.10551 4.22246 3.27104 4.57145L6.38009 11.1263C6.51814 11.4174 6.50752 11.7571 6.35157 12.039L5.25 14.03C4.52 15.37 5.48 17 7 17H18C18.5523 17 19 16.5523 19 16C19 15.4477 18.5523 15 18 15H8.69127C7.93067 15 7.44851 14.1845 7.81506 13.5181C7.99081 13.1985 8.32658 13 8.69127 13H15.55ZM6.83702 7.42832C6.52254 6.76485 7.00642 6 7.74065 6H16.6158C17.377 6 17.8591 6.81678 17.4912 7.48326L15.8352 10.4833C15.6593 10.8021 15.3239 11 14.9598 11H9.16265C8.7763 11 8.42451 10.7774 8.25902 10.4283L6.83702 7.42832ZM7 18C5.9 18 5.01 18.9 5.01 20C5.01 21.1 5.9 22 7 22C8.1 22 9 21.1 9 20C9 18.9 8.1 18 7 18ZM17 18C15.9 18 15.01 18.9 15.01 20C15.01 21.1 15.9 22 17 22C18.1 22 19 21.1 19 20C19 18.9 18.1 18 17 18Z" fill="#606060"/>
</g>
<defs>
<clipPath id="clip0_6569_63843">
<rect width="24" height="24" fill="white"/>
</clipPath>
</defs>
</svg>
