<svg width="41" height="40" viewBox="0 0 41 40" fill="none" xmlns="http://www.w3.org/2000/svg">
<path d="M40.7679 10.8088C40.6498 10.6407 40.4931 10.5035 40.3111 10.4088C40.129 10.3141 39.9269 10.2646 39.7217 10.2645H35.7079L27.4531 3.21659C26.448 2.20975 24.8165 2.20846 23.8115 3.21659L15.6971 10.2645H12.3935L10.3248 3.11791C9.51357 0.303793 7.58584 0 6.7952 0H1.27869C0.571739 0 0 0.573401 0 1.28096C0 1.98852 0.572343 2.56188 1.27865 2.56188H6.79387C6.96835 2.56188 7.50082 2.56188 7.86399 3.81898L14.9805 30.0193C15.135 30.5721 15.6378 30.9539 16.2115 30.9539H33.5942C34.1337 30.9539 34.6153 30.6153 34.7975 30.1064L40.9244 11.9788C41.0654 11.586 41.0068 11.1487 40.768 10.8088H40.7679ZM25.6325 5.04128L31.7504 10.2651H19.5127L25.6325 5.04128ZM32.6942 28.3927H17.182L13.1116 12.827H37.9037L32.6942 28.3927ZM30.1582 33.55C28.3798 33.55 26.9389 34.9935 26.9389 36.775C26.9389 38.5565 28.3798 40 30.1582 40C31.9365 40 33.3774 38.5565 33.3774 36.775C33.3774 34.9935 31.9365 33.55 30.1582 33.55ZM18.5688 33.55C16.7905 33.55 15.3496 34.9935 15.3496 36.775C15.3496 38.5565 16.7905 40 18.5688 40C20.3472 40 21.7881 38.5565 21.7881 36.775C21.7881 34.9935 20.3472 33.55 18.5688 33.55Z" fill="#00AEEF"/>
</svg>
