<svg width="24" height="24" viewBox="0 0 24 24" fill="none" xmlns="http://www.w3.org/2000/svg">
<g id="2849821_multimedia_social_speak_chat_media_icon 2">
<g id="1">
<path id="Vector" d="M17.5042 20.8303C17.404 20.8303 17.3049 20.8089 17.2137 20.7675C17.1224 20.7262 17.041 20.6657 16.975 20.5903L14.7283 18.023C13.8236 18.2558 12.8931 18.3732 11.9589 18.3722C9.46844 18.3722 7.11766 17.5613 5.34344 16.0917C3.53266 14.5917 2.53516 12.5831 2.53516 10.4391C2.53516 8.295 3.53453 6.28781 5.34344 4.78688C7.11766 3.31734 9.46844 2.50781 11.9589 2.50781C14.4494 2.50781 16.8002 3.31734 18.573 4.78688C20.3838 6.28688 21.3808 8.29547 21.3808 10.4391C21.3808 12.7275 20.2291 14.8734 18.2073 16.3791V20.1291C18.2073 20.3155 18.1333 20.4944 18.0014 20.6262C17.8695 20.7581 17.6907 20.8322 17.5042 20.8322V20.8303ZM14.965 16.5234C15.0652 16.5234 15.1643 16.5448 15.2556 16.5862C15.3468 16.6276 15.4282 16.688 15.4942 16.7634L16.8011 18.2564V16.0177C16.8012 15.9031 16.8294 15.7903 16.883 15.6891C16.9367 15.5878 17.0143 15.5013 17.1091 15.4369C18.9316 14.1905 19.9764 12.3689 19.9764 10.4391C19.9764 6.84141 16.3806 3.91406 11.9608 3.91406C7.54094 3.91406 3.94516 6.84141 3.94516 10.4391C3.94516 14.0367 7.53906 16.9659 11.9589 16.9659C12.9078 16.9681 13.8518 16.8297 14.7602 16.5553C14.8265 16.5346 14.8955 16.5238 14.965 16.5234Z" fill="#00AEEF"/>
<path id="Vector_2" d="M9.44578 12.3684C9.42281 12.3684 9.3989 12.3684 9.37687 12.3651C9.35484 12.3618 9.33 12.359 9.30843 12.3548C9.28687 12.3505 9.26156 12.3445 9.24187 12.3379C9.22218 12.3313 9.19781 12.3234 9.17672 12.3145C9.15562 12.3055 9.135 12.2957 9.11484 12.2849C9.09442 12.2742 9.07455 12.2625 9.05531 12.2498C9.03656 12.2371 9.01781 12.2235 9 12.209C8.98219 12.1945 8.96484 12.1785 8.94844 12.1621C8.93203 12.1457 8.91656 12.1284 8.90156 12.1105C8.88656 12.0927 8.87344 12.074 8.86078 12.0552C8.84807 12.036 8.83633 12.0161 8.82562 11.9957C8.81469 11.9754 8.80484 11.9548 8.79609 11.9338C8.78733 11.9127 8.77966 11.8911 8.77312 11.8691C8.76613 11.8472 8.7605 11.8248 8.75625 11.8021C8.75144 11.7797 8.748 11.757 8.74594 11.7341C8.74352 11.7111 8.74227 11.6879 8.74219 11.6648C8.74226 11.6417 8.74351 11.6187 8.74594 11.5959C8.75059 11.5499 8.7597 11.5046 8.77312 11.4604C8.77966 11.4384 8.78733 11.4169 8.79609 11.3957C8.80516 11.3748 8.815 11.3541 8.82562 11.3338C8.83633 11.3134 8.84807 11.2935 8.86078 11.2743C8.87344 11.2555 8.88703 11.2368 8.90156 11.219C8.91609 11.2012 8.93203 11.1838 8.94844 11.1674C8.96484 11.151 8.98219 11.1355 9 11.1205C9.01781 11.1055 9.03656 11.0924 9.05531 11.0798C9.07444 11.0669 9.09432 11.0551 9.11484 11.0446C9.13515 11.034 9.15578 11.0241 9.17672 11.0151C9.19799 11.0061 9.21974 10.9983 9.24187 10.9916C9.26343 10.9851 9.28593 10.9795 9.30843 10.9748C9.33093 10.9701 9.35531 10.9668 9.37687 10.9645C9.42285 10.9598 9.46918 10.9598 9.51515 10.9645C9.53765 10.9668 9.56203 10.9705 9.58312 10.9748C9.60421 10.979 9.62999 10.9851 9.65015 10.9916C9.6721 10.9983 9.69369 11.0062 9.71484 11.0151C9.73593 11.024 9.75703 11.0338 9.77718 11.0446C9.79749 11.0552 9.81721 11.067 9.83624 11.0798C9.85536 11.0924 9.87383 11.106 9.89156 11.1205C9.90937 11.1351 9.92671 11.151 9.94312 11.1674C9.95952 11.1838 9.97499 11.2012 9.98999 11.219C10.005 11.2368 10.0181 11.2555 10.0308 11.2743C10.0435 11.2935 10.0552 11.3134 10.0659 11.3338C10.0766 11.3541 10.0864 11.3748 10.0955 11.3957C10.1044 11.4168 10.1119 11.4388 10.1189 11.4604C10.1259 11.482 10.1311 11.5073 10.1358 11.5274C10.145 11.5726 10.1495 11.6186 10.1494 11.6648C10.1494 11.6879 10.1483 11.7111 10.1461 11.7341C10.1438 11.757 10.1404 11.7796 10.1358 11.8021C10.1311 11.8246 10.1255 11.849 10.1189 11.8691C10.1123 11.8893 10.1044 11.9127 10.0955 11.9338C10.0866 11.9549 10.0767 11.9755 10.0659 11.9957C10.0552 12.0161 10.0435 12.036 10.0308 12.0552C10.0181 12.074 10.0045 12.0927 9.98999 12.1105C9.97546 12.1284 9.95952 12.1457 9.94312 12.1621C9.92671 12.1785 9.90937 12.194 9.89156 12.209C9.87383 12.2235 9.85536 12.2371 9.83624 12.2498C9.81687 12.2623 9.79718 12.274 9.77718 12.2849C9.75703 12.2957 9.73593 12.3055 9.71484 12.3145C9.69374 12.3234 9.67171 12.3309 9.65015 12.3379C9.62859 12.3449 9.60562 12.3501 9.58312 12.3548C9.56062 12.3595 9.53625 12.3627 9.51515 12.3651C9.49406 12.3674 9.46968 12.3684 9.44578 12.3684Z" fill="#00AEEF"/>
<path id="Vector_3" d="M14.6484 12.3759C14.6254 12.376 14.6024 12.3749 14.5795 12.3726C14.5566 12.3703 14.5327 12.3665 14.5111 12.3623C14.4895 12.3581 14.4642 12.352 14.4445 12.3454C14.4248 12.3389 14.4009 12.3309 14.3798 12.322C14.3587 12.3131 14.3377 12.3033 14.3175 12.2925C14.2771 12.2708 14.2388 12.2454 14.2031 12.2165C14.1853 12.202 14.168 12.1861 14.152 12.1697C14.1355 12.1533 14.1199 12.1361 14.1052 12.1181C14.0906 12.1003 14.0766 12.0815 14.0639 12.0628C14.0512 12.0436 14.0395 12.0237 14.0287 12.0033C14.0181 11.983 14.0083 11.9623 13.9992 11.9414C13.9908 11.9203 13.9828 11.8983 13.9762 11.8767C13.9693 11.8547 13.9636 11.8323 13.9594 11.8097C13.9503 11.7644 13.9456 11.7185 13.9453 11.6723C13.9454 11.6492 13.9466 11.626 13.9491 11.603C13.9514 11.5801 13.9548 11.5575 13.9594 11.535C13.9636 11.5123 13.9693 11.4899 13.9762 11.468C13.9828 11.4464 13.9908 11.4244 13.9992 11.4033C14.0077 11.3822 14.018 11.3615 14.0287 11.3414C14.0395 11.321 14.0512 11.3011 14.0639 11.2819C14.0766 11.2631 14.0906 11.2444 14.1052 11.2266C14.1199 11.2086 14.1355 11.1914 14.152 11.175C14.168 11.1591 14.1853 11.1431 14.2031 11.1281C14.2389 11.0992 14.2774 11.0738 14.318 11.0522C14.3381 11.0414 14.3587 11.0316 14.3803 11.0226C14.4019 11.0137 14.423 11.0062 14.445 10.9992C14.467 10.9922 14.4891 10.987 14.5116 10.9823C14.5341 10.9776 14.5584 10.9744 14.58 10.972C14.6268 10.9677 14.6738 10.9677 14.7206 10.972C14.7431 10.9744 14.7675 10.9781 14.7886 10.9823C14.8097 10.9866 14.8355 10.9926 14.8556 10.9992C14.8758 11.0058 14.8992 11.0137 14.9203 11.0226C14.9414 11.0316 14.9625 11.0414 14.9826 11.0522C15.0028 11.063 15.0225 11.0747 15.0417 11.0873C15.0609 11.0999 15.0794 11.1135 15.097 11.1281C15.1148 11.1426 15.1322 11.1586 15.1486 11.175C15.165 11.1914 15.1805 11.2087 15.1955 11.2266C15.2105 11.2444 15.2236 11.2631 15.2362 11.2819C15.2491 11.3011 15.261 11.321 15.2719 11.3414C15.2822 11.3615 15.2925 11.3822 15.3009 11.4033C15.3098 11.4244 15.3177 11.446 15.3244 11.468C15.3309 11.49 15.3365 11.5148 15.3412 11.535C15.3459 11.5551 15.3492 11.5819 15.3515 11.603C15.3538 11.626 15.3549 11.6492 15.3548 11.6723C15.3549 11.6953 15.3538 11.7183 15.3515 11.7412C15.3492 11.7642 15.3455 11.7881 15.3412 11.8097C15.337 11.8312 15.3309 11.8565 15.3244 11.8767C15.3177 11.8987 15.3098 11.9202 15.3009 11.9414C15.2925 11.9625 15.2822 11.9831 15.2719 12.0033C15.261 12.0237 15.2491 12.0436 15.2362 12.0628C15.2236 12.0815 15.21 12.1003 15.1955 12.1181C15.1809 12.1359 15.165 12.1533 15.1486 12.1697C15.1322 12.1861 15.1148 12.2015 15.097 12.2165C15.0794 12.2312 15.0609 12.2448 15.0417 12.2573C15.0226 12.2698 15.003 12.2815 14.9826 12.2925C14.9625 12.3033 14.9414 12.3131 14.9203 12.322C14.8992 12.3309 14.8772 12.3384 14.8556 12.3454C14.8341 12.3525 14.8111 12.3576 14.7886 12.3623C14.7661 12.367 14.7417 12.3703 14.7206 12.3726C14.6966 12.375 14.6725 12.3761 14.6484 12.3759Z" fill="#00AEEF"/>
<path id="Vector_4" d="M12.0474 12.3689C11.861 12.3685 11.6823 12.2945 11.5501 12.1632C11.5336 12.1468 11.518 12.1296 11.5032 12.1116C11.4887 12.0938 11.4751 12.075 11.462 12.0563C11.4488 12.0375 11.4376 12.0174 11.4268 11.9968C11.416 11.9767 11.4063 11.956 11.3977 11.9349C11.3888 11.9137 11.381 11.8921 11.3743 11.8702C11.3677 11.8482 11.3621 11.8233 11.3574 11.8032C11.3529 11.7807 11.3494 11.758 11.3471 11.7352C11.3426 11.6884 11.3426 11.6413 11.3471 11.5946C11.3494 11.5718 11.3529 11.5491 11.3574 11.5266C11.3621 11.5041 11.3677 11.4797 11.3743 11.4596C11.381 11.4376 11.3888 11.416 11.3977 11.3949C11.4063 11.3737 11.416 11.3531 11.4268 11.333C11.4376 11.3124 11.4498 11.2927 11.462 11.2735C11.4742 11.2543 11.4887 11.236 11.5032 11.2182C11.518 11.2002 11.5336 11.183 11.5501 11.1666C11.6239 11.0934 11.7128 11.0373 11.8107 11.0023C11.9085 10.9673 12.0129 10.9543 12.1163 10.9641C12.1393 10.9665 12.1632 10.9702 12.1848 10.9744C12.2063 10.9786 12.2293 10.9847 12.2513 10.9913C12.2734 10.9979 12.2949 11.0058 12.316 11.0147C12.3371 11.0236 12.3582 11.0335 12.3784 11.0443C12.419 11.0659 12.4574 11.0913 12.4932 11.1202C12.511 11.1347 12.5284 11.1507 12.5443 11.1671C12.5608 11.1835 12.5764 11.2007 12.5912 11.2186C12.6057 11.2365 12.6198 11.2552 12.6324 11.274C12.6451 11.2932 12.6569 11.3131 12.6676 11.3335C12.6782 11.3538 12.6881 11.3744 12.6971 11.3954C12.7056 11.4165 12.7135 11.4385 12.7201 11.46C12.7271 11.482 12.7327 11.5044 12.737 11.5271C12.7415 11.5495 12.745 11.5722 12.7473 11.595C12.7524 11.6418 12.7524 11.6889 12.7473 11.7357C12.745 11.7585 12.7415 11.7812 12.737 11.8036C12.7327 11.8263 12.7271 11.8487 12.7201 11.8707C12.7135 11.8922 12.7056 11.9143 12.6971 11.9354C12.6887 11.9564 12.6784 11.9771 12.6676 11.9972C12.6569 12.0177 12.6451 12.0375 12.6324 12.0568C12.6198 12.0755 12.6057 12.0943 12.5912 12.1121C12.5764 12.13 12.5608 12.1472 12.5443 12.1636C12.5284 12.1796 12.511 12.195 12.4932 12.2105C12.4574 12.2394 12.419 12.2648 12.3784 12.2864C12.3582 12.2972 12.3371 12.3071 12.316 12.316C12.2949 12.3249 12.2734 12.3324 12.2513 12.3394C12.2293 12.3464 12.2045 12.3516 12.1848 12.3563C12.1651 12.361 12.1379 12.3643 12.1163 12.3666C12.0934 12.3686 12.0704 12.3693 12.0474 12.3689Z" fill="#00AEEF"/>
</g>
</g>
</svg>
