<svg width="8" height="8" viewBox="0 0 8 8" fill="none" xmlns="http://www.w3.org/2000/svg">
<path d="M4.56011 4.00036L6.52011 2.04036C6.59314 1.96584 6.63381 1.86552 6.63328 1.76119C6.63275 1.65686 6.59107 1.55695 6.5173 1.48317C6.44352 1.4094 6.34362 1.36772 6.23929 1.36719C6.13495 1.36667 6.03463 1.40733 5.96011 1.48036L4.00011 3.44036L2.04011 1.48036C1.9656 1.40733 1.86527 1.36667 1.76094 1.36719C1.65661 1.36772 1.5567 1.4094 1.48293 1.48317C1.40915 1.55695 1.36748 1.65686 1.36695 1.76119C1.36642 1.86552 1.40709 1.96584 1.48011 2.04036L3.44011 4.00036L1.48011 5.96036C1.40709 6.03487 1.36642 6.1352 1.36695 6.23953C1.36748 6.34386 1.40915 6.44377 1.48293 6.51754C1.5567 6.59132 1.65661 6.633 1.76094 6.63352C1.86527 6.63405 1.9656 6.59338 2.04011 6.52036L4.00011 4.56036L5.96011 6.52036C6.03463 6.59338 6.13495 6.63405 6.23929 6.63352C6.34362 6.633 6.44352 6.59132 6.5173 6.51754C6.59107 6.44377 6.63275 6.34386 6.63328 6.23953C6.63381 6.1352 6.59314 6.03487 6.52011 5.96036L4.56011 4.00036Z" fill="white"/>
</svg>
