<svg width="20" height="20" viewBox="0 0 20 20" fill="none" xmlns="http://www.w3.org/2000/svg">
<path d="M9.99983 1.18066C5.13733 1.18066 1.18066 5.1365 1.18066 9.99983C1.18066 14.8632 5.13733 18.819 9.99983 18.819C14.8623 18.819 18.819 14.8632 18.819 9.99983C18.819 5.1365 14.8623 1.18066 9.99983 1.18066ZM9.99983 17.839C5.67733 17.839 2.16066 14.3223 2.16066 9.99983C2.16066 5.67733 5.67733 2.16066 9.99983 2.16066C14.3223 2.16066 17.839 5.67733 17.839 9.99983C17.839 14.3223 14.3223 17.839 9.99983 17.839Z" fill="#00AEEF" stroke="#00AEEF" stroke-width="0.2"/>
<path d="M13.6396 5.73003L8.09623 7.80919C7.96373 7.85836 7.85956 7.96336 7.80956 8.09586L5.7304 13.6392C5.6629 13.8192 5.70706 14.0217 5.8429 14.1575C5.93623 14.2509 6.06123 14.3009 6.18956 14.3009C6.24706 14.3009 6.30623 14.2909 6.36206 14.27L11.9054 12.1909C12.0371 12.1409 12.1421 12.0367 12.1921 11.9042L14.2712 6.36086C14.3387 6.18086 14.2946 5.97836 14.1587 5.84253C14.0229 5.70669 13.8196 5.66336 13.6396 5.73003ZM11.3521 11.3517L7.02623 12.9734L8.6479 8.64753L12.9737 7.02586L11.3521 11.3517Z" fill="#00AEEF" stroke="#00AEEF" stroke-width="0.2"/>
</svg>
