<svg width="32" height="30" viewBox="0 0 32 30" fill="none" xmlns="http://www.w3.org/2000/svg">
<g clip-path="url(#clip0_3_275)">
<path d="M12.4444 16.778H8.88889V22.1113L7.11111 20.9307L5.33333 22.1113V16.778H1.77778C0.799889 16.778 0 17.578 0 18.5557V27.4446C0 28.4224 0.799889 29.2224 1.77778 29.2224H12.4444C13.4223 29.2224 14.2222 28.4224 14.2222 27.4446V18.5557C14.2222 17.578 13.4223 16.778 12.4444 16.778ZM10.6667 13.2224H21.3333C22.3112 13.2224 23.1111 12.4224 23.1111 11.4446V2.55573C23.1111 1.57795 22.3112 0.777954 21.3333 0.777954H17.7778V6.11129L16 4.93073L14.2222 6.11129V0.777954H10.6667C9.68878 0.777954 8.88889 1.57795 8.88889 2.55573V11.4446C8.88889 12.4224 9.68878 13.2224 10.6667 13.2224ZM30.2222 16.778H26.6667V22.1113L24.8889 20.9307L23.1111 22.1113V16.778H19.5556C18.5777 16.778 17.7778 17.578 17.7778 18.5557V27.4446C17.7778 28.4224 18.5777 29.2224 19.5556 29.2224H30.2222C31.2001 29.2224 32 28.4224 32 27.4446V18.5557C32 17.578 31.2001 16.778 30.2222 16.778Z" fill="#DF5FF3"/>
</g>
<defs>
<clipPath id="clip0_3_275">
<rect width="32" height="30" fill="white"/>
</clipPath>
</defs>
</svg>
