<svg width="180" height="180" viewBox="0 0 180 180" fill="none" xmlns="http://www.w3.org/2000/svg">
<circle cx="90" cy="90" r="89" fill="white" stroke="#00AEEF" stroke-width="2"/>
<path d="M58.0782 60.4844H33.9766V76.3134H58.0782V60.4844Z" fill="#E0E0E0"/>
<path d="M57.2255 61.1406H34.8125V75.6147H57.2255V61.1406Z" fill="#FAFAFA"/>
<path d="M49.6867 66.4062H42.375V70.3897H49.6867V66.4062Z" fill="#E0E0E0"/>
<path d="M129.456 101.172L129 136.392H149.379V101.651L129.456 101.172Z" fill="#F5F5F5" stroke="#E8505B" stroke-miterlimit="10"/>
<path d="M140.43 101.438L140.25 136.392H149.375V101.652L140.43 101.438Z" fill="#E0E0E0" stroke="#E8505B" stroke-miterlimit="10"/>
<path d="M130.094 101.805V109.01H139.748V102.145L130.094 101.805Z" fill="#E0E0E0" stroke="#E8505B" stroke-miterlimit="10"/>
<path d="M133.414 103.792V104.855H136.367V103.695L133.414 103.792Z" fill="#F5F5F5" stroke="#E8505B" stroke-miterlimit="10"/>
<path d="M136.463 105.75H133.414V106.185H136.463V105.75Z" fill="#F5F5F5" stroke="#E8505B" stroke-miterlimit="10"/>
<path d="M130.094 127.047V134.25H139.748V127.387L130.094 127.047Z" fill="#E0E0E0" stroke="#E8505B" stroke-miterlimit="10"/>
<path d="M133.414 129.034V130.098H136.367V128.938L133.414 129.034Z" fill="#F5F5F5" stroke="#E8505B" stroke-miterlimit="10"/>
<path d="M136.463 130.992H133.414V131.427H136.463V130.992Z" fill="#F5F5F5" stroke="#E8505B" stroke-miterlimit="10"/>
<path d="M130.094 109.93V117.132H139.748V110.27L130.094 109.93Z" fill="#E0E0E0" stroke="#E8505B" stroke-miterlimit="10"/>
<path d="M133.414 111.901V112.965H136.367V111.805L133.414 111.901Z" fill="#F5F5F5" stroke="#E8505B" stroke-miterlimit="10"/>
<path d="M136.463 113.859H133.414V114.294H136.463V113.859Z" fill="#F5F5F5" stroke="#E8505B" stroke-miterlimit="10"/>
<path d="M139.615 118.547H129.961V125.75H139.615V118.547Z" fill="#E0E0E0" stroke="#E8505B" stroke-miterlimit="10"/>
<path d="M133.359 121.801V122.8H136.134V121.711L133.359 121.801Z" fill="#F5F5F5" stroke="#E8505B" stroke-miterlimit="10"/>
<path d="M136.227 123.633H133.359V124.042H136.227V123.633Z" fill="#F5F5F5" stroke="#E8505B" stroke-miterlimit="10"/>
<path d="M51.4229 85.4141L51.8793 136.805H31.5V86.1161L51.4229 85.4141Z" fill="#455A64" stroke="#E8505B" stroke-miterlimit="10"/>
<path d="M40.4446 85.8047L40.6246 136.809H31.5V86.1193L40.4446 85.8047Z" fill="#455A64" stroke="#E8505B" stroke-miterlimit="10"/>
<path d="M50.7846 86.0469V93.2518H41.1328V86.3872L50.7846 86.0469Z" fill="#455A64" stroke="#E8505B" stroke-miterlimit="10"/>
<path d="M47.4686 88.026V89.0898H44.5156V87.9297L47.4686 88.026Z" fill="#455A64" stroke="#E8505B" stroke-miterlimit="10"/>
<path d="M47.4635 89.9844H44.4141V90.4189H47.4635V89.9844Z" fill="#455A64" stroke="#E8505B" stroke-miterlimit="10"/>
<path d="M50.7846 111.289V118.494H41.1328V111.629L50.7846 111.289Z" fill="#455A64" stroke="#E8505B" stroke-miterlimit="10"/>
<path d="M47.4686 113.268V114.332H44.5156V113.172L47.4686 113.268Z" fill="#455A64" stroke="#E8505B" stroke-miterlimit="10"/>
<path d="M47.4635 115.227H44.4141V115.661H47.4635V115.227Z" fill="#455A64" stroke="#E8505B" stroke-miterlimit="10"/>
<path d="M50.7846 94.1719V101.375H41.1328V94.5122L50.7846 94.1719Z" fill="#455A64" stroke="#E8505B" stroke-miterlimit="10"/>
<path d="M47.4686 96.1432V97.207H44.5156V96.0469L47.4686 96.1432Z" fill="#455A64" stroke="#E8505B" stroke-miterlimit="10"/>
<path d="M47.4635 98.1016H44.4141V98.5361H47.4635V98.1016Z" fill="#455A64" stroke="#E8505B" stroke-miterlimit="10"/>
<path d="M50.7846 119.406V126.611H41.1328V119.747L50.7846 119.406Z" fill="#455A64" stroke="#E8505B" stroke-miterlimit="10"/>
<path d="M47.4608 121.385V122.449H44.5078V121.289L47.4608 121.385Z" fill="#455A64" stroke="#E8505B" stroke-miterlimit="10"/>
<path d="M47.4556 123.352H44.4062V123.786H47.4556V123.352Z" fill="#455A64" stroke="#E8505B" stroke-miterlimit="10"/>
<path d="M50.8961 127.531V134.734H41.2422V127.872L50.8961 127.531Z" fill="#455A64" stroke="#E8505B" stroke-miterlimit="10"/>
<path d="M47.5702 129.51V130.574H44.6172V129.414L47.5702 129.51Z" fill="#455A64" stroke="#E8505B" stroke-miterlimit="10"/>
<path d="M47.565 131.477H44.5156V131.911H47.565V131.477Z" fill="#455A64" stroke="#E8505B" stroke-miterlimit="10"/>
<path d="M50.9117 102.789H41.2578V109.992H50.9117V102.789Z" fill="#E0E0E0"/>
<path d="M47.5194 106.027V107.029H44.7422V105.938L47.5194 106.027Z" fill="#F5F5F5"/>
<path d="M47.5235 107.875H44.6562V108.284H47.5235V107.875Z" fill="#F5F5F5"/>
<path d="M71.7031 122.57V128.848H80.8942H91.0345V122.57H71.7031Z" fill="#F5F5F5"/>
<path d="M70.8906 120.82V122.576H91.7092V120.82H80.8938H70.8906Z" fill="#A73434"/>
<path d="M81.3056 128.854H91.0388V122.576H91.7138V120.82H80.8984V122.413L81.3056 128.854Z" fill="#A73434"/>
<path d="M78.3179 123.594H74.3984V124.54H78.3179V123.594Z" fill="#A73434"/>
<path d="M78.94 125.711H73.9062V127.706H78.94V125.711Z" fill="white"/>
<path d="M69.6797 130.672V136.952H78.8707H89.0111V130.672H69.6797Z" fill="#523F3F"/>
<path d="M68.8672 128.922V130.677H89.6858V128.922H78.8704H68.8672Z" fill="#C88181"/>
<path d="M79.2822 136.957H89.0154V130.677H89.6904V128.922H78.875V130.514L79.2822 136.957Z" fill="#C88181"/>
<path d="M76.2944 131.695H72.375V132.641H76.2944V131.695Z" fill="#C88181"/>
<path d="M76.9166 133.812H71.8828V135.807H76.9166V133.812Z" fill="white"/>
<path d="M112.08 51.0689C112.133 51.0175 112.496 51.2786 112.971 51.8137C113.211 52.0792 113.468 52.4217 113.728 52.8176C113.983 53.2179 114.234 53.676 114.454 54.179C114.671 54.682 114.834 55.1808 114.951 55.6388C115.065 56.099 115.136 56.5207 115.168 56.876C115.234 57.5888 115.174 58.0319 115.101 58.0341C114.93 58.0469 114.774 56.3195 113.929 54.4038C113.108 52.4794 111.953 51.1844 112.08 51.0667V51.0689Z" fill="#EBEBEB"/>
<path d="M115.666 59.4665C115.591 59.4772 115.387 58.5311 115.196 56.9835C115.004 55.4359 114.845 53.2847 114.781 50.9109C114.716 48.5349 114.742 46.3837 114.789 44.8297C114.839 43.2736 114.911 42.3125 114.989 42.3125C115.068 42.3125 115.139 43.2736 115.192 44.8276C115.25 46.3816 115.286 48.5264 115.351 50.8938C115.413 53.259 115.507 55.3995 115.597 56.9471C115.683 58.4947 115.747 59.4558 115.664 59.4665H115.666Z" fill="#EBEBEB"/>
<path d="M119.141 45.9646C119.213 46.0074 118.916 46.6667 118.523 47.7691C118.123 48.8693 117.63 50.4105 117.146 52.1314C116.672 53.8567 116.297 55.4321 116.074 56.5794C115.84 57.7267 115.757 58.4459 115.671 58.4438C115.598 58.4438 115.54 57.701 115.673 56.5173C115.798 55.3336 116.115 53.7218 116.595 51.9773C117.083 50.2349 117.645 48.6916 118.148 47.615C118.646 46.5319 119.078 45.9261 119.141 45.9625V45.9646Z" fill="#EBEBEB"/>
<path d="M111.195 57.4922V59.3822C111.195 61.6105 113.004 63.4192 115.237 63.4192C117.468 63.4192 119.278 61.6127 119.278 59.3822V57.4922H111.197H111.195Z" fill="#E0E0E0"/>
<path d="M119.351 59.089C119.351 59.1212 117.526 59.1468 115.273 59.1468C113.021 59.1468 111.195 59.1212 111.195 59.089C111.195 59.0569 113.021 59.0312 115.273 59.0312C117.526 59.0312 119.351 59.0569 119.351 59.089Z" fill="#FAFAFA"/>
<path d="M119.351 59.6203C119.351 59.6524 117.526 59.6781 115.273 59.6781C113.021 59.6781 111.195 59.6524 111.195 59.6203C111.195 59.5882 113.021 59.5625 115.273 59.5625C117.526 59.5625 119.351 59.5882 119.351 59.6203Z" fill="#FAFAFA"/>
<path d="M143.092 63.4062H105.805V65.5596H143.092V63.4062Z" fill="#EBEBEB"/>
<path d="M114.105 65.5703H112.875V69.3012H114.105V65.5703Z" fill="#E0E0E0"/>
<path d="M134.558 65.5703H133.328V69.3012H134.558V65.5703Z" fill="#E0E0E0"/>
<path d="M127.118 55.5312L126.273 63.3612H137.095L137.993 55.5312H127.118Z" fill="#EBEBEB"/>
<path d="M127.557 56.0938L126.734 62.9434H136.502L137.293 56.0938H127.557Z" fill="white"/>
<path d="M129.209 57.2422L128.703 61.7886H134.866L135.183 57.2422H129.209Z" fill="#E0E0E0"/>
<path d="M137.606 58.9026L139.841 63.3913L137.094 63.3613L137.638 58.6094" fill="#E0E0E0"/>
<path d="M66.9141 54.9737V68.5938H75.878V54.9737H66.9141Z" fill="#E0E0E0"/>
<path d="M67.2812 55.4518V68.1172H75.478V55.4518H67.2812Z" fill="#FAFAFA"/>
<path d="M70.2656 59.7282V63.8594H72.5221V59.7282H70.2656Z" fill="#E0E0E0"/>
<path d="M55.0859 48.2695V56.1016H60.2418V48.2695H55.0859Z" fill="#E0E0E0"/>
<path d="M55.2969 48.544V55.8281H60.0113V48.544H55.2969Z" fill="#FAFAFA"/>
<path d="M57.0156 50.999V53.375H58.3121V50.999H57.0156Z" fill="#E0E0E0"/>
<path d="M70.1875 81.8257C70.1875 81.8257 81.4015 81.3847 83.7801 73.8438L78.8578 74.8155C78.8578 74.8155 77.9514 77.671 76.5456 79.1822C76.5456 79.1822 75.9284 79.3919 73.3548 78.4694L70.1875 81.8278V81.8257Z" fill="#502727"/>
<path d="M73.3594 78.4652C73.3594 78.4652 73.5287 78.5272 73.833 78.6407C74.1351 78.7563 74.5851 78.8976 75.1509 79.0067C75.7187 79.1116 76.4109 79.1715 77.1695 79.0966C77.9281 79.0238 78.751 78.8077 79.5375 78.4138C81.1232 77.6282 82.2697 76.4445 82.9169 75.4963C83.2426 75.019 83.4569 74.6016 83.5876 74.3062C83.7162 74.0086 83.7762 73.8395 83.7869 73.8438C83.7912 73.8438 83.7783 73.8888 83.7526 73.9701C83.7248 74.0515 83.6926 74.1735 83.6283 74.3233C83.5105 74.6273 83.3047 75.0532 82.9833 75.5412C82.3468 76.5109 81.1961 77.7181 79.5889 78.5144C78.7896 78.9147 77.9517 79.133 77.1824 79.1994C76.4109 79.27 75.7102 79.1994 75.1402 79.0859C74.568 78.966 74.1201 78.8119 73.8201 78.6835C73.668 78.6257 73.5565 78.5658 73.4772 78.5294C73.4001 78.493 73.3615 78.4716 73.3615 78.4673L73.3594 78.4652Z" fill="#455A64"/>
<path d="M82.2426 75.7588C82.2469 75.7716 82.0669 75.8529 81.7647 75.9621C81.4626 76.0691 81.0404 76.2018 80.5647 76.3196C80.089 76.4373 79.6539 76.5165 79.3368 76.5636C79.0196 76.6085 78.8225 76.6214 78.8203 76.6085C78.8182 76.5936 79.0111 76.5529 79.3239 76.4865C79.6368 76.4223 80.0675 76.3303 80.539 76.2126C81.0104 76.0948 81.4347 75.9771 81.7412 75.8872C82.0476 75.7994 82.2383 75.7438 82.2426 75.7609V75.7588Z" fill="#455A64"/>
<path d="M81.6879 76.7744C81.6922 76.7872 81.5122 76.8686 81.21 76.9777C80.9079 77.0848 80.4857 77.2175 80.01 77.3352C79.5343 77.4529 79.0992 77.5321 78.7821 77.5792C78.4649 77.6242 78.2678 77.637 78.2656 77.6242C78.2635 77.6092 78.4564 77.5664 78.7692 77.5022C79.0821 77.4379 79.5128 77.3459 79.9843 77.2282C80.4557 77.1104 80.88 76.9927 81.1865 76.9028C81.4929 76.8151 81.6836 76.7594 81.6879 76.7765V76.7744Z" fill="#455A64"/>
<path d="M80.2016 78.1215C80.2059 78.1343 80.0709 78.1985 79.8459 78.2841C79.6209 78.3676 79.3016 78.4725 78.9394 78.5453C78.5773 78.6181 78.2473 78.6523 78.0073 78.678C77.7672 78.7015 77.6194 78.7101 77.6172 78.6951C77.6108 78.6587 78.2023 78.5667 78.918 78.4361C79.6295 78.2884 80.1909 78.0851 80.2016 78.1215Z" fill="#455A64"/>
<path d="M102.109 75.4451C102.109 75.4451 105.662 83.9086 111.581 85.3535C111.581 85.3535 115.25 83.2622 117.02 82.7613C117.02 82.7613 110.321 77.759 109.025 73.1719C109.025 73.1719 106.445 76.297 102.109 75.4451Z" fill="#362D2D"/>
<path d="M102.112 75.4391C102.112 75.4391 102.154 75.4434 102.242 75.4541C102.337 75.4669 102.467 75.4819 102.637 75.5033C102.724 75.514 102.823 75.529 102.93 75.5397C103.037 75.544 103.155 75.5483 103.282 75.5525C103.408 75.5547 103.545 75.5654 103.691 75.5632C103.837 75.5547 103.991 75.544 104.156 75.5333C104.809 75.4776 105.607 75.3214 106.457 74.9468C106.884 74.767 107.317 74.5208 107.75 74.2233C108.178 73.9236 108.611 73.5704 108.992 73.1381L109.046 73.0781L109.067 73.1552C109.543 74.7884 110.658 76.4409 112.042 78.0398C113.439 79.6366 115.128 81.2142 117.016 82.6826L117.054 82.7125L117.142 82.7789L117.035 82.811C116.531 82.9587 116.047 83.1599 115.573 83.3675C115.102 83.5773 114.639 83.7978 114.189 84.0225C113.287 84.4742 112.423 84.9344 111.607 85.3946L111.588 85.4053L111.568 85.401C110.565 85.142 109.65 84.716 108.855 84.1916C108.058 83.6693 107.364 83.0743 106.757 82.4707C105.545 81.2548 104.662 80.0134 103.982 78.9602C103.305 77.9028 102.844 77.0166 102.542 76.4023C102.392 76.0962 102.283 75.8544 102.212 75.6917C102.18 75.6125 102.152 75.5504 102.133 75.5055C102.116 75.4648 102.109 75.4391 102.109 75.4412C102.109 75.4434 102.122 75.4605 102.142 75.5033C102.163 75.5483 102.191 75.6082 102.227 75.6853C102.304 75.8458 102.418 76.0834 102.572 76.3873C102.885 76.9952 103.354 77.875 104.038 78.9238C104.722 79.9705 105.611 81.2013 106.822 82.4064C107.428 83.0058 108.12 83.5923 108.911 84.1081C109.7 84.6261 110.606 85.0457 111.596 85.2983L111.558 85.3047C112.376 84.8423 113.24 84.38 114.142 83.9262C114.594 83.6993 115.057 83.4788 115.531 83.2669C116.006 83.0571 116.493 82.8538 117.005 82.704L116.988 82.8024L116.949 82.7725C115.053 81.2977 113.364 79.7158 111.963 78.1083C110.574 76.5008 109.458 74.8355 108.984 73.1787L109.059 73.1937C108.667 73.6347 108.23 73.9857 107.795 74.2875C107.357 74.585 106.918 74.8312 106.485 75.0089C105.624 75.3813 104.818 75.5311 104.16 75.5804C103.995 75.5889 103.839 75.5975 103.693 75.6039C103.547 75.6039 103.408 75.5911 103.282 75.5868C103.155 75.5804 103.037 75.574 102.928 75.5697C102.821 75.559 102.729 75.5397 102.643 75.5269C102.474 75.499 102.345 75.4776 102.251 75.4626C102.161 75.4477 102.112 75.4391 102.112 75.4391Z" fill="#263238"/>
<path d="M109.477 76.0637C109.477 76.0637 109.494 76.0573 109.484 76.0744C109.477 76.0829 109.467 76.0915 109.452 76.1001C109.422 76.1193 109.377 76.145 109.317 76.175C109.199 76.2349 109.023 76.3141 108.807 76.4083C108.372 76.5967 107.767 76.845 107.097 77.1082C106.424 77.3715 105.813 77.6027 105.369 77.7632C104.924 77.9238 104.647 78.0158 104.641 78.003C104.634 77.988 104.902 77.8703 105.341 77.6905C105.779 77.5107 106.385 77.2688 107.058 77.0055C107.716 76.7508 108.312 76.5196 108.779 76.3377C109.214 76.1686 109.505 76.0615 109.479 76.0637H109.477Z" fill="#263238"/>
<path d="M109.917 77.1049C109.93 77.1327 108.961 77.6379 107.753 78.2308C106.544 78.8259 105.552 79.2861 105.539 79.2582C105.526 79.2304 106.495 78.7253 107.704 78.1302C108.912 77.5351 109.904 77.0749 109.917 77.1028V77.1049Z" fill="#263238"/>
<path d="M110.757 78.04C110.772 78.0657 109.829 78.6329 108.652 79.305C107.474 79.9771 106.507 80.4994 106.492 80.4737C106.477 80.448 107.42 79.8808 108.599 79.2087C109.777 78.5366 110.744 78.0143 110.759 78.04H110.757Z" fill="#263238"/>
<path d="M111.502 79.1571C111.52 79.1828 110.669 79.7928 109.604 80.5227C108.537 81.2505 107.658 81.822 107.641 81.7963C107.624 81.7706 108.474 81.1606 109.542 80.4307C110.609 79.7029 111.487 79.1314 111.505 79.1571H111.502Z" fill="#263238"/>
<path d="M112.363 80.1961C112.382 80.2197 111.624 80.8319 110.668 81.5596C109.712 82.2874 108.924 82.8589 108.907 82.8332C108.887 82.8097 109.646 82.1997 110.602 81.4697C111.555 80.742 112.346 80.1705 112.363 80.1961Z" fill="#263238"/>
<path d="M113.986 81.2275C114.001 81.2532 113.108 81.8161 111.987 82.484C110.866 83.1518 109.947 83.6719 109.93 83.6462C109.915 83.6206 110.808 83.0576 111.929 82.3898C113.05 81.7219 113.969 81.2018 113.986 81.2275Z" fill="#263238"/>
<path d="M83.6641 71.7462C83.6641 71.7462 88.8028 68.7816 90.0243 67.1484C90.0243 67.1484 96.7445 70.3613 102.614 68.5012L98.1053 73.7241C98.1053 73.7241 90.7786 75.2973 83.6641 71.7462Z" fill="#FAFAFA"/>
<path d="M83.6665 71.7451C83.7736 71.7922 84.0629 71.9184 84.6822 72.1881C84.9994 72.3423 85.4194 72.4793 85.8994 72.6612C86.3773 72.856 86.9495 72.9973 87.5752 73.192C88.8438 73.5238 90.3996 73.8278 92.1868 73.9541C92.4097 73.9755 92.6368 73.9862 92.8661 73.9926C93.0954 74.0012 93.329 74.0097 93.5647 74.0183C94.0362 74.0161 94.5226 74.0247 95.0176 73.999C96.0077 73.9562 97.0448 73.8727 98.097 73.6715L98.067 73.6886C99.3742 72.1732 100.797 70.5228 102.274 68.8104C102.374 68.6927 102.475 68.5771 102.574 68.4637L102.634 68.5536C101.449 68.9132 100.242 69.0823 99.0699 69.1229C98.7763 69.1229 98.4849 69.1272 98.1956 69.1294C97.9084 69.1122 97.6213 69.0973 97.3384 69.0801C97.0534 69.0716 96.777 69.0245 96.4984 68.9967C96.3591 68.9795 96.222 68.9645 96.0848 68.9474C95.9477 68.9282 95.8127 68.9025 95.6776 68.8811C94.5998 68.712 93.5797 68.4594 92.6325 68.1683C91.6854 67.875 90.8025 67.554 90.0053 67.1879L90.0589 67.1751C89.6796 67.6588 89.2296 68.027 88.8074 68.3716C88.3831 68.7163 87.9631 69.0159 87.5688 69.2963C86.778 69.8507 86.073 70.3002 85.4944 70.662C84.9137 71.0237 84.4572 71.2956 84.1465 71.4775C83.9922 71.5653 83.8744 71.6338 83.7886 71.6808C83.7072 71.7279 83.6686 71.7451 83.6644 71.7451C83.6601 71.7451 83.7029 71.7172 83.7822 71.668C83.8658 71.6166 83.9815 71.546 84.1337 71.454C84.4422 71.2656 84.8944 70.9873 85.4687 70.6192C86.043 70.251 86.7438 69.7972 87.5281 69.2385C87.9181 68.956 88.336 68.6542 88.7581 68.3096C89.176 67.9649 89.6239 67.5946 89.9903 67.1216L90.0117 67.0938L90.0439 67.1087C90.8346 67.4683 91.7175 67.7873 92.6604 68.0741C93.6054 68.3631 94.6212 68.6092 95.6948 68.7762C95.8298 68.7976 95.9627 68.8233 96.0998 68.8425C96.237 68.8575 96.372 68.8746 96.5113 68.8896C96.7877 68.9175 97.0641 68.9624 97.3449 68.971C97.6256 68.986 97.9106 69.0031 98.1977 69.0181C98.4849 69.0181 98.7742 69.0138 99.0656 69.0116C100.229 68.971 101.425 68.8019 102.599 68.4465L102.784 68.3909L102.657 68.5364C102.559 68.6499 102.458 68.7655 102.357 68.8832C100.879 70.5935 99.4556 72.2417 98.1463 73.7571L98.1335 73.7721H98.1163C97.0513 73.9755 96.0141 74.0589 95.0176 74.0975C94.5205 74.1232 94.034 74.1125 93.5604 74.1125C93.3226 74.1039 93.089 74.0932 92.8597 74.0846C92.6283 74.0782 92.4011 74.0654 92.1782 74.044C90.3867 73.9112 88.8267 73.5966 87.5559 73.2563C86.9302 73.0572 86.3559 72.9095 85.8801 72.7104C85.4001 72.5242 84.9844 72.3829 84.6587 72.2181C84.0544 71.9313 83.7694 71.7964 83.6644 71.7472L83.6665 71.7451Z" fill="#263238"/>
<path d="M91.4301 68.7683C91.4494 68.7919 90.5408 69.556 89.4029 70.4743C88.2629 71.3926 87.3243 72.1182 87.305 72.0947C87.2857 72.0711 88.1943 71.307 89.3322 70.3865C90.4722 69.4683 91.4109 68.7426 91.4301 68.7662V68.7683Z" fill="#263238"/>
<path d="M92.7536 69.0416C92.775 69.063 91.9457 69.8829 90.8999 70.8675C89.8542 71.8543 88.9906 72.6355 88.9692 72.6141C88.9477 72.5927 89.777 71.7729 90.8228 70.7861C91.8664 69.7994 92.7321 69.0181 92.7514 69.0395L92.7536 69.0416Z" fill="#263238"/>
<path d="M93.9318 69.4926C93.9554 69.5119 93.3039 70.306 92.4767 71.265C91.6496 72.2239 90.9617 72.9859 90.9381 72.9645C90.9145 72.9453 91.566 72.1511 92.3932 71.1922C93.2203 70.2332 93.9082 69.4712 93.9318 69.4926Z" fill="#263238"/>
<path d="M95.5939 69.594C95.6175 69.6133 95.0475 70.4096 94.3189 71.3728C93.5903 72.336 92.9774 73.1023 92.9538 73.0852C92.9303 73.0681 93.5003 72.2697 94.231 71.3064C94.9596 70.3432 95.5725 69.5769 95.5961 69.594H95.5939Z" fill="#263238"/>
<path d="M97.0561 69.7891C97.0797 69.8083 96.4904 70.5875 95.7404 71.5314C94.9903 72.4754 94.3625 73.2224 94.3367 73.2053C94.311 73.1882 94.9003 72.4069 95.6525 71.4629C96.4025 70.5211 97.0304 69.7719 97.054 69.7912L97.0561 69.7891Z" fill="#263238"/>
<path d="M98.7667 69.8675C98.7924 69.8846 98.3403 70.6402 97.7552 71.5542C97.1702 72.4703 96.6752 73.1981 96.6495 73.181C96.6238 73.1639 97.0759 72.4083 97.6609 71.4943C98.246 70.5803 98.741 69.8504 98.7667 69.8675Z" fill="#263238"/>
<path d="M131.12 81.7906L127.237 81.5701C127.213 81.1163 127.245 78.4749 127.245 78.4749C127.245 78.4749 125.63 78.2245 125.61 76.6105C125.591 74.9966 125.87 71.2914 125.87 71.2914C127.74 70.4887 129.898 70.7605 131.512 71.9999L131.752 72.184L131.122 81.7927L131.12 81.7906Z" fill="#AA755E"/>
<path d="M126.244 74.1589C126.34 74.0711 126.347 73.9234 126.261 73.8271C126.173 73.7308 126.025 73.7243 125.929 73.81C125.832 73.8977 125.826 74.0454 125.912 74.1417C125.999 74.2381 126.147 74.2445 126.244 74.1589Z" fill="#263238"/>
<path d="M125.852 73.7895C125.878 73.8173 126.036 73.6953 126.259 73.6953C126.482 73.691 126.643 73.8087 126.668 73.7809C126.681 73.7681 126.655 73.7188 126.585 73.6653C126.516 73.6118 126.396 73.5604 126.259 73.5626C126.12 73.5626 126.004 73.6182 125.935 73.6739C125.867 73.7295 125.843 73.7809 125.854 73.7916L125.852 73.7895Z" fill="#263238"/>
<path d="M128.409 73.8868C128.3 73.9553 128.263 74.0987 128.332 74.21C128.4 74.3192 128.544 74.3556 128.655 74.2871C128.765 74.2186 128.801 74.0752 128.732 73.9639C128.664 73.8526 128.52 73.8183 128.409 73.8868Z" fill="#263238"/>
<path d="M128.266 73.891C128.292 73.9188 128.45 73.7968 128.673 73.7968C128.896 73.7926 129.057 73.9103 129.082 73.8825C129.095 73.8696 129.07 73.8204 128.999 73.7669C128.93 73.7134 128.81 73.662 128.673 73.6641C128.534 73.6641 128.416 73.7198 128.35 73.7754C128.281 73.8311 128.257 73.8825 128.268 73.8932L128.266 73.891Z" fill="#263238"/>
<path d="M127.375 75.7165C127.375 75.6994 127.238 75.6716 127.015 75.6394C126.958 75.633 126.913 75.6202 126.908 75.5881C126.898 75.5538 126.921 75.4917 126.949 75.4211C127.007 75.2734 127.065 75.1257 127.125 74.9695C127.367 74.3252 127.538 73.7943 127.506 73.7815C127.474 73.7686 127.249 74.2802 127.007 74.9245C126.949 75.0808 126.895 75.2306 126.84 75.3804C126.818 75.4468 126.778 75.526 126.808 75.6223C126.823 75.6694 126.87 75.7058 126.908 75.7144C126.947 75.7251 126.979 75.7251 127.007 75.7272C127.232 75.7358 127.373 75.7315 127.375 75.7144V75.7165Z" fill="#263238"/>
<path d="M127.246 78.4488C127.246 78.4488 128.267 78.5322 129.353 77.8516C129.353 77.8516 128.856 79.0139 127.242 78.8683L127.246 78.4509V78.4488Z" fill="#7F5242"/>
<path d="M126.127 70.8919C125.759 70.8577 125.487 70.4274 125.613 70.0807C125.739 69.7339 126.226 69.5819 126.53 69.7917C126.361 69.6097 126.185 69.4192 126.104 69.1838C126.022 68.9483 126.061 68.6529 126.26 68.5031C126.457 68.3554 126.74 68.3939 126.959 68.5031C127.291 68.6701 127.544 68.974 127.887 69.1196C128.234 69.2651 128.626 69.2266 129.001 69.2651C129.415 69.3079 129.826 69.4578 130.135 69.736C130.443 70.0164 130.634 70.436 130.587 70.8491C131.116 70.817 131.699 70.8448 132.093 71.198C132.425 71.4955 132.552 71.9729 132.526 72.4181C132.5 72.8633 132.288 73.2743 132.132 73.6938C132.038 73.9357 131.95 74.0192 131.95 74.0192L131.684 75.1601L130.968 75.1023L131.163 72.7049C131.163 72.7049 131.298 71.6989 130.422 71.7331C129.545 71.7674 128.3 72.6771 126.62 72.3239C126.348 72.2661 126.063 72.219 125.844 72.0478C125.624 71.8787 125.476 71.5961 125.525 71.3221C125.574 71.0482 125.859 70.8213 126.129 70.8898L126.127 70.8919Z" fill="#263238"/>
<path d="M131.751 73.7466C131.787 73.7359 132.955 73.6567 132.76 75.0159C132.567 76.3773 131.256 75.7308 131.258 75.6923C131.26 75.6538 131.751 73.7466 131.751 73.7466Z" fill="#AA755E"/>
<path d="M131.75 75.277C131.75 75.277 131.771 75.2962 131.808 75.3219C131.844 75.3455 131.911 75.3669 131.986 75.3497C132.138 75.3176 132.29 75.1057 132.333 74.8617C132.354 74.7376 132.346 74.6177 132.316 74.5128C132.288 74.4079 132.234 74.3287 132.164 74.3052C132.093 74.2774 132.037 74.3137 132.014 74.3501C131.99 74.3865 131.994 74.4143 131.988 74.4143C131.984 74.4165 131.962 74.3865 131.981 74.333C131.99 74.3073 132.011 74.2774 132.048 74.2559C132.084 74.2345 132.134 74.2281 132.185 74.241C132.29 74.2624 132.369 74.3737 132.404 74.4871C132.442 74.6027 132.455 74.7397 132.431 74.8788C132.384 75.1507 132.206 75.3883 132.001 75.4161C131.902 75.4268 131.825 75.3883 131.789 75.3497C131.752 75.3112 131.748 75.2791 131.754 75.277H131.75Z" fill="#7F5242"/>
<path d="M128.271 72.88C128.318 72.9571 128.563 72.895 128.85 72.9014C129.139 72.9014 129.379 72.9699 129.43 72.8928C129.452 72.8565 129.413 72.7815 129.31 72.7109C129.21 72.6403 129.043 72.5803 128.854 72.5782C128.665 72.576 128.498 72.6317 128.395 72.7002C128.29 72.7687 128.25 72.8415 128.271 72.8779V72.88Z" fill="#263238"/>
<path d="M126.086 73.0273C126.136 73.1044 126.277 73.1044 126.421 73.1279C126.566 73.1429 126.704 73.1793 126.77 73.1193C126.8 73.0872 126.798 73.0252 126.744 72.9588C126.693 72.8924 126.59 72.8261 126.464 72.809C126.337 72.7918 126.219 72.8282 126.153 72.8796C126.084 72.931 126.065 72.9909 126.086 73.0294V73.0273Z" fill="#263238"/>
<path d="M127.141 76.2956C127.139 76.3084 127.201 76.3405 127.314 76.3534C127.426 76.3662 127.589 76.3534 127.749 76.2827C127.91 76.2142 128.032 76.1072 128.101 76.0173C128.169 75.9274 128.191 75.8589 128.18 75.8525C128.154 75.8354 128.004 76.0622 127.709 76.1843C127.415 76.3127 127.147 76.2656 127.141 76.2956Z" fill="#263238"/>
<path d="M128.453 135.929L128.498 133.953L132.203 134.013L132.169 136.903L131.94 136.913C130.917 136.954 126.734 137.044 126.055 136.826C125.297 136.582 128.455 135.927 128.455 135.927L128.453 135.929Z" fill="#E8505B"/>
<g opacity="0.4">
<path d="M126.906 136.307C126.906 136.307 125.798 136.606 125.933 136.791C126.068 136.975 130.296 137.041 132.165 136.906L132.161 136.823L127.228 136.786C127.228 136.786 127.123 136.318 126.908 136.305L126.906 136.307Z" fill="white"/>
</g>
<path d="M132.223 136.819C132.223 136.819 132.201 136.823 132.158 136.825C132.103 136.827 132.043 136.829 131.976 136.834C131.794 136.838 131.569 136.844 131.303 136.853C130.736 136.864 129.949 136.87 129.079 136.857C128.211 136.844 127.425 136.814 126.857 136.786C126.591 136.772 126.366 136.759 126.184 136.748C126.115 136.744 126.055 136.739 126.002 136.735C125.961 136.731 125.938 136.729 125.938 136.727C125.938 136.727 125.959 136.727 126.002 136.727C126.058 136.727 126.118 136.731 126.184 136.731C126.366 136.737 126.591 136.746 126.857 136.754C127.425 136.776 128.211 136.799 129.079 136.812C129.947 136.825 130.733 136.825 131.301 136.821C131.567 136.821 131.792 136.819 131.974 136.816C132.043 136.816 132.103 136.816 132.158 136.816C132.201 136.816 132.223 136.816 132.223 136.819Z" fill="#263238"/>
<path d="M127.228 136.843C127.215 136.843 127.207 136.685 127.108 136.52C127.012 136.355 126.875 136.27 126.883 136.259C126.885 136.248 127.044 136.321 127.147 136.496C127.252 136.672 127.239 136.845 127.228 136.843Z" fill="#263238"/>
<path d="M128.333 136.311C128.333 136.311 128.271 136.253 128.22 136.167C128.166 136.082 128.132 136.007 128.143 136C128.153 135.994 128.205 136.058 128.256 136.144C128.31 136.229 128.344 136.304 128.333 136.311Z" fill="#263238"/>
<path d="M128.634 136.158C128.634 136.158 128.568 136.128 128.506 136.069C128.444 136.011 128.399 135.955 128.407 135.947C128.416 135.938 128.474 135.976 128.536 136.036C128.598 136.094 128.643 136.15 128.634 136.158Z" fill="#263238"/>
<path d="M128.831 135.813C128.831 135.825 128.745 135.834 128.638 135.834C128.531 135.834 128.445 135.823 128.445 135.81C128.445 135.798 128.531 135.789 128.638 135.789C128.745 135.789 128.831 135.8 128.831 135.813Z" fill="#263238"/>
<path d="M128.9 135.557C128.905 135.567 128.81 135.608 128.684 135.617C128.557 135.625 128.459 135.595 128.461 135.584C128.463 135.572 128.562 135.58 128.68 135.574C128.8 135.567 128.896 135.546 128.898 135.559L128.9 135.557Z" fill="#263238"/>
<path d="M128.202 135.98C128.202 135.98 128.11 135.995 127.964 135.975C127.891 135.965 127.806 135.947 127.711 135.915C127.664 135.898 127.617 135.885 127.568 135.853C127.544 135.836 127.518 135.815 127.51 135.778C127.501 135.742 127.521 135.703 127.548 135.684C127.778 135.571 128.003 135.701 128.086 135.821C128.131 135.881 128.153 135.941 128.161 135.982C128.17 136.022 128.17 136.046 128.166 136.046C128.157 136.048 128.151 135.952 128.061 135.84C128.016 135.787 127.947 135.733 127.859 135.706C127.776 135.68 127.656 135.671 127.574 135.721C127.536 135.748 127.551 135.793 127.591 135.819C127.63 135.845 127.681 135.862 127.724 135.879C127.814 135.911 127.898 135.932 127.968 135.947C128.11 135.975 128.202 135.977 128.202 135.984V135.98Z" fill="#263238"/>
<path d="M128.146 135.988C128.146 135.988 128.107 135.93 128.12 135.823C128.126 135.771 128.148 135.709 128.188 135.649C128.231 135.598 128.287 135.525 128.388 135.532C128.443 135.54 128.469 135.602 128.458 135.643C128.454 135.684 128.435 135.72 128.416 135.748C128.379 135.806 128.338 135.855 128.3 135.889C128.225 135.96 128.165 135.988 128.163 135.983C128.158 135.977 128.21 135.94 128.278 135.868C128.313 135.831 128.347 135.784 128.381 135.726C128.416 135.677 128.439 135.587 128.379 135.574C128.319 135.568 128.257 135.626 128.221 135.673C128.182 135.724 128.161 135.778 128.15 135.827C128.131 135.923 128.15 135.985 128.143 135.988H128.146Z" fill="#263238"/>
<path d="M132.161 135.813C132.161 135.813 132.056 135.802 131.887 135.817C131.72 135.832 131.488 135.896 131.287 136.053C131.083 136.209 130.963 136.417 130.906 136.573C130.846 136.731 130.839 136.836 130.831 136.836C130.828 136.836 130.826 136.808 130.831 136.761C130.835 136.714 130.848 136.643 130.873 136.562C130.925 136.399 131.045 136.179 131.257 136.016C131.469 135.854 131.711 135.791 131.883 135.783C131.968 135.779 132.039 135.783 132.086 135.791C132.134 135.8 132.159 135.806 132.159 135.809L132.161 135.813Z" fill="#263238"/>
<path d="M131.799 134.266C131.812 134.266 131.821 134.606 131.819 135.026C131.819 135.445 131.806 135.785 131.793 135.785C131.78 135.785 131.772 135.445 131.774 135.026C131.774 134.606 131.787 134.266 131.799 134.266Z" fill="#263238"/>
<path d="M130.363 136.48C130.363 136.49 130.123 136.527 129.821 136.525C129.519 136.525 129.279 136.484 129.281 136.473C129.281 136.46 129.523 136.48 129.823 136.48C130.121 136.482 130.363 136.467 130.366 136.48H130.363Z" fill="#263238"/>
<path d="M131.087 136.501C131.087 136.501 131.066 136.553 131.04 136.608C131.014 136.664 130.999 136.713 130.986 136.711C130.974 136.711 130.969 136.653 130.999 136.589C131.029 136.525 131.079 136.493 131.085 136.501H131.087Z" fill="#263238"/>
<path d="M131.378 136.166C131.378 136.166 131.363 136.213 131.322 136.251C131.283 136.29 131.245 136.314 131.236 136.305C131.228 136.296 131.251 136.258 131.292 136.219C131.33 136.181 131.369 136.157 131.378 136.166Z" fill="#263238"/>
<path d="M131.761 136.014C131.759 136.027 131.71 136.025 131.654 136.044C131.598 136.061 131.56 136.091 131.549 136.083C131.538 136.076 131.57 136.023 131.639 136.001C131.707 135.98 131.763 136.001 131.759 136.014H131.761Z" fill="#263238"/>
<path d="M132.042 135.946C132.046 135.956 132.025 135.975 131.995 135.986C131.965 135.997 131.935 135.997 131.93 135.986C131.926 135.975 131.947 135.956 131.977 135.946C132.007 135.935 132.037 135.935 132.042 135.946Z" fill="#263238"/>
<g opacity="0.3">
<path d="M132.16 135.706L128.461 135.586L128.474 135.141L132.194 135.472L132.16 135.706Z" fill="black"/>
</g>
<path d="M125.009 135.533L124.381 133.66L127.886 132.461L128.836 135.192L128.624 135.28C127.674 135.665 123.772 137.168 123.058 137.191C122.263 137.219 125.011 135.533 125.011 135.533H125.009Z" fill="#E8505B"/>
<g opacity="0.4">
<path d="M123.683 136.418C123.683 136.418 122.743 137.075 122.931 137.203C123.12 137.33 127.121 135.96 128.833 135.202L128.801 135.125L124.148 136.762C124.148 136.762 123.891 136.356 123.683 136.418Z" fill="white"/>
</g>
<path d="M128.856 135.094C128.856 135.094 128.837 135.104 128.799 135.122C128.747 135.143 128.691 135.164 128.629 135.192C128.458 135.259 128.25 135.34 128.001 135.438C127.47 135.642 126.733 135.914 125.912 136.196C125.091 136.479 124.341 136.716 123.797 136.883C123.542 136.958 123.326 137.022 123.152 137.076C123.085 137.093 123.028 137.11 122.976 137.125C122.935 137.136 122.914 137.14 122.914 137.14C122.914 137.14 122.933 137.132 122.974 137.117C123.025 137.099 123.083 137.08 123.148 137.059C123.321 137.003 123.536 136.935 123.788 136.853C124.331 136.68 125.076 136.436 125.899 136.155C126.72 135.873 127.459 135.607 127.993 135.411C128.241 135.318 128.454 135.241 128.625 135.179C128.689 135.156 128.745 135.137 128.796 135.117C128.835 135.104 128.856 135.098 128.859 135.098L128.856 135.094Z" fill="#263238"/>
<path d="M124.179 136.803C124.166 136.809 124.104 136.659 123.956 136.539C123.811 136.415 123.652 136.383 123.656 136.37C123.656 136.359 123.828 136.372 123.986 136.505C124.145 136.636 124.192 136.8 124.181 136.803H124.179Z" fill="#263238"/>
<path d="M125.02 135.932C125.02 135.932 124.943 135.897 124.864 135.835C124.785 135.773 124.727 135.713 124.735 135.705C124.744 135.694 124.812 135.739 124.892 135.801C124.971 135.863 125.029 135.923 125.02 135.932Z" fill="#263238"/>
<path d="M125.256 135.68C125.252 135.691 125.183 135.673 125.104 135.639C125.025 135.605 124.965 135.569 124.969 135.558C124.973 135.547 125.042 135.564 125.121 135.599C125.2 135.633 125.26 135.669 125.256 135.68Z" fill="#263238"/>
<path d="M125.32 135.293C125.324 135.304 125.245 135.342 125.144 135.379C125.043 135.415 124.958 135.434 124.953 135.421C124.949 135.411 125.028 135.372 125.129 135.336C125.23 135.299 125.315 135.28 125.32 135.293Z" fill="#263238"/>
<path d="M125.303 135.033C125.303 135.033 125.235 135.112 125.119 135.161C125.003 135.21 124.901 135.217 124.898 135.206C124.896 135.193 124.991 135.168 125.102 135.12C125.211 135.073 125.295 135.022 125.303 135.033Z" fill="#263238"/>
<path d="M124.802 135.667C124.802 135.667 124.72 135.712 124.577 135.742C124.504 135.757 124.416 135.77 124.319 135.772C124.27 135.772 124.221 135.776 124.163 135.763C124.135 135.757 124.103 135.744 124.084 135.712C124.062 135.682 124.069 135.637 124.088 135.611C124.266 135.427 124.523 135.474 124.641 135.558C124.705 135.599 124.744 135.648 124.765 135.682C124.787 135.719 124.795 135.74 124.791 135.74C124.784 135.746 124.746 135.656 124.622 135.584C124.562 135.547 124.478 135.522 124.386 135.524C124.298 135.528 124.182 135.56 124.124 135.633C124.099 135.671 124.124 135.708 124.174 135.719C124.219 135.729 124.272 135.727 124.319 135.729C124.414 135.729 124.502 135.721 124.572 135.71C124.716 135.689 124.802 135.659 124.804 135.665L124.802 135.667Z" fill="#263238"/>
<path d="M124.744 135.695C124.744 135.695 124.688 135.652 124.665 135.547C124.654 135.496 124.652 135.429 124.669 135.361C124.692 135.297 124.718 135.211 124.817 135.181C124.87 135.17 124.917 135.22 124.922 135.26C124.93 135.301 124.926 135.342 124.917 135.374C124.902 135.442 124.881 135.5 124.857 135.547C124.81 135.639 124.763 135.686 124.759 135.682C124.752 135.678 124.789 135.626 124.827 135.534C124.847 135.487 124.864 135.432 124.875 135.367C124.89 135.31 124.881 135.218 124.821 135.226C124.763 135.239 124.725 135.316 124.705 135.372C124.686 135.432 124.686 135.492 124.692 135.539C124.707 135.637 124.748 135.686 124.742 135.691L124.744 135.695Z" fill="#263238"/>
<path d="M128.46 134.159C128.46 134.159 128.357 134.185 128.205 134.258C128.055 134.328 127.858 134.467 127.721 134.684C127.583 134.9 127.541 135.135 127.538 135.302C127.538 135.471 127.566 135.574 127.558 135.574C127.556 135.574 127.545 135.55 127.534 135.503C127.521 135.456 127.511 135.388 127.508 135.302C127.502 135.131 127.541 134.885 127.684 134.658C127.828 134.433 128.036 134.292 128.194 134.228C128.274 134.193 128.342 134.176 128.389 134.166C128.436 134.157 128.462 134.155 128.464 134.157L128.46 134.159Z" fill="#263238"/>
<path d="M127.595 132.828C127.605 132.824 127.73 133.141 127.871 133.537C128.012 133.933 128.117 134.256 128.107 134.26C128.096 134.264 127.972 133.948 127.83 133.552C127.689 133.156 127.584 132.832 127.595 132.828Z" fill="#263238"/>
<path d="M126.999 135.407C126.999 135.407 126.789 135.533 126.504 135.634C126.221 135.735 125.979 135.78 125.977 135.769C125.974 135.756 126.208 135.692 126.489 135.591C126.769 135.493 126.992 135.396 126.999 135.407Z" fill="#263238"/>
<path d="M127.685 135.172C127.696 135.179 127.685 135.228 127.679 135.288C127.672 135.348 127.677 135.399 127.664 135.404C127.653 135.408 127.627 135.354 127.634 135.284C127.64 135.213 127.675 135.166 127.685 135.172Z" fill="#263238"/>
<path d="M127.824 134.759C127.835 134.763 127.824 134.808 127.801 134.857C127.777 134.906 127.749 134.943 127.739 134.936C127.728 134.932 127.739 134.887 127.762 134.838C127.786 134.789 127.814 134.752 127.824 134.759Z" fill="#263238"/>
<path d="M128.148 134.485C128.148 134.498 128.103 134.513 128.058 134.549C128.011 134.583 127.985 134.624 127.972 134.62C127.962 134.617 127.972 134.557 128.03 134.513C128.086 134.47 128.148 134.472 128.148 134.485Z" fill="#263238"/>
<path d="M128.391 134.331C128.391 134.331 128.385 134.366 128.359 134.387C128.334 134.408 128.308 134.417 128.299 134.408C128.291 134.4 128.306 134.374 128.331 134.353C128.357 134.331 128.383 134.323 128.391 134.331Z" fill="#263238"/>
<g opacity="0.3">
<path d="M128.426 134.067L124.905 135.208L124.766 134.786L128.376 133.836L128.426 134.067Z" fill="black"/>
</g>
<path d="M117.905 119.315C119.058 124.003 124.42 135.001 124.42 135.001L127.266 134.266C127.257 134.981 127.266 135.388 127.266 135.388L132.651 135.566L133.414 98.9609L126.73 99.1514L122.371 98.9609C122.371 98.9609 116.941 115.406 117.903 119.315H117.905ZM123.548 117.748C123.58 116.751 126.878 104.1 126.878 104.1C127.002 105.858 127.377 120.225 127.287 128.673C125.845 124.191 123.529 118.354 123.548 117.748Z" fill="#263238"/>
<path d="M127.316 126.273C127.316 126.273 127.301 126.4 127.295 126.629C127.29 126.875 127.284 127.2 127.275 127.596C127.265 128.414 127.254 129.542 127.252 130.79C127.247 132.038 127.252 133.166 127.258 133.984C127.265 134.38 127.269 134.705 127.271 134.951C127.277 135.18 127.284 135.306 127.29 135.306C127.297 135.306 127.305 135.18 127.312 134.951C127.316 134.705 127.322 134.38 127.331 133.984C127.342 133.166 127.352 132.038 127.355 130.79C127.359 129.544 127.355 128.414 127.348 127.596C127.342 127.2 127.337 126.875 127.335 126.629C127.329 126.4 127.322 126.273 127.316 126.273Z" fill="#455A64"/>
<path d="M129.911 99.4609C129.911 99.4609 129.9 99.5294 129.911 99.6493C129.92 99.7713 129.95 99.9447 130.018 100.154C130.149 100.565 130.479 101.118 131.055 101.479C131.632 101.837 132.275 101.89 132.703 101.826C132.92 101.796 133.091 101.745 133.203 101.7C133.316 101.655 133.374 101.621 133.372 101.616C133.365 101.597 133.119 101.713 132.695 101.753C132.277 101.796 131.662 101.734 131.111 101.392C130.56 101.047 130.232 100.525 130.089 100.131C129.939 99.7328 129.935 99.4609 129.915 99.4631L129.911 99.4609Z" fill="#455A64"/>
<path d="M126.395 99.5156C126.395 99.5156 126.38 99.5841 126.373 99.7083C126.367 99.8324 126.36 100.01 126.354 100.231C126.341 100.671 126.332 101.282 126.328 101.956C126.328 102.292 126.328 102.611 126.328 102.906C126.328 103.199 126.371 103.48 126.506 103.675C126.639 103.867 126.823 103.955 126.95 103.968C127.08 103.983 127.147 103.944 127.145 103.942C127.145 103.931 127.074 103.955 126.958 103.929C126.845 103.906 126.682 103.814 126.568 103.636C126.455 103.456 126.42 103.195 126.425 102.908C126.427 102.613 126.431 102.294 126.433 101.958C126.437 101.284 126.433 100.674 126.429 100.233C126.425 100.012 126.42 99.8324 126.416 99.7104C126.41 99.5863 126.403 99.5178 126.397 99.5178L126.395 99.5156Z" fill="#455A64"/>
<path d="M121.973 101.789C121.973 101.789 122.027 101.796 122.121 101.789C122.217 101.785 122.354 101.766 122.52 101.725C122.852 101.65 123.302 101.47 123.722 101.156C124.142 100.839 124.437 100.458 124.602 100.158C124.686 100.008 124.744 99.8819 124.774 99.792C124.806 99.7021 124.821 99.6507 124.812 99.6486C124.795 99.6422 124.718 99.837 124.538 100.12C124.36 100.402 124.065 100.764 123.657 101.07C123.248 101.376 122.82 101.56 122.498 101.652C122.177 101.746 121.967 101.766 121.969 101.785L121.973 101.789Z" fill="#455A64"/>
<path d="M135.981 83.2148C135.435 82.1874 135.064 81.5923 134.072 80.9823C133.401 80.5692 132.373 80.094 131.276 80.0469C129.895 80.4728 128.515 80.4728 127.135 80.049C126.548 80.1218 125.648 79.9056 123.636 80.9373C122.794 81.3676 122.097 82.0375 121.637 82.8616L119.234 87.1555L122.592 89.2617L123.486 86.6674L122.847 92.4939L121.823 99.1551H133.952L133.798 91.4814C133.804 91.7576 133.785 89.2104 133.785 89.2104L135.984 83.217L135.981 83.2148Z" fill="#E8505B"/>
<path d="M130.671 90.3157C130.671 90.3157 130.637 90.3457 130.566 90.3928C130.498 90.4441 130.386 90.5041 130.243 90.579C129.951 90.716 129.491 90.8723 128.904 90.8765C128.323 90.883 127.605 90.7331 126.973 90.2686C126.66 90.0417 126.368 89.7335 126.195 89.3397C126.019 88.9501 126.011 88.4535 126.248 88.0532C126.366 87.8563 126.542 87.6872 126.758 87.608C126.973 87.5288 127.208 87.5288 127.418 87.5951C127.626 87.6636 127.815 87.8071 127.909 88.0018C128.004 88.1966 128.01 88.4171 127.961 88.6097C127.86 89.0079 127.551 89.2754 127.26 89.4488C126.962 89.6265 126.649 89.7228 126.362 89.7742C125.779 89.8684 125.301 89.7656 124.997 89.6564C124.845 89.5987 124.731 89.543 124.656 89.5023C124.583 89.4595 124.545 89.4338 124.547 89.4317C124.553 89.421 124.706 89.5173 125.012 89.6158C125.316 89.71 125.786 89.7999 126.349 89.6971C126.628 89.6436 126.93 89.543 127.215 89.3696C127.496 89.2005 127.779 88.9437 127.864 88.5841C127.907 88.4085 127.901 88.2137 127.817 88.0468C127.736 87.8798 127.575 87.7557 127.388 87.6957C127.202 87.6358 126.99 87.638 126.801 87.7086C126.613 87.7771 126.454 87.9291 126.349 88.1067C126.133 88.4727 126.137 88.9287 126.3 89.2947C126.461 89.665 126.737 89.9625 127.039 90.1851C127.644 90.6368 128.342 90.7931 128.908 90.7973C129.482 90.8038 129.934 90.6625 130.228 90.5383C130.521 90.4078 130.667 90.3029 130.674 90.3136L130.671 90.3157Z" fill="#FAFAFA"/>
<path d="M133.92 96.9676C133.92 96.9676 133.901 96.9761 133.858 96.989C133.811 97.0018 133.751 97.0211 133.674 97.0425C133.511 97.0789 133.267 97.1324 132.945 97.1409C132.626 97.1516 132.232 97.126 131.79 97.0125C131.349 96.9012 130.865 96.6914 130.402 96.349C130.168 96.1799 129.952 95.9679 129.748 95.7282C129.553 95.4842 129.373 95.1867 129.349 94.8335C129.319 94.4846 129.519 94.0993 129.879 93.9537C130.059 93.881 130.277 93.9109 130.44 94.0222C130.607 94.1335 130.712 94.3112 130.779 94.4931C131.203 96.0279 129.746 97.8195 127.946 97.828C127.059 97.8452 126.208 97.5027 125.58 96.9611C125.265 96.6914 124.993 96.3768 124.817 96.0108C124.731 95.8288 124.676 95.6297 124.669 95.4285C124.663 95.2273 124.712 95.0261 124.809 94.8549C124.905 94.6836 125.049 94.5359 125.231 94.4589C125.413 94.3797 125.619 94.3818 125.797 94.4439C126.161 94.5659 126.392 94.9063 126.457 95.2423C126.527 95.5827 126.474 95.923 126.36 96.2162C126.244 96.5116 126.062 96.7621 125.861 96.9697C125.451 97.3807 124.963 97.6097 124.524 97.7232C124.082 97.8387 123.688 97.8644 123.371 97.8708C123.051 97.8751 122.805 97.858 122.638 97.8452C122.559 97.8387 122.496 97.8323 122.447 97.828C122.404 97.8238 122.383 97.8195 122.383 97.8173C122.383 97.8173 122.404 97.8152 122.447 97.8173C122.496 97.8173 122.559 97.8216 122.638 97.8238C122.805 97.8302 123.051 97.8387 123.369 97.828C123.686 97.8152 124.074 97.7831 124.506 97.6632C124.937 97.5455 125.411 97.3186 125.805 96.9162C125.998 96.715 126.172 96.471 126.281 96.1884C126.388 95.9059 126.435 95.5805 126.367 95.2637C126.304 94.9491 126.09 94.6451 125.764 94.5381C125.606 94.4824 125.428 94.4824 125.271 94.5509C125.115 94.6194 124.986 94.75 124.899 94.9063C124.714 95.2209 124.746 95.6255 124.914 95.9679C125.079 96.3126 125.344 96.6208 125.651 96.8798C126.259 97.4042 127.087 97.7339 127.942 97.7167C128.801 97.7125 129.596 97.2801 130.11 96.6657C130.367 96.3575 130.562 96.0043 130.663 95.634C130.764 95.2637 130.805 94.872 130.678 94.5295C130.618 94.3604 130.522 94.202 130.38 94.1078C130.241 94.0137 130.061 93.988 129.909 94.0479C129.598 94.1678 129.409 94.5167 129.437 94.8292C129.457 95.1524 129.624 95.4371 129.812 95.6747C130.007 95.9102 130.217 96.1199 130.445 96.2847C130.895 96.6229 131.37 96.8348 131.801 96.9504C132.234 97.0682 132.624 97.1003 132.939 97.096C133.575 97.0853 133.91 96.9462 133.914 96.9676H133.92Z" fill="#FAFAFA"/>
<path d="M131.269 86.0683C131.269 86.0683 131.184 86.0597 131.027 86.0169C130.871 85.9741 130.641 85.8971 130.367 85.7537C130.095 85.6081 129.776 85.3898 129.478 85.0644C129.33 84.8996 129.184 84.7134 129.064 84.4908C128.946 84.2703 128.852 84.0091 128.854 83.7245C128.859 83.4419 128.976 83.1358 129.225 82.9346C129.347 82.834 129.506 82.7719 129.669 82.7591C129.834 82.7484 130.003 82.7805 130.155 82.8533C130.468 82.9903 130.695 83.3113 130.753 83.6624C130.819 84.0156 130.74 84.3944 130.558 84.7198C130.191 85.3769 129.444 85.8179 128.642 85.8906C127.836 85.9698 127.001 85.7686 126.242 85.3898C125.867 85.1928 125.518 84.9274 125.286 84.5721C125.053 84.2189 124.969 83.778 125.059 83.3756C125.102 83.1743 125.198 82.986 125.333 82.8319C125.468 82.6778 125.657 82.5729 125.852 82.5301C126.047 82.483 126.251 82.4937 126.437 82.545C126.623 82.5986 126.803 82.6949 126.923 82.849C127.046 83.001 127.104 83.2 127.089 83.3863C127.074 83.5746 126.998 83.7501 126.893 83.8936C126.681 84.1825 126.392 84.3837 126.098 84.5271C125.503 84.8011 124.894 84.9253 124.339 84.9338C123.221 84.9595 122.357 84.5956 121.834 84.2788C121.57 84.1162 121.382 83.9663 121.264 83.855C121.208 83.8037 121.165 83.7608 121.129 83.7287C121.099 83.6988 121.084 83.6838 121.086 83.6838C121.086 83.6838 121.105 83.6945 121.138 83.7223C121.174 83.7523 121.221 83.793 121.279 83.84C121.403 83.9428 121.594 84.0862 121.858 84.2425C122.383 84.5443 123.24 84.891 124.339 84.8546C124.883 84.8418 125.481 84.7155 126.06 84.4437C126.343 84.3045 126.621 84.1076 126.816 83.8379C126.913 83.7031 126.979 83.5447 126.992 83.3798C127.005 83.215 126.953 83.0438 126.848 82.9132C126.63 82.6499 126.229 82.5515 125.88 82.6328C125.52 82.7056 125.248 83.0288 125.168 83.3991C125.087 83.7694 125.164 84.1825 125.383 84.51C125.599 84.8439 125.933 85.0987 126.298 85.2913C127.035 85.6616 127.858 85.8585 128.634 85.7836C129.407 85.7151 130.123 85.2913 130.472 84.6706C130.646 84.3623 130.719 84.0091 130.661 83.6795C130.607 83.352 130.404 83.063 130.121 82.9346C129.842 82.7976 129.506 82.8169 129.283 83.001C129.058 83.1786 128.944 83.4612 128.938 83.7245C128.931 83.992 129.019 84.2425 129.131 84.4565C129.244 84.6727 129.386 84.8589 129.527 85.0216C129.814 85.3448 130.125 85.5653 130.391 85.7151C130.659 85.865 130.884 85.9463 131.036 85.9955C131.19 86.0448 131.274 86.064 131.272 86.0683H131.269Z" fill="#FAFAFA"/>
<path d="M105.774 90.6588C106.038 90.2371 107.853 91.2453 108.011 91.3202C108.166 91.393 108.283 91.1661 108.136 91.1062C107.923 91.0206 105.71 90.0723 105.965 89.6549C106.106 89.4237 106.498 89.7148 106.498 89.7148C106.498 89.7148 108.502 90.7551 108.616 90.5539C108.731 90.3506 107.574 89.6999 107.169 89.5072C106.768 89.3189 106.696 89.0513 106.927 88.9421C107.086 88.8693 108.339 89.4259 108.736 89.6249C109.132 89.824 110.21 90.3891 109.906 89.6785C109.601 88.9678 109.636 88.3085 109.769 88.1352C109.901 87.9639 110.191 88.0859 110.184 88.3257C110.18 88.5183 110.27 88.8458 110.349 89.0877C110.414 89.2867 110.512 89.4751 110.639 89.6421C110.789 89.8347 110.921 89.9931 111.039 90.1258C112.196 90.5304 115.497 91.5514 118.58 91.271C119.137 91.2196 121.214 85.9219 121.214 85.9219L124.784 87.538C124.784 87.538 123.925 90.0359 122.348 92.9149C119.842 97.4827 109.563 92.9106 109.563 92.9106L109.567 92.8999C108.669 92.7073 107.679 92.474 107.154 92.2834C106.072 91.8939 106.104 91.7954 106.173 91.6777C106.353 91.3609 108.103 92.292 107.844 91.8746C107.585 91.4572 105.571 90.9842 105.772 90.6588H105.774Z" fill="#AA755E"/>
<path d="M127.373 99.8808C127.367 99.8979 127.498 99.9172 127.568 100.08C127.601 100.157 127.616 100.266 127.566 100.358C127.519 100.45 127.397 100.502 127.275 100.48C127.151 100.461 127.052 100.375 127.037 100.272C127.018 100.17 127.067 100.071 127.123 100.009C127.241 99.8765 127.371 99.9 127.371 99.8808C127.371 99.8765 127.343 99.8594 127.288 99.8594C127.232 99.8594 127.146 99.8851 127.069 99.9536C126.996 100.022 126.921 100.14 126.941 100.287C126.956 100.437 127.101 100.564 127.26 100.587C127.418 100.615 127.594 100.542 127.656 100.405C127.721 100.27 127.688 100.135 127.639 100.048C127.588 99.9578 127.517 99.9065 127.463 99.8893C127.41 99.8701 127.378 99.8765 127.378 99.8829L127.373 99.8808Z" fill="#455A64"/>
<path d="M126.731 85.878L122.454 94.9388H110.828L115.213 85.8737H120.617C121.076 85.4521 121.678 85.2188 122.301 85.2188H126.313C126.654 85.2188 126.877 85.5719 126.733 85.878H126.731Z" fill="#263238"/>
<path d="M123.969 85.7324L112.568 85.6875L111.203 93.9905L122.601 94.0483L123.969 85.7324Z" fill="#FAFAFA"/>
<path d="M123.973 85.7369C123.973 85.7369 123.968 85.7862 123.953 85.8825C123.938 85.9852 123.915 86.1308 123.887 86.3192C123.825 86.7087 123.737 87.2738 123.623 87.993C123.39 89.4529 123.055 91.5377 122.65 94.0614L122.644 94.0999H122.605C119.397 94.087 115.461 94.0699 111.213 94.0507H111.207H111.141L111.151 93.9864C111.644 91.0047 112.109 88.1814 112.521 85.6834L112.527 85.6406H112.57C115.949 85.6642 118.806 85.6856 120.82 85.7006C121.817 85.7091 122.605 85.7177 123.15 85.722C123.413 85.7262 123.619 85.7284 123.763 85.7305C123.829 85.7305 123.878 85.7327 123.919 85.7348C123.953 85.7348 123.97 85.7348 123.97 85.7369C123.97 85.7369 123.951 85.7369 123.913 85.7391C123.872 85.7391 123.818 85.7391 123.75 85.7391C123.604 85.7391 123.394 85.7391 123.126 85.7412C122.577 85.7412 121.785 85.7434 120.784 85.7455C118.778 85.7455 115.934 85.7412 112.568 85.7391L112.617 85.6963C112.208 88.1942 111.745 91.0197 111.258 94.0014L111.203 93.9372H111.209C115.456 93.9629 119.393 93.9864 122.601 94.0057L122.556 94.0442C122.978 91.5356 123.327 89.4657 123.572 88.0144C123.696 87.291 123.793 86.7237 123.859 86.332C123.893 86.1415 123.919 85.9938 123.936 85.8889C123.953 85.7883 123.966 85.7348 123.966 85.7348L123.973 85.7369Z" fill="#263238"/>
<path d="M113.55 92.8046C113.52 92.8004 113.717 91.4476 113.989 89.7844C114.263 88.1212 114.51 86.777 114.54 86.7813C114.57 86.7855 114.373 88.1383 114.101 89.8036C113.826 91.4668 113.58 92.8111 113.55 92.8068V92.8046Z" fill="#263238"/>
<path d="M114.808 92.7229C114.778 92.7186 114.962 91.4386 115.221 89.8674C115.481 88.2963 115.714 87.0249 115.744 87.0313C115.774 87.0377 115.59 88.3134 115.331 89.8867C115.071 91.4578 114.838 92.7293 114.808 92.7229Z" fill="#263238"/>
<path d="M116.136 92.6213C116.106 92.617 116.29 91.337 116.55 89.7659C116.809 88.1947 117.042 86.9233 117.072 86.9297C117.102 86.9361 116.918 88.2119 116.659 89.7851C116.4 91.3563 116.166 92.6277 116.136 92.6213Z" fill="#263238"/>
<path d="M117.402 92.6994C117.372 92.6952 117.556 91.4151 117.815 89.844C118.075 88.2729 118.308 87.0014 118.338 87.0078C118.368 87.0121 118.184 88.29 117.925 89.8633C117.665 91.4344 117.432 92.7059 117.402 92.6994Z" fill="#263238"/>
<path d="M118.8 92.8557C118.77 92.8514 118.954 91.5714 119.214 90.0003C119.473 88.4291 119.707 87.1577 119.737 87.1641C119.767 87.1705 119.582 88.4462 119.323 90.0195C119.064 91.5906 118.83 92.8621 118.8 92.8557Z" fill="#263238"/>
<path d="M119.917 92.7697C119.887 92.7655 120.072 91.4854 120.331 89.9143C120.59 88.3432 120.824 87.0717 120.854 87.0781C120.884 87.0824 120.699 88.3603 120.44 89.9336C120.181 91.5047 119.947 92.7762 119.917 92.7697Z" fill="#263238"/>
<path d="M122.457 94.9372L117.764 86.9296C117.717 86.8482 117.618 86.7969 117.511 86.7969H106.439C106.227 86.7969 106.092 86.9895 106.188 87.1501L110.832 94.9372H122.457Z" fill="#455A64"/>
<path d="M116.821 91.1744C117.085 90.7528 118.9 91.7609 119.058 91.8358C119.212 91.9086 119.33 91.6817 119.182 91.6218C118.97 91.5362 116.757 90.5879 117.012 90.1705C117.153 89.9394 117.545 90.2305 117.545 90.2305C117.545 90.2305 119.549 91.2708 119.662 91.0695C119.778 90.8662 118.621 90.2155 118.216 90.0228C117.815 89.8345 117.742 89.5669 117.974 89.4577C118.132 89.385 119.386 89.9415 119.783 90.1406C120.179 90.3396 121.257 90.9047 120.953 90.1941C120.648 89.4834 120.683 88.8242 120.815 88.6508C120.948 88.4795 121.238 88.6015 121.231 88.8413C121.227 89.0339 121.317 89.3614 121.396 89.6033C121.46 89.8024 121.559 89.9907 121.685 90.1577C121.835 90.3503 121.968 90.5087 122.086 90.6414C123.243 91.046 126.543 92.067 129.627 91.7866C130.184 91.7352 132.261 86.4375 132.261 86.4375L135.831 88.0536C135.831 88.0536 134.972 90.5515 133.394 93.4305C130.889 97.9984 120.61 93.4262 120.61 93.4262L120.614 93.4155C119.716 93.2229 118.726 92.9896 118.201 92.7991C117.119 92.4095 117.151 92.311 117.22 92.1933C117.4 91.8765 119.15 92.8076 118.891 92.3902C118.632 91.9728 116.617 91.4998 116.819 91.1744H116.821Z" fill="#AA755E"/>
<path d="M135.969 89.0434C135.969 89.0434 137.542 82.4999 134.059 80.9844L131.625 87.1747L135.969 89.0455V89.0434Z" fill="#E8505B"/>
<path d="M135.969 89.0428C135.969 89.0428 135.932 89.0342 135.868 89.0107C135.793 88.9807 135.699 88.9443 135.585 88.8994C135.326 88.7924 134.972 88.6468 134.54 88.4692C133.644 88.0903 132.416 87.5701 131.032 86.9836L130.984 86.9644L131.002 86.9173C131.092 86.6604 131.188 86.3907 131.284 86.1146C131.572 85.3098 131.844 84.5413 132.094 83.8414C132.223 83.4946 132.328 83.1564 132.45 82.8482C132.572 82.54 132.709 82.2596 132.872 82.0241C133.196 81.5511 133.609 81.2942 133.912 81.2021C134.064 81.1529 134.186 81.1379 134.269 81.1337C134.353 81.1315 134.396 81.1337 134.396 81.1379C134.396 81.1508 134.218 81.1358 133.924 81.2407C133.635 81.3434 133.241 81.6024 132.937 82.0669C132.782 82.2981 132.652 82.5742 132.536 82.8803C132.418 83.1864 132.319 83.5246 132.193 83.8735C131.947 84.5734 131.677 85.3419 131.392 86.1489C131.295 86.4228 131.199 86.6925 131.107 86.9515L131.077 86.883C132.457 87.4824 133.678 88.0132 134.57 88.4007C134.998 88.5912 135.345 88.7474 135.6 88.8609C135.712 88.9122 135.804 88.9551 135.877 88.9893C135.939 89.0193 135.971 89.0364 135.969 89.0407V89.0428Z" fill="#263238"/>
<path d="M60.1549 136.003V135.705L56.9212 135.547L56.9062 136.769L57.1055 136.784C57.9949 136.842 61.6271 137.011 62.2229 136.835C62.8872 136.641 60.1549 136.001 60.1549 136.001V136.003Z" fill="#E8505B"/>
<g opacity="0.5">
<path d="M58.0699 136.752C58.027 136.482 57.8791 136.232 57.6648 136.063C57.4506 135.894 57.187 135.804 56.9148 135.823L56.9062 136.722L58.0699 136.752Z" fill="white"/>
</g>
<path opacity="0.5" d="M61.4978 136.362C61.4978 136.362 62.4557 136.646 62.3335 136.802C62.2135 136.959 58.5341 136.927 56.9141 136.768L56.9205 136.695L61.2106 136.77C61.2106 136.77 61.3114 136.364 61.4999 136.359L61.4978 136.362Z" fill="white"/>
<path d="M56.8672 136.694C56.8672 136.694 56.8865 136.698 56.9229 136.7C56.97 136.705 57.0236 136.707 57.0815 136.711C57.2401 136.72 57.4351 136.73 57.6665 136.741C58.1615 136.762 58.8451 136.786 59.5994 136.792C60.3537 136.799 61.0395 136.792 61.5324 136.78C61.7638 136.773 61.9588 136.767 62.1174 136.76C62.1774 136.758 62.2288 136.754 62.276 136.752C62.3124 136.75 62.3317 136.747 62.3317 136.745C62.3317 136.743 62.3124 136.743 62.276 136.743C62.2288 136.743 62.1752 136.743 62.1174 136.743C61.9588 136.743 61.7616 136.747 61.5324 136.75C61.0373 136.756 60.3537 136.758 59.5994 136.75C58.8451 136.741 58.1615 136.724 57.6665 136.709C57.4351 136.702 57.2401 136.696 57.0815 136.692C57.0215 136.692 56.97 136.69 56.9229 136.688C56.8865 136.688 56.8672 136.688 56.8672 136.688V136.694Z" fill="#263238"/>
<path d="M61.2024 136.83C61.2152 136.83 61.2238 136.693 61.3138 136.552C61.4016 136.411 61.5217 136.34 61.5152 136.329C61.5131 136.319 61.3738 136.379 61.2795 136.531C61.1831 136.68 61.1916 136.832 61.2002 136.83H61.2024Z" fill="#263238"/>
<path d="M60.2592 136.336C60.2592 136.336 60.3149 136.287 60.3621 136.214C60.4092 136.141 60.4413 136.077 60.4328 136.071C60.4242 136.064 60.3771 136.12 60.3299 136.193C60.2828 136.266 60.2506 136.33 60.2592 136.336Z" fill="#263238"/>
<path d="M60.0011 136.197C60.0011 136.197 60.059 136.171 60.1147 136.122C60.1704 136.073 60.2111 136.026 60.2026 136.017C60.1961 136.008 60.1447 136.043 60.089 136.092C60.0333 136.141 59.9926 136.188 60.0011 136.197Z" fill="#263238"/>
<path d="M59.8438 135.892C59.8438 135.903 59.9188 135.914 60.0109 135.916C60.103 135.916 60.1802 135.911 60.1802 135.899C60.1802 135.886 60.1052 135.877 60.013 135.875C59.9209 135.875 59.8438 135.879 59.8438 135.892Z" fill="#263238"/>
<path d="M59.7834 135.675C59.7834 135.675 59.8605 135.722 59.9698 135.731C60.0791 135.739 60.1648 135.716 60.1627 135.707C60.1627 135.696 60.0748 135.701 59.972 135.692C59.8691 135.684 59.7855 135.664 59.7812 135.675H59.7834Z" fill="#263238"/>
<path d="M60.3693 136.054C60.3693 136.054 60.4486 136.069 60.5772 136.054C60.6415 136.048 60.7165 136.033 60.7979 136.007C60.8386 135.992 60.8815 135.984 60.9244 135.956C60.9458 135.943 60.9672 135.924 60.9758 135.892C60.9844 135.862 60.9694 135.825 60.9458 135.808C60.7486 135.703 60.5493 135.813 60.4743 135.915C60.4336 135.967 60.4143 136.018 60.4058 136.052C60.3972 136.087 60.3972 136.108 60.3993 136.108C60.4058 136.11 60.4143 136.027 60.4958 135.932C60.5365 135.885 60.5965 135.842 60.6736 135.819C60.7465 135.798 60.8515 135.793 60.9201 135.838C60.9522 135.862 60.9394 135.9 60.9029 135.922C60.8686 135.943 60.8236 135.956 60.7851 135.971C60.7058 135.997 60.6329 136.014 60.5708 136.024C60.4465 136.046 60.3672 136.044 60.3672 136.05L60.3693 136.054Z" fill="#263238"/>
<path d="M60.4236 136.067C60.4236 136.067 60.4579 136.017 60.4493 135.923C60.445 135.878 60.4279 135.823 60.3936 135.771C60.3572 135.724 60.31 135.662 60.2222 135.664C60.175 135.671 60.1493 135.724 60.1579 135.758C60.1622 135.795 60.1772 135.827 60.1922 135.85C60.2222 135.902 60.2565 135.945 60.2886 135.977C60.3529 136.041 60.4043 136.064 60.4065 136.062C60.4108 136.058 60.3657 136.024 60.31 135.96C60.2822 135.927 60.2522 135.885 60.2243 135.835C60.1965 135.79 60.1772 135.713 60.2286 135.705C60.28 135.701 60.3336 135.752 60.3636 135.795C60.3958 135.84 60.4129 135.889 60.4215 135.93C60.4365 136.013 60.4172 136.067 60.4215 136.069L60.4236 136.067Z" fill="#263238"/>
<path d="M56.9418 135.817C56.9418 135.817 57.0339 135.809 57.1796 135.828C57.3232 135.845 57.5247 135.907 57.6961 136.046C57.8697 136.188 57.9704 136.37 58.0154 136.507C58.0625 136.646 58.0668 136.738 58.0754 136.738C58.0775 136.738 58.0797 136.714 58.0754 136.673C58.0733 136.633 58.0625 136.571 58.0411 136.5C58.0004 136.357 57.8997 136.164 57.7197 136.016C57.5397 135.871 57.3297 135.811 57.1796 135.8C57.1046 135.794 57.0446 135.798 57.0018 135.802C56.9611 135.809 56.9375 135.813 56.9375 135.817H56.9418Z" fill="#263238"/>
<path d="M58.4943 136.454C58.4943 136.454 58.7022 136.499 58.9636 136.502C59.2251 136.506 59.4351 136.474 59.4351 136.465C59.4351 136.454 59.2229 136.465 58.9636 136.465C58.7043 136.463 58.4943 136.446 58.4922 136.457L58.4943 136.454Z" fill="#263238"/>
<path d="M57.8594 136.439C57.8594 136.439 57.8765 136.484 57.8979 136.533C57.9194 136.58 57.9301 136.625 57.9408 136.623C57.9515 136.623 57.9579 136.572 57.9322 136.516C57.9087 136.46 57.8658 136.43 57.8594 136.439Z" fill="#263238"/>
<path d="M57.625 136.143C57.625 136.143 57.6379 136.183 57.67 136.217C57.7021 136.252 57.7364 136.273 57.7429 136.265C57.7514 136.258 57.73 136.224 57.6979 136.19C57.6657 136.155 57.6314 136.134 57.625 136.143Z" fill="#263238"/>
<path d="M57.2813 136.004C57.2835 136.015 57.3263 136.015 57.3735 136.032C57.4206 136.047 57.4549 136.075 57.4635 136.066C57.472 136.06 57.4463 136.015 57.3863 135.994C57.3285 135.972 57.2792 135.994 57.2813 136.002V136.004Z" fill="#263238"/>
<path d="M57.0391 135.938C57.0391 135.938 57.0541 135.963 57.0798 135.974C57.1055 135.985 57.1312 135.985 57.1355 135.974C57.1398 135.963 57.1205 135.948 57.0948 135.938C57.0691 135.927 57.0433 135.927 57.0391 135.938Z" fill="#263238"/>
<path d="M64.0158 136.164L64.0265 135.868L60.795 135.633L60.75 136.855L60.9493 136.874C61.8365 136.951 65.4645 137.208 66.0645 137.046C66.7331 136.866 64.018 136.164 64.018 136.164H64.0158Z" fill="#E8505B"/>
<g opacity="0.5">
<path d="M61.9136 136.866C61.8772 136.597 61.7357 136.342 61.5257 136.166C61.3157 135.993 61.0543 135.895 60.78 135.907L60.75 136.806L61.9136 136.864V136.866Z" fill="white"/>
</g>
<path opacity="0.5" d="M65.3423 136.555C65.3423 136.555 66.2916 136.861 66.1673 137.015C66.043 137.169 62.3658 137.049 60.75 136.854L60.7564 136.784L65.0423 136.961C65.0423 136.961 65.1537 136.559 65.3402 136.557L65.3423 136.555Z" fill="white"/>
<path d="M60.7109 136.781C60.7109 136.781 60.7302 136.786 60.7667 136.79C60.8138 136.794 60.8674 136.798 60.9252 136.805C61.0838 136.818 61.2788 136.833 61.5103 136.85C62.0031 136.884 62.6867 136.92 63.441 136.946C64.1954 136.972 64.8789 136.978 65.374 136.978C65.6054 136.978 65.8004 136.974 65.959 136.974C66.019 136.974 66.0704 136.972 66.1176 136.97C66.154 136.97 66.1733 136.967 66.1733 136.965C66.1733 136.965 66.154 136.963 66.1176 136.961C66.0704 136.961 66.0168 136.961 65.959 136.959C65.8004 136.959 65.6033 136.955 65.374 136.952C64.8789 136.946 64.1954 136.933 63.441 136.91C62.6867 136.884 62.0053 136.852 61.5103 136.824C61.2788 136.811 61.0838 136.801 60.9252 136.792C60.8652 136.79 60.8138 136.788 60.7667 136.786C60.7302 136.786 60.7109 136.786 60.7109 136.786V136.781Z" fill="#263238"/>
<path d="M65.0362 137.001C65.0491 137.001 65.062 136.864 65.1541 136.725C65.2441 136.586 65.3663 136.518 65.362 136.509C65.362 136.498 65.2205 136.556 65.122 136.704C65.0234 136.852 65.0255 137.004 65.0362 137.001Z" fill="#263238"/>
<path d="M64.1108 136.496C64.1108 136.496 64.1665 136.449 64.2158 136.376C64.265 136.303 64.2972 136.239 64.2886 136.235C64.28 136.228 64.2329 136.282 64.1836 136.355C64.1343 136.428 64.1022 136.492 64.1108 136.496Z" fill="#263238"/>
<path d="M63.8527 136.349C63.8527 136.349 63.9106 136.325 63.9684 136.276C64.0263 136.229 64.067 136.182 64.0584 136.173C64.052 136.165 64.0006 136.197 63.9427 136.246C63.8848 136.293 63.8441 136.34 63.8527 136.349Z" fill="#263238"/>
<path d="M63.7031 136.038C63.7031 136.049 63.7781 136.061 63.8703 136.066C63.9624 136.07 64.0396 136.066 64.0396 136.053C64.0396 136.042 63.9646 136.029 63.8724 136.025C63.7803 136.021 63.7031 136.025 63.7031 136.038Z" fill="#263238"/>
<path d="M63.6484 135.823C63.6484 135.823 63.7256 135.872 63.8349 135.883C63.9442 135.896 64.032 135.875 64.0299 135.864C64.0299 135.853 63.942 135.855 63.8392 135.845C63.7363 135.834 63.6527 135.813 63.6484 135.823Z" fill="#263238"/>
<path d="M64.2344 136.211C64.2344 136.211 64.3137 136.228 64.4422 136.217C64.5065 136.211 64.5815 136.198 64.6651 136.176C64.7058 136.164 64.7487 136.155 64.7937 136.129C64.8151 136.117 64.8387 136.097 64.8473 136.067C64.8558 136.037 64.8408 136.001 64.8194 135.984C64.6244 135.875 64.423 135.98 64.3458 136.08C64.3029 136.132 64.2837 136.181 64.2729 136.215C64.2644 136.249 64.2644 136.271 64.2665 136.271C64.2729 136.273 64.2837 136.189 64.3672 136.097C64.408 136.052 64.4701 136.01 64.5472 135.988C64.6201 135.969 64.7251 135.967 64.7937 136.014C64.8258 136.04 64.8108 136.078 64.7744 136.097C64.7401 136.119 64.6951 136.129 64.6565 136.142C64.5772 136.166 64.5044 136.181 64.4422 136.191C64.3179 136.209 64.2387 136.206 64.2387 136.213L64.2344 136.211Z" fill="#263238"/>
<path d="M64.2915 136.235C64.2915 136.235 64.3258 136.186 64.3194 136.091C64.3151 136.046 64.3001 135.991 64.2679 135.939C64.2337 135.892 64.1887 135.828 64.0987 135.828C64.0515 135.832 64.0258 135.886 64.0322 135.922C64.0344 135.959 64.0494 135.991 64.0644 136.016C64.0944 136.07 64.1265 136.113 64.1587 136.145C64.2208 136.211 64.2722 136.237 64.2744 136.233C64.2787 136.228 64.2337 136.194 64.1801 136.128C64.1522 136.094 64.1244 136.051 64.0965 136.002C64.0687 135.957 64.0537 135.877 64.1051 135.871C64.1565 135.867 64.2079 135.92 64.2379 135.963C64.2679 136.008 64.2851 136.057 64.2915 136.1C64.3044 136.186 64.283 136.237 64.2915 136.239V136.235Z" fill="#263238"/>
<path d="M60.8068 135.899C60.8068 135.899 60.899 135.893 61.0447 135.916C61.1883 135.938 61.3876 136.002 61.5569 136.147C61.7262 136.293 61.8226 136.477 61.8654 136.616C61.9104 136.755 61.9126 136.85 61.919 136.847C61.9212 136.847 61.9233 136.824 61.9212 136.783C61.9212 136.743 61.9104 136.68 61.8912 136.608C61.8526 136.464 61.7583 136.267 61.5804 136.117C61.4026 135.968 61.1947 135.903 61.0468 135.888C60.9718 135.88 60.9118 135.882 60.869 135.888C60.8283 135.893 60.8047 135.899 60.8047 135.901L60.8068 135.899Z" fill="#263238"/>
<path d="M62.3438 136.565C62.3438 136.565 62.5516 136.615 62.8131 136.623C63.0745 136.632 63.2866 136.608 63.2845 136.598C63.2845 136.587 63.0723 136.593 62.8131 136.585C62.5538 136.576 62.3438 136.555 62.3438 136.565Z" fill="#263238"/>
<path d="M61.7031 136.548C61.7031 136.548 61.7181 136.593 61.7396 136.642C61.761 136.691 61.7696 136.734 61.7803 136.734C61.791 136.734 61.7996 136.685 61.776 136.627C61.7524 136.571 61.7117 136.541 61.7053 136.548H61.7031Z" fill="#263238"/>
<path d="M61.4766 136.236C61.4766 136.236 61.4873 136.277 61.5216 136.313C61.5537 136.347 61.5859 136.371 61.5944 136.362C61.603 136.356 61.5837 136.322 61.5494 136.285C61.5173 136.251 61.4851 136.228 61.4766 136.236Z" fill="#263238"/>
<path d="M61.1407 136.097C61.1407 136.108 61.1857 136.11 61.2328 136.127C61.28 136.144 61.3121 136.172 61.3207 136.163C61.3293 136.157 61.3036 136.112 61.2457 136.088C61.1878 136.067 61.1385 136.084 61.1407 136.095V136.097Z" fill="#263238"/>
<path d="M60.8984 136.023C60.8984 136.023 60.9113 136.05 60.9392 136.061C60.9649 136.072 60.9906 136.074 60.9949 136.063C60.9992 136.053 60.982 136.036 60.9542 136.025C60.9284 136.014 60.9027 136.012 60.8984 136.023Z" fill="#263238"/>
<path d="M63.5717 98.3212C63.5717 98.3212 66.2697 116.222 65.8775 117.087C65.4854 117.952 63.1474 135.808 63.1474 135.808L56.4443 135.731C56.4443 135.731 60.1602 115.227 60.0766 114.895C59.993 114.563 55 96.8828 55 96.8828L63.5739 98.3234L63.5717 98.3212Z" fill="#263238"/>
<path d="M61.3504 98.9954L53.7151 96.4375L53.4494 97.0689C52.6672 98.9269 52.6308 101.014 53.3529 102.895L58.5796 116.552C58.9503 117.519 59.171 118.538 59.2332 119.572L60.041 135.776L65.2634 136.142C65.2634 136.142 64.8948 122.894 64.8905 118.737C64.8862 115.604 62.6254 105.672 61.359 100.875" fill="#263238"/>
<path d="M56.2891 110.758C56.2891 110.758 56.2998 110.777 56.3169 110.818C56.3362 110.863 56.3598 110.923 56.3919 110.998C56.4584 111.162 56.5505 111.394 56.6684 111.689C56.9062 112.299 57.2491 113.168 57.6691 114.243C58.087 115.324 58.5863 116.61 59.137 118.036C59.2485 118.412 59.2913 118.804 59.3427 119.202C59.3877 119.6 59.4285 120.009 59.4606 120.424C59.5292 121.255 59.5849 122.115 59.6342 122.997C59.827 126.527 59.9192 129.723 59.9792 132.037C60.0028 133.188 60.0221 134.124 60.0349 134.776C60.0371 135.095 60.0392 135.344 60.0413 135.521C60.0413 135.603 60.0413 135.667 60.0413 135.716C60.0413 135.759 60.0392 135.782 60.0371 135.782C60.0371 135.782 60.0328 135.761 60.0306 135.716C60.0285 135.667 60.0263 135.603 60.0221 135.523C60.0156 135.346 60.0071 135.097 59.9963 134.779C59.9749 134.126 59.9449 133.19 59.9085 132.039C59.8292 129.725 59.7263 126.529 59.5335 123.001C59.4842 122.12 59.4285 121.261 59.362 120.431C59.3299 120.015 59.2892 119.609 59.2463 119.213C59.197 118.819 59.152 118.423 59.0492 118.068C58.5049 116.64 58.0141 115.353 57.6027 114.268C57.1955 113.189 56.8655 112.316 56.6341 111.704C56.5226 111.404 56.4369 111.171 56.3748 111.004C56.3469 110.927 56.3255 110.867 56.3105 110.822C56.2955 110.781 56.2891 110.76 56.2912 110.758H56.2891Z" fill="#455A64"/>
<path d="M64.9364 122.616C64.9364 122.616 64.9321 122.595 64.9321 122.556C64.9321 122.511 64.93 122.453 64.9278 122.38C64.9257 122.218 64.9214 121.991 64.9171 121.704C64.9128 121.109 64.9086 120.259 64.9 119.215C64.9 118.688 64.8957 118.112 64.8936 117.496C64.8936 117.185 64.9021 116.869 64.8485 116.548C64.7885 116.224 64.7264 115.89 64.6643 115.55C64.4092 114.182 64.1307 112.682 63.8371 111.104C63.2606 107.951 62.7378 105.098 62.3585 103.024C62.1742 101.994 62.0263 101.16 61.9213 100.573C61.872 100.288 61.8356 100.066 61.8077 99.9052C61.797 99.8324 61.7884 99.7768 61.7799 99.7318C61.7734 99.6933 61.7734 99.6719 61.7734 99.6719C61.7734 99.6719 61.7799 99.6911 61.7906 99.7297C61.7992 99.7746 61.812 99.8303 61.827 99.9009C61.8592 100.059 61.9042 100.282 61.9599 100.564C62.0713 101.149 62.232 101.984 62.4292 103.009C62.817 105.081 63.3485 107.934 63.9378 111.085C64.2271 112.663 64.5035 114.165 64.7564 115.533C64.8185 115.875 64.8785 116.209 64.9364 116.533C64.99 116.862 64.9771 117.188 64.9771 117.496C64.975 118.112 64.9728 118.688 64.9707 119.215C64.9643 120.259 64.9578 121.109 64.9536 121.704C64.9493 121.993 64.9471 122.22 64.9428 122.38C64.9428 122.453 64.9386 122.511 64.9386 122.556C64.9386 122.597 64.9343 122.616 64.9343 122.616H64.9364Z" fill="#455A64"/>
<path d="M62.2572 98.4456C62.2679 98.4391 62.3408 98.5526 62.4093 98.7538C62.4801 98.955 62.5358 99.2504 62.5186 99.58C62.4994 99.9075 62.4115 100.197 62.3215 100.389C62.2293 100.584 62.1458 100.687 62.1351 100.68C62.1051 100.667 62.3858 100.211 62.4136 99.5758C62.4543 98.94 62.2251 98.4563 62.2551 98.4477L62.2572 98.4456Z" fill="#455A64"/>
<path d="M58.0143 98.0121C58.0143 98.0121 58.0272 98.0742 58.0207 98.1855C58.0143 98.2968 57.9822 98.4595 57.905 98.6457C57.8279 98.8319 57.6993 99.0417 57.5064 99.2301C57.3157 99.4184 57.0543 99.5811 56.7521 99.6582C56.4478 99.7309 56.1414 99.7117 55.8842 99.6346C55.6249 99.5597 55.4128 99.4355 55.2563 99.3071C55.0999 99.1787 54.9971 99.0503 54.937 98.9539C54.877 98.8576 54.8556 98.7998 54.8599 98.7977C54.877 98.7848 54.9885 99.0139 55.3014 99.2472C55.6035 99.4784 56.15 99.6945 56.7264 99.5554C57.3029 99.4077 57.6822 98.9604 57.8386 98.6136C58.0036 98.2604 57.9929 98.0057 58.0164 98.0078L58.0143 98.0121Z" fill="#455A64"/>
<path d="M75.5423 91.6474L76.4552 91.8357C77.2995 91.9342 77.7666 92.0219 78.0452 91.8528C78.4181 91.6259 78.0559 91.2449 78.0559 91.2449C78.0559 91.2449 78.6988 91.17 78.7224 90.7933C78.7374 90.5364 78.461 90.4465 78.461 90.4465C78.461 90.4465 79.0353 90.3545 79.1874 90.1576C79.3953 89.8879 79.0567 89.6481 79.0567 89.6481C79.8732 89.3613 79.9032 88.9075 79.7467 88.8283C79.5903 88.7491 78.971 88.884 78.971 88.884C78.4674 88.9161 77.0852 89.0295 77.7216 88.4216C78.356 87.8116 78.6153 87.1052 78.551 86.8655C78.4867 86.6257 78.1309 86.6257 78.0302 86.8805C77.9488 87.0859 77.7088 87.3856 77.5181 87.6039C77.3616 87.7837 77.1752 87.9379 76.9673 88.0556C76.7252 88.1926 76.513 88.2975 76.3309 88.3852L75.3516 88.991L75.5401 91.6516L75.5423 91.6474Z" fill="#FFBE9D"/>
<path d="M79.0645 89.6537C79.0688 89.6687 78.8931 89.7436 78.5995 89.8421C78.4516 89.8892 78.2738 89.9427 78.0702 89.9791C77.9673 89.9984 77.8623 90.0133 77.7445 90.0198C77.6845 90.0198 77.6223 90.0198 77.558 89.9962C77.4937 89.977 77.4252 89.9234 77.3973 89.8485C77.3459 89.6944 77.4402 89.5553 77.5409 89.4868C77.6437 89.4161 77.7488 89.3862 77.8409 89.3455C78.0209 89.2749 78.1881 89.2085 78.3445 89.1486C78.6338 89.0394 78.8138 88.9795 78.8202 88.9945C78.8266 89.0094 78.6552 89.0951 78.3745 89.2235C78.2202 89.292 78.0552 89.3648 77.8795 89.444C77.7873 89.4868 77.6823 89.521 77.603 89.5788C77.5237 89.6323 77.4745 89.7308 77.5023 89.81C77.528 89.8871 77.6373 89.9106 77.738 89.9063C77.843 89.902 77.9502 89.8892 78.0488 89.8742C78.2481 89.8442 78.4238 89.7993 78.5738 89.7629C78.8716 89.6858 79.0559 89.6345 79.0602 89.6516L79.0645 89.6537Z" fill="#EB996E"/>
<path d="M78.5874 90.4348C78.5917 90.4498 78.4567 90.4926 78.2338 90.5504C78.1052 90.5804 77.9767 90.6125 77.8416 90.6446C77.7645 90.6617 77.6874 90.6789 77.6081 90.696C77.5288 90.7088 77.4281 90.7302 77.3231 90.6789C77.2738 90.6553 77.2288 90.6104 77.2116 90.5504C77.1945 90.4926 77.2052 90.4348 77.2266 90.3878C77.2738 90.2914 77.3531 90.2465 77.4152 90.2037C77.5438 90.1202 77.6702 90.0581 77.7795 90.0174C77.9981 89.934 78.1417 89.9211 78.1438 89.934C78.1481 89.9511 78.0131 89.9918 77.8116 90.0924C77.7109 90.1416 77.5952 90.208 77.4752 90.2936C77.4152 90.3364 77.3531 90.3813 77.3295 90.437C77.3038 90.4969 77.3166 90.5483 77.3766 90.5783C77.4924 90.6318 77.6809 90.5611 77.8224 90.5419C77.9574 90.5183 78.0881 90.4948 78.2145 90.4712C78.4395 90.4348 78.581 90.4199 78.5852 90.4348H78.5874Z" fill="#EB996E"/>
<path d="M78.1631 91.1514C78.1695 91.1642 78.0281 91.2456 77.7731 91.297C77.6445 91.3205 77.4924 91.3376 77.3145 91.3226C77.2266 91.3141 77.1174 91.2841 77.0445 91.1942C77.0102 91.1514 76.9823 91.0936 76.9845 91.0294C76.9845 90.9652 77.0188 90.9031 77.0616 90.8646C77.1474 90.7832 77.2481 90.7554 77.3316 90.7233C77.4174 90.6912 77.5009 90.6612 77.5824 90.6355C77.7431 90.582 77.891 90.5435 78.0152 90.5135C78.2638 90.4536 78.4224 90.4365 78.4245 90.4493C78.4288 90.4664 78.2767 90.5114 78.0367 90.5906C77.9167 90.6291 77.7731 90.6784 77.6167 90.7361C77.5374 90.7661 77.4559 90.7961 77.3724 90.8282C77.2866 90.8624 77.1988 90.8924 77.1431 90.9481C77.0874 90.9994 77.0874 91.0701 77.1345 91.1279C77.1774 91.1835 77.2524 91.2092 77.3295 91.2199C77.4881 91.2392 77.6402 91.2327 77.7624 91.2199C78.011 91.1921 78.1588 91.1364 78.1653 91.1535L78.1631 91.1514Z" fill="#EB996E"/>
<path d="M77.0481 91.8963C77.0481 91.8963 77.0203 91.9091 76.9796 91.8899C76.941 91.8706 76.8895 91.8192 76.8767 91.7336C76.866 91.6501 76.9067 91.5495 76.9838 91.4789C77.061 91.4082 77.1638 91.359 77.2646 91.3333C77.6781 91.2028 78.0189 91.1514 78.0274 91.1792C78.036 91.2113 77.7039 91.3141 77.3053 91.4403C77.2024 91.466 77.1167 91.5088 77.0546 91.5581C76.9924 91.6073 76.9603 91.6758 76.9581 91.7293C76.9581 91.8492 77.0546 91.8856 77.046 91.8984L77.0481 91.8963Z" fill="#EB996E"/>
<path d="M64.5682 83.3203C64.5682 83.3203 65.3868 85.7541 65.4404 85.8953C65.9375 87.2096 66.499 89.1339 67.1226 89.3672C67.7461 89.6005 75.3514 88.0487 75.3514 88.0487L76.515 92.015C76.515 92.015 70.4227 94.2283 67.1226 94.1876C64.0303 94.1491 63.1453 93.8002 62.0567 91.3065C60.968 88.8128 59.7337 85.9489 59.4766 84.2985" fill="#455A64"/>
<path d="M76.5159 92.0197C76.5159 92.0197 76.4559 92.0519 76.338 92.1011C76.2201 92.1503 76.0423 92.2188 75.8151 92.3044C75.3565 92.4714 74.6879 92.6961 73.85 92.9402C73.0143 93.1863 72.0093 93.4517 70.8928 93.7322C69.7763 94.0083 68.5356 94.3144 67.1962 94.3786C66.8619 94.3893 66.5298 94.3893 66.204 94.3529C65.8783 94.3229 65.559 94.2587 65.259 94.156C64.6568 93.9462 64.1383 93.5994 63.7097 93.2099C62.8525 92.42 62.3061 91.5125 61.8882 90.7504C61.4767 89.982 61.196 89.3334 61.0053 88.8839C60.911 88.6592 60.8403 88.4836 60.7931 88.3638C60.746 88.2439 60.7246 88.1818 60.7267 88.1797C60.731 88.1797 60.761 88.2396 60.8146 88.3552C60.8724 88.4815 60.9496 88.6506 61.046 88.8647C61.2496 89.3056 61.5389 89.9477 61.9589 90.7098C62.3832 91.4632 62.9339 92.358 63.7782 93.1285C64.2004 93.5095 64.7104 93.8435 65.2933 94.0468C65.5847 94.1453 65.8955 94.2073 66.2148 94.2373C66.5341 94.2737 66.8598 94.2737 67.1898 94.263C68.512 94.2009 69.7485 93.8991 70.8649 93.6294C71.9835 93.3533 72.9864 93.0964 73.8243 92.861C74.6622 92.6277 75.3351 92.4157 75.7958 92.2616C76.0187 92.1846 76.1944 92.1246 76.3251 92.0797C76.4451 92.0369 76.5094 92.0176 76.5116 92.0197H76.5159Z" fill="#263238"/>
<path d="M55.5701 80.1215L61.7717 80.648C61.7717 80.648 64.1268 80.2606 65.4361 86.0549L64.729 88.2361L64.2082 91.5881L63.9618 98.4913L52.4628 97.6458C52.7221 96.0789 53.9479 94.0176 54.3593 92.6926C53.9414 91.6502 51.5135 87.3928 51.5156 85.203C51.5221 80.5217 55.5679 80.1172 55.5679 80.1172" fill="#455A64"/>
<path d="M64.21 91.5931C64.21 91.5931 64.18 91.4989 64.1435 91.3234C64.1243 91.1457 64.1028 90.8846 64.1457 90.5678C64.1821 90.251 64.27 89.8785 64.3814 89.4761C64.4886 89.0716 64.6257 88.6306 64.6836 88.1576C64.7436 87.6867 64.705 87.2265 64.5443 86.8476C64.39 86.4666 64.1585 86.1669 63.955 85.9293C63.5392 85.4563 63.2414 85.1973 63.2585 85.1801C63.2628 85.1737 63.3421 85.2358 63.475 85.3514C63.6078 85.4691 63.8007 85.6403 64.0171 85.8758C64.2314 86.1113 64.4757 86.4131 64.6429 86.8091C64.8164 87.2029 64.8593 87.6888 64.7971 88.1747C64.7371 88.6627 64.5957 89.1037 64.4843 89.5061C64.3686 89.9085 64.2743 90.2703 64.2271 90.5806C64.1735 90.891 64.1843 91.1457 64.1885 91.3212C64.21 91.4946 64.2186 91.5931 64.21 91.5952V91.5931Z" fill="#263238"/>
<path d="M62.2664 82.495C62.2664 82.495 62.3329 82.495 62.4315 82.5506C62.53 82.6063 62.6565 82.7283 62.7229 82.9252C62.755 83.0237 62.7722 83.1393 62.7507 83.2613C62.7293 83.3833 62.6672 83.5096 62.5686 83.6059C62.3736 83.8007 62.0329 83.9034 61.7286 83.7686C61.4286 83.6252 61.2828 83.3062 61.2893 83.0323C61.2914 82.7476 61.4693 82.5292 61.6407 82.4222C61.8143 82.3109 61.9857 82.2852 62.0972 82.2895C62.2107 82.2938 62.2686 82.3195 62.2664 82.3259C62.2664 82.3345 62.2043 82.3259 62.0972 82.3345C61.9921 82.343 61.8357 82.3794 61.6836 82.4886C61.5336 82.5956 61.3878 82.7882 61.3921 83.0344C61.39 83.272 61.5228 83.5503 61.7736 83.668C62.0243 83.7814 62.3264 83.698 62.4957 83.5331C62.6757 83.3683 62.6993 83.1222 62.6479 82.9488C62.5986 82.769 62.4915 82.6491 62.4079 82.587C62.3222 82.5228 62.2643 82.5057 62.2664 82.495Z" fill="#FAFAFA"/>
<path d="M58.7118 84.985C58.7118 84.985 58.7782 84.985 58.8768 85.0407C58.9753 85.0963 59.1018 85.2184 59.1682 85.4153C59.2003 85.5137 59.2175 85.6293 59.1961 85.7513C59.1746 85.8733 59.1125 85.9996 59.0139 86.096C58.8189 86.2907 58.4782 86.3935 58.1739 86.2586C57.8739 86.1152 57.7281 85.7963 57.7346 85.5223C57.7367 85.2376 57.9146 85.0193 58.086 84.9144C58.2596 84.8031 58.431 84.7774 58.5425 84.7817C58.656 84.786 58.7139 84.8117 58.7118 84.8181C58.7118 84.8266 58.6496 84.8181 58.5425 84.8266C58.4375 84.8352 58.281 84.8716 58.1289 84.9808C57.9789 85.0878 57.8332 85.2804 57.8374 85.5266C57.8353 85.7642 57.9682 86.0424 58.2189 86.1602C58.4696 86.2736 58.7718 86.1901 58.941 86.0253C59.1211 85.8605 59.1446 85.6143 59.0932 85.441C59.0439 85.2612 58.9368 85.1413 58.8532 85.0792C58.7675 85.015 58.7096 84.9979 58.7118 84.9872V84.985Z" fill="#FAFAFA"/>
<path d="M62.4071 87.3991C62.4071 87.3991 62.4735 87.3991 62.5721 87.4548C62.6707 87.5104 62.7971 87.6324 62.8635 87.8293C62.8957 87.9278 62.9128 88.0434 62.8914 88.1654C62.8699 88.2874 62.8078 88.4137 62.7092 88.51C62.5142 88.7048 62.1735 88.8076 61.8692 88.6727C61.5692 88.5293 61.4235 88.2104 61.4299 87.9364C61.432 87.6517 61.6099 87.4333 61.7813 87.3285C61.9549 87.2172 62.1263 87.1915 62.2378 87.1958C62.3514 87.2 62.4092 87.2257 62.4071 87.2321C62.4071 87.2407 62.3449 87.2321 62.2378 87.2407C62.1328 87.2493 61.9763 87.2857 61.8242 87.3948C61.6742 87.4997 61.5285 87.6945 61.5328 87.9406C61.5306 88.1782 61.6635 88.4565 61.9142 88.5742C62.1649 88.6877 62.4671 88.6042 62.6364 88.4394C62.8164 88.2746 62.8399 88.0284 62.7885 87.855C62.7392 87.6752 62.6321 87.5554 62.5485 87.4933C62.4628 87.4291 62.4049 87.4119 62.4071 87.4012V87.3991Z" fill="#FAFAFA"/>
<path d="M65.9071 89.5575C65.9071 89.5575 65.9735 89.5575 66.0721 89.6131C66.1707 89.6688 66.2971 89.7908 66.3635 89.9877C66.3957 90.0862 66.4128 90.2018 66.3914 90.3238C66.3699 90.4458 66.3078 90.5721 66.2092 90.6684C66.0142 90.8632 65.6735 90.9659 65.3692 90.8311C65.0692 90.6877 64.9235 90.3687 64.9299 90.0948C64.932 89.8101 65.1099 89.5917 65.2813 89.4847C65.4549 89.3734 65.6263 89.3477 65.7378 89.352C65.8514 89.3563 65.9092 89.382 65.9071 89.3884C65.9071 89.397 65.8449 89.3884 65.7378 89.397C65.6328 89.4055 65.4763 89.4419 65.3242 89.5511C65.1742 89.656 65.0285 89.8507 65.0328 90.0969C65.0306 90.3345 65.1635 90.6128 65.4142 90.7305C65.6649 90.8439 65.9671 90.7605 66.1364 90.5956C66.3164 90.4308 66.3399 90.1847 66.2885 90.0113C66.2392 89.8315 66.1321 89.7116 66.0485 89.6495C65.9628 89.5853 65.9049 89.5682 65.9071 89.5575Z" fill="#FAFAFA"/>
<path d="M55.0711 95.61C55.0711 95.61 55.1376 95.61 55.2361 95.6657C55.3347 95.7213 55.4611 95.8434 55.5276 96.0403C55.5597 96.1387 55.5769 96.2543 55.5554 96.3763C55.534 96.4983 55.4719 96.6246 55.3733 96.721C55.1783 96.9157 54.8376 97.0185 54.5333 96.8836C54.2332 96.7402 54.0875 96.4213 54.094 96.1473C54.0961 95.8626 54.274 95.6443 54.4454 95.5394C54.619 95.4281 54.7904 95.4024 54.9018 95.4067C55.0154 95.411 55.0733 95.4367 55.0711 95.4431C55.0711 95.4516 55.009 95.4431 54.9018 95.4516C54.7968 95.4602 54.6404 95.4966 54.4883 95.6058C54.3383 95.7106 54.1925 95.9054 54.1968 96.1516C54.1947 96.3892 54.3275 96.6674 54.5783 96.7852C54.829 96.8986 55.1311 96.8151 55.3004 96.6503C55.4804 96.4855 55.504 96.2393 55.4526 96.066C55.4033 95.8862 55.2961 95.7663 55.2126 95.7042C55.1268 95.64 55.069 95.6229 55.0711 95.6122V95.61Z" fill="#FAFAFA"/>
<path d="M70.4696 90.8288C70.4696 90.8288 70.536 90.8288 70.6346 90.8844C70.7332 90.9401 70.8596 91.0621 70.926 91.259C70.9582 91.3575 70.9753 91.4731 70.9539 91.5951C70.9324 91.7171 70.8703 91.8434 70.7717 91.9397C70.5767 92.1345 70.236 92.2372 69.9317 92.1024C69.6317 91.959 69.486 91.64 69.4924 91.3661C69.4945 91.0814 69.6724 90.863 69.8438 90.7582C70.0174 90.6468 70.1888 90.6212 70.3003 90.6254C70.4139 90.6297 70.4717 90.6554 70.4696 90.6618C70.4696 90.6704 70.4074 90.6618 70.3003 90.6704C70.1953 90.679 70.0388 90.7153 69.8867 90.8245C69.7367 90.9294 69.591 91.1242 69.5953 91.3703C69.5931 91.6079 69.726 91.8862 69.9767 92.0039C70.2274 92.1174 70.5296 92.0339 70.6989 91.8691C70.8789 91.7043 70.9024 91.4581 70.851 91.2847C70.8017 91.1049 70.6946 90.985 70.611 90.923C70.5253 90.8588 70.4674 90.8416 70.4696 90.8309V90.8288Z" fill="#FAFAFA"/>
<path d="M60.6414 89.9382C60.6414 89.9382 60.7079 89.9382 60.8065 89.9938C60.905 90.0495 61.0315 90.1715 61.0979 90.3684C61.13 90.4669 61.1472 90.5825 61.1257 90.7045C61.1043 90.8265 61.0422 90.9528 60.9436 91.0491C60.7486 91.2439 60.4079 91.3466 60.1036 91.2118C59.8036 91.0684 59.6578 90.7494 59.6643 90.4754C59.6664 90.1907 59.8443 89.9724 60.0157 89.8675C60.1893 89.7562 60.3607 89.7305 60.4722 89.7348C60.5857 89.7391 60.6436 89.7648 60.6414 89.7712C60.6414 89.7798 60.5793 89.7712 60.4722 89.7798C60.3671 89.7883 60.2107 89.8247 60.0586 89.9339C59.9086 90.0388 59.7628 90.2336 59.7671 90.4797C59.765 90.7173 59.8978 90.9956 60.1486 91.1133C60.3993 91.2267 60.7014 91.1433 60.8707 90.9784C61.0507 90.8136 61.0743 90.5675 61.0229 90.3941C60.9736 90.2143 60.8665 90.0944 60.7829 90.0323C60.6972 89.9681 60.6393 89.951 60.6414 89.9403V89.9382Z" fill="#FAFAFA"/>
<path d="M62.4539 96.5007C62.4539 96.5007 62.5204 96.5007 62.619 96.5563C62.7175 96.612 62.844 96.734 62.9104 96.9309C62.9425 97.0294 62.9597 97.145 62.9382 97.267C62.9168 97.389 62.8547 97.5153 62.7561 97.6116C62.5611 97.8064 62.2204 97.9091 61.9161 97.7743C61.6161 97.6308 61.4703 97.3119 61.4768 97.0379C61.4789 96.7532 61.6568 96.5349 61.8282 96.43C62.0018 96.3187 62.1732 96.293 62.2847 96.2973C62.3982 96.3016 62.4561 96.3273 62.4539 96.3337C62.4539 96.3423 62.3918 96.3337 62.2847 96.3423C62.1796 96.3508 62.0232 96.3872 61.8711 96.4964C61.7211 96.6034 61.5753 96.7961 61.5796 97.0422C61.5775 97.2798 61.7103 97.5581 61.9611 97.6758C62.2118 97.7892 62.5139 97.7058 62.6832 97.5409C62.8632 97.3761 62.8868 97.13 62.8354 96.9566C62.7861 96.7768 62.679 96.6569 62.5954 96.5948C62.5097 96.5306 62.4518 96.5135 62.4539 96.5028V96.5007Z" fill="#FAFAFA"/>
<path d="M74.2508 89.4225C74.2508 89.4225 74.3173 89.4225 74.4158 89.4782C74.5144 89.5338 74.6408 89.6559 74.7073 89.8528C74.7394 89.9512 74.7566 90.0668 74.7351 90.1888C74.7137 90.3108 74.6515 90.4371 74.553 90.5335C74.358 90.7282 74.0172 90.831 73.7129 90.6961C73.4129 90.5527 73.2672 90.2338 73.2736 89.9598C73.2758 89.6751 73.4536 89.4568 73.6251 89.3519C73.7987 89.2406 73.9701 89.2149 74.0815 89.2192C74.1951 89.2235 74.253 89.2492 74.2508 89.2556C74.2508 89.2641 74.1887 89.2556 74.0815 89.2641C73.9765 89.2727 73.8201 89.3091 73.6679 89.4183C73.5179 89.5231 73.3722 89.7179 73.3765 89.9641C73.3744 90.2017 73.5072 90.4799 73.7579 90.5977C74.0087 90.7111 74.3108 90.6276 74.4801 90.4628C74.6601 90.298 74.6837 90.0518 74.6323 89.8785C74.583 89.6987 74.4758 89.5788 74.3923 89.5167C74.3065 89.4525 74.2487 89.4354 74.2508 89.4247V89.4225Z" fill="#FAFAFA"/>
<path d="M62.2381 72.2266C62.6345 72.3529 62.8638 72.7831 62.9152 73.1962C62.9667 73.6093 62.8809 74.0267 62.8617 74.442C62.8424 74.8572 62.9045 75.3089 63.1917 75.6128C63.4231 75.859 63.766 75.966 64.0253 76.1822C64.591 76.6553 64.6274 77.4965 64.621 78.235C64.6189 78.4597 64.6017 78.7144 64.4303 78.8557C64.2996 78.9627 64.1174 78.9756 63.9503 78.982C62.3366 79.0462 60.723 79.1104 59.1094 79.1725" fill="#E8505B"/>
<path d="M56.4708 80.9223L56.1172 72.874L59.3166 70.4531L62.2246 71.8744C62.2246 71.8744 62.321 75.5218 62.2246 77.1037C62.1281 78.6855 60.5316 78.8546 60.5316 78.8546C60.5316 78.8546 60.5681 79.7814 60.6045 80.7554C60.6495 81.9348 59.698 82.9108 58.5173 82.9001C57.4179 82.8894 56.5179 82.0204 56.4686 80.9223H56.4708Z" fill="#FFBE9D"/>
<path d="M61.9072 74.5237C61.9072 74.635 61.8172 74.727 61.7036 74.727C61.59 74.727 61.5 74.6371 61.5 74.5237C61.5 74.4102 61.59 74.3203 61.7036 74.3203C61.8172 74.3203 61.9072 74.4102 61.9072 74.5237Z" fill="#263238"/>
<path d="M62.1063 74.3097C62.0806 74.3354 61.9306 74.2091 61.712 74.1963C61.4935 74.1813 61.3306 74.2905 61.307 74.2605C61.2963 74.2476 61.322 74.1984 61.3949 74.1492C61.4656 74.0999 61.5835 74.055 61.7206 74.0636C61.8556 74.0721 61.9692 74.1299 62.0335 74.1877C62.0978 74.2455 62.1192 74.2969 62.1063 74.3076V74.3097Z" fill="#263238"/>
<path d="M59.5634 74.5237C59.5634 74.635 59.4734 74.727 59.3598 74.727C59.2463 74.727 59.1562 74.6371 59.1562 74.5237C59.1562 74.4102 59.2463 74.3203 59.3598 74.3203C59.4734 74.3203 59.5634 74.4102 59.5634 74.5237Z" fill="#263238"/>
<path d="M59.6923 74.3097C59.6666 74.3354 59.5165 74.2091 59.298 74.1963C59.0794 74.1813 58.9165 74.2905 58.893 74.2605C58.8822 74.2476 58.908 74.1984 58.9808 74.1492C59.0515 74.0999 59.1694 74.055 59.3065 74.0636C59.4415 74.0721 59.5551 74.1299 59.6194 74.1877C59.6837 74.2455 59.7051 74.2969 59.6923 74.3076V74.3097Z" fill="#263238"/>
<path d="M60.5354 78.8569C60.5354 78.8569 59.4683 78.8698 58.4375 78.1484C58.4375 78.1484 58.9625 79.3321 60.5504 79.2679L60.5354 78.8569Z" fill="#EB996E"/>
<path d="M60.4725 76.1509C60.4725 76.138 60.6096 76.123 60.8303 76.1059C60.886 76.1038 60.9396 76.0952 60.9525 76.0545C60.9675 76.0117 60.946 75.9475 60.9225 75.879C60.8753 75.7356 60.826 75.5858 60.7725 75.4274C60.6696 75.1063 60.5796 74.8131 60.5196 74.6011C60.4596 74.3871 60.4274 74.2544 60.4403 74.2501C60.451 74.2458 60.5046 74.3743 60.5796 74.5819C60.6546 74.7895 60.7532 75.0785 60.8582 75.4017C60.9075 75.5601 60.9568 75.7121 61.0018 75.8555C61.021 75.9218 61.0532 75.9989 61.0232 76.0824C61.006 76.1252 60.9653 76.153 60.931 76.1616C60.8946 76.1701 60.8646 76.1701 60.8367 76.1701C60.616 76.1701 60.4767 76.1659 60.4767 76.153L60.4725 76.1509Z" fill="#263238"/>
<path d="M60.317 76.3359C60.2355 76.3638 60.1562 76.4002 60.0984 76.4644C60.0405 76.5286 60.0127 76.6228 60.0448 76.702C60.0855 76.8026 60.2141 76.8411 60.3191 76.8197C60.4027 76.8004 60.482 76.7469 60.5184 76.6699C60.557 76.5928 60.5484 76.4922 60.4927 76.428C60.437 76.3638 60.3298 76.3445 60.2591 76.3937" fill="#EB996E"/>
<path d="M60.5951 76.6476C60.6037 76.6776 60.4172 76.7268 60.2244 76.6176C60.0294 76.5085 59.9779 76.3222 60.0079 76.3137C60.0379 76.2987 60.1215 76.4293 60.2822 76.517C60.4387 76.6091 60.5951 76.6155 60.5972 76.6476H60.5951Z" fill="#263238"/>
<path d="M57.4264 71.8993C57.4135 72.2397 57.2228 72.55 57.1199 72.8775C57.0171 73.205 57.0321 73.6139 57.3342 73.8151C57.4114 73.8664 57.5035 73.9007 57.5957 73.9242C57.9835 74.0248 58.3993 73.9521 58.7936 73.8793C58.8107 73.5796 58.83 73.2799 58.8471 72.9824C58.9093 73.2521 59.0443 73.5154 59.28 73.6909C59.5157 73.8664 59.8586 73.9371 60.135 73.8215C60.4115 73.7059 60.5765 73.3827 60.4458 73.1344C60.5443 73.4747 60.9129 73.7059 61.2922 73.783C61.6715 73.86 62.068 73.8086 62.4537 73.7594C62.2651 73.4597 62.3916 73.0873 62.503 72.7598C62.6166 72.4323 62.698 72.0363 62.4516 71.7752C62.3723 71.6895 62.263 71.6296 62.173 71.5525C61.9694 71.3792 61.8665 71.133 61.7187 70.919C61.2022 70.1741 60.0858 69.853 59.1536 70.112C58.2235 70.371 57.5207 71.1416 57.3149 71.9999" fill="#E8505B"/>
<path d="M53.4683 79.77C54.9747 79.6437 56.5069 79.7336 58.0134 79.6073C57.6748 79.4489 57.4948 78.4514 57.5591 78.0854C57.6213 77.7172 57.8248 77.3919 57.9856 77.0558C58.1463 76.7198 58.2641 76.3323 58.1506 75.977C58.0263 75.5917 57.6534 75.3284 57.5141 74.9474C57.3684 74.545 57.5098 74.1019 57.6491 73.6974C58.0113 72.6592 58.3756 71.6211 58.7377 70.5851C58.1056 70.4866 57.4605 70.3903 56.8327 70.5059C56.2048 70.6236 55.5876 70.9982 55.354 71.5911C55.0926 72.2589 55.354 73.0766 54.979 73.6888C54.7262 74.1062 54.244 74.316 53.8754 74.637C53.2518 75.1807 52.9732 76.0391 52.9539 76.8653C52.9347 77.6937 53.2582 78.9673 53.4661 79.7678" fill="#E8505B"/>
<path d="M54.2538 73.7715C54.2538 73.7715 54.2323 73.7459 54.1852 73.7116C54.138 73.6795 54.0523 73.6453 53.943 73.6645C53.8359 73.6795 53.7223 73.778 53.688 73.9299C53.6473 74.0776 53.7052 74.2681 53.8595 74.3859C54.0095 74.5057 54.2409 74.5635 54.4552 74.4801C54.6695 74.403 54.8559 74.2125 54.9609 73.9749C55.0681 73.7352 55.0959 73.4505 55.0917 73.1594C55.0874 72.8661 55.0552 72.56 55.0509 72.2432C55.0467 71.9264 55.0809 71.6075 55.1945 71.3207C55.3059 71.0338 55.516 70.7984 55.7538 70.6507C55.9917 70.5009 56.2467 70.4174 56.4846 70.3596C56.7246 70.3039 56.9517 70.2761 57.1617 70.274C57.5817 70.2654 57.916 70.3617 58.126 70.4602C58.2311 70.5094 58.3082 70.5565 58.3596 70.5929C58.4089 70.6293 58.4346 70.6486 58.4325 70.6528C58.4261 70.6614 58.3232 70.5865 58.1111 70.5009C57.901 70.4174 57.5732 70.336 57.166 70.3532C56.9624 70.3596 56.7417 70.3917 56.5081 70.4495C56.2767 70.5094 56.0345 70.595 55.8117 70.7385C55.5888 70.8797 55.4002 71.0938 55.2974 71.3613C55.1902 71.6289 55.1581 71.9329 55.1624 72.2411C55.1667 72.5515 55.1988 72.8576 55.2009 73.1572C55.2031 73.4569 55.1731 73.7566 55.0552 74.0156C54.9374 74.2746 54.7316 74.4801 54.4852 74.5657C54.2388 74.6556 53.9752 74.5849 53.8102 74.4458C53.6366 74.3067 53.5745 74.0798 53.628 73.9128C53.6709 73.7416 53.8123 73.6303 53.9366 73.6217C54.0609 73.6067 54.1509 73.6538 54.198 73.6945C54.2452 73.7373 54.2559 73.7715 54.2538 73.7715Z" fill="#E8505B"/>
<path d="M64.2292 75.8027C64.2292 75.8027 64.2464 75.7856 64.2914 75.7834C64.3342 75.7834 64.4028 75.8027 64.4564 75.8669C64.5078 75.9268 64.5571 76.036 64.5078 76.1559C64.4607 76.2693 64.3364 76.3549 64.1928 76.3806C64.0471 76.4084 63.8799 76.3742 63.7342 76.2843C63.5885 76.1965 63.4621 76.0574 63.3763 75.8883C63.192 75.5458 63.2263 75.1092 63.3078 74.7025C63.3913 74.2915 63.4835 73.904 63.4363 73.5551C63.3978 73.2041 63.1963 72.9365 63.0035 72.7546C62.8085 72.5684 62.622 72.4485 62.4977 72.3607C62.3713 72.2751 62.3006 72.2259 62.3049 72.2195C62.3092 72.2131 62.3863 72.2494 62.5192 72.3244C62.652 72.4014 62.847 72.5127 63.057 72.6968C63.2628 72.8766 63.4878 73.1634 63.5371 73.5423C63.5928 73.9169 63.4985 74.3193 63.4171 74.7239C63.3356 75.1263 63.3078 75.533 63.4685 75.8433C63.6163 76.158 63.9249 76.3442 64.1799 76.3036C64.3064 76.2864 64.4092 76.2179 64.4521 76.1302C64.4971 76.0446 64.4628 75.9504 64.4242 75.8947C64.3342 75.7727 64.2292 75.8134 64.2335 75.8027H64.2292Z" fill="#E8505B"/>
<path d="M59.9683 85.3077L64.2456 94.3685H75.871L71.4866 85.3034H66.0821C65.6235 84.8818 65.0213 84.6484 64.3977 84.6484H60.3862C60.0454 84.6484 59.8226 85.0016 59.9662 85.3077H59.9683Z" fill="#E8505B"/>
<path opacity="0.5" d="M59.9683 85.3077L64.2456 94.3685H75.871L71.4866 85.3034H66.0821C65.6235 84.8818 65.0213 84.6484 64.3977 84.6484H60.3862C60.0454 84.6484 59.8226 85.0016 59.9662 85.3077H59.9683Z" fill="black"/>
<path d="M64.25 94.3747L68.943 86.3671C68.9902 86.2857 69.0887 86.2344 69.1959 86.2344H80.2684C80.4806 86.2344 80.6156 86.427 80.5192 86.5876L75.8754 94.3747H64.25Z" fill="#E8505B"/>
<path d="M67.3359 91.5411L67.3402 91.5561C67.4109 91.4704 67.4859 91.3805 67.5674 91.2778C67.6874 91.1237 67.7774 90.9482 67.8374 90.7641C67.9102 90.5393 67.996 90.2375 67.9917 90.0556C67.9852 89.833 68.2553 89.7195 68.3795 89.8801C68.5038 90.0406 68.5338 90.6549 68.2488 91.3142C67.9638 91.9735 68.9689 91.4512 69.3374 91.2671C69.706 91.083 70.8761 90.5672 71.0218 90.6356C71.2361 90.7363 71.1696 90.9846 70.7968 91.1601C70.4196 91.3377 69.3417 91.9414 69.4489 92.1297C69.5539 92.3159 71.4204 91.3527 71.4204 91.3527C71.4204 91.3527 71.7868 91.083 71.9175 91.2971C72.1533 91.6866 70.0939 92.5642 69.8967 92.6434C69.7596 92.6991 69.8667 92.9089 70.0125 92.8425C70.1625 92.774 71.8511 91.8386 72.0954 92.2325C72.2818 92.5343 70.4089 92.9709 70.1646 93.3605C69.9225 93.7501 71.5532 92.8853 71.7204 93.1807C71.7825 93.2899 71.8147 93.3819 70.8053 93.7437C70.2396 93.947 69.0953 94.2017 68.1781 94.3922L67.3381 91.5454L67.3359 91.5411Z" fill="#FFBE9D"/>
<path d="M67.128 90.8262L68.2916 94.7926C68.2916 94.7926 62.1993 97.0058 58.8992 96.9652C55.8069 96.9266 54.9219 96.5777 53.8333 94.0841C52.7447 91.5904 51.5103 88.7264 51.2532 87.0761C51.2532 87.0761 49.5088 79.4816 56.1648 80.1601L56.3448 86.1C56.3448 86.1 57.082 88.5337 57.1355 88.675C57.6327 89.9893 58.2756 91.9136 58.8992 92.1448C59.5228 92.3781 67.128 90.8262 67.128 90.8262Z" fill="#455A64"/>
<path d="M52.5156 90.9529C52.5156 90.9529 52.5328 90.9828 52.5585 91.0406C52.5863 91.1027 52.6249 91.1905 52.6763 91.3018C52.7792 91.5308 52.9292 91.8711 53.1328 92.3057C53.3385 92.738 53.6 93.2667 53.945 93.8554C54.2921 94.4419 54.725 95.0969 55.3379 95.7048C55.6443 96.0066 55.9915 96.2998 56.4029 96.5267C56.5015 96.5909 56.6108 96.638 56.7179 96.6873C56.8251 96.7386 56.9365 96.7879 57.0522 96.8243C57.2815 96.9077 57.5258 96.957 57.7765 96.9955C58.7837 97.1389 59.883 96.9976 61.0124 96.7793C62.1417 96.5503 63.3182 96.2356 64.5418 95.9167C65.7611 95.587 67.0276 95.2296 68.2833 94.7415L68.2491 94.81C68.0798 94.2342 67.8976 93.6199 67.7155 93.0013C67.5012 92.2714 67.2869 91.5501 67.079 90.8437L67.1433 90.8844C65.6475 91.1434 64.2225 91.4987 62.8489 91.7791C61.4774 92.0616 60.1466 92.2329 58.9016 92.1965H58.8694L58.8587 92.1644C58.2887 90.6896 57.8494 89.309 57.4529 88.0867C57.0608 86.8666 56.7201 85.8028 56.4372 84.9231C56.15 84.0476 55.9143 83.3648 55.7472 82.9003C55.6636 82.6713 55.6015 82.4957 55.5543 82.3716C55.535 82.3138 55.5179 82.2688 55.5072 82.2346C55.4964 82.2046 55.4922 82.1875 55.4943 82.1875C55.4943 82.1875 55.5029 82.2025 55.5157 82.2325C55.5307 82.2667 55.5479 82.3095 55.5715 82.3652C55.6186 82.4829 55.6915 82.6584 55.7772 82.8896C55.9529 83.3498 56.1993 84.0326 56.4929 84.9059C56.7886 85.7793 57.1337 86.8431 57.5301 88.0632C57.9308 89.2811 58.3787 90.6596 58.9509 92.1301L58.9059 92.098C60.1402 92.128 61.4602 91.9568 62.8274 91.6721C64.1968 91.3917 65.624 91.0342 67.124 90.7731L67.1733 90.7645L67.1883 90.8137C67.3962 91.5201 67.6105 92.2414 67.8248 92.9714C68.0069 93.5921 68.1891 94.2043 68.3583 94.7801L68.3733 94.8293L68.3241 94.8486C67.0597 95.3387 65.7911 95.6962 64.5696 96.0237C63.3439 96.3405 62.1674 96.653 61.0316 96.8821C59.898 97.0982 58.788 97.2395 57.7637 97.0875C57.5087 97.0469 57.2601 96.9955 57.0244 96.9077C56.9044 96.8713 56.7929 96.82 56.6836 96.7665C56.5722 96.7151 56.4629 96.6659 56.3622 96.6016C55.9443 96.3683 55.5929 96.0687 55.2843 95.7626C54.6693 95.144 54.2385 94.4804 53.8935 93.8896C53.5507 93.2946 53.2957 92.7637 53.0942 92.3271C52.8971 91.8904 52.7513 91.5458 52.6549 91.3146C52.6099 91.2012 52.5735 91.1134 52.5478 91.0492C52.5242 90.9892 52.5156 90.9571 52.5156 90.9571V90.9529Z" fill="#263238"/>
<path d="M52.618 86.0319C52.618 86.0319 52.6844 86.0319 52.783 86.0876C52.8816 86.1432 53.008 86.2652 53.0745 86.4622C53.1066 86.5606 53.1237 86.6762 53.1023 86.7982C53.0809 86.9202 53.0187 87.0465 52.9202 87.1428C52.7252 87.3376 52.3844 87.4404 52.0801 87.3055C51.7801 87.1621 51.6344 86.8432 51.6408 86.5692C51.643 86.2845 51.8208 86.0662 51.9923 85.9613C52.1658 85.85 52.3373 85.8243 52.4487 85.8286C52.5623 85.8328 52.6201 85.8585 52.618 85.865C52.618 85.8735 52.5559 85.865 52.4487 85.8735C52.3437 85.8821 52.1873 85.9185 52.0351 86.0276C51.8851 86.1325 51.7394 86.3273 51.7437 86.5735C51.7415 86.8111 51.8744 87.0893 52.1251 87.207C52.3759 87.3205 52.678 87.237 52.8473 87.0722C53.0273 86.9074 53.0509 86.6612 52.9995 86.4878C52.9502 86.308 52.843 86.1882 52.7594 86.1261C52.6737 86.0619 52.6159 86.0448 52.618 86.0341V86.0319Z" fill="#FAFAFA"/>
<path d="M66.2118 93.0497C66.2118 93.0497 66.2782 93.0497 66.3768 93.1053C66.4753 93.161 66.6018 93.283 66.6682 93.4799C66.7003 93.5784 66.7175 93.694 66.6961 93.816C66.6746 93.938 66.6125 94.0643 66.5139 94.1606C66.3189 94.3554 65.9782 94.4581 65.6739 94.3233C65.3739 94.1799 65.2281 93.8609 65.2346 93.5869C65.2367 93.3023 65.4146 93.0839 65.586 92.9769C65.7596 92.8656 65.931 92.8399 66.0425 92.8442C66.156 92.8485 66.2139 92.8742 66.2118 92.8806C66.2118 92.8891 66.1496 92.8806 66.0425 92.8891C65.9375 92.8977 65.781 92.9341 65.6289 93.0433C65.4789 93.1503 65.3332 93.3429 65.3374 93.5891C65.3353 93.8267 65.4682 94.1049 65.7189 94.2227C65.9696 94.3361 66.2718 94.2526 66.4411 94.0878C66.6211 93.923 66.6446 93.6768 66.5932 93.5035C66.5439 93.3237 66.4368 93.2038 66.3532 93.1417C66.2675 93.0775 66.2096 93.0604 66.2118 93.0497Z" fill="#FAFAFA"/>
<path d="M61.368 92.5553C61.368 92.5553 61.4344 92.5553 61.533 92.611C61.6316 92.6667 61.758 92.7887 61.8245 92.9856C61.8566 93.0841 61.8737 93.1996 61.8523 93.3217C61.8309 93.4437 61.7687 93.5699 61.6702 93.6663C61.4752 93.8611 61.1344 93.9638 60.8301 93.8289C60.5301 93.6855 60.3844 93.3666 60.3908 93.0926C60.393 92.8079 60.5708 92.5896 60.7423 92.4847C60.9158 92.3734 61.0873 92.3477 61.1987 92.352C61.3123 92.3563 61.3701 92.382 61.368 92.3884C61.368 92.397 61.3059 92.3884 61.1987 92.397C61.0937 92.4055 60.9373 92.4419 60.7851 92.5511C60.6351 92.656 60.4894 92.8507 60.4937 93.0969C60.4915 93.3345 60.6244 93.6128 60.8751 93.7305C61.1259 93.8439 61.428 93.7605 61.5973 93.5956C61.7773 93.4308 61.8009 93.1847 61.7494 93.0113C61.7002 92.8315 61.593 92.7116 61.5094 92.6495C61.4237 92.5853 61.3659 92.5682 61.368 92.5575V92.5553Z" fill="#FAFAFA"/>
<path d="M56.9071 94.1491C56.9071 94.1491 56.9735 94.1491 57.0721 94.2048C57.1707 94.2604 57.2971 94.3824 57.3635 94.5793C57.3957 94.6778 57.4128 94.7934 57.3914 94.9154C57.3699 95.0374 57.3078 95.1637 57.2092 95.26C57.0142 95.4548 56.6735 95.5575 56.3692 95.4227C56.0692 95.2793 55.9235 94.9603 55.9299 94.6864C55.932 94.4017 56.1099 94.1833 56.2813 94.0785C56.4549 93.9672 56.6263 93.9415 56.7378 93.9458C56.8514 93.95 56.9092 93.9757 56.9071 93.9821C56.9071 93.9907 56.8449 93.9821 56.7378 93.9907C56.6328 93.9993 56.4763 94.0357 56.3242 94.1448C56.1742 94.2518 56.0285 94.4445 56.0328 94.6906C56.0306 94.9282 56.1635 95.2065 56.4142 95.3242C56.6649 95.4377 56.9671 95.3542 57.1364 95.1894C57.3164 95.0246 57.3399 94.7784 57.2885 94.605C57.2392 94.4252 57.1321 94.3054 57.0485 94.2433C56.9628 94.1791 56.9049 94.1619 56.9071 94.1512V94.1491Z" fill="#FAFAFA"/>
<path d="M56.2196 89.3309C56.2196 89.3309 56.286 89.3309 56.3846 89.3866C56.4832 89.4422 56.6096 89.5642 56.676 89.7612C56.7082 89.8596 56.7253 89.9752 56.7039 90.0972C56.6824 90.2192 56.6203 90.3455 56.5217 90.4419C56.3267 90.6366 55.986 90.7394 55.6817 90.6045C55.3817 90.4611 55.236 90.1422 55.2424 89.8682C55.2445 89.5835 55.4224 89.3652 55.5938 89.2582C55.7674 89.1468 55.9388 89.1212 56.0503 89.1254C56.1639 89.1297 56.2217 89.1554 56.2196 89.1618C56.2196 89.1704 56.1574 89.1618 56.0503 89.1704C55.9453 89.179 55.7888 89.2153 55.6367 89.3245C55.4867 89.4294 55.341 89.6242 55.3453 89.8703C55.3431 90.1079 55.476 90.3862 55.7267 90.5039C55.9774 90.6174 56.2796 90.5339 56.4489 90.3691C56.6289 90.2043 56.6524 89.9581 56.601 89.7847C56.5517 89.6049 56.4446 89.485 56.361 89.423C56.2753 89.3588 56.2174 89.3416 56.2196 89.3309Z" fill="#FAFAFA"/>
<path d="M54.0868 82.12C54.0868 82.12 54.1532 82.12 54.2518 82.1756C54.3503 82.2313 54.4768 82.3533 54.5432 82.5502C54.5753 82.6487 54.5925 82.7643 54.5711 82.8863C54.5496 83.0083 54.4875 83.1346 54.3889 83.2309C54.1939 83.4257 53.8532 83.5284 53.5489 83.3936C53.2489 83.2502 53.1031 82.9312 53.1096 82.6573C53.1117 82.3726 53.2896 82.1542 53.461 82.0472C53.6346 81.9359 53.806 81.9102 53.9175 81.9145C54.031 81.9188 54.0889 81.9445 54.0868 81.9509C54.0868 81.9595 54.0246 81.9509 53.9175 81.9595C53.8125 81.968 53.656 82.0044 53.5039 82.1136C53.3539 82.2185 53.2082 82.4132 53.2124 82.6594C53.2103 82.897 53.3432 83.1753 53.5939 83.293C53.8446 83.4064 54.1468 83.323 54.3161 83.1581C54.4961 82.9933 54.5196 82.7472 54.4682 82.5738C54.4189 82.394 54.3118 82.2741 54.2282 82.212C54.1425 82.1478 54.0846 82.1307 54.0868 82.12Z" fill="#FAFAFA"/>
</svg>
