<svg width="180" height="180" viewBox="0 0 180 180" fill="none" xmlns="http://www.w3.org/2000/svg">
<g id="Group 48096529">
<circle id="Ellipse 1612" cx="90" cy="90" r="89" fill="white" stroke="#00AEEF" stroke-width="2"/>
<g id="Group 48096528">
<g id="Group">
<g id="Group_2">
<g id="Group_3">
<g id="Group_4">
<g id="Group_5">
<path id="Vector" d="M149.146 71.508L141.054 60.3359L119.453 75.9827L131.587 92.7373L146.559 81.8935L149.146 71.508Z" fill="white"/>
<path id="Vector_2" d="M131.59 93.0179C131.503 93.0179 131.416 92.9768 131.362 92.9016L119.225 76.147C119.182 76.0854 119.164 76.0102 119.175 75.9373C119.187 75.8643 119.228 75.7982 119.287 75.7549L140.888 60.1082C140.949 60.0648 141.025 60.0466 141.098 60.058C141.17 60.0694 141.237 60.1104 141.282 60.1697L149.375 71.3417C149.422 71.4101 149.441 71.4945 149.42 71.5742L146.833 81.9598C146.817 82.0236 146.778 82.0806 146.726 82.1194L131.756 92.9632C131.706 92.9996 131.649 93.0156 131.592 93.0156L131.59 93.0179ZM119.848 76.0444L131.653 92.3431L146.313 81.725L148.843 71.5674L140.993 60.7282L119.848 76.0444Z" fill="#173DC9"/>
</g>
<g id="Group_6">
<path id="Vector_3" d="M142.5 76.3108L146.544 81.8934L149.131 71.5078L142.5 76.3108Z" fill="white"/>
<path id="Vector_4" d="M146.544 82.1732C146.455 82.1732 146.371 82.1299 146.316 82.057L142.272 76.4744C142.229 76.4128 142.211 76.3376 142.222 76.2647C142.233 76.1917 142.274 76.1256 142.334 76.0823L148.965 71.2793C149.061 71.2109 149.191 71.2086 149.286 71.2748C149.384 71.3409 149.43 71.4617 149.403 71.5756L146.815 81.9612C146.788 82.0684 146.704 82.1481 146.597 82.1687C146.578 82.1732 146.56 82.1732 146.544 82.1732ZM142.895 76.3718L146.419 81.2363L148.673 72.1866L142.895 76.3718Z" fill="#173DC9"/>
</g>
</g>
<g id="Group_7">
<g id="Group_8">
<path id="Vector_5" d="M118.889 83.5516L132.185 88.8037L144.49 57.6492L124.549 49.7734L116.023 71.3652L118.889 83.5516Z" fill="white"/>
<path id="Vector_6" d="M132.185 89.0887C132.151 89.0887 132.115 89.0819 132.083 89.0682L118.786 83.8161C118.7 83.7819 118.636 83.709 118.615 83.6178L115.75 71.4314C115.736 71.3767 115.741 71.3174 115.761 71.2627L124.289 49.6709C124.317 49.6025 124.371 49.5455 124.44 49.5159C124.508 49.4863 124.585 49.484 124.654 49.5114L144.593 57.3872C144.661 57.4145 144.718 57.4692 144.748 57.5376C144.778 57.606 144.78 57.6835 144.753 57.7519L132.448 88.9063C132.42 88.9747 132.366 89.0317 132.297 89.0613C132.261 89.0773 132.224 89.0841 132.185 89.0841V89.0887ZM119.128 83.3488L132.026 88.4436L144.123 57.8134L124.706 50.1451L116.315 71.3926L119.128 83.3511V83.3488Z" fill="#173DC9"/>
</g>
<g id="Group_9">
<path id="Vector_7" d="M122.66 73.9987L116.016 71.375L118.883 83.5614L122.66 73.9987Z" fill="white"/>
<path id="Vector_8" d="M118.888 83.8427C118.888 83.8427 118.874 83.8427 118.868 83.8427C118.744 83.8336 118.642 83.747 118.615 83.6262L115.749 71.4398C115.726 71.3372 115.761 71.23 115.838 71.1617C115.918 71.0933 116.027 71.075 116.125 71.1138L122.768 73.7375C122.836 73.7649 122.893 73.8196 122.923 73.888C122.952 73.9564 122.955 74.0339 122.927 74.1023L119.15 83.6649C119.107 83.7721 119.004 83.8427 118.888 83.8427ZM116.419 71.8341L118.956 82.6232L122.301 74.157L116.419 71.8341Z" fill="#173DC9"/>
</g>
</g>
</g>
<g id="Group_10">
<path id="Vector_9" d="M158.625 88.5158H151.984C151.807 88.5044 151.458 88.436 151.25 88.0713C151.031 87.6883 150.881 87.2734 150.229 87.2734H147.04C146.6 87.2734 146.242 87.6313 146.242 88.0713V96.6765C146.242 97.1165 146.6 97.4744 147.04 97.4744H158.625C159.065 97.4744 159.422 97.1165 159.422 96.6765V89.3136C159.422 88.8737 159.065 88.5158 158.625 88.5158Z" fill="#FF6666"/>
<path id="Vector_10" d="M145.205 92.3234L143.056 89.1001L145.002 87.8008L142.424 86.5243L139.844 85.25L140.028 88.1222L140.215 90.9922L142.212 89.6609L144.362 92.8842L145.205 92.3234Z" fill="#173DC9"/>
</g>
</g>
<path id="Vector_11" d="M31.6256 72.3989C31.5139 72.3989 31.4068 72.3305 31.3635 72.2211C31.3065 72.0775 31.3771 71.9134 31.523 71.8564C33.9074 70.9195 37.6436 69.4013 38.6808 68.8565C38.2727 68.4827 37.3814 67.5526 35.2911 65.1773C33.6453 63.3104 32.0405 61.4343 32.0245 61.4161C31.9561 61.3363 31.9379 61.2223 31.9789 61.1243C32.02 61.0263 32.1134 60.9602 32.2183 60.9511L40.1876 60.3812L35.5282 45.5801C35.4894 45.4593 35.5373 45.3294 35.6422 45.261C35.747 45.1926 35.8861 45.2017 35.9818 45.2838L47.8628 55.6762L52.823 45.1151C52.8755 45.0034 52.9917 44.9396 53.1148 44.9556C53.2356 44.9715 53.3337 45.065 53.3542 45.1858L55.114 55.2499C55.1413 55.4027 55.0387 55.5486 54.886 55.5759C54.7333 55.6033 54.5874 55.5007 54.56 55.348L52.953 46.1614L48.2115 56.2552C48.1728 56.335 48.0998 56.392 48.0155 56.4102C47.9289 56.4285 47.84 56.4057 47.7716 56.3464L36.367 46.3689L40.8304 60.5522C40.8555 60.6342 40.8441 60.7231 40.7939 60.7938C40.746 60.8645 40.6663 60.91 40.5819 60.9169L32.8155 61.4708C35.1976 64.2427 38.756 68.2935 39.2301 68.583C39.3487 68.624 39.4262 68.7266 39.433 68.8497C39.4467 69.1118 39.4535 69.2304 35.5031 70.8602C33.6384 71.6284 31.7487 72.3716 31.7305 72.3784C31.6963 72.3921 31.6621 72.3989 31.6279 72.3989H31.6256Z" fill="#173DC9"/>
</g>
<g id="Group_11">
<g id="Group_12">
<g id="Group_13">
<path id="Vector_12" d="M129.877 132.81H50.5554C46.3269 132.81 42.8984 129.833 42.8984 126.16V67.2275C42.8984 63.5552 46.3269 60.5781 50.5554 60.5781H129.877C134.105 60.5781 137.533 63.5552 137.533 67.2275V126.16C137.533 129.833 134.105 132.81 129.877 132.81Z" fill="#9DAAD1"/>
<g id="Group_14">
<g id="Clip path group">
<mask id="mask0_3631_21509" style="mask-type:luminance" maskUnits="userSpaceOnUse" x="42" y="60" width="96" height="73">
<g id="clippath">
<path id="Vector_13" d="M129.869 132.825H50.5476C46.3191 132.825 42.8906 129.848 42.8906 126.176V67.2432C42.8906 63.5708 46.3191 60.5938 50.5476 60.5938H129.869C134.097 60.5938 137.526 63.5708 137.526 67.2432V126.176C137.526 129.848 134.097 132.825 129.869 132.825Z" fill="white"/>
</g>
</mask>
<g mask="url(#mask0_3631_21509)">
<g id="Group_15">
<path id="Vector_14" d="M138.643 59.8125H42.8906V73.9548H138.643V59.8125Z" fill="#FF6666"/>
</g>
</g>
</g>
<g id="Group_16">
<g id="Group_17">
<path id="Vector_15" d="M71.9869 64.6184C71.9869 66.3691 70.5667 67.7893 68.8137 67.7893C67.0608 67.7893 65.6406 66.3691 65.6406 64.6184C65.6406 62.8677 67.0608 61.4453 68.8137 61.4453C70.5667 61.4453 71.9869 62.8655 71.9869 64.6184Z" fill="#D33737"/>
<path id="Vector_16" d="M68.8118 66.0163C67.9433 66.0163 67.2344 65.3051 67.2344 64.4366V58.4368C67.2344 57.5683 67.9456 56.8594 68.8118 56.8594C69.678 56.8594 70.3915 57.5706 70.3915 58.4368V64.4366C70.3915 65.3051 69.6803 66.0163 68.8118 66.0163Z" fill="#9DAAD1"/>
</g>
<g id="Group_18">
<path id="Vector_17" d="M117.026 64.6184C117.026 66.3691 115.606 67.7893 113.853 67.7893C112.1 67.7893 110.68 66.3691 110.68 64.6184C110.68 62.8677 112.1 61.4453 113.853 61.4453C115.606 61.4453 117.026 62.8655 117.026 64.6184Z" fill="#D33737"/>
<path id="Vector_18" d="M113.851 66.0163C112.982 66.0163 112.273 65.3051 112.273 64.4366V58.4368C112.273 57.5683 112.985 56.8594 113.851 56.8594C114.717 56.8594 115.428 57.5706 115.428 58.4368V64.4366C115.428 65.3051 114.719 66.0163 113.851 66.0163Z" fill="#9DAAD1"/>
</g>
<g id="Group_19">
<path id="Vector_19" d="M131.862 64.6184C131.862 66.3691 130.442 67.7893 128.689 67.7893C126.936 67.7893 125.516 66.3691 125.516 64.6184C125.516 62.8677 126.936 61.4453 128.689 61.4453C130.442 61.4453 131.862 62.8655 131.862 64.6184Z" fill="#D33737"/>
<path id="Vector_20" d="M128.687 66.0163C127.818 66.0163 127.109 65.3051 127.109 64.4366V58.4368C127.109 57.5683 127.818 56.8594 128.687 56.8594C129.555 56.8594 130.264 57.5706 130.264 58.4368V64.4366C130.264 65.3051 129.555 66.0163 128.687 66.0163Z" fill="#9DAAD1"/>
</g>
<g id="Group_20">
<path id="Vector_21" d="M57.0471 64.6184C57.0471 66.3691 55.6269 67.7893 53.8762 67.7893C52.1256 67.7893 50.7031 66.3691 50.7031 64.6184C50.7031 62.8677 52.1233 61.4453 53.8762 61.4453C55.6292 61.4453 57.0471 62.8655 57.0471 64.6184Z" fill="#D33737"/>
<path id="Vector_22" d="M53.861 66.0163C52.9925 66.0163 52.2812 65.3051 52.2812 64.4366V58.4368C52.2812 57.5683 52.9925 56.8594 53.861 56.8594C54.7295 56.8594 55.4384 57.5706 55.4384 58.4368V64.4366C55.4384 65.3051 54.7272 66.0163 53.861 66.0163Z" fill="#9DAAD1"/>
</g>
</g>
</g>
<g id="Group_21">
<g id="Group_22">
<path id="Vector_23" d="M50.9436 78.3047H129.444C131.177 78.3047 132.581 79.7112 132.581 81.4413V124.723C132.581 126.455 131.174 127.86 129.444 127.86H50.9436C49.2112 127.86 47.8047 126.453 47.8047 124.721V81.4436C47.8047 79.7112 49.2112 78.3047 50.9436 78.3047Z" fill="#D3D8ED"/>
<g id="Group_23">
<path id="Vector_24" d="M59.9987 77.875H59.2578V129.411H59.9987V77.875Z" fill="#9DAAD1"/>
<path id="Vector_25" d="M85.2721 77.875H84.5312V129.411H85.2721V77.875Z" fill="#9DAAD1"/>
<path id="Vector_26" d="M97.0924 77.875H96.3516V129.411H97.0924V77.875Z" fill="#9DAAD1"/>
<path id="Vector_27" d="M109.069 77.875H108.328V129.411H109.069V77.875Z" fill="#9DAAD1"/>
<path id="Vector_28" d="M121.194 77.875H120.453V129.411H121.194V77.875Z" fill="#9DAAD1"/>
<path id="Vector_29" d="M72.6627 77.875H71.9219V129.411H72.6627V77.875Z" fill="#9DAAD1"/>
</g>
<g id="Group_24">
<path id="Vector_30" d="M133.887 77.4297H47.8047V78.2025H133.887V77.4297Z" fill="#9DAAD1"/>
<path id="Vector_31" d="M133.887 103.781H47.8047V104.554H133.887V103.781Z" fill="#9DAAD1"/>
<path id="Vector_32" d="M133.887 116.109H47.8047V116.882H133.887V116.109Z" fill="#9DAAD1"/>
<path id="Vector_33" d="M133.887 128.602H47.8047V129.374H133.887V128.602Z" fill="#9DAAD1"/>
<path id="Vector_34" d="M133.887 90.625H47.8047V91.3978H133.887V90.625Z" fill="#9DAAD1"/>
</g>
</g>
<g id="Group_25">
<path id="Vector_35" d="M59.248 78.3125H50.9413C49.2089 78.3125 47.8047 79.7167 47.8047 81.4491V90.6402H59.2502V78.3125H59.248Z" fill="#FFE1E1"/>
<path id="Vector_36" d="M120.449 91.4219H109.062V103.795H120.449V91.4219Z" fill="#FFE1E1"/>
<path id="Vector_37" d="M71.9119 91.3594H59.9922V103.733H71.9119V91.3594Z" fill="#FFE1E1"/>
<path id="Vector_38" d="M96.38 116.883H85.2969V127.863H96.38V116.883Z" fill="#FFE1E1"/>
<path id="Vector_39" d="M132.574 104.562H121.188V116.12H132.574V104.562Z" fill="#FFE1E1"/>
<path id="Vector_40" d="M96.3487 91.4219H85.2656V103.663H96.3487V91.4219Z" fill="#EDEFF7"/>
</g>
</g>
</g>
<g id="Group_26">
<g id="Group_27">
<g id="Group_28">
<g id="Group_29">
<path id="Vector_41" d="M107.594 51.8957C105.522 51.1594 103.172 50.5553 100.4 50.7126C97.8694 50.8562 95.3779 51.2301 92.9707 51.6928C91.783 51.9208 90.5749 52.1533 89.3576 52.3015C88.1198 52.4519 86.8684 52.575 85.6762 52.8417C83.4149 53.3478 81.4772 54.2619 79.5966 55.2056C78.5207 55.7458 77.4561 56.2815 76.3984 56.8263L79.3527 62.5366C80.1984 62.0579 80.8823 61.6749 81.7257 61.1848C82.0266 61.0093 82.3754 60.7403 82.6375 60.6788C82.7971 60.64 83.0615 60.6788 83.2781 60.6788C86.4056 60.6788 89.1616 60.6446 91.9563 60.6446C95.371 60.6446 98.0677 60.6104 101.446 60.6104C102.798 60.6104 104.373 60.5762 106.005 60.5762C106.573 60.5762 107.177 60.5009 107.626 60.5762C107.744 60.5967 107.879 60.6468 108.018 60.7061L110.749 53.2224C109.741 52.7391 108.711 52.2946 107.592 51.898L107.594 51.8957Z" fill="white"/>
<path id="Vector_42" d="M108.266 59.9308C108.123 59.8692 107.986 59.8191 107.865 59.8008C107.405 59.7256 106.789 59.8008 106.208 59.8008C104.539 59.8008 102.93 59.835 101.546 59.835C98.0905 59.835 95.3346 59.8692 91.8423 59.8692C88.9838 59.8692 86.1663 59.9034 82.9681 59.9034C82.7469 59.9034 82.4757 59.8647 82.3116 59.9034C82.0426 59.9673 81.687 60.2362 81.3792 60.4095C80.5176 60.8996 79.8155 61.2825 78.9515 61.7613L78.9219 61.7065L79.3504 62.5363C80.1961 62.0576 80.88 61.6746 81.7234 61.1845C82.0243 61.009 82.3731 60.74 82.6352 60.6785C82.7948 60.6397 83.0592 60.6785 83.2758 60.6785C86.4033 60.6785 89.1593 60.6443 91.954 60.6443C95.3687 60.6443 98.0654 60.6101 101.444 60.6101C102.795 60.6101 104.371 60.5759 106.003 60.5759C106.57 60.5759 107.174 60.5007 107.624 60.5759C107.742 60.5964 107.877 60.6466 108.016 60.7058L109.924 55.4766L108.262 59.9308H108.266Z" fill="#D3D8ED"/>
</g>
<g id="Group_30">
<path id="Vector_43" fill-rule="evenodd" clip-rule="evenodd" d="M95.0413 51.2904C95.0709 51.2836 95.0732 51.3041 95.0754 51.3246C95.0868 52.7972 94.6811 53.8686 94.0291 54.769C93.4273 55.5987 92.5019 56.3555 91.1592 56.3555C89.9602 56.3555 89.0871 55.7697 88.4238 55.1064C87.7331 54.4157 87.2361 53.6087 86.9375 52.608C89.5932 52.1224 92.3582 51.7463 95.0435 51.2904H95.0413Z" fill="#EAC1C1"/>
<path id="Vector_44" fill-rule="evenodd" clip-rule="evenodd" d="M94.2623 48.4211C94.7934 48.3983 95.1149 48.7631 95.1741 49.2326C95.3109 50.2972 94.431 51.4233 93.6537 51.5965C93.5124 52.791 93.1727 53.6891 92.5048 54.2978C92.0512 54.7127 91.2237 55.0455 90.378 54.838C89.5733 54.642 88.8233 54.0151 88.2831 53.3518C87.7679 52.7181 87.3599 51.8929 86.9997 51.0882C86.635 50.2744 86.2999 49.2988 86.1882 48.3185C86.0697 47.2722 86.1494 46.1712 86.6943 45.4144C87.0567 44.9084 87.6631 44.416 88.2147 44.0968C88.8005 43.7572 89.6257 43.4358 90.5102 43.3879C91.707 43.3218 92.6484 43.9076 93.314 44.6371C94.1711 45.5785 94.5701 46.8824 94.26 48.4188L94.2623 48.4211Z" fill="#FFE1E1"/>
<path id="Vector_45" fill-rule="evenodd" clip-rule="evenodd" d="M94.5142 48.446C94.1563 48.4004 93.8577 48.5486 93.689 48.7287C93.6936 49.1778 93.901 50.0166 93.5203 50.0805C93.1602 50.1397 93.0394 49.5516 92.9117 49.237C92.6085 48.4802 92.5014 47.883 92.0683 47.1763C91.911 46.921 91.6602 46.5381 91.2909 46.5358C90.9809 46.5335 90.5068 46.8686 90.2446 47.0076C89.5083 47.3974 89.0935 47.5935 88.1247 47.9263C87.5024 48.1406 87.0009 48.2614 86.1802 48.2181C85.1408 48.1634 84.7943 47.8214 84.8399 47.345C84.8877 46.8412 85.5739 46.8344 86.1438 46.7637C85.7676 46.6794 85.3436 46.4833 85.4599 46.1232C85.5625 45.7995 86.0207 45.6901 86.4287 45.624C87.01 44.3953 88.1292 43.3262 89.8389 43.1917C90.4999 43.1393 91.1998 43.2578 91.6625 43.5633C92.0956 43.4857 92.5424 43.4402 92.8775 43.5633C94.2407 44.0625 94.6168 46.4742 94.5142 48.4483V48.446Z" fill="#173DC9"/>
<g id="Group_31">
<g id="Group_32">
<path id="Vector_46" fill-rule="evenodd" clip-rule="evenodd" d="M86.8248 49.7683C86.8727 49.88 87.2557 49.8231 87.6796 49.6407C88.1059 49.4606 88.4114 49.2235 88.3658 49.1118C88.3179 49.0001 87.935 49.0571 87.511 49.2395C87.0847 49.4196 86.7792 49.6567 86.8248 49.7683Z" fill="#173DC9"/>
<path id="Vector_47" fill-rule="evenodd" clip-rule="evenodd" d="M87.5991 50.8572C87.6584 51.0555 87.8225 51.1809 87.9661 51.1399C88.112 51.0966 88.1827 50.9028 88.1234 50.7045C88.0664 50.5062 87.9 50.3808 87.7564 50.4218C87.6105 50.4651 87.5398 50.6589 87.5991 50.8572Z" fill="#173DC9"/>
</g>
<g id="Group_33">
<path id="Vector_48" fill-rule="evenodd" clip-rule="evenodd" d="M89.2266 48.8891C89.2425 49.0076 89.6255 49.0601 90.0837 49.0031C90.5419 48.9461 90.902 48.8025 90.8883 48.6839C90.8747 48.5654 90.4894 48.513 90.0312 48.57C89.5731 48.627 89.2129 48.7706 89.2288 48.8891" fill="#173DC9"/>
<path id="Vector_49" fill-rule="evenodd" clip-rule="evenodd" d="M90.3322 50.201C90.3892 50.3993 90.5556 50.527 90.6992 50.4836C90.8451 50.4403 90.9135 50.2466 90.8565 50.0482C90.7973 49.8499 90.6331 49.7246 90.4895 49.7656C90.3459 49.8089 90.2752 50.0027 90.3322 50.201Z" fill="#173DC9"/>
</g>
<g id="Group_34">
<path id="Vector_50" d="M89.7503 52.4764C89.7503 52.4764 89.7344 52.481 89.7253 52.481C89.5041 52.5038 89.3355 52.4627 89.2033 52.3533C88.9388 52.1345 88.9046 51.6991 88.8613 51.1497C88.834 50.7987 88.802 50.402 88.7063 49.9985C88.6903 49.9233 88.7359 49.8481 88.8089 49.8321C88.8841 49.8139 88.9593 49.8595 88.9753 49.9347C89.0756 50.3587 89.1075 50.7667 89.1371 51.1269C89.1736 51.5919 89.2055 51.9954 89.3788 52.139C89.4494 52.1983 89.5543 52.2188 89.6956 52.2051C89.7709 52.1983 89.8392 52.253 89.8484 52.3282C89.8552 52.3966 89.8119 52.4582 89.7503 52.4764Z" fill="#EAC1C1"/>
<path id="Vector_51" d="M90.064 53.1365C89.9318 53.1752 89.7768 53.2003 89.5945 53.2026C89.517 53.2026 89.4531 53.1433 89.4531 53.0658C89.4531 52.9883 89.5147 52.9245 89.5899 52.9245C90.4037 52.9085 90.52 52.3979 90.5245 52.3774C90.5405 52.3021 90.6134 52.2543 90.6864 52.268C90.7616 52.2839 90.8095 52.3546 90.7958 52.4298C90.7912 52.4549 90.6886 52.9518 90.064 53.1342" fill="#EAC1C1"/>
</g>
</g>
</g>
</g>
<g id="Group_35">
<g id="Group_36">
<path id="Vector_52" fill-rule="evenodd" clip-rule="evenodd" d="M77.3851 46.6393C77.4444 46.3658 77.686 46.1697 77.857 45.9304C78.1647 45.5018 78.4223 44.9867 78.7004 44.4783C78.8736 44.1615 79.1175 43.6987 79.4777 43.6668C80.1661 43.6075 79.9929 44.5194 79.8151 45.0186C79.635 45.5269 79.382 45.9805 79.072 46.4365C78.9375 46.6325 78.7163 46.9699 78.5659 47.0109C78.1829 47.1112 77.5697 46.8171 77.3828 46.6393H77.3851Z" fill="#FFE1E1"/>
<path id="Vector_53" d="M74.0357 58.0813C75.0455 56.8549 76.0166 55.5259 77.1427 54.3998C77.537 54.0055 77.8653 53.5268 78.2915 53.251C79.2148 52.656 80.4366 52.3483 80.9928 51.4273C81.2914 50.9304 81.2527 50.5292 81.3986 49.9411C81.549 49.3393 82.4631 48.8788 82.1417 48.0832C81.9548 48.065 81.8476 48.2383 81.7359 48.3545C80.9449 49.1706 80.2474 50.0482 79.4724 50.8529C78.5993 50.128 77.6191 49.5102 76.7369 48.7922C76.8418 48.4594 76.8326 48.0103 76.974 47.7117C77.3113 47.5179 77.7787 47.4245 78.2232 47.3059C78.6358 47.1965 79.2125 47.1076 79.3037 46.6973C79.119 46.4762 78.7178 46.4511 78.3577 46.426C77.4276 46.3622 76.208 46.328 75.588 46.6289C74.8563 46.9845 74.7036 47.7071 74.4733 48.4867C74.3365 48.9495 74.2066 49.4168 74.0334 49.8385C73.6641 50.7389 73.1398 51.2313 72.481 51.865C71.8792 52.4417 71.2523 53.0116 70.6232 53.5883C68.7494 55.3048 66.9508 57.0874 65.2868 59.025C64.7716 59.6245 64.2405 60.297 63.7663 61.0857C63.299 61.8653 62.818 62.7521 62.8203 63.7528C62.8226 65.084 63.5908 66.1691 64.4069 66.7253C66.4152 68.0885 69.6681 67.1265 71.6011 66.3879C74.3571 65.3325 76.6617 64.0719 79.0643 62.7065C79.1646 62.6495 79.2626 62.5948 79.3584 62.5401L76.4041 56.8298C75.6085 57.2379 74.8175 57.6527 74.0311 58.0813H74.0357Z" fill="#FFE1E1"/>
<g id="Group_37">
<g id="Group_38">
<path id="Vector_54" fill-rule="evenodd" clip-rule="evenodd" d="M83.0944 45.5903C83.0214 45.5379 82.9553 45.4581 82.8846 45.3783C82.4424 44.8859 81.9956 44.3867 81.5466 43.8875C81.5124 43.8487 81.4827 43.8054 81.4463 43.7735C81.3893 43.7257 81.2821 43.6823 81.1818 43.6892C81.0314 43.6983 80.9037 43.7804 80.8239 43.8693C80.2609 44.4825 79.6865 45.0934 79.1302 45.6997C78.4851 46.4018 77.8469 47.0811 77.1926 47.7855C76.8689 48.1343 76.5521 48.4853 76.2261 48.8318C76.0688 49.0005 75.8979 49.1692 75.7474 49.3584C75.6038 49.5362 75.5217 49.8189 75.7132 50.0787C75.7474 50.1266 75.793 50.1676 75.834 50.2155C76.3857 50.8538 76.9578 51.4806 77.5186 52.1166C77.5574 52.1599 77.5961 52.2101 77.6372 52.2488C77.7238 52.3241 77.8469 52.3947 77.9836 52.4061C78.0338 52.4107 78.1774 52.3423 78.2276 52.3309C78.1979 52.3879 78.0156 52.4449 77.9472 52.4472C77.7534 52.454 77.6166 52.3583 77.5095 52.2397C77.1881 51.8864 76.853 51.4875 76.5453 51.1387C76.2216 50.7694 75.9138 50.4161 75.581 50.0377C75.4761 49.9169 75.3439 49.7938 75.3075 49.6046C75.2687 49.404 75.3417 49.2421 75.4397 49.1145C75.54 48.9868 75.6562 48.8706 75.7565 48.7589C76.3994 48.0499 77.0718 47.341 77.7055 46.6503C78.3598 45.9391 79.0026 45.2461 79.6523 44.5372C79.9235 44.2408 80.1925 43.9536 80.4661 43.6595C80.5664 43.5524 80.6803 43.3974 80.8878 43.3769C80.9858 43.3678 81.0633 43.3928 81.1408 43.4293C81.2799 43.4931 81.387 43.6299 81.4964 43.7507C82.0412 44.3502 82.5564 44.9657 83.0989 45.5903H83.0944Z" fill="#173DC9"/>
<g id="Group_39">
<path id="Vector_55" d="M78.9701 45.4833C78.9656 45.4583 78.9724 45.4332 78.9906 45.4127L79.4648 44.9157C79.4967 44.8838 79.5468 44.8815 79.5788 44.9135C79.6107 44.9454 79.6129 44.9955 79.581 45.0297L79.1069 45.5266C79.075 45.5586 79.0248 45.5608 78.9929 45.5289C78.9792 45.5175 78.9724 45.5016 78.9701 45.4833Z" fill="white"/>
<path id="Vector_56" d="M79.7288 44.6724C79.7243 44.6473 79.7311 44.6222 79.7494 44.6017L79.9864 44.3532C80.0183 44.3213 80.0685 44.319 80.1004 44.351C80.1323 44.3829 80.1346 44.433 80.1027 44.4672L79.8656 44.7157C79.8337 44.7476 79.7835 44.7499 79.7516 44.718C79.738 44.7043 79.7311 44.6906 79.7266 44.6724H79.7288Z" fill="white"/>
<path id="Vector_57" d="M80.1296 44.2192C80.125 44.1942 80.1318 44.1691 80.1501 44.1486L80.3871 43.9001C80.4191 43.8682 80.4692 43.8659 80.5011 43.8978C80.533 43.9297 80.5353 43.9799 80.5034 44.0118L80.2663 44.2603C80.2344 44.2922 80.1843 44.2945 80.1501 44.2626C80.1364 44.2489 80.1296 44.2352 80.125 44.217L80.1296 44.2192Z" fill="white"/>
</g>
</g>
<g id="Group_40">
<path id="Vector_58" fill-rule="evenodd" clip-rule="evenodd" d="M83.5219 46.2175C83.5538 46.3406 83.5538 46.4865 83.5219 46.5982C83.4923 46.7099 83.4376 46.7874 83.3669 46.8649C82.373 47.9385 81.3906 48.9962 80.3944 50.0608C79.7561 50.7424 79.1247 51.4308 78.4819 52.1169C78.4089 52.1944 78.3451 52.2811 78.263 52.3381C78.1582 52.411 78.026 52.4429 77.9097 52.4247C77.6863 52.3905 77.5678 52.1967 77.4264 52.0394C76.9386 51.4923 76.4554 50.9407 75.9539 50.3845C75.8855 50.307 75.8148 50.2295 75.7396 50.1497C75.6644 50.0676 75.6005 49.9719 75.58 49.8442C75.5344 49.5866 75.6552 49.4362 75.8216 49.2607C76.9546 48.0548 78.0761 46.8284 79.2136 45.6066C79.7265 45.0549 80.2759 44.46 80.8002 43.8924C80.8366 43.8536 80.8731 43.8149 80.9141 43.7852C81.06 43.6804 81.2766 43.6804 81.4065 43.7601C81.4681 43.7966 81.5182 43.8604 81.5706 43.9174C82.1428 44.5511 82.6922 45.1621 83.2621 45.8026C83.3646 45.9189 83.4877 46.0465 83.5219 46.2129C83.5219 46.2152 83.5219 46.2198 83.5219 46.2221V46.2175Z" fill="white"/>
<g id="Group_41">
<path id="Vector_59" d="M82.0242 44.7478C82.0219 44.7341 82.0242 44.7182 82.0379 44.7068C82.0561 44.6908 82.0835 44.6908 82.1017 44.7113L82.6693 45.345C82.6853 45.3633 82.6853 45.3906 82.6648 45.4089C82.6465 45.4248 82.6192 45.4225 82.6009 45.4043L82.0356 44.7706C82.0356 44.7706 82.0265 44.7569 82.0242 44.7478Z" fill="#173DC9"/>
<path id="Vector_60" d="M82.743 45.5239C82.7179 45.5285 82.6928 45.5125 82.6883 45.4852C82.6837 45.4601 82.6997 45.435 82.727 45.4305C82.7521 45.4259 82.7772 45.4419 82.7817 45.4692C82.7863 45.4943 82.7703 45.5194 82.743 45.5239Z" fill="#173DC9"/>
</g>
<path id="Vector_61" d="M79.1756 51.0564C79.2873 50.9333 79.399 50.8171 79.513 50.6985C79.978 50.2084 80.3997 49.7366 80.851 49.2624C81.079 49.0208 81.2956 48.7769 81.5144 48.5421C81.9543 48.0679 82.4034 47.5824 82.8456 47.106C82.9003 47.049 82.9528 46.9852 83.012 46.9259C83.0668 46.8689 83.1283 46.8142 83.183 46.7481C83.2879 46.6227 83.3608 46.4404 83.3061 46.2398C83.3061 46.2375 83.3061 46.2329 83.3061 46.2306C83.281 46.1098 83.2012 46.0346 83.1374 45.9617C83.0622 45.875 83.0052 45.8089 82.9277 45.72C82.8935 45.6813 82.8502 45.6197 82.8114 45.6129C82.7704 45.6083 82.7271 45.6471 82.6678 45.6334C82.6336 45.6243 82.5994 45.581 82.5653 45.5399C82.3692 45.3165 82.1868 45.1182 81.9954 44.8994C81.9612 44.8584 81.9156 44.8173 81.9087 44.7786C81.8951 44.7102 81.9612 44.6737 81.9452 44.6144C81.9407 44.5962 81.9042 44.562 81.8814 44.5347C81.8107 44.4526 81.7401 44.3751 81.6785 44.3021C81.5805 44.1905 81.4939 44.0742 81.389 44.0126C81.2955 43.9579 81.1542 43.9488 81.0448 44.0172C80.9878 44.0537 80.924 44.1335 80.8693 44.195C80.7051 44.3751 80.5091 44.5916 80.3655 44.7512C80.133 45.0042 79.9005 45.2436 79.6794 45.4852C79.2348 45.9685 78.7881 46.4632 78.323 46.9601C77.6939 47.6348 77.0146 48.3688 76.3672 49.0755L78.665 51.6149C78.8405 51.4257 79.0114 51.2411 79.1801 51.0564H79.1756Z" fill="#9DAAD1"/>
<g id="Group_42">
<path id="Vector_62" d="M78.1809 52.1272C78.2379 52.0839 78.2949 52.0178 78.3542 51.9539C78.4089 51.8947 78.4659 51.8308 78.5206 51.7716C78.5707 51.7169 78.6209 51.6644 78.6688 51.6097L76.371 49.0703C76.2844 49.1638 76.2 49.2572 76.1157 49.3484C76.061 49.4077 76.0017 49.4692 75.947 49.5353C75.8467 49.6562 75.7943 49.8727 75.9082 50.0642C75.9356 50.1098 75.9789 50.1463 76.0177 50.1918C76.5032 50.7435 77.0047 51.2997 77.4811 51.8491C77.5586 51.938 77.627 52.0337 77.7091 52.1021C77.8208 52.1978 78.0305 52.2389 78.1832 52.1249L78.1809 52.1272Z" fill="white"/>
<path id="Vector_63" d="M76.9584 50.8242C76.9264 50.6464 77.045 50.48 77.2205 50.4481C77.2342 50.4481 77.2456 50.4458 77.2593 50.4435C77.2114 50.4299 77.1612 50.4253 77.1111 50.4344C76.9356 50.4663 76.817 50.6328 76.8489 50.8106C76.8786 50.9747 77.0245 51.0864 77.1863 51.0773C77.0723 51.0431 76.9812 50.9473 76.9606 50.8242H76.9584Z" fill="#173DC9"/>
</g>
</g>
</g>
</g>
<g id="Group_43">
<g id="Group_44">
<path id="Vector_64" d="M64.5453 65.6093C63.7452 65.0667 62.9975 64.0136 62.961 62.7234C62.8584 63.0562 62.7969 63.4027 62.7969 63.7628C62.7992 65.0941 63.5674 66.1791 64.3834 66.7353C66.3917 68.0985 69.6446 67.1365 71.5777 66.398C74.3336 65.3426 76.6382 64.082 79.0409 62.7165C79.1412 62.6595 79.2392 62.6048 79.3349 62.5501L78.9201 61.75C76.6154 63.0539 74.3861 64.2598 71.7372 65.2719C69.8042 66.0105 66.5536 66.9724 64.543 65.6093H64.5453Z" fill="#EAC1C1"/>
<path id="Vector_65" fill-rule="evenodd" clip-rule="evenodd" d="M74.1043 58.0092C74.1339 58.0023 74.1362 58.0228 74.1385 58.0433C74.2844 58.8002 73.9858 59.4179 73.5983 59.8328C72.9668 60.5098 71.9547 61.1276 71.2344 61.588C72.153 60.3548 73.1515 59.2059 74.1043 58.0092Z" fill="#EAC1C1"/>
</g>
<g id="Group_45">
<path id="Vector_66" d="M78.3367 46.4338C77.4067 46.37 76.1871 46.3358 75.5671 46.6367C75.0998 46.8624 74.8673 47.2408 74.7031 47.6853C74.767 47.6921 74.8308 47.699 74.8946 47.7058C75.4736 47.7719 75.8953 47.8677 76.4492 47.993C76.8322 47.4231 77.7554 47.4277 78.1999 47.3115C78.6125 47.202 79.2896 47.0812 79.2804 46.7028C79.2736 46.3882 78.6946 46.4566 78.3344 46.4316L78.3367 46.4338Z" fill="#FFE1E1"/>
<path id="Vector_67" d="M82.2138 48.1474C82.1842 48.0539 81.8628 48.4278 81.4274 48.7629C80.5042 49.4786 79.0156 50.6731 79.0156 51.7149C79.1136 51.765 79.2117 51.8152 79.3074 51.8676C79.5627 52.0044 79.8135 52.1434 80.0619 52.2847C80.4289 52.0568 80.7526 51.7901 80.9715 51.4276C81.2701 50.9307 81.2313 50.5295 81.3772 49.9414C81.5277 49.3396 82.4782 48.9612 82.2115 48.1474H82.2138Z" fill="#FFE1E1"/>
</g>
</g>
</g>
<g id="Group_46">
<g id="Group_47">
<g id="Group_48">
<path id="Vector_68" fill-rule="evenodd" clip-rule="evenodd" d="M114.912 84.1821C115.17 84.5217 112.665 88.2602 111.814 88.9417C111.017 89.5823 110.294 89.963 108.992 90.2912C108.493 90.4166 107.479 90.6742 107.331 90.3345C107.185 89.9994 107.695 89.5344 107.864 89.4478C108.199 89.2746 108.582 89.2609 108.851 89.1857C110.26 88.7845 111.388 87.6766 112.318 86.7648C112.708 86.3841 114.58 83.7421 114.912 84.1821Z" fill="#FFE1E1"/>
<path id="Vector_69" fill-rule="evenodd" clip-rule="evenodd" d="M114.626 84.872C114.822 85.2504 111.876 88.3528 110.924 88.8794C110.028 89.374 109.25 89.6248 107.912 89.7251C107.397 89.7638 106.355 89.8414 106.267 89.4835C106.18 89.1279 106.763 88.7586 106.944 88.7016C107.304 88.5876 107.684 88.64 107.963 88.6127C109.419 88.4599 110.721 87.5595 111.794 86.821C112.243 86.5132 114.375 84.3796 114.628 84.8697L114.626 84.872Z" fill="#FFE1E1"/>
</g>
<path id="Vector_70" d="M123.629 61.1525C123.217 60.4253 122.175 59.7506 121.366 59.2286C118.762 57.544 116.05 56.0122 113.362 54.5692C112.478 54.0928 111.618 53.646 110.745 53.2266L108.014 60.7103C108.188 60.7855 108.37 60.879 108.534 60.9519C110.697 61.9116 112.726 62.9465 114.579 64.0931C112.934 69.213 112.076 75.1215 110.155 79.9655C109.366 80.3645 108.648 80.711 107.891 81.3173C107.285 81.8029 106.494 82.5642 106.27 83.3096C106.118 83.8202 106.097 84.4927 106.033 85.2016C105.995 85.6484 105.808 86.9318 106.236 86.9911C106.43 87.0184 106.576 86.8201 106.708 86.6537C107.112 86.1477 107.296 85.5345 107.349 84.7959C108.397 83.9639 109.56 83.2481 110.693 82.5004C111.265 83.4031 111.835 84.0482 112.384 84.9714C111.37 85.596 110.317 86.485 109.241 87.1598C108.892 87.3786 108.498 87.7684 108.16 87.8345C107.937 87.8778 107.666 87.8482 107.417 87.8687C107.173 87.8892 106.943 87.9166 106.708 87.969C106.321 88.0556 105.609 88.1582 105.796 88.6779C105.881 88.9127 108.413 89.2501 109.275 89.1179C109.783 89.0381 110.148 88.817 110.558 88.5776C111.228 88.1856 111.812 87.7707 112.416 87.3627C112.728 87.1507 113.068 86.9409 113.328 86.7221C113.864 86.2685 114.272 85.6758 114.611 85.1013C114.885 84.6386 115.104 84.1075 115.254 83.5809C115.395 83.0817 115.514 82.7306 115.694 82.3317C116.38 80.7953 117.119 79.17 117.789 77.7042C119.428 74.1163 120.896 70.7311 122.483 67.0656C122.836 66.2518 123.244 65.3332 123.563 64.3302C123.878 63.3386 124.122 62.021 123.631 61.1548L123.629 61.1525Z" fill="#FFE1E1"/>
</g>
<path id="Vector_71" d="M115.594 63.5577C113.741 62.4111 111.712 61.3762 109.548 60.4165C109.46 60.3778 108.867 60.143 108.311 59.9219L108.023 60.7083C108.197 60.7835 108.379 60.877 108.543 60.9499C110.706 61.9096 112.735 62.9445 114.589 64.0912C112.945 69.2064 112.088 75.1082 110.168 79.9499C110.494 79.7698 110.825 79.6057 111.167 79.4324C113.089 74.5884 113.946 68.6799 115.592 63.56L115.594 63.5577Z" fill="#EAC1C1"/>
<g id="Group_49">
<g id="Group_50">
<path id="Vector_72" d="M95.2422 94.67L99.8491 93.4619L115.669 82.8005L113.925 80.2109L98.1053 90.8723L95.2422 94.67Z" fill="#FF6666"/>
<path id="Vector_73" d="M99.8491 93.4646L98.103 90.875L95.2422 94.6727L99.8491 93.4646Z" fill="white"/>
<path id="Vector_74" d="M114.788 79.6253L113.062 80.7891L114.814 83.3857L116.539 82.2219L114.788 79.6253Z" fill="#F05757"/>
<path id="Vector_75" d="M113.293 80.6281L112.719 81.0156L114.47 83.6122L115.045 83.2247L113.293 80.6281Z" fill="white"/>
<path id="Vector_76" d="M97.2026 94.1515L96.4526 93.0391L95.2422 94.6667L97.2026 94.1515Z" fill="#D33737"/>
<path id="Vector_77" d="M112.712 81.0125L98.1016 90.8672L98.9658 92.1485L113.576 82.2938L112.712 81.0125Z" fill="#D33737"/>
<path id="Vector_78" d="M99.6732 93.1958L99.8465 93.4534L100.184 92.8516L99.5 92.9382L99.6732 93.1958Z" fill="white"/>
<path id="Vector_79" d="M99.3295 92.6935L99.5027 92.9511L99.8401 92.3516L99.1562 92.4382L99.3295 92.6935Z" fill="white"/>
<path id="Vector_80" d="M98.9701 92.1622L99.1434 92.4198L99.4807 91.8203L98.7969 91.9069L98.9701 92.1622Z" fill="white"/>
<path id="Vector_81" d="M98.6186 91.6489L98.7918 91.9065L99.1269 91.3047L98.4453 91.3913L98.6186 91.6489Z" fill="white"/>
<path id="Vector_82" d="M98.2748 91.1232L98.448 91.3808L98.7831 90.7812L98.1016 90.8679L98.2748 91.1232Z" fill="white"/>
</g>
<g id="Group_51">
<path id="Vector_83" d="M106.269 86.978C106.463 87.0053 106.609 86.807 106.741 86.6406C107.144 86.1346 107.329 85.2706 107.384 84.532C107.409 84.5115 106.552 84.434 106.15 84.1719C106.118 84.491 106.098 84.8352 106.066 85.1886C106.027 85.6353 105.84 86.9187 106.269 86.978Z" fill="#FFE1E1"/>
<path id="Vector_84" d="M113.527 86.0542C113.434 86.02 113.343 85.9881 113.247 85.9608C113.037 85.897 112.825 85.8354 112.611 85.7875C112.499 85.7739 112.369 85.7579 112.299 85.7556C112.071 85.7442 111.809 85.5892 111.592 85.5391C110.817 86.0223 110.042 86.6036 109.267 87.0914C108.918 87.3103 108.524 87.7001 108.186 87.7662C107.963 87.8095 107.69 87.8346 107.441 87.8551C107.197 87.8756 106.967 87.9029 106.732 87.9554C106.345 88.042 105.841 88.1127 105.82 88.6643C105.987 88.849 106.294 88.8535 106.563 88.9014C107.368 89.045 108.437 89.2365 109.299 89.1043C109.807 89.0245 110.172 88.8034 110.582 88.564C111.252 88.1719 111.836 87.7571 112.44 87.349C112.752 87.137 113.092 86.9273 113.352 86.7085C113.534 86.5535 113.703 86.3802 113.858 86.1978C113.687 86.1249 113.518 86.0565 113.527 86.0542Z" fill="#FFE1E1"/>
</g>
</g>
</g>
</g>
<g id="Group_52">
<g id="Group_53">
<path id="Vector_85" d="M87.0627 64.5794C87.0627 66.3301 85.6426 67.7502 83.8919 67.7502C82.1412 67.7502 80.7188 66.3301 80.7188 64.5794C80.7188 62.8287 82.1389 61.4062 83.8919 61.4062C85.6448 61.4062 87.0627 62.8264 87.0627 64.5794Z" fill="#D33737"/>
<path id="Vector_86" d="M83.8766 65.9772C83.0081 65.9772 82.2969 65.266 82.2969 64.3975V58.3978C82.2969 57.5292 83.0058 56.8203 83.8766 56.8203C84.7474 56.8203 85.454 57.5315 85.454 58.3978V64.3975C85.454 65.266 84.7428 65.9772 83.8766 65.9772Z" fill="#9DAAD1"/>
</g>
<g id="Group_54">
<path id="Vector_87" d="M102.11 64.5794C102.11 66.3301 100.689 67.7502 98.9387 67.7502C97.1881 67.7502 95.7656 66.3301 95.7656 64.5794C95.7656 62.8287 97.1858 61.4062 98.9387 61.4062C100.692 61.4062 102.11 62.8264 102.11 64.5794Z" fill="#D33737"/>
<path id="Vector_88" d="M98.9235 65.9772C98.055 65.9772 97.3438 65.266 97.3438 64.3975V58.3978C97.3438 57.5292 98.0527 56.8203 98.9235 56.8203C99.7943 56.8203 100.503 57.5315 100.503 58.3978V64.3975C100.503 65.266 99.792 65.9772 98.9235 65.9772Z" fill="#9DAAD1"/>
</g>
</g>
</g>
</g>
<g id="Group_55">
<g id="Group_56">
<g id="Group_57">
<path id="Vector_89" d="M146.484 100.875H130.493C129.338 100.875 128.398 101.812 128.398 102.97V106.07C128.398 107.226 129.335 108.165 130.493 108.165H130.646L128.665 110.878L133.313 108.165H146.484C147.64 108.165 148.579 107.228 148.579 106.07V102.97C148.579 101.814 147.642 100.875 146.484 100.875Z" fill="#173DC9"/>
<g id="Group_58">
<path id="Vector_90" d="M144.738 107.086C143.332 107.086 142.188 105.942 142.188 104.535C142.188 103.129 143.332 101.984 144.738 101.984C146.145 101.984 147.289 103.129 147.289 104.535C147.289 105.942 146.145 107.086 144.738 107.086ZM144.738 102.547C143.642 102.547 142.751 103.439 142.751 104.535C142.751 105.632 143.642 106.523 144.738 106.523C145.835 106.523 146.726 105.632 146.726 104.535C146.726 103.439 145.835 102.547 144.738 102.547Z" fill="white"/>
<g id="Group_59">
<path id="Vector_91" d="M141.572 103.498H130.327C130.172 103.498 130.047 103.373 130.047 103.218C130.047 103.063 130.172 102.938 130.327 102.938H141.572C141.727 102.938 141.853 103.063 141.853 103.218C141.853 103.373 141.727 103.498 141.572 103.498Z" fill="white"/>
<path id="Vector_92" d="M141.572 104.826H130.327C130.172 104.826 130.047 104.701 130.047 104.546C130.047 104.391 130.172 104.266 130.327 104.266H141.572C141.727 104.266 141.853 104.391 141.853 104.546C141.853 104.701 141.727 104.826 141.572 104.826Z" fill="white"/>
<path id="Vector_93" d="M141.572 106.147H130.327C130.172 106.147 130.047 106.021 130.047 105.866C130.047 105.711 130.172 105.586 130.327 105.586H141.572C141.727 105.586 141.853 105.711 141.853 105.866C141.853 106.021 141.727 106.147 141.572 106.147Z" fill="white"/>
</g>
</g>
</g>
<g id="Group_60">
<g id="Group_61">
<g id="Group_62">
<path id="Vector_94" d="M110.744 101.599C110.744 101.982 111.054 102.295 111.44 102.295H118.103C118.486 102.295 118.798 101.985 118.798 101.599L118.657 96.0624C118.657 95.6795 118.347 95.3672 117.961 95.3672H111.579C111.196 95.3672 110.884 95.6795 110.884 96.0624L110.742 101.599H110.744Z" fill="white"/>
<path id="Vector_95" d="M118.1 102.582H111.437C110.899 102.582 110.461 102.144 110.461 101.606L110.602 96.0626C110.602 95.5314 111.04 95.0938 111.578 95.0938H117.961C118.499 95.0938 118.936 95.5314 118.936 96.0694L119.078 101.6C119.078 102.144 118.64 102.582 118.102 102.582H118.1ZM111.578 95.6545C111.35 95.6545 111.165 95.8392 111.165 96.0671L111.024 101.611C111.024 101.832 111.209 102.017 111.437 102.017H118.1C118.328 102.017 118.512 101.832 118.512 101.604L118.371 96.0739C118.371 95.8392 118.186 95.6522 117.958 95.6522H111.576L111.578 95.6545Z" fill="#FF6666"/>
</g>
<path id="Vector_96" d="M116.786 95.6522H112.786C112.649 95.6522 112.533 95.5565 112.51 95.422C112.482 95.2738 112.469 95.1348 112.469 94.998C112.469 93.7192 113.508 92.6797 114.787 92.6797C116.066 92.6797 117.103 93.7192 117.103 94.998C117.103 95.137 117.089 95.2806 117.062 95.422C117.037 95.5542 116.921 95.6499 116.786 95.6499V95.6522ZM113.034 95.0892H116.538C116.538 95.0595 116.54 95.0276 116.54 94.998C116.54 94.0315 115.754 93.2427 114.787 93.2427C113.821 93.2427 113.032 94.0292 113.032 94.998C113.032 95.0276 113.032 95.0572 113.034 95.0892Z" fill="#FF6666"/>
<g id="Group_63">
<path id="Vector_97" d="M116.572 97.5969C116.205 97.5969 115.906 97.2983 115.906 96.9312C115.906 96.5642 116.205 96.2656 116.572 96.2656C116.939 96.2656 117.237 96.5642 117.237 96.9312C117.237 97.2983 116.939 97.5969 116.572 97.5969ZM116.572 96.8287C116.515 96.8287 116.469 96.8743 116.469 96.9312C116.469 96.9882 116.515 97.0338 116.572 97.0338C116.629 97.0338 116.674 96.9882 116.674 96.9312C116.674 96.8743 116.629 96.8287 116.572 96.8287Z" fill="#FF6666"/>
<path id="Vector_98" d="M112.986 97.5969C112.619 97.5969 112.32 97.2983 112.32 96.9312C112.32 96.5642 112.619 96.2656 112.986 96.2656C113.353 96.2656 113.652 96.5642 113.652 96.9312C113.652 97.2983 113.353 97.5969 112.986 97.5969ZM112.986 96.8287C112.929 96.8287 112.883 96.8743 112.883 96.9312C112.883 96.9882 112.929 97.0338 112.986 97.0338C113.043 97.0338 113.089 96.9882 113.089 96.9312C113.089 96.8743 113.043 96.8287 112.986 96.8287Z" fill="#FF6666"/>
</g>
</g>
<g id="Group_64">
<path id="Vector_99" d="M151.511 127.827C151.511 128.103 150.23 128.327 148.65 128.327C147.07 128.327 145.789 128.103 145.789 127.827C145.789 127.552 147.07 127.328 148.65 127.328C150.23 127.328 151.511 127.552 151.511 127.827Z" fill="#173DC9"/>
<path id="Vector_100" d="M147.326 126.786C147.311 126.727 147.299 126.676 147.292 126.642C146.85 124.379 145.991 122.231 144.737 120.257C143.255 117.921 141.267 116.001 138.995 114.709C137.543 113.884 135.892 113.327 134.351 113.143C132.845 112.963 131.336 113.12 130.059 113.587C127.538 114.506 125.732 116.238 124.552 118.876C124.704 115.315 123.813 112.664 121.832 110.779C121.009 109.997 120.104 109.464 119.065 109.154C118.962 106.717 118.153 104.421 116.596 102.137C116.229 101.602 115.839 101.107 115.436 100.665C115.347 100.578 115.265 100.567 115.212 100.571C115.133 100.578 115.062 100.633 115.032 100.712C114.996 100.806 115.019 100.911 115.094 100.993C115.39 101.317 115.666 101.656 115.944 102.035C117.61 104.314 118.474 106.601 118.586 109.021C117.765 108.91 117.056 108.887 116.418 108.951C114.991 109.092 113.97 109.664 113.3 110.699C112.988 111.182 112.675 111.928 112.969 112.735C113.263 113.544 113.972 114.155 114.861 114.367C115.174 114.442 115.479 114.465 115.771 114.435C116.537 114.36 117.209 113.943 117.829 113.159C118.511 112.297 118.978 110.954 119.053 109.639C120.503 110.1 121.376 110.918 121.976 111.584C123.731 113.526 124.424 116.409 123.982 119.924C123.936 120.291 123.84 120.832 123.699 121.532L123.69 121.575C123.653 121.748 123.603 121.987 123.806 122.047C123.834 122.054 123.861 122.058 123.886 122.054C124.121 122.031 124.194 121.616 124.26 121.251C124.276 121.169 124.287 121.092 124.303 121.032C124.878 118.586 126.191 116.51 128.001 115.185C129.252 114.271 130.677 113.729 132.236 113.576C133.282 113.473 134.383 113.551 135.505 113.806C137.183 114.189 138.751 114.941 140.301 116.108C141.479 116.995 142.567 118.092 143.538 119.364C145.273 121.641 146.449 124.335 146.934 127.155C146.941 127.194 146.946 127.233 146.95 127.271C146.973 127.449 147 127.691 147.238 127.668H147.254C147.308 127.659 147.354 127.629 147.383 127.584C147.484 127.433 147.415 127.121 147.329 126.786H147.326ZM118.577 109.521V109.537C118.522 111.353 117.674 113.104 116.553 113.701C115.997 113.998 115.338 114.052 114.725 113.847C114.127 113.647 113.642 113.207 113.43 112.671C113.234 112.174 113.277 111.634 113.56 111.105C114.075 110.138 115.123 109.532 116.514 109.395C117.166 109.331 117.882 109.375 118.577 109.521Z" fill="#173DC9"/>
<path id="Vector_101" d="M149.576 118.954C148.165 118.928 147.007 120.052 146.977 121.463C146.925 123.848 149.195 127.65 149.471 127.661C149.968 127.677 152.047 123.709 152.086 121.554C152.111 120.143 150.987 118.979 149.576 118.956M150.711 121.762C150.7 122.425 150.153 122.952 149.489 122.94C148.826 122.929 148.3 122.382 148.311 121.719C148.322 121.055 148.869 120.526 149.533 120.54C150.196 120.551 150.725 121.099 150.711 121.762Z" fill="#FF6666"/>
</g>
</g>
</g>
<g id="Group_65">
<g id="Group_66">
<g id="Group_67">
<path id="Vector_102" d="M41.4314 84.3379L37.2416 87.2853V87.7503C37.2416 89.2092 36.0608 90.39 34.6019 90.39H26.3819C24.923 90.39 23.7422 89.2092 23.7422 87.7503V83.7178C23.7422 82.2589 24.923 81.0781 26.3819 81.0781H34.6042C36.0608 81.0781 37.2439 82.2589 37.2439 83.7178V84.3379H41.4337H41.4314Z" fill="white"/>
<path id="Vector_103" fill-rule="evenodd" clip-rule="evenodd" d="M27.6114 85.3193C27.5772 85.2098 27.5521 85.0982 27.5384 84.9796C27.5361 84.9591 27.527 84.9386 27.5247 84.9158H27.5316C27.527 84.8588 27.5179 84.8041 27.5156 84.7471C27.5156 83.7897 28.204 83.0124 29.0543 83.0101C29.7587 83.0101 30.3468 83.5435 30.5315 84.2707C30.7138 83.5435 31.3019 83.0078 32.0063 83.0078C32.8566 83.0078 33.5473 83.7829 33.5496 84.7403C33.5496 84.7995 33.5382 84.852 33.5336 84.909H33.5404C33.5382 84.9317 33.5313 84.9523 33.5268 84.9728C33.5131 85.0913 33.488 85.203 33.4561 85.3124C33.4538 85.3215 33.4515 85.3307 33.4493 85.3398C33.4356 85.3808 33.4219 85.4218 33.406 85.4606C32.795 87.3298 30.6591 88.832 30.5406 88.8799V88.8845C30.5406 88.8845 30.536 88.8845 30.536 88.8822L30.5292 88.8845V88.8799C30.4106 88.8298 28.2724 87.3321 27.657 85.4652C27.641 85.4264 27.6296 85.3854 27.6136 85.3443C27.6136 85.3352 27.6091 85.3261 27.6068 85.3193H27.6114Z" fill="#FF6666"/>
</g>
<g id="Group_68">
<path id="Vector_104" d="M38.5871 72.7109H54.578C55.7338 72.7109 56.6729 73.6478 56.6729 74.8058V77.9083C56.6729 79.064 55.7361 80.0032 54.578 80.0032H54.4253L56.4062 82.7158L51.7583 80.0032H38.5871C37.4314 80.0032 36.4922 79.0663 36.4922 77.9083V74.8058C36.4922 73.6501 37.4291 72.7109 38.5871 72.7109Z" fill="#173DC9"/>
<g id="Group_69">
<path id="Vector_105" d="M40.3477 78.9297C38.9412 78.9297 37.7969 77.7854 37.7969 76.3789C37.7969 74.9725 38.9412 73.8281 40.3477 73.8281C41.7542 73.8281 42.8985 74.9725 42.8985 76.3789C42.8985 77.7854 41.7542 78.9297 40.3477 78.9297ZM40.3477 74.3912C39.2512 74.3912 38.3599 75.2825 38.3599 76.3789C38.3599 77.4754 39.2512 78.3667 40.3477 78.3667C41.4441 78.3667 42.3354 77.4754 42.3354 76.3789C42.3354 75.2825 41.4441 74.3912 40.3477 74.3912Z" fill="white"/>
<g id="Group_70">
<path id="Vector_106" d="M54.7675 75.342H43.5226C43.3676 75.342 43.2422 75.2166 43.2422 75.0616C43.2422 74.9066 43.3676 74.7812 43.5226 74.7812H54.7675C54.9225 74.7812 55.0479 74.9066 55.0479 75.0616C55.0479 75.2166 54.9225 75.342 54.7675 75.342Z" fill="white"/>
<path id="Vector_107" d="M54.7675 76.6701H43.5226C43.3676 76.6701 43.2422 76.5448 43.2422 76.3898C43.2422 76.2347 43.3676 76.1094 43.5226 76.1094H54.7675C54.9225 76.1094 55.0479 76.2347 55.0479 76.3898C55.0479 76.5448 54.9225 76.6701 54.7675 76.6701Z" fill="white"/>
<path id="Vector_108" d="M54.7675 77.9905H43.5226C43.3676 77.9905 43.2422 77.8651 43.2422 77.7101C43.2422 77.5551 43.3676 77.4297 43.5226 77.4297H54.7675C54.9225 77.4297 55.0479 77.5551 55.0479 77.7101C55.0479 77.8651 54.9225 77.9905 54.7675 77.9905Z" fill="white"/>
</g>
</g>
</g>
<g id="Group_71">
<path id="Vector_109" d="M70.8058 112.984H86.7968C87.9525 112.984 88.8917 113.921 88.8917 115.079V118.182C88.8917 119.337 87.9548 120.277 86.7968 120.277H86.6441L88.625 122.989L83.977 120.277H70.8058C69.6501 120.277 68.7109 119.34 68.7109 118.182V115.079C68.7109 113.924 69.6478 112.984 70.8058 112.984Z" fill="#173DC9"/>
<g id="Group_72">
<path id="Vector_110" d="M72.5586 119.195C71.1521 119.195 70.0078 118.051 70.0078 116.645C70.0078 115.238 71.1521 114.094 72.5586 114.094C73.9651 114.094 75.1094 115.238 75.1094 116.645C75.1094 118.051 73.9651 119.195 72.5586 119.195ZM72.5586 114.657C71.4622 114.657 70.5709 115.548 70.5709 116.645C70.5709 117.741 71.4622 118.632 72.5586 118.632C73.6551 118.632 74.5464 117.741 74.5464 116.645C74.5464 115.548 73.6551 114.657 72.5586 114.657Z" fill="white"/>
<g id="Group_73">
<path id="Vector_111" d="M86.9707 115.615H75.7257C75.5707 115.615 75.4453 115.49 75.4453 115.335C75.4453 115.18 75.5707 115.055 75.7257 115.055H86.9707C87.1257 115.055 87.251 115.18 87.251 115.335C87.251 115.49 87.1257 115.615 86.9707 115.615Z" fill="white"/>
<path id="Vector_112" d="M86.9707 116.944H75.7257C75.5707 116.944 75.4453 116.818 75.4453 116.663C75.4453 116.508 75.5707 116.383 75.7257 116.383H86.9707C87.1257 116.383 87.251 116.508 87.251 116.663C87.251 116.818 87.1257 116.944 86.9707 116.944Z" fill="white"/>
<path id="Vector_113" d="M86.9707 118.264H75.7257C75.5707 118.264 75.4453 118.139 75.4453 117.984C75.4453 117.828 75.5707 117.703 75.7257 117.703H86.9707C87.1257 117.703 87.251 117.828 87.251 117.984C87.251 118.139 87.1257 118.264 86.9707 118.264Z" fill="white"/>
</g>
</g>
</g>
<g id="Group_74">
<g id="Group_75">
<path id="Vector_114" fill-rule="evenodd" clip-rule="evenodd" d="M50.0573 97.4219V110.383C50.0573 111.478 49.1295 112.367 47.9852 112.367H27.9549C26.8106 112.367 25.8828 111.48 25.8828 110.383V97.4219H50.055H50.0573Z" fill="white"/>
<g id="Group_76">
<path id="Vector_115" fill-rule="evenodd" clip-rule="evenodd" d="M25.8828 95.7566C25.8828 94.6602 26.8106 93.7734 27.9549 93.7734H47.9829C49.1273 93.7734 50.055 94.6602 50.055 95.7566V97.4253H25.8828V95.7566Z" fill="#173DC9"/>
<g id="Group_77">
<path id="Vector_116" d="M29.6094 95.5433C29.6094 95.981 29.965 96.3366 30.4027 96.3366C30.8403 96.3366 31.1959 95.981 31.1959 95.5433C31.1959 95.1056 30.8403 94.75 30.4027 94.75C29.965 94.75 29.6094 95.1056 29.6094 95.5433Z" fill="white"/>
<path id="Vector_117" d="M28.4619 96.3284H27.5547L28.0083 95.542L28.4619 94.7578L28.9156 95.542L29.3692 96.3284H28.4619Z" fill="white"/>
</g>
</g>
</g>
<g id="Group_78">
<g id="Group_79">
<path id="Vector_118" d="M38.4741 103.643H28.3369C27.8354 103.643 27.4297 103.235 27.4297 102.736V99.4854C27.4297 98.9839 27.8377 98.5781 28.3369 98.5781H38.4718C38.9733 98.5781 39.379 98.9862 39.379 99.4854V102.736C39.379 103.238 38.971 103.643 38.4718 103.643H38.4741ZM28.3392 99.1389C28.1477 99.1389 27.995 99.2939 27.995 99.4831V102.734C27.995 102.925 28.15 103.08 28.3392 103.08H38.4741C38.6655 103.08 38.8205 102.925 38.8205 102.734V99.4831C38.8205 99.2916 38.6655 99.1389 38.4741 99.1389H28.3369H28.3392Z" fill="#FF6666"/>
<g id="Group_80">
<path id="Vector_119" d="M36.0372 100.647H30.2335C30.0785 100.647 29.9531 100.521 29.9531 100.366C29.9531 100.211 30.0785 100.086 30.2335 100.086H36.0372C36.1922 100.086 36.3176 100.211 36.3176 100.366C36.3176 100.521 36.1922 100.647 36.0372 100.647Z" fill="#FF6666"/>
<path id="Vector_120" d="M36.0338 102.092H33.1319C32.9769 102.092 32.8516 101.967 32.8516 101.812C32.8516 101.657 32.9769 101.531 33.1319 101.531H36.0338C36.1888 101.531 36.3142 101.657 36.3142 101.812C36.3142 101.967 36.1888 102.092 36.0338 102.092Z" fill="#FF6666"/>
</g>
</g>
<g id="Group_81">
<path id="Vector_121" d="M66.1796 101.711C65.7967 101.711 65.4844 101.399 65.4844 101.016C65.4844 100.633 65.7967 100.32 66.1796 100.32C66.5626 100.32 66.8749 100.633 66.8749 101.016C66.8749 101.399 66.5626 101.711 66.1796 101.711ZM66.1796 100.881C66.1067 100.881 66.0474 100.94 66.0474 101.013C66.0474 101.086 66.1067 101.146 66.1796 101.146C66.2526 101.146 66.3118 101.086 66.3118 101.013C66.3118 100.94 66.2526 100.881 66.1796 100.881Z" fill="#FF6666"/>
<path id="Vector_122" d="M66.1841 101.295H37.7491C37.5941 101.295 37.4688 101.17 37.4688 101.015C37.4688 100.86 37.5941 100.734 37.7491 100.734H66.1841C66.3391 100.734 66.4645 100.86 66.4645 101.015C66.4645 101.17 66.3391 101.295 66.1841 101.295Z" fill="#FF6666"/>
</g>
</g>
</g>
<g id="Group_82">
<path id="Vector_123" d="M89.563 96.5466C89.3532 96.5671 89.1663 96.5648 88.9839 96.5603C88.6397 96.5534 88.3138 96.5466 87.9992 96.7426C87.6937 96.9341 87.5889 97.3877 87.5775 97.6248C87.5706 97.7479 87.5775 97.8596 87.5843 97.9576C87.598 98.1514 87.6003 98.2562 87.5364 98.352C87.4498 98.4842 87.2287 98.6027 86.978 98.5754C86.9392 98.5708 86.9027 98.564 86.8663 98.5526C86.5995 98.4774 86.212 98.0579 85.9567 97.7798C85.918 97.7365 85.8792 97.6977 85.845 97.6613C85.7721 97.5815 85.6969 97.4971 85.6193 97.406C85.3344 97.0732 85.0403 96.7289 84.646 96.6469C84.5822 96.6332 84.5161 96.6241 84.4431 96.615C84.2402 96.5945 84.0282 96.5967 83.7843 96.599C83.6179 96.599 83.4447 96.6036 83.2555 96.599H83.2486L79.3141 96.6309C79.2549 96.6309 79.1956 96.6309 79.1386 96.6241C78.3727 96.542 77.7914 95.8992 77.7846 95.1287L77.7344 88.9375C77.7276 88.1032 78.4023 87.417 79.2366 87.4102L89.3851 87.3281C89.4444 87.3281 89.5037 87.3304 89.5607 87.3372C90.3266 87.4193 90.9079 88.0621 90.9147 88.8326L90.9649 95.0216C90.9717 95.7898 90.4018 96.4394 89.6405 96.5375L89.5652 96.5466H89.563Z" fill="#173DC9"/>
<path id="Vector_124" d="M87.2001 91.5303C87.501 91.5622 87.729 91.8152 87.7313 92.1161C87.7313 92.2734 87.672 92.4239 87.5603 92.5378C87.4486 92.6518 87.3004 92.7156 87.1409 92.7156C87.1181 92.7156 87.0953 92.7156 87.0702 92.7111C86.7716 92.6792 86.5413 92.4284 86.5391 92.1252C86.5391 91.9657 86.5983 91.8152 86.71 91.7012C86.8217 91.5873 86.9699 91.5234 87.1295 91.5234C87.1523 91.5234 87.1751 91.5234 87.2001 91.528" fill="white"/>
<path id="Vector_125" d="M84.5494 91.5749C84.8503 91.6068 85.0783 91.8575 85.0805 92.1607C85.0805 92.3203 85.0213 92.4707 84.9119 92.5824C84.8002 92.6964 84.652 92.7602 84.4924 92.7602C84.4696 92.7602 84.4445 92.7602 84.4218 92.7557C84.1231 92.7238 83.8929 92.473 83.8906 92.1698C83.8906 92.0103 83.9499 91.8598 84.0616 91.7481C84.1733 91.6341 84.3215 91.5703 84.481 91.5703C84.5038 91.5703 84.5266 91.5703 84.5494 91.5726" fill="white"/>
<path id="Vector_126" d="M81.8876 91.5905C82.1885 91.6224 82.4165 91.8754 82.4188 92.1763C82.4188 92.3359 82.3595 92.4864 82.2478 92.5981C82.1361 92.712 81.9879 92.7759 81.8284 92.7759C81.8056 92.7759 81.7805 92.7759 81.7577 92.7736C81.4591 92.7417 81.2288 92.4909 81.2266 92.1877C81.2266 92.0282 81.2858 91.8777 81.3975 91.7637C81.5092 91.6498 81.6574 91.5859 81.817 91.5859C81.8398 91.5859 81.8648 91.5859 81.8876 91.5905Z" fill="white"/>
</g>
</g>
<g id="Group_83">
<path id="Vector_127" d="M24.5915 125.264H38.768C38.768 125.264 39.3265 121.109 36.8668 116.196C34.7765 112.02 35.1595 108.047 35.1595 108.047H20.9807C20.9807 108.047 20.7003 113.007 22.8522 116.971C25.1409 121.191 24.5915 125.264 24.5915 125.264Z" fill="white"/>
<path id="Vector_128" d="M32.8627 135.616H47.0391C47.0391 135.616 47.5976 131.46 45.138 126.548C43.0477 122.372 43.4306 118.398 43.4306 118.398H29.2542C29.2542 118.398 28.9738 123.359 31.1257 127.323C33.4143 131.542 32.865 135.616 32.865 135.616H32.8627Z" fill="white"/>
<path id="Vector_129" d="M38.7692 125.544H24.5928C24.5107 125.544 24.4355 125.51 24.3808 125.448C24.3283 125.386 24.3032 125.307 24.3146 125.225C24.3192 125.184 24.823 121.185 22.6073 117.103C20.4417 113.116 20.6902 108.235 20.7016 108.03C20.7107 107.882 20.8338 107.766 20.982 107.766H35.1607C35.2405 107.766 35.3157 107.8 35.3681 107.857C35.4206 107.916 35.4479 107.994 35.4411 108.073C35.4365 108.112 35.0946 112.022 37.1211 116.07C39.5898 121.003 39.0724 125.129 39.0496 125.302C39.0313 125.441 38.9105 125.546 38.7715 125.546L38.7692 125.544ZM24.9028 124.981H38.5116C38.58 124.03 38.6712 120.426 36.615 116.321C34.8233 112.742 34.8119 109.352 34.8575 108.326H21.2555C21.2373 109.398 21.2943 113.505 23.0997 116.836C25.0646 120.456 24.9826 123.928 24.9005 124.983L24.9028 124.981Z" fill="#173DC9"/>
<path id="Vector_130" d="M47.0326 135.89H32.8561C32.7741 135.89 32.6988 135.856 32.6441 135.794C32.5917 135.732 32.5666 135.653 32.578 135.571C32.5826 135.53 33.0863 131.531 30.8706 127.449C28.7074 123.459 28.9558 118.581 28.9672 118.374C28.9763 118.226 29.0994 118.109 29.2476 118.109H43.4241C43.5038 118.109 43.5791 118.144 43.6315 118.201C43.6839 118.26 43.7113 118.337 43.7044 118.417C43.6999 118.456 43.358 122.365 45.3845 126.414C47.8532 131.347 47.3357 135.473 47.313 135.646C47.2947 135.785 47.1739 135.89 47.0348 135.89H47.0326ZM33.1661 135.327H46.775C46.8434 134.376 46.9345 130.772 44.8784 126.667C43.0867 123.086 43.0753 119.698 43.1209 118.672H29.5211C29.5029 119.744 29.5599 123.852 31.3653 127.182C33.3303 130.802 33.2482 134.274 33.1661 135.329V135.327Z" fill="#173DC9"/>
</g>
</g>
</g>
</g>
</g>
</g>
</svg>
