<svg width="46" height="41" viewBox="0 0 46 41" fill="none" xmlns="http://www.w3.org/2000/svg">
<path d="M22.5517 6C22.9255 6 23.2841 6.17587 23.5484 6.48893C23.8128 6.80198 23.9613 7.22658 23.9613 7.6693V12.6772C23.9613 13.1199 23.8128 13.5445 23.5484 13.8576C23.2841 14.1706 22.9255 14.3465 22.5517 14.3465C22.1778 14.3465 21.8193 14.1706 21.555 13.8576C21.2906 13.5445 21.1421 13.1199 21.1421 12.6772V7.6693C21.1421 7.22658 21.2906 6.80198 21.555 6.48893C21.8193 6.17587 22.1778 6 22.5517 6ZM10.5195 11.7825C10.7838 11.4695 11.1423 11.2937 11.5161 11.2937C11.8898 11.2937 12.2483 11.4695 12.5127 11.7825L15.0922 14.834C15.2232 14.9892 15.3272 15.1734 15.3981 15.3762C15.4691 15.579 15.5056 15.7963 15.5056 16.0158C15.5056 16.2353 15.4691 16.4527 15.3981 16.6554C15.3272 16.8582 15.2232 17.0425 15.0922 17.1977C14.9611 17.3529 14.8055 17.476 14.6343 17.56C14.4631 17.644 14.2795 17.6872 14.0942 17.6872C13.9089 17.6872 13.7253 17.644 13.5541 17.56C13.3829 17.476 13.2273 17.3529 13.0962 17.1977L10.5195 14.1429C10.2553 13.8298 10.1068 13.4053 10.1068 12.9627C10.1068 12.52 10.2553 12.0955 10.5195 11.7825ZM5.63672 26.0316C5.63672 25.5889 5.78523 25.1643 6.04958 24.8513C6.31392 24.5382 6.67246 24.3623 7.0463 24.3623H11.5175C11.8913 24.3623 12.2499 24.5382 12.5142 24.8513C12.7786 25.1643 12.9271 25.5889 12.9271 26.0316C12.9271 26.4744 12.7786 26.899 12.5142 27.212C12.2499 27.5251 11.8913 27.7009 11.5175 27.7009H7.0463C6.67246 27.7009 6.31392 27.5251 6.04958 27.212C5.78523 26.899 5.63672 26.4744 5.63672 26.0316ZM32.4188 26.0316C32.4188 25.5889 32.5673 25.1643 32.8316 24.8513C33.096 24.5382 33.4545 24.3623 33.8283 24.3623H38.0571C38.4309 24.3623 38.7895 24.5382 39.0538 24.8513C39.3181 25.1643 39.4667 25.5889 39.4667 26.0316C39.4667 26.4744 39.3181 26.899 39.0538 27.212C38.7895 27.5251 38.4309 27.7009 38.0571 27.7009H33.8283C33.4545 27.7009 33.096 27.5251 32.8316 27.212C32.5673 26.899 32.4188 26.4744 32.4188 26.0316ZM34.5444 11.8559C34.3491 11.6258 34.0878 11.4912 33.8126 11.4789C33.5373 11.4665 33.2682 11.5773 33.0587 11.7891L21.2746 23.728C21 24.002 20.7771 24.3411 20.6202 24.7235C20.4633 25.1059 20.3759 25.5231 20.3637 25.948C20.3514 26.373 20.4147 26.7962 20.5493 27.1904C20.6839 27.5845 20.8868 27.9408 21.145 28.2363C21.4032 28.5317 21.7109 28.7597 22.0482 28.9054C22.3854 29.0512 22.7448 29.1115 23.1029 29.0824C23.4611 29.0534 23.8102 28.9356 24.1275 28.7367C24.4448 28.5379 24.7234 28.2623 24.9452 27.928L34.6262 13.582C34.7946 13.3323 34.8794 13.0178 34.8643 12.6988C34.8492 12.3797 34.7353 12.0784 34.5444 11.8526V11.8559Z" fill="#00AEEF"/>
<path opacity="0.5" fill-rule="evenodd" clip-rule="evenodd" d="M1.49636e-05 26.6849C0.00296203 22.7981 0.722207 18.9589 2.10754 15.4353C3.49287 11.9117 5.51091 8.78861 8.02077 6.28409C10.5306 3.77957 13.4718 1.95396 16.639 0.934704C19.8062 -0.0845526 23.1231 -0.272893 26.3581 0.382831C29.5932 1.03855 32.6684 2.52254 35.369 4.73119C38.0697 6.93984 40.3308 9.81993 41.9945 13.1704C43.6581 16.5209 44.6842 20.261 45.0012 24.1296C45.3181 27.9982 44.9183 31.9022 43.8295 35.5689C42.5834 39.7522 38.6282 40.9174 35.5637 39.7422C31.8819 38.3299 26.7116 36.7007 22.5533 36.7007C18.3979 36.7007 13.2219 38.3299 9.54287 39.7422C6.47845 40.9174 2.52316 39.7522 1.27709 35.5689C0.428927 32.7148 -0.0029303 29.7106 1.49636e-05 26.6849ZM22.5533 3.31463C19.3969 3.31366 16.2863 4.20935 13.4827 5.92653C10.679 7.6437 8.26411 10.1323 6.44057 13.1833C4.61704 16.2344 3.43811 19.759 3.00272 23.4612C2.56734 27.1635 2.8882 30.9355 3.93838 34.4605C4.51067 36.3802 6.54047 37.3851 8.67457 36.5638C12.3959 35.1416 17.9242 33.3621 22.5533 33.3621C27.1824 33.3621 32.7136 35.1382 36.432 36.5672C38.5661 37.3851 40.5959 36.3802 41.1682 34.4605C42.2184 30.9355 42.5393 27.1635 42.1039 23.4612C41.6685 19.759 40.4896 16.2344 38.666 13.1833C36.8425 10.1323 34.4276 7.6437 31.6239 5.92653C28.8203 4.20935 25.7097 3.31366 22.5533 3.31463Z" fill="#00AEEF"/>
</svg>
