<svg width="18" height="18" viewBox="0 0 18 18" fill="none" xmlns="http://www.w3.org/2000/svg">
<g id="Group 3710">
<path id="Vector" d="M8.5 14L9.375 12.1333V7.33413C10.8809 6.91693 12 5.46747 12 3.73333C12 1.6744 10.4303 0 8.5 0C6.56975 0 5 1.6744 5 3.73333C5 5.46747 6.11913 6.91693 7.625 7.33413V12.1333L8.5 14ZM6.75 3.73333C6.75 2.70387 7.53487 1.86667 8.5 1.86667C9.46513 1.86667 10.25 2.70387 10.25 3.73333C10.25 4.7628 9.46513 5.6 8.5 5.6C7.53487 5.6 6.75 4.7628 6.75 3.73333Z" fill="#606060"/>
<path id="Vector_2" d="M12.8403 8.00087L12.3606 9.68648C14.6925 10.3125 16.2 11.5163 16.2 12.7543C16.2 14.4085 13.2435 16.2514 9 16.2514C4.7565 16.2514 1.8 14.4085 1.8 12.7543C1.8 11.5163 3.3075 10.3125 5.6403 9.68561L5.1606 8C1.9773 8.85504 0 10.6762 0 12.7543C0 15.6954 3.9537 18 9 18C14.0463 18 18 15.6954 18 12.7543C18 10.6762 16.0227 8.85504 12.8403 8.00087Z" fill="#606060"/>
</g>
</svg>
