<svg width="40" height="40" viewBox="0 0 40 40" fill="none" xmlns="http://www.w3.org/2000/svg">
<rect x="0.5" y="0.5" width="39" height="39" rx="3.5" fill="#ED1C24" fill-opacity="0.1" stroke="#ED1C24"/>
<path d="M17.9545 13.3333H22.0455C22.0455 12.7808 21.83 12.2509 21.4464 11.8602C21.0628 11.4695 20.5425 11.25 20 11.25C19.4575 11.25 18.9372 11.4695 18.5536 11.8602C18.17 12.2509 17.9545 12.7808 17.9545 13.3333ZM16.7273 13.3333C16.7273 12.4493 17.0721 11.6014 17.6858 10.9763C18.2996 10.3512 19.132 10 20 10C20.868 10 21.7004 10.3512 22.3142 10.9763C22.9279 11.6014 23.2727 12.4493 23.2727 13.3333H28.3864C28.5491 13.3333 28.7052 13.3992 28.8203 13.5164C28.9354 13.6336 29 13.7926 29 13.9583C29 14.1241 28.9354 14.2831 28.8203 14.4003C28.7052 14.5175 28.5491 14.5833 28.3864 14.5833H27.3145L26.3188 26.7525C26.2464 27.6378 25.8499 28.463 25.2081 29.0645C24.5663 29.666 23.726 29.9999 22.8538 30H17.1462C16.274 29.9999 15.4337 29.666 14.7919 29.0645C14.1501 28.463 13.7536 27.6378 13.6812 26.7525L12.6855 14.5833H11.6136C11.4509 14.5833 11.2948 14.5175 11.1797 14.4003C11.0647 14.2831 11 14.1241 11 13.9583C11 13.7926 11.0647 13.6336 11.1797 13.5164C11.2948 13.3992 11.4509 13.3333 11.6136 13.3333H16.7273ZM14.9044 26.6483C14.9512 27.2212 15.2076 27.7552 15.6228 28.1445C16.0381 28.5338 16.5818 28.7499 17.1462 28.75H22.8538C23.4182 28.7499 23.9619 28.5338 24.3772 28.1445C24.7924 27.7552 25.0488 27.2212 25.0956 26.6483L26.084 14.5833H13.9168L14.9044 26.6483ZM18.1591 17.5C18.3218 17.5 18.4779 17.5658 18.593 17.6831C18.7081 17.8003 18.7727 17.9592 18.7727 18.125V25.2083C18.7727 25.3741 18.7081 25.5331 18.593 25.6503C18.4779 25.7675 18.3218 25.8333 18.1591 25.8333C17.9963 25.8333 17.8403 25.7675 17.7252 25.6503C17.6101 25.5331 17.5455 25.3741 17.5455 25.2083V18.125C17.5455 17.9592 17.6101 17.8003 17.7252 17.6831C17.8403 17.5658 17.9963 17.5 18.1591 17.5ZM22.4545 18.125C22.4545 17.9592 22.3899 17.8003 22.2748 17.6831C22.1597 17.5658 22.0037 17.5 21.8409 17.5C21.6782 17.5 21.5221 17.5658 21.407 17.6831C21.2919 17.8003 21.2273 17.9592 21.2273 18.125V25.2083C21.2273 25.3741 21.2919 25.5331 21.407 25.6503C21.5221 25.7675 21.6782 25.8333 21.8409 25.8333C22.0037 25.8333 22.1597 25.7675 22.2748 25.6503C22.3899 25.5331 22.4545 25.3741 22.4545 25.2083V18.125Z" fill="#ED1C24"/>
</svg>
