<svg xmlns="http://www.w3.org/2000/svg" width="42" height="42" viewBox="0 0 42 42" fill="none">
  <g filter="url(#filter0_d_4365_41741)">
    <circle cx="20" cy="20" r="15" fill="white"/>
  </g>
  <path d="M26 15.4H16H26ZM26 15.4L23.7778 17.8L26 15.4ZM26 15.4L23.7778 13L26 15.4ZM16 22.6H26H16ZM16 22.6L18.2222 25L16 22.6ZM16 22.6L18.2222 20.2L16 22.6Z" fill="#00A651"/>
  <path d="M16 22.6L18.2222 20.2M26 15.4H16H26ZM26 15.4L23.7778 17.8L26 15.4ZM26 15.4L23.7778 13L26 15.4ZM16 22.6H26H16ZM16 22.6L18.2222 25L16 22.6Z" stroke="#00AEEF" stroke-linecap="round" stroke-linejoin="round"/>
  <defs>
    <filter id="filter0_d_4365_41741" x="0" y="0" width="42" height="42" filterUnits="userSpaceOnUse" color-interpolation-filters="sRGB">
      <feFlood flood-opacity="0" result="BackgroundImageFix"/>
      <feColorMatrix in="SourceAlpha" type="matrix" values="0 0 0 0 0 0 0 0 0 0 0 0 0 0 0 0 0 0 127 0" result="hardAlpha"/>
      <feOffset dx="1" dy="1"/>
      <feGaussianBlur stdDeviation="3"/>
      <feComposite in2="hardAlpha" operator="out"/>
      <feColorMatrix type="matrix" values="0 0 0 0 0 0 0 0 0 0 0 0 0 0 0 0 0 0 0.12 0"/>
      <feBlend mode="normal" in2="BackgroundImageFix" result="effect1_dropShadow_4365_41741"/>
      <feBlend mode="normal" in="SourceGraphic" in2="effect1_dropShadow_4365_41741" result="shape"/>
    </filter>
  </defs>
</svg>