<svg width="24" height="24" viewBox="0 0 24 24" fill="none" xmlns="http://www.w3.org/2000/svg">
<g clip-path="url(#clip0_819_15554)">
<path fill-rule="evenodd" clip-rule="evenodd" d="M12.7044 15.7083C12.5169 15.8958 12.2626 16.0011 11.9974 16.0011C11.7322 16.0011 11.4779 15.8958 11.2904 15.7083L5.63341 10.0513C5.5379 9.95907 5.46172 9.84873 5.40931 9.72672C5.3569 9.60472 5.32932 9.4735 5.32816 9.34072C5.32701 9.20794 5.35231 9.07626 5.40259 8.95337C5.45287 8.83047 5.52713 8.71882 5.62102 8.62492C5.71491 8.53103 5.82656 8.45678 5.94946 8.4065C6.07236 8.35622 6.20404 8.33092 6.33681 8.33207C6.46959 8.33322 6.60081 8.36081 6.72282 8.41322C6.84482 8.46563 6.95517 8.54181 7.04741 8.63732L11.9974 13.5873L16.9474 8.63732C17.136 8.45516 17.3886 8.35437 17.6508 8.35665C17.913 8.35892 18.1638 8.46409 18.3492 8.6495C18.5346 8.83491 18.6398 9.08572 18.6421 9.34792C18.6444 9.61011 18.5436 9.86272 18.3614 10.0513L12.7044 15.7083Z" fill="#505050"/>
</g>
<defs>
<clipPath id="clip0_819_15554">
<rect width="24" height="24" fill="white"/>
</clipPath>
</defs>
</svg>
