<svg width="37" height="37" viewBox="0 0 37 37" fill="none" xmlns="http://www.w3.org/2000/svg">
<path d="M25.5396 36.0001C25.2883 35.8276 25.1828 35.5859 25.1561 35.2846C25.1226 34.888 25.0691 34.4933 24.9959 34.1021C24.9775 34.0452 24.9475 33.9928 24.9077 33.9481C24.868 33.9034 24.8194 33.8675 24.7651 33.8426C24.0378 33.529 23.306 33.2266 22.5696 32.9354C22.5129 32.9137 22.4523 32.9042 22.3916 32.9074C22.331 32.9105 22.2717 32.9264 22.2176 32.9539C21.8622 33.2004 21.5328 33.479 21.1849 33.7392C20.837 33.9994 20.5919 33.996 20.2796 33.6933C19.9673 33.3907 19.6475 33.0689 19.3387 32.7505C19.0298 32.4321 19.0216 32.2027 19.2928 31.8453C19.5955 31.4468 19.9036 31.0538 20.2166 30.6491C19.734 29.8993 19.3803 29.074 19.1702 28.2074C19.1504 28.1259 19.0004 28.0369 18.8963 28.0198C18.4923 27.9513 18.0848 27.9109 17.678 27.8637C17.2103 27.8089 17.037 27.6261 17.0316 27.155C17.0261 26.7113 17.0227 26.2649 17.0316 25.8233C17.0411 25.4172 17.1945 25.2488 17.5972 25.1892C18.0245 25.1262 18.4532 25.0666 18.8826 25.0201C19.0641 25.0009 19.1312 24.9311 19.2003 24.7462C19.4743 24.0156 19.7811 23.296 20.0995 22.5825C20.168 22.425 20.1844 22.3319 20.0735 22.1963C19.7995 21.8615 19.5393 21.5157 19.2791 21.1693C19.0189 20.8228 19.0346 20.5893 19.3236 20.2921C19.6432 19.9658 19.9653 19.6437 20.2899 19.326C20.5871 19.0371 20.8268 19.0247 21.1671 19.2801C21.5075 19.5355 21.8574 19.8012 22.1943 20.0744C22.3313 20.1846 22.4224 20.1751 22.5812 20.1038C23.2941 19.7848 24.0139 19.4787 24.7439 19.2028C24.9253 19.1343 24.9938 19.0658 25.013 18.8844C25.0596 18.4434 25.1226 18.0038 25.189 17.5656C25.2431 17.2089 25.4218 17.0452 25.7841 17.0363C26.2634 17.024 26.7428 17.0254 27.2188 17.0363C27.6084 17.0439 27.7974 17.2205 27.8508 17.6122C27.9077 18.0292 27.9611 18.4468 28.0015 18.8659C28.0207 19.0624 28.1022 19.1398 28.298 19.2082C29.0965 19.4903 29.882 19.8094 30.7414 20.1415C31.04 19.9114 31.4262 19.6115 31.8138 19.3144C32.2014 19.0172 32.4301 19.0261 32.7725 19.3609C33.0738 19.6558 33.3717 19.9539 33.6662 20.2552C33.9977 20.5934 34.0086 20.8283 33.7162 21.2138C33.4614 21.5486 33.1944 21.8752 32.9485 22.2162C32.9194 22.2588 32.8997 22.3073 32.891 22.3582C32.8823 22.4091 32.8846 22.4614 32.8979 22.5113C33.2526 23.3179 33.6231 24.1176 34.025 24.9968C34.3592 25.0406 34.8187 25.1146 35.2817 25.1577C35.5823 25.1865 35.8247 25.2899 35.9973 25.5411V27.4549C35.8384 27.7411 35.5864 27.85 35.2687 27.8733C34.8948 27.9007 34.5243 27.9705 34.1504 28.0068C33.9682 28.0246 33.8895 28.0999 33.8217 28.2766C33.5409 29.0051 33.2259 29.7206 32.941 30.4478C32.9181 30.5088 32.9082 30.5739 32.9117 30.6389C32.9152 30.704 32.9322 30.7676 32.9615 30.8258C33.2053 31.1818 33.4854 31.5105 33.745 31.8597C34.0045 32.2089 33.9894 32.4389 33.6998 32.7368C33.3829 33.0632 33.0608 33.3852 32.7335 33.7029C32.4349 33.9932 32.1994 34.0035 31.8576 33.7468C31.5159 33.49 31.1797 33.2079 30.8236 32.9641C30.7325 32.9018 30.5551 32.9011 30.4456 32.9443C29.7183 33.2291 28.9965 33.5272 28.2802 33.8385C28.1706 33.8864 28.0433 34.0124 28.0213 34.1213C27.9479 34.5011 27.8976 34.885 27.8707 35.2709C27.8474 35.5907 27.7392 35.8406 27.453 35.9995L25.5396 36.0001ZM17.5821 27.2988C18.1615 27.3762 18.7011 27.4604 19.2435 27.5159C19.5037 27.5419 19.6201 27.6528 19.6688 27.9089C19.8315 28.7844 20.1758 29.6161 20.6795 30.3506C20.8473 30.5936 20.8165 30.7689 20.6412 30.986C20.2988 31.4057 19.9762 31.8439 19.6824 32.2308L20.7891 33.364C21.1966 33.0497 21.6273 32.7341 22.0375 32.3931C22.2696 32.2 22.4566 32.2027 22.7059 32.3698C23.4013 32.8498 24.1899 33.178 25.0205 33.3332C25.3821 33.3975 25.5095 33.5783 25.5389 33.922C25.5814 34.4287 25.6615 34.9327 25.7259 35.438H27.3009C27.3742 34.8902 27.4653 34.365 27.5064 33.8344C27.531 33.5215 27.6735 33.4003 27.9597 33.3462C28.8124 33.1855 29.6224 32.8498 30.3387 32.3602C30.577 32.1993 30.7578 32.2034 30.979 32.3842C31.3995 32.7265 31.8378 33.0525 32.2576 33.3763L33.3745 32.2596C33.043 31.8296 32.7068 31.3872 32.3623 30.9511C32.2295 30.7826 32.1699 30.6272 32.3055 30.4279C32.8328 29.6547 33.1957 28.7815 33.3717 27.8623C33.4163 27.6329 33.5402 27.5432 33.7655 27.52C34.3181 27.4597 34.868 27.383 35.4364 27.3063V25.7315C34.9187 25.663 34.4031 25.5884 33.8847 25.5398C33.5697 25.5103 33.3971 25.3898 33.3368 25.0605C33.1856 24.2292 32.8605 23.4391 32.3829 22.742C32.2 22.4723 32.1946 22.271 32.4096 22.0169C32.752 21.6123 33.0629 21.1802 33.3437 20.8153L32.2178 19.6862C31.8268 19.9881 31.3961 20.3072 30.9852 20.6448C30.7695 20.8214 30.5928 20.8502 30.349 20.6804C29.6155 20.1754 28.7835 19.831 27.9077 19.6697C27.6543 19.6211 27.5413 19.504 27.5146 19.2445C27.4584 18.6933 27.3735 18.1449 27.2996 17.5903H25.7245C25.656 18.1284 25.5827 18.6454 25.5307 19.1651C25.5006 19.4629 25.3937 19.6232 25.0671 19.6848C24.2031 19.8486 23.3831 20.1917 22.66 20.692C22.4484 20.8379 22.2827 20.8379 22.0806 20.6735C21.6506 20.3223 21.2041 19.9888 20.785 19.6677L19.6646 20.7886C19.981 21.1994 20.3043 21.6369 20.6508 22.056C20.8343 22.2778 20.8357 22.4572 20.6727 22.6927C20.2063 23.3814 19.8756 24.1527 19.6982 24.9653C19.5797 25.4836 19.577 25.4775 19.0271 25.5411C18.5477 25.5973 18.0642 25.6678 17.5821 25.7315V27.2988Z" fill="#00AEEF" stroke="#00AEEF"/>
<path d="M14.7232 16.8679C13.8158 17.2102 12.9995 17.5095 12.1894 17.8265C12.1439 17.8483 12.1037 17.8798 12.0715 17.9187C12.0394 17.9575 12.016 18.003 12.0031 18.0518C11.9271 18.5002 11.8785 18.9535 11.8114 19.4041C11.7525 19.8019 11.5792 19.9573 11.1738 19.9648C10.7184 19.9744 10.2624 19.9737 9.80422 19.9648C9.37416 19.9573 9.19269 19.7827 9.1379 19.3486C9.08723 18.9419 9.02971 18.5358 8.99204 18.1284C8.97355 17.923 8.87905 17.8628 8.69141 17.7909C7.97145 17.517 7.26108 17.2203 6.56029 16.9008C6.38156 16.8186 6.28637 16.8275 6.1453 16.9398C5.80929 17.2137 5.46688 17.4784 5.11809 17.7341C4.79486 17.9737 4.55244 17.9593 4.2655 17.6827C3.93177 17.3568 3.60284 17.0258 3.2787 16.6899C3.01368 16.416 2.99929 16.1715 3.22597 15.8682C3.48277 15.5204 3.74573 15.176 4.02034 14.8411C4.14703 14.6871 4.14292 14.5775 4.05869 14.3906C3.74231 13.6894 3.45332 12.9753 3.17734 12.2563C3.10886 12.0852 3.04929 12.0009 2.85891 11.9825C2.42885 11.9421 2.00085 11.8791 1.57284 11.8154C1.16196 11.7551 1.00582 11.5709 1.00171 11.1512C0.999429 10.7062 0.999429 10.2613 1.00171 9.81671C1.00582 9.39424 1.18866 9.19568 1.61119 9.14295C2.01797 9.09228 2.42337 9.03477 2.83152 8.99779C3.02806 8.97999 3.10544 8.89714 3.18008 8.70747C3.45401 7.98853 3.74802 7.27734 4.06211 6.57391C4.13676 6.40547 4.15936 6.30002 4.03609 6.15418C3.76765 5.82962 3.51632 5.49069 3.26294 5.15518C2.99245 4.79708 3.0034 4.56701 3.30951 4.25342C3.61562 3.93982 3.93406 3.62142 4.25112 3.31057C4.56819 2.99971 4.79417 2.99354 5.1537 3.26469C5.4961 3.52556 5.83234 3.80287 6.18776 4.04937C6.24162 4.07651 6.30054 4.09217 6.36078 4.09536C6.42102 4.09854 6.48126 4.08917 6.53769 4.06786C7.27454 3.77685 8.00729 3.47558 8.73318 3.15856C8.79238 3.12944 8.84483 3.08826 8.88716 3.03767C8.9295 2.98709 8.96079 2.92821 8.97903 2.86482C9.05367 2.45399 9.08791 2.03015 9.14133 1.61248C9.19474 1.1948 9.3906 1.00787 9.81518 1.00377C10.2598 0.998745 10.7041 0.998745 11.1478 1.00377C11.5676 1.00787 11.7504 1.16399 11.8121 1.5755C11.8758 2.00345 11.9422 2.43139 11.9812 2.86139C11.999 3.0538 12.0826 3.11405 12.2551 3.17978C12.9735 3.45367 13.6878 3.74536 14.3897 4.06033C14.5746 4.14318 14.6835 4.15276 14.8389 4.02267C15.1622 3.74878 15.5004 3.50023 15.8374 3.24757C16.1743 2.99491 16.4126 3.01135 16.7153 3.3044C17.0349 3.61389 17.3492 3.92772 17.6583 4.24588C17.9644 4.56085 17.9781 4.79365 17.711 5.15176C17.4583 5.48864 17.2029 5.82415 16.9365 6.15007C16.8214 6.29044 16.818 6.38698 16.8995 6.5609C17.2191 7.26068 17.5158 7.97118 17.7898 8.69241C17.8582 8.88071 17.9267 8.9752 18.1267 8.99368C18.5232 9.02997 18.9176 9.08886 19.3128 9.13611C19.7921 9.19362 19.9579 9.36891 19.964 9.83999C19.9702 10.2837 19.9722 10.7301 19.964 11.1724C19.9551 11.5778 19.7997 11.7503 19.4018 11.8099C18.9635 11.8784 18.5211 11.9208 18.0849 12.0009C18.0277 12.0173 17.9745 12.0454 17.9287 12.0835C17.883 12.1216 17.8457 12.1688 17.8192 12.2221C17.4996 12.9584 17.1901 13.7002 16.8906 14.4474C16.8715 14.4989 16.8635 14.5537 16.867 14.6085C16.8705 14.6632 16.8856 14.7166 16.9112 14.7651C17.1529 15.1075 17.4213 15.4355 17.6761 15.7703C17.9952 16.1893 17.9794 16.3968 17.6014 16.7775C17.3275 17.0514 17.0536 17.3253 16.7797 17.5992C16.3989 17.9778 16.1935 17.9936 15.7744 17.6738C15.3929 17.3855 15.0149 17.0911 14.7232 16.8679ZM16.2298 3.62348C15.825 3.93639 15.4162 4.22603 15.0382 4.55195C14.7643 4.79092 14.5403 4.81077 14.2274 4.59509C13.5621 4.13127 12.8038 3.81772 12.0052 3.6762C11.608 3.60773 11.482 3.4119 11.4539 3.04216C11.4163 2.54711 11.3327 2.05549 11.269 1.56592H9.69534C9.62206 2.11369 9.53372 2.64297 9.4899 3.17431C9.46456 3.46531 9.34403 3.59814 9.06463 3.6495C8.20067 3.81029 7.37971 4.14936 6.65411 4.64507C6.41237 4.80735 6.23295 4.79365 6.0145 4.61494C5.59471 4.27259 5.15781 3.94735 4.74761 3.62964L3.62521 4.74504C3.95734 5.17709 4.29289 5.61942 4.64009 6.05421C4.78801 6.23977 4.81198 6.40615 4.67296 6.60951C4.1562 7.36231 3.80236 8.21471 3.63411 9.11214C3.5848 9.37165 3.44647 9.4634 3.19378 9.48873C2.65278 9.54419 2.11521 9.62568 1.56051 9.70373V11.2745C2.08439 11.3429 2.60142 11.4189 3.12119 11.4662C3.44031 11.4949 3.60055 11.6271 3.66082 11.9544C3.80256 12.7648 4.11666 13.5353 4.58188 14.2139C4.80445 14.5399 4.7928 14.7617 4.54285 15.0534C4.21072 15.4355 3.91694 15.8504 3.62795 16.2236L4.7346 17.3513C5.17082 17.0144 5.61731 16.6837 6.04806 16.3324C6.24802 16.1695 6.41237 16.1613 6.62603 16.3071C7.37046 16.8167 8.21246 17.1664 9.09887 17.3342C9.35704 17.3835 9.45839 17.5108 9.4851 17.7655C9.54263 18.3133 9.62686 18.8611 9.7015 19.4219H11.2567C11.2786 19.2931 11.304 19.1726 11.3197 19.0508C11.3731 18.6331 11.43 18.2154 11.4731 17.797C11.5005 17.5232 11.6101 17.3801 11.9045 17.3246C12.7691 17.1648 13.5903 16.8244 14.3144 16.3256C14.554 16.1599 14.7307 16.175 14.9499 16.355C15.3696 16.6974 15.8079 17.0233 16.2044 17.3294L17.3303 16.2119C17.0228 15.8086 16.7057 15.3793 16.364 14.9685C16.1743 14.7405 16.1544 14.5577 16.3284 14.305C16.8258 13.5799 17.165 12.7582 17.3241 11.8934C17.3768 11.6196 17.5138 11.5066 17.7733 11.4792C18.2369 11.4299 18.7012 11.3792 19.1614 11.3039C19.2607 11.2875 19.4155 11.167 19.4196 11.0855C19.4449 10.6329 19.4319 10.1789 19.4319 9.70305C18.8608 9.62773 18.3232 9.54351 17.7822 9.4901C17.5138 9.46408 17.3802 9.36343 17.3268 9.08818C17.1631 8.21295 16.8188 7.38141 16.3161 6.64649C16.162 6.4219 16.164 6.25141 16.338 6.03915C16.6893 5.61189 17.0187 5.16614 17.3433 4.74572L16.2298 3.62348Z" fill="#00AEEF" stroke="#00AEEF"/>
<path d="M5.00579 30.0964H13.0009C12.9496 30.0228 12.8943 29.9522 12.8352 29.8848C12.4097 29.4571 11.9828 29.0303 11.5546 28.6044C11.4176 28.4674 11.2992 28.3127 11.4813 28.1388C11.6429 27.984 11.7909 28.0785 11.9237 28.212C12.5592 28.8488 13.1961 29.4844 13.8343 30.1189C14.0179 30.3004 14.0213 30.4613 13.8343 30.6428C13.1947 31.2761 12.5606 31.9143 11.9244 32.551C11.7936 32.6818 11.6457 32.7832 11.4813 32.6277C11.2992 32.4559 11.4094 32.3032 11.5498 32.1628C12.0292 31.6835 12.5085 31.2042 13.0632 30.6564H5.02086C4.50314 30.6564 4.46959 30.6236 4.46959 30.1224C4.46959 27.6962 4.46959 25.27 4.46959 22.8439C4.46959 22.7528 4.44151 22.6439 4.48054 22.5748C4.53875 22.4721 4.64832 22.3262 4.73187 22.3296C4.81541 22.3331 4.93731 22.4666 4.98936 22.5734C5.03387 22.6672 5.00442 22.7973 5.00442 22.911C5.00442 25.1783 5.00442 27.4451 5.00442 29.7115L5.00579 30.0964Z" fill="#00AEEF" stroke="#00AEEF"/>
<path d="M30.5501 12.8335L31.765 11.6092C31.8533 11.5202 31.928 11.397 32.0348 11.3532C32.1601 11.3018 32.3135 11.321 32.4553 11.31C32.4368 11.4518 32.4608 11.6202 32.3916 11.7284C32.2834 11.8968 32.1115 12.0249 31.9663 12.17C31.4829 12.6534 30.9953 13.1321 30.5193 13.6223C30.3139 13.8359 30.1365 13.862 29.916 13.636C29.3031 13.0088 28.6786 12.3926 28.0575 11.7736C27.9205 11.6366 27.7924 11.4812 27.9719 11.3087C28.1513 11.1361 28.3012 11.2518 28.4409 11.3949C28.9087 11.8742 29.3798 12.3474 29.9057 12.8801V4.8347H22.6571C22.555 4.8347 22.4338 4.86277 22.3551 4.81895C22.2606 4.76622 22.1558 4.6553 22.1435 4.55876C22.1339 4.48549 22.2462 4.36567 22.3331 4.31911C22.4201 4.27255 22.5324 4.29446 22.6345 4.29446H29.9482C30.4399 4.29446 30.4714 4.32595 30.4714 4.81963C30.4714 7.35992 30.4714 9.90021 30.4714 12.4405V12.7993L30.5501 12.8335Z" fill="#00AEEF" stroke="#00AEEF"/>
<path d="M30.7017 26.5525C30.6688 28.8709 28.7507 30.7525 26.4689 30.7053C24.1111 30.656 22.2916 28.7593 22.3272 26.3916C22.3642 24.132 24.3001 22.2929 26.61 22.3271C28.8699 22.3634 30.7346 24.2888 30.7017 26.5525ZM22.8696 26.5121C22.8699 27.4789 23.253 28.4063 23.9352 29.0916C24.6173 29.7769 25.5431 30.1643 26.51 30.1692C28.5097 30.1692 30.1594 28.5258 30.1662 26.5196C30.1541 25.5608 29.7649 24.6453 29.0828 23.9712C28.4008 23.297 27.4807 22.9185 26.5216 22.9175C25.5626 22.9166 24.6417 23.2932 23.9582 23.9659C23.2748 24.6386 22.8837 25.5533 22.8696 26.5121V26.5121Z" fill="#00AEEF" stroke="#00AEEF"/>
<path d="M10.5307 6.29732C11.087 6.30509 11.6361 6.42326 12.1462 6.64497C12.6564 6.86667 13.1174 7.1875 13.5025 7.58882C13.8877 7.99014 14.1892 8.46396 14.3897 8.98277C14.5902 9.50157 14.6856 10.055 14.6704 10.611C14.6225 12.8822 12.692 14.7124 10.3849 14.6741C8.12502 14.6371 6.25961 12.709 6.29522 10.4487C6.33151 8.12756 8.24212 6.25555 10.5307 6.29732ZM14.128 10.4837C14.128 8.47197 12.4845 6.8266 10.4814 6.83276C9.75945 6.83209 9.05347 7.04552 8.45281 7.44606C7.85215 7.8466 7.38378 8.41626 7.10695 9.08298C6.83013 9.74971 6.75728 10.4835 6.89761 11.1917C7.03795 11.8998 7.38518 12.5504 7.89537 13.0612C8.40556 13.572 9.0558 13.92 9.76384 14.0613C10.4719 14.2025 11.2059 14.1306 11.8731 13.8547C12.5403 13.5788 13.1106 13.1113 13.512 12.5112C13.9134 11.9111 14.1278 11.2055 14.128 10.4837V10.4837Z" fill="#00AEEF" stroke="#00AEEF"/>
</svg>
