<svg width="70" height="70" viewBox="0 0 70 70" fill="none" xmlns="http://www.w3.org/2000/svg">
<rect width="70" height="70" rx="35" fill="#00A651" fill-opacity="0.1"/>
<path d="M44.8571 30.8626C43.456 29.473 41.6713 28.527 39.7287 28.1441C37.7861 27.7612 35.7727 27.9586 33.9431 28.7114C32.1135 29.4642 30.5498 30.7387 29.4497 32.3736C28.3495 34.0085 27.7623 35.9305 27.7623 37.8966C27.7623 39.8627 28.3495 41.7847 29.4497 43.4196C30.5498 45.0545 32.1135 46.3289 33.9431 47.0818C35.7727 47.8346 37.7861 48.032 39.7287 47.6491C41.6713 47.2662 43.456 46.3202 44.8571 44.9306C46.7336 43.0636 47.7874 40.5339 47.7874 37.8966C47.7874 35.2592 46.7336 32.7296 44.8571 30.8626Z" fill="#00A651"/>
<path d="M54.1581 50.1324L51.0314 47.0284C50.6848 46.6996 50.2238 46.5161 49.7443 46.5161C49.2648 46.5161 48.8038 46.6996 48.4572 47.0284L46.9694 48.5054C46.6286 48.8445 46.4371 49.304 46.4371 49.7831C46.4371 50.2622 46.6286 50.7217 46.9694 51.0608L50.0962 54.1648C50.3629 54.4296 50.6795 54.6396 51.028 54.7829C51.3764 54.9262 51.7499 55 52.1271 55C52.5043 55 52.8778 54.9263 53.2263 54.783C53.5748 54.6397 53.8914 54.4297 54.1582 54.165C54.4249 53.9002 54.6365 53.5859 54.7808 53.2399C54.9252 52.894 54.9995 52.5232 54.9995 52.1488C54.9995 51.7743 54.9253 51.4036 54.7809 51.0576C54.6366 50.7117 54.4248 50.3972 54.1581 50.1324Z" fill="#00A651"/>
<path d="M31.997 15.0538C31.698 15.0269 31.3963 15.0099 31.0927 15V22.1995H36.2922C35.302 18.6964 33.7417 16.0212 31.997 15.0538Z" fill="#00A651"/>
<path d="M30.0766 23.2082H24.6117C24.0866 25.4241 23.8053 27.69 23.7727 29.9662H30.0766V23.2082Z" fill="#00A651"/>
<path d="M43.7588 22.1995C42.6565 20.4721 41.2213 18.9779 39.5357 17.8027C37.85 16.6275 35.9472 15.7945 33.9363 15.3514C35.3724 16.8981 36.5334 19.36 37.3123 22.1995H43.7588Z" fill="#00A651"/>
<path d="M30.0764 22.1993V15.0004C29.7728 15.0101 29.4711 15.0273 29.1721 15.0542C27.4274 16.0217 25.8669 18.6968 24.8766 22.1998L30.0764 22.1993Z" fill="#00A651"/>
<path d="M23.5986 23.2082H16.8146C15.6948 25.2926 15.0739 27.605 15 29.9662H22.7564C22.7973 27.6904 23.0796 25.4252 23.5986 23.2082Z" fill="#00A651"/>
<path d="M17.4087 38.7421C18.511 40.4694 19.9462 41.9635 21.6319 43.1387C23.3175 44.3138 25.2204 45.1468 27.2312 45.5898C25.7951 44.0431 24.6341 41.5814 23.8552 38.7421H17.4087Z" fill="#00A651"/>
<path d="M27.2312 15.3514C25.2203 15.7945 23.3174 16.6276 21.6318 17.8028C19.9462 18.9779 18.511 20.4721 17.4087 22.1995H23.8552C24.634 19.36 25.795 16.898 27.2312 15.3514Z" fill="#00A651"/>
<path d="M22.7562 30.9747H15C15.0738 33.336 15.6948 35.6487 16.8148 37.7332H23.5987C23.0796 35.516 22.7972 33.2507 22.7562 30.9747Z" fill="#00A651"/>
<path d="M26.7808 38.7421H24.8768C25.8659 42.2402 27.4232 44.9148 29.1649 45.8869C29.538 45.9205 29.9168 45.9325 30.2969 45.9403C30.1879 45.8404 30.0733 45.7487 29.9677 45.6439C28.1065 43.7969 26.9755 41.3476 26.7808 38.7421Z" fill="#00A651"/>
<path d="M24.6118 37.7331H26.7481C26.7787 35.2683 27.6487 32.8863 29.2164 30.9747H23.7727C23.8053 33.251 24.0866 35.5171 24.6118 37.7331Z" fill="#00A651"/>
<path d="M36.5572 23.2082H31.0927V29.1874C32.8527 27.8502 34.9809 27.0762 37.1945 26.9682C37.0624 25.7027 36.8496 24.4469 36.5572 23.2082Z" fill="#00A651"/>
<path d="M38.2038 26.9612C40.9793 27.0576 43.6142 28.1972 45.5752 30.1494C45.7864 30.3591 45.9788 30.5798 46.1693 30.8021C46.1718 30.6921 46.1808 30.5791 46.1808 30.4705C46.1832 27.9373 45.5555 25.4427 44.3533 23.2082H37.569C37.8561 24.4455 38.0681 25.6987 38.2038 26.9612Z" fill="#00A651"/>
<path d="M48.3659 45.8586L46.7469 44.2513C46.3958 44.7468 46.0038 45.2124 45.575 45.6434C45.1411 46.0692 44.6729 46.4589 44.1748 46.8086L45.7922 48.4142C45.9151 48.1866 46.0694 47.9772 46.2506 47.7919L47.7394 46.3149C47.926 46.1349 48.1369 45.9813 48.3659 45.8586Z" fill="#00A651"/>
</svg>
