<svg width="70" height="70" viewBox="0 0 70 70" fill="none" xmlns="http://www.w3.org/2000/svg">
<rect width="70" height="70" rx="35" fill="#00A651" fill-opacity="0.1"/>
<path d="M45.3137 43.104C49.1094 43.104 52.1865 39.9467 52.1865 36.052C52.1865 32.1573 49.1094 29 45.3137 29C41.518 29 38.4409 32.1573 38.4409 36.052C38.4409 39.9467 41.518 43.104 45.3137 43.104ZM45.3137 41.104C42.5945 41.104 40.3901 38.8421 40.3901 36.052C40.3901 33.2619 42.5945 31 45.3137 31C48.0329 31 50.2373 33.2619 50.2373 36.052C50.2373 38.8421 48.0329 41.104 45.3137 41.104Z" fill="#00A651"/>
<path d="M45.2472 42.5125C45.3531 42.8127 45.5124 43.2623 45.6732 43.7123C46.0893 44.8834 47.3075 45.1863 48.4091 44.7733C49.5104 44.3604 50.2515 43.3236 49.8372 42.1575C49.6782 41.7068 49.5185 41.2574 49.4119 40.9585C49.2273 40.4406 48.6689 40.1738 48.1638 40.3622L45.8306 41.2322C45.3252 41.4206 45.064 41.9936 45.2472 42.5125Z" fill="#00A651"/>
<path d="M46.5751 44.3922L48.2407 49.0862L49.2397 51.9018C49.6429 53.0382 49.6429 53.0382 49.8536 53.632C50.2152 54.6499 51.1032 55.2455 52.0033 54.9107C52.9043 54.5755 53.2129 53.5336 52.8535 52.5139C52.6798 52.0244 52.0991 50.3886 51.239 47.966C49.9888 44.4451 49.9888 44.4451 49.5722 43.2717C49.3879 42.7527 48.8285 42.4853 48.3227 42.6745L47.1571 43.1105C46.6516 43.2996 46.391 43.8734 46.5751 44.3922ZM47.9835 44.6399C48.0136 44.7247 48.0435 44.8087 48.0745 44.8961L48.74 44.6472L48.6488 44.3904L48.1952 44.1736L47.9835 44.6399Z" fill="#00A651"/>
<path d="M45.263 28.0003C40.9995 28.0348 37.5404 31.6054 37.5404 35.988C37.5404 40.224 40.7682 43.7 44.8322 43.962C44.9434 44.3384 45.0911 44.6385 45.263 44.8774V54C45.263 54.5523 44.8267 55 44.2884 55H17.9746C17.4363 55 17 54.5523 17 54V16C17 15.4477 17.4363 15 17.9746 15H36.4917C36.7502 15 36.9981 15.1054 37.1809 15.2929L44.9775 23.2929C45.1603 23.4804 45.263 23.7348 45.263 24V28.0003ZM45.263 31.7409V40.3012C43.0439 40.2665 41.1483 38.3802 41.1483 35.988C41.1483 33.5978 43.2212 31.7774 45.263 31.7409ZM37.4663 23H41.9356L37.4663 18.4142V23ZM20.9355 21H31.6559C32.1941 21 32.6305 20.5523 32.6305 20C32.6305 19.4477 32.1941 19 31.6559 19H20.9355C20.3972 19 19.9609 19.4477 19.9609 20C19.9609 20.5523 20.3972 21 20.9355 21ZM20.9355 25H31.6559C32.1941 25 32.6305 24.5523 32.6305 24C32.6305 23.4477 32.1941 23 31.6559 23H20.9355C20.3972 23 19.9609 23.4477 19.9609 24C19.9609 24.5523 20.3972 25 20.9355 25ZM20.9355 29H38.478C39.0163 29 39.4526 28.5523 39.4526 28C39.4526 27.4477 39.0163 27 38.478 27H20.9355C20.3972 27 19.9609 27.4477 19.9609 28C19.9609 28.5523 20.3972 29 20.9355 29ZM20.9355 33H34.5797C35.1179 33 35.5542 32.5523 35.5542 32C35.5542 31.4477 35.1179 31 34.5797 31H20.9355C20.3972 31 19.9609 31.4477 19.9609 32C19.9609 32.5523 20.3972 33 20.9355 33ZM20.9355 37H33.6051C34.1433 37 34.5797 36.5523 34.5797 36C34.5797 35.4477 34.1433 35 33.6051 35H20.9355C20.3972 35 19.9609 35.4477 19.9609 36C19.9609 36.5523 20.3972 37 20.9355 37ZM20.9355 41H34.5797C35.1179 41 35.5542 40.5523 35.5542 40C35.5542 39.4477 35.1179 39 34.5797 39H20.9355C20.3972 39 19.9609 39.4477 19.9609 40C19.9609 40.5523 20.3972 41 20.9355 41ZM20.9355 45H38.478C39.0163 45 39.4526 44.5523 39.4526 44C39.4526 43.4477 39.0163 43 38.478 43H20.9355C20.3972 43 19.9609 43.4477 19.9609 44C19.9609 44.5523 20.3972 45 20.9355 45Z" fill="#00A651"/>
</svg>
