<svg width="70" height="70" viewBox="0 0 70 70" fill="none" xmlns="http://www.w3.org/2000/svg">
<rect width="70" height="70" rx="35" fill="#00A651" fill-opacity="0.1"/>
<path fill-rule="evenodd" clip-rule="evenodd" d="M39.7226 15.0637L48.2753 18.805C48.5549 18.9271 48.7262 19.1923 48.7262 19.5028V26.6748C48.7262 32.3068 44.7755 36.6541 39.4294 37.6051C34.0838 36.6541 30.1331 32.3068 30.1331 26.6752V19.5028C30.1331 19.1923 30.3044 18.9271 30.584 18.805L39.1367 15.0637C39.3308 14.9788 39.5285 14.9788 39.7226 15.0637ZM17.6179 42.4359C17.2086 42.4972 16.9255 42.885 16.9851 43.3028C17.0451 43.7206 17.425 44.0095 17.8344 43.9487C18.2437 43.8874 18.5268 43.4996 18.4672 43.0818C18.4071 42.664 18.0272 42.3746 17.6179 42.4359ZM19.1552 40.9911L25.3217 52.1124C25.6197 52.65 25.4325 53.3389 24.9058 53.6435L22.8084 54.8552C22.2816 55.1594 21.6067 54.9684 21.3083 54.4308L15.1418 43.3095C14.8438 42.7718 15.031 42.083 15.5577 41.7784L17.6551 40.5666C18.1819 40.2625 18.8568 40.4535 19.1552 40.9911ZM32.0832 44.0194C31.7309 43.9232 31.5214 43.5537 31.6156 43.1941C31.7099 42.8345 32.0718 42.6206 32.4242 42.7168C34.1224 43.1811 35.7969 43.7273 37.5222 44.0833C38.4053 44.1934 39.1428 43.9178 39.3887 42.9807C39.613 42.1259 39.0854 41.319 38.2935 41.0403C35.4077 40.5018 32.9422 39.4077 30.208 38.5028C28.7018 38.004 27.2674 38.6705 25.9768 39.4336L21.3337 42.1792L25.2445 49.2322L25.5728 49.039C25.7262 48.9316 25.9229 48.8909 26.1166 48.9437L36.4253 51.763C37.7286 52.1195 38.9767 51.9585 40.1302 51.2339L54.3414 42.3022C55.078 41.8392 55.1758 40.5814 54.7393 39.8635C53.7843 38.293 51.1637 39.5808 50.0606 40.237L42.2284 44.8929C40.5815 45.8721 39.1682 45.788 37.3552 45.4221L32.0832 44.0194ZM35.7872 26.906L37.8128 28.9735C38.166 29.334 38.7388 29.334 39.092 28.9735C40.8274 27.2022 41.3472 26.6475 43.0747 24.8672C43.4262 24.5067 43.4244 23.9239 43.0712 23.5652C42.718 23.2064 42.1469 23.2082 41.7955 23.5687L38.4513 27.0134L37.0669 25.6004C36.7137 25.2399 36.1409 25.2399 35.7877 25.6004C35.434 25.9609 35.434 26.5455 35.7872 26.906ZM39.4299 19.5842C35.8122 19.5842 32.8791 22.578 32.8791 26.2704C32.8791 29.9629 35.8118 32.9567 39.4299 32.9567C43.048 32.9567 45.9806 29.9629 45.9806 26.2704C45.9802 22.578 43.0475 19.5842 39.4299 19.5842Z" fill="#00A651"/>
</svg>
