<svg width="70" height="70" viewBox="0 0 70 70" fill="none" xmlns="http://www.w3.org/2000/svg">
<rect width="70" height="70" rx="35" fill="#00A651" fill-opacity="0.1"/>
<path d="M46.9625 17.3404C46.9625 16.0638 45.9312 15 44.6937 15H15.2687C14.0312 15 13 16.0638 13 17.3404V19.1135H46.9625V17.3404Z" fill="#00A651"/>
<path d="M46.9625 20.1773H13V24.2199H46.9625V20.1773Z" fill="#00A651"/>
<path d="M36.4437 32.0922H36.5125C40.4312 32.3759 43.5937 30.3901 45.0375 27.5532C45.3812 26.844 46.2062 26.5603 46.8937 26.7731V25.2837H13V35.7092C13 36.9858 14.0313 38.0496 15.2687 38.0496H34.7937V33.5816C34.7937 32.8723 35.4812 32.0922 36.4437 32.0922ZM20.15 35.2837H15.5437C15.2687 35.2837 15.0625 35 15.0625 34.7163C15.0625 34.4326 15.2687 34.2199 15.5437 34.2199H20.15C20.425 34.2199 20.7 34.4326 20.7 34.7163C20.7 35 20.4937 35.2837 20.15 35.2837ZM27.0937 35.2837H22.4875C22.2125 35.2837 21.9375 35.0709 21.9375 34.7163C21.9375 34.4326 22.1437 34.2199 22.4875 34.2199H27.0937C27.3687 34.2199 27.6437 34.4326 27.6437 34.7163C27.575 35 27.3687 35.2837 27.0937 35.2837ZM33.9687 35.2837H29.3625C29.0875 35.2837 28.8125 35.0709 28.8125 34.7163C28.8125 34.4326 29.0187 34.2199 29.3625 34.2199H33.9687C34.2437 34.2199 34.5187 34.4326 34.5187 34.7163C34.45 35 34.2437 35.2837 33.9687 35.2837Z" fill="#00A651"/>
<path d="M56.4499 33.156C52.5312 33.3688 48.5437 31.3121 46.8937 28.0496C46.6875 27.695 46.2062 27.695 46 28.0496C44.2812 31.383 40.5687 33.5106 36.4437 33.156C36.3062 33.156 36.1687 33.156 36.0312 33.2979C35.8937 33.3688 35.825 33.5106 35.825 33.7234V40.6738C35.825 40.8865 35.825 41.1702 35.825 41.383C36.1 47.3404 40.1562 52.6596 46.2062 54.9291C46.275 54.9291 46.3437 55 46.4124 55C46.4812 55 46.55 55 46.6187 54.9291C52.6 52.6596 56.725 47.3404 57 41.383C57 41.1702 57 40.8865 57 40.6738V33.6525C57 33.4397 56.7937 33.156 56.4499 33.156ZM51.9124 38.617L44.2812 46.4894C44.1437 46.6312 44.0062 46.7021 43.8687 46.7021C43.7312 46.7021 43.5937 46.6312 43.4562 46.4894L40.9124 43.8652C40.7062 43.6525 40.7062 43.227 40.9124 43.0142C41.1187 42.8014 41.5312 42.8014 41.7375 43.0142L43.8687 45.2128L51.0875 37.766C51.2937 37.5532 51.7062 37.5532 51.9124 37.766C52.1875 38.0496 52.1875 38.4043 51.9124 38.617Z" fill="#00A651"/>
</svg>
