<svg width="70" height="70" viewBox="0 0 70 70" fill="none" xmlns="http://www.w3.org/2000/svg">
<rect width="70" height="70" rx="35" fill="#00A651" fill-opacity="0.1"/>
<path d="M55.7032 39.488L51.7663 38.96L49.4969 34.832C48.8948 33.728 47.7369 33.056 46.4863 33.056H42.179C41.7621 33.056 41.4379 33.392 41.4379 33.824V45.968C41.4379 46.4 41.7621 46.736 42.179 46.736H47.6442C47.7832 48.56 49.2653 50 51.0253 50C52.8316 50 54.2674 48.56 54.4063 46.736H55.4716C56.3053 46.736 57 46.016 57 45.152V41.024C57 40.256 56.4442 39.584 55.7032 39.488ZM48.9411 38.816H44.0316C43.939 38.816 43.8927 38.768 43.8927 38.672V35.408C43.8927 35.312 43.939 35.264 44.0316 35.264H46.4863C46.9495 35.264 47.3663 35.504 47.5979 35.936L49.08 38.576C49.1263 38.672 49.0337 38.816 48.9411 38.816ZM51.0253 48.32C50.0527 48.32 49.219 47.504 49.219 46.448C49.219 45.44 50.0063 44.576 51.0253 44.576C51.9979 44.576 52.8316 45.392 52.8316 46.448C52.8316 47.504 52.0442 48.32 51.0253 48.32Z" fill="#00A651"/>
<path d="M38.7515 42.752H17.8168C17.4 42.752 17.0757 43.088 17.0757 43.52V45.92C17.0757 46.352 17.4 46.688 17.8168 46.688H19.5305C19.6694 48.512 21.1515 49.952 22.9115 49.952C24.7178 49.952 26.1536 48.512 26.2926 46.688H38.7052C39.1221 46.688 39.4463 46.352 39.4463 45.92V43.52C39.5389 43.088 39.1684 42.752 38.7515 42.752ZM22.9578 48.32C21.9852 48.32 21.1515 47.504 21.1515 46.448C21.1515 45.44 21.9389 44.576 22.9578 44.576C23.9768 44.576 24.7642 45.392 24.7642 46.448C24.7642 47.504 23.9305 48.32 22.9578 48.32Z" fill="#00A651"/>
<path d="M19.4379 35.696C18.6042 35.696 17.8168 35.552 17.0295 35.36V40.064C17.0295 40.496 17.3537 40.832 17.7705 40.832H38.7053C39.1221 40.832 39.4463 40.496 39.4463 40.064V28.256C39.4463 27.824 39.1221 27.488 38.7053 27.488H28.0526C27.7284 32.096 23.9768 35.696 19.4379 35.696Z" fill="#00A651"/>
<path d="M25.9221 26.672C25.9221 22.976 23.0505 20 19.4842 20C15.9179 20 13 22.976 13 26.672C13 30.368 15.8716 33.344 19.4379 33.344C23.0042 33.344 25.9221 30.32 25.9221 26.672ZM21.7537 31.808C22.0779 31.328 22.3095 30.752 22.5411 30.08C22.9116 30.176 23.2358 30.272 23.56 30.416C23.0505 31.04 22.4484 31.52 21.7537 31.808ZM24.1158 29.648C23.6989 29.456 23.2358 29.312 22.7726 29.168C22.9116 28.544 23.0042 27.872 23.0042 27.152H24.9032C24.8568 28.064 24.5789 28.928 24.1158 29.648ZM24.1158 23.648C24.5789 24.368 24.8568 25.232 24.9032 26.144H23.0042C22.9579 25.424 22.9116 24.752 22.7726 24.128C23.2358 23.984 23.6989 23.84 24.1158 23.648ZM23.5137 22.832C23.1895 22.976 22.8653 23.072 22.4947 23.168C22.3095 22.496 22.0316 21.92 21.7074 21.44C22.4484 21.824 23.0505 22.256 23.5137 22.832ZM19.9474 21.056C20.5958 21.344 21.1979 22.16 21.6147 23.408C21.1053 23.504 20.5032 23.552 19.9474 23.6V21.056ZM19.9474 24.56C20.5958 24.56 21.2442 24.464 21.8463 24.32C21.9389 24.848 22.0316 25.472 22.0779 26.144H19.9474V24.56ZM19.9474 27.152H22.0779C22.0316 27.824 21.9853 28.4 21.8463 28.976C21.2442 28.88 20.5958 28.784 19.9474 28.736V27.152ZM19.9474 29.744C20.5032 29.744 21.0589 29.84 21.6147 29.936C21.1979 31.184 20.5958 32 19.9474 32.288V29.744ZM17.1684 21.488C16.8442 21.968 16.6126 22.544 16.3811 23.216C16.0105 23.072 15.6863 22.976 15.3621 22.832C15.8716 22.256 16.4737 21.824 17.1684 21.488ZM14.76 23.648C15.1768 23.84 15.64 23.984 16.1032 24.128C15.9642 24.752 15.8716 25.424 15.8716 26.144H13.9726C14.0653 25.232 14.3432 24.416 14.76 23.648ZM14.76 29.648C14.2968 28.928 14.0189 28.064 13.9726 27.152H15.8716C15.9179 27.872 15.9642 28.544 16.1032 29.168C15.64 29.312 15.2232 29.456 14.76 29.648ZM15.3621 30.464C15.6863 30.32 16.0105 30.224 16.3811 30.128C16.5663 30.8 16.8442 31.376 17.1684 31.856C16.4737 31.52 15.8716 31.04 15.3621 30.464ZM18.9747 32.24C18.3263 31.952 17.7242 31.136 17.3074 29.888C17.8168 29.792 18.4189 29.744 18.9747 29.696V32.24ZM18.9747 28.736C18.3263 28.784 17.6779 28.832 17.0758 28.976C16.9832 28.448 16.8905 27.824 16.8442 27.152H18.9747V28.736ZM18.9747 26.144H16.8442C16.8905 25.472 16.9368 24.896 17.0758 24.32C17.6779 24.464 18.3263 24.512 18.9747 24.56V26.144ZM18.9747 23.6C18.4189 23.6 17.8632 23.504 17.3074 23.408C17.7242 22.16 18.3263 21.344 18.9747 21.056V23.6Z" fill="#00A651"/>
</svg>
