<svg width="70" height="70" viewBox="0 0 70 70" fill="none" xmlns="http://www.w3.org/2000/svg">
<rect width="70" height="70" rx="35" fill="#00A651" fill-opacity="0.1"/>
<path d="M32.398 33.2307C32.398 33.1424 32.4338 33.0577 32.4974 32.9952C32.5609 32.9328 32.6472 32.8977 32.7371 32.8977H39.2071V21.1539H29.5134V26.9259C29.5134 27.0142 29.4777 27.0989 29.4141 27.1613C29.3505 27.2238 29.2643 27.2589 29.1743 27.2589H25.0283C24.9387 27.2577 24.8531 27.2223 24.7898 27.1601C24.7265 27.0979 24.6904 27.0138 24.6892 26.9259V21.1539H15V40.8497H32.398V33.2307Z" fill="#00A651"/>
<path d="M39.076 20.4878L37.2268 15H29.1879L29.4953 20.4878H39.076Z" fill="#00A651"/>
<path d="M24.7073 20.4878L25.0147 15H16.9803L15.1311 20.4878H24.7073Z" fill="#00A651"/>
<path d="M28.8171 20.4878L28.5097 15H25.6974L25.3855 20.4878H28.8171Z" fill="#00A651"/>
<path d="M28.8352 21.1539H25.3674V26.5973H28.8352V21.1539Z" fill="#00A651"/>
<path d="M48.0554 50.7554C48.0411 50.7738 48.0244 50.7902 48.0056 50.8042C47.9884 50.8256 47.9686 50.845 47.9469 50.8619L45.2702 52.5092C45.2171 52.5409 45.1561 52.5577 45.0939 52.5577C45.0317 52.5577 44.9707 52.5409 44.9176 52.5092C44.863 52.4769 44.8189 52.4302 44.7901 52.3745C44.7613 52.3187 44.7491 52.2562 44.7548 52.1939L44.8769 50.8175H40.6449C40.555 50.8175 40.4687 50.7824 40.4051 50.72C40.3415 50.6575 40.3058 50.5728 40.3058 50.4845C40.3058 50.3962 40.3415 50.3115 40.4051 50.2491C40.4687 50.1866 40.555 50.1515 40.6449 50.1515H44.9537L45.0442 49.117C45.0482 49.0683 45.0636 49.0212 45.0894 48.9794L48.2905 43.8689V33.5637H33.0762V55H48.2814V50.3957L48.0554 50.7554ZM40.6449 38.1724H46.0705C46.1604 38.1724 46.2467 38.2075 46.3103 38.2699C46.3739 38.3324 46.4096 38.4171 46.4096 38.5054C46.4096 38.5937 46.3739 38.6784 46.3103 38.7409C46.2467 38.8033 46.1604 38.8384 46.0705 38.8384H40.6449C40.555 38.8384 40.4687 38.8033 40.4051 38.7409C40.3415 38.6784 40.3058 38.5937 40.3058 38.5054C40.3058 38.4171 40.3415 38.3324 40.4051 38.2699C40.4687 38.2075 40.555 38.1724 40.6449 38.1724ZM40.6449 44.1531H46.0705C46.1604 44.1531 46.2467 44.1882 46.3103 44.2506C46.3739 44.3131 46.4096 44.3978 46.4096 44.4861C46.4096 44.5744 46.3739 44.6591 46.3103 44.7215C46.2467 44.784 46.1604 44.8191 46.0705 44.8191H40.6449C40.555 44.8191 40.4687 44.784 40.4051 44.7215C40.3415 44.6591 40.3058 44.5744 40.3058 44.4861C40.3058 44.3978 40.3415 44.3131 40.4051 44.2506C40.4687 44.1882 40.555 44.1531 40.6449 44.1531ZM34.8667 35.3485C34.8661 35.3046 34.8744 35.2611 34.8912 35.2204C34.9081 35.1797 34.933 35.1428 34.9646 35.1117C34.9963 35.0807 35.0339 35.0562 35.0753 35.0397C35.1167 35.0231 35.1611 35.0149 35.2058 35.0155H38.4159C38.4606 35.0149 38.505 35.0231 38.5464 35.0397C38.5878 35.0562 38.6254 35.0807 38.657 35.1117C38.6887 35.1428 38.7136 35.1797 38.7304 35.2204C38.7473 35.2611 38.7556 35.3046 38.755 35.3485V38.5054C38.755 38.5937 38.7193 38.6784 38.6557 38.7409C38.5921 38.8033 38.5058 38.8384 38.4159 38.8384H35.2058C35.1158 38.8384 35.0296 38.8033 34.966 38.7409C34.9024 38.6784 34.8667 38.5937 34.8667 38.5054V35.3485ZM38.755 50.4712C38.755 50.5595 38.7193 50.6442 38.6557 50.7067C38.5921 50.7691 38.5058 50.8042 38.4159 50.8042H35.2058C35.1158 50.8042 35.0296 50.7691 34.966 50.7067C34.9024 50.6442 34.8667 50.5595 34.8667 50.4712V47.3144C34.8667 47.226 34.9024 47.1413 34.966 47.0789C35.0296 47.0164 35.1158 46.9814 35.2058 46.9814H38.4159C38.5058 46.9814 38.5921 47.0164 38.6557 47.0789C38.7193 47.1413 38.755 47.226 38.755 47.3144V50.4712ZM38.4159 44.8191H35.2058C35.1611 44.8197 35.1167 44.8115 35.0753 44.7949C35.0339 44.7784 34.9963 44.7539 34.9646 44.7229C34.933 44.6918 34.9081 44.6549 34.8912 44.6142C34.8744 44.5735 34.8661 44.53 34.8667 44.4861V41.3337C34.8661 41.2898 34.8744 41.2462 34.8912 41.2055C34.9081 41.1649 34.933 41.1279 34.9646 41.0969C34.9963 41.0658 35.0339 41.0413 35.0753 41.0248C35.1167 41.0083 35.1611 41.0001 35.2058 41.0007H38.4159C38.4606 41.0001 38.505 41.0083 38.5464 41.0248C38.5878 41.0413 38.6254 41.0658 38.657 41.0969C38.6887 41.1279 38.7136 41.1649 38.7304 41.2055C38.7473 41.2462 38.7556 41.2898 38.755 41.3337V44.4861C38.7556 44.53 38.7473 44.5735 38.7304 44.6142C38.7136 44.6549 38.6887 44.6918 38.657 44.7229C38.6254 44.7539 38.5878 44.7784 38.5464 44.7949C38.505 44.8115 38.4606 44.8197 38.4159 44.8191Z" fill="#00A651"/>
<path d="M38.0813 35.6815H35.5449V38.1724H38.0813V35.6815Z" fill="#00A651"/>
<path d="M38.0813 41.6667H35.5449V44.1575H38.0813V41.6667Z" fill="#00A651"/>
<path d="M38.0813 47.6473H35.5449V50.1382H38.0813V47.6473Z" fill="#00A651"/>
<path d="M53.9421 40.0904L53.4131 39.7708L52.12 38.9893L45.8354 49.0237L46.3644 49.3434L47.6575 50.1248L53.9421 40.0904Z" fill="#00A651"/>
<path d="M45.659 49.6986L45.4918 51.5767L47.124 50.5822L45.659 49.6986Z" fill="#00A651"/>
<path d="M54.5028 37.1867C54.3834 37.1143 54.2508 37.0657 54.1123 37.0437C53.9739 37.0217 53.8323 37.0267 53.6959 37.0585C53.5594 37.0903 53.4306 37.1481 53.3169 37.2288C53.2033 37.3094 53.1069 37.4113 53.0333 37.5286L52.4727 38.4166L54.2812 39.5133L54.8419 38.6253C54.989 38.3898 55.0358 38.1069 54.9724 37.8378C54.9089 37.5686 54.7403 37.3348 54.5028 37.1867Z" fill="#00A651"/>
</svg>
