<svg width="16" height="16" viewBox="0 0 16 16" fill="none" xmlns="http://www.w3.org/2000/svg">
<path d="M8 14.8571C8.90049 14.8571 9.79217 14.6798 10.6241 14.3352C11.4561 13.9906 12.212 13.4855 12.8487 12.8487C13.4855 12.212 13.9906 11.4561 14.3352 10.6241C14.6798 9.79217 14.8571 8.90049 14.8571 8C14.8571 7.09951 14.6798 6.20783 14.3352 5.37589C13.9906 4.54394 13.4855 3.78801 12.8487 3.15127C12.212 2.51452 11.4561 2.00943 10.6241 1.66483C9.79217 1.32022 8.90049 1.14286 8 1.14286C6.18137 1.14286 4.43723 1.8653 3.15127 3.15127C1.8653 4.43723 1.14286 6.18137 1.14286 8C1.14286 9.81863 1.8653 11.5628 3.15127 12.8487C4.43723 14.1347 6.18137 14.8571 8 14.8571V14.8571ZM8 16C5.87827 16 3.84344 15.1571 2.34315 13.6569C0.842855 12.1566 0 10.1217 0 8C0 5.87827 0.842855 3.84344 2.34315 2.34315C3.84344 0.842855 5.87827 0 8 0C10.1217 0 12.1566 0.842855 13.6569 2.34315C15.1571 3.84344 16 5.87827 16 8C16 10.1217 15.1571 12.1566 13.6569 13.6569C12.1566 15.1571 10.1217 16 8 16Z" fill="#00AEEF"/>
<path d="M11.8181 4.48247C10.9358 6.51219 9.99867 8.02304 9.00895 9.01162C8.01924 10.0013 6.50953 10.9385 4.48095 11.8208C4.43885 11.8393 4.39213 11.8448 4.34689 11.8363C4.30165 11.8279 4.26001 11.806 4.22741 11.7736C4.19481 11.7411 4.17277 11.6995 4.16418 11.6543C4.15558 11.6091 4.16083 11.5624 4.17924 11.5202C5.06381 9.48933 6.00095 7.97962 6.98838 6.99104C7.97696 6.00362 9.48667 5.06647 11.5175 4.1819C11.5596 4.16369 11.6061 4.15855 11.6512 4.16713C11.6962 4.17571 11.7376 4.19763 11.77 4.23003C11.8024 4.26244 11.8243 4.30383 11.8329 4.34885C11.8415 4.39386 11.8363 4.44042 11.8181 4.48247V4.48247Z" fill="#00AEEF"/>
</svg>
