<svg width="18" height="18" viewBox="0 0 18 18" fill="none" xmlns="http://www.w3.org/2000/svg">
<g id="3643750_draw_edit_pencil_stationary_write_icon 1" clip-path="url(#clip0_2199_19814)">
<g id="Layer 18">
<path id="Vector" d="M1.12451 17.4377C1.04513 17.4382 0.966553 17.4219 0.893936 17.3898C0.821319 17.3578 0.756308 17.3107 0.703178 17.2518C0.650048 17.1928 0.610001 17.1232 0.58567 17.0477C0.561339 16.9721 0.553275 16.8923 0.562008 16.8134L1.06826 12.2177C1.08245 12.0899 1.14002 11.9708 1.23138 11.8802L11.9639 1.15336C12.15 0.966113 12.3713 0.817511 12.615 0.716107C12.8588 0.614704 13.1202 0.5625 13.3842 0.5625C13.6482 0.5625 13.9096 0.614704 14.1534 0.716107C14.3971 0.817511 14.6184 0.966113 14.8045 1.15336L16.8745 3.19524C17.0618 3.38135 17.2104 3.60264 17.3118 3.84639C17.4132 4.09015 17.4654 4.35155 17.4654 4.61555C17.4654 4.87956 17.4132 5.14095 17.3118 5.38471C17.2104 5.62846 17.0618 5.84976 16.8745 6.03586L6.11951 16.7627C6.02897 16.8541 5.90985 16.9117 5.78201 16.9259L1.18638 17.4377H1.12451ZM2.17076 12.5327L1.76013 16.2396L5.46701 15.829L16.0533 5.23711C16.2175 5.07078 16.3095 4.84646 16.3095 4.61274C16.3095 4.37901 16.2175 4.1547 16.0533 3.98836L14.0114 1.94649C13.8451 1.78229 13.6207 1.69022 13.387 1.69022C13.1533 1.69022 12.929 1.78229 12.7626 1.94649L2.17076 12.5327Z" fill="#00AEEF"/>
<path id="Vector_2" d="M14.9176 7.72571C14.77 7.72509 14.6286 7.6665 14.5238 7.56258L10.4345 3.47321C10.3293 3.36505 10.2714 3.21954 10.2735 3.06869C10.2756 2.91784 10.3376 2.77401 10.4457 2.66883C10.5539 2.56366 10.6994 2.50576 10.8502 2.50787C11.0011 2.50998 11.1449 2.57193 11.2501 2.68008L15.317 6.74696C15.4217 6.85235 15.4805 6.99492 15.4805 7.14352C15.4805 7.29213 15.4217 7.43469 15.317 7.54008C15.2663 7.5963 15.2048 7.64171 15.1362 7.67361C15.0676 7.7055 14.9932 7.72322 14.9176 7.72571Z" fill="#00AEEF"/>
<path id="Vector_3" d="M10.4313 6.77573L5.32422 11.8828L6.11971 12.6783L11.2268 7.57123L10.4313 6.77573Z" fill="#00AEEF"/>
</g>
</g>
<defs>
<clipPath id="clip0_2199_19814">
<rect width="18" height="18" fill="white"/>
</clipPath>
</defs>
</svg>
