<svg width="25" height="21" viewBox="0 0 25 21" fill="none" xmlns="http://www.w3.org/2000/svg">
<path d="M20.8512 1.16406C21.8494 1.16406 22.8067 1.5545 23.5125 2.24948C24.2184 2.94445 24.6149 3.88705 24.6149 4.8699V16.7286C24.6149 17.7114 24.2184 18.654 23.5125 19.349C22.8067 20.044 21.8494 20.4344 20.8512 20.4344H4.29071C3.29251 20.4344 2.33519 20.044 1.62935 19.349C0.923513 18.654 0.526978 17.7114 0.526978 16.7286V4.8699C0.526978 3.88705 0.923513 2.94445 1.62935 2.24948C2.33519 1.5545 3.29251 1.16406 4.29071 1.16406H20.8512ZM23.1094 7.03558L12.9533 12.9204C12.8573 12.976 12.75 13.0098 12.6391 13.0195C12.5282 13.0293 12.4165 13.0147 12.312 12.9768L12.1885 12.9204L2.03247 7.03855V16.7286C2.03247 17.3183 2.27039 17.8838 2.6939 18.3008C3.1174 18.7178 3.69179 18.9521 4.29071 18.9521H20.8512C21.4501 18.9521 22.0245 18.7178 22.448 18.3008C22.8715 17.8838 23.1094 17.3183 23.1094 16.7286V7.03558ZM20.8512 2.6464H4.29071C3.69179 2.6464 3.1174 2.88066 2.6939 3.29764C2.27039 3.71463 2.03247 4.28019 2.03247 4.8699V5.31756L12.5709 11.4218L23.1094 5.3146V4.8699C23.1094 4.28019 22.8715 3.71463 22.448 3.29764C22.0245 2.88066 21.4501 2.6464 20.8512 2.6464Z" fill="white" stroke="white" stroke-width="0.5"/>
</svg>
