<svg width="83" height="82" viewBox="0 0 83 82" fill="none" xmlns="http://www.w3.org/2000/svg">
<g id="Layer 2">
<g id="BACKGROUND">
<path id="Vector" d="M77.963 0C78.0806 0.05829 78.2021 0.108318 78.3266 0.149719C80.5831 0.791373 81.9627 2.56661 81.9627 4.91934C81.9755 10.1232 81.9627 15.3248 81.9627 20.5329C81.9627 36.3796 81.9135 52.2285 82.0033 68.0752C82.0204 71.4139 79.8281 73.9099 76.3482 73.6682C74.7569 73.5592 73.1528 73.6511 71.5978 73.6511C71.5978 74.6906 71.7304 75.7066 71.5722 76.6733C71.1615 79.1458 69.6878 80.8312 67.3223 81.6247C64.9567 82.4183 62.7537 81.952 60.9378 80.2388C58.8632 78.2796 56.874 76.2284 54.8699 74.1944C54.7047 74.01 54.5006 73.8645 54.2724 73.7684C54.0443 73.6722 53.7976 73.6278 53.5503 73.6383C48.1347 73.6597 42.7191 73.6533 37.295 73.649C36.0887 73.649 35.2909 72.8833 35.415 71.8802C35.5262 70.9818 36.2171 70.4514 37.3164 70.4493H51.1355C50.4939 69.829 50.0297 69.3799 49.5656 68.9136C47.8288 67.1811 46.0836 65.4551 44.3661 63.6991C43.9939 63.3184 43.7351 63.2456 43.2218 63.5023C40.1968 65.0339 36.8674 65.8688 33.4776 65.9457C30.0879 66.0227 26.724 65.3397 23.6327 63.9469C20.5414 62.5542 17.8011 60.487 15.6129 57.897C13.4247 55.3071 11.8442 52.26 10.9872 48.9795C7.53729 36.1315 16.2488 22.7915 29.3792 20.796C42.0903 18.871 53.6871 27.4264 55.4945 40.1504C56.1568 44.6716 55.3903 49.2869 53.3022 53.3513C53.0198 53.9139 53.0262 54.2326 53.4989 54.701C58.5965 59.7543 63.6734 64.8277 68.7296 69.921C68.8848 70.0971 69.0772 70.2366 69.2928 70.3295C69.5084 70.4223 69.742 70.4661 69.9766 70.4578C72.2972 70.4279 74.6179 70.4578 76.9385 70.4407C78.1448 70.4407 78.7587 69.8204 78.7608 68.6077C78.7608 51.2389 78.7608 33.87 78.7608 16.5012C78.7608 16.3729 78.748 16.2424 78.7373 16.0627H3.20185V68.2291C3.20185 69.9659 3.68523 70.4407 5.45192 70.4407C11.0543 70.4407 16.6566 70.4407 22.259 70.4407C23.0375 70.4407 23.6898 70.6225 24.0492 71.3775C24.5518 72.4298 23.8353 73.5848 22.6076 73.6404C21.8355 73.6746 21.0612 73.6404 20.2869 73.6404C15.4852 73.6404 10.6814 73.5592 5.88182 73.6704C2.95374 73.7388 0.819178 72.6181 0 69.6365V4.00178C0.550396 1.8886 1.88218 0.554674 3.99536 0H77.963ZM78.763 12.7775C78.763 10.2451 78.763 7.79395 78.763 5.34283C78.763 3.70662 78.2539 3.20399 76.6006 3.20399H5.20381C3.77078 3.20827 3.20185 3.76437 3.20185 5.176C3.20185 6.58764 3.20185 8.05703 3.20185 9.49861V12.7775H78.763ZM32.9446 62.7601C38.1259 62.763 43.0963 60.7091 46.7642 57.0496C50.4321 53.3901 52.4974 48.4244 52.5065 43.2432C52.5065 32.504 43.7736 23.7283 33.043 23.7005C30.4783 23.6938 27.9374 24.1923 25.5654 25.1675C23.1933 26.1427 21.0366 27.5756 19.2183 29.3844C17.4001 31.1931 15.9558 33.3423 14.9682 35.7092C13.9805 38.0761 13.4686 40.6143 13.4619 43.179C13.4551 45.7437 13.9536 48.2846 14.9289 50.6566C15.9041 53.0287 17.337 55.1854 19.1457 57.0037C20.9545 58.822 23.1036 60.2662 25.4705 61.2539C27.8374 62.2416 30.3757 62.7534 32.9403 62.7601H32.9446ZM56.5917 62.2746L52.0552 66.8132C52.0552 66.7961 52.0552 66.856 52.0916 66.8902C55.764 70.5669 59.415 74.2628 63.1366 77.8882C63.6221 78.363 64.437 78.6368 65.1364 78.7309C66.4389 78.9105 67.6666 78.0892 68.2142 76.8872C68.7895 75.6231 68.5521 74.2692 67.5062 73.2148C65.1535 70.83 62.7623 68.4623 60.3903 66.0882C59.1113 64.807 57.8365 63.5237 56.5917 62.2746ZM53.9673 59.9347L51.3515 57.321L47.0482 61.6137L49.6683 64.2274L53.9673 59.9347Z" fill="#00AEEF"/>
<path id="Vector_2" d="M65.6553 33.9458C63.7303 33.9458 61.8054 33.9458 59.8933 33.9458C58.7447 33.9458 57.994 33.3042 57.9961 32.3438C57.9982 31.3835 58.7554 30.7482 59.9018 30.7461C63.7432 30.7461 67.5853 30.7461 71.428 30.7461C72.5894 30.7461 73.3188 31.3877 73.3166 32.3481C73.3145 33.3084 72.5873 33.9394 71.4195 33.9437C69.5052 33.9501 67.5803 33.9458 65.6553 33.9458Z" fill="#606060"/>
<path id="Vector_3" d="M69.1867 26.26C68.3611 26.26 67.5333 26.2771 66.7056 26.26C65.7431 26.2344 65.0437 25.5521 65.0352 24.6751C65.0368 24.4609 65.0811 24.2491 65.1654 24.0521C65.2497 23.8551 65.3723 23.6769 65.5262 23.5278C65.6801 23.3787 65.8621 23.2617 66.0617 23.1837C66.2612 23.1056 66.4743 23.068 66.6885 23.0731C68.3418 23.0475 69.9973 23.0496 71.6506 23.0731C72.6259 23.0881 73.3061 23.7683 73.3125 24.658C73.3189 25.5478 72.6366 26.2151 71.6698 26.2643C71.6164 26.2643 71.5629 26.2643 71.5094 26.2643C70.7352 26.2622 69.9609 26.26 69.1867 26.26Z" fill="#606060"/>
<path id="Vector_4" d="M69.7005 41.6312C69.0909 41.6312 68.4792 41.644 67.8675 41.6312C66.8665 41.6034 66.1436 40.9126 66.1564 40.0164C66.1693 39.1202 66.8687 38.4572 67.8269 38.4401C69.1016 38.4158 70.3771 38.4158 71.6533 38.4401C72.6243 38.4572 73.3044 39.1266 73.3173 40.0121C73.3301 40.8976 72.6307 41.5927 71.6169 41.6333H69.6919L69.7005 41.6312Z" fill="#606060"/>
<path id="Vector_5" d="M57.9571 26.2541C57.3988 26.2541 56.8406 26.2776 56.2845 26.2541C55.863 26.2541 55.4588 26.0866 55.1608 25.7886C54.8627 25.4906 54.6953 25.0864 54.6953 24.6649C54.6953 24.2434 54.8627 23.8392 55.1608 23.5412C55.4588 23.2432 55.863 23.0757 56.2845 23.0757C57.3981 23.0373 58.5139 23.0373 59.6318 23.0757C60.0429 23.0908 60.4321 23.2648 60.7176 23.5609C61.0031 23.8571 61.1626 24.2525 61.1626 24.6638C61.1626 25.0752 61.0031 25.4706 60.7176 25.7667C60.4321 26.0629 60.0429 26.2368 59.6318 26.2519C59.0714 26.2776 58.5132 26.2541 57.9571 26.2541Z" fill="#606060"/>
<path id="Vector_6" d="M31.3882 72.1111C31.3827 72.3181 31.3363 72.522 31.2517 72.711C31.1672 72.9001 31.0461 73.0705 30.8954 73.2126C30.7448 73.3547 30.5675 73.4657 30.3739 73.5391C30.1802 73.6125 29.974 73.6469 29.767 73.6403C29.5531 73.6387 29.3417 73.5941 29.1454 73.5091C28.949 73.4241 28.7718 73.3005 28.6242 73.1457C28.4766 72.9909 28.3617 72.8079 28.2862 72.6078C28.2107 72.4076 28.1763 72.1943 28.1849 71.9806C28.1935 71.7669 28.245 71.557 28.3363 71.3636C28.4276 71.1702 28.5569 70.9971 28.7165 70.8546C28.8761 70.7121 29.0626 70.6032 29.2651 70.5343C29.4677 70.4654 29.6819 70.4379 29.8953 70.4534C30.1023 70.4638 30.3052 70.515 30.4924 70.604C30.6796 70.693 30.8473 70.8182 30.986 70.9722C31.1248 71.1262 31.2317 71.3061 31.3007 71.5015C31.3697 71.6969 31.3994 71.9041 31.3882 72.1111Z" fill="#00AEEF"/>
<path id="Vector_7" d="M54.4836 9.60407H37.7685C37.5025 9.61443 37.2361 9.60871 36.9707 9.58696C36.5826 9.54589 36.2232 9.36364 35.9607 9.07486C35.6981 8.78607 35.5509 8.41088 35.547 8.02064C35.543 7.63039 35.6826 7.25229 35.9392 6.95824C36.1958 6.66418 36.5515 6.47467 36.9387 6.42574C37.2038 6.40078 37.4703 6.39292 37.7365 6.40221H71.0875C72.5462 6.40221 73.3033 6.94334 73.314 7.98924C73.3247 9.03513 72.5569 9.60407 71.1195 9.60407H54.4836Z" fill="#606060"/>
<path id="Vector_8" d="M10.2622 9.60128C9.94496 9.60335 9.63426 9.51078 9.36985 9.33539C9.10543 9.16 8.89932 8.90976 8.77783 8.61664C8.65635 8.32353 8.62502 8.00085 8.68783 7.68984C8.75065 7.37882 8.90477 7.0936 9.1305 6.87062C9.35623 6.64763 9.64331 6.49701 9.95507 6.438C10.2668 6.37898 10.5891 6.41426 10.8807 6.53932C11.1723 6.66437 11.42 6.87353 11.5922 7.14007C11.7643 7.4066 11.8531 7.71841 11.8471 8.03565C11.8351 8.45038 11.6636 8.84452 11.3685 9.13611C11.0733 9.4277 10.6771 9.5943 10.2622 9.60128Z" fill="#606060"/>
<path id="Vector_9" d="M18.8783 7.97936C18.8851 8.29676 18.7971 8.60897 18.6254 8.87606C18.4538 9.14315 18.2064 9.35297 17.9149 9.47869C17.6234 9.60441 17.301 9.6403 16.989 9.58179C16.6769 9.52327 16.3895 9.373 16.1633 9.1502C15.9371 8.9274 15.7826 8.64219 15.7194 8.33107C15.6562 8.01995 15.6873 7.69705 15.8086 7.40369C15.93 7.11032 16.1361 6.85982 16.4006 6.68423C16.6651 6.50864 16.9759 6.41595 17.2934 6.418C17.7074 6.42545 18.1027 6.59163 18.3976 6.88221C18.6926 7.17278 18.8646 7.56554 18.8783 7.97936Z" fill="#606060"/>
<path id="Vector_10" d="M24.3091 6.41806C24.6263 6.41469 24.9373 6.50593 25.2023 6.68014C25.4674 6.85435 25.6746 7.10362 25.7973 7.39611C25.9201 7.68861 25.9528 8.01105 25.8915 8.32226C25.8301 8.63347 25.6774 8.91933 25.4528 9.14332C25.2282 9.36732 24.9419 9.51928 24.6305 9.57981C24.3191 9.64034 23.9968 9.60668 23.7046 9.48314C23.4125 9.3596 23.1638 9.15178 22.9903 8.88622C22.8168 8.62067 22.7264 8.30943 22.7306 7.99225C22.741 7.57727 22.9107 7.18221 23.2046 6.88908C23.4986 6.59596 23.8941 6.42728 24.3091 6.41806Z" fill="#606060"/>
<path id="Vector_11" d="M32.9305 59.5583C28.5984 59.5436 24.4493 57.8102 21.3943 54.7387C18.3393 51.6673 16.6282 47.5089 16.6368 43.1769C16.656 34.1937 24.0222 26.8767 33.0417 26.9024C35.1859 26.9097 37.3077 27.3393 39.2859 28.1666C41.2641 28.9939 43.06 30.2027 44.571 31.7241C46.082 33.2454 47.2786 35.0495 48.0924 37.0333C48.9062 39.0171 49.3213 41.1417 49.314 43.286C49.3067 45.4302 48.8772 47.552 48.0499 49.5302C47.2225 51.5084 46.0137 53.3043 44.4924 54.8153C42.971 56.3263 41.1669 57.5229 39.1831 58.3367C37.1993 59.1505 35.0747 59.5656 32.9305 59.5583ZM32.9412 56.35C35.5378 56.3564 38.078 55.5924 40.2403 54.1548C42.4027 52.7172 44.0901 50.6706 45.0891 48.2738C46.088 45.877 46.3537 43.2378 45.8524 40.69C45.3511 38.1422 44.1054 35.8003 42.2729 33.9606C40.4404 32.1209 38.1034 30.8661 35.5576 30.3548C33.0118 29.8436 30.3716 30.0989 27.9709 31.0885C25.5702 32.078 23.517 33.7574 22.0709 35.9142C20.6249 38.0709 19.851 40.6081 19.8472 43.2047C19.8449 46.6849 21.223 50.024 23.6793 52.4895C26.1356 54.955 29.4695 56.3457 32.9497 56.3564L32.9412 56.35Z" fill="#00AEEF"/>
<path id="Vector_12" d="M34.574 46.909C34.574 47.8929 34.589 48.8789 34.574 49.8628C34.559 50.8467 33.8661 51.5739 32.9442 51.5482C32.0545 51.5268 31.3957 50.8509 31.385 49.8671C31.3665 47.8466 31.3665 45.8254 31.385 43.8034C31.385 42.7982 32.1058 42.0924 33.0169 42.1138C33.9281 42.1351 34.5548 42.826 34.574 43.797C34.589 44.8344 34.574 45.8717 34.574 46.909Z" fill="#00AEEF"/>
<path id="Vector_13" d="M34.5698 36.4758C34.5757 36.7932 34.4869 37.1051 34.3147 37.3716C34.1424 37.6382 33.8946 37.8474 33.6029 37.9724C33.3111 38.0974 32.9887 38.1325 32.6769 38.0733C32.3651 38.0141 32.078 37.8633 31.8524 37.6401C31.6267 37.4169 31.4728 37.1315 31.4102 36.8203C31.3477 36.5092 31.3793 36.1864 31.5011 35.8933C31.6229 35.6003 31.8294 35.3502 32.0941 35.175C32.3588 34.9999 32.6697 34.9077 32.987 34.9102C33.4022 34.9156 33.7991 35.0818 34.0942 35.3738C34.3894 35.6657 34.5599 36.0608 34.5698 36.4758Z" fill="#00AEEF"/>
</g>
</g>
</svg>
