<svg width="71" height="82" viewBox="0 0 71 82" fill="none" xmlns="http://www.w3.org/2000/svg">
<g id="Layer 2">
<g id="BACKGROUND">
<path id="Vector" d="M13.1792 82C12.1448 81.448 11.7778 80.59 11.8464 79.4326C11.9194 78.1488 11.8464 76.8651 11.8679 75.5921C11.928 72.447 14.203 70.0977 17.3665 69.948C18.5641 69.8902 19.7659 69.948 21.0773 69.948V69.0002C21.0773 66.544 21.0773 64.0885 21.0773 61.6337C21.0773 60.2238 21.5065 59.6546 22.865 59.2802C26.6681 58.2105 29.1384 55.0825 29.3208 51.15C29.3552 50.4503 29.2006 50.031 28.4623 49.6865C24.1699 47.6732 21.1159 44.3163 18.6842 40.3646C17.6541 38.6893 16.8535 36.875 15.9156 35.1398C15.7386 34.7934 15.4746 34.4986 15.1494 34.284C6.97455 29.4144 1.91165 22.3561 0.123865 13.0084C-0.620868 9.11658 2.07262 5.86234 6.05383 5.81099C7.77079 5.78959 9.48775 5.81099 11.1918 5.81099C11.3554 5.79842 11.5181 5.77627 11.679 5.74466C11.679 5.18197 11.6662 4.62782 11.679 4.07582C11.7499 1.67312 13.4303 0 15.8298 0C28.7328 0 41.6357 0 54.5387 0C56.9489 0 58.6165 1.64959 58.6938 4.05229C58.7088 4.60643 58.6938 5.16057 58.6938 5.80029C60.3378 5.80029 61.8852 5.77248 63.4305 5.81099C64.3061 5.83239 65.2118 5.84522 66.051 6.0656C67.48 6.43551 68.7145 7.33314 69.5043 8.57662C70.2942 9.8201 70.5803 11.3164 70.3047 12.7624C68.5563 22.1064 63.5943 29.2304 55.4187 34.1342C54.9149 34.4225 54.5215 34.8696 54.3005 35.4051C52.253 40.0222 49.596 44.2179 45.5676 47.3865C44.4408 48.2702 43.166 48.9805 41.919 49.678C41.4211 49.954 41.243 50.2385 41.2344 50.7734C41.2061 52.6831 41.8112 54.5487 42.9557 56.0804C44.1001 57.6121 45.72 58.7242 47.5636 59.2439C49.0938 59.6718 49.478 60.1746 49.4801 61.7386C49.4801 64.4301 49.4801 67.1216 49.4801 69.9373C50.7915 69.9373 52.0556 69.8859 53.2939 69.948C55.8694 70.0742 58.0885 71.7409 58.4813 74.2634C58.7989 76.3217 58.6959 78.4633 58.5843 80.5579C58.5586 81.0565 57.7902 81.5186 57.3631 81.9957L13.1792 82ZM35.2401 3.80624C28.9495 3.80624 22.6612 3.80624 16.3706 3.79126C15.6967 3.79126 15.4327 3.92606 15.4435 4.66634C15.4864 7.49481 15.4435 10.3233 15.4671 13.1518C15.5293 20.2122 16.596 27.0588 19.4204 33.5844C21.1781 37.6495 23.4381 41.3723 26.9128 44.2179C30.6472 47.2774 34.8065 48.4199 39.4745 46.6099C42.975 45.2534 45.4989 42.6988 47.5807 39.6863C51.9289 33.3897 53.985 26.28 54.5774 18.7659C54.9422 14.121 54.792 9.43751 54.9293 4.77331C54.9508 4.00094 54.7276 3.78485 53.9485 3.78912C47.7138 3.81908 41.4769 3.80624 35.2401 3.80624ZM15.6667 78.1488H54.9143V76.2831C54.9143 74.3404 54.2705 73.7007 52.3174 73.7007H18.1928C17.9781 73.7007 17.7635 73.7007 17.5489 73.7007C16.4608 73.7799 15.7439 74.4324 15.6688 75.5151C15.6195 76.3666 15.6667 77.2181 15.6667 78.1488ZM45.6041 63.1442H24.9576V69.8538H45.6041V63.1442ZM56.6592 28.7319C59.2017 26.7263 61.364 24.2838 63.0441 21.5195C64.8095 18.6505 65.9943 15.4647 66.5317 12.1419C66.7292 10.8817 66.0252 9.73705 64.8427 9.67286C62.8274 9.56374 60.7992 9.64291 58.6766 9.64291C58.8462 16.0594 58.4277 22.3646 56.6592 28.7319ZM11.6919 9.73277C11.5352 9.66644 11.488 9.62793 11.4408 9.62793C9.75818 9.61937 8.07484 9.61438 6.39078 9.61295C4.36906 9.61295 3.52131 10.6442 3.90548 12.634C4.78745 17.3476 6.93891 21.7333 10.1295 25.3215C11.1682 26.4961 12.3508 27.5444 13.469 28.6506L13.6557 28.5072C11.9323 22.3432 11.5352 16.0465 11.6919 9.73277ZM29.9647 59.246H40.6013C38.5602 56.8412 37.5065 54.1689 37.397 51.1885H33.1454C33.0509 54.2138 31.9907 56.8583 29.9647 59.246Z" fill="#00AEEF"/>
<path id="Vector_2" d="M27.2861 31.2363C27.5522 29.653 27.827 27.8879 28.1596 26.1356C28.2162 25.9362 28.2135 25.7247 28.1517 25.5268C28.09 25.3289 27.972 25.1532 27.8119 25.0209C26.6229 23.9062 25.4833 22.7401 24.2986 21.6212C23.6547 21.0093 23.3757 20.3032 23.6547 19.4581C23.9337 18.613 24.5926 18.2706 25.4211 18.153C27.035 17.9262 28.6404 17.6716 30.265 17.4769C30.4744 17.4654 30.6759 17.3931 30.8445 17.2687C31.0131 17.1444 31.1414 16.9735 31.2137 16.7772C31.9112 15.3074 32.6666 13.8653 33.3599 12.3997C33.729 11.6317 34.287 11.146 35.1455 11.1331C36.0426 11.1182 36.6221 11.6145 37.0041 12.4169C37.7188 13.9145 38.4485 15.3908 39.2169 16.8543C39.2968 16.9951 39.404 17.1186 39.5322 17.2178C39.6604 17.317 39.8071 17.3898 39.9637 17.4319C41.5433 17.6994 43.1337 17.9133 44.724 18.123C45.6276 18.2407 46.4109 18.5381 46.7157 19.4773C47.0205 20.4166 46.6213 21.1162 45.9431 21.7517C44.7927 22.8214 43.6853 23.9533 42.5435 25.0423C42.3889 25.1615 42.2732 25.3236 42.2109 25.5083C42.1486 25.693 42.1426 25.8919 42.1936 26.08C42.5048 27.6204 42.7409 29.1759 43.0114 30.7249C43.1637 31.6107 43.1358 32.4365 42.3138 33.0271C41.4918 33.6176 40.7106 33.4122 39.9058 32.9778C38.5902 32.2654 37.2381 31.6171 35.9418 30.8747C35.3752 30.5495 34.9524 30.5837 34.4008 30.8918C32.9771 31.6834 31.5335 32.4373 30.0697 33.1533C28.679 33.8272 27.2561 32.9201 27.2861 31.2363ZM40.8609 21.4179C39.8157 21.2574 39.0323 21.0991 38.2403 21.0242C37.3132 20.9365 36.7187 20.4701 36.3367 19.6464C35.9954 18.9061 35.6263 18.1851 35.182 17.3292C34.742 18.2193 34.3664 18.9489 34.0188 19.6827C33.8665 20.0549 33.6126 20.377 33.286 20.6126C32.9594 20.8482 32.5731 20.9879 32.1709 21.0157C31.3575 21.0991 30.5526 21.2574 29.5954 21.4051C30.1942 22.0084 30.6535 22.5583 31.1986 23.0033C32.1237 23.7564 32.3426 24.6743 32.0872 25.7847C31.9326 26.4651 31.8511 27.1604 31.7094 28.0077C32.6108 27.537 33.3491 27.1733 34.0703 26.7689C34.4003 26.5624 34.7814 26.4514 35.171 26.4484C35.5606 26.4454 35.9434 26.5504 36.2766 26.7518C37.017 27.1604 37.7789 27.5349 38.661 27.9949C38.5043 27.0321 38.3884 26.2212 38.2318 25.4274C38.1327 25.0235 38.1504 24.5999 38.283 24.2057C38.4156 23.8115 38.6575 23.4629 38.9808 23.2001C39.5796 22.6781 40.1333 22.1026 40.8609 21.4115V21.4179Z" fill="#606060"/>
</g>
</g>
</svg>
