<svg width="109" height="91" viewBox="0 0 109 91" fill="none" xmlns="http://www.w3.org/2000/svg">
<g id="Group">
<path id="Vector" fill-rule="evenodd" clip-rule="evenodd" d="M28.675 47.0761C29.0894 43.8601 31.985 41.6124 35.1424 42.0558L76.3524 47.842C79.2322 48.2464 81.3353 50.7497 81.3685 53.6268C82.1285 50.8608 84.7906 49.0262 87.6707 49.4306L99.9836 51.1595C103.141 51.6029 105.365 54.5694 104.95 57.7853L101.325 85.9239C100.911 89.1398 98.0152 91.3876 94.8576 90.9442L82.5448 89.2153C79.6649 88.8111 77.5618 86.3077 77.5286 83.4305C76.7686 86.1966 74.1065 88.0311 71.2265 87.6268L30.0166 81.8405C26.859 81.3971 24.6353 78.4306 25.0497 75.2146L28.675 47.0761Z" fill="url(#paint0_linear_4365_41648)"/>
<path id="Vector_2" fill-rule="evenodd" clip-rule="evenodd" d="M4.3626 24.0059C1.26208 24.8512 -0.609936 28.0418 0.181323 31.1321L10.3198 70.7283C11.1111 73.8186 14.266 75.6383 17.3666 74.7929L74.1204 59.3171C76.9096 58.5566 78.7047 55.8982 78.461 53.1222C79.5782 55.6592 82.4109 57.0549 85.1997 56.2945L104.637 50.9942C107.738 50.1487 109.61 46.9582 108.819 43.8679L98.6801 4.27169C97.8889 1.18142 94.7339 -0.638366 91.6335 0.207085L72.1957 5.50743C69.4065 6.26799 67.6115 8.92643 67.8553 11.7023C66.7379 9.16527 63.9052 7.7696 61.1165 8.53001L4.3626 24.0059Z" fill="url(#paint1_linear_4365_41648)"/>
<path id="Vector_3" fill-rule="evenodd" clip-rule="evenodd" d="M102 51.857C101.369 51.4972 100.661 51.2487 99.8996 51.1423L87.6302 49.4276C84.7113 49.0197 82.0183 50.8402 81.2595 53.5898C81.2271 50.7295 79.0926 48.234 76.1738 47.8261L34.8948 42.0571C31.6999 41.6104 28.7752 43.8342 28.3623 47.0238L25 73L73.9499 59.5601C76.7463 58.7922 78.5458 56.1087 78.3015 53.3066C79.4216 55.8676 82.2614 57.2764 85.0572 56.5089L102 51.857Z" fill="url(#paint2_linear_4365_41648)"/>
</g>
<defs>
<linearGradient id="paint0_linear_4365_41648" x1="67.5115" y1="46.4813" x2="62.0458" y2="86.4581" gradientUnits="userSpaceOnUse">
<stop stop-color="#88FFC2"/>
<stop offset="1" stop-color="#00A651"/>
</linearGradient>
<linearGradient id="paint1_linear_4365_41648" x1="28.9623" y1="-17.8523" x2="99.4719" y2="-26.17" gradientUnits="userSpaceOnUse">
<stop stop-color="#40CBFF"/>
<stop offset="0.984375" stop-color="#A9E8FF"/>
</linearGradient>
<linearGradient id="paint2_linear_4365_41648" x1="63.5001" y1="42" x2="63.5001" y2="73" gradientUnits="userSpaceOnUse">
<stop stop-color="#ED1C24"/>
<stop offset="1" stop-color="#F5821F"/>
</linearGradient>
</defs>
</svg>
