<svg width="41" height="34" viewBox="0 0 41 34" fill="none" xmlns="http://www.w3.org/2000/svg">
<path d="M30.7045 7.08296C30.9506 7.11195 31.0152 7.14943 31.1338 7.22166C31.6251 7.52083 31.7411 8.29422 31.3122 8.7204C31.1331 8.89849 30.884 8.99186 30.6286 9.00195H15.0194C14.7718 8.99218 14.7044 8.95999 14.5805 8.89721C14.0444 8.62575 13.8881 7.80639 14.3357 7.36147C14.5147 7.18354 14.7639 7.09001 15.0194 7.08008H30.6286C30.6539 7.08104 30.6792 7.082 30.7045 7.08296V7.08296Z" fill="#00AEEF"/>
<path d="M21.8143 12.2073C22.6218 12.2706 23.0904 13.5153 22.2471 13.9992C22.1448 14.0579 22.0317 14.0978 21.9149 14.1161C21.8649 14.1239 21.8143 14.1266 21.7637 14.1279H15.0217C14.1904 14.1063 13.6783 12.8283 14.5383 12.3348C14.6406 12.276 14.7537 12.2363 14.8704 12.2179C14.9203 12.2101 14.9709 12.2073 15.0217 12.2061H21.7637C21.7806 12.2065 21.7974 12.207 21.8143 12.2073Z" fill="#00AEEF"/>
<path d="M30.6718 12.207C31.3847 12.2549 31.8783 13.2058 31.3565 13.7993C31.1755 14.0051 30.9064 14.1217 30.6285 14.1279H25.7497C25.0469 14.1122 24.5171 13.2182 24.9675 12.6021C25.1464 12.3577 25.4421 12.2129 25.7497 12.2061H30.6285C30.643 12.2064 30.6573 12.2067 30.6718 12.207Z" fill="#00AEEF"/>
<path d="M30.6716 21.918C31.3905 21.966 31.871 22.9247 31.3563 23.5101C31.1754 23.716 30.9063 23.8326 30.6283 23.8389H25.7495C25.0166 23.8225 24.4889 22.8515 25.0215 22.2456C25.2024 22.0398 25.4715 21.9231 25.7495 21.917H30.6283C30.6428 21.9173 30.6571 21.9176 30.6716 21.918Z" fill="#00AEEF" fill-opacity="0.2"/>
<path d="M21.8339 21.9183C22.5189 21.9719 23.005 22.8413 22.5655 23.4426C22.3869 23.6869 22.0899 23.8309 21.7833 23.8389H15.0193C14.1951 23.8174 13.6861 22.5333 14.5359 22.0458C14.6382 21.987 14.7514 21.9471 14.868 21.9288C14.918 21.9208 14.9686 21.9183 15.0193 21.917H21.7833C21.8002 21.9173 21.817 21.9178 21.8339 21.9183V21.9183Z" fill="#00AEEF"/>
<path d="M30.6936 16.9759C31.398 17.0463 31.8685 17.9658 31.3674 18.555C31.1869 18.7672 31.0088 18.883 30.629 18.8955H19.6685C18.9341 18.8712 18.4149 17.92 18.9302 17.3143C19.1107 17.1021 19.2886 16.9863 19.6685 16.9736H30.629C30.6505 16.9744 30.6721 16.9751 30.6936 16.9759V16.9759Z" fill="#00AEEF" fill-opacity="0.2"/>
<path d="M16.1005 28.9177C12.1753 29.0522 8.27154 29.3867 4.42629 29.9342C4.17555 29.9698 3.82475 30.0207 3.82475 30.0207C1.94555 30.2417 0.0618415 28.7267 0.0207511 26.7293C-0.025818 19.933 0.0204289 13.1531 0.0212346 6.36996L0.0215568 4.09238C0.0215568 4.09238 0.0421826 3.43926 0.230876 2.93108C0.739108 1.56303 2.20757 0.621789 3.70954 0.747191C14.3671 1.7778 25.2551 1.82504 35.9723 0.8585C36.4144 0.818621 36.8563 0.775539 37.298 0.734218C37.298 0.734218 37.4111 0.719164 37.6541 0.722047C39.3916 0.764488 40.9407 2.25026 40.9764 4.04032C41.0262 11.6013 40.9769 19.1487 40.9747 26.7076C40.9747 26.7076 40.9531 27.3772 40.755 27.8961C40.2221 29.293 38.6825 30.2276 37.1494 30.0366C32.9264 29.4522 28.6508 29.0758 24.37 28.9246L24.3701 28.9317V29.8731C26.9477 30.2156 29.4866 30.8511 31.9335 31.7049C31.9335 31.7049 32.6172 31.9962 32.6675 32.5589C32.7189 33.1359 32.141 33.6809 31.5603 33.594C31.2838 33.5525 31.2387 33.4993 31.1107 33.4549C24.2433 31.0942 16.624 30.7696 9.64557 33.5363C9.64557 33.5363 9.09979 33.6667 8.76366 33.4514C8.16712 33.0693 8.19178 32.042 9.01326 31.7177C11.3042 30.8135 13.6824 30.193 16.1 29.8638V28.9317L16.1005 28.9177V28.9177ZM37.5811 2.64344C36.577 2.65818 35.4284 2.83931 34.327 2.92756C24.567 3.70976 14.6871 3.69375 4.90874 2.79335C4.26354 2.73393 3.57821 2.54975 3.00939 2.70991C2.41415 2.87743 1.96795 3.45063 1.95538 4.07652C1.90511 11.6202 1.90253 19.1602 1.95426 26.7031C1.97085 27.5079 2.73046 28.214 3.58434 28.1136C6.46936 27.7345 9.37309 27.3746 12.2866 27.1735C20.4726 26.6081 28.7101 26.9387 36.8492 28.0542C37.8354 28.1893 39.0162 27.9313 39.041 26.7239C39.0919 19.1833 39.0927 11.6248 39.0429 4.06563C39.0281 3.32843 38.4027 2.67275 37.6381 2.64408C37.6191 2.6436 37.6001 2.64344 37.5811 2.64344V2.64344Z" fill="#00AEEF"/>
<path fill-rule="evenodd" clip-rule="evenodd" d="M12.7701 7.28989C12.7701 7.16529 12.7203 7.04597 12.6319 6.95789C12.5432 6.8698 12.423 6.82031 12.2978 6.82031C11.8769 6.82031 11.2643 6.82031 10.8436 6.82031C10.7182 6.82031 10.5981 6.8698 10.5095 6.95789C10.4209 7.04597 10.3711 7.16529 10.3711 7.28989C10.3711 7.72199 10.3711 8.35941 10.3711 8.79152C10.3711 8.91596 10.4209 9.03543 10.5095 9.12352C10.5981 9.21144 10.7182 9.26093 10.8436 9.26093C11.2643 9.26093 11.8769 9.26093 12.2978 9.26093C12.423 9.26093 12.5432 9.21144 12.6319 9.12352C12.7203 9.03543 12.7701 8.91596 12.7701 8.79152C12.7701 8.35941 12.7701 7.72199 12.7701 7.28989Z" fill="#00AEEF"/>
<path fill-rule="evenodd" clip-rule="evenodd" d="M12.7701 12.4167C12.7701 12.2922 12.7203 12.1728 12.6319 12.0847C12.5432 11.9966 12.423 11.9473 12.2978 11.9473C11.8769 11.9473 11.2643 11.9473 10.8436 11.9473C10.7182 11.9473 10.5981 11.9966 10.5095 12.0847C10.4209 12.1728 10.3711 12.2922 10.3711 12.4167C10.3711 12.8488 10.3711 13.4862 10.3711 13.9183C10.3711 14.0429 10.4209 14.1622 10.5095 14.2503C10.5981 14.3384 10.7182 14.3879 10.8436 14.3879C11.2643 14.3879 11.8769 14.3879 12.2978 14.3879C12.423 14.3879 12.5432 14.3384 12.6319 14.2503C12.7203 14.1622 12.7701 14.0429 12.7701 13.9183C12.7701 13.4862 12.7701 12.8488 12.7701 12.4167Z" fill="#00AEEF"/>
<path fill-rule="evenodd" clip-rule="evenodd" d="M12.7701 22.1268C12.7701 22.0022 12.7203 21.8829 12.6319 21.7948C12.5432 21.7067 12.423 21.6572 12.2978 21.6572C11.8769 21.6572 11.2643 21.6572 10.8436 21.6572C10.7182 21.6572 10.5981 21.7067 10.5095 21.7948C10.4209 21.8829 10.3711 22.0022 10.3711 22.1268C10.3711 22.5589 10.3711 23.1963 10.3711 23.6284C10.3711 23.7529 10.4209 23.8723 10.5095 23.9604C10.5981 24.0484 10.7182 24.0978 10.8436 24.0978C11.2643 24.0978 11.8769 24.0978 12.2978 24.0978C12.423 24.0978 12.5432 24.0484 12.6319 23.9604C12.7203 23.8723 12.7701 23.7529 12.7701 23.6284C12.7701 23.1963 12.7701 22.5589 12.7701 22.1268Z" fill="#00AEEF"/>
<path fill-rule="evenodd" clip-rule="evenodd" d="M17.4186 17.1833C17.4186 17.0588 17.3688 16.9394 17.2801 16.8514C17.1915 16.7634 17.0715 16.7139 16.9461 16.7139C16.5252 16.7139 15.9127 16.7139 15.4918 16.7139C15.3666 16.7139 15.2464 16.7634 15.1578 16.8514C15.0692 16.9394 15.0195 17.0588 15.0195 17.1833C15.0195 17.6154 15.0195 18.253 15.0195 18.6849C15.0195 18.8095 15.0692 18.929 15.1578 19.0169C15.2464 19.105 15.3666 19.1545 15.4918 19.1545C15.9127 19.1545 16.5252 19.1545 16.9461 19.1545C17.0715 19.1545 17.1915 19.105 17.2801 19.0169C17.3688 18.929 17.4186 18.8095 17.4186 18.6849C17.4186 18.253 17.4186 17.6154 17.4186 17.1833Z" fill="#00AEEF" fill-opacity="0.2"/>
</svg>
