<svg width="40" height="40" viewBox="0 0 40 40" fill="none" xmlns="http://www.w3.org/2000/svg">
<rect x="0.5" y="0.5" width="39" height="39" rx="3.5" fill="#00AEEF" fill-opacity="0.1" stroke="#00AEEF"/>
<path d="M28.0956 27.0956H12.1397C11.5103 27.0956 11 27.6059 11 28.2353C11 28.8647 11.5103 29.375 12.1397 29.375H28.0956C28.725 29.375 29.2353 28.8647 29.2353 28.2353C29.2353 27.6059 28.725 27.0956 28.0956 27.0956Z" fill="#00AEEF"/>
<path d="M11 25.9559V28.2353C11 28.8647 11.5103 29.375 12.1397 29.375C12.7691 29.375 13.2794 28.8647 13.2794 28.2353V25.9559C13.2794 25.3264 12.7691 24.8162 12.1397 24.8162C11.5103 24.8162 11 25.3264 11 25.9559Z" fill="#00AEEF"/>
<path d="M26.9559 25.9559V28.2353C26.9559 28.8647 27.4662 29.375 28.0956 29.375C28.725 29.375 29.2353 28.8647 29.2353 28.2353V25.9559C29.2353 25.3264 28.725 24.8162 28.0956 24.8162C27.4662 24.8162 26.9559 25.3264 26.9559 25.9559Z" fill="#00AEEF"/>
<path d="M20.1193 23.6765C19.883 23.6783 19.652 23.6066 19.4582 23.4713L14.8994 20.2574C14.6537 20.0831 14.487 19.8186 14.4357 19.5217C14.3845 19.2248 14.4528 18.9198 14.6259 18.6732C14.7123 18.5499 14.8222 18.445 14.9493 18.3644C15.0765 18.2839 15.2183 18.2293 15.3667 18.2039C15.515 18.1785 15.6669 18.1827 15.8137 18.2163C15.9604 18.2499 16.099 18.3122 16.2215 18.3996L20.1193 21.1235L23.9943 18.2059C24.2361 18.0245 24.54 17.9467 24.8393 17.9894C25.1385 18.0321 25.4085 18.192 25.5899 18.4338C25.7712 18.6756 25.8491 18.9796 25.8063 19.2788C25.7636 19.5781 25.6037 19.8481 25.3619 20.0294L20.8031 23.4485C20.6058 23.5965 20.3659 23.6765 20.1193 23.6765Z" fill="#00AEEF"/>
<path d="M20.1176 21.3971C19.8154 21.3971 19.5255 21.277 19.3118 21.0632C19.098 20.8495 18.9779 20.5596 18.9779 20.2574V11.1397C18.9779 10.8374 19.098 10.5475 19.3118 10.3338C19.5255 10.1201 19.8154 10 20.1176 10C20.4199 10 20.7098 10.1201 20.9235 10.3338C21.1373 10.5475 21.2574 10.8374 21.2574 11.1397V20.2574C21.2574 20.5596 21.1373 20.8495 20.9235 21.0632C20.7098 21.277 20.4199 21.3971 20.1176 21.3971Z" fill="#00AEEF"/>
</svg>
