<svg xmlns="http://www.w3.org/2000/svg" width="26" height="24" viewBox="0 0 26 24" fill="none">
  <path d="M1.73333 8.23714H8.32867V1.71429H17.3333V8.89714H19.0667V1.71429C19.0667 1.25963 18.884 0.823593 18.559 0.502103C18.2339 0.180612 17.793 0 17.3333 0H5.954L0 5.88857V22.2857C0 22.7404 0.182618 23.1764 0.507682 23.4979C0.832745 23.8194 1.27362 24 1.73333 24H17.3333C17.793 24 18.2339 23.8194 18.559 23.4979C18.884 23.1764 19.0667 22.7404 19.0667 22.2857H1.73333V8.23714ZM1.73333 6.59143L6.66467 1.71429H6.93333V6.85714H1.73333V6.59143Z" fill="#00A651"/>
  <path d="M21.0763 10.585C20.9105 10.4446 20.6972 10.3712 20.4791 10.3795C20.261 10.3879 20.0541 10.4773 19.8997 10.63C19.7454 10.7826 19.655 10.9872 19.6465 11.203C19.6381 11.4187 19.7123 11.6296 19.8543 11.7936L22.671 14.5707H12.1323C11.9024 14.5707 11.682 14.661 11.5195 14.8218C11.3569 14.9825 11.2656 15.2005 11.2656 15.4279C11.2656 15.6552 11.3569 15.8732 11.5195 16.034C11.682 16.1947 11.9024 16.285 12.1323 16.285H22.697L19.8543 19.0964C19.7636 19.1733 19.6899 19.2678 19.6379 19.3742C19.5858 19.4805 19.5566 19.5963 19.552 19.7144C19.5474 19.8324 19.5675 19.9502 19.6111 20.0601C19.6546 20.1701 19.7207 20.27 19.8052 20.3536C19.8897 20.4371 19.9907 20.5025 20.1019 20.5456C20.2131 20.5887 20.3321 20.6085 20.4515 20.604C20.5708 20.5994 20.6879 20.5705 20.7955 20.5191C20.903 20.4676 20.9986 20.3947 21.0763 20.305L25.999 15.4279L21.0763 10.585Z" fill="#00A651"/>
</svg>