<svg width="32" height="29" viewBox="0 0 32 29" fill="none" xmlns="http://www.w3.org/2000/svg">
<g clip-path="url(#clip0_1_166)">
<path d="M30.2222 1.77778H24L22.2222 0H17.7778C16.7986 0 16 0.798611 16 1.77778V10.6667C16 11.6458 16.7986 12.4444 17.7778 12.4444H30.2222C31.2014 12.4444 32 11.6458 32 10.6667V3.55556C32 2.57639 31.2014 1.77778 30.2222 1.77778ZM30.2222 17.7778H24L22.2222 16H17.7778C16.7986 16 16 16.7986 16 17.7778V26.6667C16 27.6458 16.7986 28.4444 17.7778 28.4444H30.2222C31.2014 28.4444 32 27.6458 32 26.6667V19.5556C32 18.5764 31.2014 17.7778 30.2222 17.7778ZM3.55556 0.888889C3.55556 0.395833 3.15972 0 2.66667 0H0.888889C0.395833 0 0 0.395833 0 0.888889V23.1111C0 24.0903 0.798611 24.8889 1.77778 24.8889H14.2222V21.3333H3.55556V8.88889H14.2222V5.33333H3.55556V0.888889Z" fill="#6251F2"/>
</g>
<defs>
<clipPath id="clip0_1_166">
<rect width="32" height="29" fill="white"/>
</clipPath>
</defs>
</svg>
