<svg width="104" height="103" viewBox="0 0 104 103" fill="none" xmlns="http://www.w3.org/2000/svg">
<g id="Group 3967">
<g id="Group" filter="url(#filter0_d_548_2373)">
<path id="Vector" d="M65.5 15H38.5C31.0442 15 25 20.9322 25 28.25V54.75C25 62.0678 31.0442 68 38.5 68H65.5C72.9558 68 79 62.0678 79 54.75V28.25C79 20.9322 72.9558 15 65.5 15Z" fill="url(#paint0_linear_548_2373)"/>
</g>
<path id="Vector_2" d="M62.1155 40.1769C61.7427 40.1769 61.4411 40.473 61.4411 40.8388V46.5339C61.4411 46.8332 61.235 47.0963 60.9407 47.1739L52.6755 49.3369V40.1769C52.6755 39.8111 52.3739 39.515 52.0012 39.515C51.6285 39.515 51.3269 39.8111 51.3269 40.1769V49.3374L43.0624 47.1739C42.7673 47.0963 42.5613 46.8332 42.5613 46.5339V40.8388C42.5613 40.473 42.2597 40.1769 41.887 40.1769C41.5143 40.1769 41.2127 40.473 41.2127 40.8388V46.5339C41.2127 47.4312 41.8297 48.2205 42.714 48.4525L51.1333 50.6568C51.4171 50.7305 51.7088 50.7681 52.0012 50.7681C52.2936 50.7681 52.5853 50.7305 52.8697 50.6563L61.2891 48.4525C62.1727 48.2205 62.7897 47.4312 62.7897 46.5339V40.8388C62.7897 40.473 62.4881 40.1769 62.1155 40.1769ZM65.4322 37.2689L63.4094 32.635C63.2909 32.3642 63.0077 32.2057 62.7062 32.2387L52.0012 33.5524L41.2963 32.2387C40.9947 32.2057 40.7115 32.3642 40.5931 32.635L38.5702 37.2689C38.4912 37.4486 38.4985 37.6543 38.5887 37.8288C38.6789 38.004 38.8435 38.1306 39.0384 38.1746L47.804 40.1606C47.8541 40.1715 47.9054 40.1774 47.9555 40.1774C48.1649 40.1774 48.3657 40.0818 48.4948 39.9124L52.0012 35.3224L55.5076 39.9124C55.6367 40.0818 55.8375 40.1774 56.0469 40.1774C56.0969 40.1774 56.1483 40.1715 56.1983 40.1606L64.9641 38.1746C65.159 38.1306 65.3237 38.004 65.4138 37.8288C65.504 37.6543 65.5113 37.4486 65.4322 37.2689ZM47.6796 38.7732L40.1275 37.0628L41.6328 33.6144L50.7646 34.7347L47.6796 38.7732ZM56.3228 38.7732L53.2379 34.7347L62.3697 33.6144L63.8749 37.0628L56.3228 38.7732Z" fill="white"/>
</g>
<defs>
<filter id="filter0_d_548_2373" x="0" y="0" width="104" height="103" filterUnits="userSpaceOnUse" color-interpolation-filters="sRGB">
<feFlood flood-opacity="0" result="BackgroundImageFix"/>
<feColorMatrix in="SourceAlpha" type="matrix" values="0 0 0 0 0 0 0 0 0 0 0 0 0 0 0 0 0 0 127 0" result="hardAlpha"/>
<feOffset dy="10"/>
<feGaussianBlur stdDeviation="12.5"/>
<feColorMatrix type="matrix" values="0 0 0 0 0.466667 0 0 0 0 0.803922 0 0 0 0 0.878431 0 0 0 0.25 0"/>
<feBlend mode="normal" in2="BackgroundImageFix" result="effect1_dropShadow_548_2373"/>
<feBlend mode="normal" in="SourceGraphic" in2="effect1_dropShadow_548_2373" result="shape"/>
</filter>
<linearGradient id="paint0_linear_548_2373" x1="92.5" y1="-26.4063" x2="38.1424" y2="121.282" gradientUnits="userSpaceOnUse">
<stop stop-color="#77E0D4"/>
<stop offset="1" stop-color="#77CDE0"/>
</linearGradient>
</defs>
</svg>
