<svg width="268" height="55" viewBox="0 0 268 55" fill="none" xmlns="http://www.w3.org/2000/svg">
<path d="M84.136 48.5602V34.4402H68.599V48.5552H62.4V14.5472H68.6V28.6632H84.137V14.5632H90.289V48.5702L84.137 48.5602H84.136ZM116.174 46.7532C114.194 48.1292 111.352 48.9462 107.545 48.9462C102.769 48.9462 98.81 47.5252 96.571 44.1702C95.236 42.3172 94.46 39.7802 94.46 36.5972C94.46 33.5822 95.236 31.0892 96.698 29.1912C98.896 26.1462 102.637 24.3282 107.499 24.3282C112.621 24.3282 116.129 26.1812 118.133 29.0242C119.894 31.5162 120.539 35.1142 120.24 38.7492H100.14C100.199 40.1206 100.787 41.4159 101.78 42.3632C102.896 43.5252 105.007 44.3432 107.545 44.3432C109.248 44.3902 110.935 44.0062 112.448 43.2262C113.697 42.5362 114.301 41.5862 114.388 40.9872H120.067C119.556 43.3372 118.163 45.4013 116.174 46.7532V46.7532ZM113.159 31.0432C111.997 29.9682 110.276 29.0642 107.519 29.0642C104.941 29.0642 103.048 29.8412 101.799 30.9572C100.806 31.861 100.189 33.1062 100.074 34.4442H114.494C114.514 33.8166 114.406 33.1915 114.176 32.607C113.947 32.0225 113.6 31.4908 113.159 31.0442V31.0432ZM124.69 48.5602C124.563 48.4742 124.517 48.1742 124.517 46.7942V16.8872C124.517 15.7252 124.477 14.6902 124.431 14.3042H130.202C130.336 15.0272 130.394 15.7622 130.375 16.4972V46.3672C130.375 47.6112 130.375 48.3472 130.502 48.5602H124.69V48.5602ZM135.329 22.1362V16.3702H141.419V22.1362H135.329ZM141.526 48.5602H135.76C135.542 48.4742 135.456 47.9562 135.456 46.2352V24.8922H141.308V46.1142C141.308 47.8292 141.354 48.4342 141.526 48.5602ZM163.748 48.5602L163.621 45.2052C161.941 47.9562 158.368 48.9452 154.926 48.9452C149.506 48.9452 146.105 46.8392 146.105 41.4192C146.105 27.0442 146.059 25.0192 145.886 24.8922H151.764C151.85 24.8922 151.896 25.7502 151.896 39.8252C151.896 43.0942 154.129 44.2552 157.186 44.2552C161.017 44.2552 163.428 42.4032 163.428 39.4802V24.8922H169.194V44.7282C169.17 46.0069 169.212 47.286 169.321 48.5602H163.748V48.5602ZM205.801 34.1862C205.801 31.8202 204.897 29.7092 200.938 29.7092C198.055 29.7092 195.73 31.3032 195.73 34.3132V48.5602H190.223V33.8402C190.223 31.3032 188.457 29.7092 185.487 29.7092C182.173 29.7092 180.107 31.9932 180.107 34.4442V48.5602H174.295V24.8922H179.98V28.6782C180.995 26.0082 184.198 24.4152 187.726 24.4152C191.254 24.4152 194.05 25.8362 195.086 28.7192C196.03 25.8362 199.045 24.4152 202.958 24.4152C208.983 24.4152 211.079 27.6432 211.079 32.1202C211.079 42.0632 211.12 48.3622 211.293 48.5602H206.075C205.801 48.5602 205.801 42.5602 205.801 34.1862V34.1862ZM229.576 48.5602V21.4912L221.226 22.6532V17.7912C228.286 16.7762 230.266 15.6792 230.87 14.3912H235.646V48.5612H229.576V48.5602ZM267.202 23.1262C267.71 25.4912 267.766 28.2882 267.766 31.5612C267.766 34.2312 267.461 38.1912 266.943 40.1242C265.421 46.2152 261.091 48.9922 254.036 48.9922C246.762 48.9922 242.757 46.4542 241.123 40.0842C240.478 37.7592 240.306 34.2312 240.306 31.5162C240.306 28.2882 240.266 26.0952 240.91 23.1662C242.072 17.6182 246.376 14.1362 254.076 14.1362C261.695 14.1362 265.999 18.0042 267.202 23.1262V23.1262ZM260.964 24.5012C260.406 21.4052 258.081 19.5112 254.076 19.5112C249.99 19.5112 247.579 21.4052 247.062 24.5012C246.848 26.0242 246.676 29.7092 246.676 31.5612C246.668 33.9969 246.854 36.4293 247.234 38.8352C247.879 42.1492 250.249 43.7382 254.076 43.7382C257.903 43.7382 260.167 41.9772 260.832 38.8352C261.137 37.5002 261.34 33.6272 261.34 31.5152C261.361 29.1717 261.235 26.8291 260.964 24.5012V24.5012Z" fill="#003873"/>
<path d="M0.304993 14.5582V28.6782H11.06V20.4352L0.304993 14.5582ZM17.258 20.4352V28.6782H28.018V14.5582L17.258 20.4352V20.4352ZM34.216 11.1772V28.6782H44.97V5.30518L34.215 11.1772H34.216Z" fill="#0081FF"/>
<path d="M0.304993 34.4443H11.06V48.5603H0.304993V34.4443ZM17.258 34.4443H28.013V48.5603H17.258V34.4443ZM34.216 34.4443H44.97V48.5603H34.216V34.4443V34.4443Z" fill="#003873"/>
</svg>
