<svg width="32" height="35" viewBox="0 0 32 35" fill="none" xmlns="http://www.w3.org/2000/svg">
<g clip-path="url(#clip0_664_99300)">
<path d="M15.2 28.2657H7.2C6.7625 28.2657 6.4 28.7535 6.4 29.3425V33.6503C6.4 34.2393 6.7625 34.7271 7.2 34.7271H15.2C15.6375 34.7271 16 34.2393 16 33.6503V29.3425C16 28.7535 15.6375 28.2657 15.2 28.2657ZM15.2 19.6503H7.2C6.7625 19.6503 6.4 20.1383 6.4 20.7272V25.0349C6.4 25.6239 6.7625 26.1118 7.2 26.1118H15.2C15.6375 26.1118 16 25.6239 16 25.0349V20.7272C16 20.1383 15.6375 19.6503 15.2 19.6503ZM24.8 28.2657H18.4C17.9625 28.2657 17.6 28.7535 17.6 29.3425V33.6503C17.6 34.2393 17.9625 34.7271 18.4 34.7271H24.8C25.2375 34.7271 25.6 34.2393 25.6 33.6503V29.3425C25.6 28.7535 25.2375 28.2657 24.8 28.2657ZM30.525 8.14062L16.9188 0.509615C16.625 0.366587 16.3125 0.282452 16 0.265625C15.6813 0.282452 15.3688 0.358173 15.075 0.509615L1.475 8.14062C0.58125 8.64543 0 9.8149 0 11.119V33.6503C0 34.2476 0.35625 34.7271 0.8 34.7271H4C4.44375 34.7271 4.8 34.2476 4.8 33.6503V17.4965C4.8 16.3101 5.53125 15.3426 6.43125 15.3426H25.5688C26.4688 15.3426 27.2 16.3101 27.2 17.4965V33.6503C27.2 34.2476 27.5562 34.7271 28 34.7271H31.2C31.6438 34.7271 32 34.2476 32 33.6503V11.119C32 9.8149 31.4188 8.64543 30.525 8.14062Z" fill="#F251EB"/>
</g>
<defs>
<clipPath id="clip0_664_99300">
<rect width="32" height="35" fill="white"/>
</clipPath>
</defs>
</svg>
