<svg width="72" height="72" viewBox="0 0 72 72" fill="none" xmlns="http://www.w3.org/2000/svg">
<path d="M21.6604 64.8008C22.5254 66.3084 23.7739 67.5604 25.279 68.4298C26.7842 69.2991 28.4925 69.7549 30.2307 69.7508H41.7619C43.5001 69.7549 45.2084 69.2991 46.7136 68.4298C48.2187 67.5604 49.4672 66.3084 50.3322 64.8008C51.2449 63.261 51.734 61.5072 51.75 59.7173C51.766 57.9275 51.3083 56.1652 50.4233 54.6094L40.5773 37.0774L43.4337 29.7818C43.7739 29.1648 43.9125 28.4569 43.8301 27.7572C43.7477 27.0575 43.4484 26.4011 42.9741 25.8801C42.4999 25.3591 41.8745 24.9996 41.1856 24.8519C40.4967 24.7043 39.7789 24.7759 39.1328 25.0568L36.4463 26.2549C36.305 26.319 36.1515 26.3522 35.9963 26.3522C35.8411 26.3522 35.6877 26.319 35.5463 26.2549L32.8587 25.0545C32.2102 24.7543 31.4817 24.6733 30.7831 24.8237C30.0846 24.9741 29.4539 25.3477 28.9864 25.8881C28.5118 26.4083 28.2146 27.0657 28.1376 27.7657C28.0606 28.4656 28.2077 29.1719 28.5578 29.7829L31.4142 37.0785L21.5693 54.6094C20.6843 56.1652 20.2266 57.9275 20.2426 59.7173C20.2586 61.5072 20.7478 63.261 21.6604 64.8008ZM30.6233 28.8829C30.6006 28.8254 30.5736 28.7697 30.5423 28.7164C30.4129 28.5113 30.355 28.2692 30.3778 28.0278C30.4006 27.7864 30.5028 27.5593 30.6683 27.3821C30.8201 27.2017 31.0275 27.0768 31.258 27.0269C31.4885 26.9771 31.729 27.005 31.9418 27.1065L34.6283 28.308C35.0586 28.5002 35.5245 28.5996 35.9957 28.5996C36.467 28.5996 36.9329 28.5002 37.3632 28.308L40.0463 27.1065C40.2593 27.0056 40.4996 26.978 40.7299 27.0278C40.9602 27.0777 41.1676 27.2022 41.3198 27.3821C41.4853 27.5593 41.5875 27.7864 41.6103 28.0278C41.6331 28.2692 41.5752 28.5113 41.4458 28.7164C41.4145 28.7697 41.3875 28.8254 41.3648 28.8829L38.5838 36.0008H33.4088L30.6233 28.8829ZM23.5358 55.7119L33.3379 38.2508H38.6547L48.4613 55.7119C49.1521 56.9259 49.5094 58.301 49.497 59.6977C49.4845 61.0945 49.1028 62.463 48.3904 63.6645C47.7221 64.8318 46.7569 65.8014 45.5927 66.4752C44.4286 67.1489 43.107 67.5028 41.7619 67.5008H30.2307C28.8856 67.5028 27.564 67.1489 26.3999 66.4752C25.2357 65.8014 24.2705 64.8318 23.6022 63.6645C22.8899 62.463 22.5081 61.0945 22.4956 59.6977C22.4832 58.301 22.8405 56.9259 23.5313 55.7119H23.5358Z" fill="white" fill-opacity="0.8"/>
<path d="M34.875 62.8403V64.125C34.875 64.4234 34.9935 64.7095 35.2045 64.9205C35.4155 65.1315 35.7016 65.25 36 65.25C36.2984 65.25 36.5845 65.1315 36.7955 64.9205C37.0065 64.7095 37.125 64.4234 37.125 64.125V62.8403C38.0882 62.5916 38.9418 62.0308 39.5524 61.2455C40.163 60.4602 40.4963 59.4947 40.5 58.5V56.25C40.4963 55.2553 40.163 54.2898 39.5524 53.5045C38.9418 52.7192 38.0882 52.1584 37.125 51.9097V45.3127C37.4659 45.5087 37.7493 45.7908 37.9468 46.1308C38.1442 46.4708 38.2488 46.8568 38.25 47.25V49.5C38.25 49.7984 38.3685 50.0845 38.5795 50.2955C38.7905 50.5065 39.0766 50.625 39.375 50.625C39.6734 50.625 39.9595 50.5065 40.1705 50.2955C40.3815 50.0845 40.5 49.7984 40.5 49.5V47.25C40.4963 46.2553 40.163 45.2898 39.5524 44.5045C38.9418 43.7192 38.0882 43.1584 37.125 42.9097V41.625C37.125 41.3266 37.0065 41.0405 36.7955 40.8295C36.5845 40.6185 36.2984 40.5 36 40.5C35.7016 40.5 35.4155 40.6185 35.2045 40.8295C34.9935 41.0405 34.875 41.3266 34.875 41.625V42.9097C33.9118 43.1584 33.0582 43.7192 32.4476 44.5045C31.837 45.2898 31.5037 46.2553 31.5 47.25V49.5C31.5037 50.4947 31.837 51.4602 32.4476 52.2455C33.0582 53.0308 33.9118 53.5916 34.875 53.8403V60.4373C34.5341 60.2413 34.2507 59.9592 34.0532 59.6192C33.8558 59.2792 33.7512 58.8932 33.75 58.5V56.25C33.75 55.9516 33.6315 55.6655 33.4205 55.4545C33.2095 55.2435 32.9234 55.125 32.625 55.125C32.3266 55.125 32.0405 55.2435 31.8295 55.4545C31.6185 55.6655 31.5 55.9516 31.5 56.25V58.5C31.5037 59.4947 31.837 60.4602 32.4476 61.2455C33.0582 62.0308 33.9118 62.5916 34.875 62.8403ZM37.125 54.3127C37.4659 54.5087 37.7493 54.7908 37.9468 55.1308C38.1442 55.4708 38.2488 55.8568 38.25 56.25V58.5C38.2488 58.8932 38.1442 59.2792 37.9468 59.6192C37.7493 59.9592 37.4659 60.2413 37.125 60.4373V54.3127ZM33.75 49.5V47.25C33.7512 46.8568 33.8558 46.4708 34.0532 46.1308C34.2507 45.7908 34.5341 45.5087 34.875 45.3127V51.4373C34.5341 51.2413 34.2507 50.9592 34.0532 50.6192C33.8558 50.2792 33.7512 49.8932 33.75 49.5Z" fill="white" fill-opacity="0.8"/>
<path d="M16.875 69.75C17.1734 69.75 17.4595 69.6315 17.6705 69.4205C17.8815 69.2095 18 68.9234 18 68.625V34.875C18 34.5766 17.8815 34.2905 17.6705 34.0795C17.4595 33.8685 17.1734 33.75 16.875 33.75H12.375C12.0766 33.75 11.7905 33.8685 11.5795 34.0795C11.3685 34.2905 11.25 34.5766 11.25 34.875V68.625C11.25 68.9234 11.3685 69.2095 11.5795 69.4205C11.7905 69.6315 12.0766 69.75 12.375 69.75H16.875ZM13.5 36H15.75V67.5H13.5V36Z" fill="white" fill-opacity="0.8"/>
<path d="M3.375 69.75H7.875C8.17337 69.75 8.45952 69.6315 8.6705 69.4205C8.88147 69.2095 9 68.9234 9 68.625V25.875C9 25.5766 8.88147 25.2905 8.6705 25.0795C8.45952 24.8685 8.17337 24.75 7.875 24.75H3.375C3.07663 24.75 2.79048 24.8685 2.5795 25.0795C2.36853 25.2905 2.25 25.5766 2.25 25.875V68.625C2.25 68.9234 2.36853 69.2095 2.5795 69.4205C2.79048 69.6315 3.07663 69.75 3.375 69.75ZM4.5 27H6.75V67.5H4.5V27Z" fill="white" fill-opacity="0.8"/>
<path d="M5.62772 11.251H7.93509C8.20833 15.3052 9.93409 19.1249 12.7958 22.0096C15.6576 24.8943 19.4634 26.6505 23.5152 26.956C23.6718 26.9701 23.8295 26.9514 23.9785 26.9013C24.1275 26.8513 24.2645 26.7708 24.3808 26.6651C24.4971 26.5593 24.5902 26.4306 24.6542 26.2871C24.7183 26.1435 24.7518 25.9882 24.7527 25.831C24.7555 25.5516 24.6528 25.2814 24.4651 25.0743C24.2775 24.8672 24.0186 24.7385 23.7402 24.7139C20.243 24.4651 16.9513 22.9693 14.4637 20.4986C11.9761 18.0279 10.4578 14.7465 10.1851 11.251H12.3777C12.57 11.2521 12.7593 11.2039 12.9276 11.1109C13.0959 11.018 13.2376 10.8835 13.3392 10.7202C13.4407 10.557 13.4987 10.3704 13.5077 10.1784C13.5166 9.9863 13.4762 9.79516 13.3902 9.62318L10.0152 2.87318C9.92191 2.68597 9.77826 2.52848 9.6004 2.4184C9.42254 2.30832 9.21751 2.25 9.00834 2.25C8.79917 2.25 8.59414 2.30832 8.41628 2.4184C8.23842 2.52848 8.09477 2.68597 8.00147 2.87318L4.62647 9.62318C4.54095 9.79431 4.50049 9.98442 4.5089 10.1755C4.51732 10.3667 4.57433 10.5525 4.67456 10.7154C4.77479 10.8784 4.91492 11.0131 5.0817 11.1068C5.24848 11.2005 5.43641 11.2502 5.62772 11.251ZM9.00272 5.89155L10.5575 9.00105H7.44797L9.00272 5.89155Z" fill="white" fill-opacity="0.8"/>
<path d="M59.625 69.75C59.9234 69.75 60.2095 69.6315 60.4205 69.4205C60.6315 69.2095 60.75 68.9234 60.75 68.625V34.875C60.75 34.5766 60.6315 34.2905 60.4205 34.0795C60.2095 33.8685 59.9234 33.75 59.625 33.75H55.125C54.8266 33.75 54.5405 33.8685 54.3295 34.0795C54.1185 34.2905 54 34.5766 54 34.875V68.625C54 68.9234 54.1185 69.2095 54.3295 69.4205C54.5405 69.6315 54.8266 69.75 55.125 69.75H59.625ZM56.25 36H58.5V67.5H56.25V36Z" fill="white" fill-opacity="0.8"/>
<path d="M68.625 24.75H64.125C63.8266 24.75 63.5405 24.8685 63.3295 25.0795C63.1185 25.2905 63 25.5766 63 25.875V68.625C63 68.9234 63.1185 69.2095 63.3295 69.4205C63.5405 69.6315 63.8266 69.75 64.125 69.75H68.625C68.9234 69.75 69.2095 69.6315 69.4205 69.4205C69.6315 69.2095 69.75 68.9234 69.75 68.625V25.875C69.75 25.5766 69.6315 25.2905 69.4205 25.0795C69.2095 24.8685 68.9234 24.75 68.625 24.75ZM67.5 67.5H65.25V27H67.5V67.5Z" fill="white" fill-opacity="0.8"/>
<path d="M48.4876 26.9561C52.5394 26.6505 56.3452 24.8943 59.207 22.0096C62.0687 19.1249 63.7944 15.3052 64.0677 11.251H66.3751C66.5673 11.2521 66.7566 11.2039 66.925 11.1109C67.0933 11.018 67.235 10.8835 67.3365 10.7202C67.4381 10.557 67.4961 10.3704 67.505 10.1784C67.5139 9.9863 67.4735 9.79516 67.3876 9.62318L64.0126 2.87318C63.9193 2.68597 63.7756 2.52848 63.5977 2.4184C63.4199 2.30832 63.2149 2.25 63.0057 2.25C62.7965 2.25 62.5915 2.30832 62.4136 2.4184C62.2358 2.52848 62.0921 2.68597 61.9988 2.87318L58.6238 9.62318C58.5383 9.79431 58.4978 9.98442 58.5062 10.1755C58.5147 10.3667 58.5717 10.5525 58.6719 10.7154C58.7721 10.8784 58.9123 11.0131 59.079 11.1068C59.2458 11.2005 59.4337 11.2502 59.6251 11.251H61.8177C61.5455 14.7469 60.0275 18.0289 57.5398 20.5C55.0522 22.9711 51.7601 24.4673 48.2626 24.7162C47.9842 24.7408 47.7253 24.8695 47.5376 25.0766C47.35 25.2836 47.2473 25.5539 47.2501 25.8333C47.2513 25.9903 47.2851 26.1453 47.3492 26.2886C47.4134 26.4319 47.5065 26.5604 47.6228 26.6658C47.7391 26.7713 47.8759 26.8516 48.0248 26.9015C48.1736 26.9515 48.3312 26.97 48.4876 26.9561ZM61.4453 9.00105L63.0001 5.89155L64.5548 9.00105H61.4453Z" fill="white" fill-opacity="0.8"/>
<path d="M28.5559 12.3547C33.5869 13.2424 34.0009 13.6564 34.8885 18.6874C34.9342 18.9481 35.0703 19.1844 35.273 19.3546C35.4757 19.5249 35.7319 19.6183 35.9966 19.6183C36.2613 19.6183 36.5176 19.5249 36.7202 19.3546C36.9229 19.1844 37.0591 18.9481 37.1048 18.6874C37.9924 13.6564 38.4064 13.2424 43.4374 12.3547C43.6981 12.3091 43.9344 12.1729 44.1047 11.9702C44.2749 11.7676 44.3683 11.5113 44.3683 11.2466C44.3683 10.9819 44.2749 10.7257 44.1047 10.523C43.9344 10.3203 43.6981 10.1842 43.4374 10.1385C38.4064 9.25088 37.9924 8.83688 37.1048 3.80588C37.0591 3.54514 36.9229 3.30886 36.7202 3.1386C36.5176 2.96834 36.2613 2.875 35.9966 2.875C35.7319 2.875 35.4757 2.96834 35.273 3.1386C35.0703 3.30886 34.9342 3.54514 34.8885 3.80588C34.0009 8.83688 33.5869 9.25088 28.5559 10.1385C28.2951 10.1842 28.0589 10.3203 27.8886 10.523C27.7183 10.7257 27.625 10.9819 27.625 11.2466C27.625 11.5113 27.7183 11.7676 27.8886 11.9702C28.0589 12.1729 28.2951 12.3091 28.5559 12.3547ZM35.9966 8.40938C36.2546 9.04871 36.6388 9.62948 37.1263 10.117C37.6138 10.6045 38.1945 10.9887 38.8339 11.2466C38.1945 11.5046 37.6138 11.8888 37.1263 12.3763C36.6388 12.8638 36.2546 13.4445 35.9966 14.0839C35.7387 13.4445 35.3545 12.8638 34.867 12.3763C34.3795 11.8888 33.7987 11.5046 33.1594 11.2466C33.7987 10.9887 34.3795 10.6045 34.867 10.117C35.3545 9.62948 35.7387 9.04871 35.9966 8.40938Z" fill="white" fill-opacity="0.8"/>
</svg>
