<svg width="72" height="72" viewBox="0 0 72 72" fill="none" xmlns="http://www.w3.org/2000/svg">
<path d="M71.8819 12.4766C71.818 11.7311 71.5086 11.0269 71.0012 10.472C70.4937 9.91715 69.8163 9.54234 69.0727 9.40507C63.0374 8.305 57.4947 5.38287 53.2064 1.04029C52.8854 0.711268 52.5007 0.44958 52.0752 0.270848C51.6498 0.0921149 51.1923 0 50.73 0C50.2678 0 49.8103 0.0921149 49.3848 0.270848C48.9594 0.44958 48.5747 0.711268 48.2537 1.04029C43.9654 5.38285 38.4227 8.30499 32.3874 9.40507C31.6438 9.54232 30.9663 9.91714 30.4589 10.472C29.9514 11.0269 29.642 11.7311 29.5781 12.4767C29.1577 18.1058 29.8709 23.7614 31.6762 29.1158C34.6684 37.953 40.438 45.2405 48.8249 50.776C49.3886 51.1495 50.0517 51.3489 50.73 51.3489C51.4084 51.3489 52.0715 51.1495 52.6351 50.776C61.022 45.2405 66.7916 37.953 69.7839 29.1158C71.5893 23.7614 72.3024 18.1057 71.8819 12.4766ZM49.8291 49.2957L49.8289 49.2957C41.7802 43.9846 36.2475 37.0046 33.3849 28.5497C31.6557 23.4241 30.9723 18.01 31.3742 12.6212C31.4054 12.2653 31.5537 11.9293 31.7965 11.6649C32.0393 11.4004 32.3631 11.2221 32.7183 11.1573C39.1219 9.9879 45.0023 6.88568 49.5516 2.27683C49.6354 2.19118 49.7284 2.11493 49.8291 2.04945V6.35458C49.8287 6.61946 49.7677 6.88081 49.6506 7.11901C49.5335 7.35721 49.3633 7.56606 49.1529 7.72988C45.2699 10.7661 40.8082 12.9971 36.0341 14.2895C35.7556 14.3639 35.5097 14.5272 35.3348 14.7542C35.1599 14.9812 35.0657 15.259 35.067 15.5444C35.0939 19.5268 35.7554 23.4801 37.0274 27.2586C39.2795 33.9102 43.3565 39.5813 49.1664 44.1598C49.3733 44.3231 49.5403 44.5305 49.6551 44.7664C49.7698 45.0024 49.8293 45.2609 49.8291 45.5228L49.8291 49.2957ZM49.5796 33.605L44.2554 29.6177C43.1511 28.7907 42.2555 27.7218 41.6388 26.4949C41.0222 25.268 40.7013 23.9165 40.7013 22.5463V22.3564C40.7013 19.7026 42.8048 17.4553 45.4865 17.3874C47.8085 17.3287 49.777 18.5769 50.3568 20.5852L50.3573 20.5844C50.3573 20.5844 50.5392 21.0506 50.7042 20.5844L50.7048 20.5851C51.285 18.5754 53.2555 17.3267 55.5783 17.3876C58.2588 17.4578 60.3603 19.7039 60.3603 22.3564V22.6199C60.3603 23.9701 60.0486 25.3024 59.4492 26.5154C58.8497 27.7284 57.9782 28.7899 56.9011 29.6192L51.7424 33.5907C51.4338 33.8283 51.0546 33.9585 50.6635 33.9611C50.2724 33.9637 49.8914 33.8385 49.5796 33.605ZM68.0753 28.5497C65.2125 37.0046 59.6798 43.9846 51.6312 49.2957L51.631 49.2957V45.5228C51.6306 45.2614 51.6898 45.0032 51.8042 44.7675C51.9185 44.5318 52.0851 44.3247 52.2915 44.1614C53.6654 43.0821 54.9663 41.9148 56.1858 40.6672L57.7349 39.0045L59.9937 36.0685C61.8842 33.3526 63.3786 30.3869 64.4328 27.2587C65.7047 23.4802 66.3662 19.5269 66.3931 15.5445C66.3944 15.2591 66.3002 14.9813 66.1253 14.7543C65.9504 14.5273 65.7045 14.3639 65.426 14.2896C60.6519 12.9971 56.1902 10.7662 52.3072 7.72997C52.0968 7.56616 51.9266 7.35731 51.8095 7.11911C51.6924 6.88091 51.6313 6.61956 51.631 6.35469V2.04945C51.7316 2.11495 51.8247 2.1912 51.9084 2.27683C56.4578 6.88568 62.3382 9.9879 68.7418 11.1573C69.097 11.2221 69.4207 11.4005 69.6635 11.6649C69.9063 11.9294 70.0547 12.2653 70.0859 12.6212C70.4878 18.01 69.8044 23.4241 68.0753 28.5497Z" fill="white" fill-opacity="0.8"/>
<path d="M55.8953 26.1304C55.9971 26.1304 56.0979 26.1106 56.192 26.072C56.286 26.0335 56.3715 25.977 56.4435 25.9058C56.5154 25.8346 56.5725 25.7501 56.6115 25.657C56.6504 25.564 56.6705 25.4643 56.6705 25.3636C56.6705 25.2629 56.6504 25.1632 56.6115 25.0702C56.5725 24.9771 56.5154 24.8926 56.4435 24.8214C56.3715 24.7502 56.286 24.6937 56.192 24.6552C56.0979 24.6167 55.9971 24.5968 55.8953 24.5968H51.8468C51.6925 24.5968 51.5417 24.6424 51.4138 24.7276C51.2858 24.8129 51.1865 24.934 51.1285 25.0754L50.5429 26.5035L49.827 23.5046C49.7922 23.3587 49.7149 23.2261 49.6047 23.1232C49.4945 23.0203 49.3562 22.9516 49.2069 22.9257C49.0576 22.8997 48.904 22.9176 48.7649 22.9771C48.6258 23.0366 48.5074 23.1352 48.4243 23.2606L47.2293 25.0648H45.8489C45.7468 25.0644 45.6456 25.0839 45.5512 25.1222C45.4567 25.1606 45.3709 25.217 45.2985 25.2882C45.2262 25.3595 45.1688 25.4441 45.1296 25.5374C45.0905 25.6307 45.0703 25.7306 45.0703 25.8316C45.0703 25.9326 45.0905 26.0326 45.1296 26.1258C45.1688 26.2191 45.2262 26.3038 45.2985 26.375C45.3709 26.4463 45.4567 26.5027 45.5512 26.541C45.6456 26.5793 45.7468 26.5988 45.8489 26.5984H47.6483C47.7769 26.5984 47.9036 26.5667 48.0167 26.5062C48.1299 26.4457 48.2261 26.3583 48.2966 26.2518L48.7328 25.5933L49.5929 29.1969C49.6307 29.3552 49.7184 29.4975 49.8433 29.6033C49.9683 29.709 50.1239 29.7728 50.2879 29.7852C50.3079 29.7867 50.3278 29.7875 50.3476 29.7875C50.5018 29.7874 50.6525 29.7419 50.7804 29.6566C50.9083 29.5713 51.0076 29.4503 51.0656 29.3089L52.369 26.1304L55.8953 26.1304Z" fill="white" fill-opacity="0.8"/>
<path d="M34.3421 47.974C34.3301 47.6978 34.2652 47.4263 34.1509 47.174C32.3255 43.1412 30.4193 37.1461 28.7954 31.8135C27.1404 26.3791 23.356 25.2335 21.6694 24.7516C22.2523 23.5495 22.47 22.2058 22.296 20.8837H24.0981C24.337 20.8872 24.5679 20.7993 24.7428 20.6384C24.9177 20.4774 25.0229 20.2559 25.0365 20.02C25.0402 19.9007 25.0196 19.7818 24.9761 19.6705C24.9325 19.5592 24.8667 19.4577 24.7828 19.3721C24.6988 19.2864 24.5982 19.2182 24.4871 19.1717C24.376 19.1252 24.2566 19.1012 24.1359 19.1012H22.3543V15.3103C22.3543 14.6386 22.2205 13.9735 21.9607 13.3529C21.7008 12.7323 21.3199 12.1684 20.8398 11.6935C20.3596 11.2185 19.7896 10.8417 19.1623 10.5847C18.5349 10.3276 17.8625 10.1953 17.1835 10.1953H13.5694C12.198 10.1953 10.8828 10.7342 9.91308 11.6935C8.94337 12.6528 8.39858 13.9538 8.39858 15.3104V19.1012H6.65475C6.41592 19.0976 6.18494 19.1855 6.01008 19.3465C5.83522 19.5075 5.73 19.729 5.7164 19.965C5.71268 20.0842 5.73322 20.2031 5.7768 20.3144C5.82039 20.4257 5.88612 20.5272 5.97011 20.6128C6.0541 20.6985 6.15463 20.7667 6.26574 20.8132C6.37685 20.8597 6.49627 20.8837 6.61693 20.8837H8.34761C8.18139 22.1453 8.37242 23.4278 8.89944 24.5884C7.1697 24.9883 4.16004 26.1618 2.59422 29.5848C2.18655 30.4922 1.92866 31.4585 1.83037 32.4467L0.0177999 49.505C-0.029803 49.9531 0.0183333 50.4061 0.159087 50.8346C0.299841 51.2631 0.53007 51.6576 0.834844 51.9924C1.13962 52.3273 1.51213 52.595 1.92823 52.7783C2.34433 52.9615 2.79472 53.0562 3.25021 53.0563H6.23746L5.08453 69.9605C5.06674 70.2213 5.10329 70.4828 5.19194 70.729C5.28057 70.9752 5.41941 71.2008 5.59982 71.3917C5.78023 71.5826 5.99837 71.7348 6.24071 71.8388C6.48305 71.9429 6.74442 71.9966 7.00861 71.9966H11.7537C12.2448 71.996 12.7172 71.8102 13.0748 71.4773C13.4325 71.1443 13.6484 70.689 13.6787 70.2041L14.4998 54.3663C14.5048 54.2691 14.5293 54.1739 14.5718 54.0861C14.6143 53.9984 14.6739 53.9198 14.7473 53.855C14.852 53.7626 14.981 53.7013 15.1194 53.6782C15.2578 53.6551 15.4 53.6713 15.5295 53.7247C15.659 53.7782 15.7706 53.8668 15.8514 53.9803C15.9321 54.0938 15.9788 54.2276 15.986 54.3662L16.8087 70.2043C16.8391 70.6892 17.055 71.1444 17.4126 71.4774C17.7702 71.8103 18.2426 71.996 18.7337 71.9967H23.4725C23.7376 71.9967 23.9999 71.9426 24.243 71.8378C24.486 71.733 24.7046 71.5797 24.8851 71.3876C25.0656 71.1954 25.2041 70.9686 25.2919 70.7211C25.3798 70.4736 25.4151 70.2109 25.3957 69.9493L23.4208 43.3404C23.9251 44.7261 24.2828 45.6618 24.2892 45.6784C25.1011 47.8863 25.9029 49.6697 26.4404 50.7916C26.6777 51.3027 27.0997 51.7076 27.6234 51.9267C27.8897 52.0345 28.1746 52.0901 28.4623 52.0906C28.8079 52.0902 29.1486 52.0093 29.4568 51.8544L30.6244 51.271C30.6182 51.3563 30.6141 51.4418 30.6141 51.5282V71.0679C30.6105 71.3042 30.6994 71.5327 30.8621 71.7056C31.0248 71.8786 31.2488 71.9827 31.4873 71.9962C31.6079 71.9999 31.728 71.9795 31.8405 71.9364C31.953 71.8933 32.0556 71.8283 32.1422 71.7452C32.2288 71.6621 32.2977 71.5627 32.3447 71.4527C32.3918 71.3428 32.416 71.2247 32.416 71.1053V51.5806C32.4095 51.1075 32.587 50.6501 32.9119 50.3029C33.079 50.1286 33.2803 49.9899 33.5035 49.8954C33.7267 49.8008 33.967 49.7523 34.2099 49.753C34.2162 49.753 34.2225 49.753 34.2286 49.753C34.7009 49.7592 35.1518 49.9488 35.484 50.2809C35.8163 50.6129 36.0034 51.0608 36.0049 51.528V52.7598C36.0013 52.9961 36.0902 53.2246 36.2529 53.3975C36.4156 53.5705 36.6396 53.6746 36.8781 53.6881C36.9986 53.6917 37.1188 53.6714 37.2313 53.6283C37.3438 53.5852 37.4464 53.5202 37.533 53.4371C37.6196 53.354 37.6885 53.2545 37.7355 53.1446C37.7826 53.0347 37.8068 52.9166 37.8068 52.7972V51.5281C37.8036 50.6082 37.4415 49.725 36.796 49.0628C36.1504 48.4006 35.2713 48.0105 34.3421 47.974ZM10.0994 21.4783C10.11 21.3167 10.1825 21.1652 10.3022 21.0547C10.4219 20.9442 10.5796 20.883 10.7434 20.8837H19.9003C20.064 20.883 20.2218 20.9442 20.3414 21.0547C20.4611 21.1652 20.5336 21.3167 20.5442 21.4783C20.5496 21.5714 20.5523 21.6651 20.5523 21.7594C20.5523 23.1317 20.0013 24.4478 19.0204 25.4181C18.0394 26.3884 16.709 26.9336 15.3218 26.9336C13.9346 26.9336 12.6042 26.3884 11.6233 25.4181C10.6424 24.4478 10.0913 23.1317 10.0913 21.7594C10.0913 21.6651 10.094 21.5714 10.0994 21.4783ZM17.6019 28.5385C17.6019 29.1223 17.3674 29.6823 16.9501 30.0952C16.5327 30.508 15.9667 30.74 15.3764 30.74C14.7862 30.74 14.2201 30.508 13.8028 30.0952C13.3854 29.6823 13.1509 29.1223 13.1509 28.5385C13.1509 28.4847 13.1534 28.431 13.1573 28.3776C14.6005 28.8409 16.1567 28.8285 17.5921 28.3421C17.598 28.4072 17.6019 28.4727 17.6019 28.5385ZM32.3181 48.4276L28.6447 50.263C28.5962 50.2874 28.5432 50.3019 28.4889 50.3057C28.4346 50.3095 28.38 50.3025 28.3285 50.2851C28.277 50.2678 28.2295 50.2403 28.1889 50.2045C28.1482 50.1687 28.1152 50.1252 28.0919 50.0765C27.5711 48.9928 26.7825 47.2443 25.9783 45.0577C25.9596 45.0087 24.0873 40.1121 22.8607 36.0868C22.8145 35.9344 22.7279 35.7971 22.6098 35.6891C22.4918 35.5811 22.3466 35.5063 22.1894 35.4727C22.0322 35.439 21.8688 35.4476 21.7161 35.4976C21.5635 35.5475 21.4271 35.6371 21.3213 35.7569L21.3211 35.7563C21.3191 35.7586 21.3175 35.761 21.3155 35.7633C21.3022 35.7786 21.2897 35.7944 21.2775 35.8105C21.2719 35.8179 21.2663 35.8251 21.261 35.8327C21.2503 35.8477 21.2403 35.8632 21.2306 35.8789C21.2248 35.8884 21.2189 35.8977 21.2134 35.9074C21.2051 35.9218 21.1976 35.9365 21.1903 35.9514C21.1845 35.9628 21.1788 35.9743 21.1736 35.986C21.1674 36 21.1619 36.0142 21.1564 36.0285C21.1514 36.0414 21.1463 36.0543 21.142 36.0676C21.1373 36.0817 21.1334 36.0962 21.1294 36.1106C21.1257 36.1241 21.1219 36.1375 21.1188 36.1512C21.1153 36.1668 21.1127 36.1827 21.11 36.1985C21.1079 36.2112 21.1055 36.2238 21.1039 36.2367C21.1017 36.2549 21.1005 36.2732 21.0994 36.2916C21.0988 36.3024 21.0977 36.3131 21.0975 36.3241C21.097 36.3445 21.0979 36.3651 21.0989 36.3858C21.0993 36.3936 21.0988 36.4013 21.0994 36.4092L21.1004 36.4231L21.1005 36.4244L21.714 44.6897H8.61413L9.17924 36.404C9.19532 36.1681 9.11602 35.9356 8.95879 35.7576C8.88094 35.6694 8.78631 35.5973 8.68028 35.5454C8.57426 35.4934 8.45893 35.4626 8.34088 35.4547C8.10246 35.4388 7.86742 35.5173 7.68747 35.6728C7.50751 35.8284 7.39739 36.0482 7.38132 36.2841L6.35901 51.2738H3.25021C3.04724 51.2738 2.84654 51.2316 2.66111 51.1499C2.47569 51.0682 2.30969 50.9489 2.17388 50.7997C2.03806 50.6505 1.93546 50.4748 1.87273 50.2838C1.81 50.0928 1.78855 49.891 1.80975 49.6913L3.62238 32.6334C3.70061 31.8347 3.90775 31.0536 4.23592 30.3198C5.71402 27.0886 8.83164 26.3633 9.91835 26.2062C10.3645 26.7354 10.8871 27.1966 11.4693 27.5751C11.3213 28.1643 11.3115 28.7791 11.4405 29.3726C11.5695 29.9661 11.8339 30.5226 12.2136 30.9995C12.5932 31.4765 13.0781 31.8613 13.631 32.1245C14.184 32.3878 14.7905 32.5225 15.4042 32.5185C16.0179 32.5144 16.6225 32.3716 17.1718 32.101C17.7212 31.8305 18.2008 31.4393 18.5739 30.9573C18.9471 30.4754 19.2039 29.9154 19.3249 29.3203C19.4458 28.7251 19.4276 28.1105 19.2717 27.5233C19.2709 27.5201 19.2696 27.5172 19.2687 27.514C19.7683 27.1769 20.2222 26.778 20.6194 26.327L21.0921 26.4421L21.1014 26.4447C22.7 26.9006 25.6758 27.7493 27.0701 32.3276C28.7106 37.7145 30.6392 43.7775 32.5064 47.9025C32.5493 47.9972 32.5538 48.1046 32.5187 48.2024C32.4836 48.3002 32.4117 48.3809 32.3181 48.4276ZM13.5147 24.9116C14.0527 25.2707 14.6862 25.4644 15.3352 25.4683C15.9584 25.4637 16.5668 25.2802 17.0867 24.9402C17.1708 24.8883 17.2437 24.8204 17.3012 24.7405C17.3586 24.6605 17.3995 24.5701 17.4215 24.4745C17.4434 24.3788 17.446 24.2798 17.429 24.1832C17.4121 24.0865 17.376 23.9942 17.3227 23.9114C17.2695 23.8286 17.2002 23.7571 17.1189 23.701C17.0376 23.6449 16.9458 23.6052 16.8489 23.5844C16.752 23.5635 16.6519 23.5619 16.5544 23.5795C16.4568 23.5971 16.3638 23.6337 16.2806 23.6871C16.0046 23.8746 15.6786 23.977 15.3437 23.9814C15.0089 23.9857 14.6802 23.8917 14.3994 23.7114C14.2384 23.5965 14.038 23.5494 13.8421 23.5803C13.6461 23.6111 13.4704 23.7175 13.3535 23.8762C13.2366 24.0348 13.1879 24.2327 13.2181 24.4268C13.2483 24.6208 13.3549 24.7951 13.5147 24.9116Z" fill="white" fill-opacity="0.8"/>
</svg>
