<svg width="65" height="72" viewBox="0 0 65 72" fill="none" xmlns="http://www.w3.org/2000/svg">
<path d="M63.6905 9.22595L33.8353 0.16433C33.4751 0.0547765 32.9918 0 32.5086 0C32.0254 0 31.5421 0.0547765 31.1819 0.16433L1.3267 9.22595C0.597456 9.44506 0 10.1963 0 10.8849V48.6338C0 49.3225 0.500809 50.2302 1.10705 50.6606L31.3928 71.6792C31.7003 71.8904 32.0956 72 32.4998 72C32.904 72 33.3081 71.8904 33.6069 71.6792L63.8926 50.6606C64.4988 50.238 64.9996 49.3303 64.9996 48.6338V10.8849C65.0172 10.1963 64.4197 9.45289 63.6905 9.22595ZM48.5432 22.5915L29.864 45.4959C29.7327 45.656 29.5608 45.7862 29.3623 45.876C29.1638 45.9658 28.9444 46.0126 28.7218 46.0126C28.4992 46.0126 28.2797 45.9658 28.0813 45.876C27.8828 45.7862 27.7109 45.656 27.5796 45.4959L16.474 31.88C16.1401 31.4653 16.474 30.8862 17.045 30.8862H21.895C22.3431 30.8862 22.7736 31.0818 23.0372 31.4027L28.7218 38.3671L41.98 22.1063C42.2436 21.7855 42.6653 21.5898 43.1222 21.5898H47.9721C48.5432 21.5977 48.8771 22.1767 48.5432 22.5915Z" fill="white" fill-opacity="0.7"/>
</svg>
