<svg width="72" height="72" viewBox="0 0 72 72" fill="none" xmlns="http://www.w3.org/2000/svg">
<path d="M58.4224 34.7266H55.9531V40.939H58.4224V34.7266Z" fill="white" fill-opacity="0.8"/>
<path d="M27.5547 52.1172V67.027H47.3089V52.1172H38.6664V60.8146H31.2586V52.1172H27.5547Z" fill="white" fill-opacity="0.8"/>
<path d="M36.1958 52.1172H33.7266V58.3296H36.1958V52.1172Z" fill="white" fill-opacity="0.8"/>
<path d="M49.7734 52.1172V67.027H69.5276V52.1172H60.8852V60.8146H53.4774V52.1172H49.7734Z" fill="white" fill-opacity="0.8"/>
<path d="M58.4224 52.1172H55.9531V58.3296H58.4224V52.1172Z" fill="white" fill-opacity="0.8"/>
<path d="M60.8852 43.4239H53.4774V34.7266H49.7734V49.6364H69.5276V35.969C69.5273 35.6396 69.3971 35.3238 69.1656 35.0909C68.9342 34.858 68.6203 34.7269 68.293 34.7266H60.8852V43.4239Z" fill="white" fill-opacity="0.8"/>
<path d="M47.3089 34.7266H38.6664V43.4239H31.2586V34.7266H27.5547V49.6364H47.3089V34.7266Z" fill="white" fill-opacity="0.8"/>
<path d="M13.9693 52.1172H11.5V58.3296H13.9693V52.1172Z" fill="white" fill-opacity="0.8"/>
<path d="M36.1958 34.7266H33.7266V40.939H36.1958V34.7266Z" fill="white" fill-opacity="0.8"/>
<path d="M71.9991 69.5156H2.85938V72.0006H71.9991V69.5156Z" fill="white" fill-opacity="0.8"/>
<path d="M13.9693 34.7266H11.5V40.939H13.9693V34.7266Z" fill="white" fill-opacity="0.8"/>
<path d="M25.0823 34.7266H16.4399V43.4239H9.03204V34.7266H6.56276C6.23543 34.7269 5.92161 34.858 5.69016 35.0909C5.4587 35.3238 5.3285 35.6396 5.32812 35.969V49.6364H25.0823V34.7266Z" fill="white" fill-opacity="0.8"/>
<path d="M5.32812 52.1172V67.027H25.0823V52.1172H16.4399V60.8146H9.03204V52.1172H5.32812Z" fill="white" fill-opacity="0.8"/>
<path d="M8.18054 16.1507L7.39844 18.5078L18.4908 22.2353L19.2729 19.8782L8.18054 16.1507Z" fill="white" fill-opacity="0.8"/>
<path d="M0.782104 19.8773L0 22.2344L11.0923 25.9618L11.8744 23.6047L0.782104 19.8773Z" fill="white" fill-opacity="0.8"/>
<path d="M56.243 6.21322L55.4609 8.57031L66.5533 12.2978L67.3354 9.94067L56.243 6.21322Z" fill="white" fill-opacity="0.8"/>
<path d="M55.0086 0.00242444L54.2266 2.35938L61.6214 4.84434L62.4035 2.48739L55.0086 0.00242444Z" fill="white" fill-opacity="0.8"/>
<path d="M14.7955 11.7714L59.2424 27.4267C59.4286 27.4922 59.6276 27.512 59.8228 27.4842C60.0181 27.4565 60.2039 27.3821 60.3647 27.2673C60.5255 27.1525 60.6567 27.0006 60.7472 26.8243C60.8377 26.648 60.885 26.4524 60.885 26.254V23.3988C60.8857 22.6163 60.6414 21.8534 60.1867 21.2186C59.7321 20.5838 59.0902 20.1094 58.3523 19.8626L46.22 15.7928L44.0218 3.62607C43.9567 3.26582 43.7601 2.94311 43.4706 2.72137C43.181 2.49964 42.8195 2.39492 42.4572 2.42781C42.0948 2.46069 41.7578 2.62881 41.5123 2.8991C41.2669 3.16939 41.1308 3.52231 41.1308 3.88846V13.9305L17.892 8.4278L17 4.83723C16.909 4.47062 16.6878 4.15018 16.3782 3.93628C16.0687 3.72238 15.6921 3.6298 15.3194 3.67597C14.9467 3.72214 14.6036 3.90388 14.3548 4.18695C14.1061 4.47002 13.9687 4.83487 13.9688 5.21277V10.5987C13.9689 10.8563 14.0486 11.1074 14.1967 11.3175C14.3448 11.5275 14.554 11.6862 14.7955 11.7714Z" fill="white" fill-opacity="0.8"/>
</svg>
