<svg width="72" height="72" viewBox="0 0 72 72" fill="none" xmlns="http://www.w3.org/2000/svg">
<path d="M21.6902 17.3635V0.96875L1.00781 19.8256H18.9896C20.9333 19.8256 21.6902 19.1355 21.6902 17.3635Z" fill="white" fill-opacity="0.8"/>
<path d="M71.3764 25.3415L66.6033 20.99C65.7719 20.2319 64.4257 20.2331 63.5942 20.99L60.5 23.8109L68.2836 30.906L71.3766 28.0837C72.2066 27.3257 72.208 26.0983 71.3764 25.3415Z" fill="white" fill-opacity="0.8"/>
<path d="M26.2206 64.3058C25.5607 64.4586 24.8623 64.284 24.3807 63.845C23.8991 63.406 23.7063 62.768 23.874 62.1664L28.3505 46.1015L52.7936 23.8148L54.7532 22.0296L59.0861 18.0782L59.7418 17.4815C59.9707 17.2728 60.23 17.1055 60.4816 16.9273V3.1898C60.4816 1.43114 58.9105 0 56.9801 0H25.6924V19.5542C25.6924 21.7118 23.7674 23.4681 21.4021 23.4681H0V68.8078C0 70.5676 1.57103 72 3.50147 72H56.9803C58.9105 72 60.4817 70.5677 60.4817 68.8078V45.0464L43.8407 60.22L26.2206 64.3058Z" fill="white" fill-opacity="0.8"/>
<path d="M33.2608 48.646L30.6094 58.1593L41.0431 55.7397L66.8647 32.1965L59.0837 25.1016L33.2608 48.646ZM38.1405 50.2577L36.3724 48.6458L58.8708 28.1346L60.6402 29.7477L38.1405 50.2577Z" fill="white" fill-opacity="0.8"/>
</svg>
