<svg width="43" height="75" viewBox="0 0 43 75" fill="none" xmlns="http://www.w3.org/2000/svg">
<path d="M42.5676 50.524C42.5676 37.2115 31.6794 35.6942 22.9314 34.4769C13.3971 33.15 8.00194 31.9962 8.00194 23.775C8.00194 16.875 15.2233 14.4231 21.4076 14.4231C24.4896 14.3234 27.5511 14.9587 30.3396 16.2768C33.1282 17.5948 35.564 19.5578 37.4461 22.0038L41.9281 18.3808C39.9125 15.7851 37.4045 13.614 34.5483 11.9922C31.692 10.3705 28.5439 9.33004 25.2848 8.93077V0H19.5238V8.71731C9.11092 9.35192 2.241 15.2365 2.241 23.775C2.241 37.4192 13.2732 38.9567 22.1364 40.1885C31.5066 41.4952 36.8066 42.6173 36.8066 50.524C36.8066 59.2702 27.7821 60.5769 22.4043 60.5769C12.5243 60.5769 8.35336 57.7962 4.48201 52.9962L0 56.6192C2.28352 59.6327 5.23701 62.0717 8.62605 63.7427C12.0151 65.4136 15.7464 66.2704 19.5238 66.2452V75H25.2848V66.2163C36.0174 65.3394 42.5676 59.5038 42.5676 50.524Z" fill="#00AEEF"/>
</svg>
