<svg width="75" height="75" viewBox="0 0 75 75" fill="none" xmlns="http://www.w3.org/2000/svg">
<path d="M41.2045 6.82819C42.5212 7.02625 43.6549 8.11875 43.9021 9.42675C44.8876 9.45844 45.6949 10.1738 46.4666 10.7878C47.2382 11.4018 48.219 11.9778 49.1594 11.6799L48.8013 8.97755C48.7213 8.37306 48.6349 7.75036 48.3267 7.22431C47.8863 6.47406 47.0702 6.0415 46.2954 5.64617C45.3748 5.17716 44.4376 4.70181 43.4212 4.51643C42.4047 4.33104 41.2789 4.47365 40.4835 5.13279C40.1056 5.44652 39.8109 6.00981 40.0914 6.41306C40.3243 6.75055 40.8004 6.76719 41.2045 6.82819ZM50.9712 7.65212C51.7849 7.7258 52.524 8.33187 52.7562 9.1146C52.7894 9.2271 52.8116 9.35544 52.7522 9.45764C52.673 9.59391 52.4892 9.61926 52.3323 9.61372C52.0776 9.60946 51.8268 9.55028 51.5971 9.44022C51.2938 9.2862 51.0555 9.02881 50.9253 8.71452C50.7978 8.39902 50.7874 8.04831 50.896 7.7258M57.4763 38.9077C56.5859 38.7167 55.6233 37.8587 55.1194 37.137C54.7875 36.6609 54.5577 36.1142 54.1846 35.669C53.7718 35.177 53.2077 34.8371 52.6389 34.5392C50.1529 33.2433 47.394 32.5584 44.5905 32.5412C42.7533 32.5301 39.9844 32.2814 38.9276 30.3705C38.7525 30.0544 38.9094 29.6685 38.9814 29.3136C39.0535 28.9587 38.93 28.4738 38.5687 28.4556C37.8794 28.4208 37.7194 29.2431 36.8511 29.1425C36.2237 29.0696 35.3752 28.6038 35.1628 27.9826C34.9695 27.417 35.1668 26.1526 35.2088 25.5513C35.2864 24.4389 39.601 24.5087 40.3813 24.5736C40.2348 25.4229 41.0928 26.7499 42.0427 25.9775C42.8658 25.3088 41.8462 23.4613 42.5632 22.5376C43.4988 21.3302 44.6999 20.1252 45.7551 18.9923C46.0522 18.673 46.3509 18.3529 46.6916 18.0812C47.4355 17.4894 48.3465 17.1551 49.1681 16.6766C47.563 14.1937 44.6531 12.6092 41.6973 12.6084C41.4691 12.6084 41.2195 12.625 41.0516 12.7795C40.8305 12.9823 40.8432 13.3285 40.8749 13.6264C40.9613 14.4472 41.0627 15.2672 41.1791 16.084L38.6519 15.0802C38.0268 14.8322 37.3708 14.5605 36.9636 14.0249C36.5572 13.4894 36.531 12.6044 37.0888 12.2297C37.8747 11.7013 39.0678 12.5308 39.8442 11.9897C40.3116 11.6632 40.4328 10.9431 40.9597 10.7252C41.4311 10.5311 41.9413 10.848 42.4396 10.9589C42.9371 11.0699 43.6414 10.6682 43.4006 10.2182C42.0347 9.30791 40.4756 8.35564 38.865 8.67412C38.0545 8.83415 37.3399 9.30553 36.5501 9.54717C34.6447 10.1311 32.6197 9.32851 30.7897 8.53944C30.5108 8.41901 30.2224 8.29305 30.0172 8.06884C29.7843 7.81453 29.6861 7.46436 29.4872 7.18232C28.8566 6.28947 26.51 6.29184 26.6637 6.24827C26.4664 6.23163 26.0845 6.67687 25.8873 6.65944C25.7146 6.64439 23.9597 8.43961 23.6389 8.6551C22.5638 9.37921 21.3533 9.6763 20.0437 10.0629C18.7563 10.4432 17.293 11.9112 19.2966 12.0103C20.9381 12.0911 23.3267 11.504 24.9247 11.1364C25.2194 11.0691 25.5411 10.9962 25.8128 11.1285C26.079 11.2576 26.2224 11.5468 26.3357 11.8201C27.3343 14.2517 27.4594 16.9542 26.6898 19.4676C26.4268 20.3169 26.0592 21.2137 26.3182 22.0646C26.6922 23.291 28.2355 23.9311 28.466 25.1924C28.565 25.7351 28.3987 26.3261 28.6237 26.8291C29.1521 28.0088 30.7643 27.4812 31.6746 27.2704C31.6698 27.272 31.8093 29.1068 31.9345 29.3081C32.3765 30.0171 33.5332 30.1978 34.2621 30.4014C36.9501 31.1532 39.315 32.2964 41.7377 33.6781C42.3239 34.0124 42.9371 34.3721 43.2786 34.9552C44.1936 36.5159 42.6781 38.3634 42.4824 40.1618C42.4301 40.6732 42.4874 41.19 42.6505 41.6775C42.8137 42.1651 43.0788 42.6123 43.4283 42.9893C43.8268 43.4139 44.3251 43.7364 44.7212 44.165C45.6442 45.1632 45.9025 46.6304 45.7567 47.9828C45.6117 49.3352 45.1142 50.6194 44.6975 51.9139C43.9181 54.3377 43.4131 56.8412 43.1922 59.3776C43.1265 60.1326 43.5321 60.3291 44.2087 60.1215C45.1728 59.8268 44.9993 58.9165 45.2433 58.1988C45.9445 56.131 48.1754 54.2891 50.0776 53.3883C50.9229 52.9882 51.8506 52.6848 52.5066 52.0185C53.4319 51.0789 53.6348 49.599 54.5633 48.6618C55.3539 47.8632 56.5542 47.5803 57.352 46.7881C58.2171 45.9285 58.5189 44.6689 59.0806 43.6215C59.5037 42.8332 60.3134 42.1891 60.6707 41.3961C61.7394 39.0202 58.8517 39.2024 57.4763 38.9077Z" fill="#00AEEF"/>
<path d="M37.5 0C16.7892 0 0 16.7892 0 37.5C0 58.2108 16.7892 75 37.5 75C58.2108 75 75 58.2108 75 37.5C75 16.7892 58.2108 0 37.5 0ZM50.0047 69.463C49.1182 69.1121 48.1422 68.9885 47.205 69.1659C45.8273 69.4266 44.3814 70.2489 43.1202 69.6349C41.8708 69.0273 41.6189 67.217 42.3018 66.0065C42.9847 64.7959 44.3038 64.0924 45.6102 63.6194C44.7221 62.9009 43.3618 63.2344 42.4412 63.9118C41.5206 64.5883 40.8338 65.5485 39.8957 66.2006C38.9577 66.8526 37.5634 67.1116 36.7347 66.3249C36.707 66.9738 35.9488 67.3454 35.2991 67.343C34.6495 67.3406 34.0054 67.1116 33.3621 67.198C32.493 67.3137 31.7848 67.9974 31.3997 68.7849C31.0385 69.5248 30.9149 70.3535 30.8095 71.1719C15.0716 68.0497 3.16897 54.141 3.16897 37.5C3.16897 18.5694 18.5702 3.16897 37.5 3.16897C44.3537 3.16897 50.7384 5.19553 56.1034 8.66951C55.9997 9.2114 55.9616 9.75726 56.0543 10.3023C56.2666 11.5572 57.4027 12.7527 58.6592 12.5459L58.889 11.6341C60.475 11.9534 61.8266 13.2352 62.229 14.8023C61.991 14.9606 61.8034 15.1839 61.6884 15.4456C61.5734 15.7073 61.5358 15.9966 61.5802 16.279C63.5085 16.6411 64.7508 18.6217 65.0772 20.5563C65.4036 22.491 65.0589 24.47 65.0811 26.4324C65.116 29.5182 66.363 32.9097 69.1754 34.1797C69.9574 34.5331 70.8906 34.6741 71.6845 34.4063C71.7764 35.4267 71.831 36.4574 71.831 37.5008C71.831 52.0186 62.767 64.4521 50.0047 69.463Z" fill="#00AEEF"/>
</svg>
