<svg width="50" height="50" viewBox="0 0 50 50" fill="none" xmlns="http://www.w3.org/2000/svg">
<path d="M42 0H8C3.58172 0 0 3.58172 0 8V42C0 46.4183 3.58172 50 8 50H42C46.4183 50 50 46.4183 50 42V8C50 3.58172 46.4183 0 42 0Z" fill="url(#paint0_linear_1_60417)"/>
<path d="M34.4739 27.1882C34.4739 32.4245 30.2311 36.6674 24.9947 36.6674C19.7584 36.6674 15.5156 32.4245 15.5156 27.1882C15.5156 22.4486 18.9928 18.5202 23.5364 17.823V16.2507H22.2604C21.9596 16.2507 21.7135 16.0046 21.7135 15.7038V13.8809C21.7135 13.5801 21.9596 13.334 22.2604 13.334H27.7291C28.0299 13.334 28.276 13.5801 28.276 13.8809V15.7038C28.276 16.0046 28.0299 16.2507 27.7291 16.2507H26.4531V17.823C28.162 18.0873 29.7206 18.8073 30.9967 19.8555L32.2499 18.6022C32.4641 18.3881 32.8105 18.3881 33.0247 18.6022L34.3144 19.892C34.5286 20.1062 34.5286 20.4525 34.3144 20.6667L32.9745 22.0065L32.9472 22.0339C33.9134 23.5105 34.4739 25.2832 34.4739 27.1882ZM26.4531 28.8288V21.9245C26.4531 21.6237 26.207 21.3776 25.9062 21.3776H24.0833C23.7825 21.3776 23.5364 21.6237 23.5364 21.9245V28.8288C23.5364 29.1296 23.7825 29.3757 24.0833 29.3757H25.9062C26.207 29.3757 26.4531 29.1296 26.4531 28.8288Z" fill="white"/>
<defs>
<linearGradient id="paint0_linear_1_60417" x1="62.5" y1="-39.0625" x2="10.488" y2="99.6361" gradientUnits="userSpaceOnUse">
<stop stop-color="#77E0D4"/>
<stop offset="1" stop-color="#77CDE0"/>
</linearGradient>
</defs>
</svg>
