<svg width="50" height="51" viewBox="0 0 50 51" fill="none" xmlns="http://www.w3.org/2000/svg">
<path d="M42 0H8C3.58172 0 0 3.58172 0 8V42C0 46.4183 3.58172 50 8 50H42C46.4183 50 50 46.4183 50 42V8C50 3.58172 46.4183 0 42 0Z" fill="url(#paint0_linear_1_60420)"/>
<g filter="url(#filter0_dd_1_60420)">
<path d="M20.676 29.8602C20.28 29.4641 20.4864 29.5758 19.5312 29.3201C19.0978 29.2039 18.7169 28.9806 18.3723 28.7131L16.3047 33.7825C16.1047 34.2734 16.4784 34.8065 17.0079 34.7865L19.4091 34.6949L21.0606 36.4394C21.4252 36.824 22.065 36.7042 22.2651 36.2134L24.6371 30.3975C24.1431 30.6727 23.5949 30.834 23.028 30.834C22.1393 30.834 21.3044 30.4881 20.676 29.8602ZM33.695 33.7825L31.6274 28.7131C31.2829 28.9811 30.9019 29.2039 30.4685 29.3201C29.5083 29.5772 29.7189 29.4651 29.3238 29.8602C28.6953 30.4881 27.86 30.834 26.9713 30.834C26.4044 30.834 25.8562 30.6723 25.3622 30.3975L27.7342 36.2134C27.9343 36.7042 28.5745 36.824 28.9387 36.4394L30.5907 34.6949L32.9918 34.7865C33.5215 34.8065 33.8951 34.2729 33.695 33.7825ZM28.2355 28.8289C28.9318 28.1202 29.0116 28.1813 30.0032 27.911C30.6362 27.7383 31.1311 27.2348 31.3007 26.5904C31.6415 25.2961 31.5531 25.4524 32.4833 24.5055C32.9467 24.0338 33.1276 23.3461 32.9581 22.7017C32.6177 21.4084 32.6172 21.5888 32.9581 20.2941C33.1276 19.6498 32.9467 18.9621 32.4833 18.4904C31.5531 17.5434 31.6415 17.6993 31.3007 16.4055C31.1311 15.7611 30.6362 15.2575 30.0032 15.0848C28.7327 14.738 28.8858 14.8287 27.9548 13.8812C27.4913 13.4096 26.8155 13.225 26.1825 13.3977C24.9124 13.7441 25.0897 13.7445 23.8173 13.3977C23.1843 13.225 22.5085 13.4091 22.045 13.8812C21.1149 14.8282 21.268 14.738 19.997 15.0848C19.364 15.2575 18.8691 15.7611 18.6995 16.4055C18.3591 17.6993 18.4471 17.5434 17.517 18.4904C17.0535 18.9621 16.8721 19.6498 17.0421 20.2941C17.3825 21.5866 17.383 21.4061 17.0421 22.7013C16.8726 23.3456 17.0535 24.0333 17.517 24.5055C18.4471 25.4524 18.3587 25.2961 18.6995 26.5904C18.8691 27.2348 19.364 27.7383 19.997 27.911C21.0169 28.189 21.093 28.1453 21.7643 28.8289C22.3672 29.4427 23.3064 29.5526 24.031 29.0941C24.3208 28.9101 24.6569 28.8125 25.0001 28.8125C25.3433 28.8125 25.6794 28.9101 25.9692 29.0941C26.6933 29.5526 27.6326 29.4427 28.2355 28.8289ZM20.7006 21.3532C20.7006 18.9366 22.6256 16.9774 24.9999 16.9774C27.3742 16.9774 29.2991 18.9366 29.2991 21.3532C29.2991 23.7699 27.3742 25.7291 24.9999 25.7291C22.6256 25.7291 20.7006 23.7699 20.7006 21.3532Z" fill="white"/>
</g>
<defs>
<filter id="filter0_dd_1_60420" x="5.25" y="2.33398" width="42.5" height="48.333" filterUnits="userSpaceOnUse" color-interpolation-filters="sRGB">
<feFlood flood-opacity="0" result="BackgroundImageFix"/>
<feColorMatrix in="SourceAlpha" type="matrix" values="0 0 0 0 0 0 0 0 0 0 0 0 0 0 0 0 0 0 127 0" result="hardAlpha"/>
<feOffset dx="7" dy="7"/>
<feGaussianBlur stdDeviation="3.5"/>
<feColorMatrix type="matrix" values="0 0 0 0 0 0 0 0 0 0 0 0 0 0 0 0 0 0 0.1 0"/>
<feBlend mode="normal" in2="BackgroundImageFix" result="effect1_dropShadow_1_60420"/>
<feColorMatrix in="SourceAlpha" type="matrix" values="0 0 0 0 0 0 0 0 0 0 0 0 0 0 0 0 0 0 127 0" result="hardAlpha"/>
<feOffset dx="-4" dy="-4"/>
<feGaussianBlur stdDeviation="3.5"/>
<feColorMatrix type="matrix" values="0 0 0 0 1 0 0 0 0 1 0 0 0 0 1 0 0 0 0.1 0"/>
<feBlend mode="normal" in2="effect1_dropShadow_1_60420" result="effect2_dropShadow_1_60420"/>
<feBlend mode="normal" in="SourceGraphic" in2="effect2_dropShadow_1_60420" result="shape"/>
</filter>
<linearGradient id="paint0_linear_1_60420" x1="57.0575" y1="53.447" x2="-3.0988" y2="-5.53741" gradientUnits="userSpaceOnUse">
<stop stop-color="#3AB11C"/>
<stop offset="1" stop-color="#7DD168"/>
</linearGradient>
</defs>
</svg>
