<svg width="50" height="50" viewBox="0 0 50 50" fill="none" xmlns="http://www.w3.org/2000/svg">
<g clip-path="url(#clip0_3_243)">
<path d="M42 0H8C3.58172 0 0 3.58172 0 8V42C0 46.4183 3.58172 50 8 50H42C46.4183 50 50 46.4183 50 42V8C50 3.58172 46.4183 0 42 0Z" fill="#4A82EC"/>
<path d="M37.5388 26.5521H25.907L33.6536 34.2943C33.9496 34.5902 34.4369 34.6143 34.7413 34.3276C36.6383 32.5414 37.9432 30.1334 38.3261 27.4266C38.3918 26.9631 38.007 26.5521 37.5388 26.5521ZM36.7629 23.3774C36.3589 17.5247 31.6795 12.8479 25.8237 12.4442C25.3766 12.4134 25.0001 12.7901 25.0001 13.2379V24.2004H35.9692C36.4173 24.2004 36.7937 23.8242 36.7629 23.3774ZM22.6472 26.5521V14.9267C22.6472 14.4588 22.2359 14.0742 21.7727 14.1399C15.9311 14.9649 11.4659 20.0655 11.6737 26.1783C11.8874 32.4561 17.2958 37.6043 23.5801 37.5254C26.0506 37.4945 28.3335 36.6989 30.2104 35.3682C30.5977 35.0939 30.6232 34.5241 30.2874 34.1885L22.6472 26.5521Z" fill="white"/>
</g>
<defs>
<clipPath id="clip0_3_243">
<rect width="50" height="50" fill="white"/>
</clipPath>
</defs>
</svg>
