<svg width="50" height="50" viewBox="0 0 50 50" fill="none" xmlns="http://www.w3.org/2000/svg">
<g clip-path="url(#clip0_3_248)">
<path d="M42 0H8C3.58172 0 0 3.58172 0 8V42C0 46.4183 3.58172 50 8 50H42C46.4183 50 50 46.4183 50 42V8C50 3.58172 46.4183 0 42 0Z" fill="url(#paint0_linear_3_248)"/>
<path d="M35.2624 20.3807C31.2462 13.2571 19.4667 11.6979 19.4667 11.6979C19.4667 11.6979 24.9022 17.6334 17.9559 22.327C13.5634 25.2893 11.8269 29.1388 13.7086 33.3431C15.1495 36.5635 18.1979 37.8753 21.4828 38.3646C19.9129 35.4022 21.128 31.7839 21.2624 31.3968C24.3323 36.042 30.1333 31.3968 27.2194 26.3485C31.0366 27.1764 31.6065 33.8001 28.6763 37.9345C33.0043 36.5743 35.886 33.1549 36.6763 30.1065C37.5097 26.9184 36.8753 23.2302 35.2624 20.3807Z" fill="white"/>
</g>
<defs>
<linearGradient id="paint0_linear_3_248" x1="50" y1="-8.59375" x2="-28.5007" y2="82.4613" gradientUnits="userSpaceOnUse">
<stop stop-color="#EA8B8B"/>
<stop offset="1" stop-color="#EE4848"/>
</linearGradient>
<clipPath id="clip0_3_248">
<rect width="50" height="50" fill="white"/>
</clipPath>
</defs>
</svg>
