<svg width="127" height="127" viewBox="0 0 127 127" fill="none" xmlns="http://www.w3.org/2000/svg">
<circle cx="63.5" cy="63.5" r="63.5" fill="#00AEEF" fill-opacity="0.5"/>
<circle cx="64" cy="64" r="51" fill="#00AEEF"/>
<path d="M81.9558 58C81.9558 53.2261 80.064 48.6477 76.6966 45.2721C73.3293 41.8964 68.7622 40 64 40C59.2378 40 54.6707 41.8964 51.3034 45.2721C47.936 48.6477 46.0442 53.2261 46.0442 58C46.0442 65.384 51.9377 75.008 64 86.536C76.0623 75.008 81.9558 65.384 81.9558 58ZM64 92C49.368 78.668 42.0541 67.332 42.0541 58C42.0541 52.1652 44.3662 46.5695 48.4819 42.4437C52.5975 38.3179 58.1796 36 64 36C69.8204 36 75.4025 38.3179 79.5181 42.4437C83.6338 46.5695 85.9459 52.1652 85.9459 58C85.9459 67.332 78.632 78.668 64 92Z" fill="white"/>
<path d="M64 60.0784C65.0609 60.0784 66.0783 59.658 66.8284 58.9097C67.5786 58.1614 68 57.1465 68 56.0883C68 55.03 67.5786 54.0151 66.8284 53.2668C66.0783 52.5185 65.0609 52.0981 64 52.0981C62.9391 52.0981 61.9217 52.5185 61.1716 53.2668C60.4214 54.0151 60 55.03 60 56.0883C60 57.1465 60.4214 58.1614 61.1716 58.9097C61.9217 59.658 62.9391 60.0784 64 60.0784ZM64 64.0686C61.8783 64.0686 59.8434 63.2278 58.3431 61.7312C56.8429 60.2346 56 58.2048 56 56.0883C56 53.9717 56.8429 51.9419 58.3431 50.4453C59.8434 48.9487 61.8783 48.1079 64 48.1079C66.1217 48.1079 68.1566 48.9487 69.6569 50.4453C71.1571 51.9419 72 53.9717 72 56.0883C72 58.2048 71.1571 60.2346 69.6569 61.7312C68.1566 63.2278 66.1217 64.0686 64 64.0686ZM85.6 76.0391L92 91.9998H74V88.0096H54V91.9998H36L42.4 76.0391H85.6ZM81.292 76.0391H46.708L41.908 88.0096H86.092L81.292 76.0391Z" fill="white"/>
</svg>
