<svg width="50" height="50" viewBox="0 0 50 50" fill="none" xmlns="http://www.w3.org/2000/svg">
<g clip-path="url(#clip0_10_232)">
<path d="M42 0H8C3.58172 0 0 3.58172 0 8V42C0 46.4183 3.58172 50 8 50H42C46.4183 50 50 46.4183 50 42V8C50 3.58172 46.4183 0 42 0Z" fill="#4A82EC"/>
<path d="M37.5388 26.552H25.907L33.6536 34.2942C33.9496 34.5901 34.4369 34.6142 34.7413 34.3275C36.6383 32.5413 37.9432 30.1333 38.3261 27.4265C38.3918 26.963 38.007 26.552 37.5388 26.552ZM36.7629 23.3773C36.3589 17.5246 31.6795 12.8478 25.8237 12.4441C25.3766 12.4133 25.0001 12.79 25.0001 13.2378V24.2003H35.9692C36.4173 24.2003 36.7937 23.8241 36.7629 23.3773ZM22.6472 26.552V14.9266C22.6472 14.4587 22.2359 14.0741 21.7727 14.1398C15.9311 14.9648 11.4659 20.0654 11.6737 26.1782C11.8874 32.456 17.2958 37.6042 23.5801 37.5253C26.0506 37.4944 28.3335 36.6988 30.2104 35.3681C30.5977 35.0938 30.6232 34.524 30.2874 34.1884L22.6472 26.552Z" fill="white"/>
</g>
<defs>
<clipPath id="clip0_10_232">
<rect width="50" height="50" fill="white"/>
</clipPath>
</defs>
</svg>
