<svg width="50" height="50" viewBox="0 0 50 50" fill="none" xmlns="http://www.w3.org/2000/svg">
<path d="M42 0H8C3.58172 0 0 3.58172 0 8V42C0 46.4183 3.58172 50 8 50H42C46.4183 50 50 46.4183 50 42V8C50 3.58172 46.4183 0 42 0Z" fill="url(#paint0_linear_1_60414)"/>
<path d="M36.0133 26.2965H32.7726V30.1854L31.4763 29.3226L30.18 30.1854V26.2965H26.9392C26.5827 26.2965 26.2911 26.5882 26.2911 26.9447V34.7225C26.2911 35.079 26.5827 35.3706 26.9392 35.3706H36.0133C36.3698 35.3706 36.6614 35.079 36.6614 34.7225V26.9447C36.6614 26.5882 36.3698 26.2965 36.0133 26.2965ZM20.4577 23.704H29.5318C29.8883 23.704 30.18 23.4123 30.18 23.0558V15.278C30.18 14.9215 29.8883 14.6299 29.5318 14.6299H26.2911V18.5188L24.9948 17.6559L23.6985 18.5188V14.6299H20.4577C20.1013 14.6299 19.8096 14.9215 19.8096 15.278V23.0558C19.8096 23.4123 20.1013 23.704 20.4577 23.704ZM23.0503 26.2965H19.8096V30.1854L18.5133 29.3226L17.217 30.1854V26.2965H13.9763C13.6198 26.2965 13.3281 26.5882 13.3281 26.9447V34.7225C13.3281 35.079 13.6198 35.3706 13.9763 35.3706H23.0503C23.4068 35.3706 23.6985 35.079 23.6985 34.7225V26.9447C23.6985 26.5882 23.4068 26.2965 23.0503 26.2965Z" fill="white"/>
<defs>
<linearGradient id="paint0_linear_1_60414" x1="-21.0938" y1="-19.5312" x2="77.571" y2="57.8828" gradientUnits="userSpaceOnUse">
<stop stop-color="#E688C6"/>
<stop offset="1" stop-color="#A688E6"/>
</linearGradient>
</defs>
</svg>
