<svg width="50" height="50" viewBox="0 0 50 50" fill="none" xmlns="http://www.w3.org/2000/svg">
<g clip-path="url(#clip0_1_60407)">
<path d="M42 0H8C3.58172 0 0 3.58172 0 8V42C0 46.4183 3.58172 50 8 50H42C46.4183 50 50 46.4183 50 42V8C50 3.58172 46.4183 0 42 0Z" fill="url(#paint0_linear_1_60407)"/>
<path d="M15.1584 29.3607C15.2423 29.6706 15.5631 29.8565 15.873 29.7727L23.7626 27.6581C24.0725 27.5743 24.2584 27.2534 24.1745 26.9435L22.3626 20.1805C22.2787 19.8706 21.9579 19.6847 21.648 19.7685L18.8334 20.5269L19.7376 23.9065L17.4844 24.5081L16.5803 21.1284L13.762 21.8831C13.4522 21.967 13.2662 22.2878 13.3501 22.5977L15.1584 29.3607ZM27.3282 15.667C26.6829 15.667 26.1615 16.1883 26.1615 16.8336V28.6315L13.5433 32.0732C13.3865 32.117 13.2954 32.2774 13.3391 32.4305L13.7985 34.1185C13.8423 34.2753 14.0027 34.3664 14.1558 34.3227L28.5094 30.4071C28.5969 32.5873 30.3761 34.3336 32.5782 34.3336C34.8349 34.3336 36.6615 32.5071 36.6615 30.2503V15.667H27.3282ZM32.5782 32.0003C31.612 32.0003 30.8282 31.2164 30.8282 30.2503C30.8282 29.2841 31.612 28.5003 32.5782 28.5003C33.5443 28.5003 34.3282 29.2841 34.3282 30.2503C34.3282 31.2164 33.5443 32.0003 32.5782 32.0003Z" fill="white"/>
</g>
<defs>
<linearGradient id="paint0_linear_1_60407" x1="95.8333" y1="-35" x2="43.328" y2="69.1182" gradientUnits="userSpaceOnUse">
<stop stop-color="#15E9B6"/>
<stop offset="1" stop-color="#5E47EE"/>
</linearGradient>
<clipPath id="clip0_1_60407">
<rect width="50" height="50" fill="white"/>
</clipPath>
</defs>
</svg>
