<svg width="50" height="50" viewBox="0 0 50 50" fill="none" xmlns="http://www.w3.org/2000/svg">
<path d="M42 0H8C3.58172 0 0 3.58172 0 8V42C0 46.4183 3.58172 50 8 50H42C46.4183 50 50 46.4183 50 42V8C50 3.58172 46.4183 0 42 0Z" fill="url(#paint0_linear_1_60424)"/>
<path d="M31.7031 28.5004H18.301C18.1406 28.5004 18.0094 28.6316 18.0094 28.792L18.0057 30.542C18.0057 30.7025 18.137 30.8337 18.2974 30.8337H31.7031C31.8635 30.8337 31.9948 30.7025 31.9948 30.542V28.792C31.9948 28.6316 31.8635 28.5004 31.7031 28.5004ZM31.7031 32.0004H18.2901C18.1297 32.0004 17.9984 32.1316 17.9984 32.292L17.9948 34.042C17.9948 34.2025 18.126 34.3337 18.2864 34.3337H31.7031C31.8635 34.3337 31.9948 34.2025 31.9948 34.042V32.292C31.9948 32.1316 31.8635 32.0004 31.7031 32.0004ZM31.7031 25.0004H18.3083C18.1479 25.0004 18.0167 25.1316 18.0167 25.292L18.013 27.042C18.013 27.2025 18.1443 27.3337 18.3047 27.3337H31.7031C31.8635 27.3337 31.9948 27.2025 31.9948 27.042V25.292C31.9948 25.1316 31.8635 25.0004 31.7031 25.0004ZM35.5859 19.9327L25.6656 15.8019C25.4524 15.7135 25.2238 15.668 24.993 15.668C24.7621 15.668 24.5335 15.7135 24.3203 15.8019L14.4036 19.9327C13.7547 20.2061 13.3281 20.8405 13.3281 21.5478V34.042C13.3281 34.2025 13.4594 34.3337 13.6198 34.3337H16.5364C16.6969 34.3337 16.8281 34.2025 16.8281 34.042V25.0004C16.8281 24.3587 17.3604 23.8337 18.0167 23.8337H31.9729C32.6292 23.8337 33.1614 24.3587 33.1614 25.0004V34.042C33.1614 34.2025 33.2927 34.3337 33.4531 34.3337H36.3698C36.5302 34.3337 36.6614 34.2025 36.6614 34.042V21.5478C36.6614 20.8405 36.2349 20.2061 35.5859 19.9327Z" fill="white"/>
<defs>
<linearGradient id="paint0_linear_1_60424" x1="77.5012" y1="-106.296" x2="58.7639" y2="58.9059" gradientUnits="userSpaceOnUse">
<stop stop-color="#E4E915"/>
<stop offset="1" stop-color="#F06212"/>
</linearGradient>
</defs>
</svg>
