<svg width="50" height="50" viewBox="0 0 50 50" fill="none" xmlns="http://www.w3.org/2000/svg">
<g clip-path="url(#clip0_1_60401)">
<path d="M42 0H8C3.58172 0 0 3.58172 0 8V42C0 46.4183 3.58172 50 8 50H42C46.4183 50 50 46.4183 50 42V8C50 3.58172 46.4183 0 42 0Z" fill="url(#paint0_linear_1_60401)"/>
<path d="M36.5475 21.7468L34.2415 14.8288C33.9453 13.9356 33.1113 13.334 32.168 13.334H25.7239V22.084H36.6022C36.584 21.9701 36.584 21.8562 36.5475 21.7468ZM24.2656 13.334H17.8216C16.8782 13.334 16.0443 13.9356 15.748 14.8288L13.442 21.7468C13.4056 21.8562 13.4056 21.9701 13.3874 22.084H24.2656V13.334ZM13.3281 23.5424V34.4799C13.3281 35.6875 14.3079 36.6674 15.5156 36.6674H34.4739C35.6816 36.6674 36.6614 35.6875 36.6614 34.4799V23.5424H13.3281Z" fill="white"/>
</g>
<defs>
<linearGradient id="paint0_linear_1_60401" x1="53.125" y1="-8.59375" x2="-28.4879" y2="82.2616" gradientUnits="userSpaceOnUse">
<stop stop-color="#A98BEA"/>
<stop offset="1" stop-color="#682CE9"/>
</linearGradient>
<clipPath id="clip0_1_60401">
<rect width="50" height="50" fill="white"/>
</clipPath>
</defs>
</svg>
