<svg width="50" height="50" viewBox="0 0 50 50" fill="none" xmlns="http://www.w3.org/2000/svg">
<g clip-path="url(#clip0_3_263)">
<path d="M42 0H8C3.58172 0 0 3.58172 0 8V42C0 46.4183 3.58172 50 8 50H42C46.4183 50 50 46.4183 50 42V8C50 3.58172 46.4183 0 42 0Z" fill="url(#paint0_linear_3_263)"/>
<path d="M33.3284 27.7278L34.5732 24.4673C34.7815 23.9204 34.3805 23.337 33.7919 23.337H30.745C31.3179 22.3526 31.6721 21.2224 31.6721 20.0036V19.988C33.7138 19.5817 35.0055 18.9932 35.0055 18.3369C35.0055 17.6442 33.5836 17.0296 31.3544 16.6181C30.8752 14.9097 29.9481 13.1909 29.2397 12.3055C28.7449 11.6857 27.8907 11.493 27.1824 11.8471L25.7448 12.5659C25.2761 12.8003 24.724 12.8003 24.2552 12.5659L22.8177 11.8471C22.1093 11.493 21.2551 11.6857 20.7603 12.3055C20.0572 13.1909 19.1248 14.9097 18.6457 16.6181C16.4216 17.0296 14.9997 17.6442 14.9997 18.3369C14.9997 18.9932 16.2914 19.5817 18.3331 19.988V20.0036C18.3331 21.2224 18.6873 22.3526 19.2603 23.337H16.2654C15.6664 23.337 15.2654 23.9464 15.4997 24.4985L16.8435 27.634C14.7549 28.8476 13.333 31.0821 13.333 33.6707V36.0041C13.333 37.2906 14.3799 38.3375 15.6664 38.3375H34.3336C35.6201 38.3375 36.667 37.2906 36.667 36.0041V33.6707C36.667 31.1498 35.3232 28.9622 33.3284 27.7278ZM22.4999 36.6708L20.3332 26.6705L22.9166 28.3372L24.1666 30.4206L22.4999 36.6708ZM27.5001 36.6708L25.8334 30.4206L27.0834 28.3372L29.6668 26.6705L27.5001 36.6708ZM29.672 21.1234C29.4689 21.7433 29.3074 22.4047 28.8126 22.8631C28.2866 23.3475 26.3125 24.0298 25.4792 21.561C25.3333 21.1234 24.6771 21.1234 24.526 21.561C23.6406 24.1756 21.6093 23.2485 21.1926 22.8631C20.6978 22.4047 20.5311 21.7433 20.3332 21.1234C20.2915 20.9932 20.0051 20.8266 20.0051 20.8214V20.2588C21.4791 20.4463 23.1822 20.5609 25.0052 20.5609C26.8282 20.5609 28.5314 20.4515 30.0054 20.2588V20.8214C30.0001 20.8266 29.7137 20.988 29.672 21.1234Z" fill="white"/>
</g>
<defs>
<linearGradient id="paint0_linear_3_263" x1="1.5625" y1="-1.56223" x2="50" y2="48.4378" gradientUnits="userSpaceOnUse">
<stop stop-color="#FDC196"/>
<stop offset="1" stop-color="#EB6B0E"/>
</linearGradient>
<clipPath id="clip0_3_263">
<rect width="50" height="50" fill="white"/>
</clipPath>
</defs>
</svg>
