<svg width="50" height="50" viewBox="0 0 50 50" fill="none" xmlns="http://www.w3.org/2000/svg">
<g clip-path="url(#clip0_1_60404)">
<path d="M42 0H8C3.58172 0 0 3.58172 0 8V42C0 46.4183 3.58172 50 8 50H42C46.4183 50 50 46.4183 50 42V8C50 3.58172 46.4183 0 42 0Z" fill="url(#paint0_linear_1_60404)"/>
<path d="M28.849 25.0015C28.2329 25.0015 27.6532 24.6734 27.3397 24.1484L24.9956 20.2622L22.6551 24.1484C22.3379 24.677 21.7583 25.0051 21.1422 25.0051C20.9781 25.0051 20.8141 24.9832 20.6573 24.9358L15.6628 23.5068V29.9959C15.6628 30.5318 16.0274 30.9985 16.5451 31.1261L24.4269 33.0983C24.7987 33.1895 25.1888 33.1895 25.557 33.0983L33.4461 31.1261C33.9638 30.9948 34.3283 30.5282 34.3283 29.9959V23.5068L29.3339 24.9322C29.1771 24.9796 29.013 25.0015 28.849 25.0015ZM36.5995 20.9111L34.7221 17.1634C34.609 16.9374 34.3648 16.8061 34.1132 16.839L24.9956 18.0019L28.3386 23.5469C28.4771 23.7765 28.7542 23.8859 29.013 23.813L36.2277 21.7532C36.5886 21.6475 36.7636 21.2465 36.5995 20.9111ZM15.2691 17.1634L13.3916 20.9111C13.2239 21.2465 13.4026 21.6475 13.7598 21.7496L20.9745 23.8093C21.2333 23.8823 21.5104 23.7729 21.6489 23.5432L24.9956 18.0019L15.8743 16.839C15.6227 16.8098 15.3821 16.9374 15.2691 17.1634Z" fill="white"/>
</g>
<defs>
<linearGradient id="paint0_linear_1_60404" x1="1.5625" y1="-1.56223" x2="50" y2="48.4378" gradientUnits="userSpaceOnUse">
<stop stop-color="#FDD1AD"/>
<stop offset="1" stop-color="#F9A662"/>
</linearGradient>
<clipPath id="clip0_1_60404">
<rect width="50" height="50" fill="white"/>
</clipPath>
</defs>
</svg>
