<svg width="39" height="35" viewBox="0 0 39 35" fill="none" xmlns="http://www.w3.org/2000/svg">
<path d="M16.412 26.9681L12.4918 25.3223C12.3165 25.5287 12.0502 25.892 11.7363 26.2061C11.0649 26.8785 10.3173 26.8715 9.64596 26.2061C9.16175 25.727 8.68151 25.2428 8.21314 24.7475C7.58833 24.0862 7.59229 23.3212 8.21314 22.6498C8.5102 22.3327 8.98946 22.0519 9.0459 21.6985C9.10234 21.3452 8.69042 20.9506 8.53496 20.552C8.2379 19.79 7.96361 19.019 7.71606 18.2368C7.63189 17.9701 7.53683 17.8463 7.24869 17.8604C6.85265 17.8811 6.45569 17.8751 6.06045 17.8422C5.33661 17.7788 4.8524 17.2614 4.83359 16.5165C4.81378 15.7284 4.81279 14.9392 4.83359 14.151C4.83191 13.8281 4.94985 13.5164 5.16397 13.2778C5.37808 13.0393 5.67267 12.8914 5.98915 12.8636C6.41197 12.8102 6.84666 12.8636 7.26948 12.8112C7.35493 12.7968 7.43614 12.7632 7.50722 12.7129C7.5783 12.6626 7.63747 12.5968 7.68041 12.5203C8.13195 11.3577 8.55377 10.184 8.98352 9.01432L9.24394 8.92272C8.9043 8.63685 8.54189 8.37513 8.23196 8.06007C7.57644 7.39369 7.58536 6.61257 8.23196 5.93311C8.7023 5.43988 9.17859 4.95167 9.66478 4.47454C10.3203 3.83132 11.0639 3.82931 11.7224 4.48058C12.0393 4.79464 12.3165 5.15199 12.4809 5.34022C13.8078 4.82887 14.9723 4.38898 16.1278 3.92393C16.1969 3.88635 16.2568 3.83345 16.3031 3.76916C16.3494 3.70487 16.3808 3.63082 16.3952 3.5525C16.4328 3.18811 16.3952 2.81566 16.411 2.44523C16.4378 1.61277 16.9635 1.04706 17.7706 1.01887C18.5102 0.993709 19.2559 0.993709 19.9936 1.01887C20.8075 1.04505 21.3244 1.60774 21.3531 2.43919C21.369 2.90424 21.2323 3.48304 21.4521 3.80113C21.6561 4.09304 22.2601 4.07392 22.6661 4.24605C23.483 4.59131 24.2851 4.97281 25.2288 5.40163C25.4486 5.15199 25.7239 4.79766 26.0427 4.48461C26.6992 3.83132 27.4409 3.82629 28.1003 4.46649C28.6001 4.95302 29.0892 5.45095 29.5678 5.96029C30.1798 6.61458 30.1798 7.34437 29.5876 8.02282C29.2826 8.37211 28.7816 8.68114 28.7162 9.06868C28.6578 9.422 29.0985 9.84377 29.2648 10.2585C29.6045 11.1071 29.9075 11.9697 30.2441 12.8757C30.6402 12.8757 31.0818 12.8696 31.5254 12.8757C32.3671 12.8908 32.9038 13.387 32.9345 14.2275C32.9622 14.9986 32.9622 15.7717 32.9345 16.5427C32.9048 17.355 32.375 17.8714 31.573 17.9036C31.1145 17.9228 30.6541 17.9036 30.3332 17.9036C29.7698 19.1689 29.244 20.3487 28.7281 21.5375C28.7144 21.6024 28.7152 21.6696 28.7307 21.7341C28.7461 21.7986 28.7757 21.8587 28.8172 21.9099C29.0549 22.1877 29.3292 22.4323 29.5767 22.7011C30.1778 23.3544 30.1837 24.1104 29.5767 24.7606C29.0895 25.2841 28.5865 25.7964 28.0736 26.2907C27.4617 26.8785 26.6952 26.8755 26.0853 26.2907C25.7635 25.9806 25.4743 25.6344 25.1822 25.3163C24.4891 25.6575 23.8692 25.9937 23.2236 26.2715C22.738 26.4778 22.2366 26.6434 21.7244 26.7668C21.4175 26.8433 21.3284 26.9832 21.3482 27.2832C21.3699 27.6002 21.3571 27.9203 21.3482 28.2394C21.3313 29.0749 20.8273 29.6396 20.0074 29.6739C19.2519 29.7051 18.4914 29.7061 17.7359 29.6739C16.9437 29.6376 16.4348 29.0759 16.409 28.2696C16.3991 27.8066 16.412 27.3385 16.412 26.9681ZM10.1737 8.89554C9.22701 10.2255 8.57902 11.7505 8.27552 13.3629C8.25473 13.4726 8.02797 13.6095 7.89133 13.6175C7.3487 13.6477 6.80211 13.6246 6.26146 13.6356C5.82874 13.6437 5.58119 13.8742 5.57624 14.3221C5.56732 15.0429 5.56336 15.7646 5.57624 16.4863C5.58614 16.9021 5.81488 17.1316 6.23769 17.1316C6.76448 17.1316 7.29225 17.1497 7.82201 17.1265C8.126 17.1135 8.24483 17.2161 8.31711 17.5231C8.48149 18.2046 8.64685 18.8962 8.91123 19.5364C9.24196 20.3316 9.67567 21.0825 10.0945 21.9109C9.68755 22.3136 9.2479 22.7424 8.82113 23.1823C8.44188 23.5718 8.44584 23.8607 8.82707 24.2583C9.25384 24.7012 9.68755 25.1381 10.1203 25.575C10.5748 26.034 10.8342 26.039 11.2867 25.5931C11.7214 25.1663 12.1522 24.7334 12.5918 24.2966C13.8777 25.2394 15.3497 25.8868 16.9061 26.194C17.022 26.2172 17.1784 26.4235 17.1863 26.5524C17.219 27.0708 17.1972 27.5922 17.2012 28.1126C17.2061 28.7377 17.3874 28.933 17.9864 28.941C18.6122 28.9491 19.2394 28.9491 19.8678 28.941C20.4461 28.933 20.6402 28.7397 20.6491 28.1569C20.656 27.6536 20.6699 27.1503 20.6491 26.647C20.6322 26.3269 20.7481 26.2192 21.0452 26.1588C22.4701 25.8714 23.8234 25.2945 25.0238 24.4627C25.101 24.4103 25.1872 24.3711 25.31 24.3036C25.7456 24.7616 26.1615 25.2146 26.5972 25.6505C26.9567 26.0128 27.2587 26.0118 27.6221 25.6505C28.0716 25.2076 28.5133 24.7536 28.9509 24.2986C29.3886 23.8436 29.3916 23.5809 28.9361 23.1118C28.5113 22.6759 28.0924 22.2351 27.6666 21.7921C28.5741 20.5192 29.1892 19.0556 29.4668 17.5091C29.5203 17.2071 29.6649 17.1064 29.9619 17.1195C30.4382 17.1447 30.9165 17.1296 31.3937 17.1255C32.0205 17.1195 32.2057 16.9242 32.2107 16.276C32.2159 15.672 32.2159 15.068 32.2107 14.4641C32.2047 13.8299 32.0126 13.6336 31.371 13.6246C30.8759 13.6185 30.3808 13.6417 29.8857 13.6105C29.749 13.6014 29.5242 13.4665 29.5025 13.3568C29.1844 11.7488 28.5392 10.2261 27.6082 8.88649C28.0389 8.47378 28.4637 8.0812 28.8737 7.67051C29.3599 7.18331 29.3599 6.93267 28.8935 6.45051C28.4895 6.03176 28.0819 5.61637 27.6706 5.20433C27.1755 4.71109 26.9487 4.70103 26.4754 5.19628C26.0635 5.62408 25.6694 6.069 25.2624 6.51291C23.8147 5.42377 22.275 4.82685 20.6085 4.51883C20.6085 3.83132 20.6184 3.19414 20.6085 2.55797C20.5966 2.03051 20.3926 1.82617 19.8846 1.81812C19.2245 1.80805 18.5644 1.80805 17.9042 1.81812C17.3913 1.82617 17.1923 2.03051 17.1854 2.55596C17.1755 3.19112 17.1854 3.8283 17.1854 4.51481C15.5158 4.81508 13.9323 5.48711 12.5482 6.48272C12.0838 6.00156 11.6571 5.53852 11.2075 5.09562C10.8471 4.73827 10.5906 4.74129 10.2272 5.09562C9.7529 5.56067 9.28751 6.03679 8.82707 6.51694C8.45277 6.9075 8.45277 7.20244 8.83994 7.59401C9.26276 8.03893 9.71231 8.45465 10.1708 8.89554H10.1737Z" fill="#00AEEF" stroke="#00AEEF"/>
<path d="M2.61184 7.83842L1.58203 8.20382C1.49192 7.96224 1.41271 7.75085 1.31468 7.49014L3.57629 6.64258C3.85454 7.42874 4.11892 8.17664 4.40212 8.97891L3.70898 9.20237C3.57827 8.87321 3.46242 8.5823 3.34261 8.27932C-0.497392 15.9818 2.56629 27.8527 13.1515 31.9013C13.0594 32.1237 12.9684 32.3452 12.8545 32.618C7.98566 30.6903 4.46748 27.3786 2.43855 22.5177C0.409632 17.6568 0.54826 12.7728 2.61184 7.83842Z" fill="#00AEEF" stroke="#00AEEF"/>
<path d="M35.0707 14.5018L35.5302 14.0126L36.0055 14.3699C35.8609 11.5796 35.0846 9.06511 33.7775 6.67543C33.8686 6.60094 33.9488 6.52444 34.039 6.46304C34.1291 6.40164 34.237 6.34929 34.3885 6.26172C35.8411 8.77823 36.6016 11.4961 36.7907 14.4595L37.2858 14.0317L37.7205 14.5652L36.3778 15.8083C35.9976 15.4289 35.546 14.9759 35.0707 14.5018Z" fill="#00AEEF" stroke="#00AEEF"/>
<path d="M18.8756 32.9452V33.7223L14.793 33.2432C14.8148 33.0187 14.8167 32.906 14.8395 32.7973C14.867 32.6931 14.9 32.5907 14.9385 32.4902L18.8756 32.9452Z" fill="#00AEEF" stroke="#00AEEF"/>
<path d="M33.6506 5.0014L33.0139 5.46142L31.4295 3.46331L31.992 2.92578L33.6506 5.0014Z" fill="#00AEEF" stroke="#00AEEF"/>
<path d="M11.233 12.9249L11.9023 13.1393C11.2498 15.5884 11.5726 17.8542 13.0579 19.8836C14.1521 21.3824 15.6245 22.3125 17.4148 22.7131C20.8726 23.4912 24.4571 21.4961 25.7443 18.0878C26.3704 16.4271 26.3933 14.5939 25.8089 12.9176C25.2244 11.2414 24.071 9.83198 22.5559 8.94278C19.5625 7.17418 15.2858 7.6644 12.7737 11.3153L12.1865 10.9298C13.9491 7.89189 18.3664 5.9884 22.4529 8.01671C26.3731 9.95845 28.0753 14.766 26.2751 18.7924C24.4492 22.8712 19.7893 24.7414 15.771 22.9919C11.5667 21.1609 10.0249 16.5225 11.233 12.9249Z" fill="#00AEEF" stroke="#00AEEF"/>
<path d="M23.0331 11.9473L23.5094 12.3942L17.0206 19.0036L14.248 16.168L14.7035 15.7301L17.0464 18.0735L23.0331 11.9473Z" fill="#00AEEF" stroke="#00AEEF"/>
</svg>
