<svg width="50" height="50" viewBox="0 0 50 50" fill="none" xmlns="http://www.w3.org/2000/svg">
<path d="M42 0H8C3.58172 0 0 3.58172 0 8V42C0 46.4183 3.58172 50 8 50H42C46.4183 50 50 46.4183 50 42V8C50 3.58172 46.4183 0 42 0Z" fill="url(#paint0_linear_1_60427)"/>
<path d="M26.4583 19.5319V13.334H17.3438C16.7376 13.334 16.25 13.8216 16.25 14.4278V35.5736C16.25 36.1797 16.7376 36.6674 17.3438 36.6674H32.6562C33.2624 36.6674 33.75 36.1797 33.75 35.5736V20.6257H27.5521C26.9505 20.6257 26.4583 20.1335 26.4583 19.5319ZM29.375 30.2871C29.375 30.5879 29.1289 30.834 28.8281 30.834H21.1719C20.8711 30.834 20.625 30.5879 20.625 30.2871V29.9226C20.625 29.6218 20.8711 29.3757 21.1719 29.3757H28.8281C29.1289 29.3757 29.375 29.6218 29.375 29.9226V30.2871ZM29.375 27.3705C29.375 27.6713 29.1289 27.9174 28.8281 27.9174H21.1719C20.8711 27.9174 20.625 27.6713 20.625 27.3705V27.0059C20.625 26.7051 20.8711 26.459 21.1719 26.459H28.8281C29.1289 26.459 29.375 26.7051 29.375 27.0059V27.3705ZM29.375 24.0892V24.4538C29.375 24.7546 29.1289 25.0007 28.8281 25.0007H21.1719C20.8711 25.0007 20.625 24.7546 20.625 24.4538V24.0892C20.625 23.7884 20.8711 23.5424 21.1719 23.5424H28.8281C29.1289 23.5424 29.375 23.7884 29.375 24.0892ZM33.75 18.8894V19.1674H27.9167V13.334H28.1947C28.4863 13.334 28.7643 13.448 28.9694 13.653L33.431 18.1192C33.6361 18.3243 33.75 18.6022 33.75 18.8894Z" fill="white"/>
<defs>
<linearGradient id="paint0_linear_1_60427" x1="51.1719" y1="47.6562" x2="0" y2="0" gradientUnits="userSpaceOnUse">
<stop stop-color="#0088FF"/>
<stop offset="1" stop-color="#69B7FC"/>
</linearGradient>
</defs>
</svg>
