<svg width="51" height="50" viewBox="0 0 51 50" fill="none" xmlns="http://www.w3.org/2000/svg">
<path d="M42 0H8C3.58172 0 0 3.58172 0 8V42C0 46.4183 3.58172 50 8 50H42C46.4183 50 50 46.4183 50 42V8C50 3.58172 46.4183 0 42 0Z" fill="url(#paint0_linear_1_60410)"/>
<g filter="url(#filter0_dd_1_60410)">
<path d="M24.9948 15.9258C18.5514 15.9258 13.3281 21.149 13.3281 27.5924C13.3281 29.7313 13.9054 31.7349 14.9104 33.4582C15.1377 33.8479 15.5707 34.0739 16.022 34.0739H33.9676C34.4189 34.0739 34.8519 33.8479 35.0792 33.4582C36.0842 31.7349 36.6614 29.7313 36.6614 27.5924C36.6614 21.149 31.4382 15.9258 24.9948 15.9258ZM24.9948 18.5184C25.5907 18.5184 26.0715 18.9287 26.223 19.4764C26.1781 19.568 26.1161 19.6478 26.0833 19.7466L25.7098 20.8675C25.502 21.0089 25.2654 21.111 24.9952 21.111C24.2794 21.111 23.6989 20.5305 23.6989 19.8147C23.6989 19.0989 24.279 18.5184 24.9948 18.5184ZM17.217 30.185C16.5012 30.185 15.9207 29.6045 15.9207 28.8887C15.9207 28.1729 16.5012 27.5924 17.217 27.5924C17.9328 27.5924 18.5133 28.1729 18.5133 28.8887C18.5133 29.6045 17.9328 30.185 17.217 30.185ZM19.1614 23.7035C18.4456 23.7035 17.8652 23.123 17.8652 22.4073C17.8652 21.6915 18.4456 21.111 19.1614 21.111C19.8772 21.111 20.4577 21.6915 20.4577 22.4073C20.4577 23.123 19.8772 23.7035 19.1614 23.7035ZM29.1579 20.7703L26.6735 28.224C27.2281 28.6996 27.5874 29.3967 27.5874 30.185C27.5874 30.6598 27.4505 31.0985 27.2277 31.4813H22.7619C22.5391 31.0985 22.4022 30.6598 22.4022 30.185C22.4022 28.8101 23.4757 27.6965 24.8287 27.609L27.3135 20.1549C27.4825 19.6461 28.0318 19.367 28.5434 19.5404C29.0526 19.7101 29.3272 20.2611 29.1579 20.7703ZM29.7518 23.0874L30.3805 21.2017C30.5211 21.1494 30.6693 21.1114 30.8281 21.1114C31.5439 21.1114 32.1244 21.6919 32.1244 22.4077C32.1244 23.1235 31.5439 23.704 30.8281 23.704C30.3671 23.7035 29.9819 23.4496 29.7518 23.0874ZM32.7726 30.185C32.0568 30.185 31.4763 29.6045 31.4763 28.8887C31.4763 28.1729 32.0568 27.5924 32.7726 27.5924C33.4884 27.5924 34.0689 28.1729 34.0689 28.8887C34.0689 29.6045 33.4884 30.185 32.7726 30.185Z" fill="white"/>
</g>
<defs>
<filter id="filter0_dd_1_60410" x="2.32812" y="4.92578" width="48.3359" height="43.1484" filterUnits="userSpaceOnUse" color-interpolation-filters="sRGB">
<feFlood flood-opacity="0" result="BackgroundImageFix"/>
<feColorMatrix in="SourceAlpha" type="matrix" values="0 0 0 0 0 0 0 0 0 0 0 0 0 0 0 0 0 0 127 0" result="hardAlpha"/>
<feOffset dx="7" dy="7"/>
<feGaussianBlur stdDeviation="3.5"/>
<feColorMatrix type="matrix" values="0 0 0 0 0 0 0 0 0 0 0 0 0 0 0 0 0 0 0.1 0"/>
<feBlend mode="normal" in2="BackgroundImageFix" result="effect1_dropShadow_1_60410"/>
<feColorMatrix in="SourceAlpha" type="matrix" values="0 0 0 0 0 0 0 0 0 0 0 0 0 0 0 0 0 0 127 0" result="hardAlpha"/>
<feOffset dx="-4" dy="-4"/>
<feGaussianBlur stdDeviation="3.5"/>
<feColorMatrix type="matrix" values="0 0 0 0 1 0 0 0 0 1 0 0 0 0 1 0 0 0 0.1 0"/>
<feBlend mode="normal" in2="effect1_dropShadow_1_60410" result="effect2_dropShadow_1_60410"/>
<feBlend mode="normal" in="SourceGraphic" in2="effect2_dropShadow_1_60410" result="shape"/>
</filter>
<linearGradient id="paint0_linear_1_60410" x1="1.5625" y1="-1.56223" x2="50" y2="48.4378" gradientUnits="userSpaceOnUse">
<stop stop-color="#FDADAD"/>
<stop offset="1" stop-color="#F96262"/>
</linearGradient>
</defs>
</svg>
