<svg width="50" height="50" viewBox="0 0 50 50" fill="none" xmlns="http://www.w3.org/2000/svg">
<g clip-path="url(#clip0_3_238)">
<path d="M42 0H8C3.58172 0 0 3.58172 0 8V42C0 46.4183 3.58172 50 8 50H42C46.4183 50 50 46.4183 50 42V8C50 3.58172 46.4183 0 42 0Z" fill="url(#paint0_linear_3_238)"/>
<path d="M24.9998 18.6408L14.8827 27.6315C14.8077 27.6996 14.7119 27.7313 14.6295 27.7878V36.4142C14.6295 36.8265 14.961 37.1605 15.3702 37.1605H22.279L20.5554 33.7643L25.3753 30.7791L22.5901 25.2181L29.4443 31.5981L24.6244 34.5834L26.4725 37.1605H34.6294C35.0387 37.1605 35.3702 36.8265 35.3702 36.4142V27.7896C35.2915 27.7355 35.198 27.7047 35.1267 27.6404L24.9998 18.6408ZM38.0873 24.2997L35.3702 21.8821V15.5175C35.3702 15.1052 35.0387 14.7712 34.6294 14.7712H31.6665C31.2572 14.7712 30.9258 15.1052 30.9258 15.5175V17.9286L26.2383 13.7595C25.885 13.4395 25.4424 13.2791 24.9998 13.2786C24.5573 13.2781 24.1156 13.4377 23.7637 13.7576L11.9124 24.2997C11.6082 24.5754 11.5827 25.047 11.8564 25.3539L12.8471 26.4649C13.1202 26.7714 13.5888 26.797 13.8934 26.5214L24.51 17.0862C24.7901 16.8376 25.21 16.8376 25.4901 17.0862L36.1068 26.5209C36.4109 26.7961 36.8794 26.7709 37.1531 26.4645L38.1438 25.3534C38.4169 25.047 38.3919 24.5749 38.0873 24.2997Z" fill="white"/>
</g>
<defs>
<linearGradient id="paint0_linear_3_238" x1="-14.0625" y1="-11.6071" x2="81.5127" y2="72.0212" gradientUnits="userSpaceOnUse">
<stop stop-color="#8CCD9E"/>
<stop offset="1" stop-color="#6EEE59"/>
</linearGradient>
<clipPath id="clip0_3_238">
<rect width="50" height="50" fill="white"/>
</clipPath>
</defs>
</svg>
