<svg width="50" height="50" viewBox="0 0 50 50" fill="none" xmlns="http://www.w3.org/2000/svg">
<g clip-path="url(#clip0_3_253)">
<path d="M42 0H8C3.58172 0 0 3.58172 0 8V42C0 46.4183 3.58172 50 8 50H42C46.4183 50 50 46.4183 50 42V8C50 3.58172 46.4183 0 42 0Z" fill="url(#paint0_linear_3_253)"/>
<path d="M25.0279 17.0164C6.58615 17.0164 10.1291 33.0259 18.4253 33.0259C20.0878 33.0259 21.6533 32.1633 22.6512 30.6971L23.7233 29.1215C24.3758 28.1631 25.6804 28.1631 26.3329 29.1215L27.4049 30.6971C28.4024 32.1633 29.9679 33.0259 31.6304 33.0259C39.5412 33.0259 43.74 17.0164 25.0279 17.0164ZM19.3333 27.2042C17.6224 27.2042 16.5099 26.1344 15.9966 25.4927C15.7787 25.2205 15.7787 24.8219 15.9966 24.5492C16.5099 23.9072 17.622 22.8378 19.3333 22.8378C21.0445 22.8378 22.1566 23.9076 22.6699 24.5492C22.8878 24.8215 22.8878 25.2201 22.6699 25.4927C22.1566 26.1348 21.0441 27.2042 19.3333 27.2042ZM30.6666 27.2042C28.9558 27.2042 27.8433 26.1344 27.3299 25.4927C27.112 25.2205 27.112 24.8219 27.3299 24.5492C27.8433 23.9072 28.9554 22.8378 30.6666 22.8378C32.3779 22.8378 33.49 23.9076 34.0033 24.5492C34.2212 24.8215 34.2212 25.2201 34.0033 25.4927C33.49 26.1348 32.3774 27.2042 30.6666 27.2042Z" fill="white"/>
</g>
<defs>
<linearGradient id="paint0_linear_3_253" x1="-21.0938" y1="-19.5312" x2="77.571" y2="57.8828" gradientUnits="userSpaceOnUse">
<stop stop-color="#E688C6"/>
<stop offset="1" stop-color="#A688E6"/>
</linearGradient>
<clipPath id="clip0_3_253">
<rect width="50" height="50" fill="white"/>
</clipPath>
</defs>
</svg>
