<svg width="62" height="62" viewBox="0 0 62 62" fill="none" xmlns="http://www.w3.org/2000/svg">
<g clip-path="url(#clip0_1_25358)">
<path d="M48.2222 0H13.7778C6.16852 0 0 6.16852 0 13.7778V48.2222C0 55.8315 6.16852 62 13.7778 62H48.2222C55.8315 62 62 55.8315 62 48.2222V13.7778C62 6.16852 55.8315 0 48.2222 0Z" fill="#FFEBE6" fill-opacity="0.6"/>
<path d="M27.5469 21.815V16.3612C27.5469 13.9834 29.4747 12.0557 31.8524 12.0557C34.2303 12.0557 36.158 13.9834 36.158 16.3612V21.815" stroke="#FF8F73" stroke-width="1.5" stroke-miterlimit="10"/>
<path d="M20.8594 36.1666L21.8162 18.9443H41.3347L42.3305 33.2836" stroke="#FF8F73" stroke-width="1.5" stroke-miterlimit="10"/>
<path d="M25.5234 44.072C25.8209 43.7745 26.134 43.2892 27.0889 43.2892H38.0473C38.9161 43.2892 43.6986 38.4911 44.3091 37.8101C44.8962 37.1526 47.5026 33.239 48.2228 31.5483C47.7689 30.9378 46.5399 30.4289 45.0918 30.7656C43.7065 31.0864 42.8924 32.0805 41.9608 33.8964L38.376 35.7593" stroke="#FF8F73" stroke-width="1.5" stroke-linejoin="round"/>
<path d="M30.224 38.5935H36.4858C39.6168 38.5935 39.6168 34.6798 36.4858 34.6798H32.353C31.7033 34.6798 30.4744 33.1143 29.4412 33.1143H25.5275C24.4709 33.1143 23.1558 33.9754 22.3966 34.6798C21.2224 35.854 19.2656 37.8108 19.2656 37.8108" stroke="#FF8F73" stroke-width="1.5" stroke-linejoin="round"/>
<path d="M17.6943 36.2432L13.7812 40.1562L23.1737 49.5487L27.0868 45.6356L17.6943 36.2432Z" stroke="#FF8F73" stroke-width="1.5" stroke-linejoin="round"/>
</g>
<defs>
<clipPath id="clip0_1_25358">
<rect width="62" height="62" fill="white"/>
</clipPath>
</defs>
</svg>
