<svg width="62" height="62" viewBox="0 0 62 62" fill="none" xmlns="http://www.w3.org/2000/svg">
<g id="marine-pointer-3 1" clip-path="url(#clip0_1_25371)">
<path id="Vector" d="M48.2222 0H13.7778C6.16852 0 0 6.16852 0 13.7778V48.2222C0 55.8315 6.16852 62 13.7778 62H48.2222C55.8315 62 62 55.8315 62 48.2222V13.7778C62 6.16852 55.8315 0 48.2222 0Z" fill="#FFF0B3" fill-opacity="0.4"/>
<path id="Vector_2" d="M20.6632 47.4835H41.9561C43.8584 47.4835 45.4005 45.9415 45.4005 44.0391V25.4255C45.4005 24.5118 45.0376 23.6357 44.3916 22.9897L35.4499 14.0479C34.8038 13.402 33.9278 13.0391 33.0143 13.0391H20.6632C18.7608 13.0391 17.2188 14.5812 17.2188 16.4835V44.0391C17.2188 45.9415 18.7608 47.4835 20.6632 47.4835Z" stroke="#FF991F" stroke-width="1.5" stroke-miterlimit="10"/>
<path id="Vector_3" d="M35.3509 27.1152H26.6007C24.6984 27.1152 23.1562 28.6574 23.1562 30.5597V39.3099C23.1562 41.2122 24.6984 42.7544 26.6007 42.7544H35.3509C37.2532 42.7544 38.7954 41.2122 38.7954 39.3099V30.5597C38.7954 28.6574 37.2532 27.1152 35.3509 27.1152Z" fill="#FF991F"/>
<path id="Vector_4" d="M26.2812 34.4886L29.6933 38.0632L35.6646 31.8076" stroke="white" stroke-width="1.5"/>
<path id="Vector_5" d="M45.4127 24.0124H34.4531V13.0527L45.4127 24.0124Z" fill="#FF991F"/>
</g>
<defs>
<clipPath id="clip0_1_25371">
<rect width="62" height="62" fill="white"/>
</clipPath>
</defs>
</svg>
