<svg width="100" height="61" viewBox="0 0 100 61" fill="none" xmlns="http://www.w3.org/2000/svg">
<g clip-path="url(#clip0_1_96)">
<path d="M2.984 1.40001H10.76V35H2.984V1.40001ZM49.31 35L49.262 14.84L39.374 31.448H35.87L26.03 15.272V35H18.734V1.40001H25.166L37.742 22.28L50.126 1.40001H56.51L56.606 35H49.31ZM80.8498 35.576C77.3618 35.576 74.2098 34.824 71.3938 33.32C68.6098 31.816 66.4178 29.752 64.8178 27.128C63.2498 24.472 62.4658 21.496 62.4658 18.2C62.4658 14.904 63.2498 11.944 64.8178 9.32001C66.4178 6.66401 68.6098 4.58401 71.3938 3.08001C74.2098 1.57601 77.3618 0.824005 80.8498 0.824005C84.3378 0.824005 87.4738 1.57601 90.2578 3.08001C93.0418 4.58401 95.2338 6.66401 96.8338 9.32001C98.4338 11.944 99.2338 14.904 99.2338 18.2C99.2338 21.496 98.4338 24.472 96.8338 27.128C95.2338 29.752 93.0418 31.816 90.2578 33.32C87.4738 34.824 84.3378 35.576 80.8498 35.576ZM80.8498 28.952C82.8338 28.952 84.6258 28.504 86.2258 27.608C87.8258 26.68 89.0738 25.4 89.9698 23.768C90.8978 22.136 91.3618 20.28 91.3618 18.2C91.3618 16.12 90.8978 14.264 89.9698 12.632C89.0738 11 87.8258 9.73601 86.2258 8.84001C84.6258 7.91201 82.8338 7.44801 80.8498 7.44801C78.8658 7.44801 77.0738 7.91201 75.4738 8.84001C73.8738 9.73601 72.6098 11 71.6818 12.632C70.7858 14.264 70.3378 16.12 70.3378 18.2C70.3378 20.28 70.7858 22.136 71.6818 23.768C72.6098 25.4 73.8738 26.68 75.4738 27.608C77.0738 28.504 78.8658 28.952 80.8498 28.952ZM6.608 60.12C5.36 60.12 4.24 59.848 3.248 59.304C2.272 58.76 1.504 58 0.944004 57.024C0.384004 56.032 0.104004 54.92 0.104004 53.688C0.104004 52.456 0.384004 51.352 0.944004 50.376C1.504 49.4 2.272 48.64 3.248 48.096C4.24 47.552 5.36 47.28 6.608 47.28C7.696 47.28 8.664 47.496 9.512 47.928C10.376 48.344 11.056 48.96 11.552 49.776L10.28 50.64C9.864 50.016 9.336 49.552 8.696 49.248C8.056 48.928 7.36 48.768 6.608 48.768C5.696 48.768 4.872 48.976 4.136 49.392C3.416 49.792 2.848 50.368 2.432 51.12C2.032 51.872 1.832 52.728 1.832 53.688C1.832 54.664 2.032 55.528 2.432 56.28C2.848 57.016 3.416 57.592 4.136 58.008C4.872 58.408 5.696 58.608 6.608 58.608C7.36 58.608 8.056 58.456 8.696 58.152C9.336 57.848 9.864 57.384 10.28 56.76L11.552 57.624C11.056 58.44 10.376 59.064 9.512 59.496C8.648 59.912 7.68 60.12 6.608 60.12ZM19.8485 60.12C18.6325 60.12 17.5365 59.848 16.5605 59.304C15.5845 58.744 14.8165 57.976 14.2565 57C13.6965 56.024 13.4165 54.92 13.4165 53.688C13.4165 52.456 13.6965 51.352 14.2565 50.376C14.8165 49.4 15.5845 48.64 16.5605 48.096C17.5365 47.552 18.6325 47.28 19.8485 47.28C21.0645 47.28 22.1605 47.552 23.1365 48.096C24.1125 48.64 24.8725 49.4 25.4165 50.376C25.9765 51.352 26.2565 52.456 26.2565 53.688C26.2565 54.92 25.9765 56.024 25.4165 57C24.8725 57.976 24.1125 58.744 23.1365 59.304C22.1605 59.848 21.0645 60.12 19.8485 60.12ZM19.8485 58.608C20.7445 58.608 21.5445 58.408 22.2485 58.008C22.9685 57.592 23.5285 57.008 23.9285 56.256C24.3285 55.504 24.5285 54.648 24.5285 53.688C24.5285 52.728 24.3285 51.872 23.9285 51.12C23.5285 50.368 22.9685 49.792 22.2485 49.392C21.5445 48.976 20.7445 48.768 19.8485 48.768C18.9525 48.768 18.1445 48.976 17.4245 49.392C16.7205 49.792 16.1605 50.368 15.7445 51.12C15.3445 51.872 15.1445 52.728 15.1445 53.688C15.1445 54.648 15.3445 55.504 15.7445 56.256C16.1605 57.008 16.7205 57.592 17.4245 58.008C18.1445 58.408 18.9525 58.608 19.8485 58.608ZM41.2554 42.192V60H39.6234V57.504C39.1114 58.352 38.4314 59 37.5834 59.448C36.7514 59.896 35.8074 60.12 34.7514 60.12C33.5674 60.12 32.4954 59.848 31.5354 59.304C30.5754 58.76 29.8234 58 29.2794 57.024C28.7354 56.048 28.4634 54.936 28.4634 53.688C28.4634 52.44 28.7354 51.328 29.2794 50.352C29.8234 49.376 30.5754 48.624 31.5354 48.096C32.4954 47.552 33.5674 47.28 34.7514 47.28C35.7754 47.28 36.6954 47.496 37.5114 47.928C38.3434 48.344 39.0234 48.96 39.5514 49.776V42.192H41.2554ZM34.8954 58.608C35.7754 58.608 36.5674 58.408 37.2714 58.008C37.9914 57.592 38.5514 57.008 38.9514 56.256C39.3674 55.504 39.5754 54.648 39.5754 53.688C39.5754 52.728 39.3674 51.872 38.9514 51.12C38.5514 50.368 37.9914 49.792 37.2714 49.392C36.5674 48.976 35.7754 48.768 34.8954 48.768C33.9994 48.768 33.1914 48.976 32.4714 49.392C31.7674 49.792 31.2074 50.368 30.7914 51.12C30.3914 51.872 30.1914 52.728 30.1914 53.688C30.1914 54.648 30.3914 55.504 30.7914 56.256C31.2074 57.008 31.7674 57.592 32.4714 58.008C33.1914 58.408 33.9994 58.608 34.8954 58.608ZM56.993 54.216H46.433C46.529 55.528 47.033 56.592 47.945 57.408C48.857 58.208 50.009 58.608 51.401 58.608C52.185 58.608 52.905 58.472 53.561 58.2C54.217 57.912 54.785 57.496 55.265 56.952L56.225 58.056C55.665 58.728 54.961 59.24 54.113 59.592C53.281 59.944 52.361 60.12 51.353 60.12C50.057 60.12 48.905 59.848 47.897 59.304C46.905 58.744 46.129 57.976 45.569 57C45.009 56.024 44.729 54.92 44.729 53.688C44.729 52.456 44.993 51.352 45.521 50.376C46.065 49.4 46.801 48.64 47.729 48.096C48.673 47.552 49.729 47.28 50.897 47.28C52.065 47.28 53.113 47.552 54.041 48.096C54.969 48.64 55.697 49.4 56.225 50.376C56.753 51.336 57.017 52.44 57.017 53.688L56.993 54.216ZM50.897 48.744C49.681 48.744 48.657 49.136 47.825 49.92C47.009 50.688 46.545 51.696 46.433 52.944H55.385C55.273 51.696 54.801 50.688 53.969 49.92C53.153 49.136 52.129 48.744 50.897 48.744Z" fill="#C9CFDB"/>
</g>
<defs>
<clipPath id="clip0_1_96">
<rect width="100" height="61" fill="white"/>
</clipPath>
</defs>
</svg>
