<svg width="40" height="40" viewBox="0 0 40 40" fill="none" xmlns="http://www.w3.org/2000/svg">
<rect x="0.5" y="0.5" width="39" height="39" rx="3.5" fill="#00AEEF" fill-opacity="0.1" stroke="#00AEEF"/>
<path d="M28.0956 12.2794H12.1397C11.5103 12.2794 11 11.7691 11 11.1397C11 10.5103 11.5103 10 12.1397 10H28.0956C28.725 10 29.2353 10.5103 29.2353 11.1397C29.2353 11.7691 28.725 12.2794 28.0956 12.2794Z" fill="#00AEEF"/>
<path d="M11 13.4191V11.1397C11 10.5103 11.5103 10 12.1397 10C12.7691 10 13.2794 10.5103 13.2794 11.1397V13.4191C13.2794 14.0486 12.7691 14.5588 12.1397 14.5588C11.5103 14.5588 11 14.0486 11 13.4191Z" fill="#00AEEF"/>
<path d="M26.9559 13.4191V11.1397C26.9559 10.5103 27.4661 10 28.0956 10C28.725 10 29.2353 10.5103 29.2353 11.1397V13.4191C29.2353 14.0486 28.725 14.5588 28.0956 14.5588C27.4661 14.5588 26.9559 14.0486 26.9559 13.4191Z" fill="#00AEEF"/>
<path d="M20.1193 15.6985C19.883 15.6967 19.652 15.7684 19.4582 15.9037L14.8994 19.1176C14.6537 19.2919 14.487 19.5564 14.4357 19.8533C14.3845 20.1502 14.4528 20.4552 14.6259 20.7018C14.7123 20.8251 14.8222 20.93 14.9493 21.0106C15.0765 21.0911 15.2183 21.1457 15.3667 21.1711C15.515 21.1965 15.6669 21.1923 15.8136 21.1587C15.9604 21.1251 16.099 21.0628 16.2215 20.9754L20.1193 18.2515L23.9943 21.1691C24.2361 21.3505 24.54 21.4283 24.8393 21.3856C25.1385 21.3429 25.4085 21.183 25.5898 20.9412C25.7712 20.6994 25.8491 20.3954 25.8063 20.0962C25.7636 19.7969 25.6037 19.5269 25.3619 19.3456L20.8031 15.9265C20.6058 15.7785 20.3659 15.6985 20.1193 15.6985Z" fill="#00AEEF"/>
<path d="M20.1176 17.9779C19.8154 17.9779 19.5255 18.098 19.3118 18.3118C19.098 18.5255 18.9779 18.8154 18.9779 19.1176V28.2353C18.9779 28.5376 19.098 28.8275 19.3118 29.0412C19.5255 29.2549 19.8154 29.375 20.1176 29.375C20.4199 29.375 20.7098 29.2549 20.9235 29.0412C21.1373 28.8275 21.2574 28.5376 21.2574 28.2353V19.1176C21.2574 18.8154 21.1373 18.5255 20.9235 18.3118C20.7098 18.098 20.4199 17.9779 20.1176 17.9779Z" fill="#00AEEF"/>
</svg>
