<svg xmlns="http://www.w3.org/2000/svg" width="26" height="24" viewBox="0 0 26 24" fill="none">
  <path d="M24.1818 0H12.2455L6 5.88V9.42857H7.81818V8.23714H14.7364V1.71429H24.1818V22.2857H6C6 22.7404 6.19156 23.1764 6.53253 23.4979C6.87351 23.8194 7.33597 24 7.81818 24H24.1818C24.664 24 25.1265 23.8194 25.4675 23.4979C25.8084 23.1764 26 22.7404 26 22.2857V1.71429C26 1.25963 25.8084 0.823593 25.4675 0.502103C25.1265 0.180612 24.664 0 24.1818 0ZM13.2727 6.85714H7.81818V6.58286L13 1.71429H13.2727V6.85714Z" fill="#F5821F"/>
  <path d="M9.35529 18.6759C9.25677 18.7434 9.17675 18.8264 9.12026 18.9198C9.06377 19.0131 9.03202 19.1148 9.02701 19.2184C9.02201 19.3221 9.04385 19.4254 9.09116 19.522C9.13848 19.6186 9.21025 19.7063 9.30198 19.7796C9.3937 19.8529 9.50339 19.9103 9.62417 19.9481C9.74494 19.986 9.8742 20.0034 10.0038 19.9994C10.1334 19.9954 10.2606 19.9701 10.3774 19.9249C10.4942 19.8797 10.598 19.8157 10.6824 19.737L16 15.4552L10.6541 11.1809C10.4741 11.0577 10.2425 10.9932 10.0056 11.0006C9.76873 11.0079 9.54403 11.0864 9.37641 11.2204C9.20879 11.3544 9.1106 11.5341 9.10145 11.7235C9.0923 11.9129 9.17287 12.098 9.32706 12.242L12.4235 14.7027H0.941176C0.691561 14.7027 0.452169 14.782 0.275664 14.9231C0.0991593 15.0642 0 15.2556 0 15.4552C0 15.6548 0.0991593 15.8462 0.275664 15.9873C0.452169 16.1284 0.691561 16.2077 0.941176 16.2077H12.4518L9.35529 18.6759Z" fill="#F5821F"/>
</svg>