<svg width="28" height="27" viewBox="0 0 28 27" fill="none" xmlns="http://www.w3.org/2000/svg">
<path d="M24.5339 11.6172C24.3098 11.6172 24.0949 11.7018 23.9364 11.8524C23.778 12.0029 23.6889 12.2072 23.6889 12.4201V18.8436C23.6889 19.0565 23.5999 19.2607 23.4415 19.4113C23.283 19.5619 23.0681 19.6465 22.844 19.6465H5.9449C5.7208 19.6465 5.50588 19.5619 5.34742 19.4113C5.18897 19.2607 5.09994 19.0565 5.09994 18.8436V12.4201C5.09994 12.2072 5.01092 12.0029 4.85246 11.8524C4.694 11.7018 4.47908 11.6172 4.25499 11.6172C4.03089 11.6172 3.81598 11.7018 3.65752 11.8524C3.49906 12.0029 3.41003 12.2072 3.41003 12.4201V18.8436C3.41063 19.4822 3.67808 20.0945 4.15359 20.5458C4.62852 20.9976 5.27284 21.2518 5.9449 21.2524H22.844C23.5161 21.2518 24.1604 20.9976 24.6353 20.5458C25.1108 20.0945 25.3783 19.4822 25.3789 18.8436V12.4201C25.3789 12.2072 25.2898 12.0029 25.1314 11.8524C24.9729 11.7018 24.758 11.6172 24.5339 11.6172Z" fill="#00AEEF"/>
<path d="M13.8799 16.2754C14.0283 16.3796 14.2089 16.4359 14.3944 16.4359C14.58 16.4359 14.7606 16.3796 14.909 16.2754L25.0376 9.1614C25.1956 9.04984 25.3075 8.89057 25.3544 8.71057C25.4013 8.53057 25.3803 8.34093 25.2949 8.17379C25.1672 7.92675 24.9961 7.70149 24.7889 7.50736C24.3068 7.05549 23.6528 6.80134 22.9707 6.80078H5.81818C5.13604 6.80134 4.48206 7.05549 4.00001 7.50736C3.79277 7.70149 3.62174 7.92675 3.49401 8.17379C3.40861 8.34093 3.38757 8.53057 3.43446 8.71057C3.48135 8.89057 3.59329 9.04984 3.7513 9.1614L13.8799 16.2754ZM5.81818 8.40664H22.9707C23.0503 8.39491 23.1313 8.39491 23.2108 8.40664L14.3944 14.6294L5.57804 8.40664C5.6576 8.39491 5.73863 8.39491 5.81818 8.40664Z" fill="#00AEEF"/>
</svg>
