<svg width="40" height="40" viewBox="0 0 40 40" fill="none" xmlns="http://www.w3.org/2000/svg">
<path d="M29.815 0.117554C30.0964 0.233849 30.3369 0.431001 30.5062 0.684054C30.6754 0.937107 30.7658 1.23468 30.7658 1.53912V9.23158H38.4587C38.7634 9.23103 39.0614 9.32097 39.3149 9.48998C39.5684 9.659 39.7661 9.89948 39.8827 10.1809C39.9994 10.4624 40.0299 10.7722 39.9703 11.071C39.9107 11.3698 39.7637 11.6442 39.548 11.8593L33.3937 18.0133C33.2506 18.1561 33.0807 18.2692 32.8938 18.3463C32.7069 18.4234 32.5066 18.4629 32.3044 18.4625H23.71L21.4329 20.7426C21.5546 21.1987 21.5698 21.6768 21.4773 22.1397C21.3848 22.6027 21.1872 23.0382 20.8996 23.4126C20.612 23.787 20.2422 24.0903 19.8187 24.2991C19.3952 24.5078 18.9294 24.6164 18.4573 24.6165C17.6412 24.6165 16.8585 24.2923 16.2815 23.7153C15.7044 23.1382 15.3802 22.3556 15.3802 21.5395L15.3833 21.398C15.4044 20.9383 15.5283 20.4893 15.7459 20.0839C15.9635 19.6785 16.2693 19.327 16.6407 19.0554C17.0121 18.7838 17.4397 18.5989 17.892 18.5144C18.3444 18.4299 18.8099 18.448 19.2543 18.5671L21.5345 16.2871V7.69309C21.5341 7.49092 21.5736 7.29065 21.6507 7.10375C21.7278 6.91685 21.8409 6.74697 21.9837 6.60384L28.138 0.449869C28.3533 0.234842 28.6276 0.0884989 28.9261 0.0293471C29.2246 -0.0298048 29.534 0.000891611 29.815 0.117554ZM31.6674 15.3855L34.7446 12.3086H29.2273C28.8192 12.3086 28.4279 12.1465 28.1394 11.8579C27.8508 11.5694 27.6887 11.1781 27.6887 10.7701V5.25304L24.6116 8.33002V15.3855H31.6674ZM36.7509 19.0041C37.2818 22.8354 36.5959 26.7366 34.7901 30.1571C32.9843 33.5776 30.1497 36.3446 26.6865 38.0674C23.2233 39.7903 19.3065 40.3819 15.4889 39.7589C11.6713 39.1359 8.14587 37.3296 5.4102 34.5952C2.67452 31.8607 0.866811 28.3361 0.242267 24.519C-0.382277 20.7018 0.207888 16.7849 1.92945 13.3213C3.65101 9.85758 6.41701 7.02206 9.83698 5.21497C13.2569 3.40789 17.1581 2.72053 20.9898 3.24992L19.8113 4.42841C19.3235 4.91619 18.9513 5.5071 18.722 6.15767L18.4573 6.1546C15.4031 6.15505 12.4182 7.06443 9.88264 8.76694C7.34706 10.4694 5.37558 12.888 4.21926 15.7147C3.06294 18.5414 2.7741 21.6482 3.38952 24.6396C4.00495 27.631 5.49679 30.3715 7.67507 32.5122C9.85334 34.653 12.6195 36.097 15.6212 36.6604C18.623 37.2238 21.7245 36.8811 24.5308 35.676C27.3372 34.4708 29.7213 32.4578 31.3797 29.8932C33.038 27.3286 33.8955 24.3285 33.843 21.2749C34.4911 21.0457 35.0798 20.6746 35.5662 20.1887L36.7478 19.0041H36.7509ZM18.4573 10.7701C16.3272 10.7701 14.245 11.4017 12.4738 12.585C10.7027 13.7684 9.32232 15.4504 8.50717 17.4182C7.69202 19.3861 7.47873 21.5515 7.8943 23.6405C8.30986 25.7296 9.3356 27.6485 10.8418 29.1547C12.348 30.6608 14.267 31.6865 16.3562 32.102C18.4454 32.5176 20.6109 32.3043 22.5788 31.4892C24.5468 30.6741 26.2288 29.2937 27.4122 27.5227C28.5956 25.7517 29.2273 23.6695 29.2273 21.5395H26.1501C26.1501 23.0609 25.699 24.5482 24.8537 25.8132C24.0084 27.0782 22.8069 28.0642 21.4012 28.6464C19.9956 29.2286 18.4488 29.381 16.9565 29.0842C15.4643 28.7873 14.0935 28.0547 13.0177 26.9789C11.9418 25.9031 11.2091 24.5324 10.9123 23.0402C10.6155 21.548 10.7678 20.0014 11.3501 18.5957C11.9323 17.1901 12.9183 15.9887 14.1834 15.1435C15.4485 14.2982 16.9358 13.8471 18.4573 13.8471V10.7701Z" fill="#00AEEF"/>
</svg>
