<svg width="42" height="35" viewBox="0 0 42 35" fill="none" xmlns="http://www.w3.org/2000/svg">
<g id="Group">
<path id="Vector" fill-rule="evenodd" clip-rule="evenodd" d="M11.4241 17.9683C11.5846 16.7212 12.7067 15.8497 13.9302 16.0216L29.8991 18.2653C31.015 18.4221 31.8299 19.3927 31.8428 20.5084C32.1373 19.4358 33.1689 18.7244 34.2849 18.8813L39.0561 19.5517C40.2796 19.7236 41.1413 20.8738 40.9808 22.1208L39.5759 33.0317C39.4154 34.2787 38.2934 35.1503 37.0698 34.9784L32.2986 34.308C31.1827 34.1512 30.3677 33.1805 30.3548 32.0649C30.0603 33.1375 29.0288 33.8488 27.9128 33.692L11.9439 31.4483C10.7204 31.2764 9.85869 30.1262 10.0192 28.8791L11.4241 17.9683Z" fill="url(#paint0_linear_2199_28197)"/>
<path id="Vector_2" fill-rule="evenodd" clip-rule="evenodd" d="M1.681 9.28227C0.486307 9.60915 -0.235021 10.8428 0.0698674 12.0378L3.97645 27.3483C4.28134 28.5432 5.497 29.2468 6.69171 28.9199L28.5602 22.9359C29.6349 22.6419 30.3266 21.614 30.2327 20.5406C30.6632 21.5216 31.7547 22.0612 32.8292 21.7672L40.319 19.7178C41.5137 19.3908 42.235 18.1572 41.9301 16.9623L38.0235 1.65172C37.7187 0.456816 36.503 -0.246835 35.3083 0.0800729L27.8185 2.12954C26.7438 2.42362 26.0521 3.45155 26.1461 4.52488C25.7155 3.5439 24.624 3.00425 23.5495 3.29827L1.681 9.28227Z" fill="url(#paint1_linear_2199_28197)"/>
<path id="Vector_3" fill-rule="evenodd" clip-rule="evenodd" d="M40 19.8156C39.7541 19.6763 39.4783 19.5801 39.1817 19.539L34.4014 18.8752C33.2642 18.7173 32.2149 19.422 31.9193 20.4864C31.9067 19.3791 31.075 18.4132 29.9378 18.2553L13.8551 16.0221C12.6103 15.8492 11.4709 16.71 11.31 17.9447L10 28L29.0714 22.7974C30.1609 22.5002 30.862 21.4614 30.7668 20.3768C31.2032 21.3681 32.3096 21.9135 33.3989 21.6163L40 19.8156Z" fill="url(#paint2_linear_2199_28197)"/>
</g>
<defs>
<linearGradient id="paint0_linear_2199_28197" x1="26.4732" y1="17.7377" x2="24.3525" y2="33.2385" gradientUnits="userSpaceOnUse">
<stop stop-color="#88FFC2"/>
<stop offset="1" stop-color="#00A651"/>
</linearGradient>
<linearGradient id="paint1_linear_2199_28197" x1="11.1598" y1="-6.90288" x2="38.3312" y2="-10.097" gradientUnits="userSpaceOnUse">
<stop stop-color="#40CBFF"/>
<stop offset="0.984375" stop-color="#A9E8FF"/>
</linearGradient>
<linearGradient id="paint2_linear_2199_28197" x1="25" y1="16" x2="25" y2="28" gradientUnits="userSpaceOnUse">
<stop stop-color="#ED1C24"/>
<stop offset="1" stop-color="#F5821F"/>
</linearGradient>
</defs>
</svg>
