<svg width="180" height="180" viewBox="0 0 180 180" fill="none" xmlns="http://www.w3.org/2000/svg">
<g id="Group 48096540">
<circle id="Ellipse 1617" cx="90" cy="90" r="89" fill="white" stroke="#00AEEF" stroke-width="2"/>
<g id="Group 48096539">
<g id="Background Complete">
<path id="Vector" d="M143.169 66.1464C143.643 65.9485 143.98 65.4574 143.983 64.8809C143.985 64.1259 143.413 63.5103 142.707 63.5078C141.999 63.5054 141.422 64.1137 141.42 64.8686C141.42 65.4501 141.757 65.9461 142.236 66.144C140.264 66.442 140.352 68.5846 140.352 68.5846L145.016 68.6066C145.016 68.6066 145.124 66.4396 143.167 66.144L143.169 66.1464Z" fill="#E0E0E0"/>
<path id="Vector_2" d="M40.7426 68.8072L40.855 69.9457L39.8387 70.0459L39.7312 68.9391C38.7197 68.9758 37.7229 68.7559 37.1194 68.3748L37.5568 67.0799C38.1016 67.4073 38.8614 67.6101 39.5992 67.6076L39.4331 65.9097C38.2775 65.746 36.9802 65.4943 36.8385 64.0382C36.7334 62.9608 37.4248 61.9591 39.0129 61.6195L38.9029 60.4908L39.9193 60.3906L40.0268 61.4998C40.7939 61.4851 41.5562 61.6171 42.1499 61.9176L41.7638 63.2173C41.2166 62.973 40.6718 62.8533 40.1563 62.8411L40.3248 64.5684C41.478 64.7223 42.7557 64.9764 42.895 66.4105C42.9976 67.4684 42.316 68.4578 40.7377 68.8072H40.7426ZM39.2865 64.4145L39.1448 62.9706C38.6171 63.144 38.4339 63.4616 38.4656 63.7963C38.4998 64.153 38.8248 64.3143 39.2865 64.4145ZM41.2752 66.6939C41.241 66.3372 40.9258 66.1735 40.4739 66.0636L40.6107 67.4659C41.1091 67.3047 41.307 67.0188 41.2752 66.6939Z" fill="#C48585"/>
<path id="Vector_3" d="M112.285 43.7257C112.932 43.3348 113.619 43.0392 114.33 42.8364L114.75 40.8111L118.17 40.75L118.661 42.7583C119.377 42.9342 120.076 43.2078 120.736 43.5743L122.463 42.4406L124.923 44.8178L123.851 46.5842C124.242 47.2316 124.537 47.9206 124.74 48.6291L126.763 49.0493L126.824 52.4697L124.816 52.9632C124.64 53.679 124.366 54.3778 124 55.0374L125.133 56.7672L122.759 59.2274L120.992 58.1549C120.345 58.5458 119.656 58.8414 118.947 59.0442L118.527 61.0695L115.107 61.1306L114.616 59.1223C113.9 58.9464 113.201 58.6728 112.541 58.3063L110.814 59.4399L108.354 57.0652L109.426 55.2988C109.036 54.6514 108.74 53.9649 108.537 53.2539L106.514 52.8337L106.453 49.4133L108.461 48.9198C108.637 48.204 108.911 47.5053 109.277 46.8456L108.144 45.1183L110.518 42.6581L112.285 43.7306V43.7257ZM114.107 48.2822C112.7 49.7407 112.742 52.0641 114.198 53.4714C115.656 54.8786 117.98 54.8371 119.387 53.381C120.794 51.9224 120.753 49.599 119.297 48.1918C117.838 46.7845 115.515 46.8261 114.107 48.2822Z" fill="#EBEBEB"/>
<path id="Vector_4" d="M126.823 36.4345C127.091 36.2732 127.375 36.1511 127.67 36.0655L127.844 35.2276L129.261 35.2031L129.464 36.0338C129.759 36.1071 130.05 36.2195 130.324 36.3709L131.039 35.9019L132.058 36.8864L131.613 37.6194C131.775 37.8881 131.897 38.1715 131.982 38.4671L132.82 38.6406L132.845 40.0576L132.014 40.2604C131.941 40.556 131.828 40.8468 131.677 41.1204L132.146 41.8362L131.162 42.855L130.429 42.4104C130.16 42.5716 129.876 42.6938 129.581 42.7793L129.407 43.6173L127.99 43.6417L127.788 42.811C127.492 42.7377 127.201 42.6254 126.928 42.4739L126.212 42.943L125.193 41.9584L125.638 41.2254C125.476 40.9567 125.354 40.6733 125.269 40.3777L124.431 40.2042L124.406 38.7872L125.237 38.5844C125.31 38.2888 125.423 37.9981 125.574 37.7244L125.105 37.0086L126.09 35.9898L126.823 36.4345ZM127.577 38.3206C126.994 38.924 127.011 39.8866 127.614 40.4705C128.218 41.0544 129.18 41.0373 129.764 40.4339C130.348 39.8304 130.331 38.8678 129.727 38.2839C129.124 37.7 128.161 37.7171 127.577 38.3206Z" fill="#F5F5F5"/>
<path id="Vector_5" d="M73.3125 125.642C73.701 125.408 74.1163 125.229 74.5439 125.107L74.798 123.888L76.8575 123.852L77.1531 125.061C77.5856 125.168 78.0058 125.332 78.4016 125.552L79.4424 124.87L80.9253 126.302L80.2803 127.367C80.5149 127.756 80.6932 128.171 80.8154 128.599L82.0345 128.853L82.0712 130.912L80.8618 131.208C80.7543 131.64 80.5906 132.06 80.3707 132.456L81.0524 133.497L79.6207 134.98L78.5555 134.335C78.167 134.57 77.7517 134.748 77.3242 134.87L77.0701 136.089L75.0105 136.126L74.7149 134.916C74.2825 134.809 73.8622 134.645 73.4665 134.425L72.4257 135.107L70.9427 133.675L71.5877 132.61C71.3531 132.222 71.1748 131.806 71.0526 131.379L69.8335 131.125L69.7969 129.065L71.0062 128.77C71.1137 128.337 71.2774 127.917 71.4973 127.521L70.8157 126.48L72.2473 124.997L73.3125 125.642ZM74.4095 128.386C73.5617 129.263 73.5862 130.663 74.4633 131.511C75.3403 132.359 76.7402 132.334 77.588 131.455C78.4358 130.577 78.4114 129.178 77.5343 128.33C76.6572 127.482 75.2573 127.506 74.4095 128.384V128.386Z" fill="#EBEBEB"/>
<path id="Vector_6" d="M89.2469 126.85C89.7501 126.544 90.2876 126.315 90.8398 126.156L91.1672 124.578L93.8326 124.531L94.2162 126.097C94.7757 126.234 95.318 126.447 95.8335 126.733L97.1797 125.851L99.0976 127.702L98.262 129.08C98.5674 129.584 98.7971 130.121 98.9559 130.676L100.534 131.003L100.581 133.669L99.0145 134.052C98.8777 134.612 98.6651 135.154 98.3793 135.669L99.2613 137.016L97.4094 138.933L96.0314 138.098C95.5281 138.403 94.9907 138.633 94.4361 138.789L94.1087 140.368L91.4432 140.414L91.0597 138.848C90.5002 138.711 89.9578 138.499 89.4423 138.213L88.0961 139.095L86.1783 137.243L87.0138 135.865C86.7084 135.362 86.4788 134.824 86.32 134.27L84.7417 133.942L84.6953 131.277L86.2614 130.893C86.3982 130.334 86.6107 129.791 86.8966 129.276L86.0146 127.93L87.8665 126.012L89.2444 126.847L89.2469 126.85ZM90.6688 130.402C89.5718 131.538 89.6036 133.349 90.7396 134.445C91.8757 135.542 93.686 135.511 94.783 134.375C95.88 133.239 95.8482 131.428 94.7121 130.331C93.5761 129.234 91.7657 129.266 90.6688 130.402Z" fill="#EBEBEB"/>
<g id="Group">
<g id="Group_2">
<path id="Vector_7" d="M137.764 47.3984H136.234V54.2514H137.764V47.3984Z" fill="#FA6C6C"/>
<path id="Vector_8" d="M133.57 50.0565V51.5859H140.423V50.0565H133.57Z" fill="#FA6C6C"/>
</g>
<path id="Vector_9" d="M143.139 50.9407C143.139 50.9407 143.134 50.9065 143.126 50.8405C143.121 50.7697 143.114 50.672 143.104 50.5498C143.099 50.4863 143.095 50.413 143.09 50.3348C143.08 50.2566 143.063 50.1711 143.051 50.0783C143.021 49.8926 142.992 49.68 142.921 49.4479C142.811 48.9764 142.589 48.4194 142.239 47.8281C141.888 47.2394 141.38 46.6261 140.688 46.1057C139.999 45.5902 139.132 45.1505 138.13 44.9746C137.136 44.8036 136.012 44.8353 134.942 45.2409C134.671 45.3288 134.414 45.4632 134.15 45.5878C133.901 45.7393 133.64 45.8785 133.408 46.0667C133.161 46.2352 132.946 46.4478 132.721 46.6506C132.518 46.8753 132.303 47.0977 132.127 47.3542C131.766 47.855 131.451 48.4121 131.26 49.0253C131.062 49.6336 130.957 50.2811 130.947 50.9383C130.957 51.5955 131.062 52.2429 131.26 52.8512C131.451 53.4644 131.766 54.0215 132.127 54.5223C132.303 54.7789 132.518 54.9987 132.721 55.2259C132.946 55.4287 133.163 55.6413 133.41 55.8099C133.642 55.998 133.904 56.1372 134.153 56.2887C134.417 56.4157 134.671 56.5501 134.944 56.6381C136.014 57.0436 137.138 57.0754 138.133 56.9044C139.134 56.7285 140.002 56.2887 140.691 55.7732C141.382 55.2528 141.888 54.6372 142.239 54.0508C142.589 53.4596 142.811 52.9025 142.921 52.431C142.992 52.1989 143.021 51.9839 143.051 51.8007C143.065 51.7078 143.082 51.6248 143.09 51.5441C143.095 51.466 143.099 51.3951 143.104 51.3292C143.114 51.207 143.119 51.1093 143.126 51.0384C143.131 50.9725 143.136 50.9383 143.139 50.9383C143.141 50.9383 143.141 50.9725 143.139 51.0384C143.139 51.1093 143.134 51.207 143.131 51.3292C143.131 51.3951 143.126 51.466 143.124 51.5441C143.117 51.6223 143.102 51.7078 143.09 51.8007C143.063 51.9864 143.038 52.2038 142.97 52.4383C142.867 52.9172 142.65 53.4816 142.303 54.0826C141.954 54.6811 141.443 55.3066 140.747 55.8416C140.053 56.3693 139.171 56.8213 138.155 57.007C137.143 57.1853 136 57.1585 134.908 56.7456C134.629 56.6576 134.368 56.5208 134.099 56.3938C133.845 56.2398 133.576 56.1006 133.339 55.9076C133.088 55.7341 132.868 55.5191 132.636 55.3115C132.428 55.0818 132.208 54.857 132.027 54.5956C131.658 54.085 131.336 53.5158 131.14 52.8903C130.938 52.2698 130.83 51.6077 130.82 50.9383C130.83 50.2664 130.938 49.6067 131.14 48.9862C131.336 48.3608 131.658 47.7939 132.027 47.2809C132.208 47.0195 132.425 46.7947 132.636 46.5651C132.865 46.3574 133.088 46.1424 133.339 45.9689C133.576 45.7784 133.845 45.6367 134.099 45.4827C134.368 45.3533 134.629 45.2189 134.905 45.1309C135.997 44.7205 137.141 44.6912 138.152 44.8695C139.171 45.0552 140.05 45.5047 140.744 46.0324C141.441 46.5651 141.951 47.1929 142.301 47.7915C142.648 48.3925 142.865 48.9593 142.968 49.4357C143.036 49.6703 143.06 49.8877 143.087 50.0734C143.099 50.1662 143.114 50.2517 143.121 50.3299C143.124 50.4081 143.126 50.4814 143.129 50.5449C143.131 50.6695 143.136 50.7648 143.136 50.8356C143.136 50.9016 143.136 50.9358 143.136 50.9358L143.139 50.9407Z" fill="#FA6C6C"/>
</g>
<g id="Group_3">
<g id="Group_4">
<path id="Vector_10" d="M67.5314 35.6678L58.4502 32.4062L49.4595 35.6239C48.3113 36.1662 47.3047 36.4912 47.3047 37.5613V42.8848C47.3047 46.5813 48.2746 50.246 50.2658 53.4807C51.9442 56.2023 54.5412 59.0046 58.5382 60.7881C62.2127 59.5934 64.9563 56.4124 66.6347 53.6884C68.6283 50.4536 69.5958 46.789 69.5958 43.0925V38.304C69.5958 36.7795 68.7871 36.0343 67.5289 35.6678H67.5314Z" fill="#EBEBEB"/>
<path id="Vector_11" d="M58.5406 57.6975C55.3768 56.2878 53.3221 54.0231 51.9955 51.8707C50.4197 49.3103 49.6525 46.4127 49.6525 43.4858V39.7503C49.6525 38.905 50.1631 38.111 51.177 37.6394L58.4551 34.9178V32.4062L49.4595 35.6239C48.5165 36.0367 47.3047 36.4912 47.3047 37.5613V42.8848C47.3047 46.5813 48.2746 50.246 50.2658 53.4807C51.9442 56.2023 54.5412 59.0046 58.5382 60.7881V57.6975H58.5406Z" fill="#AD6565"/>
<path id="Vector_12" d="M58.5435 60.7881C59.1812 60.5755 59.7651 60.3288 60.327 60.0234C61.8344 59.2025 63.1195 58.0738 64.1016 57.055C65.1986 55.914 66.0171 54.6803 66.728 53.5271C68.7216 50.2924 69.6891 46.6277 69.6011 42.8286L69.606 38.4335C69.6011 36.2444 68.4773 36.0832 67.5342 35.6703L58.4531 32.4062V34.9178L65.8192 37.6834C66.8331 38.1574 67.3437 38.949 67.3437 39.7943V43.5298C67.3437 46.4542 66.5765 49.3542 65.0007 51.9146C63.6741 54.0695 61.7074 56.2903 58.5435 57.7V60.7905V60.7881Z" fill="#AD6565"/>
</g>
<g id="Group_5">
<path id="Vector_13" d="M59.4012 40.9922H57.5078V49.4796H59.4012V40.9922Z" fill="#170707"/>
<path id="Vector_14" d="M54.2109 44.2863V46.1797H62.6984V44.2863H54.2109Z" fill="#170707"/>
</g>
</g>
</g>
<g id="Floor">
<path id="Vector_15" d="M145.758 143.173C145.758 143.207 120.982 143.236 90.4282 143.236C59.8744 143.236 35.0938 143.207 35.0938 143.173C35.0938 143.139 59.8646 143.109 90.4282 143.109C120.992 143.109 145.758 143.139 145.758 143.173Z" fill="#263238"/>
</g>
<g id="Insurance Policy">
<g id="Group_6">
<g id="Group_7">
<g id="Group_8">
<g id="Group_9">
<path id="Vector_16" d="M118.442 130.525L63.5525 130.325C62.221 130.32 61.1436 129.235 61.1485 127.904L61.4392 47.9744C61.4441 46.6429 62.5288 45.5654 63.8603 45.5703L118.75 45.7707C120.082 45.7756 121.159 46.8603 121.154 48.1918L120.863 128.121C120.859 129.453 119.774 130.53 118.442 130.525Z" fill="#9F6C6C"/>
<path id="Vector_17" d="M118.444 130.527C118.444 130.527 118.505 130.522 118.63 130.515C118.752 130.507 118.935 130.48 119.167 130.412C119.397 130.336 119.678 130.212 119.959 129.987C120.235 129.762 120.514 129.432 120.687 128.993C120.777 128.775 120.829 128.526 120.846 128.264C120.86 128.001 120.851 127.722 120.856 127.429C120.856 126.843 120.858 126.202 120.86 125.511C120.863 124.123 120.868 122.523 120.873 120.723C120.895 113.515 120.926 103.088 120.966 90.2054C120.987 83.7628 121.009 76.7071 121.036 69.1309C121.049 65.3441 121.063 61.4253 121.075 57.3917C121.083 55.3737 121.09 53.3263 121.097 51.2521C121.097 50.2162 121.102 49.1706 121.105 48.12C121.097 47.6045 120.9 47.0988 120.577 46.6957C120.247 46.2974 119.788 46.0018 119.28 45.8894C119.026 45.8308 118.767 45.8235 118.496 45.8259C118.229 45.8259 117.96 45.8259 117.694 45.8235C117.159 45.8235 116.622 45.8186 116.082 45.8186C115.004 45.8137 113.92 45.8113 112.83 45.8064C110.648 45.799 108.444 45.7917 106.214 45.7819C101.755 45.7673 97.2036 45.7502 92.569 45.7331C83.2998 45.6989 73.7032 45.6647 63.8745 45.6305C63.2734 45.6256 62.6773 45.8601 62.2449 46.2755C61.8076 46.6859 61.5388 47.2649 61.5119 47.861C61.4948 49.0777 61.4997 50.2993 61.4924 51.5111C61.4826 53.9396 61.4753 56.3509 61.4655 58.7427C61.4484 63.5313 61.4313 68.249 61.4142 72.8836C61.38 82.1553 61.3458 91.0971 61.3141 99.6163C61.2823 108.135 61.2505 116.23 61.2212 123.806C61.2163 124.754 61.2139 125.692 61.209 126.623C61.209 127.087 61.1992 127.553 61.209 128.01C61.2237 128.462 61.3751 128.905 61.6317 129.273C61.8882 129.642 62.2498 129.931 62.6602 130.102C62.8654 130.185 63.0829 130.241 63.3003 130.268C63.5178 130.287 63.745 130.285 63.9697 130.285C64.8664 130.287 65.7532 130.292 66.6327 130.295C70.1484 130.309 73.5248 130.322 76.7449 130.336C89.6275 130.39 100.055 130.436 107.26 130.466C110.861 130.483 113.658 130.497 115.556 130.507C116.504 130.512 117.228 130.517 117.714 130.522C118.2 130.527 118.449 130.532 118.449 130.532C118.449 130.532 118.2 130.534 117.714 130.534C117.228 130.534 116.504 130.534 115.556 130.534C113.658 130.529 110.861 130.522 107.26 130.515C100.055 130.493 89.6275 130.461 76.7449 130.422C73.5248 130.412 70.1484 130.4 66.6327 130.388C65.7532 130.385 64.8664 130.383 63.9697 130.378C63.745 130.378 63.5226 130.38 63.2905 130.361C63.0633 130.331 62.8386 130.275 62.6236 130.187C62.1985 130.009 61.8222 129.708 61.5559 129.327C61.2896 128.946 61.1284 128.487 61.1137 128.015C61.1039 127.551 61.1137 127.089 61.1137 126.623C61.1162 125.692 61.121 124.754 61.1235 123.806C61.1504 116.23 61.1772 108.135 61.2066 99.6163C61.2359 91.0971 61.2676 82.1553 61.3018 72.8836C61.3189 68.249 61.336 63.5313 61.3531 58.7427C61.3629 56.3485 61.3702 53.9371 61.38 51.5111C61.3873 50.2968 61.3825 49.0826 61.3996 47.8562C61.4289 47.2307 61.7098 46.6224 62.1692 46.1924C62.6236 45.76 63.249 45.5132 63.8793 45.5156C73.7081 45.5523 83.3047 45.5865 92.5739 45.6207C97.2085 45.6378 101.76 45.6549 106.219 45.672C108.447 45.6793 110.653 45.6891 112.835 45.6964C113.924 45.7013 115.009 45.7038 116.087 45.7086C116.627 45.7086 117.162 45.7135 117.699 45.716C117.968 45.716 118.234 45.716 118.5 45.7184C118.764 45.7184 119.043 45.7233 119.307 45.7844C119.839 45.9041 120.318 46.2119 120.663 46.6273C121 47.0475 121.205 47.5776 121.212 48.1151C121.21 49.1657 121.207 50.2113 121.205 51.2497C121.198 53.3239 121.188 55.3712 121.181 57.3893C121.166 61.4253 121.149 65.3416 121.134 69.1285C121.105 76.7046 121.075 83.7604 121.051 90.2029C120.997 103.086 120.951 113.513 120.922 120.72C120.912 122.521 120.904 124.121 120.9 125.509C120.897 126.202 120.892 126.843 120.89 127.426C120.885 127.72 120.895 127.998 120.878 128.264C120.86 128.531 120.807 128.78 120.714 129C120.538 129.444 120.255 129.774 119.976 129.999C119.693 130.224 119.409 130.348 119.177 130.422C118.943 130.488 118.759 130.512 118.637 130.519C118.515 130.524 118.452 130.524 118.452 130.524L118.444 130.527Z" fill="#263238"/>
</g>
<g id="Group_10" opacity="0.3">
<path id="Vector_18" d="M66.8079 128.235L116.882 128.144L117.491 118.472L115.978 112.633L66.3828 120.197L66.8079 128.235Z" fill="black"/>
</g>
</g>
<g id="Group_11">
<path id="Vector_19" d="M118.444 130.527C118.444 130.527 118.505 130.522 118.63 130.515C118.752 130.507 118.935 130.48 119.167 130.412C119.397 130.336 119.678 130.212 119.959 129.987C120.235 129.762 120.514 129.432 120.687 128.993C120.777 128.775 120.829 128.526 120.846 128.264C120.86 128.001 120.851 127.722 120.856 127.429C120.856 126.843 120.858 126.202 120.86 125.511C120.863 124.123 120.868 122.523 120.873 120.723C120.895 113.515 120.926 103.088 120.966 90.2054C120.987 83.7628 121.009 76.7071 121.036 69.1309C121.049 65.3441 121.063 61.4253 121.075 57.3917C121.083 55.3737 121.09 53.3263 121.097 51.2521C121.097 50.2162 121.102 49.1706 121.105 48.12C121.097 47.6045 120.9 47.0988 120.577 46.6957C120.247 46.2974 119.788 46.0018 119.28 45.8894C119.026 45.8308 118.767 45.8235 118.496 45.8259C118.229 45.8259 117.96 45.8259 117.694 45.8235C117.159 45.8235 116.622 45.8186 116.082 45.8186C115.004 45.8137 113.92 45.8113 112.83 45.8064C110.648 45.799 108.444 45.7917 106.214 45.7819C101.755 45.7673 97.2036 45.7502 92.569 45.7331C83.2998 45.6989 73.7032 45.6647 63.8745 45.6305C63.2734 45.6256 62.6773 45.8601 62.2449 46.2755C61.8076 46.6859 61.5388 47.2649 61.5119 47.861C61.4948 49.0777 61.4997 50.2993 61.4924 51.5111C61.4826 53.9396 61.4753 56.3509 61.4655 58.7427C61.4484 63.5313 61.4313 68.249 61.4142 72.8836C61.38 82.1553 61.3458 91.0971 61.3141 99.6163C61.2823 108.135 61.2505 116.23 61.2212 123.806C61.2163 124.754 61.2139 125.692 61.209 126.623C61.209 127.087 61.1992 127.553 61.209 128.01C61.2237 128.462 61.3751 128.905 61.6317 129.273C61.8882 129.642 62.2498 129.931 62.6602 130.102C62.8654 130.185 63.0829 130.241 63.3003 130.268C63.5178 130.287 63.745 130.285 63.9697 130.285C64.8664 130.287 65.7532 130.292 66.6327 130.295C70.1484 130.309 73.5248 130.322 76.7449 130.336C89.6275 130.39 100.055 130.436 107.26 130.466C110.861 130.483 113.658 130.497 115.556 130.507C116.504 130.512 117.228 130.517 117.714 130.522C118.2 130.527 118.449 130.532 118.449 130.532C118.449 130.532 118.2 130.534 117.714 130.534C117.228 130.534 116.504 130.534 115.556 130.534C113.658 130.529 110.861 130.522 107.26 130.515C100.055 130.493 89.6275 130.461 76.7449 130.422C73.5248 130.412 70.1484 130.4 66.6327 130.388C65.7532 130.385 64.8664 130.383 63.9697 130.378C63.745 130.378 63.5226 130.38 63.2905 130.361C63.0633 130.331 62.8386 130.275 62.6236 130.187C62.1985 130.009 61.8222 129.708 61.5559 129.327C61.2896 128.946 61.1284 128.487 61.1137 128.015C61.1039 127.551 61.1137 127.089 61.1137 126.623C61.1162 125.692 61.121 124.754 61.1235 123.806C61.1504 116.23 61.1772 108.135 61.2066 99.6163C61.2359 91.0971 61.2676 82.1553 61.3018 72.8836C61.3189 68.249 61.336 63.5313 61.3531 58.7427C61.3629 56.3485 61.3702 53.9371 61.38 51.5111C61.3873 50.2968 61.3825 49.0826 61.3996 47.8562C61.4289 47.2307 61.7098 46.6224 62.1692 46.1924C62.6236 45.76 63.249 45.5132 63.8793 45.5156C73.7081 45.5523 83.3047 45.5865 92.5739 45.6207C97.2085 45.6378 101.76 45.6549 106.219 45.672C108.447 45.6793 110.653 45.6891 112.835 45.6964C113.924 45.7013 115.009 45.7038 116.087 45.7086C116.627 45.7086 117.162 45.7135 117.699 45.716C117.968 45.716 118.234 45.716 118.5 45.7184C118.764 45.7184 119.043 45.7233 119.307 45.7844C119.839 45.9041 120.318 46.2119 120.663 46.6273C121 47.0475 121.205 47.5776 121.212 48.1151C121.21 49.1657 121.207 50.2113 121.205 51.2497C121.198 53.3239 121.188 55.3712 121.181 57.3893C121.166 61.4253 121.149 65.3416 121.134 69.1285C121.105 76.7046 121.075 83.7604 121.051 90.2029C120.997 103.086 120.951 113.513 120.922 120.72C120.912 122.521 120.904 124.121 120.9 125.509C120.897 126.202 120.892 126.843 120.89 127.426C120.885 127.72 120.895 127.998 120.878 128.264C120.86 128.531 120.807 128.78 120.714 129C120.538 129.444 120.255 129.774 119.976 129.999C119.693 130.224 119.409 130.348 119.177 130.422C118.943 130.488 118.759 130.512 118.637 130.519C118.515 130.524 118.452 130.524 118.452 130.524L118.444 130.527Z" fill="#263238"/>
<g id="Group_12" opacity="0.3">
<path id="Vector_20" d="M66.8079 128.235L116.882 128.144L117.491 118.472L115.978 112.633L66.3828 120.197L66.8079 128.235Z" fill="black"/>
</g>
</g>
<g id="Group_13">
<path id="Vector_21" d="M64.4553 48.9811L64.1719 126.32L117.84 126.517L118.123 49.1778L64.4553 48.9811Z" fill="white"/>
<path id="Vector_22" d="M117.847 126.522C117.847 126.077 117.943 94.8244 118.08 49.1843L118.128 49.2356C101.85 49.1769 83.6388 49.1134 64.4651 49.045H64.4577L64.5139 48.9912C64.404 78.0352 64.3014 104.866 64.2208 126.329L64.1768 126.285C96.8194 126.431 117.483 126.524 117.845 126.524C117.483 126.524 96.8194 126.465 64.1768 126.372H64.1328V126.329C64.2085 104.866 64.3014 78.0327 64.404 48.9912V48.9375H64.4602H64.4675C83.6388 49.0084 101.85 49.0768 118.131 49.1378H118.18V49.1891C117.984 94.8317 117.85 126.082 117.847 126.526V126.522Z" fill="#263238"/>
</g>
<path id="Vector_23" d="M79.2001 73.6524L67.4609 73.6094L67.4518 76.094L79.191 76.137L79.2001 73.6524Z" fill="#9F6C6C"/>
<path id="Vector_24" d="M104.176 68.3362L80.6484 68.25L80.6393 70.7346L104.167 70.8209L104.176 68.3362Z" fill="#9F6C6C"/>
<path id="Vector_25" d="M78.5669 68.1895L67.375 68.1484L67.3659 70.6331L78.5578 70.6741L78.5669 68.1895Z" fill="#9F6C6C"/>
<path id="Vector_26" d="M114.03 68.3593L105.516 68.3281L105.507 70.8128L114.021 70.844L114.03 68.3593Z" fill="#9F6C6C"/>
<path id="Vector_27" d="M82.5101 112.54L67.375 112.484L67.3646 115.316L82.4997 115.371L82.5101 112.54Z" fill="#9F6C6C"/>
<path id="Vector_28" d="M94.8893 117.874L67.375 117.773L67.3646 120.605L94.879 120.706L94.8893 117.874Z" fill="#9F6C6C"/>
<path id="Vector_29" d="M113.82 80.0139L67.3906 79.8438L67.3802 82.6753L113.809 82.8455L113.82 80.0139Z" fill="#9F6C6C"/>
<path id="Vector_30" d="M112.89 86.9897C112.89 87.0239 102.886 87.0166 90.548 86.9701C78.2053 86.9262 68.2031 86.8602 68.2031 86.826C68.2031 86.7918 78.2053 86.7991 90.548 86.8455C102.886 86.8895 112.89 86.9555 112.89 86.9897Z" fill="#263238"/>
<path id="Vector_31" d="M112.89 89.4428C112.89 89.477 102.886 89.4697 90.548 89.4233C78.2053 89.3793 68.2031 89.3133 68.2031 89.2791C68.2031 89.2449 78.2053 89.2522 90.548 89.2987C102.886 89.3426 112.89 89.4086 112.89 89.4428Z" fill="#263238"/>
<path id="Vector_32" d="M103.999 91.8727C103.999 91.9069 95.9805 91.9045 86.0932 91.8703C76.2034 91.8336 68.1875 91.7774 68.1875 91.7432C68.1875 91.709 76.2034 91.7115 86.0932 91.7457C95.9805 91.7823 103.999 91.8385 103.999 91.8727Z" fill="#263238"/>
<g id="Group_14">
<path id="Vector_33" d="M80.4112 43.5213L104.84 43.6108C105.693 43.6139 106.384 44.3079 106.381 45.163L106.357 51.5981L78.8379 51.4973L78.8615 45.0621C78.8646 44.2095 79.5586 43.5182 80.4137 43.5213L80.4112 43.5213Z" fill="#263238"/>
<path id="Vector_34" d="M96.1348 40.5791L89.1328 40.5547L89.9293 46.5599L95.204 46.5794L96.1348 40.5791Z" fill="#263238"/>
<path id="Vector_35" d="M104.622 43.6093C104.622 43.6411 99.2524 43.6484 92.6315 43.624C86.0082 43.5996 80.6406 43.5556 80.6406 43.5214C80.6406 43.4896 86.0082 43.4823 92.6339 43.5067C99.2548 43.5312 104.625 43.5751 104.625 43.6093H104.622Z" fill="#455A64"/>
<path id="Vector_36" d="M79.4558 50.2067C79.424 50.2067 79.402 49.078 79.4069 47.6854C79.4118 46.2928 79.4411 45.1641 79.4729 45.1641C79.5047 45.1641 79.5266 46.2928 79.5218 47.6854C79.5169 49.078 79.4876 50.2067 79.4558 50.2067Z" fill="#455A64"/>
<path id="Vector_37" d="M105.471 49.7112C105.44 49.7112 105.418 48.6851 105.423 47.422C105.427 46.1565 105.457 45.1328 105.489 45.1328C105.52 45.1328 105.542 46.1589 105.537 47.422C105.532 48.6851 105.503 49.7112 105.471 49.7112Z" fill="#455A64"/>
<path id="Vector_38" d="M104.14 50.7665C104.14 50.7983 98.6287 50.8031 91.8319 50.7787C85.0327 50.7543 79.5234 50.7079 79.5234 50.6761C79.5234 50.6443 85.0327 50.6395 91.8344 50.6639C98.6312 50.6883 104.143 50.7347 104.143 50.7665H104.14Z" fill="#455A64"/>
</g>
<g id="Group_15" opacity="0.3">
<path id="Vector_39" d="M106.375 45.8984L107.501 49.2797L107.496 50.9362L106.211 50.9313L106.375 45.8984Z" fill="black"/>
</g>
<path id="Vector_40" d="M112.878 97.3604C112.878 97.3946 105.512 97.4239 96.4286 97.4239C87.345 97.4239 79.9766 97.3946 79.9766 97.3604C79.9766 97.3262 87.3402 97.2969 96.4286 97.2969C105.517 97.2969 112.878 97.3262 112.878 97.3604Z" fill="#263238"/>
<path id="Vector_41" d="M108.31 100.251C108.31 100.285 101.967 100.315 94.1443 100.315C86.3214 100.315 79.9766 100.285 79.9766 100.251C79.9766 100.217 86.3189 100.188 94.1443 100.188C101.97 100.188 108.31 100.217 108.31 100.251Z" fill="#263238"/>
<path id="Vector_42" d="M112.878 104.548C112.878 104.582 105.512 104.611 96.4286 104.611C87.345 104.611 79.9766 104.582 79.9766 104.548C79.9766 104.514 87.3402 104.484 96.4286 104.484C105.517 104.484 112.878 104.514 112.878 104.548Z" fill="#263238"/>
<path id="Vector_43" d="M108.31 107.439C108.31 107.473 101.967 107.502 94.1443 107.502C86.3214 107.502 79.9766 107.473 79.9766 107.439C79.9766 107.404 86.3189 107.375 94.1443 107.375C101.97 107.375 108.31 107.404 108.31 107.439Z" fill="#263238"/>
<path id="Vector_44" d="M112.878 119.251C112.878 119.251 112.751 119.347 112.482 119.486C112.216 119.628 111.796 119.794 111.232 119.892C110.948 119.931 110.628 119.965 110.279 119.94C109.929 119.926 109.551 119.872 109.16 119.75C108.383 119.52 107.528 119.027 106.929 118.176C106.333 117.338 105.976 116.188 106.118 114.976C106.184 114.372 106.379 113.759 106.734 113.21C106.919 112.941 107.159 112.704 107.44 112.518C107.584 112.428 107.738 112.352 107.902 112.301C108.068 112.254 108.246 112.232 108.424 112.257C108.781 112.301 109.101 112.55 109.262 112.872C109.426 113.197 109.468 113.564 109.468 113.921C109.443 114.636 109.316 115.357 109.082 116.061C108.845 116.762 108.498 117.446 108.004 118.037C107.516 118.626 106.873 119.117 106.13 119.393C105.392 119.677 104.584 119.755 103.826 119.598C103.069 119.447 102.378 119.027 101.911 118.44C101.437 117.859 101.156 117.163 100.997 116.469C100.838 115.772 100.79 115.074 100.799 114.394C100.809 113.723 100.892 113.029 101.251 112.469C101.43 112.193 101.674 111.964 101.957 111.815C102.238 111.663 102.571 111.602 102.878 111.666C103.186 111.727 103.458 111.9 103.66 112.117C103.866 112.335 104.012 112.594 104.095 112.868C104.259 113.42 104.2 113.979 104.085 114.478C103.844 115.479 103.409 116.32 102.94 116.982C102.468 117.649 101.96 118.142 101.515 118.501C101.068 118.861 100.685 119.09 100.421 119.232C100.289 119.305 100.184 119.349 100.115 119.383C100.044 119.418 100.008 119.43 100.008 119.43C100.008 119.43 100.042 119.408 100.108 119.371C100.174 119.332 100.279 119.283 100.408 119.207C100.667 119.058 101.046 118.824 101.483 118.46C101.921 118.098 102.419 117.602 102.881 116.938C103.34 116.276 103.765 115.443 103.997 114.453C104.11 113.962 104.161 113.417 104.002 112.892C103.922 112.633 103.78 112.386 103.587 112.183C103.394 111.981 103.142 111.819 102.859 111.766C102.282 111.646 101.676 112.01 101.347 112.528C101.007 113.058 100.926 113.73 100.917 114.394C100.907 115.066 100.958 115.755 101.115 116.439C101.271 117.121 101.549 117.798 102.006 118.357C102.458 118.924 103.12 119.325 103.851 119.471C104.581 119.623 105.368 119.545 106.084 119.271C106.805 119.002 107.428 118.528 107.906 117.954C108.388 117.378 108.73 116.708 108.962 116.019C109.194 115.33 109.319 114.614 109.343 113.918C109.343 113.574 109.304 113.222 109.152 112.926C109.006 112.631 108.722 112.413 108.405 112.372C108.087 112.328 107.767 112.445 107.498 112.613C107.232 112.789 107 113.014 106.822 113.273C106.48 113.798 106.284 114.399 106.218 114.986C106.074 116.168 106.419 117.299 106.998 118.123C107.579 118.958 108.412 119.447 109.177 119.681C109.56 119.804 109.934 119.86 110.279 119.879C110.623 119.906 110.938 119.877 111.222 119.84C111.784 119.752 112.201 119.596 112.47 119.462C112.609 119.403 112.702 119.337 112.773 119.303C112.842 119.266 112.878 119.249 112.878 119.249V119.251Z" fill="#263238"/>
</g>
<g id="Group_16">
<path id="Vector_45" d="M81.8906 56.6016H82.8557V60.0122H81.8906V56.6016Z" fill="#FF725E"/>
<path id="Vector_46" d="M86.7914 56.6016V60.0122H85.9973L84.4924 58.1945V60.0122H83.5469V56.6016H84.3409L85.8459 58.4193V56.6016H86.7914Z" fill="#FF725E"/>
<path id="Vector_47" d="M87.8593 59.9761C87.6004 59.9077 87.3878 59.8173 87.2266 59.7024L87.5442 58.9915C87.6956 59.0916 87.874 59.1723 88.0743 59.2358C88.2747 59.2969 88.475 59.3286 88.668 59.3286C89.0394 59.3286 89.2226 59.2358 89.2226 59.0501C89.2226 58.9524 89.1689 58.8815 89.0638 58.8327C88.9587 58.7863 88.7877 58.735 88.5556 58.6836C88.2991 58.6275 88.0841 58.5688 87.9131 58.5053C87.7421 58.4418 87.593 58.3416 87.4709 58.1999C87.3463 58.0606 87.2852 57.8725 87.2852 57.6355C87.2852 57.4279 87.3414 57.2398 87.4562 57.0736C87.5686 56.9075 87.7396 56.7731 87.9644 56.6778C88.1892 56.5801 88.4677 56.5312 88.7951 56.5312C89.0198 56.5312 89.2397 56.5557 89.4571 56.607C89.6746 56.6583 89.8651 56.7316 90.0313 56.8293L89.7332 57.5451C89.4083 57.3692 89.0931 57.2813 88.7877 57.2813C88.5972 57.2813 88.4555 57.3106 88.3699 57.3668C88.282 57.423 88.238 57.4987 88.238 57.5891C88.238 57.6795 88.2893 57.7479 88.3944 57.7943C88.4994 57.8408 88.6656 57.8872 88.8952 57.936C89.1542 57.9922 89.3692 58.0509 89.5402 58.1144C89.7112 58.1779 89.8578 58.2781 89.9824 58.4173C90.107 58.5542 90.1705 58.7423 90.1705 58.9793C90.1705 59.1845 90.1143 59.3702 89.9995 59.5339C89.8847 59.7 89.7161 59.8319 89.4889 59.9296C89.2617 60.0298 88.9856 60.0787 88.6607 60.0787C88.3846 60.0787 88.1159 60.0445 87.8569 59.9761H87.8593Z" fill="#FF725E"/>
<path id="Vector_48" d="M91.0062 59.6599C90.7252 59.3838 90.5859 58.9929 90.5859 58.4847V56.5938H91.551V58.4554C91.551 59.0002 91.766 59.2739 92.1984 59.2739C92.6308 59.2739 92.8409 59.0002 92.8409 58.4554V56.5938H93.7913V58.4847C93.7913 58.9905 93.6521 59.3838 93.3711 59.6599C93.0901 59.936 92.6968 60.0728 92.1911 60.0728C91.6853 60.0728 91.2896 59.936 91.0086 59.6599H91.0062Z" fill="#FF725E"/>
<path id="Vector_49" d="M95.9356 59.1058H95.4103V60.0122H94.4453V56.6016H96.004C96.3119 56.6016 96.5806 56.6529 96.8078 56.7555C97.035 56.8581 97.2109 57.0047 97.3331 57.1928C97.4552 57.3834 97.5188 57.6057 97.5188 57.8622C97.5188 58.1187 97.4601 58.324 97.3453 58.5072C97.2305 58.6904 97.0643 58.8346 96.8518 58.9372L97.5872 60.0097H96.5537L95.9356 59.1033V59.1058ZM96.3925 57.4933C96.2923 57.4054 96.1433 57.3614 95.9454 57.3614H95.4103V58.3606H95.9454C96.1433 58.3606 96.2923 58.3166 96.3925 58.2311C96.4927 58.1456 96.544 58.0235 96.544 57.8647C96.544 57.7059 96.4927 57.5813 96.3925 57.4933Z" fill="#FF725E"/>
<path id="Vector_50" d="M100.335 59.3423H98.894L98.6252 60.0044H97.6406L99.1456 56.5938H100.096L101.606 60.0044H100.602L100.333 59.3423H100.335ZM100.052 58.6313L99.6147 57.5392L99.1774 58.6313H100.054H100.052Z" fill="#FF725E"/>
<path id="Vector_51" d="M105.127 56.6016V60.0122H104.333L102.828 58.1945V60.0122H101.883V56.6016H102.677L104.182 58.4193V56.6016H105.127Z" fill="#FF725E"/>
<path id="Vector_52" d="M106.547 59.8515C106.263 59.7 106.038 59.4899 105.877 59.2211C105.716 58.9524 105.633 58.647 105.633 58.305C105.633 57.9629 105.713 57.66 105.877 57.3888C106.038 57.12 106.263 56.9099 106.547 56.7585C106.83 56.607 107.152 56.5312 107.509 56.5312C107.822 56.5312 108.1 56.5874 108.352 56.6974C108.601 56.8073 108.809 56.9661 108.975 57.1738L108.362 57.7284C108.142 57.4621 107.873 57.3302 107.558 57.3302C107.372 57.3302 107.209 57.3717 107.064 57.4523C106.92 57.5329 106.808 57.6478 106.73 57.7968C106.649 57.9458 106.61 58.1144 106.61 58.305C106.61 58.4955 106.649 58.6665 106.73 58.8131C106.81 58.9597 106.92 59.0745 107.064 59.1576C107.209 59.2382 107.375 59.2798 107.558 59.2798C107.873 59.2798 108.142 59.1478 108.362 58.8815L108.975 59.4361C108.809 59.6438 108.601 59.8026 108.352 59.9125C108.103 60.0225 107.822 60.0787 107.509 60.0787C107.152 60.0787 106.83 60.0029 106.547 59.8515Z" fill="#FF725E"/>
<path id="Vector_53" d="M112.137 59.267V60.0122H109.398V56.6016H112.074V57.3467H110.354V57.9209H111.868V58.6416H110.354V59.2646H112.137V59.267Z" fill="#FF725E"/>
</g>
<g id="Group_17">
<path id="Vector_54" d="M84.4143 62.073C84.6659 62.2831 84.793 62.5738 84.793 62.9427C84.793 63.3116 84.6659 63.6024 84.4143 63.8125C84.1626 64.0226 83.8157 64.1276 83.3735 64.1276H82.5331V65.1586H82.0469V61.7578H83.3735C83.8133 61.7578 84.1602 61.8629 84.4143 62.073ZM84.0649 63.5095C84.2261 63.3776 84.3068 63.1895 84.3068 62.9427C84.3068 62.696 84.2261 62.5079 84.0649 62.3759C83.9037 62.244 83.6691 62.178 83.3613 62.178H82.5355V63.705H83.3613C83.6691 63.705 83.9037 63.639 84.0649 63.5071V63.5095Z" fill="#FF725E"/>
<path id="Vector_55" d="M86.1578 64.9754C85.8818 64.824 85.6668 64.6163 85.508 64.35C85.3516 64.0837 85.2734 63.7881 85.2734 63.4607C85.2734 63.1333 85.3516 62.8377 85.508 62.5714C85.6643 62.3051 85.8818 62.0974 86.1578 61.946C86.4339 61.7945 86.7418 61.7188 87.0862 61.7188C87.4307 61.7188 87.7337 61.7945 88.0097 61.946C88.2858 62.0974 88.5008 62.3051 88.6572 62.569C88.8135 62.8328 88.8893 63.1309 88.8893 63.4607C88.8893 63.7905 88.8111 64.0886 88.6572 64.3524C88.5008 64.6163 88.2858 64.824 88.0097 64.9754C87.7337 65.1269 87.4258 65.2002 87.0862 65.2002C86.7466 65.2002 86.4339 65.1245 86.1578 64.9754ZM87.7581 64.5992C87.9584 64.4868 88.1148 64.3305 88.2296 64.1301C88.3444 63.9298 88.4031 63.7075 88.4031 63.4607C88.4031 63.2139 88.3444 62.9916 88.2296 62.7913C88.1148 62.5909 87.9584 62.4346 87.7581 62.3222C87.5578 62.2098 87.3354 62.1512 87.0862 62.1512C86.837 62.1512 86.6098 62.2074 86.407 62.3222C86.2043 62.4346 86.0455 62.5909 85.9306 62.7913C85.8158 62.9916 85.7572 63.2139 85.7572 63.4607C85.7572 63.7075 85.8134 63.9298 85.9306 64.1301C86.0455 64.3305 86.2043 64.4868 86.407 64.5992C86.6098 64.7116 86.8346 64.7702 87.0862 64.7702C87.3379 64.7702 87.5602 64.714 87.7581 64.5992Z" fill="#FF725E"/>
<path id="Vector_56" d="M89.6406 61.7578H90.1268V64.736H91.9689V65.1586H89.6406V61.7578Z" fill="#FF725E"/>
<path id="Vector_57" d="M92.5234 61.7578H93.0096V65.1586H92.5234V61.7578Z" fill="#FF725E"/>
<path id="Vector_58" d="M94.6295 64.9754C94.3559 64.824 94.1409 64.6163 93.9845 64.3524C93.8282 64.0886 93.75 63.7905 93.75 63.4607C93.75 63.1309 93.8282 62.8328 93.9845 62.569C94.1409 62.3051 94.3559 62.0974 94.632 61.946C94.908 61.7945 95.2159 61.7188 95.5555 61.7188C95.8218 61.7188 96.0636 61.7627 96.2835 61.8531C96.5034 61.9435 96.6915 62.0754 96.8479 62.2489L96.5327 62.5543C96.2762 62.2856 95.9586 62.1512 95.575 62.1512C95.3234 62.1512 95.0937 62.2074 94.8909 62.3222C94.6882 62.4346 94.5269 62.5909 94.4121 62.7913C94.2973 62.9916 94.2386 63.2139 94.2386 63.4607C94.2386 63.7075 94.2973 63.9298 94.4121 64.1301C94.5269 64.3305 94.6857 64.4868 94.8909 64.5992C95.0962 64.7116 95.3234 64.7702 95.575 64.7702C95.9537 64.7702 96.2738 64.6334 96.5327 64.3622L96.8479 64.6676C96.6915 64.8435 96.5034 64.9754 96.2811 65.0658C96.0588 65.1562 95.8144 65.2027 95.5506 65.2027C95.211 65.2027 94.9032 65.1269 94.6295 64.9779V64.9754Z" fill="#FF725E"/>
<path id="Vector_59" d="M98.7933 63.9835V65.1586H98.312V63.9737L96.9609 61.7578H97.4813L98.571 63.5511L99.6655 61.7578H100.147L98.7957 63.9835H98.7933Z" fill="#FF725E"/>
</g>
<path id="Vector_60" d="M76.6492 56.0391H69.293C68.5185 56.0391 67.8906 56.6669 67.8906 57.4414V64.7977C67.8906 65.5722 68.5185 66.2 69.293 66.2H76.6492C77.4237 66.2 78.0516 65.5722 78.0516 64.7977V57.4414C78.0516 56.6669 77.4237 56.0391 76.6492 56.0391Z" fill="#FF725E"/>
<path id="Vector_61" d="M73.6378 61.2089C74.1118 61.011 74.449 60.5199 74.4514 59.9434C74.4538 59.1884 73.8821 58.5728 73.1761 58.5703C72.4676 58.5679 71.891 59.1762 71.8885 59.9311C71.8885 60.5126 72.2257 61.0086 72.7046 61.2065C70.7329 61.5045 70.8209 63.6471 70.8209 63.6471L75.4848 63.6691C75.4848 63.6691 75.5923 61.5021 73.6354 61.2065L73.6378 61.2089Z" fill="white"/>
<path id="Vector_62" d="M71.7897 95.2969H75.9162C76.4341 95.2969 76.8543 95.7171 76.8543 96.235V100.361C76.8543 100.879 76.4341 101.3 75.9162 101.3H71.7897C71.2718 101.3 70.8516 100.879 70.8516 100.361V96.235C70.8516 95.7171 71.2718 95.2969 71.7897 95.2969Z" fill="#FF725E"/>
<path id="Vector_63" d="M75.9162 103.547H71.7897C71.2716 103.547 70.8516 103.967 70.8516 104.485V108.611C70.8516 109.13 71.2716 109.55 71.7897 109.55H75.9162C76.4343 109.55 76.8543 109.13 76.8543 108.611V104.485C76.8543 103.967 76.4343 103.547 75.9162 103.547Z" fill="#FF725E"/>
<path id="Vector_64" d="M73.9569 99.8464L72.1172 98.6151L72.5447 97.9725L73.781 98.7983L75.3152 96.7656L75.9309 97.2323L73.9569 99.8464Z" fill="white"/>
<path id="Vector_65" d="M73.9569 108.281L72.1172 107.05L72.5447 106.41L73.781 107.233L75.3152 105.203L75.9309 105.667L73.9569 108.281Z" fill="white"/>
</g>
</g>
<g id="Character 1">
<g id="Group_18">
<g id="Group_19">
<path id="Vector_66" d="M70.7308 84.8343C71.2756 84.5142 71.8962 84.1819 71.8962 84.1819L72.4337 83.857C72.4434 83.8985 72.4459 83.9401 72.4483 83.9816C72.4532 84.0598 72.4557 84.1453 72.4972 84.2113C72.5778 84.3383 72.7611 84.3554 72.9076 84.3188C73.2155 84.243 73.4744 83.9938 73.56 83.6909C73.6406 83.4001 73.56 83.0703 73.3523 82.848C73.3523 82.7674 73.3376 82.6843 73.301 82.5939C73.0738 82.0491 72.2333 81.8854 72.2333 81.8854L72.4044 81.7461C72.4044 81.7461 73.0616 81.5531 73.8311 82.396C73.946 82.5231 74.1023 82.6086 74.2733 82.6257C74.3784 82.6354 74.4859 82.6208 74.5665 82.5426C74.7669 82.3496 74.6814 82.159 74.2098 81.6264C73.7359 81.0938 73.1031 80.7347 72.6242 80.7762C72.1454 80.8177 71.9621 80.8642 71.9621 80.8642C71.9621 80.8642 73.4378 79.5107 73.5282 79.4203C73.7896 79.1613 73.8898 78.829 73.7334 78.6409C73.6332 78.5188 73.4158 78.4406 73.1031 78.7313C72.8319 78.983 69.7316 81.2209 69.7316 81.2209L68.4172 82.291L67.4766 83.3488L68.8081 85.1079L69.4017 85.0712C69.8562 85.1494 70.3252 85.0639 70.7235 84.8318L70.7308 84.8343Z" fill="#FFBF9D"/>
<path id="Vector_67" d="M72.2082 81.8783C72.2155 81.8929 72.3279 81.7512 72.5795 81.7097C72.7041 81.6902 72.8556 81.7121 73.0022 81.7903C73.1512 81.8661 73.2929 81.9882 73.4298 82.1299C73.569 82.2692 73.7034 82.4084 73.8549 82.5062C74.0039 82.6039 74.1578 82.6625 74.2971 82.6674C74.4388 82.6747 74.5463 82.6063 74.5902 82.5477C74.6367 82.4891 74.6464 82.4475 74.644 82.4451C74.6367 82.4402 74.6171 82.4768 74.5658 82.5257C74.517 82.5746 74.4217 82.6234 74.2971 82.6112C74.1749 82.599 74.0308 82.5404 73.8915 82.4451C73.7523 82.3498 73.6228 82.2154 73.4835 82.0737C73.3442 81.932 73.1928 81.8025 73.0315 81.7244C72.8703 81.6437 72.6993 81.6242 72.5649 81.6535C72.4305 81.6804 72.3352 81.7415 72.279 81.7879C72.2229 81.8367 72.2009 81.8709 72.2033 81.8758L72.2082 81.8783Z" fill="#FF9A6C"/>
<path id="Vector_68" d="M73.6277 79.3281C73.6277 79.3281 73.5104 79.4258 73.3321 79.5944C73.1342 79.7825 72.8997 80.0073 72.6382 80.2541C72.3744 80.4984 72.135 80.7183 71.9346 80.9039C71.7538 81.0701 71.6414 81.1727 71.6488 81.1825C71.6561 81.1898 71.7807 81.1018 71.9713 80.9479C72.1618 80.7916 72.4184 80.5692 72.692 80.3127C72.9656 80.0562 73.205 79.8143 73.3712 79.6335C73.5373 79.4527 73.635 79.3355 73.6253 79.3281H73.6277Z" fill="#FF9A6C"/>
<path id="Vector_69" d="M72.1882 82.5078C72.1882 82.5078 72.2273 82.5298 72.3006 82.5616C72.369 82.5933 72.4838 82.6495 72.5229 82.7741C72.5425 82.8352 72.5229 82.9036 72.4716 82.9622C72.4227 83.0209 72.347 83.0697 72.2688 83.1259C72.1931 83.1797 72.1002 83.2554 72.0709 83.3751C72.0441 83.4899 72.0831 83.6145 72.1638 83.7049C72.2468 83.7978 72.3666 83.8369 72.4789 83.8393C72.5913 83.8393 72.6964 83.8149 72.7843 83.7563C72.948 83.6439 73.0628 83.5144 73.1532 83.402C73.2436 83.2872 73.2998 83.1821 73.3243 83.1039C73.3487 83.0258 73.3438 82.9793 73.3389 82.9793C73.3316 82.9793 73.3267 83.0233 73.2949 83.0942C73.2632 83.165 73.2021 83.2603 73.1093 83.3678C73.0164 83.4728 72.8967 83.5974 72.7428 83.6976C72.5986 83.7856 72.3568 83.8002 72.2224 83.6536C72.1564 83.5828 72.1271 83.4802 72.1467 83.3947C72.1662 83.3067 72.2371 83.2432 72.3104 83.187C72.3837 83.1308 72.4643 83.0795 72.5205 83.0062C72.5791 82.9378 72.6035 82.8352 72.5742 82.7595C72.5156 82.6055 72.3812 82.5591 72.3104 82.5347C72.2322 82.5103 72.1882 82.5054 72.1858 82.5103L72.1882 82.5078Z" fill="#FF9A6C"/>
<path id="Vector_70" d="M70.582 83.6885C70.582 83.6885 70.5478 83.6225 70.4477 83.5517C70.3499 83.4833 70.1814 83.41 69.9761 83.4222L70.0079 83.4833C70.0641 83.4198 70.1203 83.3465 70.1716 83.2683C70.4696 82.8334 70.521 82.3985 70.499 82.3985C70.4745 82.3912 70.3915 82.8041 70.1056 83.2243C70.0543 83.3 70.0006 83.3709 69.9493 83.4344L69.8906 83.5028L69.981 83.4955C70.1643 83.4808 70.3206 83.537 70.4208 83.5908C70.521 83.6445 70.5723 83.6958 70.5796 83.6861L70.582 83.6885Z" fill="#FF9A6C"/>
<path id="Vector_71" d="M73.1 81.3909C73.0805 81.3835 73.0291 81.5375 73.0951 81.7158C73.1586 81.8942 73.2979 81.9821 73.3077 81.9626C73.3223 81.9455 73.2246 81.8453 73.1684 81.6889C73.1098 81.5326 73.122 81.3933 73.1 81.3909Z" fill="#FF9A6C"/>
<path id="Vector_72" d="M69.7714 81.4219C69.7714 81.4219 69.8569 81.4317 70.0011 81.4707C70.1477 81.5098 70.3553 81.5685 70.6143 81.6466C70.8831 81.7273 71.186 81.8201 71.5183 81.9203C71.6038 81.9471 71.6893 81.974 71.7797 82.0009C71.8603 82.0327 71.98 82.04 72.0582 82.167C72.0948 82.233 72.0704 82.3209 72.024 82.3674C71.98 82.4162 71.9287 82.4431 71.875 82.4627C71.7724 82.4969 71.6697 82.5213 71.5647 82.5311C71.1371 82.5726 70.7511 82.4749 70.4018 82.4651C70.2283 82.4578 70.0622 82.47 69.9156 82.5091C69.769 82.5482 69.6346 82.6117 69.5051 82.6557C69.2486 82.7607 68.997 82.7412 68.8601 82.6581C68.7184 82.5775 68.6989 82.4798 68.7038 82.4798C68.7136 82.4724 68.7502 82.5555 68.8821 82.6141C69.0141 82.6752 69.2315 82.6825 69.4734 82.5726C69.5955 82.5237 69.7275 82.4553 69.8863 82.4089C70.0451 82.3625 70.221 82.3454 70.4018 82.3503C70.7658 82.3527 71.1518 82.4455 71.5476 82.4065C71.6453 82.3967 71.7406 82.3747 71.8285 82.3454C71.9141 82.3161 71.9702 82.255 71.9434 82.2159C71.9214 82.167 71.8261 82.1377 71.7381 82.1108C71.6502 82.0815 71.5622 82.0546 71.4792 82.0253C71.1494 81.9154 70.8488 81.8152 70.5825 81.7273C70.3285 81.6393 70.1232 81.5685 69.9815 81.5147C69.8398 81.461 69.7641 81.4292 69.7665 81.4219H69.7714Z" fill="#FF9A6C"/>
</g>
<g id="Group_20">
<g id="Group_21">
<path id="Vector_73" d="M50.031 73.9446L50.0041 63.7567C49.9137 61.2232 51.3161 59.0586 53.8496 59.0391L54.0841 59.0513C56.4442 59.171 58.3156 61.0815 58.3865 63.4416C58.4525 65.638 58.4964 68.0664 58.4207 69.2391C58.2668 71.6676 55.8188 71.9217 55.8188 71.9217C55.8139 71.9217 55.7894 73.3998 55.7846 74.1132L56.3392 75.7867L54.3431 75.281L50.031 73.9422V73.9446Z" fill="#FFBF9D"/>
<path id="Vector_74" d="M55.8103 71.9173C55.8103 71.9173 54.2736 71.9295 52.6953 70.8203C52.6953 70.8203 53.3647 72.6869 55.7981 72.5891L55.8103 71.9148V71.9173Z" fill="#FF9A6C"/>
<path id="Vector_75" d="M57.6548 65.4548C57.6524 65.6381 57.4936 65.7871 57.303 65.7871C57.1124 65.7871 56.9585 65.6405 56.961 65.4573C56.9634 65.274 57.1222 65.125 57.3128 65.125C57.5033 65.125 57.6573 65.2716 57.6548 65.4573V65.4548Z" fill="#263238"/>
<path id="Vector_76" d="M57.8074 64.4855C57.761 64.5295 57.5093 64.3194 57.1355 64.3023C56.7617 64.2778 56.4783 64.4562 56.4417 64.4098C56.4221 64.3878 56.471 64.3096 56.5956 64.229C56.7177 64.1484 56.923 64.0751 57.1551 64.0873C57.3872 64.0995 57.5777 64.1948 57.6877 64.2901C57.7976 64.3829 57.8318 64.4684 57.8098 64.4879L57.8074 64.4855Z" fill="#263238"/>
<path id="Vector_77" d="M54.1626 65.4548C54.1602 65.6381 54.0014 65.7871 53.8108 65.7871C53.6203 65.7871 53.4663 65.6405 53.4688 65.4573C53.4712 65.274 53.63 65.125 53.8206 65.125C54.0112 65.125 54.1651 65.2716 54.1626 65.4573V65.4548Z" fill="#263238"/>
<path id="Vector_78" d="M54.1433 64.3996C54.0969 64.4435 53.8453 64.2359 53.4715 64.2163C53.0977 64.1919 52.8143 64.3702 52.7776 64.3238C52.7581 64.3018 52.8069 64.2237 52.9315 64.143C53.0537 64.0624 53.2589 63.9891 53.491 64.0013C53.7231 64.0136 53.9137 64.1113 54.0236 64.2041C54.1335 64.297 54.1677 64.3825 54.1458 64.402L54.1433 64.3996Z" fill="#263238"/>
<path id="Vector_79" d="M55.3397 67.3207C55.3397 67.2987 55.5742 67.2718 55.9504 67.2425C56.0457 67.2376 56.1386 67.223 56.1557 67.1594C56.1825 67.091 56.1459 66.986 56.1068 66.8736C56.0286 66.6391 55.948 66.3923 55.8625 66.1333C55.5229 65.0803 55.2835 64.2155 55.325 64.2033C55.3665 64.191 55.6768 65.0339 56.0164 66.0869C56.097 66.3459 56.1752 66.5951 56.2485 66.8321C56.2778 66.942 56.334 67.069 56.2778 67.2083C56.2485 67.2792 56.1752 67.3256 56.1141 67.3402C56.053 67.3549 55.9993 67.3549 55.9504 67.3549C55.5717 67.3549 55.3372 67.3451 55.3348 67.3256L55.3397 67.3207Z" fill="#263238"/>
<path id="Vector_80" d="M54.317 63.2317C54.2608 63.3245 53.9041 63.2048 53.4643 63.1731C53.0246 63.1315 52.6532 63.1902 52.6117 63.09C52.5946 63.0411 52.6728 62.9605 52.8316 62.8897C52.9904 62.8213 53.2298 62.7724 53.4937 62.7944C53.7575 62.8164 53.9872 62.9043 54.1313 62.9972C54.2779 63.0925 54.3414 63.1853 54.317 63.2293V63.2317Z" fill="#263238"/>
<path id="Vector_81" d="M57.8835 63.3918C57.8029 63.4749 57.5024 63.3747 57.1359 63.3576C56.7719 63.3307 56.4592 63.3893 56.3908 63.2989C56.3614 63.255 56.4128 63.1719 56.552 63.0962C56.6888 63.0204 56.9136 62.9642 57.1652 62.9789C57.4169 62.9936 57.6319 63.0791 57.7565 63.1719C57.8835 63.2647 57.9226 63.3527 57.886 63.3918H57.8835Z" fill="#263238"/>
<path id="Vector_82" d="M50.1061 65.5746C50.0646 65.5551 48.4619 64.9956 48.4301 66.6594C48.3984 68.3232 50.0768 68.0104 50.0792 67.964C50.0841 67.9152 50.1061 65.5746 50.1061 65.5746Z" fill="#FFBF9D"/>
<path id="Vector_83" d="M49.5845 67.3123C49.5845 67.3123 49.5552 67.3318 49.5063 67.3538C49.4575 67.3758 49.3768 67.388 49.2889 67.3538C49.1154 67.2854 48.9713 67.0045 48.9688 66.704C48.9688 66.5525 49.003 66.4083 49.0568 66.2911C49.1105 66.1714 49.1912 66.0858 49.2791 66.0736C49.3671 66.0541 49.4281 66.1103 49.4477 66.1567C49.4697 66.2031 49.4575 66.2373 49.4672 66.2398C49.4721 66.2446 49.5039 66.2129 49.4917 66.1445C49.4843 66.1103 49.4672 66.0712 49.4281 66.0394C49.3891 66.0052 49.3304 65.9881 49.2693 65.993C49.1399 66.0003 49.0226 66.1152 48.9615 66.2447C48.8931 66.3741 48.8516 66.5354 48.8516 66.7064C48.8564 67.0411 49.0226 67.3587 49.262 67.432C49.3793 67.4638 49.477 67.432 49.5283 67.3929C49.5796 67.3538 49.5894 67.3147 49.5845 67.3123Z" fill="#FF9A6C"/>
<path id="Vector_84" d="M54.1607 67.5469C54.2169 67.5445 54.2169 67.9256 54.5418 68.1992C54.8667 68.4729 55.2747 68.4313 55.2772 68.4851C55.2821 68.5095 55.1868 68.5584 55.0133 68.5633C54.8447 68.5681 54.598 68.512 54.4001 68.3458C54.2022 68.1772 54.1167 67.9549 54.1045 67.7986C54.0898 67.6398 54.1338 67.5445 54.1607 67.5469Z" fill="#263238"/>
</g>
<g id="Group_22">
<path id="Vector_85" d="M61.766 61.2863C61.7416 61.1886 61.6732 61.1055 61.5852 61.0518C61.3971 60.9345 61.1772 60.9467 60.9647 60.9369C60.4369 60.9174 59.9165 60.7708 59.4499 60.5216C59.616 60.441 59.77 60.3433 59.9043 60.2162C60.178 59.9524 60.3417 59.5468 60.2268 59.1852C60.2048 59.1168 60.1682 59.046 60.0998 59.024C59.9923 58.9873 59.8946 59.0924 59.8188 59.1754C59.5647 59.4466 59.3351 59.5615 58.9662 59.515C58.7365 59.4882 58.5166 59.432 58.3383 59.3147C58.331 59.3074 58.3261 59.2976 58.3187 59.2903C58.2332 59.1999 58.1502 59.1119 58.0695 59.0289C57.4563 58.3961 56.9262 57.9539 56.3789 57.7193C55.5727 57.3749 54.2167 57.2136 53.3665 57.4188C52.5139 57.6241 51.7394 58.2935 51.605 59.1608C51.1384 58.7503 50.425 58.7381 49.8411 58.958L49.8264 58.9507C49.1765 59.1657 48.7979 59.84 48.5926 60.4923C48.5804 60.5289 48.5707 60.5631 48.5609 60.5998C48.3361 60.9394 48.0332 61.2301 47.6765 61.428C47.6129 61.4622 47.5421 61.5062 47.5323 61.577C47.5226 61.6479 47.5812 61.709 47.6398 61.7505C47.7913 61.8653 47.9696 61.9411 48.1578 61.9777C48.0967 62.1316 48.0234 62.2831 47.9354 62.4248C47.8597 62.547 47.7717 62.6911 47.8304 62.8206C47.8768 62.9208 48.0014 62.9647 48.1113 62.9501C48.2213 62.9354 48.319 62.8768 48.4143 62.8206C48.3386 62.9916 48.2628 63.1626 48.1871 63.3312C48.4192 63.3776 48.661 63.363 48.8883 63.2994C49.0129 63.9176 49.091 65.0561 49.2401 65.4763C49.6823 65.4934 49.7898 65.447 50.0121 65.5251C50.2979 65.6278 50.1782 66.1335 50.5545 65.9967C50.7475 65.9258 51.0553 65.21 51.1237 65.017C51.5733 63.7368 51.7443 62.3564 51.6197 61.0053C51.8933 60.7268 52.2182 60.4996 52.5774 60.3457L52.5481 60.3701C53.2321 60.1478 54.0066 59.9328 54.6467 60.2651C55.1427 60.5241 55.4261 61.0493 55.7925 61.472C56.4864 62.2733 57.2804 62.7082 58.3358 62.7766C58.4165 63.512 58.4189 64.714 58.4409 65.4005L59.0541 64.0397V64.0446C59.103 63.9664 59.1445 63.8858 59.1836 63.8052L59.1983 63.7807C59.2618 63.6488 59.3204 63.5193 59.3986 63.3923C59.3986 63.3923 59.4035 63.3972 59.4059 63.3972C59.77 63.7319 60.327 63.2433 60.0436 62.8377C59.9874 62.7571 59.919 62.6862 59.8408 62.6251C60.0069 62.7888 60.2586 62.8695 60.4834 62.8059C60.7081 62.7424 60.884 62.5201 60.8694 62.288C60.8596 62.1292 60.7497 61.985 60.608 61.9191C60.9085 61.9484 61.2163 61.8898 61.4802 61.7456C61.6536 61.6503 61.8246 61.494 61.7709 61.2765L61.766 61.2863Z" fill="#263238"/>
<path id="Vector_86" d="M52.3605 59.4609C52.3605 59.4609 52.2579 59.5245 52.1113 59.6784C51.9671 59.8347 51.8035 60.1059 51.7204 60.4797C51.6789 60.6654 51.6495 60.8731 51.6447 61.0978C51.6398 61.3226 51.652 61.562 51.6642 61.8161C51.6764 62.0702 51.6886 62.3365 51.6642 62.615C51.652 62.7543 51.6324 62.8935 51.6007 63.0352C51.5665 63.1745 51.5274 63.3235 51.4199 63.4408C51.3344 63.5361 51.1951 63.5776 51.073 63.5483C50.9508 63.5239 50.8457 63.4579 50.7676 63.3675C50.6137 63.1818 50.5794 62.9497 50.5452 62.7445L50.5966 62.7518C50.5086 62.9326 50.4206 63.1134 50.2887 63.2551C50.1617 63.3993 49.9858 63.4921 49.8099 63.5043C49.7219 63.5092 49.634 63.4945 49.5607 63.4555C49.4849 63.4164 49.4312 63.3528 49.3945 63.2844C49.3603 63.216 49.3432 63.1403 49.3481 63.067C49.353 62.9937 49.3823 62.9277 49.4312 62.8789L49.4556 62.9033C49.2626 63.1134 49.0623 63.2234 48.9254 63.2844C48.8546 63.3138 48.8008 63.3333 48.7618 63.3431C48.7227 63.3528 48.7031 63.3577 48.7031 63.3553C48.7031 63.3553 48.7227 63.3455 48.7593 63.3333C48.796 63.3186 48.8497 63.2991 48.9181 63.2649C49.0525 63.1989 49.2479 63.0865 49.4312 62.8764L49.4556 62.9009C49.3725 62.9864 49.3652 63.1378 49.4312 63.2624C49.4654 63.3235 49.5142 63.3822 49.5827 63.4139C49.6486 63.4481 49.7292 63.4628 49.8099 63.4555C49.9711 63.4432 50.1348 63.3553 50.2545 63.2185C50.3767 63.0817 50.4646 62.9082 50.5501 62.725L50.5868 62.6468L50.6014 62.7323C50.6356 62.9375 50.6723 63.1598 50.8115 63.3284C50.88 63.409 50.9777 63.4701 51.0852 63.4897C51.1927 63.5116 51.3051 63.4799 51.3784 63.3968C51.4712 63.2967 51.5127 63.1549 51.5445 63.0181C51.5762 62.8813 51.5958 62.7421 51.608 62.6077C51.63 62.3341 51.6202 62.0678 51.608 61.8161C51.5982 61.562 51.586 61.3202 51.5933 61.0954C51.6007 60.8682 51.63 60.6581 51.6764 60.4699C51.7644 60.0913 51.9378 59.8176 52.0893 59.6637C52.2432 59.5098 52.3532 59.4609 52.3532 59.4609H52.3605Z" fill="#455A64"/>
<path id="Vector_87" d="M59.8382 61.9851C59.8382 61.9851 59.8309 61.9925 59.8187 62.0022C59.8016 62.0145 59.782 62.0291 59.7576 62.0462C59.7307 62.0658 59.6965 62.0878 59.6525 62.1097C59.611 62.1342 59.5622 62.161 59.5035 62.1855C59.2763 62.2881 58.9098 62.3883 58.4579 62.3516C58.0083 62.3174 57.4733 62.1464 56.9993 61.7775C56.5205 61.4183 56.1051 60.8931 55.768 60.2969C55.597 59.9989 55.4601 59.6935 55.3062 59.4101C55.1547 59.1267 54.9837 58.8653 54.7785 58.6576C54.5733 58.4475 54.3339 58.2911 54.0847 58.2178C53.9601 58.1787 53.8355 58.1665 53.7157 58.1665C53.596 58.1714 53.4812 58.1934 53.3761 58.2252C53.1636 58.2911 52.9926 58.4035 52.8631 58.5208C52.7312 58.6381 52.6432 58.7627 52.5797 58.8726C52.4649 59.0949 52.4551 59.2366 52.4453 59.2342C52.4453 59.2342 52.4453 59.2244 52.4478 59.2097C52.4502 59.1902 52.4551 59.1658 52.46 59.1365C52.4722 59.0705 52.5039 58.9777 52.5577 58.8628C52.6163 58.7504 52.7067 58.621 52.8387 58.4988C52.9706 58.3766 53.144 58.2594 53.3615 58.1885C53.469 58.1543 53.5887 58.1299 53.7133 58.125C53.8379 58.125 53.9698 58.1348 54.0969 58.1739C54.3558 58.2496 54.6026 58.4084 54.8127 58.6234C55.0253 58.836 55.1987 59.1023 55.3526 59.3857C55.509 59.6691 55.6458 59.9744 55.8144 60.2701C56.1491 60.8637 56.5595 61.3817 57.0286 61.7384C57.4928 62.1024 58.0156 62.2734 58.4579 62.3125C58.9025 62.3541 59.2641 62.2612 59.4913 62.1659C59.721 62.0682 59.8309 61.9803 59.8358 61.9876L59.8382 61.9851Z" fill="#455A64"/>
<path id="Vector_88" d="M60.0903 60.9141C60.0903 60.9141 60.061 60.9385 60.0024 60.9727C59.9437 61.0093 59.8558 61.0533 59.741 61.0997C59.6286 61.1462 59.4869 61.1901 59.3281 61.2268C59.1693 61.2585 58.9909 61.283 58.8028 61.2854C58.6147 61.2854 58.4363 61.2683 58.2775 61.239C58.1187 61.2072 57.977 61.1681 57.8622 61.1217C57.7474 61.0778 57.657 61.0362 57.5983 61.002C57.5397 60.9678 57.5055 60.9483 57.5079 60.9458C57.5128 60.9361 57.6448 61.0093 57.8744 61.0851C57.9892 61.1242 58.1285 61.1608 58.2849 61.1877C58.4412 61.2121 58.6171 61.2292 58.8004 61.2292C58.9836 61.2268 59.1595 61.2048 59.3159 61.1755C59.4722 61.1437 59.6115 61.1046 59.7239 61.0631C59.9511 60.9825 60.083 60.9067 60.0879 60.9165L60.0903 60.9141Z" fill="#455A64"/>
</g>
</g>
<g id="Group_23">
<g id="Group_24">
<path id="Vector_89" d="M55.6883 136.395L55.4366 141.002C55.4366 141.002 60.0371 142.808 60.0713 143.663L51.1172 143.494L51.2149 136.297L55.6858 136.392L55.6883 136.395Z" fill="#263238"/>
<path id="Vector_90" d="M52.6741 140.56C52.5006 140.604 52.376 140.797 52.4127 140.973C52.4493 141.148 52.6448 141.275 52.8182 141.234C52.9941 141.192 53.1481 140.965 53.0919 140.797C53.0357 140.626 52.7987 140.489 52.6399 140.572" fill="#E0E0E0"/>
<path id="Vector_91" d="M51.1172 143.491L51.1563 142.766L59.7268 143.198C59.7268 143.198 60.1226 143.379 60.0713 143.66L51.1172 143.491Z" fill="#455A64"/>
<path id="Vector_92" d="M55.584 140.957C55.584 141.001 55.3617 141.016 55.1442 141.153C54.9219 141.285 54.8095 141.47 54.768 141.453C54.7289 141.443 54.7973 141.184 55.0636 141.023C55.3299 140.859 55.5913 140.918 55.5815 140.957H55.584Z" fill="white"/>
<path id="Vector_93" d="M56.5196 141.363C56.5294 141.404 56.3388 141.475 56.1849 141.658C56.0285 141.836 55.987 142.034 55.943 142.032C55.9015 142.039 55.877 141.783 56.0701 141.558C56.2606 141.333 56.5196 141.321 56.5196 141.363Z" fill="white"/>
<path id="Vector_94" d="M57.0263 142.497C56.9872 142.504 56.9286 142.287 57.0458 142.05C57.1607 141.81 57.3683 141.72 57.3879 141.759C57.4123 141.795 57.2779 141.92 57.1851 142.118C57.0874 142.311 57.0727 142.497 57.0287 142.499L57.0263 142.497Z" fill="white"/>
<path id="Vector_95" d="M55.5267 139.907C55.5071 139.946 55.3092 139.882 55.06 139.894C54.8133 139.902 54.6178 139.98 54.5959 139.943C54.5714 139.912 54.762 139.753 55.0527 139.743C55.3435 139.731 55.5462 139.872 55.5242 139.907H55.5267Z" fill="white"/>
</g>
<g id="Group_25">
<path id="Vector_96" d="M44.8569 135.93L44.3731 141.493L45.2576 146.003C45.3211 146.328 45.0963 146.638 44.7689 146.679C44.5857 146.701 44.4025 146.635 44.2779 146.501C43.479 145.631 40.5594 142.416 40.6181 142.011C40.6865 141.542 40.7402 136.108 40.7402 136.108L44.8593 135.93H44.8569Z" fill="#263238"/>
<path id="Vector_97" d="M44.7677 146.686L40.6412 141.641L40.6266 141.878C40.6144 142.083 40.673 142.283 40.7952 142.447C41.1225 142.884 42.0509 144.076 44.262 146.507C44.3914 146.649 44.582 146.717 44.7701 146.688L44.7677 146.686Z" fill="#455A64"/>
<g id="Group_26" opacity="0.6">
<path id="Vector_98" d="M41.9077 139.909C42.0421 140.014 42.0739 140.229 41.9737 140.366C41.8735 140.503 41.6561 140.537 41.5217 140.434C41.3873 140.332 41.3409 140.075 41.4557 139.951C41.5706 139.826 41.8271 139.799 41.9346 139.931" fill="white"/>
</g>
<path id="Vector_99" d="M43.6526 144.165C43.6819 144.182 43.8285 143.898 44.1681 143.761C44.5052 143.615 44.8082 143.715 44.8179 143.681C44.8228 143.669 44.7569 143.62 44.6274 143.593C44.5003 143.566 44.3098 143.571 44.1216 143.649C43.9335 143.727 43.7967 143.857 43.7259 143.967C43.6526 144.077 43.6403 144.16 43.6526 144.165Z" fill="white"/>
<path id="Vector_100" d="M43.9953 144.936C44.0198 144.963 44.2103 144.792 44.5035 144.728C44.7967 144.657 45.041 144.728 45.0532 144.694C45.0703 144.667 44.8114 144.53 44.4766 144.611C44.1419 144.687 43.966 144.921 43.9953 144.938V144.936Z" fill="white"/>
<path id="Vector_101" d="M42.9706 143.16C42.995 143.189 43.2857 142.925 43.7353 142.786C44.1799 142.639 44.5708 142.683 44.5733 142.647C44.583 142.617 44.175 142.515 43.6962 142.669C43.2173 142.82 42.9437 143.143 42.9706 143.16Z" fill="white"/>
<path id="Vector_102" d="M42.9772 141.462C42.9894 141.496 43.307 141.386 43.7077 141.399C44.1084 141.404 44.4211 141.526 44.4358 141.492C44.4529 141.465 44.1426 141.281 43.7102 141.274C43.2777 141.262 42.9601 141.433 42.9772 141.46V141.462Z" fill="white"/>
<path id="Vector_103" d="M43.0733 139.823C43.0879 139.857 43.4104 139.691 43.8306 139.738C44.2533 139.774 44.5367 140.001 44.5587 139.97C44.5685 139.957 44.5123 139.884 44.3877 139.803C44.2655 139.72 44.0701 139.64 43.8429 139.615C43.6156 139.593 43.408 139.635 43.2712 139.694C43.1344 139.75 43.0635 139.811 43.0708 139.825L43.0733 139.823Z" fill="white"/>
<path id="Vector_104" d="M43.8455 139.422C43.8455 139.422 43.8699 139.349 43.8675 139.212C43.8626 139.075 43.8382 138.875 43.7356 138.65C43.6818 138.542 43.6281 138.406 43.4766 138.322C43.4008 138.281 43.286 138.288 43.2152 138.357C43.1443 138.425 43.1174 138.515 43.1101 138.603C43.093 138.958 43.374 139.319 43.7698 139.395C44.1655 139.463 44.5418 139.261 44.7201 138.965C44.7592 138.889 44.791 138.792 44.7519 138.696C44.7153 138.599 44.6053 138.555 44.5247 138.562C44.3586 138.577 44.2462 138.665 44.146 138.728C43.9432 138.87 43.8137 139.024 43.738 139.136C43.6598 139.248 43.6329 139.319 43.6403 139.324C43.6598 139.341 43.7991 139.06 44.1949 138.801C44.295 138.743 44.4099 138.667 44.5296 138.665C44.5882 138.665 44.6371 138.689 44.6542 138.738C44.6737 138.784 44.6542 138.853 44.6224 138.914C44.4734 139.156 44.1289 139.341 43.7942 139.278C43.4619 139.217 43.2152 138.899 43.2249 138.613C43.2274 138.545 43.2518 138.476 43.2909 138.437C43.33 138.401 43.3862 138.391 43.4351 138.415C43.5401 138.467 43.6061 138.589 43.6598 138.689C43.8675 139.114 43.8235 139.429 43.8479 139.424L43.8455 139.422Z" fill="white"/>
</g>
<g id="Group_27">
<path id="Vector_105" d="M60.1218 97.6864C60.1218 97.6864 60.801 100.315 60.5542 103.518C60.4589 104.757 56.2763 139.039 56.2763 139.039H50.6302L52.2183 106.819L51.7565 106.919C51.7565 106.919 48.6733 120.662 48.4241 122.885C48.1993 124.886 45.5998 139.413 45.5998 139.413L40.4375 139.471L42.0866 120.254L44.0045 101.813L44.7252 96.4453L60.1218 97.684V97.6864Z" fill="#263238"/>
<path id="Vector_106" d="M51.3281 103.532C51.3281 103.532 51.4087 103.588 51.5627 103.664C51.719 103.737 51.9487 103.85 52.2614 103.908C52.4178 103.938 52.5961 103.945 52.7818 103.913C52.9675 103.881 53.1654 103.801 53.3266 103.652C53.4879 103.503 53.5905 103.293 53.6564 103.075C53.7224 102.855 53.7615 102.628 53.8079 102.396C53.9887 101.465 54.1108 100.617 54.1817 100.002C54.2183 99.6938 54.2403 99.4446 54.255 99.2712C54.2672 99.0977 54.2697 99.0024 54.2623 99C54.255 99 54.2354 99.0928 54.2086 99.2639C54.1793 99.4593 54.1426 99.7036 54.0986 99.9895C54.0058 100.603 53.8714 101.446 53.6931 102.374C53.6027 102.833 53.5392 103.3 53.2533 103.574C52.9675 103.842 52.5692 103.869 52.2785 103.828C51.978 103.784 51.7459 103.683 51.5847 103.625C51.4234 103.561 51.333 103.527 51.3306 103.534L51.3281 103.532Z" fill="#455A64"/>
<path id="Vector_107" d="M53.0268 99.1677C53.0268 99.1677 52.9901 99.1383 52.9119 99.1335C52.8338 99.1286 52.7141 99.1506 52.5968 99.2361C52.4844 99.3191 52.3647 99.4682 52.3598 99.6734C52.35 99.8786 52.5113 100.081 52.7214 100.157C52.929 100.238 53.1831 100.191 53.3126 100.03C53.4421 99.8737 53.4519 99.6832 53.4201 99.5439C53.3859 99.4046 53.3126 99.3069 53.2491 99.2605C53.1856 99.2116 53.1416 99.2043 53.1392 99.2092C53.1245 99.2238 53.298 99.3045 53.337 99.5586C53.3542 99.6783 53.337 99.8395 53.2296 99.9543C53.1294 100.072 52.9364 100.108 52.7629 100.042C52.5895 99.9788 52.4673 99.8249 52.4697 99.6685C52.4673 99.5121 52.5577 99.3802 52.6505 99.2996C52.8484 99.1335 53.0317 99.1872 53.0292 99.1652L53.0268 99.1677Z" fill="#455A64"/>
</g>
</g>
<g id="Group_28">
<path id="Vector_108" d="M58.7031 73.8228C58.8448 73.8789 60.5746 74.0451 61.1585 76.1706C61.7424 78.2961 63.7897 84.8168 63.7897 84.8168L67.8404 82.4055L69.8682 86.7103L64.9771 90.0329C64.9771 90.0329 61.9281 92.0558 60.6234 89.4148L58.7031 73.8203V73.8228Z" fill="#263238"/>
<g id="Group_29">
<path id="Vector_109" d="M49.7628 84.4364C49.7384 83.8549 48.8418 79.6869 48.8418 79.6136C48.8418 79.5403 49.7286 73.4179 49.7286 73.4179L49.9265 71.5L54.2289 74.0799C54.2289 74.0799 55.856 72.68 55.812 72.6067L56.1736 73.7037L56.5156 73.8259L57.0262 78.6999L59.076 97.6708C59.076 97.6708 58.3724 98.5259 55.6874 98.9192C52.3403 99.4079 47.5078 97.6708 47.5078 97.6708C47.5078 97.6708 49.7873 85.0178 49.7628 84.4364Z" fill="#E0E0E0"/>
<g id="Group_30" opacity="0.3">
<path id="Vector_110" d="M59.7206 104.31C59.7206 104.31 59.0879 104.789 58.7019 101.911C58.3158 99.0354 57.1749 86.9712 57.1749 86.9712L56.3516 74.4844L58.8142 81.7576L59.7231 104.31H59.7206Z" fill="black"/>
</g>
<g id="Group_31" opacity="0.3">
<path id="Vector_111" d="M50.1386 94.9375C50.1386 94.9375 49.0074 105.978 48.5799 105.763C48.1523 105.548 44.0234 103.921 44.0234 103.921L44.4388 100.351L50.1386 94.9375Z" fill="black"/>
</g>
<path id="Vector_112" d="M55.3001 75.6921L54.7626 76.4812H53.9612L53.5312 75.6921L54.0052 74.6953L54.6404 74.7295L55.3001 75.6921Z" fill="#FF725E"/>
<path id="Vector_113" d="M50.0571 74.0781C50.0571 74.0781 50.1207 74.1368 50.2453 74.2223C50.3918 74.32 50.5726 74.4397 50.7827 74.5814C51.2396 74.8795 51.8748 75.285 52.5809 75.7297C52.8105 75.8738 53.0353 76.0131 53.243 76.1426L53.2894 76.1719L53.3163 76.1279C53.6607 75.5709 53.8611 75.0456 54.0101 74.6767C54.0834 74.491 54.1396 74.3444 54.1762 74.2418C54.2129 74.1392 54.23 74.083 54.2251 74.0806C54.2129 74.0757 54.1103 74.2882 53.9466 74.6523C53.7805 75.0114 53.5655 75.5318 53.2259 76.0717L53.2992 76.0546C53.0915 75.9227 52.8692 75.7834 52.6395 75.6368C51.9335 75.1946 51.2909 74.7988 50.8243 74.5179C50.6044 74.3884 50.4187 74.2785 50.2672 74.1881C50.1353 74.1123 50.0596 74.0732 50.0547 74.0806L50.0571 74.0781Z" fill="#455A64"/>
<path id="Vector_114" d="M56.2138 74.8824C56.2138 74.8824 56.116 74.9801 55.9792 75.1633C55.8424 75.3466 55.6543 75.608 55.4393 75.9134H55.5273C55.4393 75.7912 55.3489 75.6568 55.2561 75.5176C54.9849 75.112 54.743 74.7431 54.5549 74.4817C54.3692 74.2203 54.2373 74.0688 54.2275 74.0786C54.2153 74.0883 54.3228 74.2545 54.4914 74.5257C54.6624 74.7968 54.8945 75.1731 55.1657 75.5811C55.2585 75.7204 55.3538 75.8547 55.4442 75.9769L55.4882 76.038L55.5297 75.9769C55.7374 75.669 55.9157 75.3979 56.0354 75.2049C56.1576 75.0118 56.2235 74.8921 56.2138 74.8848V74.8824Z" fill="#455A64"/>
<path id="Vector_115" d="M54.7543 76.4688L56.6722 94.5039L54.8349 97.0985L52.8047 94.9413L53.953 76.4688H54.7543Z" fill="#FF725E"/>
</g>
<g id="Group_32">
<path id="Vector_116" d="M49.8099 71.6743C49.6609 71.7916 47.8334 73.1207 47.8334 73.1207L44.0539 74.6843C44.0539 74.6843 44.9115 82.0625 44.9334 82.2433C45.1533 84.1685 45.7959 90.2226 45.7959 90.2226L42.3828 102.976L48.3196 104.872C48.3196 104.872 49.6804 97.999 50.3181 94.283C50.9533 90.567 50.7676 89.5141 50.6919 85.9153C50.6162 82.3166 49.8319 73.4358 49.8319 73.4358L49.8124 71.6719L49.8099 71.6743Z" fill="#263238"/>
<path id="Vector_117" d="M50.3195 89.5695C50.3195 89.5695 50.3195 89.5084 50.3048 89.3936C50.2901 89.2788 50.273 89.1102 50.2388 88.8952C50.1704 88.4627 50.0629 87.8397 49.9115 87.075C49.6109 85.5408 49.159 83.4323 48.6313 81.1089C48.2086 79.2448 47.8055 77.5273 47.4757 76.1518L47.461 76.1958C47.7468 75.9539 48.0083 75.7292 48.2526 75.5215L48.2868 75.4922L48.255 75.4629C47.9521 75.177 47.6858 74.9254 47.4537 74.7079L47.461 74.7421C47.6198 74.3366 47.7468 74.0141 47.8397 73.782C47.8788 73.6769 47.9105 73.5939 47.935 73.5279C47.9569 73.4693 47.9643 73.4399 47.9618 73.4375C47.9594 73.4375 47.9447 73.4644 47.9179 73.5206C47.8885 73.5841 47.8519 73.6672 47.8079 73.7698C47.7102 73.9994 47.5734 74.317 47.4048 74.7177L47.3975 74.7372L47.4121 74.7519C47.6418 74.9742 47.9032 75.2283 48.2013 75.519V75.4604C47.9569 75.6656 47.6906 75.8855 47.4048 76.1274L47.3828 76.1445L47.3901 76.1714C47.7077 77.5566 48.1011 79.2741 48.5262 81.1334C49.0539 83.4568 49.5181 85.5627 49.8382 87.0897C49.9994 87.8544 50.1191 88.4725 50.1997 88.9025C50.2413 89.1175 50.2657 89.2836 50.2853 89.3985C50.3048 89.5108 50.317 89.5719 50.3219 89.5695H50.3195Z" fill="#455A64"/>
<path id="Vector_118" d="M41.6172 102.124C41.6172 102.124 41.6587 102.149 41.7442 102.185C41.8371 102.227 41.9592 102.281 42.1156 102.347C42.4503 102.488 42.9218 102.686 43.5082 102.935C44.7077 103.434 46.3764 104.128 48.3016 104.927L48.3627 104.951L48.3749 104.885C48.519 104.11 48.6729 103.282 48.8317 102.425C49.313 99.7813 49.7504 97.387 50.068 95.6426C50.2194 94.7802 50.3416 94.0815 50.4296 93.5855C50.4686 93.3485 50.5004 93.1628 50.5224 93.026C50.5322 92.9674 50.5371 92.9185 50.5444 92.8794C50.5493 92.8452 50.5493 92.8281 50.5468 92.8281C50.5468 92.8281 50.5395 92.8452 50.5322 92.877C50.5224 92.9161 50.5126 92.9625 50.5004 93.0211C50.4735 93.1579 50.4344 93.3436 50.388 93.5782C50.2927 94.0717 50.1584 94.7704 49.9922 95.628C49.6673 97.3699 49.2178 99.7617 48.7243 102.403C48.5679 103.258 48.414 104.089 48.2723 104.863L48.3456 104.824C46.4155 104.04 44.7395 103.358 43.5375 102.869C42.9463 102.632 42.4698 102.444 42.1327 102.31C41.9739 102.249 41.8493 102.2 41.754 102.163C41.6685 102.132 41.6221 102.117 41.6221 102.119L41.6172 102.124Z" fill="#455A64"/>
<path id="Vector_119" d="M43.4737 77.5781C43.4443 77.5806 43.5494 78.9903 43.7106 80.7249C43.8719 82.4595 44.0282 83.8643 44.0576 83.8619C44.0869 83.8594 43.9818 82.4497 43.8206 80.7151C43.6593 78.9805 43.503 77.5757 43.4737 77.5806V77.5781Z" fill="#455A64"/>
</g>
<g id="Group_33">
<path id="Vector_120" d="M60.4402 103.973C60.0077 104.217 59.4654 103.934 59.4214 103.438L58.0899 89.7759L55.9766 73.1016L56.7877 73.4998L59.0769 73.8931C59.0769 73.8931 60.2887 76.9031 60.6234 79.7664C60.9581 82.6298 60.9044 90.0886 60.9044 90.0886L62.9346 102.546L60.4402 103.973Z" fill="#263238"/>
<path id="Vector_121" d="M58.4514 90.1183C58.4514 90.1183 58.4563 90.0548 58.4514 89.9327C58.4514 89.813 58.4368 89.6346 58.4368 89.405C58.4295 88.9456 58.4221 88.2836 58.4295 87.4627C58.4368 85.8233 58.4783 83.5585 58.5345 81.0568C58.576 79.349 58.6151 77.7537 58.6493 76.4026V76.3733L58.6249 76.3586C58.3024 76.1852 57.997 76.019 57.7087 75.8651L57.7234 75.9262C57.9506 75.5939 58.1583 75.291 58.3464 75.0174L58.3635 74.9905L58.3415 74.9685C57.8309 74.4848 57.4229 74.0987 57.1321 73.8251C56.9953 73.6981 56.8878 73.5979 56.8048 73.5222C56.729 73.4538 56.6899 73.4196 56.6875 73.422C56.6875 73.4244 56.7217 73.4635 56.7901 73.5368C56.8683 73.615 56.9733 73.7201 57.1028 73.852C57.3862 74.1329 57.7894 74.5263 58.2878 75.0198L58.2829 74.9734C58.0923 75.247 57.8822 75.5451 57.6501 75.8749L57.6232 75.914L57.6648 75.9384C57.9506 76.0948 58.2535 76.2634 58.576 76.4393L58.5516 76.3953C58.5052 77.7439 58.4612 79.3417 58.4221 81.0519C58.3659 83.5537 58.3391 85.8184 58.3513 87.4602C58.3562 88.2811 58.3733 88.9432 58.3928 89.4025C58.4001 89.6322 58.4197 89.8105 58.427 89.9302C58.4368 90.0499 58.4441 90.1135 58.449 90.1135L58.4514 90.1183Z" fill="#455A64"/>
<path id="Vector_122" d="M58.8834 97.8955C58.8834 97.8955 58.881 97.9322 58.8859 97.9981C58.8932 98.0787 58.903 98.1765 58.9152 98.2937C58.9469 98.5649 58.9885 98.9314 59.0422 99.3736C59.1522 100.285 59.3134 101.543 59.4991 102.931C59.5651 103.419 59.6286 103.891 59.6872 104.328L59.697 104.406L59.7654 104.367C60.6791 103.852 61.4707 103.405 62.0522 103.075C62.3233 102.919 62.5432 102.789 62.7118 102.691C62.8633 102.601 62.9463 102.547 62.9439 102.542C62.9415 102.537 62.8535 102.579 62.6947 102.66C62.5237 102.75 62.2965 102.87 62.0204 103.016C61.434 103.336 60.6351 103.771 59.7141 104.272L59.7923 104.311C59.7336 103.874 59.6726 103.4 59.609 102.911C59.4234 101.524 59.2523 100.265 59.1204 99.3565C59.0544 98.9143 59.0007 98.5527 58.9592 98.2815C58.9396 98.1643 58.9225 98.069 58.9103 97.9908C58.8981 97.9248 58.8883 97.8906 58.8859 97.8906L58.8834 97.8955Z" fill="#455A64"/>
<path id="Vector_123" d="M60.9079 90.0891C60.8736 90.0891 60.7906 87.0767 60.7271 83.3583C60.6611 79.6398 60.6367 76.625 60.6733 76.625C60.7075 76.625 60.7906 79.6374 60.8541 83.3558C60.9201 87.0743 60.9445 90.0866 60.9079 90.0891Z" fill="#455A64"/>
</g>
<path id="Vector_124" d="M44.0486 74.6875C44.0486 74.6875 42.3751 75.4082 41.7447 78.0224C41.2488 80.0868 38.9034 90.6827 38.962 92.1412C39.0182 93.5998 39.6827 102.148 39.8782 102.148C40.0736 102.148 44.3418 101.899 44.3418 101.899L44.0266 91.8261L45.3142 86.3315L45.7857 82.679L44.0462 74.6875H44.0486Z" fill="#263238"/>
<path id="Vector_125" d="M39.8774 102.153C39.8774 102.153 39.9923 102.133 40.2048 102.116C40.4345 102.099 40.7423 102.077 41.1234 102.048C41.9297 101.996 43.0389 101.928 44.3362 101.845L44.28 101.906C44.2531 101.078 44.2262 100.171 44.1945 99.2209C44.1431 97.2517 44.0967 95.4707 44.0625 94.1611C44.0528 93.5259 44.043 93.0055 44.0381 92.6269C44.0381 92.4558 44.0381 92.319 44.0381 92.2091C44.0381 92.1138 44.043 92.0625 44.0454 92.0625C44.0503 92.0625 44.0552 92.1114 44.0625 92.2066C44.0699 92.3166 44.0772 92.4534 44.087 92.622C44.1041 93.0007 44.126 93.521 44.1529 94.1538C44.1969 95.4633 44.2555 97.2444 44.3215 99.2135C44.3484 100.164 44.3728 101.07 44.3972 101.899V101.957L44.341 101.96C43.0413 102.023 41.9321 102.077 41.1259 102.116C40.7448 102.131 40.4345 102.143 40.2048 102.15C39.9898 102.155 39.875 102.155 39.875 102.15L39.8774 102.153Z" fill="#455A64"/>
<path id="Vector_126" d="M44.55 79.0781C44.5842 79.0732 44.8896 81.5677 45.2292 84.6436C45.5688 87.7219 45.8156 90.2188 45.7814 90.2237C45.7472 90.2286 45.4418 87.7366 45.1022 84.6582C44.7626 81.5799 44.5158 79.083 44.55 79.0781Z" fill="#455A64"/>
</g>
<g id="Group_34">
<path id="Vector_127" d="M49.0705 104.617H36.3027C35.9371 104.617 35.6406 104.914 35.6406 105.279V114.013C35.6406 114.379 35.9371 114.676 36.3027 114.676H49.0705C49.4362 114.676 49.7326 114.379 49.7326 114.013V105.279C49.7326 104.914 49.4362 104.617 49.0705 104.617Z" fill="#455A64"/>
<path id="Vector_128" d="M44.272 104.628C44.1987 104.594 43.9422 104.621 43.9299 104.902C43.9177 105.183 44.1572 107.079 44.1572 107.079C44.1572 107.079 44.7508 109.187 44.5896 109.424C44.4283 109.661 44.0985 109.605 43.9861 109.451C43.9055 109.341 43.2385 107.577 43.2385 107.577L43.0675 106.619C43.0675 106.619 43.412 109.656 43.219 109.893C43.026 110.13 42.8183 110.04 42.6864 109.918C42.5545 109.796 42.4152 108.454 42.4152 108.454L42.1025 106.663L42.1465 109.573C42.1465 109.573 42.1098 109.898 41.8557 109.908C41.5039 109.923 41.4331 109.546 41.4331 109.546L41.0788 106.534C41.0788 106.534 41.1961 108.491 41.0666 108.593C40.8907 108.73 40.7294 108.686 40.6733 108.535C40.556 108.229 40.385 106.47 40.385 106.47L40.2237 103.121L40.1016 102.197L43.3167 102.031L43.324 102.258C43.324 102.258 44.5627 103.194 44.8339 103.563C44.8339 103.563 45.2199 104.162 45.3201 104.623L44.272 104.631V104.628Z" fill="#FFBF9D"/>
<path id="Vector_129" d="M48.9779 111.359H50.5V106.876H48.9779V111.359Z" fill="#455A64"/>
<path id="Vector_130" d="M50.0859 108.819L51.3148 108.445L51.3222 109.933L50.1299 109.66L50.0859 108.819Z" fill="#455A64"/>
<path id="Vector_131" d="M49.7711 111.371C49.7711 111.354 49.4706 111.337 48.9698 111.324L49.0162 111.371C49.0308 110.816 49.0382 110 49.0382 109.094C49.0382 108.187 49.0308 107.447 49.0186 106.89L48.9722 106.937C49.5146 106.924 49.8469 106.907 49.8469 106.89C49.8469 106.873 49.5146 106.856 48.9722 106.844H48.9258V106.89C48.9136 107.447 48.9062 108.229 48.9062 109.094C48.9062 109.959 48.916 110.816 48.9282 111.371V111.417H48.9747C49.4755 111.405 49.776 111.39 49.776 111.371H49.7711Z" fill="#263238"/>
</g>
</g>
</g>
</g>
</g>
</svg>
