<svg width="39" height="52" viewBox="0 0 39 52" fill="none" xmlns="http://www.w3.org/2000/svg">
<path d="M34.0288 25.2219C33.1813 26.1644 32.2934 27.075 31.4973 28.0605C30.7475 28.9861 30.5433 30.1176 30.5808 31.298C30.5995 31.8627 30.6271 32.4295 30.6025 32.9972C30.5453 34.2696 29.9573 34.8214 28.6994 34.8224C26.7263 34.8224 24.7532 34.8224 22.7801 34.8224C21.6022 34.8224 21.0192 34.2936 20.9294 33.0972C20.8732 32.3525 20.8712 31.6029 20.8524 30.8552C20.808 29.0991 20.1076 27.6877 18.7264 26.6102C16.5846 24.94 15.1522 22.787 14.4843 20.1263C13.957 18.0531 14.023 15.8708 14.6747 13.8343C14.723 13.6753 14.7733 13.5174 14.8167 13.3575C14.8239 13.3099 14.8265 13.2617 14.8246 13.2135C14.7183 13.221 14.6129 13.2388 14.5099 13.2665C13.5747 13.6254 12.6296 13.9612 11.7101 14.359C9.40158 15.3585 7.97799 17.1477 7.1996 19.5336C6.5179 21.6256 6.18247 23.7886 5.92597 25.9655C5.84902 26.6292 5.90032 27.2299 6.20714 27.8406C6.38346 28.1834 6.47056 28.566 6.4602 28.9524C6.44984 29.3388 6.34237 29.7161 6.14794 30.0486C5.68032 30.8852 5.1614 31.6928 4.6257 32.4894C4.07619 33.3121 3.48427 34.1057 2.87063 34.9673C3.51682 35.2362 4.10382 35.479 4.68884 35.7239C5.60337 36.1087 5.7109 36.4666 5.18211 37.3232C4.92956 37.731 4.67897 38.1388 4.39978 38.5916C4.80723 38.8604 5.18211 39.1243 5.5718 39.3612C6.00983 39.6271 6.13117 39.9769 5.94866 40.4607C5.78292 40.8975 5.67835 42.7096 5.68131 43.1594C5.68131 43.7181 5.66651 44.2999 5.51261 44.8286C5.35871 45.3574 5.54122 45.6462 5.94965 45.7622C6.65404 45.9621 7.38409 46.149 8.11019 46.182C9.09081 46.225 10.0833 46.107 11.0629 46.077C12.3395 46.0381 13.5983 46.153 14.7723 46.7107C15.9256 47.2585 16.701 48.1311 16.923 49.4375C17.0088 49.9372 16.7454 50.401 16.3311 50.496C15.9167 50.5909 15.5024 50.296 15.4195 49.7383C15.2784 48.7908 14.6707 48.295 13.8479 48.0031C12.7627 47.6163 11.6282 47.5553 10.4937 47.6603C9.07898 47.7902 7.66131 47.8692 6.27915 47.4894C5.69543 47.3286 5.14458 47.0639 4.65234 46.7077C3.98247 46.215 3.80588 45.4783 4.017 44.6567C4.10283 44.3199 4.2301 43.973 4.21431 43.6362C4.19853 43.2993 4.09888 42.9365 3.90256 42.6966C3.61942 42.3488 3.57404 42.0309 3.724 41.6441C3.75359 41.5672 3.79108 41.4932 3.82758 41.4182C4.32579 40.3807 4.32579 40.3807 3.36095 39.698C2.56382 39.1303 2.51745 38.8984 3.03736 38.0708C3.2544 37.724 3.47933 37.3811 3.73386 36.9843L2.00839 36.2477C1.85745 36.1827 1.70355 36.1237 1.55754 36.0478C0.96561 35.7479 0.833413 35.472 1.16983 34.8933C1.82292 33.7838 2.53521 32.7013 3.2327 31.6149C3.64409 30.9742 4.07619 30.3465 4.49745 29.7158C4.85063 29.185 4.84471 28.6693 4.57637 28.0745C4.36128 27.6136 4.25586 27.1079 4.26857 26.5982C4.41063 24.0204 4.8161 21.4906 5.6083 19.0198C6.63628 15.8113 8.74848 13.6933 11.7999 12.4939C12.9285 12.0511 14.1123 11.7542 15.2627 11.3644C15.5019 11.2867 15.7123 11.1376 15.8664 10.9366C18.4591 7.15141 21.9929 5.2533 26.5724 5.50918C31.6749 5.79705 36.2741 9.98707 37.1206 15.0797C37.605 17.9943 37.2854 20.777 35.6911 23.3268C35.6116 23.468 35.5771 23.6307 35.5924 23.7926C36.0936 29.0271 35.0449 33.9038 32.3191 38.3977C32.0872 38.7805 31.8988 39.1913 31.6443 39.5571C30.3055 41.4832 29.8389 43.6552 29.8182 45.9651C29.8083 47.0956 29.8123 48.226 29.8182 49.3565C29.8182 49.9712 29.5676 50.34 29.1079 50.367C28.6481 50.394 28.3186 50.0252 28.288 49.4385C28.1615 47.2455 28.2517 45.0453 28.5574 42.8706C28.7399 41.6031 29.3417 40.4827 29.9652 39.3852C31.0829 37.4281 32.2668 35.513 33.0373 33.375C33.9548 30.8252 34.3001 28.1915 34.1856 25.4888C34.1856 25.4258 34.1669 25.3628 34.158 25.2998L34.0288 25.2219ZM25.8306 29.3199C26.8832 29.3199 27.9358 29.3099 28.9875 29.3259C29.2667 29.3309 29.3693 29.226 29.4808 28.9731C29.7708 28.3264 30.0303 27.6347 30.4673 27.091C31.2203 26.1474 32.0379 25.2586 32.914 24.4313C35.3912 22.0814 36.2613 19.2097 35.8568 15.8493C35.1584 10.052 29.3989 5.899 23.7677 7.25936C19.6005 8.26588 16.8984 10.9466 15.9937 15.1736C15.1127 19.2937 16.4751 22.741 19.7426 25.3688C20.9264 26.3214 21.7699 27.4878 22.2089 28.9451C22.2987 29.24 22.4329 29.3279 22.7259 29.3239C23.7588 29.3129 24.7947 29.3219 25.8306 29.3229V29.3199ZM29.1059 33.3181V31.285H22.5236V33.3261L29.1059 33.3181Z" fill="#00AEEF" stroke="#00AEEF"/>
<path d="M9.29562 24.537C9.24038 22.9577 9.4515 21.4255 10.1737 20.0001C10.2594 19.8026 10.3691 19.6166 10.5002 19.4464C10.7833 19.1246 11.1484 19.0416 11.5203 19.2705C11.8922 19.4994 11.985 19.8832 11.7876 20.226C10.7646 22.0152 10.7557 23.9633 10.8396 25.9333C10.8623 26.4531 10.6028 26.742 10.1371 26.756C9.65473 26.7709 9.32423 26.4831 9.30056 25.9803C9.27984 25.5005 9.29562 25.0178 9.29562 24.537Z" fill="#00AEEF" stroke="#00AEEF"/>
<path d="M26.5925 2.54964C26.5925 2.83051 26.6133 3.11337 26.5876 3.39124C26.5711 3.58542 26.4817 3.76579 26.3379 3.89521C26.194 4.02464 26.0067 4.09328 25.8144 4.08701C25.6222 4.08073 25.4396 4.00002 25.3043 3.86148C25.169 3.72294 25.0912 3.53712 25.0871 3.34226C25.0664 2.81351 25.0683 2.28376 25.0871 1.75501C25.1019 1.27624 25.3751 1.01136 25.8201 1.00037C26.2818 0.989374 26.5531 1.22426 26.5935 1.70704C26.6172 1.9859 26.5935 2.26877 26.5935 2.54964H26.5925Z" fill="#00AEEF" stroke="#00AEEF"/>
<path d="M31.2866 5.1867C30.6236 5.1707 30.2497 4.66594 30.4332 4.13419C30.6171 3.62276 30.8343 3.12424 31.0833 2.6419C31.1251 2.55567 31.1835 2.47876 31.255 2.41568C31.3265 2.3526 31.4097 2.30462 31.4998 2.27455C31.5898 2.24448 31.6849 2.23293 31.7794 2.24057C31.8739 2.24821 31.9659 2.27489 32.0501 2.31905C32.431 2.50396 32.575 2.8438 32.4379 3.22662C32.2444 3.77049 32.0112 4.29904 31.7404 4.80788C31.6417 4.99879 31.3892 5.10474 31.2866 5.1867Z" fill="#00AEEF" stroke="#00AEEF"/>
<path d="M37.5082 6.28918C37.4697 6.4691 37.4766 6.55506 37.4382 6.59504C36.9212 7.13678 36.4329 7.71751 35.8597 8.19429C35.5914 8.41418 35.2253 8.18829 35.0083 7.89443C34.7913 7.60057 34.7913 7.29471 35.0409 7.03283C35.4256 6.62303 35.7975 6.19023 36.2366 5.84839C36.4279 5.70046 36.8078 5.66248 37.0396 5.74844C37.2527 5.8244 37.3829 6.13426 37.5082 6.28918Z" fill="#00AEEF" stroke="#00AEEF"/>
<path d="M16.8459 7.45386C16.7078 7.61778 16.5717 7.89765 16.3526 7.9966C16.1553 8.08756 15.7893 8.07956 15.6305 7.94963C15.1643 7.55553 14.7332 7.12073 14.3421 6.65024C14.1033 6.36937 14.1596 6.02254 14.4091 5.74267C14.6587 5.4628 15.0169 5.34286 15.2911 5.57875C15.8031 6.01054 16.253 6.5203 16.7147 7.01107C16.7867 7.08803 16.7838 7.22997 16.8459 7.45386Z" fill="#00AEEF" stroke="#00AEEF"/>
<path d="M20.0491 2.21489C20.1566 2.31484 20.4102 2.45977 20.5315 2.67967C20.7779 3.14709 20.9957 3.62944 21.1836 4.12399C21.3444 4.5238 21.2241 4.85764 20.8472 5.04655C20.4704 5.23546 20.1221 5.10852 19.9347 4.7317C19.67 4.21766 19.4393 3.68641 19.2441 3.14145C19.0734 2.63669 19.4 2.20989 20.0491 2.21489Z" fill="#00AEEF" stroke="#00AEEF"/>
<path d="M24.2121 42.0035C23.4001 42.0175 23.0726 41.7736 23.0993 41.1899C23.1259 40.6061 23.4396 40.4412 24.4054 40.4582C25.0704 40.4702 25.3792 40.7141 25.3762 41.2368C25.3762 41.6606 25.1572 41.9215 24.7497 41.9975C24.571 42.0155 24.3911 42.0175 24.2121 42.0035V42.0035Z" fill="#00AEEF" stroke="#00AEEF"/>
<path d="M13.4899 42.0263C13.3106 42.0278 13.1315 42.0151 12.9542 41.9883C12.5674 41.9024 12.3682 41.6305 12.3711 41.2407C12.3741 40.8509 12.5507 40.559 12.9522 40.499C13.2592 40.4574 13.5695 40.4467 13.8786 40.467C14.3906 40.495 14.651 40.7669 14.651 41.2367C14.651 41.7065 14.3669 41.9913 13.8332 42.0163C13.7197 42.0163 13.6053 42.0163 13.4909 42.0163L13.4899 42.0263Z" fill="#00AEEF" stroke="#00AEEF"/>
<path d="M18.8761 42.0238C18.6967 42.0279 18.5173 42.0179 18.3394 41.9938C17.928 41.9109 17.7288 41.634 17.7386 41.2152C17.7475 40.8154 17.9359 40.5425 18.3375 40.4925C18.6612 40.4527 18.9881 40.4464 19.3132 40.4735C19.766 40.5105 20.0373 40.8344 20.0245 41.2612C20.0116 41.688 19.7344 41.9728 19.2688 42.0118C19.1385 42.0228 19.0073 42.0118 18.8741 42.0118L18.8761 42.0238Z" fill="#00AEEF" stroke="#00AEEF"/>
<path d="M26.7476 17.783C25.7117 17.4721 24.7262 17.1723 23.7376 16.8834C22.8882 16.6325 22.7008 15.9838 23.3036 15.3221C24.2605 14.2693 25.2234 13.2235 26.1922 12.1846C26.5868 11.7568 27.0071 11.7168 27.3543 12.0497C27.7016 12.3825 27.672 12.8093 27.2853 13.2331C26.575 14.0117 25.8577 14.7814 25.0872 15.616C26.1724 15.9518 27.1866 16.2627 28.1968 16.5775C29.0009 16.8274 29.1637 17.3941 28.5974 18.0368C27.3405 19.4632 26.0698 20.8775 24.812 22.3018C24.5506 22.5967 24.2645 22.7856 23.862 22.6557C23.3144 22.4777 23.1783 21.856 23.6005 21.3703C24.521 20.3088 25.4582 19.2613 26.3885 18.2078C26.496 18.0808 26.6006 17.9549 26.7476 17.783Z" fill="#00AEEF" stroke="#00AEEF"/>
</svg>
