<svg width="170" height="123" viewBox="0 0 170 123" fill="none" xmlns="http://www.w3.org/2000/svg">
<path opacity="0.5" d="M1.32821 0.668676C0.806517 0.487411 0.236659 0.763382 0.0553945 1.28507C-0.12587 1.80676 0.150101 2.37662 0.671792 2.55789L1.32821 0.668676ZM77.6688 68.5673L77.2837 67.6444L77.6688 68.5673ZM107.962 39.5772L107.428 40.4225L107.962 39.5772ZM168.556 122.274L169.894 110.805L159.293 115.38L168.556 122.274ZM0.671792 2.55789C2.27121 3.11361 3.91573 3.69613 5.59762 4.30357L6.27701 2.4225C4.5876 1.81234 2.93542 1.22711 1.32821 0.668676L0.671792 2.55789ZM15.4133 7.97575C18.6021 9.20961 21.8627 10.511 25.1516 11.8695L25.9151 10.0209C22.6118 8.65651 19.3373 7.34956 16.135 6.11051L15.4133 7.97575ZM34.7949 15.9884C37.9976 17.4038 41.1867 18.8631 44.3229 20.3567L45.1828 18.551C42.0282 17.0486 38.8218 15.5815 35.6034 14.1591L34.7949 15.9884ZM53.7009 25.0185C56.8782 26.671 59.9486 28.3507 62.865 30.0461L63.8701 28.317C60.9231 26.6039 57.8249 24.9091 54.6238 23.2441L53.7009 25.0185ZM71.7239 35.5847C74.8163 37.6831 77.5939 39.7808 79.9744 41.8562L81.2887 40.3487C78.8334 38.208 75.9886 36.0615 72.847 33.9297L71.7239 35.5847ZM86.8288 49.4178C88.9434 52.7324 89.5617 55.7523 88.5899 58.4865L90.4744 59.1563C91.7272 55.6317 90.8202 51.9556 88.5148 48.3421L86.8288 49.4178ZM81.929 65.3631C80.5921 66.1459 79.0486 66.9079 77.2837 67.6444L78.0539 69.4901C79.8874 68.725 81.5131 67.9243 82.9396 67.089L81.929 65.3631ZM77.2837 67.6444C75.5054 68.3865 73.8286 69.005 72.2504 69.5095L72.8594 71.4145C74.4973 70.8909 76.2281 70.2521 78.0539 69.4901L77.2837 67.6444ZM61.9308 71.3044C57.549 71.2207 54.7603 69.696 53.1813 67.4669L51.5493 68.6229C53.5808 71.4909 57.0396 73.2113 61.8926 73.3041L61.9308 71.3044ZM51.8303 57.7933C52.4614 54.7128 53.87 51.4059 55.975 48.2346L54.3086 47.1286C52.0826 50.4823 50.5607 54.0254 49.871 57.392L51.8303 57.7933ZM63.0549 40.4618C65.7024 38.3126 68.7449 36.482 72.1253 35.1634L71.3985 33.3002C67.8127 34.6988 64.5918 36.638 61.7944 38.9091L63.0549 40.4618ZM82.3825 32.9679C85.6759 32.8007 89.1766 33.1102 92.8543 34.0136L93.3313 32.0713C89.4688 31.1225 85.7733 30.7932 82.2811 30.9705L82.3825 32.9679ZM102.792 37.7753C104.315 38.5523 105.861 39.4324 107.428 40.4225L108.496 38.7318C106.88 37.7102 105.28 36.7996 103.701 35.9937L102.792 37.7753ZM107.428 40.4225C108.914 41.3615 110.361 42.3149 111.769 43.2814L112.901 41.6323C111.471 40.6516 110.004 39.6842 108.496 38.7318L107.428 40.4225ZM120.103 49.4887C122.873 51.7274 125.471 54.0139 127.909 56.3315L129.287 54.882C126.811 52.5281 124.173 50.2061 121.359 47.9331L120.103 49.4887ZM135.13 63.7799C137.508 66.4421 139.702 69.1217 141.728 71.7951L143.322 70.5871C141.264 67.8726 139.037 65.1513 136.621 62.4474L135.13 63.7799ZM147.672 80.313C149.62 83.3479 151.372 86.3412 152.956 89.2567L154.714 88.3018C153.108 85.3473 151.331 82.3118 149.355 79.2327L147.672 80.313ZM157.612 98.5462C159.183 101.945 160.537 105.157 161.73 108.112L163.584 107.363C162.383 104.387 161.016 101.143 159.427 97.7069L157.612 98.5462Z" fill="white"/>
</svg>
