<svg width="162" height="143" viewBox="0 0 162 143" fill="none" xmlns="http://www.w3.org/2000/svg">
<path opacity="0.5" d="M160.571 0.0964706C161.07 -0.140198 161.667 0.0724683 161.904 0.571474C162.14 1.07048 161.928 1.66686 161.429 1.90353L160.571 0.0964706ZM90.0432 77.9519L90.323 76.9918L90.0432 77.9519ZM55.6821 51.8087L56.3043 52.5915L55.6821 51.8087ZM3 143L0.417606 131.745L11.4555 135.136L3 143ZM161.429 1.90353C159.854 2.65047 158.236 3.42977 156.582 4.23867L155.703 2.44214C157.364 1.62974 158.989 0.846931 160.571 0.0964706L161.429 1.90353ZM146.947 9.08925C143.821 10.7069 140.629 12.4013 137.414 14.1572L136.456 12.402C139.684 10.6387 142.889 8.93716 146.027 7.31297L146.947 9.08925ZM128.004 19.4444C124.884 21.2488 121.782 23.0965 118.739 24.9732L117.689 23.2709C120.75 21.3834 123.868 19.5261 127.003 17.7131L128.004 19.4444ZM109.658 30.785C106.59 32.829 103.634 34.8886 100.837 36.9469L99.6514 35.3361C102.477 33.2568 105.459 31.1793 108.55 29.1205L109.658 30.785ZM92.3836 43.5961C89.4495 46.087 86.8377 48.5419 84.6301 50.9296L83.1616 49.5718C85.4365 47.1114 88.1099 44.6008 91.0892 42.0715L92.3836 43.5961ZM78.4477 59.4305C76.6472 63.0641 76.3539 66.2295 77.673 68.9227L75.8769 69.8024C74.1859 66.35 74.697 62.4952 76.6556 58.5425L78.4477 59.4305ZM85.3042 75.192C86.7638 75.8388 88.4318 76.4408 90.323 76.9918L89.7634 78.912C87.8015 78.3403 86.0478 77.7091 84.494 77.0206L85.3042 75.192ZM90.323 76.9918C91.8938 77.4496 93.3848 77.8297 94.7981 78.1375L94.3726 80.0917C92.9107 79.7733 91.3749 79.3816 89.7634 78.912L90.323 76.9918ZM103.805 79.175C107.519 79.1239 110.265 78.3256 112.201 77.0749L113.286 78.7548C110.95 80.2644 107.806 81.1202 103.832 81.1748L103.805 79.175ZM116.184 70.0733C116.369 67.5042 115.736 64.5559 114.349 61.5313L116.166 60.6973C117.655 63.9413 118.394 67.2287 118.179 70.2168L116.184 70.0733ZM109.376 54.0396C107.446 51.8672 105.153 49.8362 102.556 48.0869L103.673 46.4281C106.412 48.2725 108.831 50.4151 110.871 52.7113L109.376 54.0396ZM94.49 44.0236C91.7247 43.0506 88.764 42.4033 85.6473 42.1781L85.7914 40.1833C89.0931 40.4218 92.2283 41.1076 95.1538 42.137L94.49 44.0236ZM76.6466 42.7095C73.8454 43.238 70.9552 44.1203 67.9988 45.4153L67.1964 43.5833C70.2866 42.2297 73.3213 41.3016 76.2758 40.7442L76.6466 42.7095ZM60.021 49.8565C58.7893 50.6911 57.5499 51.6015 56.3043 52.5915L55.0599 51.0258C56.3439 50.0053 57.6241 49.0648 58.8991 48.2008L60.021 49.8565ZM56.3043 52.5915C54.8902 53.7154 53.518 54.8497 52.1861 55.9929L50.8834 54.4753C52.2344 53.3157 53.6261 52.1654 55.0599 51.0258L56.3043 52.5915ZM44.3594 63.2566C41.7759 65.8507 39.3749 68.4739 37.1412 71.1108L35.6151 69.8181C37.8829 67.141 40.3202 64.4781 42.9423 61.8453L44.3594 63.2566ZM30.5883 79.5189C28.4527 82.5025 26.5089 85.4831 24.7357 88.4386L23.0207 87.4096C24.8205 84.4099 26.7937 81.3841 28.962 78.3548L30.5883 79.5189ZM19.6095 97.7998C17.9567 101.117 16.5002 104.37 15.2072 107.524L13.3567 106.766C14.6666 103.57 16.143 100.272 17.8193 96.9079L19.6095 97.7998ZM11.4901 117.532C10.2652 121.179 9.24226 124.612 8.3554 127.764L6.43015 127.222C7.32306 124.049 8.35575 120.583 9.59414 116.895L11.4901 117.532Z" fill="white"/>
</svg>
