<svg width="24" height="32" viewBox="0 0 24 32" fill="none" xmlns="http://www.w3.org/2000/svg">
<g clip-path="url(#clip0_1_168)">
<path d="M21 4H17.6326C16.806 1.67494 14.6086 0 12 0C9.39137 0 7.194 1.67494 6.36744 4H3C1.34375 4 0 5.34275 0 7V29C0 30.6572 1.34375 32 3 32H21C22.6562 32 24 30.6572 24 29V7C24 5.34275 22.6562 4 21 4ZM12 4C13.1046 4 14 4.89538 14 6C14 7.1045 13.1046 8 12 8C10.8954 8 10 7.1045 10 6C10 4.89538 10.8954 4 12 4ZM6 24.5C5.17188 24.5 4.5 23.8281 4.5 23C4.5 22.1719 5.17188 21.5 6 21.5C6.82812 21.5 7.5 22.1719 7.5 23C7.5 23.8281 6.82812 24.5 6 24.5ZM7 18C6.74412 18 6.48825 17.9024 6.293 17.707L4.293 15.707C3.90238 15.3164 3.90238 14.6836 4.293 14.293C4.68363 13.9024 5.31644 13.9024 5.707 14.293L7 15.5859L10.293 12.293C10.6836 11.9024 11.3164 11.9024 11.707 12.293C12.0976 12.6836 12.0976 13.3164 11.707 13.707L7.707 17.707C7.51175 17.9024 7.25588 18 7 18ZM19 24H11C10.4499 24 10 23.5499 10 23C10 22.4499 10.4499 22 11 22H19C19.5501 22 20 22.4499 20 23C20 23.5499 19.5501 24 19 24ZM19 18H13C12.4499 18 12 17.5499 12 17C12 16.4499 12.4499 16 13 16H19C19.5501 16 20 16.4499 20 17C20 17.5499 19.5501 18 19 18Z" fill="#F58D2C"/>
</g>
<defs>
<clipPath id="clip0_1_168">
<rect width="24" height="32" fill="white"/>
</clipPath>
</defs>
</svg>
