  <svg xmlns="http://www.w3.org/2000/svg" width="18" height="18" viewBox="0 0 18 18" fill="none">
                  <path
                    d="M8.99844 13.5L9.89844 11.7V7.0722C11.4473 6.6699 12.5984 5.2722 12.5984 3.6C12.5984 1.6146 10.9838 0 8.99844 0C7.01304 0 5.39844 1.6146 5.39844 3.6C5.39844 5.2722 6.54954 6.6699 8.09844 7.0722V11.7L8.99844 13.5ZM7.19844 3.6C7.19844 2.6073 8.00574 1.8 8.99844 1.8C9.99114 1.8 10.7984 2.6073 10.7984 3.6C10.7984 4.5927 9.99114 5.4 8.99844 5.4C8.00574 5.4 7.19844 4.5927 7.19844 3.6Z"
                    fill="#00AEEF"
                  />
                  <path
                    d="M12.8403 7.70402L12.3606 9.43922C14.6925 10.0836 16.2 11.3229 16.2 12.5973C16.2 14.3001 13.2435 16.1973 9 16.1973C4.7565 16.1973 1.8 14.3001 1.8 12.5973C1.8 11.3229 3.3075 10.0836 5.6403 9.43832L5.1606 7.70312C1.9773 8.58333 0 10.458 0 12.5973C0 15.6249 3.9537 17.9973 9 17.9973C14.0463 17.9973 18 15.6249 18 12.5973C18 10.458 16.0227 8.58332 12.8403 7.70402Z"
                    fill="#00AEEF"
                  />
                </svg>