<svg width="19" height="18" viewBox="0 0 19 18" fill="none" xmlns="http://www.w3.org/2000/svg">
<g id="ion:location">
<path id="Vector" d="M9.39522 7.77481C9.9975 7.77481 10.4857 7.28656 10.4857 6.68428C10.4857 6.082 9.9975 5.59375 9.39522 5.59375C8.79293 5.59375 8.30469 6.082 8.30469 6.68428C8.30469 7.28656 8.79293 7.77481 9.39522 7.77481Z" fill="white"/>
<path id="Vector_2" opacity="0.8" d="M9.39795 1.23438C6.3915 1.23438 3.94531 3.5739 3.94531 6.44846C3.94531 7.81741 4.5693 9.63791 5.79989 11.8595C6.78818 13.6432 7.93153 15.2562 8.52621 16.0587C8.6267 16.1959 8.75808 16.3074 8.90972 16.3843C9.06135 16.4611 9.22897 16.5012 9.39897 16.5012C9.56898 16.5012 9.73659 16.4611 9.88823 16.3843C10.0399 16.3074 10.1712 16.1959 10.2717 16.0587C10.8654 15.2562 12.0098 13.6432 12.9981 11.8595C14.2266 9.6386 14.8506 7.8181 14.8506 6.44846C14.8506 3.5739 12.4044 1.23438 9.39795 1.23438ZM9.39795 8.86807C8.96658 8.86807 8.54489 8.74015 8.18622 8.50049C7.82755 8.26084 7.548 7.9202 7.38292 7.52167C7.21784 7.12313 7.17465 6.68459 7.2588 6.26151C7.34296 5.83843 7.55069 5.4498 7.85571 5.14477C8.16074 4.83975 8.54937 4.63202 8.97245 4.54787C9.39553 4.46371 9.83407 4.5069 10.2326 4.67198C10.6311 4.83706 10.9718 5.11661 11.2114 5.47528C11.4511 5.83396 11.579 6.25564 11.579 6.68701C11.5784 7.26527 11.3484 7.81967 10.9395 8.22856C10.5306 8.63745 9.97621 8.86744 9.39795 8.86807Z" fill="black" fill-opacity="0.8"/>
</g>
</svg>
