<svg width="28" height="26" viewBox="0 0 28 26" fill="none" xmlns="http://www.w3.org/2000/svg">
<g clip-path="url(#clip0_2101_89644)">
<path d="M13.7811 1.53516C8.73676 1.53516 4.6305 5.49863 4.63049 10.3675C4.63049 18.9347 13.2652 25.4477 13.2652 25.4477C13.4126 25.5613 13.5956 25.6231 13.7842 25.6231C13.9727 25.6231 14.1557 25.5613 14.3031 25.4477C14.3031 25.4477 22.9379 18.9347 22.9378 10.3675C22.9378 5.49863 18.8254 1.53516 13.7811 1.53516ZM13.7811 3.14158C17.9262 3.14158 21.2735 6.36658 21.2735 10.3675C21.2736 17.3761 14.6985 22.9135 13.7872 23.6635C12.8804 22.9172 6.29479 17.3789 6.2948 10.3675C6.2948 6.36658 9.636 3.14158 13.7811 3.14158Z" fill="#00AEEF"/>
<path d="M13.781 6.35156C11.4325 6.35156 9.51246 8.24631 9.51245 10.5638C9.51244 12.8814 11.4325 14.7823 13.781 14.7823C16.1295 14.7823 18.0559 12.8814 18.0559 10.5638C18.0559 8.24631 16.1295 6.35156 13.781 6.35156ZM13.781 8.03772C15.2063 8.03772 16.3472 9.15734 16.3472 10.5638C16.3472 11.9703 15.2063 13.0962 13.781 13.0962C12.3557 13.0962 11.2211 11.9703 11.2211 10.5638C11.2211 9.15734 12.3557 8.03772 13.781 8.03772Z" fill="#00AEEF"/>
</g>
<defs>
<clipPath id="clip0_2101_89644">
<rect width="26.8508" height="25.2923" fill="white" transform="translate(0.968994 0.332031)"/>
</clipPath>
</defs>
</svg>
