<svg width="64" height="64" viewBox="0 0 64 64" fill="none" xmlns="http://www.w3.org/2000/svg">
<path d="M46.2997 28.7H43.2997V22.3C43.2997 16.1 38.1997 11 31.9997 11C25.7997 11 20.6997 16.1 20.6997 22.3V28.7H17.6997V22.3C17.6997 14.4 24.0997 8 31.9997 8C39.8997 8 46.2997 14.4 46.2997 22.3V28.7Z" fill="white"/>
<path d="M44.7999 55.9001H19.1999C16.5999 55.9001 14.3999 53.7001 14.3999 51.1001V31.9001C14.3999 29.3001 16.5999 27.1001 19.1999 27.1001H44.7999C47.3999 27.1001 49.5999 29.3001 49.5999 31.9001V51.1001C49.5999 53.8001 47.3999 55.9001 44.7999 55.9001ZM19.1999 30.3001C18.2999 30.3001 17.5999 31.0001 17.5999 31.9001V51.1001C17.5999 52.0001 18.2999 52.7001 19.1999 52.7001H44.7999C45.6999 52.7001 46.3999 52.0001 46.3999 51.1001V31.9001C46.3999 31.0001 45.6999 30.3001 44.7999 30.3001H19.1999Z" fill="white"/>
<path d="M35.1998 36.7C35.1998 38.5 33.7998 39.9 31.9998 39.9C30.1998 39.9 28.7998 38.5 28.7998 36.7C28.7998 34.9 30.1998 33.5 31.9998 33.5C33.7998 33.5 35.1998 35 35.1998 36.7Z" fill="white"/>
<path d="M32.8001 36.7002H31.2001L29.6001 46.3002H34.4001L32.8001 36.7002Z" fill="white"/>
</svg>
