<svg width="22" height="17" viewBox="0 0 22 17" fill="none" xmlns="http://www.w3.org/2000/svg">
<g id="Group 1466">
<path id="Vector" d="M14 4.75V2.875C14 2.37772 13.7986 1.90081 13.4401 1.54917C13.0815 1.19754 12.5953 1 12.0882 1H2.91176C2.40473 1 1.91847 1.19754 1.55994 1.54917C1.20142 1.90081 1 2.37772 1 2.875V14.125C1 14.6223 1.20142 15.0992 1.55994 15.4508C1.91847 15.8025 2.40473 16 2.91176 16H12.0882C12.5953 16 13.0815 15.8025 13.4401 15.4508C13.7986 15.0992 14 14.6223 14 14.125V12.25" stroke="#ED1C24" stroke-width="1.5" stroke-linecap="round" stroke-linejoin="round"/>
<path id="Vector_2" d="M17 4L21 8.5L17 13" stroke="#ED1C24" stroke-width="1.5" stroke-linecap="round" stroke-linejoin="round"/>
<path id="Vector_3" d="M7.75 8.5H20.75" stroke="#ED1C24" stroke-width="1.5" stroke-linecap="round" stroke-linejoin="round"/>
</g>
</svg>
