<svg width="52" height="52" viewBox="0 0 52 52" fill="none" xmlns="http://www.w3.org/2000/svg">
<path d="M46.5837 17.3332H36.8337V14.0832C36.8319 12.6471 36.2607 11.2704 35.2453 10.2549C34.2298 9.23946 32.8531 8.66822 31.417 8.6665H7.58366C6.1476 8.66822 4.77085 9.23946 3.7554 10.2549C2.73995 11.2704 2.16871 12.6471 2.16699 14.0832V33.5832C2.16918 34.8475 2.61359 36.0712 3.42322 37.0424C4.23284 38.0135 5.35667 38.6708 6.59999 38.9004C6.8272 40.1363 7.47751 41.2546 8.4393 42.0634C9.4011 42.8721 10.6144 43.3209 11.871 43.3327C13.1276 43.3444 14.3491 42.9184 15.3258 42.1278C16.3026 41.3372 16.9737 40.2313 17.224 38.9998H30.4433C30.6932 40.2229 31.3579 41.3221 32.3249 42.1116C33.2919 42.901 34.502 43.3322 35.7503 43.3322C36.9987 43.3322 38.2087 42.901 39.1758 42.1116C40.1428 41.3221 40.8075 40.2229 41.0574 38.9998H46.5837C47.4453 38.9989 48.2714 38.6561 48.8807 38.0469C49.49 37.4376 49.8327 36.6115 49.8337 35.7498V20.5832C49.8327 19.7215 49.49 18.8954 48.8807 18.2861C48.2714 17.6769 47.4453 17.3341 46.5837 17.3332ZM46.5837 19.4998C46.871 19.4998 47.1465 19.614 47.3497 19.8171C47.5529 20.0203 47.667 20.2959 47.667 20.5832V25.9998H44.417C42.594 25.9976 40.8327 25.3397 39.4546 24.1463C38.0765 22.953 37.1736 21.3038 36.9108 19.4998H46.5837ZM4.33366 33.5832V14.0832C4.33463 13.2215 4.67736 12.3954 5.28664 11.7862C5.89592 11.1769 6.722 10.8341 7.58366 10.8332H31.417C32.2786 10.8341 33.1047 11.1769 33.714 11.7862C34.3233 12.3954 34.666 13.2215 34.667 14.0832V32.6093C33.6272 32.8235 32.673 33.3377 31.9223 34.0884C31.1716 34.8391 30.6574 35.7934 30.4433 36.8332H17.224C16.9787 35.6232 16.3268 34.5336 15.3767 33.7453C14.4265 32.957 13.2353 32.5175 12.0008 32.4998C10.7664 32.4821 9.56303 32.8872 8.59065 33.6479C7.61827 34.4086 6.9354 35.4791 6.65546 36.6815C5.9868 36.4833 5.39983 36.0748 4.9816 35.5167C4.56337 34.9586 4.33616 34.2806 4.33366 33.5832ZM11.917 41.1665C11.2742 41.1665 10.6458 40.9759 10.1114 40.6188C9.57693 40.2617 9.16037 39.7541 8.91438 39.1602C8.6684 38.5664 8.60404 37.9129 8.72944 37.2825C8.85484 36.652 9.16437 36.0729 9.6189 35.6184C10.0734 35.1639 10.6525 34.8544 11.2829 34.7289C11.9134 34.6035 12.5669 34.6679 13.1607 34.9139C13.7546 35.1599 14.2622 35.5764 14.6193 36.1109C14.9764 36.6454 15.167 37.2737 15.167 37.9165C15.166 38.7782 14.8233 39.6042 14.214 40.2135C13.6047 40.8228 12.7786 41.1655 11.917 41.1665ZM35.7503 41.1665C35.1075 41.1665 34.4792 40.9759 33.9447 40.6188C33.4103 40.2617 32.9937 39.7541 32.7477 39.1602C32.5017 38.5664 32.4374 37.9129 32.5628 37.2825C32.6882 36.652 32.9977 36.0729 33.4522 35.6184C33.9067 35.1639 34.4858 34.8544 35.1163 34.7289C35.7467 34.6035 36.4002 34.6679 36.994 34.9139C37.5879 35.1599 38.0955 35.5764 38.4526 36.1109C38.8097 36.6454 39.0003 37.2737 39.0003 37.9165C38.9994 38.7782 38.6566 39.6042 38.0473 40.2135C37.4381 40.8228 36.612 41.1655 35.7503 41.1665ZM46.5837 36.8332H41.0574C40.8432 35.7934 40.329 34.8391 39.5783 34.0884C38.8277 33.3377 37.8735 32.8235 36.8337 32.6093V24.4691C37.7375 25.6169 38.889 26.5456 40.2021 27.1858C41.5152 27.8261 42.9561 28.1613 44.417 28.1665H47.667V35.7498C47.6666 36.037 47.5524 36.3124 47.3493 36.5155C47.1462 36.7186 46.8709 36.8328 46.5837 36.8332Z" fill="white"/>
</svg>
