<svg width="36" height="44" viewBox="0 0 36 44" fill="none" xmlns="http://www.w3.org/2000/svg">
<path d="M0.015625 21.9399V1.11553C0.015625 0.20318 0.210067 0.00695686 1.11469 0.00695686C9.24732 0.00695686 17.3803 0.00512299 25.5135 0.00145527C25.7421 -0.0082502 25.9701 0.0306775 26.1822 0.115615C26.3943 0.200553 26.5856 0.329527 26.7431 0.493847C29.5209 3.26481 32.3091 6.02661 35.1078 8.77924C35.2416 8.90296 35.3469 9.05368 35.4167 9.22121C35.4865 9.38873 35.5192 9.56916 35.5125 9.75027C35.5051 20.8268 35.5029 31.9027 35.506 42.978C35.506 43.7006 35.2625 43.9463 34.543 43.9463H0.994318C0.253585 43.9463 0.0165509 43.7051 0.015625 42.9478V21.9399ZM1.53135 1.48505V42.4554H33.9967V10.2619H26.1616C25.3811 10.2619 25.1533 10.0308 25.1533 9.24687C25.1533 6.82128 25.1533 4.39569 25.1533 1.97011V1.48505H1.53135ZM26.6552 8.76548H32.7449L26.6552 2.73483V8.76548Z" fill="#00AEEF"/>
<path d="M11.148 30.4552C11.8072 29.7611 12.4442 29.0871 13.1174 28.3848L14.1479 29.5263C13.6109 30.06 13.0294 30.6633 12.4183 31.2346C12.1498 31.4849 12.0924 31.6802 12.247 32.0433C13.2387 34.3687 11.9998 37.0672 9.59797 37.8796C9.02175 38.0759 8.41087 38.1526 7.80342 38.1048C7.19596 38.0571 6.60495 37.8859 6.06722 37.602C5.5295 37.3181 5.05658 36.9276 4.67796 36.4547C4.29935 35.9819 4.02314 35.4369 3.86655 34.8537C3.19897 32.4532 4.74617 29.9353 7.22763 29.4227C8.65724 29.1211 9.93871 29.4833 11.148 30.4552ZM9.9813 31.4519C8.8702 30.502 7.23041 30.5441 6.13227 31.5619C5.60042 32.0566 5.27256 32.729 5.21205 33.449C5.15153 34.1691 5.36265 34.8859 5.80462 35.4608C6.24658 36.0358 6.88803 36.4281 7.60505 36.562C8.32207 36.696 9.06377 36.562 9.68686 36.186C10.8989 35.4525 11.435 33.935 10.8656 32.7769C10.7498 32.8841 10.6369 32.9823 10.5313 33.0877C9.93686 33.6837 9.34304 34.2806 8.74984 34.8785C8.45725 35.1728 8.08132 35.3149 7.76281 35.0325C7.20726 34.542 6.72486 33.9762 6.23227 33.4636L7.23041 32.4211L8.06373 33.3683L9.9813 31.4519Z" fill="#00AEEF"/>
<path d="M11.1574 9.94993L13.1212 7.88867L14.1323 9.03025C13.5768 9.58041 12.9749 10.2003 12.3444 10.7972C12.124 11.0062 12.0805 11.164 12.2101 11.4565C12.4805 12.0675 12.6068 12.7314 12.5794 13.398C12.552 14.0646 12.3717 14.7162 12.0522 15.3034C11.7326 15.8907 11.2822 16.3982 10.7351 16.7874C10.188 17.1766 9.55854 17.4373 8.89454 17.5497C8.23053 17.6621 7.54939 17.6233 6.90279 17.4362C6.25619 17.2491 5.66111 16.9186 5.16269 16.4698C4.66428 16.021 4.27562 15.4657 4.0262 14.846C3.77679 14.2264 3.67316 13.5585 3.72319 12.8933C3.86207 11.2511 4.69447 10.0095 6.1889 9.28057C7.7 8.54703 9.19628 8.67173 10.6194 9.56849C10.775 9.66385 10.9185 9.77938 11.1574 9.94993ZM6.20835 12.9941L7.25741 11.9012L8.1611 12.9208C8.50369 12.5632 8.7935 12.2505 9.09535 11.9488C9.3972 11.6472 9.72497 11.3382 10.0398 11.0319C9.02128 10.0233 7.33889 10.0233 6.21668 10.9741C5.64713 11.4594 5.28583 12.1415 5.20636 12.8814C5.12689 13.6213 5.33523 14.3633 5.78894 14.9564C6.24266 15.5495 6.90762 15.949 7.64838 16.0735C8.38914 16.1981 9.14997 16.0382 9.7759 15.6267C11.0546 14.7941 11.3916 13.0886 10.8435 12.2789C10.7324 12.3844 10.6203 12.4852 10.5139 12.5916C9.91942 13.1876 9.33146 13.79 8.73054 14.3796C8.39073 14.7134 8.00647 14.7767 7.70092 14.4961C7.175 14.0147 6.69075 13.482 6.20835 12.9941Z" fill="#00AEEF"/>
<path d="M8.1364 27.8365C7.25824 27.8354 6.40015 27.5764 5.67068 27.0922C4.94121 26.608 4.37314 25.9205 4.03836 25.1165C3.70357 24.3126 3.61711 23.4283 3.78992 22.5757C3.96272 21.7231 4.38702 20.9403 5.00914 20.3266C5.63125 19.7128 6.42322 19.2956 7.28485 19.1277C8.14648 18.9597 9.03905 19.0487 9.84962 19.3832C10.6602 19.7178 11.3523 20.2829 11.8385 21.0071C12.3247 21.7313 12.583 22.5821 12.5808 23.4517C12.5764 24.6161 12.1062 25.7314 11.2732 26.5532C10.4402 27.375 9.31224 27.8365 8.1364 27.8365V27.8365ZM8.14566 20.5157C7.56023 20.5157 6.98801 20.6879 6.5016 21.0106C6.01519 21.3332 5.63653 21.7916 5.41366 22.3277C5.19078 22.8638 5.13375 23.4534 5.24979 24.0216C5.36584 24.5898 5.64973 25.1111 6.06544 25.5193C6.48116 25.9275 7.00995 26.2042 7.58472 26.3143C8.1595 26.4244 8.75434 26.3629 9.29376 26.1376C9.83319 25.9124 10.2929 25.5335 10.6145 25.0491C10.9361 24.5647 11.1052 23.9966 11.1003 23.4168C11.0915 22.6458 10.7766 21.9092 10.2237 21.3663C9.67079 20.8234 8.92429 20.5178 8.14566 20.5157V20.5157Z" fill="#00AEEF"/>
<path d="M15.5586 15.357V13.9395H28.8159V15.3534L15.5586 15.357Z" fill="#00AEEF"/>
<path d="M28.8345 24.208V25.621H15.5781V24.208H28.8345Z" fill="#00AEEF"/>
<path d="M28.8335 34.4561V35.869H15.5781V34.4561H28.8335Z" fill="#00AEEF"/>
<path d="M17.0047 2.96582V4.37973H4.48821V2.96582H17.0047Z" fill="#00AEEF"/>
<path d="M15.5586 12.4267V11.0137H24.3789V12.4267H15.5586Z" fill="#00AEEF"/>
<path d="M24.3793 22.6941H15.5664V21.2637H24.383L24.3793 22.6941Z" fill="#00AEEF"/>
<path d="M24.3975 31.5273V32.9413H15.5781V31.5273H24.3975Z" fill="#00AEEF"/>
<path d="M23.6592 2.96582V4.37881H18.5352V2.96582H23.6592Z" fill="#00AEEF"/>
</svg>
