<svg width="66" height="65" viewBox="0 0 66 65" fill="none" xmlns="http://www.w3.org/2000/svg">
<mask id="path-1-outside-1_2_139" maskUnits="userSpaceOnUse" x="0" y="0" width="65" height="66" fill="black">
<rect fill="white" width="65" height="66"/>
<path d="M32.5093 1C49.8918 1 64.0205 15.129 64 32.5205C63.9777 50.2742 49.4171 64.1157 32.2729 64C15.3744 63.8843 1 50.151 1 32.4571C1 15.1029 15.1473 1 32.5093 1ZM31.99 48.8258V33.0058H16.3144C16.3144 33.1066 16.3144 33.1925 16.3144 33.269C16.3441 35.5745 16.5045 37.8764 16.7947 40.1636C17.1526 43.0185 17.7472 45.8385 18.5724 48.5944C18.5769 48.6313 18.5888 48.6669 18.6075 48.699C18.6261 48.7311 18.6511 48.7591 18.6809 48.7813C18.7106 48.8035 18.7446 48.8194 18.7806 48.828C18.8167 48.8366 18.8542 48.8377 18.8907 48.8314C23.1684 48.8314 27.4498 48.8314 31.7349 48.8314L31.99 48.8258ZM33.0175 33.0039V48.8127C33.0508 48.8188 33.0843 48.8232 33.118 48.8258C37.4801 48.8258 41.8409 48.8258 46.2005 48.8258C46.3383 48.8258 46.3773 48.7661 46.4109 48.656C47.3171 45.6895 47.9404 42.6435 48.2723 39.5589C48.4585 37.7727 48.546 35.9753 48.6651 34.1835C48.6912 33.7916 48.6651 33.3978 48.6651 33.0002L33.0175 33.0039ZM31.99 16.1723C31.9136 16.1723 31.8634 16.1611 31.8038 16.1611C27.4814 16.1611 23.1585 16.1611 18.8349 16.1611C18.6952 16.1611 18.6226 16.1947 18.5836 16.3478C18.4272 16.9226 18.2504 17.4919 18.0977 18.0668C17.4193 20.6627 16.937 23.3063 16.6551 25.9749C16.4491 27.8973 16.3336 29.826 16.3088 31.7609C16.3088 31.8411 16.3088 31.9195 16.3088 31.9942H31.9825L31.99 16.1723ZM33.0175 31.983H48.693V31.7441C48.6588 29.0066 48.4387 26.2747 48.0341 23.5672C47.6672 21.1328 47.1279 18.7277 46.4202 16.3702C46.4157 16.3366 46.4044 16.3043 46.3871 16.2752C46.3698 16.2462 46.3468 16.2209 46.3195 16.201C46.2922 16.1811 46.2611 16.167 46.2282 16.1595C46.1952 16.152 46.1611 16.1513 46.1279 16.1574C41.8341 16.1574 37.5403 16.1574 33.2465 16.1574C33.1683 16.1574 33.0901 16.1574 33.01 16.1686L33.0175 31.983ZM2.99551 33.0021V33.2223C3.017 34.5941 3.14145 35.9624 3.36781 37.3154C4.03468 41.3657 5.5421 45.2304 7.79255 48.6597C7.82783 48.7189 7.87954 48.7664 7.94136 48.7966C8.00319 48.8268 8.07244 48.8382 8.14064 48.8295C11.2071 48.8295 14.2724 48.8295 17.3364 48.8295H17.597C16.0519 43.652 15.3632 38.3774 15.3092 33.0058L2.99551 33.0021ZM49.6833 33.0021C49.6256 38.3793 48.9387 43.652 47.4012 48.8127C47.4793 48.8127 47.537 48.8239 47.5873 48.8239C50.6898 48.8239 53.7922 48.8239 56.8947 48.8239C56.9528 48.8276 57.0107 48.8144 57.0616 48.7859C57.1124 48.7575 57.154 48.7149 57.1814 48.6634C59.9294 44.4799 61.5641 39.661 61.93 34.6651C61.971 34.1163 61.9821 33.5657 62.0082 33.0039L49.6833 33.0021ZM47.3956 16.1593C48.9425 21.3499 49.6294 26.6226 49.6833 31.9755H62.0064C61.9924 30.5292 61.8641 29.0863 61.6229 27.6603C60.9563 23.6263 59.4554 19.7768 57.2168 16.359C57.1808 16.2928 57.1265 16.2383 57.0605 16.2023C56.9945 16.1662 56.9195 16.1499 56.8445 16.1555C53.7879 16.1555 50.7307 16.1555 47.6729 16.1555L47.3956 16.1593ZM17.6007 16.1723C17.5113 16.1723 17.4462 16.1611 17.381 16.1611C14.2947 16.1611 11.2077 16.1611 8.12017 16.1611C8.05422 16.1576 7.98868 16.1734 7.9315 16.2065C7.87433 16.2396 7.82799 16.2887 7.79813 16.3478C6.52998 18.2877 5.49289 20.3699 4.70807 22.5518C3.81202 25.049 3.25844 27.6566 3.06252 30.3032C3.01971 30.8631 3.00854 31.4231 2.98248 31.983H15.3167C15.3744 26.6095 16.0613 21.3443 17.6007 16.1723V16.1723ZM31.9806 61.9749V49.843H18.9838C19.0005 49.9027 19.0098 49.9382 19.021 49.9737C19.7517 52.1585 20.699 54.2644 21.8486 56.2599C22.8512 58.0329 24.1053 59.6506 25.5716 61.0622C25.6851 61.1664 25.8226 61.2408 25.9718 61.2787C27.6319 61.6601 29.3226 61.8924 31.0238 61.973C31.3422 61.988 31.6567 61.9749 31.9806 61.9749ZM33.0138 61.9954H33.2316C35.1806 61.9557 37.1204 61.7162 39.0208 61.2806C39.1694 61.2443 39.3069 61.1719 39.421 61.0697C40.2897 60.2607 41.0754 59.3666 41.7665 58.4007C43.641 55.8156 44.9645 52.9525 45.9995 49.9438C46.0057 49.908 46.0088 49.8718 46.0088 49.8355H33.0175L33.0138 61.9954ZM18.967 15.1477H31.9806V2.98403C31.9211 2.98403 31.8764 2.98403 31.8336 2.98403C29.8508 3.02969 27.8776 3.27544 25.9439 3.71754C25.8231 3.74738 25.7118 3.80706 25.62 3.89112C24.8394 4.61697 24.126 5.41222 23.4886 6.26711C21.7741 8.54604 20.5102 11.0695 19.4957 13.7329C19.3077 14.1902 19.1457 14.6605 18.967 15.1495V15.1477ZM46.0181 15.1477C45.9939 15.0637 45.9808 15.0058 45.9604 14.961C45.2888 12.9686 44.4397 11.0408 43.4232 9.20116C42.3286 7.24699 41.0442 5.43467 39.4005 3.90046C39.3032 3.81114 39.1857 3.74706 39.058 3.71381C37.4491 3.34212 35.811 3.11106 34.1623 3.02323C33.79 3.0027 33.4084 3.02323 33.0156 3.02323V15.1551L46.0181 15.1477ZM8.60229 49.8169C12.5412 55.0915 17.5672 58.6937 23.7585 60.6759C23.7335 60.6138 23.6983 60.5563 23.6542 60.506C23.1163 59.8117 22.5373 59.1398 22.0478 58.4175C20.2701 55.8418 18.9949 53.0178 18.0065 50.0577C17.9946 49.9832 17.9539 49.9164 17.8933 49.8717C17.8327 49.827 17.7571 49.808 17.6826 49.8187C14.7514 49.8187 11.8196 49.8187 8.8871 49.8187L8.60229 49.8169ZM41.2303 60.6423C44.2557 59.7312 47.1087 58.3214 49.6722 56.4708C52.251 54.6295 54.5175 52.384 56.3847 49.8206C56.286 49.8206 56.2339 49.8094 56.1836 49.8094C53.214 49.8094 50.2449 49.8094 47.2764 49.8094C47.1164 49.8094 47.0661 49.8729 47.014 50.0091C46.6417 51.0207 46.2861 52.0417 45.8673 53.0365C44.7653 55.6495 43.3897 58.0908 41.5542 60.2615L41.2303 60.6423ZM8.6116 15.1477C8.71398 15.1477 8.76238 15.1645 8.81264 15.1645C11.791 15.1645 14.7694 15.1645 17.7478 15.1645C17.8967 15.1645 17.9339 15.1029 17.9935 14.9778C18.4551 13.7684 18.887 12.5514 19.4063 11.3588C20.4697 8.84917 21.9139 6.51966 23.6877 4.45292C23.7194 4.4156 23.7436 4.37267 23.7715 4.33347C17.5672 6.29697 12.5412 9.89921 8.6116 15.1477ZM56.3865 15.1645C54.516 12.5957 52.2451 10.3458 49.661 8.50124C47.1039 6.65643 44.2612 5.24644 41.2471 4.32787C41.2869 4.40115 41.3343 4.46997 41.3886 4.53318C41.988 5.32082 42.6246 6.0842 43.1756 6.90543C44.8398 9.38221 46.0479 12.0848 46.9786 14.9069C46.9845 14.9475 46.9984 14.9865 47.0194 15.0217C47.0404 15.0569 47.0681 15.0877 47.1009 15.1121C47.1338 15.1366 47.1712 15.1543 47.2109 15.1642C47.2506 15.1741 47.2918 15.1761 47.3323 15.1701C50.2498 15.1626 53.1662 15.1626 56.0813 15.1701L56.3865 15.1645Z"/>
</mask>
<path d="M32.5093 1C49.8918 1 64.0205 15.129 64 32.5205C63.9777 50.2742 49.4171 64.1157 32.2729 64C15.3744 63.8843 1 50.151 1 32.4571C1 15.1029 15.1473 1 32.5093 1ZM31.99 48.8258V33.0058H16.3144C16.3144 33.1066 16.3144 33.1925 16.3144 33.269C16.3441 35.5745 16.5045 37.8764 16.7947 40.1636C17.1526 43.0185 17.7472 45.8385 18.5724 48.5944C18.5769 48.6313 18.5888 48.6669 18.6075 48.699C18.6261 48.7311 18.6511 48.7591 18.6809 48.7813C18.7106 48.8035 18.7446 48.8194 18.7806 48.828C18.8167 48.8366 18.8542 48.8377 18.8907 48.8314C23.1684 48.8314 27.4498 48.8314 31.7349 48.8314L31.99 48.8258ZM33.0175 33.0039V48.8127C33.0508 48.8188 33.0843 48.8232 33.118 48.8258C37.4801 48.8258 41.8409 48.8258 46.2005 48.8258C46.3383 48.8258 46.3773 48.7661 46.4109 48.656C47.3171 45.6895 47.9404 42.6435 48.2723 39.5589C48.4585 37.7727 48.546 35.9753 48.6651 34.1835C48.6912 33.7916 48.6651 33.3978 48.6651 33.0002L33.0175 33.0039ZM31.99 16.1723C31.9136 16.1723 31.8634 16.1611 31.8038 16.1611C27.4814 16.1611 23.1585 16.1611 18.8349 16.1611C18.6952 16.1611 18.6226 16.1947 18.5836 16.3478C18.4272 16.9226 18.2504 17.4919 18.0977 18.0668C17.4193 20.6627 16.937 23.3063 16.6551 25.9749C16.4491 27.8973 16.3336 29.826 16.3088 31.7609C16.3088 31.8411 16.3088 31.9195 16.3088 31.9942H31.9825L31.99 16.1723ZM33.0175 31.983H48.693V31.7441C48.6588 29.0066 48.4387 26.2747 48.0341 23.5672C47.6672 21.1328 47.1279 18.7277 46.4202 16.3702C46.4157 16.3366 46.4044 16.3043 46.3871 16.2752C46.3698 16.2462 46.3468 16.2209 46.3195 16.201C46.2922 16.1811 46.2611 16.167 46.2282 16.1595C46.1952 16.152 46.1611 16.1513 46.1279 16.1574C41.8341 16.1574 37.5403 16.1574 33.2465 16.1574C33.1683 16.1574 33.0901 16.1574 33.01 16.1686L33.0175 31.983ZM2.99551 33.0021V33.2223C3.017 34.5941 3.14145 35.9624 3.36781 37.3154C4.03468 41.3657 5.5421 45.2304 7.79255 48.6597C7.82783 48.7189 7.87954 48.7664 7.94136 48.7966C8.00319 48.8268 8.07244 48.8382 8.14064 48.8295C11.2071 48.8295 14.2724 48.8295 17.3364 48.8295H17.597C16.0519 43.652 15.3632 38.3774 15.3092 33.0058L2.99551 33.0021ZM49.6833 33.0021C49.6256 38.3793 48.9387 43.652 47.4012 48.8127C47.4793 48.8127 47.537 48.8239 47.5873 48.8239C50.6898 48.8239 53.7922 48.8239 56.8947 48.8239C56.9528 48.8276 57.0107 48.8144 57.0616 48.7859C57.1124 48.7575 57.154 48.7149 57.1814 48.6634C59.9294 44.4799 61.5641 39.661 61.93 34.6651C61.971 34.1163 61.9821 33.5657 62.0082 33.0039L49.6833 33.0021ZM47.3956 16.1593C48.9425 21.3499 49.6294 26.6226 49.6833 31.9755H62.0064C61.9924 30.5292 61.8641 29.0863 61.6229 27.6603C60.9563 23.6263 59.4554 19.7768 57.2168 16.359C57.1808 16.2928 57.1265 16.2383 57.0605 16.2023C56.9945 16.1662 56.9195 16.1499 56.8445 16.1555C53.7879 16.1555 50.7307 16.1555 47.6729 16.1555L47.3956 16.1593ZM17.6007 16.1723C17.5113 16.1723 17.4462 16.1611 17.381 16.1611C14.2947 16.1611 11.2077 16.1611 8.12017 16.1611C8.05422 16.1576 7.98868 16.1734 7.9315 16.2065C7.87433 16.2396 7.82799 16.2887 7.79813 16.3478C6.52998 18.2877 5.49289 20.3699 4.70807 22.5518C3.81202 25.049 3.25844 27.6566 3.06252 30.3032C3.01971 30.8631 3.00854 31.4231 2.98248 31.983H15.3167C15.3744 26.6095 16.0613 21.3443 17.6007 16.1723V16.1723ZM31.9806 61.9749V49.843H18.9838C19.0005 49.9027 19.0098 49.9382 19.021 49.9737C19.7517 52.1585 20.699 54.2644 21.8486 56.2599C22.8512 58.0329 24.1053 59.6506 25.5716 61.0622C25.6851 61.1664 25.8226 61.2408 25.9718 61.2787C27.6319 61.6601 29.3226 61.8924 31.0238 61.973C31.3422 61.988 31.6567 61.9749 31.9806 61.9749ZM33.0138 61.9954H33.2316C35.1806 61.9557 37.1204 61.7162 39.0208 61.2806C39.1694 61.2443 39.3069 61.1719 39.421 61.0697C40.2897 60.2607 41.0754 59.3666 41.7665 58.4007C43.641 55.8156 44.9645 52.9525 45.9995 49.9438C46.0057 49.908 46.0088 49.8718 46.0088 49.8355H33.0175L33.0138 61.9954ZM18.967 15.1477H31.9806V2.98403C31.9211 2.98403 31.8764 2.98403 31.8336 2.98403C29.8508 3.02969 27.8776 3.27544 25.9439 3.71754C25.8231 3.74738 25.7118 3.80706 25.62 3.89112C24.8394 4.61697 24.126 5.41222 23.4886 6.26711C21.7741 8.54604 20.5102 11.0695 19.4957 13.7329C19.3077 14.1902 19.1457 14.6605 18.967 15.1495V15.1477ZM46.0181 15.1477C45.9939 15.0637 45.9808 15.0058 45.9604 14.961C45.2888 12.9686 44.4397 11.0408 43.4232 9.20116C42.3286 7.24699 41.0442 5.43467 39.4005 3.90046C39.3032 3.81114 39.1857 3.74706 39.058 3.71381C37.4491 3.34212 35.811 3.11106 34.1623 3.02323C33.79 3.0027 33.4084 3.02323 33.0156 3.02323V15.1551L46.0181 15.1477ZM8.60229 49.8169C12.5412 55.0915 17.5672 58.6937 23.7585 60.6759C23.7335 60.6138 23.6983 60.5563 23.6542 60.506C23.1163 59.8117 22.5373 59.1398 22.0478 58.4175C20.2701 55.8418 18.9949 53.0178 18.0065 50.0577C17.9946 49.9832 17.9539 49.9164 17.8933 49.8717C17.8327 49.827 17.7571 49.808 17.6826 49.8187C14.7514 49.8187 11.8196 49.8187 8.8871 49.8187L8.60229 49.8169ZM41.2303 60.6423C44.2557 59.7312 47.1087 58.3214 49.6722 56.4708C52.251 54.6295 54.5175 52.384 56.3847 49.8206C56.286 49.8206 56.2339 49.8094 56.1836 49.8094C53.214 49.8094 50.2449 49.8094 47.2764 49.8094C47.1164 49.8094 47.0661 49.8729 47.014 50.0091C46.6417 51.0207 46.2861 52.0417 45.8673 53.0365C44.7653 55.6495 43.3897 58.0908 41.5542 60.2615L41.2303 60.6423ZM8.6116 15.1477C8.71398 15.1477 8.76238 15.1645 8.81264 15.1645C11.791 15.1645 14.7694 15.1645 17.7478 15.1645C17.8967 15.1645 17.9339 15.1029 17.9935 14.9778C18.4551 13.7684 18.887 12.5514 19.4063 11.3588C20.4697 8.84917 21.9139 6.51966 23.6877 4.45292C23.7194 4.4156 23.7436 4.37267 23.7715 4.33347C17.5672 6.29697 12.5412 9.89921 8.6116 15.1477ZM56.3865 15.1645C54.516 12.5957 52.2451 10.3458 49.661 8.50124C47.1039 6.65643 44.2612 5.24644 41.2471 4.32787C41.2869 4.40115 41.3343 4.46997 41.3886 4.53318C41.988 5.32082 42.6246 6.0842 43.1756 6.90543C44.8398 9.38221 46.0479 12.0848 46.9786 14.9069C46.9845 14.9475 46.9984 14.9865 47.0194 15.0217C47.0404 15.0569 47.0681 15.0877 47.1009 15.1121C47.1338 15.1366 47.1712 15.1543 47.2109 15.1642C47.2506 15.1741 47.2918 15.1761 47.3323 15.1701C50.2498 15.1626 53.1662 15.1626 56.0813 15.1701L56.3865 15.1645Z" fill="#606060"/>
<path d="M32.5093 1C49.8918 1 64.0205 15.129 64 32.5205C63.9777 50.2742 49.4171 64.1157 32.2729 64C15.3744 63.8843 1 50.151 1 32.4571C1 15.1029 15.1473 1 32.5093 1ZM31.99 48.8258V33.0058H16.3144C16.3144 33.1066 16.3144 33.1925 16.3144 33.269C16.3441 35.5745 16.5045 37.8764 16.7947 40.1636C17.1526 43.0185 17.7472 45.8385 18.5724 48.5944C18.5769 48.6313 18.5888 48.6669 18.6075 48.699C18.6261 48.7311 18.6511 48.7591 18.6809 48.7813C18.7106 48.8035 18.7446 48.8194 18.7806 48.828C18.8167 48.8366 18.8542 48.8377 18.8907 48.8314C23.1684 48.8314 27.4498 48.8314 31.7349 48.8314L31.99 48.8258ZM33.0175 33.0039V48.8127C33.0508 48.8188 33.0843 48.8232 33.118 48.8258C37.4801 48.8258 41.8409 48.8258 46.2005 48.8258C46.3383 48.8258 46.3773 48.7661 46.4109 48.656C47.3171 45.6895 47.9404 42.6435 48.2723 39.5589C48.4585 37.7727 48.546 35.9753 48.6651 34.1835C48.6912 33.7916 48.6651 33.3978 48.6651 33.0002L33.0175 33.0039ZM31.99 16.1723C31.9136 16.1723 31.8634 16.1611 31.8038 16.1611C27.4814 16.1611 23.1585 16.1611 18.8349 16.1611C18.6952 16.1611 18.6226 16.1947 18.5836 16.3478C18.4272 16.9226 18.2504 17.4919 18.0977 18.0668C17.4193 20.6627 16.937 23.3063 16.6551 25.9749C16.4491 27.8973 16.3336 29.826 16.3088 31.7609C16.3088 31.8411 16.3088 31.9195 16.3088 31.9942H31.9825L31.99 16.1723ZM33.0175 31.983H48.693V31.7441C48.6588 29.0066 48.4387 26.2747 48.0341 23.5672C47.6672 21.1328 47.1279 18.7277 46.4202 16.3702C46.4157 16.3366 46.4044 16.3043 46.3871 16.2752C46.3698 16.2462 46.3468 16.2209 46.3195 16.201C46.2922 16.1811 46.2611 16.167 46.2282 16.1595C46.1952 16.152 46.1611 16.1513 46.1279 16.1574C41.8341 16.1574 37.5403 16.1574 33.2465 16.1574C33.1683 16.1574 33.0901 16.1574 33.01 16.1686L33.0175 31.983ZM2.99551 33.0021V33.2223C3.017 34.5941 3.14145 35.9624 3.36781 37.3154C4.03468 41.3657 5.5421 45.2304 7.79255 48.6597C7.82783 48.7189 7.87954 48.7664 7.94136 48.7966C8.00319 48.8268 8.07244 48.8382 8.14064 48.8295C11.2071 48.8295 14.2724 48.8295 17.3364 48.8295H17.597C16.0519 43.652 15.3632 38.3774 15.3092 33.0058L2.99551 33.0021ZM49.6833 33.0021C49.6256 38.3793 48.9387 43.652 47.4012 48.8127C47.4793 48.8127 47.537 48.8239 47.5873 48.8239C50.6898 48.8239 53.7922 48.8239 56.8947 48.8239C56.9528 48.8276 57.0107 48.8144 57.0616 48.7859C57.1124 48.7575 57.154 48.7149 57.1814 48.6634C59.9294 44.4799 61.5641 39.661 61.93 34.6651C61.971 34.1163 61.9821 33.5657 62.0082 33.0039L49.6833 33.0021ZM47.3956 16.1593C48.9425 21.3499 49.6294 26.6226 49.6833 31.9755H62.0064C61.9924 30.5292 61.8641 29.0863 61.6229 27.6603C60.9563 23.6263 59.4554 19.7768 57.2168 16.359C57.1808 16.2928 57.1265 16.2383 57.0605 16.2023C56.9945 16.1662 56.9195 16.1499 56.8445 16.1555C53.7879 16.1555 50.7307 16.1555 47.6729 16.1555L47.3956 16.1593ZM17.6007 16.1723C17.5113 16.1723 17.4462 16.1611 17.381 16.1611C14.2947 16.1611 11.2077 16.1611 8.12017 16.1611C8.05422 16.1576 7.98868 16.1734 7.9315 16.2065C7.87433 16.2396 7.82799 16.2887 7.79813 16.3478C6.52998 18.2877 5.49289 20.3699 4.70807 22.5518C3.81202 25.049 3.25844 27.6566 3.06252 30.3032C3.01971 30.8631 3.00854 31.4231 2.98248 31.983H15.3167C15.3744 26.6095 16.0613 21.3443 17.6007 16.1723V16.1723ZM31.9806 61.9749V49.843H18.9838C19.0005 49.9027 19.0098 49.9382 19.021 49.9737C19.7517 52.1585 20.699 54.2644 21.8486 56.2599C22.8512 58.0329 24.1053 59.6506 25.5716 61.0622C25.6851 61.1664 25.8226 61.2408 25.9718 61.2787C27.6319 61.6601 29.3226 61.8924 31.0238 61.973C31.3422 61.988 31.6567 61.9749 31.9806 61.9749ZM33.0138 61.9954H33.2316C35.1806 61.9557 37.1204 61.7162 39.0208 61.2806C39.1694 61.2443 39.3069 61.1719 39.421 61.0697C40.2897 60.2607 41.0754 59.3666 41.7665 58.4007C43.641 55.8156 44.9645 52.9525 45.9995 49.9438C46.0057 49.908 46.0088 49.8718 46.0088 49.8355H33.0175L33.0138 61.9954ZM18.967 15.1477H31.9806V2.98403C31.9211 2.98403 31.8764 2.98403 31.8336 2.98403C29.8508 3.02969 27.8776 3.27544 25.9439 3.71754C25.8231 3.74738 25.7118 3.80706 25.62 3.89112C24.8394 4.61697 24.126 5.41222 23.4886 6.26711C21.7741 8.54604 20.5102 11.0695 19.4957 13.7329C19.3077 14.1902 19.1457 14.6605 18.967 15.1495V15.1477ZM46.0181 15.1477C45.9939 15.0637 45.9808 15.0058 45.9604 14.961C45.2888 12.9686 44.4397 11.0408 43.4232 9.20116C42.3286 7.24699 41.0442 5.43467 39.4005 3.90046C39.3032 3.81114 39.1857 3.74706 39.058 3.71381C37.4491 3.34212 35.811 3.11106 34.1623 3.02323C33.79 3.0027 33.4084 3.02323 33.0156 3.02323V15.1551L46.0181 15.1477ZM8.60229 49.8169C12.5412 55.0915 17.5672 58.6937 23.7585 60.6759C23.7335 60.6138 23.6983 60.5563 23.6542 60.506C23.1163 59.8117 22.5373 59.1398 22.0478 58.4175C20.2701 55.8418 18.9949 53.0178 18.0065 50.0577C17.9946 49.9832 17.9539 49.9164 17.8933 49.8717C17.8327 49.827 17.7571 49.808 17.6826 49.8187C14.7514 49.8187 11.8196 49.8187 8.8871 49.8187L8.60229 49.8169ZM41.2303 60.6423C44.2557 59.7312 47.1087 58.3214 49.6722 56.4708C52.251 54.6295 54.5175 52.384 56.3847 49.8206C56.286 49.8206 56.2339 49.8094 56.1836 49.8094C53.214 49.8094 50.2449 49.8094 47.2764 49.8094C47.1164 49.8094 47.0661 49.8729 47.014 50.0091C46.6417 51.0207 46.2861 52.0417 45.8673 53.0365C44.7653 55.6495 43.3897 58.0908 41.5542 60.2615L41.2303 60.6423ZM8.6116 15.1477C8.71398 15.1477 8.76238 15.1645 8.81264 15.1645C11.791 15.1645 14.7694 15.1645 17.7478 15.1645C17.8967 15.1645 17.9339 15.1029 17.9935 14.9778C18.4551 13.7684 18.887 12.5514 19.4063 11.3588C20.4697 8.84917 21.9139 6.51966 23.6877 4.45292C23.7194 4.4156 23.7436 4.37267 23.7715 4.33347C17.5672 6.29697 12.5412 9.89921 8.6116 15.1477ZM56.3865 15.1645C54.516 12.5957 52.2451 10.3458 49.661 8.50124C47.1039 6.65643 44.2612 5.24644 41.2471 4.32787C41.2869 4.40115 41.3343 4.46997 41.3886 4.53318C41.988 5.32082 42.6246 6.0842 43.1756 6.90543C44.8398 9.38221 46.0479 12.0848 46.9786 14.9069C46.9845 14.9475 46.9984 14.9865 47.0194 15.0217C47.0404 15.0569 47.0681 15.0877 47.1009 15.1121C47.1338 15.1366 47.1712 15.1543 47.2109 15.1642C47.2506 15.1741 47.2918 15.1761 47.3323 15.1701C50.2498 15.1626 53.1662 15.1626 56.0813 15.1701L56.3865 15.1645Z" stroke="#606060" stroke-width="2" mask="url(#path-1-outside-1_2_139)"/>
<circle cx="53" cy="51" r="13" fill="white"/>
<path fill-rule="evenodd" clip-rule="evenodd" d="M53 38C60.1815 38 66 43.8185 66 51C66 58.1815 60.1815 64 53 64C45.8185 64 40 58.1767 40 51C40 43.8185 45.8185 38 53 38ZM47.249 51.3468C47.4224 50.3353 48.5784 49.7718 49.4887 50.3209C49.5706 50.369 49.6525 50.4268 49.7247 50.4943L49.7343 50.4991C50.1438 50.8892 50.6013 51.2986 51.0541 51.7032L51.4442 52.0548L56.0634 47.2093C56.3379 46.9203 56.5402 46.7325 56.9544 46.641C58.3705 46.3279 59.3675 48.0619 58.3657 49.1215L52.605 55.1615C52.0608 55.7395 51.0926 55.7925 50.5098 55.2386C50.1775 54.9303 49.8114 54.6124 49.4454 54.2946C48.8096 53.7406 48.1593 53.1771 47.6295 52.6184C47.3116 52.3005 47.1719 51.7803 47.249 51.3468Z" fill="#00AEEF"/>
</svg>
