<svg width="31" height="19" viewBox="0 0 31 19" fill="none" xmlns="http://www.w3.org/2000/svg">
<path d="M30.6537 9.78973C30.6537 14.8499 26.5666 18.9857 21.4577 18.9857C16.3975 18.9857 12.2617 14.8499 12.2617 9.78973C12.2617 4.72951 16.3488 0.59375 21.409 0.59375C26.5666 0.59375 30.6537 4.72951 30.6537 9.78973Z" fill="#FFB600"/>
<path d="M21.4577 0.59375C26.5179 0.59375 30.6537 4.72951 30.6537 9.78973C30.6537 14.8499 26.5666 18.9857 21.4577 18.9857C16.3975 18.9857 12.2617 14.8499 12.2617 9.78973" fill="#F7981D"/>
<path d="M21.457 0.59375C26.5173 0.59375 30.653 4.72951 30.653 9.78973C30.653 14.8499 26.5659 18.9857 21.457 18.9857" fill="#FF8500"/>
<path d="M9.09866 0.59375C4.0871 0.642406 0 4.72951 0 9.78973C0 14.8499 4.0871 18.9857 9.19597 18.9857C11.5801 18.9857 13.721 18.0612 15.3753 16.6016C15.7159 16.3096 16.0078 15.969 16.2997 15.6284H14.4022C14.1589 15.3365 13.9156 14.9959 13.721 14.704H16.9809C17.1756 14.412 17.3702 14.0714 17.5161 13.7309H13.1858C13.0398 13.4389 12.8938 13.0983 12.7965 12.7577H17.8567C18.1487 11.8333 18.3433 10.8602 18.3433 9.83838C18.3433 9.1572 18.246 8.52467 18.1487 7.89214H12.5046C12.5532 7.55155 12.6505 7.25962 12.7479 6.91902H17.8081C17.7108 6.57843 17.5648 6.23784 17.4188 5.9459H13.1371C13.2831 5.60531 13.4777 5.31338 13.6723 4.97279H16.9323C16.7376 4.63219 16.4944 4.2916 16.2024 3.99967H14.4022C14.6941 3.65908 14.986 3.36714 15.3266 3.0752C13.721 1.56687 11.5315 0.691062 9.14732 0.691062C9.14732 0.59375 9.14732 0.59375 9.09866 0.59375Z" fill="#FF5050"/>
<path d="M0 9.80179C0 14.862 4.0871 18.9978 9.19597 18.9978C11.5801 18.9978 13.721 18.0733 15.3753 16.6136C15.7159 16.3217 16.0078 15.9811 16.2997 15.6405H14.4022C14.1589 15.3486 13.9156 15.008 13.721 14.716H16.9809C17.1756 14.4241 17.3702 14.0835 17.5161 13.7429H13.1858C13.0398 13.451 12.8938 13.1104 12.7965 12.7698H17.8567C18.1487 11.8453 18.3433 10.8722 18.3433 9.85044C18.3433 9.16926 18.246 8.53673 18.1487 7.90421H12.5046C12.5532 7.56361 12.6505 7.27168 12.7479 6.93109H17.8081C17.7108 6.5905 17.5648 6.2499 17.4188 5.95797H13.1371C13.2831 5.61738 13.4777 5.32544 13.6723 4.98485H16.9323C16.7376 4.64426 16.4944 4.30367 16.2024 4.01173H14.4022C14.6941 3.67114 14.986 3.3792 15.3266 3.08727C13.721 1.57893 11.5315 0.703125 9.14732 0.703125H9.09866" fill="#E52836"/>
<path d="M9.19497 18.9978C11.5791 18.9978 13.72 18.0733 15.3743 16.6136C15.7149 16.3217 16.0068 15.9811 16.2987 15.6405H14.4012C14.1579 15.3486 13.9146 15.008 13.72 14.716H16.9799C17.1745 14.4241 17.3692 14.0835 17.5151 13.7429H13.1848C13.0388 13.451 12.8928 13.1104 12.7955 12.7698H17.8557C18.1477 11.8453 18.3423 10.8722 18.3423 9.85044C18.3423 9.16926 18.245 8.53673 18.1477 7.90421H12.5036C12.5522 7.56361 12.6495 7.27168 12.7469 6.93109H17.8071C17.7098 6.5905 17.5638 6.2499 17.4178 5.95797H13.1361C13.2821 5.61738 13.4767 5.32544 13.6713 4.98485H16.9313C16.7366 4.64426 16.4934 4.30367 16.2014 4.01173H14.4012C14.6931 3.67114 14.985 3.3792 15.3256 3.08727C13.72 1.57893 11.5305 0.703125 9.14631 0.703125H9.09766" fill="#CB2026"/>
<path d="M12.4579 12.1411L12.6039 11.3139C12.5552 11.3139 12.4579 11.3626 12.3606 11.3626C12.02 11.3626 11.9713 11.168 12.02 11.0707L12.3119 9.36771H12.8471L12.9931 8.44325H12.5066L12.6039 7.85938H11.6307C11.6307 7.85938 11.0469 11.0707 11.0469 11.4599C11.0469 12.0438 11.3875 12.2871 11.8254 12.2871C12.1173 12.2871 12.3606 12.1898 12.4579 12.1411Z" fill="white"/>
<path d="M12.8008 10.6097C12.8008 11.9721 13.7252 12.3127 14.5037 12.3127C15.2336 12.3127 15.5255 12.1667 15.5255 12.1667L15.7201 11.2423C15.7201 11.2423 15.1849 11.4855 14.6984 11.4855C13.6279 11.4855 13.8226 10.707 13.8226 10.707H15.8175C15.8175 10.707 15.9634 10.0745 15.9634 9.83124C15.9634 9.19872 15.6228 8.42022 14.5524 8.42022C13.5306 8.32291 12.8008 9.39334 12.8008 10.6097ZM14.5037 9.19872C15.039 9.19872 14.9416 9.83124 14.9416 9.8799H13.8712C13.8712 9.83124 13.9685 9.19872 14.5037 9.19872Z" fill="white"/>
<path d="M20.6839 12.1806L20.8785 11.1101C20.8785 11.1101 20.392 11.3534 20.0514 11.3534C19.3702 11.3534 19.0782 10.8182 19.0782 10.2343C19.0782 9.06658 19.6621 8.43406 20.3433 8.43406C20.8299 8.43406 21.2191 8.72599 21.2191 8.72599L21.3651 7.70422C21.3651 7.70422 20.7812 7.46094 20.246 7.46094C19.1269 7.46094 18.0078 8.43406 18.0078 10.283C18.0078 11.4994 18.5917 12.3265 19.7594 12.3265C20.1487 12.3265 20.6839 12.1806 20.6839 12.1806Z" fill="white"/>
<path d="M7.10674 8.30469C6.42556 8.30469 5.939 8.49931 5.939 8.49931L5.79303 9.32646C5.79303 9.32646 6.23093 9.13184 6.86346 9.13184C7.20405 9.13184 7.49599 9.18049 7.49599 9.47243C7.49599 9.66705 7.44733 9.71571 7.44733 9.71571C7.44733 9.71571 7.15539 9.71571 7.00943 9.71571C6.18228 9.71571 5.25781 10.0563 5.25781 11.1754C5.25781 12.0512 5.84168 12.2458 6.18228 12.2458C6.86346 12.2458 7.15539 11.8079 7.20405 11.8079L7.15539 12.1972H8.0312L8.42045 9.52109C8.42045 8.35334 7.44733 8.30469 7.10674 8.30469ZM7.30136 10.4942C7.30136 10.6402 7.20405 11.4187 6.62018 11.4187C6.32824 11.4187 6.23093 11.1754 6.23093 11.0294C6.23093 10.7861 6.3769 10.4455 7.10674 10.4455C7.25271 10.4942 7.30136 10.4942 7.30136 10.4942Z" fill="white"/>
<path d="M9.34565 12.232C9.58893 12.232 10.8053 12.2806 10.8053 10.9669C10.8053 9.75052 9.63758 9.9938 9.63758 9.50724C9.63758 9.26396 9.83221 9.16665 10.1728 9.16665C10.3188 9.16665 10.854 9.21531 10.854 9.21531L11 8.3395C11 8.3395 10.6594 8.24219 10.0755 8.24219C9.34565 8.24219 8.61581 8.53412 8.61581 9.50724C8.61581 10.6263 9.83221 10.529 9.83221 10.9669C9.83221 11.2589 9.49162 11.3075 9.24834 11.3075C8.81043 11.3075 8.37253 11.1615 8.37253 11.1615L8.22656 12.0374C8.27522 12.1347 8.5185 12.232 9.34565 12.232Z" fill="white"/>
<path d="M28.7578 7.52344L28.5631 8.83715C28.5631 8.83715 28.1739 8.35059 27.6387 8.35059C26.7629 8.35059 25.9844 9.42102 25.9844 10.6861C25.9844 11.4646 26.3736 12.2917 27.2008 12.2917C27.7846 12.2917 28.1252 11.9025 28.1252 11.9025L28.0766 12.2431H29.0497L29.7795 7.57209L28.7578 7.52344ZM28.3199 10.1022C28.3199 10.6374 28.0766 11.3186 27.5414 11.3186C27.2008 11.3186 27.0061 11.0267 27.0061 10.5401C27.0061 9.76161 27.3467 9.27505 27.7846 9.27505C28.1252 9.27505 28.3199 9.51833 28.3199 10.1022Z" fill="white"/>
<path d="M1.80337 12.1944L2.38724 8.69118L2.48455 12.1944H3.16574L4.43079 8.69118L3.89558 12.1944H4.91735L5.69585 7.52344H4.0902L3.11708 10.3941L3.06842 7.52344H1.6574L0.878906 12.1944H1.80337Z" fill="white"/>
<path d="M16.8868 12.2092C17.1788 10.6036 17.2274 9.28987 17.9086 9.53315C18.0059 8.90062 18.1519 8.65734 18.2492 8.41406C18.2492 8.41406 18.2005 8.41406 18.0546 8.41406C17.6167 8.41406 17.2761 8.99793 17.2761 8.99793L17.3734 8.46272H16.4489L15.8164 12.2579H16.8868V12.2092Z" fill="white"/>
<path d="M22.9192 8.30469C22.2381 8.30469 21.7515 8.49931 21.7515 8.49931L21.6055 9.32646C21.6055 9.32646 22.0434 9.13184 22.676 9.13184C23.0166 9.13184 23.3085 9.18049 23.3085 9.47243C23.3085 9.66705 23.2598 9.71571 23.2598 9.71571C23.2598 9.71571 22.9679 9.71571 22.8219 9.71571C21.9948 9.71571 21.0703 10.0563 21.0703 11.1754C21.0703 12.0512 21.6542 12.2458 21.9948 12.2458C22.676 12.2458 22.9679 11.8079 23.0166 11.8079L22.9679 12.1972H23.8437L24.2329 9.52109C24.2816 8.35334 23.2598 8.30469 22.9192 8.30469ZM23.1625 10.4942C23.1625 10.6402 23.0652 11.4187 22.4813 11.4187C22.1894 11.4187 22.0921 11.1754 22.0921 11.0294C22.0921 10.7861 22.2381 10.4455 22.9679 10.4455C23.1139 10.4942 23.1139 10.4942 23.1625 10.4942Z" fill="white"/>
<path d="M25.0587 12.2092C25.3506 10.6036 25.3993 9.28987 26.0805 9.53315C26.1778 8.90062 26.3238 8.65734 26.4211 8.41406C26.4211 8.41406 26.3724 8.41406 26.2265 8.41406C25.7886 8.41406 25.448 8.99793 25.448 8.99793L25.5453 8.46272H24.6208L23.9883 12.2579H25.0587V12.2092Z" fill="white"/>
<path d="M10.9531 11.4599C10.9531 12.0438 11.2937 12.2871 11.7316 12.2871C12.0722 12.2871 12.3641 12.1898 12.4615 12.1411L12.6074 11.3139C12.5588 11.3139 12.4615 11.3626 12.3641 11.3626C12.0236 11.3626 11.9749 11.168 12.0236 11.0707L12.3155 9.36771H12.8507L12.9967 8.44325H12.5101L12.6074 7.85938" fill="#DCE5E5"/>
<path d="M13.2852 10.6097C13.2852 11.9721 13.7231 12.3127 14.5016 12.3127C15.2314 12.3127 15.5233 12.1667 15.5233 12.1667L15.718 11.2423C15.718 11.2423 15.1827 11.4855 14.6962 11.4855C13.6257 11.4855 13.8204 10.707 13.8204 10.707H15.8153C15.8153 10.707 15.9612 10.0745 15.9612 9.83124C15.9612 9.19872 15.6206 8.42022 14.5502 8.42022C13.5284 8.32291 13.2852 9.39334 13.2852 10.6097ZM14.5016 9.19872C15.0368 9.19872 15.1341 9.83124 15.1341 9.8799H13.869C13.869 9.83124 13.9663 9.19872 14.5016 9.19872Z" fill="#DCE5E5"/>
<path d="M20.6817 12.1806L20.8763 11.1101C20.8763 11.1101 20.3898 11.3534 20.0492 11.3534C19.368 11.3534 19.0761 10.8182 19.0761 10.2343C19.0761 9.06658 19.6599 8.43406 20.3411 8.43406C20.8277 8.43406 21.2169 8.72599 21.2169 8.72599L21.3629 7.70422C21.3629 7.70422 20.779 7.46094 20.2438 7.46094C19.1247 7.46094 18.4922 8.43406 18.4922 10.283C18.4922 11.4994 18.5895 12.3265 19.7572 12.3265C20.1465 12.3265 20.6817 12.1806 20.6817 12.1806Z" fill="#DCE5E5"/>
<path d="M5.79303 9.38718C5.79303 9.38718 6.23093 9.19256 6.86346 9.19256C7.20405 9.19256 7.49599 9.24121 7.49599 9.53315C7.49599 9.72777 7.44733 9.77643 7.44733 9.77643C7.44733 9.77643 7.15539 9.77643 7.00943 9.77643C6.18228 9.77643 5.25781 10.117 5.25781 11.2361C5.25781 12.1119 5.84168 12.3065 6.18228 12.3065C6.86346 12.3065 7.15539 11.8686 7.20405 11.8686L7.15539 12.2579H8.0312L8.42045 9.58181C8.42045 8.46272 7.44733 8.41406 7.05808 8.41406L5.79303 9.38718ZM7.78792 10.5063C7.78792 10.6522 7.20405 11.4307 6.62018 11.4307C6.32824 11.4307 6.23093 11.1875 6.23093 11.0415C6.23093 10.7982 6.3769 10.4576 7.10674 10.4576C7.25271 10.5063 7.78792 10.5063 7.78792 10.5063Z" fill="#DCE5E5"/>
<path d="M8.27344 12.1347C8.27344 12.1347 8.56537 12.232 9.39252 12.232C9.6358 12.232 10.8522 12.2806 10.8522 10.9669C10.8522 9.75052 9.68446 9.9938 9.68446 9.50724C9.68446 9.26396 9.87908 9.16665 10.2197 9.16665C10.3656 9.16665 10.9009 9.21531 10.9009 9.21531L11.0468 8.3395C11.0468 8.3395 10.7062 8.24219 10.1224 8.24219C9.39252 8.24219 9.14924 8.53412 9.14924 9.50724C9.14924 10.6263 9.87908 10.529 9.87908 10.9669C9.87908 11.2589 9.53849 11.3075 9.29521 11.3075" fill="#DCE5E5"/>
<path d="M28.5645 8.85099C28.5645 8.85099 28.1752 8.36443 27.64 8.36443C26.7642 8.36443 26.4723 9.43486 26.4723 10.6999C26.4723 11.4784 26.375 12.3056 27.2021 12.3056C27.786 12.3056 28.1266 11.9163 28.1266 11.9163L28.0779 12.2569H29.051L29.7809 7.58594L28.5645 8.85099ZM28.5158 10.116C28.5158 10.6513 28.0779 11.3324 27.5427 11.3324C27.2021 11.3324 27.0075 11.0405 27.0075 10.554C27.0075 9.77546 27.3481 9.2889 27.786 9.2889C28.1266 9.2889 28.5158 9.53217 28.5158 10.116Z" fill="#DCE5E5"/>
<path d="M1.80337 12.1944L2.38724 8.69118L2.48455 12.1944H3.16574L4.43079 8.69118L3.89558 12.1944H4.91735L5.69585 7.52344H4.47945L3.11708 10.3941L3.06842 7.52344H2.53321L0.878906 12.1944H1.80337Z" fill="#DCE5E5"/>
<path d="M15.8633 12.2092H16.8851C17.177 10.6036 17.2256 9.28987 17.9068 9.53315C18.0041 8.90062 18.1501 8.65734 18.2474 8.41406C18.2474 8.41406 18.1988 8.41406 18.0528 8.41406C17.6149 8.41406 17.2743 8.99793 17.2743 8.99793L17.3716 8.46272" fill="#DCE5E5"/>
<path d="M21.6055 9.38718C21.6055 9.38718 22.0434 9.19256 22.676 9.19256C23.0166 9.19256 23.3085 9.24121 23.3085 9.53315C23.3085 9.72777 23.2598 9.77643 23.2598 9.77643C23.2598 9.77643 22.9679 9.77643 22.8219 9.77643C21.9948 9.77643 21.0703 10.117 21.0703 11.2361C21.0703 12.1119 21.6542 12.3065 21.9948 12.3065C22.676 12.3065 22.9679 11.8686 23.0166 11.8686L22.9679 12.2579H23.8437L24.2329 9.58181C24.2329 8.46272 23.2598 8.41406 22.8706 8.41406L21.6055 9.38718ZM23.6004 10.5063C23.6004 10.6522 23.0166 11.4307 22.4327 11.4307C22.1407 11.4307 22.0434 11.1875 22.0434 11.0415C22.0434 10.7982 22.1894 10.4576 22.9192 10.4576C23.1139 10.5063 23.6004 10.5063 23.6004 10.5063Z" fill="#DCE5E5"/>
<path d="M24.0391 12.2092H25.0608C25.3528 10.6036 25.4014 9.28987 26.0826 9.53315C26.1799 8.90062 26.3259 8.65734 26.4232 8.41406C26.4232 8.41406 26.3745 8.41406 26.2286 8.41406C25.7907 8.41406 25.4501 8.99793 25.4501 8.99793L25.5474 8.46272" fill="#DCE5E5"/>
</svg>
