<svg width="26" height="25" viewBox="0 0 26 25" fill="none" xmlns="http://www.w3.org/2000/svg">
<path d="M8.7326 11.8217C8.7326 12.2281 8.57113 12.6179 8.28371 12.9054C7.9963 13.1928 7.60648 13.3542 7.20001 13.3542C6.79354 13.3542 6.40372 13.1928 6.1163 12.9054C5.82889 12.6179 5.66742 12.2281 5.66742 11.8217C5.66742 11.4152 5.82889 11.0254 6.1163 10.7379C6.40372 10.4505 6.79354 10.2891 7.20001 10.2891C7.60648 10.2891 7.9963 10.4505 8.28371 10.7379C8.57113 11.0254 8.7326 11.4152 8.7326 11.8217ZM14.863 11.8217C14.863 12.2281 14.7015 12.6179 14.4141 12.9054C14.1267 13.1928 13.7368 13.3542 13.3304 13.3542C12.9239 13.3542 12.5341 13.1928 12.2467 12.9054C11.9592 12.6179 11.7978 12.2281 11.7978 11.8217C11.7978 11.4152 11.9592 11.0254 12.2467 10.7379C12.5341 10.4505 12.9239 10.2891 13.3304 10.2891C13.7368 10.2891 14.1267 10.4505 14.4141 10.7379C14.7015 11.0254 14.863 11.4152 14.863 11.8217ZM19.4607 13.3542C19.8672 13.3542 20.257 13.1928 20.5444 12.9054C20.8318 12.6179 20.9933 12.2281 20.9933 11.8217C20.9933 11.4152 20.8318 11.0254 20.5444 10.7379C20.257 10.4505 19.8672 10.2891 19.4607 10.2891C19.0542 10.2891 18.6644 10.4505 18.377 10.7379C18.0896 11.0254 17.9281 11.4152 17.9281 11.8217C17.9281 12.2281 18.0896 12.6179 18.377 12.9054C18.6644 13.1928 19.0542 13.3542 19.4607 13.3542Z" fill="#00AEEF" stroke="#00AEEF" stroke-width="0.2"/>
<path d="M4.38428 23.7768L4.41493 23.7706C7.21957 23.2143 8.933 22.4802 9.72995 22.0771C10.9033 22.3901 12.1126 22.5477 13.3269 22.5461C20.0979 22.5461 25.5876 17.743 25.5876 11.818C25.5876 5.89298 20.0979 1.08984 13.3269 1.08984C6.55596 1.08984 1.06622 5.89298 1.06622 11.818C1.06622 14.5153 2.20494 16.9828 4.08542 18.8679C3.95386 20.0788 3.68442 21.2707 3.28235 22.4204L3.27775 22.4373C3.16348 22.7666 3.03877 23.0922 2.9038 23.4135C2.78272 23.6986 3.01721 24.0174 3.32219 23.9683C3.67724 23.9102 4.03131 23.8464 4.38428 23.7768ZM5.61035 19.0135C5.63182 18.7891 5.60353 18.5627 5.5275 18.3506C5.45147 18.1384 5.32957 17.9456 5.1705 17.7859C3.54595 16.1552 2.59881 14.0678 2.59881 11.818C2.59881 6.92594 7.20271 2.62243 13.3269 2.62243C19.4512 2.62243 24.0551 6.92594 24.0551 11.818C24.0551 16.7115 19.4512 21.0135 13.3269 21.0135C12.2466 21.0151 11.1708 20.8749 10.1269 20.5966C9.7621 20.4989 9.37406 20.5393 9.03722 20.71C8.44411 21.0104 7.13681 21.5836 5.00038 22.0786C5.29843 21.0781 5.50264 20.0519 5.61035 19.0135Z" fill="#00AEEF" stroke="#00AEEF" stroke-width="0.2"/>
</svg>
