<svg width="22" height="22" viewBox="0 0 22 22" fill="none" xmlns="http://www.w3.org/2000/svg">
<path fill-rule="evenodd" clip-rule="evenodd" d="M10.5156 0C4.59185 0 0 4.33916 0 10.2001C0 13.2658 1.25641 15.9149 3.30249 17.7447C3.47425 17.8984 3.57794 18.1138 3.58498 18.3443L3.64225 20.2148C3.66055 20.8115 4.27685 21.1997 4.82282 20.9587L6.91002 20.0373C7.08696 19.9593 7.28522 19.9448 7.47166 19.9961C8.43079 20.2598 9.4516 20.4003 10.5156 20.4003C16.4394 20.4003 21.0312 16.0611 21.0312 10.2001C21.0312 4.33916 16.4394 0 10.5156 0Z" fill="url(#paint0_radial_2101_90224)"/>
<path fill-rule="evenodd" clip-rule="evenodd" d="M4.19837 13.1872L7.28733 8.28651C7.77868 7.50689 8.83088 7.31277 9.56813 7.86568L12.0249 9.70829C12.2503 9.87738 12.5605 9.87647 12.785 9.70612L16.103 7.18795C16.5459 6.85187 17.124 7.38186 16.8276 7.85218L13.7386 12.7529C13.2472 13.5325 12.195 13.7267 11.4578 13.1737L9.00096 11.3311C8.77556 11.162 8.46539 11.1629 8.24095 11.3333L4.9229 13.8514C4.48004 14.1875 3.90193 13.6575 4.19837 13.1872Z" fill="white"/>
<defs>
<radialGradient id="paint0_radial_2101_90224" cx="0" cy="0" r="1" gradientUnits="userSpaceOnUse" gradientTransform="translate(4.04797 20.9187) scale(22.9155 22.9155)">
<stop stop-color="#0099FF"/>
<stop offset="0.609754" stop-color="#A033FF"/>
<stop offset="0.934823" stop-color="#FF5280"/>
<stop offset="1" stop-color="#FF7061"/>
</radialGradient>
</defs>
</svg>
