<svg width="17" height="16" viewBox="0 0 17 16" fill="none" xmlns="http://www.w3.org/2000/svg">
<path d="M5.3125 7.4375C5.3125 7.71929 5.20056 7.98954 5.0013 8.1888C4.80204 8.38806 4.53179 8.5 4.25 8.5C3.96821 8.5 3.69796 8.38806 3.4987 8.1888C3.29944 7.98954 3.1875 7.71929 3.1875 7.4375C3.1875 7.15571 3.29944 6.88546 3.4987 6.6862C3.69796 6.48694 3.96821 6.375 4.25 6.375C4.53179 6.375 4.80204 6.48694 5.0013 6.6862C5.20056 6.88546 5.3125 7.15571 5.3125 7.4375ZM9.5625 7.4375C9.5625 7.71929 9.45056 7.98954 9.2513 8.1888C9.05204 8.38806 8.78179 8.5 8.5 8.5C8.21821 8.5 7.94796 8.38806 7.7487 8.1888C7.54944 7.98954 7.4375 7.71929 7.4375 7.4375C7.4375 7.15571 7.54944 6.88546 7.7487 6.6862C7.94796 6.48694 8.21821 6.375 8.5 6.375C8.78179 6.375 9.05204 6.48694 9.2513 6.6862C9.45056 6.88546 9.5625 7.15571 9.5625 7.4375ZM12.75 8.5C13.0318 8.5 13.302 8.38806 13.5013 8.1888C13.7006 7.98954 13.8125 7.71929 13.8125 7.4375C13.8125 7.15571 13.7006 6.88546 13.5013 6.6862C13.302 6.48694 13.0318 6.375 12.75 6.375C12.4682 6.375 12.198 6.48694 11.9987 6.6862C11.7994 6.88546 11.6875 7.15571 11.6875 7.4375C11.6875 7.71929 11.7994 7.98954 11.9987 8.1888C12.198 8.38806 12.4682 8.5 12.75 8.5Z" fill="white"/>
<path d="M2.30031 15.7282L2.32156 15.7239C4.26594 15.3383 5.45381 14.8293 6.00631 14.5499C6.81975 14.7668 7.65813 14.8761 8.5 14.875C13.1941 14.875 17 11.5451 17 7.4375C17 3.32987 13.1941 0 8.5 0C3.80587 0 0 3.32987 0 7.4375C0 9.3075 0.789438 11.0181 2.09313 12.325C2.00192 13.1645 1.81512 13.9908 1.53637 14.7879L1.53319 14.7996C1.45397 15.0279 1.36751 15.2536 1.27394 15.4764C1.19 15.674 1.35256 15.895 1.564 15.861C1.81014 15.8207 2.05561 15.7764 2.30031 15.7282ZM3.15031 12.4259C3.1652 12.2704 3.14558 12.1135 3.09288 11.9664C3.04017 11.8193 2.95566 11.6856 2.84538 11.5749C1.71913 10.4444 1.0625 8.99725 1.0625 7.4375C1.0625 4.046 4.25425 1.0625 8.5 1.0625C12.7458 1.0625 15.9375 4.046 15.9375 7.4375C15.9375 10.8301 12.7458 13.8125 8.5 13.8125C7.75104 13.8136 7.00518 13.7164 6.2815 13.5235C6.0286 13.4557 5.75959 13.4837 5.52606 13.6021C5.11488 13.8104 4.20856 14.2077 2.72744 14.5509C2.93407 13.8573 3.07564 13.1459 3.15031 12.4259Z" fill="white"/>
</svg>
