<svg width="4" height="16" viewBox="0 0 4 16" fill="none" xmlns="http://www.w3.org/2000/svg">
<path d="M1.96721 3.93443C3.05367 3.93443 3.93443 3.05367 3.93443 1.96721C3.93443 0.880751 3.05367 0 1.96721 0C0.880751 0 0 0.880751 0 1.96721C0 3.05367 0.880751 3.93443 1.96721 3.93443Z" fill="#606060"/>
<path d="M1.96721 9.96568C3.05367 9.96568 3.93443 9.08492 3.93443 7.99846C3.93443 6.912 3.05367 6.03125 1.96721 6.03125C0.880751 6.03125 0 6.912 0 7.99846C0 9.08492 0.880751 9.96568 1.96721 9.96568Z" fill="#606060"/>
<path d="M1.96721 16.0008C3.05367 16.0008 3.93443 15.1201 3.93443 14.0336C3.93443 12.9472 3.05367 12.0664 1.96721 12.0664C0.880751 12.0664 0 12.9472 0 14.0336C0 15.1201 0.880751 16.0008 1.96721 16.0008Z" fill="#606060"/>
</svg>
