<svg width="32" height="32" viewBox="0 0 32 32" fill="none" xmlns="http://www.w3.org/2000/svg">
<g clip-path="url(#clip0_664_99427)">
<path opacity="0.4" d="M28.8154 26.3963H22.8013C25.0202 26.3963 26.3635 23.9452 25.1698 22.0749L20.5 14.758L20.5003 14.7515L22.5126 11.5985C23.1417 10.613 24.5806 10.613 25.2096 11.5985L31.5124 21.4741C32.8719 23.6044 31.3422 26.3963 28.8154 26.3963Z" fill="#F251EB"/>
<path d="M13.9967 4.61086L25.1449 22.0786C26.3386 23.949 24.9953 26.4 22.7765 26.4H2.81434C0.595488 26.4 -0.747862 23.949 0.445838 22.0786L11.5941 4.61086C12.1123 3.79841 13.4645 3.79736 13.9909 4.60191C13.9917 4.60306 13.996 4.60981 13.9967 4.61086Z" fill="#F251EB"/>
</g>
<defs>
<clipPath id="clip0_664_99427">
<rect width="32" height="32" fill="white"/>
</clipPath>
</defs>
</svg>
