<svg width="27" height="27" viewBox="0 0 27 27" fill="none" xmlns="http://www.w3.org/2000/svg">
<path d="M23.6258 9.91562H22.4445V6.9203C22.4445 6.5828 22.1914 6.32968 21.8539 6.32968H5.18984C4.85234 6.32968 4.59921 6.5828 4.59921 6.9203V9.91562H3.41797V6.9203C3.41797 5.94999 4.21952 5.14844 5.18984 5.14844H21.8539C22.8242 5.14844 23.6258 5.94999 23.6258 6.9203V9.91562Z" fill="#00AEEF" stroke="#00AEEF" stroke-width="0.2"/>
<path d="M20.6281 21.8578H6.32657C5.35626 21.8578 4.55469 21.0563 4.55469 20.0859V9.96094H5.73595V20.0859C5.73595 20.4234 5.98907 20.6766 6.32657 20.6766H20.6281C20.9656 20.6766 21.2188 20.4234 21.2188 20.0859V9.96094H22.4V20.0859C22.4422 21.0563 21.6406 21.8578 20.6281 21.8578Z" fill="#00AEEF" stroke="#00AEEF" stroke-width="0.2"/>
<path d="M15.8617 13.5016H11.0945C10.757 13.5016 10.5039 13.2484 10.5039 12.9109C10.5039 12.5734 10.757 12.3203 11.0945 12.3203H15.8617C16.1992 12.3203 16.4523 12.5734 16.4523 12.9109C16.4523 13.2484 16.1992 13.5016 15.8617 13.5016Z" fill="#00AEEF" stroke="#00AEEF" stroke-width="0.2"/>
<path d="M3.375 8.73438H23.625V9.91562H3.375V8.73438Z" fill="#00AEEF" stroke="#00AEEF" stroke-width="0.2"/>
</svg>
