<svg width="81" height="81" viewBox="0 0 81 81" fill="none" xmlns="http://www.w3.org/2000/svg">
<mask id="path-1-outside-1_0_3479" maskUnits="userSpaceOnUse" x="30" y="22" width="17" height="37" fill="black">
<rect fill="white" x="30" y="22" width="17" height="37"/>
<path d="M39.02 57V27.75L41.585 30.405H32.36V25.5H44.87V57H39.02Z"/>
</mask>
<path d="M39.02 57H37.02V59H39.02V57ZM39.02 27.75L40.4584 26.3604L37.02 22.8013V27.75H39.02ZM41.585 30.405V32.405H46.2981L43.0234 29.0154L41.585 30.405ZM32.36 30.405H30.36V32.405H32.36V30.405ZM32.36 25.5V23.5H30.36V25.5H32.36ZM44.87 25.5H46.87V23.5H44.87V25.5ZM44.87 57V59H46.87V57H44.87ZM41.02 57V27.75H37.02V57H41.02ZM37.5816 29.1396L40.1466 31.7946L43.0234 29.0154L40.4584 26.3604L37.5816 29.1396ZM41.585 28.405H32.36V32.405H41.585V28.405ZM34.36 30.405V25.5H30.36V30.405H34.36ZM32.36 27.5H44.87V23.5H32.36V27.5ZM42.87 25.5V57H46.87V25.5H42.87ZM44.87 55H39.02V59H44.87V55Z" fill="black" fill-opacity="0.8" mask="url(#path-1-outside-1_0_3479)"/>
<circle cx="40.5" cy="40.5" r="39" stroke="#00AEEF" stroke-opacity="0.5" stroke-width="3"/>
</svg>
