<svg width="81" height="81" viewBox="0 0 81 81" fill="none" xmlns="http://www.w3.org/2000/svg">
<mask id="path-1-outside-1_0_3482" maskUnits="userSpaceOnUse" x="24" y="23" width="30" height="36" fill="black">
<rect fill="white" x="24" y="23" width="30" height="36"/>
<path d="M28.575 57V53.085L41.085 41.205C42.135 40.215 42.915 39.345 43.425 38.595C43.935 37.845 44.265 37.155 44.415 36.525C44.595 35.865 44.685 35.25 44.685 34.68C44.685 33.24 44.19 32.13 43.2 31.35C42.21 30.54 40.755 30.135 38.835 30.135C37.305 30.135 35.91 30.405 34.65 30.945C33.42 31.485 32.355 32.31 31.455 33.42L27.36 30.27C28.59 28.62 30.24 27.345 32.31 26.445C34.41 25.515 36.75 25.05 39.33 25.05C41.61 25.05 43.59 25.425 45.27 26.175C46.98 26.895 48.285 27.93 49.185 29.28C50.115 30.63 50.58 32.235 50.58 34.095C50.58 35.115 50.445 36.135 50.175 37.155C49.905 38.145 49.395 39.195 48.645 40.305C47.895 41.415 46.8 42.66 45.36 44.04L34.605 54.255L33.39 52.05H51.795V57H28.575Z"/>
</mask>
<path d="M28.575 57H26.575V59H28.575V57ZM28.575 53.085L27.1978 51.6347L26.575 52.2262V53.085H28.575ZM41.085 41.205L39.713 39.7498L39.7078 39.7547L41.085 41.205ZM43.425 38.595L41.7711 37.4704L41.7711 37.4704L43.425 38.595ZM44.415 36.525L42.4855 35.9988L42.4769 36.0301L42.4694 36.0618L44.415 36.525ZM43.2 31.35L41.9335 32.8979L41.9478 32.9096L41.9623 32.921L43.2 31.35ZM34.65 30.945L33.8622 29.1067L33.8541 29.1102L33.846 29.1137L34.65 30.945ZM31.455 33.42L30.2356 35.0052L31.7808 36.1938L33.0085 34.6796L31.455 33.42ZM27.36 30.27L25.7565 29.0747L24.5791 30.6541L26.1406 31.8552L27.36 30.27ZM32.31 26.445L33.1075 28.2792L33.1199 28.2737L32.31 26.445ZM45.27 26.175L44.4547 28.0013L44.4742 28.01L44.4939 28.0183L45.27 26.175ZM49.185 29.28L47.5209 30.3894L47.5293 30.4021L47.538 30.4146L49.185 29.28ZM50.175 37.155L52.1045 37.6812L52.1065 37.674L52.1084 37.6668L50.175 37.155ZM45.36 44.04L46.7374 45.4902L46.7438 45.484L45.36 44.04ZM34.605 54.255L32.8533 55.2202L34.1037 57.4894L35.9823 55.7052L34.605 54.255ZM33.39 52.05V50.05H30.0044L31.6383 53.0152L33.39 52.05ZM51.795 52.05H53.795V50.05H51.795V52.05ZM51.795 57V59H53.795V57H51.795ZM30.575 57V53.085H26.575V57H30.575ZM29.9522 54.5353L42.4622 42.6553L39.7078 39.7547L27.1978 51.6347L29.9522 54.5353ZM42.457 42.6602C43.5585 41.6216 44.4539 40.6387 45.0789 39.7196L41.7711 37.4704C41.3761 38.0513 40.7115 38.8084 39.713 39.7498L42.457 42.6602ZM45.0789 39.7196C45.6749 38.8431 46.1367 37.9287 46.3606 36.9882L42.4694 36.0618C42.3933 36.3813 42.1951 36.8469 41.7711 37.4704L45.0789 39.7196ZM46.3445 37.0512C46.5623 36.2528 46.685 35.4591 46.685 34.68H42.685C42.685 35.0409 42.6277 35.4772 42.4855 35.9988L46.3445 37.0512ZM46.685 34.68C46.685 32.726 45.9817 30.9955 44.4377 29.779L41.9623 32.921C42.3983 33.2645 42.685 33.754 42.685 34.68H46.685ZM44.4665 29.8021C42.9785 28.5846 40.9945 28.135 38.835 28.135V32.135C40.5155 32.135 41.4415 32.4954 41.9335 32.8979L44.4665 29.8021ZM38.835 28.135C37.0656 28.135 35.3985 28.4483 33.8622 29.1067L35.4378 32.7833C36.4215 32.3617 37.5444 32.135 38.835 32.135V28.135ZM33.846 29.1137C32.3057 29.79 30.9891 30.8191 29.9015 32.1604L33.0085 34.6796C33.7209 33.8009 34.5343 33.18 35.454 32.7763L33.846 29.1137ZM32.6744 31.8347L28.5794 28.6847L26.1406 31.8552L30.2356 35.0052L32.6744 31.8347ZM28.9635 31.4653C29.9653 30.1214 31.3254 29.0539 33.1075 28.2791L31.5125 24.6109C29.1546 25.6361 27.2147 27.1186 25.7565 29.0747L28.9635 31.4653ZM33.1199 28.2737C34.9351 27.4698 36.9945 27.05 39.33 27.05V23.05C36.5055 23.05 33.8849 23.5602 31.5001 24.6163L33.1199 28.2737ZM39.33 27.05C41.3944 27.05 43.0849 27.3898 44.4547 28.0013L46.0853 24.3487C44.0951 23.4602 41.8256 23.05 39.33 23.05V27.05ZM44.4939 28.0183C45.8957 28.6085 46.8686 29.4109 47.5209 30.3894L50.8491 28.1706C49.7014 26.4491 48.0643 25.1815 46.0461 24.3317L44.4939 28.0183ZM47.538 30.4146C48.208 31.3872 48.58 32.5837 48.58 34.095H52.58C52.58 31.8863 52.022 29.8728 50.832 28.1454L47.538 30.4146ZM48.58 34.095C48.58 34.9364 48.4689 35.7844 48.2416 36.6432L52.1084 37.6668C52.4211 36.4856 52.58 35.2936 52.58 34.095H48.58ZM48.2455 36.6288C48.0477 37.354 47.6505 38.2045 46.9878 39.1853L50.3022 41.4247C51.1395 40.1855 51.7623 38.936 52.1045 37.6812L48.2455 36.6288ZM46.9878 39.1853C46.3455 40.1359 45.3584 41.2714 43.9762 42.596L46.7438 45.484C48.2416 44.0486 49.4445 42.6941 50.3022 41.4247L46.9878 39.1853ZM43.9827 42.5898L33.2277 52.8048L35.9823 55.7052L46.7373 45.4902L43.9827 42.5898ZM36.3567 53.2898L35.1417 51.0848L31.6383 53.0152L32.8533 55.2202L36.3567 53.2898ZM33.39 54.05H51.795V50.05H33.39V54.05ZM49.795 52.05V57H53.795V52.05H49.795ZM51.795 55H28.575V59H51.795V55Z" fill="black" fill-opacity="0.8" mask="url(#path-1-outside-1_0_3482)"/>
<circle cx="40.5" cy="40.5" r="39" stroke="#00AEEF" stroke-opacity="0.5" stroke-width="3"/>
</svg>
