<svg width="81" height="81" viewBox="0 0 81 81" fill="none" xmlns="http://www.w3.org/2000/svg">
<mask id="path-1-outside-1_0_3646" maskUnits="userSpaceOnUse" x="24" y="23" width="30" height="37" fill="black">
<rect fill="white" x="24" y="23" width="30" height="37"/>
<path d="M38.88 57.45C36.66 57.45 34.485 57.135 32.355 56.505C30.255 55.845 28.485 54.945 27.045 53.805L29.565 49.26C30.705 50.19 32.085 50.94 33.705 51.51C35.325 52.08 37.02 52.365 38.79 52.365C40.89 52.365 42.525 51.945 43.695 51.105C44.865 50.235 45.45 49.065 45.45 47.595C45.45 46.155 44.91 45.015 43.83 44.175C42.75 43.335 41.01 42.915 38.61 42.915H35.73V38.91L44.73 28.2L45.495 30.405H28.575V25.5H50.04V29.415L41.04 40.125L37.98 38.325H39.735C43.605 38.325 46.5 39.195 48.42 40.935C50.37 42.645 51.345 44.85 51.345 47.55C51.345 49.32 50.895 50.955 49.995 52.455C49.095 53.955 47.715 55.17 45.855 56.1C44.025 57 41.7 57.45 38.88 57.45Z"/>
</mask>
<path d="M32.355 56.505L31.7553 58.413L31.7715 58.4181L31.7877 58.4229L32.355 56.505ZM27.045 53.805L25.2959 52.8352L24.4728 54.3196L25.8036 55.3731L27.045 53.805ZM29.565 49.26L30.8293 47.7103L28.9758 46.1982L27.8159 48.2902L29.565 49.26ZM33.705 51.51L34.3688 49.6234L33.705 51.51ZM43.695 51.105L44.8614 52.7296L44.875 52.7199L44.8884 52.7099L43.695 51.105ZM43.83 44.175L45.0579 42.5963L43.83 44.175ZM35.73 42.915H33.73V44.915H35.73V42.915ZM35.73 38.91L34.1988 37.6233L33.73 38.1812V38.91H35.73ZM44.73 28.2L46.6195 27.5445L45.465 24.2166L43.1988 26.9133L44.73 28.2ZM45.495 30.405V32.405H48.3058L47.3845 29.7495L45.495 30.405ZM28.575 30.405H26.575V32.405H28.575V30.405ZM28.575 25.5V23.5H26.575V25.5H28.575ZM50.04 25.5H52.04V23.5H50.04V25.5ZM50.04 29.415L51.5712 30.7017L52.04 30.1438V29.415H50.04ZM41.04 40.125L40.026 41.8489L41.4834 42.7062L42.5712 41.4117L41.04 40.125ZM37.98 38.325V36.325H30.6354L36.966 40.0489L37.98 38.325ZM48.42 40.935L47.077 42.417L47.0891 42.4279L47.1014 42.4387L48.42 40.935ZM49.995 52.455L51.71 53.484L49.995 52.455ZM45.855 56.1L46.7377 57.8947L46.7494 57.8889L45.855 56.1ZM38.88 55.45C36.8522 55.45 34.8682 55.1627 32.9223 54.5871L31.7877 58.4229C34.1018 59.1073 36.4678 59.45 38.88 59.45V55.45ZM32.9547 54.597C31.0424 53.996 29.5012 53.1986 28.2864 52.2369L25.8036 55.3731C27.4688 56.6914 29.4676 57.694 31.7553 58.413L32.9547 54.597ZM28.7941 54.7748L31.3141 50.2298L27.8159 48.2902L25.2959 52.8352L28.7941 54.7748ZM28.3007 50.8097C29.6471 51.9081 31.2388 52.7625 33.0412 53.3966L34.3688 49.6234C32.9312 49.1175 31.7629 48.4719 30.8293 47.7103L28.3007 50.8097ZM33.0412 53.3966C34.881 54.044 36.8009 54.365 38.79 54.365V50.365C37.2391 50.365 35.769 50.116 34.3688 49.6234L33.0412 53.3966ZM38.79 54.365C41.1252 54.365 43.2279 53.9024 44.8614 52.7296L42.5286 49.4804C41.8221 49.9876 40.6548 50.365 38.79 50.365V54.365ZM44.8884 52.7099C46.5708 51.4589 47.45 49.6913 47.45 47.595H43.45C43.45 48.4387 43.1592 49.0111 42.5016 49.5001L44.8884 52.7099ZM47.45 47.595C47.45 45.5754 46.654 43.8377 45.0579 42.5963L42.6021 45.7537C43.166 46.1923 43.45 46.7346 43.45 47.595H47.45ZM45.0579 42.5963C43.4471 41.3435 41.155 40.915 38.61 40.915V44.915C40.865 44.915 42.0529 45.3265 42.6021 45.7537L45.0579 42.5963ZM38.61 40.915H35.73V44.915H38.61V40.915ZM37.73 42.915V38.91H33.73V42.915H37.73ZM37.2612 40.1967L46.2612 29.4867L43.1988 26.9133L34.1988 37.6233L37.2612 40.1967ZM42.8405 28.8555L43.6055 31.0605L47.3845 29.7495L46.6195 27.5445L42.8405 28.8555ZM45.495 28.405H28.575V32.405H45.495V28.405ZM30.575 30.405V25.5H26.575V30.405H30.575ZM28.575 27.5H50.04V23.5H28.575V27.5ZM48.04 25.5V29.415H52.04V25.5H48.04ZM48.5088 28.1283L39.5088 38.8383L42.5712 41.4117L51.5712 30.7017L48.5088 28.1283ZM42.054 38.4011L38.994 36.6011L36.966 40.0489L40.026 41.8489L42.054 38.4011ZM37.98 40.325H39.735V36.325H37.98V40.325ZM39.735 40.325C43.3476 40.325 45.6701 41.142 47.077 42.417L49.763 39.453C47.3299 37.248 43.8624 36.325 39.735 36.325V40.325ZM47.1014 42.4387C48.5985 43.7516 49.345 45.399 49.345 47.55H53.345C53.345 44.301 52.1415 41.5384 49.7386 39.4313L47.1014 42.4387ZM49.345 47.55C49.345 48.962 48.9912 50.2407 48.28 51.426L51.71 53.484C52.7988 51.6693 53.345 49.678 53.345 47.55H49.345ZM48.28 51.426C47.61 52.5426 46.5454 53.5187 44.9606 54.3111L46.7494 57.8889C48.8846 56.8213 50.58 55.3674 51.71 53.484L48.28 51.426ZM44.9724 54.3053C43.5014 55.0287 41.5044 55.45 38.88 55.45V59.45C41.8956 59.45 44.5486 58.9713 46.7376 57.8947L44.9724 54.3053Z" fill="black" fill-opacity="0.8" mask="url(#path-1-outside-1_0_3646)"/>
<circle cx="40.5" cy="40.5" r="39" stroke="#00AEEF" stroke-opacity="0.5" stroke-width="3"/>
</svg>
