<svg width="81" height="81" viewBox="0 0 81 81" fill="none" xmlns="http://www.w3.org/2000/svg">
<mask id="path-1-outside-1_0_3649" maskUnits="userSpaceOnUse" x="24" y="23" width="34" height="36" fill="black">
<rect fill="white" x="24" y="23" width="34" height="36"/>
<path d="M26.53 49.845V45.795L42.055 25.5H48.31L33.01 45.795L30.085 44.895H55.06V49.845H26.53ZM43.81 57V49.845L43.99 44.895V38.55H49.48V57H43.81Z"/>
</mask>
<path d="M26.53 49.845H24.53V51.845H26.53V49.845ZM26.53 45.795L24.9415 44.5798L24.53 45.1177V45.795H26.53ZM42.055 25.5V23.5H41.0669L40.4665 24.2848L42.055 25.5ZM48.31 25.5L49.907 26.704L52.3224 23.5H48.31V25.5ZM33.01 45.795L32.4218 47.7066L33.7626 48.1191L34.607 46.999L33.01 45.795ZM30.085 44.895V42.895L29.4968 46.8066L30.085 44.895ZM55.06 44.895H57.06V42.895H55.06V44.895ZM55.06 49.845V51.845H57.06V49.845H55.06ZM43.81 57H41.81V59H43.81V57ZM43.81 49.845L41.8113 49.7723L41.81 49.8086V49.845H43.81ZM43.99 44.895L45.9887 44.9677L45.99 44.9314V44.895H43.99ZM43.99 38.55V36.55H41.99V38.55H43.99ZM49.48 38.55H51.48V36.55H49.48V38.55ZM49.48 57V59H51.48V57H49.48ZM28.53 49.845V45.795H24.53V49.845H28.53ZM28.1185 47.0102L43.6435 26.7152L40.4665 24.2848L24.9415 44.5798L28.1185 47.0102ZM42.055 27.5H48.31V23.5H42.055V27.5ZM46.713 24.296L31.413 44.591L34.607 46.999L49.907 26.704L46.713 24.296ZM33.5982 43.8834L30.6732 42.9834L29.4968 46.8066L32.4218 47.7066L33.5982 43.8834ZM30.085 46.895H55.06V42.895H30.085V46.895ZM53.06 44.895V49.845H57.06V44.895H53.06ZM55.06 47.845H26.53V51.845H55.06V47.845ZM45.81 57V49.845H41.81V57H45.81ZM45.8087 49.9177L45.9887 44.9677L41.9913 44.8223L41.8113 49.7723L45.8087 49.9177ZM45.99 44.895V38.55H41.99V44.895H45.99ZM43.99 40.55H49.48V36.55H43.99V40.55ZM47.48 38.55V57H51.48V38.55H47.48ZM49.48 55H43.81V59H49.48V55Z" fill="black" fill-opacity="0.8" mask="url(#path-1-outside-1_0_3649)"/>
<circle cx="40.5" cy="40.5" r="39" stroke="#00AEEF" stroke-opacity="0.5" stroke-width="3"/>
</svg>
