<svg width="81" height="81" viewBox="0 0 81 81" fill="none" xmlns="http://www.w3.org/2000/svg">
<mask id="path-1-outside-1_42_6465" maskUnits="userSpaceOnUse" x="25" y="24" width="29" height="38" fill="black">
<rect fill="white" x="25" y="24" width="29" height="38"/>
<path d="M39.42 59.45C37.2 59.45 35.025 59.135 32.895 58.505C30.795 57.845 29.025 56.945 27.585 55.805L30.06 51.26C31.2 52.19 32.58 52.94 34.2 53.51C35.85 54.08 37.56 54.365 39.33 54.365C41.4 54.365 43.02 53.93 44.19 53.06C45.39 52.19 45.99 51.02 45.99 49.55C45.99 48.56 45.735 47.69 45.225 46.94C44.745 46.19 43.875 45.62 42.615 45.23C41.385 44.84 39.69 44.645 37.53 44.645H29.925L31.545 27.5H50.04V32.405H33.705L36.765 29.615L35.55 42.44L32.49 39.695H38.835C41.955 39.695 44.46 40.115 46.35 40.955C48.27 41.765 49.665 42.905 50.535 44.375C51.435 45.815 51.885 47.465 51.885 49.325C51.885 51.155 51.435 52.835 50.535 54.365C49.635 55.895 48.255 57.125 46.395 58.055C44.565 58.985 42.24 59.45 39.42 59.45Z"/>
</mask>
<path d="M32.895 58.505L32.2953 60.413L32.3115 60.4181L32.3277 60.4229L32.895 58.505ZM27.585 55.805L25.8285 54.8485L25.0231 56.3277L26.3436 57.3731L27.585 55.805ZM30.06 51.26L31.3243 49.7103L29.4564 48.1865L28.3035 50.3035L30.06 51.26ZM34.2 53.51L33.5362 55.3967L33.547 55.4004L34.2 53.51ZM44.19 53.06L43.0161 51.4408L43.0063 51.4479L42.9966 51.4551L44.19 53.06ZM45.225 46.94L43.5405 48.0181L43.5555 48.0416L43.5711 48.0646L45.225 46.94ZM42.615 45.23L42.0105 47.1365L42.0236 47.1406L42.615 45.23ZM29.925 44.645L27.9339 44.4569L27.7271 46.645H29.925V44.645ZM31.545 27.5V25.5H29.7251L29.5539 27.3119L31.545 27.5ZM50.04 27.5H52.04V25.5H50.04V27.5ZM50.04 32.405V34.405H52.04V32.405H50.04ZM33.705 32.405L32.3575 30.9271L28.543 34.405H33.705V32.405ZM36.765 29.615L38.7561 29.8036L39.2445 24.6477L35.4175 28.1371L36.765 29.615ZM35.55 42.44L34.2145 43.9288L37.167 46.5773L37.5411 42.6286L35.55 42.44ZM32.49 39.695V37.695H27.2654L31.1545 41.1838L32.49 39.695ZM46.35 40.955L45.5377 42.7826L45.5551 42.7903L45.5726 42.7977L46.35 40.955ZM50.535 44.375L48.8138 45.3936L48.8262 45.4145L48.839 45.435L50.535 44.375ZM50.535 54.365L48.8111 53.351L48.8111 53.351L50.535 54.365ZM46.395 58.055L45.5006 56.2661L45.4889 56.272L46.395 58.055ZM39.42 57.45C37.3922 57.45 35.4082 57.1627 33.4623 56.5871L32.3277 60.4229C34.6418 61.1073 37.0078 61.45 39.42 61.45V57.45ZM33.4947 56.597C31.5824 55.996 30.0412 55.1986 28.8264 54.2369L26.3436 57.3731C28.0088 58.6914 30.0076 59.694 32.2953 60.413L33.4947 56.597ZM29.3415 56.7615L31.8165 52.2165L28.3035 50.3035L25.8285 54.8485L29.3415 56.7615ZM28.7957 52.8097C30.1421 53.9081 31.7338 54.7625 33.5362 55.3966L34.8638 51.6234C33.4262 51.1175 32.2579 50.4719 31.3243 49.7103L28.7957 52.8097ZM33.547 55.4004C35.41 56.044 37.3409 56.365 39.33 56.365V52.365C37.7791 52.365 36.29 52.116 34.853 51.6196L33.547 55.4004ZM39.33 56.365C41.6549 56.365 43.7504 55.8792 45.3834 54.6649L42.9966 51.4551C42.2896 51.9808 41.1451 52.365 39.33 52.365V56.365ZM45.3639 54.6792C47.0777 53.4367 47.99 51.6672 47.99 49.55H43.99C43.99 50.3728 43.7023 50.9433 43.0161 51.4408L45.3639 54.6792ZM47.99 49.55C47.99 48.1973 47.6351 46.9275 46.8789 45.8154L43.5711 48.0646C43.8349 48.4525 43.99 48.9227 43.99 49.55H47.99ZM46.9095 45.8619C46.0771 44.5612 44.7071 43.7839 43.2064 43.3194L42.0236 47.1406C43.0429 47.4561 43.4129 47.8188 43.5405 48.0181L46.9095 45.8619ZM43.2195 43.3235C41.7064 42.8438 39.7767 42.645 37.53 42.645V46.645C39.6033 46.645 41.0636 46.8362 42.0105 47.1365L43.2195 43.3235ZM37.53 42.645H29.925V46.645H37.53V42.645ZM31.9161 44.8331L33.5361 27.6881L29.5539 27.3119L27.9339 44.4569L31.9161 44.8331ZM31.545 29.5H50.04V25.5H31.545V29.5ZM48.04 27.5V32.405H52.04V27.5H48.04ZM50.04 30.405H33.705V34.405H50.04V30.405ZM35.0525 33.8829L38.1125 31.0929L35.4175 28.1371L32.3575 30.9271L35.0525 33.8829ZM34.7739 29.4264L33.5589 42.2514L37.5411 42.6286L38.7561 29.8036L34.7739 29.4264ZM36.8855 40.9512L33.8255 38.2062L31.1545 41.1838L34.2145 43.9288L36.8855 40.9512ZM32.49 41.695H38.835V37.695H32.49V41.695ZM38.835 41.695C41.8042 41.695 43.9997 42.099 45.5377 42.7826L47.1623 39.1274C44.9203 38.131 42.1058 37.695 38.835 37.695V41.695ZM45.5726 42.7977C47.1866 43.4786 48.2064 44.3673 48.8138 45.3936L52.2562 43.3564C51.1236 41.4427 49.3534 40.0514 47.1274 39.1123L45.5726 42.7977ZM48.839 45.435C49.5216 46.5271 49.885 47.8028 49.885 49.325H53.885C53.885 47.1272 53.3484 45.1029 52.231 43.315L48.839 45.435ZM49.885 49.325C49.885 50.81 49.5246 52.1381 48.8111 53.351L52.2589 55.379C53.3454 53.5319 53.885 51.5 53.885 49.325H49.885ZM48.8111 53.351C48.1386 54.4942 47.0755 55.4787 45.5006 56.2661L47.2894 59.8439C49.4345 58.7713 51.1314 57.2958 52.2589 55.379L48.8111 53.351ZM45.4889 56.272C44.0245 57.0162 42.0366 57.45 39.42 57.45V61.45C42.4434 61.45 45.1055 60.9538 47.3011 59.838L45.4889 56.272Z" fill="black" fill-opacity="0.8" mask="url(#path-1-outside-1_42_6465)"/>
<circle cx="40.5" cy="40.5" r="39" stroke="#00AEEF" stroke-opacity="0.5" stroke-width="3"/>
</svg>
