<svg width="81" height="81" viewBox="0 0 81 81" fill="none" xmlns="http://www.w3.org/2000/svg">
<mask id="path-1-outside-1_42_6466" maskUnits="userSpaceOnUse" x="25" y="25" width="31" height="37" fill="black">
<rect fill="white" x="25" y="25" width="31" height="37"/>
<path d="M41.615 59.45C38.765 59.45 36.32 58.85 34.28 57.65C32.24 56.42 30.68 54.65 29.6 52.34C28.52 50.03 27.98 47.18 27.98 43.79C27.98 40.19 28.625 37.145 29.915 34.655C31.235 32.165 33.05 30.275 35.36 28.985C37.7 27.695 40.385 27.05 43.415 27.05C45.005 27.05 46.52 27.215 47.96 27.545C49.43 27.875 50.675 28.385 51.695 29.075L49.535 33.485C48.665 32.915 47.72 32.525 46.7 32.315C45.71 32.075 44.66 31.955 43.55 31.955C40.58 31.955 38.225 32.87 36.485 34.7C34.745 36.53 33.875 39.23 33.875 42.8C33.875 43.37 33.89 44.045 33.92 44.825C33.95 45.575 34.055 46.34 34.235 47.12L32.435 45.14C32.975 43.91 33.71 42.89 34.64 42.08C35.6 41.24 36.725 40.61 38.015 40.19C39.335 39.77 40.76 39.56 42.29 39.56C44.36 39.56 46.205 39.965 47.825 40.775C49.445 41.555 50.735 42.68 51.695 44.15C52.655 45.59 53.135 47.285 53.135 49.235C53.135 51.305 52.625 53.105 51.605 54.635C50.585 56.165 49.205 57.35 47.465 58.19C45.725 59.03 43.775 59.45 41.615 59.45ZM41.3 54.86C42.5 54.86 43.565 54.65 44.495 54.23C45.425 53.78 46.145 53.15 46.655 52.34C47.195 51.53 47.465 50.585 47.465 49.505C47.465 47.855 46.895 46.55 45.755 45.59C44.615 44.63 43.085 44.15 41.165 44.15C39.905 44.15 38.795 44.39 37.835 44.87C36.905 45.32 36.155 45.95 35.585 46.76C35.045 47.57 34.775 48.5 34.775 49.55C34.775 50.51 35.03 51.395 35.54 52.205C36.05 53.015 36.785 53.66 37.745 54.14C38.735 54.62 39.92 54.86 41.3 54.86Z"/>
</mask>
<path d="M34.28 57.65L33.2473 59.3628L33.2566 59.3684L33.266 59.3739L34.28 57.65ZM29.6 52.34L31.4118 51.4929L29.6 52.34ZM29.915 34.655L28.1479 33.7182L28.1435 33.7266L28.1392 33.735L29.915 34.655ZM35.36 28.985L34.3944 27.2335L34.3849 27.2388L35.36 28.985ZM47.96 27.545L47.5132 29.4945L47.5219 29.4964L47.96 27.545ZM51.695 29.075L53.4911 29.9547L54.2561 28.3929L52.8156 27.4184L51.695 29.075ZM49.535 33.485L48.4389 35.1579L50.3344 36.3998L51.3311 34.3647L49.535 33.485ZM46.7 32.315L46.2288 34.2587L46.2626 34.2669L46.2967 34.2739L46.7 32.315ZM33.92 44.825L31.9215 44.9019L31.9216 44.9049L33.92 44.825ZM34.235 47.12L32.7551 48.4653L37.9054 54.1307L36.1838 46.6703L34.235 47.12ZM32.435 45.14L30.6037 44.336L30.0818 45.5247L30.9551 46.4853L32.435 45.14ZM34.64 42.08L35.9536 43.5882L35.957 43.5852L34.64 42.08ZM38.015 40.19L37.4086 38.2841L37.3958 38.2883L38.015 40.19ZM47.825 40.775L46.9306 42.5639L46.9439 42.5705L46.9574 42.577L47.825 40.775ZM51.695 44.15L50.0205 45.2436L50.0256 45.2515L50.0309 45.2594L51.695 44.15ZM51.605 54.635L49.9409 53.5256L49.9409 53.5256L51.605 54.635ZM47.465 58.19L48.3345 59.9911L47.465 58.19ZM44.495 54.23L45.3182 56.0527L45.3423 56.0418L45.3661 56.0303L44.495 54.23ZM46.655 52.34L44.9909 51.2306L44.9764 51.2523L44.9625 51.2744L46.655 52.34ZM45.755 45.59L44.4667 47.1198L44.4667 47.1198L45.755 45.59ZM37.835 44.87L38.7061 46.6703L38.7178 46.6647L38.7294 46.6589L37.835 44.87ZM35.585 46.76L33.9494 45.609L33.9349 45.6296L33.9209 45.6506L35.585 46.76ZM35.54 52.205L37.2325 51.1394L37.2325 51.1394L35.54 52.205ZM37.745 54.14L36.8506 55.9289L36.8615 55.9343L36.8725 55.9396L37.745 54.14ZM41.615 57.45C39.0487 57.45 36.9694 56.9116 35.294 55.9261L33.266 59.3739C35.6706 60.7884 38.4813 61.45 41.615 61.45V57.45ZM35.3127 55.9372C33.6368 54.9268 32.3361 53.4701 31.4118 51.4929L27.7882 53.1871C29.0239 55.8299 30.8432 57.9132 33.2473 59.3628L35.3127 55.9372ZM31.4118 51.4929C30.4895 49.5203 29.98 46.9791 29.98 43.79H25.98C25.98 47.3809 26.5505 50.5397 27.7882 53.1871L31.4118 51.4929ZM29.98 43.79C29.98 40.422 30.584 37.7115 31.6908 35.575L28.1392 33.735C26.666 36.5785 25.98 39.958 25.98 43.79H29.98ZM31.6821 35.5918C32.8339 33.419 34.3838 31.8209 36.3351 30.7312L34.3849 27.2388C31.7162 28.7291 29.6361 30.911 28.1479 33.7182L31.6821 35.5918ZM36.3256 30.7365C38.3321 29.6303 40.6768 29.05 43.415 29.05V25.05C40.0932 25.05 37.0679 25.7597 34.3944 27.2335L36.3256 30.7365ZM43.415 29.05C44.866 29.05 46.2305 29.2005 47.5133 29.4945L48.4068 25.5955C46.8095 25.2295 45.144 25.05 43.415 25.05V29.05ZM47.5219 29.4964C48.8008 29.7835 49.802 30.2091 50.5744 30.7316L52.8156 27.4184C51.548 26.5609 50.0592 25.9665 48.3981 25.5936L47.5219 29.4964ZM49.8989 28.1953L47.7389 32.6053L51.3311 34.3647L53.4911 29.9547L49.8989 28.1953ZM50.6311 31.8121C49.55 31.1038 48.3699 30.6168 47.1033 30.3561L46.2967 34.2739C47.0701 34.4332 47.78 34.7262 48.4389 35.1579L50.6311 31.8121ZM47.1712 30.3713C46.0138 30.0907 44.8047 29.955 43.55 29.955V33.955C44.5153 33.955 45.4062 34.0593 46.2288 34.2587L47.1712 30.3713ZM43.55 29.955C40.1369 29.955 37.2197 31.0248 35.0356 33.3219L37.9344 36.0781C39.2303 34.7152 41.0231 33.955 43.55 33.955V29.955ZM35.0356 33.3219C32.8185 35.6537 31.875 38.93 31.875 42.8H35.875C35.875 39.53 36.6715 37.4063 37.9344 36.0781L35.0356 33.3219ZM31.875 42.8C31.875 43.403 31.8908 44.1049 31.9215 44.9019L35.9185 44.7481C35.8892 43.9851 35.875 43.337 35.875 42.8H31.875ZM31.9216 44.9049C31.9569 45.7874 32.08 46.6763 32.2862 47.5697L36.1838 46.6703C36.03 46.0037 35.9431 45.3626 35.9184 44.7451L31.9216 44.9049ZM35.7149 45.7747L33.9149 43.7947L30.9551 46.4853L32.7551 48.4653L35.7149 45.7747ZM34.2663 45.944C34.6985 44.9596 35.2652 44.1877 35.9536 43.5882L33.3264 40.5718C32.1548 41.5923 31.2515 42.8604 30.6037 44.336L34.2663 45.944ZM35.957 43.5852C36.7009 42.9343 37.5846 42.4335 38.6342 42.0917L37.3958 38.2883C35.8654 38.7865 34.4991 39.5457 33.323 40.5748L35.957 43.5852ZM38.6214 42.0959C39.726 41.7444 40.9445 41.56 42.29 41.56V37.56C40.5756 37.56 38.944 37.7956 37.4086 38.2841L38.6214 42.0959ZM42.29 41.56C44.0941 41.56 45.6256 41.9114 46.9306 42.5639L48.7194 38.9861C46.7844 38.0186 44.6259 37.56 42.29 37.56V41.56ZM46.9574 42.577C48.2572 43.2028 49.2648 44.0865 50.0205 45.2436L53.3695 43.0564C52.2052 41.2735 50.6328 39.9072 48.6926 38.973L46.9574 42.577ZM50.0309 45.2594C50.7448 46.3303 51.135 47.6281 51.135 49.235H55.135C55.135 46.9419 54.5652 44.8497 53.3591 43.0406L50.0309 45.2594ZM51.135 49.235C51.135 50.9615 50.715 52.3644 49.9409 53.5256L53.2691 55.7444C54.535 53.8456 55.135 51.6485 55.135 49.235H51.135ZM49.9409 53.5256C49.1294 54.7428 48.0306 55.6961 46.5955 56.3889L48.3345 59.9911C50.3794 59.0039 52.0406 57.5872 53.2691 55.7444L49.9409 53.5256ZM46.5955 56.3889C45.1572 57.0833 43.5097 57.45 41.615 57.45V61.45C44.0403 61.45 46.2928 60.9767 48.3345 59.9911L46.5955 56.3889ZM41.3 56.86C42.7344 56.86 44.0879 56.6083 45.3182 56.0527L43.6718 52.4073C43.0421 52.6917 42.2656 52.86 41.3 52.86V56.86ZM45.3661 56.0303C46.6055 55.4306 47.622 54.5578 48.3475 53.4056L44.9625 51.2744C44.668 51.7422 44.2445 52.1294 43.6239 52.4297L45.3661 56.0303ZM48.3191 53.4494C49.1018 52.2754 49.465 50.935 49.465 49.505H45.465C45.465 50.235 45.2882 50.7846 44.9909 51.2306L48.3191 53.4494ZM49.465 49.505C49.465 47.3363 48.6864 45.4438 47.0433 44.0602L44.4667 47.1198C45.1036 47.6562 45.465 48.3737 45.465 49.505H49.465ZM47.0433 44.0602C45.4492 42.7178 43.4178 42.15 41.165 42.15V46.15C42.7522 46.15 43.7808 46.5422 44.4667 47.1198L47.0433 44.0602ZM41.165 42.15C39.6483 42.15 38.2227 42.4401 36.9406 43.0811L38.7294 46.6589C39.3673 46.3399 40.1617 46.15 41.165 46.15V42.15ZM36.9639 43.0697C35.7417 43.661 34.7235 44.509 33.9494 45.609L37.2206 47.911C37.5865 47.391 38.0683 46.979 38.7061 46.6703L36.9639 43.0697ZM33.9209 45.6506C33.1445 46.8152 32.775 48.1376 32.775 49.55H36.775C36.775 48.8624 36.9455 48.3248 37.2491 47.8694L33.9209 45.6506ZM32.775 49.55C32.775 50.8859 33.136 52.1405 33.8475 53.2706L37.2325 51.1394C36.924 50.6495 36.775 50.1341 36.775 49.55H32.775ZM33.8475 53.2706C34.5753 54.4265 35.6042 55.3056 36.8506 55.9289L38.6394 52.3511C37.9658 52.0144 37.5247 51.6035 37.2325 51.1394L33.8475 53.2706ZM36.8725 55.9396C38.1946 56.5807 39.6926 56.86 41.3 56.86V52.86C40.1474 52.86 39.2754 52.6593 38.6175 52.3404L36.8725 55.9396Z" fill="black" fill-opacity="0.8" mask="url(#path-1-outside-1_42_6466)"/>
<circle cx="40.5" cy="40.5" r="39" stroke="#00AEEF" stroke-opacity="0.5" stroke-width="3"/>
</svg>
