<svg width="81" height="81" viewBox="0 0 81 81" fill="none" xmlns="http://www.w3.org/2000/svg">
<mask id="path-1-outside-1_42_6467" maskUnits="userSpaceOnUse" x="25" y="22" width="29" height="37" fill="black">
<rect fill="white" x="25" y="22" width="29" height="37"/>
<path d="M33.245 57L46.25 27.84L47.78 30.45H29.915L32.705 27.615V35.805H27.26V25.5H51.74V29.415L39.5 57H33.245Z"/>
</mask>
<path d="M33.245 57L31.4184 56.1854L30.1631 59H33.245V57ZM46.25 27.84L47.9754 26.8286L46.008 23.4724L44.4234 27.0254L46.25 27.84ZM47.78 30.45V32.45H51.2707L49.5054 29.4386L47.78 30.45ZM29.915 30.45L28.4895 29.0471L25.1407 32.45H29.915V30.45ZM32.705 27.615H34.705V22.7314L31.2795 26.2121L32.705 27.615ZM32.705 35.805V37.805H34.705V35.805H32.705ZM27.26 35.805H25.26V37.805H27.26V35.805ZM27.26 25.5V23.5H25.26V25.5H27.26ZM51.74 25.5H53.74V23.5H51.74V25.5ZM51.74 29.415L53.5681 30.2262L53.74 29.8388V29.415H51.74ZM39.5 57V59H40.8006L41.3281 57.8112L39.5 57ZM35.0716 57.8146L48.0766 28.6546L44.4234 27.0254L31.4184 56.1854L35.0716 57.8146ZM44.5246 28.8514L46.0546 31.4614L49.5054 29.4386L47.9754 26.8286L44.5246 28.8514ZM47.78 28.45H29.915V32.45H47.78V28.45ZM31.3405 31.8529L34.1305 29.0179L31.2795 26.2121L28.4895 29.0471L31.3405 31.8529ZM30.705 27.615V35.805H34.705V27.615H30.705ZM32.705 33.805H27.26V37.805H32.705V33.805ZM29.26 35.805V25.5H25.26V35.805H29.26ZM27.26 27.5H51.74V23.5H27.26V27.5ZM49.74 25.5V29.415H53.74V25.5H49.74ZM49.9119 28.6038L37.6719 56.1888L41.3281 57.8112L53.5681 30.2262L49.9119 28.6038ZM39.5 55H33.245V59H39.5V55Z" fill="black" fill-opacity="0.8" mask="url(#path-1-outside-1_42_6467)"/>
<circle cx="40.5" cy="40.5" r="39" stroke="#00AEEF" stroke-opacity="0.5" stroke-width="3"/>
</svg>
