<svg width="24" height="24" viewBox="0 0 24 24" fill="none" xmlns="http://www.w3.org/2000/svg">
<g id="ic:round-navigate-next">
<path id="Vector" opacity="0.8" d="M9.30807 6.70782C9.21537 6.80034 9.14182 6.91023 9.09164 7.0312C9.04146 7.15217 9.01562 7.28186 9.01562 7.41282C9.01562 7.54379 9.04146 7.67348 9.09164 7.79445C9.14182 7.91542 9.21537 8.02531 9.30807 8.11782L13.1881 11.9978L9.30807 15.8778C9.12109 16.0648 9.01605 16.3184 9.01605 16.5828C9.01605 16.8472 9.12109 17.1008 9.30807 17.2878C9.49505 17.4748 9.74864 17.5798 10.0131 17.5798C10.2775 17.5798 10.5311 17.4748 10.7181 17.2878L15.3081 12.6978C15.4008 12.6053 15.4743 12.4954 15.5245 12.3744C15.5747 12.2535 15.6005 12.1238 15.6005 11.9928C15.6005 11.8619 15.5747 11.7322 15.5245 11.6112C15.4743 11.4902 15.4008 11.3803 15.3081 11.2878L10.7181 6.69782C10.3381 6.31782 9.69807 6.31782 9.30807 6.70782Z" fill="black"/>
<rect x="0.25" y="0.25" width="23.5" height="23.5" rx="4.75" stroke="black" stroke-width="0.5"/>
</g>
</svg>
