<svg width="105" height="105" viewBox="0 0 105 105" fill="none" xmlns="http://www.w3.org/2000/svg">
<g id="Group 3968">
<g id="Group" filter="url(#filter0_d_548_2382)">
<path id="Vector" d="M66.25 15H38.75C31.1561 15 25 21.1561 25 28.75V56.25C25 63.8439 31.1561 70 38.75 70H66.25C73.8439 70 80 63.8439 80 56.25V28.75C80 21.1561 73.8439 15 66.25 15Z" fill="url(#paint0_linear_548_2382)"/>
</g>
<path id="Vector_2" d="M63.746 46.7298C62.2421 45.3064 61.094 43.8092 61.094 38.7335C61.094 34.4568 57.6899 30.9723 53.3593 30.5494V29.6094C53.3593 29.1327 52.9766 28.75 52.5 28.75C52.0233 28.75 51.6406 29.1327 51.6406 29.6094V30.5494C47.31 30.9723 43.906 34.4568 43.906 38.7335C43.906 43.8092 42.7578 45.3064 41.2539 46.7298C40.502 47.4481 40.267 48.529 40.6497 49.4824C41.0391 50.4626 41.9791 51.0938 43.0466 51.0938H61.9533C63.0209 51.0938 63.9608 50.4626 64.3502 49.4824C64.7329 48.529 64.4979 47.4481 63.746 46.7298ZM61.9533 49.375H43.0466C42.2811 49.375 41.8984 48.4888 42.4356 47.9785C44.3088 46.1926 45.6248 44.1986 45.6248 38.7335C45.6248 35.1147 48.6998 32.1875 52.5 32.1875C56.3001 32.1875 59.3752 35.1147 59.3752 38.7335C59.3752 44.1784 60.6777 46.1859 62.5644 47.9785C63.1015 48.4955 62.7121 49.375 61.9533 49.375ZM55.094 52.8125C54.6945 52.8125 54.3145 53.0352 54.1781 53.3968C53.9288 54.0573 53.2699 54.5312 52.4997 54.5312C51.7294 54.5312 51.0704 54.0573 50.8212 53.3968C50.6848 53.0352 50.3048 52.8125 49.9053 52.8125H49.9052C49.3352 52.8125 48.9271 53.3495 49.1035 53.8715C49.5691 55.2494 50.9168 56.25 52.4997 56.25C54.0823 56.25 55.4302 55.2494 55.8957 53.8715C56.072 53.3495 55.6641 52.8125 55.094 52.8125Z" fill="white"/>
</g>
<defs>
<filter id="filter0_d_548_2382" x="0" y="0" width="105" height="105" filterUnits="userSpaceOnUse" color-interpolation-filters="sRGB">
<feFlood flood-opacity="0" result="BackgroundImageFix"/>
<feColorMatrix in="SourceAlpha" type="matrix" values="0 0 0 0 0 0 0 0 0 0 0 0 0 0 0 0 0 0 127 0" result="hardAlpha"/>
<feOffset dy="10"/>
<feGaussianBlur stdDeviation="12.5"/>
<feColorMatrix type="matrix" values="0 0 0 0 0.528569 0 0 0 0 0.423125 0 0 0 0 0.75 0 0 0 0.41 0"/>
<feBlend mode="normal" in2="BackgroundImageFix" result="effect1_dropShadow_548_2382"/>
<feBlend mode="normal" in="SourceGraphic" in2="effect1_dropShadow_548_2382" result="shape"/>
</filter>
<linearGradient id="paint0_linear_548_2382" x1="1.79687" y1="-6.48435" x2="110.328" y2="78.671" gradientUnits="userSpaceOnUse">
<stop stop-color="#E688C6"/>
<stop offset="1" stop-color="#A688E6"/>
</linearGradient>
</defs>
</svg>
