<svg width="32" height="32" viewBox="0 0 32 32" fill="none" xmlns="http://www.w3.org/2000/svg">
<g id="mdi:bell">
<path id="Vector" d="M28 25.3307V26.6641H4V25.3307L6.66667 22.6641V14.6641C6.66667 10.5307 9.37333 6.89073 13.3333 5.7174V5.33073C13.3333 4.62349 13.6143 3.94521 14.1144 3.44511C14.6145 2.94501 15.2928 2.66406 16 2.66406C16.7072 2.66406 17.3855 2.94501 17.8856 3.44511C18.3857 3.94521 18.6667 4.62349 18.6667 5.33073V5.7174C22.6267 6.89073 25.3333 10.5307 25.3333 14.6641V22.6641L28 25.3307ZM18.6667 27.9974C18.6667 28.7046 18.3857 29.3829 17.8856 29.883C17.3855 30.3831 16.7072 30.6641 16 30.6641C15.2928 30.6641 14.6145 30.3831 14.1144 29.883C13.6143 29.3829 13.3333 28.7046 13.3333 27.9974" fill="#111111"/>
</g>
</svg>
