<svg width="20" height="20" viewBox="0 0 20 20" fill="none" xmlns="http://www.w3.org/2000/svg">
<path d="M8.591 0.274771C9.49461 -0.0915902 10.5054 -0.0915902 11.409 0.274771L18.907 3.31477C19.23 3.44559 19.5065 3.66985 19.7013 3.95882C19.896 4.24779 20 4.58831 20 4.93677V14.5898C19.9998 14.9381 19.8957 15.2784 19.701 15.5671C19.5063 15.8559 19.2298 16.08 18.907 16.2108L11.409 19.2508C10.5054 19.6171 9.49461 19.6171 8.591 19.2508L1.093 16.2108C0.770033 16.0799 0.493473 15.8557 0.298748 15.5667C0.104022 15.2778 -2.02553e-06 14.9372 0 14.5888V4.93777C-2.02553e-06 4.58931 0.104022 4.24879 0.298748 3.95982C0.493473 3.67085 0.770033 3.44659 1.093 3.31577L8.591 0.275771V0.274771ZM10.845 1.66477C10.3031 1.44517 9.69693 1.44517 9.155 1.66477L7.24 2.44177L14.767 5.36877L17.436 4.33877L10.844 1.66577L10.845 1.66477ZM12.691 6.16977L5.215 3.26177L2.59 4.32577L10.001 7.20777L12.691 6.16977ZM1.5 14.5898C1.50013 14.6394 1.51504 14.6879 1.54282 14.729C1.5706 14.7702 1.61 14.8021 1.656 14.8208L9.155 17.8608C9.186 17.8738 9.218 17.8858 9.25 17.8968V8.52577L1.5 5.51177V14.5898ZM10.845 17.8608L18.344 14.8208C18.3902 14.802 18.4297 14.77 18.4575 14.7286C18.4853 14.6873 18.5001 14.6386 18.5 14.5888V5.53577L10.75 8.52777V17.8978C10.7819 17.8865 10.8136 17.8745 10.845 17.8618V17.8608Z" fill="#BABABA"/>
</svg>
