<svg width="105" height="103" viewBox="0 0 105 103" fill="none" xmlns="http://www.w3.org/2000/svg">
<g id="Group 3965">
<g id="Group" filter="url(#filter0_d_548_2369)">
<path id="Vector" d="M66.25 15H38.75C31.1561 15 25 20.9322 25 28.25V54.75C25 62.0678 31.1561 68 38.75 68H66.25C73.8439 68 80 62.0678 80 54.75V28.25C80 20.9322 73.8439 15 66.25 15Z" fill="url(#paint0_linear_548_2369)"/>
</g>
<path id="Vector_2" d="M61.8005 34.7389L56.0858 29.2311C55.4419 28.6104 54.5684 28.2617 53.6576 28.2617H45.6369C43.7405 28.2617 42.2031 29.7435 42.2031 31.5713V51.4288C42.2031 53.2566 43.7405 54.7384 45.6369 54.7384H59.3723C61.2689 54.7384 62.8062 53.2566 62.8062 51.4288V37.0792C62.8062 36.2014 62.4444 35.3597 61.8005 34.7389ZM54.2216 30.0239C54.4618 30.1049 54.6865 30.2227 54.8718 30.4013L60.5864 35.9089C60.7716 36.0874 60.8938 36.3041 60.9779 36.5357H55.08C54.6073 36.5357 54.2216 36.1648 54.2216 35.7083V30.0239ZM61.0893 51.4288C61.0893 52.3413 60.3191 53.0836 59.3723 53.0836H45.6369C44.6902 53.0836 43.9201 52.3413 43.9201 51.4288V31.5713C43.9201 30.6588 44.6902 29.9166 45.6369 29.9166H52.5046V35.7083C52.5046 37.077 53.6599 38.1904 55.08 38.1904H61.0893V51.4288ZM47.3539 46.4644C46.8794 46.4644 46.4954 46.8345 46.4954 47.2918V50.6014C46.4954 51.0588 46.8794 51.4288 47.3539 51.4288C47.8284 51.4288 48.2123 51.0588 48.2123 50.6014V47.2918C48.2123 46.8345 47.8284 46.4644 47.3539 46.4644ZM52.5046 39.8453C52.0302 39.8453 51.6462 40.2153 51.6462 40.6727V50.6014C51.6462 51.0588 52.0302 51.4288 52.5046 51.4288C52.9792 51.4288 53.3631 51.0588 53.3631 50.6014V40.6727C53.3631 40.2153 52.9792 39.8453 52.5046 39.8453ZM57.6554 51.4288C58.1299 51.4288 58.5139 51.0588 58.5139 50.6014V43.9823C58.5139 43.5249 58.1299 43.1548 57.6554 43.1548C57.1809 43.1548 56.7969 43.5249 56.7969 43.9823V50.6014C56.7969 51.0588 57.1809 51.4288 57.6554 51.4288Z" fill="white"/>
</g>
<defs>
<filter id="filter0_d_548_2369" x="0" y="0" width="105" height="103" filterUnits="userSpaceOnUse" color-interpolation-filters="sRGB">
<feFlood flood-opacity="0" result="BackgroundImageFix"/>
<feColorMatrix in="SourceAlpha" type="matrix" values="0 0 0 0 0 0 0 0 0 0 0 0 0 0 0 0 0 0 127 0" result="hardAlpha"/>
<feOffset dy="10"/>
<feGaussianBlur stdDeviation="12.5"/>
<feColorMatrix type="matrix" values="0 0 0 0 1 0 0 0 0 0.725208 0 0 0 0 0.570638 0 0 0 0.5 0"/>
<feBlend mode="normal" in2="BackgroundImageFix" result="effect1_dropShadow_548_2369"/>
<feBlend mode="normal" in="SourceGraphic" in2="effect1_dropShadow_548_2369" result="shape"/>
</filter>
<linearGradient id="paint0_linear_548_2369" x1="26.7187" y1="13.3441" x2="77.9671" y2="68.2419" gradientUnits="userSpaceOnUse">
<stop stop-color="#FDD1AD"/>
<stop offset="1" stop-color="#F9A662"/>
</linearGradient>
</defs>
</svg>
