<svg width="52" height="44" viewBox="0 0 52 44" fill="none" xmlns="http://www.w3.org/2000/svg">
<g clip-path="url(#clip0_23_594)">
<path d="M40.5655 28.8158C39.7066 28.441 38.8098 28.1619 37.8909 27.9835C37.27 27.837 36.6594 27.6492 36.0632 27.4211C35.7081 27.296 35.3873 27.0879 35.1271 26.8138C34.9272 26.5759 34.8237 26.2706 34.8373 25.959C34.8251 25.7332 34.8722 25.5081 34.974 25.3066C35.0758 25.1051 35.2285 24.9344 35.4168 24.8117C35.9009 24.521 36.4589 24.3802 37.0216 24.4068C37.5696 24.3864 38.1116 24.5271 38.5818 24.8117C38.7684 24.9184 38.9304 25.0637 39.0572 25.2382C39.184 25.4127 39.2727 25.6124 39.3174 25.824C39.3596 25.9302 39.4342 26.0201 39.5303 26.0808C39.6265 26.1414 39.7392 26.1697 39.8523 26.1614H41.6131C41.6667 26.1647 41.7203 26.1565 41.7704 26.1373C41.8206 26.1181 41.8661 26.0884 41.904 26.0501C41.942 26.0118 41.9714 25.9659 41.9904 25.9153C42.0094 25.8647 42.0176 25.8105 42.0143 25.7565C41.9729 25.2497 41.8041 24.762 41.524 24.3393C41.1856 23.8185 40.7364 23.3804 40.2089 23.0571C39.5775 22.6691 38.8704 22.4236 38.1361 22.3373V21.0101C38.1393 20.9502 38.1299 20.8902 38.1087 20.8342C38.0874 20.7781 38.0547 20.7272 38.0126 20.6848C37.9706 20.6423 37.9201 20.6093 37.8646 20.5878C37.8091 20.5664 37.7497 20.5569 37.6903 20.5602H36.5313C36.4168 20.5558 36.305 20.5961 36.2192 20.6727C36.1737 20.7155 36.1382 20.768 36.115 20.8263C36.0919 20.8846 36.0818 20.9474 36.0855 21.0101V22.3148C35.0186 22.398 34.0084 22.8327 33.2102 23.552C32.8724 23.8664 32.6044 24.2495 32.4238 24.676C32.2432 25.1025 32.1542 25.5627 32.1626 26.0265C32.1344 26.4906 32.2122 26.9551 32.3899 27.3841C32.5677 27.8131 32.8407 28.1952 33.1879 28.5009C34.1411 29.2021 35.2378 29.6786 36.3975 29.8956C37.2742 30.1355 37.9429 30.338 38.4035 30.5029C38.7827 30.6219 39.1322 30.8213 39.4288 31.0878C39.5399 31.1993 39.627 31.3328 39.6845 31.4799C39.742 31.627 39.7688 31.7846 39.7631 31.9426C39.7689 32.1868 39.71 32.4282 39.5924 32.6417C39.4749 32.8553 39.303 33.0333 39.0945 33.1573C38.5044 33.4923 37.8311 33.6485 37.1553 33.6072C36.5255 33.6407 35.8993 33.4924 35.3499 33.1798C34.9416 32.9364 34.6332 32.5533 34.4807 32.1001C34.4252 31.9958 34.3494 31.904 34.2578 31.8301C34.1486 31.7983 34.0327 31.7983 33.9235 31.8301H32.2518C32.1985 31.8285 32.1454 31.8376 32.0957 31.8569C32.0459 31.8763 32.0005 31.9054 31.962 31.9426C31.8909 32.0141 31.8508 32.1112 31.8506 32.2125C31.8789 32.7916 32.0639 33.3518 32.3855 33.8322C32.7546 34.3751 33.2527 34.816 33.8343 35.1144C34.5279 35.4768 35.2851 35.6984 36.0632 35.7667V37.0714C36.0595 37.1341 36.0696 37.1969 36.0928 37.2552C36.1159 37.3135 36.1514 37.366 36.1969 37.4089C36.2828 37.4854 36.3945 37.5257 36.509 37.5213H37.668C37.7274 37.5246 37.7868 37.5152 37.8423 37.4937C37.8979 37.4723 37.9483 37.4392 37.9903 37.3968C38.0324 37.3543 38.0651 37.3034 38.0864 37.2474C38.1077 37.1913 38.117 37.1314 38.1138 37.0714V35.7667C39.261 35.7013 40.3595 35.2767 41.2565 34.552C41.6356 34.2265 41.9368 33.8186 42.1375 33.3589C42.3382 32.8992 42.4333 32.3996 42.4155 31.8976C42.4403 31.257 42.2775 30.6233 41.9475 30.0755C41.6106 29.5351 41.1324 29.0992 40.5655 28.8158Z" fill="white"/>
<path d="M37.1556 14.0368H31.4719V8.25562C31.4719 7.95732 31.3545 7.67124 31.1455 7.46031C30.9365 7.24938 30.653 7.13088 30.3575 7.13088H28.9756V1.12474C28.9756 0.826444 28.8582 0.540361 28.6492 0.32943C28.4402 0.1185 28.1567 0 27.8611 0L1.11444 0C0.818876 0 0.535412 0.1185 0.326413 0.32943C0.117414 0.540361 0 0.826444 0 1.12474L0 8.03067C0 8.17838 0.028826 8.32464 0.0848321 8.4611C0.140838 8.59756 0.222928 8.72155 0.326413 8.82599C0.429899 8.93043 0.552755 9.01328 0.687965 9.0698C0.823176 9.12633 0.968094 9.15542 1.11444 9.15542H2.58551V15.1616C2.58551 15.4599 2.70293 15.7459 2.91193 15.9569C3.12092 16.1678 3.40439 16.2863 3.69996 16.2863H4.8144V20.9652H1.47107C1.1755 20.9652 0.892035 21.0837 0.683036 21.2947C0.474037 21.5056 0.356622 21.7917 0.356622 22.09V42.7403C0.356622 43.0386 0.474037 43.3247 0.683036 43.5356C0.892035 43.7465 1.1755 43.865 1.47107 43.865H28.2177C28.5133 43.865 28.7968 43.7465 29.0058 43.5356C29.2148 43.3247 29.3322 43.0386 29.3322 42.7403V41.593C31.279 42.8649 33.494 43.6587 35.7997 43.9108C38.1053 44.1629 40.4373 43.8664 42.6089 43.0448C44.7805 42.2233 46.7311 40.8998 48.3044 39.1802C49.8778 37.4607 51.03 35.393 51.6688 33.143C52.3076 30.893 52.4152 28.5233 51.9829 26.2237C51.5506 23.9242 50.5905 21.7589 49.1795 19.9014C47.7685 18.0439 45.9459 16.5459 43.8579 15.5274C41.7698 14.509 39.4744 13.9985 37.1556 14.0368ZM2.22889 2.24949H26.7467V6.90593H2.22889V2.24949ZM4.8144 9.38037H29.3322V14.0368H4.8144V9.38037ZM7.04329 16.2863H29.3322C27.4487 17.4684 25.8498 19.059 24.6515 20.9427H7.04329V16.2863ZM22.6455 34.7771H2.58551V30.1207H22.2889C22.4015 31.7221 22.7703 33.2946 23.3811 34.7771H22.6455ZM2.58551 23.1922H23.4702C22.8518 24.6734 22.4754 26.2459 22.3558 27.8487H2.58551V23.1922ZM27.1033 41.683H2.58551V37.0266H24.6292C25.3001 38.0912 26.1014 39.0662 27.0141 39.9284L27.1033 41.683ZM37.2447 41.683C35.037 41.6852 32.8677 41.1006 30.9549 39.988C29.0421 38.8754 27.4534 37.274 26.3486 35.3449C25.2438 33.4159 24.6618 31.2272 24.6613 28.9991C24.6607 26.7709 25.2416 24.582 26.3455 22.6524C26.3896 22.589 26.4269 22.5211 26.4569 22.4499C27.5899 20.5514 29.196 18.9856 31.1151 17.9084C33.0342 16.8311 35.1994 16.28 37.3952 16.31C39.591 16.3399 41.7406 16.9498 43.6302 18.079C45.5198 19.2082 47.0833 20.8172 48.1651 22.7459C49.2469 24.6746 49.8092 26.8556 49.7961 29.0718C49.7829 31.2881 49.1948 33.4622 48.0902 35.3776C46.9856 37.2931 45.4031 38.8831 43.5003 39.9894C41.5975 41.0957 39.4407 41.6796 37.2447 41.683Z" fill="white"/>
</g>
<defs>
<clipPath id="clip0_23_594">
<rect width="52" height="44" fill="white"/>
</clipPath>
</defs>
</svg>
