<svg width="105" height="105" viewBox="0 0 105 105" fill="none" xmlns="http://www.w3.org/2000/svg">
<g id="Group 3966">
<g id="Group" filter="url(#filter0_d_548_2377)">
<path id="Vector" d="M66.25 15H38.75C31.1561 15 25 21.1561 25 28.75V56.25C25 63.8439 31.1561 70 38.75 70H66.25C73.8439 70 80 63.8439 80 56.25V28.75C80 21.1561 73.8439 15 66.25 15Z" fill="url(#paint0_linear_548_2377)"/>
</g>
<g id="Group_2">
<path id="Vector_2" d="M65.4389 32.2736C63.7739 31.4553 62.1035 31.1406 60.4385 31.1406C55.148 31.1406 49.852 34.2815 44.5615 34.2815C43.2348 34.2815 41.9082 34.08 40.5816 33.5891C40.4312 33.5324 40.2807 33.5073 40.1357 33.5073C39.3945 33.5073 38.75 34.1807 38.75 35.106V51.0871C38.75 51.7228 39.0615 52.3208 39.5611 52.5662C41.2261 53.3845 42.8965 53.6992 44.5615 53.6992C49.852 53.6992 55.148 50.5584 60.4385 50.5584C61.7651 50.5584 63.0918 50.7598 64.4184 51.2508C64.5688 51.3074 64.7192 51.3326 64.8643 51.3326C65.6055 51.3326 66.25 50.6591 66.25 49.7275V33.7528C66.25 33.117 65.9385 32.5191 65.4389 32.2736ZM40.2848 35.1848C41.2593 35.5264 42.2578 35.7371 43.3029 35.8318C43.1493 37.4565 41.8621 38.7335 40.2832 38.7365L40.2848 35.1848ZM40.2844 51.1435C40.2807 51.1287 40.2778 51.1095 40.2778 51.0871L40.2787 49.2107C41.8248 49.2111 43.093 50.4337 43.2926 52.0087C42.2311 51.883 41.2362 51.601 40.2844 51.1435ZM64.7142 49.6546C63.7365 49.3121 62.735 49.1009 61.6862 49.0067C61.788 47.3281 63.1008 45.9921 64.7161 45.9886L64.7142 49.6546ZM64.717 44.3772C62.2717 44.3803 60.2861 46.4176 60.1624 48.9654C57.4029 49.0166 54.7009 49.802 52.0864 50.5777C49.563 51.3263 47.1758 52.0195 44.8263 52.0696C44.6464 49.5769 42.6878 47.6005 40.2793 47.5995L40.2825 40.3479C42.6907 40.3452 44.6481 38.3681 44.8265 35.8751C47.59 35.8259 50.2957 35.0388 52.9137 34.2621C55.4272 33.5165 57.8057 32.8271 60.1464 32.7721C60.1869 35.4005 62.2189 37.5272 64.7204 37.5283L64.717 44.3772ZM64.7211 35.917C63.0801 35.9165 61.7467 34.5412 61.6793 32.8267C62.7517 32.9504 63.7553 33.2348 64.7156 33.6961C64.7193 33.711 64.7222 33.7304 64.7222 33.7528L64.7211 35.917ZM52.5 36.7803C49.9726 36.7803 47.9167 39.3105 47.9167 42.4199C47.9167 45.5293 49.9726 48.0596 52.5 48.0596C55.0274 48.0596 57.0833 45.5293 57.0833 42.4199C57.0833 39.3105 55.0274 36.7803 52.5 36.7803ZM52.5 46.4482C50.8149 46.4482 49.4444 44.641 49.4444 42.4199C49.4444 40.1989 50.8149 38.3916 52.5 38.3916C54.1851 38.3916 55.5556 40.1989 55.5556 42.4199C55.5556 44.641 54.1851 46.4482 52.5 46.4482Z" fill="white"/>
</g>
</g>
<defs>
<filter id="filter0_d_548_2377" x="0" y="0" width="105" height="105" filterUnits="userSpaceOnUse" color-interpolation-filters="sRGB">
<feFlood flood-opacity="0" result="BackgroundImageFix"/>
<feColorMatrix in="SourceAlpha" type="matrix" values="0 0 0 0 0 0 0 0 0 0 0 0 0 0 0 0 0 0 127 0" result="hardAlpha"/>
<feOffset dy="10"/>
<feGaussianBlur stdDeviation="12.5"/>
<feColorMatrix type="matrix" values="0 0 0 0 0.309804 0 0 0 0 0.94902 0 0 0 0 0.298039 0 0 0 0.35 0"/>
<feBlend mode="normal" in2="BackgroundImageFix" result="effect1_dropShadow_548_2377"/>
<feBlend mode="normal" in="SourceGraphic" in2="effect1_dropShadow_548_2377" result="shape"/>
</filter>
<linearGradient id="paint0_linear_548_2377" x1="80" y1="0.743136" x2="-4.50442" y2="55.7296" gradientUnits="userSpaceOnUse">
<stop stop-color="#8FDF8E"/>
<stop offset="1" stop-color="#46D543"/>
</linearGradient>
</defs>
</svg>
