<svg width="53" height="54" viewBox="0 0 53 54" fill="none" xmlns="http://www.w3.org/2000/svg">
<path d="M25.8053 41.9729C30.9051 41.9729 36.0049 41.9729 41.1047 41.9729C43.3423 41.9729 44.9834 40.3306 44.9869 38.093C44.9869 35.583 45.0013 33.0729 44.9786 30.5629C44.9726 29.811 45.2176 29.2636 45.8906 28.8967C46.3448 28.6576 46.7535 28.3253 47.2054 28.066C47.8448 27.6954 48.4329 27.9464 48.6277 28.6636C48.6862 28.9146 48.7119 29.1721 48.7042 29.4298C48.7042 33.8319 48.6935 38.2341 48.7233 42.635C48.7378 43.2066 48.8679 43.7694 49.1058 44.2893C49.6975 45.5933 50.3011 46.9033 51.0314 48.1309C52.4382 50.4915 51.1509 53.3554 47.8377 53.3422C43.2371 53.3219 38.6341 53.3422 34.0347 53.3422H31.7637C31.1888 53.3422 30.7358 53.1498 30.4083 52.637C29.8752 51.8003 29.1019 51.4071 28.0943 51.4226C26.5608 51.4477 25.0272 51.4393 23.4937 51.4226C22.5375 51.4142 21.7761 51.7884 21.2454 52.5545C20.8354 53.145 20.3179 53.3482 19.6234 53.347C14.3452 53.3338 9.06687 53.347 3.78859 53.3374C2.88138 53.3374 2.00167 53.1964 1.25582 52.6131C0.0127494 51.6461 -0.349416 50.1007 0.358181 48.6448C1.04665 47.2296 1.80325 45.8479 2.45228 44.416C2.72459 43.83 2.87505 43.1948 2.89453 42.549C2.92441 35.1192 2.91126 27.6895 2.91365 20.2597C2.91365 17.7568 4.24279 15.8862 6.39785 15.3878C6.92149 15.2697 7.45673 15.2108 7.99353 15.2121C13.2527 15.2001 18.5118 15.2001 23.771 15.2121C25.4145 15.2121 26.2643 16.5341 25.5711 18.0281C25.2304 18.7644 24.5659 18.927 23.8272 18.927H12.1746C10.6602 18.927 9.14696 18.927 7.63256 18.927C6.88432 18.927 6.63093 19.1816 6.63093 19.931C6.63093 26.0667 6.63093 32.2024 6.63093 38.3381C6.63093 40.278 8.36525 41.9788 10.3267 41.9824C15.487 41.9816 20.6466 41.9784 25.8053 41.9729Z" fill="#606060"/>
<path d="M29.6893 10.7264C29.6893 8.89363 29.6893 7.06089 29.6893 5.22815C29.6893 4.15959 29.9869 3.7771 31.0387 3.62769C34.2373 3.1711 37.1872 2.04397 39.9327 0.364624C40.706 -0.107505 41.4495 -0.125434 42.2348 0.335938C45.0759 2.00094 48.0916 3.19501 51.3761 3.62052C52.1196 3.71734 52.5188 4.16317 52.5224 4.92097C52.5355 8.74582 52.5726 12.5707 52.5104 16.3955C52.4722 18.6988 51.4192 20.4941 49.4494 21.7587C47.4174 23.0603 45.4381 24.4277 43.4288 25.758C41.8893 26.7776 40.3403 26.7847 38.7972 25.758C36.7748 24.4133 34.7703 23.0412 32.7288 21.724C30.6873 20.4068 29.7215 18.4968 29.6941 16.1063C29.6737 14.3122 29.6893 12.5193 29.6893 10.7264ZM40.3367 17.1151L40.4168 17.268C40.8949 17.023 41.459 16.8712 41.832 16.5174C43.3858 15.0341 44.8918 13.4946 46.405 11.9671C46.6116 11.7632 46.7684 11.5145 46.8633 11.2403C46.9583 10.9661 46.9888 10.6736 46.9525 10.3857C46.8688 9.58609 46.4457 9.0016 45.6915 8.71235C45.3297 8.5588 44.9297 8.51968 44.5451 8.60024C44.1604 8.68079 43.8097 8.87717 43.54 9.16296C42.5415 10.1359 41.5563 11.1216 40.5841 12.12C40.3223 12.389 40.118 12.4356 39.8371 12.1786C39.6892 12.0448 39.5234 11.9322 39.3446 11.8439C38.5976 11.471 37.8577 11.5356 37.2123 12.04C36.5668 12.5444 36.2895 13.2113 36.4951 14.0444C36.7342 15.0138 39.2227 17.0768 40.2148 17.1103C40.2578 17.1162 40.2972 17.1151 40.3367 17.1151Z" fill="#00AEEF"/>
<path d="M25.0311 34.3265C25.569 34.3265 26.1069 34.3384 26.6435 34.3265C27.2412 34.3097 27.4169 34.0635 27.4169 33.3141C27.4169 32.585 27.2232 32.3363 26.6268 32.3101C25.814 32.2754 24.9905 32.3101 24.1896 32.1965C22.0597 31.8893 20.5501 30.1179 20.4843 27.9378C20.409 25.4086 21.4322 23.9097 23.8048 23.0372C24.0159 22.9367 24.2005 22.7881 24.3438 22.6033C25.1208 21.7224 26.2718 21.6471 27.0631 22.491C27.344 22.791 27.6308 22.8328 27.9966 22.8806C28.4962 22.9452 29.0364 23.0336 29.456 23.2846C30.1421 23.6922 30.3692 24.5576 30.1265 25.2867C29.8767 26.0361 29.1416 26.5537 28.2237 26.5728C27.1886 26.5943 26.1523 26.5728 25.116 26.5788C24.3773 26.5788 24.2016 26.776 24.2004 27.5637C24.2004 28.4003 24.3773 28.5832 25.1339 28.6023C25.8905 28.6215 26.6507 28.6023 27.3942 28.7063C29.5456 29.0087 31.0803 30.7945 31.1317 32.9961C31.1915 35.5277 30.197 36.9692 27.785 37.8812C27.591 37.9724 27.4211 38.1079 27.289 38.2768C26.4654 39.2187 25.3765 39.2474 24.4729 38.376C24.2972 38.2063 24.0092 38.137 23.7629 38.0605C23.6362 38.0186 23.4856 38.0605 23.347 38.0509C22.1852 37.9792 21.4274 37.2441 21.425 36.1887C21.4226 35.1333 22.1792 34.3958 23.3542 34.3432C23.9112 34.3181 24.4693 34.3432 25.0275 34.3432L25.0311 34.3265Z" fill="#606060"/>
</svg>
