<svg width="44" height="12" viewBox="0 0 44 12" fill="none" xmlns="http://www.w3.org/2000/svg">
<g clip-path="url(#clip0_664_89455)">
<path fill-rule="evenodd" clip-rule="evenodd" d="M4.26911 3.44531H7.24338C8.8403 3.44531 9.44144 4.27955 9.34855 5.50516C9.195 7.52855 8.00959 8.648 6.43724 8.648H5.64338C5.42765 8.648 5.28254 8.79536 5.22419 9.19465L4.88715 11.5159C4.86489 11.6665 4.78811 11.7536 4.67295 11.7655H2.80424C2.62843 11.7655 2.56624 11.6269 2.61231 11.3266L3.75165 3.88501C3.79618 3.58713 3.95433 3.44531 4.26911 3.44531Z" fill="#009EE3"/>
<path fill-rule="evenodd" clip-rule="evenodd" d="M17.1846 3.30469C18.188 3.30469 19.114 3.86639 18.9873 5.26629C18.8337 6.93001 17.97 7.8506 16.6073 7.85456H15.4165C15.2453 7.85456 15.1623 7.99875 15.1178 8.29426L14.8875 9.80508C14.8529 10.0332 14.7393 10.1457 14.5719 10.1457H13.4641C13.2875 10.1457 13.2261 10.0293 13.2652 9.76863L14.1796 3.71349C14.2249 3.4156 14.3332 3.30469 14.5305 3.30469H17.1823H17.1846ZM15.3804 6.54656H16.2825C16.8468 6.52438 17.2215 6.12113 17.2591 5.39384C17.2821 4.94464 16.9881 4.62299 16.5205 4.62536L15.6714 4.62933L15.3804 6.54656ZM21.9992 9.68228C22.1005 9.58721 22.2034 9.53809 22.1888 9.65534L22.1527 9.9358C22.1343 10.0824 22.1903 10.16 22.3224 10.16H23.3066C23.4725 10.16 23.5531 10.0911 23.5938 9.82647L24.2003 5.8985C24.231 5.70123 24.1842 5.60458 24.0391 5.60458H22.9565C22.859 5.60458 22.8114 5.66083 22.7861 5.81453L22.7462 6.05616C22.7255 6.18213 22.6694 6.20431 22.6172 6.07755C22.4337 5.62914 21.9654 5.42791 21.312 5.44376C19.7942 5.47624 18.7708 6.6654 18.661 8.18968C18.5765 9.36855 19.395 10.2947 20.4744 10.2947C21.2575 10.2947 21.6076 10.057 22.0022 9.68465L21.9992 9.68228ZM21.1746 9.07779C20.5212 9.07779 20.066 8.53986 20.1604 7.88071C20.2548 7.22156 20.866 6.68362 21.5193 6.68362C22.1727 6.68362 22.6279 7.22156 22.5335 7.88071C22.4391 8.53986 21.8287 9.07779 21.1746 9.07779ZM26.1266 5.59191H25.1285C24.9228 5.59191 24.8391 5.75035 24.9043 5.94525L26.1435 9.68941L24.9281 11.4712C24.826 11.6201 24.9051 11.7556 25.0487 11.7556H26.1703C26.2357 11.7634 26.3019 11.7516 26.361 11.7217C26.42 11.6918 26.4695 11.645 26.5036 11.5868L30.3147 5.94604C30.4321 5.77254 30.3769 5.59032 30.1841 5.59032H29.1223C28.9404 5.59032 28.8675 5.66479 28.763 5.82087L27.1738 8.19761L26.4636 5.81532C26.4222 5.67113 26.3185 5.59191 26.1274 5.59191H26.1266Z" fill="#113984"/>
<path fill-rule="evenodd" clip-rule="evenodd" d="M34.2776 3.30627C35.281 3.30627 36.2069 3.86798 36.0803 5.26788C35.9267 6.9316 35.063 7.85219 33.7002 7.85615H32.5102C32.339 7.85615 32.2561 8.00034 32.2116 8.29585L31.9812 9.80666C31.9467 10.0348 31.8331 10.1473 31.6657 10.1473H30.5578C30.3812 10.1473 30.3198 10.0309 30.359 9.77022L31.2749 3.71349C31.3202 3.4156 31.4285 3.30469 31.6258 3.30469H34.2776V3.30627ZM32.4734 6.54815H33.3755C33.9398 6.52597 34.3144 6.12271 34.3521 5.39543C34.3751 4.94623 34.081 4.62457 33.6135 4.62695L32.7643 4.63091L32.4734 6.54815ZM39.0921 9.68386C39.1935 9.58879 39.2964 9.53968 39.2818 9.65693L39.2457 9.93738C39.2273 10.0839 39.2833 10.1616 39.4154 10.1616H40.3996C40.5655 10.1616 40.6461 10.0927 40.6868 9.82805L41.2933 5.90009C41.324 5.70282 41.2772 5.60617 41.1321 5.60617H40.0511C39.9536 5.60617 39.906 5.66242 39.8806 5.81611L39.8407 6.05775C39.82 6.18371 39.7639 6.2059 39.7117 6.07914C39.5282 5.63073 39.0599 5.4295 38.4065 5.44534C36.8887 5.47782 35.8653 6.66699 35.7555 8.19127C35.671 9.37013 36.4895 10.2963 37.5689 10.2963C38.352 10.2963 38.7021 10.0586 39.0968 9.68624L39.0921 9.68386ZM38.2683 9.07938C37.615 9.07938 37.1597 8.54144 37.2541 7.88229C37.3486 7.22315 37.9597 6.68521 38.6131 6.68521C39.2664 6.68521 39.7217 7.22315 39.6273 7.88229C39.5328 8.54144 38.9217 9.07938 38.2683 9.07938ZM42.8081 10.1679H41.6718C41.652 10.1688 41.6323 10.1652 41.614 10.1574C41.5958 10.1495 41.5794 10.1376 41.5662 10.1225C41.5529 10.1073 41.543 10.0893 41.5373 10.0698C41.5315 10.0503 41.53 10.0297 41.5328 10.0095L42.5309 3.48453C42.5404 3.44 42.5643 3.4001 42.5986 3.37134C42.6329 3.34257 42.6756 3.32662 42.7198 3.32608H43.856C43.8758 3.32517 43.8955 3.32877 43.9138 3.33663C43.932 3.34449 43.9484 3.35642 43.9617 3.37155C43.9749 3.38669 43.9848 3.40466 43.9906 3.42419C43.9963 3.44372 43.9978 3.46433 43.995 3.48453L42.9969 10.0095C42.9877 10.0543 42.964 10.0946 42.9297 10.1236C42.8953 10.1527 42.8525 10.1689 42.8081 10.1695V10.1679Z" fill="#009EE3"/>
<path fill-rule="evenodd" clip-rule="evenodd" d="M2.41033 0.882812H5.38766C6.22605 0.882812 7.22105 0.910541 7.88592 1.51661C8.33045 1.92145 8.56385 2.56555 8.51011 3.25955C8.32738 5.6054 6.9677 6.91973 5.14352 6.91973H3.67558C3.42529 6.91973 3.26023 7.09086 3.18959 7.55353L2.77962 10.2472C2.75275 10.4215 2.67981 10.5245 2.54929 10.5371H0.712065C0.508612 10.5371 0.436442 10.3787 0.489417 10.0285L1.80995 1.3946C1.86292 1.0476 2.04795 0.882812 2.41033 0.882812Z" fill="#113984"/>
<path fill-rule="evenodd" clip-rule="evenodd" d="M3.23438 7.28217L3.75414 3.8858C3.79944 3.58792 3.9576 3.44531 4.27237 3.44531H7.24664C7.73877 3.44531 8.13723 3.52454 8.44894 3.6711C8.15028 5.75947 6.84127 6.91932 5.12765 6.91932H3.66201C3.46547 6.92011 3.32113 7.02152 3.23438 7.28217Z" fill="#172C70"/>
</g>
<defs>
<clipPath id="clip0_664_89455">
<rect width="43.5261" height="10.8815" fill="white" transform="translate(0.472656 0.882812)"/>
</clipPath>
</defs>
</svg>
