<svg width="27" height="26" viewBox="0 0 27 26" fill="none" xmlns="http://www.w3.org/2000/svg">
<path d="M17.7211 22.0203C16.9613 22.0148 16.2048 21.9206 15.4674 21.7399C12.9208 21.1336 10.2983 19.5955 8.08443 17.4089C5.87051 15.2222 4.30989 12.6339 3.69545 10.1233C3.04847 7.48227 3.50991 5.22279 4.9933 3.75897L5.41685 3.341C5.80113 2.96255 6.32187 2.75 6.86478 2.75C7.4077 2.75 7.92844 2.96255 8.31272 3.341L10.7467 5.74236C11.1304 6.12145 11.346 6.63537 11.346 7.1712C11.346 7.70703 11.1304 8.22094 10.7467 8.60003L9.30893 10.0183C9.99817 11.2118 10.9356 12.4063 12.0435 13.4996C13.1515 14.5929 14.3629 15.5184 15.5718 16.1986L17.0091 14.7798C17.1992 14.5921 17.4249 14.4433 17.6734 14.3417C17.9218 14.2401 18.1881 14.1878 18.457 14.1878C18.7259 14.1878 18.9922 14.2401 19.2407 14.3417C19.4891 14.4433 19.7148 14.5921 19.9049 14.7798L22.3384 17.1812C22.7223 17.5601 22.9379 18.074 22.9379 18.6098C22.9379 19.1456 22.7223 19.6594 22.3384 20.0384L21.9144 20.4563C20.8686 21.4902 19.4212 22.0203 17.7211 22.0203ZM6.86478 4.18699C6.78723 4.18661 6.71038 4.20151 6.63874 4.23081C6.56709 4.26011 6.50209 4.30322 6.44755 4.35763L6.02352 4.77559C4.91267 5.87178 4.58821 7.65147 5.10987 9.78394C5.66214 12.0429 7.08384 14.3901 9.1127 16.3918C11.1416 18.3934 13.5197 19.7949 15.8093 20.3418C17.9708 20.8566 19.7733 20.5364 20.8842 19.4402L21.3077 19.0222C21.4184 18.9129 21.4805 18.7648 21.4805 18.6103C21.4805 18.4558 21.4184 18.3076 21.3077 18.1983L18.8747 15.7969C18.764 15.6877 18.6138 15.6264 18.4573 15.6264C18.3007 15.6264 18.1505 15.6877 18.0398 15.7969L16.2178 17.5948C16.1085 17.7028 15.9672 17.7736 15.8144 17.797C15.6616 17.8205 15.5052 17.7953 15.3678 17.7252C13.8742 16.9631 12.3685 15.8535 11.0133 14.5162C9.65817 13.1789 8.53615 11.694 7.76191 10.2201C7.69081 10.0846 7.66524 9.93029 7.68891 9.7795C7.71257 9.6287 7.78424 9.48925 7.89354 9.38131L9.71597 7.58341C9.82663 7.47412 9.8888 7.32594 9.8888 7.17144C9.8888 7.01694 9.82663 6.86876 9.71597 6.75947L7.28251 4.35763C7.22779 4.30332 7.16269 4.26027 7.09098 4.23098C7.01928 4.20169 6.94239 4.18674 6.86478 4.18699Z" fill="#00AEEF"/>
<path d="M18.5149 13.5897C18.313 13.5897 18.1193 13.5105 17.9765 13.3696C17.8337 13.2287 17.7535 13.0375 17.7535 12.8383C17.752 11.5201 17.2207 10.2563 16.2761 9.32417C15.3316 8.39204 14.0509 7.86765 12.715 7.86606C12.513 7.86606 12.3193 7.7869 12.1765 7.64598C12.0337 7.50507 11.9535 7.31395 11.9535 7.11467C11.9535 6.91539 12.0337 6.72427 12.1765 6.58336C12.3193 6.44245 12.513 6.36328 12.715 6.36328C16.333 6.36328 19.2764 9.26866 19.2764 12.8383C19.2764 13.0375 19.1962 13.2287 19.0534 13.3696C18.9106 13.5105 18.7169 13.5897 18.5149 13.5897Z" fill="#00AEEF"/>
<path d="M21.0121 13.5883C20.825 13.5883 20.6456 13.515 20.5134 13.3844C20.3811 13.2539 20.3068 13.0769 20.3068 12.8923C20.3068 8.7308 16.8742 5.34509 12.6588 5.34509C12.4717 5.34509 12.2923 5.27176 12.1601 5.14124C12.0278 5.01072 11.9535 4.83369 11.9535 4.64911C11.9535 4.46452 12.0278 4.2875 12.1601 4.15697C12.2923 4.02645 12.4717 3.95313 12.6588 3.95312C17.6539 3.95312 21.7174 7.96337 21.7174 12.8923C21.7174 13.0769 21.6431 13.2539 21.5108 13.3844C21.3786 13.515 21.1992 13.5883 21.0121 13.5883Z" fill="#00AEEF"/>
</svg>
