<svg width="84" height="82" viewBox="0 0 84 82" fill="none" xmlns="http://www.w3.org/2000/svg">
<g id="Layer 2">
<g id="BACKGROUND">
<path id="Vector" d="M0 36.1842C5.15968 29.7973 10.3183 23.4099 15.4758 17.0219C16.3864 15.8979 17.025 15.7952 18.2614 16.5788C20.7962 18.1834 23.3114 19.8206 25.8673 21.3877C26.6433 21.865 27.4785 22.2385 28.3516 22.4987C30.8375 23.2318 33.3446 23.8915 35.8451 24.5415C36.2568 24.6441 36.6878 24.6408 37.0979 24.5317C39.7255 23.8068 42.3384 23.0265 44.9644 22.2934C45.482 22.1473 46.0166 22.0701 46.5544 22.0637C50.0161 22.0442 53.4794 22.0637 56.9411 22.036C57.4164 22.0258 57.8808 21.8916 58.2883 21.6467C60.9729 19.9786 63.6298 18.2632 66.2998 16.569C67.5232 15.7936 68.2042 15.9044 69.0773 17.0382C73.5571 22.8386 78.0294 28.645 82.494 34.4574C83.3818 35.6107 83.2971 36.3422 82.178 37.3082C79.8028 39.3575 77.4179 41.3954 75.0526 43.4561C74.7507 43.7199 74.5042 44.0411 74.3277 44.401C72.7291 47.7079 71.1489 51.023 69.5872 54.3462C69.4517 54.6434 69.437 54.9816 69.5465 55.2894C71.4427 59.287 69.1197 63.3661 64.6903 63.7832C64.6144 63.7978 64.5398 63.8185 64.4672 63.8451C64.0843 67.6782 61.6131 69.4766 58.5619 69.6965C58.4903 71.2343 57.9983 72.6385 56.8824 73.7691C55.7665 74.8996 54.39 75.4454 52.7463 75.4991C52.5622 78.029 51.4431 79.9773 49.037 80.9189C46.6309 81.8605 44.4757 81.2138 42.56 79.4055C40.9 81.3229 38.9045 82.429 36.3273 81.8051C33.7502 81.1812 32.3606 79.4511 31.8605 76.8757C31.3344 76.8496 30.8 76.8561 30.2755 76.7893C28.9886 76.6442 27.7906 76.0614 26.8819 75.1386C25.9733 74.2157 25.4093 73.0088 25.2841 71.7198C25.2369 71.2946 25.2206 70.9883 24.6325 70.9232C21.4413 70.5615 19.3854 68.175 19.4376 64.9658C19.4376 64.7817 19.4376 64.5977 19.4376 64.3875C18.9928 64.2719 18.5693 64.1937 18.1653 64.0617C17.3197 63.7686 16.5545 63.2813 15.9312 62.639C15.308 61.9967 14.8439 61.2172 14.5764 60.3631C14.3089 59.509 14.2453 58.6041 14.3907 57.721C14.5361 56.8379 14.8866 56.0012 15.4139 55.278C15.7771 54.7763 15.7397 54.4912 15.3911 54.0367C13.2456 51.1842 11.1556 48.296 8.98898 45.4566C8.48887 44.805 7.82422 44.2592 7.19705 43.7119C5.11515 41.8939 3.01044 40.1101 0.928546 38.3019C0.602252 37.9924 0.292316 37.6662 0 37.3245L0 36.1842ZM40.4895 68.4731C40.5335 68.5041 40.5742 68.5546 40.6214 68.5627C44.1336 69.1573 46.3638 73.0409 44.8439 76.545C44.8137 76.6388 44.8056 76.7384 44.8203 76.8359C44.835 76.9334 44.872 77.0262 44.9286 77.107C45.6421 77.8563 46.5039 78.2473 47.5562 77.9752C49.4345 77.4865 50.0519 75.258 48.6803 73.7854C47.4829 72.5001 46.2123 71.2832 44.984 70.0256C44.3324 69.3577 44.1988 68.6507 44.5604 67.9698C45.0882 66.9728 46.3524 66.818 47.2353 67.6847C48.4717 68.895 49.6788 70.138 50.8925 71.3695C51.5913 72.0782 52.4238 72.3795 53.3995 72.1287C55.312 71.64 55.905 69.3691 54.4715 67.8818C52.3896 65.7217 50.2555 63.6105 48.1459 61.4764C47.871 61.216 47.611 60.9403 47.3673 60.6505C47.1103 60.3385 46.9799 59.9413 47.0018 59.5377C47.0237 59.1341 47.1965 58.7534 47.4858 58.4711C47.7751 58.1888 48.1598 58.0254 48.5639 58.0133C48.9679 58.0012 49.3618 58.1412 49.6674 58.4057C49.8726 58.5816 50.0679 58.7686 50.2523 58.9661C52.383 61.1197 54.5122 63.2738 56.6397 65.4285C57.3727 66.1729 58.215 66.5688 59.2673 66.2772C61.2221 65.7331 61.7337 63.4736 60.2447 61.9603C56.9063 58.5697 53.5603 55.1862 50.2067 51.8098C49.9981 51.5997 49.6821 51.3944 49.6349 51.1451C49.5322 50.5978 49.371 49.9087 49.6088 49.4933C49.8466 49.0779 50.5357 48.7342 51.0423 48.713C51.4887 48.6935 52.0458 49.0714 52.4026 49.4265C55.791 52.8051 59.1386 56.2245 62.5156 59.6161C63.6803 60.7857 65.2296 60.8248 66.2624 59.7709C67.2952 58.7169 67.2039 57.2296 66.0604 56.086C59.8136 49.8338 53.5559 43.587 47.2874 37.3457C46.977 37.067 46.5852 36.8957 46.1699 36.8569C44.2314 36.681 42.2847 36.5979 40.3478 36.4171C39.7727 36.365 39.486 36.5116 39.2075 37.0182C37.9987 39.2196 36.7612 41.4052 35.4949 43.5751C34.1493 45.872 31.5852 46.9455 29.1124 46.3102C25.3656 45.3442 23.6291 41.2602 25.5432 37.8099C27.4149 34.433 29.3469 31.0869 31.2448 27.7279C31.4077 27.4493 31.5461 27.1659 31.7335 26.8238C30.3325 26.4344 29.0032 26.0874 27.6886 25.6834C27.1494 25.5205 26.8252 25.6362 26.4619 26.0842C23.3668 29.9026 20.2293 33.6983 17.1081 37.502C15.378 39.61 13.6496 41.7196 11.8952 43.8552L18.1751 52.3132C21.3614 49.6611 26.5906 50.6841 27.7863 55.7015C29.5506 55.4442 31.2073 55.7129 32.6457 56.8875C34.0842 58.062 34.6983 59.6226 34.7716 61.4227C38.753 61.7143 41.032 64.7345 40.4895 68.4731ZM66.7625 52.5689C67.0492 52.0167 67.1648 51.8098 67.2675 51.5915C68.5267 48.9606 69.7664 46.32 71.0566 43.7054C71.3172 43.1743 71.2195 42.8404 70.879 42.4152C66.5219 36.8993 62.1778 31.3736 57.8468 25.8382C57.7194 25.654 57.5461 25.5064 57.3441 25.4098C57.1421 25.3132 56.9184 25.2711 56.6951 25.2876C53.4777 25.3104 50.2588 25.2876 47.0398 25.3088C46.5019 25.3103 45.9667 25.3838 45.4483 25.5271C42.0468 26.4931 38.6585 27.5063 35.2538 28.4593C34.9833 28.5236 34.7307 28.6475 34.5142 28.822C34.2978 28.9964 34.123 29.217 34.0027 29.4677C33.2061 30.9338 32.359 32.3869 31.5331 33.8449C30.4824 35.702 29.4154 37.5493 28.3891 39.421C27.5909 40.8872 28.1561 42.4771 29.6239 43.0489C30.8261 43.518 32.0674 43.0375 32.7777 41.7864C34.2264 39.2527 35.6632 36.713 37.0881 34.1674C37.5344 33.3659 38.1404 33.0043 39.0657 33.0743C41.7884 33.2818 44.5127 33.4686 47.2386 33.6347C47.9688 33.6794 48.653 34.0066 49.1462 34.547C54.8141 40.241 60.4891 45.9263 66.1711 51.6029C66.3878 51.8326 66.5116 52.1568 66.7625 52.5689ZM17.3671 19.8645C12.8449 25.4651 8.37646 31.0022 3.89012 36.5605L9.63082 41.4915L23.9467 24.0609L17.3671 19.8645ZM79.2262 35.5456L67.1714 19.8874L60.5933 24.0805L73.4904 40.4832L79.2262 35.5456ZM25.4128 67.7221C25.6539 67.6309 26.2355 67.5706 26.5743 67.2514C28.0893 65.8276 29.5929 64.381 30.9841 62.8383C31.841 61.8886 31.6162 60.3817 30.6974 59.533C29.7786 58.6843 28.3565 58.6159 27.4394 59.4727C25.9993 60.8205 24.6043 62.2155 23.2544 63.6577C22.549 64.412 22.4953 65.3812 22.9367 66.313C23.3782 67.2448 24.1373 67.67 25.4128 67.7221ZM28.3451 71.0258C28.5422 72.1661 29.0179 72.935 29.9741 73.3635C30.9515 73.8066 31.9061 73.6665 32.6799 72.9253C34.0092 71.6546 35.3157 70.3595 36.5896 69.0286C37.6143 67.9502 37.567 66.4319 36.5766 65.4594C35.5861 64.4869 34.0956 64.5227 33.0155 65.5751C31.7579 66.8017 30.4905 68.0186 29.303 69.3218C28.8582 69.7747 28.6497 70.4426 28.3451 71.0258ZM42.055 73.8163C42.0469 73.2462 41.6314 72.505 40.7713 72.0456C39.8819 71.5699 38.9501 71.5813 38.1893 72.2215C37.2602 72.9981 36.3981 73.8514 35.6122 74.7726C34.9475 75.5578 34.9508 76.5287 35.4493 77.4312C35.938 78.3076 36.715 78.7344 37.7201 78.7002C39.2596 78.6545 42.0485 75.7598 42.0501 73.8082L42.055 73.8163ZM22.0391 54.0383C21.5504 54.2338 20.9705 54.3234 20.5909 54.6476C19.6896 55.417 18.8472 56.2528 18.0708 57.1481C17.2889 58.0587 17.4192 59.4565 18.2435 60.3329C19.0678 61.2093 20.4818 61.439 21.4071 60.6815C22.3824 59.8751 23.2761 58.9748 24.0754 57.9936C24.6961 57.2361 24.683 56.2815 24.2008 55.4018C23.7512 54.584 23.0263 54.1768 22.0391 54.0383Z" fill="#00AEEF"/>
<path id="Vector_2" d="M50.3126 19.2251C49.7799 18.8032 49.1723 18.5376 48.9491 18.0848C48.7422 17.6579 48.9003 17.021 48.9964 16.4948C49.0387 16.2684 49.3222 16.0762 49.5095 15.8872C53.0054 12.388 56.5035 8.89269 60.0037 5.40114C60.2791 5.10671 60.6117 4.87167 60.9811 4.71043C61.6523 4.45467 62.2713 4.65993 62.7209 5.21706C62.9409 5.4611 63.0742 5.77092 63.1002 6.09846C63.1261 6.426 63.0432 6.75293 62.8643 7.02854C62.7026 7.27732 62.5111 7.50544 62.2941 7.70784C58.7993 11.2092 55.3023 14.7034 51.8032 18.1906C51.4139 18.5735 50.904 18.8194 50.3126 19.2251Z" fill="#606060"/>
<path id="Vector_3" d="M34.3791 17.0525C34.3791 18.5186 33.1394 19.3331 32.0838 18.8249C31.8652 18.7192 31.6659 18.5777 31.4941 18.4062C27.8592 14.78 24.2292 11.1494 20.604 7.51451C20.4464 7.36487 20.3099 7.19442 20.1984 7.00788C20.027 6.69913 19.9619 6.34256 20.0131 5.99315C20.0644 5.64374 20.2291 5.32088 20.4819 5.07433C20.7348 4.82779 21.0617 4.67125 21.4123 4.62884C21.7629 4.58643 22.1177 4.6605 22.422 4.83965C22.6478 4.98767 22.8556 5.16152 23.0411 5.35768C26.5598 8.86986 30.0736 12.3875 33.5825 15.9105C33.9686 16.2933 34.208 16.8081 34.3791 17.0525Z" fill="#606060"/>
<path id="Vector_4" d="M43.1703 12.7989C43.1703 14.265 43.1801 15.7165 43.1703 17.1745C43.1605 18.2725 42.4861 18.9941 41.5217 18.9778C40.5883 18.9632 39.9302 18.2578 39.9253 17.2038C39.9155 14.2325 39.9155 11.2611 39.9253 8.28977C39.9253 7.26185 40.6193 6.52716 41.5315 6.51576C42.4438 6.50435 43.1606 7.23904 43.1606 8.26045C43.1834 9.77381 43.1703 11.2856 43.1703 12.7989Z" fill="#606060"/>
<path id="Vector_5" d="M41.5258 3.24174C41.2032 3.23992 40.8885 3.14187 40.6219 2.96014C40.3553 2.7784 40.1491 2.52126 40.0295 2.22161C39.9099 1.92197 39.8825 1.59346 39.9507 1.27814C40.0189 0.962815 40.1797 0.675023 40.4124 0.4516C40.6452 0.228176 40.9393 0.0792864 41.2571 0.0239885C41.575 -0.0313093 41.9021 0.00950063 42.1966 0.141195C42.4911 0.272889 42.7396 0.489475 42.9103 0.76323C43.081 1.03699 43.1662 1.35546 43.1548 1.67787C43.138 2.09853 42.959 2.49633 42.6553 2.78787C42.3516 3.07942 41.9468 3.24208 41.5258 3.24174Z" fill="#606060"/>
</g>
</g>
</svg>
