<svg width="47" height="55" viewBox="0 0 47 55" fill="none" xmlns="http://www.w3.org/2000/svg">
<path d="M24.0474 2.05982C23.9358 1.91889 23.7862 1.80722 23.6099 1.74143C23.2163 1.59448 22.7726 1.70716 22.4971 2.0241C15.5278 10.0388 7.80353 10.2825 7.44598 10.2905H3.92631C2.72646 10.2905 1.74753 11.263 1.74753 12.4653V13.7384C1.41275 21.5443 2.31359 28.434 4.52466 34.7996C6.49654 40.4732 9.37788 44.8872 13.3591 48.2289C16.1018 50.5343 19.2739 52.1901 22.7863 53.1449C22.9179 53.1818 23.0535 53.2038 23.1904 53.2129C23.2346 53.2159 23.2787 53.2159 23.3229 53.2131C23.4403 53.2053 23.5793 53.1884 23.7201 53.1496C27.2372 52.1934 30.4147 50.5391 33.1576 48.2318C37.1367 44.8888 40.0197 40.4753 41.9917 34.8015C44.2027 28.4361 45.1037 21.5462 44.7689 13.7668V12.467C44.7689 11.2646 43.7899 10.2922 42.5901 10.2922H39.0787C38.7198 10.2843 31.0118 10.0445 24.0474 2.05982Z" fill="#DFF5FD" stroke="#00AEEF" stroke-width="1.5" stroke-linejoin="round"/>
<path d="M25.7341 18.1807V37.2547H21.3148V23.1588L16.9609 24.4295V21.0758L25.3276 18.1807H25.7341Z" fill="#00AEEF"/>
</svg>
