<svg width="47" height="55" viewBox="0 0 47 55" fill="none" xmlns="http://www.w3.org/2000/svg">
<path d="M24.0474 2.05982C23.9358 1.91889 23.7862 1.80722 23.6099 1.74143C23.2163 1.59448 22.7726 1.70716 22.4971 2.0241C15.5278 10.0388 7.80353 10.2825 7.44598 10.2905H3.92631C2.72646 10.2905 1.74753 11.263 1.74753 12.4653V13.7384C1.41275 21.5443 2.31359 28.434 4.52466 34.7996C6.49654 40.4732 9.37788 44.8872 13.3591 48.2289C16.1018 50.5343 19.2739 52.1901 22.7863 53.1449C22.9179 53.1818 23.0535 53.2038 23.1904 53.2129C23.2346 53.2159 23.2787 53.2159 23.3229 53.2131C23.4403 53.2053 23.5793 53.1884 23.7201 53.1496C27.2372 52.1934 30.4147 50.5391 33.1576 48.2318C37.1367 44.8888 40.0197 40.4753 41.9917 34.8015C44.2027 28.4361 45.1037 21.5462 44.7689 13.7668V12.467C44.7689 11.2646 43.7899 10.2922 42.5901 10.2922H39.0787C38.7198 10.2843 31.0118 10.0445 24.0474 2.05982Z" fill="#FFF2EA" stroke="#FC8941" stroke-width="1.5" stroke-linejoin="round"/>
<path d="M29.2797 33.8482V37.2543H15.956V34.3721L22.0932 27.9269C22.6352 27.3068 23.0724 26.7522 23.4047 26.2631C23.7367 25.7653 23.9772 25.3155 24.1259 24.9139C24.2831 24.5121 24.3618 24.1497 24.3618 23.8265C24.3618 23.2764 24.2789 22.8178 24.1127 22.451C23.9554 22.0755 23.7193 21.7916 23.4047 21.5995C23.0986 21.4073 22.7183 21.3112 22.2636 21.3112C21.8091 21.3112 21.4113 21.4423 21.0704 21.7043C20.7294 21.9663 20.4627 22.3243 20.2704 22.7785C20.0867 23.2326 19.995 23.7436 19.995 24.3112H15.5625C15.5625 23.141 15.8466 22.0711 16.4149 21.1017C16.992 20.1322 17.7919 19.3593 18.8148 18.783C19.8376 18.1978 21.0223 17.9053 22.3686 17.9053C23.7761 17.9053 24.9563 18.1235 25.9093 18.5602C26.8622 18.997 27.5792 19.6301 28.0599 20.4598C28.5495 21.2807 28.7943 22.272 28.7943 23.4336C28.7943 24.0972 28.6895 24.7348 28.4796 25.3461C28.2698 25.9575 27.9682 26.5644 27.5748 27.1671C27.1814 27.761 26.7006 28.3723 26.1323 29.0011C25.5727 29.6299 24.9346 30.298 24.2176 31.0055L21.7523 33.8482H29.2797Z" fill="#FC8941"/>
</svg>
