<svg width="77" height="77" viewBox="0 0 77 77" fill="none" xmlns="http://www.w3.org/2000/svg">
<circle cx="38.5" cy="38.5" r="38.5" fill="#00AEEF" fill-opacity="0.6"/>
<circle cx="38.5" cy="38.5" r="32.5" fill="#00AEEF"/>
<path d="M33.9547 19.5161C35.6329 18.828 37.51 18.828 39.1881 19.5161L53.113 25.2263C53.7128 25.4721 54.2264 25.8933 54.588 26.4361C54.9497 26.9789 55.1429 27.6185 55.1429 28.273V38.8576C54.3139 38.053 53.3759 37.3719 52.3571 36.8346V29.3963L37.9643 35.0164V39.3328C36.6599 40.7425 35.7052 42.4453 35.1786 44.3011V35.0145L20.7857 29.3531V46.4049C20.786 46.4981 20.8136 46.5892 20.8652 46.6665C20.9168 46.7437 20.99 46.8037 21.0754 46.8388L35.0021 52.549C35.0597 52.5734 35.1191 52.596 35.1786 52.6166L35.5296 52.7594C35.6391 52.8045 35.7487 52.842 35.862 52.8721C36.3226 53.8601 36.9113 54.7767 37.6077 55.5976C36.3733 55.7855 35.1116 55.6343 33.9547 55.1599L20.0299 49.4497C19.4301 49.204 18.9165 48.7827 18.5548 48.2399C18.1932 47.6971 18 47.0575 18 46.403V28.2749C18 27.6204 18.1932 26.9808 18.5548 26.438C18.9165 25.8952 19.4301 25.4739 20.0299 25.2282L33.9547 19.518V19.5161ZM38.1407 22.127C37.1343 21.7146 36.0086 21.7146 35.0021 22.127L31.4457 23.5865L45.4244 29.0845L50.383 27.1498L38.1389 22.1289L38.1407 22.127ZM22.81 27.1254L36.5733 32.5407L41.569 30.5872L27.6869 25.1268L22.81 27.1254ZM46.7857 58C49.4947 58 52.0928 56.9116 54.0083 54.9741C55.9239 53.0367 57 50.409 57 47.669C57 44.9291 55.9239 42.3013 54.0083 40.3639C52.0928 38.4265 49.4947 37.338 46.7857 37.338C44.0767 37.338 41.4787 38.4265 39.5631 40.3639C37.6476 42.3013 36.5714 44.9291 36.5714 47.669C36.5714 50.409 37.6476 53.0367 39.5631 54.9741C41.4787 56.9116 44.0767 58 46.7857 58ZM44.9286 50.0977L51.6997 43.2473C51.8738 43.071 52.1101 42.9718 52.3565 42.9716C52.6029 42.9715 52.8393 43.0703 53.0136 43.2464C53.188 43.4225 53.2861 43.6615 53.2862 43.9107C53.2864 44.1599 53.1887 44.399 53.0146 44.5753L45.586 52.0888C45.4997 52.1763 45.3973 52.2457 45.2845 52.293C45.1716 52.3403 45.0507 52.3647 44.9286 52.3647C44.8064 52.3647 44.6855 52.3403 44.5727 52.293C44.4599 52.2457 44.3574 52.1763 44.2711 52.0888L40.5569 48.3321C40.4706 48.2447 40.4023 48.1411 40.3557 48.0271C40.3091 47.913 40.2851 47.7908 40.2852 47.6674C40.2853 47.544 40.3094 47.4218 40.3562 47.3078C40.4029 47.1939 40.4715 47.0903 40.5578 47.0031C40.6441 46.9159 40.7466 46.8468 40.8593 46.7996C40.9721 46.7525 41.0929 46.7283 41.2149 46.7284C41.337 46.7285 41.4578 46.7528 41.5704 46.8002C41.6831 46.8475 41.7855 46.9167 41.8717 47.0041L44.9286 50.0977Z" fill="white"/>
</svg>
