<svg width="38" height="39" viewBox="0 0 38 39" fill="none" xmlns="http://www.w3.org/2000/svg">
<path d="M18.6873 38.4877H1.19513C1.07121 38.4877 0.947294 38.495 0.825224 38.4877C0.614881 38.4751 0.416391 38.3867 0.267048 38.2389C0.117705 38.0912 0.0277888 37.8943 0.0141948 37.6853C-0.0163229 37.2799 0.237066 36.8746 0.674485 36.825C1.3431 36.7487 2.02188 36.756 2.69605 36.7441C3.31287 36.7321 3.31472 36.7441 3.31565 36.1365C3.31565 33.3846 3.31719 30.6327 3.32027 27.8808C3.32027 27.0095 3.5977 26.742 4.48734 26.7411C6.19571 26.7411 7.90346 26.7411 9.6106 26.7411C10.5243 26.7411 10.8128 27.0362 10.8128 27.9599C10.8128 30.6965 10.8128 33.433 10.8128 36.1696C10.8128 36.7956 10.8128 36.7956 11.4602 36.7974C12.3849 36.7974 13.3079 36.7974 14.2289 36.7974C14.9475 36.7974 14.9586 36.7855 14.9586 36.0897V22.605C14.9586 21.6224 15.1898 21.3899 16.1802 21.3899H21.3035C22.1968 21.3899 22.4511 21.6463 22.4511 22.5388C22.4511 27.0187 22.4511 31.4983 22.4511 35.9775C22.4511 36.8673 22.4391 36.7285 23.2316 36.7349C24.1694 36.7423 25.1089 36.7138 26.0467 36.7459C26.4989 36.7616 26.6098 36.609 26.6089 36.1751C26.5954 30.9011 26.5923 25.6265 26.5997 20.3513C26.5997 18.1956 26.5997 16.0399 26.5997 13.8842C26.5997 13.068 26.8864 12.7812 27.7048 12.7812C29.4594 12.7812 31.2134 12.7812 32.9668 12.7812C33.8527 12.7812 34.0922 13.0147 34.0922 13.8916C34.0922 21.0774 34.0922 28.2632 34.0922 35.449C34.0922 36.7358 34.0922 36.7358 35.3647 36.7358C35.6421 36.7358 35.9196 36.7312 36.197 36.7358C36.3502 36.7376 36.5029 36.7543 36.6529 36.7855C37.1551 36.8994 37.4353 37.2404 37.402 37.6798C37.3659 38.1495 37.0228 38.4656 36.4966 38.4748C35.7115 38.4886 34.9245 38.4813 34.1422 38.4813L18.6873 38.4877ZM28.3623 25.5922C28.3623 29.1382 28.3688 32.6852 28.354 36.2312C28.354 36.6292 28.4548 36.7625 28.8682 36.7505C29.8854 36.7211 30.9027 36.7257 31.9144 36.7505C32.2972 36.7579 32.4248 36.632 32.4202 36.2542C32.4045 34.9545 32.4156 33.6549 32.4156 32.3561C32.4156 26.6078 32.4156 20.8599 32.4156 15.1122C32.4156 14.4817 32.3971 14.4624 31.7747 14.4605C30.8361 14.4605 29.8974 14.4789 28.9597 14.4532C28.5084 14.4412 28.3484 14.5708 28.3512 15.0469C28.3715 18.5608 28.3632 22.0765 28.3623 25.5931V25.5922ZM16.6602 29.9563C16.6602 32.0344 16.6703 34.1126 16.6528 36.1898C16.6528 36.6448 16.7998 36.8158 17.265 36.8038C18.248 36.7809 19.2329 36.79 20.2159 36.8038C20.608 36.8103 20.7643 36.6623 20.7634 36.2661C20.7548 32.0491 20.7548 27.8324 20.7634 23.616C20.7634 23.2364 20.6386 23.0646 20.227 23.0738C19.2745 23.0949 18.3211 23.0784 17.3676 23.0784C16.6851 23.0784 16.6639 23.0967 16.6629 23.7686C16.6611 25.8318 16.6602 27.8943 16.6602 29.9563ZM9.06406 32.6144C9.06406 31.3782 9.05574 30.141 9.06961 28.9048C9.06961 28.5886 8.96881 28.4755 8.64606 28.4801C7.58627 28.4948 6.52647 28.4967 5.46668 28.4801C5.12266 28.4755 5.00429 28.6051 5.00429 28.9351C5.01169 31.3929 5.01169 33.8509 5.00429 36.3093C5.00429 36.6549 5.13653 36.7533 5.46668 36.7478C6.52647 36.7312 7.58657 36.7312 8.64698 36.7478C8.97436 36.7533 9.06683 36.6375 9.06313 36.325C9.05574 35.0869 9.06406 33.8516 9.06406 32.6144Z" fill="#00AEEF"/>
<path d="M28.9098 3.14753C28.2255 3.34882 27.543 3.55379 26.8577 3.74956C26.6401 3.82075 26.4158 3.86971 26.1882 3.89571C25.7434 3.92788 25.4548 3.6889 25.3281 3.28172C25.2014 2.87454 25.4077 2.48851 25.8044 2.29365C25.9154 2.24101 26.0309 2.19796 26.1493 2.16497C27.5889 1.7293 29.0294 1.29577 30.4708 0.864389C31.0543 0.689753 31.4881 0.88553 31.6675 1.45907C32.1403 2.94379 32.5978 4.43279 33.0398 5.92608C33.2119 6.50698 32.9964 6.95827 32.5405 7.09798C32.0207 7.25607 31.5842 7.00055 31.3882 6.39944C31.1921 5.79832 31.0183 5.20456 30.8333 4.60436C30.7852 4.4527 30.7168 4.30748 30.6077 4.03358C30.4727 4.29277 30.3941 4.42972 30.3302 4.57219C27.2785 11.1321 22.5963 16.1322 15.9962 19.2784C13.5234 20.4507 10.8728 21.2091 8.15133 21.5229C7.71021 21.5753 7.26909 21.6268 6.82797 21.6856C6.27311 21.7601 5.77835 21.4099 5.73396 20.8924C5.68957 20.3749 6.07243 19.9981 6.65041 19.954C9.04205 19.7758 11.3951 19.2542 13.6362 18.4052C17.4869 16.9429 20.7681 14.6542 23.5609 11.6615C25.6855 9.39876 27.4236 6.80599 28.7063 3.98578C28.8127 3.75232 28.8996 3.51059 28.9958 3.27253L28.9098 3.14753Z" fill="#00AEEF"/>
</svg>
