<svg width="33" height="40" viewBox="0 0 33 40" fill="none" xmlns="http://www.w3.org/2000/svg">
<path d="M31.945 0.2125C32.1156 0.326594 32.2554 0.480923 32.3522 0.661865C32.449 0.842807 32.4998 1.0448 32.5 1.25V20C32.4999 20.2496 32.4251 20.4935 32.2852 20.7003C32.1453 20.907 31.9467 21.0671 31.715 21.16L31.25 20L31.715 21.16L31.7075 21.1625L31.6925 21.17L31.635 21.1925C31.3063 21.3231 30.9754 21.4482 30.6425 21.5675C29.9825 21.805 29.065 22.125 28.025 22.4425C25.985 23.0725 23.3275 23.75 21.25 23.75C19.1325 23.75 17.38 23.05 15.855 22.4375L15.785 22.4125C14.2 21.775 12.85 21.25 11.25 21.25C9.5 21.25 7.155 21.825 5.1575 22.4425C4.26314 22.7212 3.37694 23.0255 2.5 23.355V38.75C2.5 39.0815 2.3683 39.3995 2.13388 39.6339C1.89946 39.8683 1.58152 40 1.25 40C0.918479 40 0.600537 39.8683 0.366117 39.6339C0.131696 39.3995 0 39.0815 0 38.75V1.25C0 0.918479 0.131696 0.600537 0.366117 0.366117C0.600537 0.131696 0.918479 0 1.25 0C1.58152 0 1.89946 0.131696 2.13388 0.366117C2.3683 0.600537 2.5 0.918479 2.5 1.25V1.955C3.065 1.7575 3.74 1.53 4.475 1.305C6.515 0.68 9.175 0 11.25 0C13.35 0 15.06 0.6925 16.5525 1.2975L16.66 1.3425C18.215 1.97 19.57 2.5 21.25 2.5C23 2.5 25.345 1.925 27.3425 1.3075C28.4808 0.952031 29.6057 0.555099 30.715 0.1175L30.7625 0.1L30.7725 0.095H30.775M30 3.0525C29.45 3.2475 28.8 3.47 28.085 3.69C26.06 4.32 23.405 4.9975 21.25 4.9975C19.035 4.9975 17.27 4.2825 15.7425 3.6625L15.7225 3.655C14.155 3.025 12.8475 2.5 11.25 2.5C9.5775 2.5 7.235 3.0725 5.2125 3.695C4.30027 3.97646 3.39578 4.2824 2.5 4.6125V20.695C3.05 20.5 3.7 20.2775 4.415 20.0575C6.44 19.425 9.095 18.75 11.25 18.75C13.3675 18.75 15.12 19.45 16.645 20.0625L16.715 20.0875C18.3 20.725 19.65 21.25 21.25 21.25C22.92 21.25 25.265 20.6775 27.2875 20.055C28.1997 19.7735 29.1042 19.4676 30 19.1375V3.055V3.0525Z" fill="#00AEEF"/>
</svg>
