<svg width="42" height="43" viewBox="0 0 42 43" fill="none" xmlns="http://www.w3.org/2000/svg">
<path d="M35.4147 18.5848C35.4137 20.7999 35.0106 22.9956 34.226 25.06C34.0932 25.4057 33.868 25.6147 33.4956 25.5588C33.186 25.5119 32.9785 25.2979 32.964 24.9786C32.9551 24.7843 33.034 24.5786 33.1031 24.3901C33.8241 22.4546 34.1728 20.3948 34.1302 18.3239C33.9742 10.5145 28.5049 3.97344 20.9846 2.57847C12.4726 0.999978 4.20667 6.77324 2.54095 15.4615C0.859134 24.2379 6.32121 32.7122 14.904 34.6001C17.8896 35.2585 20.8318 35.0174 23.7032 33.9417C23.8407 33.8899 23.9766 33.8323 24.1166 33.7854C24.5356 33.643 24.8734 33.7854 25.0013 34.159C25.1252 34.5145 24.9796 34.8742 24.575 35.0001C23.4144 35.3606 22.2618 35.8042 21.0715 35.9992C15.9528 36.8387 11.3216 35.6157 7.2896 32.2653C3.99755 29.5297 1.89589 25.9958 1.25727 21.7023C0.155363 14.3678 2.59886 8.44391 8.47756 4.1117C11.8074 1.65837 15.6359 0.641156 19.713 1.1119C27.0917 1.96287 32.0286 6.07946 34.563 13.2041C35.1847 14.9537 35.3962 16.7907 35.4147 18.5848Z" fill="#00AEEF" stroke="#00AEEF" stroke-width="0.8"/>
<path d="M34.8899 32.2123C35.0137 32.3456 35.1111 32.4534 35.2116 32.5571C36.8465 34.2316 38.4819 35.905 40.1179 37.5774C40.8233 38.2942 41.1699 39.1295 40.9182 40.141C40.4541 42.005 38.2463 42.6289 36.8797 41.2643C35.1658 39.5542 33.4872 37.8078 31.7989 36.0729C31.6968 35.9684 31.6381 35.826 31.5198 35.6392C31.0911 36.4466 30.7348 37.1017 30.3938 37.765C30.0359 38.4613 29.4889 38.8439 28.7136 38.7921C27.9382 38.7402 27.4267 38.2407 27.1854 37.3864C26.2427 33.9847 25.3014 30.5806 24.3615 27.174C24.1692 26.481 24.2858 25.8662 24.7918 25.3634C25.284 24.8737 25.8736 24.7626 26.5355 24.9519C29.8348 25.9115 33.1357 26.8667 36.4382 27.8175C37.2787 28.0644 37.7677 28.578 37.8409 29.3096C37.9262 30.1639 37.5449 30.7474 36.8218 31.1367C36.1904 31.4823 35.5615 31.8395 34.8899 32.2123ZM38.4908 40.7195C38.7827 40.6191 38.9846 40.5821 39.1535 40.485C39.8694 40.0735 39.9176 39.2225 39.2629 38.5501C37.3642 36.6013 35.4634 34.6552 33.5604 32.7119C32.9925 32.1308 33.0512 31.7399 33.7622 31.3473C34.5738 30.8996 35.3926 30.4643 36.1904 29.9927C36.3577 29.8939 36.5355 29.6635 36.5451 29.4866C36.5516 29.3672 36.2709 29.229 36.1156 29.1039C36.0814 29.0825 36.0434 29.0679 36.0038 29.0611C32.7775 28.1284 29.5509 27.1992 26.324 26.2736C26.1301 26.2185 25.8245 26.2152 25.7087 26.3312C25.5929 26.4473 25.5977 26.76 25.6516 26.9575C26.5631 30.2868 27.4862 33.6122 28.4208 36.9338C28.4747 37.1272 28.6315 37.3683 28.7972 37.4317C29.082 37.5412 29.1994 37.2482 29.3128 37.0317C29.7761 36.1528 30.2321 35.2705 30.7026 34.3982C30.9769 33.8896 31.4024 33.8303 31.8214 34.2237C31.93 34.3257 32.0314 34.4352 32.1351 34.5414C33.9714 36.4186 35.8012 38.3016 37.6503 40.1648C37.8916 40.4068 38.2294 40.5508 38.4908 40.7195Z" fill="#00AEEF" stroke="#00AEEF" stroke-width="0.8"/>
<path d="M18.163 20.9979C15.5434 20.9979 12.923 21.0069 10.3033 20.9929C9.31643 20.988 8.58129 20.4992 8.17833 19.5832C7.7818 18.6779 7.91854 17.8129 8.5459 17.0558C9.03411 16.4673 9.68078 16.2328 10.4328 16.2328C14.9107 16.2383 19.388 16.2383 23.8648 16.2328C24.5999 16.2328 25.3351 16.2254 26.0702 16.2328C27.3812 16.2501 28.3907 17.2788 28.4027 18.5964C28.4148 19.914 27.3917 20.9831 26.0614 20.9913C23.4297 20.9979 20.7964 20.9979 18.163 20.9979ZM18.2169 17.5455H11.6803C11.1977 17.5455 10.7151 17.5323 10.2374 17.5529C9.99221 17.5656 9.75956 17.6675 9.58124 17.8401C9.40292 18.0127 9.29062 18.2447 9.26455 18.4945C9.23847 18.7442 9.30033 18.9953 9.43899 19.2026C9.57765 19.4098 9.78403 19.5597 10.021 19.6251C10.203 19.6671 10.3895 19.6848 10.576 19.6778C15.3343 19.6811 20.0926 19.6811 24.8509 19.6778C25.2651 19.6778 25.6809 19.6926 26.0943 19.6712C26.7322 19.6383 27.1593 19.1272 27.1038 18.4944C27.0523 17.9141 26.6131 17.5446 25.956 17.5438C23.3768 17.5422 20.7972 17.5413 18.2169 17.5413V17.5455Z" fill="#00AEEF" stroke="#00AEEF" stroke-width="0.8"/>
</svg>
