<svg width="24" height="25" viewBox="0 0 24 25" fill="none" xmlns="http://www.w3.org/2000/svg">
<path d="M7.2247 0C8.49647 2.04023 9.35946 4.1954 9.81367 6.46552C10.2679 8.73563 10.3133 10.977 9.94993 13.1897C9.58656 15.4023 8.82956 17.5287 7.6789 19.569C6.52825 21.6092 4.99909 23.4195 3.09143 25L0.638726 23.4914C0.184521 23.2328 -0.0274416 22.9023 0.00283879 22.5C0.0633996 22.069 0.214801 21.7241 0.457044 21.4655C1.24433 20.546 1.9105 19.4397 2.45555 18.1466C3.03087 16.8247 3.39424 15.4167 3.54564 13.9224C3.72732 12.3994 3.65162 10.8333 3.31853 9.22414C3.01573 7.61494 2.39499 6.06322 1.45629 4.56896C1.06265 3.96551 0.941529 3.43391 1.09293 2.97414C1.27461 2.48563 1.65312 2.12644 2.22844 1.89655L7.2247 0ZM21.0325 0C22.3043 2.04023 23.1673 4.1954 23.6215 6.46552C24.0757 8.73563 24.1211 10.977 23.7578 13.1897C23.3944 15.4023 22.6374 17.5287 21.4867 19.569C20.3361 21.6092 18.8069 23.4195 16.8993 25L14.4466 23.4914C13.9924 23.2328 13.7804 22.9023 13.8107 22.5C13.8712 22.069 14.0226 21.7241 14.2649 21.4655C15.0522 20.546 15.7183 19.4397 16.2634 18.1466C16.8387 16.8247 17.2021 15.4167 17.3535 13.9224C17.5352 12.3994 17.4594 10.8333 17.1264 9.22414C16.8236 7.61494 16.2028 6.06322 15.2641 4.56896C14.8705 3.96551 14.7494 3.43391 14.9008 2.97414C15.0824 2.48563 15.4609 2.12644 16.0363 1.89655L21.0325 0Z" fill="#00AEEF"/>
</svg>
