<svg width="31" height="32" viewBox="0 0 31 32" fill="none" xmlns="http://www.w3.org/2000/svg">
<g id="Group 3728">
<g id="Ellipse 160" filter="url(#filter0_d_2520_157920)">
<circle cx="14.5" cy="14.6328" r="9.5" fill="white"/>
</g>
<g id="Vector">
<path d="M18.3021 11.7192H11.9688H18.3021ZM18.3021 11.7192L16.8947 13.2392L18.3021 11.7192ZM18.3021 11.7192L16.8947 10.1992L18.3021 11.7192ZM11.9688 16.2792H18.3021H11.9688ZM11.9688 16.2792L13.3762 17.7992L11.9688 16.2792ZM11.9688 16.2792L13.3762 14.7592L11.9688 16.2792Z" fill="#00A651"/>
<path d="M11.9688 16.2792L13.3762 14.7592M18.3021 11.7192H11.9688H18.3021ZM18.3021 11.7192L16.8947 13.2392L18.3021 11.7192ZM18.3021 11.7192L16.8947 10.1992L18.3021 11.7192ZM11.9688 16.2792H18.3021H11.9688ZM11.9688 16.2792L13.3762 17.7992L11.9688 16.2792Z" stroke="#00AEEF" stroke-linecap="round" stroke-linejoin="round"/>
</g>
</g>
<defs>
<filter id="filter0_d_2520_157920" x="0" y="0.132812" width="31" height="31" filterUnits="userSpaceOnUse" color-interpolation-filters="sRGB">
<feFlood flood-opacity="0" result="BackgroundImageFix"/>
<feColorMatrix in="SourceAlpha" type="matrix" values="0 0 0 0 0 0 0 0 0 0 0 0 0 0 0 0 0 0 127 0" result="hardAlpha"/>
<feOffset dx="1" dy="1"/>
<feGaussianBlur stdDeviation="3"/>
<feComposite in2="hardAlpha" operator="out"/>
<feColorMatrix type="matrix" values="0 0 0 0 0 0 0 0 0 0 0 0 0 0 0 0 0 0 0.12 0"/>
<feBlend mode="normal" in2="BackgroundImageFix" result="effect1_dropShadow_2520_157920"/>
<feBlend mode="normal" in="SourceGraphic" in2="effect1_dropShadow_2520_157920" result="shape"/>
</filter>
</defs>
</svg>
