<svg width="8" height="13" viewBox="0 0 8 13" fill="none" xmlns="http://www.w3.org/2000/svg">
<path id="Vector" d="M1.25227 0.956299C1.40169 0.956992 1.54911 0.986366 1.6837 1.04226C1.81828 1.09816 1.93661 1.17915 2.02999 1.2793L6.82188 6.45801C6.96783 6.61247 7.04679 6.80544 7.04529 7.00395C7.04379 7.20246 6.96192 7.39421 6.81366 7.54645L1.77406 12.6509C1.60297 12.8246 1.35819 12.9329 1.09357 12.9518C0.828944 12.9707 0.566152 12.8987 0.363003 12.7517C0.159854 12.6046 0.0329896 12.3946 0.0103181 12.1678C-0.0123535 11.941 0.0710248 11.716 0.242111 11.5423L4.74749 6.98231L0.461535 2.35595C0.340184 2.22922 0.263652 2.07545 0.240996 1.91282C0.21834 1.75019 0.250507 1.58551 0.333692 1.43826C0.416878 1.29102 0.547599 1.16738 0.710388 1.08196C0.873177 0.996551 1.06122 0.952943 1.25227 0.956299Z" fill="black"/>
</svg>
