<svg width="10" height="9" viewBox="0 0 10 9" fill="none" xmlns="http://www.w3.org/2000/svg">
<path fill-rule="evenodd" clip-rule="evenodd" d="M0 4.5C0 4.32953 0.0658408 4.16605 0.183038 4.04551C0.300235 3.92498 0.459188 3.85726 0.62493 3.85726H7.86537L5.18192 1.09861C5.06458 0.977925 4.99865 0.814234 4.99865 0.643553C4.99865 0.472872 5.06458 0.309182 5.18192 0.188492C5.29927 0.0678029 5.45842 0 5.62437 0C5.79032 0 5.94948 0.0678029 6.06682 0.188492L9.8164 4.04494C9.8746 4.10464 9.92077 4.17557 9.95228 4.25366C9.98378 4.33175 10 4.41546 10 4.5C10 4.58454 9.98378 4.66825 9.95228 4.74634C9.92077 4.82443 9.8746 4.89536 9.8164 4.95506L6.06682 8.81151C5.94948 8.9322 5.79032 9 5.62437 9C5.45842 9 5.29927 8.9322 5.18192 8.81151C5.06458 8.69082 4.99865 8.52713 4.99865 8.35645C4.99865 8.18577 5.06458 8.02208 5.18192 7.90139L7.86537 5.14274H0.62493C0.459188 5.14274 0.300235 5.07502 0.183038 4.95449C0.0658408 4.83395 0 4.67047 0 4.5Z" fill="#00AEEF"/>
</svg>
