<svg width="83" height="82" viewBox="0 0 83 82" fill="none" xmlns="http://www.w3.org/2000/svg">
<g id="Layer 2">
<g id="BACKGROUND">
<path id="Vector" d="M82.0124 41.477C79.9422 44.3156 77.872 47.1493 75.815 50.0013C75.6757 50.2504 75.6227 50.5386 75.6643 50.821C75.9956 54.0307 76.3356 57.2392 76.6845 60.4467C76.7789 61.3195 76.3914 61.8428 75.6064 62.1873C72.7263 63.4493 69.8512 64.7229 66.9943 66.0379C66.5812 66.2451 66.2473 66.5819 66.0437 66.9968C64.7635 69.7792 63.5379 72.588 62.2925 75.3869C61.7592 76.5827 61.4246 76.75 60.1246 76.6075C56.9961 76.268 53.8676 75.9368 50.7341 75.637C50.398 75.635 50.0704 75.7432 49.8017 75.9451C47.2628 77.7586 44.7421 79.5986 42.2148 81.4286C41.1615 82.1905 40.8485 82.1905 39.7902 81.4286C37.2844 79.6151 34.7902 77.7851 32.2646 75.9964C31.8999 75.7576 31.4672 75.6448 31.0324 75.6751C27.8459 75.9782 24.6661 76.3376 21.4829 76.6688C20.6433 76.7582 20.1431 76.3376 19.8152 75.5973C18.5598 72.7437 17.273 69.905 16.0292 67.0481C15.9332 66.8046 15.7881 66.5835 15.6029 66.3986C15.4177 66.2136 15.1963 66.0689 14.9527 65.9733C12.1703 64.756 9.39956 63.5139 6.62383 62.28C5.41152 61.7401 5.24756 61.4139 5.38833 60.127C5.7295 56.9985 6.06239 53.87 6.35884 50.7366C6.38865 50.4153 6.21144 50.0178 6.0127 49.7429C4.21742 47.2156 2.39233 44.7164 0.578829 42.2107C-0.192943 41.1441 -0.192943 40.8526 0.578829 39.791C2.40061 37.2836 4.22239 34.7877 6.00773 32.2621C6.25022 31.8994 6.36662 31.467 6.33897 31.0315C6.03755 27.8467 5.6765 24.6653 5.34527 21.4838C5.25584 20.6457 5.65828 20.1439 6.41018 19.8143C9.27369 18.549 12.1538 17.2788 15.009 15.9638C15.4233 15.7607 15.7596 15.4273 15.9663 15.0148C17.2481 12.2324 18.4737 9.42357 19.7191 6.62466C20.2574 5.414 20.5952 5.24342 21.8721 5.38419C25.0012 5.72536 28.1313 6.05162 31.2626 6.36298C31.5209 6.39146 31.7813 6.33319 32.0029 6.19737C34.8565 4.14041 37.6902 2.07021 40.5288 0H41.4894C44.3259 2.07021 47.1678 4.13599 50.0153 6.19737C50.2373 6.33368 50.4984 6.39196 50.7573 6.36298C53.8874 6.05162 57.0165 5.72536 60.1444 5.38419C61.4362 5.24342 61.7691 5.41069 62.3057 6.61803C63.5512 9.41695 64.7751 12.2241 66.0553 15.0065C66.2597 15.4206 66.5942 15.7563 67.0076 15.9621C69.8628 17.2771 72.7379 18.5474 75.6196 19.8094C76.4063 20.1539 76.7889 20.6772 76.6928 21.55C76.3439 24.7585 76.0039 27.9665 75.6726 31.174C75.6308 31.4596 75.6856 31.7511 75.8283 32.0021C77.8786 34.8523 79.9538 37.6877 82.0224 40.5247L82.0124 41.477ZM59.2567 73.8649C59.891 74.1581 60.1643 73.7225 60.4442 73.0683C61.5687 70.4482 62.7628 67.8597 63.9006 65.2462C64.0262 64.9399 64.2119 64.6618 64.4469 64.4285C64.6819 64.1952 64.9613 64.0115 65.2686 63.8882C67.9781 62.7057 70.671 61.4818 73.3838 60.2943C73.8094 60.1072 73.9684 59.92 73.9105 59.4099C73.5792 56.5216 73.3341 53.6249 72.9863 50.7399C72.9283 50.3616 72.9483 49.9754 73.0451 49.6051C73.142 49.2349 73.3136 48.8883 73.5494 48.5869C75.247 46.2914 76.8932 43.9612 78.5957 41.6707C78.9568 41.1871 78.9916 40.8692 78.6173 40.3657C76.8651 38.0128 75.1454 35.6357 73.4583 33.2342C73.1619 32.8103 72.9366 32.1991 72.978 31.7006C73.2331 28.6715 73.556 25.649 73.9088 22.6298C73.9717 22.08 73.7896 21.8895 73.3391 21.6924C70.6544 20.5182 67.988 19.3026 65.3001 18.1333C64.9809 18.0046 64.6911 17.8126 64.448 17.569C64.205 17.3254 64.0137 17.0351 63.8857 16.7157C62.7264 14.0277 61.5124 11.358 60.3233 8.67996C60.1726 8.34872 60.0881 8.03571 59.5465 8.09864C56.5804 8.43981 53.6026 8.70314 50.6364 9.04928C50.2969 9.10128 49.9503 9.08408 49.6176 8.99869C49.2849 8.91331 48.9729 8.76151 48.7003 8.55243C46.3817 6.84658 44.0217 5.18876 41.7179 3.45973C41.1565 3.03906 40.8087 3.09703 40.2837 3.48623C37.9651 5.20367 35.6464 6.89958 33.2798 8.54746C32.8343 8.85717 32.1967 9.09731 31.675 9.05425C28.6458 8.80086 25.6233 8.47128 22.6025 8.12017C22.0907 8.06055 21.9053 8.22451 21.7198 8.64849C20.5339 11.358 19.31 14.0492 18.1292 16.7637C18.0041 17.0704 17.8189 17.349 17.5845 17.5831C17.3502 17.8171 17.0714 18.002 16.7645 18.1267C14.055 19.3109 11.3621 20.5348 8.64932 21.7222C8.22699 21.9077 8.05807 22.0916 8.11769 22.605C8.44892 25.4933 8.69072 28.39 9.0352 31.2767C9.09372 31.6547 9.07424 32.0408 8.97797 32.4111C8.8817 32.7813 8.71068 33.128 8.47542 33.4297C6.78944 35.687 5.16475 37.9974 3.47712 40.2663C3.08957 40.7897 3.0283 41.1391 3.44896 41.7006C5.19456 44.0258 6.8993 46.3803 8.5632 48.7641C8.89151 49.2359 9.0588 49.8011 9.04017 50.3755C8.79009 53.3782 8.46714 56.3758 8.12266 59.3685C8.05972 59.9068 8.22699 60.1105 8.6841 60.3092C11.3704 61.4818 14.0368 62.6991 16.7248 63.8683C17.0443 63.9957 17.3347 64.1866 17.5784 64.4294C17.8221 64.6722 18.0139 64.9619 18.1425 65.281C19.3018 67.969 20.519 70.6371 21.7098 73.3151C21.8605 73.6562 21.9467 73.9593 22.4849 73.898C25.4528 73.5668 28.4289 73.3002 31.3951 72.9524C31.7349 72.9018 32.0814 72.9207 32.4137 73.0081C32.7459 73.0955 33.0569 73.2495 33.3278 73.4608C35.6464 75.1667 37.9999 76.8311 40.3119 78.5502C40.8186 78.9262 41.1399 78.9742 41.6832 78.5717C44.0101 76.8295 46.3867 75.1518 48.7301 73.4376C48.9926 73.2359 49.293 73.0891 49.6133 73.0061C49.9337 72.923 50.2676 72.9053 50.595 72.954C53.4303 73.2786 56.2707 73.5502 59.2567 73.8649Z" fill="#606060"/>
<path id="Vector_2" d="M33.0685 47.8233C33.4262 47.3182 33.5786 47.0217 33.8038 46.7965C40.5543 40.0349 47.3087 33.2767 54.067 26.5217C55.2842 25.3044 55.7596 25.3061 56.9802 26.5217C57.9043 27.4459 58.8279 28.3711 59.7509 29.2974C60.8622 30.4137 60.8672 30.9354 59.7625 32.0417L41.3592 50.4483C39.0406 52.7669 36.7192 55.0856 34.3951 57.4042C33.36 58.436 32.7836 58.441 31.7601 57.4208C28.2667 53.9307 24.7749 50.4395 21.2849 46.9472C20.2696 45.9303 20.2696 45.3308 21.2849 44.3189C22.3001 43.3069 23.2872 42.3199 24.2925 41.3262C25.2977 40.3325 25.894 40.3441 26.8678 41.3146C28.7183 43.164 30.5671 45.0155 32.4143 46.8693C32.6246 47.0747 32.7488 47.3513 33.0685 47.8233ZM55.4267 28.7973C55.2014 29.0606 55.0226 29.2941 54.8156 29.5028C48.0805 36.2379 41.3454 42.9729 34.6104 49.708C34.4596 49.8587 34.3122 50.0161 34.1566 50.1601C33.408 50.8475 32.7157 50.8574 31.9787 50.1469C31.1158 49.3188 30.2745 48.456 29.4266 47.6063C28.1701 46.3421 26.9175 45.0796 25.6687 43.8187L23.8701 45.5775L33.1032 54.8272L57.2584 30.6803L55.4267 28.7973Z" fill="#00AEEF"/>
</g>
</g>
</svg>
