<svg width="73" height="82" viewBox="0 0 73 82" fill="none" xmlns="http://www.w3.org/2000/svg">
<g id="Group 48095575">
<path id="Vector" d="M37.3135 0C37.8653 0.181747 38.4341 0.322868 38.9645 0.553794C40.3856 1.16839 41.5425 2.26742 42.229 3.65514C42.9155 5.04287 43.0871 6.62919 42.7132 8.13159C42.617 8.54213 42.5785 8.77305 43.0169 9.03177C49.0047 12.4657 54.9832 15.9118 60.9524 19.37C61.0135 19.3981 61.0764 19.4224 61.1406 19.4427C61.4442 19.1818 61.7543 18.8953 62.0837 18.6345C63.086 17.8256 64.3073 17.3348 65.5907 17.225C66.874 17.1153 68.1609 17.3917 69.2861 18.0186C71.7432 19.4234 72.9215 21.6044 72.6542 24.4162C72.3826 27.1531 70.8515 29.0518 68.2361 29.9477C67.5133 30.1957 67.3443 30.5143 67.3465 31.2306C67.3736 37.7393 67.3736 44.2473 67.3465 50.7546C67.3465 51.4366 67.4855 51.7467 68.2019 51.984C70.7681 52.8393 72.2885 54.6739 72.6414 57.3295C72.9857 59.9189 72.0169 62.0528 69.8613 63.5517C69.6461 63.686 69.4055 63.7743 69.1545 63.8111C68.9035 63.8479 68.6476 63.8324 68.4029 63.7655C67.524 63.4427 67.5368 62.318 68.3922 61.7064C69.6282 60.8191 70.3168 59.6645 70.304 58.1271C70.2946 57.4353 70.1125 56.7569 69.7741 56.1535C69.4357 55.55 68.9518 55.0407 68.3664 54.6719C67.781 54.3031 67.1127 54.0865 66.4222 54.0417C65.7317 53.9969 65.041 54.1255 64.4129 54.4156C63.7847 54.7057 63.2391 55.1482 62.8256 55.7029C62.4121 56.2576 62.1438 56.9068 62.0452 57.5916C61.9465 58.2763 62.0206 58.9749 62.2608 59.6237C62.5009 60.2725 62.8995 60.851 63.4202 61.3066C63.6212 61.4798 63.8479 61.6209 64.0618 61.792C64.5985 62.2431 64.7033 62.8996 64.3419 63.4298C63.9805 63.9601 63.3218 64.0927 62.7102 63.7442C62.414 63.5639 62.1323 63.3609 61.8677 63.1369C61.6217 62.9402 61.3972 62.7093 61.132 62.4762C58.692 63.8874 56.2755 65.2858 53.8612 66.682C50.307 68.7347 46.7571 70.7917 43.1922 72.823C42.7303 73.086 42.602 73.3041 42.7261 73.8728C43.327 76.6033 42.5122 78.919 40.301 80.606C38.1625 82.2332 35.7674 82.4428 33.3766 81.1983C30.9344 79.9154 29.7689 77.8157 29.816 75.0553C29.8046 74.765 29.8466 74.4751 29.94 74.2C30.28 73.3768 29.8887 73.0197 29.2001 72.6263C23.5288 69.3933 17.8832 66.1176 12.2269 62.8547C12.0131 62.7371 11.8142 62.628 11.5854 62.4976C11.3715 62.6857 11.1876 62.8654 10.993 63.0385C10.018 63.9215 8.8008 64.4921 7.49839 64.677C6.19598 64.8618 4.86805 64.6523 3.6858 64.0756C1.23937 62.8782 -0.163478 60.3936 0.0503709 57.5861C0.153974 56.3033 0.639322 55.081 1.4439 54.0764C2.24847 53.0719 3.33541 52.3312 4.56472 51.9498C5.22338 51.751 5.34741 51.4538 5.34527 50.838C5.32388 44.2494 5.32388 37.6616 5.34527 31.0745C5.34527 30.4224 5.15708 30.1765 4.53478 29.984C3.30402 29.6024 2.2158 28.861 1.41042 27.8552C0.605033 26.8495 0.119408 25.6256 0.0161551 24.3413C-0.167755 21.5296 1.22868 19.0664 3.68794 17.869C4.86863 17.2882 6.1984 17.0812 7.4998 17.2756C8.8012 17.4701 10.0124 18.0567 10.9716 18.9573C11.4785 19.4384 11.7843 19.385 12.3146 19.0642C18.003 15.7543 23.6999 12.46 29.4054 9.18145C29.6342 9.04888 29.8609 8.91204 29.8844 8.89707C29.8844 7.6676 29.7326 6.56643 29.9122 5.51871C30.4062 2.62358 32.1876 0.855279 35.0296 0.141119C35.1537 0.101921 35.2751 0.0547856 35.3932 0H37.3135ZM31.3108 71.0846C35.0061 68.0334 37.4247 68.0334 41.3831 71.0568C41.4565 71.0341 41.528 71.0055 41.5969 70.9713C47.5476 67.5345 53.4983 64.102 59.449 60.6737C59.8596 60.4385 59.8874 60.2118 59.7848 59.7778C58.9593 56.2818 60.9053 52.8906 64.3269 51.8964C64.8637 51.7403 64.9685 51.5136 64.9685 51.0176C64.9556 44.325 64.9556 37.6317 64.9685 30.9377C64.9685 30.4502 64.8765 30.2107 64.3269 30.0525C62.716 29.6048 61.3408 28.5511 60.4897 27.1122C59.6386 25.6732 59.3775 23.9607 59.7613 22.3335C59.9067 21.7049 59.7613 21.4547 59.2437 21.1575C53.4413 17.8305 47.6481 14.492 41.8642 11.1422C41.6867 11.0396 41.4964 10.9583 41.2954 10.8599C39.9375 12.331 38.3015 13.1157 36.3213 13.1179C34.341 13.12 32.6858 12.2626 31.33 10.845C25.2589 14.3538 19.2454 17.8305 13.2085 21.2922C12.7808 21.5381 12.8065 21.7947 12.9027 22.2053C13.3174 23.838 13.0806 25.5679 12.2425 27.0293C11.4044 28.4906 10.0307 29.5686 8.41186 30.0354C7.8473 30.2021 7.72755 30.4352 7.72968 30.9676C7.74394 37.6345 7.74394 44.3015 7.72968 50.9684C7.72968 51.4987 7.84302 51.7381 8.40545 51.9049C10.0254 52.3684 11.4009 53.4452 12.2394 54.9065C13.078 56.3678 13.3136 58.0985 12.8963 59.7307C12.7658 60.2653 12.8963 60.477 13.3411 60.725C17.0171 62.8269 20.6825 64.9522 24.3522 67.0691L31.3108 71.0846ZM40.5063 6.52794C40.4995 5.70662 40.2497 4.90569 39.7883 4.22616C39.3269 3.54663 38.6746 3.01892 37.9136 2.70958C37.1526 2.40024 36.3171 2.32312 35.5124 2.48795C34.7076 2.65279 33.9697 3.05218 33.3917 3.63578C32.8137 4.21938 32.4214 4.96105 32.2644 5.76725C32.1074 6.57345 32.1927 7.40808 32.5094 8.1659C32.8262 8.92372 33.3603 9.57078 34.0444 10.0255C34.7285 10.4802 35.5319 10.7222 36.3534 10.721C37.4607 10.7159 38.5206 10.2713 39.3002 9.48502C40.0798 8.69874 40.5151 7.63509 40.5106 6.52794H40.5063ZM36.317 79.5434C37.1393 79.5505 37.9453 79.3138 38.6331 78.8633C39.321 78.4128 39.86 77.7687 40.1821 77.0121C40.5041 76.2556 40.5948 75.4206 40.4426 74.6126C40.2905 73.8046 39.9023 73.0598 39.3272 72.4722C38.752 71.8846 38.0156 71.4805 37.2109 71.311C36.4063 71.1415 35.5694 71.2141 34.8061 71.5198C34.0427 71.8254 33.3869 72.3503 32.9217 73.0283C32.4564 73.7062 32.2024 74.5068 32.1919 75.3289C32.1821 76.4341 32.6108 77.4981 33.3839 78.288C34.1571 79.0779 35.2117 79.5293 36.317 79.5434ZM70.3019 23.7661C70.3039 23.2195 70.1973 22.6779 69.9885 22.1727C69.7796 21.6675 69.4725 21.2089 69.085 20.8232C68.6975 20.4376 68.2374 20.1327 67.7311 19.9261C67.2249 19.7196 66.6828 19.6156 66.1361 19.6202C65.0513 19.6448 64.0191 20.093 63.2606 20.8688C62.5021 21.6446 62.0774 22.6865 62.0774 23.7715C62.0774 24.8565 62.5021 25.8983 63.2606 26.6742C64.0191 27.45 65.0513 27.8982 66.1361 27.9228C66.6841 27.9288 67.2278 27.8254 67.7353 27.6188C68.2429 27.4121 68.7041 27.1063 69.0921 26.7192C69.48 26.3322 69.7868 25.8716 69.9945 25.3646C70.2022 24.8575 70.3067 24.3141 70.3019 23.7661ZM6.4359 27.9121C7.25184 27.9338 8.05604 27.7143 8.74783 27.2812C9.43962 26.848 9.98825 26.2205 10.325 25.4771C10.6618 24.7337 10.7718 23.9074 10.6412 23.1018C10.5107 22.2962 10.1453 21.547 9.59091 20.948C9.03652 20.349 8.31773 19.9269 7.52453 19.7344C6.73134 19.5419 5.89897 19.5876 5.13164 19.8659C4.36431 20.1441 3.69611 20.6425 3.2107 21.2986C2.72529 21.9547 2.44423 22.7394 2.40271 23.5545C2.32145 25.945 4.07928 27.8437 6.4359 27.9121ZM2.40057 58.1805C2.39683 58.7279 2.50232 59.2706 2.71088 59.7767C2.91944 60.2828 3.22688 60.7423 3.61519 61.1281C4.00351 61.514 4.4649 61.8186 4.97237 62.024C5.47985 62.2294 6.02319 62.3315 6.57062 62.3244C7.12322 62.3369 7.67275 62.2389 8.18694 62.0362C8.70113 61.8334 9.16961 61.5299 9.56487 61.1436C9.96012 60.7573 10.2742 60.2959 10.4886 59.7865C10.703 59.2771 10.8135 58.73 10.8135 58.1773C10.8135 57.6247 10.703 57.0776 10.4886 56.5682C10.2742 56.0588 9.96012 55.5974 9.56487 55.2111C9.16961 54.8247 8.70113 54.5213 8.18694 54.3185C7.67275 54.1157 7.12322 54.0177 6.57062 54.0303C6.02257 54.0229 5.47856 54.125 4.97053 54.3307C4.4625 54.5364 4.0007 54.8415 3.61224 55.2281C3.22378 55.6147 2.91649 56.0751 2.70841 56.5821C2.50034 57.0891 2.39568 57.6325 2.40057 58.1805Z" fill="#606060"/>
<path id="Vector_2" d="M54.0869 32.4352C52.7124 33.2217 51.4478 33.9185 50.222 34.6729C50.041 34.7841 49.957 35.1645 49.9548 35.4231C49.9333 37.663 49.916 39.9115 49.9548 42.1407C49.9742 43.3077 49.5239 44.122 48.4855 44.6755C47.4083 45.2569 46.3441 45.896 45.2712 46.5008C43.6166 47.4327 42.2981 46.6953 42.2895 44.8252C42.2895 43.0127 42.2895 41.2024 42.2895 39.2852C42.0822 39.359 41.8793 39.4447 41.682 39.5417C40.6048 40.1487 39.575 40.8241 38.4504 41.352C37.6748 41.7111 37.5326 42.207 37.5369 42.9657C37.5671 48.5633 37.5542 54.1631 37.5542 59.7607V60.8294C37.914 60.6456 38.1445 60.5387 38.3664 60.4126C43.2935 57.5935 48.2162 54.7615 53.1562 51.9595C53.8456 51.5705 54.158 51.1046 54.1322 50.3074C54.0805 48.7621 54.1063 47.2147 54.1322 45.6694C54.1322 45.0154 54.4575 44.4469 55.1383 44.4426C55.5691 44.4426 56.0366 44.7696 56.3943 45.0645C56.5602 45.2035 56.5343 45.6117 56.5365 45.8981C56.5494 47.4455 56.5192 48.9908 56.5494 50.5361C56.5795 52.0813 55.8923 53.165 54.5587 53.9258C49.7157 56.683 44.8798 59.4501 40.0511 62.2272C39.3768 62.614 38.7111 63.0158 38.0238 63.377C37.5075 63.6737 36.9204 63.8278 36.3237 63.8233C35.727 63.8188 35.1424 63.6559 34.6307 63.3514C29.0465 60.1668 23.4681 56.9715 17.8954 53.7655C16.7363 53.0987 16.159 52.0685 16.159 50.722C16.159 44.3785 16.159 38.0342 16.159 31.6892C16.1334 31.0588 16.2879 30.434 16.6047 29.8868C16.9214 29.3397 17.3875 28.8924 17.9493 28.5965C23.4803 25.4233 29.0135 22.2558 34.5488 19.094C35.0882 18.7595 35.7116 18.582 36.3477 18.582C36.9839 18.582 37.6072 18.7595 38.1466 19.094C43.6834 22.2573 49.213 25.4248 54.7354 28.5965C55.298 28.8918 55.7649 29.3388 56.0825 29.886C56.4 30.4332 56.5551 31.0583 56.53 31.6892C56.53 34.3801 56.53 37.0731 56.53 39.7661C56.53 40.6339 56.0517 41.1768 55.3408 41.1789C54.6298 41.181 54.1279 40.6318 54.1214 39.7747C54.1063 37.5882 54.1214 35.4039 54.1214 33.2174C54.1214 33.0037 54.1042 32.7942 54.0869 32.4352ZM35.0465 60.7652C35.0868 60.6457 35.1156 60.5226 35.1326 60.3976C35.1326 54.3747 35.1326 48.3496 35.1197 42.3266C35.0962 42.1828 35.0419 42.0457 34.9605 41.9244C34.8791 41.8031 34.7725 41.7005 34.6479 41.6235C29.621 38.7167 24.5797 35.8235 19.5241 32.9438C19.2548 32.79 18.9748 32.6489 18.6214 32.4608C18.6042 32.7964 18.5827 33.0293 18.5827 33.2602C18.5827 38.9646 18.5827 44.667 18.5676 50.3715C18.5391 50.6884 18.6091 51.0063 18.7682 51.2826C18.9273 51.5588 19.1677 51.7801 19.4573 51.9168C24.4411 54.7466 29.4171 57.5913 34.3851 60.4511C34.5833 60.5536 34.7966 60.6434 35.0465 60.7652ZM40.9947 37.1693C40.9215 37.0902 40.8935 37.0389 40.8482 37.0133C35.514 33.9412 30.1768 30.8728 24.8368 27.8079C24.7622 27.7624 24.6786 27.7331 24.5917 27.7221C24.5048 27.711 24.4165 27.7184 24.3327 27.7438C22.8483 28.5688 21.379 29.4194 19.8947 30.2701C19.9852 30.3919 20.0067 30.4475 20.0476 30.471C25.2727 33.4632 30.5014 36.4554 35.7337 39.4477C35.9068 39.5348 36.0966 39.5844 36.2905 39.5932C36.4843 39.602 36.6779 39.5699 36.8583 39.499C38.2587 38.7573 39.6138 37.9473 40.9947 37.1693ZM52.9322 30.3299C47.4988 27.2222 42.2313 24.2022 36.9488 21.2079C36.6816 21.0561 36.2163 20.9813 35.9664 21.1095C34.7212 21.7507 33.519 22.471 32.3039 23.1678C32.3772 23.2704 32.388 23.3003 32.4095 23.311C37.7395 26.3844 43.0723 29.4529 48.408 32.5164C48.4936 32.5665 48.589 32.5979 48.6878 32.6086C48.7866 32.6193 48.8866 32.609 48.981 32.5784C50.2543 31.8624 51.5189 31.125 52.9429 30.3171L52.9322 30.3299ZM26.9438 26.2305C32.4095 29.366 37.7459 32.4287 43.1017 35.4851C43.1979 35.5424 43.3051 35.5791 43.4164 35.5927C43.5277 35.6063 43.6407 35.5966 43.748 35.5642C44.5926 35.1239 45.4112 34.628 46.2536 34.145C46.2195 34.0996 46.1821 34.0567 46.1416 34.0168C40.8073 30.9419 35.4716 27.8713 30.1345 24.8049C30.0341 24.757 29.9247 24.7305 29.8134 24.7272C29.702 24.7239 29.5912 24.7438 29.4882 24.7857C28.6479 25.2217 27.8487 25.7069 26.9438 26.2305ZM44.7046 44.0429C45.6547 43.5043 46.4669 43.0597 47.2597 42.5831C47.3315 42.5306 47.391 42.4633 47.4342 42.3858C47.4773 42.3084 47.503 42.2226 47.5096 42.1343C47.5268 40.2107 47.5204 38.2722 47.5204 36.2097C46.874 36.5751 46.3656 36.9278 45.7969 37.1565C44.9136 37.522 44.6055 38.0819 44.6658 39.0523C44.7778 40.6574 44.7046 42.2732 44.7046 44.0429Z" fill="#00AEEF"/>
</g>
</svg>
