<svg width="40" height="51" viewBox="0 0 40 51" fill="none" xmlns="http://www.w3.org/2000/svg">
<path d="M27 51C24.4288 51 21.9154 50.1496 19.7776 48.5563C17.6398 46.963 15.9735 44.6984 14.9896 42.0489C14.0056 39.3994 13.7482 36.4839 14.2498 33.6712C14.7514 30.8585 15.9895 28.2748 17.8076 26.247C19.6257 24.2191 21.9421 22.8381 24.4638 22.2786C26.9856 21.7191 29.5994 22.0063 31.9749 23.1038C34.3503 24.2012 36.3806 26.0597 37.8091 28.4442C39.2376 30.8287 40 33.6322 40 36.5C40 40.3456 38.6304 44.0338 36.1924 46.753C33.7544 49.4723 30.4478 51 27 51ZM27 25.625C25.0716 25.625 23.1866 26.2628 21.5832 27.4578C19.9798 28.6527 18.7301 30.3512 17.9922 32.3383C17.2542 34.3255 17.0611 36.5121 17.4373 38.6216C17.8136 40.7312 18.7421 42.6689 20.1057 44.1898C21.4693 45.7107 23.2066 46.7464 25.0979 47.166C26.9892 47.5857 28.9496 47.3703 30.7312 46.5472C32.5127 45.7241 34.0355 44.3302 35.1068 42.5418C36.1782 40.7534 36.75 38.6509 36.75 36.5C36.75 33.6158 35.7228 30.8497 33.8943 28.8102C32.0658 26.7708 29.5859 25.625 27 25.625Z" fill="#F5821F"/>
<path d="M29.885 42L26 37.19V29H29V35.6671L32 39.3814L29.885 42Z" fill="#ED1C24"/>
<path d="M38 7.23077C38 6.27191 37.6664 5.35232 37.0725 4.67431C36.4786 3.99629 35.6732 3.61538 34.8333 3.61538H28.5V0H25.3333V3.61538H12.6667V0H9.5V3.61538H3.16667C2.32681 3.61538 1.52136 3.99629 0.927495 4.67431C0.33363 5.35232 0 6.27191 0 7.23077V43.3846C0 44.3435 0.33363 45.2631 0.927495 45.9411C1.52136 46.6191 2.32681 47 3.16667 47H9.5V43.3846H3.16667V7.23077H9.5V10.8462H12.6667V7.23077H25.3333V10.8462H28.5V7.23077H34.8333V18.0769H38V7.23077Z" fill="#00A651"/>
</svg>
