<svg width="27" height="27" viewBox="0 0 27 27" fill="none" xmlns="http://www.w3.org/2000/svg">
<path d="M13.1805 0.550781C6.22507 0.550781 0.534302 6.24155 0.534302 13.1969C0.534302 20.1523 6.22507 25.8431 13.1805 25.8431C20.1358 25.8431 25.8266 20.1523 25.8266 13.1969C25.8266 6.24155 20.1358 0.550781 13.1805 0.550781ZM13.1805 23.3139C7.6035 23.3139 3.06353 18.7739 3.06353 13.1969C3.06353 7.61998 7.6035 3.08001 13.1805 3.08001C18.7574 3.08001 23.2974 7.61998 23.2974 13.1969C23.2974 18.7739 18.7574 23.3139 13.1805 23.3139ZM13.8128 6.87386H11.9158V14.4615L18.4918 18.5083L19.5035 16.8643L13.8128 13.4499V6.87386Z" fill="white" stroke="#00AEEF" stroke-width="0.7"/>
</svg>
