<svg width="50" height="50" viewBox="0 0 50 50" fill="none" xmlns="http://www.w3.org/2000/svg">
<g id="Group 3657">
<rect id="Rectangle 2094" width="50" height="50" rx="8" fill="#00AEEF"/>
<path id="Vector" d="M32.023 29.977C31.5546 29.5284 31.0988 29.0669 30.656 28.593C30.284 28.215 30.06 27.94 30.06 27.94L27.26 26.603C28.381 25.3316 28.9997 23.695 29 22C29 18.141 25.86 15 22 15C18.14 15 15 18.141 15 22C15 25.859 18.14 29 22 29C23.763 29 25.37 28.34 26.603 27.261L27.94 30.061C27.94 30.061 28.215 30.285 28.593 30.657C28.98 31.02 29.489 31.511 29.977 32.024L31.335 33.416L31.939 34.062L34.06 31.941L33.414 31.337C33.035 30.965 32.529 30.471 32.023 29.977ZM22 27C19.243 27 17 24.757 17 22C17 19.243 19.243 17 22 17C24.757 17 27 19.243 27 22C27 24.757 24.757 27 22 27Z" fill="white"/>
</g>
</svg>
