<svg width="150" height="150" viewBox="0 0 150 150" fill="none" xmlns="http://www.w3.org/2000/svg">
<g id="Group 3639">
<g id="Group 3640">
<g id="Ellipse 164" opacity="0.8" filter="url(#filter0_d_2199_28782)">
<circle cx="75" cy="73" r="50" fill="#00AEEF" fill-opacity="0.1" shape-rendering="crispEdges"/>
<circle cx="75" cy="73" r="49.75" stroke="#00AEEF" stroke-width="0.5" shape-rendering="crispEdges"/>
</g>
<g id="Group 3638">
<g id="Group 3653">
<g id="Group 3654">
<path id="Vector" d="M84.791 89.571C84.0539 88.8649 83.3365 88.1386 82.6396 87.3928C82.0541 86.7979 81.7016 86.3651 81.7016 86.3651L77.2949 84.2609C79.0592 82.2601 80.0328 79.6843 80.0334 77.0167C80.0334 70.9433 75.0916 66 69.0167 66C62.9418 66 58 70.9433 58 77.0167C58 83.09 62.9418 88.0334 69.0167 88.0334C71.7913 88.0334 74.3204 86.9946 76.2609 85.2965L78.3651 89.7032C78.3651 89.7032 78.7979 90.0557 79.3928 90.6412C80.0019 91.2125 80.803 91.9852 81.571 92.7926L83.7082 94.9833L84.6588 96L87.9969 92.6619L86.9802 91.7114C86.3837 91.1259 85.5873 90.3484 84.791 89.571ZM69.0167 84.8857C64.6777 84.8857 61.1476 81.3557 61.1476 77.0167C61.1476 72.6777 64.6777 69.1476 69.0167 69.1476C73.3557 69.1476 76.8857 72.6777 76.8857 77.0167C76.8857 81.3557 73.3557 84.8857 69.0167 84.8857Z" fill="#00AEEF"/>
<path id="Vector_2" opacity="0.3" d="M84 71C82.5565 69.8032 81.2185 68.4911 80 67.0774C78.1714 64.9545 76 61.7929 76 58.7802C75.9992 57.2415 76.468 55.7372 77.3471 54.4577C78.2261 53.1781 79.476 52.1808 80.9384 51.592C82.4007 51.0032 84.01 50.8493 85.5624 51.1498C87.1148 51.4502 88.5406 52.1916 89.6594 53.2801C90.4043 54.0009 90.9946 54.8582 91.3964 55.8023C91.7982 56.7463 92.0033 57.7585 92 58.7802C92 61.7929 89.8285 64.9545 88 67.0774C86.7815 68.4911 85.4435 69.8032 84 71ZM84 55.4475C83.0907 55.4475 82.2186 55.7986 81.5756 56.4236C80.9326 57.0486 80.5714 57.8963 80.5714 58.7802C80.5714 59.664 80.9326 60.5117 81.5756 61.1367C82.2186 61.7617 83.0907 62.1128 84 62.1128C84.9093 62.1128 85.7814 61.7617 86.4243 61.1367C87.0673 60.5117 87.4285 59.664 87.4285 58.7802C87.4285 57.8963 87.0673 57.0486 86.4243 56.4236C85.7814 55.7986 84.9093 55.4475 84 55.4475Z" fill="#00AEEF"/>
</g>
</g>
</g>
</g>
</g>
<defs>
<filter id="filter0_d_2199_28782" x="0" y="0" width="150" height="150" filterUnits="userSpaceOnUse" color-interpolation-filters="sRGB">
<feFlood flood-opacity="0" result="BackgroundImageFix"/>
<feColorMatrix in="SourceAlpha" type="matrix" values="0 0 0 0 0 0 0 0 0 0 0 0 0 0 0 0 0 0 127 0" result="hardAlpha"/>
<feOffset dy="2"/>
<feGaussianBlur stdDeviation="12.5"/>
<feComposite in2="hardAlpha" operator="out"/>
<feColorMatrix type="matrix" values="0 0 0 0 0 0 0 0 0 0 0 0 0 0 0 0 0 0 0.04 0"/>
<feBlend mode="normal" in2="BackgroundImageFix" result="effect1_dropShadow_2199_28782"/>
<feBlend mode="normal" in="SourceGraphic" in2="effect1_dropShadow_2199_28782" result="shape"/>
</filter>
</defs>
</svg>
