<svg width="21" height="22" viewBox="0 0 21 22" fill="none" xmlns="http://www.w3.org/2000/svg">
<path id="Vector" d="M20.7227 13.7964L19.101 12.4213C19.1778 11.9547 19.2174 11.4784 19.2174 11.002C19.2174 10.5256 19.1778 10.0492 19.101 9.5827L20.7227 8.2076C20.845 8.10375 20.9326 7.96543 20.9737 7.81103C21.0148 7.65663 21.0076 7.49348 20.953 7.34326L20.9307 7.27941C20.4842 6.04189 19.8157 4.89469 18.9574 3.89324L18.9129 3.84167C18.8088 3.72025 18.67 3.63297 18.5149 3.59133C18.3597 3.54968 18.1955 3.55564 18.0439 3.6084L16.031 4.31805C15.2883 3.71399 14.4589 3.23761 13.5626 2.90366L13.1739 0.816463C13.1446 0.659413 13.0678 0.51493 12.9537 0.40221C12.8396 0.28949 12.6936 0.213868 12.5351 0.185392L12.4683 0.173115C11.1784 -0.0577049 9.82162 -0.0577049 8.53171 0.173115L8.46487 0.185392C8.30641 0.213868 8.16043 0.28949 8.04634 0.40221C7.93224 0.51493 7.85543 0.659413 7.8261 0.816463L7.43492 2.91348C6.54582 3.2475 5.71785 3.72362 4.98385 4.32296L2.95615 3.6084C2.80454 3.55522 2.64021 3.54905 2.48498 3.59072C2.32976 3.63238 2.191 3.71991 2.08713 3.84167L2.04256 3.89324C1.1853 4.8954 0.516899 6.04241 0.0693282 7.27941L0.0470457 7.34326C-0.0643666 7.6502 0.0272392 7.99397 0.277298 8.2076L1.91877 9.59743C1.84202 10.0591 1.80488 10.5305 1.80488 10.9995C1.80488 11.471 1.84202 11.9425 1.91877 12.4016L0.277298 13.7915C0.154981 13.8953 0.0674378 14.0336 0.0263082 14.188C-0.0148215 14.3424 -0.00758843 14.5056 0.0470457 14.6558L0.0693282 14.7197C0.517453 15.9572 1.18098 17.0991 2.04256 18.1058L2.08713 18.1574C2.19125 18.2788 2.33002 18.3661 2.48515 18.4077C2.64028 18.4494 2.80449 18.4434 2.95615 18.3907L4.98385 17.6761C5.72165 18.2777 6.5461 18.7541 7.43492 19.0856L7.8261 21.1826C7.85543 21.3397 7.93224 21.4841 8.04634 21.5969C8.16043 21.7096 8.30641 21.7852 8.46487 21.8137L8.53171 21.826C9.83347 22.058 11.1665 22.058 12.4683 21.826L12.5351 21.8137C12.6936 21.7852 12.8396 21.7096 12.9537 21.5969C13.0678 21.4841 13.1446 21.3397 13.1739 21.1826L13.5626 19.0954C14.4585 18.7623 15.2926 18.2844 16.031 17.681L18.0439 18.3907C18.1955 18.4439 18.3598 18.45 18.515 18.4084C18.6702 18.3667 18.809 18.2792 18.9129 18.1574L18.9574 18.1058C19.819 17.0966 20.4825 15.9572 20.9307 14.7197L20.953 14.6558C21.0644 14.3538 20.9728 14.01 20.7227 13.7964ZM17.3432 9.87245C17.4051 10.2432 17.4373 10.6238 17.4373 11.0044C17.4373 11.3851 17.4051 11.7657 17.3432 12.1364L17.1798 13.1211L19.0292 14.6902C18.7489 15.3308 18.395 15.9372 17.9745 16.4975L15.677 15.6896L14.8995 16.3231C14.3078 16.8044 13.6493 17.1826 12.9362 17.4478L11.9929 17.7989L11.5498 20.1808C10.8505 20.2593 10.1445 20.2593 9.4453 20.1808L9.00212 17.794L8.06626 17.4379C7.36065 17.1727 6.70455 16.7946 6.11778 16.3158L5.34037 15.6798L3.02795 16.495C2.60705 15.9327 2.25549 15.3262 1.97324 14.6877L3.84249 13.1039L3.68156 12.1217C3.62214 11.7558 3.58996 11.3777 3.58996 11.0044C3.58996 10.6288 3.61967 10.2531 3.68156 9.88718L3.84249 8.90497L1.97324 7.32116C2.25301 6.68026 2.60705 6.0762 3.02795 5.51389L5.34037 6.32912L6.11778 5.69314C6.70455 5.21431 7.36065 4.83616 8.06626 4.57096L9.0046 4.21982L9.44777 1.83305C10.1435 1.75447 10.854 1.75447 11.5522 1.83305L11.9954 4.21491L12.9387 4.56605C13.6493 4.83125 14.3103 5.2094 14.902 5.69069L15.6794 6.32421L17.977 5.51634C18.3979 6.07866 18.7495 6.68517 19.0317 7.32361L17.1823 8.89269L17.3432 9.87245ZM10.5025 6.43717C8.09597 6.43717 6.14502 8.37212 6.14502 10.7589C6.14502 13.1457 8.09597 15.0806 10.5025 15.0806C12.909 15.0806 14.8599 13.1457 14.8599 10.7589C14.8599 8.37212 12.909 6.43717 10.5025 6.43717ZM12.4633 12.7037C12.2061 12.9595 11.9005 13.1623 11.564 13.3006C11.2275 13.4388 10.8667 13.5096 10.5025 13.5091C9.7622 13.5091 9.06649 13.2218 8.54162 12.7037C8.2837 12.4486 8.07917 12.1455 7.9398 11.8117C7.80043 11.4779 7.72898 11.1201 7.72955 10.7589C7.72955 10.0247 8.01922 9.33469 8.54162 8.81412C9.06649 8.29354 9.7622 8.0087 10.5025 8.0087C11.2427 8.0087 11.9385 8.29354 12.4633 8.81412C12.7213 9.06919 12.9258 9.37233 13.0652 9.70609C13.2045 10.0398 13.276 10.3976 13.2754 10.7589C13.2754 11.4931 12.9857 12.1831 12.4633 12.7037Z" fill="#606060"/>
</svg>
