<svg width="64" height="68" viewBox="0 0 64 68" fill="none" xmlns="http://www.w3.org/2000/svg">
<path d="M63.1549 42.6434L58.2127 38.3931C58.4466 36.951 58.5673 35.4786 58.5673 34.0062C58.5673 32.5337 58.4466 31.0613 58.2127 29.6192L63.1549 25.3689C63.5277 25.0479 63.7945 24.6204 63.9198 24.1432C64.0452 23.666 64.0231 23.1617 63.8566 22.6973L63.7887 22.5C62.4281 18.6749 60.3908 15.129 57.775 12.0336L57.6392 11.8743C57.3219 11.499 56.899 11.2292 56.4262 11.1005C55.9534 10.9717 55.453 10.9901 54.9908 11.1532L48.8564 13.3467C46.5928 11.4796 44.0651 10.0072 41.3336 8.97495L40.149 2.52361C40.0596 2.03818 39.8255 1.5916 39.4778 1.24319C39.1301 0.894787 38.6852 0.661048 38.2023 0.573031L37.9986 0.535082C34.0674 -0.178361 29.9326 -0.178361 26.0014 0.535082L25.7977 0.573031C25.3148 0.661048 24.8699 0.894787 24.5222 1.24319C24.1745 1.5916 23.9404 2.03818 23.851 2.52361L22.6588 9.00531C19.9492 10.0377 17.4258 11.5094 15.1889 13.3619L9.00921 11.1532C8.54717 10.9888 8.04635 10.9698 7.57328 11.0986C7.10022 11.2274 6.67732 11.4979 6.36078 11.8743L6.22496 12.0336C3.61234 15.1312 1.57531 18.6765 0.211286 22.5L0.143378 22.6973C-0.196165 23.6461 0.0830146 24.7086 0.845099 25.3689L5.84769 29.6648C5.61378 31.0917 5.5006 32.5489 5.5006 33.9986C5.5006 35.4558 5.61378 36.9131 5.84769 38.3323L0.845099 42.6282C0.472324 42.9492 0.205525 43.3767 0.0801773 43.854C-0.0451702 44.3312 -0.0231266 44.8355 0.143378 45.2998L0.211286 45.4971C1.577 49.3224 3.59917 52.8517 6.22496 55.9635L6.36078 56.1229C6.67809 56.4982 7.10101 56.768 7.57379 56.8967C8.04657 57.0254 8.54703 57.007 9.00921 56.8439L15.1889 54.6353C17.4374 56.4948 19.95 57.9672 22.6588 58.9918L23.851 65.4735C23.9404 65.9589 24.1745 66.4055 24.5222 66.7539C24.8699 67.1023 25.3148 67.3361 25.7977 67.4241L26.0014 67.4621C29.9687 68.1793 34.0313 68.1793 37.9986 67.4621L38.2023 67.4241C38.6852 67.3361 39.1301 67.1023 39.4778 66.7539C39.8255 66.4055 40.0596 65.9589 40.149 65.4735L41.3336 59.0222C44.064 57.9927 46.6059 56.5154 48.8564 54.6504L54.9908 56.8439C55.4528 57.0083 55.9537 57.0273 56.4267 56.8986C56.8998 56.7698 57.3227 56.4992 57.6392 56.1229L57.775 55.9635C60.4008 52.8441 62.423 49.3224 63.7887 45.4971L63.8566 45.2998C64.1962 44.3663 63.917 43.3037 63.1549 42.6434V42.6434ZM52.8554 30.5148C53.0441 31.6609 53.1422 32.8373 53.1422 34.0137C53.1422 35.1902 53.0441 36.3666 52.8554 37.5126L52.3575 40.5562L57.9939 45.4061C57.1394 47.3862 56.0608 49.2606 54.7795 50.9922L47.7774 48.4951L45.4082 50.4533C43.6048 51.9409 41.5977 53.1097 39.4247 53.9294L36.5499 55.0148L35.1992 62.3769C33.0682 62.6198 30.9167 62.6198 28.7857 62.3769L27.435 54.9996L24.5829 53.8991C22.4325 53.0794 20.4329 51.9105 18.6447 50.4305L16.2754 48.4648L9.22802 50.9846C7.94531 49.2465 6.87386 47.3718 6.01369 45.3985L11.7105 40.503L11.22 37.4671C11.0389 36.3362 10.9408 35.1674 10.9408 34.0137C10.9408 32.8525 11.0314 31.6913 11.22 30.5604L11.7105 27.5245L6.01369 22.629C6.86632 20.6481 7.94531 18.781 9.22802 17.0429L16.2754 19.5627L18.6447 17.597C20.4329 16.117 22.4325 14.9481 24.5829 14.1284L27.4426 13.0431L28.7932 5.6658C30.9135 5.42292 33.079 5.42292 35.2068 5.6658L36.5574 13.0279L39.4322 14.1133C41.5977 14.933 43.6124 16.1018 45.4157 17.5894L47.7849 19.5476L54.7871 17.0505C56.0698 18.7886 57.1412 20.6633 58.0014 22.6366L52.365 27.4865L52.8554 30.5148ZM32.0075 19.8967C24.6734 19.8967 18.7277 25.8775 18.7277 33.2548C18.7277 40.6321 24.6734 46.6128 32.0075 46.6128C39.3417 46.6128 45.2874 40.6321 45.2874 33.2548C45.2874 25.8775 39.3417 19.8967 32.0075 19.8967ZM37.9835 39.2659C37.1997 40.0566 36.2682 40.6836 35.2426 41.1108C34.217 41.538 33.1176 41.7571 32.0075 41.7554C29.7515 41.7554 27.6312 40.8673 26.0316 39.2659C25.2455 38.4775 24.6222 37.5405 24.1975 36.5089C23.7728 35.4773 23.555 34.3714 23.5567 33.2548C23.5567 30.9854 24.4395 28.8527 26.0316 27.2436C27.6312 25.6346 29.7515 24.7542 32.0075 24.7542C34.2636 24.7542 36.3839 25.6346 37.9835 27.2436C38.7695 28.032 39.3929 28.969 39.8176 30.0006C40.2423 31.0323 40.4601 32.1382 40.4584 33.2548C40.4584 35.5241 39.5756 37.6569 37.9835 39.2659Z" fill="#00AEEF"/>
</svg>
