<svg width="30" height="32" viewBox="0 0 30 32" fill="none" xmlns="http://www.w3.org/2000/svg">
<g clip-path="url(#clip0_3_273)">
<path d="M28.1562 5.23L16.1562 0.2295C15.8516 0.102563 15.334 0 15.0039 0C14.6719 0 14.1562 0.102563 13.8496 0.2295L1.84963 5.23C0.7305 5.69187 0 6.78588 0 7.99875C0 24.0724 11.8227 32 14.9971 32C18.247 32 30 23.9884 30 7.99875C30 6.78588 29.2695 5.69187 28.1562 5.23ZM15 27.906V4.09425C15.0004 4.09275 15.0029 4.08225 15.0029 4.08225L25.9926 8.66162C25.7361 19.9814 18.9389 26.0669 15 27.906Z" fill="#0EDA47"/>
</g>
<defs>
<clipPath id="clip0_3_273">
<rect width="30" height="32" fill="white"/>
</clipPath>
</defs>
</svg>
