<svg width="52" height="52" viewBox="0 0 52 52" fill="none" xmlns="http://www.w3.org/2000/svg">
<g id="mingcute:ship-fill" opacity="0.8" clip-path="url(#clip0_1_96036)">
<g id="Group">
<path id="Vector" fill-rule="evenodd" clip-rule="evenodd" d="M30.7907 38.5143C31.917 37.9512 33.1526 37.6403 34.4113 37.6032C35.6701 37.5662 36.9218 37.8039 38.0793 38.2998L38.543 38.5165L44.302 41.3938C44.7967 41.6408 45.1782 42.0676 45.3685 42.5868C45.5588 43.1059 45.5433 43.6782 45.3254 44.1863C45.1075 44.6945 44.7035 45.1001 44.1962 45.3201C43.6889 45.5401 43.1168 45.5578 42.5968 45.3697L42.365 45.27L36.6038 42.3905C36.0636 42.1204 35.4728 41.9662 34.8695 41.9379C34.2661 41.9095 33.6635 42.0076 33.1003 42.2258L32.7277 42.3905L29.8763 43.8183C28.7495 44.3815 27.5135 44.6922 26.2543 44.7289C24.9952 44.7655 23.7432 44.5273 22.5855 44.0307L22.124 43.8183L19.2705 42.3905C18.7302 42.1204 18.1395 41.9662 17.5362 41.9379C16.9328 41.9095 16.3302 42.0076 15.767 42.2258L15.3943 42.3905L9.63533 45.2722C9.14058 45.5224 8.56874 45.5734 8.03751 45.4147C7.50628 45.2561 7.05608 44.8998 6.77958 44.4192C6.50308 43.9387 6.42131 43.3704 6.55111 42.8314C6.6809 42.2924 7.01239 41.8237 7.47733 41.5217L7.69833 41.3938L13.4573 38.5143C14.5837 37.9512 15.8193 37.6403 17.078 37.6032C18.3368 37.5662 19.5885 37.8039 20.746 38.2998L21.2097 38.5165L24.061 39.9422C24.6015 40.2126 25.1927 40.3669 25.7964 40.3953C26.4002 40.4237 27.0032 40.3254 27.5667 40.1068L27.9372 39.9422L30.7907 38.5143ZM28.1668 4.33301C28.7415 4.33301 29.2926 4.56128 29.6989 4.96761C30.1052 5.37394 30.3335 5.92504 30.3335 6.49967V9.35967L37.5463 10.56C38.5577 10.7292 39.4764 11.2516 40.1389 12.0343C40.8014 12.8171 41.1649 13.8094 41.1647 14.8348V22.2708L45.628 23.7572C45.9835 23.8758 46.3105 24.0668 46.5883 24.3183C46.8661 24.5697 47.0888 24.8761 47.2421 25.218C47.3955 25.56 47.4762 25.93 47.4792 26.3047C47.4822 26.6794 47.4074 27.0507 47.2595 27.395L42.56 38.3583L38.543 36.3477C37.3395 35.7459 36.0124 35.4326 34.6668 35.4326C33.3213 35.4326 31.9942 35.7459 30.7907 36.3477L27.9372 37.7755C27.3354 38.0764 26.6719 38.2331 25.9991 38.2331C25.3263 38.2331 24.6627 38.0764 24.061 37.7755L21.2097 36.3477C20.0062 35.7459 18.6791 35.4326 17.3335 35.4326C15.9879 35.4326 14.6608 35.7459 13.4573 36.3477L10.7057 37.7257L4.94666 27.6485C4.74787 27.3006 4.62875 26.9129 4.59789 26.5134C4.56703 26.1139 4.6252 25.7125 4.76821 25.3382C4.91121 24.9639 5.13549 24.626 5.42488 24.3489C5.71426 24.0717 6.06153 23.8622 6.44166 23.7355L10.8335 22.2708V14.8348C10.8333 13.8094 11.1968 12.8171 11.8593 12.0343C12.5218 11.2516 13.4404 10.7292 14.4518 10.56L21.6668 9.35967V6.49967C21.6668 5.92504 21.8951 5.37394 22.3014 4.96761C22.7078 4.56128 23.2589 4.33301 23.8335 4.33301H28.1668ZM26.0002 13.03L15.1668 14.8348V20.8278L24.6287 17.6732C25.5182 17.3766 26.4799 17.3766 27.3695 17.6732L36.8335 20.8278V14.8348L26.0002 13.03Z" fill="#111111"/>
</g>
</g>
<defs>
<clipPath id="clip0_1_96036">
<rect width="52" height="52" fill="white"/>
</clipPath>
</defs>
</svg>
