<svg width="38" height="38" viewBox="0 0 38 38" fill="none" xmlns="http://www.w3.org/2000/svg">
<path d="M35.9577 14.0204L33.0317 2.82164C32.9698 2.58487 32.839 2.3766 32.6592 2.22835C32.4794 2.08011 32.2603 1.99995 32.0351 2H25.0449L25.8654 12.7738C25.8778 12.9471 25.9278 13.1146 26.0113 13.2624C26.0948 13.4102 26.2094 13.5341 26.3455 13.6238C27.0192 14.0639 28.3353 14.8761 29.363 15.2217C31.1179 15.8129 33.6811 15.5995 35.1424 15.4031C35.2845 15.383 35.4208 15.3292 35.5419 15.2456C35.663 15.1619 35.766 15.0504 35.8436 14.9188C35.9212 14.7871 35.9716 14.6385 35.9913 14.4834C36.011 14.3282 35.9995 14.1702 35.9577 14.0204Z" stroke="#00AEEF" stroke-width="3"/>
<path d="M22.4526 15.2217C23.4337 14.8912 24.6773 14.1376 25.3717 13.688C25.5335 13.5827 25.6648 13.4294 25.7504 13.2459C25.836 13.0624 25.8723 12.8562 25.8553 12.6511L25.0435 2H12.9528L12.141 12.6511C12.1236 12.8565 12.1598 13.0631 12.2454 13.247C12.331 13.4308 12.4625 13.5844 12.6246 13.6899C13.319 14.1376 14.5626 14.8912 15.5436 15.2217C18.1224 16.0906 19.8738 16.0906 22.4526 15.2217V15.2217Z" stroke="#00AEEF" stroke-width="3"/>
<path d="M4.96799 2.82164L2.04204 14.0223C2.00074 14.1719 1.9897 14.3295 2.00968 14.4842C2.02966 14.6389 2.0802 14.787 2.15777 14.9181C2.23534 15.0493 2.33809 15.1605 2.45888 15.2439C2.57968 15.3273 2.71563 15.381 2.8573 15.4012C4.31682 15.5995 6.88178 15.811 8.63666 15.2217C9.66437 14.8761 10.9823 14.0639 11.6542 13.6257C11.7905 13.5358 11.9052 13.4116 11.9887 13.2635C12.0723 13.1153 12.1222 12.9474 12.1343 12.7738L12.9548 2H5.96461C5.73941 1.99995 5.52033 2.08011 5.34051 2.22835C5.16069 2.3766 5.02992 2.58487 4.96799 2.82164V2.82164Z" stroke="#00AEEF" stroke-width="3"/>
<path d="M3.45508 15.2227V32.222C3.45508 33.2239 3.81903 34.1848 4.46687 34.8932C5.11472 35.6017 5.99338 35.9997 6.90957 35.9997H31.091C32.0072 35.9997 32.8858 35.6017 33.5337 34.8932C34.1815 34.1848 34.5455 33.2239 34.5455 32.222V15.2227" stroke="#00AEEF" stroke-width="3"/>
</svg>
