<svg width="52" height="52" viewBox="0 0 52 52" fill="none" xmlns="http://www.w3.org/2000/svg">
<g clip-path="url(#clip0_146_30524)">
<path fill-rule="evenodd" clip-rule="evenodd" d="M52 26C52 32.8956 49.2607 39.5088 44.3848 44.3848C39.5088 49.2607 32.8956 52 26 52C19.1044 52 12.4912 49.2607 7.61522 44.3848C2.73928 39.5088 0 32.8956 0 26C0 19.1044 2.73928 12.4912 7.61522 7.61522C12.4912 2.73928 19.1044 0 26 0C32.8956 0 39.5088 2.73928 44.3848 7.61522C49.2607 12.4912 52 19.1044 52 26ZM17.3333 34.6667H13.8667V17.3333H17.3333V34.6667ZM35.5403 34.4379C35.8038 34.5884 36.1023 34.6671 36.4059 34.6661C36.7094 34.6651 37.0073 34.5844 37.2699 34.432C37.5324 34.2797 37.7504 34.0611 37.9019 33.7981C38.0534 33.5351 38.1332 33.2369 38.1333 32.9333V19.0667C38.1332 18.7631 38.0534 18.4649 37.9019 18.2019C37.7504 17.9389 37.5324 17.7203 37.2699 17.568C37.0073 17.4156 36.7094 17.3349 36.4059 17.3339C36.1023 17.3329 35.8038 17.4116 35.5403 17.5621L23.4069 24.4955C23.1418 24.6471 22.9215 24.8662 22.7683 25.1304C22.615 25.3946 22.5343 25.6946 22.5343 26C22.5343 26.3054 22.615 26.6054 22.7683 26.8696C22.9215 27.1338 23.1418 27.3529 23.4069 27.5045L35.5403 34.4379Z" fill="black" fill-opacity="0.7"/>
</g>
<defs>
<clipPath id="clip0_146_30524">
<rect width="52" height="52" fill="white" transform="matrix(-1 0 0 -1 52 52)"/>
</clipPath>
</defs>
</svg>
