<svg width="52" height="52" viewBox="0 0 52 52" fill="none" xmlns="http://www.w3.org/2000/svg">
<g id="teenyicons:next-circle-solid" clip-path="url(#clip0_146_30522)">
<path id="Vector" fill-rule="evenodd" clip-rule="evenodd" d="M0 26C0 19.1044 2.73928 12.4912 7.61522 7.61522C12.4912 2.73928 19.1044 0 26 0C32.8956 0 39.5088 2.73928 44.3848 7.61522C49.2607 12.4912 52 19.1044 52 26C52 32.8956 49.2607 39.5088 44.3848 44.3848C39.5088 49.2607 32.8956 52 26 52C19.1044 52 12.4912 49.2607 7.61522 44.3848C2.73928 39.5088 0 32.8956 0 26ZM34.6667 17.3333H38.1333V34.6667H34.6667V17.3333ZM16.4597 17.5621C16.1962 17.4116 15.8977 17.3329 15.5941 17.3339C15.2906 17.3349 14.9927 17.4156 14.7301 17.568C14.4676 17.7203 14.2496 17.9389 14.0981 18.2019C13.9466 18.4649 13.8668 18.7631 13.8667 19.0667V32.9333C13.8668 33.2369 13.9466 33.5351 14.0981 33.7981C14.2496 34.0611 14.4676 34.2797 14.7301 34.432C14.9927 34.5844 15.2906 34.6651 15.5941 34.6661C15.8977 34.6671 16.1962 34.5884 16.4597 34.4379L28.5931 27.5045C28.8582 27.3529 29.0785 27.1338 29.2317 26.8696C29.385 26.6054 29.4657 26.3054 29.4657 26C29.4657 25.6946 29.385 25.3946 29.2317 25.1304C29.0785 24.8662 28.8582 24.6471 28.5931 24.4955L16.4597 17.5621Z" fill="black" fill-opacity="0.7"/>
</g>
<defs>
<clipPath id="clip0_146_30522">
<rect width="52" height="52" fill="white"/>
</clipPath>
</defs>
</svg>
