<svg width="60" height="60" viewBox="0 0 60 60" fill="none" xmlns="http://www.w3.org/2000/svg">
<path d="M3.61628 57.6523C3.70459 58.4304 3.9312 58.612 4.70433 58.612H16.1764C17.0678 58.6103 17.3444 58.2404 17.0895 57.389C17.03 57.1894 16.9707 56.9897 16.9113 56.7901C16.5334 55.5183 16.1555 54.2467 15.7465 52.9851C15.6115 52.5652 15.6998 52.3636 16.0681 52.1387C17.4832 51.2645 18.8879 50.3758 20.282 49.4727L1.02362 36.3111C1.34132 38.8471 1.65012 41.3843 1.95005 43.9225L3.61628 57.6523ZM3.61628 57.6523L3.3681 57.6824L3.36799 57.6814M3.61628 57.6523L3.36788 57.6804L1.70187 43.9526L1.70177 43.9518C1.40192 41.4142 1.09318 38.8776 0.775559 36.3422L0.775543 36.3421C0.721275 35.9071 0.739632 35.5191 0.965572 35.2475C1.19555 34.9711 1.57238 34.8948 2.0117 34.8948C2.66083 34.8948 3.30892 34.8955 3.95636 34.8963C5.80333 34.8986 7.64507 34.9008 9.49092 34.8848L9.49309 34.8848C9.82079 34.8848 10.1106 34.946 10.345 35.1162C10.5812 35.2877 10.7259 35.5441 10.8152 35.862L10.8156 35.8636C10.9909 36.5046 11.1883 37.1361 11.4071 37.8365C11.4767 38.0595 11.5486 38.2894 11.6226 38.5289C11.8023 38.4147 11.981 38.3053 12.1545 38.1991C12.3006 38.1096 12.4431 38.0224 12.5792 37.9366C12.9678 37.6917 13.3211 37.4489 13.6308 37.1638C15.2914 35.6293 17.112 34.3701 19.3656 33.7977L19.3657 33.7977C22.2528 33.0658 25.057 33.3098 27.7246 34.6342L27.7267 34.6353C29.1561 35.3624 30.7471 35.7132 32.3497 35.6547L32.3505 35.6547C32.8298 35.6387 33.3232 35.6615 33.8039 35.6837C34.0095 35.6932 34.2127 35.7026 34.4115 35.7088C35.0869 35.7299 35.7295 35.7158 36.3304 35.5654C36.933 35.4146 37.5019 35.1362 38.0719 34.8071C38.3413 34.6514 38.6079 34.4864 38.8781 34.319L38.9246 34.2902C39.2095 34.1139 39.4985 33.9357 39.7919 33.7693L39.792 33.7692C40.8628 33.1626 41.9324 32.8569 43.0015 32.8845C44.0666 32.9121 45.1123 33.27 46.1398 33.9603C46.1937 33.986 46.2526 33.9999 46.3124 34.0009C46.3728 34.002 46.4327 33.9898 46.4879 33.9654C48.3032 32.8718 50.474 33.4468 51.6998 34.7373C51.8187 34.862 51.878 34.8613 51.9073 34.8591C51.9338 34.857 51.9691 34.8482 52.0227 34.8262C52.0634 34.8096 52.1032 34.7906 52.1522 34.7671C52.1714 34.7579 52.1919 34.7481 52.2145 34.7374C53.288 34.2212 54.5103 34.1041 55.6624 34.407C56.8148 34.7101 57.8215 35.4136 58.5023 36.3916L58.5038 36.3937C58.7246 36.7183 58.8741 37.0326 58.8193 37.3529C58.7639 37.6763 58.5158 37.9182 58.1904 38.1417C56.6337 39.2118 55.0792 40.2863 53.5244 41.361C49.4238 44.1956 45.321 47.0317 41.1683 49.7909L41.0299 49.5827L41.1682 49.7909C39.0341 51.2085 36.4958 51.625 33.984 51.2766L33.9838 51.2766C31.6402 50.9494 29.3079 50.5164 26.9814 50.0845C26.0203 49.906 25.0603 49.7278 24.1008 49.5573C24.1007 49.5573 24.1006 49.5572 24.1005 49.5572L24.1443 49.3111C23.9089 49.2696 23.674 49.2234 23.4388 49.1772C23.1646 49.1234 22.8901 49.0695 22.6147 49.0228L3.36799 57.6814M3.36799 57.6814C3.41274 58.075 3.49774 58.4027 3.7396 58.6127C3.97967 58.8211 4.31595 58.862 4.70433 58.862H4.72674H4.74915H4.77156H4.79397H4.81638H4.83879H4.8612H4.88361H4.90602H4.92843H4.95084H4.97325H4.99565H5.01806H5.04047H5.06288H5.08529H5.1077H5.13011H5.15252H5.17493H5.19734H5.21975H5.24216H5.26457H5.28698H5.30939H5.33179H5.3542H5.37661H5.39902H5.42143H5.44384H5.46625H5.48866H5.51107H5.53348H5.55589H5.57829H5.6007H5.62311H5.64552H5.66793H5.69034H5.71275H5.73516H5.75757H5.77998H5.80238H5.82479H5.8472H5.86961H5.89202H5.91443H5.93684H5.95925H5.98166H6.00406H6.02647H6.04888H6.07129H6.0937H6.11611H6.13852H6.16093H6.18333H6.20574H6.22815H6.25056H6.27297H6.29538H6.31779H6.3402H6.3626H6.38501H6.40742H6.42983H6.45224H6.47465H6.49706H6.51946H6.54187H6.56428H6.58669H6.6091H6.63151H6.65391H6.67632H6.69873H6.72114H6.74355H6.76596H6.78836H6.81077H6.83318H6.85559H6.878H6.90041H6.92281H6.94522H6.96763H6.99004H7.01245H7.03486H7.05726H7.07967H7.10208H7.12449H7.1469H7.16931H7.19171H7.21412H7.23653H7.25894H7.28135H7.30375H7.32616H7.34857H7.37098H7.39339H7.41579H7.4382H7.46061H7.48302H7.50543H7.52783H7.55024H7.57265H7.59506H7.61747H7.63987H7.66228H7.68469H7.7071H7.72951H7.75191H7.77432H7.79673H7.81914H7.84154H7.86395H7.88636H7.90877H7.93118H7.95358H7.97599H7.9984H8.02081H8.04321H8.06562H8.08803H8.11044H8.13284H8.15525H8.17766H8.20007H8.22247H8.24488H8.26729H8.2897H8.3121H8.33451H8.35692H8.37933H8.40173H8.42414H8.44655H8.46896H8.49136H8.51377H8.53618H8.55859H8.58099H8.6034H8.62581H8.64822H8.67062H8.69303H8.71544H8.73784H8.76025H8.78266H8.80507H8.82747H8.84988H8.87229H8.8947H8.9171H8.93951H8.96192H8.98432H9.00673H9.02914H9.05155H9.07395H9.09636H9.11877H9.14117H9.16358H9.18599H9.2084H9.2308H9.25321H9.27562H9.29802H9.32043H9.34284H9.36524H9.38765H9.41006H9.43246H9.45487H9.47728H9.49968H9.52209H9.5445H9.56691H9.58931H9.61172H9.63413H9.65653H9.67894H9.70135H9.72375H9.74616H9.76857H9.79097H9.81338H9.83579H9.85819H9.8806H9.90301H9.92541H9.94782H9.97023H9.99263H10.015H10.0374H10.0599H10.0823H10.1047H10.1271H10.1495H10.1719H10.1943H10.2167H10.2391H10.2615H10.2839H10.3063H10.3287H10.3511H10.3735H10.3959H10.4184H10.4408H10.4632H10.4856H10.508H10.5304H10.5528H10.5752H10.5976H10.62H10.6424H10.6648H10.6872H10.7096H10.732H10.7544H10.7769H10.7993H10.8217H10.8441H10.8665H10.8889H10.9113H10.9337H10.9561H10.9785H11.0009H11.0233H11.0457H11.0681H11.0905H11.1129H11.1353H11.1578H11.1802H11.2026H11.225H11.2474H11.2698H11.2922H11.3146H11.337H11.3594H11.3818H11.4042H11.4266H11.449H11.4714H11.4938H11.5162H11.5387H11.5611H11.5835H11.6059H11.6283H11.6507H11.6731H11.6955H11.7179H11.7403H11.7627H11.7851H11.8075H11.8299H11.8523H11.8747H11.8971H11.9195H11.942H11.9644H11.9868H12.0092H12.0316H12.054H12.0764H12.0988H12.1212H12.1436H12.166H12.1884H12.2108H12.2332H12.2556H12.278H12.3004H12.3228H12.3453H12.3677H12.3901H12.4125H12.4349H12.4573H12.4797H12.5021H12.5245H12.5469H12.5693H12.5917H12.6141H12.6365H12.6589H12.6813H12.7037H12.7261H12.7485H12.7709H12.7934H12.8158H12.8382H12.8606H12.883H12.9054H12.9278H12.9502H12.9726H12.995H13.0174H13.0398H13.0622H13.0846H13.107H13.1294H13.1518H13.1742H13.1966H13.219H13.2414H13.2639H13.2863H13.3087H13.3311H13.3535H13.3759H13.3983H13.4207H13.4431H13.4655H13.4879H13.5103H13.5327H13.5551H13.5775H13.5999H13.6223H13.6447H13.6671H13.6895H13.7119H13.7343H13.7568H13.7792H13.8016H13.824H13.8464H13.8688H13.8912H13.9136H13.936H13.9584H13.9808H14.0032H14.0256H14.048H14.0704H14.0928H14.1152H14.1376H14.16H14.1824H14.2048H14.2272H14.2496H14.2721H14.2945H14.3169H14.3393H14.3617H14.3841H14.4065H14.4289H14.4513H14.4737H14.4961H14.5185H14.5409H14.5633H14.5857H14.6081H14.6305H14.6529H14.6753H14.6977H14.7201H14.7425H14.7649H14.7873H14.8097H14.8322H14.8546H14.877H14.8994H14.9218H14.9442H14.9666H14.989H15.0114H15.0338H15.0562H15.0786H15.101H15.1234H15.1458H15.1682H15.1906H15.213H15.2354H15.2578H15.2802H15.3026H15.325H15.3474H15.3698H15.3922H15.4146H15.437H15.4595H15.4819H15.5043H15.5267H15.5491H15.5715H15.5939H15.6163H15.6387H15.6611H15.6835H15.7059H15.7283H15.7507H15.7731H15.7955H15.8179H15.8403H15.8627H15.8851H15.9075H15.9299H15.9523H15.9747H15.9971H16.0195H16.0419H16.0643H16.0867H16.1091H16.1315H16.154H16.1764H16.1768C16.6375 58.8611 17.0391 58.7687 17.2631 58.4688C17.4874 58.1684 17.4608 57.7579 17.329 57.3176C17.2697 57.1183 17.2104 56.9188 17.1511 56.7192C16.7732 55.4477 16.3944 54.173 15.9844 52.9083L3.36799 57.6814ZM52.951 36.6051L52.9508 36.6052C50.0561 38.1425 47.1703 39.6964 44.2933 41.2669C44.1838 41.3332 44.1023 41.437 44.0638 41.559C43.9777 41.9187 43.878 42.2225 43.6432 42.4048C43.404 42.5905 43.0835 42.6057 42.7091 42.5876L42.7085 42.5876C42.3638 42.5702 42.0206 42.5502 41.6784 42.5304C40.7344 42.4756 39.7984 42.4213 38.8605 42.4213C37.1943 42.4213 35.5299 42.4678 33.8607 42.5145C33.4143 42.527 32.9676 42.5395 32.5204 42.5512L52.951 36.6051ZM52.951 36.6051C54.1013 35.9928 55.3092 36.1276 56.3399 36.9868C55.936 37.2656 55.5344 37.543 55.1343 37.8193C53.9983 38.6039 52.8749 39.3797 51.7489 40.1556C50.5774 40.9599 49.404 41.7625 48.2305 42.5652C45.7856 44.2376 43.3401 45.9104 40.9089 47.5995L40.9068 47.601C38.9194 49.012 36.4688 49.6124 34.0542 49.28L34.0513 49.2797C32.2492 49.0529 30.4645 48.7134 28.6713 48.3722C27.9163 48.2286 27.1598 48.0846 26.3998 47.9487C25.9693 47.8702 25.5368 47.7871 25.1031 47.7038C24.3322 47.5556 23.5575 47.4067 22.7835 47.2818C21.6252 47.0723 20.4305 47.3102 19.4407 47.9475C18.1664 48.76 16.8888 49.5792 15.6079 50.405C15.5181 50.4586 15.4339 50.5047 15.3369 50.5579C15.3233 50.5654 15.3094 50.573 15.2952 50.5808L12.1877 40.3874C12.9701 40.1274 13.6295 39.7172 14.2339 39.2593C14.5665 39.0073 14.8845 38.7391 15.1963 38.4733C15.2338 38.4414 15.2711 38.4095 15.3084 38.3777C15.583 38.1433 15.8535 37.9124 16.1317 37.6917C19.3516 35.1383 22.9062 34.6899 26.6293 36.3658C28.6231 37.2647 30.6294 37.7558 32.8201 37.6706L32.8202 37.6706C33.8943 37.6285 34.9707 37.6396 36.054 37.6507C36.5507 37.6557 37.049 37.6608 37.5491 37.6608C37.5997 37.6608 37.6498 37.6607 37.6995 37.6606C37.9624 37.66 38.2153 37.6593 38.4665 37.6769L38.4676 37.677M52.951 36.6051L38.4676 37.677M31.2887 41.3966L31.2887 41.3965C31.3533 41.0686 31.5252 40.8486 31.7614 40.7179C31.9829 40.5953 32.241 40.5623 32.4673 40.5535L31.2887 41.3966ZM31.2887 41.3966C31.2201 41.7461 31.3106 42.0613 31.562 42.2766M31.2887 41.3966L31.562 42.2766M38.4676 37.677C39.311 37.7321 40.1276 38.1102 40.7584 38.6671C41.3081 39.1524 41.7028 39.7607 41.8571 40.3863C41.4685 40.3854 41.0781 40.3829 40.6865 40.3804C39.6948 40.3741 38.6956 40.3678 37.6999 40.3867M38.4676 37.677L37.6999 40.3867M31.562 42.2766C31.7993 42.4797 32.1422 42.5612 32.5203 42.5512L31.562 42.2766ZM37.6999 40.3867C35.9536 40.4134 34.2079 40.4835 32.4674 40.5535L37.6999 40.3867ZM8.6983 36.8927L8.69963 36.8927C8.86982 36.8918 8.942 36.8978 8.98975 36.9198C9.0119 36.9301 9.05942 36.9564 9.10559 37.107C11.103 43.6876 13.1037 50.2666 15.1076 56.8439L5.29244 56.8392C4.76537 52.4915 4.23422 48.1469 3.70166 43.7907C3.42162 41.5 3.14118 39.206 2.86073 36.9068C2.94037 36.8987 3.01091 36.8927 3.09142 36.8927H3.10237H3.11333H3.12428H3.13523H3.14619H3.15714H3.1681H3.17905H3.19H3.20096H3.21191H3.22287H3.23382H3.24478H3.25573H3.26668H3.27764H3.28859H3.29955H3.3105H3.32145H3.33241H3.34336H3.35432H3.36527H3.37623H3.38718H3.39813H3.40909H3.42004H3.431H3.44195H3.4529H3.46386H3.47481H3.48577H3.49672H3.50768H3.51863H3.52958H3.54054H3.55149H3.56245H3.5734H3.58435H3.59531H3.60626H3.61722H3.62817H3.63912H3.65008H3.66103H3.67199H3.68294H3.6939H3.70485H3.7158H3.72676H3.73771H3.74867H3.75962H3.77057H3.78153H3.79248H3.80344H3.81439H3.82534H3.8363H3.84725H3.85821H3.86916H3.88011H3.89107H3.90202H3.91298H3.92393H3.93488H3.94584H3.95679H3.96775H3.9787H3.98965H4.00061H4.01156H4.02252H4.03347H4.04442H4.05538H4.06633H4.07728H4.08824H4.09919H4.11015H4.1211H4.13205H4.14301H4.15396H4.16492H4.17587H4.18682H4.19778H4.20873H4.21968H4.23064H4.24159H4.25255H4.2635H4.27445H4.28541H4.29636H4.30731H4.31827H4.32922H4.34018H4.35113H4.36208H4.37304H4.38399H4.39494H4.4059H4.41685H4.42781H4.43876H4.44971H4.46067H4.47162H4.48257H4.49353H4.50448H4.51543H4.52639H4.53734H4.54829H4.55925H4.5702H4.58116H4.59211H4.60306H4.61402H4.62497H4.63592H4.64688H4.65783H4.66878H4.67974H4.69069H4.70164H4.7126H4.72355H4.7345H4.74546H4.75641H4.76736H4.77832H4.78927H4.80022H4.81118H4.82213H4.83308H4.84404H4.85499H4.86594H4.8769H4.88785H4.8988H4.90976H4.92071H4.93166H4.94262H4.95357H4.96452H4.97547H4.98643H4.99738H5.00833H5.01929H5.03024H5.04119H5.05215H5.0631H5.07405H5.085H5.09596H5.10691H5.11786H5.12882H5.13977H5.15072H5.16167H5.17263H5.18358H5.19453H5.20549H5.21644H5.22739H5.23834H5.2493H5.26025H5.2712H5.28216H5.29311H5.30406H5.31501H5.32597H5.33692H5.34787H5.35882H5.36978H5.38073H5.39168H5.40263H5.41359H5.42454H5.43549H5.44644H5.4574H5.46835H5.4793H5.49025H5.50121H5.51216H5.52311H5.53406H5.54502H5.55597H5.56692H5.57787H5.58882H5.59978H5.61073H5.62168H5.63263H5.64359H5.65454H5.66549H5.67644H5.68739H5.69835H5.7093H5.72025H5.7312H5.74215H5.75311H5.76406H5.77501H5.78596H5.79691H5.80787H5.81882H5.82977H5.84072H5.85167H5.86263H5.87358H5.88453H5.89548H5.90643H5.91738H5.92834H5.93929H5.95024H5.96119H5.97214H5.98309H5.99405H6.005H6.01595H6.0269H6.03785H6.0488H6.05976H6.07071H6.08166H6.09261H6.10356H6.11451H6.12546H6.13642H6.14737H6.15832H6.16927H6.18022H6.19117H6.20212H6.21307H6.22402H6.23498H6.24593H6.25688H6.26783H6.27878H6.28973H6.30068H6.31163H6.32258H6.33354H6.34449H6.35544H6.36639H6.37734H6.38829H6.39924H6.41019H6.42114H6.43209H6.44304H6.45399H6.46494H6.47589H6.48685H6.4978H6.50875H6.5197H6.53065H6.5416H6.55255H6.5635H6.57445H6.5854H6.59635H6.6073H6.61825H6.6292H6.64015H6.6511H6.66205H6.673H6.68395H6.6949H6.70585H6.7168H6.72775H6.7387H6.74965H6.7606H6.77155H6.7825H6.79345H6.8044H6.81535H6.8263H6.83725H6.8482H6.85915H6.8701H6.88105H6.892H6.90295H6.9139H6.92485H6.9358H6.94675H6.9577H6.96865H6.9796H6.99055H7.0015H7.01245H7.0234H7.03435H7.0453H7.05624H7.06719H7.07814H7.08909H7.10004H7.11099H7.12194H7.13289H7.14384H7.15479H7.16574H7.17669H7.18763H7.19858H7.20953H7.22048H7.23143H7.24238H7.25333H7.26428H7.27523H7.28617H7.29712H7.30807H7.31902H7.32997H7.34092H7.35187H7.36281H7.37376H7.38471H7.39566H7.40661H7.41756H7.4285H7.43945H7.4504H7.46135H7.4723H7.48325H7.49419H7.50514H7.51609H7.52704H7.53799H7.54893H7.55988H7.57083H7.58178H7.59273H7.60367H7.61462H7.62557H7.63652H7.64747H7.65841H7.66936H7.68031H7.69126H7.7022H7.71315H7.7241H7.73505H7.74599H7.75694H7.76789H7.77884H7.78978H7.80073H7.81168H7.82263H7.83357H7.84452H7.85547H7.86641H7.87736H7.88831H7.89926H7.9102H7.92115H7.9321H7.94304H7.95399H7.96494H7.97588H7.98683H7.99778H8.00872H8.01967H8.03062H8.04156H8.05251H8.06346H8.0744H8.08535H8.0963H8.10724H8.11819H8.12914H8.14008H8.15103H8.16197H8.17292H8.18387H8.19481H8.20576H8.2167H8.22765H8.2386H8.24954H8.26049H8.27143H8.28238H8.29333H8.30427H8.31522H8.32616H8.33711H8.34805H8.359H8.36995H8.38089H8.39184H8.40278H8.41373H8.42467H8.43562H8.44656H8.45751H8.46845H8.4794H8.49034H8.50129H8.51223H8.52318H8.53412H8.54507H8.55602H8.56696H8.5779H8.58885H8.59979H8.61074H8.62168H8.63263H8.64357H8.65452H8.66546H8.67641H8.68735L8.6983 36.8927ZM44.1295 37.5226L44.1298 37.5224C44.2952 37.4329 44.4604 37.3434 44.6257 37.2539C45.6082 36.7216 46.5894 36.1901 47.5754 35.6672C48.0315 35.4255 48.4858 35.3501 48.9234 35.428C49.2744 35.4904 49.6272 35.6539 49.9703 35.9289L43.6383 39.3493L42.9791 38.1567C43.0482 38.1183 43.1175 38.0798 43.187 38.0412C43.4983 37.8682 43.813 37.6933 44.1295 37.5226ZM40.0196 35.9558C41.4678 34.9467 42.9578 34.55 44.2089 35.2112C44.0856 35.2778 43.9627 35.3443 43.8399 35.4107C43.0864 35.8182 42.3418 36.2209 41.5902 36.6118C41.5522 36.625 41.5121 36.6312 41.4718 36.6301C41.4279 36.629 41.3847 36.6193 41.3445 36.6015C40.917 36.4049 40.4981 36.1953 40.0815 35.9868C40.0608 35.9765 40.0402 35.9661 40.0196 35.9558Z" fill="#606060" stroke="#606060" stroke-width="0.5"/>
<path d="M19.6473 28.0171H7.79422C7.53709 28.0171 7.31428 28.0045 7.12723 27.9644C6.93759 27.9237 6.7682 27.8513 6.635 27.72C6.50148 27.5884 6.42764 27.4205 6.38623 27.2326C6.3455 27.0476 6.33287 26.828 6.33287 26.5758C6.33287 26.126 6.33071 25.6751 6.32855 25.2236C6.32336 24.1367 6.31815 23.0459 6.34293 21.9579L6.34295 21.9571C6.41947 19.0093 8.84736 16.4659 11.7142 16.314C11.9572 16.2903 12.2024 16.3265 12.4281 16.4197C12.654 16.5129 12.8535 16.6601 13.0091 16.8485C13.6997 17.6154 14.5566 17.993 15.4059 17.9984C16.2566 18.0037 17.122 17.6358 17.8276 16.869L17.8278 16.8688C18.0447 16.6335 18.2821 16.4621 18.5522 16.3737C18.8243 16.2846 19.109 16.2866 19.4079 16.3649L19.4093 16.3652C19.9012 16.497 20.3888 16.6528 20.8935 16.814C21.0615 16.8677 21.2314 16.922 21.404 16.9762C22.381 15.9594 23.6532 15.2732 25.0424 15.0162C25.4402 14.9421 25.818 14.9216 26.1831 15.019C26.5525 15.1176 26.885 15.3304 27.2039 15.6817C27.5501 16.0594 27.9717 16.3602 28.4415 16.5645C28.9115 16.7689 29.4191 16.8722 29.9316 16.8678C30.4441 16.8634 30.9499 16.7513 31.4163 16.5389C31.8827 16.3264 32.2992 16.0183 32.6388 15.6345L32.6407 15.6324C32.9193 15.3247 33.212 15.1274 33.5433 15.0322C33.8716 14.9378 34.2138 14.9507 34.5796 15.0216C35.937 15.2815 37.1803 15.9525 38.142 16.9418C38.3602 16.8868 38.5744 16.8321 38.7856 16.7782C39.4052 16.62 39.9994 16.4682 40.596 16.3344L40.5967 16.3343C40.8598 16.276 41.0995 16.3052 41.3175 16.405C41.5296 16.5021 41.7085 16.6601 41.8665 16.8398C43.216 18.3675 45.3267 18.391 46.6847 16.8999C46.8694 16.6751 47.1125 16.5056 47.3874 16.4099C47.6617 16.3144 47.957 16.2963 48.2408 16.3574C49.6135 16.5665 50.8678 17.2552 51.7811 18.3014C52.696 19.3496 53.2092 20.6886 53.2291 22.0798M19.6473 28.0171L52.9792 22.0836M19.6473 28.0171C19.647 28.1037 19.6466 28.1884 19.6462 28.2715C19.6445 28.6413 19.643 28.9806 19.6511 29.3243M19.6473 28.0171L19.6511 29.3243M53.2291 22.0798C53.2291 22.0799 53.2291 22.08 53.2291 22.08L52.9792 22.0836M53.2291 22.0798C53.2291 22.0797 53.2291 22.0796 53.2291 22.0795L52.9792 22.0836M53.2291 22.0798C53.2458 23.1077 53.2403 24.1379 53.2347 25.1645C53.2319 25.676 53.2292 26.1867 53.2292 26.6957C53.2292 27.1174 53.174 27.4802 52.933 27.7222C52.6919 27.9642 52.3286 28.0213 51.9033 28.0221L51.9028 28.0221L51.8805 28.0221H51.8582H51.8359H51.8137H51.7914H51.7691H51.7468H51.7245H51.7023H51.68H51.6577H51.6354H51.6131H51.5909H51.5686H51.5463H51.524H51.5017H51.4795H51.4572H51.4349H51.4126H51.3904H51.3681H51.3458H51.3235H51.3012H51.2789H51.2567H51.2344H51.2121H51.1898H51.1676H51.1453H51.123H51.1007H51.0784H51.0562H51.0339H51.0116H50.9893H50.967H50.9448H50.9225H50.9002H50.8779H50.8556H50.8334H50.8111H50.7888H50.7665H50.7442H50.722H50.6997H50.6774H50.6551H50.6328H50.6106H50.5883H50.566H50.5437H50.5214H50.4992H50.4769H50.4546H50.4323H50.41H50.3878H50.3655H50.3432H50.3209H50.2986H50.2763H50.2541H50.2318H50.2095H50.1872H50.1649H50.1427H50.1204H50.0981H50.0758H50.0535H50.0313H50.009H49.9867H49.9644H49.9421H49.9199H49.8976H49.8753H49.853H49.8307H49.8085H49.7862H49.7639H49.7416H49.7193H49.6971H49.6748H49.6525H49.6302H49.6079H49.5857H49.5634H49.5411H49.5188H49.4965H49.4743H49.452H49.4297H49.4074H49.3851H49.3628H49.3406H49.3183H49.296H49.2737H49.2514H49.2292H49.2069H49.1846H49.1623H49.14H49.1178H49.0955H49.0732H49.0509H49.0286H49.0064H48.9841H48.9618H48.9395H48.9172H48.8949H48.8727H48.8504H48.8281H48.8058H48.7835H48.7613H48.739H48.7167H48.6944H48.6721H48.6499H48.6276H48.6053H48.583H48.5607H48.5384H48.5162H48.4939H48.4716H48.4493H48.427H48.4048H48.3825H48.3602H48.3379H48.3156H48.2934H48.2711H48.2488H48.2265H48.2042H48.1819H48.1597H48.1374H48.1151H48.0928H48.0705H48.0483H48.026H48.0037H47.9814H47.9591H47.9368H47.9146H47.8923H47.87H47.8477H47.8254H47.8032H47.7809H47.7586H47.7363H47.714H47.6917H47.6695H47.6472H47.6249H47.6026H47.5803H47.5581H47.5358H47.5135H47.4912H47.4689H47.4466H47.4244H47.4021H47.3798H47.3575H47.3352H47.313H47.2907H47.2684H47.2461H47.2238H47.2015H47.1793H47.157H47.1347H47.1124H47.0901H47.0679H47.0456H47.0233H47.001H46.9787H46.9564H46.9342H46.9119H46.8896H46.8673H46.845H46.8228H46.8005H46.7782H46.7559H46.7336H46.7113H46.6891H46.6668H46.6445H46.6222H46.5999H46.5776H46.5554H46.5331H46.5108H46.4885H46.4662H46.4439H46.4217H46.3994H46.3771H46.3548H46.3325H46.3103H46.288H46.2657H46.2434H46.2211H46.1988H46.1766H46.1543H46.132H46.1097H46.0874H46.0651H46.0429H46.0206H45.9983H45.976H45.9537H45.9314H45.9092H45.8869H45.8646H45.8423H45.82H45.7977H45.7755H45.7532H45.7309H45.7086H45.6863H45.6641H45.6418H45.6195H45.5972H45.5749H45.5526H45.5304H45.5081H45.4858H45.4635H45.4412H45.4189H45.3967H45.3744H45.3521H45.3298H45.3075H45.2852H45.263H45.2407H45.2184H45.1961H45.1738H45.1515H45.1293H45.107H45.0847H45.0624H45.0401H45.0178H44.9956H44.9733H44.951H44.9287H44.9064H44.8841H44.8619H44.8396H44.8173H44.795H44.7727H44.7504H44.7282H44.7059H44.6836H44.6613H44.639H44.6167H44.5945H44.5722H44.5499H44.5276H44.5053H44.483H44.4608H44.4385H44.4162H44.3939H44.3716H44.3493H44.3271H44.3048H44.2825H44.2602H44.2379H44.2156H44.1934H44.1711H44.1488H44.1265H44.1042H44.0819H44.0596H44.0374H44.0151H43.9928H43.9705H43.9482H43.9259H43.9037H43.8814H43.8591H43.8368H43.8145H43.7922H43.77H43.7477H43.7254H43.7031H43.6808H43.6585H43.6363H43.614H43.5917H43.5694H43.5471H43.5248H43.5025H43.4803H43.458H43.4357H43.4134H43.3911H43.3688H43.3466H43.3243H43.302H43.2797H43.2574H43.2351H43.2129H43.1906H43.1683H43.146H43.1237H43.1014H43.0791H43.0569H43.0346H43.0123H42.99H42.9677H42.9454H42.9232H42.9009H42.8786H42.8563H42.834H42.8117H42.7894H42.7672H42.7449H42.7226H42.7003H42.678H42.6557H42.6335H42.6112H42.5889H42.5666H42.5443H42.522H42.4997H42.4775H42.4552H42.4329H42.4106H42.3883H42.366H42.3438H42.3215H42.2992H42.2769H42.2546H42.2323H42.21H42.1878H42.1655H42.1432H42.1209H42.0986H42.0763H42.0541H42.0318H42.0095H41.9872H41.9649H41.9426H41.9203H41.8981H41.8758H41.8535H41.8312H41.8089H41.7866H41.7643H41.7421H41.7198H41.6975H41.6752H41.6529H41.6306H41.6083H41.5861H41.5638H41.5415H41.5192H41.4969H41.4746H41.4524H41.4301H41.4078H41.3855H41.3632H41.3409H41.3186H41.2964H41.2741H41.2518H41.2295H41.2072H41.1849H41.1626H41.1404H41.1181H41.0958H41.0735H41.0512H41.0289H41.0066H40.9844H40.9621H40.9398H40.9175H40.8952H40.8729H40.8506H40.8284H40.8061H40.7838H40.7615H40.7392H40.7169H40.6946H40.6724H40.6501H40.6278H40.6055H40.5832H40.5609H40.5386H40.5164H40.4941H39.9432M52.9792 22.0836C52.9958 23.109 52.9903 24.1344 52.9847 25.1593C52.9819 25.6716 52.9792 26.1838 52.9792 26.6957C52.9792 27.5289 52.7426 27.7705 51.9028 27.7721H40.4941H39.9426C39.9426 27.8567 39.9429 27.94 39.9432 28.0221M39.9432 28.0221H39.6932L19.6511 29.3243M39.9432 28.0221C39.9437 28.117 39.9443 28.2105 39.9449 28.3028C39.9471 28.6368 39.9492 28.9561 39.9426 29.2769L39.9425 29.2781C39.9332 29.6465 39.8782 29.9713 39.6641 30.1913C39.4464 30.4151 39.1256 30.469 38.7618 30.4698L38.7612 30.4698L38.7261 30.4698H38.691H38.656H38.6209H38.5858H38.5508H38.5157H38.4806H38.4456H38.4105H38.3754H38.3404H38.3053H38.2702H38.2352H38.2001H38.165H38.1299H38.0949H38.0598H38.0247H37.9897H37.9546H37.9195H37.8845H37.8494H37.8143H37.7793H37.7442H37.7091H37.6741H37.639H37.6039H37.5688H37.5338H37.4987H37.4636H37.4286H37.3935H37.3584H37.3234H37.2883H37.2532H37.2182H37.1831H37.148H37.113H37.0779H37.0428H37.0077H36.9727H36.9376H36.9025H36.8675H36.8324H36.7973H36.7623H36.7272H36.6921H36.6571H36.622H36.5869H36.5519H36.5168H36.4817H36.4467H36.4116H36.3765H36.3415H36.3064H36.2713H36.2362H36.2012H36.1661H36.131H36.096H36.0609H36.0258H35.9908H35.9557H35.9206H35.8856H35.8505H35.8154H35.7804H35.7453H35.7102H35.6752H35.6401H35.605H35.57H35.5349H35.4998H35.4648H35.4297H35.3946H35.3595H35.3245H35.2894H35.2543H35.2193H35.1842H35.1491H35.1141H35.079H35.0439H35.0089H34.9738H34.9387H34.9037H34.8686H34.8335H34.7985H34.7634H34.7283H34.6933H34.6582H34.6231H34.5881H34.553H34.5179H34.4829H34.4478H34.4127H34.3777H34.3426H34.3075H34.2725H34.2374H34.2023H34.1673H34.1322H34.0971H34.062H34.027H33.9919H33.9568H33.9218H33.8867H33.8516H33.8166H33.7815H33.7464H33.7114H33.6763H33.6412H33.6062H33.5711H33.536H33.501H33.4659H33.4308H33.3958H33.3607H33.3256H33.2906H33.2555H33.2204H33.1854H33.1503H33.1152H33.0802H33.0451H33.01H32.975H32.9399H32.9048H32.8698H32.8347H32.7996H32.7646H32.7295H32.6944H32.6594H32.6243H32.5892H32.5542H32.5191H32.484H32.449H32.4139H32.3788H32.3438H32.3087H32.2736H32.2386H32.2035H32.1684H32.1334H32.0983H32.0632H32.0282H31.9931H31.958H31.923H31.8879H31.8528H31.8178H31.7827H31.7476H31.7126H31.6775H31.6424H31.6074H31.5723H31.5372H31.5022H31.4671H31.432H31.397H31.3619H31.3268H31.2918H31.2567H31.2216H31.1866H31.1515H31.1164H31.0814H31.0463H31.0112H30.9762H30.9411H30.906H30.871H30.8359H30.8008H30.7658H30.7307H30.6956H30.6606H30.6255H30.5904H30.5554H30.5203H30.4852H30.4502H30.4151H30.3801H30.345H30.3099H30.2749H30.2398H30.2047H30.1697H30.1346H30.0995H30.0645H30.0294H29.9943H29.9593H29.9242H29.8891H29.8541H29.819H29.7839H29.7489H29.7138H29.6787H29.6437H29.6086H29.5735H29.5385H29.5034H29.4683H29.4333H29.3982H29.3631H29.3281H29.293H29.2579H29.2229H29.1878H29.1527H29.1177H29.0826H29.0476H29.0125H28.9774H28.9424H28.9073H28.8722H28.8372H28.8021H28.767H28.732H28.6969H28.6618H28.6268H28.5917H28.5566H28.5216H28.4865H28.4514H28.4164H28.3813H28.3462H28.3112H28.2761H28.241H28.206H28.1709H28.1359H28.1008H28.0657H28.0307H27.9956H27.9605H27.9255H27.8904H27.8553H27.8203H27.7852H27.7501H27.7151H27.68H27.6449H27.6099H27.5748H27.5397H27.5047H27.4696H27.4346H27.3995H27.3644H27.3294H27.2943H27.2592H27.2242H27.1891H27.154H27.119H27.0839H27.0488H27.0138H26.9787H26.9436H26.9086H26.8735H26.8385H26.8034H26.7683H26.7333H26.6982H26.6631H26.6281H26.593H26.5579H26.5229H26.4878H26.4527H26.4177H26.3826H26.3475H26.3125H26.2774H26.2424H26.2073H26.1722H26.1372H26.1021H26.067H26.032H25.9969H25.9618H25.9268H25.8917H25.8566H25.8216H25.7865H25.7515H25.7164H25.6813H25.6463H25.6112H25.5761H25.5411H25.506H25.4709H25.4359H25.4008H25.3657H25.3307H25.2956H25.2606H25.2255H25.1904H25.1554H25.1203H25.0852H25.0502H25.0151H24.98H24.945H24.9099H24.8748H24.8398H24.8047H24.7697H24.7346H24.6995H24.6645H24.6294H24.5943H24.5593H24.5242H24.4891H24.4541H24.419H24.384H24.3489H24.3138H24.2788H24.2437H24.2086H24.1736H24.1385H24.1034H24.0684H24.0333H23.9983H23.9632H23.9281H23.8931H23.858H23.8229H23.7879H23.7528H23.7177H23.6827H23.6476H23.6126H23.5775H23.5424H23.5074H23.4723H23.4372H23.4022H23.3671H23.332H23.297H23.2619H23.2269H23.1918H23.1567H23.1217H23.0866H23.0515H23.0165H22.9814H22.9463H22.9113H22.8762H22.8412H22.8061H22.771H22.736H22.7009H22.6658H22.6308H22.5957H22.5607H22.5256H22.4905H22.4555H22.4204H22.3853H22.3503H22.3152H22.2801H22.2451H22.21H22.175H22.1399H22.1048H22.0698H22.0347H21.9996H21.9646H21.9295H21.8945H21.8594H21.8243H21.7893H21.7542H21.7191H21.6841H21.649H21.614H21.5789H21.5438H21.5088H21.4737H21.4386H21.4036H21.3685H21.3334H21.2984H21.2633H21.2283H21.1932H21.1581H21.1231H21.088H21.0529H21.0179H20.9828H20.9478H20.9127H20.8776H20.8426H20.8075C20.4544 30.4698 20.1429 30.4133 19.9288 30.1977C19.7168 29.9841 19.6589 29.6724 19.6511 29.3243M37.9363 28.4235C37.9365 27.7995 37.9395 27.1772 37.9426 26.5562C37.9518 24.6991 37.9609 22.8534 37.8915 21.0049M37.9363 28.4235L38.1413 20.9956M37.9363 28.4235L21.6407 28.4203V27.6705C21.6407 26.9835 21.6379 26.2975 21.6351 25.612C21.6296 24.2432 21.624 22.8765 21.6407 21.5089C21.6774 19.2533 23.1281 17.4681 25.2651 17.0282C25.3617 17.0156 25.4599 17.0224 25.5539 17.0482C25.6476 17.074 25.7351 17.1181 25.8115 17.1781C28.2176 19.4065 31.5234 19.4107 33.9487 17.1881M37.8915 21.0049L38.1413 20.9956M37.8915 21.0049C37.8915 21.0049 37.8915 21.0049 37.8915 21.0049L38.1413 20.9956M37.8915 21.0049C37.8197 19.0955 36.3271 17.4553 34.4336 17.0516M38.1413 20.9956C38.0647 18.9577 36.4751 17.2265 34.4756 16.805M34.4336 17.0516C34.4364 17.052 34.4392 17.0523 34.4421 17.0527L34.4756 16.805M34.4336 17.0516C34.348 17.0412 34.2612 17.0477 34.1782 17.071C34.0947 17.0944 34.0167 17.1342 33.9487 17.1881M34.4336 17.0516C34.4304 17.0509 34.4272 17.0503 34.4241 17.0496L34.4756 16.805M34.4756 16.805L33.9487 17.1881M8.35879 21.8235L8.35882 21.8229C8.44256 20.1637 9.73383 18.7309 11.3708 18.4001C11.5269 18.3831 11.6837 18.4263 11.809 18.521C12.9005 19.4872 14.1498 19.9823 15.4095 19.9869C16.6691 19.9915 17.9184 19.5056 19.0095 18.5467C19.0719 18.5003 19.1428 18.4663 19.2181 18.4467C19.2918 18.4276 19.3685 18.4226 19.444 18.4319C19.7085 18.5019 19.9682 18.5883 20.2218 18.6905C19.7113 19.9134 19.6183 21.1522 19.6198 22.3697C19.6203 22.7579 19.6302 23.141 19.6399 23.5206C19.6611 24.3489 19.682 25.1608 19.6046 25.9742H8.34031C8.33886 25.5948 8.3344 25.2204 8.32999 24.8495C8.31777 23.823 8.30589 22.824 8.35879 21.8235Z" fill="#00AEEF" stroke="#00AEEF" stroke-width="0.5"/>
<path d="M23.8067 8.15427L23.8247 7.8683C23.8384 7.65118 23.8453 7.42511 23.8523 7.19436C23.8689 6.65003 23.8862 6.07965 23.9956 5.53936C24.2644 4.15304 25.0202 2.9086 26.1266 2.03099C27.2332 1.15316 28.6174 0.700309 30.0289 0.754331L30.0319 0.754447L30.0319 0.754466C33.0215 0.905417 35.4411 3.13396 35.6573 6.1382L35.6573 6.13827C35.7594 7.56295 35.7847 9.06426 35.5032 10.4788C34.9304 13.3601 32.1747 15.2693 29.3542 15.0011L29.3541 15.0011C26.3152 14.7116 24.074 12.4503 23.893 9.45202M23.8067 8.15427L24.1425 9.43696M23.8067 8.15427L23.8901 8.14817M23.8067 8.15427L24.0739 7.87903M23.893 9.45202L24.1425 9.43696M23.893 9.45202C23.893 9.4521 23.893 9.45218 23.893 9.45225L24.1425 9.43696M23.893 9.45202C23.8713 9.09798 23.8786 8.73303 23.8857 8.3802C23.8873 8.30218 23.8889 8.22476 23.8901 8.14817M24.1425 9.43696C24.1214 9.09267 24.1285 8.74615 24.1355 8.39939C24.1373 8.30955 24.1391 8.21969 24.1405 8.12985L24.0925 8.13336L23.8901 8.14817M23.8901 8.14817C23.8915 8.05713 23.8925 7.96728 23.8925 7.87903H23.9949H24.0739M24.0739 7.87903H24.0745C24.0797 7.79697 24.0839 7.71474 24.0875 7.63239L24.056 7.6347L24.0739 7.87903ZM25.8132 7.60404C25.8268 7.43936 25.8379 7.27308 25.8488 7.10921C25.859 6.95722 25.869 6.8073 25.8807 6.66267C25.913 6.26419 25.9595 5.88248 26.0569 5.51952L25.8132 7.60404ZM25.8132 7.60404H25.8888V7.85404C25.8888 8.04528 25.8848 8.23078 25.8808 8.4131C25.8731 8.76507 25.8657 9.10518 25.8881 9.45187C25.968 10.4151 26.4014 11.3147 27.1047 11.9776C27.8086 12.641 28.7332 13.0204 29.7002 13.0427L29.7032 13.0428C31.6699 13.1117 33.4578 11.6183 33.6528 9.64281C33.7638 8.48228 33.7638 7.31381 33.6528 6.15328L33.6527 6.1524C33.4834 4.31275 31.9534 2.91064 30.0538 2.75292C28.2875 2.60907 26.5224 3.79026 26.0569 5.51947L25.8132 7.60404ZM24.0742 7.88403L24.1425 7.88834L24.0742 7.88403Z" fill="#00AEEF" stroke="#00AEEF" stroke-width="0.5"/>
<path d="M12.04 11.4554L12.0401 11.4569C12.0595 12.288 12.3916 13.0812 12.9702 13.6781C13.5488 14.2751 14.3312 14.6319 15.1612 14.6772L15.1648 14.6774C15.9739 14.7334 16.7744 14.4831 17.4076 13.9763C18.0402 13.4699 18.4595 12.7443 18.5825 11.9434C18.7261 10.8945 18.7392 9.83177 18.6215 8.77959L18.6215 8.77925C18.5302 7.95305 18.127 7.19284 17.4943 6.65383C16.8617 6.11498 16.0473 5.83783 15.2174 5.87894C13.4267 5.9786 12.1011 7.34583 12.045 9.16939L12.0449 9.17174L12.0449 9.17174C12.0345 9.43192 12.0364 9.68914 12.0385 9.95378C12.0393 10.061 12.0401 10.1694 12.0401 10.2797L12.04 11.4554ZM12.04 11.4554C12.0324 11.198 12.0349 10.9439 12.0375 10.684M12.04 11.4554L12.0375 10.684M12.0375 10.684C12.0388 10.5523 12.0401 10.419 12.0401 10.2831L12.0375 10.684ZM9.99291 10.2607L9.9744 10.5036L10.0558 10.5119C10.055 10.5843 10.0539 10.6573 10.0528 10.7308C10.0484 11.04 10.0438 11.3574 10.0574 11.6687L10.0574 11.6692C10.1819 14.3663 12.3422 16.4999 15.0851 16.6743L15.0857 16.6744C17.6962 16.8336 20.1645 14.9166 20.542 12.2949L20.5421 12.2949L20.5426 12.2904C20.6843 11.1627 20.7171 10.0241 20.6408 8.89014C20.498 6.17985 18.4027 4.12372 15.6736 3.89223L15.6735 3.89223C13.1376 3.67798 10.7349 5.48151 10.1778 8.06086L10.1778 8.06094C10.0977 8.43207 10.0657 8.80888 10.0463 9.17666C10.0388 9.31851 10.0333 9.45651 10.0278 9.59261C10.0188 9.81758 10.0099 10.0374 9.99291 10.2607Z" fill="#00AEEF" stroke="#00AEEF" stroke-width="0.5"/>
<path d="M49.5691 10.3384L49.5916 10.0678H49.5034C49.5041 10.0039 49.5051 9.93949 49.506 9.87469C49.5105 9.56535 49.5151 9.24696 49.5014 8.93551L49.5014 8.93528C49.3789 6.19376 47.2373 4.06581 44.4485 3.89151L44.4477 3.89146C41.8462 3.73741 39.3873 5.65885 39.0118 8.2913L39.0117 8.29129L39.0112 8.29521C38.8684 9.42324 38.8378 10.5627 38.9198 11.6967C39.0714 14.4034 41.1987 16.47 43.911 16.6721C46.4375 16.8616 48.8048 15.0922 49.3692 12.5378L49.3692 12.5377C49.4509 12.1669 49.4855 11.7909 49.5077 11.4233C49.5162 11.2812 49.5228 11.1428 49.5294 11.0063C49.5401 10.7817 49.5506 10.562 49.5691 10.3384ZM47.5121 10.2678V10.5178H47.5538C47.5467 10.6577 47.542 10.7979 47.5374 10.9355C47.5341 11.0331 47.5309 11.1294 47.5269 11.2233C47.5133 11.5408 47.4907 11.8428 47.4311 12.1308C47.2644 12.8617 46.8527 13.5135 46.2642 13.9778C45.6751 14.4427 44.9445 14.6916 44.1941 14.6832C42.6249 14.6644 41.2164 13.5527 41.0134 12.026L41.0133 12.0257C40.8564 10.8565 40.8564 9.67153 41.0132 8.50229C41.2368 6.91596 42.8004 5.77027 44.3832 5.88498L44.3832 5.88504L44.3884 5.88531C45.2071 5.92763 45.9808 6.27347 46.5584 6.85535C47.1358 7.4371 47.4759 8.21306 47.5123 9.03193C47.5231 9.30093 47.5195 9.56666 47.5159 9.83972C47.514 9.97999 47.5121 10.1222 47.5121 10.2678Z" fill="#00AEEF" stroke="#00AEEF" stroke-width="0.5"/>
<path d="M9.81545 56.3628C9.2066 56.3426 8.62927 56.0872 8.20478 55.6503C7.78028 55.2133 7.54167 54.6289 7.53908 54.0197C7.5365 53.4105 7.77013 52.824 8.1909 52.3835C8.61166 51.943 9.1868 51.6827 9.79546 51.6573C10.1097 51.6478 10.4227 51.7012 10.7159 51.8145C11.0092 51.9278 11.2768 52.0987 11.5029 52.3172C11.729 52.5356 11.9091 52.797 12.0326 53.0862C12.156 53.3753 12.2203 53.6863 12.2216 54.0006C12.223 54.315 12.1613 54.6265 12.0404 54.9167C11.9194 55.2068 11.7415 55.4698 11.5172 55.6902C11.293 55.9105 11.0268 56.0837 10.7346 56.1995C10.4423 56.3153 10.1298 56.3714 9.81545 56.3645V56.3628ZM10.6619 54.0301C10.6589 53.8115 10.5755 53.6017 10.4277 53.4407C10.2799 53.2796 10.078 53.1786 9.86044 53.157C9.62994 53.1479 9.40523 53.2305 9.2354 53.3866C9.06556 53.5427 8.9644 53.7596 8.95401 53.9901C8.95565 54.2116 9.04325 54.4239 9.19836 54.5821C9.35346 54.7404 9.56394 54.8322 9.78542 54.8382C10.0069 54.8443 10.2221 54.7641 10.3856 54.6146C10.5491 54.465 10.6482 54.2579 10.6619 54.0367V54.0301Z" fill="#00AEEF"/>
</svg>
