<svg width="38" height="38" viewBox="0 0 38 38" fill="none" xmlns="http://www.w3.org/2000/svg">
<path d="M35.9571 14.0204L33.0312 2.82164C32.9692 2.58487 32.8384 2.3766 32.6586 2.22835C32.4788 2.08011 32.2597 1.99995 32.0345 2H25.0444L25.8648 12.7738C25.8772 12.9471 25.9273 13.1146 26.0108 13.2624C26.0943 13.4102 26.2089 13.5341 26.345 13.6238C27.0186 14.0639 28.3348 14.8761 29.3625 15.2217C31.1174 15.8129 33.6806 15.5995 35.1418 15.4031C35.2839 15.383 35.4202 15.3292 35.5414 15.2456C35.6625 15.1619 35.7654 15.0504 35.843 14.9188C35.9207 14.7871 35.9711 14.6385 35.9908 14.4834C36.0105 14.3282 35.999 14.1702 35.9571 14.0204Z" stroke="#00AEEF" stroke-width="3"/>
<path d="M22.4527 15.2217C23.4338 14.8912 24.6774 14.1376 25.3717 13.688C25.5336 13.5827 25.6649 13.4294 25.7505 13.2459C25.836 13.0624 25.8724 12.8562 25.8553 12.6511L25.0435 2H12.9528L12.141 12.6511C12.1236 12.8565 12.1598 13.0631 12.2454 13.247C12.331 13.4308 12.4625 13.5844 12.6247 13.6899C13.319 14.1376 14.5626 14.8912 15.5437 15.2217C18.1225 16.0906 19.8739 16.0906 22.4527 15.2217V15.2217Z" stroke="#00AEEF" stroke-width="3"/>
<path d="M4.96799 2.82164L2.04204 14.0223C2.00074 14.1719 1.9897 14.3295 2.00968 14.4842C2.02966 14.6389 2.0802 14.787 2.15777 14.9181C2.23534 15.0493 2.33809 15.1605 2.45888 15.2439C2.57968 15.3273 2.71563 15.381 2.8573 15.4012C4.31682 15.5995 6.88178 15.811 8.63666 15.2217C9.66437 14.8761 10.9823 14.0639 11.6542 13.6257C11.7905 13.5358 11.9052 13.4116 11.9887 13.2635C12.0723 13.1153 12.1222 12.9474 12.1343 12.7738L12.9548 2H5.96461C5.73941 1.99995 5.52033 2.08011 5.34051 2.22835C5.16069 2.3766 5.02992 2.58487 4.96799 2.82164V2.82164Z" stroke="#00AEEF" stroke-width="3"/>
<path d="M3.45428 15.2229V32.2223C3.45428 33.2242 3.81824 34.185 4.46608 34.8935C5.11392 35.6019 5.99259 35.9999 6.90877 35.9999H31.0902C32.0064 35.9999 32.885 35.6019 33.5329 34.8935C34.1807 34.185 34.5447 33.2242 34.5447 32.2223V15.2229" stroke="#00AEEF" stroke-width="3"/>
</svg>
