<svg width="32" height="32" viewBox="0 0 32 32" fill="none" xmlns="http://www.w3.org/2000/svg">
<g id="Group 48096725">
<rect id="Rectangle 7704" width="32" height="32" rx="5" fill="url(#paint0_linear_1_96756)"/>
<g id="Group 48096724">
<path id="Vector" d="M14.7 6L12.3 9.4C13.1 9.2 13.9 9 14.7 9C15.5 9 16.3 9.2 17.1 9.4M23.7 9C22.59 9 21.7 9.89 21.7 11V17.76C21.06 18.33 20.7 19.15 20.7 20C20.7 21.66 22.04 23 23.7 23C25.36 23 26.7 21.66 26.7 20C26.7 19.15 26.34 18.33 25.7 17.77V11C25.7 9.89 24.81 9 23.7 9ZM23.7 10C24.25 10 24.7 10.45 24.7 11V12H22.7V11C22.7 10.45 23.15 10 23.7 10ZM10.2 10.7L6 11L7.8 14.8C7.9 14 8.2 13.2 8.6 12.5C9.1 11.8 9.6 11.2 10.2 10.7ZM14.7 11C11.9 11 9.7 13.2 9.7 16C9.7 18.8 11.9 21 14.7 21C17.5 21 19.7 18.8 19.7 16C19.7 13.2 17.5 11 14.7 11ZM7.9 17.2L6.1 21L10.2 21.4C9.7 20.9 9.1 20.2 8.7 19.5C8.2 18.8 8 18 7.9 17.2ZM12.3 22.6L14.7 26L17.1 22.6C16.3 22.8 15.5 23 14.7 23C13.8 23 13 22.8 12.3 22.6Z" fill="white"/>
</g>
</g>
<defs>
<linearGradient id="paint0_linear_1_96756" x1="16" y1="0" x2="16" y2="32" gradientUnits="userSpaceOnUse">
<stop stop-color="#FF3B57"/>
<stop offset="1" stop-color="#892168"/>
</linearGradient>
</defs>
</svg>
