<svg width="67" height="82" viewBox="0 0 67 82" fill="none" xmlns="http://www.w3.org/2000/svg">
<g id="Group 48095573">
<path id="Vector" d="M52.1802 0C53.6361 0.607551 54.1157 1.72355 54.1028 3.26397C54.0699 16.9734 54.0634 30.6828 54.0835 44.3922C54.1017 44.7403 54.0808 45.0894 54.0211 45.4328C53.9749 45.7171 53.82 45.9723 53.5891 46.144C53.3582 46.3158 53.0696 46.3907 52.7845 46.3527C52.4968 46.3539 52.2201 46.2415 52.0145 46.0399C51.8088 45.8383 51.6906 45.5637 51.6855 45.2755C51.6576 44.9825 51.6705 44.6852 51.6705 44.39C51.6705 30.7869 51.6705 17.1852 51.6705 3.58498V2.48407H14.0346V3.33292C14.0346 5.96779 14.0346 8.60052 14.0346 11.2354C14.0346 13.0904 13.0626 14.0362 11.1915 14.0362C8.58929 14.0362 5.98634 14.0362 3.38265 14.0362H2.47079V71.1201H30.1621C30.4568 71.105 30.7523 71.1115 31.0461 71.1395C31.3321 71.1562 31.6005 71.283 31.7953 71.4934C31.9901 71.7038 32.0962 71.9815 32.0913 72.2685C32.1235 72.9277 31.7644 73.3349 31.1514 73.4965C30.8868 73.5438 30.6173 73.5575 30.3492 73.5374H2.98049C0.984716 73.5374 0.0126259 72.5701 0.0126259 70.5794C0.0126259 51.4135 0.00903099 32.2476 0.00186226 13.0817C-0.0164821 12.4391 0.100874 11.7999 0.346219 11.2059C0.591563 10.6118 0.959363 10.0764 1.42557 9.63465C4.04789 7.04932 6.64728 4.44532 9.22372 1.82265C10.0087 1.02551 10.8302 0.327475 11.9206 0.00646331L52.1802 0ZM3.18694 11.5586H11.5464V3.17995L3.18694 11.5586Z" fill="#00AEEF"/>
<path id="Vector_2" d="M33.8126 65.4856C33.8185 62.2215 34.7934 59.0327 36.6136 56.3232C38.4339 53.6137 41.0175 51.5057 44.0371 50.2661C47.0567 49.0266 50.3763 48.7114 53.5752 49.3605C56.7741 50.0096 59.7083 51.5938 62.0059 53.9123C64.3036 56.2308 65.8611 59.1792 66.4813 62.3838C67.1015 65.5885 66.7563 68.9051 65.4895 71.9134C64.2227 74.9216 62.0914 77.4861 59.3655 79.2818C56.6397 81.0774 53.4422 82.0234 50.1782 81.9999C45.8203 81.9729 41.6508 80.2197 38.5832 77.1242C35.5156 74.0288 33.8001 69.8436 33.8126 65.4856ZM36.1969 65.5493C36.1999 68.3391 37.0303 71.0652 38.5831 73.3829C40.136 75.7005 42.3414 77.5054 44.9203 78.5692C47.4993 79.633 50.3358 79.9079 53.0711 79.359C55.8063 78.8102 58.3172 77.4623 60.2862 75.4859C62.2551 73.5096 63.5935 70.9936 64.132 68.2563C64.6705 65.519 64.385 62.6835 63.3115 60.1086C62.238 57.5337 60.4248 55.3351 58.1013 53.791C55.7779 52.2469 53.0486 51.4267 50.2589 51.4343C46.524 51.4467 42.9464 52.9394 40.3105 55.5854C37.6745 58.2313 36.1952 61.8145 36.1969 65.5493Z" fill="#606060"/>
<path id="Vector_3" d="M20.4182 18.5259C20.5815 18.3629 20.7537 18.2098 20.9338 18.0671C21.4721 17.668 22.0104 17.7086 22.458 18.2036C22.9055 18.6987 22.9715 19.3538 22.5116 19.6974C21.3607 20.583 21.5175 21.778 21.5319 22.9815C21.5464 24.1851 21.5546 25.427 21.5319 26.6498C21.4866 28.8584 19.9975 30.3906 17.8649 30.4183C16.2479 30.4397 14.6269 30.4397 13.0099 30.4183C10.8959 30.3884 9.36967 28.8328 9.32636 26.6455C9.29542 24.9384 9.28923 23.244 9.32636 21.5433C9.3236 20.5576 9.69796 19.611 10.3677 18.91C11.0374 18.2091 11.948 17.8109 12.9006 17.8025C14.5938 17.747 16.2954 17.7214 17.9866 17.8238C18.7683 17.8772 19.5355 18.2613 20.4182 18.5259ZM15.6746 23.1821L18.43 20.344C18.3489 20.2893 18.2575 20.2529 18.1619 20.2373C16.3634 20.2245 14.565 20.1754 12.7706 20.2373C12.0405 20.2629 11.6466 20.8625 11.6363 21.6179C11.6157 23.291 11.6095 24.9661 11.6363 26.6412C11.6507 27.482 12.1519 28.0027 12.9377 28.0155C14.6083 28.0411 16.2789 28.0304 17.9474 28.0155C18.5661 28.0155 19.0797 27.6677 19.1251 27.0744C19.2179 25.8581 19.1539 24.6268 19.1539 23.2013C18.1351 24.2683 17.2668 25.2094 16.3696 26.1163C15.6869 26.8056 14.8517 26.7565 14.4206 25.9584C13.9545 25.1048 13.542 24.2171 13.1522 23.3208C13.0875 23.1831 13.0501 23.0334 13.042 22.8804C13.0339 22.7275 13.0553 22.5745 13.105 22.4302C13.1548 22.286 13.2318 22.1534 13.3316 22.0404C13.4314 21.9273 13.552 21.8359 13.6864 21.7716C14.2474 21.4856 14.8434 21.6798 15.2043 22.288C15.3982 22.606 15.5529 22.9346 15.6808 23.1821H15.6746Z" fill="#00AEEF"/>
<path id="Vector_4" d="M20.4547 33.7428C20.6062 33.5836 20.7688 33.4357 20.941 33.3005C21.4708 32.905 22.0172 32.9156 22.4787 33.3962C22.9402 33.8768 22.9071 34.3872 22.5863 34.9231C22.5718 34.9465 22.5615 34.9763 22.5408 34.9869C21.3591 35.6993 21.5619 36.8796 21.5681 38.0003C21.5681 39.2763 21.5867 40.5522 21.5681 41.8154C21.5288 43.9909 20.1028 45.5306 17.9898 45.6029C16.2886 45.6624 14.5833 45.6667 12.8842 45.6029C10.7898 45.52 9.34942 43.9441 9.31837 41.775C9.29492 40.1319 9.29492 38.4887 9.31837 36.8455C9.35149 34.7189 10.7381 33.1474 12.8139 33.0389C14.5656 32.9454 16.3209 32.9454 18.0726 33.0389C18.8301 33.0963 19.5751 33.477 20.4547 33.7428ZM18.4927 35.5653C18.4133 35.5208 18.3273 35.4899 18.2382 35.4739C16.4108 35.4611 14.5813 35.408 12.7538 35.4739C12.0047 35.4973 11.6445 36.1119 11.6342 36.8562C11.6135 38.5 11.6094 40.1439 11.6342 41.7856C11.6487 42.6703 12.1288 43.202 12.9711 43.2232C14.6268 43.2594 16.2824 43.2892 17.9215 43.1956C18.3354 43.1701 19.0515 42.7128 19.0867 42.3917C19.2233 41.1413 19.1426 39.8674 19.1426 38.4533C18.1492 39.4889 17.28 40.4289 16.3735 41.3348C15.6947 42.0153 14.8586 41.9388 14.4198 41.1392C13.9542 40.2885 13.5424 39.3996 13.1491 38.5107C12.8718 37.8727 13.1015 37.3602 13.6541 37.0221C13.7838 36.9474 13.9266 36.8998 14.0743 36.8819C14.2219 36.8641 14.3716 36.8763 14.5146 36.918C14.6577 36.9597 14.7913 37.03 14.9078 37.1248C15.0244 37.2197 15.1216 37.3372 15.1939 37.4708C15.4008 37.7961 15.5602 38.1492 15.7154 38.4447L18.4927 35.5653Z" fill="#00AEEF"/>
<path id="Vector_5" d="M20.4469 49.7576C20.5921 49.5982 20.7502 49.452 20.9195 49.3206C21.4189 48.9582 21.9514 48.9518 22.4013 49.3867C22.8821 49.8492 23.0018 50.574 22.5168 50.9428C21.3488 51.8274 21.5262 53.0232 21.5345 54.2212C21.5428 55.4191 21.5531 56.664 21.5345 57.8854C21.4932 60.0746 19.9991 61.6371 17.8755 61.684C16.2562 61.7209 14.6355 61.7209 13.0134 61.684C10.8672 61.6371 9.34828 60.0405 9.31939 57.8172C9.29669 56.1716 9.29256 54.5239 9.31939 52.8761C9.35653 50.6784 10.8445 49.1202 12.9722 49.0712C14.6231 49.035 16.2741 48.9945 17.9086 49.0925C18.7155 49.1437 19.51 49.5018 20.4469 49.7576ZM18.4431 51.5972C18.3294 51.54 18.2074 51.5026 18.0819 51.4863C16.3339 51.4757 14.5736 51.4479 12.838 51.4863C12.1075 51.5034 11.6514 52.0597 11.639 52.8804C11.6115 54.526 11.6115 56.1723 11.639 57.8193C11.6534 58.7317 12.1611 59.2688 13.0361 59.2859C14.6314 59.3157 16.2266 59.3029 17.8198 59.2859C18.4389 59.2859 19.058 59.0003 19.1138 58.3757C19.2273 57.1394 19.1468 55.8817 19.1468 54.4493C18.1149 55.5151 17.2399 56.4871 16.3174 57.4058C15.6364 58.0879 14.8481 57.9728 14.3941 57.1308C13.94 56.2888 13.5686 55.4852 13.1847 54.6411C13.1115 54.5004 13.0666 54.3459 13.0526 54.1868C13.0385 54.0277 13.0557 53.8673 13.1031 53.7153C13.1505 53.5632 13.2272 53.4226 13.3284 53.3019C13.4297 53.1811 13.5535 53.0827 13.6924 53.0126C14.2723 52.7269 14.8935 52.955 15.2587 53.603C15.4321 53.91 15.5827 54.2297 15.6715 54.4173L18.4431 51.5972Z" fill="#00AEEF"/>
<path id="Vector_6" d="M36.3127 27.8953C33.4179 27.8953 30.521 27.8953 27.6262 27.8953C26.9057 27.8953 26.3685 27.6522 26.2279 26.8372C26.1974 26.6707 26.2004 26.4993 26.2366 26.3341C26.2728 26.1689 26.3415 26.0136 26.4381 25.8782C26.5348 25.7428 26.6573 25.6303 26.7977 25.5481C26.9381 25.4659 27.0932 25.4157 27.2532 25.4008C27.6228 25.3613 27.9947 25.3501 28.3659 25.367H44.5473C44.7605 25.367 44.9736 25.367 45.1868 25.367C45.9862 25.4211 46.502 25.9299 46.4956 26.6481C46.4892 27.3663 45.9819 27.8773 45.1633 27.8818C42.211 27.9021 39.2565 27.8931 36.3127 27.8953Z" fill="#00AEEF"/>
<path id="Vector_7" d="M36.433 41.4237H44.7234C44.9891 41.4178 45.2549 41.4264 45.5187 41.4492C45.7881 41.4805 46.0333 41.5775 46.2118 41.7233C46.3903 41.8691 46.4907 42.0545 46.4955 42.2472C46.5003 42.4399 46.4093 42.6276 46.2382 42.7778C46.0671 42.9279 45.8269 43.031 45.5593 43.069C45.2713 43.1034 44.9791 43.1175 44.6872 43.1111C39.1318 43.1111 33.5779 43.1111 28.0254 43.1111C27.8399 43.1111 27.6523 43.1111 27.4689 43.1111C26.6693 43.0629 26.1746 42.7122 26.2087 42.226C26.2428 41.7398 26.7268 41.4372 27.5051 41.4342C30.4903 41.4222 33.4564 41.4342 36.433 41.4342V41.4237Z" fill="#00AEEF"/>
<path id="Vector_8" d="M31.6936 22.8211C30.3262 22.8211 28.9588 22.8211 27.5914 22.8211C26.7247 22.8211 26.2261 22.3589 26.2075 21.6013C26.1889 20.8437 26.7247 20.3003 27.6121 20.2981C30.3469 20.2861 33.0824 20.2861 35.8186 20.2981C36.6729 20.2981 37.1818 20.7851 37.1963 21.5404C37.2129 22.3409 36.7081 22.8144 35.7958 22.8211C34.4284 22.8302 33.061 22.8211 31.6936 22.8211Z" fill="#00AEEF"/>
<path id="Vector_9" d="M31.7008 38.034C30.3327 38.034 28.9666 38.0475 27.5985 38.034C26.7271 38.034 26.2283 37.5649 26.2076 36.814C26.1869 36.0631 26.7064 35.5174 27.6047 35.5129C30.3409 35.5009 33.0765 35.5009 35.8113 35.5129C36.6848 35.5129 37.1753 35.9774 37.196 36.7374C37.2187 37.5334 36.7158 38.0227 35.8051 38.034C34.437 38.0475 33.0689 38.034 31.7008 38.034Z" fill="#00AEEF"/>
<path id="Vector_10" d="M31.2702 51.5712C32.5069 51.5712 33.7413 51.5712 34.9758 51.5712C35.8375 51.5712 36.3223 52.0218 36.3503 52.7608C36.3783 53.4998 35.8698 54.0766 35.0016 54.0856C32.5298 54.1081 30.0588 54.1081 27.5884 54.0856C26.7266 54.0856 26.1902 53.5358 26.2074 52.7833C26.2247 52.0308 26.7396 51.5779 27.6444 51.5689C28.853 51.5622 30.0616 51.5712 31.2702 51.5712Z" fill="#00AEEF"/>
<path id="Vector_11" d="M29.1005 59.1647C28.5426 59.1647 27.9848 59.1917 27.429 59.1647C26.6676 59.1219 26.1892 58.588 26.2075 57.8604C26.2259 57.1328 26.6982 56.662 27.4881 56.6508C28.6037 56.6372 29.7193 56.6372 30.835 56.6508C31.6493 56.6508 32.0992 57.1013 32.1237 57.8447C32.1481 58.588 31.6717 59.1196 30.8513 59.1737C30.8004 59.1737 30.7495 59.1737 30.6986 59.1737H29.1005V59.1647Z" fill="#00AEEF"/>
<path id="Vector_12" d="M48.5034 69.4333C50.2426 67.6067 51.8933 65.8726 53.544 64.1452C54.6972 62.9378 55.844 61.7215 57.0056 60.5295C57.617 59.9037 58.3191 59.8575 58.8166 60.3708C59.3141 60.8842 59.3183 61.6003 58.6901 62.2591C55.8904 65.1969 53.0795 68.1311 50.2574 71.0615C49.2033 72.1368 47.7739 72.1081 46.7261 71.0395C45.3917 69.6734 44.0783 68.2853 42.7649 66.8994C42.1619 66.2648 42.1113 65.5311 42.6026 65.0111C43.0938 64.4911 43.8063 64.5176 44.4114 65.1433C45.7585 66.5314 47.0824 67.9394 48.5034 69.4333Z" fill="#606060"/>
</g>
</svg>
