<svg width="21" height="21" viewBox="0 0 21 21" fill="none" xmlns="http://www.w3.org/2000/svg">
<path d="M10.5 21C16.299 21 21 16.299 21 10.5C21 4.70101 16.299 0 10.5 0C4.70101 0 0 4.70101 0 10.5C0 16.299 4.70101 21 10.5 21Z" fill="url(#paint0_linear_2101_90244)"/>
<path d="M15.6178 6.04366L13.7434 15.4978C13.7434 15.4978 13.4809 16.154 12.759 15.8382L8.43188 12.52L6.85688 11.7612L4.20727 10.8712C4.20727 10.8712 3.80122 10.7276 3.7602 10.4118C3.71919 10.096 4.21958 9.92784 4.21958 9.92784L14.7524 5.79757C14.7524 5.79346 15.6178 5.41202 15.6178 6.04366Z" fill="white"/>
<path d="M8.09023 15.3934C8.09023 15.3934 7.96309 15.3811 7.80723 14.8848C7.65137 14.3885 6.85156 11.7635 6.85156 11.7635L13.2131 7.72344C13.2131 7.72344 13.5822 7.50195 13.5658 7.72344C13.5658 7.72344 13.6314 7.76445 13.4346 7.94492C13.2377 8.12949 8.43887 12.4443 8.43887 12.4443" fill="#D2E4F0"/>
<path d="M10.0908 13.7924L8.38047 15.3551C8.38047 15.3551 8.24512 15.4576 8.10156 15.392L8.42969 12.4922" fill="#B5CFE4"/>
<defs>
<linearGradient id="paint0_linear_2101_90244" x1="10.5" y1="0" x2="10.5" y2="20.9234" gradientUnits="userSpaceOnUse">
<stop stop-color="#41BCE7"/>
<stop offset="1" stop-color="#22A6DC"/>
</linearGradient>
</defs>
</svg>
