<svg width="50" height="50" viewBox="0 0 50 50" fill="none" xmlns="http://www.w3.org/2000/svg">
<g clip-path="url(#clip0_1_82)">
<path d="M42 0H8C3.58172 0 0 3.58172 0 8V42C0 46.4183 3.58172 50 8 50H42C46.4183 50 50 46.4183 50 42V8C50 3.58172 46.4183 0 42 0Z" fill="#0088FF"/>
<path d="M33.3333 11.6665C30.5781 11.6665 28.3333 13.9113 28.3333 16.6665C28.3333 19.4217 30.5781 21.6665 33.3333 21.6665C36.0885 21.6665 38.3333 19.4217 38.3333 16.6665C38.3333 13.9113 36.0885 11.6665 33.3333 11.6665ZM33.3333 18.3332C32.4114 18.3332 31.6666 17.5884 31.6666 16.6665C31.6666 15.7446 32.4114 14.9998 33.3333 14.9998C34.2552 14.9998 35 15.7446 35 16.6665C35 17.5884 34.2552 18.3332 33.3333 18.3332ZM25 17.4998C25 14.2759 22.3906 11.6665 19.1666 11.6665C15.9427 11.6665 13.3333 14.2759 13.3333 17.4998V26.1717C12.3073 27.4582 11.6666 29.0623 11.6666 30.8332C11.6666 34.9738 15.026 38.3332 19.1666 38.3332C23.3073 38.3332 26.6666 34.9738 26.6666 30.8332C26.6666 29.0623 26.026 27.453 25 26.1717V17.4998ZM19.1666 34.9998C16.8698 34.9998 15 33.13 15 30.8332C15 29.505 15.6354 28.2863 16.6666 27.5103V17.4998C16.6666 16.1196 17.7864 14.9998 19.1666 14.9998C20.5468 14.9998 21.6666 16.1196 21.6666 17.4998V27.5103C22.6979 28.2811 23.3333 29.505 23.3333 30.8332C23.3333 33.13 21.4635 34.9998 19.1666 34.9998ZM20 28.4842V17.4998C20 17.0415 19.625 16.6665 19.1666 16.6665C18.7083 16.6665 18.3333 17.0415 18.3333 17.4998V28.4842C17.3645 28.828 16.6666 29.7446 16.6666 30.8332C16.6666 32.2134 17.7864 33.3332 19.1666 33.3332C20.5468 33.3332 21.6666 32.2134 21.6666 30.8332C21.6666 29.7446 20.9687 28.828 20 28.4842Z" fill="url(#paint0_linear_1_82)"/>
</g>
<defs>
<linearGradient id="paint0_linear_1_82" x1="-3.96672" y1="1.41024" x2="52.4357" y2="46.5613" gradientUnits="userSpaceOnUse">
<stop stop-color="white"/>
<stop offset="0.648958" stop-color="white" stop-opacity="0.8"/>
<stop offset="1" stop-color="white" stop-opacity="0"/>
</linearGradient>
<clipPath id="clip0_1_82">
<rect width="50" height="50" fill="white"/>
</clipPath>
</defs>
</svg>
