<svg width="47" height="45" viewBox="0 0 47 45" fill="none" xmlns="http://www.w3.org/2000/svg">
<path d="M8.07897 0L5.71554 2.3792L9.23214 5.92261L11.5922 3.54341L8.07729 0H8.07897ZM38.9227 0L35.4061 3.54341L37.7679 5.92261L41.2828 2.38089L38.921 0H38.9227ZM23.5 1.05592C22.9461 1.06269 22.3854 1.09484 21.8214 1.16422C21.8046 1.16422 21.7879 1.16083 21.7711 1.16422C14.9628 1.95108 9.54436 7.49633 8.60268 14.3293C7.85068 19.8289 10.1 24.8157 13.8482 28.0275C15.3814 29.3466 16.4185 31.1568 16.7857 33.1548V43.3078H20.6129C21.197 44.3181 22.2629 45 23.5 45C24.7371 45 25.803 44.3181 26.3871 43.3078H30.2143V36.5391H30.3721V34.5288C30.3721 32.0481 31.6511 29.5471 33.7292 27.6028C36.5089 24.7971 38.6071 20.8121 38.6071 16.2347C38.6071 7.87538 31.7821 0.978077 23.5 1.05592ZM23.5 4.44027C29.9877 4.34889 35.25 9.70293 35.25 16.2347C35.25 19.7781 33.6218 22.8985 31.3675 25.1694L31.4212 25.2236C29.1809 27.3061 27.7323 30.1119 27.3255 33.1565H19.9834C19.6141 30.2561 18.3804 27.4488 16.0488 25.4351C13.0828 22.8968 11.3153 19.0725 11.9061 14.7541C12.6396 9.42372 16.9301 5.13744 22.1874 4.55026C22.6214 4.48925 23.0585 4.45309 23.4966 4.44196L23.5 4.44027ZM0 16.2347V19.6191H5.03571V16.2347H0ZM41.9643 16.2347V19.6191H47V16.2347H41.9643ZM9.23214 29.9312L5.71721 33.4729L8.07897 35.8538L11.5905 32.3104L9.23214 29.9312ZM37.7679 29.9312L35.4078 32.3104L38.921 35.8538L41.2828 33.4729L37.7679 29.9312ZM20.1429 36.5408H26.8571V39.9252H20.1429V36.5408Z" fill="#00AEEF"/>
</svg>
