<svg width="20" height="20" viewBox="0 0 20 20" fill="none" xmlns="http://www.w3.org/2000/svg">
<g clip-path="url(#clip0_23_465)">
<path d="M15 5.75H8.16L7.5 3.5H3C2.175 3.5 1.5 4.175 1.5 5V14.75C1.5 15.575 2.175 16.25 3 16.25H8.25L9 18.5H15C15.825 18.5 16.5 17.825 16.5 17V7.25C16.5 6.425 15.825 5.75 15 5.75ZM5.37375 12.9387C3.6825 12.9387 2.31 11.5625 2.31 9.875C2.31 8.1875 3.68625 6.81125 5.37375 6.81125C6.15375 6.81125 6.8625 7.08875 7.425 7.61L7.47375 7.65875L6.55875 8.54375L6.51375 8.5025C6.3 8.3 5.92875 8.06375 5.37375 8.06375C4.39125 8.06375 3.5925 8.8775 3.5925 9.87875C3.5925 10.88 4.39125 11.6937 5.37375 11.6937C6.40125 11.6937 6.8475 11.0375 6.9675 10.5987H5.31V9.43625H8.2725L8.28375 9.48875C8.31375 9.64625 8.325 9.785 8.325 9.9425C8.32125 11.7087 7.11 12.9387 5.37375 12.9387V12.9387ZM9.9 11.6637C10.1512 12.1137 10.455 12.545 10.7925 12.9387L10.3912 13.3362L9.9 11.6637V11.6637ZM10.4775 11.0862H9.735L9.50625 10.3062H12.5025C12.5025 10.3062 12.2475 11.2925 11.3325 12.3575C10.9312 11.8962 10.6537 11.4462 10.4775 11.0862V11.0862ZM15.75 17C15.75 17.4125 15.4125 17.75 15 17.75H9.75L11.25 16.25L10.6387 14.1762L11.3287 13.4862L13.3425 15.5L13.89 14.9525L11.8612 12.9387C12.5362 12.1625 13.0612 11.2512 13.2975 10.31H14.25V9.53H11.5237V8.75H10.7437V9.53H9.27375L8.38125 6.5H15C15.4125 6.5 15.75 6.8375 15.75 7.25V17Z" fill="#00AEEF"/>
</g>
<defs>
<clipPath id="clip0_23_465">
<rect width="18" height="18" fill="white" transform="translate(0 2)"/>
</clipPath>
</defs>
</svg>
