<svg width="15" height="9" viewBox="0 0 15 9" fill="none" xmlns="http://www.w3.org/2000/svg">
<path id="Vector" d="M0.0264945 6.72778C0.025313 6.55702 0.0576163 6.38816 0.12103 6.23362C0.184443 6.07908 0.277357 5.94278 0.392941 5.83474L6.37055 0.290126C6.5488 0.121298 6.77286 0.0285044 7.00446 0.0275909C7.23606 0.0266775 7.46085 0.117701 7.64042 0.285118L13.6624 5.97673C13.8673 6.16994 13.9968 6.44824 14.0224 6.7504C14.048 7.05255 13.9675 7.35382 13.7987 7.58792C13.6299 7.82202 13.3866 7.96978 13.1223 7.99869C12.858 8.0276 12.5944 7.93529 12.3894 7.74208L7.00982 2.65376L1.66984 7.61289C1.52362 7.75325 1.34525 7.84274 1.15583 7.87079C0.966409 7.89883 0.773865 7.86425 0.600985 7.77114C0.428105 7.67802 0.282124 7.53027 0.180313 7.34537C0.0785022 7.16047 0.0251241 6.94615 0.0264945 6.72778Z" fill="#52575C"/>
</svg>
