<svg width="37" height="37" viewBox="0 0 37 37" fill="none" xmlns="http://www.w3.org/2000/svg">
<path d="M19.418 28.6752V26.5366C20.3888 26.4015 21.8791 25.9761 22.649 25.2555C23.4189 24.5368 23.8092 23.5526 23.8092 22.3067C23.8092 21.045 23.4383 20.0691 22.6869 19.3772C21.9354 18.6872 20.7616 18.0693 19.1617 17.5236C18.1053 17.1684 17.3859 16.8067 16.9986 16.4339C16.6131 16.0621 16.418 15.5635 16.418 14.9401C16.418 14.275 16.6034 13.7515 16.9762 13.3732C17.3481 12.9949 17.9209 12.8034 18.6947 12.8034C19.4383 12.8034 20.015 13.079 20.4248 13.5859C20.8325 14.091 21.0383 14.8004 21.0383 15.7254H23.7383C23.7383 13.8754 23.2577 13.1262 22.5539 12.2863C21.8529 11.4464 21.3597 10.9155 19.418 10.7305V8.32554H17.4762V10.7083C16.5054 10.8581 15.351 11.3031 14.6112 12.043C13.8694 12.784 13.6044 13.7561 13.6044 14.9604C13.6044 16.2286 14.0403 17.2137 14.8112 17.9148C15.5811 18.616 16.7918 19.2265 18.3918 19.7435C19.3811 20.0765 20.0888 20.4354 20.4898 20.8221C20.8917 21.2087 21.0995 21.71 21.0995 22.3261C21.0995 22.9995 20.8801 23.5239 20.4335 23.8995C19.9869 24.275 19.3442 24.4628 18.5044 24.4628C17.716 24.4628 17.0685 24.0613 16.5578 23.6386C16.049 23.2187 15.7957 23.1253 15.7957 21.2753H13.085C13.085 23.1253 13.4141 24.214 14.2646 24.9909C15.116 25.7652 16.5054 26.4126 17.4762 26.5468V28.6752H19.418ZM36.3111 4.7921L30.4664 3.09661C30.1703 3.01244 29.8092 3.06424 29.5626 3.23813C29.316 3.41203 29.1266 3.6886 29.1266 3.98182V8.32554H25.2432V2.37235C25.2432 1.94871 25.0762 1.57871 24.6441 1.47512L18.6694 0.0284432C18.5141 -0.00948107 18.384 -0.00948107 18.2286 0.0284432L12.285 1.47512C11.8539 1.57871 11.651 1.94871 11.651 2.37235V8.32554H7.76754V3.98182C7.76754 3.6886 7.63065 3.41203 7.38405 3.23813C7.13648 3.06424 6.82386 3.01336 6.52969 3.09661L0.686031 4.7921C0.257878 4.91605 -0.0236736 5.30269 0.00156903 5.72911L1.52486 31.378C1.54719 31.7627 1.82001 32.0939 2.20544 32.2086L18.2102 36.9584C18.3053 36.9861 18.4024 37 18.5005 37C18.5985 37 18.6947 36.9861 18.7898 36.9584L34.7936 32.2086C35.179 32.0939 35.4509 31.7627 35.4732 31.378L35.5761 29.6307C35.5771 29.6196 35.5829 29.6112 35.5829 29.6001C35.5829 29.0895 35.148 28.6752 34.612 28.6752C34.0761 28.6752 33.6412 29.0895 33.6412 29.6001H33.6344L33.5732 30.6324L18.5005 35.1056L3.42582 30.6324L1.97437 6.34977L5.82581 5.22962V8.88978C5.82581 9.40129 6.28017 10.1755 6.81706 10.1755H12.4578C12.9937 10.1755 13.5928 9.40129 13.5928 8.88978V3.09384L18.4471 1.88026L23.3014 3.09384V8.88978C23.3014 9.40129 24.0063 10.1755 24.5422 10.1755H30.1839C30.7208 10.1755 31.0684 9.40129 31.0684 8.88978V5.22962L34.9722 6.34977L33.9091 24.9447C33.9091 24.9558 33.9033 24.9641 33.9033 24.9752C33.9033 25.4858 34.3383 25.9002 34.8742 25.9002C35.4101 25.9002 35.8451 25.4858 35.8451 24.9752H35.8538L36.9984 5.72911C37.0237 5.30269 36.7402 4.91605 36.3111 4.7921Z" fill="white"/>
</svg>
