<svg width="38" height="38" viewBox="0 0 38 38" fill="none" xmlns="http://www.w3.org/2000/svg">
<path d="M37.4174 7.86301C37.5063 8.07994 37.5297 8.3187 37.4846 8.5491C37.4396 8.7795 37.3281 8.99118 37.1642 9.15738L32.4759 13.9074C32.3669 14.0176 32.2375 14.1049 32.0951 14.1644C31.9527 14.2239 31.8001 14.2544 31.6461 14.2541H25.0989L21.9272 17.4675C22.2848 18.2258 22.3662 19.0878 22.157 19.9011C21.9479 20.7143 21.4618 21.4265 20.7845 21.9117C20.1073 22.3969 19.2825 22.6239 18.456 22.5526C17.6296 22.4813 16.8546 22.1163 16.268 21.5221C15.6815 20.9278 15.3212 20.1426 15.2508 19.3052C15.1804 18.4679 15.4045 17.6323 15.8834 16.9461C16.3624 16.2599 17.0653 15.7674 17.868 15.5555C18.6707 15.3437 19.5214 15.4262 20.2699 15.7884L23.4416 12.575V5.94163C23.4413 5.78558 23.4714 5.63101 23.5301 5.48675C23.5888 5.34248 23.675 5.21136 23.7838 5.10088L28.4721 0.350881C28.636 0.184378 28.8451 0.0709371 29.0727 0.024941C29.3003 -0.0210551 29.5363 0.00246467 29.7508 0.0925188C29.9652 0.182573 30.1484 0.335106 30.2772 0.53078C30.4059 0.726454 30.4744 0.956457 30.474 1.19163V7.12913H36.3344C36.5663 7.12917 36.7931 7.19892 36.9858 7.32956C37.1786 7.4602 37.3288 7.64584 37.4174 7.86301V7.86301ZM33.505 9.50413H29.3019C28.9911 9.50413 28.693 9.37902 28.4732 9.15632C28.2534 8.93362 28.1299 8.63158 28.1299 8.31663V4.05826L25.7857 6.43326V11.8791H31.1609L33.505 9.50413ZM36.5852 13.1023C37.183 14.9595 37.5065 16.945 37.5065 19.0041C37.5056 23.0177 36.2503 26.928 33.9205 30.1741C31.5907 33.4202 28.3062 35.8355 24.5379 37.0735C20.7696 38.3115 16.7111 38.3088 12.9444 37.0655C9.1778 35.8223 5.89648 33.4026 3.57104 30.1532C1.2456 26.9039 -0.00449815 22.992 1.2162e-05 18.9784C0.00452247 14.9648 1.26341 11.0557 3.59614 7.81176C5.92888 4.56781 9.21563 2.15562 12.9851 0.921099C16.7545 -0.313419 20.813 -0.306843 24.5785 0.939882L22.6844 2.85888C19.2047 1.98962 15.5398 2.29846 12.2497 3.73822C8.95956 5.17799 6.22515 7.66949 4.46426 10.832C2.70337 13.9946 2.01284 17.6543 2.49818 21.2519C2.98352 24.8495 4.61804 28.1872 7.152 30.755C9.68595 33.3228 12.98 34.9794 16.5308 35.4719C20.0816 35.9643 23.6938 35.2654 26.8157 33.482C29.9375 31.6985 32.3972 28.9286 33.8189 25.5955C35.2406 22.2623 35.5461 18.5493 34.6888 15.0236L36.5852 13.1023V13.1023ZM30.2396 16.6291C30.7431 19.1302 30.4377 21.729 29.3688 24.0404C28.2999 26.3518 26.5243 28.2527 24.3053 29.4614C22.0863 30.6701 19.542 31.1222 17.0495 30.7507C14.5569 30.3792 12.2488 29.2039 10.4674 27.399C8.68593 25.5941 7.5259 23.2557 7.15924 20.7303C6.79259 18.205 7.23883 15.6272 8.43182 13.379C9.6248 11.1308 11.501 9.33187 13.7824 8.2489C16.0638 7.16594 18.6289 6.85656 21.0974 7.36663V9.80338C19.106 9.28288 17.0009 9.44016 15.1063 10.251C13.2118 11.0618 11.633 12.4813 10.613 14.2906C9.59297 16.1 9.18842 18.1989 9.46161 20.2642C9.73481 22.3294 10.6706 24.2463 12.1249 25.7197C13.5791 27.1931 15.4712 28.1412 17.5096 28.418C19.548 28.6948 21.6197 28.2849 23.4055 27.2515C25.1914 26.2181 26.5924 24.6185 27.3927 22.699C28.193 20.7796 28.3482 18.6468 27.8345 16.6291H30.2396Z" fill="#00AEEF"/>
</svg>
