<svg width="32" height="32" viewBox="0 0 32 32" fill="none" xmlns="http://www.w3.org/2000/svg">
<path d="M22 8V0H11C9.34314 0 8.00001 1.34325 8.00001 3V8.30931C8.10826 8.28513 8.23782 8.24562 8.41751 8.19675L8.6547 8.13231C8.97876 8.04444 9.31326 7.99975 9.6487 7.99975C10.663 7.99975 11.6551 8.417 12.3705 9.1445L12.5418 9.31906C12.6775 9.45775 12.7723 9.56081 12.856 9.63794C12.9618 9.67262 13.0941 9.70456 13.275 9.75387L13.5156 9.81981C14.8408 10.1799 15.8762 11.2322 16.213 12.5471L16.2822 12.8088C16.3317 12.9968 16.363 13.1326 16.398 13.2408C16.4755 13.3289 16.5805 13.4284 16.7236 13.5735L16.8743 13.7263C17.842 14.6941 18.2235 16.1238 17.8692 17.4607L17.8138 17.6672C17.758 17.8752 17.7141 18.02 17.6898 18.1396C17.7122 18.25 17.7517 18.3821 17.8007 18.5676L17.8684 18.8254C18.2253 20.1558 17.8445 21.5847 16.8861 22.5429L16.7064 22.7251C16.5717 22.8613 16.4718 22.9566 16.3971 23.0405C16.362 23.1497 16.3304 23.2869 16.2807 23.4766L16.2193 23.7095C15.9226 24.8823 15.0932 25.8381 13.9992 26.3015V32H29C30.6568 32 32 30.6567 32 29V10H24C22.8953 10 22 9.1045 22 8ZM24 0V8H32L24 0ZM14.2807 23.2188C14.3667 22.8945 14.4252 22.6616 14.4792 22.48C14.6413 21.9346 14.763 21.8496 15.4602 21.1406C15.9289 20.6719 16.1086 19.9844 15.9367 19.3438C15.6008 18.0547 15.593 18.2344 15.9367 16.9453C16.1086 16.2969 15.9289 15.6094 15.4602 15.1406C14.763 14.4316 14.6413 14.3423 14.4792 13.7981C14.4252 13.6167 14.3667 13.3848 14.2807 13.0625C14.2397 12.9024 14.1782 12.751 14.0991 12.6113C13.8618 12.1924 13.4663 11.8789 12.9918 11.75C12.196 11.5302 11.9586 11.4844 11.6655 11.2502C11.5483 11.1567 11.4221 11.0327 11.2478 10.8555C11.1606 10.7671 11.0613 10.6651 10.9452 10.5469C10.7902 10.3892 10.6062 10.2764 10.4128 10.1853C10.3655 10.1631 10.32 10.1436 10.2711 10.1255C10.0722 10.0515 9.8662 10.0007 9.65282 10.0005C9.65176 10.0005 9.65064 9.99975 9.64957 9.99975C9.64945 9.99975 9.6492 10 9.64907 10C9.64895 10 9.64882 9.99975 9.6487 9.99975C9.4922 9.99975 9.33451 10.0203 9.17895 10.0625C9.1942 10.0584 9.2097 10.0601 9.22501 10.0566C9.20995 10.0601 9.19482 10.0586 9.17982 10.0625C8.5432 10.2344 8.26976 10.3203 7.99745 10.3203C7.72501 10.3203 7.45363 10.2344 6.82082 10.0625C6.66538 10.0203 6.50757 9.99975 6.35107 9.99975C6.35001 9.99975 6.34901 10.0005 6.34788 10.0005C6.13463 10.0007 5.92845 10.0515 5.72976 10.1255C5.68057 10.1436 5.63526 10.1631 5.58763 10.1856C5.39445 10.2764 5.21045 10.3892 5.05545 10.5469C4.11807 11.4922 4.27432 11.3984 3.00895 11.75C2.37613 11.9219 1.88407 12.4219 1.72001 13.0625C1.59107 13.5488 1.5237 13.8296 1.44082 14.0405C1.30263 14.3923 1.12132 14.5498 0.540389 15.1406C0.423201 15.2578 0.324264 15.3887 0.244139 15.5293C0.00388882 15.9507 -0.0649236 16.459 0.0639514 16.9453C0.407701 18.2344 0.399889 18.0547 0.0639514 19.3438C-0.0649236 19.8242 0.00388882 20.3311 0.244139 20.7522C0.324264 20.8926 0.423201 21.0234 0.540389 21.1406C1.2317 21.8496 1.3562 21.9389 1.52026 22.4831C1.57495 22.6646 1.63407 22.8965 1.72001 23.2188C1.88407 23.8672 2.37613 24.3672 3.00895 24.5391C3.45813 24.6601 3.6377 24.707 3.73926 24.7393C3.84082 24.7715 3.86426 24.7891 4.00088 24.8516V32H4.00101L8.00038 30L11.9997 32V24.8516C12.2653 24.7266 12.0935 24.7812 12.9918 24.5391C13.4663 24.4101 13.8618 24.0967 14.0991 23.6743C14.1782 23.5337 14.2397 23.3809 14.2807 23.2188ZM8.00038 22C7.72401 22 7.45438 21.9722 7.19388 21.9189C6.67288 21.8125 6.18895 21.6047 5.76345 21.3174C5.33801 21.0298 4.9707 20.6628 4.68351 20.2373C4.25245 19.5989 4.00101 18.8291 4.00101 18C4.00101 17.1709 4.25245 16.4011 4.68351 15.7627C4.9707 15.3372 5.33801 14.9702 5.76345 14.6826C6.18895 14.3952 6.67288 14.1875 7.19388 14.0811C7.45438 14.0278 7.72401 14 8.00038 14C10.2109 14 11.9997 15.7891 11.9997 18C11.9997 20.2109 10.2109 22 8.00038 22Z" fill="#FF9D28"/>
</svg>
