<svg width="85" height="67" viewBox="0 0 85 67" fill="none" xmlns="http://www.w3.org/2000/svg">
<path d="M84.7571 32.3844L75.65 11.0186C75.4176 10.4669 75.0289 9.99622 74.5322 9.66514C74.0356 9.33405 73.453 9.15725 72.8571 9.15676H63.75V3.05225C63.75 2.24274 63.4302 1.46639 62.8609 0.893985C62.2916 0.321576 61.5194 0 60.7143 0H3.03571C2.23059 0 1.45845 0.321576 0.88914 0.893985C0.319833 1.46639 0 2.24274 0 3.05225V54.9405C0 55.7501 0.319833 56.5264 0.88914 57.0988C1.45845 57.6712 2.23059 57.9928 3.03571 57.9928H9.53214C10.2312 60.5792 11.7573 62.8624 13.875 64.4902C15.9927 66.1181 18.5843 67 21.25 67C23.9157 67 26.5073 66.1181 28.625 64.4902C30.7427 62.8624 32.2688 60.5792 32.9679 57.9928H52.0321C52.7312 60.5792 54.2573 62.8624 56.375 64.4902C58.4927 66.1181 61.0843 67 63.75 67C66.4157 67 69.0073 66.1181 71.125 64.4902C73.2427 62.8624 74.7688 60.5792 75.4679 57.9928H81.9643C82.7694 57.9928 83.5416 57.6712 84.1109 57.0988C84.6802 56.5264 85 55.7501 85 54.9405V33.5748C84.9992 33.1656 84.9166 32.7608 84.7571 32.3844ZM63.75 15.2613H70.8536L77.35 30.5225H63.75V15.2613ZM21.25 61.0451C20.0492 61.0451 18.8753 60.687 17.8769 60.0163C16.8785 59.3455 16.1003 58.3921 15.6407 57.2766C15.1812 56.1612 15.061 54.9338 15.2952 53.7496C15.5295 52.5655 16.1077 51.4777 16.9569 50.624C17.806 49.7703 18.8878 49.1889 20.0655 48.9533C21.2433 48.7178 22.464 48.8387 23.5734 49.3007C24.6828 49.7628 25.6311 50.5452 26.2982 51.5491C26.9653 52.5529 27.3214 53.7332 27.3214 54.9405C27.3214 56.5596 26.6818 58.1123 25.5431 59.2571C24.4045 60.4019 22.8602 61.0451 21.25 61.0451ZM52.0321 51.8883H32.9679C32.2688 49.3019 30.7427 47.0187 28.625 45.3909C26.5073 43.763 23.9157 42.8811 21.25 42.8811C18.5843 42.8811 15.9927 43.763 13.875 45.3909C11.7573 47.0187 10.2312 49.3019 9.53214 51.8883H6.07143V6.10451H57.6786V44.4408C56.2962 45.2475 55.0859 46.3206 54.1169 47.5986C53.148 48.8766 52.4395 50.3344 52.0321 51.8883ZM63.75 61.0451C62.5492 61.0451 61.3753 60.687 60.3769 60.0163C59.3785 59.3455 58.6003 58.3921 58.1407 57.2766C57.6812 56.1612 57.561 54.9338 57.7952 53.7496C58.0295 52.5655 58.6078 51.4777 59.4569 50.624C60.306 49.7703 61.3878 49.1889 62.5655 48.9533C63.7433 48.7178 64.964 48.8387 66.0734 49.3007C67.1828 49.7628 68.1311 50.5452 68.7982 51.5491C69.4653 52.5529 69.8214 53.7332 69.8214 54.9405C69.8214 56.5596 69.1818 58.1123 68.0431 59.2571C66.9045 60.4019 65.3602 61.0451 63.75 61.0451ZM78.9286 51.8883H75.4679C74.7966 49.2741 73.2823 46.9574 71.1621 45.3006C69.0419 43.6438 66.4353 42.7403 63.75 42.7315V36.627H78.9286V51.8883Z" fill="#00AEEF"/>
</svg>
