<svg width="104" height="104" viewBox="0 0 104 104" fill="none" xmlns="http://www.w3.org/2000/svg">
<g id="Group 3963">
<g id="Group" filter="url(#filter0_d_548_2365)">
<path id="Vector" d="M65.5 15H38.5C31.0442 15 25 21.0442 25 28.5V55.5C25 62.9558 31.0442 69 38.5 69H65.5C72.9558 69 79 62.9558 79 55.5V28.5C79 21.0442 72.9558 15 65.5 15Z" fill="url(#paint0_linear_548_2365)"/>
</g>
<path id="Vector_2" d="M50.0874 44.0566H45.8126C41.7742 44.0566 38.5 47.3816 38.5 51.4833C38.5 52.3036 39.1549 52.9688 39.9624 52.9688H55.9376C56.7451 52.9688 57.4 52.3036 57.4 51.4833C57.4 47.3816 54.1262 44.0566 50.0874 44.0566ZM55.9376 51.5977H39.9624C39.9005 51.5977 39.85 51.5464 39.85 51.4833C39.85 48.1442 42.5248 45.4277 45.8126 45.4277H50.0874C53.3752 45.4277 56.05 48.1442 56.05 51.4833C56.05 51.5464 55.9995 51.5977 55.9376 51.5977ZM47.95 42C50.9324 42 53.35 39.5445 53.35 36.5156C53.35 33.4867 50.9324 31.0312 47.95 31.0312C44.9679 31.0312 42.55 33.4867 42.55 36.5156C42.55 39.5445 44.9679 42 47.95 42ZM47.95 32.4023C50.1832 32.4023 52 34.2475 52 36.5156C52 38.7837 50.1832 40.6289 47.95 40.6289C45.7168 40.6289 43.9 38.7837 43.9 36.5156C43.9 34.2475 45.7168 32.4023 47.95 32.4023ZM64.825 39.9434H62.125V37.2012C62.125 36.8222 61.8231 36.5156 61.45 36.5156C61.0769 36.5156 60.775 36.8222 60.775 37.2012V39.9434H58.075C57.7019 39.9434 57.4 40.25 57.4 40.6289C57.4 41.0078 57.7019 41.3145 58.075 41.3145H60.775V44.0566C60.775 44.4356 61.0769 44.7422 61.45 44.7422C61.8231 44.7422 62.125 44.4356 62.125 44.0566V41.3145H64.825C65.1981 41.3145 65.5 41.0078 65.5 40.6289C65.5 40.25 65.1981 39.9434 64.825 39.9434Z" fill="white"/>
</g>
<defs>
<filter id="filter0_d_548_2365" x="0" y="0" width="104" height="104" filterUnits="userSpaceOnUse" color-interpolation-filters="sRGB">
<feFlood flood-opacity="0" result="BackgroundImageFix"/>
<feColorMatrix in="SourceAlpha" type="matrix" values="0 0 0 0 0 0 0 0 0 0 0 0 0 0 0 0 0 0 127 0" result="hardAlpha"/>
<feOffset dy="10"/>
<feGaussianBlur stdDeviation="12.5"/>
<feColorMatrix type="matrix" values="0 0 0 0 0.808333 0 0 0 0 0.344889 0 0 0 0 0.344889 0 0 0 0.35 0"/>
<feBlend mode="normal" in2="BackgroundImageFix" result="effect1_dropShadow_548_2365"/>
<feBlend mode="normal" in="SourceGraphic" in2="effect1_dropShadow_548_2365" result="shape"/>
</filter>
<linearGradient id="paint0_linear_548_2365" x1="82.375" y1="5.71875" x2="-5.76692" y2="103.843" gradientUnits="userSpaceOnUse">
<stop stop-color="#EA8B8B"/>
<stop offset="0.744431" stop-color="#EC6767"/>
</linearGradient>
</defs>
</svg>
