<svg width="16" height="16" viewBox="0 0 16 16" fill="none" xmlns="http://www.w3.org/2000/svg">
<path id="Vector" d="M5.5 0.000999928C5.36739 0.000999928 5.24021 0.0536784 5.14645 0.147447C5.05268 0.241215 5 0.368392 5 0.501V2.961H2.5C2.36739 2.961 2.24021 3.01368 2.14645 3.10745C2.05268 3.20121 2 3.32839 2 3.461V7.524L0.366 7.98C0.296019 7.99956 0.231143 8.03415 0.175889 8.08134C0.120635 8.12853 0.0763308 8.1872 0.0460615 8.25326C0.0157922 8.31931 0.0002851 8.39118 0.000619888 8.46384C0.000954676 8.53651 0.0171234 8.60822 0.0480001 8.674L1.85 12.504C2.07005 12.2386 2.37481 12.0571 2.713 11.99L1.204 8.784L7.46 7.041C7.8113 6.94308 8.1827 6.94308 8.534 7.041L14.791 8.784L13.251 11.983C13.5898 12.0393 13.899 12.2101 14.127 12.467L15.952 8.679C15.9836 8.6131 16.0004 8.54108 16.0012 8.46799C16.0019 8.39491 15.9867 8.32255 15.9564 8.256C15.9262 8.18946 15.8818 8.13035 15.8262 8.08284C15.7707 8.03532 15.7054 8.00056 15.635 7.981L14 7.525V3.461C14 3.32839 13.9473 3.20121 13.8536 3.10745C13.7598 3.01368 13.6326 2.961 13.5 2.961H11V0.5C11 0.367392 10.9473 0.240215 10.8536 0.146446C10.7598 0.0526783 10.6326 0 10.5 0H5.5V0.000999928ZM10 2.961H6V1.001H10V2.961ZM13 3.961V7.246L8.801 6.076C8.27436 5.9293 7.71764 5.9293 7.191 6.076L3 7.247V3.961H13ZM13.488 13.351L13.485 13.341C13.4592 13.2376 13.401 13.1452 13.3189 13.0772C13.2368 13.0092 13.1351 12.9692 13.0287 12.9631C12.9223 12.9569 12.8167 12.9849 12.7274 13.043C12.638 13.1011 12.5696 13.1863 12.532 13.286L12.527 13.296L12.507 13.347C12.3796 13.6336 12.2156 13.9026 12.019 14.147C11.661 14.587 11.164 14.961 10.5 14.961C9.836 14.961 9.338 14.586 8.978 14.145C8.76936 13.8863 8.5971 13.6004 8.466 13.295L8.461 13.284C8.42471 13.1892 8.36046 13.1078 8.27677 13.0504C8.19309 12.993 8.09393 12.9625 7.99247 12.9628C7.891 12.9631 7.79204 12.9943 7.70872 13.0522C7.62541 13.1101 7.56168 13.192 7.526 13.287L7.521 13.297L7.501 13.348C7.37433 13.6343 7.21096 13.9029 7.015 14.147C6.659 14.587 6.164 14.961 5.5 14.961C4.836 14.961 4.34 14.586 3.982 14.146C3.77388 13.8874 3.60228 13.6013 3.472 13.296L3.468 13.286V13.285C3.43044 13.1853 3.36198 13.1001 3.27262 13.042C3.18327 12.9839 3.07768 12.9559 2.97127 12.9621C2.86487 12.9682 2.76321 13.0082 2.68113 13.0762C2.59905 13.1442 2.54084 13.2366 2.515 13.34V13.339L2.513 13.348L2.499 13.394C2.4077 13.6693 2.273 13.9282 2.1 14.161C1.793 14.571 1.304 14.961 0.5 14.961C0.367392 14.961 0.240215 15.0137 0.146447 15.1074C0.0526785 15.2012 0 15.3284 0 15.461C0 15.5936 0.0526785 15.7208 0.146447 15.8146C0.240215 15.9083 0.367392 15.961 0.5 15.961C1.696 15.961 2.457 15.353 2.9 14.761C2.95 14.694 2.998 14.626 3.04 14.56C3.091 14.631 3.146 14.704 3.206 14.777C3.66 15.337 4.414 15.961 5.5 15.961C6.586 15.961 7.338 15.336 7.792 14.776C7.86376 14.6875 7.93182 14.5961 7.996 14.502C8.059 14.592 8.128 14.685 8.203 14.778C8.66 15.338 9.414 15.961 10.5 15.961C11.586 15.961 12.34 15.337 12.794 14.777C12.852 14.706 12.906 14.635 12.956 14.565C12.999 14.632 13.046 14.701 13.096 14.769C13.54 15.365 14.303 15.976 15.506 15.961C15.5717 15.9602 15.6365 15.9465 15.6969 15.9206C15.7572 15.8948 15.8119 15.8573 15.8578 15.8103C15.9037 15.7633 15.9398 15.7078 15.9642 15.6468C15.9886 15.5858 16.0008 15.5207 16 15.455C15.9992 15.3893 15.9855 15.3245 15.9596 15.2641C15.9338 15.2038 15.8963 15.1491 15.8493 15.1032C15.8023 15.0573 15.7468 15.0212 15.6858 14.9968C15.6248 14.9724 15.5597 14.9602 15.494 14.961C14.691 14.971 14.204 14.582 13.899 14.172C13.726 13.937 13.5919 13.6756 13.502 13.398L13.488 13.351Z" fill="#606060"/>
</svg>
