<svg width="35" height="20" viewBox="0 0 35 20" fill="none" xmlns="http://www.w3.org/2000/svg">
<path d="M25 18V2H2.5V18H25ZM27.5 5L35 2V18L27.5 15V19C27.5 19.2652 27.3683 19.5196 27.1339 19.7071C26.8995 19.8946 26.5815 20 26.25 20H1.25C0.918479 20 0.600537 19.8946 0.366116 19.7071C0.131696 19.5196 0 19.2652 0 19V1C0 0.734784 0.131696 0.48043 0.366116 0.292893C0.600537 0.105357 0.918479 0 1.25 0H26.25C26.5815 0 26.8995 0.105357 27.1339 0.292893C27.3683 0.48043 27.5 0.734784 27.5 1V5ZM27.5 7.236V12.764L32.5 14.764V5.236L27.5 7.236ZM5 4H12.5V6H5V4Z" fill="white"/>
</svg>
