<svg width="48" height="16" viewBox="0 0 48 16" fill="none" xmlns="http://www.w3.org/2000/svg">
<path fill-rule="evenodd" clip-rule="evenodd" d="M19.2395 0.266529L16.8164 15.1582H20.6932L23.1166 0.266529H19.2395ZM13.5545 0.266529L9.85824 10.5089L9.42102 8.30337L9.42133 8.30409L9.32498 7.80976C8.87763 6.84568 7.84157 5.01333 5.88521 3.44958C5.30682 2.98737 4.72378 2.59289 4.16016 2.25594L7.51949 15.1582H11.5588L17.7272 0.266529H13.5545ZM28.6851 4.40076C28.6851 2.71712 32.4608 2.93346 34.1199 3.84767L34.673 0.649333C34.673 0.649333 32.9657 0 31.186 0C29.2619 0 24.6932 0.841407 24.6932 4.92979C24.6932 8.77746 30.0555 8.82528 30.0555 10.8454C30.0555 12.8654 25.246 12.5044 23.6588 11.2301L23.082 14.5731C23.082 14.5731 24.813 15.4145 27.4586 15.4145C30.1039 15.4145 34.0957 14.0441 34.0957 10.3163C34.0957 6.44459 28.6851 6.08399 28.6851 4.40076ZM44.5054 0.266529H41.3883C39.949 0.266529 39.5985 1.37632 39.5985 1.37632L33.8169 15.1582H37.8577L38.6661 12.9464H43.5948L44.0494 15.1582H47.6092L44.5054 0.266529ZM39.7833 9.89046L41.8206 4.31763L42.9666 9.89046H39.7833Z" fill="#005BAC"/>
<path fill-rule="evenodd" clip-rule="evenodd" d="M8.17068 1.66431C8.17068 1.66431 8.0102 0.320312 6.29703 0.320312H0.0729054L0 0.5729C0 0.5729 2.99181 1.18278 5.86207 3.46774C8.60501 5.6516 9.49981 8.37389 9.49981 8.37389L8.17068 1.66431Z" fill="#F6AC1D"/>
</svg>
