<svg width="21" height="22" viewBox="0 0 21 22" fill="none" xmlns="http://www.w3.org/2000/svg">
<g id="172631_wallet_icon 1">
<path id="Vector" d="M16.8016 6.15625C16.8016 6.15625 6.13482 6.15625 4.20156 6.15625C2.90964 6.15625 2.10156 7.47625 2.10156 8.35625V17.7652C2.10156 18.8872 2.96928 19.7962 4.04028 19.7962H16.9628C18.0334 19.7962 18.9016 18.8872 18.9016 17.7652V8.28849C18.9016 7.16781 17.8721 6.15625 16.8016 6.15625Z" stroke="#00AEEF" stroke-width="1.5" stroke-miterlimit="10" stroke-linecap="round" stroke-linejoin="round"/>
<path id="Vector_2" d="M15.5416 4.8414V3.37092C15.5416 1.90528 15.2396 1.48244 13.5037 1.96204C12.2286 2.31448 4.7673 4.48148 4.7673 4.48148C2.46948 5.38876 2.11878 6.16096 2.11878 7.92052L2.10156 9.00073" stroke="#00AEEF" stroke-width="1.5" stroke-miterlimit="10" stroke-linejoin="round"/>
<path id="Vector_3" d="M16.1719 14.0828C15.5919 14.0828 15.1211 13.5909 15.1211 12.9833C15.1211 12.3756 15.5919 11.8828 16.1719 11.8828C16.7503 11.8828 17.2211 12.3756 17.2211 12.9833C17.2211 13.5909 16.7503 14.0828 16.1719 14.0828Z" fill="#00AEEF"/>
</g>
</svg>
