<svg xmlns="http://www.w3.org/2000/svg" width="17" height="17" viewBox="0 0 17 17" fill="none">
  <path opacity="0.8" d="M1.7 7.60952V2.42857C1.7 2.21387 1.78955 2.00797 1.94896 1.85615C2.10837 1.70434 2.32457 1.61905 2.55 1.61905H6.8V0H10.2V1.61905H14.45C14.6754 1.61905 14.8916 1.70434 15.051 1.85615C15.2104 2.00797 15.3 2.21387 15.3 2.42857V7.60952L16.2231 7.87342C16.4324 7.93321 16.6096 8.0675 16.7177 8.2484C16.8258 8.4293 16.8566 8.6429 16.8036 8.84485L15.5142 13.757C14.819 13.791 14.1256 13.6615 13.4953 13.38C12.8651 13.0985 12.3172 12.6736 11.9 12.1429C11.5045 12.6459 10.9912 13.0542 10.401 13.3353C9.8108 13.6163 9.15988 13.7624 8.5 13.7619C7.84012 13.7624 7.1892 13.6163 6.59898 13.3353C6.00876 13.0542 5.49551 12.6459 5.1 12.1429C4.68283 12.6736 4.13495 13.0985 3.50466 13.38C2.87437 13.6615 2.18104 13.791 1.4858 13.757L0.1972 8.84485C0.144242 8.64301 0.174916 8.42949 0.282855 8.24862C0.390795 8.06774 0.567714 7.93338 0.7769 7.87342L1.7 7.60952ZM3.4 7.12381L8.5 5.66666L10.8409 6.33533L12.3785 6.7749L13.6 7.12381V3.23809H3.4V7.12381ZM1.7 15.3809C2.95482 15.3826 4.16591 14.942 5.1 14.144C6.03409 14.942 7.24517 15.3826 8.5 15.3809C9.75483 15.3826 10.9659 14.942 11.9 14.144C12.8341 14.942 14.0452 15.3826 15.3 15.3809H17V17H15.3C14.1063 17.0019 12.9333 16.703 11.9 16.1338C10.8667 16.703 9.69371 17.0019 8.5 17C7.30629 17.0019 6.1333 16.703 5.1 16.1338C4.06669 16.703 2.89371 17.0019 1.7 17H0V15.3809H1.7Z" fill="#00AEEF"/>
</svg>