<svg width="50" height="50" viewBox="0 0 50 50" fill="none" xmlns="http://www.w3.org/2000/svg">
<g id="icon_crashed-house 1" clip-path="url(#clip0_1_25504)">
<path id="Vector" d="M42 0H8C3.58172 0 0 3.58172 0 8V42C0 46.4183 3.58172 50 8 50H42C46.4183 50 50 46.4183 50 42V8C50 3.58172 46.4183 0 42 0Z" fill="url(#paint0_linear_1_25504)"/>
<path id="Vector_2" d="M25.0051 18.6405L14.888 27.6312C14.813 27.6993 14.7172 27.731 14.6348 27.7875V36.4139C14.6348 36.8262 14.9663 37.1602 15.3755 37.1602H22.2843L20.5607 33.764L25.3806 30.7788L22.5954 25.2178L29.4496 31.5978L24.6297 34.5831L26.4778 37.1602H34.6347C35.044 37.1602 35.3755 36.8262 35.3755 36.4139V27.7893C35.2968 27.7352 35.2033 27.7044 35.132 27.6401L25.0051 18.6405ZM38.0926 24.2994L35.3755 21.8818V15.5172C35.3755 15.1049 35.044 14.7709 34.6347 14.7709H31.6718C31.2625 14.7709 30.9311 15.1049 30.9311 15.5172V17.9283L26.2436 13.7592C25.8903 13.4392 25.4477 13.2788 25.0051 13.2783C24.5626 13.2778 24.1209 13.4374 23.769 13.7573L11.9177 24.2994C11.6135 24.5751 11.588 25.0467 11.8617 25.3536L12.8524 26.4646C13.1255 26.7711 13.5941 26.7967 13.8987 26.5211L24.5153 17.0859C24.7954 16.8373 25.2153 16.8373 25.4954 17.0859L36.1121 26.5206C36.4162 26.7958 36.8847 26.7706 37.1584 26.4642L38.1491 25.3531C38.4222 25.0467 38.3972 24.5746 38.0926 24.2994Z" fill="white"/>
</g>
<defs>
<linearGradient id="paint0_linear_1_25504" x1="-14.0625" y1="-11.6071" x2="81.5127" y2="72.0212" gradientUnits="userSpaceOnUse">
<stop stop-color="#8CCD9E"/>
<stop offset="1" stop-color="#6EEE59"/>
</linearGradient>
<clipPath id="clip0_1_25504">
<rect width="50" height="50" fill="white"/>
</clipPath>
</defs>
</svg>
