<svg width="50" height="50" viewBox="0 0 50 50" fill="none" xmlns="http://www.w3.org/2000/svg">
<g id="icon_piece 1" clip-path="url(#clip0_1_25509)">
<path id="Vector" d="M42 0H8C3.58172 0 0 3.58172 0 8V42C0 46.4183 3.58172 50 8 50H42C46.4183 50 50 46.4183 50 42V8C50 3.58172 46.4183 0 42 0Z" fill="#4A82EC"/>
<path id="Vector_2" d="M37.5439 26.552H25.9121L33.6587 34.2942C33.9547 34.5901 34.442 34.6142 34.7464 34.3275C36.6434 32.5413 37.9483 30.1333 38.3312 27.4265C38.3969 26.963 38.0121 26.552 37.5439 26.552ZM36.768 23.3773C36.364 17.5246 31.6846 12.8478 25.8288 12.4441C25.3817 12.4133 25.0052 12.79 25.0052 13.2378V24.2003H35.9743C36.4224 24.2003 36.7988 23.8241 36.768 23.3773ZM22.6523 26.552V14.9266C22.6523 14.4587 22.241 14.0741 21.7778 14.1398C15.9362 14.9648 11.471 20.0654 11.6788 26.1782C11.8925 32.456 17.3009 37.6042 23.5852 37.5253C26.0557 37.4944 28.3386 36.6988 30.2155 35.3681C30.6028 35.0938 30.6283 34.524 30.2925 34.1884L22.6523 26.552Z" fill="white"/>
</g>
<defs>
<clipPath id="clip0_1_25509">
<rect width="50" height="50" fill="white"/>
</clipPath>
</defs>
</svg>
