<svg width="50" height="50" viewBox="0 0 50 50" fill="none" xmlns="http://www.w3.org/2000/svg">
<g id="icon_mask 1" clip-path="url(#clip0_1_25519)">
<path id="Vector" d="M42 0H8C3.58172 0 0 3.58172 0 8V42C0 46.4183 3.58172 50 8 50H42C46.4183 50 50 46.4183 50 42V8C50 3.58172 46.4183 0 42 0Z" fill="url(#paint0_linear_1_25519)"/>
<path id="Vector_2" d="M25.0331 17.0166C6.5914 17.0166 10.1343 33.0261 18.4305 33.0261C20.093 33.0261 21.6585 32.1635 22.6564 30.6973L23.7285 29.1217C24.381 28.1633 25.6856 28.1633 26.3381 29.1217L27.4101 30.6973C28.4076 32.1635 29.9731 33.0261 31.6356 33.0261C39.5464 33.0261 43.7452 17.0166 25.0331 17.0166ZM19.3385 27.2044C17.6276 27.2044 16.5151 26.1346 16.0018 25.4929C15.7839 25.2207 15.7839 24.8221 16.0018 24.5494C16.5151 23.9074 17.6272 22.838 19.3385 22.838C21.0497 22.838 22.1618 23.9078 22.6751 24.5494C22.893 24.8217 22.893 25.2203 22.6751 25.4929C22.1618 26.135 21.0493 27.2044 19.3385 27.2044ZM30.6718 27.2044C28.961 27.2044 27.8485 26.1346 27.3351 25.4929C27.1172 25.2207 27.1172 24.8221 27.3351 24.5494C27.8485 23.9074 28.9606 22.838 30.6718 22.838C32.3831 22.838 33.4952 23.9078 34.0085 24.5494C34.2264 24.8217 34.2264 25.2203 34.0085 25.4929C33.4952 26.135 32.3826 27.2044 30.6718 27.2044Z" fill="white"/>
</g>
<defs>
<linearGradient id="paint0_linear_1_25519" x1="-21.0938" y1="-19.5312" x2="77.571" y2="57.8828" gradientUnits="userSpaceOnUse">
<stop stop-color="#E688C6"/>
<stop offset="1" stop-color="#A688E6"/>
</linearGradient>
<clipPath id="clip0_1_25519">
<rect width="50" height="50" fill="white"/>
</clipPath>
</defs>
</svg>
