<svg width="50" height="50" viewBox="0 0 50 50" fill="none" xmlns="http://www.w3.org/2000/svg">
<g id="icon_robber 1" clip-path="url(#clip0_1_25529)">
<path id="Vector" d="M42 0H8C3.58172 0 0 3.58172 0 8V42C0 46.4183 3.58172 50 8 50H42C46.4183 50 50 46.4183 50 42V8C50 3.58172 46.4183 0 42 0Z" fill="url(#paint0_linear_1_25529)"/>
<path id="Vector_2" d="M33.3235 27.7279L34.5683 24.4674C34.7766 23.9205 34.3756 23.3371 33.787 23.3371H30.7401C31.313 22.3527 31.6672 21.2225 31.6672 20.0037V19.9881C33.7089 19.5818 35.0006 18.9933 35.0006 18.337C35.0006 17.6443 33.5787 17.0297 31.3495 16.6182C30.8703 14.9098 29.9432 13.191 29.2348 12.3056C28.74 11.6858 27.8858 11.4931 27.1775 11.8472L25.7399 12.566C25.2712 12.8004 24.7191 12.8004 24.2503 12.566L22.8128 11.8472C22.1044 11.4931 21.2502 11.6858 20.7554 12.3056C20.0523 13.191 19.1199 14.9098 18.6408 16.6182C16.4167 17.0297 14.9948 17.6443 14.9948 18.337C14.9948 18.9933 16.2865 19.5818 18.3282 19.9881V20.0037C18.3282 21.2225 18.6824 22.3527 19.2554 23.3371H16.2605C15.6615 23.3371 15.2605 23.9465 15.4948 24.4986L16.8386 27.6341C14.75 28.8477 13.3281 31.0822 13.3281 33.6708V36.0042C13.3281 37.2907 14.375 38.3376 15.6615 38.3376H34.3287C35.6152 38.3376 36.6621 37.2907 36.6621 36.0042V33.6708C36.6621 31.1499 35.3183 28.9623 33.3235 27.7279ZM22.495 36.6709L20.3283 26.6706L22.9117 28.3373L24.1617 30.4207L22.495 36.6709ZM27.4952 36.6709L25.8285 30.4207L27.0785 28.3373L29.6619 26.6706L27.4952 36.6709ZM29.6671 21.1235C29.464 21.7434 29.3025 22.4048 28.8077 22.8632C28.2817 23.3476 26.3076 24.0299 25.4743 21.5611C25.3284 21.1235 24.6722 21.1235 24.5211 21.5611C23.6357 24.1757 21.6044 23.2486 21.1877 22.8632C20.6929 22.4048 20.5262 21.7434 20.3283 21.1235C20.2866 20.9933 20.0002 20.8267 20.0002 20.8215V20.2589C21.4742 20.4464 23.1773 20.561 25.0003 20.561C26.8233 20.561 28.5265 20.4516 30.0005 20.2589V20.8215C29.9952 20.8267 29.7088 20.9881 29.6671 21.1235Z" fill="white"/>
</g>
<defs>
<linearGradient id="paint0_linear_1_25529" x1="1.5625" y1="-1.56223" x2="50" y2="48.4378" gradientUnits="userSpaceOnUse">
<stop stop-color="#FDC196"/>
<stop offset="1" stop-color="#EB6B0E"/>
</linearGradient>
<clipPath id="clip0_1_25529">
<rect width="50" height="50" fill="white"/>
</clipPath>
</defs>
</svg>
