<svg width="17" height="17" viewBox="0 0 17 17" fill="none" xmlns="http://www.w3.org/2000/svg">
<path d="M17 14.45C17 15.8583 15.8583 17 14.45 17H2.55C1.14172 17 0 15.8583 0 14.45V2.55C0 1.14172 1.14172 0 2.55 0H14.45C15.8583 0 17 1.14172 17 2.55V14.45Z" fill="#2DC100"/>
<path d="M11.3791 6.33923C10.0069 6.41063 8.81417 6.82679 7.84517 7.76655C6.86597 8.71583 6.41921 9.87931 6.54161 11.3216C6.00509 11.255 5.51685 11.1822 5.02589 11.1407C4.85589 11.1264 4.65461 11.1468 4.51113 11.2277C4.03445 11.497 3.57681 11.801 3.03485 12.1396C3.13413 11.6895 3.19873 11.2957 3.31297 10.917C3.39661 10.6382 3.35785 10.4838 3.10149 10.3023C1.45453 9.13947 0.760254 7.39935 1.27977 5.60755C1.75985 3.95039 2.94033 2.94467 4.54445 2.42107C6.73405 1.70571 9.19429 2.43535 10.5257 4.17343C11.0058 4.80107 11.3009 5.50623 11.3791 6.33923ZM5.06397 5.78095C5.07689 5.45319 4.79265 5.15807 4.45537 5.14787C4.10993 5.13767 3.82637 5.40151 3.81617 5.74219C3.80597 6.08695 4.06981 6.36371 4.41729 6.37255C4.76205 6.38139 5.05105 6.11687 5.06397 5.78095ZM8.35857 5.14787C8.01993 5.15399 7.73433 5.44231 7.73977 5.77143C7.74589 6.11211 8.02673 6.37935 8.37489 6.37527C8.72373 6.37119 8.98893 6.10123 8.98553 5.75307C8.98281 5.41171 8.70333 5.14175 8.35857 5.14787Z" fill="white"/>
<path d="M14.4615 14.8948C14.027 14.7017 13.6285 14.4113 13.2042 14.3671C12.7813 14.3229 12.3372 14.567 11.8952 14.6119C10.5481 14.75 9.34113 14.3746 8.34629 13.4539C6.45385 11.7036 6.72449 9.0196 8.91341 7.5848C10.8596 6.3098 13.7135 6.7348 15.0851 8.50416C16.2826 10.0478 16.1418 12.0966 14.6798 13.3934C14.2569 13.7687 14.1045 14.0774 14.3759 14.5725C14.4269 14.6643 14.4323 14.7799 14.4615 14.8948ZM9.51589 10.1069C9.79265 10.1069 10.0205 9.89068 10.0307 9.61732C10.0415 9.32832 9.80897 9.08556 9.51929 9.0842C9.23233 9.08284 8.99229 9.329 9.00249 9.61392C9.01201 9.8866 9.24117 10.1062 9.51589 10.1069ZM12.7037 9.08556C12.4351 9.08352 12.2073 9.30316 12.1965 9.57448C12.1849 9.86416 12.41 10.1028 12.6969 10.1035C12.9744 10.1042 13.194 9.89476 13.2035 9.61868C13.2151 9.32764 12.9893 9.0876 12.7037 9.08556Z" fill="white"/>
</svg>
