<svg width="21" height="21" viewBox="0 0 21 21" fill="none" xmlns="http://www.w3.org/2000/svg">
<path d="M10.4744 0H10.4689C4.69514 0 0 4.70914 0 10.5C0 12.7969 0.738139 14.926 1.99345 16.6544L0.688591 20.5548L4.71375 19.2648C6.3694 20.3647 8.34459 21 10.4744 21C16.2482 21 20.9433 16.2894 20.9433 10.5C20.9433 4.71055 16.2481 0 10.4744 0Z" fill="#5ACF5F"/>
<path d="M16.5625 14.8253C16.3098 15.5409 15.3072 16.1339 14.5076 16.3074C13.9601 16.4241 13.2456 16.5174 10.84 15.5172C7.76239 14.2389 5.78067 11.1033 5.6264 10.8998C5.47828 10.6963 4.38281 9.23971 4.38281 7.73271C4.38281 6.22602 5.14584 5.49218 5.45357 5.17747C5.70597 4.91866 6.1236 4.80078 6.52416 4.80078C6.6538 4.80078 6.77019 4.80719 6.87513 4.8125C7.18269 4.82575 7.33699 4.84397 7.54006 5.33094C7.79268 5.94137 8.40771 7.44802 8.48122 7.60303C8.55587 7.75795 8.63026 7.96777 8.52564 8.17115C8.42733 8.38128 8.34109 8.47441 8.18661 8.65281C8.03208 8.83156 7.88532 8.96801 7.73101 9.15944C7.58974 9.32613 7.42999 9.5047 7.60809 9.81319C7.78605 10.1151 8.40113 11.1216 9.30683 11.9301C10.476 12.9735 11.4235 13.3069 11.7626 13.4488C12.0152 13.5539 12.3163 13.5287 12.5006 13.3319C12.735 13.0785 13.0246 12.6586 13.3189 12.2453C13.5283 11.9486 13.7927 11.9118 14.0702 12.0167C14.3529 12.1152 15.849 12.8569 16.1567 13.0104C16.4641 13.1653 16.6673 13.2387 16.7419 13.3687C16.8151 13.4984 16.8151 14.1089 16.5625 14.8253Z" fill="#FCFCFC"/>
</svg>
