<svg width="96" height="96" viewBox="0 0 96 96" fill="none" xmlns="http://www.w3.org/2000/svg">
<g filter="url(#filter0_d_50_367)">
<path d="M45 89C69.3005 89 89 69.3005 89 45C89 20.6995 69.3005 1 45 1C20.6995 1 1 20.6995 1 45C1 69.3005 20.6995 89 45 89Z" fill="url(#paint0_linear_50_367)"/>
</g>
<g filter="url(#filter1_d_50_367)">
<path d="M82.6315 51.3059C86.0101 30.4921 71.876 10.8803 51.0622 7.50176C30.2484 4.12321 10.6366 18.2573 7.25804 39.0711C3.87949 59.8849 18.0135 79.4967 38.8274 82.8752C59.6412 86.2538 79.2529 72.1197 82.6315 51.3059Z" fill="white"/>
</g>
<g clip-path="url(#clip0_50_367)">
<path d="M20.3852 29.8574L16.1738 33.4161C16.0408 33.5227 15.8664 33.5766 15.6932 33.5766C15.5199 33.5766 15.3444 33.5227 15.2126 33.4161L11 29.8574L14.4671 34.1796C14.675 34.4525 14.675 34.8939 14.4671 35.1667L11 39.4901L15.2114 35.9314C15.3444 35.8248 15.5188 35.7709 15.692 35.7709C15.8653 35.7709 16.0396 35.8248 16.1726 35.9314L20.3841 39.4901L16.917 35.1667C16.7091 34.8939 16.7091 34.4525 16.917 34.1796L20.3852 29.8574Z" fill="#FFC400"/>
<path d="M73.2601 21.785L72.8685 22.3347L72.8652 22.3398L72.8619 22.3448C72.5228 22.8441 72.5228 23.6254 72.8619 24.1247L72.8652 24.1297L72.8685 24.1348L73.2623 24.687L72.7843 24.2326L72.7799 24.2288L72.7755 24.225C72.5649 24.0344 72.2909 23.929 72.0049 23.929C71.7188 23.929 71.4448 24.0338 71.2342 24.225L71.2298 24.2288L71.2254 24.2326L70.7496 24.6851L71.1418 24.1354L71.145 24.1303L71.1483 24.1253C71.4874 23.6261 71.4874 22.8447 71.1483 22.3455L71.145 22.3404L71.1418 22.3354L70.7512 21.7882L71.2254 22.2388L71.2298 22.2426L71.2342 22.2464C71.4448 22.437 71.7188 22.5424 72.0049 22.5424C72.2909 22.5424 72.5649 22.437 72.7755 22.2464L72.7799 22.2426L72.7843 22.2388L73.2607 21.7863L73.2601 21.785ZM76.6977 17.8164L72.4856 21.8198C72.3527 21.9403 72.1788 22.0002 72.0049 22.0002C71.8309 22.0002 71.6564 21.9403 71.5241 21.8198L67.3125 17.8164L70.7797 22.6787C70.9881 22.9854 70.9881 23.4828 70.7797 23.7895L67.3125 28.6531L71.5241 24.6498C71.657 24.5299 71.8309 24.4693 72.0049 24.4693C72.1788 24.4693 72.3533 24.5292 72.4856 24.6498L76.6977 28.6531L73.2306 23.7895C73.0222 23.4828 73.0222 22.9854 73.2306 22.6787L76.6977 17.8164Z" fill="#FF7452"/>
<path d="M79.0012 62.4285C79.0012 64.1484 77.6443 65.5386 75.9655 65.5386C74.2867 65.5386 72.9297 64.1484 72.9297 62.4285C72.9297 60.7086 74.278 59.3184 75.9568 59.3184C77.6356 59.3184 78.9925 60.7086 78.9925 62.4285H79.0012Z" stroke="#00CEB5" stroke-width="2" stroke-linecap="round" stroke-linejoin="round"/>
<path d="M41.3572 15.4881C41.3572 16.864 40.2717 17.9762 38.9286 17.9762C37.5856 17.9762 36.5 16.864 36.5 15.4881C36.5 14.1122 37.5786 13 38.9217 13C40.2647 13 41.3503 14.1122 41.3503 15.4881H41.3572Z" stroke="#6554C0" stroke-width="2" stroke-linecap="round" stroke-linejoin="round"/>
<path d="M48.6631 25.9863C60.8072 25.9863 66 40.5738 66 52.2742C66 63.9746 56.3751 65.1021 44.2385 65.1021C32.1018 65.1021 20 61.6862 20 49.9949C20 38.3036 36.5189 25.9863 48.6631 25.9863Z" fill="#B7F8F6"/>
<path d="M32.0744 37.3773C30.3131 37.3777 28.624 38.0809 27.3786 39.3324C26.1332 40.5839 25.4333 42.2812 25.4329 44.0511V67.7193C25.4333 69.4892 26.1332 71.1865 27.3786 72.438C28.624 73.6895 30.3131 74.3927 32.0744 74.3931H53.8147C55.5765 74.3931 57.2662 73.6898 58.512 72.438C59.7578 71.1861 60.4577 69.4882 60.4577 67.7178V44.0511C60.4573 42.2809 59.7572 40.5834 58.5115 39.3319C57.2657 38.0804 55.5763 37.3773 53.8147 37.3773H32.0744ZM32.0744 36.7695H53.8147C55.7366 36.7695 57.5797 37.5366 58.9386 38.9022C60.2976 40.2678 61.061 42.1199 61.061 44.0511V67.7193C61.061 68.6756 60.8736 69.6224 60.5094 70.5059C60.1453 71.3893 59.6115 72.1921 58.9386 72.8682C58.2657 73.5444 57.4669 74.0807 56.5878 74.4467C55.7086 74.8126 54.7663 75.001 53.8147 75.001H32.0744C30.1525 75.001 28.3094 74.2338 26.9505 72.8682C25.5915 71.5027 24.8281 69.6505 24.8281 67.7193V44.0511C24.8281 42.1199 25.5915 40.2678 26.9505 38.9022C28.3094 37.5366 30.1525 36.7695 32.0744 36.7695Z" fill="#00C5BF"/>
<path d="M52.1108 42.7305H33.7607C32.072 42.7305 30.7031 44.1062 30.7031 45.803V45.8046C30.7031 47.5015 32.072 48.8771 33.7607 48.8771H52.1108C53.7995 48.8771 55.1684 47.5015 55.1684 45.8046V45.803C55.1684 44.1062 53.7995 42.7305 52.1108 42.7305Z" fill="#01C4BF"/>
<path d="M33.2945 44.0513C32.8132 44.0513 32.3516 44.2434 32.0113 44.5853C31.671 44.9273 31.4799 45.3911 31.4799 45.8747V47.0903C31.4799 47.5739 31.671 48.0377 32.0113 48.3797C32.3516 48.7217 32.8132 48.9138 33.2945 48.9138H52.6199C53.1012 48.9138 53.5627 48.7217 53.903 48.3797C54.2433 48.0377 54.4345 47.5739 54.4345 47.0903V45.8747C54.4345 45.3911 54.2433 44.9273 53.903 44.5853C53.5627 44.2434 53.1012 44.0513 52.6199 44.0513H33.2945ZM33.2945 43.4434H52.6199C53.2616 43.4434 53.877 43.6996 54.3307 44.1555C54.7845 44.6115 55.0394 45.2299 55.0394 45.8747V47.0903C55.0394 47.7351 54.7845 48.3535 54.3307 48.8095C53.877 49.2654 53.2616 49.5216 52.6199 49.5216H33.2945C32.6528 49.5216 32.0374 49.2654 31.5836 48.8095C31.1299 48.3535 30.875 47.7351 30.875 47.0903V45.8747C30.875 45.2299 31.1299 44.6115 31.5836 44.1555C32.0374 43.6996 32.6528 43.4434 33.2945 43.4434Z" fill="#00C5BF"/>
<path d="M52.1108 53.4883H33.7607C32.072 53.4883 30.7031 54.8639 30.7031 56.5608V56.5624C30.7031 58.2593 32.072 59.6349 33.7607 59.6349H52.1108C53.7995 59.6349 55.1684 58.2593 55.1684 56.5624V56.5608C55.1684 54.8639 53.7995 53.4883 52.1108 53.4883Z" fill="white"/>
<path d="M33.2945 53.7602C32.8132 53.7602 32.3516 53.9523 32.0113 54.2942C31.671 54.6362 31.4799 55.1 31.4799 55.5836V56.7992C31.4799 57.2828 31.671 57.7466 32.0113 58.0886C32.3516 58.4306 32.8132 58.6227 33.2945 58.6227H52.6199C53.1012 58.6227 53.5627 58.4306 53.903 58.0886C54.2433 57.7466 54.4345 57.2828 54.4345 56.7992V55.5836C54.4345 55.1 54.2433 54.6362 53.903 54.2942C53.5627 53.9523 53.1012 53.7602 52.6199 53.7602H33.2945ZM33.2945 53.1523H52.6199C53.2616 53.1523 53.877 53.4085 54.3307 53.8644C54.7845 54.3204 55.0394 54.9388 55.0394 55.5836V56.7992C55.0394 57.444 54.7845 58.0624 54.3307 58.5184C53.877 58.9743 53.2616 59.2305 52.6199 59.2305H33.2945C32.6528 59.2305 32.0374 58.9743 31.5836 58.5184C31.1299 58.0624 30.875 57.444 30.875 56.7992V55.5836C30.875 54.9388 31.1299 54.3204 31.5836 53.8644C32.0374 53.4085 32.6528 53.1523 33.2945 53.1523Z" fill="#00C5BF"/>
<path d="M52.1108 62.707H33.7607C32.072 62.707 30.7031 64.0826 30.7031 65.7795V65.7811C30.7031 67.4779 32.072 68.8535 33.7607 68.8535H52.1108C53.7995 68.8535 55.1684 67.4779 55.1684 65.7811V65.7795C55.1684 64.0826 53.7995 62.707 52.1108 62.707Z" fill="white"/>
<path d="M33.2945 63.4711C32.8132 63.4711 32.3516 63.6632 32.0113 64.0052C31.671 64.3472 31.4799 64.811 31.4799 65.2946V66.5102C31.4799 66.9938 31.671 67.4576 32.0113 67.7996C32.3516 68.1415 32.8132 68.3336 33.2945 68.3336H52.6199C53.1012 68.3336 53.5627 68.1415 53.903 67.7996C54.2433 67.4576 54.4345 66.9938 54.4345 66.5102V65.2946C54.4345 64.811 54.2433 64.3472 53.903 64.0052C53.5627 63.6632 53.1012 63.4711 52.6199 63.4711H33.2945ZM33.2945 62.8633H52.6199C53.2616 62.8633 53.877 63.1195 54.3307 63.5754C54.7845 64.0314 55.0394 64.6498 55.0394 65.2946V66.5102C55.0394 67.155 54.7845 67.7734 54.3307 68.2293C53.877 68.6853 53.2616 68.9414 52.6199 68.9414H33.2945C32.6528 68.9414 32.0374 68.6853 31.5836 68.2293C31.1299 67.7734 30.875 67.155 30.875 66.5102V65.2946C30.875 64.6498 31.1299 64.0314 31.5836 63.5754C32.0374 63.1195 32.6528 62.8633 33.2945 62.8633Z" fill="#00C5BF"/>
</g>
<defs>
<filter id="filter0_d_50_367" x="0" y="0" width="96" height="96" filterUnits="userSpaceOnUse" color-interpolation-filters="sRGB">
<feFlood flood-opacity="0" result="BackgroundImageFix"/>
<feColorMatrix in="SourceAlpha" type="matrix" values="0 0 0 0 0 0 0 0 0 0 0 0 0 0 0 0 0 0 127 0" result="hardAlpha"/>
<feOffset dx="3" dy="3"/>
<feGaussianBlur stdDeviation="2"/>
<feColorMatrix type="matrix" values="0 0 0 0 0.466667 0 0 0 0 0.466667 0 0 0 0 0.466667 0 0 0 0.35 0"/>
<feBlend mode="normal" in2="BackgroundImageFix" result="effect1_dropShadow_50_367"/>
<feBlend mode="normal" in="SourceGraphic" in2="effect1_dropShadow_50_367" result="shape"/>
</filter>
<filter id="filter1_d_50_367" x="5.75781" y="6.00195" width="84.375" height="84.373" filterUnits="userSpaceOnUse" color-interpolation-filters="sRGB">
<feFlood flood-opacity="0" result="BackgroundImageFix"/>
<feColorMatrix in="SourceAlpha" type="matrix" values="0 0 0 0 0 0 0 0 0 0 0 0 0 0 0 0 0 0 127 0" result="hardAlpha"/>
<feOffset dx="3" dy="3"/>
<feGaussianBlur stdDeviation="2"/>
<feColorMatrix type="matrix" values="0 0 0 0 0.466667 0 0 0 0 0.466667 0 0 0 0 0.466667 0 0 0 0.35 0"/>
<feBlend mode="normal" in2="BackgroundImageFix" result="effect1_dropShadow_50_367"/>
<feBlend mode="normal" in="SourceGraphic" in2="effect1_dropShadow_50_367" result="shape"/>
</filter>
<linearGradient id="paint0_linear_50_367" x1="1" y1="45" x2="89" y2="45" gradientUnits="userSpaceOnUse">
<stop stop-color="#00C5C0"/>
<stop offset="0.49" stop-color="#01C3BD"/>
<stop offset="0.72" stop-color="#06BCB6"/>
<stop offset="0.91" stop-color="#0EB2A9"/>
<stop offset="1" stop-color="#15AA9F"/>
</linearGradient>
<clipPath id="clip0_50_367">
<rect width="69" height="63" fill="white" transform="translate(11 12)"/>
</clipPath>
</defs>
</svg>
