<svg width="96" height="96" viewBox="0 0 96 96" fill="none" xmlns="http://www.w3.org/2000/svg">
<g filter="url(#filter0_d_50_368)">
<path d="M45 89C69.3005 89 89 69.3005 89 45C89 20.6995 69.3005 1 45 1C20.6995 1 1 20.6995 1 45C1 69.3005 20.6995 89 45 89Z" fill="url(#paint0_linear_50_368)"/>
</g>
<g filter="url(#filter1_d_50_368)">
<path d="M45.18 83.36C24.13 83.36 7 66.23 7 45.18C7 24.13 24.13 7 45.18 7C66.23 7 83.36 24.13 83.36 45.18C83.36 66.23 66.23 83.36 45.18 83.36Z" fill="white"/>
</g>
<g clip-path="url(#clip0_50_368)">
<mask id="mask0_50_368" style="mask-type:luminance" maskUnits="userSpaceOnUse" x="25" y="26" width="41" height="45">
<path d="M65.0776 26H25V70.2857H65.0776V26Z" fill="white"/>
</mask>
<g mask="url(#mask0_50_368)">
<path d="M49.9722 26C60.5518 26 65.077 37.2468 65.077 46.2604C65.077 55.2741 56.6967 56.1454 46.1171 56.1454C35.5376 56.1454 25 53.515 25 44.4991C25 35.4833 39.3926 26 49.9722 26Z" fill="#C2F8FF"/>
<path d="M38.4017 32.8828H33.0625V70.1732H38.4017V32.8828Z" fill="white"/>
<path d="M37.7188 34.5156V51.322H62.2823L56.5801 43.1825L62.2823 35.3065" fill="#00C7E6"/>
<path d="M62.8215 35.1341C62.7602 35.0209 62.6676 34.927 62.5542 34.8631C62.4409 34.7992 62.3115 34.768 62.1808 34.773H38.5257V33.0846C38.5224 32.9924 38.5005 32.9019 38.4612 32.8182C38.4217 32.7345 38.3657 32.6594 38.2963 32.5971C38.2269 32.535 38.1455 32.4871 38.0569 32.4562C37.9683 32.4252 37.8743 32.4119 37.7805 32.4171H33.7757C33.6843 32.4127 33.593 32.4268 33.5074 32.4586C33.422 32.4904 33.344 32.5391 33.2786 32.6018C33.2131 32.6645 33.1616 32.7396 33.1272 32.8227C33.0927 32.9058 33.0762 32.9949 33.0785 33.0846V69.1282C33.0724 69.3172 33.1419 69.5009 33.2722 69.6403C33.4024 69.7797 33.5831 69.8636 33.7757 69.8741H37.7811C37.9791 69.8669 38.1667 69.7856 38.3054 69.6468C38.444 69.5081 38.5231 69.3225 38.5262 69.1282V52.049H62.1813C62.3131 52.0498 62.4424 52.015 62.5553 51.9486C62.6681 51.8822 62.7602 51.7866 62.8214 51.6723C62.8826 51.558 62.9105 51.4294 62.9021 51.3006C62.8938 51.1718 62.8494 51.0477 62.7739 50.942L57.3905 43.3954L62.7734 35.857C62.8475 35.7521 62.8911 35.6294 62.8996 35.5021C62.908 35.3747 62.8811 35.2475 62.8215 35.1341ZM37.084 68.4607H34.5202V33.8304H37.0834L37.084 68.4607ZM55.9164 43.0101C55.8305 43.1252 55.7843 43.2641 55.7843 43.4066C55.7843 43.5491 55.8305 43.688 55.9164 43.8031L60.795 50.6351H38.5257V36.1863H60.795L55.9164 43.0101Z" fill="#253858"/>
<path d="M33.7747 32.0047H37.7801C37.9292 31.9991 38.0779 32.0227 38.2175 32.0741C38.3572 32.1255 38.485 32.2038 38.5934 32.3042C38.7019 32.4046 38.7888 32.5252 38.8491 32.659C38.9094 32.7928 38.9418 32.937 38.9445 33.0832V34.3606H62.1804C62.3888 34.3562 62.5945 34.4089 62.7739 34.5129C62.9534 34.6169 63.0996 34.768 63.1962 34.9492C63.2891 35.1279 63.3311 35.3278 63.3176 35.528C63.3043 35.7281 63.236 35.9211 63.1201 36.0863L63.1168 36.0913L57.9021 43.394L63.1207 50.7094C63.239 50.877 63.3083 51.0731 63.3209 51.2766C63.3334 51.4801 63.2889 51.683 63.192 51.8634C63.0951 52.0437 62.9496 52.1946 62.7714 52.2995C62.5931 52.4045 62.3889 52.4596 62.181 52.4587H38.944V69.1269C38.9418 69.4304 38.819 69.721 38.6015 69.937C38.3839 70.153 38.0891 70.2772 37.7795 70.2832H33.7747C33.4701 70.2748 33.1813 70.1482 32.9717 69.9313C32.7621 69.7145 32.6488 69.425 32.6566 69.1263V33.0832C32.6543 32.9395 32.6818 32.7968 32.7374 32.6638C32.793 32.5308 32.8756 32.4102 32.9802 32.3094C33.0847 32.2086 33.209 32.1296 33.3456 32.0773C33.4821 32.0249 33.6281 32.0002 33.7747 32.0047ZM62.4269 35.6216C62.4584 35.5773 62.4768 35.5252 62.4801 35.4713C62.4832 35.4173 62.4713 35.3636 62.4454 35.3158C62.4177 35.2718 62.3783 35.236 62.3314 35.2123C62.2845 35.1887 62.2319 35.178 62.1793 35.1815H38.1054V33.0832C38.1013 33.0453 38.0896 33.0087 38.071 32.9752C38.0524 32.9418 38.0272 32.9124 37.9969 32.8886C37.9666 32.8647 37.9318 32.847 37.8945 32.8363C37.8572 32.8258 37.8181 32.8225 37.7795 32.8267H33.7747C33.7384 32.8222 33.7015 32.8255 33.6667 32.8365C33.6318 32.8475 33.5999 32.8659 33.5732 32.8905C33.5465 32.9149 33.5257 32.9449 33.5122 32.9783C33.4987 33.0116 33.4929 33.0474 33.4952 33.0832V69.1269C33.4898 69.2071 33.5156 69.2862 33.5675 69.3484C33.6194 69.4106 33.6935 69.4511 33.7747 69.4617H37.7801C37.8667 69.4545 37.9476 69.4164 38.0077 69.3548C38.0677 69.293 38.1026 69.212 38.106 69.1269V51.6367H62.1804C62.2362 51.6376 62.2913 51.6232 62.3392 51.595C62.3872 51.5668 62.4261 51.526 62.4515 51.4772C62.477 51.4294 62.4882 51.3755 62.484 51.3218C62.48 51.2681 62.4605 51.2165 62.428 51.173L56.8786 43.3913L62.4269 35.6216ZM34.1 33.418H37.5017V68.8704H34.1V33.418ZM36.6632 34.2401H34.9386V68.0484H36.6632V34.2401ZM38.1049 35.7745H61.599L56.2581 43.2455C56.2223 43.2913 56.2028 43.3475 56.2028 43.4053C56.2028 43.463 56.2223 43.5192 56.2581 43.565L61.6002 51.0459H38.1054L38.1049 35.7745ZM59.9879 36.5965H38.944V50.2228H59.9891L55.5727 44.0374C55.4371 43.853 55.3642 43.6314 55.3642 43.4042C55.3642 43.1769 55.4371 42.9553 55.5727 42.7709L59.9879 36.5965Z" fill="white"/>
</g>
<path d="M23.2971 30.4219L19.5739 33.4931C19.4563 33.5852 19.3022 33.6317 19.149 33.6317C18.9959 33.6317 18.8407 33.5852 18.7241 33.4931L15 30.4219L18.0651 34.1522C18.2489 34.3876 18.2489 34.7686 18.0651 35.0041L15 38.7353L18.7232 35.6641C18.8407 35.5721 18.9949 35.5255 19.148 35.5255C19.3012 35.5255 19.4553 35.5721 19.5729 35.6641L23.2961 38.7353L20.231 35.0041C20.0472 34.7686 20.0472 34.3876 20.231 34.1522L23.2971 30.4219Z" fill="#FFC400"/>
<path d="M70.0393 23.4544L69.6931 23.9289L69.6902 23.9332L69.6872 23.9376C69.3875 24.3685 69.3875 25.0428 69.6872 25.4737L69.6902 25.478L69.6931 25.4824L70.0412 25.9591L69.6186 25.5668L69.6147 25.5636L69.6109 25.5603C69.4247 25.3958 69.1824 25.3048 68.9296 25.3048C68.6767 25.3048 68.4344 25.3953 68.2483 25.5603L68.2444 25.5636L68.2405 25.5668L67.8198 25.9574L68.1666 25.4829L68.1694 25.4785L68.1723 25.4743C68.4721 25.0434 68.4721 24.369 68.1723 23.9381L68.1694 23.9337L68.1666 23.9295L67.8213 23.4572L68.2405 23.8461L68.2444 23.8493L68.2483 23.8526C68.4344 24.0171 68.6767 24.1081 68.9296 24.1081C69.1824 24.1081 69.4247 24.0171 69.6109 23.8526L69.6147 23.8493L69.6186 23.8461L70.0398 23.4555L70.0393 23.4544ZM73.0783 20.0293L69.3546 23.4844C69.2371 23.5884 69.0833 23.6402 68.9296 23.6402C68.7758 23.6402 68.6215 23.5884 68.5045 23.4844L64.7812 20.0293L67.8465 24.2258C68.0307 24.4905 68.0307 24.9197 67.8465 25.1844L64.7812 29.382L68.5045 25.9269C68.622 25.8234 68.7758 25.7711 68.9296 25.7711C69.0833 25.7711 69.2376 25.8229 69.3546 25.9269L73.0783 29.382L70.0132 25.1844C69.829 24.9197 69.829 24.4905 70.0132 24.2258L73.0783 20.0293Z" fill="#FF7452"/>
<path d="M75.1176 58.5318C75.1176 60.0162 73.918 61.216 72.4338 61.216C70.9497 61.216 69.75 60.0162 69.75 58.5318C69.75 57.0474 70.942 55.8477 72.4261 55.8477C73.9103 55.8477 75.1099 57.0474 75.1099 58.5318H75.1176Z" stroke="#00CEB5" stroke-width="2" stroke-linecap="round" stroke-linejoin="round"/>
<path d="M41.8409 18.0204C41.8409 19.2079 40.8813 20.1678 39.6939 20.1678C38.5066 20.1678 37.5469 19.2079 37.5469 18.0204C37.5469 16.8329 38.5004 15.873 39.6878 15.873C40.8751 15.873 41.8348 16.8329 41.8348 18.0204H41.8409Z" stroke="#6554C0" stroke-width="2" stroke-linecap="round" stroke-linejoin="round"/>
</g>
<defs>
<filter id="filter0_d_50_368" x="0" y="0" width="96" height="96" filterUnits="userSpaceOnUse" color-interpolation-filters="sRGB">
<feFlood flood-opacity="0" result="BackgroundImageFix"/>
<feColorMatrix in="SourceAlpha" type="matrix" values="0 0 0 0 0 0 0 0 0 0 0 0 0 0 0 0 0 0 127 0" result="hardAlpha"/>
<feOffset dx="3" dy="3"/>
<feGaussianBlur stdDeviation="2"/>
<feColorMatrix type="matrix" values="0 0 0 0 0.466667 0 0 0 0 0.466667 0 0 0 0 0.466667 0 0 0 0.35 0"/>
<feBlend mode="normal" in2="BackgroundImageFix" result="effect1_dropShadow_50_368"/>
<feBlend mode="normal" in="SourceGraphic" in2="effect1_dropShadow_50_368" result="shape"/>
</filter>
<filter id="filter1_d_50_368" x="6" y="6" width="84.3594" height="84.3594" filterUnits="userSpaceOnUse" color-interpolation-filters="sRGB">
<feFlood flood-opacity="0" result="BackgroundImageFix"/>
<feColorMatrix in="SourceAlpha" type="matrix" values="0 0 0 0 0 0 0 0 0 0 0 0 0 0 0 0 0 0 127 0" result="hardAlpha"/>
<feOffset dx="3" dy="3"/>
<feGaussianBlur stdDeviation="2"/>
<feColorMatrix type="matrix" values="0 0 0 0 0.466667 0 0 0 0 0.466667 0 0 0 0 0.466667 0 0 0 0.35 0"/>
<feBlend mode="normal" in2="BackgroundImageFix" result="effect1_dropShadow_50_368"/>
<feBlend mode="normal" in="SourceGraphic" in2="effect1_dropShadow_50_368" result="shape"/>
</filter>
<linearGradient id="paint0_linear_50_368" x1="89" y1="45" x2="1" y2="45" gradientUnits="userSpaceOnUse">
<stop stop-color="#00BDEA"/>
<stop offset="0.51" stop-color="#00BCE7"/>
<stop offset="0.76" stop-color="#01B9E0"/>
<stop offset="0.95" stop-color="#04B4D3"/>
<stop offset="1" stop-color="#05B2CE"/>
</linearGradient>
<clipPath id="clip0_50_368">
<rect width="61" height="55" fill="white" transform="translate(15 15)"/>
</clipPath>
</defs>
</svg>
