<svg width="93" height="93" viewBox="0 0 93 93" fill="none" xmlns="http://www.w3.org/2000/svg">
<g filter="url(#filter0_d_50_369)">
<path d="M43.5 86C66.9721 86 86 66.9721 86 43.5C86 20.0279 66.9721 1 43.5 1C20.0279 1 1 20.0279 1 43.5C1 66.9721 20.0279 86 43.5 86Z" fill="url(#paint0_linear_50_369)"/>
</g>
<g filter="url(#filter1_d_50_369)">
<path d="M43.18 81.36C22.13 81.36 5 64.23 5 43.18C5 22.13 22.13 5 43.18 5C64.23 5 81.36 22.13 81.36 43.18C81.36 64.23 64.23 81.36 43.18 81.36Z" fill="white"/>
</g>
<g clip-path="url(#clip0_50_369)">
<path d="M17.3852 22.6641L13.1738 26.1822C13.0408 26.2876 12.8664 26.3409 12.6932 26.3409C12.5199 26.3409 12.3444 26.2876 12.2126 26.1822L8 22.6641L11.4671 26.937C11.675 27.2068 11.675 27.6431 11.4671 27.9129L8 32.1869L12.2114 28.6688C12.3444 28.5634 12.5188 28.5102 12.692 28.5102C12.8653 28.5102 13.0396 28.5634 13.1726 28.6688L17.3841 32.1869L13.917 27.9129C13.7091 27.6431 13.7091 27.2068 13.917 26.937L17.3852 22.6641Z" fill="#FFC400"/>
<path d="M70.2601 14.6851L69.8685 15.2285L69.8652 15.2335L69.8619 15.2385C69.5228 15.7321 69.5228 16.5045 69.8619 16.998L69.8652 17.003L69.8685 17.008L70.2623 17.554L69.7843 17.1047L69.7799 17.101L69.7755 17.0972C69.5649 16.9088 69.2909 16.8046 69.0049 16.8046C68.7188 16.8046 68.4448 16.9082 68.2342 17.0972L68.2298 17.101L68.2254 17.1047L67.7496 17.5521L68.1418 17.0086L68.145 17.0037L68.1483 16.9987C68.4874 16.5051 68.4874 15.7327 68.1483 15.2391L68.145 15.2342L68.1418 15.2292L67.7512 14.6882L68.2254 15.1337L68.2298 15.1374L68.2342 15.1412C68.4448 15.3296 68.7188 15.4338 69.0049 15.4338C69.2909 15.4338 69.5649 15.3296 69.7755 15.1412L69.7799 15.1374L69.7843 15.1337L70.2607 14.6863L70.2601 14.6851ZM73.6977 10.7617L69.4856 14.7194C69.3527 14.8386 69.1788 14.8978 69.0049 14.8978C68.8309 14.8978 68.6564 14.8386 68.5241 14.7194L64.3125 10.7617L67.7797 15.5686C67.9881 15.8718 67.9881 16.3635 67.7797 16.6667L64.3125 21.4748L68.5241 17.5172C68.657 17.3986 68.8309 17.3387 69.0049 17.3387C69.1788 17.3387 69.3533 17.398 69.4856 17.5172L73.6977 21.4748L70.2306 16.6667C70.0222 16.3635 70.0222 15.8718 70.2306 15.5686L73.6977 10.7617Z" fill="#FF7452"/>
<path d="M76.0012 54.8637C76.0012 56.564 74.6443 57.9383 72.9655 57.9383C71.2867 57.9383 69.9297 56.564 69.9297 54.8637C69.9297 53.1634 71.278 51.7891 72.9568 51.7891C74.6356 51.7891 75.9925 53.1634 75.9925 54.8637H76.0012Z" stroke="#00CEB5" stroke-width="2" stroke-linecap="round" stroke-linejoin="round"/>
<path d="M38.3572 8.4597C38.3572 9.81993 37.2717 10.9194 35.9286 10.9194C34.5856 10.9194 33.5 9.81993 33.5 8.4597C33.5 7.09946 34.5786 6 35.9217 6C37.2647 6 38.3503 7.09946 38.3503 8.4597H38.3572Z" stroke="#6554C0" stroke-width="2" stroke-linecap="round" stroke-linejoin="round"/>
<path d="M36.8291 20C25.7404 20 21 31.6669 21 41.0175C21 50.3681 29.7786 51.2722 40.8673 51.2722C51.956 51.2722 63.0001 48.5434 63.0001 39.1899C63.0001 29.8363 47.9163 20 36.8291 20Z" fill="#FFF0C1"/>
<path d="M25.4922 49.9272H30.9578L31.6917 51.7101L34.5704 48.2565L38.383 46.1359L45.0397 45.0898L46.1482 48.264H53.5268L54.9526 49.3101V51.7101L53.5268 52.3931L54.3134 54.4135V56.2068L52.3853 57.4024L53.5268 59.5723V61.5853L52.3853 62.2756V64.4037L51.6529 66.3061L49.093 67.2118H25.4937L25.4922 49.9272Z" fill="white"/>
<path d="M36.4743 46.3804L35.0876 42.5532L33.5234 34.7045V30.3871L39.3755 28.5594L45.8442 27.4805L49.3997 28.0318L48.8131 31.9577L51.1955 31.0894L55.3631 31.5153L54.1854 35.4636L56.6294 36.1212L58.4778 37.3077L53.4304 43.1794L51.6437 47.5894L46.6248 48.1168L45.8547 46.9213L44.5884 44.9786L40.2629 45.4404L36.4743 46.3804Z" fill="#FFC400"/>
<path d="M44.4254 62.569L50.6489 62.847C50.8821 62.845 51.1112 62.9073 51.3094 63.0266C51.5076 63.1459 51.6668 63.3173 51.7685 63.521C51.9317 63.8179 52.017 64.1492 52.017 64.4856C52.017 64.8221 51.9317 65.1534 51.7685 65.4503C51.6471 65.705 51.4577 65.9235 51.22 66.0833C50.9822 66.243 50.7048 66.3382 50.4163 66.3589H44.1019C43.8632 66.2807 43.6432 66.1565 43.4553 65.9937C43.2674 65.8308 43.1154 65.6328 43.0085 65.4114C42.8548 65.1125 42.7749 64.783 42.7749 64.449C42.7749 64.115 42.8548 63.7855 43.0085 63.4866C43.1344 63.2217 43.3334 62.9958 43.5835 62.8338C43.8336 62.6719 44.1249 62.5803 44.4254 62.569ZM44.2713 57.6449L51.576 58.0051C51.8796 58.0164 52.1743 58.1075 52.4287 58.2686C52.6831 58.4296 52.8877 58.6546 53.0206 58.9197C53.1745 59.219 53.2547 59.549 53.2547 59.8836C53.2547 60.2181 53.1745 60.5481 53.0206 60.8475C52.8948 61.113 52.6953 61.3394 52.4446 61.5014C52.1939 61.6634 51.9017 61.7547 51.6007 61.765L44.4623 61.4393C44.1586 61.4293 43.8635 61.3391 43.6087 61.1785C43.3539 61.0178 43.149 60.7928 43.0162 60.5277C42.8448 60.2301 42.7437 59.8993 42.7203 59.5591C42.6968 59.219 42.7516 58.8781 42.8806 58.561C42.9985 58.2947 43.1926 58.0667 43.4399 57.9041C43.6872 57.7415 43.9773 57.651 44.276 57.6434L44.2713 57.6449ZM52.1921 53.1198C52.4925 53.1294 52.7843 53.2201 53.0345 53.3816C53.2848 53.5432 53.4837 53.7692 53.609 54.0344C53.7627 54.3341 53.8426 54.6643 53.8426 54.9991C53.8426 55.3338 53.7627 55.664 53.609 55.9637C53.4748 56.2416 53.2666 56.4797 53.0059 56.6533C52.7451 56.827 52.4413 56.9299 52.1259 56.9515L46.5291 56.6407C46.8486 56.4163 47.1046 56.1174 47.2734 55.7715C47.4422 55.4257 47.5183 55.0441 47.4948 54.6621L47.3177 53.1288L52.1921 53.1198ZM52.9621 48.4468C53.2621 48.4551 53.5537 48.5446 53.804 48.7052C54.0543 48.8657 54.2535 49.0909 54.379 49.3554C54.5319 49.655 54.6114 49.9849 54.6114 50.3193C54.6114 50.6536 54.5319 50.9835 54.379 51.2832C54.3052 51.4858 54.1699 51.662 53.991 51.7887C53.8121 51.9154 53.5978 51.9866 53.3764 51.993L47.1852 52.0005L46.774 48.4542L52.9621 48.4468ZM46.1503 27.1034C44.2271 27.0819 42.3067 27.2527 40.4196 27.613C37.7014 28.0044 35.1362 29.0797 32.9793 30.7319C32.9197 30.7845 32.872 30.8487 32.8394 30.9202C32.8068 30.9918 32.7899 31.0691 32.7899 31.1474C32.6399 35.9375 33.6087 40.6985 35.6237 45.0739C35.6821 45.2126 35.7949 45.3231 35.9373 45.3811C36.0797 45.4391 36.24 45.4399 36.383 45.3832C36.5259 45.3265 36.6398 45.2171 36.6996 45.0789C36.7594 44.9407 36.7602 44.7852 36.7018 44.6465C34.7949 40.5069 33.8662 36.006 33.9835 31.4731C35.9415 30.0427 38.2304 29.0987 40.6506 28.7234C43.304 28.2288 46.0223 28.1526 48.7007 28.4977C47.6889 34.7459 47.8025 41.117 49.0364 47.3274H46.6431L46.5892 46.8433C46.5768 46.4803 46.4831 46.1243 46.3148 45.7999C46.1465 45.4755 45.9075 45.1906 45.6143 44.9648C45.3455 44.7818 45.0409 44.6544 44.7193 44.5904C44.3977 44.5264 44.0659 44.5272 43.7446 44.5927L37.8922 45.6387C36.6331 45.8412 35.4946 46.4858 34.6935 47.45L31.8504 50.6271C31.7657 50.3641 31.6779 50.0966 31.5825 49.8306C31.5425 49.7211 31.4683 49.6265 31.3703 49.5598C31.2724 49.4931 31.1554 49.4577 31.0357 49.4585H25.5714C25.4928 49.4546 25.4141 49.4662 25.3403 49.4927C25.2664 49.5192 25.1988 49.56 25.1417 49.6126C25.0846 49.6653 25.0391 49.7286 25.008 49.7989C24.977 49.8691 24.9609 49.9447 24.9609 50.0211C24.9609 50.0976 24.977 50.1732 25.008 50.2434C25.0391 50.3136 25.0846 50.377 25.1417 50.4296C25.1988 50.4823 25.2664 50.5231 25.3403 50.5496C25.4141 50.5761 25.4928 50.5877 25.5714 50.5838H30.5521C32.4495 56.0877 31.9906 60.8564 30.6122 66.873H25.5714C25.4928 66.869 25.4141 66.8807 25.3403 66.9072C25.2664 66.9337 25.1988 66.9745 25.1417 67.0271C25.0846 67.0797 25.0391 67.1431 25.008 67.2133C24.977 67.2836 24.9609 67.3592 24.9609 67.4356C24.9609 67.512 24.977 67.5877 25.008 67.6579C25.0391 67.7281 25.0846 67.7915 25.1417 67.8441C25.1988 67.8968 25.2664 67.9376 25.3403 67.9641C25.4141 67.9906 25.4928 68.0022 25.5714 67.9983H31.1158C31.247 67.9984 31.3744 67.9553 31.4771 67.8761C31.5798 67.7968 31.6517 67.686 31.681 67.5619C33.0194 61.8667 33.6385 57.1383 32.2462 51.9318L35.5775 48.1957C35.8788 47.8037 36.2582 47.4743 36.6931 47.2271C37.128 46.9799 37.6096 46.8199 38.1094 46.7566L43.9618 45.7105C44.9166 45.5401 45.3602 46.2799 45.4434 46.9822L46.3428 54.674C46.3435 54.9678 46.2531 55.2551 46.0834 55.4984C45.9136 55.7417 45.6724 55.9299 45.391 56.0384C45.0819 56.2 44.7364 56.2845 44.3853 56.2845C44.0343 56.2845 43.6887 56.2 43.3796 56.0384C43.1009 55.8539 42.8669 55.6128 42.6938 55.3318C42.5206 55.0508 42.4126 54.7366 42.377 54.411L41.5346 50.0563C41.5215 49.9827 41.4934 49.9124 41.4521 49.8494C41.4107 49.7865 41.3569 49.7321 41.2937 49.6895C41.2305 49.647 41.1592 49.617 41.084 49.6014C41.0087 49.5857 40.931 49.5848 40.8554 49.5985C40.7798 49.6123 40.7078 49.6405 40.6435 49.6815C40.5792 49.7225 40.5239 49.7756 40.4809 49.8375C40.438 49.8994 40.4081 49.969 40.393 50.0422C40.378 50.1154 40.3781 50.1908 40.3934 50.264L41.6347 56.6691C41.8934 58.014 40.2717 60.0644 36.8357 59.5443C36.7587 59.5291 36.6793 59.5292 36.6024 59.5446C36.5254 59.56 36.4524 59.5903 36.3878 59.6338C36.3232 59.6773 36.2684 59.733 36.2266 59.7976C36.1848 59.8622 36.157 59.9343 36.1447 60.0096C36.1324 60.085 36.136 60.1619 36.1552 60.2359C36.1744 60.3098 36.2088 60.3792 36.2564 60.4399C36.304 60.5006 36.3638 60.5513 36.4321 60.589C36.5004 60.6267 36.5759 60.6506 36.654 60.6592C37.5097 60.8288 38.3935 60.8121 39.2417 60.6103C40.09 60.4085 40.8815 60.0266 41.5592 59.492C41.5924 60.0351 41.7419 60.5654 41.9982 61.0492C42.1968 61.4244 42.48 61.7513 42.8267 62.0056C42.4804 62.2679 42.1967 62.5998 41.9951 62.9785C41.7533 63.4358 41.6265 63.9422 41.6249 64.4562C41.6233 64.9701 41.747 65.4772 41.9858 65.936C42.0684 66.0868 42.1637 66.2307 42.2708 66.3664H36.942C36.4586 66.4019 35.9787 66.263 35.5944 65.9763C35.2567 65.6782 34.9767 65.3239 34.7674 64.9302C34.6904 64.8008 34.5636 64.7064 34.4148 64.6677C34.2661 64.629 34.1076 64.6493 33.9742 64.724C33.8409 64.7987 33.7435 64.9218 33.7037 65.0661C33.6638 65.2104 33.6847 65.3642 33.7617 65.4936C34.038 66.013 34.4144 66.4762 34.8706 66.858C35.4638 67.2976 36.1961 67.5232 36.942 67.4961H50.4364C50.9431 67.4973 51.439 67.354 51.8625 67.084C52.2861 66.8141 52.6186 66.4295 52.8189 65.9778C53.0588 65.4563 53.1664 64.8865 53.1327 64.3163C53.0989 63.7461 52.9248 63.192 52.6248 62.7006C53.2529 62.437 53.7646 61.9664 54.0695 61.372C54.3098 60.913 54.4346 60.4052 54.4335 59.8903C54.4324 59.3754 54.3056 58.8681 54.0633 58.4101C53.9132 58.1319 53.717 57.8794 53.4827 57.6629C53.9776 57.3865 54.3793 56.977 54.6393 56.4838C54.8797 56.0257 55.0051 55.519 55.0051 55.005C55.0051 54.491 54.8797 53.9843 54.6393 53.5263C54.5285 53.3155 54.3914 53.1188 54.2312 52.9405C54.7398 52.6968 55.1524 52.2985 55.4063 51.8062C55.6466 51.3482 55.7718 50.8415 55.7718 50.3275C55.7718 49.8135 55.6466 49.3068 55.4063 48.8488C55.1824 48.3993 54.8347 48.0187 54.4017 47.7492C53.9687 47.4796 53.4673 47.3316 52.9529 47.3215H52.0581C53.3255 43.6491 55.6594 40.4104 58.7791 37.9948C58.9016 37.9161 58.9889 37.7952 59.0232 37.6565C59.0574 37.5178 59.0363 37.3717 58.9639 37.2476C58.6834 36.7194 58.2637 36.2727 57.7476 35.953C57.2314 35.6333 56.6372 35.4519 56.0254 35.4274C55.3246 35.4184 55.1829 36.3853 55.8313 36.4645C56.1871 36.4932 56.5329 36.5935 56.8465 36.7589C57.1602 36.9243 57.4349 37.1513 57.6533 37.4254C55.5904 38.9815 53.9031 40.9564 52.7096 43.2118C53.1879 39.3888 54.2944 35.6648 55.9869 32.1815C56.0529 32.0646 56.0746 31.9289 56.0482 31.7981C56.0217 31.6673 55.9488 31.5497 55.8421 31.4657C55.1314 30.941 54.3019 30.5886 53.4226 30.4375C52.9432 30.3481 52.4553 30.309 51.9672 30.3209C51.4641 30.3328 50.9642 30.4025 50.4779 30.5287C50.4017 30.5453 50.3296 30.5767 50.2661 30.621C50.2026 30.6652 50.149 30.7215 50.1085 30.7864C50.068 30.8513 50.0414 30.9234 50.0303 30.9985C50.0192 31.0737 50.0239 31.1502 50.044 31.2235C50.0641 31.2968 50.0993 31.3654 50.1475 31.4252C50.1956 31.485 50.2557 31.5347 50.3241 31.5714C50.3925 31.6081 50.4679 31.6311 50.5457 31.6388C50.6234 31.6466 50.702 31.639 50.7767 31.6166C52.1347 31.3265 53.5558 31.5676 54.7317 32.2876C52.7373 36.0984 51.9164 40.9552 50.8168 47.3304H50.2208C49.2459 43.4449 48.5266 33.7745 49.8742 28.0599C49.8914 27.9851 49.8927 27.9076 49.8781 27.8323C49.8635 27.7569 49.8332 27.6853 49.7891 27.6217C49.745 27.5581 49.688 27.5038 49.6216 27.4623C49.5553 27.4207 49.4809 27.3927 49.403 27.3799C48.3263 27.2057 47.2371 27.1143 46.1456 27.1064L46.1503 27.1034Z" fill="#172B4D" stroke="white" stroke-width="0.3"/>
<path fill-rule="evenodd" clip-rule="evenodd" d="M44.7447 29.6263L37.8451 30.892C37.7652 30.9072 37.6894 30.9385 37.6227 30.9839C37.556 31.0293 37.4999 31.0877 37.4579 31.1555C37.416 31.2232 37.3892 31.2988 37.3792 31.3772C37.3692 31.4556 37.3763 31.5352 37.4 31.6109C37.5552 32.1053 37.5042 32.6391 37.2579 33.0975C37.0117 33.5558 36.5898 33.902 36.0832 34.0617C35.9646 34.0996 35.8615 34.1732 35.7889 34.2718C35.7163 34.3704 35.6781 34.489 35.6797 34.6102C35.8402 37.8459 36.5651 41.0319 37.8235 44.0325C37.8447 44.1092 37.8822 44.1808 37.9338 44.2425C37.9854 44.3043 38.0498 44.3547 38.1228 44.3907C38.1959 44.4266 38.2759 44.4471 38.3577 44.451C38.4395 44.4549 38.5212 44.4419 38.5975 44.413C38.6738 44.3842 38.743 44.34 38.8005 44.2834C38.858 44.2269 38.9025 44.1592 38.9312 44.0847C38.9599 44.0103 38.9721 43.9309 38.967 43.8516C38.9619 43.7723 38.9396 43.6949 38.9016 43.6245C37.7351 40.8643 37.0491 37.9352 36.8717 34.9569C37.3174 34.7302 37.7085 34.4144 38.0191 34.0303C38.4739 33.4112 38.6918 32.6576 38.6352 31.8993L43.8222 30.9443C43.6567 31.4904 43.674 32.0732 43.8715 32.6091C44.1524 33.3776 44.7133 34.0197 45.4485 34.4144C45.2195 37.0915 45.3095 39.7853 45.7165 42.4424C45.7385 42.5892 45.8189 42.7217 45.9404 42.8116C46.0619 42.9014 46.215 42.9415 46.3666 42.9231C46.5182 42.9047 46.6564 42.8293 46.7514 42.7132C46.8464 42.5971 46.8907 42.4494 46.8747 42.3019C46.4714 39.5945 46.3943 36.8507 46.6452 34.126C46.6603 33.9985 46.6302 33.8699 46.56 33.7613C46.4897 33.6527 46.3834 33.5705 46.2586 33.5282C45.9583 33.429 45.6862 33.2627 45.4642 33.0428C45.2423 32.8228 45.0767 32.5554 44.9808 32.2619C44.8848 31.9685 44.8613 31.6573 44.9121 31.3534C44.9629 31.0495 45.0865 30.7615 45.273 30.5125C45.3423 30.4247 45.3832 30.3189 45.3907 30.2086C45.3982 30.0983 45.3719 29.9883 45.3151 29.8924C45.2583 29.7965 45.1736 29.7191 45.0715 29.6699C44.9695 29.6207 44.8547 29.6019 44.7417 29.6158L44.7447 29.6263Z" fill="#172B4D" stroke="white" stroke-width="0.3"/>
</g>
<defs>
<filter id="filter0_d_50_369" x="0" y="0" width="93" height="93" filterUnits="userSpaceOnUse" color-interpolation-filters="sRGB">
<feFlood flood-opacity="0" result="BackgroundImageFix"/>
<feColorMatrix in="SourceAlpha" type="matrix" values="0 0 0 0 0 0 0 0 0 0 0 0 0 0 0 0 0 0 127 0" result="hardAlpha"/>
<feOffset dx="3" dy="3"/>
<feGaussianBlur stdDeviation="2"/>
<feColorMatrix type="matrix" values="0 0 0 0 0.466667 0 0 0 0 0.466667 0 0 0 0 0.466667 0 0 0 0.35 0"/>
<feBlend mode="normal" in2="BackgroundImageFix" result="effect1_dropShadow_50_369"/>
<feBlend mode="normal" in="SourceGraphic" in2="effect1_dropShadow_50_369" result="shape"/>
</filter>
<filter id="filter1_d_50_369" x="4" y="4" width="84.3594" height="84.3594" filterUnits="userSpaceOnUse" color-interpolation-filters="sRGB">
<feFlood flood-opacity="0" result="BackgroundImageFix"/>
<feColorMatrix in="SourceAlpha" type="matrix" values="0 0 0 0 0 0 0 0 0 0 0 0 0 0 0 0 0 0 127 0" result="hardAlpha"/>
<feOffset dx="3" dy="3"/>
<feGaussianBlur stdDeviation="2"/>
<feColorMatrix type="matrix" values="0 0 0 0 0.466667 0 0 0 0 0.466667 0 0 0 0 0.466667 0 0 0 0.35 0"/>
<feBlend mode="normal" in2="BackgroundImageFix" result="effect1_dropShadow_50_369"/>
<feBlend mode="normal" in="SourceGraphic" in2="effect1_dropShadow_50_369" result="shape"/>
</filter>
<linearGradient id="paint0_linear_50_369" x1="1" y1="43.5" x2="86" y2="43.5" gradientUnits="userSpaceOnUse">
<stop stop-color="#FFC261"/>
<stop offset="0.52" stop-color="#FDBF5E"/>
<stop offset="0.78" stop-color="#F8B957"/>
<stop offset="0.98" stop-color="#F0AD4A"/>
<stop offset="1" stop-color="#EFAB48"/>
</linearGradient>
<clipPath id="clip0_50_369">
<rect width="69" height="64" fill="white" transform="translate(8 5)"/>
</clipPath>
</defs>
</svg>
