<svg width="97" height="96" viewBox="0 0 97 96" fill="none" xmlns="http://www.w3.org/2000/svg">
<g filter="url(#filter0_d_50_370)">
<path d="M45.5938 89C69.8943 89 89.5938 69.3005 89.5938 45C89.5938 20.6995 69.8943 1 45.5938 1C21.2932 1 1.59375 20.6995 1.59375 45C1.59375 69.3005 21.2932 89 45.5938 89Z" fill="url(#paint0_linear_50_370)"/>
</g>
<g filter="url(#filter1_d_50_370)">
<path d="M45.5 83.6992C24.2736 83.6992 7 66.4256 7 45.1992C7 23.9728 24.2736 6.69922 45.5 6.69922C66.7264 6.69922 84 23.9728 84 45.1992C84 66.4256 66.7264 83.6992 45.5 83.6992Z" fill="white"/>
</g>
<g clip-path="url(#clip0_50_370)">
<path d="M20.3852 23.6641L16.1738 27.1822C16.0408 27.2876 15.8664 27.3409 15.6932 27.3409C15.5199 27.3409 15.3444 27.2876 15.2126 27.1822L11 23.6641L14.4671 27.937C14.675 28.2068 14.675 28.6431 14.4671 28.9129L11 33.1869L15.2114 29.6688C15.3444 29.5634 15.5188 29.5102 15.692 29.5102C15.8653 29.5102 16.0396 29.5634 16.1726 29.6688L20.3841 33.1869L16.917 28.9129C16.7091 28.6431 16.7091 28.2068 16.917 27.937L20.3852 23.6641Z" fill="#FFC400"/>
<path d="M73.2601 15.6851L72.8685 16.2285L72.8652 16.2335L72.8619 16.2385C72.5228 16.7321 72.5228 17.5045 72.8619 17.998L72.8652 18.003L72.8685 18.008L73.2623 18.554L72.7843 18.1047L72.7799 18.101L72.7755 18.0972C72.5649 17.9088 72.2909 17.8046 72.0049 17.8046C71.7188 17.8046 71.4448 17.9082 71.2342 18.0972L71.2298 18.101L71.2254 18.1047L70.7496 18.5521L71.1418 18.0086L71.145 18.0037L71.1483 17.9987C71.4874 17.5051 71.4874 16.7327 71.1483 16.2391L71.145 16.2342L71.1418 16.2292L70.7512 15.6882L71.2254 16.1337L71.2298 16.1374L71.2342 16.1412C71.4448 16.3296 71.7188 16.4338 72.0049 16.4338C72.2909 16.4338 72.5649 16.3296 72.7755 16.1412L72.7799 16.1374L72.7843 16.1337L73.2607 15.6863L73.2601 15.6851ZM76.6977 11.7617L72.4856 15.7194C72.3527 15.8386 72.1788 15.8978 72.0049 15.8978C71.8309 15.8978 71.6564 15.8386 71.5241 15.7194L67.3125 11.7617L70.7797 16.5686C70.9881 16.8718 70.9881 17.3635 70.7797 17.6667L67.3125 22.4748L71.5241 18.5172C71.657 18.3986 71.8309 18.3387 72.0049 18.3387C72.1788 18.3387 72.3533 18.398 72.4856 18.5172L76.6977 22.4748L73.2306 17.6667C73.0222 17.3635 73.0222 16.8718 73.2306 16.5686L76.6977 11.7617Z" fill="#FF7452"/>
<path d="M79.0012 55.8637C79.0012 57.564 77.6443 58.9383 75.9655 58.9383C74.2867 58.9383 72.9297 57.564 72.9297 55.8637C72.9297 54.1634 74.278 52.7891 75.9568 52.7891C77.6356 52.7891 78.9925 54.1634 78.9925 55.8637H79.0012Z" stroke="#00CEB5" stroke-width="2" stroke-linecap="round" stroke-linejoin="round"/>
<path d="M41.3572 9.4597C41.3572 10.8199 40.2717 11.9194 38.9286 11.9194C37.5856 11.9194 36.5 10.8199 36.5 9.4597C36.5 8.09946 37.5786 7 38.9217 7C40.2647 7 41.3503 8.09946 41.3503 9.4597H41.3572Z" stroke="#6554C0" stroke-width="2" stroke-linecap="round" stroke-linejoin="round"/>
<path d="M41.1589 20C29.8392 20 25 31.7268 25 41.1253C25 50.5239 33.9615 51.4326 45.2812 51.4326C56.601 51.4326 67.8751 48.6898 67.8751 39.2883C67.8751 29.8867 52.4771 20 41.1589 20Z" fill="#FFEBE6"/>
<path d="M34.9531 43.3691L28.0625 44.1229L27.2969 46.3845V53.1691L28.0625 56.1845H35.7188L34.9531 43.3691Z" fill="#FF7452"/>
<path d="M56.3906 43.3691L63.2812 44.1229L64.0469 46.3845V53.1691L63.2812 56.1845H55.625L56.3906 43.3691Z" fill="#FF7452"/>
<path d="M61.7765 43.1266H59.5324V41.0839C59.5324 32.9132 53.8563 26.7852 46.332 26.7852H45.012C37.4877 26.7852 31.8114 32.9132 31.8114 41.0839V43.1266H29.5674C28.762 43.1266 27.9898 43.4567 27.4205 44.0439C26.8512 44.6312 26.5312 45.4279 26.5312 46.2587V53.6123C26.5312 54.443 26.8512 55.2397 27.4205 55.827C27.9898 56.4143 28.762 56.7444 29.5674 56.7444H35.7717V43.1266H33.1315V41.0839C33.1315 33.7099 38.2403 28.147 45.012 28.147H46.332C53.1037 28.147 58.2123 33.7099 58.2123 41.0839V43.1266H55.5723V56.7444H58.2123C57.9153 63.4852 53.2292 64.663 51.5527 64.8746C51.3924 64.112 50.9831 63.4293 50.3932 62.941C49.8029 62.4526 49.0684 62.1881 48.312 62.1918H45.672C44.4931 62.1918 43.4034 62.8407 42.814 63.894C42.2244 64.9472 42.2244 66.2452 42.814 67.2984C43.4033 68.3517 44.4931 69.0007 45.672 69.0007H48.312C49.0805 69.0004 49.8247 68.7231 50.4161 68.2174C51.0078 67.7113 51.4097 67.0085 51.5527 66.2294C53.447 65.9981 59.196 64.643 59.5324 56.7444H61.7766C62.5819 56.7444 63.3542 56.4143 63.9234 55.827C64.4927 55.2397 64.8126 54.4431 64.8126 53.6123V46.2587C64.8126 45.4279 64.4927 44.6312 63.9234 44.0439C63.3542 43.4567 62.5818 43.1266 61.7765 43.1266ZM34.4515 55.3826H29.5674C29.1118 55.3844 28.6742 55.1984 28.3519 54.8662C28.0299 54.5336 27.8495 54.0822 27.8513 53.6123V46.2587C27.8495 45.7887 28.0299 45.3373 28.3519 45.0048C28.6743 44.6726 29.1118 44.4866 29.5674 44.4884H34.4515V55.3826ZM48.312 67.6386H45.672C44.9645 67.6386 44.311 67.2493 43.9571 66.6173C43.6035 65.9854 43.6035 65.2066 43.9571 64.5746C44.311 63.9427 44.9645 63.5533 45.672 63.5533H48.312C49.0194 63.5533 49.673 63.9427 50.0268 64.5746C50.3804 65.2066 50.3804 65.9854 50.0268 66.6173C49.673 67.2493 49.0194 67.6386 48.312 67.6386ZM63.4925 53.6123C63.4944 54.0822 63.3139 54.5336 62.992 54.8661C62.6696 55.1984 62.2321 55.3844 61.7766 55.3826H56.8923V44.4883H61.7766C62.2321 44.4865 62.6697 44.6725 62.992 45.0048C63.3139 45.3373 63.4944 45.7887 63.4925 46.2586V53.6123Z" fill="#172B4D" stroke="white" stroke-width="0.4"/>
</g>
<defs>
<filter id="filter0_d_50_370" x="0.59375" y="0" width="96" height="96" filterUnits="userSpaceOnUse" color-interpolation-filters="sRGB">
<feFlood flood-opacity="0" result="BackgroundImageFix"/>
<feColorMatrix in="SourceAlpha" type="matrix" values="0 0 0 0 0 0 0 0 0 0 0 0 0 0 0 0 0 0 127 0" result="hardAlpha"/>
<feOffset dx="3" dy="3"/>
<feGaussianBlur stdDeviation="2"/>
<feColorMatrix type="matrix" values="0 0 0 0 0.466667 0 0 0 0 0.466667 0 0 0 0 0.466667 0 0 0 0.35 0"/>
<feBlend mode="normal" in2="BackgroundImageFix" result="effect1_dropShadow_50_370"/>
<feBlend mode="normal" in="SourceGraphic" in2="effect1_dropShadow_50_370" result="shape"/>
</filter>
<filter id="filter1_d_50_370" x="6" y="5.69922" width="85" height="85" filterUnits="userSpaceOnUse" color-interpolation-filters="sRGB">
<feFlood flood-opacity="0" result="BackgroundImageFix"/>
<feColorMatrix in="SourceAlpha" type="matrix" values="0 0 0 0 0 0 0 0 0 0 0 0 0 0 0 0 0 0 127 0" result="hardAlpha"/>
<feOffset dx="3" dy="3"/>
<feGaussianBlur stdDeviation="2"/>
<feColorMatrix type="matrix" values="0 0 0 0 0.466667 0 0 0 0 0.466667 0 0 0 0 0.466667 0 0 0 0.35 0"/>
<feBlend mode="normal" in2="BackgroundImageFix" result="effect1_dropShadow_50_370"/>
<feBlend mode="normal" in="SourceGraphic" in2="effect1_dropShadow_50_370" result="shape"/>
</filter>
<linearGradient id="paint0_linear_50_370" x1="89.5937" y1="45" x2="1.59375" y2="45" gradientUnits="userSpaceOnUse">
<stop stop-color="#FF444C"/>
<stop offset="1" stop-color="#D30B1A"/>
</linearGradient>
<clipPath id="clip0_50_370">
<rect width="69" height="64" fill="white" transform="translate(11 6)"/>
</clipPath>
</defs>
</svg>
