<svg width="417" height="275" viewBox="0 0 417 275" fill="none" xmlns="http://www.w3.org/2000/svg">
<path d="M1.91126 1.15849C1.68382 0.655211 1.09145 0.431605 0.588175 0.65905C0.0848985 0.886494 -0.138708 1.47886 0.088737 1.98214L1.91126 1.15849ZM163.776 145.776L164.534 146.429L164.714 146.219L164.761 145.946L163.776 145.776ZM101.463 102.487L100.982 101.61L100.715 101.756L100.575 102.026L101.463 102.487ZM417 268L406.679 262.822L407.356 274.349L417 268ZM0.088737 1.98214C0.357639 2.57715 0.629581 3.17601 0.904521 3.77858L2.72406 2.94836C2.45012 2.34796 2.17917 1.7513 1.91126 1.15849L0.088737 1.98214ZM2.58984 7.4375C3.14787 8.63786 3.71696 9.85127 4.29681 11.0767L6.10465 10.2213C5.52672 8.99992 4.95955 7.79061 4.40345 6.59439L2.58984 7.4375ZM6.03261 14.714C6.60813 15.9099 7.19327 17.1159 7.78778 18.3313L9.58436 17.4524C8.99172 16.2409 8.40844 15.0387 7.83477 13.8467L6.03261 14.714ZM9.5678 21.9413C10.1605 23.134 10.7618 24.3346 11.3713 25.5423L13.1568 24.6411C12.5491 23.4371 11.9497 22.2402 11.3588 21.0512L9.5678 21.9413ZM13.1925 29.1232C13.8021 30.3129 14.4194 31.5086 15.0442 32.7097L16.8185 31.7867C16.1956 30.5893 15.5802 29.3972 14.9724 28.2111L13.1925 29.1232ZM16.9054 36.2615C17.5316 37.4476 18.1647 38.638 18.8045 39.8323L20.5674 38.8877C19.9295 37.6971 19.2984 36.5103 18.6741 35.3278L16.9054 36.2615ZM20.7065 43.3562C21.3468 44.534 21.9935 45.7147 22.6463 46.8978L24.3974 45.9315C23.7466 44.7522 23.102 43.5751 22.4636 42.4009L20.7065 43.3562ZM24.5961 50.4054C25.25 51.5732 25.9097 52.7426 26.575 53.913L28.3137 52.9247C27.6506 51.7581 26.993 50.5924 26.3411 49.4283L24.5961 50.4054ZM28.5753 57.4058C29.2438 58.5644 29.9176 59.7233 30.5964 60.882L32.3221 59.871C31.6455 58.7162 30.9739 57.561 30.3076 56.4063L28.5753 57.4058ZM32.6455 64.3526C33.3299 65.5027 34.0191 66.652 34.713 67.7999L36.4246 66.7653C35.7331 65.6214 35.0463 64.4761 34.3643 63.3299L32.6455 64.3526ZM36.8085 71.2389C37.5104 72.3816 38.2169 73.5223 38.9276 74.6605L40.624 73.6011C39.9159 72.4672 39.2121 71.3306 38.5127 70.1921L36.8085 71.2389ZM41.072 78.0657C41.7919 79.1993 42.516 80.3297 43.244 81.4564L44.9238 80.3709C44.1987 79.2487 43.4774 78.1227 42.7603 76.9935L41.072 78.0657ZM45.4429 84.8293C46.1805 85.9505 46.922 87.0675 47.6671 88.1796L49.3286 87.0663C48.5867 85.959 47.8484 84.8468 47.1138 83.7301L45.4429 84.8293ZM49.927 91.5205C50.6838 92.6288 51.4443 93.7316 52.2081 94.8281L53.8492 93.685C53.089 92.5936 52.332 91.4959 51.5785 90.3926L49.927 91.5205ZM54.5312 98.1293C55.3105 99.2254 56.0931 100.315 56.8789 101.396L58.497 100.221C57.7153 99.1447 56.9366 98.061 56.1611 96.9703L54.5312 98.1293ZM59.2646 104.644C60.0691 105.727 60.8767 106.802 61.6871 107.867L63.279 106.657C62.4733 105.597 61.6702 104.529 60.87 103.451L59.2646 104.644ZM64.1387 111.052C64.9715 112.12 65.8071 113.178 66.6453 114.226L68.2069 112.976C67.3742 111.936 66.5439 110.884 65.7161 109.822L64.1387 111.052ZM69.1683 117.337C70.0328 118.388 70.8998 119.427 71.7691 120.453L73.2953 119.161C72.4324 118.142 71.5716 117.11 70.713 116.066L69.1683 117.337ZM74.3836 123.493C75.2798 124.519 76.1782 125.531 77.0785 126.527L78.5624 125.186C77.6698 124.198 76.7789 123.195 75.8898 122.177L74.3836 123.493ZM79.7969 129.483C80.7288 130.478 81.6626 131.456 82.5979 132.417L84.0308 131.021C83.1048 130.071 82.18 129.102 81.2567 128.116L79.7969 129.483ZM85.4328 135.268C86.4064 136.226 87.3816 137.165 88.3579 138.082L89.7275 136.625C88.7628 135.718 87.7989 134.791 86.8359 133.843L85.4328 135.268ZM91.3225 140.799C92.3457 141.713 93.37 142.602 94.395 143.467L95.6844 141.938C94.6744 141.086 93.6644 140.209 92.6547 139.307L91.3225 140.799ZM97.5033 146.008C98.5857 146.865 99.6686 147.692 100.752 148.489L101.937 146.878C100.873 146.096 99.8093 145.283 98.7446 144.44L97.5033 146.008ZM104.037 150.81C105.183 151.585 106.329 152.325 107.474 153.028L108.52 151.323C107.401 150.637 106.28 149.913 105.158 149.154L104.037 150.81ZM110.987 155.064C112.194 155.723 113.399 156.337 114.603 156.907L115.458 155.098C114.291 154.546 113.119 153.949 111.945 153.309L110.987 155.064ZM118.371 158.539C119.655 159.044 120.937 159.494 122.217 159.888L122.805 157.976C121.576 157.598 120.342 157.165 119.102 156.678L118.371 158.539ZM126.179 160.924C127.54 161.216 128.897 161.44 130.249 161.593L130.474 159.606C129.19 159.461 127.898 159.248 126.598 158.969L126.179 160.924ZM134.356 161.835C135.736 161.84 137.11 161.766 138.476 161.61L138.249 159.623C136.963 159.77 135.667 159.839 134.363 159.835L134.356 161.835ZM142.547 160.893C143.87 160.576 145.183 160.177 146.486 159.694L145.79 157.819C144.562 158.274 143.326 158.65 142.081 158.948L142.547 160.893ZM150.268 158.034C151.473 157.422 152.667 156.733 153.848 155.965L152.759 154.288C151.635 155.018 150.502 155.672 149.362 156.251L150.268 158.034ZM157.147 153.591C158.199 152.757 159.241 151.858 160.272 150.891L158.903 149.432C157.912 150.363 156.912 151.226 155.906 152.023L157.147 153.591ZM163.128 148.006C163.599 147.495 164.067 146.969 164.534 146.429L163.019 145.123C162.567 145.647 162.113 146.156 161.658 146.65L163.128 148.006ZM164.761 145.946C164.878 145.269 164.99 144.58 165.094 143.882L163.116 143.586C163.014 144.269 162.905 144.943 162.791 145.606L164.761 145.946ZM165.626 139.716C165.771 138.345 165.89 136.948 165.977 135.534L163.981 135.41C163.895 136.794 163.779 138.162 163.637 139.506L165.626 139.716ZM166.143 131.333C166.166 129.938 166.156 128.535 166.11 127.131L164.111 127.196C164.156 128.566 164.165 129.936 164.143 131.3L166.143 131.333ZM165.861 122.929C165.738 121.524 165.575 120.125 165.367 118.743L163.389 119.04C163.59 120.379 163.749 121.736 163.868 123.103L165.861 122.929ZM164.593 114.585C164.28 113.194 163.916 111.828 163.494 110.496L161.588 111.1C161.99 112.373 162.341 113.684 162.642 115.024L164.593 114.585ZM162.008 106.504C161.435 105.182 160.792 103.908 160.076 102.694L158.354 103.712C159.025 104.848 159.63 106.048 160.174 107.3L162.008 106.504ZM157.626 99.1595C156.716 98.0396 155.72 96.998 154.631 96.0482L153.317 97.5553C154.314 98.426 155.232 99.3845 156.074 100.421L157.626 99.1595ZM151.126 93.5138C149.908 92.7937 148.603 92.1716 147.208 91.6582L146.517 93.535C147.799 94.007 148.995 94.5773 150.108 95.2356L151.126 93.5138ZM143.069 90.5139C141.718 90.2534 140.298 90.0815 138.808 90.0041L138.704 92.0014C140.107 92.0743 141.434 92.2356 142.691 92.4777L143.069 90.5139ZM134.527 90.0343C133.17 90.1189 131.763 90.2734 130.302 90.5013L130.611 92.4774C132.014 92.2584 133.36 92.1109 134.652 92.0305L134.527 90.0343ZM126.152 91.3163C124.837 91.6247 123.484 91.9878 122.091 92.4076L122.668 94.3226C124.023 93.914 125.337 93.5618 126.609 93.2634L126.152 91.3163ZM118.12 93.7208C116.851 94.1764 115.551 94.6762 114.22 95.2214L114.978 97.0722C116.283 96.5376 117.556 96.0485 118.796 95.6032L118.12 93.7208ZM110.368 96.8868C109.12 97.4544 107.845 98.0597 106.545 98.7039L107.432 100.496C108.714 99.8614 109.968 99.2656 111.196 98.7076L110.368 96.8868ZM102.871 100.59C102.247 100.922 101.617 101.262 100.982 101.61L101.944 103.364C102.571 103.019 103.193 102.684 103.809 102.357L102.871 100.59ZM100.575 102.026C100.262 102.629 99.9664 103.246 99.6871 103.876L101.516 104.686C101.779 104.092 102.057 103.513 102.35 102.947L100.575 102.026ZM98.2307 107.767C97.8268 109.065 97.4843 110.41 97.2042 111.796L99.1646 112.192C99.4317 110.87 99.7575 109.592 100.14 108.362L98.2307 107.767ZM96.5778 115.841C96.4309 117.175 96.3366 118.541 96.2956 119.937L98.2947 119.996C98.3342 118.652 98.425 117.339 98.5658 116.06L96.5778 115.841ZM96.3268 124.071C96.3844 125.405 96.4877 126.761 96.6372 128.139L98.6255 127.923C98.4806 126.587 98.3807 125.274 98.3249 123.985L96.3268 124.071ZM97.1995 132.184C97.4248 133.518 97.6916 134.869 98.0005 136.236L99.9513 135.795C99.6503 134.463 99.3906 133.148 99.1716 131.851L97.1995 132.184ZM98.9897 140.151C99.352 141.45 99.7514 142.762 100.188 144.084L102.087 143.456C101.66 142.163 101.27 140.882 100.916 139.614L98.9897 140.151ZM101.543 147.902C102.02 149.158 102.529 150.423 103.073 151.695L104.912 150.91C104.379 149.662 103.88 148.423 103.413 147.193L101.543 147.902ZM104.74 155.397C105.315 156.61 105.92 157.829 106.555 159.053L108.33 158.131C107.706 156.929 107.112 155.732 106.548 154.541L104.74 155.397ZM108.488 162.619C109.149 163.79 109.838 164.965 110.555 166.143L112.263 165.102C111.557 163.943 110.879 162.788 110.229 161.636L108.488 162.619ZM112.713 169.561C113.453 170.692 114.219 171.825 115.011 172.96L116.651 171.815C115.87 170.697 115.116 169.581 114.388 168.466L112.713 169.561ZM117.361 176.222C118.168 177.31 119.001 178.398 119.858 179.487L121.429 178.249C120.584 177.176 119.763 176.103 118.967 175.03L117.361 176.222ZM122.385 182.608C123.245 183.641 124.127 184.674 125.033 185.706L126.536 184.386C125.642 183.368 124.771 182.349 123.922 181.329L122.385 182.608ZM127.752 188.725C128.655 189.704 129.58 190.681 130.525 191.656L131.961 190.263C131.027 189.3 130.114 188.335 129.221 187.368L127.752 188.725ZM133.425 194.574C134.368 195.501 135.33 196.425 136.312 197.347L137.681 195.889C136.71 194.977 135.759 194.063 134.827 193.147L133.425 194.574ZM139.306 200.095C140.311 200.996 141.333 201.894 142.376 202.789L143.679 201.272C142.647 200.386 141.635 199.498 140.642 198.607L139.306 200.095ZM145.446 205.37C146.488 206.228 147.547 207.081 148.624 207.931L149.863 206.361C148.796 205.52 147.748 204.675 146.717 203.826L145.446 205.37ZM151.834 210.411C152.894 211.214 153.97 212.012 155.063 212.807L156.239 211.189C155.157 210.402 154.091 209.611 153.041 208.817L151.834 210.411ZM158.393 215.179C159.49 215.944 160.603 216.706 161.731 217.464L162.846 215.803C161.727 215.052 160.624 214.297 159.537 213.539L158.393 215.179ZM165.09 219.674C166.225 220.406 167.376 221.134 168.542 221.858L169.596 220.158C168.44 219.441 167.3 218.719 166.175 217.993L165.09 219.674ZM172.005 223.966C173.145 224.646 174.299 225.322 175.467 225.993L176.464 224.259C175.305 223.593 174.161 222.923 173.03 222.248L172.005 223.966ZM179.014 227.993C180.197 228.647 181.394 229.296 182.605 229.94L183.544 228.175C182.343 227.535 181.155 226.891 179.982 226.243L179.014 227.993ZM186.146 231.79C187.339 232.401 188.546 233.008 189.766 233.61L190.651 231.816C189.44 231.219 188.242 230.617 187.058 230.01L186.146 231.79ZM193.465 235.4C194.661 235.968 195.869 236.531 197.09 237.089L197.921 235.27C196.709 234.716 195.51 234.157 194.323 233.593L193.465 235.4ZM200.762 238.736C201.998 239.28 203.247 239.82 204.507 240.353L205.287 238.512C204.035 237.981 202.795 237.446 201.568 236.906L200.762 238.736ZM208.271 241.917C209.495 242.416 210.731 242.909 211.978 243.398L212.708 241.536C211.469 241.051 210.242 240.56 209.026 240.065L208.271 241.917ZM215.752 244.85C217.021 245.328 218.301 245.802 219.593 246.27L220.275 244.39C218.991 243.924 217.719 243.454 216.457 242.978L215.752 244.85ZM223.396 247.621C224.649 248.058 225.911 248.489 227.184 248.915L227.819 247.018C226.554 246.595 225.299 246.166 224.054 245.733L223.396 247.621ZM231.033 250.178C232.327 250.594 233.63 251.005 234.945 251.41L235.534 249.499C234.227 249.096 232.931 248.687 231.645 248.274L231.033 250.178ZM238.796 252.573C240.067 252.95 241.349 253.321 242.64 253.687L243.186 251.763C241.902 251.399 240.628 251.03 239.363 250.656L238.796 252.573ZM246.542 254.771C247.852 255.128 249.172 255.479 250.501 255.824L251.005 253.889C249.682 253.545 248.369 253.196 247.066 252.841L246.542 254.771ZM254.414 256.82C255.699 257.14 256.992 257.454 258.295 257.764L258.758 255.819C257.462 255.51 256.175 255.197 254.897 254.879L254.414 256.82ZM262.229 258.679C263.549 258.979 264.878 259.274 266.216 259.563L266.639 257.608C265.308 257.32 263.985 257.027 262.672 256.729L262.229 258.679ZM270.211 260.407C271.503 260.674 272.803 260.935 274.111 261.192L274.497 259.229C273.195 258.974 271.901 258.714 270.615 258.449L270.211 260.407ZM278.06 261.947C279.385 262.194 280.717 262.437 282.058 262.674L282.406 260.704C281.072 260.468 279.745 260.227 278.427 259.981L278.06 261.947ZM286.105 263.37C287.417 263.589 288.737 263.804 290.064 264.014L290.376 262.039C289.055 261.83 287.741 261.616 286.435 261.397L286.105 263.37ZM294.013 264.621C295.336 264.818 296.668 265.011 298.006 265.199L298.285 263.219C296.951 263.031 295.626 262.839 294.308 262.643L294.013 264.621ZM302.046 265.749C303.4 265.927 304.761 266.101 306.131 266.269L306.375 264.284C305.011 264.117 303.655 263.944 302.307 263.766L302.046 265.749ZM310.073 266.739C311.392 266.89 312.718 267.037 314.05 267.18L314.263 265.191C312.935 265.049 311.615 264.903 310.301 264.752L310.073 266.739ZM318.07 267.593C319.416 267.726 320.77 267.855 322.131 267.979L322.312 265.987C320.956 265.864 319.608 265.736 318.266 265.603L318.07 267.593ZM326.234 268.336C327.545 268.445 328.863 268.55 330.188 268.65L330.339 266.656C329.019 266.556 327.706 266.451 326.4 266.343L326.234 268.336ZM334.176 268.937C335.513 269.029 336.855 269.115 338.204 269.198L338.326 267.202C336.982 267.119 335.644 267.033 334.313 266.942L334.176 268.937ZM342.27 269.432C343.632 269.505 345.001 269.574 346.375 269.638L346.469 267.64C345.099 267.576 343.735 267.507 342.378 267.434L342.27 269.432ZM350.372 269.811C351.695 269.863 353.024 269.912 354.358 269.956L354.424 267.957C353.094 267.913 351.77 267.865 350.452 267.812L350.372 269.811ZM358.38 270.076C359.726 270.111 361.079 270.143 362.437 270.17L362.476 268.17C361.123 268.143 359.775 268.112 358.433 268.077L358.38 270.076ZM366.53 270.237C367.883 270.255 369.241 270.269 370.606 270.278L370.619 268.278C369.259 268.269 367.905 268.255 366.556 268.238L366.53 270.237ZM374.576 270.293C375.905 270.294 377.239 270.291 378.579 270.283L378.568 268.283C377.232 268.291 375.902 268.294 374.577 268.293L374.576 270.293ZM382.615 270.249C383.966 270.233 385.323 270.213 386.685 270.189L386.649 268.19C385.291 268.214 383.939 268.233 382.592 268.249L382.615 270.249ZM390.787 270.105C392.126 270.073 393.471 270.037 394.821 269.998L394.762 267.999C393.416 268.038 392.075 268.074 390.74 268.105L390.787 270.105ZM398.796 269.869C400.126 269.823 401.461 269.772 402.801 269.718L402.72 267.719C401.384 267.774 400.052 267.824 398.726 267.871L398.796 269.869ZM406.837 269.542C408.187 269.479 409.543 269.413 410.903 269.342L410.8 267.345C409.443 267.415 408.091 267.482 406.745 267.544L406.837 269.542Z" fill="black" fill-opacity="0.8"/>
</svg>
