<svg width="430" height="270" viewBox="0 0 430 270" fill="none" xmlns="http://www.w3.org/2000/svg">
<path d="M429.039 1.68984C429.08 1.13902 428.666 0.659877 428.115 0.619643C427.564 0.579409 427.085 0.993315 427.045 1.54413L429.039 1.68984ZM114.401 194.541L113.829 195.361L113.94 195.438L114.066 195.483L114.401 194.541ZM134.28 126.328L134.004 125.367L133.88 125.403L133.77 125.468L134.28 126.328ZM208.06 168.703L208.857 169.307L208.924 169.219L208.969 169.118L208.06 168.703ZM-0.0027361 261.14L8.16875 269.299L11.1484 258.143L-0.0027361 261.14ZM5.62795 263.589C6.94346 263.89 8.25751 264.171 9.56996 264.431L9.95969 262.47C8.66606 262.213 7.37081 261.936 6.07409 261.639L5.62795 263.589ZM13.5525 265.163C14.8813 265.387 16.2083 265.591 17.5334 265.775L17.8088 263.794C16.5028 263.612 15.1948 263.411 13.885 263.19L13.5525 265.163ZM21.5538 266.274C22.8923 266.421 24.2287 266.548 25.5626 266.655L25.7232 264.662C24.4082 264.556 23.091 264.431 21.7716 264.286L21.5538 266.274ZM29.6053 266.922C30.9503 266.992 32.2928 267.042 33.6325 267.073L33.6791 265.074C32.3581 265.043 31.0346 264.994 29.7085 264.925L29.6053 266.922ZM37.6799 267.11C39.027 267.104 40.3711 267.078 41.712 267.035L41.6468 265.036C40.3242 265.079 38.9986 265.104 37.6701 265.111L37.6799 267.11ZM45.7514 266.847C47.096 266.766 48.4372 266.667 49.7749 266.551L49.6011 264.558C48.2812 264.673 46.9579 264.771 45.6314 264.851L45.7514 266.847ZM53.7955 266.146C55.1335 265.994 56.4678 265.824 57.7982 265.637L57.5201 263.656C56.2067 263.841 54.8896 264.009 53.5689 264.159L53.7955 266.146ZM61.7902 265.024C63.1182 264.803 64.4421 264.565 65.7616 264.312L65.384 262.348C64.0806 262.598 62.7731 262.833 61.4616 263.051L61.7902 265.024ZM69.7165 263.501C71.0315 263.215 72.3421 262.913 73.6479 262.595L73.176 260.652C71.8854 260.965 70.5903 261.264 69.291 261.547L69.7165 263.501ZM77.5582 261.597C78.8579 261.25 80.1528 260.887 81.4425 260.51L80.8817 258.591C79.6063 258.963 78.3261 259.322 77.0412 259.665L77.5582 261.597ZM85.3023 259.336C86.5848 258.93 87.862 258.511 89.1337 258.078L88.4895 256.185C87.2312 256.613 85.9677 257.028 84.6991 257.429L85.3023 259.336ZM92.9383 256.739C94.202 256.279 95.4601 255.806 96.7124 255.321L95.9902 253.456C94.7505 253.936 93.5051 254.404 92.2544 254.859L92.9383 256.739ZM100.458 253.827C101.702 253.317 102.94 252.795 104.172 252.261L103.376 250.426C102.156 250.954 100.931 251.472 99.6987 251.977L100.458 253.827ZM107.856 250.623C109.079 250.065 110.296 249.496 111.506 248.917L110.643 247.113C109.444 247.687 108.238 248.25 107.026 248.803L107.856 250.623ZM115.127 247.144C116.329 246.542 117.524 245.93 118.712 245.309L117.786 243.537C116.607 244.153 115.423 244.759 114.231 245.356L115.127 247.144ZM122.268 243.411C123.449 242.767 124.622 242.115 125.788 241.454L124.801 239.714C123.645 240.37 122.482 241.017 121.311 241.654L122.268 243.411ZM129.278 239.438C130.436 238.756 131.587 238.066 132.73 237.368L131.689 235.661C130.555 236.353 129.413 237.038 128.263 237.714L129.278 239.438ZM136.155 235.242C137.291 234.524 138.42 233.798 139.539 233.067L138.445 231.392C137.334 232.119 136.214 232.838 135.086 233.551L136.155 235.242ZM142.898 230.836C144.012 230.084 145.118 229.326 146.214 228.562L145.071 226.921C143.982 227.679 142.885 228.432 141.779 229.178L142.898 230.836ZM149.507 226.233C150.598 225.449 151.68 224.66 152.753 223.866L151.563 222.258C150.498 223.046 149.424 223.83 148.34 224.608L149.507 226.233ZM155.981 221.442C157.049 220.628 158.107 219.811 159.154 218.99L157.921 217.416C156.88 218.231 155.83 219.043 154.769 219.851L155.981 221.442ZM162.318 216.475C163.365 215.631 164.401 214.784 165.426 213.935L164.15 212.395C163.132 213.238 162.103 214.079 161.063 214.918L162.318 216.475ZM168.518 211.338C169.544 210.464 170.559 209.589 171.561 208.713L170.244 207.207C169.249 208.078 168.241 208.947 167.221 209.815L168.518 211.338ZM174.576 206.04C175.582 205.136 176.576 204.232 177.555 203.328L176.199 201.858C175.226 202.756 174.239 203.654 173.239 204.553L174.576 206.04ZM180.486 200.588C181.474 199.653 182.446 198.719 183.403 197.788L182.008 196.355C181.058 197.28 180.092 198.207 179.111 199.136L180.486 200.588ZM186.257 194.973C187.219 194.011 188.165 193.052 189.093 192.098L187.66 190.703C186.738 191.651 185.799 192.603 184.842 193.559L186.257 194.973ZM191.884 189.19C192.812 188.209 193.721 187.234 194.61 186.266L193.138 184.913C192.255 185.873 191.352 186.841 190.431 187.815L191.884 189.19ZM197.333 183.259C198.242 182.239 199.129 181.229 199.992 180.23L198.478 178.923C197.622 179.914 196.743 180.916 195.84 181.928L197.333 183.259ZM202.584 177.179C203.467 176.122 204.322 175.079 205.149 174.052L203.591 172.798C202.772 173.815 201.925 174.848 201.049 175.897L202.584 177.179ZM207.657 170.875C208.065 170.347 208.465 169.824 208.857 169.307L207.262 168.1C206.875 168.612 206.479 169.129 206.075 169.652L207.657 170.875ZM208.969 169.118C209.26 168.482 209.539 167.852 209.808 167.23L207.973 166.436C207.709 167.046 207.435 167.663 207.15 168.288L208.969 169.118ZM211.306 163.566C211.807 162.26 212.259 160.988 212.663 159.749L210.761 159.129C210.369 160.334 209.928 161.574 209.439 162.85L211.306 163.566ZM213.802 155.869C214.154 154.51 214.443 153.195 214.673 151.922L212.704 151.568C212.485 152.788 212.206 154.054 211.866 155.367L213.802 155.869ZM215.21 147.902C215.33 146.485 215.366 145.127 215.322 143.825L213.323 143.892C213.364 145.11 213.331 146.39 213.217 147.734L215.21 147.902ZM214.893 139.745C214.637 138.342 214.273 137.017 213.808 135.769L211.934 136.468C212.356 137.602 212.69 138.812 212.926 140.105L214.893 139.745ZM211.977 132.029C211.238 130.839 210.389 129.742 209.441 128.734L207.984 130.104C208.844 131.018 209.611 132.01 210.277 133.084L211.977 132.029ZM206.336 125.988C205.251 125.187 204.086 124.463 202.854 123.812L201.92 125.581C203.071 126.189 204.149 126.86 205.148 127.597L206.336 125.988ZM199.127 122.134C197.884 121.66 196.591 121.242 195.254 120.876L194.726 122.805C196.006 123.155 197.237 123.554 198.414 124.003L199.127 122.134ZM191.305 119.966C190.009 119.719 188.681 119.512 187.326 119.343L187.079 121.328C188.394 121.492 189.68 121.692 190.931 121.931L191.305 119.966ZM183.324 118.956C182.006 118.863 180.668 118.802 179.314 118.768L179.265 120.768C180.59 120.8 181.898 120.861 183.184 120.951L183.324 118.956ZM175.305 118.751C173.98 118.771 172.644 118.816 171.302 118.883L171.402 120.88C172.722 120.814 174.034 120.771 175.335 120.751L175.305 118.751ZM167.309 119.145C165.984 119.252 164.656 119.38 163.329 119.525L163.546 121.513C164.856 121.37 166.165 121.244 167.471 121.138L167.309 119.145ZM159.362 120.011C158.04 120.191 156.721 120.386 155.411 120.596L155.727 122.571C157.022 122.363 158.325 122.17 159.631 121.993L159.362 120.011ZM151.475 121.272C150.156 121.514 148.849 121.77 147.556 122.036L147.96 123.995C149.239 123.731 150.532 123.479 151.836 123.239L151.475 121.272ZM143.655 122.884C142.338 123.185 141.043 123.496 139.772 123.816L140.259 125.756C141.516 125.44 142.798 125.132 144.1 124.834L143.655 122.884ZM135.908 124.832C135.265 125.009 134.63 125.187 134.004 125.367L134.556 127.289C135.175 127.112 135.803 126.935 136.439 126.76L135.908 124.832ZM133.77 125.468C133.176 125.821 132.591 126.174 132.015 126.526L133.059 128.232C133.627 127.884 134.205 127.536 134.791 127.188L133.77 125.468ZM128.634 128.657C127.483 129.404 126.371 130.151 125.298 130.895L126.438 132.539C127.494 131.806 128.589 131.071 129.724 130.334L128.634 128.657ZM122.016 133.255C120.908 134.082 119.845 134.907 118.828 135.729L120.085 137.285C121.082 136.479 122.124 135.67 123.212 134.858L122.016 133.255ZM115.745 138.334C114.704 139.254 113.718 140.171 112.786 141.084L114.185 142.513C115.092 141.625 116.053 140.731 117.07 139.832L115.745 138.334ZM109.976 143.997C109.036 145.033 108.163 146.062 107.354 147.086L108.923 148.326C109.703 147.34 110.546 146.345 111.457 145.341L109.976 143.997ZM104.967 150.36C104.178 151.541 103.473 152.712 102.847 153.873L104.607 154.822C105.202 153.72 105.874 152.602 106.63 151.471L104.967 150.36ZM101.097 157.574C100.563 158.892 100.128 160.193 99.7862 161.474L101.719 161.99C102.038 160.79 102.446 159.569 102.951 158.327L101.097 157.574ZM98.9997 165.516C98.8271 166.925 98.7646 168.305 98.8004 169.653L100.8 169.6C100.766 168.351 100.824 167.069 100.985 165.759L98.9997 165.516ZM99.221 173.77C99.4673 175.149 99.8135 176.485 100.244 177.775L102.141 177.142C101.74 175.94 101.418 174.698 101.19 173.418L99.221 173.77ZM101.814 181.588C102.427 182.833 103.115 184.025 103.859 185.158L105.531 184.059C104.829 182.992 104.183 181.872 103.609 180.705L101.814 181.588ZM106.306 188.453C107.198 189.523 108.135 190.526 109.096 191.455L110.487 190.018C109.575 189.136 108.687 188.186 107.843 187.172L106.306 188.453ZM112.183 194.145C112.732 194.574 113.282 194.98 113.829 195.361L114.973 193.721C114.455 193.36 113.935 192.976 113.415 192.57L112.183 194.145ZM114.066 195.483C114.715 195.713 115.362 195.94 116.01 196.163L116.661 194.272C116.02 194.051 115.378 193.827 114.736 193.599L114.066 195.483ZM119.891 197.458C121.184 197.876 122.475 198.279 123.765 198.669L124.343 196.754C123.065 196.368 121.787 195.969 120.506 195.555L119.891 197.458ZM127.629 199.795C128.937 200.163 130.243 200.516 131.547 200.856L132.05 198.92C130.759 198.584 129.466 198.234 128.171 197.87L127.629 199.795ZM135.512 201.845C136.832 202.16 138.15 202.462 139.466 202.749L139.892 200.795C138.589 200.51 137.283 200.212 135.976 199.9L135.512 201.845ZM143.411 203.567C144.746 203.831 146.079 204.08 147.41 204.314L147.758 202.345C146.439 202.112 145.119 201.866 143.797 201.605L143.411 203.567ZM151.434 204.981C152.773 205.189 154.11 205.383 155.445 205.562L155.711 203.58C154.39 203.402 153.066 203.211 151.741 203.005L151.434 204.981ZM159.443 206.058C160.799 206.212 162.152 206.352 163.504 206.478L163.689 204.486C162.351 204.362 161.011 204.224 159.669 204.071L159.443 206.058ZM167.559 206.812C168.909 206.909 170.256 206.992 171.6 207.062L171.703 205.064C170.372 204.996 169.039 204.914 167.703 204.817L167.559 206.812ZM175.64 207.228C177.002 207.27 178.362 207.298 179.718 207.312L179.739 205.312C178.396 205.298 177.05 205.271 175.702 205.229L175.64 207.228ZM183.78 207.312C185.131 207.298 186.479 207.271 187.825 207.229L187.764 205.23C186.432 205.271 185.097 205.298 183.76 205.312L183.78 207.312ZM191.882 207.064C193.239 206.994 194.593 206.911 195.944 206.815L195.801 204.82C194.464 204.915 193.124 204.998 191.78 205.066L191.882 207.064ZM199.986 206.485C201.331 206.362 202.672 206.225 204.009 206.076L203.787 204.088C202.463 204.236 201.135 204.372 199.804 204.494L199.986 206.485ZM208.051 205.583C209.395 205.406 210.736 205.215 212.073 205.012L211.772 203.035C210.448 203.236 209.12 203.425 207.79 203.6L208.051 205.583ZM216.073 204.364C217.407 204.134 218.737 203.892 220.064 203.637L219.687 201.673C218.373 201.925 217.055 202.165 215.734 202.393L216.073 204.364ZM224.048 202.833C225.372 202.552 226.692 202.259 228.009 201.954L227.557 200.006C226.253 200.308 224.945 200.598 223.633 200.876L224.048 202.833ZM231.946 201.003C233.26 200.672 234.571 200.329 235.877 199.975L235.354 198.045C234.059 198.396 232.76 198.735 231.458 199.063L231.946 201.003ZM239.785 198.877C241.083 198.499 242.378 198.11 243.668 197.709L243.075 195.799C241.796 196.196 240.513 196.582 239.226 196.956L239.785 198.877ZM247.53 196.472C248.816 196.048 250.098 195.612 251.374 195.166L250.714 193.278C249.448 193.72 248.178 194.152 246.903 194.573L247.53 196.472ZM255.192 193.794C256.46 193.326 257.723 192.847 258.981 192.358L258.257 190.494C257.009 190.979 255.756 191.454 254.499 191.918L255.192 193.794ZM262.753 190.856C264.005 190.345 265.253 189.823 266.496 189.292L265.71 187.453C264.477 187.98 263.24 188.497 261.997 189.004L262.753 190.856ZM270.211 187.668C271.445 187.116 272.675 186.555 273.9 185.984L273.054 184.171C271.839 184.738 270.619 185.295 269.395 185.842L270.211 187.668ZM277.564 184.239C278.78 183.649 279.991 183.048 281.197 182.439L280.295 180.654C279.098 181.259 277.896 181.854 276.69 182.44L277.564 184.239ZM284.798 180.585C285.997 179.956 287.19 179.318 288.378 178.671L287.422 176.915C286.243 177.556 285.059 178.189 283.869 178.814L284.798 180.585ZM291.926 176.706C293.103 176.043 294.274 175.371 295.44 174.691L294.433 172.963C293.275 173.638 292.112 174.305 290.944 174.964L291.926 176.706ZM298.928 172.622C300.087 171.923 301.24 171.217 302.387 170.502L301.33 168.804C300.191 169.514 299.046 170.216 297.895 170.909L298.928 172.622ZM305.812 168.335C306.948 167.605 308.078 166.868 309.203 166.123L308.098 164.456C306.981 165.196 305.859 165.928 304.731 166.653L305.812 168.335ZM312.572 163.857C313.689 163.095 314.8 162.325 315.905 161.549L314.755 159.912C313.658 160.684 312.554 161.448 311.445 162.205L312.572 163.857ZM319.201 159.199C320.298 158.406 321.388 157.607 322.472 156.801L321.279 155.196C320.202 155.997 319.118 156.791 318.029 157.579L319.201 159.199ZM325.712 154.358C326.786 153.538 327.853 152.711 328.913 151.878L327.678 150.305C326.624 151.133 325.564 151.954 324.498 152.769L325.712 154.358ZM332.08 149.359C333.136 148.507 334.185 147.651 335.227 146.788L333.951 145.247C332.916 146.104 331.874 146.956 330.825 147.802L332.08 149.359ZM338.332 144.185C339.36 143.312 340.381 142.433 341.395 141.55L340.081 140.042C339.073 140.92 338.059 141.793 337.037 142.66L338.332 144.185ZM344.442 138.861C345.452 137.959 346.455 137.051 347.45 136.139L346.099 134.665C345.11 135.571 344.113 136.473 343.109 137.37L344.442 138.861ZM350.414 133.39C351.4 132.463 352.38 131.532 353.351 130.597L351.964 129.156C350.998 130.086 350.025 131.011 349.045 131.932L350.414 133.39ZM356.261 127.76C357.223 126.811 358.177 125.858 359.123 124.901L357.701 123.495C356.761 124.446 355.812 125.393 354.856 126.337L356.261 127.76ZM361.946 122.011C362.891 121.032 363.827 120.05 364.755 119.064L363.299 117.693C362.377 118.673 361.446 119.649 360.507 120.623L361.946 122.011ZM367.514 116.097C368.425 115.106 369.327 114.111 370.221 113.114L368.732 111.779C367.843 112.77 366.947 113.759 366.041 114.744L367.514 116.097ZM372.923 110.062C373.816 109.04 374.7 108.017 375.574 106.991L374.052 105.693C373.183 106.713 372.305 107.73 371.418 108.745L372.923 110.062ZM378.17 103.908C379.04 102.862 379.901 101.813 380.751 100.763L379.198 99.504C378.352 100.547 377.497 101.589 376.632 102.63L378.17 103.908ZM383.289 97.5905C384.125 96.5318 384.951 95.4719 385.767 94.4111L384.181 93.1919C383.371 94.2459 382.55 95.2991 381.719 96.3512L383.289 97.5905ZM388.223 91.174C389.039 90.0835 389.845 88.9925 390.639 87.9014L389.023 86.724C388.233 87.8081 387.433 88.892 386.622 89.9755L388.223 91.174ZM392.99 84.6278C393.777 83.517 394.552 82.4064 395.315 81.2964L393.667 80.163C392.909 81.2655 392.139 82.3686 391.358 83.472L392.99 84.6278ZM397.599 77.9259C398.348 76.8032 399.086 75.6816 399.811 74.5613L398.132 73.4746C397.412 74.5869 396.68 75.7007 395.936 76.8156L397.599 77.9259ZM401.997 71.1289C402.722 69.9718 403.434 68.8166 404.132 67.6638L402.422 66.6274C401.729 67.7716 401.022 68.9183 400.302 70.0669L401.997 71.1289ZM406.188 64.2125C406.881 63.0277 407.56 61.8458 408.224 60.6672L406.482 59.6851C405.823 60.8542 405.15 62.0268 404.462 63.2024L406.188 64.2125ZM410.19 57.1127C410.831 55.9287 411.458 54.7486 412.069 53.5729L410.295 52.6501C409.689 53.8155 409.068 54.9856 408.431 56.1597L410.19 57.1127ZM413.934 49.9058C414.539 48.6886 415.127 47.4769 415.698 46.271L413.891 45.415C413.325 46.6093 412.743 47.8097 412.143 49.0157L413.934 49.9058ZM417.398 42.5881C417.962 41.3318 418.508 40.0828 419.033 38.8417L417.192 38.0614C416.672 39.2891 416.132 40.525 415.574 41.7685L417.398 42.5881ZM420.553 35.1424C421.068 33.8472 421.561 32.5614 422.032 31.2859L420.156 30.5932C419.691 31.8528 419.204 33.1231 418.695 34.4034L420.553 35.1424ZM423.381 27.4829C423.826 26.1737 424.246 24.8763 424.642 23.5918L422.731 23.003C422.341 24.2687 421.926 25.5477 421.487 26.8394L423.381 27.4829ZM425.78 19.6858C426.144 18.3567 426.48 17.0428 426.788 15.7452L424.841 15.2839C424.539 16.5582 424.209 17.8496 423.851 19.1573L425.78 19.6858ZM427.655 11.7455C427.922 10.3889 428.155 9.05217 428.354 7.73663L426.376 7.43743C426.182 8.72294 425.954 10.0309 425.693 11.3602L427.655 11.7455ZM428.868 3.66868C428.934 3.00287 428.992 2.34318 429.039 1.68984L427.045 1.54413C426.998 2.17907 426.943 2.82079 426.878 3.46914L428.868 3.66868Z" fill="black" fill-opacity="0.8"/>
</svg>
