<svg width="416" height="320" viewBox="0 0 416 320" fill="none" xmlns="http://www.w3.org/2000/svg">
<path d="M1.9476 1.31336C1.77117 0.790011 1.20389 0.508781 0.680544 0.685211C0.157199 0.861642 -0.124032 1.42892 0.0523987 1.95227L1.9476 1.31336ZM182.965 198.327L183.654 199.052L183.855 198.861L183.929 198.595L182.965 198.327ZM111.85 137.639L111.459 136.719L111.179 136.838L111.013 137.093L111.85 137.639ZM415.809 314.035L406.048 307.867L405.587 319.405L415.809 314.035ZM0.0523987 1.95227C0.261998 2.574 0.473765 3.19913 0.687681 3.82755L2.58099 3.18305C2.36771 2.55649 2.15657 1.93322 1.9476 1.31336L0.0523987 1.95227ZM1.99684 7.63687C2.43861 8.91035 2.88872 10.1961 3.34704 11.4934L5.23282 10.8272C4.77575 9.53343 4.32689 8.25126 3.88637 6.98139L1.99684 7.63687ZM4.69004 15.2623C5.1452 16.5288 5.6078 17.8054 6.07773 19.0913L7.95622 18.4048C7.48752 17.1222 7.02614 15.849 6.57219 14.5859L4.69004 15.2623ZM7.47022 22.8712C7.93533 24.1237 8.4071 25.3843 8.88541 26.6524L10.7567 25.9466C10.2796 24.6817 9.80905 23.4243 9.34513 22.1749L7.47022 22.8712ZM10.3339 30.4632C10.8091 31.7038 11.2903 32.951 11.7775 34.2041L13.6416 33.4794C13.1556 32.2294 12.6756 30.9854 12.2016 29.7478L10.3339 30.4632ZM13.2567 37.981C13.7493 39.2296 14.2475 40.4836 14.7514 41.7424L16.6082 40.9992C16.1056 39.7434 15.6085 38.4926 15.1171 37.2471L13.2567 37.981ZM16.2577 45.4786C16.7652 46.7285 17.278 47.9825 17.7961 49.2404L19.6454 48.4787C19.1286 47.224 18.617 45.973 18.1108 44.7262L16.2577 45.4786ZM19.3407 52.9642C19.8578 54.2021 20.3799 55.4432 20.9068 56.687L22.7484 55.9068C22.2228 54.6661 21.702 53.4281 21.1862 52.1933L19.3407 52.9642ZM22.5022 60.4262C23.0304 61.6555 23.5632 62.887 24.1006 64.1204L25.9341 63.3214C25.3981 62.0912 24.8666 60.8628 24.3397 59.6366L22.5022 60.4262ZM25.7256 67.8234C26.2709 69.0573 26.8206 70.2926 27.3748 71.5288L29.1998 70.7107C28.6471 69.4778 28.0988 68.2457 27.5549 67.015L25.7256 67.8234ZM29.0339 75.204C29.5912 76.4297 30.1527 77.6559 30.7184 78.8823L32.5345 78.0446C31.9704 76.8216 31.4104 75.5986 30.8546 74.3762L29.0339 75.204ZM32.4246 82.5545C32.9947 83.7727 33.5688 84.9906 34.1469 86.2078L35.9535 85.3498C35.3771 84.136 34.8046 82.9215 34.236 81.7067L32.4246 82.5545ZM35.8929 89.8569C36.4783 91.0713 37.0676 92.2847 37.6606 93.4966L39.4571 92.6175C38.8658 91.4092 38.2782 90.1994 37.6945 88.9884L35.8929 89.8569ZM39.449 97.1233C40.0489 98.3304 40.6525 99.5356 41.2596 100.739L43.0451 99.8374C42.4398 98.6382 41.8381 97.4367 41.2401 96.2332L39.449 97.1233ZM43.0945 104.345C43.7104 105.546 44.33 106.745 44.953 107.94L46.7266 107.016C46.1056 105.824 45.4881 104.63 44.8741 103.432L43.0945 104.345ZM46.8325 111.516C47.4653 112.71 48.1016 113.901 48.7412 115.088L50.5018 114.139C49.8644 112.956 49.2304 111.77 48.5997 110.58L46.8325 111.516ZM50.6751 118.645C51.3231 119.826 51.9744 121.003 52.6289 122.175L54.3752 121.2C53.7231 120.033 53.0743 118.86 52.4287 117.683L50.6751 118.645ZM54.6201 125.709C55.2888 126.885 55.9607 128.055 56.6358 129.22L58.3661 128.217C57.6938 127.057 57.0247 125.892 56.3587 124.72L54.6201 125.709ZM58.6704 132.697C59.3622 133.867 60.0572 135.032 60.7554 136.189L62.468 135.156C61.773 134.004 61.081 132.845 60.3922 131.679L58.6704 132.697ZM62.8603 139.643C63.5677 140.792 64.2781 141.933 64.9914 143.067L66.6842 142.002C65.9743 140.874 65.2673 139.738 64.5633 138.595L62.8603 139.643ZM67.1769 146.501C67.9084 147.637 68.6429 148.765 69.3802 149.884L71.0502 148.784C70.3169 147.671 69.5863 146.549 68.8586 145.418L67.1769 146.501ZM71.6269 153.252C72.389 154.381 73.154 155.499 73.9219 156.607L75.5658 155.468C74.8026 154.367 74.0421 153.255 73.2844 152.133L71.6269 153.252ZM76.2341 159.9C77.0264 161.013 77.8217 162.115 78.6197 163.205L80.2333 162.023C79.4407 160.941 78.6508 159.846 77.8635 158.74L76.2341 159.9ZM81.0363 166.456C81.851 167.536 82.6686 168.603 83.4888 169.656L85.0669 168.428C84.253 167.383 83.4417 166.324 82.6329 165.252L81.0363 166.456ZM86.0244 172.859C86.8723 173.912 87.7231 174.95 88.5764 175.973L90.112 174.692C89.2663 173.678 88.4229 172.649 87.582 171.605L86.0244 172.859ZM91.2201 179.082C92.1132 180.112 93.009 181.124 93.9074 182.119L95.3915 180.778C94.5024 179.794 93.6156 178.792 92.7312 177.771L91.2201 179.082ZM96.6519 185.091C97.596 186.091 98.5429 187.071 99.4924 188.029L100.913 186.621C99.9753 185.675 99.0396 184.707 98.1062 183.718L96.6519 185.091ZM102.356 190.846C103.357 191.805 104.361 192.741 105.368 193.651L106.709 192.167C105.717 191.27 104.727 190.348 103.739 189.402L102.356 190.846ZM108.397 196.305C109.455 197.202 110.516 198.072 111.579 198.911L112.819 197.342C111.774 196.517 110.732 195.663 109.691 194.78L108.397 196.305ZM114.799 201.356C115.921 202.174 117.046 202.958 118.173 203.707L119.28 202.041C118.178 201.309 117.077 200.541 115.977 199.74L114.799 201.356ZM121.6 205.869C122.796 206.583 123.994 207.257 125.195 207.888L126.126 206.118C124.958 205.504 123.792 204.848 122.626 204.152L121.6 205.869ZM128.837 209.669C130.111 210.245 131.388 210.772 132.667 211.248L133.364 209.374C132.13 208.914 130.895 208.405 129.661 207.847L128.837 209.669ZM136.544 212.532C137.88 212.919 139.218 213.25 140.558 213.52L140.954 211.56C139.67 211.3 138.386 210.984 137.101 210.611L136.544 212.532ZM144.623 214.157C145.996 214.309 147.369 214.397 148.743 214.418L148.774 212.419C147.465 212.398 146.155 212.315 144.843 212.169L144.623 214.157ZM152.865 214.28C154.235 214.167 155.603 213.985 156.971 213.732L156.608 211.766C155.306 212.006 154.003 212.179 152.7 212.287L152.865 214.28ZM160.974 212.79C162.279 212.416 163.582 211.975 164.882 211.467L164.155 209.604C162.911 210.09 161.667 210.511 160.422 210.868L160.974 212.79ZM168.653 209.8C169.854 209.206 171.052 208.553 172.246 207.84L171.221 206.123C170.07 206.81 168.919 207.437 167.766 208.007L168.653 209.8ZM175.711 205.594C176.799 204.832 177.884 204.019 178.966 203.153L177.717 201.592C176.667 202.432 175.616 203.219 174.564 203.955L175.711 205.594ZM182.096 200.494C182.616 200.026 183.135 199.545 183.654 199.052L182.276 197.603C181.77 198.084 181.264 198.552 180.758 199.007L182.096 200.494ZM183.929 198.595C184.101 197.972 184.27 197.341 184.436 196.702L182.499 196.201C182.337 196.828 182.171 197.449 182.001 198.06L183.929 198.595ZM185.362 192.861C185.645 191.592 185.912 190.301 186.16 188.991L184.195 188.62C183.951 189.907 183.689 191.177 183.41 192.424L185.362 192.861ZM186.829 185.098C187.029 183.805 187.208 182.499 187.365 181.185L185.379 180.948C185.225 182.239 185.049 183.522 184.852 184.793L186.829 185.098ZM187.76 177.253C187.867 175.941 187.95 174.624 188.005 173.307L186.007 173.223C185.953 174.513 185.872 175.803 185.767 177.09L187.76 177.253ZM188.086 169.35C188.084 168.024 188.051 166.702 187.986 165.388L185.989 165.488C186.052 166.768 186.084 168.058 186.086 169.353L188.086 169.35ZM187.684 161.43C187.546 160.102 187.37 158.787 187.154 157.489L185.181 157.818C185.39 159.073 185.561 160.347 185.695 161.637L187.684 161.43ZM186.364 153.583C186.05 152.275 185.69 150.992 185.279 149.738L183.378 150.361C183.771 151.56 184.117 152.791 184.419 154.049L186.364 153.583ZM183.858 145.992C183.319 144.755 182.721 143.555 182.061 142.399L180.324 143.39C180.947 144.48 181.512 145.615 182.024 146.791L183.858 145.992ZM179.856 139.024C179.05 137.944 178.175 136.917 177.228 135.95L175.799 137.35C176.681 138.25 177.498 139.209 178.253 140.22L179.856 139.024ZM174.2 133.265C173.146 132.456 172.022 131.709 170.826 131.033L169.841 132.773C170.956 133.404 172.002 134.099 172.982 134.851L174.2 133.265ZM167.184 129.283C165.971 128.795 164.698 128.369 163.362 128.009L162.842 129.94C164.103 130.28 165.301 130.681 166.437 131.138L167.184 129.283ZM159.439 127.174C158.165 126.97 156.843 126.819 155.469 126.725L155.332 128.72C156.648 128.811 157.911 128.954 159.122 129.148L159.439 127.174ZM151.487 126.608C150.2 126.618 148.872 126.673 147.504 126.775L147.652 128.77C148.978 128.671 150.262 128.618 151.503 128.608L151.487 126.608ZM143.516 127.189C142.259 127.355 140.969 127.557 139.648 127.797L140.004 129.764C141.296 129.53 142.554 129.333 143.778 129.172L143.516 127.189ZM135.782 128.584C134.513 128.87 133.216 129.189 131.891 129.541L132.404 131.474C133.706 131.128 134.978 130.816 136.222 130.535L135.782 128.584ZM128.153 130.599C126.916 130.971 125.656 131.37 124.372 131.797L125.004 133.694C126.27 133.273 127.511 132.88 128.728 132.515L128.153 130.599ZM120.665 133.085C119.456 133.522 118.227 133.984 116.978 134.47L117.703 136.334C118.938 135.853 120.152 135.398 121.346 134.966L120.665 133.085ZM113.327 135.935C112.709 136.19 112.086 136.452 111.459 136.719L112.242 138.559C112.863 138.295 113.48 138.036 114.091 137.783L113.327 135.935ZM111.013 137.093C110.647 137.653 110.287 138.219 109.932 138.791L111.632 139.845C111.979 139.286 112.331 138.733 112.688 138.185L111.013 137.093ZM107.87 142.295C107.217 143.465 106.587 144.657 105.983 145.87L107.773 146.762C108.364 145.578 108.979 144.413 109.616 143.269L107.87 142.295ZM104.26 149.542C103.717 150.776 103.2 152.028 102.713 153.297L104.58 154.014C105.056 152.775 105.56 151.553 106.091 150.349L104.26 149.542ZM101.355 157.112C100.934 158.393 100.543 159.689 100.185 161L102.114 161.528C102.464 160.25 102.844 158.985 103.255 157.736L101.355 157.112ZM99.2161 164.942C98.9289 166.257 98.6748 167.585 98.4558 168.925L100.43 169.248C100.643 167.943 100.89 166.65 101.17 165.369L99.2161 164.942ZM97.9083 172.957C97.7639 174.294 97.6551 175.641 97.584 176.998L99.5813 177.102C99.6504 175.783 99.7562 174.473 99.8968 173.172L97.9083 172.957ZM97.4852 181.059C97.4904 182.407 97.5337 183.763 97.6168 185.126L99.6131 185.004C99.5323 183.68 99.4902 182.362 99.4852 181.051L97.4852 181.059ZM97.9786 189.16C98.1377 190.502 98.3363 191.848 98.576 193.199L100.545 192.849C100.312 191.537 100.119 190.228 99.9647 188.925L97.9786 189.16ZM99.3948 197.156C99.7045 198.465 100.054 199.776 100.444 201.09L102.361 200.521C101.982 199.243 101.642 197.968 101.341 196.696L99.3948 197.156ZM101.705 204.941C102.157 206.201 102.647 207.462 103.177 208.723L105.021 207.949C104.504 206.72 104.027 205.493 103.588 204.267L101.705 204.941ZM104.848 212.425C105.428 213.624 106.045 214.823 106.7 216.022L108.455 215.062C107.816 213.893 107.214 212.724 106.649 211.554L104.848 212.425ZM108.736 219.537C109.429 220.671 110.158 221.804 110.924 222.935L112.58 221.814C111.832 220.708 111.119 219.601 110.442 218.494L108.736 219.537ZM113.268 226.239C114.063 227.308 114.891 228.375 115.753 229.439L117.307 228.18C116.462 227.137 115.651 226.092 114.874 225.046L113.268 226.239ZM118.349 232.516C119.235 233.526 120.153 234.533 121.104 235.536L122.556 234.161C121.622 233.175 120.721 232.187 119.852 231.197L118.349 232.516ZM123.894 238.38C124.853 239.324 125.842 240.266 126.862 241.203L128.216 239.731C127.213 238.809 126.24 237.883 125.297 236.954L123.894 238.38ZM129.838 243.856C130.842 244.724 131.873 245.588 132.931 246.448L134.193 244.896C133.15 244.048 132.135 243.197 131.146 242.343L129.838 243.856ZM136.14 248.981C137.174 249.774 138.231 250.563 139.313 251.349L140.488 249.731C139.42 248.955 138.377 248.176 137.357 247.394L136.14 248.981ZM142.632 253.695C143.729 254.45 144.849 255.201 145.992 255.949L147.087 254.274C145.956 253.536 144.849 252.793 143.766 252.047L142.632 253.695ZM149.339 258.084C150.477 258.792 151.636 259.496 152.818 260.197L153.838 258.477C152.668 257.783 151.521 257.086 150.396 256.386L149.339 258.084ZM156.316 262.224C157.452 262.866 158.606 263.506 159.781 264.141L160.733 262.382C159.569 261.753 158.426 261.119 157.301 260.483L156.316 262.224ZM163.362 266.038C164.559 266.658 165.776 267.274 167.011 267.887L167.9 266.095C166.674 265.488 165.469 264.876 164.282 264.262L163.362 266.038ZM170.547 269.605C171.743 270.174 172.956 270.74 174.187 271.302L175.018 269.483C173.797 268.925 172.593 268.363 171.407 267.799L170.547 269.605ZM177.933 272.978C179.135 273.506 180.353 274.03 181.588 274.55L182.365 272.707C181.139 272.19 179.93 271.67 178.736 271.147L177.933 272.978ZM185.251 276.066C186.488 276.568 187.74 277.067 189.009 277.563L189.737 275.7C188.476 275.208 187.232 274.712 186.004 274.213L185.251 276.066ZM192.86 279.039C194.073 279.495 195.299 279.948 196.539 280.398L197.221 278.518C195.988 278.071 194.769 277.62 193.564 277.167L192.86 279.039ZM200.283 281.732C201.545 282.173 202.82 282.612 204.11 283.047L204.75 281.152C203.467 280.719 202.198 280.283 200.943 279.844L200.283 281.732ZM208.022 284.343C209.258 284.745 210.506 285.144 211.766 285.541L212.366 283.633C211.112 283.238 209.87 282.841 208.641 282.441L208.022 284.343ZM215.552 286.71C216.827 287.097 218.113 287.482 219.413 287.863L219.976 285.944C218.683 285.564 217.402 285.182 216.134 284.797L215.552 286.71ZM223.349 288.997C224.625 289.359 225.914 289.718 227.214 290.074L227.742 288.145C226.447 287.79 225.165 287.433 223.894 287.073L223.349 288.997ZM231.012 291.097C232.29 291.435 233.578 291.771 234.878 292.104L235.374 290.166C234.08 289.835 232.796 289.5 231.524 289.164L231.012 291.097ZM238.81 293.094C240.132 293.421 241.466 293.746 242.811 294.068L243.276 292.123C241.936 291.802 240.608 291.479 239.291 291.153L238.81 293.094ZM246.646 294.97C247.919 295.265 249.202 295.557 250.495 295.847L250.932 293.896C249.644 293.607 248.365 293.316 247.097 293.022L246.646 294.97ZM254.404 296.709C255.717 296.993 257.04 297.275 258.373 297.555L258.783 295.597C257.454 295.319 256.136 295.038 254.827 294.754L254.404 296.709ZM262.403 298.385C263.684 298.645 264.974 298.902 266.273 299.157L266.658 297.194C265.363 296.94 264.077 296.684 262.8 296.425L262.403 298.385ZM270.144 299.903C271.443 300.15 272.751 300.394 274.068 300.636L274.429 298.669C273.116 298.428 271.812 298.184 270.516 297.938L270.144 299.903ZM278.046 301.354C279.381 301.591 280.725 301.825 282.079 302.057L282.417 300.086C281.067 299.855 279.727 299.621 278.396 299.385L278.046 301.354ZM286.056 302.728C287.338 302.941 288.628 303.151 289.925 303.359L290.242 301.384C288.948 301.177 287.661 300.967 286.383 300.755L286.056 302.728ZM293.843 303.977C295.157 304.18 296.48 304.382 297.81 304.581L298.106 302.603C296.779 302.404 295.46 302.203 294.15 302L293.843 303.977ZM301.825 305.172C303.172 305.367 304.527 305.559 305.89 305.749L306.166 303.769C304.807 303.579 303.455 303.387 302.112 303.193L301.825 305.172ZM309.834 306.29C311.125 306.464 312.424 306.636 313.729 306.806L313.987 304.823C312.685 304.653 311.389 304.482 310.101 304.308L309.834 306.29ZM317.668 307.309C318.989 307.475 320.316 307.639 321.651 307.801L321.892 305.815C320.559 305.654 319.235 305.49 317.917 305.325L317.668 307.309ZM325.678 308.279C327.028 308.437 328.385 308.592 329.75 308.745L329.973 306.758C328.611 306.605 327.257 306.45 325.91 306.293L325.678 308.279ZM333.741 309.185C335.034 309.324 336.334 309.462 337.641 309.598L337.848 307.609C336.544 307.473 335.246 307.336 333.956 307.196L333.741 309.185ZM341.58 310.001C342.9 310.133 344.226 310.263 345.559 310.391L345.751 308.401C344.42 308.272 343.097 308.142 341.779 308.011L341.58 310.001ZM349.578 310.77C350.925 310.895 352.278 311.017 353.638 311.138L353.814 309.146C352.457 309.025 351.106 308.903 349.762 308.779L349.578 310.77ZM357.737 311.493C359.034 311.603 360.336 311.712 361.645 311.818L361.807 309.825C360.501 309.719 359.2 309.61 357.906 309.501L357.737 311.493ZM365.569 312.131C366.883 312.233 368.203 312.334 369.529 312.433L369.678 310.438C368.354 310.339 367.036 310.239 365.724 310.137L365.569 312.131ZM373.525 312.724C374.863 312.819 376.207 312.912 377.557 313.004L377.693 311.008C376.345 310.917 375.003 310.824 373.667 310.729L373.525 312.724ZM381.626 313.273C382.988 313.361 384.357 313.447 385.731 313.531L385.854 311.535C384.481 311.451 383.115 311.365 381.755 311.277L381.626 313.273ZM389.645 313.765C390.949 313.841 392.258 313.916 393.573 313.988L393.684 311.991C392.371 311.919 391.063 311.845 389.761 311.769L389.645 313.765ZM397.535 314.201C398.861 314.271 400.193 314.338 401.53 314.404L401.628 312.407C400.293 312.341 398.964 312.273 397.64 312.204L397.535 314.201ZM405.557 314.597C406.905 314.66 408.259 314.721 409.618 314.78L409.705 312.782C408.347 312.723 406.996 312.662 405.65 312.599L405.557 314.597Z" fill="black" fill-opacity="0.8"/>
</svg>
