<svg width="410" height="432" viewBox="0 0 410 432" fill="none" xmlns="http://www.w3.org/2000/svg">
<path d="M408.997 70.748C408.997 70.1957 408.55 69.748 407.997 69.748C407.445 69.748 406.997 70.1957 406.997 70.748L408.997 70.748ZM109.245 286.009L108.734 286.869L108.85 286.938L108.98 286.973L109.245 286.009ZM124.102 216.529L123.757 215.591L123.636 215.635L123.53 215.709L124.102 216.529ZM200.772 253.417L201.611 253.96L201.671 253.868L201.71 253.764L200.772 253.417ZM-0.00295229 360.766L8.74119 368.308L10.9002 356.964L-0.00295229 360.766ZM5.79115 362.798C7.1251 363.002 8.45611 363.186 9.78407 363.351L10.0298 361.366C8.72093 361.204 7.40896 361.022 6.09408 360.821L5.79115 362.798ZM13.8093 363.79C15.1509 363.917 16.4892 364.023 17.8242 364.111L17.9546 362.115C16.6388 362.029 15.3196 361.924 13.9973 361.799L13.8093 363.79ZM21.8704 364.316C23.216 364.365 24.558 364.394 25.8963 364.404L25.9112 362.404C24.592 362.394 23.2691 362.365 21.9427 362.317L21.8704 364.316ZM29.9477 364.376C31.2942 364.347 32.6367 364.299 33.9751 364.233L33.8759 362.235C32.5562 362.301 31.2326 362.348 29.9051 362.376L29.9477 364.376ZM38.0145 363.975C39.3575 363.87 40.6962 363.747 42.0304 363.606L41.8197 361.617C40.5037 361.756 39.1835 361.878 37.859 361.981L38.0145 363.975ZM46.0454 363.125C47.3805 362.946 48.7109 362.749 50.0365 362.536L49.7181 360.561C48.41 360.772 47.0974 360.966 45.7802 361.142L46.0454 363.125ZM54.017 361.839C55.3404 361.59 56.6587 361.323 57.9719 361.04L57.5503 359.085C56.2538 359.364 54.9525 359.628 53.6463 359.874L54.017 361.839ZM61.9087 360.138C63.2171 359.82 64.5201 359.487 65.8177 359.138L65.298 357.206C64.0163 357.551 62.7294 357.881 61.4373 358.194L61.9087 360.138ZM69.7029 358.041C70.9937 357.66 72.2787 357.263 73.558 356.852L72.9457 354.948C71.6814 355.354 70.4115 355.746 69.1362 356.123L69.7029 358.041ZM77.3852 355.571C78.6561 355.13 79.9211 354.674 81.1799 354.204L80.4808 352.33C79.2359 352.795 77.9852 353.246 76.7288 353.682L77.3852 355.571ZM84.944 352.752C86.1935 352.254 87.4367 351.742 88.6735 351.218L87.8931 349.377C86.6694 349.895 85.4394 350.401 84.2035 350.894L84.944 352.752ZM92.3704 349.605C93.5973 349.054 94.8177 348.491 96.0313 347.917L95.1751 346.109C93.9736 346.678 92.7657 347.236 91.5515 347.781L92.3704 349.605ZM99.6581 346.154C100.862 345.554 102.058 344.943 103.248 344.321L102.321 342.548C101.143 343.165 99.9577 343.77 98.766 344.364L99.6581 346.154ZM106.803 342.419C107.982 341.773 109.154 341.117 110.319 340.452L109.327 338.715C108.172 339.375 107.011 340.025 105.842 340.664L106.803 342.419ZM113.801 338.42C114.956 337.732 116.103 337.034 117.243 336.328L116.19 334.628C115.06 335.328 113.922 336.02 112.777 336.702L113.801 338.42ZM120.651 334.176C121.782 333.448 122.904 332.712 124.019 331.968L122.909 330.304C121.803 331.042 120.69 331.772 119.569 332.494L120.651 334.176ZM127.353 329.703C128.459 328.938 129.557 328.166 130.646 327.387L129.482 325.761C128.402 326.533 127.313 327.299 126.216 328.058L127.353 329.703ZM133.906 325.017C134.987 324.218 136.06 323.412 137.123 322.601L135.91 321.011C134.855 321.816 133.79 322.616 132.717 323.409L133.906 325.017ZM140.31 320.131C141.367 319.3 142.414 318.463 143.452 317.622L142.192 316.068C141.162 316.904 140.122 317.735 139.073 318.56L140.31 320.131ZM146.566 315.059C147.598 314.197 148.619 313.332 149.631 312.462L148.327 310.945C147.323 311.809 146.308 312.668 145.284 313.524L146.566 315.059ZM152.674 309.81C153.68 308.92 154.676 308.027 155.66 307.132L154.315 305.652C153.337 306.541 152.348 307.428 151.349 308.311L152.674 309.81ZM158.633 304.393C159.615 303.476 160.587 302.556 161.547 301.635L160.162 300.192C159.208 301.107 158.244 302.02 157.268 302.932L158.633 304.393ZM164.442 298.819C165.402 297.873 166.35 296.926 167.285 295.979L165.862 294.573C164.933 295.514 163.991 296.455 163.038 297.395L164.442 298.819ZM170.097 293.094C171.036 292.119 171.96 291.145 172.871 290.172L171.412 288.805C170.507 289.771 169.588 290.739 168.656 291.707L170.097 293.094ZM175.595 287.226C176.512 286.221 177.413 285.219 178.3 284.221L176.804 282.893C175.924 283.884 175.028 284.88 174.118 285.878L175.595 287.226ZM180.941 281.205C181.831 280.175 182.704 279.15 183.561 278.131L182.029 276.845C181.179 277.857 180.312 278.875 179.428 279.898L180.941 281.205ZM186.132 275.027C186.986 273.981 187.821 272.943 188.638 271.913L187.071 270.67C186.26 271.693 185.431 272.724 184.583 273.762L186.132 275.027ZM191.135 268.715C191.967 267.632 192.778 266.56 193.566 265.5L191.961 264.307C191.179 265.358 190.375 266.421 189.549 267.496L191.135 268.715ZM195.929 262.269C196.732 261.15 197.509 260.048 198.259 258.964L196.614 257.826C195.871 258.9 195.101 259.992 194.304 261.102L195.929 262.269ZM200.529 255.612C200.898 255.056 201.259 254.505 201.611 253.96L199.933 252.873C199.584 253.412 199.227 253.956 198.862 254.507L200.529 255.612ZM201.71 253.764C201.953 253.108 202.186 252.46 202.409 251.82L200.521 251.162C200.302 251.789 200.073 252.425 199.834 253.069L201.71 253.764ZM203.636 248.057C204.04 246.718 204.398 245.416 204.711 244.151L202.769 243.671C202.465 244.901 202.116 246.17 201.721 247.478L203.636 248.057ZM205.564 240.198C205.816 238.817 206.009 237.484 206.145 236.198L204.156 235.988C204.026 237.221 203.84 238.504 203.596 239.838L205.564 240.198ZM206.388 232.15C206.404 230.728 206.341 229.371 206.203 228.075L204.214 228.288C204.344 229.5 204.404 230.779 204.388 232.127L206.388 232.15ZM205.478 224.038C205.12 222.657 204.661 221.362 204.106 220.151L202.288 220.985C202.792 222.085 203.213 223.268 203.542 224.539L205.478 224.038ZM202.007 216.555C201.184 215.421 200.257 214.389 199.238 213.453L197.885 214.926C198.809 215.775 199.646 216.708 200.389 217.73L202.007 216.555ZM195.941 210.941C194.8 210.22 193.587 209.584 192.31 209.024L191.507 210.856C192.7 211.379 193.824 211.969 194.873 212.632L195.941 210.941ZM188.47 207.622C187.196 207.24 185.876 206.917 184.516 206.65L184.13 208.612C185.432 208.868 186.689 209.175 187.895 209.538L188.47 207.622ZM180.512 206.03C179.201 205.878 177.861 205.768 176.498 205.699L176.396 207.696C177.719 207.764 179.016 207.87 180.281 208.017L180.512 206.03ZM172.478 205.604C171.157 205.607 169.817 205.643 168.465 205.709L168.562 207.706C169.886 207.642 171.194 207.607 172.484 207.604L172.478 205.604ZM164.465 205.984C163.145 206.1 161.817 206.242 160.483 206.406L160.728 208.391C162.04 208.229 163.345 208.09 164.641 207.976L164.465 205.984ZM156.52 206.959C155.206 207.162 153.891 207.386 152.577 207.628L152.939 209.595C154.235 209.356 155.532 209.136 156.826 208.935L156.52 206.959ZM148.657 208.402C147.351 208.677 146.05 208.968 144.758 209.273L145.217 211.219C146.495 210.918 147.78 210.63 149.069 210.359L148.657 208.402ZM140.882 210.234C139.585 210.572 138.299 210.921 137.03 211.281L137.575 213.205C138.831 212.849 140.103 212.503 141.386 212.17L140.882 210.234ZM133.2 212.411C131.909 212.808 130.64 213.212 129.395 213.624L130.023 215.523C131.254 215.116 132.51 214.715 133.787 214.323L133.2 212.411ZM125.617 214.918C124.988 215.141 124.368 215.366 123.757 215.591L124.447 217.468C125.051 217.245 125.664 217.024 126.286 216.803L125.617 214.918ZM123.53 215.709C122.963 216.104 122.406 216.498 121.857 216.891L123.022 218.517C123.564 218.129 124.114 217.74 124.674 217.349L123.53 215.709ZM118.64 219.263C117.547 220.092 116.492 220.918 115.476 221.739L116.733 223.294C117.733 222.487 118.771 221.674 119.849 220.856L118.64 219.263ZM112.375 224.331C111.329 225.237 110.33 226.137 109.376 227.031L110.743 228.491C111.678 227.615 112.658 226.732 113.685 225.843L112.375 224.331ZM106.491 229.853C105.519 230.847 104.603 231.834 103.739 232.812L105.239 234.135C106.079 233.183 106.972 232.222 107.921 231.251L106.491 229.853ZM101.15 235.922C100.287 237.023 99.4916 238.114 98.7596 239.193L100.415 240.316C101.12 239.275 101.889 238.222 102.724 237.155L101.15 235.922ZM96.6172 242.633C95.9162 243.868 95.2981 245.088 94.7584 246.291L96.583 247.11C97.0961 245.966 97.6855 244.803 98.3567 243.62L96.6172 242.633ZM93.2834 250.11C92.846 251.463 92.5073 252.792 92.2598 254.095L94.2247 254.468C94.4562 253.249 94.774 252.001 95.1864 250.725L93.2834 250.11ZM91.7699 258.183C91.7004 259.601 91.7386 260.982 91.8725 262.324L93.8626 262.126C93.7385 260.881 93.7029 259.6 93.7675 258.281L91.7699 258.183ZM92.5919 266.399C92.9381 267.757 93.3806 269.064 93.9037 270.319L95.7498 269.549C95.2624 268.38 94.8511 267.164 94.5299 265.905L92.5919 266.399ZM95.7477 274.007C96.4499 275.205 97.2224 276.343 98.0473 277.419L99.6344 276.202C98.8569 275.188 98.1311 274.118 97.473 272.996L95.7477 274.007ZM100.728 280.527C101.696 281.529 102.703 282.461 103.729 283.318L105.011 281.784C104.038 280.97 103.083 280.087 102.167 279.138L100.728 280.527ZM107.004 285.776C107.582 286.164 108.16 286.528 108.734 286.869L109.755 285.149C109.213 284.827 108.666 284.482 108.118 284.115L107.004 285.776ZM108.98 286.973C109.643 287.156 110.306 287.334 110.968 287.509L111.479 285.576C110.823 285.402 110.167 285.225 109.51 285.045L108.98 286.973ZM114.933 288.518C116.253 288.841 117.57 289.149 118.884 289.443L119.321 287.492C118.019 287.2 116.715 286.895 115.408 286.575L114.933 288.518ZM122.821 290.286C124.152 290.557 125.48 290.814 126.805 291.058L127.166 289.091C125.854 288.85 124.538 288.595 123.221 288.326L122.821 290.286ZM130.831 291.756C132.171 291.974 133.508 292.178 134.841 292.369L135.124 290.389C133.803 290.2 132.48 289.998 131.153 289.782L130.831 291.756ZM138.835 292.898C140.186 293.063 141.534 293.214 142.879 293.351L143.081 291.362C141.75 291.226 140.415 291.077 139.078 290.913L138.835 292.898ZM146.94 293.723C148.291 293.833 149.638 293.929 150.983 294.01L151.104 292.014C149.773 291.933 148.439 291.839 147.102 291.73L146.94 293.723ZM155.006 294.214C156.37 294.269 157.73 294.31 159.087 294.337L159.126 292.337C157.783 292.311 156.437 292.27 155.087 292.216L155.006 294.214ZM163.156 294.375C164.509 294.373 165.858 294.358 167.204 294.329L167.161 292.33C165.829 292.358 164.493 292.373 163.154 292.375L163.156 294.375ZM171.246 294.201C172.607 294.144 173.965 294.073 175.319 293.988L175.194 291.992C173.853 292.076 172.509 292.146 171.162 292.203L171.246 294.201ZM179.37 293.692C180.716 293.579 182.059 293.454 183.398 293.314L183.191 291.325C181.866 291.463 180.537 291.587 179.204 291.699L179.37 293.692ZM187.432 292.854C188.781 292.686 190.125 292.504 191.465 292.31L191.178 290.33C189.851 290.523 188.52 290.703 187.185 290.869L187.432 292.854ZM195.473 291.686C196.805 291.466 198.132 291.232 199.455 290.985L199.089 289.019C197.779 289.263 196.464 289.495 195.146 289.713L195.473 291.686ZM203.451 290.199C204.778 289.924 206.101 289.637 207.42 289.336L206.976 287.386C205.67 287.684 204.36 287.969 203.045 288.241L203.451 290.199ZM211.362 288.398C212.676 288.072 213.985 287.734 215.29 287.383L214.77 285.452C213.478 285.799 212.181 286.134 210.88 286.457L211.362 288.398ZM219.204 286.29C220.504 285.914 221.8 285.526 223.09 285.126L222.498 283.215C221.219 283.612 219.936 283.996 218.648 284.369L219.204 286.29ZM226.948 283.89C228.235 283.464 229.517 283.027 230.794 282.579L230.131 280.692C228.866 281.136 227.595 281.569 226.32 281.991L226.948 283.89ZM234.611 281.199C235.879 280.727 237.141 280.245 238.399 279.751L237.668 277.89C236.422 278.379 235.171 278.857 233.914 279.324L234.611 281.199ZM242.161 278.236C243.413 277.719 244.659 277.191 245.9 276.653L245.104 274.818C243.874 275.352 242.638 275.875 241.397 276.388L242.161 278.236ZM249.607 275.007C250.837 274.448 252.062 273.878 253.282 273.299L252.424 271.492C251.214 272.067 249.999 272.632 248.779 273.186L249.607 275.007ZM256.934 271.526C258.146 270.925 259.353 270.314 260.554 269.693L259.636 267.916C258.444 268.532 257.248 269.138 256.045 269.734L256.934 271.526ZM264.14 267.803C265.331 267.163 266.516 266.513 267.696 265.854L266.721 264.108C265.551 264.762 264.375 265.406 263.193 266.041L264.14 267.803ZM271.223 263.848C272.393 263.17 273.557 262.483 274.716 261.788L273.686 260.073C272.537 260.763 271.381 261.445 270.221 262.117L271.223 263.848ZM278.173 259.676C279.322 258.961 280.466 258.238 281.604 257.507L280.522 255.824C279.393 256.55 278.258 257.268 277.117 257.977L278.173 259.676ZM284.999 255.288C286.124 254.541 287.244 253.785 288.357 253.022L287.226 251.373C286.121 252.13 285.009 252.88 283.892 253.622L284.999 255.288ZM291.685 250.705C292.79 249.924 293.888 249.135 294.98 248.339L293.802 246.722C292.718 247.513 291.627 248.296 290.53 249.072L291.685 250.705ZM298.238 245.928C299.318 245.117 300.391 244.3 301.458 243.475L300.235 241.892C299.176 242.711 298.11 243.524 297.037 244.329L298.238 245.928ZM304.654 240.969C305.713 240.128 306.765 239.279 307.81 238.424L306.544 236.876C305.505 237.725 304.46 238.568 303.409 239.404L304.654 240.969ZM310.926 235.841C311.962 234.97 312.991 234.093 314.013 233.21L312.706 231.697C311.691 232.574 310.668 233.445 309.639 234.31L310.926 235.841ZM317.067 230.538C318.078 229.642 319.082 228.74 320.079 227.832L318.732 226.353C317.742 227.255 316.744 228.151 315.74 229.042L317.067 230.538ZM323.054 225.088C324.045 224.162 325.028 223.231 326.005 222.295L324.621 220.852C323.65 221.782 322.673 222.707 321.688 223.627L323.054 225.088ZM328.912 219.472C329.874 218.527 330.828 217.576 331.775 216.621L330.355 215.213C329.414 216.162 328.465 217.107 327.51 218.046L328.912 219.472ZM334.618 213.718C335.56 212.744 336.494 211.766 337.42 210.784L335.965 209.412C335.044 210.388 334.116 211.36 333.18 212.328L334.618 213.718ZM340.175 207.826C341.092 206.83 342.001 205.83 342.901 204.827L341.413 203.491C340.518 204.488 339.615 205.482 338.704 206.472L340.175 207.826ZM345.597 201.786C346.487 200.769 347.369 199.748 348.243 198.725L346.723 197.426C345.854 198.443 344.977 199.457 344.092 200.468L345.597 201.786ZM350.848 195.638C351.719 194.592 352.581 193.544 353.435 192.493L351.883 191.232C351.034 192.276 350.177 193.318 349.311 194.358L350.848 195.638ZM355.97 189.334C356.807 188.278 357.634 187.221 358.453 186.161L356.87 184.938C356.057 185.991 355.234 187.043 354.403 188.092L355.97 189.334ZM360.926 182.92C361.742 181.836 362.548 180.751 363.346 179.664L361.733 178.481C360.941 179.561 360.139 180.64 359.328 181.717L360.926 182.92ZM365.71 176.401C366.501 175.294 367.283 174.185 368.055 173.076L366.414 171.933C365.647 173.036 364.87 174.137 364.083 175.238L365.71 176.401ZM370.355 169.727C371.112 168.61 371.858 167.493 372.595 166.375L370.925 165.275C370.193 166.385 369.451 167.495 368.699 168.605L370.355 169.727ZM374.809 162.968C375.543 161.821 376.267 160.674 376.98 159.528L375.282 158.472C374.574 159.61 373.854 160.75 373.124 161.889L374.809 162.968ZM379.086 156.092C379.79 154.927 380.482 153.763 381.162 152.6L379.436 151.59C378.76 152.744 378.073 153.901 377.374 155.058L379.086 156.092ZM383.195 149.072C383.86 147.898 384.514 146.725 385.155 145.555L383.402 144.594C382.765 145.755 382.116 146.92 381.455 148.086L383.195 149.072ZM387.086 141.973C387.724 140.766 388.35 139.562 388.963 138.361L387.182 137.452C386.573 138.644 385.952 139.839 385.318 141.037L387.086 141.973ZM390.761 134.769C391.367 133.537 391.958 132.309 392.534 131.085L390.725 130.232C390.153 131.446 389.567 132.665 388.966 133.888L390.761 134.769ZM394.235 127.397C394.789 126.169 395.328 124.947 395.852 123.729L394.015 122.938C393.496 124.145 392.961 125.357 392.412 126.574L394.235 127.397ZM397.445 119.936C397.96 118.678 398.458 117.427 398.94 116.183L397.074 115.461C396.597 116.693 396.104 117.932 395.594 119.179L397.445 119.936ZM400.366 112.386C400.838 111.092 401.291 109.806 401.725 108.53L399.831 107.886C399.402 109.148 398.954 110.42 398.487 111.701L400.366 112.386ZM402.971 104.73C403.39 103.401 403.788 102.082 404.165 100.776L402.243 100.222C401.871 101.512 401.478 102.814 401.063 104.128L402.971 104.73ZM405.233 96.8847C405.581 95.5465 405.906 94.222 406.207 92.9121L404.258 92.4641C403.961 93.7548 403.641 95.0607 403.297 96.3808L405.233 96.8847ZM407.057 88.9336C407.324 87.5815 407.563 86.2466 407.775 84.93L405.801 84.6117C405.592 85.9046 405.357 87.2167 405.095 88.547L407.057 88.9336ZM408.35 80.8777C408.516 79.5053 408.651 78.1552 408.754 76.8286L406.76 76.6743C406.66 77.9705 406.528 79.2917 406.364 80.6364L408.35 80.8777ZM408.97 72.7341C408.988 72.0651 408.997 71.403 408.997 70.748L406.997 70.748C406.997 71.3846 406.988 72.0287 406.971 72.68L408.97 72.7341Z" fill="black" fill-opacity="0.8"/>
<path d="M135.801 251.805C134.863 252.102 133.952 252.227 133.069 252.179C132.193 252.116 131.377 251.903 130.619 251.538C129.858 251.162 129.198 250.647 128.639 249.994C128.08 249.34 127.659 248.567 127.377 247.675C127.094 246.782 126.994 245.908 127.075 245.051C127.157 244.195 127.402 243.4 127.812 242.666C128.229 241.917 128.786 241.269 129.481 240.722C130.173 240.163 130.988 239.735 131.926 239.438C132.944 239.116 133.912 238.992 134.829 239.067C135.758 239.138 136.604 239.406 137.367 239.869L136.394 241.687C135.777 241.366 135.159 241.184 134.541 241.141C133.931 241.082 133.3 241.156 132.648 241.362C132.019 241.561 131.468 241.849 130.995 242.225C130.523 242.601 130.151 243.039 129.882 243.54C129.612 244.041 129.45 244.583 129.396 245.166C129.353 245.746 129.429 246.345 129.625 246.963C129.817 247.57 130.097 248.098 130.466 248.547C130.846 248.993 131.292 249.349 131.804 249.615C132.313 249.87 132.863 250.017 133.454 250.056C134.046 250.095 134.662 250.014 135.302 249.811C135.897 249.623 136.44 249.35 136.932 248.993C137.431 248.621 137.861 248.133 138.224 247.527L140.02 248.79C139.55 249.493 138.939 250.108 138.187 250.635C137.443 251.147 136.648 251.537 135.801 251.805ZM137.817 249.166L136.394 244.67L138.505 244.002L140.02 248.79L137.817 249.166ZM147.531 248.037C146.513 248.359 145.557 248.441 144.664 248.284C143.779 248.111 143.012 247.736 142.364 247.161C141.728 246.582 141.267 245.841 140.981 244.937C140.691 244.022 140.636 243.152 140.816 242.327C141.003 241.487 141.388 240.755 141.971 240.13C142.565 239.502 143.32 239.043 144.235 238.753C145.127 238.471 145.984 238.413 146.805 238.582C147.626 238.75 148.349 239.125 148.974 239.708C149.599 240.29 150.063 241.062 150.367 242.023C150.396 242.115 150.423 242.22 150.448 242.338C150.484 242.452 150.513 242.563 150.534 242.669L142.897 245.086L142.446 243.661L148.95 241.603L148.251 242.315C148.096 241.785 147.84 241.357 147.485 241.029C147.129 240.7 146.715 240.485 146.242 240.383C145.781 240.278 145.293 240.306 144.778 240.469C144.252 240.636 143.824 240.897 143.496 241.252C143.18 241.604 142.972 242.022 142.874 242.506C142.783 242.976 142.825 243.485 142.998 244.034L143.107 244.377C143.281 244.926 143.561 245.373 143.946 245.716C144.332 246.06 144.79 246.274 145.32 246.358C145.85 246.442 146.412 246.39 147.007 246.202C147.522 246.039 147.96 245.812 148.321 245.522C148.682 245.231 148.969 244.863 149.181 244.419L150.749 245.376C150.489 245.987 150.086 246.524 149.54 246.986C149.002 247.433 148.332 247.784 147.531 248.037ZM157.349 244.93C156.342 245.249 155.483 245.238 154.77 244.897C154.055 244.544 153.536 243.859 153.214 242.841L150.612 234.62L152.758 233.942L155.342 242.11C155.48 242.545 155.696 242.848 155.989 243.02C156.294 243.188 156.646 243.208 157.047 243.081C157.527 242.929 157.888 242.677 158.129 242.324L159.213 243.661C159.026 243.947 158.766 244.199 158.433 244.418C158.099 244.636 157.738 244.807 157.349 244.93ZM150.308 238.908L149.765 237.192L155.874 235.259L156.417 236.975L150.308 238.908ZM133.012 275.763C132.074 276.06 131.161 276.179 130.274 276.12C129.387 276.061 128.565 275.849 127.807 275.484C127.046 275.108 126.388 274.599 125.832 273.957C125.273 273.303 124.852 272.53 124.57 271.638C124.288 270.745 124.189 269.877 124.274 269.032C124.355 268.175 124.601 267.38 125.011 266.646C125.417 265.901 125.966 265.249 126.657 264.69C127.349 264.132 128.158 263.706 129.085 263.412C130.023 263.116 130.93 262.999 131.806 263.061C132.693 263.12 133.515 263.332 134.272 263.697C135.03 264.061 135.688 264.57 136.247 265.224C136.806 265.878 137.227 266.651 137.51 267.543C137.792 268.436 137.892 269.31 137.811 270.167C137.73 271.023 137.484 271.818 137.074 272.552C136.665 273.286 136.114 273.932 135.422 274.491C134.742 275.046 133.939 275.47 133.012 275.763ZM137.701 276.979C137.278 277.113 136.85 277.192 136.417 277.216C135.999 277.247 135.559 277.21 135.098 277.104C134.651 277.007 134.164 276.84 133.637 276.604C133.113 276.38 132.521 276.082 131.863 275.711L134.036 274.344C134.49 274.666 134.9 274.908 135.265 275.069C135.646 275.238 135.992 275.336 136.303 275.364C136.614 275.391 136.918 275.358 137.215 275.264C138.005 275.014 138.59 274.477 138.97 273.651L140.391 274.561C139.891 275.764 138.994 276.57 137.701 276.979ZM132.376 273.812C132.982 273.62 133.51 273.34 133.96 272.971C134.409 272.602 134.763 272.169 135.021 271.672C135.276 271.164 135.425 270.62 135.468 270.04C135.522 269.456 135.453 268.861 135.261 268.255C135.066 267.637 134.78 267.111 134.403 266.676C134.034 266.226 133.601 265.873 133.104 265.614C132.604 265.345 132.063 265.189 131.483 265.146C130.903 265.103 130.31 265.177 129.704 265.369C129.098 265.561 128.57 265.841 128.12 266.21C127.67 266.579 127.318 267.017 127.064 267.526C126.806 268.023 126.649 268.563 126.595 269.147C126.548 269.715 126.623 270.309 126.818 270.926C127.01 271.533 127.29 272.061 127.659 272.511C128.039 272.957 128.48 273.314 128.981 273.584C129.478 273.842 130.016 273.993 130.596 274.036C131.176 274.079 131.769 274.004 132.376 273.812ZM145.486 271.76C144.708 272.006 143.976 272.08 143.29 271.982C142.601 271.873 141.997 271.573 141.477 271.083C140.953 270.582 140.546 269.874 140.257 268.958L138.601 263.724L140.746 263.045L142.31 267.988C142.57 268.812 142.949 269.372 143.445 269.668C143.95 269.948 144.545 269.98 145.231 269.763C145.735 269.604 146.137 269.363 146.438 269.042C146.75 268.716 146.944 268.315 147.02 267.838C147.107 267.357 147.055 266.814 146.863 266.207L145.396 261.574L147.542 260.895L150.441 270.059L148.399 270.705L147.617 268.234L148.217 268.875C148.096 269.568 147.789 270.168 147.295 270.677C146.798 271.174 146.195 271.535 145.486 271.76ZM157.407 267.987C156.469 268.284 155.57 268.348 154.711 268.179C153.849 267.999 153.094 267.621 152.446 267.046C151.798 266.471 151.331 265.731 151.045 264.827C150.756 263.912 150.712 263.038 150.914 262.207C151.113 261.363 151.515 260.626 152.121 259.993C152.726 259.361 153.498 258.897 154.436 258.6C155.386 258.299 156.29 258.234 157.149 258.402C158.02 258.567 158.771 258.934 159.404 259.501C160.048 260.065 160.517 260.811 160.81 261.737C161.096 262.641 161.14 263.515 160.941 264.358C160.753 265.198 160.353 265.941 159.74 266.588C159.134 267.22 158.356 267.687 157.407 267.987ZM156.826 266.151C157.352 265.984 157.785 265.722 158.124 265.362C158.464 265.003 158.679 264.57 158.771 264.063C158.873 263.552 158.832 263.005 158.648 262.422C158.459 261.827 158.178 261.356 157.804 261.008C157.438 260.646 157.012 260.415 156.528 260.317C156.044 260.219 155.544 260.251 155.029 260.414C154.503 260.58 154.07 260.843 153.731 261.202C153.403 261.558 153.187 261.991 153.085 262.502C152.978 263.001 153.019 263.548 153.207 264.143C153.392 264.726 153.673 265.198 154.051 265.556C154.429 265.915 154.854 266.145 155.327 266.248C155.811 266.346 156.311 266.314 156.826 266.151ZM167.799 264.699C166.792 265.018 165.932 265.006 165.22 264.665C164.505 264.313 163.986 263.627 163.663 262.609L161.062 254.389L163.207 253.71L165.792 261.879C165.93 262.314 166.145 262.617 166.439 262.788C166.744 262.956 167.096 262.977 167.497 262.85C167.977 262.698 168.338 262.445 168.579 262.092L169.662 263.429C169.476 263.715 169.216 263.967 168.882 264.186C168.549 264.405 168.188 264.576 167.799 264.699ZM160.758 258.676L160.215 256.96L166.324 255.027L166.867 256.743L160.758 258.676ZM175.628 262.221C174.61 262.544 173.654 262.626 172.761 262.468C171.876 262.295 171.109 261.921 170.461 261.345C169.825 260.766 169.364 260.025 169.078 259.121C168.788 258.206 168.733 257.336 168.913 256.511C169.1 255.672 169.485 254.939 170.068 254.314C170.662 253.686 171.417 253.227 172.332 252.937C173.224 252.655 174.081 252.598 174.902 252.766C175.723 252.934 176.446 253.309 177.071 253.892C177.696 254.475 178.16 255.247 178.464 256.208C178.493 256.299 178.52 256.404 178.545 256.522C178.581 256.636 178.61 256.747 178.631 256.853L170.994 259.27L170.543 257.846L177.048 255.787L176.348 256.5C176.193 255.97 175.937 255.541 175.582 255.213C175.226 254.885 174.812 254.67 174.339 254.568C173.878 254.462 173.39 254.49 172.875 254.653C172.349 254.82 171.922 255.081 171.594 255.436C171.277 255.788 171.069 256.206 170.971 256.691C170.88 257.16 170.922 257.669 171.096 258.218L171.204 258.562C171.378 259.111 171.658 259.557 172.043 259.901C172.429 260.244 172.887 260.458 173.417 260.542C173.947 260.626 174.509 260.574 175.104 260.386C175.619 260.223 176.057 259.996 176.418 259.706C176.78 259.415 177.066 259.048 177.278 258.603L178.846 259.561C178.586 260.172 178.183 260.708 177.637 261.17C177.099 261.618 176.429 261.968 175.628 262.221Z" fill="black" fill-opacity="0.8"/>
</svg>
