<svg width="106" height="36" viewBox="0 0 106 36" fill="none" xmlns="http://www.w3.org/2000/svg">
<g id="Group 48096638">
<path id="Vector" d="M99.5512 35.875H6.44605C4.68642 35.8719 3.09968 35.4665 1.95582 34.819C0.808349 34.1695 0.130351 33.2924 0.125 32.351V3.649C0.130351 2.70762 0.808349 1.83053 1.95582 1.18101C3.09965 0.533547 4.68635 0.128124 6.44594 0.125H99.554C101.314 0.128124 102.9 0.533547 104.044 1.18101C105.192 1.83061 105.87 2.70783 105.875 3.64934V32.3521C105.869 33.2936 105.19 34.1705 104.042 34.8197C102.898 35.4669 101.311 35.8719 99.5512 35.875Z" stroke="black" stroke-width="0.25"/>
<path id="Vector_2" d="M10.7064 26.5458V20.3456L6 11.6641H9.09384L10.8814 15.4767C11.3939 16.583 11.7689 17.4252 12.1689 18.4377H12.208C12.5877 17.4892 13.0018 16.5626 13.5143 15.4767L15.3018 11.6641H18.3676L13.419 20.2768V26.5442L10.7064 26.5458Z" fill="black"/>
<path id="Vector_3" d="M28.0705 21.0687C28.2924 24.0001 26.0954 26.5548 23.1641 26.7767C22.9594 26.7923 22.7547 26.7954 22.5516 26.7876C19.6858 26.9017 17.2701 24.6688 17.1561 21.8031C17.1483 21.6203 17.1514 21.4359 17.1639 21.2531C16.942 18.328 19.1358 15.7764 22.0609 15.5545C22.2844 15.5373 22.5078 15.5342 22.7312 15.5467C25.5766 15.4389 27.972 17.6577 28.0798 20.5031C28.0877 20.6921 28.0845 20.8812 28.0705 21.0687ZM19.9687 21.189C19.9687 23.2563 20.9812 24.8298 22.6359 24.8298C24.1844 24.8298 25.2688 23.3094 25.2688 21.1359C25.2688 19.4562 24.5141 17.542 22.6625 17.542C20.7421 17.5342 19.9687 19.3874 19.9687 21.189Z" fill="black"/>
<path id="Vector_4" d="M39.93 23.3221C39.93 24.6018 39.9753 25.6659 40.0175 26.5488H37.6299L37.4971 24.9097H37.4565C36.7268 26.1081 35.4111 26.8238 34.0079 26.7847C32.0407 26.7847 30.2578 25.6112 30.2578 22.0971V15.7891H32.9704V21.6439C32.9704 23.4315 33.5501 24.5925 34.983 24.5925C36.2283 24.5565 37.2174 23.5331 37.2112 22.2861V15.7922H39.93V23.3221Z" fill="black"/>
<path id="Vector_5" d="M102.366 35.8448H49.8907C47.8875 35.8386 46.2641 34.2151 46.2578 32.2119V3.63292C46.2641 1.62974 47.8875 0.00625019 49.8907 0H102.367C104.371 0.00625019 105.994 1.62974 106 3.63292V32.2135C105.992 34.2167 104.369 35.8386 102.366 35.8448Z" fill="#FF0000"/>
<g id="Group">
<g id="Group_2">
<path id="Vector_6" opacity="0.2" d="M46.2578 4.60014V29.0946C46.2641 29.5509 46.3391 30.0025 46.4813 30.4353L82.6433 0H46.2797" fill="white"/>
</g>
</g>
<g id="Group_3">
<path id="Vector_7" d="M57.2158 13.9235H52.9766V11.6562H64.2269V13.9235H59.9377V26.5395H57.2158V13.9235Z" fill="white"/>
<path id="Vector_8" d="M74.3815 23.3143C74.3815 24.594 74.4269 25.6581 74.469 26.541H72.0815L71.9487 24.9018H71.9096C71.1799 26.1003 69.8642 26.816 68.4611 26.7769C66.4938 26.7769 64.7109 25.6034 64.7109 22.0893V15.7812H67.4204V21.6361C67.4204 23.4237 68.0001 24.5846 69.433 24.5846C70.6783 24.5487 71.6674 23.5252 71.6611 22.2783V15.7844H74.38L74.3815 23.3143Z" fill="white"/>
<path id="Vector_9" d="M77.2344 26.5427C77.2797 25.8098 77.3281 24.6239 77.3281 23.516V10.8594H80.0407V17.2658H80.086C80.8517 16.1298 82.1564 15.4783 83.5236 15.547C86.1565 15.547 88.03 17.7346 88.0113 21.0019C88.0113 24.8692 85.5565 26.7833 83.1314 26.7833C81.7392 26.8536 80.4251 26.138 79.7313 24.9286H79.686L79.5532 26.5411L77.2344 26.5427ZM80.047 22.1019C80.0438 22.3175 80.0673 22.5316 80.1141 22.741C80.3892 23.8504 81.3783 24.6332 82.5205 24.6473C84.2205 24.6473 85.2612 23.2738 85.2612 21.1144C85.2612 19.2081 84.3549 17.6596 82.5423 17.6596C81.3814 17.6986 80.3938 18.5143 80.136 19.6471C80.0829 19.8784 80.0548 20.1159 80.0485 20.3534L80.047 22.1019Z" fill="white"/>
<path id="Vector_10" d="M92.1678 21.9252C92.2272 23.5377 93.5835 24.7972 95.1961 24.7378C95.2914 24.7347 95.3867 24.7268 95.4804 24.7128C96.4961 24.7362 97.5071 24.569 98.4602 24.219L98.8602 26.0941C97.6602 26.5519 96.3836 26.7785 95.0992 26.7613C92.2991 27.016 89.8209 24.9518 89.5662 22.1518C89.5412 21.8752 89.5381 21.5971 89.5584 21.3205C89.3099 18.386 91.4866 15.8063 94.421 15.5578C94.5523 15.5469 94.682 15.5406 94.8132 15.5391C98.3071 15.5391 99.454 18.4188 99.454 20.7798C99.4571 21.1642 99.4274 21.5486 99.3665 21.9283H92.1678V21.9252ZM96.8945 20.0189C97.0664 18.7517 96.1789 17.5844 94.9117 17.4126C94.8289 17.4016 94.746 17.3938 94.6617 17.3922C93.2679 17.4751 92.1741 18.622 92.1616 20.0189H96.8945Z" fill="white"/>
</g>
</g>
</svg>
