<svg width="244" height="175" viewBox="0 0 244 175" fill="none" xmlns="http://www.w3.org/2000/svg">
<g id="Group 48096722">
<path id="Vector" d="M218.977 161.654H202.906V161.771H218.977V161.654Z" fill="#EBEBEB"/>
<path id="Vector_2" d="M161.388 162.921H157.172V163.038H161.388V162.921Z" fill="#EBEBEB"/>
<path id="Vector_3" d="M202.421 157.306H193.109V157.423H202.421V157.306Z" fill="#EBEBEB"/>
<path id="Vector_4" d="M47.0897 158.091H26.1328V158.208H47.0897V158.091Z" fill="#EBEBEB"/>
<path id="Vector_5" d="M54.4699 158.091H51.3984V158.208H54.4699V158.091Z" fill="#EBEBEB"/>
<path id="Vector_6" d="M109.917 160.066H64.4609V160.183H109.917V160.066Z" fill="#EBEBEB"/>
<g id="Group">
<path id="Vector_7" d="M116.351 133.246H22.6535C21.125 133.246 19.8828 132.048 19.8828 130.574V3.54436C19.8828 2.07015 21.125 0.87207 22.6535 0.87207H116.351C117.879 0.87207 119.121 2.07015 119.121 3.54436V130.579C119.121 132.053 117.879 133.251 116.351 133.251V133.246ZM22.6535 0.993751C21.1929 0.993751 20.0041 2.14035 20.0041 3.54904V130.579C20.0041 131.987 21.1929 133.134 22.6535 133.134H116.351C117.811 133.134 119 131.987 119 130.579V3.54436C119 2.13567 117.811 0.989071 116.351 0.989071H22.6535V0.993751Z" fill="#EBEBEB"/>
<path id="Vector_8" d="M221.304 133.195H127.607C126.078 133.195 124.836 131.996 124.836 130.522V3.4926C124.836 2.0184 126.078 0.820312 127.607 0.820312H221.304C222.832 0.820312 224.074 2.0184 224.074 3.4926V130.522C224.074 131.996 222.832 133.195 221.304 133.195ZM127.607 0.937313C126.146 0.937313 124.957 2.08392 124.957 3.4926V130.522C124.957 131.931 126.146 133.077 127.607 133.077H221.304C222.764 133.077 223.953 131.931 223.953 130.522V3.4926C223.953 2.08392 222.764 0.937313 221.304 0.937313H127.607Z" fill="#EBEBEB"/>
</g>
<path id="Vector_9" d="M243.285 154.118H0.671875V154.235H243.285V154.118Z" fill="#EBEBEB"/>
<g id="Group_2">
<g id="Group_3">
<g id="Group_4">
<g id="Group_5">
<path id="Vector_10" d="M199.045 54.334C191.801 54.334 185.93 59.9968 185.93 66.9841C185.93 73.4752 190.995 78.8245 197.517 79.5546C198.017 79.6107 198.526 79.6388 199.045 79.6388C199.739 79.6388 200.423 79.5873 201.088 79.4891C207.352 78.539 212.151 73.3021 212.151 66.9841C212.151 59.9968 206.28 54.334 199.045 54.334ZM199.045 75.951C193.863 75.951 189.661 71.9028 189.661 66.8998C189.661 61.8969 193.863 57.8534 199.045 57.8534C204.228 57.8534 208.42 61.9016 208.42 66.8998C208.42 71.8981 204.218 75.951 199.045 75.951Z" fill="#F5F5F5"/>
<path id="Vector_11" d="M199.045 54.334C191.801 54.334 185.93 59.9968 185.93 66.9841C185.93 73.4752 190.995 78.8245 197.517 79.5546C198.017 79.6107 198.526 79.6388 199.045 79.6388C199.739 79.6388 200.423 79.5873 201.088 79.4891C207.352 78.539 212.151 73.3021 212.151 66.9841C212.151 59.9968 206.28 54.334 199.045 54.334ZM199.045 75.951C193.863 75.951 189.661 71.9028 189.661 66.8998C189.661 61.8969 193.863 57.8534 199.045 57.8534C204.228 57.8534 208.42 61.9016 208.42 66.8998C208.42 71.8981 204.218 75.951 199.045 75.951Z" fill="#E6E6E6"/>
</g>
<g id="Group_6">
<g id="Group_7">
<path id="Vector_12" d="M196.194 96.8887H202.914V94.792H196.194V96.8887Z" fill="#F0F0F0"/>
<path id="Vector_13" d="M196.194 96.8887H202.914V94.792H196.194V96.8887Z" fill="#F0F0F0"/>
<g id="Group_8">
<path id="Vector_14" d="M200.63 96.5612V96.8888L200.101 154.355H198.563L198.039 96.8888V96.5612C198.199 96.2055 198.354 95.934 198.515 95.7328C199.097 94.9793 199.631 95.204 200.019 95.6064C200.397 95.9949 200.63 96.5565 200.63 96.5565V96.5612Z" fill="#F0F0F0"/>
<path id="Vector_15" d="M212.979 154.355H211.237C209.936 147.045 202.391 103.549 201.236 96.8895C201.134 96.3326 201.086 96.033 201.086 96.033C201.086 96.033 201.236 95.1906 201.659 94.7928C201.901 94.5635 202.231 94.4886 202.673 94.7928C202.745 94.849 202.833 94.9145 202.915 94.9941C203.022 95.097 203.138 95.2281 203.265 95.3778C203.265 95.3778 209.747 136.01 212.979 154.351V154.355Z" fill="#F0F0F0"/>
<path id="Vector_16" d="M197.526 96.032C197.526 96.032 197.477 96.3315 197.38 96.8884C196.22 103.548 188.675 147.044 187.375 154.354H185.633C188.869 136.013 195.347 95.3815 195.347 95.3815C196.094 94.4455 196.609 94.4735 196.948 94.7965C197.375 95.1943 197.521 96.0367 197.521 96.0367L197.526 96.032Z" fill="#F0F0F0"/>
</g>
</g>
<g id="Group_9">
<path id="Vector_17" d="M201.4 85.9746H202.633V84.3881H201.4V85.9746Z" fill="#F0F0F0"/>
<path id="Vector_18" d="M200.015 85.5957H202.242V84.8188H200.015V85.5957Z" fill="#F0F0F0"/>
</g>
<g id="Group_10">
<path id="Vector_19" d="M196.795 86.3994H195.562V87.9859H196.795V86.3994Z" fill="#F0F0F0"/>
<path id="Vector_20" d="M198.165 86.8252H195.938V87.6021H198.165V86.8252Z" fill="#F0F0F0"/>
</g>
<g id="Group_11">
<path id="Vector_21" d="M202.338 81.5283H203.57V79.9418H202.338V81.5283Z" fill="#F0F0F0"/>
<path id="Vector_22" d="M200.953 81.0977H203.18V80.3208H200.953V81.0977Z" fill="#F0F0F0"/>
</g>
<path id="Vector_23" d="M198.519 102.466H200.023V84.5741H198.519V102.466Z" fill="#F0F0F0"/>
<path id="Vector_24" d="M197.901 91.876H200.711V89.4658H197.901V91.876Z" fill="#F0F0F0"/>
<path id="Vector_25" d="M198.828 84.3916H199.789V81.504H198.828V84.3916Z" fill="#F0F0F0"/>
<path id="Vector_26" d="M198.133 88.4096H200.481V83.9167C200.481 83.2896 199.957 82.7842 199.307 82.7842C198.657 82.7842 198.133 83.2896 198.133 83.9167V88.4096Z" fill="#F0F0F0"/>
<path id="Vector_27" d="M197.486 89.4141H201.164V88.4079H197.486V89.4141Z" fill="#F0F0F0"/>
<path id="Vector_28" d="M197.522 81.9404H201.094V79.4553H197.522V81.9404Z" fill="#F0F0F0"/>
</g>
</g>
<path id="Vector_29" d="M199.17 78.966C192.29 78.966 186.695 73.5699 186.695 66.9337C186.695 60.2974 192.29 54.9014 199.17 54.9014C206.051 54.9014 211.646 60.2974 211.646 66.9337C211.646 73.5699 206.051 78.966 199.17 78.966ZM199.17 57.2648C193.644 57.2648 189.146 61.6031 189.146 66.9337C189.146 72.2642 193.644 76.6026 199.17 76.6026C204.697 76.6026 209.195 72.2642 209.195 66.9337C209.195 61.6031 204.697 57.2648 199.17 57.2648Z" fill="#FAFAFA"/>
</g>
<g id="Group_12">
<path id="Vector_30" d="M66.2004 22.7178H31.4922V75.5458H66.2004V22.7178Z" fill="#F5F5F5"/>
<g id="Group_13">
<g id="Group_14">
<path id="Vector_31" d="M50.1302 126.6L49.417 147.206H48.5727L47.8594 126.6H50.1302Z" fill="#F0F0F0"/>
<g id="Group_15">
<path id="Vector_32" d="M52.0619 133.568L51.4651 131.949H47.1126L45.9141 133.568H52.0619Z" fill="#F0F0F0"/>
<g id="Group_16">
<path id="Vector_33" d="M56.932 138.843L55.8597 140.004L50.1195 146.191H49.6828H49.6439H48.3241H48.2805H47.8438L48.2659 145.737L48.3241 145.671L48.9792 144.964L49.6439 144.253L49.7555 144.131L50.1195 143.738L54.8698 138.614L55.9082 137.495H56.0441L56.932 138.843Z" fill="#F0F0F0"/>
<path id="Vector_34" d="M41.0391 138.843L42.0774 139.966L47.8468 146.191H50.1225V146.186L49.7004 145.732L49.647 145.671L48.9822 144.964L48.3272 144.253L48.2156 144.131L47.8468 143.738L43.0722 138.586L42.058 137.495H41.927L41.0391 138.843Z" fill="#F0F0F0"/>
</g>
<g id="Group_17">
<path id="Vector_35" d="M49.6484 142.469L49.6484 56.9326H48.3286L48.3286 142.469H49.6484Z" fill="#F0F0F0"/>
<path id="Vector_36" opacity="0.2" d="M49.6479 62.1191H48.3281V142.47H49.6479V62.1191Z" fill="#F0F0F0"/>
</g>
<path id="Vector_37" d="M30.9453 154.174H31.8527L42.0813 139.965L43.076 138.589L46.6909 133.568L47.8555 131.953H46.2396C45.8272 131.953 45.4487 132.15 45.2304 132.487L41.9308 137.494L41.0429 138.842L30.9453 154.174Z" fill="#F0F0F0"/>
<path id="Vector_38" d="M67.0351 154.17L52.7501 132.483C52.5317 132.15 52.1484 131.949 51.7408 131.949H50.125L65.9531 154.17H67.0351Z" fill="#F0F0F0"/>
<path id="Vector_39" d="M47.0247 62.1191H50.9453V56.9337H47.0247V62.1191Z" fill="#F0F0F0"/>
<path id="Vector_40" opacity="0.3" d="M47.0247 62.1191H50.9453V56.9337H47.0247V62.1191Z" fill="#F0F0F0"/>
</g>
<path id="Vector_41" d="M47.862 142.47H50.1328L50.1328 102.296H47.862L47.862 142.47Z" fill="#F0F0F0"/>
</g>
<g id="Group_18">
<path id="Vector_42" d="M66.9239 76.6025L31.1094 76.7055V20.653L66.9239 20.4424V76.6025Z" fill="#E6E6E6"/>
<path id="Vector_43" d="M65.5674 22.1172H32.3828V75.0341H65.5674V22.1172Z" fill="#FAFAFA"/>
</g>
</g>
</g>
</g>
<path id="&#38;lt;Path&#38;gt;" d="M121.979 175C173.938 175 216.06 172.628 216.06 169.702C216.06 166.776 173.938 164.404 121.979 164.404C70.0197 164.404 27.8984 166.776 27.8984 169.702C27.8984 172.628 70.0197 175 121.979 175Z" fill="#F5F5F5"/>
<g id="Group_19">
<g id="Group_20">
<g id="Group_21">
<path id="Vector_44" d="M122.894 67.0447C122.972 70.639 122.525 76.9008 119.57 78.8196C121.094 80.9537 123.171 83.2844 127.251 83.846C130.381 84.2765 131.308 81.7587 130.828 80.4904C126.955 78.9226 127.581 76.4094 128.775 73.812L122.894 67.04V67.0447Z" fill="#7F3E3B"/>
<path id="Vector_45" opacity="0.2" d="M125.295 69.8057L128.779 73.8118C128.492 74.4248 128.245 75.052 128.085 75.6791C126.58 75.2204 124.756 73.2548 124.872 71.673C124.931 70.8867 125.101 70.1473 125.295 69.8057Z" fill="black"/>
<path id="Vector_46" d="M135.869 58.8862C136.616 60.702 136.573 64.5396 133.792 63.4866C131.007 62.4383 134.588 55.7693 135.869 58.8862Z" fill="#263238"/>
<path id="Vector_47" d="M122.196 62.3788C122.264 67.1711 122.05 69.9838 124.438 72.5297C128.028 76.358 134.268 74.3924 135.69 69.6656C136.971 65.4068 136.646 58.2838 131.876 56.2058C127.179 54.156 122.128 57.5865 122.196 62.3835V62.3788Z" fill="#7F3E3B"/>
<path id="Vector_48" d="M134.003 59.1728C137.453 58.8405 139.583 55.1667 135.172 52.4008C134.022 51.6801 133.338 52.5366 132.664 53.3977C132.339 53.8095 131.882 54.109 131.363 54.2354C130.378 54.4834 128.69 54.797 127.559 54.4179C125.012 53.5615 119.795 54.7408 120.29 57.7173C118.898 58.2555 118.393 63.6516 122.949 65.7389C125.206 63.7171 124.594 59.2758 124.594 59.2758C126.754 59.3787 130.868 59.4677 133.998 59.1635L134.003 59.1728Z" fill="#263238"/>
<path id="Vector_49" d="M120.082 66.2737C120.416 67.5232 121.319 68.5013 122.28 69.0161C123.721 69.793 124.847 68.6324 124.779 67.1207C124.72 65.7589 123.896 63.7137 122.289 63.5593C120.703 63.4048 119.698 64.8463 120.082 66.2737Z" fill="#7F3E3B"/>
<path id="Vector_50" d="M134.165 64.0954C134.146 64.4838 134.345 64.8068 134.607 64.8161C134.874 64.8255 135.102 64.5166 135.121 64.1282C135.141 63.7397 134.942 63.4168 134.68 63.4074C134.418 63.3981 134.185 63.707 134.165 64.0954Z" fill="#263238"/>
<path id="Vector_51" d="M131.006 64.4149C131.04 64.4102 131.069 64.3915 131.084 64.3634C131.113 64.3213 131.108 64.2698 131.074 64.2324C130.768 63.8814 130.405 63.5912 129.987 63.3666C129.929 63.3385 129.861 63.3572 129.827 63.4087C129.798 63.4648 129.817 63.5304 129.871 63.5631C130.167 63.7222 130.434 63.9188 130.671 64.1481C130.429 64.1388 130.172 64.1762 129.885 64.2698C129.822 64.2885 129.788 64.354 129.813 64.4102C129.832 64.471 129.9 64.4991 129.958 64.4804C130.337 64.3587 130.642 64.34 130.948 64.4102C130.963 64.4102 130.982 64.4102 130.996 64.4102L131.006 64.4149Z" fill="#263238"/>
<path id="Vector_52" d="M132.953 64.3301C132.953 64.3301 133.885 66.4922 134.904 67.5359C134.195 68.149 132.977 67.8588 132.977 67.8588L132.953 64.3301Z" fill="#630F0F"/>
<path id="Vector_53" d="M131.708 69.6931C131.873 69.7212 132.047 69.7399 132.232 69.7446C132.3 69.7446 132.353 69.6978 132.358 69.637C132.358 69.5714 132.309 69.52 132.246 69.52C130.47 69.4544 129.704 68.2329 129.694 68.2189C129.66 68.1627 129.587 68.1487 129.529 68.1815C129.471 68.2142 129.451 68.2844 129.485 68.3406C129.515 68.3921 130.179 69.4451 131.708 69.7025V69.6931Z" fill="#263238"/>
<path id="Vector_54" d="M128.647 62.3783C128.706 62.4344 128.793 62.4625 128.88 62.4438C129.914 62.1958 130.564 62.7574 130.574 62.7621C130.671 62.8463 130.821 62.8416 130.908 62.748C130.996 62.6544 130.991 62.5093 130.894 62.4251C130.86 62.397 130.04 61.6903 128.759 62.0039C128.633 62.0367 128.555 62.1583 128.584 62.28C128.594 62.3175 128.613 62.3549 128.642 62.383L128.647 62.3783Z" fill="#263238"/>
<path id="Vector_55" d="M135.967 62.3358C136.001 62.3077 136.03 62.2703 136.045 62.2281C136.083 62.1065 136.016 61.9754 135.894 61.938C134.647 61.5495 133.803 62.2141 133.759 62.2375C133.657 62.3171 133.643 62.4621 133.725 62.5604C133.808 62.6587 133.953 62.6727 134.055 62.5932C134.089 62.5651 134.749 62.0597 135.749 62.3732C135.826 62.3966 135.909 62.3826 135.967 62.3358Z" fill="#263238"/>
</g>
<path id="Vector_56" d="M138.015 81.7208C133.769 80.4057 123.74 78.4027 112.152 76.4043C112.152 76.4558 110.056 77.5088 110.056 77.5603C110.056 77.5088 110.056 77.6117 110.056 77.5603C107.81 79.4182 106.849 82.6428 108.596 84.9453C108.596 84.9453 110.1 115.258 110.6 115.258C111.099 115.258 123.807 121.225 135.341 116.386C135.793 116.194 135.982 106.427 136.482 98.9245C137.117 89.4147 138.015 81.7208 138.015 81.7208Z" fill="#407BFF"/>
<path id="Vector_57" opacity="0.2" d="M108.469 83.4118L108.988 93.0853L113.83 81.2402C113.83 81.2402 111.754 84.9094 108.469 83.4071V83.4118Z" fill="black"/>
<path id="Vector_58" d="M95.086 76.4986L109.128 86.0318C109.128 86.0318 112.612 85.7463 114.296 80.4626L114.815 78.1319C114.815 78.1319 101.19 68.6596 99.5695 68.2337C94.0525 66.7829 91.5244 73.7047 95.0908 76.4986H95.086Z" fill="#407BFF"/>
<g id="Group_22">
<g id="Group_23">
<path id="Vector_59" d="M130.558 66.4531H130V67.9835H130.558V66.4531Z" fill="#407BFF"/>
<path id="Vector_60" d="M130.376 69.7354H129.93V71.0832H130.376V69.7354Z" fill="#407BFF"/>
<path id="Vector_61" d="M131.086 71.4013V69.417L131.28 69.5902V71.2328L131.086 71.4013Z" fill="#407BFF"/>
<path id="Vector_62" d="M131.121 69.3652H130.281V71.4572H131.121V69.3652Z" fill="#407BFF"/>
<path id="Vector_63" opacity="0.4" d="M131.121 69.3652H130.281V71.4572H131.121V69.3652Z" fill="white"/>
<path id="Vector_64" opacity="0.6" d="M131.077 69.8701H130.32V70.2586H131.077V69.8701Z" fill="white"/>
<path id="Vector_65" opacity="0.6" d="M131.077 70.3145H130.32V70.511H131.077V70.3145Z" fill="white"/>
<path id="Vector_66" opacity="0.6" d="M131.077 70.5869H130.32V70.7554H131.077V70.5869Z" fill="white"/>
<path id="Vector_67" opacity="0.6" d="M131.077 70.8574H130.32V70.9697H131.077V70.8574Z" fill="white"/>
<path id="Vector_68" opacity="0.6" d="M131.077 71.1865H130.32V71.2427H131.077V71.1865Z" fill="white"/>
<path id="Vector_69" opacity="0.6" d="M131.077 69.6133H130.32V69.8098H131.077V69.6133Z" fill="white"/>
<path id="Vector_70" opacity="0.6" d="M131.077 69.4072H130.32V69.5476H131.077V69.4072Z" fill="white"/>
<path id="Vector_71" d="M130.951 66.1777H130.281V68.2697H130.951V66.1777Z" fill="#407BFF"/>
<path id="Vector_72" opacity="0.4" d="M130.951 66.1777H130.281V68.2697H130.951V66.1777Z" fill="white"/>
<path id="Vector_73" opacity="0.6" d="M130.919 66.6797H130.312V67.0681H130.919V66.6797Z" fill="white"/>
<path id="Vector_74" opacity="0.6" d="M130.919 67.123H130.312V67.3196H130.919V67.123Z" fill="white"/>
<path id="Vector_75" opacity="0.6" d="M130.919 67.3955H130.312V67.564H130.919V67.3955Z" fill="white"/>
<path id="Vector_76" opacity="0.6" d="M130.919 67.667H130.312V67.7793H130.919V67.667Z" fill="white"/>
<path id="Vector_77" opacity="0.6" d="M130.919 67.9932H130.312V68.0493H130.919V67.9932Z" fill="white"/>
<path id="Vector_78" opacity="0.6" d="M130.919 66.4258H130.312V66.6223H130.919V66.4258Z" fill="white"/>
<path id="Vector_79" opacity="0.6" d="M130.919 66.2197H130.312V66.3601H130.919V66.2197Z" fill="white"/>
<g id="Group_24">
<g id="Group_25">
<g id="mirrorless fill">
<g id="Group_26">
<path id="Vector_80" d="M130.982 81.8411V72.2986C130.982 72.0131 130.744 71.7838 130.448 71.7838H130.186V65.0773C130.186 64.7918 129.948 64.5625 129.652 64.5625H128.672V70.4125C128.842 70.3096 129.244 70.2394 129.361 70.2394C129.516 70.2394 129.637 70.361 129.637 70.5061C129.637 70.6512 129.511 70.7729 129.361 70.7729C129.24 70.7729 128.842 70.698 128.672 70.5997V77.7695H130.108C130.336 77.7695 130.521 77.9473 130.521 78.1673V80.6009C130.521 80.8209 130.336 80.9987 130.108 80.9987H128.672V82.3559H130.448C130.744 82.3559 130.982 82.1266 130.982 81.8411ZM129.099 74.9849V72.5513H130.186V74.9849H129.099ZM129.278 76.314C129.162 76.314 129.065 76.2204 129.065 76.1081C129.065 75.9958 129.162 75.9022 129.278 75.9022H129.943C130.06 75.9022 130.157 75.9958 130.157 76.1081C130.157 76.1643 130.132 76.2157 130.094 76.2532C130.055 76.2906 130.001 76.314 129.943 76.314H129.278Z" fill="#407BFF"/>
<g id="Group_27" opacity="0.5">
<path id="Vector_81" d="M130.974 81.8411V72.2986C130.974 72.0131 130.736 71.7838 130.44 71.7838H130.178V65.0773C130.178 64.7918 129.94 64.5625 129.644 64.5625H128.664V70.4125C128.834 70.3096 129.237 70.2394 129.353 70.2394C129.508 70.2394 129.63 70.361 129.63 70.5061C129.63 70.6512 129.504 70.7729 129.353 70.7729C129.232 70.7729 128.834 70.698 128.664 70.5997V77.7695H130.1C130.328 77.7695 130.513 77.9473 130.513 78.1673V80.6009C130.513 80.8209 130.328 80.9987 130.1 80.9987H128.664V82.3559H130.44C130.736 82.3559 130.974 82.1266 130.974 81.8411ZM129.091 74.9849V72.5513H130.178V74.9849H129.091ZM129.271 76.314C129.154 76.314 129.057 76.2204 129.057 76.1081C129.057 75.9958 129.154 75.9022 129.271 75.9022H129.935C130.052 75.9022 130.149 75.9958 130.149 76.1081C130.149 76.1643 130.125 76.2157 130.086 76.2532C130.047 76.2906 129.994 76.314 129.935 76.314H129.271Z" fill="white"/>
</g>
<path id="Vector_82" d="M130.173 72.5518H129.086V74.9854H130.173V72.5518Z" fill="#407BFF"/>
<g id="Group_28" opacity="0.2">
<path id="Vector_83" d="M130.048 72.7012H129.18V74.868H130.048V72.7012Z" fill="white"/>
</g>
<path id="Vector_84" d="M129.268 75.9023H129.933C130.049 75.9023 130.146 75.9959 130.146 76.1083C130.146 76.1644 130.122 76.2159 130.083 76.2533C130.045 76.2908 129.991 76.3142 129.933 76.3142H129.268C129.152 76.3142 129.055 76.2206 129.055 76.1083C129.055 75.9959 129.152 75.9023 129.268 75.9023Z" fill="#454F68"/>
<path id="Vector_85" d="M128.666 82.3559H120.573C120.277 82.3559 120.039 82.1266 120.039 81.8411V65.2224C120.039 64.8573 120.345 64.5625 120.723 64.5625H128.666V70.4125C128.836 70.3096 129.239 70.2394 129.355 70.2394C129.511 70.2394 129.632 70.361 129.632 70.5061C129.632 70.6512 129.506 70.7729 129.355 70.7729C129.234 70.7729 128.836 70.698 128.666 70.5997V77.7695H130.103C130.331 77.7695 130.515 77.9473 130.515 78.1673V80.6009C130.515 80.8209 130.331 80.9987 130.103 80.9987H128.666V82.3559Z" fill="#407BFF"/>
<g id="Group_29" opacity="0.5">
<path id="Vector_86" d="M128.666 82.3559H120.573C120.277 82.3559 120.039 82.1266 120.039 81.8411V65.2224C120.039 64.8573 120.345 64.5625 120.723 64.5625H128.666V70.4125C128.836 70.3096 129.239 70.2394 129.355 70.2394C129.511 70.2394 129.632 70.361 129.632 70.5061C129.632 70.6512 129.506 70.7729 129.355 70.7729C129.234 70.7729 128.836 70.698 128.666 70.5997V77.7695H130.103C130.331 77.7695 130.515 77.9473 130.515 78.1673V80.6009C130.515 80.8209 130.331 80.9987 130.103 80.9987H128.666V82.3559Z" fill="white"/>
</g>
<g id="Group_30" opacity="0.8">
<path id="Vector_87" d="M129.357 70.7777C129.236 70.7777 128.838 70.7028 128.668 70.6045C128.62 70.5764 128.586 70.5437 128.586 70.5109C128.586 70.4781 128.615 70.4454 128.668 70.4173C128.838 70.3143 129.241 70.2441 129.357 70.2441C129.513 70.2441 129.634 70.3658 129.634 70.5109C129.634 70.656 129.508 70.7777 129.357 70.7777Z" fill="white"/>
</g>
<path id="Vector_88" d="M128.66 64.5625H120.766V82.3559H128.66V64.5625Z" fill="#263238"/>
<g id="Group_31">
<path id="Vector_89" d="M128.656 67.8057V64.5625H128.831C129.083 64.5625 129.287 64.7591 129.287 65.0024V67.8057H128.656Z" fill="#263238"/>
<path id="Vector_90" d="M128.662 68.6576H120.568C120.277 68.6576 120.039 68.4283 120.039 68.1475V67.6982H129.287V67.8293C129.287 68.2084 129.025 68.5266 128.662 68.6249V68.6576Z" fill="#263238"/>
<path id="Vector_91" d="M120.767 67.6981H120.039V65.2224C120.039 64.8573 120.345 64.5625 120.723 64.5625H120.772V67.6981H120.767Z" fill="#263238"/>
<path id="Vector_92" opacity="0.2" d="M120.767 68.6903H120.568C120.277 68.6903 120.039 68.4609 120.039 68.1801V65.2224C120.039 64.8573 120.345 64.5625 120.723 64.5625H120.772V68.6903H120.767Z" fill="black"/>
<path id="Vector_93" opacity="0.2" d="M128.66 67.6982H120.766V68.6576H128.66V67.6982Z" fill="black"/>
<g id="Group_32" opacity="0.2">
<path id="Vector_94" d="M128.664 68.6288V67.7021H129.29V67.8332C129.29 68.2123 129.028 68.5305 128.664 68.6288Z" fill="black"/>
</g>
</g>
<path id="Vector_95" d="M130.099 77.7754H128.483C128.255 77.7754 128.07 77.9535 128.07 78.1732V80.6021C128.07 80.8218 128.255 80.9999 128.483 80.9999H130.099C130.326 80.9999 130.511 80.8218 130.511 80.6021V78.1732C130.511 77.9535 130.326 77.7754 130.099 77.7754Z" fill="#263238"/>
<g id="Group_33" opacity="0.2">
<path id="Vector_96" d="M130.091 77.7744H128.475C128.247 77.7744 128.062 77.9525 128.062 78.1722V80.6011C128.062 80.8208 128.247 80.9989 128.475 80.9989H130.091C130.319 80.9989 130.503 80.8208 130.503 80.6011V78.1722C130.503 77.9525 130.319 77.7744 130.091 77.7744Z" fill="black"/>
</g>
<path id="Vector_97" d="M130.031 80.3853V78.3916H128.546V80.3853H130.031Z" fill="#263238"/>
<g id="Group_34" opacity="0.5">
<path id="Vector_98" d="M130.031 80.3853V78.3916H128.546V80.3853H130.031Z" fill="black"/>
</g>
<path id="Vector_99" d="M128.027 71.0442C127.721 71.0442 127.469 70.8055 127.469 70.506C127.469 70.2065 127.716 69.9678 128.027 69.9678C128.337 69.9678 128.585 70.2065 128.585 70.506C128.585 70.8055 128.337 71.0442 128.027 71.0442Z" fill="#407BFF"/>
<g id="Group_35" opacity="0.5">
<path id="Vector_100" d="M128.019 71.0442C127.713 71.0442 127.461 70.8055 127.461 70.506C127.461 70.2065 127.708 69.9678 128.019 69.9678C128.33 69.9678 128.577 70.2065 128.577 70.506C128.577 70.8055 128.33 71.0442 128.019 71.0442Z" fill="white"/>
</g>
<path id="Vector_101" d="M127.927 72.1261C127.733 72.1261 127.578 71.9763 127.578 71.7891C127.578 71.6019 127.733 71.4521 127.927 71.4521C128.122 71.4521 128.277 71.6019 128.277 71.7891C128.277 71.9763 128.122 72.1261 127.927 72.1261Z" fill="#407BFF"/>
<g id="Group_36" opacity="0.5">
<path id="Vector_102" d="M127.927 72.1241C127.733 72.1241 127.578 71.9744 127.578 71.7872C127.578 71.6 127.733 71.4502 127.927 71.4502C128.122 71.4502 128.277 71.6 128.277 71.7872C128.277 71.9744 128.122 72.1241 127.927 72.1241Z" fill="white"/>
</g>
<path id="Vector_103" d="M129.933 76.3142H129.268C129.152 76.3142 129.055 76.2206 129.055 76.1083C129.055 75.9959 129.152 75.9023 129.268 75.9023H129.933C130.049 75.9023 130.146 75.9959 130.146 76.1083C130.146 76.1644 130.122 76.2159 130.083 76.2533C130.045 76.2908 129.991 76.3142 129.933 76.3142Z" fill="#407BFF"/>
<g id="Group_37" opacity="0.5">
<path id="Vector_104" d="M122.645 71.6352C123.039 71.0736 123.708 70.6992 124.465 70.6992C125.222 70.6992 125.892 71.0689 126.285 71.6352H122.641H122.645Z" fill="black"/>
</g>
<path id="Vector_105" opacity="0.5" d="M122.645 78.7158C123.039 79.2774 123.708 79.6518 124.465 79.6518C125.222 79.6518 125.892 79.2821 126.285 78.7158H122.641H122.645Z" fill="black"/>
<g id="Group_38">
<path id="Vector_106" d="M128.552 75.1771C128.552 77.3486 126.728 79.113 124.471 79.113C122.215 79.113 120.391 77.3533 120.391 75.1771C120.391 73.0009 122.215 71.2412 124.471 71.2412C126.728 71.2412 128.552 73.0009 128.552 75.1771ZM124.471 78.3923C126.315 78.3923 127.805 76.9508 127.805 75.1771C127.805 73.4034 126.31 71.9619 124.471 71.9619C122.632 71.9619 121.138 73.4034 121.138 75.1771C121.138 76.9508 122.632 78.3923 124.471 78.3923Z" fill="#407BFF"/>
<g id="Group_39" opacity="0.3">
<path id="Vector_107" d="M128.552 75.1771C128.552 77.3486 126.728 79.113 124.471 79.113C122.215 79.113 120.391 77.3533 120.391 75.1771C120.391 73.0009 122.215 71.2412 124.471 71.2412C126.728 71.2412 128.552 73.0009 128.552 75.1771ZM124.471 78.3923C126.315 78.3923 127.805 76.9508 127.805 75.1771C127.805 73.4034 126.31 71.9619 124.471 71.9619C122.632 71.9619 121.138 73.4034 121.138 75.1771C121.138 76.9508 122.632 78.3923 124.471 78.3923Z" fill="white"/>
</g>
<g id="Group_40" opacity="0.4">
<path id="Vector_108" d="M127.808 75.1781C127.808 76.9565 126.313 78.3932 124.474 78.3932C122.635 78.3932 121.141 76.9518 121.141 75.1781C121.141 73.4043 122.635 71.9629 124.474 71.9629C126.313 71.9629 127.808 73.4043 127.808 75.1781ZM124.474 76.6382C125.309 76.6382 125.988 75.983 125.988 75.1781C125.988 74.3731 125.309 73.7179 124.474 73.7179C123.64 73.7179 122.96 74.3731 122.96 75.1781C122.96 75.983 123.64 76.6382 124.474 76.6382Z" fill="black"/>
</g>
<g id="Group_41" opacity="0.2">
<path id="Vector_109" d="M125.989 75.1779C125.989 75.9829 125.309 76.6381 124.475 76.6381C123.64 76.6381 122.961 75.9829 122.961 75.1779C122.961 74.373 123.64 73.7178 124.475 73.7178C125.309 73.7178 125.989 74.373 125.989 75.1779Z" fill="black"/>
</g>
</g>
</g>
</g>
<g id="mirrorless camera">
<path id="Vector_110" d="M127.945 80.6015V78.1679C127.945 77.8824 128.188 77.6484 128.484 77.6484H130.105C130.401 77.6484 130.643 77.8824 130.643 78.1679V80.6015C130.643 80.887 130.401 81.121 130.105 81.121H128.484C128.188 81.121 127.945 80.887 127.945 80.6015ZM130.386 78.1679C130.386 78.0182 130.26 77.8965 130.105 77.8965H128.484C128.329 77.8965 128.202 78.0182 128.202 78.1679V80.6015C128.202 80.7513 128.329 80.873 128.484 80.873H130.105C130.26 80.873 130.386 80.7513 130.386 80.6015V78.1679Z" fill="#263238"/>
<path id="Vector_111" d="M127.945 80.6015V78.1679C127.945 77.8824 128.188 77.6484 128.484 77.6484H130.105C130.401 77.6484 130.643 77.8824 130.643 78.1679V80.6015C130.643 80.887 130.401 81.121 130.105 81.121H128.484C128.188 81.121 127.945 80.887 127.945 80.6015ZM130.386 78.1679C130.386 78.0182 130.26 77.8965 130.105 77.8965H128.484C128.329 77.8965 128.202 78.0182 128.202 78.1679V80.6015C128.202 80.7513 128.329 80.873 128.484 80.873H130.105C130.26 80.873 130.386 80.7513 130.386 80.6015V78.1679Z" fill="#263238"/>
<g id="Group_42" opacity="0.4">
<path id="Vector_112" d="M127.945 80.6005V78.1669C127.945 77.8815 128.188 77.6475 128.484 77.6475H130.105C130.401 77.6475 130.643 77.8815 130.643 78.1669V80.6005C130.643 80.886 130.401 81.12 130.105 81.12H128.484C128.188 81.12 127.945 80.886 127.945 80.6005ZM130.386 78.1669C130.386 78.0172 130.26 77.8955 130.105 77.8955H128.484C128.329 77.8955 128.202 78.0172 128.202 78.1669V80.6005C128.202 80.7503 128.329 80.872 128.484 80.872H130.105C130.26 80.872 130.386 80.7503 130.386 80.6005V78.1669Z" fill="white"/>
</g>
<g id="Group_43" opacity="0.5">
<path id="Vector_113" d="M128.93 76.1098C128.93 75.9273 129.08 75.7822 129.269 75.7822H129.934C130.123 75.7822 130.274 75.9273 130.274 76.1098C130.274 76.2924 130.123 76.4374 129.934 76.4374H129.269C129.08 76.4374 128.93 76.2877 128.93 76.1098ZM130.017 76.1098C130.017 76.0677 129.978 76.0303 129.934 76.0303H129.269C129.226 76.0303 129.187 76.0677 129.187 76.1098C129.187 76.152 129.226 76.1894 129.269 76.1894H129.934C129.978 76.1894 130.017 76.152 130.017 76.1098Z" fill="black"/>
</g>
<g id="Group_44">
<path id="Vector_114" d="M120.258 75.1787C120.258 72.9416 122.145 71.1211 124.465 71.1211C126.784 71.1211 128.672 72.9416 128.672 75.1787C128.672 77.4157 126.784 79.2362 124.465 79.2362C122.145 79.2362 120.258 77.4157 120.258 75.1787ZM128.414 75.1787C128.414 73.0773 126.643 71.3691 124.465 71.3691C122.286 71.3691 120.515 73.0773 120.515 75.1787C120.515 77.28 122.286 78.9882 124.465 78.9882C126.643 78.9882 128.414 77.28 128.414 75.1787Z" fill="#407BFF"/>
<g id="Group_45" opacity="0.8">
<path id="Vector_115" d="M120.258 75.1787C120.258 72.9416 122.145 71.1211 124.465 71.1211C126.784 71.1211 128.672 72.9416 128.672 75.1787C128.672 77.4157 126.784 79.2362 124.465 79.2362C122.145 79.2362 120.258 77.4157 120.258 75.1787ZM128.414 75.1787C128.414 73.0773 126.643 71.3691 124.465 71.3691C122.286 71.3691 120.515 73.0773 120.515 75.1787C120.515 77.28 122.286 78.9882 124.465 78.9882C126.643 78.9882 128.414 77.28 128.414 75.1787Z" fill="white"/>
</g>
<path id="Vector_116" d="M121.008 75.1794C121.008 73.3402 122.561 71.8379 124.472 71.8379C126.384 71.8379 127.937 73.3355 127.937 75.1794C127.937 77.0233 126.384 78.5209 124.472 78.5209C122.561 78.5209 121.008 77.0233 121.008 75.1794ZM127.675 75.1794C127.675 73.4759 126.239 72.0859 124.467 72.0859C122.696 72.0859 121.26 73.4712 121.26 75.1794C121.26 76.8876 122.696 78.2729 124.467 78.2729C126.239 78.2729 127.675 76.8876 127.675 75.1794Z" fill="#263238"/>
<path id="Vector_117" d="M123.445 75.1783C123.445 74.6401 123.901 74.2002 124.459 74.2002C125.017 74.2002 125.474 74.6401 125.474 75.1783C125.474 75.7165 125.017 76.1564 124.459 76.1564C123.901 76.1564 123.445 75.7165 123.445 75.1783ZM125.216 75.1783C125.216 74.7758 124.877 74.4482 124.459 74.4482C124.042 74.4482 123.702 74.7758 123.702 75.1783C123.702 75.5808 124.042 75.9084 124.459 75.9084C124.877 75.9084 125.216 75.5808 125.216 75.1783Z" fill="#263238"/>
</g>
<path id="Vector_118" d="M122.367 75.1778C122.367 74.0593 123.309 73.1514 124.468 73.1514C125.628 73.1514 126.569 74.0593 126.569 75.1778C126.569 76.2963 125.628 77.2043 124.468 77.2043C123.309 77.2043 122.367 76.2963 122.367 75.1778ZM126.317 75.1778C126.317 74.195 125.487 73.3994 124.473 73.3994C123.459 73.3994 122.629 74.1997 122.629 75.1778C122.629 76.1559 123.459 76.9562 124.473 76.9562C125.487 76.9562 126.317 76.1559 126.317 75.1778Z" fill="#263238"/>
<g id="Group_46" opacity="0.2">
<path id="Vector_119" d="M124.336 77.082C124.336 77.0118 124.394 76.9603 124.462 76.9603C125.481 76.9603 126.306 76.16 126.306 75.1819C126.306 74.2038 125.476 73.4035 124.462 73.4035C124.389 73.4035 124.336 73.3474 124.336 73.2818C124.336 73.2163 124.394 73.1602 124.462 73.1602C125.622 73.1602 126.563 74.0681 126.563 75.1866C126.563 76.3051 125.622 77.213 124.462 77.213C124.389 77.213 124.336 77.1569 124.336 77.0914V77.082Z" fill="white"/>
</g>
</g>
</g>
<path id="Vector_120" opacity="0.2" d="M130.032 78.3936H128.547C128.547 78.3936 129.842 78.7212 129.978 79.704C130.08 80.4574 130.032 78.3936 130.032 78.3936Z" fill="white"/>
<path id="Vector_121" d="M121.008 75.1775C121.008 73.3382 122.561 71.8359 124.472 71.8359C126.384 71.8359 127.937 73.3335 127.937 75.1775C127.937 77.0214 126.384 78.519 124.472 78.519C122.561 78.519 121.008 77.0214 121.008 75.1775ZM127.675 75.1775C127.675 73.4739 126.239 72.084 124.467 72.084C122.696 72.084 121.26 73.4693 121.26 75.1775C121.26 76.8857 122.696 78.271 124.467 78.271C126.239 78.271 127.675 76.8857 127.675 75.1775Z" fill="#407BFF"/>
<g id="Group_47" opacity="0.6">
<path id="Vector_122" d="M121.008 75.1775C121.008 73.3382 122.561 71.8359 124.472 71.8359C126.384 71.8359 127.937 73.3335 127.937 75.1775C127.937 77.0214 126.384 78.519 124.472 78.519C122.561 78.519 121.008 77.0214 121.008 75.1775ZM127.675 75.1775C127.675 73.4739 126.239 72.084 124.467 72.084C122.696 72.084 121.26 73.4693 121.26 75.1775C121.26 76.8857 122.696 78.271 124.467 78.271C126.239 78.271 127.675 76.8857 127.675 75.1775Z" fill="white"/>
</g>
<g id="Group_48" opacity="0.1">
<path id="Vector_123" d="M129.297 65.017V67.708H128.685V64.5537H128.821C129.083 64.5537 129.297 64.7596 129.297 65.0124V65.017Z" fill="white"/>
</g>
<path id="Vector_124" opacity="0.1" d="M128.672 68.6307V67.7041H129.298V67.8351C129.298 68.2142 129.036 68.5325 128.672 68.6307Z" fill="white"/>
</g>
</g>
<path id="Vector_125" opacity="0.1" d="M124.279 76.8678C123.702 75.796 123.678 74.5231 124.212 73.4279C124.255 73.339 124.279 73.2875 124.279 73.2875C124.279 73.2829 124.279 73.2782 124.279 73.2688C124.391 72.6136 125.167 72.2907 125.779 72.6043C126.744 73.0957 127.395 74.0785 127.37 75.2017C127.351 76.2359 126.764 77.1345 125.9 77.6212C125.784 77.6868 125.658 77.7429 125.527 77.7569C124.954 77.8365 124.377 77.4621 124.27 76.8678H124.279Z" fill="white"/>
</g>
<g id="Group_49">
<path id="Vector_126" d="M118.419 64.002H125.751C126.571 64.002 127.342 64.3764 127.827 65.0175L128.614 66.0471V67.9706C128.614 68.7428 127.958 69.3653 127.153 69.3559L122.572 69.2857C122.073 69.2763 121.587 69.15 121.151 68.9066L118.414 67.3903V64.0066L118.419 64.002Z" fill="#7F3E3B"/>
<path id="Vector_127" d="M118.939 64.0537C118.939 64.0537 97.9822 66.4873 95.6191 69.197C93.2561 71.9068 95.8763 74.8505 97.7202 75.1547C99.564 75.4589 119.997 67.3765 119.997 67.3765L118.939 64.0537Z" fill="#7F3E3B"/>
</g>
<g id="Group_50">
<path id="Vector_128" d="M138.017 81.7197L136.125 91.3418C136.125 91.3418 139.124 103.192 141.647 104.081C148.498 106.5 148.833 100.051 147.998 97.6318C147.479 96.1342 144.65 93.1015 143.927 89.6196C143.035 85.3187 140.361 82.5808 138.745 81.9537L138.022 81.7197H138.017Z" fill="#407BFF"/>
<path id="Vector_129" d="M143.006 103.095C139.561 104.031 128.847 85.1701 128.11 83.8737L123.437 84.5102L120.788 83.5649C120.54 83.4432 120.385 83.1951 120.399 82.9284L120.477 81.2202C120.501 80.6164 120.691 80.2654 121.132 80.4526C122.035 80.7662 122.99 80.9253 123.951 80.9253H125.572C126.61 80.5743 127.697 80.3965 128.794 80.3965H128.799C129.187 80.3965 129.556 80.5416 129.842 80.7943C132.152 82.8254 142.996 92.4428 144.787 95.0356C146.801 97.9419 146.393 102.177 143.006 103.095Z" fill="#7F3E3B"/>
</g>
</g>
<g id="Group_51">
<g id="Group_52">
<g id="Group_53">
<path id="Vector_130" d="M151.294 155.266L149.828 167.733H156.728L158.795 155.977L151.294 155.266Z" fill="#7F3E3B"/>
<g id="Group_54">
<path id="Vector_131" d="M157.15 165.417H149.838C149.566 165.417 149.333 165.599 149.285 165.857L148.173 171.594C148.057 172.189 148.547 172.755 149.178 172.741C151.813 172.699 155.622 172.549 158.936 172.549C162.813 172.549 162.832 172.755 167.379 172.755C170.125 172.755 170.79 170.073 169.635 169.83C164.356 168.725 163.414 168.608 158.785 165.913C158.281 165.618 157.732 165.407 157.155 165.407L157.15 165.417Z" fill="#263238"/>
<path id="Vector_132" d="M159.925 166.493C160.784 166.493 161.609 166.38 161.875 166.006C161.968 165.875 162.036 165.655 161.837 165.337C161.725 165.159 161.55 165.037 161.322 164.981C160.197 164.691 157.906 165.973 157.809 166.029C157.751 166.062 157.727 166.123 157.736 166.189C157.751 166.249 157.8 166.301 157.867 166.315C158.299 166.399 159.129 166.497 159.93 166.497L159.925 166.493ZM160.939 165.239C161.051 165.239 161.152 165.248 161.245 165.271C161.39 165.309 161.497 165.379 161.565 165.487C161.686 165.678 161.647 165.772 161.609 165.824C161.313 166.24 159.619 166.249 158.367 166.081C158.979 165.772 160.153 165.239 160.939 165.239Z" fill="#407BFF"/>
<path id="Vector_133" d="M157.887 166.315C157.887 166.315 157.93 166.315 157.95 166.301C158.746 165.95 160.293 164.555 160.148 163.825C160.114 163.652 159.978 163.441 159.541 163.399C159.216 163.366 158.925 163.455 158.673 163.661C157.848 164.335 157.727 166.076 157.727 166.151C157.727 166.207 157.751 166.259 157.799 166.291C157.828 166.31 157.858 166.32 157.892 166.32L157.887 166.315ZM159.425 163.699C159.454 163.699 159.488 163.699 159.522 163.703C159.808 163.731 159.832 163.839 159.837 163.877C159.925 164.316 158.877 165.412 158.071 165.889C158.139 165.379 158.338 164.34 158.881 163.9C159.046 163.764 159.226 163.699 159.425 163.699Z" fill="#407BFF"/>
</g>
<path id="Vector_134" d="M141.019 126.92L131.848 139.387L129.116 139.696L128.854 139.724L125.734 140.07L117.233 134.225L109.571 140.393C108.232 136.345 107.824 126.709 108.174 123.611C108.605 119.773 110.309 113.685 110.309 113.685L135.676 114.602L135.812 115.575L136.399 116.858L141.019 126.92Z" fill="#263238"/>
<path id="Vector_135" d="M167.57 116.398C167.536 115.71 167.448 114.942 167.181 113.978L167.075 113.609L166.929 113.216C166.837 112.963 166.706 112.663 166.565 112.382C166.264 111.788 165.9 111.166 165.338 110.529C164.789 109.897 164.129 109.237 163.314 108.812C158.083 106.093 131.561 118.972 131.561 118.972C130.178 119.562 128.781 120.119 127.359 120.661C129.266 123.203 130.256 126.231 130.256 129.282C130.256 131.042 129.926 132.806 129.261 134.5L129.13 134.832L128.344 136.84L127.281 139.531C127.281 139.531 127.907 139.718 129.067 139.793C130.435 139.887 132.531 139.821 135.234 139.115C137.398 138.553 140.678 137.191 144.177 135.221C146.855 133.709 149.665 131.837 152.188 129.694C152.115 132.694 149.194 159.468 149.194 159.468L159.18 160.179C159.18 160.179 166.25 128.121 167.002 122.552L167.278 120.465L167.414 119.417L167.487 118.897C167.497 118.803 167.507 118.743 167.521 118.616L167.55 118.218C167.584 117.666 167.604 117.077 167.565 116.403L167.57 116.398Z" fill="#263238"/>
<path id="Vector_136" opacity="0.2" d="M136.401 116.857C134.281 117.75 127.483 120.591 128.56 119.828C132.466 117.048 134.757 115.972 135.814 115.574L136.401 116.857Z" fill="black"/>
</g>
<g id="Group_55">
<path id="Vector_137" d="M85.0272 153.793L83.1719 159.407L106.019 166.431L107.874 160.818L85.0272 153.793Z" fill="#7F3E3B"/>
<path id="Vector_138" d="M86.9581 162.716L89.5832 155.153C89.6802 154.873 89.5589 154.568 89.2921 154.423L83.3092 151.213C82.6881 150.881 81.8875 151.185 81.6691 151.84C80.7715 154.582 79.573 158.575 78.3793 162C76.9867 166.011 77.5447 163.68 75.9144 168.379C74.9294 171.225 77.6709 172.872 78.3551 171.758C81.4799 166.694 81.1597 168.037 85.813 164.219C86.3176 163.802 86.7495 163.311 86.9581 162.712V162.716Z" fill="#263238"/>
<path id="Vector_139" d="M84.7596 165.197C84.4491 166.086 84.2841 166.98 84.5995 167.387C84.7111 167.528 84.9343 167.682 85.3565 167.588C85.5942 167.537 85.7883 167.401 85.9387 167.181C86.6666 166.124 86.06 163.288 86.0358 163.171C86.0212 163.1 85.963 163.049 85.8854 163.04C85.8126 163.03 85.7349 163.068 85.701 163.128C85.4535 163.545 85.0459 164.369 84.7596 165.197ZM85.7883 166.699C85.7495 166.816 85.701 166.919 85.6379 167.003C85.5409 167.144 85.4293 167.223 85.2837 167.256C85.0314 167.312 84.9392 167.237 84.8906 167.181C84.5316 166.727 85.1284 164.972 85.7689 163.737C85.8902 164.476 86.0649 165.89 85.7835 166.699H85.7883Z" fill="#407BFF"/>
<path id="Vector_140" d="M85.6816 163.16C85.6816 163.16 85.6719 163.207 85.6719 163.231C85.7738 164.181 86.7733 166.282 87.637 166.39C87.8408 166.413 88.1271 166.352 88.3309 165.917C88.4813 165.594 88.491 165.257 88.3503 164.925C87.8991 163.825 86.0067 163.081 85.9242 163.053C85.866 163.029 85.798 163.039 85.7447 163.076C85.7155 163.1 85.6913 163.128 85.6816 163.16ZM88.0398 165.692C88.0301 165.725 88.0155 165.758 88.001 165.791C87.8651 166.076 87.7389 166.062 87.6953 166.057C87.1761 165.992 86.3318 164.513 86.0892 163.507C86.6278 163.759 87.7147 164.34 88.0107 165.061C88.098 165.276 88.1077 165.486 88.0349 165.692H88.0398Z" fill="#407BFF"/>
</g>
<path id="Vector_141" d="M132.46 167.58C132.178 168.193 131.775 168.89 131.174 169.601C130.587 170.313 129.757 171.029 128.806 171.553C127.845 172.091 126.812 172.4 125.928 172.522C125.691 172.569 125.492 172.587 125.278 172.601C125.06 172.615 124.851 172.629 124.672 172.629H124.385C124.303 172.629 124.157 172.629 124.157 172.629L123.992 172.611L121.377 172.335C117.937 171.904 114.637 171.272 111.396 170.565C108.155 169.854 104.991 169.04 101.842 168.188C100.274 167.748 98.7024 167.318 97.1496 166.854L94.7963 166.166L92.375 165.432L96.1549 155.126C96.4363 155.234 96.81 155.355 97.1496 155.468C97.4941 155.589 97.8435 155.702 98.2026 155.814C98.911 156.034 99.6291 156.245 100.347 156.451C101.798 156.844 103.249 157.237 104.714 157.555C104.773 157.569 104.831 157.578 104.889 157.592C107.762 158.243 110.658 158.748 113.536 159.099C115.021 159.277 116.5 159.408 117.966 159.497C117.951 159.465 117.942 159.432 117.927 159.394C117.767 158.992 117.597 158.58 117.418 158.163C116.889 156.928 116.297 155.66 115.676 154.382C115.03 153.048 111.677 147.432 109.567 140.398C106.616 130.565 108.053 124.299 108.863 121.28L125.016 121.687C125.773 125.548 127.457 132.344 129.111 139.701C130.921 147.75 132.692 156.474 133.168 162.736C133.226 163.541 133.013 166.372 132.46 167.584V167.58Z" fill="#263238"/>
<path id="Vector_142" opacity="0.2" d="M118.807 162.736L104.891 157.593C107.763 158.243 110.66 158.749 113.537 159.1C115.022 159.278 116.502 159.409 117.972 159.498C117.958 159.465 117.948 159.427 117.934 159.395H117.982L118.817 162.736H118.807Z" fill="black"/>
</g>
<path id="Vector_143" opacity="0.2" d="M143.538 135.424C140.224 137.291 137.114 138.583 135.062 139.116C132.5 139.786 130.51 139.847 129.215 139.758C129.147 139.739 126.531 128.867 126.531 128.867C126.531 128.867 126.706 133.706 131.548 136.374C133.567 137.488 138.468 137.375 143.538 135.424Z" fill="black"/>
</g>
</g>
<g id="Group_56">
<g id="Group_57">
<g id="Group_58">
<path id="Vector_144" d="M180.808 83.3086H158.755C157.867 83.3086 157.148 83.9685 157.148 84.7828V101.584C157.148 102.398 157.867 103.058 158.755 103.058H180.808C181.696 103.058 182.414 102.398 182.414 101.584V84.7828C182.414 83.9685 181.696 83.3086 180.808 83.3086Z" fill="#407BFF"/>
<g id="Group_59" opacity="0.5">
<path id="Vector_145" d="M180.808 83.3086H158.755C157.867 83.3086 157.148 83.9685 157.148 84.7828V101.584C157.148 102.398 157.867 103.058 158.755 103.058H180.808C181.696 103.058 182.414 102.398 182.414 101.584V84.7828C182.414 83.9685 181.696 83.3086 180.808 83.3086Z" fill="white"/>
</g>
</g>
<path id="Vector_146" d="M180.858 102.167C181.188 102.167 181.46 101.919 181.46 101.615V84.7437C181.46 84.4395 181.188 84.1914 180.858 84.1914H158.727C158.397 84.1914 158.125 84.4395 158.125 84.7437V101.615C158.125 101.919 158.397 102.167 158.727 102.167H180.858Z" fill="#407BFF"/>
<path id="Vector_147" opacity="0.3" d="M180.858 102.167C181.188 102.167 181.46 101.919 181.46 101.615V84.7437C181.46 84.4395 181.188 84.1914 180.858 84.1914H158.727C158.397 84.1914 158.125 84.4395 158.125 84.7437V101.615C158.125 101.919 158.397 102.167 158.727 102.167H180.858Z" fill="white"/>
</g>
<g id="Group_60">
<g id="Group_61" opacity="0.7">
<path id="Vector_148" d="M164.367 90.4189V90.5921V96.3064L169.972 98.8617V92.6466L164.367 90.4189Z" fill="white"/>
</g>
<g id="Group_62" opacity="0.5">
<path id="Vector_149" d="M175.581 90.4189V90.5921V96.3064L169.977 98.8617V92.6466L175.581 90.4189Z" fill="white"/>
</g>
<path id="Vector_150" opacity="0.9" d="M164.367 90.4188L169.972 92.6464L175.576 90.4188L169.972 87.9805L164.367 90.4188Z" fill="white"/>
</g>
</g>
<g id="Group_63">
<g id="Group_64">
<g id="Group_65">
<path id="Vector_151" d="M90.7221 105.709H68.6686C67.7806 105.709 67.0625 106.369 67.0625 107.183V123.984C67.0625 124.799 67.7806 125.459 68.6686 125.459H90.7221C91.6101 125.459 92.3282 124.799 92.3282 123.984V107.183C92.3282 106.369 91.6101 105.709 90.7221 105.709Z" fill="#407BFF"/>
<g id="Group_66" opacity="0.5">
<path id="Vector_152" d="M90.7221 105.709H68.6686C67.7806 105.709 67.0625 106.369 67.0625 107.183V123.984C67.0625 124.799 67.7806 125.459 68.6686 125.459H90.7221C91.6101 125.459 92.3282 124.799 92.3282 123.984V107.183C92.3282 106.369 91.6101 105.709 90.7221 105.709Z" fill="white"/>
</g>
</g>
<path id="Vector_153" d="M90.7641 124.569C91.0941 124.569 91.3658 124.321 91.3658 124.016V107.145C91.3658 106.841 91.0941 106.593 90.7641 106.593H68.6329C68.303 106.593 68.0312 106.841 68.0312 107.145V124.016C68.0312 124.321 68.303 124.569 68.6329 124.569H90.7641Z" fill="#407BFF"/>
<path id="Vector_154" opacity="0.3" d="M90.7641 124.569C91.0941 124.569 91.3658 124.321 91.3658 124.016V107.145C91.3658 106.841 91.0941 106.593 90.7641 106.593H68.6329C68.303 106.593 68.0312 106.841 68.0312 107.145V124.016C68.0312 124.321 68.303 124.569 68.6329 124.569H90.7641Z" fill="white"/>
</g>
<g id="Group_67">
<g id="Group_68" opacity="0.7">
<path id="Vector_155" d="M74.2734 112.822V112.991V118.71L79.8778 121.265V115.045L74.2734 112.822Z" fill="white"/>
</g>
<g id="Group_69" opacity="0.5">
<path id="Vector_156" d="M85.4794 112.822V112.991V118.71L79.875 121.265V115.045L85.4794 112.822Z" fill="white"/>
</g>
<path id="Vector_157" opacity="0.9" d="M74.2734 112.822L79.8778 115.045L85.4822 112.822L79.8778 110.379L74.2734 112.822Z" fill="white"/>
</g>
</g>
<g id="Group_70">
<g id="Group_71">
<g id="Group_72">
<path id="Vector_158" d="M144.724 44.2047H167.059C167.957 44.2047 168.689 43.5355 168.689 42.7118V25.7C168.689 24.8763 167.962 24.207 167.059 24.207H144.724C143.826 24.207 143.094 24.8763 143.094 25.7V42.7118C143.094 43.5355 143.822 44.2047 144.724 44.2047Z" fill="#407BFF"/>
<g id="Group_73" opacity="0.5">
<path id="Vector_159" d="M144.724 44.2047H167.059C167.957 44.2047 168.689 43.5355 168.689 42.7118V25.7C168.689 24.8763 167.962 24.207 167.059 24.207H144.724C143.826 24.207 143.094 24.8763 143.094 25.7V42.7118C143.094 43.5355 143.822 44.2047 144.724 44.2047Z" fill="white"/>
</g>
</g>
<path id="Vector_160" d="M144.69 25.1064C144.355 25.1064 144.078 25.3545 144.078 25.6634V42.7501C144.078 43.059 144.35 43.307 144.69 43.307H167.102C167.437 43.307 167.713 43.059 167.713 42.7501V25.668C167.713 25.3592 167.442 25.1111 167.102 25.1111H144.69V25.1064Z" fill="#407BFF"/>
<path id="Vector_161" opacity="0.3" d="M144.69 25.1064C144.355 25.1064 144.078 25.3545 144.078 25.6634V42.7501C144.078 43.059 144.35 43.307 144.69 43.307H167.102C167.437 43.307 167.713 43.059 167.713 42.7501V25.668C167.713 25.3592 167.442 25.1111 167.102 25.1111H144.69V25.1064Z" fill="white"/>
<path id="Vector_162" opacity="0.6" d="M150.253 33.6504L144.086 42.3505V42.753C144.086 43.0619 144.358 43.3099 144.697 43.3099H157.105L150.258 33.6504H150.253Z" fill="white"/>
<path id="Vector_163" opacity="0.9" d="M157.488 29.3781C157.488 30.1831 156.774 30.8383 155.896 30.8383C155.018 30.8383 154.305 30.1831 154.305 29.3781C154.305 28.5732 155.018 27.918 155.896 27.918C156.774 27.918 157.488 28.5732 157.488 29.3781Z" fill="white"/>
</g>
<path id="Vector_164" opacity="0.7" d="M167.713 40.9654L161.352 30.8379L153.516 43.3054H167.107C167.442 43.3054 167.718 43.0574 167.718 42.7485V40.9654H167.713Z" fill="white"/>
</g>
<g id="Group_74">
<g id="Group_75">
<path id="Vector_165" d="M78.6114 77.2033C77.6846 75.9865 77.1169 74.6246 77.015 73.216L76.816 70.4922C76.816 70.4922 76.2386 74.6574 74.7247 76.2299C74.4724 76.492 74.1861 76.7213 73.8804 76.9412C72.8275 76.6324 71.8667 76.1456 71.0612 75.4764L68.8971 73.6793C68.8971 73.6793 70.8526 76.1269 71.4834 78.1674C67.8684 79.4778 63.4141 79.3795 63.4141 79.3795C63.4141 79.3795 67.7035 80.5121 70.8235 82.7304C69.2465 86.0907 66.0391 89.0204 66.0391 89.0204C66.0391 89.0204 69.9307 86.9144 73.7931 86.3949C74.3268 88.4681 73.9047 91.5382 73.9047 91.5382L74.8411 88.9595C75.1905 87.9954 75.7679 87.125 76.5249 86.3574C76.9034 86.4042 77.2721 86.4744 77.6263 86.5774C79.7662 87.2279 82.4446 90.5694 82.4446 90.5694L81.1928 88.1078C80.5474 86.8348 80.3242 85.3887 80.494 83.8957C82.071 83.3248 83.8664 83.0159 85.7781 83.0346C88.2965 83.0627 90.3781 83.0533 90.4363 82.9597C90.4072 82.8521 88.4032 82.3186 85.9625 81.7055C84.4147 81.3171 83.0124 80.7274 81.7896 79.9879C82.4592 78.7711 83.3714 77.5964 84.5117 76.5341C86.307 74.854 87.7724 73.4453 87.7385 73.3376C87.6414 73.2815 85.8267 74.2549 83.6577 75.467C82.0079 76.3843 80.2902 76.9646 78.6211 77.208L78.6114 77.2033Z" fill="#407BFF"/>
<path id="Vector_166" opacity="0.7" d="M78.6114 77.2033C77.6846 75.9865 77.1169 74.6246 77.015 73.216L76.816 70.4922C76.816 70.4922 76.2386 74.6574 74.7247 76.2299C74.4724 76.492 74.1861 76.7213 73.8804 76.9412C72.8275 76.6324 71.8667 76.1456 71.0612 75.4764L68.8971 73.6793C68.8971 73.6793 70.8526 76.1269 71.4834 78.1674C67.8684 79.4778 63.4141 79.3795 63.4141 79.3795C63.4141 79.3795 67.7035 80.5121 70.8235 82.7304C69.2465 86.0907 66.0391 89.0204 66.0391 89.0204C66.0391 89.0204 69.9307 86.9144 73.7931 86.3949C74.3268 88.4681 73.9047 91.5382 73.9047 91.5382L74.8411 88.9595C75.1905 87.9954 75.7679 87.125 76.5249 86.3574C76.9034 86.4042 77.2721 86.4744 77.6263 86.5774C79.7662 87.2279 82.4446 90.5694 82.4446 90.5694L81.1928 88.1078C80.5474 86.8348 80.3242 85.3887 80.494 83.8957C82.071 83.3248 83.8664 83.0159 85.7781 83.0346C88.2965 83.0627 90.3781 83.0533 90.4363 82.9597C90.4072 82.8521 88.4032 82.3186 85.9625 81.7055C84.4147 81.3171 83.0124 80.7274 81.7896 79.9879C82.4592 78.7711 83.3714 77.5964 84.5117 76.5341C86.307 74.854 87.7724 73.4453 87.7385 73.3376C87.6414 73.2815 85.8267 74.2549 83.6577 75.467C82.0079 76.3843 80.2902 76.9646 78.6211 77.208L78.6114 77.2033Z" fill="white"/>
</g>
<g id="Group_76">
<path id="Vector_167" d="M106.275 40.9228C108.007 39.7622 109.837 39.0649 111.637 38.9198L115.019 38.6483C115.019 38.6483 109.89 38.0259 108.032 36.2522C107.721 35.9573 107.454 35.6157 107.202 35.26C107.731 34.0385 108.463 32.9434 109.405 32.0495L111.855 29.7142C111.855 29.7142 108.609 31.7968 105.892 32.4473C104.625 28.2587 105.319 23.3213 105.319 23.3213C105.319 23.3213 103.281 28.0013 99.7972 31.516C95.2555 29.4755 91.5241 25.4413 91.5241 25.4413C91.5241 25.4413 93.9212 30.2617 93.9745 35.0447C90.6944 35.7046 85.8907 35.1243 85.8907 35.1243L89.8161 36.3598C91.2476 36.8091 92.4849 37.5532 93.5087 38.5126C93.3631 38.9993 93.1885 39.4814 92.9507 39.9447C91.5047 42.7901 85.4297 46.6886 85.4297 46.6886L89.787 44.7651C91.9511 43.8104 94.2463 43.436 96.488 43.5764C97.0654 45.6169 97.211 47.985 96.8374 50.5777C96.3327 54.069 95.9543 57.0174 96.095 57.0829C96.2697 57.0267 97.4633 54.1111 98.8171 50.6807C99.6517 48.5653 100.743 46.6605 101.99 45.0272C103.611 45.8088 105.125 46.8898 106.445 48.2611C108.512 50.4092 110.239 52.1408 110.38 52.0847C110.467 51.9489 109.371 49.7353 107.998 47.0817C106.959 45.074 106.396 42.9633 106.27 40.9181L106.275 40.9228Z" fill="#407BFF"/>
<path id="Vector_168" opacity="0.7" d="M106.275 40.9228C108.007 39.7622 109.837 39.0649 111.637 38.9198L115.019 38.6483C115.019 38.6483 109.89 38.0259 108.032 36.2522C107.721 35.9573 107.454 35.6157 107.202 35.26C107.731 34.0385 108.463 32.9434 109.405 32.0495L111.855 29.7142C111.855 29.7142 108.609 31.7968 105.892 32.4473C104.625 28.2587 105.319 23.3213 105.319 23.3213C105.319 23.3213 103.281 28.0013 99.7972 31.516C95.2555 29.4755 91.5241 25.4413 91.5241 25.4413C91.5241 25.4413 93.9212 30.2617 93.9745 35.0447C90.6944 35.7046 85.8907 35.1243 85.8907 35.1243L89.8161 36.3598C91.2476 36.8091 92.4849 37.5532 93.5087 38.5126C93.3631 38.9993 93.1885 39.4814 92.9507 39.9447C91.5047 42.7901 85.4297 46.6886 85.4297 46.6886L89.787 44.7651C91.9511 43.8104 94.2463 43.436 96.488 43.5764C97.0654 45.6169 97.211 47.985 96.8374 50.5777C96.3327 54.069 95.9543 57.0174 96.095 57.0829C96.2697 57.0267 97.4633 54.1111 98.8171 50.6807C99.6517 48.5653 100.743 46.6605 101.99 45.0272C103.611 45.8088 105.125 46.8898 106.445 48.2611C108.512 50.4092 110.239 52.1408 110.38 52.0847C110.467 51.9489 109.371 49.7353 107.998 47.0817C106.959 45.074 106.396 42.9633 106.27 40.9181L106.275 40.9228Z" fill="white"/>
</g>
<g id="Group_77">
<path id="Vector_169" d="M161.708 62.7873C161.194 61.6968 160.98 60.5502 161.135 59.4317L161.431 57.2695C161.431 57.2695 160.296 60.4379 158.865 61.4394C158.627 61.6032 158.365 61.7436 158.093 61.87C157.326 61.4675 156.666 60.948 156.157 60.3022L154.784 58.5706C154.784 58.5706 155.895 60.7749 156.041 62.469C153.032 62.9511 149.602 62.2023 149.602 62.2023C149.602 62.2023 152.731 63.728 154.774 65.9322C152.998 68.3237 150.033 70.1302 150.033 70.1302C150.033 70.1302 153.391 69.0678 156.463 69.241C156.535 70.9398 155.696 73.2752 155.696 73.2752L156.846 71.3985C157.273 70.7012 157.87 70.1021 158.578 69.6154C158.865 69.709 159.141 69.8166 159.393 69.9524C160.941 70.7807 162.46 73.7947 162.46 73.7947L161.897 71.684C161.606 70.5935 161.674 69.4282 162.052 68.2863C163.367 68.0757 164.809 68.1038 166.279 68.408C168.225 68.8058 169.836 69.1146 169.894 69.0491C169.894 68.9602 168.428 68.2442 166.643 67.3971C165.512 66.8636 164.522 66.1896 163.702 65.4315C164.425 64.5844 165.323 63.8028 166.381 63.1383C168.05 62.0946 169.413 61.2148 169.404 61.1259C169.336 61.065 167.773 61.5564 165.895 62.1742C164.469 62.6469 163.042 62.8387 161.713 62.7826L161.708 62.7873Z" fill="#407BFF"/>
<path id="Vector_170" opacity="0.7" d="M161.708 62.7873C161.194 61.6968 160.98 60.5502 161.135 59.4317L161.431 57.2695C161.431 57.2695 160.296 60.4379 158.865 61.4394C158.627 61.6032 158.365 61.7436 158.093 61.87C157.326 61.4675 156.666 60.948 156.157 60.3022L154.784 58.5706C154.784 58.5706 155.895 60.7749 156.041 62.469C153.032 62.9511 149.602 62.2023 149.602 62.2023C149.602 62.2023 152.731 63.728 154.774 65.9322C152.998 68.3237 150.033 70.1302 150.033 70.1302C150.033 70.1302 153.391 69.0678 156.463 69.241C156.535 70.9398 155.696 73.2752 155.696 73.2752L156.846 71.3985C157.273 70.7012 157.87 70.1021 158.578 69.6154C158.865 69.709 159.141 69.8166 159.393 69.9524C160.941 70.7807 162.46 73.7947 162.46 73.7947L161.897 71.684C161.606 70.5935 161.674 69.4282 162.052 68.2863C163.367 68.0757 164.809 68.1038 166.279 68.408C168.225 68.8058 169.836 69.1146 169.894 69.0491C169.894 68.9602 168.428 68.2442 166.643 67.3971C165.512 66.8636 164.522 66.1896 163.702 65.4315C164.425 64.5844 165.323 63.8028 166.381 63.1383C168.05 62.0946 169.413 61.2148 169.404 61.1259C169.336 61.065 167.773 61.5564 165.895 62.1742C164.469 62.6469 163.042 62.8387 161.713 62.7826L161.708 62.7873Z" fill="white"/>
</g>
</g>
</g>
</svg>
