<svg width="228" height="165" viewBox="0 0 228 165" fill="none" xmlns="http://www.w3.org/2000/svg">
<path d="M204.921 151.6H189.844V151.709H204.921V151.6Z" fill="#EBEBEB"/>
<path d="M150.893 152.789H146.938V152.899H150.893V152.789Z" fill="#EBEBEB"/>
<path d="M189.392 147.521H180.656V147.63H189.392V147.521Z" fill="#EBEBEB"/>
<path d="M43.6611 148.258H24V148.368H43.6611V148.258Z" fill="#EBEBEB"/>
<path d="M50.5925 148.258H47.7109V148.368H50.5925V148.258Z" fill="#EBEBEB"/>
<path d="M102.614 150.11H59.9688V150.22H102.614V150.11Z" fill="#EBEBEB"/>
<path d="M108.011 124.949H20.1071C18.6732 124.949 17.5078 123.825 17.5078 122.442V3.26682C17.5078 1.88377 18.6732 0.759766 20.1071 0.759766H108.011C109.445 0.759766 110.61 1.88377 110.61 3.26682V122.446C110.61 123.829 109.445 124.953 108.011 124.953V124.949ZM20.1071 0.873922C18.7369 0.873922 17.6216 1.94963 17.6216 3.27121V122.446C17.6216 123.768 18.7369 124.843 20.1071 124.843H108.011C109.381 124.843 110.496 123.768 110.496 122.446V3.26682C110.496 1.94524 109.381 0.869531 108.011 0.869531H20.1071V0.873922Z" fill="#EBEBEB"/>
<path d="M206.479 124.9H118.576C117.142 124.9 115.977 123.776 115.977 122.393V3.21799C115.977 1.83494 117.142 0.710938 118.576 0.710938H206.479C207.913 0.710938 209.079 1.83494 209.079 3.21799V122.393C209.079 123.776 207.913 124.9 206.479 124.9ZM118.576 0.820703C117.206 0.820703 116.09 1.89641 116.09 3.21799V122.393C116.09 123.714 117.206 124.79 118.576 124.79H206.479C207.85 124.79 208.965 123.714 208.965 122.393V3.21799C208.965 1.89641 207.85 0.820703 206.479 0.820703H118.576Z" fill="#EBEBEB"/>
<path d="M227.729 144.53H0.117188V144.64H227.729V144.53Z" fill="#EBEBEB"/>
<path d="M175.539 127.108V11.9854H173.195V127.108H175.539Z" fill="#E8E8E8"/>
<path d="M171.07 119.911L171.712 118.186H176.365L177.644 119.911H171.07Z" fill="#E8E8E8"/>
<path d="M165.859 125.504L167.007 126.746L173.143 133.354H173.612H173.653H175.064H175.105H175.574L175.123 132.871L175.064 132.805L174.358 132.046L173.653 131.286L173.534 131.159L173.143 130.737L168.067 125.262L166.952 124.063H166.806L165.859 125.504Z" fill="#E8E8E8"/>
<path d="M182.851 125.504L181.74 126.702L175.572 133.354H173.141V133.35L173.591 132.867L173.65 132.805L174.356 132.046L175.062 131.286L175.18 131.154L175.572 130.733L180.679 125.231L181.763 124.063H181.904L182.851 125.504Z" fill="#E8E8E8"/>
<path d="M193.963 141.93H192.993L182.059 126.747L180.998 125.276L177.133 119.911L175.891 118.186H177.616C178.057 118.186 178.463 118.396 178.695 118.756L182.223 124.109L183.17 125.549L193.968 141.93H193.963Z" fill="#E8E8E8"/>
<path d="M154.883 141.93L170.156 118.751C170.392 118.396 170.797 118.181 171.234 118.181H172.964L156.039 141.93H154.883Z" fill="#E8E8E8"/>
<path d="M54.2344 127.108L54.2344 11.9854H51.89L51.89 127.108H54.2344Z" fill="#E8E8E8"/>
<path d="M49.875 119.824L50.5123 118.094H55.1692L56.4484 119.824H49.875Z" fill="#E8E8E8"/>
<path d="M44.6641 125.461L45.8112 126.703L51.9476 133.311H52.4165H52.4575H53.8687H53.9096H54.3785L53.9279 132.824L53.8687 132.762L53.1631 132.003L52.4575 131.243L52.3391 131.116L51.9476 130.694L46.8719 125.219L45.7566 124.021H45.6109L44.6641 125.461Z" fill="#E8E8E8"/>
<path d="M61.6552 125.461L60.5445 126.659L54.3762 133.311H51.9453V133.307L52.396 132.824L52.4552 132.762L53.1608 132.003L53.8664 131.243L53.9847 131.111L54.3762 130.69L59.4838 125.188L60.5672 124.021H60.7084L61.6552 125.461Z" fill="#E8E8E8"/>
<path d="M72.4552 141.843H71.4855L60.5511 126.66L59.4904 125.19L55.6256 119.824L54.3828 118.099H56.1081C56.5497 118.099 56.9548 118.309 57.187 118.669L60.715 124.022L61.6618 125.462L72.4597 141.843H72.4552Z" fill="#E8E8E8"/>
<path d="M33.8672 141.843L49.1399 118.665C49.3766 118.309 49.7818 118.094 50.2188 118.094H51.9486L35.0235 141.843H33.8672Z" fill="#E8E8E8"/>
<path d="M166.592 15.6465H60.4609V120.473H166.592V15.6465Z" fill="#FAFAFA"/>
<path d="M173.981 13.0342H53.4375V15.2954H173.981V13.0342Z" fill="#E8E8E8"/>
<path d="M167.262 11.9854H59.4609L59.8069 17.5571H167.608L167.262 11.9854Z" fill="#F0F0F0"/>
<path d="M113.919 165C162.666 165 202.183 162.775 202.183 160.03C202.183 157.285 162.666 155.06 113.919 155.06C65.173 155.06 25.6562 157.285 25.6562 160.03C25.6562 162.775 65.173 165 113.919 165Z" fill="#F5F5F5"/>
<path d="M129.391 82.7445C127.365 89.2909 130.384 96.4037 129.095 103.117C128.831 104.504 128.367 105.879 127.497 107.007C125.836 109.154 100.357 109.088 98.6955 106.941C97.8214 105.813 97.3617 104.434 97.0976 103.051C95.8094 96.3335 98.8275 89.2207 96.8017 82.6786C96.4967 81.6951 96.0779 80.7292 95.9778 79.7062C95.732 77.2298 97.3617 74.9511 99.1734 73.1861C100.985 71.421 103.107 69.8536 104.299 67.6539C104.864 66.6133 105.196 65.4761 105.747 64.4312C106.302 63.3818 107.081 62.451 108.014 61.6914C109.343 60.6113 111.046 60.0493 112.78 60.0361H112.826L113.386 60.0581L113.586 60.0669C115.106 60.1239 116.59 60.5894 117.801 61.4763C118.903 62.2797 119.818 63.3203 120.446 64.5058C120.997 65.5464 121.329 66.6879 121.894 67.7241C123.086 69.9282 125.208 71.4913 127.019 73.2563C128.827 75.0257 130.456 77.3045 130.215 79.7808C130.11 80.8038 129.692 81.7654 129.391 82.7489V82.7445Z" fill="#407BFF"/>
<path opacity="0.7" d="M129.391 82.7445C127.365 89.2909 130.384 96.4037 129.095 103.117C128.831 104.504 128.367 105.879 127.497 107.007C125.836 109.154 100.357 109.088 98.6955 106.941C97.8214 105.813 97.3617 104.434 97.0976 103.051C95.8094 96.3335 98.8275 89.2207 96.8017 82.6786C96.4967 81.6951 96.0779 80.7292 95.9778 79.7062C95.732 77.2298 97.3617 74.9511 99.1734 73.1861C100.985 71.421 103.107 69.8536 104.299 67.6539C104.864 66.6133 105.196 65.4761 105.747 64.4312C106.302 63.3818 107.081 62.451 108.014 61.6914C109.343 60.6113 111.046 60.0493 112.78 60.0361H112.826L113.386 60.0581L113.586 60.0669C115.106 60.1239 116.59 60.5894 117.801 61.4763C118.903 62.2797 119.818 63.3203 120.446 64.5058C120.997 65.5464 121.329 66.6879 121.894 67.7241C123.086 69.9282 125.208 71.4913 127.019 73.2563C128.827 75.0257 130.456 77.3045 130.215 79.7808C130.11 80.8038 129.692 81.7654 129.391 82.7489V82.7445Z" fill="white"/>
<path d="M112.53 60.0361L112.484 60.0405V60.0361H112.53Z" fill="#407BFF"/>
<path opacity="0.4" d="M122.967 108.382C121.884 107.337 104.303 107.337 103.22 108.382C102.141 109.423 103.839 101.353 103.22 87.048C102.601 72.7433 107.44 70.1924 107.44 70.1924H118.747C118.747 70.1924 123.582 72.7389 122.967 87.048C122.348 101.353 124.046 109.423 122.967 108.382Z" fill="black"/>
<path d="M108.309 72.0677C107.822 72.6868 107.262 73.6044 107.503 74.3113H111.873L112.479 70.1973H109.128L109.11 70.3026C109.001 70.9481 108.714 71.5496 108.309 72.0721V72.0677Z" fill="white"/>
<path d="M118.521 72.0677C119.008 72.6868 119.568 73.6044 119.327 74.3113H114.921L114.352 70.1973H117.702L117.72 70.3026C117.829 70.9481 118.116 71.5496 118.521 72.0721V72.0677Z" fill="white"/>
<path d="M122.96 65.7746C122.746 66.8986 122.463 68.8876 122.773 70.477C123.037 71.8205 119.641 71.7986 116.691 71.5307C114.306 71.3156 111.907 71.3156 109.521 71.5307C106.567 71.7986 103.171 71.8249 103.435 70.477C103.745 68.8876 103.462 66.903 103.248 65.7746C103.157 65.3136 103.522 64.8877 104.009 64.8877H122.204C122.691 64.8877 123.055 65.3136 122.964 65.7746H122.96Z" fill="#407BFF"/>
<path opacity="0.5" d="M122.96 65.7746C122.746 66.8986 122.463 68.8876 122.773 70.477C123.037 71.8205 119.641 71.7986 116.691 71.5307C114.306 71.3156 111.907 71.3156 109.521 71.5307C106.567 71.7986 103.171 71.8249 103.435 70.477C103.745 68.8876 103.462 66.903 103.248 65.7746C103.157 65.3136 103.522 64.8877 104.009 64.8877H122.204C122.691 64.8877 123.055 65.3136 122.964 65.7746H122.96Z" fill="white"/>
<path d="M121.943 95.3911C121.943 95.3911 121.915 95.3823 121.906 95.3735C121.906 95.3691 121.906 95.3647 121.911 95.3604C121.92 95.3691 121.934 95.3823 121.938 95.3911H121.943Z" fill="#263238"/>
<path d="M108.137 66.0078C107.982 66.1834 107.841 66.381 107.804 66.6049C107.768 66.8288 107.864 67.0922 108.082 67.1845C108.31 67.281 108.574 67.1625 108.765 67.0044C109.393 66.4907 109.575 65.6433 109.716 64.8574C109.716 64.8574 108.979 65.2306 108.92 65.2789C108.633 65.4941 108.369 65.7355 108.137 66.0034V66.0078Z" fill="#263238"/>
<path d="M119.099 80.1417C113.709 79.5358 109.935 79.6719 104.546 80.2822C104.518 80.2822 104.491 80.291 104.464 80.2953C103.034 80.528 102.069 81.8321 102.31 83.2151C103.785 91.7286 104.546 100.962 104.432 110.244L123.965 109.893C124.102 101.063 124.876 87.6233 124.202 83.5093C125.14 81.3359 120.979 80.4534 119.094 80.1461L119.099 80.1417Z" fill="#407BFF"/>
<path opacity="0.4" d="M119.099 80.1417C113.709 79.5358 109.935 79.6719 104.546 80.2822C104.518 80.2822 104.491 80.291 104.464 80.2953C103.034 80.528 102.069 81.8321 102.31 83.2151C103.785 91.7286 104.546 100.962 104.432 110.244L123.965 109.893C124.102 101.063 124.876 87.6233 124.202 83.5093C125.14 81.3359 120.979 80.4534 119.094 80.1461L119.099 80.1417Z" fill="black"/>
<path d="M118.477 82.3359C118.477 83.8858 119.055 85.1415 119.765 85.1415C120.475 85.1415 121.053 83.8858 121.053 82.3359C121.053 80.786 120.475 79.5303 119.765 79.5303C119.055 79.5303 118.477 80.786 118.477 82.3359Z" fill="#263238"/>
<path d="M106.84 80.9701C106.795 80.8604 105.739 78.2128 107.241 76.1756C108.393 74.6169 110.673 73.9012 114.024 74.0417C116.714 74.1559 118.54 74.8496 119.446 76.0965C120.538 77.5937 119.969 79.3719 119.755 80.0393L119.732 80.1183L118.667 79.8066L118.694 79.7232C118.881 79.1436 119.314 77.7825 118.54 76.7156C117.839 75.7541 116.305 75.214 113.974 75.113C111.029 74.9857 109.062 75.5521 108.147 76.799C106.991 78.3665 107.865 80.553 107.874 80.575L106.84 80.9701Z" fill="#263238"/>
<path d="M117.055 82.3356C117.055 84.3553 117.806 85.9974 118.734 85.9974C119.663 85.9974 120.414 84.3597 120.414 82.3356C120.414 80.3115 119.663 78.6738 118.734 78.6738C117.806 78.6738 117.055 80.3115 117.055 82.3356Z" fill="#263238"/>
<path d="M110.07 82.3356C110.07 84.3553 109.319 85.9974 108.391 85.9974C107.462 85.9974 106.711 84.3597 106.711 82.3356C106.711 80.3115 107.462 78.6738 108.391 78.6738C109.319 78.6738 110.07 80.3115 110.07 82.3356Z" fill="#263238"/>
<path d="M110.07 82.3356C110.07 84.3553 109.319 85.9974 108.391 85.9974C107.462 85.9974 106.711 84.3597 106.711 82.3356C106.711 80.3115 107.462 78.6738 108.391 78.6738C109.319 78.6738 110.07 80.3115 110.07 82.3356Z" fill="#263238"/>
<path d="M108.655 82.3359C108.655 83.8858 108.077 85.1415 107.366 85.1415C106.656 85.1415 106.078 83.8858 106.078 82.3359C106.078 80.786 106.656 79.5303 107.366 79.5303C108.077 79.5303 108.655 80.786 108.655 82.3359Z" fill="#263238"/>
<path d="M108.655 82.3359C108.655 83.8858 108.077 85.1415 107.366 85.1415C106.656 85.1415 106.078 83.8858 106.078 82.3359C106.078 80.786 106.656 79.5303 107.366 79.5303C108.077 79.5303 108.655 80.786 108.655 82.3359Z" fill="#263238"/>
<g opacity="0.5">
<path d="M108.655 82.3359C108.655 83.8858 108.077 85.1415 107.366 85.1415C106.656 85.1415 106.078 83.8858 106.078 82.3359C106.078 80.786 106.656 79.5303 107.366 79.5303C108.077 79.5303 108.655 80.786 108.655 82.3359Z" fill="white"/>
<path d="M108.655 82.3359C108.655 83.8858 108.077 85.1415 107.366 85.1415C106.656 85.1415 106.078 83.8858 106.078 82.3359C106.078 80.786 106.656 79.5303 107.366 79.5303C108.077 79.5303 108.655 80.786 108.655 82.3359Z" fill="white"/>
</g>
<path d="M118.477 82.3359C118.477 83.8858 119.055 85.1415 119.765 85.1415C120.475 85.1415 121.053 83.8858 121.053 82.3359C121.053 80.786 120.475 79.5303 119.765 79.5303C119.055 79.5303 118.477 80.786 118.477 82.3359Z" fill="#263238"/>
<path opacity="0.5" d="M118.477 82.3359C118.477 83.8858 119.055 85.1415 119.765 85.1415C120.475 85.1415 121.053 83.8858 121.053 82.3359C121.053 80.786 120.475 79.5303 119.765 79.5303C119.055 79.5303 118.477 80.786 118.477 82.3359Z" fill="white"/>
<path d="M109.685 79.9092C109.507 80.1462 111.574 83.066 115.234 83.066C117.729 83.066 116.713 79.9487 116.713 79.9487C114.897 79.2769 114.615 78.0387 114.765 76.5942C114.802 76.1903 114.87 75.7863 114.965 75.3912L111.865 72.9105L109.594 71.084C110.186 73.5603 111.128 77.9202 109.68 79.9092H109.685Z" fill="#F9BBB2"/>
<path opacity="0.2" d="M111.943 73.8105C111.916 74.1881 111.93 74.5701 111.984 74.9477C112.13 76.0849 113.673 77.2704 114.829 77.4943C114.866 77.086 114.934 76.6864 115.03 76.2869L111.943 73.8105Z" fill="black"/>
<path d="M108.79 65.7621C109.564 63.2638 112.286 61.8456 114.872 62.5876C118.691 63.5799 120.034 68.7609 119.747 72.0275C119.683 72.9715 119.324 73.8716 118.718 74.6136C117.066 76.6333 114.025 76.9801 111.931 75.3819C109.782 73.7838 109.509 71.6982 108.717 68.1989C108.521 67.3954 108.544 66.5568 108.79 65.7621Z" fill="#F9BBB2"/>
<path d="M117.062 71.9146C117.121 72.02 117.271 72.0946 117.385 72.0551C117.494 72.02 117.54 71.9058 117.549 71.7961C117.558 71.6775 117.522 71.5502 117.449 71.4448C117.403 71.379 117.321 71.3175 117.244 71.3351C117.057 71.3834 116.98 71.7653 117.067 71.9146H117.062Z" fill="#263238"/>
<path d="M108.643 69.3941C109.59 69.1658 110.605 70.2151 111.01 71.0186C111.465 71.9011 111.151 72.8144 110.122 72.6388C109.33 72.4895 108.62 72.068 108.128 71.4489C107.523 70.663 107.691 69.6268 108.638 69.3985L108.643 69.3941Z" fill="#F9BBB2"/>
<path d="M114.753 67.8084C114.954 67.7645 115.149 67.9797 115.195 68.2651C115.236 68.5548 115.113 68.8051 114.922 68.8271C114.726 68.849 114.535 68.6339 114.485 68.3485C114.444 68.0587 114.558 67.8567 114.753 67.8084Z" fill="#263238"/>
<path d="M118.431 67.2908C118.609 67.2688 118.786 67.462 118.827 67.721C118.864 67.9801 118.754 68.1821 118.582 68.2216C118.409 68.2611 118.236 68.0723 118.19 67.8132C118.145 67.5542 118.254 67.3127 118.431 67.2908Z" fill="#263238"/>
<path d="M117.503 70.5736C117.931 70.657 118.372 70.556 118.709 70.2926C118.145 69.6735 117.667 68.9842 117.289 68.2422L117.503 70.5736Z" fill="#ED847E"/>
<path d="M114.053 67.5579C114.249 67.1715 114.631 66.908 115.073 66.8466C115.169 66.8378 115.241 66.7544 115.237 66.6622C115.228 66.57 115.141 66.4997 115.046 66.5041C114.486 66.5744 113.999 66.908 113.744 67.3954C113.694 67.4744 113.721 67.5798 113.807 67.6281C113.835 67.6413 113.862 67.6457 113.889 67.6457C113.958 67.6457 114.026 67.6149 114.058 67.5535L114.053 67.5579Z" fill="#263238"/>
<path d="M119.093 66.904C119.157 66.8338 119.153 66.7284 119.084 66.6669C118.675 66.2762 118.097 66.0961 117.528 66.184C117.432 66.2059 117.373 66.2937 117.395 66.3859C117.418 66.4781 117.509 66.5352 117.605 66.5177C118.06 66.4518 118.524 66.6011 118.848 66.9128C118.889 66.9523 118.948 66.9655 119.007 66.9523C119.039 66.9435 119.071 66.926 119.093 66.904Z" fill="#263238"/>
<path d="M111.937 65.7356C111.937 65.4985 111.701 65.3273 111.468 65.3931L109.042 65.5248C108.405 65.56 107.854 65.9507 107.613 66.5171C106.352 69.4588 107.189 71.6366 107.736 72.4401C111.355 77.7571 110.854 73.6782 110.371 72.6904C109.37 72.462 108.76 72.0976 108.519 71.2546C108.359 70.7058 108.327 69.955 108.764 69.573C109.051 69.3227 109.675 69.1691 110.066 69.3842C110.012 70.5346 110.535 71.2897 111.25 72.2864C111.25 72.2864 110.385 68.8442 111.35 68.4007C111.919 68.1417 111.933 66.5874 111.937 65.7312V65.7356Z" fill="#263238"/>
<path d="M109.199 62.9085C108.538 63.5671 108.07 64.4672 108.17 65.3804C108.179 65.4814 108.202 65.5868 108.279 65.6571C108.356 65.7273 108.475 65.7361 108.579 65.7449C110.414 65.859 112.258 65.8459 114.088 65.7097C113.678 65.4551 113.273 65.2004 112.863 64.9458C113.705 65.3629 114.629 65.6175 115.572 65.6922C116.437 65.758 117.37 65.6922 118.103 66.14C118.84 66.5923 119.172 67.4484 119.459 68.2475C119.901 67.2948 120.215 66.2717 120.219 65.2312C120.219 64.1906 119.896 63.1237 119.177 62.3421C118.339 61.4333 117.06 61.0206 115.804 60.902C110.341 60.3707 109.194 62.9173 109.194 62.9173L109.199 62.9085Z" fill="#263238"/>
<path d="M100.399 83.1715C100.053 84.1111 99.065 89.3096 105.534 96.6552C106.066 97.2567 108.302 98.4378 110.323 96.4356C112.758 94.0208 113.345 83.4833 113.578 82.0958C113.801 80.7611 114.06 79.1585 114.283 77.8238C111.866 78.0916 112.203 76.9061 111.67 76.1992C111.128 76.8622 108.647 89.2087 107.173 91.6147C107.218 90.0165 104.937 80.3528 103.749 80.5152C101.573 80.8182 100.758 82.1749 100.394 83.1715H100.399Z" fill="#407BFF"/>
<path d="M107.805 90.2403C107.978 89.7749 108.115 89.2656 108.329 88.5499L106.572 87.5357C106.453 87.4917 106.321 87.5181 106.23 87.6015L105.27 88.5411C104.842 88.9538 104.664 89.5773 104.883 90.1217C105.274 91.0921 106.531 91.3555 107.3 90.6793L107.801 90.2403H107.805Z" fill="#F9BBB2"/>
<path d="M121.417 83.7288C121.308 84.0889 119.692 93.4014 119.751 93.1994C119.35 93.6604 118.909 93.419 118.617 93.3311C116.369 92.6813 113.514 90.587 111.261 89.9372C110.951 89.8494 110.565 89.7747 110.341 89.9986C110.209 90.1304 110.178 90.3236 110.15 90.5036C110.068 91.0963 109.731 92.2467 109.65 92.8438C109.631 92.9799 109.613 93.1248 109.681 93.2477C109.741 93.3487 109.85 93.4146 109.955 93.4716C112.736 95.0215 113.828 95.8162 116.614 97.3705C117.825 98.0467 121.872 99.8995 123.247 98.6526C124.704 97.3266 128.55 83.5752 123.183 81.3315C122.619 81.0944 122.346 80.7125 121.417 83.7332V83.7288Z" fill="#407BFF"/>
<path d="M118.34 75.4046C118.322 75.488 118.299 75.5714 118.286 75.6505C118.126 76.3617 117.466 76.8579 116.715 76.8315L116.533 76.8228C116.401 76.8491 115.267 77.3848 114.384 77.7975C113.501 78.2102 112.404 77.9951 111.835 77.2267C111.662 76.9896 111.676 76.5593 111.648 76.2344C111.648 76.1642 113.055 74.8162 113.947 73.9601C114.334 73.5869 114.871 73.4025 115.413 73.4551C115.868 73.499 116.756 73.5122 117.298 73.5649C118.217 73.6527 118.541 74.5396 118.345 75.4046H118.34Z" fill="#E6A8A1"/>
<path d="M137.063 56.7344C137.168 55.6061 136.203 54.886 134.646 54.886C133.089 54.886 131.883 55.5314 131.023 56.5939C129.502 55.6851 129.511 53.4459 131.127 52.7082C132.306 52.1682 133.708 51.8652 135.329 51.8652C138.916 51.8652 141.265 53.4107 141.019 56.1329C140.682 59.8254 136.626 60.2426 136.403 62.6881H132.789C133.08 59.4566 136.881 58.741 137.063 56.7344ZM131.979 66.3807C132.083 65.204 133.121 64.3258 134.464 64.3258C135.807 64.3258 136.681 65.204 136.576 66.3807C136.472 67.5354 135.429 68.4794 134.091 68.4794C132.753 68.4794 131.878 67.5354 131.983 66.3807H131.979Z" fill="#407BFF"/>
<path d="M157.763 159.159H70.2915L64.8516 101.971H163.207L157.763 159.159Z" fill="#407BFF"/>
<path d="M164.418 101.927H63.4219V106.533H164.418V101.927Z" fill="#263238"/>
<path opacity="0.2" d="M164.418 101.927H63.4219V106.533H164.418V101.927Z" fill="white"/>
<path d="M127.331 130.089L105.094 117.707V142.47L127.331 130.089Z" fill="white"/>
<path d="M199.383 130.499L200.148 152.522H201.049L201.814 130.499H199.383Z" fill="black"/>
<path d="M197.305 137.945L197.942 136.22H202.599L203.878 137.945H197.305Z" fill="#263238"/>
<path d="M192.102 143.582L193.249 144.824L199.385 151.437H199.854H199.895H201.306H201.347H201.816L201.365 150.949L201.306 150.883L200.601 150.124L199.895 149.364L199.777 149.237L199.385 148.82L194.309 143.34L193.194 142.142H193.048L192.102 143.582Z" fill="#263238"/>
<path d="M209.093 143.582L207.982 144.78L201.814 151.437H199.383V151.432L199.833 150.945L199.893 150.883L200.598 150.124L201.304 149.364L201.422 149.232L201.814 148.815L206.921 143.31L208.005 142.142H208.146L209.093 143.582Z" fill="#263238"/>
<path d="M201.305 147.463V56.0547H199.893V147.463H201.305Z" fill="#263238"/>
<path opacity="0.2" d="M201.302 61.5957H199.891V147.463H201.302V61.5957Z" fill="white"/>
<path d="M219.885 159.969H218.915L207.981 144.786L206.92 143.315L203.055 137.95L201.812 136.225H203.538C203.979 136.225 204.385 136.435 204.617 136.795L208.145 142.148L209.092 143.588L219.889 159.969H219.885Z" fill="#263238"/>
<path d="M181.297 159.964L196.57 136.786C196.806 136.43 197.211 136.215 197.648 136.215H199.378L182.453 159.964H181.297Z" fill="#263238"/>
<path d="M202.693 56.0508H198.5V61.5918H202.693V56.0508Z" fill="#263238"/>
<path opacity="0.3" d="M202.693 56.0508H198.5V61.5918H202.693V56.0508Z" fill="white"/>
<path d="M195.919 52.8249L202.433 50.2695C202.433 50.2695 203.876 51.0335 204.477 52.4912C205.141 54.1026 204.513 55.5295 204.513 55.5295L198.281 58.1507L195.914 52.8205L195.919 52.8249Z" fill="#263238"/>
<path opacity="0.5" d="M195.919 52.8249L202.433 50.2695C202.433 50.2695 203.876 51.0335 204.477 52.4912C205.141 54.1026 204.513 55.5295 204.513 55.5295L198.281 58.1507L195.914 52.8205L195.919 52.8249Z" fill="white"/>
<path d="M194.253 81.4035C194.253 81.4035 202.72 66.3832 197.471 54.6778C192.004 42.485 179.977 40.4258 179.977 40.4258L179.836 40.4697L194.166 81.4079H194.248L194.253 81.4035Z" fill="#263238"/>
<path d="M179.974 40.4209L170.492 43.3714L184.686 81.8816L194.25 81.403L179.974 40.4209Z" fill="#263238"/>
<path opacity="0.8" d="M179.974 40.4209L170.492 43.3714L184.686 81.8816L194.25 81.403L179.974 40.4209Z" fill="white"/>
<path d="M180.472 41.8623L172.797 44.3035L185.466 79.2837L193.318 78.7392L180.472 41.8623Z" fill="#407BFF"/>
<path d="M180.472 41.8623L172.797 44.3035L185.466 79.2837L193.318 78.7392L180.472 41.8623Z" fill="white"/>
<path d="M201.814 104.527H199.383V147.459H201.814V104.527Z" fill="#263238"/>
<path d="M27.3528 130.499L26.588 152.522H25.6866L24.9219 130.499H27.3528Z" fill="black"/>
<path d="M29.425 137.945L28.7831 136.22H24.1307L22.8516 137.945H29.425Z" fill="#263238"/>
<path d="M34.6363 143.582L33.4892 144.824L27.3528 151.437H27.3482H26.8839H26.8429H25.4317H25.3862H24.9219L25.3725 150.949L25.4317 150.883L26.1328 150.124L26.8429 149.364L26.9613 149.237L27.3482 148.82L32.4285 143.34L33.5438 142.142H33.6849L34.6363 143.582Z" fill="#263238"/>
<path d="M17.6406 143.582L18.7514 144.78L24.9242 151.437H27.3551L27.3505 151.432L26.9044 150.945L26.8452 150.883L26.1351 150.124L25.434 149.364L25.3157 149.232L24.9242 148.815L19.8166 143.31L18.7332 142.142H18.5875L17.6406 143.582Z" fill="#263238"/>
<path d="M26.8516 147.46L26.8516 56.0518H25.4404L25.4404 147.46H26.8516Z" fill="#263238"/>
<path opacity="0.2" d="M26.8565 61.5967H25.4453V147.464H26.8565V61.5967Z" fill="white"/>
<path d="M6.8483 159.969H7.81793L18.7524 144.786L19.8131 143.315L23.6779 137.95L24.9207 136.225H23.1954C22.7538 136.225 22.3486 136.435 22.1165 136.795L18.5885 142.148L17.6416 143.588L6.84375 159.969H6.8483Z" fill="#263238"/>
<path d="M45.433 159.964L30.1603 136.786C29.9281 136.43 29.5184 136.215 29.0814 136.215H27.3516L44.2768 159.964H45.433Z" fill="#263238"/>
<path d="M24.0418 61.5977H28.2344V56.0567H24.0418V61.5977Z" fill="#263238"/>
<path opacity="0.3" d="M24.0418 61.5977H28.2344V56.0567H24.0418V61.5977Z" fill="white"/>
<path d="M30.8165 52.8249L24.3022 50.2695C24.3022 50.2695 22.8592 51.0335 22.2583 52.4912C21.5936 54.1026 22.2218 55.5295 22.2218 55.5295L28.4538 58.1507L30.821 52.8205L30.8165 52.8249Z" fill="#263238"/>
<path opacity="0.5" d="M30.8165 52.8249L24.3022 50.2695C24.3022 50.2695 22.8592 51.0335 22.2583 52.4912C21.5936 54.1026 22.2218 55.5295 22.2218 55.5295L28.4538 58.1507L30.821 52.8205L30.8165 52.8249Z" fill="white"/>
<path d="M32.4812 81.4035C32.4812 81.4035 24.0141 66.3832 29.2628 54.6778C34.73 42.485 46.757 40.4258 46.757 40.4258L46.8981 40.4697L32.5677 81.4079H32.4858L32.4812 81.4035Z" fill="#263238"/>
<path d="M46.7602 40.4209L56.2425 43.3714L42.0486 81.8816L32.4844 81.403L46.7602 40.4209Z" fill="#263238"/>
<path opacity="0.8" d="M46.7602 40.4209L56.2425 43.3714L42.0486 81.8816L32.4844 81.403L46.7602 40.4209Z" fill="white"/>
<path d="M46.2605 41.8623L53.9355 44.3035L41.2667 79.2837L33.4141 78.7392L46.2605 41.8623Z" fill="#407BFF"/>
<path d="M46.2605 41.8623L53.9355 44.3035L41.2667 79.2837L33.4141 78.7392L46.2605 41.8623Z" fill="white"/>
<path d="M24.9207 147.46H27.3516L27.3516 104.528H24.9207L24.9207 147.46Z" fill="#263238"/>
<path d="M64.8359 72.7805C64.8359 79.608 70.5763 85.1445 77.655 85.1445C84.7337 85.1445 90.4695 79.6123 90.4695 72.7805C90.4695 65.9487 84.7337 60.4209 77.655 60.4209C70.5763 60.4209 64.8359 65.9531 64.8359 72.7805ZM68.4868 72.4688C68.4868 67.5864 72.5929 63.6261 77.655 63.6261C82.7171 63.6261 86.8232 67.5864 86.8232 72.4688C86.8232 77.3512 82.7171 81.3115 77.655 81.3115C72.5929 81.3115 68.4868 77.3556 68.4868 72.4688Z" fill="#263238"/>
<g opacity="0.2">
<path d="M64.8359 72.7805C64.8359 79.608 70.5763 85.1445 77.655 85.1445C84.7337 85.1445 90.4695 79.6123 90.4695 72.7805C90.4695 65.9487 84.7337 60.4209 77.655 60.4209C70.5763 60.4209 64.8359 65.9531 64.8359 72.7805ZM68.4868 72.4688C68.4868 67.5864 72.5929 63.6261 77.655 63.6261C82.7171 63.6261 86.8232 67.5864 86.8232 72.4688C86.8232 77.3512 82.7171 81.3115 77.655 81.3115C72.5929 81.3115 68.4868 77.3556 68.4868 72.4688Z" fill="white"/>
</g>
<path d="M79.9421 91.335H81.1484V89.7851H79.9421V91.335Z" fill="#263238"/>
<path d="M78.6053 90.9668H80.7812V90.2072H78.6053V90.9668Z" fill="#263238"/>
<path d="M75.4485 91.7471H74.2422V93.297H75.4485V91.7471Z" fill="#263238"/>
<path d="M76.7932 92.1641H74.6172V92.9236H76.7932V92.1641Z" fill="#263238"/>
<path d="M80.8483 86.9824H82.0547V85.4325H80.8483V86.9824Z" fill="#263238"/>
<path d="M79.5115 86.5693H81.6875V85.8098H79.5115V86.5693Z" fill="#263238"/>
<path d="M77.1312 107.448H78.6016V89.9647H77.1312V107.448Z" fill="black"/>
<path d="M76.5317 97.0986H79.2812V94.7409H76.5317V97.0986Z" fill="#263238"/>
<path d="M77.4249 89.7842H78.3672V86.961H77.4249V89.7842Z" fill="#263238"/>
<path d="M76.7578 93.71H79.0521V89.3193C79.0521 88.709 78.5377 88.2129 77.905 88.2129C77.2722 88.2129 76.7578 88.709 76.7578 89.3193V93.71Z" fill="black"/>
<path d="M76.1192 94.6982H79.7109V93.7147H76.1192V94.6982Z" fill="#263238"/>
<path d="M76.1647 87.3867H79.6562V84.9587H76.1647V87.3867Z" fill="#263238"/>
<path d="M74.8608 101.994H81.4297V99.9481H74.8608V101.994Z" fill="#263238"/>
<path opacity="0.1" d="M74.8608 101.994H81.4297V99.9481H74.8608V101.994Z" fill="black"/>
<path d="M79.1997 101.673C79.1997 101.673 77.9797 98.7617 76.6641 101.673L77.1921 162.852C77.1921 162.852 78.1162 164.244 78.6761 162.852L79.2042 101.673H79.1997Z" fill="#263238"/>
<path d="M81.7711 100.522C81.7711 100.522 88.2216 140.921 91.349 158.61C91.6403 160.253 90.2291 161.214 89.7511 159.15C89.5645 158.338 79.6406 101.163 79.6406 101.163C79.6406 101.163 80.1277 98.4763 81.7665 100.522H81.7711Z" fill="#263238"/>
<path d="M74.0312 100.522C74.0312 100.522 67.5807 140.921 64.4533 158.61C64.162 160.253 65.5731 161.214 66.0511 159.15C66.2378 158.338 76.1616 101.163 76.1616 101.163C76.1616 101.163 75.6745 98.4763 74.0357 100.522H74.0312Z" fill="#263238"/>
<path d="M149.454 61.4492C150.16 61.4492 150.829 61.5941 151.434 61.8488L152.627 62.3581C154.266 62.942 155.431 64.4568 155.431 66.2394C155.431 68.022 154.261 69.5368 152.627 70.1207L151.434 70.63C150.829 70.8847 150.16 71.0296 149.454 71.0296C146.714 71.0296 144.492 68.8869 144.492 66.2438C144.492 63.6006 146.714 61.458 149.454 61.458V61.4492Z" fill="#263238"/>
<path opacity="0.2" d="M149.454 61.4492C150.16 61.4492 150.829 61.5941 151.434 61.8488L152.627 62.3581C154.266 62.942 155.431 64.4568 155.431 66.2394C155.431 68.022 154.261 69.5368 152.627 70.1207L151.434 70.63C150.829 70.8847 150.16 71.0296 149.454 71.0296C146.714 71.0296 144.492 68.8869 144.492 66.2438C144.492 63.6006 146.714 61.458 149.454 61.458V61.4492Z" fill="black"/>
<path d="M151.209 62.6123H156.139C158.215 62.6123 159.894 64.2368 159.894 66.2346C159.894 68.2323 158.21 69.8568 156.139 69.8568H151.209C149.133 69.8568 147.453 68.2323 147.453 66.2346C147.453 64.2368 149.137 62.6123 151.209 62.6123Z" fill="#263238"/>
<path opacity="0.2" d="M151.209 62.6123H156.139C158.215 62.6123 159.894 64.2368 159.894 66.2346C159.894 68.2323 158.21 69.8568 156.139 69.8568H151.209C149.133 69.8568 147.453 68.2323 147.453 66.2346C147.453 64.2368 149.137 62.6123 151.209 62.6123Z" fill="white"/>
<path opacity="0.2" d="M152.576 62.6123H153.741C151.665 62.6123 149.986 64.2368 149.986 66.2346C149.986 68.2323 151.67 69.8568 153.741 69.8568H152.576C150.5 69.8568 148.82 68.2323 148.82 66.2346C148.82 64.2368 150.505 62.6123 152.576 62.6123Z" fill="white"/>
<path d="M155.307 59.3906H158.584C158.917 59.3906 159.213 59.5882 159.331 59.8868L160.1 61.823H153.75C153.75 61.823 154.774 59.395 155.307 59.395V59.3906Z" fill="#263238"/>
<path opacity="0.2" d="M156.446 59.3906H158.585C158.917 59.3906 159.213 59.5882 159.332 59.8868L160.101 61.823H154.93L155.699 59.8868C155.817 59.5882 156.113 59.3906 156.446 59.3906Z" fill="white"/>
<path d="M161.234 70.6533H151.019C150.013 70.6533 149.198 69.8674 149.198 68.8971V62.6975C149.198 62.2145 149.607 61.8194 150.108 61.8194H162.144C162.645 61.8194 163.055 62.2145 163.055 62.6975V68.8971C163.055 69.8674 162.24 70.6533 161.234 70.6533Z" fill="#263238"/>
<path opacity="0.2" d="M161.234 70.6533H153.449C152.443 70.6533 151.629 69.8674 151.629 68.8971V62.6975C151.629 62.2145 152.038 61.8194 152.539 61.8194H162.144C162.645 61.8194 163.055 62.2145 163.055 62.6975V68.8971C163.055 69.8674 162.24 70.6533 161.234 70.6533Z" fill="white"/>
<path d="M156.603 68.8213H162.139C162.39 68.8213 162.594 68.6247 162.594 68.3822V64.1584C162.594 63.916 162.39 63.7194 162.139 63.7194H156.603C156.352 63.7194 156.148 63.916 156.148 64.1584V68.3822C156.148 68.6247 156.352 68.8213 156.603 68.8213Z" fill="#407BFF"/>
<path opacity="0.5" d="M156.603 68.8213H162.139C162.39 68.8213 162.594 68.6247 162.594 68.3822V64.1584C162.594 63.916 162.39 63.7194 162.139 63.7194H156.603C156.352 63.7194 156.148 63.916 156.148 64.1584V68.3822C156.148 68.6247 156.352 68.8213 156.603 68.8213Z" fill="white"/>
<path d="M156.889 61.6748H158.428C158.679 61.6748 158.883 61.4782 158.883 61.2357V60.6913C158.883 60.4488 158.679 60.2522 158.428 60.2522H156.889C156.638 60.2522 156.434 60.4488 156.434 60.6913V61.2357C156.434 61.4782 156.638 61.6748 156.889 61.6748Z" fill="#407BFF"/>
<path opacity="0.5" d="M156.889 61.6748H158.428C158.679 61.6748 158.883 61.4782 158.883 61.2357V60.6913C158.883 60.4488 158.679 60.2522 158.428 60.2522H156.889C156.638 60.2522 156.434 60.4488 156.434 60.6913V61.2357C156.434 61.4782 156.638 61.6748 156.889 61.6748Z" fill="white"/>
<path opacity="0.2" d="M155.418 65.2881H156.133V64.5988H155.418V65.2881Z" fill="white"/>
<path opacity="0.2" d="M155.418 66.1143H156.133V65.4249H155.418V66.1143Z" fill="white"/>
<path opacity="0.2" d="M155.418 66.9385H156.133V66.2491H155.418V66.9385Z" fill="white"/>
<path opacity="0.2" d="M155.418 67.7646H156.133V67.0753H155.418V67.7646Z" fill="white"/>
<path d="M152.148 66.1608C152.148 66.9687 152.827 67.6273 153.669 67.6273C154.511 67.6273 155.189 66.9731 155.189 66.1608C155.189 65.3485 154.511 64.6943 153.669 64.6943C152.827 64.6943 152.148 65.3529 152.148 66.1608ZM152.786 66.1608C152.786 65.691 153.182 65.309 153.669 65.309C154.156 65.309 154.552 65.6866 154.552 66.1608C154.552 66.635 154.156 67.0082 153.669 67.0082C153.182 67.0082 152.786 66.6306 152.786 66.1608Z" fill="#263238"/>
<path d="M153.094 66.1607C153.094 66.4636 153.349 66.7051 153.658 66.7051C153.968 66.7051 154.223 66.4592 154.223 66.1607C154.223 65.8621 153.968 65.6162 153.658 65.6162C153.349 65.6162 153.094 65.8621 153.094 66.1607Z" fill="#263238"/>
<path d="M155.562 62.6146C155.562 62.7331 155.663 62.8297 155.786 62.8297C155.908 62.8297 156.009 62.7331 156.009 62.6146C156.009 62.496 155.908 62.3994 155.786 62.3994C155.663 62.3994 155.562 62.496 155.562 62.6146Z" fill="#407BFF"/>
<path d="M158.731 77.7783H160.078V76.044H158.731V77.7783Z" fill="#263238"/>
<path d="M157.229 77.3604H159.664V76.5086H157.229V77.3604Z" fill="#263238"/>
<path d="M153.699 78.2451H152.352V79.9794H153.699V78.2451Z" fill="#263238"/>
<path d="M155.201 78.71H152.766V79.5617H155.201V78.71Z" fill="#263238"/>
<path d="M159.746 72.915H161.094V71.1807H159.746V72.915Z" fill="#263238"/>
<path d="M158.244 72.4492H160.68V71.5974H158.244V72.4492Z" fill="#263238"/>
<path d="M155.583 94.3447H157.227V81.5373H155.583V94.3447Z" fill="black"/>
<path d="M152.735 94.71H160.078V92.4224H152.735V94.71Z" fill="#263238"/>
<path opacity="0.1" d="M152.735 94.71H160.078V92.4224H152.735V94.71Z" fill="black"/>
<path d="M157.586 94.3493C157.586 94.3493 156.22 91.0915 154.75 94.3493L155.342 162.777C155.342 162.777 156.38 164.332 156.999 162.777L157.591 94.3493H157.586Z" fill="#263238"/>
<path d="M160.467 93.0629C160.467 93.0629 167.682 138.247 171.178 158.031C171.501 159.871 169.926 160.942 169.394 158.633C169.184 157.724 158.086 93.7742 158.086 93.7742C158.086 93.7742 158.628 90.7666 160.467 93.0585V93.0629Z" fill="#263238"/>
<path d="M151.809 93.0629C151.809 93.0629 144.594 138.247 141.098 158.031C140.775 159.871 142.35 160.942 142.882 158.633C143.092 157.724 154.19 93.7742 154.19 93.7742C154.19 93.7742 153.648 90.7666 151.809 93.0585V93.0629Z" fill="#263238"/>
<path d="M154.912 89.5498H157.984V86.9154H154.912V89.5498Z" fill="#263238"/>
<path d="M154.912 85.5459H157.984V82.9115H154.912V85.5459Z" fill="#263238"/>
<path d="M155.917 76.0449H156.969V72.8881H155.917V76.0449Z" fill="#263238"/>
<path d="M155.164 80.4389H157.732V75.5302C157.732 74.8452 157.158 74.292 156.448 74.292C155.738 74.292 155.164 74.8452 155.164 75.5302V80.4389Z" fill="black"/>
<path d="M154.457 81.5371H158.477V80.4395H154.457V81.5371Z" fill="#263238"/>
<path d="M154.5 73.3662H158.406V70.6484H154.5V73.3662Z" fill="#263238"/>
<path d="M113.347 48.683C110.839 48.683 109.478 46.8038 109.414 43.2474C109.414 43.1376 109.505 43.0454 109.619 43.041C109.733 43.041 109.828 43.1288 109.833 43.2386C109.892 46.5799 111.076 48.2746 113.347 48.2746C115.619 48.2746 116.802 46.6282 116.857 43.2386C116.857 43.1288 116.953 43.041 117.066 43.041C117.18 43.041 117.276 43.1332 117.271 43.2474C117.212 46.8565 115.892 48.683 113.343 48.683H113.347Z" fill="#263238"/>
<path d="M117.074 43.445H109.631C109.517 43.445 109.422 43.3528 109.422 43.243C109.422 43.1332 109.517 43.041 109.631 43.041H117.074C117.188 43.041 117.284 43.1332 117.284 43.243C117.284 43.3528 117.188 43.445 117.074 43.445Z" fill="#263238"/>
<path d="M115.845 41.6489H110.828L110.983 36.4153L111.083 36.367C112.503 35.6732 114.165 35.6732 115.585 36.367L115.69 36.4153L115.845 41.6489Z" fill="#263238"/>
<g opacity="0.1">
<path d="M115.845 41.6489H110.828L110.983 36.4153L111.083 36.367C112.503 35.6732 114.165 35.6732 115.585 36.367L115.69 36.4153L115.845 41.6489Z" fill="#FAFAFA"/>
</g>
<path d="M110.836 41.6494H115.852L115.698 46.883L115.593 46.9357C114.173 47.6295 112.511 47.6295 111.091 46.9357L110.991 46.883L110.836 41.6494Z" fill="#407BFF"/>
<path d="M116.006 41.2412H110.703V42.1193H116.006V41.2412Z" fill="#263238"/>
<path d="M116.006 41.2412H110.703V42.1193H116.006V41.2412Z" fill="#407BFF"/>
<path opacity="0.2" d="M116.006 41.2412H110.703V42.1193H116.006V41.2412Z" fill="black"/>
<path d="M113.967 44.1079C113.694 44.4372 113.198 44.4855 112.856 44.222C112.515 43.9586 112.465 43.48 112.738 43.1507C113.011 42.8214 113.507 42.7731 113.849 43.0365C114.19 43.3 114.24 43.7786 113.967 44.1079Z" fill="#263238"/>
<path opacity="0.2" d="M114.145 43.6336C114.145 44.0551 113.79 44.3932 113.358 44.3932C112.925 44.3932 112.57 44.0507 112.57 43.6336C112.57 43.2165 112.925 42.874 113.358 42.874C113.79 42.874 114.145 43.2165 114.145 43.6336Z" fill="white"/>
<path d="M113.688 43.2738C113.688 43.3616 113.611 43.4362 113.52 43.4362C113.429 43.4362 113.352 43.3616 113.352 43.2738C113.352 43.186 113.429 43.1113 113.52 43.1113C113.611 43.1113 113.688 43.186 113.688 43.2738Z" fill="#407BFF"/>
<path d="M113.35 51.827C113.236 51.827 113.141 51.7348 113.141 51.6251V48.0379C113.141 47.9281 113.236 47.8359 113.35 47.8359C113.464 47.8359 113.559 47.9281 113.559 48.0379V51.6251C113.559 51.7348 113.464 51.827 113.35 51.827Z" fill="#263238"/>
<path d="M109.258 53.2763C109.258 53.2763 111.088 51.5508 113.35 51.5508C115.613 51.5508 117.443 53.2763 117.443 53.2763H109.262H109.258Z" fill="#407BFF"/>
<path d="M104.234 5.9541L106.46 9.74761L106.474 9.76517H112.383L110.157 5.97166L110.143 5.9541H104.234Z" fill="#407BFF"/>
<path opacity="0.3" d="M104.234 5.9541L106.46 9.74761L106.474 9.76517H112.383L110.157 5.97166L110.143 5.9541H104.234Z" fill="black"/>
<path d="M116.049 4.16937L115.298 12.4325C115.266 12.775 114.952 13.0516 114.597 13.0516H110.473C110.118 13.0516 109.854 12.7706 109.885 12.4325L110.637 4.16937C110.668 3.82251 110.983 3.5459 111.338 3.5459H115.462C115.817 3.5459 116.081 3.8269 116.049 4.16937Z" fill="#263238"/>
<path opacity="0.3" d="M115.771 4.16937L115.02 12.4325C114.988 12.775 114.674 13.0516 114.319 13.0516H110.473C110.118 13.0516 109.854 12.7706 109.885 12.4325L110.637 4.16937C110.668 3.82251 110.983 3.5459 111.338 3.5459H115.184C115.539 3.5459 115.803 3.8269 115.771 4.16937Z" fill="white"/>
<path d="M113.256 7.67256C113.274 7.4662 113.101 7.33887 112.819 7.33887C112.537 7.33887 112.318 7.45741 112.164 7.64621C111.89 7.48376 111.89 7.07543 112.182 6.94371C112.396 6.84712 112.651 6.79004 112.942 6.79004C113.593 6.79004 114.016 7.07104 113.971 7.56279C113.912 8.23017 113.174 8.30481 113.133 8.74826H112.478C112.532 8.16431 113.22 8.03259 113.252 7.66817L113.256 7.67256ZM112.337 9.42003C112.355 9.20489 112.541 9.04682 112.787 9.04682C113.033 9.04682 113.188 9.20489 113.17 9.42003C113.151 9.63078 112.96 9.80201 112.719 9.80201C112.478 9.80201 112.318 9.63078 112.337 9.42003Z" fill="white"/>
<path d="M116.861 9.7666H106.445V18.0473H116.861V9.7666Z" fill="#407BFF"/>
<path d="M120.545 9.7666H116.867V18.0473H120.545V9.7666Z" fill="#407BFF"/>
<path opacity="0.3" d="M120.543 9.7666H114.625V18.0473H120.543V9.7666Z" fill="black"/>
<path d="M122.778 5.95508L120.547 9.74858L120.538 9.76615H114.625L116.856 5.97264L116.865 5.95508H122.778Z" fill="#407BFF"/>
<path d="M120.548 9.74805L120.543 9.76497H120.539L120.548 9.74805Z" fill="black"/>
<path d="M116.86 5.95508L116.852 5.972L116.856 5.95508H116.86Z" fill="black"/>
<path d="M125.367 23.0908L127.598 26.8843L127.607 26.9019H133.52L131.29 23.1084L131.281 23.0908H125.367Z" fill="#407BFF"/>
<path opacity="0.3" d="M125.367 23.0908L127.598 26.8843L127.607 26.9019H133.52L131.29 23.1084L131.281 23.0908H125.367Z" fill="black"/>
<path d="M137.19 21.3032L136.439 29.5663C136.407 29.9088 136.093 30.1854 135.738 30.1854H131.613C131.258 30.1854 130.994 29.9044 131.026 29.5663L131.777 21.3032C131.809 20.9563 132.123 20.6797 132.478 20.6797H136.603C136.958 20.6797 137.222 20.9607 137.19 21.3032Z" fill="#263238"/>
<path opacity="0.3" d="M136.912 21.3032L136.161 29.5663C136.129 29.9088 135.815 30.1854 135.46 30.1854H131.613C131.258 30.1854 130.994 29.9044 131.026 29.5663L131.777 21.3032C131.809 20.9563 132.123 20.6797 132.478 20.6797H136.325C136.68 20.6797 136.944 20.9607 136.912 21.3032Z" fill="white"/>
<path d="M134.397 24.8112C134.415 24.6049 134.242 24.4775 133.96 24.4775C133.677 24.4775 133.459 24.5961 133.304 24.7849C133.031 24.6224 133.031 24.2141 133.322 24.0824C133.536 23.9858 133.791 23.9287 134.083 23.9287C134.734 23.9287 135.157 24.2097 135.111 24.7015C135.052 25.3688 134.315 25.4435 134.274 25.8869H133.618C133.673 25.303 134.36 25.1713 134.392 24.8068L134.397 24.8112ZM133.477 26.5587C133.495 26.3436 133.682 26.1855 133.928 26.1855C134.174 26.1855 134.328 26.3436 134.31 26.5587C134.292 26.7694 134.101 26.9407 133.86 26.9407C133.618 26.9407 133.459 26.7694 133.477 26.5587Z" fill="white"/>
<path d="M138.001 26.9014H127.586V35.1821H138.001V26.9014Z" fill="#407BFF"/>
<path d="M141.678 26.9014H138V35.1821H141.678V26.9014Z" fill="#407BFF"/>
<path opacity="0.3" d="M141.676 26.9014H135.758V35.1821H141.676V26.9014Z" fill="black"/>
<path d="M143.906 23.0908L141.68 26.8843L141.667 26.9019H135.758L137.984 23.1084L137.998 23.0908H143.906Z" fill="#407BFF"/>
<path d="M141.685 26.8838L141.68 26.9007H141.672L141.685 26.8838Z" fill="black"/>
<path d="M138.005 23.0908L137.992 23.1077L137.996 23.0908H138.005Z" fill="black"/>
<path d="M84.7422 25.3457L86.9682 29.1392L86.9819 29.1568H92.8907L90.6646 25.3633L90.6555 25.3457H84.7422Z" fill="#407BFF"/>
<path opacity="0.3" d="M84.7422 25.3457L86.9682 29.1392L86.9819 29.1568H92.8907L90.6646 25.3633L90.6555 25.3457H84.7422Z" fill="black"/>
<path d="M96.5648 23.559L95.8136 31.8222C95.7818 32.1647 95.4677 32.4413 95.1126 32.4413H90.9883C90.6332 32.4413 90.3692 32.1603 90.401 31.8222L91.1522 23.559C91.184 23.2122 91.4981 22.9355 91.8532 22.9355H95.9775C96.3326 22.9355 96.5966 23.2165 96.5648 23.559Z" fill="#263238"/>
<path opacity="0.3" d="M96.2871 23.559L95.536 31.8222C95.5041 32.1647 95.19 32.4413 94.8349 32.4413H90.9883C90.6332 32.4413 90.3692 32.1603 90.401 31.8222L91.1522 23.559C91.184 23.2122 91.4981 22.9355 91.8532 22.9355H95.6998C96.0549 22.9355 96.3189 23.2165 96.2871 23.559Z" fill="white"/>
<path d="M93.7717 27.0632C93.7899 26.8568 93.617 26.7295 93.3347 26.7295C93.0525 26.7295 92.834 26.848 92.6792 27.0368C92.4061 26.8744 92.4061 26.4661 92.6974 26.3343C92.9114 26.2377 93.1663 26.1807 93.4576 26.1807C94.1086 26.1807 94.5319 26.4617 94.4864 26.9534C94.4272 27.6208 93.6898 27.6954 93.6488 28.1389H92.9933C93.0479 27.5549 93.7353 27.4232 93.7672 27.0588L93.7717 27.0632ZM92.8522 28.8107C92.8704 28.5955 93.057 28.4374 93.3029 28.4374C93.5487 28.4374 93.7034 28.5955 93.6852 28.8107C93.667 29.0214 93.4758 29.1926 93.2346 29.1926C92.9933 29.1926 92.834 29.0214 92.8522 28.8107Z" fill="white"/>
<path d="M97.3686 29.1572H86.9531V37.438H97.3686V29.1572Z" fill="#407BFF"/>
<path d="M101.053 29.1572H97.375V37.438H101.053V29.1572Z" fill="#407BFF"/>
<path opacity="0.3" d="M101.051 29.1572H95.1328V37.438H101.051V29.1572Z" fill="black"/>
<path d="M103.289 25.3457L101.063 29.1392L101.049 29.1568H95.1406L97.3667 25.3633L97.3758 25.3457H103.289Z" fill="#407BFF"/>
<path d="M101.06 29.1387L101.051 29.1556H101.047L101.06 29.1387Z" fill="black"/>
<path d="M97.3678 25.3457L97.3594 25.3626L97.3636 25.3457H97.3678Z" fill="black"/>
<path d="M105.573 47.1941C105.546 47.1941 105.519 47.1941 105.491 47.181C100.835 45.5652 96.8741 42.6279 94.0517 38.6807C93.9743 38.5753 94.0016 38.4304 94.1154 38.3558C94.2247 38.2811 94.3749 38.3075 94.4523 38.4173C97.1836 42.2239 101.162 45.1832 105.66 46.7419C105.787 46.7858 105.851 46.9175 105.806 47.0405C105.769 47.137 105.678 47.1941 105.578 47.1941H105.573Z" fill="#407BFF"/>
<path d="M109.249 48.1509C109.249 48.1509 109.221 48.1509 109.203 48.1509C108.466 48.0192 107.728 47.8568 107.013 47.6592C106.886 47.6241 106.809 47.4967 106.845 47.3694C106.881 47.2465 107.013 47.1718 107.145 47.2069C107.846 47.4001 108.57 47.5626 109.29 47.6899C109.422 47.7119 109.508 47.8348 109.485 47.9621C109.462 48.0763 109.362 48.1553 109.249 48.1553V48.1509Z" fill="#407BFF"/>
<path d="M117.779 48.1385C117.666 48.1385 117.561 48.0595 117.543 47.9453C117.52 47.818 117.606 47.695 117.738 47.6731C122.709 46.7818 127.316 44.2747 130.708 40.6173C130.799 40.5208 130.949 40.512 131.049 40.5998C131.149 40.6876 131.158 40.8325 131.067 40.9291C127.603 44.6611 122.901 47.2209 117.825 48.1341C117.811 48.1341 117.793 48.1341 117.779 48.1341V48.1385Z" fill="#407BFF"/>
<path d="M132.165 39.511C132.115 39.511 132.065 39.4979 132.019 39.4627C131.91 39.3837 131.892 39.2388 131.969 39.1334C132.338 38.6593 132.688 38.1675 133.016 37.6714C133.089 37.5616 133.239 37.5309 133.348 37.6011C133.462 37.6714 133.494 37.8163 133.421 37.9216C133.089 38.4309 132.725 38.9315 132.352 39.4144C132.301 39.4759 132.233 39.5066 132.156 39.5066L132.165 39.511Z" fill="#407BFF"/>
<path d="M136.353 21.4519C136.24 21.4519 136.139 21.3773 136.117 21.2631C135.516 18.4312 134.364 15.7748 132.689 13.3688C132.616 13.2634 132.643 13.1141 132.757 13.0439C132.866 12.9736 133.017 13 133.094 13.1097C134.801 15.5685 135.98 18.2819 136.59 21.1709C136.617 21.2982 136.531 21.4212 136.403 21.4475C136.385 21.4475 136.372 21.4519 136.353 21.4519Z" fill="#407BFF"/>
<path d="M132.001 12.2672C131.928 12.2672 131.855 12.2365 131.81 12.175C128.678 8.24977 124.23 5.40903 119.291 4.17088C119.164 4.14014 119.082 4.01281 119.118 3.88548C119.15 3.75816 119.282 3.68352 119.414 3.71864C124.462 4.97875 129.001 7.88096 132.197 11.8896C132.279 11.9906 132.26 12.1399 132.151 12.2189C132.106 12.2496 132.056 12.2672 132.005 12.2672H132.001Z" fill="#407BFF"/>
<path d="M100.467 7.28351C100.39 7.28351 100.312 7.24839 100.267 7.17814C100.194 7.07276 100.221 6.92787 100.335 6.85323C102.17 5.66337 104.164 4.73256 106.262 4.08274C106.39 4.04323 106.526 4.10909 106.567 4.23203C106.608 4.35496 106.54 4.48668 106.412 4.5262C104.359 5.16284 102.407 6.07609 100.608 7.23961C100.567 7.26595 100.522 7.27912 100.472 7.27912L100.467 7.28351Z" fill="#407BFF"/>
<path d="M98.1475 8.99633C98.0792 8.99633 98.0109 8.96998 97.9654 8.9173C97.8789 8.8207 97.888 8.67142 97.9881 8.588C98.3614 8.27187 98.7529 7.96453 99.1489 7.67475C99.2536 7.59572 99.4084 7.61767 99.4904 7.71865C99.5723 7.81964 99.5495 7.96892 99.4448 8.04795C99.0579 8.33334 98.6755 8.6363 98.3068 8.94364C98.2613 8.98316 98.2021 9.00072 98.1475 9.00072V8.99633Z" fill="#407BFF"/>
<path d="M91.709 17.8123C91.6817 17.8123 91.6498 17.8079 91.6225 17.7948C91.4996 17.7465 91.4358 17.6104 91.4859 17.4918C92.6922 14.5062 94.5086 11.8455 96.8803 9.57989C96.9759 9.48769 97.1307 9.48769 97.2217 9.57989C97.3173 9.6721 97.3128 9.82138 97.2217 9.90919C94.8955 12.1265 93.1202 14.7345 91.9366 17.6587C91.9002 17.7509 91.8091 17.8079 91.709 17.8079V17.8123Z" fill="#407BFF"/>
</svg>
