<svg width="253" height="180" viewBox="0 0 253 180" fill="none" xmlns="http://www.w3.org/2000/svg">
<g id="Group 48096724">
<g id="Group">
<path id="Vector" d="M227.714 166.981H211.023V167.103H227.714V166.981Z" fill="#EBEBEB"/>
<path id="Vector_2" d="M167.903 168.303H163.523V168.424H167.903V168.303Z" fill="#EBEBEB"/>
<path id="Vector_3" d="M210.515 162.471H200.844V162.592H210.515V162.471Z" fill="#EBEBEB"/>
<path id="Vector_4" d="M49.1875 163.287H27.4219V163.409H49.1875V163.287Z" fill="#EBEBEB"/>
<path id="Vector_5" d="M56.8697 163.287H53.6797V163.409H56.8697V163.287Z" fill="#EBEBEB"/>
<path id="Vector_6" d="M114.444 165.338H67.2344V165.459H114.444V165.338Z" fill="#EBEBEB"/>
<g id="Group_2">
<path id="Vector_7" d="M121.128 137.482H23.8151C22.2276 137.482 20.9375 136.238 20.9375 134.707V2.77541C20.9375 1.24432 22.2276 0 23.8151 0H121.128C122.715 0 124.005 1.24432 124.005 2.77541V134.707C124.005 136.238 122.715 137.482 121.128 137.482ZM23.8151 0.121515C22.2982 0.121515 21.0635 1.31236 21.0635 2.77541V134.707C21.0635 136.17 22.2982 137.361 23.8151 137.361H121.128C122.645 137.361 123.88 136.17 123.88 134.707V2.77541C123.88 1.31236 122.645 0.121515 121.128 0.121515H23.8151Z" fill="#EBEBEB"/>
<path id="Vector_8" d="M230.136 137.482H132.823C131.235 137.482 129.945 136.238 129.945 134.707V2.77541C129.945 1.24432 131.235 0 132.823 0H230.136C231.723 0 233.013 1.24432 233.013 2.77541V134.707C233.013 136.238 231.723 137.482 230.136 137.482ZM132.823 0.121515C131.306 0.121515 130.071 1.31236 130.071 2.77541V134.707C130.071 136.17 131.306 137.361 132.823 137.361H230.136C231.653 137.361 232.887 136.17 232.887 134.707V2.77541C232.887 1.31236 231.653 0.121515 230.136 0.121515H132.823Z" fill="#EBEBEB"/>
</g>
<path id="Vector_9" d="M252.96 159.16H0.984375V159.282H252.96V159.16Z" fill="#EBEBEB"/>
</g>
<g id="Group_3">
<g id="Group_4">
<path id="Vector_10" d="M202.569 98.2708C199.414 97.3278 197.333 96.7105 194.869 95.9766C194.304 95.8065 194.456 95.0045 195.045 95.0336C197.923 95.1794 200.281 95.3009 203.92 95.4857C201.823 91.9666 200.584 89.7744 199.173 87.0233C198.916 86.5178 199.606 86.0658 199.994 86.4887C201.889 88.5447 203.476 90.2168 206.016 92.8463C206.621 89.4439 207.326 86.3088 208.203 83.1591C208.36 82.5905 209.241 82.7411 209.186 83.3244C208.949 85.8811 208.864 88.4572 208.929 90.9458C209.045 90.9847 209.05 90.9896 209.171 91.0285C211.303 88.6857 213.545 86.4303 215.879 84.2674C216.327 83.8494 216.997 84.4472 216.614 84.9187C214.352 87.6892 212.255 90.5862 210.345 93.5949C213.389 92.4867 216.453 91.4125 219.532 90.3723C220.107 90.1779 220.475 90.9604 219.945 91.2472C216.755 92.9922 213.601 94.776 210.451 96.623C213.772 97.6438 215.939 98.3097 218.57 99.1165C219.129 99.2866 218.978 100.094 218.388 100.059C215.697 99.9039 213.465 99.7727 210.048 99.5734C211.696 101.435 212.845 102.713 214.175 104.157C214.563 104.58 214.014 105.192 213.525 104.881C211.847 103.807 210.375 102.854 208.229 101.464C208.445 103.117 208.637 104.4 208.864 105.654C208.969 106.228 208.123 106.456 207.906 105.912C207.347 104.536 206.838 103.165 206.193 101.352C203.769 112.542 204.399 123.386 206.742 134.502C205.578 134.298 204.998 134.2 203.839 133.996C202.141 122.593 202.579 112.386 205.2 101.177C203.743 102.626 202.675 103.72 201.652 104.823C201.249 105.26 200.538 104.755 200.851 104.254C201.536 103.161 202.282 102.043 203.275 100.604C200.679 101.153 198.905 101.532 196.945 101.955C196.371 102.081 196.083 101.309 196.612 101.051C198.437 100.176 200.11 99.3984 202.579 98.2708H202.569Z" fill="#EBEBEB"/>
<path id="Vector_11" d="M198.469 102.135C200.863 100.91 202.581 100.03 204.386 99.1116C205.081 98.7568 204.678 97.7312 203.912 97.9111C201.664 98.4409 199.573 98.9366 196.61 99.6414C197.799 96.3362 198.55 94.1101 199.286 91.6603C199.502 90.9361 198.474 90.4986 198.066 91.1499C196.867 93.0699 195.723 94.8489 194.034 97.425C193.011 94.7905 191.963 92.3457 190.814 89.9445C190.471 89.23 189.363 89.6189 189.559 90.3771C190.063 92.2825 190.482 94.1975 190.804 96.0835C190.698 96.1466 190.693 96.1467 190.582 96.2098C188.672 94.7711 186.712 93.3907 184.706 92.0735C184.016 91.6214 183.26 92.5401 183.875 93.0796C185.986 94.9412 188.007 96.9 189.927 98.9415C187.337 98.504 184.742 98.0909 182.146 97.702C181.34 97.5805 181.058 98.6936 181.829 98.9512C184.696 99.9088 187.554 100.9 190.411 101.931C187.861 103.263 186.052 104.206 184.117 105.217C183.421 105.581 183.834 106.597 184.6 106.412C186.677 105.907 188.637 105.426 191.379 104.76C190.396 106.417 189.645 107.671 188.874 108.93C188.476 109.581 189.363 110.247 189.922 109.722C191.016 108.692 192.099 107.657 193.535 106.291C193.596 107.277 193.646 108.128 193.677 108.925C193.707 109.703 194.876 109.771 195.007 109.003C195.173 108.045 195.335 107.02 195.516 105.81C200.062 116.362 201.543 127.128 201.392 138.478C202.496 138.069 203.045 137.865 204.149 137.457C203.609 125.952 201.201 115.997 196.458 105.46C197.502 106.169 198.378 106.772 199.18 107.341C199.835 107.807 200.626 106.952 200.067 106.378C199.522 105.819 198.923 105.221 198.232 104.546C200.253 104.599 201.79 104.643 203.292 104.692C204.083 104.716 204.255 103.627 203.494 103.423C202.012 103.029 200.485 102.64 198.464 102.135H198.469Z" fill="#F0F0F0"/>
<path id="Vector_12" d="M208.914 108.264C207.125 107.35 205.85 106.699 204.504 106.009C204.01 105.756 204.298 105.032 204.837 105.158C206.515 105.557 208.062 105.921 210.275 106.446C209.393 103.991 208.838 102.353 208.294 100.531C208.143 100.015 208.869 99.7092 209.156 100.166C210.053 101.6 210.894 102.908 212.149 104.827C212.91 102.859 213.696 101.036 214.558 99.2426C214.8 98.7371 215.591 99.0142 215.445 99.5537C215.057 100.997 214.74 102.455 214.498 103.885C214.568 103.923 214.568 103.923 214.639 103.962C216.09 102.869 217.582 101.824 219.104 100.822C219.593 100.502 220.127 101.158 219.688 101.542C218.101 102.937 216.579 104.4 215.138 105.936C217.078 105.61 219.018 105.299 220.963 105.012C221.533 104.925 221.734 105.717 221.19 105.897C219.048 106.611 216.917 107.35 214.785 108.118C216.685 109.11 218.025 109.81 219.472 110.563C219.961 110.821 219.673 111.54 219.129 111.409C217.577 111.03 216.125 110.675 214.079 110.174C214.82 111.423 215.38 112.357 215.959 113.304C216.241 113.766 215.616 114.238 215.218 113.863C214.397 113.086 213.586 112.318 212.507 111.287C212.457 112.06 212.421 112.721 212.396 113.338C212.376 113.888 211.55 113.941 211.454 113.397C211.323 112.658 211.202 111.875 211.061 110.937C207.745 118.632 206.666 126.481 206.777 134.749C205.976 134.453 205.573 134.302 204.766 134.006C205.159 125.616 206.913 118.364 210.37 110.68C209.554 111.234 208.879 111.7 208.259 112.138C207.795 112.468 207.236 111.861 207.629 111.457C208.052 111.02 208.521 110.553 209.07 110.009C207.543 110.053 206.394 110.082 205.26 110.116C204.701 110.135 204.58 109.362 205.119 109.217C206.238 108.92 207.377 108.628 208.899 108.244L208.914 108.264Z" fill="#F5F5F5"/>
<path id="Vector_13" d="M196.477 159.077H211.504C212.558 159.077 213.425 158.29 213.49 157.279L215.083 132.276C215.153 131.172 192.828 131.172 192.899 132.276L194.491 157.279C194.557 158.29 195.423 159.077 196.477 159.077Z" fill="#E0E0E0"/>
<path id="Vector_14" d="M195.558 101.309C195.16 100.993 194.958 100.502 195.019 100.011L195.357 97.2402L194.585 98.5283C194.127 99.2914 193.084 99.4956 192.353 98.9658L190.846 97.8673L192.222 100.011C192.615 100.623 192.489 101.425 191.92 101.897L190.141 103.369L191.889 102.985C192.655 102.815 193.426 103.238 193.668 103.958L194.268 105.727L194.651 103.846C194.822 103 195.714 102.48 196.571 102.723L197.745 103.054L195.558 101.309Z" fill="#E6E6E6"/>
<path id="Vector_15" d="M205.587 96.5353C205.879 96.302 206.025 95.9471 205.98 95.5874L205.733 93.5654L206.298 94.5084C206.63 95.0674 207.396 95.2132 207.925 94.8292L209.024 94.0272L208.016 95.5923C207.729 96.0395 207.819 96.6228 208.238 96.9679L209.538 98.0421L208.263 97.7601C207.704 97.6386 207.139 97.9448 206.963 98.4698L206.524 99.7627L206.242 98.3872C206.116 97.7699 205.466 97.3907 204.841 97.5657L203.984 97.8087L205.582 96.5353H205.587Z" fill="#F5F5F5"/>
<path id="Vector_16" d="M211.529 108.133C211.736 107.968 211.841 107.71 211.811 107.452L211.635 105.999L212.038 106.675C212.275 107.073 212.824 107.18 213.207 106.903L213.998 106.33L213.278 107.452C213.071 107.773 213.137 108.191 213.434 108.439L214.366 109.212L213.449 109.013C213.046 108.925 212.643 109.144 212.517 109.523L212.199 110.451L211.998 109.465C211.907 109.022 211.443 108.75 210.99 108.877L210.375 109.051L211.524 108.138L211.529 108.133Z" fill="#E6E6E6"/>
</g>
<g id="Group_5">
<path id="Vector_17" d="M194.83 39.2236H181.642C181.274 39.2236 180.977 39.5109 180.977 39.8652V42.3393C180.977 42.6936 181.274 42.9809 181.642 42.9809H194.83C195.198 42.9809 195.495 42.6936 195.495 42.3393V39.8652C195.495 39.5109 195.198 39.2236 194.83 39.2236Z" fill="#F5F5F5"/>
<path id="Vector_18" d="M190.393 43.8799H177.204C176.837 43.8799 176.539 44.1671 176.539 44.5215V46.9955C176.539 47.3499 176.837 47.6371 177.204 47.6371H190.393C190.76 47.6371 191.058 47.3499 191.058 46.9955V44.5215C191.058 44.1671 190.76 43.8799 190.393 43.8799Z" fill="#F5F5F5"/>
<path id="Vector_19" d="M205.588 43.8799H192.4C192.032 43.8799 191.734 44.1671 191.734 44.5215V46.9955C191.734 47.3499 192.032 47.6371 192.4 47.6371H205.588C205.955 47.6371 206.253 47.3499 206.253 46.9955V44.5215C206.253 44.1671 205.955 43.8799 205.588 43.8799Z" fill="#F0F0F0"/>
</g>
<g id="Group_6">
<path id="Vector_20" d="M62.1496 65.1553H48.0793C47.7119 65.1553 47.4141 65.4425 47.4141 65.7969V68.4994C47.4141 68.8537 47.7119 69.141 48.0793 69.141H62.1496C62.517 69.141 62.8148 68.8537 62.8148 68.4994V65.7969C62.8148 65.4425 62.517 65.1553 62.1496 65.1553Z" fill="#F5F5F5"/>
<path id="Vector_21" d="M62.1496 75.0469H48.0793C47.7119 75.0469 47.4141 75.3341 47.4141 75.6885V78.391C47.4141 78.7453 47.7119 79.0326 48.0793 79.0326H62.1496C62.517 79.0326 62.8148 78.7453 62.8148 78.391V75.6885C62.8148 75.3341 62.517 75.0469 62.1496 75.0469Z" fill="#F5F5F5"/>
<path id="Vector_22" d="M57.4465 70.0938H43.3762C43.0088 70.0938 42.7109 70.381 42.7109 70.7353V73.4378C42.7109 73.7922 43.0088 74.0794 43.3762 74.0794H57.4465C57.8138 74.0794 58.1117 73.7922 58.1117 73.4378V70.7353C58.1117 70.381 57.8138 70.0938 57.4465 70.0938Z" fill="#F5F5F5"/>
<path id="Vector_23" d="M73.5636 70.0938H59.4933C59.126 70.0938 58.8281 70.381 58.8281 70.7353V73.4378C58.8281 73.7922 59.126 74.0794 59.4933 74.0794H73.5636C73.931 74.0794 74.2289 73.7922 74.2289 73.4378V70.7353C74.2289 70.381 73.931 70.0938 73.5636 70.0938Z" fill="#F0F0F0"/>
</g>
<g id="Group_7">
<path id="Vector_24" d="M192.711 75.0762H207.28C207.647 75.0762 207.945 74.7889 207.945 74.4346V71.6008C207.945 71.2465 207.647 70.9592 207.28 70.9592H192.711C192.343 70.9592 192.046 71.2465 192.046 71.6008V74.4346C192.046 74.7889 192.343 75.0762 192.711 75.0762Z" fill="#F5F5F5"/>
<path id="Vector_25" d="M197.57 69.9727H212.139C212.507 69.9727 212.805 69.6854 212.805 69.3311V66.4973C212.805 66.143 212.507 65.8557 212.139 65.8557H197.57C197.203 65.8557 196.905 66.143 196.905 66.4973V69.3311C196.905 69.6854 197.203 69.9727 197.57 69.9727Z" fill="#F5F5F5"/>
<path id="Vector_26" d="M180.922 69.9727H195.491C195.858 69.9727 196.156 69.6854 196.156 69.3311V66.4973C196.156 66.143 195.858 65.8557 195.491 65.8557H180.922C180.554 65.8557 180.257 66.143 180.257 66.4973V69.3311C180.257 69.6854 180.554 69.9727 180.922 69.9727Z" fill="#F0F0F0"/>
</g>
<g id="Group_8">
<path id="Vector_27" d="M42.6997 54.7246H58.1004C58.4678 54.7246 58.7656 54.4374 58.7656 54.083V51.0354C58.7656 50.6811 58.4678 50.3938 58.1004 50.3938H42.6997C42.3323 50.3938 42.0345 50.6811 42.0345 51.0354V54.083C42.0345 54.4374 42.3323 54.7246 42.6997 54.7246Z" fill="#F5F5F5"/>
<path id="Vector_28" d="M50.5122 49.3584H65.9129C66.2803 49.3584 66.5781 49.0711 66.5781 48.7168V45.6692C66.5781 45.3149 66.2803 45.0276 65.9129 45.0276H50.5122C50.1448 45.0276 49.847 45.3149 49.847 45.6692V48.7168C49.847 49.0711 50.1448 49.3584 50.5122 49.3584Z" fill="#F5F5F5"/>
<path id="Vector_29" d="M33.0044 49.3584H48.4051C48.7725 49.3584 49.0703 49.0711 49.0703 48.7168V45.6692C49.0703 45.3149 48.7725 45.0276 48.4051 45.0276H33.0044C32.637 45.0276 32.3391 45.3149 32.3391 45.6692V48.7168C32.3391 49.0711 32.637 49.3584 33.0044 49.3584Z" fill="#F0F0F0"/>
</g>
<g id="Group_9">
<g id="Group_10">
<path id="Vector_30" d="M74.5631 3.28418H73.8828V22.7363H74.5631V3.28418Z" fill="#E6E6E6"/>
<g id="Group_11">
<path id="Vector_31" d="M52.6719 33.5461L74.2208 20.9863L95.7697 33.5461H52.6719Z" fill="#F0F0F0"/>
<path id="Vector_32" d="M75.7104 33.5461L74.2188 20.9863L83.9097 33.5461H75.7104Z" fill="#F5F5F5"/>
</g>
</g>
<g id="Group_12">
<path id="Vector_33" d="M180.063 3.28418H179.383V22.7363H180.063V3.28418Z" fill="#E6E6E6"/>
<g id="Group_13">
<path id="Vector_34" d="M158.18 33.5461L179.729 20.9863L201.278 33.5461H158.18Z" fill="#F0F0F0"/>
<path id="Vector_35" d="M181.213 33.5461L179.727 20.9863L189.412 33.5461H181.213Z" fill="#F5F5F5"/>
</g>
</g>
</g>
</g>
<path id="&#38;lt;Path&#38;gt;" d="M124.539 179.239C178.503 179.239 222.25 176.775 222.25 173.737C222.25 170.698 178.503 168.234 124.539 168.234C70.5748 168.234 26.8281 170.698 26.8281 173.737C26.8281 176.775 70.5748 179.239 124.539 179.239Z" fill="#F5F5F5"/>
<g id="Group_14">
<g id="Group_15">
<g id="Group_16">
<g id="Group_17">
<path id="Vector_36" d="M96.676 43.6435H94.1562V41.2132C94.1562 40.5424 94.7207 39.998 95.4161 39.998C96.1116 39.998 96.676 40.5424 96.676 41.2132V43.6435Z" fill="#263238"/>
<path id="Vector_37" d="M159.793 43.6435H157.273V41.2132C157.273 40.5424 157.838 39.998 158.533 39.998C159.229 39.998 159.793 40.5424 159.793 41.2132V43.6435Z" fill="#263238"/>
</g>
<g id="Group_18" opacity="0.5">
<path id="Vector_38" d="M96.676 43.6435H94.1562V41.2132C94.1562 40.5424 94.7207 39.998 95.4161 39.998C96.1116 39.998 96.676 40.5424 96.676 41.2132V43.6435Z" fill="white"/>
<path id="Vector_39" d="M159.793 43.6435H157.273V41.2132C157.273 40.5424 157.838 39.998 158.533 39.998C159.229 39.998 159.793 40.5424 159.793 41.2132V43.6435Z" fill="white"/>
</g>
</g>
<path id="Vector_40" d="M167.585 43.376H86.3579C84.7882 43.376 83.5156 44.6033 83.5156 46.1174V86.7277C83.5156 88.2418 84.7882 89.4691 86.3579 89.4691H167.585C169.154 89.4691 170.427 88.2418 170.427 86.7277V46.1174C170.427 44.6033 169.154 43.376 167.585 43.376Z" fill="#407BFF"/>
<path id="Vector_41" opacity="0.8" d="M167.585 43.376H86.3579C84.7882 43.376 83.5156 44.6033 83.5156 46.1174V86.7277C83.5156 88.2418 84.7882 89.4691 86.3579 89.4691H167.585C169.154 89.4691 170.427 88.2418 170.427 86.7277V46.1174C170.427 44.6033 169.154 43.376 167.585 43.376Z" fill="white"/>
<path id="Vector_42" d="M167.587 90.6836H86.36C84.0972 90.6836 82.2578 88.9095 82.2578 86.7271V46.1167C82.2578 43.9343 84.0972 42.1602 86.36 42.1602H167.582C169.844 42.1602 171.684 43.9343 171.684 46.1167V86.7271C171.684 88.9095 169.844 90.6836 167.582 90.6836H167.587ZM86.36 44.5905C85.4881 44.5905 84.7776 45.2758 84.7776 46.1167V86.7271C84.7776 87.568 85.4881 88.2533 86.36 88.2533H167.582C168.454 88.2533 169.164 87.568 169.164 86.7271V46.1167C169.164 45.2758 168.454 44.5905 167.582 44.5905H86.36Z" fill="#407BFF"/>
<g id="Group_19" opacity="0.4">
<path id="Vector_43" d="M167.587 90.6846H86.36C84.0972 90.6846 82.2578 88.9105 82.2578 86.7281V46.1177C82.2578 43.9353 84.0972 42.1611 86.36 42.1611H167.582C169.844 42.1611 171.684 43.9353 171.684 46.1177V86.7281C171.684 88.9105 169.844 90.6846 167.582 90.6846H167.587ZM86.36 44.5914C85.4881 44.5914 84.7776 45.2768 84.7776 46.1177V86.7281C84.7776 87.5689 85.4881 88.2543 86.36 88.2543H167.582C168.454 88.2543 169.164 87.5689 169.164 86.7281V46.1177C169.164 45.2768 168.454 44.5914 167.582 44.5914H86.36Z" fill="white"/>
</g>
</g>
<g id="Group_20">
<path id="Vector_44" d="M110.534 52.5757C113.784 52.7215 117.765 54.6414 118.582 57.9855C119.564 62.0101 114.041 63.6481 110.937 63.7405C107.979 63.828 102.944 62.8121 102.43 59.3465C101.846 55.4191 107.691 54.5831 110.534 54.5151C110.776 54.5102 110.776 54.1457 110.534 54.1505C107.57 54.2186 101.987 55.0254 101.977 58.8896C101.966 62.8996 107.762 64.1974 110.937 64.105C114.081 64.0127 119.272 62.5156 119.071 58.6563C118.869 54.7386 114.061 52.3667 110.534 52.2111C110.292 52.2014 110.292 52.566 110.534 52.5757Z" fill="#263238"/>
<path id="Vector_45" d="M100.581 73.5301C100.616 74.5654 100.727 75.6153 100.692 76.6506C100.682 76.9568 101.045 76.7721 100.5 76.7624C99.9862 76.7527 99.4722 76.7964 98.9582 76.8159C97.6429 76.8596 96.3275 76.9033 95.0122 76.9471C94.5133 76.9617 93.9691 76.9276 93.4701 77.0006C92.9259 77.0783 93.2938 77.1269 93.2635 76.9763C93.0519 75.8826 93.1779 74.6237 93.1375 73.5106C93.1325 73.3454 93.067 73.0829 93.1174 72.9274C93.193 72.6892 92.8201 73.0829 92.9914 73.0051C93.2534 72.8885 93.7927 72.976 94.085 72.9663C96.3023 72.8933 98.5147 72.8204 100.732 72.7427C100.974 72.7329 100.974 72.3684 100.732 72.3781C98.1317 72.4656 95.5263 72.5531 92.9259 72.6357C92.8251 72.6357 92.7344 72.7184 92.7344 72.8204C92.7848 74.2786 92.8402 75.7368 92.8906 77.1901C92.8906 77.2873 92.9763 77.3748 93.0821 77.3748C95.6825 77.2873 98.2879 77.1998 100.888 77.1172C100.989 77.1172 101.08 77.0346 101.08 76.9325C101.039 75.8 100.999 74.6675 100.959 73.5301C100.949 73.2968 100.571 73.2968 100.581 73.5301Z" fill="#263238"/>
<path id="Vector_46" d="M119.654 73.8319C119.705 75.256 120.012 76.8698 119.815 78.2745C119.735 78.8286 120.219 78.3717 119.463 78.5078C118.767 78.6342 117.971 78.5564 117.265 78.5807C115.391 78.6439 113.521 78.7071 111.646 78.7703C110.931 78.7946 110.17 78.8869 109.449 78.8432C108.653 78.7946 109.227 79.0813 109.071 78.7265C108.532 77.4968 108.94 75.1394 108.895 73.793C108.875 73.2924 108.97 72.8743 108.764 72.9959C109.066 72.816 109.958 72.957 110.326 72.9424L119.79 72.6265C120.032 72.6167 120.032 72.2522 119.79 72.2619C116.081 72.3834 112.377 72.5098 108.668 72.6313C108.567 72.6313 108.477 72.7139 108.477 72.816C108.552 74.8915 108.623 76.967 108.698 79.0425C108.698 79.1397 108.784 79.2272 108.89 79.2272C112.599 79.1056 116.303 78.9793 120.012 78.8578C120.113 78.8578 120.203 78.7751 120.203 78.6731C120.148 77.0593 120.088 75.4456 120.032 73.827C120.022 73.5937 119.644 73.5937 119.654 73.827V73.8319Z" fill="#263238"/>
<path id="Vector_47" d="M161.636 53.2175C161.672 54.1507 161.813 55.1326 161.737 56.0609C161.667 56.9553 162.145 56.2894 161.475 56.5275C160.029 57.0428 157.585 56.6588 156.038 56.7074C153.664 56.7852 151.29 56.8678 148.922 56.9456C148.11 56.9747 147.294 57.0331 146.488 57.0282C146.347 57.0282 145.994 57.1157 145.878 57.0476C145.51 56.8435 146.14 57.4705 145.878 56.9893C145.53 56.3283 145.802 54.8215 145.772 54.0681C145.767 53.8834 145.601 52.9842 145.727 52.8286C145.631 52.9501 145.545 53.0668 145.843 52.9356C147.072 52.3912 149.647 52.8092 150.973 52.7654C154.576 52.6439 158.184 52.5273 161.788 52.4058C162.03 52.396 162.03 52.0315 161.788 52.0412C156.37 52.221 150.953 52.4009 145.535 52.5807C145.434 52.5807 145.344 52.6634 145.344 52.7654C145.399 54.2576 145.45 55.745 145.505 57.2372C145.505 57.3344 145.591 57.4219 145.697 57.4219C151.114 57.2421 156.531 57.0622 161.949 56.8824C162.05 56.8824 162.14 56.7997 162.14 56.6977C162.1 55.536 162.06 54.3792 162.014 53.2175C162.004 52.9842 161.626 52.9842 161.636 53.2175Z" fill="#263238"/>
<path id="Vector_48" d="M164.65 59.1377C157.443 59.1377 150.232 59.1377 143.025 59.1377C142.783 59.1377 142.783 59.5022 143.025 59.5022C150.232 59.5022 157.443 59.5022 164.65 59.5022C164.892 59.5022 164.892 59.1377 164.65 59.1377Z" fill="#263238"/>
<path id="Vector_49" d="M162.741 63.1768C159.138 63.1768 155.535 63.1768 151.931 63.1768C151.69 63.1768 151.69 63.5413 151.931 63.5413C155.535 63.5413 159.138 63.5413 162.741 63.5413C162.983 63.5413 162.983 63.1768 162.741 63.1768Z" fill="#263238"/>
<path id="Vector_50" d="M159.793 64.7861C157.173 64.7861 154.552 64.7861 151.931 64.7861C151.69 64.7861 151.69 65.1507 151.931 65.1507C154.552 65.1507 157.173 65.1507 159.793 65.1507C160.035 65.1507 160.035 64.7861 159.793 64.7861Z" fill="#263238"/>
<path id="Vector_51" d="M117.249 58.2295C113.646 58.2295 110.042 58.2295 106.439 58.2295C106.197 58.2295 106.197 58.594 106.439 58.594C110.042 58.594 113.646 58.594 117.249 58.594C117.491 58.594 117.491 58.2295 117.249 58.2295Z" fill="#263238"/>
<path id="Vector_52" d="M114.301 59.8428H106.439C106.197 59.8428 106.197 60.2122 106.439 60.2122H114.301C114.543 60.2122 114.543 59.8428 114.301 59.8428Z" fill="#263238"/>
<path id="Vector_53" d="M162.679 69.1025C159.075 69.1025 155.472 69.1025 151.869 69.1025C151.627 69.1025 151.627 69.4671 151.869 69.4671C155.472 69.4671 159.075 69.4671 162.679 69.4671C162.921 69.4671 162.921 69.1025 162.679 69.1025Z" fill="#263238"/>
<path id="Vector_54" d="M157.268 77.0059C155.464 77.0059 153.665 77.0059 151.861 77.0059C151.619 77.0059 151.619 77.3704 151.861 77.3704C153.665 77.3704 155.464 77.3704 157.268 77.3704C157.51 77.3704 157.51 77.0059 157.268 77.0059Z" fill="#263238"/>
<path id="Vector_55" d="M99.3779 75.0273C97.5737 75.0273 95.7746 75.0273 93.9705 75.0273C93.7286 75.0273 93.7286 75.3919 93.9705 75.3919C95.7746 75.3919 97.5737 75.3919 99.3779 75.3919C99.6198 75.3919 99.6198 75.0273 99.3779 75.0273Z" fill="#263238"/>
<path id="Vector_56" d="M117.37 75.115C115.233 75.2803 113.097 75.4407 110.955 75.6059C110.713 75.6254 110.713 75.9899 110.955 75.9705C113.092 75.8052 115.228 75.6448 117.37 75.4796C117.612 75.4601 117.612 75.0956 117.37 75.115Z" fill="#263238"/>
<path id="Vector_57" d="M132.624 66.8174C130.654 66.8174 128.683 66.8174 126.713 66.8174C126.471 66.8174 126.471 67.1819 126.713 67.1819C128.683 67.1819 130.654 67.1819 132.624 67.1819C132.866 67.1819 132.866 66.8174 132.624 66.8174Z" fill="#263238"/>
<path id="Vector_58" d="M162.679 75.5625C159.075 75.5625 155.472 75.5625 151.869 75.5625C151.627 75.5625 151.627 75.927 151.869 75.927C155.472 75.927 159.075 75.927 162.679 75.927C162.921 75.927 162.921 75.5625 162.679 75.5625Z" fill="#263238"/>
<path id="Vector_59" d="M124.917 65.1559L124.766 69.3992C124.766 69.5013 124.856 69.5791 124.957 69.5839C128.203 69.6909 131.448 69.8027 134.698 69.9096C134.804 69.9096 134.885 69.8221 134.89 69.7249C134.956 67.907 135.021 66.0892 135.087 64.2713C135.087 64.1692 134.996 64.0915 134.895 64.0866C131.65 63.9797 128.404 63.8727 125.154 63.7609C124.912 63.7512 124.912 64.1158 125.154 64.1255L133.444 64.4025C133.756 64.4123 134.497 64.2907 134.759 64.4463C135.026 64.6018 134.572 64.106 134.698 64.3977C134.754 64.5192 134.698 64.8449 134.678 64.9858C134.457 66.3857 134.956 68.0966 134.517 69.4479C134.411 69.7784 134.895 69.5013 134.21 69.5256C133.63 69.5499 133.035 69.4867 132.456 69.4673C130.758 69.409 129.064 69.3555 127.366 69.2972C126.726 69.2777 126.086 69.2437 125.441 69.234C124.761 69.2194 125.194 69.4187 125.159 69.0493C125.028 67.7952 125.254 66.4197 125.3 65.1559C125.31 64.9226 124.932 64.9226 124.922 65.1559H124.917Z" fill="#263238"/>
<path id="Vector_60" d="M103.703 64.1445C101.153 65.6124 99.0264 68.0281 98.074 70.7355C97.9933 70.9591 98.3612 71.0514 98.4368 70.8327C99.3591 68.2177 101.435 65.8798 103.895 64.4605C104.101 64.3389 103.915 64.023 103.703 64.1445Z" fill="#263238"/>
<path id="Vector_61" d="M97.2344 68.8886C97.4007 69.8316 97.572 70.7794 97.7383 71.7224C97.7635 71.8682 97.955 71.8828 98.0558 71.805L100.49 69.851C100.676 69.7004 100.409 69.4427 100.223 69.5934C99.4114 70.2447 98.6001 70.8961 97.7887 71.5474C97.8946 71.5766 98.0004 71.6009 98.1062 71.63C97.9399 70.6871 97.7686 69.7392 97.6023 68.7963C97.5619 68.5678 97.1991 68.6651 97.2394 68.8935L97.2344 68.8886Z" fill="#263238"/>
<path id="Vector_62" d="M117.313 62.852C119.51 63.6977 121.511 65.3503 122.615 67.3578C122.731 67.5668 123.053 67.3821 122.942 67.1731C121.788 65.0733 119.702 63.3769 117.414 62.4972C117.187 62.4097 117.091 62.7645 117.313 62.8471V62.852Z" fill="#263238"/>
<path id="Vector_63" d="M123.009 65.5686C122.998 66.3608 122.993 67.158 122.983 67.9503C123.079 67.8968 123.175 67.8433 123.266 67.7947C122.515 67.367 121.759 66.9392 121.008 66.5067C120.796 66.3851 120.61 66.7011 120.816 66.8226C121.567 67.2503 122.323 67.6781 123.074 68.1107C123.2 68.1836 123.356 68.0912 123.356 67.9551C123.366 67.1628 123.371 66.3657 123.381 65.5734C123.381 65.3401 123.004 65.3401 123.004 65.5734L123.009 65.5686Z" fill="#263238"/>
<path id="Vector_64" d="M112.911 65.9042C113.244 67.4062 113.491 68.9227 113.707 70.444C113.743 70.6774 114.105 70.5753 114.07 70.3468C113.848 68.8303 113.601 67.309 113.274 65.807C113.223 65.5786 112.861 65.6758 112.911 65.9042Z" fill="#263238"/>
<path id="Vector_65" d="M114.428 69.2389C114.222 69.8027 114.015 70.3617 113.808 70.9255C113.914 70.8964 114.02 70.8721 114.126 70.8429C113.697 70.3617 113.274 69.8805 112.846 69.3993C112.689 69.2195 112.422 69.4819 112.579 69.6569C113.007 70.1381 113.43 70.6193 113.859 71.1005C113.959 71.2123 114.131 71.1394 114.176 71.0179C114.383 70.4541 114.589 69.8951 114.796 69.3313C114.877 69.1077 114.514 69.0153 114.433 69.234L114.428 69.2389Z" fill="#263238"/>
<path id="Vector_66" d="M148.163 64.7861H144.822L145.013 64.9708V61.7482L144.822 61.9329H148.163L147.971 61.7482V64.9708C147.971 65.2041 148.349 65.2041 148.349 64.9708V61.7482C148.349 61.651 148.264 61.5635 148.158 61.5635H144.817C144.716 61.5635 144.625 61.6461 144.625 61.7482V64.9708C144.625 65.068 144.711 65.1555 144.817 65.1555H148.158C148.4 65.1555 148.4 64.7909 148.158 64.7909L148.163 64.7861Z" fill="#263238"/>
<path id="Vector_67" d="M148.163 70.7109H144.822L145.013 70.8956V67.673L144.822 67.8577H148.163L147.971 67.673V70.8956C147.971 71.1289 148.349 71.1289 148.349 70.8956V67.673C148.349 67.5758 148.264 67.4883 148.158 67.4883H144.817C144.716 67.4883 144.625 67.5709 144.625 67.673V70.8956C144.625 70.9928 144.711 71.0803 144.817 71.0803H148.158C148.4 71.0803 148.4 70.7157 148.158 70.7157L148.163 70.7109Z" fill="#263238"/>
<path id="Vector_68" d="M148.163 76.6366H144.822L145.013 76.8214V73.5988L144.822 73.7835H148.163L147.971 73.5988V76.8214C147.971 77.0547 148.349 77.0547 148.349 76.8214V73.5988C148.349 73.5016 148.264 73.4141 148.158 73.4141H144.817C144.716 73.4141 144.625 73.4967 144.625 73.5988V76.8214C144.625 76.9186 144.711 77.0061 144.817 77.0061H148.158C148.4 77.0061 148.4 76.6415 148.158 76.6415L148.163 76.6366Z" fill="#263238"/>
<path id="Vector_69" d="M143.934 62.4337C144.766 62.7934 145.537 63.3232 146.086 64.0279C146.162 64.1252 146.283 64.1495 146.384 64.0668C147.472 63.1142 148.823 62.1663 150.299 61.9282C150.536 61.8893 150.435 61.5393 150.199 61.5782C148.651 61.831 147.654 62.8225 146.389 63.5856C145.975 63.8335 146.353 63.6974 146.217 63.6002C145.955 63.4155 145.749 63.1239 145.487 62.9246C145.073 62.6087 144.61 62.3365 144.126 62.1275C143.904 62.0302 143.713 62.3462 143.934 62.4434V62.4337Z" fill="#263238"/>
<path id="Vector_70" d="M143.934 68.6358C144.766 68.9955 145.537 69.5253 146.086 70.2301C146.162 70.3273 146.283 70.3516 146.384 70.269C147.472 69.3163 148.823 68.3685 150.299 68.1303C150.536 68.0914 150.435 67.7415 150.199 67.7804C148.651 68.0331 147.654 69.0247 146.389 69.7878C145.975 70.0357 146.353 69.8996 146.217 69.8024C145.955 69.6177 145.749 69.326 145.487 69.1267C145.073 68.8108 144.61 68.5386 144.126 68.3296C143.904 68.2324 143.713 68.5483 143.934 68.6455V68.6358Z" fill="#263238"/>
<path id="Vector_71" d="M143.934 74.2833C144.766 74.643 145.537 75.1728 146.086 75.8776C146.162 75.9748 146.283 75.9991 146.384 75.9164C147.472 74.9638 148.823 74.0159 150.299 73.7778C150.536 73.7389 150.435 73.3889 150.199 73.4278C148.651 73.6806 147.654 74.6721 146.389 75.4352C145.975 75.6831 146.353 75.547 146.217 75.4498C145.955 75.2651 145.749 74.9735 145.487 74.7742C145.073 74.4583 144.61 74.1861 144.126 73.9771C143.904 73.8798 143.713 74.1958 143.934 74.293V74.2833Z" fill="#263238"/>
<g id="Group_21" opacity="0.3">
<path id="Vector_72" d="M110.534 52.5757C113.784 52.7215 117.765 54.6414 118.582 57.9855C119.564 62.0101 114.041 63.6481 110.937 63.7405C107.979 63.828 102.944 62.8121 102.43 59.3465C101.846 55.4191 107.691 54.5831 110.534 54.5151C110.776 54.5102 110.776 54.1457 110.534 54.1505C107.57 54.2186 101.987 55.0254 101.977 58.8896C101.966 62.8996 107.762 64.1974 110.937 64.105C114.081 64.0127 119.272 62.5156 119.071 58.6563C118.869 54.7386 114.061 52.3667 110.534 52.2111C110.292 52.2014 110.292 52.566 110.534 52.5757Z" fill="white"/>
</g>
<g id="Group_22" opacity="0.3">
<path id="Vector_73" d="M100.581 73.5311C100.616 74.5664 100.727 75.6163 100.692 76.6516C100.682 76.9578 101.045 76.7731 100.5 76.7634C99.9862 76.7536 99.4722 76.7974 98.9582 76.8168C97.6429 76.8606 96.3275 76.9043 95.0122 76.9481C94.5133 76.9626 93.9691 76.9286 93.4701 77.0015C92.9259 77.0793 93.2938 77.1279 93.2635 76.9772C93.0519 75.8836 93.1779 74.6247 93.1375 73.5116C93.1325 73.3464 93.067 73.0839 93.1174 72.9283C93.193 72.6902 92.8201 73.0839 92.9914 73.0061C93.2534 72.8895 93.7927 72.9769 94.085 72.9672C96.3023 72.8943 98.5147 72.8214 100.732 72.7436C100.974 72.7339 100.974 72.3694 100.732 72.3791C98.1317 72.4666 95.5263 72.5541 92.9259 72.6367C92.8251 72.6367 92.7344 72.7193 92.7344 72.8214C92.7848 74.2796 92.8402 75.7378 92.8906 77.1911C92.8906 77.2883 92.9763 77.3758 93.0821 77.3758C95.6825 77.2883 98.2879 77.2008 100.888 77.1182C100.989 77.1182 101.08 77.0356 101.08 76.9335C101.039 75.801 100.999 74.6684 100.959 73.5311C100.949 73.2977 100.571 73.2977 100.581 73.5311Z" fill="white"/>
</g>
<g id="Group_23" opacity="0.3">
<path id="Vector_74" d="M119.654 73.8319C119.705 75.256 120.012 76.8698 119.815 78.2745C119.735 78.8286 120.219 78.3717 119.463 78.5078C118.767 78.6342 117.971 78.5564 117.265 78.5807C115.391 78.6439 113.521 78.7071 111.646 78.7703C110.931 78.7946 110.17 78.8869 109.449 78.8432C108.653 78.7946 109.227 79.0813 109.071 78.7265C108.532 77.4968 108.94 75.1394 108.895 73.793C108.875 73.2924 108.97 72.8743 108.764 72.9959C109.066 72.816 109.958 72.957 110.326 72.9424L119.79 72.6265C120.032 72.6167 120.032 72.2522 119.79 72.2619C116.081 72.3834 112.377 72.5098 108.668 72.6313C108.567 72.6313 108.477 72.7139 108.477 72.816C108.552 74.8915 108.623 76.967 108.698 79.0425C108.698 79.1397 108.784 79.2272 108.89 79.2272C112.599 79.1056 116.303 78.9793 120.012 78.8578C120.113 78.8578 120.203 78.7751 120.203 78.6731C120.148 77.0593 120.088 75.4456 120.032 73.827C120.022 73.5937 119.644 73.5937 119.654 73.827V73.8319Z" fill="white"/>
</g>
<g id="Group_24" opacity="0.3">
<path id="Vector_75" d="M161.636 53.2175C161.672 54.1507 161.813 55.1326 161.737 56.0609C161.667 56.9553 162.145 56.2894 161.475 56.5275C160.029 57.0428 157.585 56.6588 156.038 56.7074C153.664 56.7852 151.29 56.8678 148.922 56.9456C148.11 56.9747 147.294 57.0331 146.488 57.0282C146.347 57.0282 145.994 57.1157 145.878 57.0476C145.51 56.8435 146.14 57.4705 145.878 56.9893C145.53 56.3283 145.802 54.8215 145.772 54.0681C145.767 53.8834 145.601 52.9842 145.727 52.8286C145.631 52.9501 145.545 53.0668 145.843 52.9356C147.072 52.3912 149.647 52.8092 150.973 52.7654C154.576 52.6439 158.184 52.5273 161.788 52.4058C162.03 52.396 162.03 52.0315 161.788 52.0412C156.37 52.221 150.953 52.4009 145.535 52.5807C145.434 52.5807 145.344 52.6634 145.344 52.7654C145.399 54.2576 145.45 55.745 145.505 57.2372C145.505 57.3344 145.591 57.4219 145.697 57.4219C151.114 57.2421 156.531 57.0622 161.949 56.8824C162.05 56.8824 162.14 56.7997 162.14 56.6977C162.1 55.536 162.06 54.3792 162.014 53.2175C162.004 52.9842 161.626 52.9842 161.636 53.2175Z" fill="white"/>
</g>
<g id="Group_25" opacity="0.3">
<path id="Vector_76" d="M164.65 59.1377C157.443 59.1377 150.232 59.1377 143.025 59.1377C142.783 59.1377 142.783 59.5022 143.025 59.5022C150.232 59.5022 157.443 59.5022 164.65 59.5022C164.892 59.5022 164.892 59.1377 164.65 59.1377Z" fill="white"/>
</g>
<g id="Group_26" opacity="0.3">
<path id="Vector_77" d="M162.741 63.1768C159.138 63.1768 155.535 63.1768 151.931 63.1768C151.69 63.1768 151.69 63.5413 151.931 63.5413C155.535 63.5413 159.138 63.5413 162.741 63.5413C162.983 63.5413 162.983 63.1768 162.741 63.1768Z" fill="white"/>
</g>
<g id="Group_27" opacity="0.3">
<path id="Vector_78" d="M159.793 64.7861C157.173 64.7861 154.552 64.7861 151.931 64.7861C151.69 64.7861 151.69 65.1507 151.931 65.1507C154.552 65.1507 157.173 65.1507 159.793 65.1507C160.035 65.1507 160.035 64.7861 159.793 64.7861Z" fill="white"/>
</g>
<g id="Group_28" opacity="0.3">
<path id="Vector_79" d="M117.249 58.2295C113.646 58.2295 110.042 58.2295 106.439 58.2295C106.197 58.2295 106.197 58.594 106.439 58.594C110.042 58.594 113.646 58.594 117.249 58.594C117.491 58.594 117.491 58.2295 117.249 58.2295Z" fill="white"/>
</g>
<g id="Group_29" opacity="0.3">
<path id="Vector_80" d="M114.301 59.8438H106.439C106.197 59.8438 106.197 60.2132 106.439 60.2132H114.301C114.543 60.2132 114.543 59.8438 114.301 59.8438Z" fill="white"/>
</g>
<g id="Group_30" opacity="0.3">
<path id="Vector_81" d="M162.679 69.1025C159.075 69.1025 155.472 69.1025 151.869 69.1025C151.627 69.1025 151.627 69.4671 151.869 69.4671C155.472 69.4671 159.075 69.4671 162.679 69.4671C162.921 69.4671 162.921 69.1025 162.679 69.1025Z" fill="white"/>
</g>
<g id="Group_31" opacity="0.3">
<path id="Vector_82" d="M157.268 77.0059C155.464 77.0059 153.665 77.0059 151.861 77.0059C151.619 77.0059 151.619 77.3704 151.861 77.3704C153.665 77.3704 155.464 77.3704 157.268 77.3704C157.51 77.3704 157.51 77.0059 157.268 77.0059Z" fill="white"/>
</g>
<g id="Group_32" opacity="0.3">
<path id="Vector_83" d="M99.3779 75.0273C97.5737 75.0273 95.7746 75.0273 93.9705 75.0273C93.7286 75.0273 93.7286 75.3919 93.9705 75.3919C95.7746 75.3919 97.5737 75.3919 99.3779 75.3919C99.6198 75.3919 99.6198 75.0273 99.3779 75.0273Z" fill="white"/>
</g>
<g id="Group_33" opacity="0.3">
<path id="Vector_84" d="M117.37 75.115C115.233 75.2803 113.097 75.4407 110.955 75.6059C110.713 75.6254 110.713 75.9899 110.955 75.9705C113.092 75.8052 115.228 75.6448 117.37 75.4796C117.612 75.4601 117.612 75.0956 117.37 75.115Z" fill="white"/>
</g>
<g id="Group_34" opacity="0.3">
<path id="Vector_85" d="M132.624 66.8174C130.654 66.8174 128.683 66.8174 126.713 66.8174C126.471 66.8174 126.471 67.1819 126.713 67.1819C128.683 67.1819 130.654 67.1819 132.624 67.1819C132.866 67.1819 132.866 66.8174 132.624 66.8174Z" fill="white"/>
</g>
<g id="Group_35" opacity="0.3">
<path id="Vector_86" d="M162.679 75.5625C159.075 75.5625 155.472 75.5625 151.869 75.5625C151.627 75.5625 151.627 75.927 151.869 75.927C155.472 75.927 159.075 75.927 162.679 75.927C162.921 75.927 162.921 75.5625 162.679 75.5625Z" fill="white"/>
</g>
<g id="Group_36" opacity="0.3">
<path id="Vector_87" d="M124.917 65.1559L124.766 69.3992C124.766 69.5013 124.856 69.5791 124.957 69.5839C128.203 69.6909 131.448 69.8027 134.698 69.9096C134.804 69.9096 134.885 69.8221 134.89 69.7249C134.956 67.907 135.021 66.0892 135.087 64.2713C135.087 64.1692 134.996 64.0915 134.895 64.0866C131.65 63.9797 128.404 63.8727 125.154 63.7609C124.912 63.7512 124.912 64.1158 125.154 64.1255L133.444 64.4025C133.756 64.4123 134.497 64.2907 134.759 64.4463C135.026 64.6018 134.572 64.106 134.698 64.3977C134.754 64.5192 134.698 64.8449 134.678 64.9858C134.457 66.3857 134.956 68.0966 134.517 69.4479C134.411 69.7784 134.895 69.5013 134.21 69.5256C133.63 69.5499 133.035 69.4867 132.456 69.4673C130.758 69.409 129.064 69.3555 127.366 69.2972C126.726 69.2777 126.086 69.2437 125.441 69.234C124.761 69.2194 125.194 69.4187 125.159 69.0493C125.028 67.7952 125.254 66.4197 125.3 65.1559C125.31 64.9226 124.932 64.9226 124.922 65.1559H124.917Z" fill="white"/>
</g>
<g id="Group_37" opacity="0.3">
<path id="Vector_88" d="M103.695 64.1445C101.145 65.6124 99.0186 68.0281 98.0662 70.7355C97.9855 70.9591 98.3534 71.0514 98.429 70.8327C99.3512 68.2177 101.428 65.8798 103.887 64.4605C104.093 64.3389 103.907 64.023 103.695 64.1445Z" fill="white"/>
</g>
<g id="Group_38" opacity="0.3">
<path id="Vector_89" d="M97.2344 68.8886C97.4007 69.8316 97.572 70.7794 97.7383 71.7224C97.7635 71.8682 97.955 71.8828 98.0558 71.805L100.49 69.851C100.676 69.7004 100.409 69.4427 100.223 69.5934C99.4114 70.2447 98.6001 70.8961 97.7887 71.5474C97.8946 71.5766 98.0004 71.6009 98.1062 71.63C97.9399 70.6871 97.7686 69.7392 97.6023 68.7963C97.5619 68.5678 97.1991 68.6651 97.2394 68.8935L97.2344 68.8886Z" fill="white"/>
</g>
<g id="Group_39" opacity="0.3">
<path id="Vector_90" d="M117.313 62.852C119.51 63.6977 121.511 65.3503 122.615 67.3578C122.731 67.5668 123.053 67.3821 122.942 67.1731C121.788 65.0733 119.702 63.3769 117.414 62.4972C117.187 62.4097 117.091 62.7645 117.313 62.8471V62.852Z" fill="white"/>
</g>
<g id="Group_40" opacity="0.3">
<path id="Vector_91" d="M123.009 65.5695C122.998 66.3618 122.993 67.159 122.983 67.9512C123.079 67.8978 123.175 67.8443 123.266 67.7957C122.515 67.368 121.759 66.9402 121.008 66.5076C120.796 66.3861 120.61 66.7021 120.816 66.8236C121.567 67.2513 122.323 67.679 123.074 68.1116C123.2 68.1845 123.356 68.0922 123.356 67.9561C123.366 67.1638 123.371 66.3667 123.381 65.5744C123.381 65.3411 123.004 65.3411 123.004 65.5744L123.009 65.5695Z" fill="white"/>
</g>
<g id="Group_41" opacity="0.3">
<path id="Vector_92" d="M112.903 65.9042C113.236 67.4062 113.483 68.9227 113.699 70.444C113.735 70.6774 114.098 70.5753 114.062 70.3468C113.841 68.8303 113.594 67.309 113.266 65.807C113.216 65.5786 112.853 65.6758 112.903 65.9042Z" fill="white"/>
</g>
<g id="Group_42" opacity="0.3">
<path id="Vector_93" d="M114.428 69.2389C114.222 69.8027 114.015 70.3617 113.808 70.9255C113.914 70.8964 114.02 70.8721 114.126 70.8429C113.697 70.3617 113.274 69.8805 112.846 69.3993C112.689 69.2195 112.422 69.4819 112.579 69.6569C113.007 70.1381 113.43 70.6193 113.859 71.1005C113.959 71.2123 114.131 71.1394 114.176 71.0179C114.383 70.4541 114.589 69.8951 114.796 69.3313C114.877 69.1077 114.514 69.0153 114.433 69.234L114.428 69.2389Z" fill="white"/>
</g>
<g id="Group_43" opacity="0.3">
<path id="Vector_94" d="M148.163 64.787H144.822L145.013 64.9717V61.7492L144.822 61.9339H148.163L147.971 61.7492V64.9717C147.971 65.205 148.349 65.205 148.349 64.9717V61.7492C148.349 61.6519 148.264 61.5645 148.158 61.5645H144.817C144.716 61.5645 144.625 61.6471 144.625 61.7492V64.9717C144.625 65.0689 144.711 65.1564 144.817 65.1564H148.158C148.4 65.1564 148.4 64.7919 148.158 64.7919L148.163 64.787Z" fill="white"/>
</g>
<g id="Group_44" opacity="0.3">
<path id="Vector_95" d="M148.163 70.7118H144.822L145.013 70.8965V67.674L144.822 67.8587H148.163L147.971 67.674V70.8965C147.971 71.1299 148.349 71.1299 148.349 70.8965V67.674C148.349 67.5767 148.264 67.4893 148.158 67.4893H144.817C144.716 67.4893 144.625 67.5719 144.625 67.674V70.8965C144.625 70.9938 144.711 71.0812 144.817 71.0812H148.158C148.4 71.0812 148.4 70.7167 148.158 70.7167L148.163 70.7118Z" fill="white"/>
</g>
<g id="Group_45" opacity="0.3">
<path id="Vector_96" d="M148.163 76.6366H144.822L145.013 76.8214V73.5988L144.822 73.7835H148.163L147.971 73.5988V76.8214C147.971 77.0547 148.349 77.0547 148.349 76.8214V73.5988C148.349 73.5016 148.264 73.4141 148.158 73.4141H144.817C144.716 73.4141 144.625 73.4967 144.625 73.5988V76.8214C144.625 76.9186 144.711 77.0061 144.817 77.0061H148.158C148.4 77.0061 148.4 76.6415 148.158 76.6415L148.163 76.6366Z" fill="white"/>
</g>
<g id="Group_46" opacity="0.3">
<path id="Vector_97" d="M143.927 62.4337C144.758 62.7934 145.529 63.3232 146.079 64.0279C146.154 64.1252 146.275 64.1495 146.376 64.0668C147.464 63.1142 148.815 62.1663 150.292 61.9282C150.528 61.8893 150.428 61.5393 150.191 61.5782C148.644 61.831 147.646 62.8225 146.381 63.5856C145.968 63.8335 146.346 63.6974 146.21 63.6002C145.947 63.4155 145.741 63.1239 145.479 62.9246C145.066 62.6087 144.602 62.3365 144.118 62.1275C143.896 62.0302 143.705 62.3462 143.927 62.4434V62.4337Z" fill="white"/>
</g>
<g id="Group_47" opacity="0.3">
<path id="Vector_98" d="M143.927 68.6358C144.758 68.9955 145.529 69.5253 146.079 70.2301C146.154 70.3273 146.275 70.3516 146.376 70.269C147.464 69.3163 148.815 68.3685 150.292 68.1303C150.528 68.0914 150.428 67.7415 150.191 67.7804C148.644 68.0331 147.646 69.0247 146.381 69.7878C145.968 70.0357 146.346 69.8996 146.21 69.8024C145.947 69.6177 145.741 69.326 145.479 69.1267C145.066 68.8108 144.602 68.5386 144.118 68.3296C143.896 68.2324 143.705 68.5483 143.927 68.6455V68.6358Z" fill="white"/>
</g>
<g id="Group_48" opacity="0.3">
<path id="Vector_99" d="M143.927 74.2833C144.758 74.643 145.529 75.1728 146.079 75.8776C146.154 75.9748 146.275 75.9991 146.376 75.9164C147.464 74.9638 148.815 74.0159 150.292 73.7778C150.528 73.7389 150.428 73.3889 150.191 73.4278C148.644 73.6806 147.646 74.6721 146.381 75.4352C145.968 75.6831 146.346 75.547 146.21 75.4498C145.947 75.2651 145.741 74.9735 145.479 74.7742C145.066 74.4583 144.602 74.1861 144.118 73.9771C143.896 73.8798 143.705 74.1958 143.927 74.293V74.2833Z" fill="white"/>
</g>
</g>
</g>
<g id="Group_49">
<path id="Vector_100" d="M153.75 161.24C153.75 169.78 168.642 171.865 187.016 171.865C205.39 171.865 212.768 169.775 212.768 161.24C212.768 152.705 207.582 142.322 189.208 142.322C170.834 142.322 153.75 152.7 153.75 161.24Z" fill="#407BFF"/>
<path id="Vector_101" opacity="0.5" d="M153.75 161.24C153.75 169.78 168.642 171.865 187.016 171.865C205.39 171.865 212.768 169.775 212.768 161.24C212.768 152.705 207.582 142.322 189.208 142.322C170.834 142.322 153.75 152.7 153.75 161.24Z" fill="white"/>
<path id="Vector_102" d="M151.35 149.279C150.675 161.017 154.041 167.36 161.711 167.768C169.386 168.182 176.155 158.995 176.83 147.257C177.505 135.518 169.775 126.521 162.104 126.113C154.429 125.7 152.025 137.54 151.35 149.284V149.279Z" fill="#407BFF"/>
<path id="Vector_103" opacity="0.5" d="M151.35 149.279C150.675 161.017 154.041 167.36 161.711 167.768C169.386 168.182 176.155 158.995 176.83 147.257C177.505 135.518 169.775 126.521 162.104 126.113C154.429 125.7 152.025 137.54 151.35 149.284V149.279Z" fill="white"/>
<path id="Vector_104" opacity="0.1" d="M188.828 143.334C188.828 143.334 195.969 142.464 196.599 144.894C197.229 147.325 184.822 145.988 182.333 148.418C179.843 150.849 190.426 152.098 188.123 153.551C186.314 154.693 180.135 149.512 172.243 151.456C164.352 153.4 163.223 147.66 164.105 142.328C164.982 136.996 165.627 131.265 168.01 131.698C170.399 132.135 178.165 142.629 188.833 143.334H188.828Z" fill="black"/>
<path id="Vector_105" opacity="0.1" d="M166.62 152.034C166.62 152.034 159.232 150.78 158.824 153.764C158.416 156.749 157.851 152.335 166.62 152.034Z" fill="black"/>
<path id="Vector_106" opacity="0.1" d="M154.711 164.633C152.635 162.285 151.511 158.645 151.305 153.77C152.257 163.053 157.841 169.071 180.156 170.038C202.516 171.01 207.435 164.57 209.828 165.338C210.831 165.659 210.836 166.548 210.504 167.472C207.097 170.869 199.659 171.861 187.015 171.861C171.377 171.861 158.264 170.344 154.706 164.628L154.711 164.633Z" fill="black"/>
<g id="Group_50">
<path id="Vector_107" d="M193.104 124.907C193.104 124.907 192.061 125.068 191.446 125.67C190.832 126.273 189.017 126.21 189.017 126.21L188.836 128.188L192.968 127.955L193.099 124.902L193.104 124.907Z" fill="#B25B52"/>
<path id="Vector_108" d="M176.436 113.091C176.976 113.062 179.042 114.102 180.287 119.357C181.531 124.616 181.254 126.375 190.92 125.778L190.607 128.397C190.607 128.397 182.232 129.263 179.732 127.328C177.243 125.398 174.441 113.198 176.436 113.091Z" fill="#263238"/>
<path id="Vector_109" opacity="0.6" d="M179.216 119.556L179.69 120.363C179.69 120.363 179.171 125.315 180.159 127.6C180.003 127.517 179.862 127.425 179.731 127.328C179.06 126.808 178.37 125.544 177.75 123.969L179.211 119.556H179.216Z" fill="black"/>
<g id="Group_51">
<path id="Vector_110" d="M165.421 103.433C165.421 103.433 165.35 104.964 164.609 105.28C163.868 105.596 165.153 107.351 164.796 108.425C164.438 109.499 163.611 110.467 164.498 111.905C164.498 111.905 164.307 110.705 164.937 109.99C164.937 109.99 164.675 112.003 165.35 112.046C166.025 112.09 166.161 111.502 167.265 111.75C168.374 111.998 167.396 110.107 167.396 110.107C167.396 110.107 167.845 110.394 168.142 111.4C168.439 112.406 171.377 111.244 172.567 111.657C173.761 112.071 174.094 109.942 174.094 109.942C174.094 109.942 174.628 111.205 174.194 111.638C174.194 111.638 175.137 111.38 175.238 110.175C175.238 110.175 175.515 110.54 175.374 111.308C175.374 111.308 176.281 111.244 176.054 109.553C175.827 107.861 174.461 107.375 174.104 106.034C173.746 104.692 169.361 102.092 169.361 102.092L165.421 103.438V103.433Z" fill="#263238"/>
<path id="Vector_111" d="M167.781 108.6L171.521 110.947C171.505 113.48 173.4 113.344 173.4 113.344C173.4 113.344 173.431 114.228 171.148 114.549C168.865 114.875 168.079 114.787 168.079 114.787C169.218 113.475 168.356 110.32 167.786 108.6H167.781Z" fill="#B25B52"/>
<path id="Vector_112" opacity="0.1" d="M171.776 112.318C171.62 111.983 171.514 111.54 171.519 110.947L168.183 108.853L167.977 109.212C167.977 109.212 169.241 112.459 171.776 112.318Z" fill="black"/>
<path id="Vector_113" d="M166.702 104.74C167.08 107.681 167.175 108.935 168.818 110.354C171.293 112.493 174.951 111.4 175.491 108.41C175.974 105.717 175.274 101.367 172.205 100.371C170.018 99.6514 167.634 100.774 166.888 102.889C166.676 103.482 166.616 104.118 166.702 104.74Z" fill="#B25B52"/>
<path id="Vector_114" d="M173.438 106.471C173.695 107.005 174.027 107.506 174.425 107.953C174.183 108.148 173.861 108.225 173.548 108.172L173.438 106.476V106.471Z" fill="#9D2724"/>
<path id="Vector_115" d="M170.754 104.94C170.754 104.94 170.714 104.93 170.693 104.915C170.643 104.877 170.633 104.799 170.673 104.75C170.956 104.395 171.394 104.191 171.858 104.206C171.923 104.216 171.973 104.269 171.968 104.337C171.963 104.4 171.903 104.449 171.837 104.444C171.454 104.434 171.092 104.604 170.86 104.901C170.835 104.935 170.789 104.949 170.749 104.945L170.754 104.94Z" fill="#2E353A"/>
<path id="Vector_116" d="M175.273 104.474C175.273 104.474 175.233 104.464 175.213 104.449C174.916 104.221 174.517 104.143 174.155 104.245C174.094 104.269 174.024 104.235 173.998 104.177C173.978 104.114 174.008 104.046 174.074 104.026C174.517 103.9 175.001 103.987 175.364 104.265C175.42 104.303 175.435 104.376 175.394 104.43C175.369 104.469 175.319 104.488 175.273 104.478V104.474Z" fill="#2E353A"/>
<g id="Group_52">
<path id="Vector_117" d="M171.655 106.185C171.67 106.423 171.816 106.607 171.977 106.603C172.144 106.593 172.259 106.394 172.239 106.151C172.219 105.908 172.078 105.728 171.917 105.733C171.756 105.742 171.635 105.942 171.65 106.185H171.655Z" fill="#2E353A"/>
<path id="Vector_118" d="M174.471 106.015C174.486 106.253 174.632 106.438 174.793 106.433C174.955 106.423 175.076 106.224 175.061 105.981C175.045 105.738 174.899 105.558 174.738 105.563C174.577 105.572 174.451 105.772 174.471 106.015Z" fill="#2E353A"/>
<path id="Vector_119" d="M174.672 105.577L175.256 105.378C175.256 105.378 174.979 105.845 174.672 105.577Z" fill="#2E353A"/>
<path id="Vector_120" d="M171.852 105.747L172.436 105.548C172.436 105.548 172.159 106.014 171.852 105.747Z" fill="#2E353A"/>
</g>
<path id="Vector_121" d="M171.961 108.59C171.895 108.517 171.835 108.44 171.784 108.357C171.764 108.333 171.774 108.294 171.799 108.279C171.83 108.265 171.865 108.274 171.88 108.299C172.142 108.722 172.601 108.999 173.11 109.047C173.145 109.047 173.17 109.076 173.17 109.106C173.17 109.135 173.145 109.164 173.11 109.164C172.661 109.13 172.248 108.926 171.956 108.59H171.961Z" fill="#263238"/>
<path id="Vector_122" d="M172.257 100.57C172.257 100.57 173.895 102.325 172.111 103.025C170.327 103.725 168.719 104.76 168.457 106.214C168.195 107.667 166.739 107.711 166.739 107.711C166.739 107.711 164.38 104.828 165.902 101.795C167.424 98.7623 171.632 99.5157 172.257 100.575V100.57Z" fill="#263238"/>
<path id="Vector_123" d="M167.523 101.027C167.523 101.027 169.494 98.0863 172.795 99.5105C176.096 100.935 176.242 103.35 175.41 103.112C174.579 102.874 173.258 102.631 172.316 100.983C171.369 99.3355 167.523 101.027 167.523 101.027Z" fill="#263238"/>
<path id="Vector_124" d="M168.008 106.563C168.008 106.563 169.636 106.476 168.859 108.541C168.859 108.541 168.739 107.234 168.008 106.563Z" fill="#263238"/>
<path id="Vector_125" d="M166.125 107.118C166.331 107.657 166.75 108.095 167.289 108.333C168.005 108.644 168.483 108.056 168.382 107.341C168.292 106.7 167.813 105.767 167.042 105.752C166.483 105.757 166.034 106.204 166.039 106.744C166.039 106.875 166.069 107.001 166.12 107.118H166.125Z" fill="#B25B52"/>
</g>
<g id="Group_53">
<g id="Group_54">
<path id="Vector_126" d="M189.459 131.688L180.756 130.527C180.569 130.502 180.469 130.308 180.554 130.152L185.957 119.999C186.108 119.717 186.42 119.561 186.743 119.605L195.446 120.767C195.633 120.791 195.733 120.985 195.648 121.141L190.245 131.295C190.094 131.577 189.782 131.732 189.459 131.688Z" fill="#263238"/>
<path id="Vector_127" opacity="0.5" d="M189.459 131.688L180.756 130.527C180.569 130.502 180.469 130.308 180.554 130.152L185.957 119.999C186.108 119.717 186.42 119.561 186.743 119.605L195.446 120.767C195.633 120.791 195.733 120.985 195.648 121.141L190.245 131.295C190.094 131.577 189.782 131.732 189.459 131.688Z" fill="white"/>
</g>
<g id="Group_55">
<path id="Vector_128" d="M189.803 131.731L181.1 130.57C180.913 130.545 180.812 130.351 180.898 130.195L186.3 120.042C186.452 119.76 186.764 119.604 187.087 119.648L195.79 120.81C195.976 120.834 196.077 121.028 195.991 121.184L190.589 131.338C190.438 131.62 190.125 131.775 189.803 131.731Z" fill="#263238"/>
<path id="Vector_129" opacity="0.7" d="M189.803 131.731L181.1 130.57C180.913 130.545 180.812 130.351 180.898 130.195L186.3 120.042C186.452 119.76 186.764 119.604 187.087 119.648L195.79 120.81C195.976 120.834 196.077 121.028 195.991 121.184L190.589 131.338C190.438 131.62 190.125 131.775 189.803 131.731Z" fill="white"/>
<g id="Group_56">
<path id="Vector_130" opacity="0.7" d="M194.6 122.564L193.597 122.428C193.597 122.428 193.562 122.403 193.572 122.384L194.197 121.213C194.212 121.179 194.252 121.164 194.288 121.169L195.291 121.305C195.291 121.305 195.326 121.329 195.316 121.349L194.691 122.52C194.676 122.554 194.635 122.569 194.6 122.564Z" fill="#263238"/>
<path id="Vector_131" opacity="0.3" d="M194.6 122.564L193.597 122.428C193.597 122.428 193.562 122.403 193.572 122.384L194.197 121.213C194.212 121.179 194.252 121.164 194.288 121.169L195.291 121.305C195.291 121.305 195.326 121.329 195.316 121.349L194.691 122.52C194.676 122.554 194.635 122.569 194.6 122.564Z" fill="white"/>
</g>
</g>
<path id="Vector_132" d="M189.178 125.788C189.027 126.187 188.689 126.478 188.417 126.439C188.145 126.405 188.044 126.05 188.195 125.657C188.347 125.258 188.684 124.967 188.956 125.005C189.228 125.039 189.329 125.394 189.178 125.788Z" fill="white"/>
</g>
<path id="Vector_133" d="M197.984 163.535L199.637 170.077L202.011 169.266L201.31 162.621L197.984 163.535Z" fill="#B25B52"/>
<path id="Vector_134" d="M202.204 168.891L199.332 168.944C199.206 168.944 199.1 169.032 199.075 169.148L198.525 171.749C198.475 171.977 198.626 172.206 198.868 172.254C198.898 172.259 198.928 172.264 198.964 172.264C200.153 172.225 201.211 172.142 202.693 172.118C204.442 172.089 204.003 172.298 206.059 172.288C207.299 172.283 207.501 170.917 206.972 170.864C204.563 170.616 203.872 169.926 202.925 169.114C202.718 168.959 202.461 168.881 202.204 168.895V168.891Z" fill="#263238"/>
<path id="Vector_135" opacity="0.1" d="M201.719 166.476L201.31 162.621L197.984 163.535L198.942 167.316L201.719 166.476Z" fill="black"/>
<path id="Vector_136" d="M174.966 131.858L178.761 130.448C178.761 130.448 180.756 132.572 181.996 135.1C183.236 137.627 177.269 137.627 177.269 137.627L175.389 134.23L174.961 131.858H174.966Z" fill="#407BFF"/>
<path id="Vector_137" opacity="0.3" d="M174.966 131.858L178.761 130.448C178.761 130.448 180.756 132.572 181.996 135.1C183.236 137.627 177.269 137.627 177.269 137.627L175.389 134.23L174.961 131.858H174.966Z" fill="black"/>
<path id="Vector_138" opacity="0.2" d="M177.176 131.036C178.254 136.767 180.175 135.741 180.175 135.741L179.333 136.942L177.05 137.224L175.397 134.23L174.969 131.858L177.176 131.036Z" fill="black"/>
<path id="Vector_139" d="M210.641 151.65L215.952 157.764L217.822 156.404L213.155 149.608L210.641 151.65Z" fill="#B25B52"/>
<path id="Vector_140" d="M216.877 154.702L214.595 156.413C214.494 156.481 214.459 156.612 214.504 156.724L215.587 159.164C215.683 159.383 215.94 159.485 216.167 159.393C216.197 159.383 216.222 159.368 216.248 159.349C217.2 158.663 218.026 158.017 219.231 157.186C220.652 156.204 220.415 156.617 222.098 155.48C223.116 154.794 222.476 153.565 222.008 153.808C219.876 154.926 218.853 154.644 217.598 154.493C217.336 154.478 217.079 154.551 216.877 154.707V154.702Z" fill="#263238"/>
<path id="Vector_141" opacity="0.1" d="M213.538 154.984L215.786 153.439L213.155 149.608L210.641 151.65L213.538 154.984Z" fill="black"/>
<path id="Vector_142" d="M167.259 134.332C167.259 134.332 165.883 142.002 168.625 146.965C171.372 151.927 177.464 152.827 193.122 136.825C193.122 136.825 198.63 139.295 211.884 153.716L214.832 151.514C214.832 151.514 203.297 133.443 197.718 129.151C192.084 124.82 179.772 136.918 178.2 136.247C176.804 135.649 176.144 131.474 176.144 131.474L167.259 134.332Z" fill="#407BFF"/>
<path id="Vector_143" opacity="0.3" d="M167.259 134.332C167.259 134.332 165.883 142.002 168.625 146.965C171.372 151.927 177.464 152.827 193.122 136.825C193.122 136.825 198.63 139.295 211.884 153.716L214.832 151.514C214.832 151.514 203.297 133.443 197.718 129.151C192.084 124.82 179.772 136.918 178.2 136.247C176.804 135.649 176.144 131.474 176.144 131.474L167.259 134.332Z" fill="black"/>
<path id="Vector_144" d="M210.945 153.696L212.165 154.741L215.647 151.956L215.047 150.459L210.945 153.696Z" fill="#407BFF"/>
<path id="Vector_145" d="M181.328 147.086C184.493 144.986 188.368 141.691 193.131 136.825C193.131 136.825 197.656 135.212 199.249 138.332C200.836 141.453 201.854 164.006 201.854 164.006L198.084 165.056C198.084 165.056 191.347 144.7 191.382 143.358L181.333 147.091L181.328 147.086Z" fill="#407BFF"/>
<path id="Vector_146" opacity="0.4" d="M181.328 147.086C184.493 144.986 188.368 141.691 193.131 136.825C193.131 136.825 197.656 135.212 199.249 138.332C200.836 141.453 201.854 164.006 201.854 164.006L198.084 165.056C198.084 165.056 191.347 144.7 191.382 143.358L181.333 147.091L181.328 147.086Z" fill="black"/>
<path id="Vector_147" opacity="0.2" d="M199.246 138.332C198.954 137.759 198.561 137.35 198.117 137.054C199.463 137.739 201.353 139.397 201.579 143.329C201.045 142.843 200.536 142.391 200.057 141.973C199.81 140.213 199.538 138.901 199.246 138.332Z" fill="black"/>
<path id="Vector_148" opacity="0.2" d="M193.131 136.826C193.131 136.826 193.821 136.578 194.758 136.466C194.214 137.477 192.239 140.894 188.575 144.398L181.328 147.086C184.493 144.986 188.368 141.691 193.131 136.826Z" fill="black"/>
<path id="Vector_149" d="M197.406 164.637L197.885 166.12L202.264 164.866L202.32 163.267L197.406 164.637Z" fill="#407BFF"/>
<path id="Vector_150" d="M179.923 131.464C179.923 131.464 178.799 133.229 166.871 134.979C166.871 134.979 167.395 131.425 166.14 126.341C164.885 121.257 160.224 116.474 164.769 115.24C169.315 114.005 177.167 111.463 177.842 114.214C178.512 116.965 179.747 118.166 179.696 120.358C179.646 122.55 177.993 124.144 179.928 131.46L179.923 131.464Z" fill="#263238"/>
<path id="Vector_151" d="M194.569 125.806C194.634 125.578 194.604 125.335 194.488 125.121C194.312 124.785 193.989 124.353 193.54 124.397C192.82 124.465 192.628 124.965 192.447 125.612C192.265 126.263 191.691 127.41 192.341 127.809C192.966 128.188 193.923 127.979 194.563 125.801L194.569 125.806Z" fill="#B25B52"/>
<path id="Vector_152" d="M167.403 114.525C167.403 114.525 173.748 114.88 173.375 113.14C173.375 113.14 172.141 112.59 172.377 111.944C172.614 111.298 169.349 111.968 168.074 111.788C167.55 111.716 167.887 112.372 167.847 113.072C167.807 113.772 167.398 114.52 167.398 114.52L167.403 114.525Z" fill="#263238"/>
<path id="Vector_153" opacity="0.6" d="M166.403 127.537L171.04 127.479L172.617 126.444L174.401 125.681L174.638 126.288C174.638 126.288 169.1 132.505 166.953 131.961C166.902 130.765 166.751 129.253 166.398 127.537H166.403Z" fill="black"/>
<path id="Vector_154" opacity="0.6" d="M170.33 126.259C170.33 126.259 168.551 126.779 168.249 125.534C167.81 123.736 166.51 118.734 165.19 116.809C163.748 114.71 166.586 124.742 166.586 124.742L167.215 126.856L168.208 128.154L170.355 126.681L170.33 126.259Z" fill="black"/>
<path id="Vector_155" opacity="0.6" d="M173.577 113.922C173.577 113.922 173.799 115.093 169.031 114.991C169.031 114.991 174.59 116.274 173.577 113.922Z" fill="black"/>
<g id="Group_57">
<g id="Group_58">
<path id="Vector_156" d="M178.022 123.701L177.957 123.205L177.594 123.414L178.022 123.701Z" fill="#263238"/>
<path id="Vector_157" opacity="0.7" d="M178.022 123.701L177.957 123.205L177.594 123.414L178.022 123.701Z" fill="white"/>
</g>
<path id="Vector_158" d="M173.68 117.547L173.74 117.227L174.123 117.008L174.441 117.105L177.908 122.68L177.983 123.22L177.6 123.443L177.142 123.122L173.68 117.547Z" fill="#263238"/>
<path id="Vector_159" opacity="0.6" d="M173.68 117.547L173.74 117.227L174.123 117.008L174.441 117.105L177.908 122.68L177.983 123.22L177.6 123.443L177.142 123.122L173.68 117.547Z" fill="white"/>
<path id="Vector_160" opacity="0.5" d="M174.138 117.444L173.758 117.664L177.131 123.092L177.512 122.872L174.138 117.444Z" fill="white"/>
</g>
<path id="Vector_161" d="M163.664 115.541C162.042 115.978 161.941 118.097 163.417 123.288C164.894 128.48 165.972 131.794 168.83 130.55C171.682 129.301 174.983 125.957 174.983 125.957L173.552 123.706C173.552 123.706 168.9 127.566 167.923 126.827C166.95 126.088 166.144 114.865 163.664 115.536V115.541Z" fill="#263238"/>
<path id="Vector_162" d="M172.945 124.596L174.911 122.997C174.911 122.997 174.623 119.808 175.692 119.769C176.569 119.735 177.269 120.751 177.425 122.132C177.582 123.517 175.964 124.377 175.964 124.377L174.064 126.414L172.945 124.591V124.596Z" fill="#B25B52"/>
</g>
</g>
<g id="Group_59">
<g id="Group_60">
<path id="Vector_163" d="M132.64 93.9395C132.64 93.9395 137.065 91.3148 139.363 95.0817C140.996 97.7551 140.094 100.453 141.384 102.625C143.4 106.018 142.054 107.637 139.03 108.244C136.007 108.852 131.154 108.769 131.829 105.367C132.519 101.887 129.143 93.886 132.635 93.9346L132.64 93.9395Z" fill="#263238"/>
<path id="Vector_164" d="M137.474 101.531C137.474 101.531 137.842 106.523 138.804 106.611C138.804 106.611 136.527 107.709 134.289 106.611L134.133 104.316L137.469 101.531H137.474Z" fill="#EBB376"/>
<g id="Group_61">
<g id="Group_62">
<path id="Vector_165" d="M116.115 172.103H114.336L114.9 145.452H117.274L116.115 172.103Z" fill="#407BFF"/>
<path id="Vector_166" opacity="0.7" d="M116.115 172.103H114.336L114.9 145.452H117.274L116.115 172.103Z" fill="white"/>
</g>
<g id="Group_63" opacity="0.4">
<path id="Vector_167" d="M130.709 172.103H128.93L129.494 145.452H131.868L130.709 172.103Z" fill="#407BFF"/>
</g>
<path id="Vector_168" d="M145.3 172.103H147.079L146.514 145.452H144.141L145.3 172.103Z" fill="#407BFF"/>
<g id="Group_64" opacity="0.4">
<path id="Vector_169" d="M145.3 172.103H147.079L146.514 145.452H144.141L145.3 172.103Z" fill="white"/>
</g>
<path id="Vector_170" d="M145.425 145.452H116.227V147.946H145.425V145.452Z" fill="#407BFF"/>
<path id="Vector_171" opacity="0.5" d="M145.425 145.452H116.227V147.946H145.425V145.452Z" fill="white"/>
<path id="Vector_172" d="M130.706 172.103H132.485L131.92 145.452H129.547L130.706 172.103Z" fill="#407BFF"/>
<path id="Vector_173" opacity="0.7" d="M130.706 172.103H132.485L131.92 145.452H129.547L130.706 172.103Z" fill="white"/>
<g id="Group_65">
<path id="Vector_174" d="M147.194 113.888H142.357C139.817 113.888 137.121 115.151 136.41 117.504C134.394 124.148 132.867 144.991 132.867 144.991H145.814C147.386 144.991 148.706 143.848 148.878 142.342L151.589 118.622C151.876 116.094 149.825 113.888 147.189 113.888H147.194Z" fill="#263238"/>
<path id="Vector_175" opacity="0.6" d="M147.194 113.888H142.357C139.817 113.888 137.121 115.151 136.41 117.504C134.394 124.148 132.867 144.991 132.867 144.991H145.814C147.386 144.991 148.706 143.848 148.878 142.342L151.589 118.622C151.876 116.094 149.825 113.888 147.189 113.888H147.194Z" fill="white"/>
<path id="Vector_176" d="M144.241 113.888H139.403C136.864 113.888 134.167 115.151 133.457 117.504C131.441 124.148 129.914 144.991 129.914 144.991H142.412C144.241 144.991 145.778 143.664 145.98 141.909L148.646 118.622C148.933 116.094 146.882 113.888 144.246 113.888H144.241Z" fill="#263238"/>
<path id="Vector_177" opacity="0.5" d="M144.241 113.888H139.403C136.864 113.888 134.167 115.151 133.457 117.504C131.441 124.148 129.914 144.991 129.914 144.991H142.412C144.241 144.991 145.778 143.664 145.98 141.909L148.646 118.622C148.933 116.094 146.882 113.888 144.246 113.888H144.241Z" fill="white"/>
</g>
<path id="Vector_178" d="M134.458 145.453H115.535C113.791 145.453 112.375 144.087 112.375 142.405C112.375 140.723 113.791 139.357 115.535 139.357H134.458V145.453Z" fill="#263238"/>
<path id="Vector_179" opacity="0.5" d="M134.458 145.453H115.535C113.791 145.453 112.375 144.087 112.375 142.405C112.375 140.723 113.791 139.357 115.535 139.357H134.458V145.453Z" fill="white"/>
<path id="Vector_180" d="M146.023 145.453H133.797C132.129 145.453 130.773 144.145 130.773 142.536V142.274C130.773 140.665 132.129 139.357 133.797 139.357H146.023C147.767 139.357 149.183 140.723 149.183 142.405C149.183 144.087 147.767 145.453 146.023 145.453Z" fill="#263238"/>
<path id="Vector_181" opacity="0.6" d="M146.023 145.453H133.797C132.129 145.453 130.773 144.145 130.773 142.536V142.274C130.773 140.665 132.129 139.357 133.797 139.357H146.023C147.767 139.357 149.183 140.723 149.183 142.405C149.183 144.087 147.767 145.453 146.023 145.453Z" fill="white"/>
</g>
<path id="Vector_182" d="M128.287 113.285C128.287 113.285 128.711 117.718 126.539 119.594C124.563 121.3 121.373 122.146 121.373 122.146L118.561 121.354C118.289 121.276 118.007 121.354 117.835 121.558L116.576 123.031C116.324 123.322 116.389 123.774 116.717 124.017C116.873 124.134 117.064 124.187 117.256 124.163L118.712 123.993C118.712 123.993 120.048 124.231 120.486 124.197C120.834 124.173 121.812 123.842 121.812 123.842C121.812 123.842 126.826 123.424 128.968 121.363C131.109 119.303 131.644 115.02 131.644 115.02L128.287 113.29V113.285Z" fill="#EBB376"/>
<path id="Vector_183" d="M113.516 160.525L113.843 170.222H116.096L117.149 160.35L113.516 160.525Z" fill="#EBB376"/>
<path id="Vector_184" d="M113.805 169.23L116.37 169.245C116.481 169.245 116.577 169.318 116.602 169.425L117.131 171.753C117.182 171.957 117.046 172.166 116.834 172.21C116.809 172.215 116.778 172.22 116.748 172.22C115.68 172.2 114.727 172.142 113.397 172.142C111.825 172.142 112.223 172.322 110.378 172.341C109.265 172.351 109.063 171.131 109.537 171.073C111.699 170.815 112.319 170.183 113.155 169.439C113.337 169.299 113.568 169.226 113.8 169.235L113.805 169.23Z" fill="#263238"/>
<path id="Vector_185" opacity="0.1" d="M116.318 168.098L116.57 165.721H113.688L113.768 168.098H116.318Z" fill="#263238"/>
<path id="Vector_186" d="M139.863 124.066C139.863 124.066 146.878 139.44 140.141 139.44H120.698C120.698 139.44 119.857 143.527 116.828 165.998H113.577C113.577 165.998 113.033 139.678 114.832 135.755C116.243 132.679 125.269 130.482 129.542 129.675C130.692 129.456 131.573 128.562 131.73 127.439L132.677 123.662L139.863 124.066Z" fill="#263238"/>
<path id="Vector_187" opacity="0.2" d="M139.863 124.066C139.863 124.066 146.878 139.44 140.141 139.44H120.698C120.698 139.44 119.857 143.527 116.828 165.998H113.577C113.577 165.998 113.033 139.678 114.832 135.755C116.243 132.679 125.269 130.482 129.542 129.675C130.692 129.456 131.573 128.562 131.73 127.439L132.677 123.662L139.863 124.066Z" fill="black"/>
<g id="Group_66">
<path id="Vector_188" d="M112.953 165.459L113.215 167.165H117.08L117.438 165.459H112.953Z" fill="#263238"/>
<path id="Vector_189" opacity="0.2" d="M112.953 165.459L113.215 167.165H117.08L117.438 165.459H112.953Z" fill="white"/>
</g>
<g id="Group_67">
<path id="Vector_190" d="M120.273 160.53L120.646 170.101L122.803 170.096L124.35 160.355L120.273 160.53Z" fill="#EBB376"/>
<path id="Vector_191" opacity="0.1" d="M123.122 168.099L123.5 165.722H120.477L120.572 168.099H123.122Z" fill="#263238"/>
</g>
<path id="Vector_192" d="M120.696 169.23L123.261 169.245C123.372 169.245 123.468 169.318 123.493 169.425L124.022 171.753C124.072 171.957 123.936 172.166 123.725 172.21C123.699 172.215 123.669 172.22 123.639 172.22C122.571 172.2 121.618 172.142 120.288 172.142C118.715 172.142 119.113 172.322 117.269 172.341C116.155 172.351 115.954 171.131 116.427 171.073C118.589 170.815 119.209 170.183 120.046 169.439C120.227 169.299 120.459 169.226 120.691 169.235L120.696 169.23Z" fill="#263238"/>
<path id="Vector_193" d="M143.409 124.333C143.409 124.333 143.913 124.333 144.674 127.964C145.637 132.577 147.033 139.44 142.442 139.44H127.56C127.56 139.44 126.835 141.107 123.665 165.998H120.414C120.414 165.998 118.61 139.362 120.404 135.44C121.79 132.416 128.674 131.036 132.464 130.56C133.542 130.423 134.439 129.583 134.464 128.533C134.495 127.434 134.328 124.148 134.328 124.148L143.404 124.333H143.409Z" fill="#263238"/>
<g id="Group_68">
<path id="Vector_194" d="M119.758 165.459L120.136 167.165H123.885L124.243 165.459H119.758Z" fill="#263238"/>
<path id="Vector_195" opacity="0.2" d="M119.758 165.459L120.136 167.165H123.885L124.243 165.459H119.758Z" fill="white"/>
</g>
<path id="Vector_196" d="M130.675 106.635C128.861 106.373 127.833 110.675 127.742 114.743L132.046 115.715C132.046 115.715 134.067 107.126 130.675 106.635Z" fill="#407BFF"/>
<path id="Vector_197" opacity="0.1" d="M130.675 106.635C128.861 106.373 127.833 110.675 127.742 114.743L132.046 115.715C132.046 115.715 134.067 107.126 130.675 106.635Z" fill="black"/>
<path id="Vector_198" d="M131.827 126.262C131.827 126.262 131.726 123.38 131.137 119.739C130.457 115.559 129.287 110.859 129.68 107.884C129.786 107.082 130.462 106.528 131.323 106.528H143.091C143.841 106.528 144.486 107.209 144.396 107.909C143.988 111.097 142.97 119.03 144.527 126.52C144.527 126.52 135.541 127.21 131.822 126.267L131.827 126.262Z" fill="#407BFF"/>
<g id="Group_69">
<path id="Vector_199" d="M142.035 112.201C142.035 112.201 142.816 117.363 140.458 118.816C138.099 120.27 132.939 121.781 132.939 121.781L129.754 121.13C129.583 121.096 129.416 121.164 129.325 121.3L128.05 123.293C127.96 123.439 127.975 123.628 128.096 123.769C128.192 123.881 128.338 123.94 128.479 123.925L130.409 123.731C130.409 123.731 131.412 123.959 131.749 123.949C132.178 123.935 133.407 123.575 133.407 123.575C133.407 123.575 140.78 122.885 143.033 120.712C145.286 118.539 145.573 114.034 145.573 114.034L142.04 112.211L142.035 112.201Z" fill="#EBB376"/>
<path id="Vector_200" d="M143.507 106.616C141.219 106.354 141.824 111.288 141.547 114.739L145.82 115.205C145.82 115.205 146.904 107.005 143.507 106.616Z" fill="#407BFF"/>
<path id="Vector_201" opacity="0.1" d="M143.507 106.616C141.219 106.354 141.824 111.288 141.547 114.739L145.82 115.205C145.82 115.205 146.904 107.005 143.507 106.616Z" fill="black"/>
</g>
<path id="Vector_202" d="M133.91 106.839C133.91 106.839 133.467 110.519 138.511 107.238C138.829 107.029 138.945 106.63 138.784 106.295C138.612 105.93 138.431 105.42 138.416 104.842C138.411 104.521 138.028 104.331 137.75 104.511C137.035 104.978 135.886 105.483 134.324 105.362C134.011 105.337 133.779 105.609 133.86 105.901C133.941 106.173 133.986 106.509 133.905 106.839H133.91Z" fill="#407BFF"/>
<path id="Vector_203" opacity="0.1" d="M133.91 106.839C133.91 106.839 133.467 110.519 138.511 107.238C138.829 107.029 138.945 106.63 138.784 106.295C138.612 105.93 138.431 105.42 138.416 104.842C138.411 104.521 138.028 104.331 137.75 104.511C137.035 104.978 135.886 105.483 134.324 105.362C134.011 105.337 133.779 105.609 133.86 105.901C133.941 106.173 133.986 106.509 133.905 106.839H133.91Z" fill="black"/>
<path id="Vector_204" opacity="0.1" d="M137.534 102.251C137.489 101.818 137.469 101.531 137.469 101.531L134.133 104.316L134.213 105.527C135.176 105.459 136.582 104.856 137.534 102.251Z" fill="black"/>
<g id="Group_70">
<path id="Vector_205" d="M137.744 97.5218C138.011 100.365 138.193 101.561 136.948 103.228C135.078 105.731 131.399 105.43 130.25 102.723C129.217 100.288 128.95 96.0491 131.631 94.5034C133.541 93.3903 136.021 93.9785 137.175 95.8206C137.502 96.3407 137.694 96.924 137.744 97.5267V97.5218Z" fill="#EBB376"/>
<path id="Vector_206" d="M131.538 100.21C131.427 100.769 131.231 101.308 130.969 101.814C131.246 101.94 131.563 101.945 131.841 101.824L131.543 100.21H131.538Z" fill="#D58745"/>
<path id="Vector_207" d="M133.372 98.4166C133.372 98.4166 133.407 98.3972 133.423 98.3826C133.463 98.334 133.453 98.2611 133.402 98.2222C133.055 97.95 132.591 97.8576 132.163 97.9743C132.102 97.9986 132.072 98.0618 132.092 98.1201C132.112 98.1784 132.178 98.2076 132.238 98.1882C132.596 98.0958 132.974 98.1736 133.261 98.402C133.297 98.4263 133.337 98.4312 133.377 98.4166H133.372Z" fill="#2E353A"/>
<path id="Vector_208" d="M129.278 99.0189C129.278 99.0189 129.238 99.0092 129.223 98.9994C129.167 98.9654 129.157 98.8925 129.192 98.8439C129.434 98.4794 129.843 98.2558 130.291 98.2363C130.357 98.2363 130.407 98.2898 130.407 98.353C130.407 98.4162 130.352 98.4648 130.291 98.4648C129.923 98.4842 129.586 98.6738 129.389 98.9751C129.364 99.0092 129.329 99.0237 129.283 99.0237L129.278 99.0189Z" fill="#2E353A"/>
<g id="Group_71">
<path id="Vector_209" d="M133.139 99.5427C133.18 99.7711 133.089 99.9753 132.933 100.004C132.776 100.034 132.62 99.8683 132.58 99.6399C132.54 99.4115 132.63 99.2073 132.781 99.1781C132.933 99.149 133.094 99.3142 133.139 99.5427Z" fill="#2E353A"/>
<path id="Vector_210" d="M130.461 100.005C130.502 100.233 130.411 100.437 130.26 100.466C130.109 100.496 129.947 100.33 129.902 100.102C129.857 99.8734 129.952 99.6692 130.104 99.6401C130.255 99.6109 130.421 99.7762 130.461 100.005Z" fill="#2E353A"/>
<path id="Vector_211" d="M130.17 99.6404L129.57 99.582C129.57 99.582 129.943 99.9563 130.17 99.6404Z" fill="#2E353A"/>
<path id="Vector_212" d="M132.85 99.1784L132.25 99.1201C132.25 99.1201 132.623 99.4944 132.85 99.1784Z" fill="#2E353A"/>
</g>
<path id="Vector_213" d="M138.786 99.6455C138.705 100.195 138.408 100.686 137.949 101.021C137.339 101.459 136.765 100.997 136.709 100.307C136.659 99.6844 136.911 98.7074 137.632 98.5421C138.161 98.4401 138.675 98.7657 138.786 99.2761C138.811 99.3976 138.811 99.524 138.786 99.6455Z" fill="#EBB376"/>
<path id="Vector_214" d="M132.651 102.981C132.565 103.005 132.479 103.025 132.389 103.039C132.358 103.044 132.333 103.025 132.328 103C132.328 102.971 132.348 102.947 132.373 102.942C132.822 102.884 133.22 102.626 133.442 102.242C133.452 102.218 133.487 102.203 133.512 102.218C133.538 102.227 133.553 102.261 133.538 102.286C133.351 102.626 133.029 102.879 132.651 102.986V102.981Z" fill="#263238"/>
</g>
<path id="Vector_215" d="M133.726 95.5244C133.726 95.5244 132.92 96.7396 133.545 97.5902C134.17 98.4408 129.927 96.6618 128.833 98.5234C128.833 98.5234 127.447 92.7733 133.726 93.5413V95.5244Z" fill="#263238"/>
<path id="Vector_216" d="M133.541 95.1591C133.541 95.1591 133.073 97.463 134.625 98.1727C136.177 98.8823 136.137 100.788 137.538 100.467C139.554 100.005 138.112 94.1044 134.842 93.4676C132.418 92.9961 133.541 95.1591 133.541 95.1591Z" fill="#263238"/>
</g>
<g id="Group_72">
<g id="Group_73">
<path id="Vector_217" d="M89.5074 172.505H87.7688L87.0078 128.143H90.2684L89.5074 172.505Z" fill="#407BFF"/>
<path id="Vector_218" opacity="0.7" d="M89.5074 172.505H87.7688L87.0078 128.143H90.2684L89.5074 172.505Z" fill="white"/>
</g>
<g id="Group_74">
<path id="Vector_219" d="M108.687 172.505H106.948L106.188 128.143H109.448L108.687 172.505Z" fill="#407BFF"/>
<path id="Vector_220" opacity="0.4" d="M108.687 172.505H106.948L106.188 128.143H109.448L108.687 172.505Z" fill="white"/>
</g>
<g id="Group_75">
<path id="Vector_221" d="M121.433 127.399H88.6406V130.87H121.433V127.399Z" fill="#407BFF"/>
<path id="Vector_222" opacity="0.3" d="M121.433 127.399H88.6406V130.87H121.433V127.399Z" fill="white"/>
</g>
<g id="Group_76">
<path id="Vector_223" d="M140.66 127.399H121.43V130.87H140.66V127.399Z" fill="#407BFF"/>
<path id="Vector_224" opacity="0.5" d="M140.66 127.399H121.43V130.87H140.66V127.399Z" fill="white"/>
</g>
<g id="Group_77">
<path id="Vector_225" d="M141.476 172.506H139.738L138.977 128.144H142.237L141.476 172.506Z" fill="#407BFF"/>
<path id="Vector_226" opacity="0.4" d="M141.476 172.506H139.738L138.977 128.144H142.237L141.476 172.506Z" fill="white"/>
</g>
<path id="Vector_227" d="M142.898 125.168H118.039C117.301 125.168 116.703 125.745 116.703 126.456V126.855C116.703 127.566 117.301 128.143 118.039 128.143H142.898C143.636 128.143 144.234 127.566 144.234 126.855V126.456C144.234 125.745 143.636 125.168 142.898 125.168Z" fill="#263238"/>
<path id="Vector_228" opacity="0.6" d="M142.898 125.168H118.039C117.301 125.168 116.703 125.745 116.703 126.456V126.855C116.703 127.566 117.301 128.143 118.039 128.143H142.898C143.636 128.143 144.234 127.566 144.234 126.855V126.456C144.234 125.745 143.636 125.168 142.898 125.168Z" fill="white"/>
<g id="Group_78">
<path id="Vector_229" d="M119.652 125.168H85.6402C84.9026 125.168 84.3047 125.745 84.3047 126.456V126.855C84.3047 127.566 84.9026 128.143 85.6402 128.143H119.652C120.389 128.143 120.987 127.566 120.987 126.855V126.456C120.987 125.745 120.389 125.168 119.652 125.168Z" fill="#263238"/>
<path id="Vector_230" opacity="0.5" d="M119.652 125.168H85.6402C84.9026 125.168 84.3047 125.745 84.3047 126.456V126.855C84.3047 127.566 84.9026 128.143 85.6402 128.143H119.652C120.389 128.143 120.987 127.566 120.987 126.855V126.456C120.987 125.745 120.389 125.168 119.652 125.168Z" fill="white"/>
</g>
<path id="Vector_231" d="M122.296 172.506H120.558L119.797 128.144H123.057L122.296 172.506Z" fill="#407BFF"/>
<path id="Vector_232" opacity="0.7" d="M122.296 172.506H120.558L119.797 128.144H123.057L122.296 172.506Z" fill="white"/>
</g>
<g id="Group_79">
<g id="Group_80">
<path id="Vector_233" d="M118.686 125.169C118.404 125.169 118.172 124.946 118.172 124.674C118.172 124.401 118.404 124.178 118.686 124.178H132.645C132.928 124.178 133.159 124.401 133.159 124.674C133.159 124.946 132.928 125.169 132.645 125.169H118.686Z" fill="#407BFF"/>
<path id="Vector_234" opacity="0.2" d="M118.686 125.169C118.404 125.169 118.172 124.946 118.172 124.674C118.172 124.401 118.404 124.178 118.686 124.178H132.645C132.928 124.178 133.159 124.401 133.159 124.674C133.159 124.946 132.928 125.169 132.645 125.169H118.686Z" fill="black"/>
<path id="Vector_235" d="M119.868 124.319L118.008 111.564C117.938 111.093 117.489 110.714 117.006 110.714H115.227V125.164H119.112C119.601 125.164 119.939 124.785 119.868 124.314V124.319Z" fill="#407BFF"/>
</g>
<g id="Group_81">
<path id="Vector_236" d="M118.343 125.164H102.559C102.07 125.164 101.622 124.785 101.556 124.314L99.6967 111.56C99.6262 111.088 99.9688 110.709 100.453 110.709H116.236C116.725 110.709 117.174 111.088 117.239 111.56L119.099 124.314C119.169 124.785 118.827 125.164 118.343 125.164Z" fill="#263238"/>
<path id="Vector_237" opacity="0.7" d="M118.343 125.164H102.559C102.07 125.164 101.622 124.785 101.556 124.314L99.6967 111.56C99.6262 111.088 99.9688 110.709 100.453 110.709H116.236C116.725 110.709 117.174 111.088 117.239 111.56L119.099 124.314C119.169 124.785 118.827 125.164 118.343 125.164Z" fill="white"/>
</g>
<path id="Vector_238" opacity="0.7" d="M110.17 117.591C110.23 118.019 109.923 118.369 109.479 118.369C109.036 118.369 108.623 118.019 108.562 117.591C108.502 117.163 108.809 116.813 109.253 116.813C109.696 116.813 110.109 117.163 110.17 117.591Z" fill="white"/>
</g>
</g>
<g id="Group_82">
<path id="Vector_239" d="M62.8069 121.471C60.9121 132.14 74.1206 126.546 79.3819 126.672C79.7195 126.682 80.042 126.745 80.3646 126.861L81.9923 133.627L80.415 140.636L76.7311 146.25H53.8064L37.2314 135.431L33.0234 122.74L34.2077 102.184L34.7318 98.8838C34.7318 98.8838 35.2559 102.942 46.8367 101.931C58.4125 100.916 67.4886 97.3187 70.1243 100.916C73.2841 105.232 64.0668 114.404 62.812 121.461L62.8069 121.471Z" fill="#407BFF"/>
<path id="Vector_240" opacity="0.2" d="M80.0217 138.935V142.931L73.4099 145.497L60.3878 144.831L56.9609 140.646L58.4123 138.459H66.7981L80.0217 138.935Z" fill="black"/>
<path id="Vector_241" d="M58.95 151.996H54.9688V169.475H58.95V151.996Z" fill="#263238"/>
<path id="Vector_242" opacity="0.5" d="M58.95 151.996H54.9688V169.475H58.95V151.996Z" fill="white"/>
<path id="Vector_243" d="M59.9806 167.885H53.9383L41.6016 170.14V172.123H44.1415L53.9383 170.335H59.9806L69.7774 172.123H72.3174V170.14L59.9806 167.885Z" fill="#263238"/>
<path id="Vector_244" opacity="0.3" d="M59.9806 167.885H53.9383L41.6016 170.14V172.123H44.1415L53.9383 170.335H59.9806L69.7774 172.123H72.3174V170.14L59.9806 167.885Z" fill="white"/>
<path id="Vector_245" d="M69.7769 172.984H72.3168C73.113 172.984 73.113 171.793 72.3168 171.793H69.7769C68.9806 171.793 68.9806 172.984 69.7769 172.984Z" fill="#407BFF"/>
<path id="Vector_246" d="M41.605 172.984H44.1449C44.9411 172.984 44.9411 171.793 44.1449 171.793H41.605C40.8088 171.793 40.8088 172.984 41.605 172.984Z" fill="#407BFF"/>
<path id="Vector_247" opacity="0.2" d="M58.95 151.996H54.9688V155.953H58.95V151.996Z" fill="black"/>
<path id="Vector_248" d="M78.4858 141.414H54.6641V136.461H78.4858C79.9019 136.461 81.056 137.569 81.056 138.94C81.056 140.306 79.9069 141.419 78.4858 141.419V141.414Z" fill="#407BFF"/>
<path id="Vector_249" opacity="0.1" d="M78.4858 141.414H54.6641V136.461H78.4858C79.9019 136.461 81.056 137.569 81.056 138.94C81.056 140.306 79.9069 141.419 78.4858 141.419V141.414Z" fill="black"/>
<g id="Group_83">
<path id="Vector_250" d="M58.5256 105.597C58.5256 105.597 61.5745 113.845 64.0691 114.035C66.5637 114.219 69.6176 109.791 69.6176 109.791L70.8624 106.671L73.372 106.472V110.384L70.7968 111.634C70.7968 111.634 66.866 117.87 63.807 117.714C60.7531 117.559 57.6689 112.999 57.044 110.676C56.7013 109.398 56.9281 106.739 58.5256 105.597Z" fill="#FFC3BD"/>
<g id="Group_84">
<path id="Vector_251" d="M73.903 112.391L74.8051 105.183L71.348 104.959L71.2422 112.216L73.903 112.391Z" fill="#263238"/>
<path id="Vector_252" opacity="0.5" d="M73.903 112.391L74.8051 105.183L71.348 104.959L71.2422 112.216L73.903 112.391Z" fill="white"/>
<path id="Vector_253" d="M74.8606 104.151L71.4062 103.927L71.3338 104.965L74.7882 105.189L74.8606 104.151Z" fill="#407BFF"/>
<path id="Vector_254" d="M71.657 103.231L74.7192 103.429C74.8298 103.436 74.9095 103.524 74.9021 103.631L74.8659 104.15L71.4115 103.926L71.4477 103.407C71.4552 103.3 71.5464 103.223 71.657 103.231Z" fill="#263238"/>
</g>
<g id="Group_85">
<path id="Vector_255" d="M57.7216 112.858C57.7216 112.858 54.451 107.652 56.5424 105.183C58.6338 102.714 61.8238 110.855 61.8238 110.855L57.7216 112.863V112.858Z" fill="#407BFF"/>
<path id="Vector_256" opacity="0.3" d="M57.7216 112.858C57.7216 112.858 54.451 107.652 56.5424 105.183C58.6338 102.714 61.8238 110.855 61.8238 110.855L57.7216 112.863V112.858Z" fill="white"/>
<path id="Vector_257" d="M57.0859 112.493L57.7058 113.373L62.2917 111.089L61.8634 110.165L57.0859 112.493Z" fill="#407BFF"/>
<path id="Vector_258" opacity="0.1" d="M57.0859 112.493L57.7058 113.373L62.2917 111.089L61.8634 110.165L57.0859 112.493Z" fill="white"/>
</g>
<g id="Group_86">
<path id="Vector_259" d="M41.334 132.777C41.334 132.777 37.2318 118.944 42.0395 105.183C42.0395 105.183 48.2784 102.384 57.1731 104.44C58.1911 104.673 58.811 105.669 58.5489 106.651C57.6569 109.986 56.2811 117.947 59.6072 128.004C59.6072 128.004 51.806 132.587 41.334 132.782V132.777Z" fill="#407BFF"/>
<path id="Vector_260" opacity="0.5" d="M41.334 132.777C41.334 132.777 37.2318 118.944 42.0395 105.183C42.0395 105.183 48.2784 102.384 57.1731 104.44C58.1911 104.673 58.811 105.669 58.5489 106.651C57.6569 109.986 56.2811 117.947 59.6072 128.004C59.6072 128.004 51.806 132.587 41.334 132.782V132.777Z" fill="white"/>
</g>
<path id="Vector_261" d="M49.1328 103.75L52.1464 106.268L53.8951 104.776C53.235 104.299 53.4164 103.23 53.7843 102.073L49.5158 98.8213C49.7325 100.348 49.8938 102.442 49.1379 103.755L49.1328 103.75Z" fill="#FFC3BD"/>
<g id="Group_87">
<path id="Vector_262" d="M71.0419 136.219L76.5904 138.401L75.9655 140.661L70.0391 139.485L71.0419 136.219Z" fill="#FFC3BD"/>
<g id="Group_88">
<path id="Vector_263" d="M52.0926 128.496C52.0926 128.496 78.6558 119.62 80.848 127.776C83.0402 135.933 62.9074 141.556 52.3597 141.216C41.812 140.876 52.0926 128.501 52.0926 128.501V128.496Z" fill="#263238"/>
<path id="Vector_264" opacity="0.3" d="M52.0926 128.496C52.0926 128.496 78.6558 119.62 80.848 127.776C83.0402 135.933 62.9074 141.556 52.3597 141.216C41.812 140.876 52.0926 128.501 52.0926 128.501V128.496Z" fill="black"/>
</g>
<path id="Vector_265" opacity="0.7" d="M71.8423 129.322L58.9512 137.244L61.0073 140.501C61.0073 140.501 59.7626 140.899 58.0391 136.924L66.0166 131.839C66.0166 131.839 63.517 131.596 63.5825 131.222C63.6883 130.61 69.1663 129.428 71.6709 128.923C71.9229 128.874 72.059 129.195 71.8423 129.326V129.322Z" fill="black"/>
<path id="Vector_266" opacity="0.7" d="M58.4803 136.899L60.7128 140.555C57.679 141.06 54.7662 141.293 52.3573 141.216C51.2335 141.177 50.3465 141.007 49.6612 140.725L48.875 139.276L50.5632 135.84L58.4803 136.904V136.899Z" fill="black"/>
<path id="Vector_267" d="M58.7128 137.459L56.2031 139.491L57.3572 141.216L61.1771 140.638L58.7128 137.459Z" fill="#FFC3BD"/>
<path id="Vector_268" d="M61.8439 140.701L59.2233 136.715L58.0391 137.527L60.3068 140.968L61.8439 140.701Z" fill="#263238"/>
<path id="Vector_269" opacity="0.3" d="M61.8439 140.701L59.2233 136.715L58.0391 137.527L60.3068 140.968L61.8439 140.701Z" fill="white"/>
<path id="Vector_270" d="M42.754 136.987C41.3278 134.649 38.5662 127.621 45.1982 126.396C51.8302 125.171 73.6059 136.987 73.6059 136.987L72.5929 140.064L51.9713 136.783C51.9713 136.783 57.7062 141.784 51.4321 141.167C46.4581 140.676 44.1449 139.262 42.754 136.992V136.987Z" fill="#263238"/>
<path id="Vector_271" d="M73.0714 136.219L71.7812 140.234L73.0714 140.409L74.2305 136.943L73.0714 136.219Z" fill="#263238"/>
<path id="Vector_272" opacity="0.3" d="M73.0714 136.219L71.7812 140.234L73.0714 140.409L74.2305 136.943L73.0714 136.219Z" fill="white"/>
<path id="Vector_273" d="M58.0891 141.123L57.187 138.469C57.1517 138.367 57.051 138.304 56.9451 138.313L54.5413 138.542C54.3296 138.561 54.1734 138.741 54.1885 138.95C54.1885 138.975 54.1986 139.004 54.2036 139.028C54.5463 139.981 54.889 140.812 55.2972 142.003C55.776 143.407 55.4786 143.106 56.0179 144.768C56.3454 145.77 57.5801 145.58 57.4944 145.138C57.0862 143.125 57.6255 142.732 58.0891 141.76C58.1697 141.556 58.1748 141.327 58.0891 141.118V141.123Z" fill="#263238"/>
<path id="Vector_274" d="M76.1005 138.256L75.1682 140.983C75.1329 141.085 75.1782 141.197 75.274 141.255L77.4057 142.48C77.5922 142.592 77.8391 142.533 77.955 142.349C77.9701 142.324 77.9802 142.3 77.9903 142.276C78.3078 141.289 78.5547 140.395 78.973 139.17C79.4669 137.726 79.5223 138.149 80.127 136.458C80.4899 135.437 79.3509 134.868 79.1393 135.281C78.2019 137.182 77.5065 137.192 76.5087 137.726C76.3121 137.848 76.166 138.037 76.1005 138.251V138.256Z" fill="#263238"/>
</g>
<g id="Group_89">
<g id="Group_90">
<path id="Vector_275" d="M72.4717 129.195H60.518C59.9536 129.195 59.5 128.752 59.5 128.213H73.4947C73.4947 128.757 73.0361 129.195 72.4767 129.195H72.4717Z" fill="#263238"/>
<path id="Vector_276" opacity="0.2" d="M72.4717 129.195H60.518C59.9536 129.195 59.5 128.752 59.5 128.213H73.4947C73.4947 128.757 73.0361 129.195 72.4767 129.195H72.4717Z" fill="white"/>
</g>
<path id="Vector_277" d="M63.6698 129.196H54.9867C54.4223 129.196 53.9688 128.753 53.9688 128.214H64.6928C64.6928 128.758 64.2342 129.196 63.6748 129.196H63.6698Z" fill="#263238"/>
<path id="Vector_278" opacity="0.5" d="M63.6698 129.196H54.9867C54.4223 129.196 53.9688 128.753 53.9688 128.214H64.6928C64.6928 128.758 64.2342 129.196 63.6748 129.196H63.6698Z" fill="white"/>
<g id="Group_91">
<path id="Vector_279" d="M72.5528 128.894H64.6861C64.5198 128.894 64.4039 128.734 64.4593 128.583L67.9567 118.939C68.0525 118.672 68.3145 118.497 68.6068 118.497H76.4735C76.6398 118.497 76.7557 118.657 76.7003 118.808L73.2029 128.452C73.1071 128.719 72.8451 128.894 72.5528 128.894Z" fill="#263238"/>
<path id="Vector_280" opacity="0.5" d="M72.5528 128.894H64.6861C64.5198 128.894 64.4039 128.734 64.4593 128.583L67.9567 118.939C68.0525 118.672 68.3145 118.497 68.6068 118.497H76.4735C76.6398 118.497 76.7557 118.657 76.7003 118.808L73.2029 128.452C73.1071 128.719 72.8451 128.894 72.5528 128.894Z" fill="white"/>
</g>
<g id="Group_92">
<path id="Vector_281" d="M72.8575 128.894H64.9908C64.8245 128.894 64.7086 128.734 64.764 128.583L68.2614 118.939C68.3572 118.672 68.6192 118.497 68.9115 118.497H76.7782C76.9445 118.497 77.0604 118.657 77.005 118.808L73.5076 128.452C73.4118 128.719 73.1497 128.894 72.8575 128.894Z" fill="#263238"/>
<path id="Vector_282" opacity="0.7" d="M72.8575 128.894H64.9908C64.8245 128.894 64.7086 128.734 64.764 128.583L68.2614 118.939C68.3572 118.672 68.6192 118.497 68.9115 118.497H76.7782C76.9445 118.497 77.0604 118.657 77.005 118.808L73.5076 128.452C73.4118 128.719 73.1497 128.894 72.8575 128.894Z" fill="white"/>
</g>
<path id="Vector_283" d="M71.5587 123.693C71.478 124.063 71.2109 124.364 70.969 124.364C70.7271 124.364 70.5911 124.063 70.6717 123.693C70.7523 123.324 71.0194 123.022 71.2613 123.022C71.5032 123.022 71.6393 123.324 71.5587 123.693Z" fill="white"/>
</g>
<path id="Vector_284" d="M45.2607 109.33C45.2607 109.33 47.1807 118.449 48.4759 119.96C49.771 121.472 55.4153 125.54 55.4153 125.54L58.7716 124.86L61.1754 126.794L59.6031 127.99L57.7435 127.314C57.7435 127.314 56.403 127.572 54.6694 127.572C52.9358 127.572 45.8957 123.576 44.4997 121.331C43.1038 119.085 41.1484 110.652 41.1484 110.652L45.2607 109.32V109.33Z" fill="#FFC3BD"/>
<g id="Group_93">
<path id="Vector_285" d="M48.0156 103.813L49.21 103.143L52.1379 106.263C52.1379 106.263 50.5303 105.631 50.0768 105.884C49.6686 106.117 49.9558 107.114 49.4821 107.123C48.4289 107.143 48.0156 103.808 48.0156 103.808V103.813Z" fill="#407BFF"/>
<path id="Vector_286" d="M52.1406 106.263L53.6676 103.356L54.9174 104.008C54.9174 104.008 56.0765 106.827 55.1895 107.128C54.6503 107.308 54.4437 105.991 53.9095 105.801C53.4811 105.651 52.1457 106.268 52.1457 106.268L52.1406 106.263Z" fill="#407BFF"/>
</g>
<g id="Group_94" opacity="0.2">
<path id="Vector_287" d="M48.0156 103.813L49.21 103.143L52.1379 106.263C52.1379 106.263 50.5303 105.631 50.0768 105.884C49.6686 106.117 49.9558 107.114 49.4821 107.123C48.4289 107.143 48.0156 103.808 48.0156 103.808V103.813Z" fill="white"/>
<path id="Vector_288" d="M52.1406 106.263L53.6676 103.356L54.9174 104.008C54.9174 104.008 56.0765 106.827 55.1895 107.128C54.6503 107.308 54.4437 105.991 53.9095 105.801C53.4811 105.651 52.1457 106.268 52.1457 106.268L52.1406 106.263Z" fill="white"/>
</g>
<path id="Vector_289" d="M41.3312 113.87C41.3312 113.87 39.1088 107.381 42.0367 105.184C44.9647 102.987 46.3405 112.669 46.3405 112.669L41.3312 113.87Z" fill="#407BFF"/>
<path id="Vector_290" opacity="0.3" d="M41.3312 113.87C41.3312 113.87 39.1088 107.381 42.0367 105.184C44.9647 102.987 46.3405 112.669 46.3405 112.669L41.3312 113.87Z" fill="white"/>
<path id="Vector_291" d="M40.7344 113.31L41.1829 114.423L46.7919 113.033L46.5651 111.92L40.7344 113.31Z" fill="#407BFF"/>
<path id="Vector_292" opacity="0.1" d="M40.7344 113.31L41.1829 114.423L46.7919 113.033L46.5651 111.92L40.7344 113.31Z" fill="white"/>
<path id="Vector_293" opacity="0.1" d="M49.5784 99.3559C49.5582 99.1712 49.533 98.9865 49.5078 98.8164L53.7763 102.068C53.62 102.564 53.4991 103.04 53.4588 103.468C50.8786 103.487 49.9009 100.741 49.5733 99.3608L49.5784 99.3559Z" fill="black"/>
<path id="Vector_294" d="M50.3138 94.067C49.4268 96.9737 48.9833 98.1937 49.9207 100.153C51.3317 103.132 55.2273 103.55 56.9961 100.959C58.5785 98.6263 59.7931 94.2712 57.3187 92.1277C55.57 90.5917 52.8587 90.7132 51.2662 92.3999C50.8177 92.8762 50.4851 93.4497 50.3087 94.067H50.3138Z" fill="#FFC3BD"/>
<path id="Vector_295" d="M53.7121 96.9841C53.6264 97.2174 53.6819 97.4458 53.8381 97.5041C53.9943 97.5625 54.1908 97.4166 54.2765 97.1833C54.3622 96.95 54.3118 96.7216 54.1505 96.6633C53.9943 96.6049 53.7978 96.7507 53.7071 96.9841H53.7121Z" fill="#263238"/>
<path id="Vector_296" d="M56.423 97.9362C56.3374 98.1695 56.3928 98.4028 56.549 98.4563C56.7052 98.5098 56.9018 98.3688 56.9925 98.1355C57.0782 97.9022 57.0227 97.6737 56.8665 97.6154C56.7103 97.5571 56.5137 97.7029 56.423 97.9362Z" fill="#263238"/>
<path id="Vector_297" d="M55.5131 98C55.6643 98.5833 55.8961 99.1471 56.2035 99.6721C55.9213 99.8179 55.5786 99.8373 55.2812 99.7255L55.5131 98.0049V98Z" fill="#ED893E"/>
<path id="Vector_298" d="M53.6051 95.7007C53.6505 95.7445 53.721 95.7542 53.7815 95.725C54.4115 95.4334 55.1976 95.8465 55.2077 95.8514C55.2782 95.8903 55.374 95.866 55.4143 95.7979C55.4546 95.7299 55.4294 95.6375 55.3589 95.5986C55.3186 95.5938 54.4266 95.1077 53.6555 95.4625C53.5799 95.4966 53.5497 95.5841 53.585 95.657C53.585 95.6716 53.6001 95.6861 53.6102 95.7007H53.6051Z" fill="#263238"/>
<path id="Vector_299" d="M58.0187 97.4312C58.0641 97.4604 58.1195 97.4653 58.1699 97.4458C58.2455 97.4118 58.2757 97.3292 58.2455 97.2563C58.0641 96.8188 57.676 96.498 57.2023 96.3911C57.1217 96.3765 57.041 96.43 57.0259 96.5077C57.0108 96.5855 57.0662 96.6633 57.1469 96.6778C57.5198 96.7702 57.8222 97.0278 57.9633 97.3729C57.9734 97.3972 57.9935 97.4167 58.0137 97.4312H58.0187Z" fill="#263238"/>
<path id="Vector_300" d="M49.7282 95.7637C49.7282 95.7637 50.8571 95.7394 50.7008 94.495C50.7008 94.495 52.5705 94.4464 52.6511 93.1244C52.6511 93.1244 54.2839 94.5193 54.8635 93.4306C54.8635 93.4306 56.8641 95.1561 57.1262 94.0138C57.1262 94.0138 59.2075 96.5025 59.1017 94.9762C59.1017 94.9762 61.4451 94.7478 59.3385 92.7938C59.3385 92.7938 61.2586 91.1704 58.1543 90.5093C58.1543 90.5093 58.4264 88.5845 56.2392 89.4303C56.2392 89.4303 55.7303 87.3354 53.8354 88.5554C53.8354 88.5554 52.8124 87.0826 51.6936 89.0609C51.6936 89.0609 50.0407 88.1471 49.5165 90.2031C49.5165 90.2031 46.5281 90.5531 47.7578 92.4487C47.7578 92.4487 48.68 98.8113 49.5165 98.8113C50.086 98.8113 49.7332 95.7588 49.7332 95.7588L49.7282 95.7637Z" fill="#263238"/>
<path id="Vector_301" d="M48.6983 96.0599C48.7185 96.648 48.9755 97.2021 49.4189 97.6007C50.0086 98.1305 50.6788 97.7076 50.8149 96.9834C50.9409 96.332 50.7947 95.2773 50.0539 95.0197C49.5147 94.8447 48.9301 95.1266 48.7487 95.6467C48.7033 95.7779 48.6882 95.9189 48.6983 96.055V96.0599Z" fill="#FFC3BD"/>
<path id="Vector_302" d="M54.3778 100.507C54.4837 100.537 54.5945 100.561 54.7004 100.571C54.7356 100.575 54.7709 100.551 54.776 100.517C54.776 100.483 54.7508 100.449 54.7155 100.449C54.1511 100.391 53.6522 100.08 53.3649 99.6081C53.3498 99.579 53.3095 99.5644 53.2792 99.579C53.244 99.5935 53.2339 99.6324 53.249 99.6616C53.4909 100.08 53.8991 100.386 54.3778 100.507Z" fill="#263238"/>
</g>
<g id="Group_95">
<path id="Vector_303" d="M32.7567 99.1516C32.7567 99.1516 22.0074 152.361 57.4906 153.333C89.8543 154.222 82.6176 128.719 80.511 126.94C78.4045 125.166 86.3014 143.31 73.2743 143.563C57.5712 143.869 54.7239 129.477 49.4626 129.351C44.2014 129.224 36.239 135.946 35.4528 123.766C34.6616 111.585 38.8091 90.9031 32.7567 99.1516Z" fill="#407BFF"/>
<path id="Vector_304" opacity="0.5" d="M32.7567 99.1516C32.7567 99.1516 22.0074 152.361 57.4906 153.333C89.8543 154.222 82.6176 128.719 80.511 126.94C78.4045 125.166 86.3014 143.31 73.2743 143.563C57.5712 143.869 54.7239 129.477 49.4626 129.351C44.2014 129.224 36.239 135.946 35.4528 123.766C34.6616 111.585 38.8091 90.9031 32.7567 99.1516Z" fill="white"/>
</g>
</g>
</g>
</svg>
