<svg width="220" height="220" viewBox="0 0 220 220" fill="none" xmlns="http://www.w3.org/2000/svg">
<path d="M81.0555 38.8894C77.9447 38.9616 75.4085 41.4968 75.3342 44.6072C75.3025 45.9395 75.7165 47.1728 76.4363 48.1716L76.4346 48.1721L76.4918 48.2495C76.4944 48.253 76.4971 48.257 76.4997 48.2605L80.6507 53.9062C81.0159 54.4034 81.7639 54.3875 82.1079 53.8758L85.8598 48.2979C86.57 47.2151 87.0566 46.0834 87.0566 44.7493C87.0566 41.466 84.3563 38.8128 81.0555 38.8894ZM81.1945 48.2183C79.3514 48.2183 77.8567 46.724 77.8567 44.8804C77.8567 43.0368 79.3509 41.5426 81.1945 41.5426C83.0381 41.5426 84.5324 43.0368 84.5324 44.8804C84.5324 46.724 83.0381 48.2183 81.1945 48.2183Z" fill="#E0E0E0"/>
<path d="M169.93 27.0046C170.271 24.5265 166.774 22.488 164.146 22.2763C162.893 22.1751 161.591 22.367 160.404 21.9534C157.832 21.0566 156.804 17.7338 154.294 16.6751C152.418 15.8836 150.258 16.5884 148.438 17.5036C146.619 18.4188 144.822 19.5712 142.789 19.7014C141.021 19.8145 139.102 19.1589 137.555 20.0226C136.403 20.6659 135.799 21.9943 134.736 22.7775C133.697 23.544 132.341 23.7063 131.052 23.7763C129.762 23.8467 128.427 23.8594 127.253 24.3971C126.079 24.9348 125.108 26.176 125.352 27.4446L169.93 27.0046Z" fill="#EBEBEB"/>
<path d="M93.0609 13.82C93.2426 12.5013 91.381 11.4162 89.9826 11.3036C89.3156 11.2499 88.623 11.3516 87.9912 11.1316C86.6224 10.6546 86.0754 8.8858 84.7396 8.32216C83.7408 7.90108 82.5911 8.27596 81.6231 8.76304C80.6551 9.25056 79.6981 9.86348 78.6166 9.93256C77.6758 9.99284 76.6542 9.64392 75.8309 10.1037C75.2176 10.446 74.8964 11.1531 74.331 11.5698C73.7779 11.9777 73.0563 12.0644 72.3703 12.1013C71.6839 12.1387 70.9738 12.1458 70.3485 12.4318C69.7237 12.7178 69.2067 13.3786 69.3365 14.0536L93.0609 13.82Z" fill="#F5F5F5"/>
<path d="M51.6036 37.3371C51.8716 35.3892 49.1229 33.7867 47.0571 33.6204C46.0719 33.5408 45.049 33.6917 44.1157 33.3665C42.0939 32.6616 41.2861 30.0498 39.3131 29.2173C37.8382 28.5952 36.1398 29.1491 34.7098 29.8685C33.2798 30.5884 31.8665 31.4939 30.2693 31.596C28.8798 31.6848 27.3706 31.1696 26.1549 31.8485C25.249 32.3545 24.7742 33.3982 23.9395 34.0142C23.1224 34.6166 22.0567 34.7442 21.0434 34.7996C20.0297 34.8546 18.9803 34.8647 18.0576 35.2876C17.1345 35.71 16.3711 36.6859 16.5625 37.6829L51.6036 37.3371Z" fill="#F5F5F5"/>
<path d="M207.103 33.1888C207.094 33.2125 206.849 33.1228 206.394 33.0308C205.942 32.9406 205.265 32.8618 204.449 32.9793C203.638 33.0946 202.681 33.4255 201.846 34.1189C201.011 34.7996 200.297 35.8266 200.012 37.041L200.003 37.0731L199.892 37.506L199.726 37.0955C199.258 35.9405 198.428 35.0196 197.527 34.4318C196.623 33.8334 195.651 33.5808 194.836 33.5183C193.181 33.4057 192.212 33.9222 192.201 33.8536C192.194 33.8395 192.421 33.7084 192.871 33.5628C193.318 33.4189 193.999 33.2737 194.849 33.3128C195.693 33.3507 196.717 33.5918 197.672 34.2065C198.624 34.8093 199.503 35.7694 199.996 36.9868L199.718 37.0093L199.727 36.975C200.029 35.6893 200.789 34.6139 201.676 33.9104C202.565 33.1927 203.578 32.8676 204.421 32.7752C205.272 32.6797 205.965 32.7941 206.419 32.9204C206.877 33.0488 207.109 33.1751 207.103 33.1888Z" fill="#E0E0E0"/>
<path d="M14.6802 71.0314L30.4313 156.547L63.1981 162.489L92.5531 143.597L123.954 151.179L156.512 130.289L140.572 49.1638L108.154 65.3281L80.1861 59.2526L49.7367 75.376L14.6802 71.0314Z" fill="white" stroke="#E0E0E0" stroke-miterlimit="10"/>
<path d="M18.0638 73.7629L32.938 154.862L62.9759 159.407L92.2509 139.971L122.991 147.288L153.447 128.887L139.101 52.5589L108.67 68.1045L80.1597 63.1642L49.027 78.3592L35.0966 76.2912L18.0638 73.7629Z" fill="#EBEBEB"/>
<path d="M40.5495 76.7228L40.638 107.221L145.606 134.166L140.376 137.615L41.32 111.871L40.4637 156.001L34.0771 155.034L35.0966 76.2912L40.5495 76.7228Z" fill="#FAFAFA"/>
<path d="M19.7015 81.0168L35.4706 84.5601L34.9246 89.569L20.2669 85.774L19.7015 81.0168Z" fill="#FAFAFA"/>
<path d="M23.4841 103.316L34.7789 100.827L34.7046 106.566L24.3021 108.895L23.4841 103.316Z" fill="#FAFAFA"/>
<path d="M27.643 125.992L34.4454 126.588L34.4027 129.872L28.182 129.67L27.643 125.992Z" fill="#FAFAFA"/>
<path d="M40.4637 156.001L49.1661 157.318L51.1755 139.76L64.8415 141.152L66.1518 157.299L71.9299 153.463L71.8102 119.795L41.32 111.871L40.4637 156.001Z" fill="#E0E0E0"/>
<path d="M75.3029 120.703L75.1335 138.789L75.0156 151.414L71.9299 153.463L71.6131 118.451L75.3029 120.703Z" fill="#FAFAFA"/>
<path d="M89.4366 141.84L75.1335 138.789L75.0939 143.025L84.9389 144.826L89.4366 141.84Z" fill="#FAFAFA"/>
<path d="M56.6509 74.6381L54.3427 110.738L59.5276 112.069L62.4475 71.8089L56.6509 74.6381Z" fill="#FAFAFA"/>
<path d="M72.2141 115.326L73.0902 70.2482L76.2089 71.4943L75.9673 87.1763L108.39 96.5655L116.094 65.4174L122.027 62.1016L112.534 97.5344L105.187 125.171C105.187 125.171 100.906 124.175 101.057 123.472C101.208 122.768 106.92 102.252 106.92 102.252L75.4701 92.0542L74.9025 117.969L72.2141 115.326Z" fill="#FAFAFA"/>
<path d="M109.531 101.869L131.325 108.241L141.446 65.0351L139.534 55.5161L128.28 102.492L110.371 96.9958L109.531 101.869Z" fill="#FAFAFA"/>
<path d="M97.4257 141.531L101.057 123.472L105.365 124.501L101.534 142.769L97.4257 141.531Z" fill="#FAFAFA"/>
<path d="M142.311 97.0631L133.404 140.996L141.283 136.03L149.039 106.916L147.924 99.3054L142.311 97.0631Z" fill="#E0E0E0"/>
<path opacity="0.1" d="M49.027 78.3592L62.9759 159.407L32.938 154.862L18.0638 73.7629L49.027 78.3592Z" fill="black"/>
<path d="M68.996 68.6127L72.0716 69.8416L148.054 100.197L145.831 88.3661L80.1596 63.1642L68.996 68.6127Z" fill="#E0E0E0"/>
<path opacity="0.1" d="M80.1597 63.1642L92.2509 139.971L122.991 147.288L108.67 68.1045L80.1597 63.1642Z" fill="black"/>
<path d="M203.114 205.549C203.114 205.612 160.437 205.663 107.804 205.663C55.154 205.663 12.4863 205.612 12.4863 205.549C12.4863 205.485 55.154 205.434 107.804 205.434C160.437 205.434 203.114 205.486 203.114 205.549Z" fill="#263238"/>
<path d="M66.0858 50.7905C66.0757 50.8191 65.5811 50.6163 64.6479 50.409C63.7191 50.2049 62.3251 50.0249 60.6347 50.2546C58.9561 50.479 56.9673 51.154 55.2271 52.587C53.4899 53.9937 52.0036 56.1224 51.4101 58.6476C51.4043 58.6705 51.3982 58.6934 51.3929 58.7149L51.2816 59.1479L51.1153 58.7369C50.1437 56.3376 48.4176 54.4311 46.545 53.2189C44.6675 51.9847 42.6483 51.4734 40.964 51.3581C39.2687 51.2398 37.8933 51.4835 36.9763 51.7233C36.0558 51.9662 35.5696 52.18 35.5586 52.1523C35.5547 52.1431 35.6739 52.0859 35.9058 51.9851C36.1363 51.883 36.4853 51.7497 36.9459 51.6142C37.862 51.3388 39.2507 51.0594 40.9772 51.1526C42.691 51.2428 44.7617 51.7431 46.6911 52.9936C48.6143 54.2208 50.3888 56.1664 51.3859 58.6282L51.1082 58.6507C51.1139 58.6291 51.1197 58.6054 51.1258 58.5816C51.7365 55.9852 53.2691 53.808 55.0581 52.3785C56.8515 50.9212 58.8971 50.252 60.6083 50.0504C62.3331 49.8432 63.7441 50.0588 64.6739 50.299C65.1416 50.417 65.4971 50.5384 65.7321 50.6339C65.9675 50.7272 66.0893 50.7808 66.0858 50.7905Z" fill="#263238"/>
<path d="M109.377 35.1714C109.368 35.1956 109.093 35.0922 108.58 34.9866C108.069 34.8823 107.306 34.7912 106.384 34.9228C105.468 35.0513 104.387 35.424 103.442 36.2067C102.498 36.975 101.691 38.1352 101.369 39.508L101.359 39.5446L101.248 39.9775L101.082 39.567C100.553 38.2615 99.6147 37.2214 98.5961 36.5583C97.5753 35.8829 96.4762 35.5991 95.5562 35.5304C94.6304 35.4596 93.8771 35.5859 93.3725 35.7095C92.866 35.8349 92.5954 35.9445 92.5862 35.9212C92.5822 35.9119 92.646 35.8763 92.7723 35.8169C92.8977 35.7566 93.0891 35.6792 93.3425 35.6004C93.8463 35.4407 94.6133 35.2792 95.5694 35.325C96.5185 35.369 97.669 35.6418 98.7418 36.333C99.811 37.0115 100.798 38.0904 101.352 39.4583L101.075 39.4808L101.084 39.4425C101.424 37.9984 102.277 36.7897 103.273 35.9986C104.271 35.1916 105.409 34.8251 106.358 34.7191C107.314 34.61 108.094 34.7367 108.606 34.877C108.863 34.9457 109.058 35.017 109.186 35.0737C109.315 35.1283 109.38 35.1622 109.377 35.1714Z" fill="#263238"/>
<path d="M79.9757 19.7613C79.9938 19.7798 79.7012 20.0759 79.2044 20.636C78.7068 21.1952 78.0288 22.0449 77.3217 23.1783C75.8992 25.4157 74.4762 28.9819 74.525 33.0735C74.5246 33.1162 74.5246 33.1588 74.5241 33.198L74.2342 33.2218C73.9319 31.2255 73.2658 29.3938 72.4249 27.8626C71.5863 26.327 70.6011 25.08 69.6705 24.1415C68.7408 23.1999 67.8929 22.5359 67.2826 22.1166C66.6732 21.6951 66.3203 21.483 66.3335 21.4601C66.3384 21.4513 66.4312 21.4962 66.6037 21.5895C66.7731 21.688 67.0362 21.8134 67.3455 22.0229C67.9796 22.4162 68.8561 23.0617 69.8162 23.9967C70.7771 24.9286 71.7948 26.1804 72.6603 27.7336C73.528 29.282 74.2148 31.145 74.5233 33.18L74.2333 33.2037C74.2338 33.1637 74.2338 33.1206 74.2342 33.077C74.1845 28.9142 75.6651 25.3013 77.1479 23.0679C77.8857 21.9358 78.595 21.0984 79.1213 20.5594C79.3751 20.2809 79.6009 20.0922 79.743 19.9544C79.8891 19.8207 79.9691 19.7538 79.9757 19.7613Z" fill="#263238"/>
<path d="M213.67 165.246H95.495V167.983H213.67V165.246Z" fill="#E0E0E0"/>
<path d="M96.6852 168.037C96.6852 168.037 96.679 167.986 96.676 167.88C96.6738 167.766 96.6707 167.609 96.6671 167.4C96.6632 166.959 96.6575 166.305 96.6496 165.412L96.6491 165.376L96.6852 165.376C103.657 165.323 126.636 165.284 153.862 165.284C170.376 165.298 185.325 165.312 196.154 165.321C201.559 165.338 205.935 165.352 208.971 165.362C210.477 165.372 211.649 165.38 212.455 165.386C212.847 165.391 213.148 165.396 213.361 165.399C213.565 165.403 213.67 165.412 213.67 165.412C213.67 165.412 213.565 165.421 213.361 165.425C213.148 165.428 212.847 165.432 212.455 165.438C211.649 165.444 210.477 165.451 208.971 165.462C205.935 165.472 201.559 165.485 196.154 165.502C185.324 165.512 170.376 165.525 153.862 165.54C126.636 165.54 103.657 165.501 96.6852 165.448L96.7208 165.412C96.7129 166.305 96.7072 166.96 96.7032 167.4C96.6993 167.61 96.6962 167.767 96.694 167.881C96.6914 167.986 96.6852 168.037 96.6852 168.037Z" fill="#263238"/>
<path d="M110.758 165.443C110.829 165.443 110.886 166.025 110.886 166.742C110.886 167.46 110.829 168.042 110.758 168.042C110.688 168.042 110.631 167.46 110.631 166.742C110.631 166.025 110.688 165.443 110.758 165.443Z" fill="#263238"/>
<path d="M126.254 165.443C126.325 165.443 126.382 166.025 126.382 166.742C126.382 167.46 126.325 168.042 126.254 168.042C126.184 168.042 126.127 167.46 126.127 166.742C126.127 166.025 126.184 165.443 126.254 165.443Z" fill="#263238"/>
<path d="M141.751 165.443C141.821 165.443 141.878 166.025 141.878 166.742C141.878 167.46 141.821 168.042 141.751 168.042C141.68 168.042 141.623 167.46 141.623 166.742C141.623 166.025 141.68 165.443 141.751 165.443Z" fill="#263238"/>
<path d="M157.247 165.443C157.318 165.443 157.375 166.025 157.375 166.742C157.375 167.46 157.318 168.042 157.247 168.042C157.177 168.042 157.12 167.46 157.12 166.742C157.12 166.025 157.177 165.443 157.247 165.443Z" fill="#263238"/>
<path d="M172.744 165.443C172.814 165.443 172.872 166.025 172.872 166.742C172.872 167.46 172.814 168.042 172.744 168.042C172.674 168.042 172.616 167.46 172.616 166.742C172.616 166.025 172.673 165.443 172.744 165.443Z" fill="#263238"/>
<path d="M188.24 165.443C188.311 165.443 188.368 166.025 188.368 166.742C188.368 167.46 188.311 168.042 188.24 168.042C188.17 168.042 188.113 167.46 188.113 166.742C188.112 166.025 188.17 165.443 188.24 165.443Z" fill="#263238"/>
<path d="M203.737 165.443C203.807 165.443 203.864 166.025 203.864 166.742C203.864 167.46 203.807 168.042 203.737 168.042C203.666 168.042 203.609 167.46 203.609 166.742C203.609 166.025 203.666 165.443 203.737 165.443Z" fill="#263238"/>
<path d="M147.634 32.6858H116.319V165.111H147.634V32.6858Z" fill="#0F3971"/>
<path d="M131.635 39.2968H122.118V57.6378H131.635V39.2968Z" fill="white"/>
<path d="M127.145 57.6378C127.075 57.6378 127.018 53.5317 127.018 48.4677C127.018 43.402 127.075 39.2968 127.145 39.2968C127.215 39.2968 127.272 43.402 127.272 48.4677C127.272 53.5317 127.215 57.6378 127.145 57.6378Z" fill="#263238"/>
<path d="M131.636 45.6689C131.636 45.7393 129.505 45.7961 126.877 45.7961C124.249 45.7961 122.118 45.7389 122.118 45.6689C122.118 45.5985 124.249 45.5417 126.877 45.5417C129.505 45.5417 131.636 45.5985 131.636 45.6689Z" fill="#263238"/>
<path d="M131.686 52.2284C131.686 52.2988 129.537 52.3556 126.888 52.3556C124.238 52.3556 122.09 52.2984 122.09 52.2284C122.09 52.1585 124.238 52.1013 126.888 52.1013C129.537 52.1008 131.686 52.158 131.686 52.2284Z" fill="#263238"/>
<path d="M131.673 63.4955H122.155V81.8369H131.673V63.4955Z" fill="white"/>
<path d="M127.182 81.8369C127.112 81.8369 127.055 77.7308 127.055 72.6669C127.055 67.6012 127.112 63.496 127.182 63.496C127.252 63.496 127.309 67.6012 127.309 72.6669C127.309 77.7308 127.252 81.8369 127.182 81.8369Z" fill="#263238"/>
<path d="M131.673 69.8676C131.673 69.938 129.542 69.9947 126.914 69.9947C124.285 69.9947 122.155 69.9375 122.155 69.8676C122.155 69.7976 124.286 69.7404 126.914 69.7404C129.542 69.7404 131.673 69.7976 131.673 69.8676Z" fill="#263238"/>
<path d="M131.723 76.4271C131.723 76.4975 129.575 76.5543 126.925 76.5543C124.274 76.5543 122.127 76.4975 122.127 76.4271C122.127 76.3567 124.275 76.3 126.925 76.3C129.575 76.3 131.723 76.3567 131.723 76.4271Z" fill="#263238"/>
<path d="M131.673 87.4852H122.155V105.827H131.673V87.4852Z" fill="white"/>
<path d="M127.182 105.827C127.112 105.827 127.055 101.721 127.055 96.6566C127.055 91.5908 127.112 87.4856 127.182 87.4856C127.252 87.4856 127.309 91.5908 127.309 96.6566C127.309 101.721 127.252 105.827 127.182 105.827Z" fill="#263238"/>
<path d="M131.673 93.8573C131.673 93.9277 129.542 93.9844 126.914 93.9844C124.285 93.9844 122.155 93.9272 122.155 93.8573C122.155 93.7869 124.286 93.7301 126.914 93.7301C129.542 93.7301 131.673 93.7873 131.673 93.8573Z" fill="#263238"/>
<path d="M131.723 100.417C131.723 100.487 129.575 100.544 126.925 100.544C124.274 100.544 122.127 100.487 122.127 100.417C122.127 100.346 124.275 100.29 126.925 100.29C129.575 100.29 131.723 100.346 131.723 100.417Z" fill="#263238"/>
<path d="M131.673 112.166H122.155V130.507H131.673V112.166Z" fill="white"/>
<path d="M127.182 130.507C127.112 130.507 127.055 126.401 127.055 121.337C127.055 116.271 127.112 112.166 127.182 112.166C127.252 112.166 127.309 116.271 127.309 121.337C127.309 126.401 127.252 130.507 127.182 130.507Z" fill="#263238"/>
<path d="M131.673 118.538C131.673 118.609 129.542 118.665 126.914 118.665C124.285 118.665 122.155 118.609 122.155 118.538C122.155 118.468 124.286 118.411 126.914 118.411C129.542 118.411 131.673 118.468 131.673 118.538Z" fill="#263238"/>
<path d="M131.723 125.098C131.723 125.168 129.575 125.225 126.925 125.225C124.274 125.225 122.127 125.168 122.127 125.098C122.127 125.028 124.275 124.971 126.925 124.971C129.575 124.97 131.723 125.027 131.723 125.098Z" fill="#263238"/>
<path d="M160.951 32.6858H138.134V165.111H160.951V32.6858Z" fill="#0F3971"/>
<g opacity="0.3">
<path d="M160.951 32.6858H138.134V165.111H160.951V32.6858Z" fill="black"/>
</g>
<path d="M154.129 39.2968H144.611V57.6378H154.129V39.2968Z" fill="white"/>
<path d="M149.638 57.6378C149.568 57.6378 149.511 53.5317 149.511 48.4677C149.511 43.402 149.568 39.2968 149.638 39.2968C149.709 39.2968 149.765 43.402 149.765 48.4677C149.765 53.5317 149.708 57.6378 149.638 57.6378Z" fill="#263238"/>
<path d="M154.129 45.6689C154.129 45.7393 151.998 45.7961 149.37 45.7961C146.741 45.7961 144.611 45.7389 144.611 45.6689C144.611 45.5985 146.742 45.5417 149.37 45.5417C151.998 45.5417 154.129 45.5985 154.129 45.6689Z" fill="#263238"/>
<path d="M154.179 52.2284C154.179 52.2988 152.031 52.3556 149.381 52.3556C146.731 52.3556 144.583 52.2984 144.583 52.2284C144.583 52.1585 146.731 52.1013 149.381 52.1013C152.031 52.1008 154.179 52.158 154.179 52.2284Z" fill="#263238"/>
<path d="M154.166 64.1876H144.648V82.5286H154.166V64.1876Z" fill="white"/>
<path d="M149.675 82.529C149.605 82.529 149.548 78.423 149.548 73.359C149.548 68.2933 149.605 64.1881 149.675 64.1881C149.746 64.1881 149.802 68.2933 149.802 73.359C149.802 78.423 149.746 82.529 149.675 82.529Z" fill="#263238"/>
<path d="M154.166 70.5597C154.166 70.6301 152.035 70.6869 149.407 70.6869C146.778 70.6869 144.648 70.6297 144.648 70.5597C144.648 70.4893 146.779 70.4326 149.407 70.4326C152.035 70.4326 154.166 70.4898 154.166 70.5597Z" fill="#263238"/>
<path d="M154.216 77.1192C154.216 77.1896 152.068 77.2464 149.418 77.2464C146.768 77.2464 144.62 77.1892 144.62 77.1192C144.62 77.0488 146.768 76.9921 149.418 76.9921C152.068 76.9921 154.216 77.0488 154.216 77.1192Z" fill="#263238"/>
<path d="M154.166 87.4852H144.648V105.827H154.166V87.4852Z" fill="white"/>
<path d="M149.675 105.827C149.605 105.827 149.548 101.721 149.548 96.6566C149.548 91.5908 149.605 87.4856 149.675 87.4856C149.746 87.4856 149.802 91.5908 149.802 96.6566C149.802 101.721 149.746 105.827 149.675 105.827Z" fill="#263238"/>
<path d="M154.166 93.8573C154.166 93.9277 152.035 93.9844 149.407 93.9844C146.778 93.9844 144.648 93.9272 144.648 93.8573C144.648 93.7869 146.779 93.7301 149.407 93.7301C152.035 93.7301 154.166 93.7873 154.166 93.8573Z" fill="#263238"/>
<path d="M154.216 100.417C154.216 100.487 152.068 100.544 149.418 100.544C146.768 100.544 144.62 100.487 144.62 100.417C144.62 100.346 146.768 100.29 149.418 100.29C152.068 100.29 154.216 100.346 154.216 100.417Z" fill="#263238"/>
<path d="M154.555 112.563H145.037V130.905H154.555V112.563Z" fill="white"/>
<path d="M150.064 130.905C149.994 130.905 149.937 126.799 149.937 121.735C149.937 116.669 149.994 112.564 150.064 112.564C150.135 112.564 150.191 116.669 150.191 121.735C150.191 126.798 150.134 130.905 150.064 130.905Z" fill="#263238"/>
<path d="M154.555 118.936C154.555 119.006 152.424 119.063 149.796 119.063C147.168 119.063 145.037 119.005 145.037 118.936C145.037 118.865 147.168 118.808 149.796 118.808C152.424 118.808 154.555 118.866 154.555 118.936Z" fill="#263238"/>
<path d="M154.605 125.495C154.605 125.565 152.457 125.622 149.807 125.622C147.157 125.622 145.009 125.565 145.009 125.495C145.009 125.425 147.157 125.368 149.807 125.368C152.457 125.368 154.605 125.425 154.605 125.495Z" fill="#263238"/>
<path d="M131.673 137.43H122.155V155.771H131.673V137.43Z" fill="white"/>
<path d="M127.182 155.771C127.112 155.771 127.055 151.665 127.055 146.601C127.055 141.535 127.112 137.43 127.182 137.43C127.252 137.43 127.309 141.535 127.309 146.601C127.309 151.665 127.252 155.771 127.182 155.771Z" fill="#263238"/>
<path d="M131.673 143.802C131.673 143.873 129.542 143.929 126.914 143.929C124.285 143.929 122.155 143.873 122.155 143.802C122.155 143.732 124.286 143.675 126.914 143.675C129.542 143.675 131.673 143.732 131.673 143.802Z" fill="#263238"/>
<path d="M131.723 150.361C131.723 150.432 129.575 150.488 126.925 150.488C124.274 150.488 122.127 150.432 122.127 150.361C122.127 150.291 124.275 150.234 126.925 150.234C129.575 150.234 131.723 150.291 131.723 150.361Z" fill="#263238"/>
<path d="M154.166 138.216H144.648V156.558H154.166V138.216Z" fill="white"/>
<path d="M149.675 156.557C149.605 156.557 149.548 152.451 149.548 147.387C149.548 142.322 149.605 138.216 149.675 138.216C149.746 138.216 149.802 142.322 149.802 147.387C149.802 152.451 149.746 156.557 149.675 156.557Z" fill="#263238"/>
<path d="M154.166 144.588C154.166 144.659 152.035 144.716 149.407 144.716C146.778 144.716 144.648 144.659 144.648 144.588C144.648 144.518 146.779 144.461 149.407 144.461C152.035 144.461 154.166 144.518 154.166 144.588Z" fill="#263238"/>
<path d="M154.216 151.147C154.216 151.218 152.068 151.275 149.418 151.275C146.768 151.275 144.62 151.217 144.62 151.147C144.62 151.077 146.768 151.02 149.418 151.02C152.068 151.02 154.216 151.078 154.216 151.147Z" fill="#263238"/>
<path d="M176.535 106.164H187.632V90.1242H176.535V106.164Z" fill="#97D4EA"/>
<g opacity="0.3">
<path d="M176.535 106.164H187.632V90.1242H176.535V106.164Z" fill="black"/>
</g>
<path d="M166.551 106.164H177.648V90.1242H166.551V106.164Z" fill="#97D4EA"/>
<path d="M169.203 102.927C169.2 102.93 169.198 102.873 169.195 102.762C169.192 102.637 169.189 102.473 169.185 102.267C169.18 101.816 169.173 101.182 169.165 100.388C169.156 98.7518 169.144 96.4625 169.129 93.7864L169.129 93.7121H169.203C170.757 93.7103 172.46 93.7086 174.239 93.7068C174.223 93.6892 174.391 93.859 174.32 93.7886V93.7913V93.7966V93.8067V93.8274V93.8683V93.9501V94.1138V94.4394C174.32 94.6559 174.32 94.871 174.319 95.0849C174.319 95.5126 174.319 95.9345 174.318 96.3503C174.317 97.1815 174.316 97.9862 174.315 98.7584C174.31 100.3 174.305 101.708 174.301 102.927V102.989L174.24 102.988C172.694 102.975 171.432 102.964 170.541 102.956C170.119 102.949 169.785 102.944 169.543 102.94C169.439 102.938 169.355 102.935 169.287 102.934C169.229 102.931 169.201 102.929 169.203 102.927C169.206 102.924 169.238 102.922 169.299 102.92C169.37 102.918 169.458 102.916 169.566 102.913C169.812 102.91 170.15 102.905 170.578 102.898C171.46 102.89 172.709 102.879 174.24 102.865L174.179 102.926C174.175 101.707 174.17 100.298 174.165 98.7571C174.163 97.9854 174.162 97.1802 174.161 96.349C174.16 95.9332 174.16 95.5112 174.16 95.0836C174.16 94.8697 174.16 94.6546 174.159 94.4381V94.1125V93.9488V93.867V93.826V93.8054V93.7952V93.79V93.7873C174.088 93.7156 174.257 93.8819 174.239 93.8652C172.459 93.8634 170.757 93.8617 169.203 93.8599L169.277 93.7856C169.263 96.4418 169.25 98.714 169.241 100.338C169.233 101.138 169.226 101.779 169.221 102.234C169.217 102.447 169.214 102.616 169.212 102.744C169.209 102.861 169.206 102.923 169.203 102.927Z" fill="#263238"/>
<path d="M170.212 98.8486C170.209 98.8275 170.331 98.8293 170.394 98.9771C170.421 99.0453 170.433 99.1483 170.367 99.2455C170.301 99.3458 170.153 99.3784 170.041 99.3353C169.926 99.2979 169.831 99.18 169.842 99.0603C169.851 98.9432 169.925 98.8706 169.989 98.8341C170.131 98.7589 170.227 98.8341 170.212 98.8486C170.204 98.8706 170.127 98.857 170.053 98.927C169.972 98.9947 169.953 99.1368 170.093 99.1844C170.233 99.2354 170.307 99.1122 170.286 99.0088C170.272 98.9085 170.203 98.8706 170.212 98.8486Z" fill="#263238"/>
<path d="M155.248 165.216H201.268V103.191H155.248V165.216Z" fill="#97D4EA"/>
<path d="M182.838 165.216L207.52 165.246V103.191H182.838V165.216Z" fill="#97D4EA"/>
<g opacity="0.3">
<path d="M182.838 165.216L207.52 165.246V103.191H182.838V165.216Z" fill="black"/>
</g>
<path d="M158.625 145.261H167.042V136.844H158.625V145.261Z" fill="#EBEBEB"/>
<path d="M162.511 146.106C162.467 146.106 162.431 143.931 162.431 141.248C162.431 138.565 162.467 136.39 162.511 136.39C162.555 136.39 162.591 138.564 162.591 141.248C162.591 143.931 162.555 146.106 162.511 146.106Z" fill="#455A64"/>
<path d="M157.044 139.666C157.044 139.622 159.492 139.586 162.511 139.586C165.531 139.586 167.978 139.622 167.978 139.666C167.978 139.71 165.531 139.746 162.511 139.746C159.492 139.746 157.044 139.71 157.044 139.666Z" fill="#455A64"/>
<path d="M170.629 145.261H179.046V136.844H170.629V145.261Z" fill="#EBEBEB"/>
<path d="M174.515 146.106C174.471 146.106 174.436 143.931 174.436 141.248C174.436 138.565 174.471 136.39 174.515 136.39C174.559 136.39 174.595 138.564 174.595 141.248C174.595 143.931 174.559 146.106 174.515 146.106Z" fill="#455A64"/>
<path d="M169.048 139.666C169.048 139.622 171.496 139.586 174.515 139.586C177.535 139.586 179.982 139.622 179.982 139.666C179.982 139.71 177.535 139.746 174.515 139.746C171.496 139.746 169.048 139.71 169.048 139.666Z" fill="#455A64"/>
<path d="M158.625 131.964H167.042V123.547H158.625V131.964Z" fill="#EBEBEB"/>
<path d="M162.511 132.808C162.467 132.808 162.431 130.633 162.431 127.951C162.431 125.268 162.467 123.093 162.511 123.093C162.555 123.093 162.591 125.268 162.591 127.951C162.591 130.633 162.555 132.808 162.511 132.808Z" fill="#455A64"/>
<path d="M157.044 126.369C157.044 126.325 159.492 126.289 162.511 126.289C165.531 126.289 167.978 126.325 167.978 126.369C167.978 126.413 165.531 126.449 162.511 126.449C159.492 126.449 157.044 126.413 157.044 126.369Z" fill="#455A64"/>
<path d="M170.629 131.964H179.046V123.547H170.629V131.964Z" fill="#EBEBEB"/>
<path d="M174.515 132.808C174.471 132.808 174.436 130.633 174.436 127.951C174.436 125.268 174.471 123.093 174.515 123.093C174.559 123.093 174.595 125.268 174.595 127.951C174.595 130.633 174.559 132.808 174.515 132.808Z" fill="#455A64"/>
<path d="M169.048 126.369C169.048 126.325 171.496 126.289 174.515 126.289C177.535 126.289 179.982 126.325 179.982 126.369C179.982 126.413 177.535 126.449 174.515 126.449C171.496 126.449 169.048 126.413 169.048 126.369Z" fill="#455A64"/>
<path d="M158.625 118.636H167.042V110.219H158.625V118.636Z" fill="#EBEBEB"/>
<path d="M162.511 119.481C162.467 119.481 162.431 117.306 162.431 114.624C162.431 111.94 162.467 109.765 162.511 109.765C162.555 109.765 162.591 111.94 162.591 114.624C162.591 117.305 162.555 119.481 162.511 119.481Z" fill="#455A64"/>
<path d="M157.044 113.041C157.044 112.997 159.492 112.961 162.511 112.961C165.531 112.961 167.978 112.997 167.978 113.041C167.978 113.085 165.531 113.12 162.511 113.12C159.492 113.121 157.044 113.085 157.044 113.041Z" fill="#455A64"/>
<path d="M170.629 118.636H179.046V110.219H170.629V118.636Z" fill="#EBEBEB"/>
<path d="M174.515 119.481C174.471 119.481 174.436 117.306 174.436 114.624C174.436 111.94 174.471 109.765 174.515 109.765C174.559 109.765 174.595 111.94 174.595 114.624C174.595 117.305 174.559 119.481 174.515 119.481Z" fill="#455A64"/>
<path d="M169.048 113.041C169.048 112.997 171.496 112.961 174.515 112.961C177.535 112.961 179.982 112.997 179.982 113.041C179.982 113.085 177.535 113.12 174.515 113.12C171.496 113.121 169.048 113.085 169.048 113.041Z" fill="#455A64"/>
<g opacity="0.7">
<path d="M191.293 118.636H199.71V110.219H191.293V118.636Z" fill="white"/>
</g>
<path d="M195.502 119.481C195.458 119.481 195.422 117.306 195.422 114.624C195.422 111.94 195.458 109.765 195.502 109.765C195.546 109.765 195.581 111.94 195.581 114.624C195.581 117.305 195.546 119.481 195.502 119.481Z" fill="#263238"/>
<path d="M189.712 113.041C189.712 112.997 192.16 112.961 195.179 112.961C198.199 112.961 200.647 112.997 200.647 113.041C200.647 113.085 198.199 113.12 195.179 113.12C192.16 113.121 189.712 113.085 189.712 113.041Z" fill="#263238"/>
<g opacity="0.7">
<path d="M191.293 132.095H199.71V123.678H191.293V132.095Z" fill="white"/>
</g>
<path d="M195.502 132.939C195.458 132.939 195.422 130.764 195.422 128.082C195.422 125.399 195.458 123.224 195.502 123.224C195.546 123.224 195.581 125.398 195.581 128.082C195.581 130.764 195.546 132.939 195.502 132.939Z" fill="#263238"/>
<path d="M189.712 126.5C189.712 126.456 192.16 126.42 195.179 126.42C198.199 126.42 200.647 126.456 200.647 126.5C200.647 126.544 198.199 126.58 195.179 126.58C192.16 126.58 189.712 126.544 189.712 126.5Z" fill="#263238"/>
<g opacity="0.7">
<path d="M191.293 145.554H199.71V137.137H191.293V145.554Z" fill="white"/>
</g>
<path d="M195.502 146.399C195.458 146.399 195.422 144.224 195.422 141.541C195.422 138.858 195.458 136.683 195.502 136.683C195.546 136.683 195.581 138.857 195.581 141.541C195.581 144.224 195.546 146.399 195.502 146.399Z" fill="#263238"/>
<path d="M189.712 139.959C189.712 139.915 192.16 139.88 195.179 139.88C198.199 139.88 200.647 139.915 200.647 139.959C200.647 140.003 198.199 140.039 195.179 140.039C192.16 140.039 189.712 140.003 189.712 139.959Z" fill="#263238"/>
<path d="M164.776 164.938C164.773 164.938 164.771 164.912 164.769 164.862C164.767 164.805 164.765 164.731 164.762 164.64C164.758 164.434 164.754 164.147 164.748 163.78C164.743 163.02 164.735 161.933 164.725 160.577C164.718 157.839 164.709 154.018 164.698 149.641V149.563H164.776C166.175 149.563 167.647 149.562 169.159 149.561C170.619 149.561 172.042 149.562 173.402 149.563H173.48L173.48 149.64C173.469 154.053 173.459 157.909 173.452 160.674C173.442 162.044 173.434 163.142 173.429 163.91C173.423 164.281 173.419 164.571 173.415 164.779C173.412 164.871 173.41 164.945 173.408 165.004C173.406 165.054 173.404 165.08 173.401 165.08C173.399 165.08 173.397 165.054 173.394 165.004C173.393 164.945 173.39 164.871 173.387 164.779C173.384 164.571 173.38 164.281 173.374 163.91C173.368 163.142 173.361 162.044 173.351 160.674C173.344 157.909 173.334 154.053 173.323 149.64L173.401 149.718C172.041 149.719 170.618 149.72 169.158 149.72C167.646 149.719 166.174 149.719 164.775 149.718L164.853 149.64C164.842 154.018 164.832 157.838 164.825 160.576C164.815 161.933 164.807 163.02 164.802 163.78C164.796 164.146 164.792 164.434 164.789 164.64C164.786 164.731 164.784 164.804 164.782 164.862C164.78 164.912 164.778 164.938 164.776 164.938Z" fill="#263238"/>
<path d="M169.376 157.586H172.316V150.549H169.376V157.586Z" fill="#E0E0E0"/>
<path d="M172.324 157.594H169.368V150.541H172.324V157.594ZM169.384 157.579H172.308V150.557H169.384V157.579Z" fill="#263238"/>
<path d="M165.861 157.586H168.801V150.549H165.861V157.586Z" fill="#E0E0E0"/>
<path d="M168.809 157.594H165.853V150.541H168.809V157.594ZM165.869 157.579H168.793V150.557H165.869V157.579Z" fill="#263238"/>
<path d="M165.801 158.314C165.806 158.339 165.657 158.338 165.588 158.504C165.558 158.581 165.539 158.702 165.59 158.787C165.638 158.877 165.761 158.95 165.871 158.927C165.983 158.905 166.069 158.793 166.084 158.69C166.103 158.585 166.05 158.492 165.984 158.436C165.847 158.319 165.711 158.348 165.708 158.324C165.694 158.31 165.845 158.22 166.052 158.345C166.148 158.403 166.249 158.539 166.23 158.708C166.214 158.866 166.1 159.039 165.902 159.083C165.702 159.119 165.529 158.999 165.459 158.854C165.387 158.695 165.433 158.551 165.488 158.452C165.547 158.35 165.643 158.302 165.705 158.296C165.769 158.289 165.801 158.305 165.801 158.314Z" fill="#263238"/>
<path d="M156.753 149.64C156.753 149.64 156.75 149.607 156.748 149.541C156.747 149.457 156.745 149.361 156.743 149.247C156.74 148.959 156.737 148.585 156.732 148.127V148.107H156.753C157.949 148.104 159.701 148.1 161.664 148.096C161.678 148.11 161.632 148.064 161.696 148.128V148.128V148.129V148.131V148.134V148.14V148.152V148.177V148.226V148.324V148.518C161.696 148.647 161.696 148.774 161.696 148.9C161.696 149.153 161.695 149.4 161.695 149.64V149.672H161.664C160.267 149.666 159.046 149.661 158.14 149.657C157.724 149.654 157.381 149.651 157.116 149.648C157.011 149.647 156.922 149.645 156.844 149.644C156.783 149.642 156.751 149.641 156.753 149.64C156.753 149.64 156.788 149.637 156.852 149.636C156.932 149.634 157.023 149.633 157.13 149.632C157.397 149.629 157.742 149.626 158.161 149.623C159.061 149.619 160.275 149.614 161.664 149.608L161.633 149.639C161.633 149.399 161.633 149.152 161.633 148.899C161.633 148.773 161.633 148.645 161.633 148.516V148.322V148.225V148.176V148.151V148.139V148.133V148.13V148.128V148.127V148.126C161.697 148.19 161.65 148.144 161.664 148.158C159.702 148.154 157.949 148.149 156.754 148.147L156.774 148.126C156.769 148.58 156.765 148.95 156.763 149.234C156.761 149.35 156.759 149.448 156.758 149.533C156.755 149.602 156.753 149.64 156.753 149.64Z" fill="#263238"/>
<path d="M175.858 146.509C175.858 146.509 175.855 146.477 175.854 146.41C175.852 146.327 175.85 146.23 175.849 146.116C175.846 145.829 175.842 145.454 175.838 144.997L175.837 144.976H175.858C177.054 144.974 178.806 144.969 180.769 144.965C180.783 144.98 180.737 144.933 180.801 144.997V144.998V144.998V145V145.003V145.009V145.022V145.046V145.095V145.193V145.387C180.801 145.516 180.801 145.644 180.801 145.77C180.8 146.022 180.8 146.27 180.8 146.51V146.541H180.769C179.372 146.535 178.15 146.531 177.244 146.527C176.829 146.523 176.486 146.52 176.221 146.518C176.116 146.516 176.027 146.515 175.949 146.514C175.888 146.512 175.857 146.51 175.858 146.509C175.858 146.509 175.893 146.506 175.957 146.505C176.037 146.504 176.129 146.502 176.235 146.501C176.503 146.499 176.847 146.496 177.266 146.492C178.167 146.489 179.381 146.483 180.769 146.478L180.738 146.509C180.738 146.269 180.738 146.021 180.738 145.769C180.738 145.643 180.738 145.515 180.738 145.386V145.192V145.094V145.046V145.021V145.009V145.002V144.999V144.998V144.997V144.996C180.802 145.06 180.756 145.014 180.77 145.028C178.807 145.024 177.055 145.019 175.859 145.017L175.879 144.996C175.875 145.449 175.871 145.82 175.868 146.104C175.866 146.219 175.865 146.318 175.863 146.403C175.861 146.472 175.858 146.509 175.858 146.509Z" fill="#263238"/>
<path d="M178.923 134.201C178.923 134.201 178.92 134.169 178.919 134.102C178.917 134.019 178.915 133.922 178.914 133.808C178.911 133.521 178.907 133.147 178.902 132.689V132.668H178.923C180.119 132.666 181.871 132.661 183.834 132.657C183.848 132.671 183.802 132.625 183.866 132.689V132.69V132.692V132.695V132.701V132.713V132.738V132.787V132.884V133.078C183.866 133.207 183.866 133.335 183.866 133.461C183.866 133.714 183.865 133.961 183.865 134.201V134.233H183.834C182.437 134.227 181.216 134.222 180.31 134.218C179.894 134.215 179.552 134.211 179.286 134.209C179.182 134.207 179.092 134.206 179.014 134.205C178.953 134.204 178.922 134.202 178.923 134.201C178.923 134.201 178.958 134.198 179.022 134.197C179.102 134.196 179.194 134.194 179.3 134.193C179.568 134.191 179.913 134.188 180.331 134.184C181.231 134.181 182.445 134.175 183.834 134.17L183.803 134.201C183.803 133.961 183.803 133.713 183.803 133.461C183.803 133.335 183.803 133.207 183.803 133.078V132.884V132.786V132.737V132.713V132.7V132.694V132.691V132.69V132.689V132.689C183.866 132.752 183.82 132.706 183.834 132.72C181.871 132.716 180.119 132.711 178.923 132.709L178.944 132.689C178.939 133.142 178.935 133.512 178.933 133.796C178.931 133.912 178.929 134.01 178.928 134.095C178.926 134.163 178.923 134.201 178.923 134.201Z" fill="#263238"/>
<path d="M161.267 120.954C161.267 120.954 161.264 120.922 161.262 120.855C161.261 120.772 161.259 120.675 161.257 120.561C161.254 120.274 161.251 119.9 161.246 119.442V119.421H161.267C162.463 119.419 164.215 119.414 166.177 119.41C166.192 119.424 166.146 119.378 166.21 119.442V119.443V119.445V119.448V119.454V119.467V119.491V119.54V119.638V119.832C166.21 119.961 166.21 120.088 166.21 120.215C166.21 120.467 166.209 120.714 166.209 120.955V120.986H166.178C164.781 120.98 163.56 120.975 162.654 120.972C162.239 120.968 161.896 120.965 161.631 120.963C161.526 120.961 161.436 120.96 161.359 120.959C161.297 120.956 161.265 120.955 161.267 120.954C161.267 120.954 161.302 120.951 161.366 120.95C161.446 120.949 161.537 120.947 161.644 120.946C161.911 120.944 162.256 120.941 162.675 120.937C163.575 120.934 164.789 120.928 166.178 120.923L166.147 120.954C166.147 120.714 166.147 120.466 166.146 120.214C166.146 120.087 166.146 119.959 166.146 119.831V119.637V119.539V119.49V119.466V119.453V119.447V119.444V119.442V119.442V119.441C166.21 119.505 166.164 119.459 166.178 119.473C164.215 119.468 162.463 119.464 161.267 119.461L161.287 119.441C161.283 119.894 161.279 120.264 161.276 120.549C161.275 120.664 161.273 120.762 161.271 120.847C161.269 120.916 161.267 120.954 161.267 120.954Z" fill="#263238"/>
<path d="M175.242 106.815C175.242 106.815 175.24 106.783 175.238 106.717C175.237 106.633 175.235 106.536 175.233 106.422C175.23 106.135 175.226 105.761 175.222 105.303L175.221 105.283H175.242C176.438 105.28 178.19 105.276 180.153 105.271C180.167 105.285 180.121 105.239 180.185 105.303V105.305V105.307V105.31V105.316V105.328V105.353V105.402V105.499V105.693C180.185 105.822 180.185 105.95 180.185 106.076C180.185 106.329 180.184 106.576 180.184 106.816V106.847H180.153C178.756 106.842 177.535 106.837 176.629 106.833C176.213 106.83 175.871 106.827 175.605 106.825C175.501 106.823 175.411 106.821 175.333 106.821C175.272 106.818 175.241 106.817 175.242 106.815C175.242 106.815 175.278 106.813 175.341 106.811C175.421 106.81 175.513 106.809 175.62 106.807C175.887 106.805 176.232 106.802 176.65 106.799C177.551 106.795 178.765 106.79 180.154 106.784L180.123 106.815C180.123 106.575 180.122 106.327 180.122 106.075C180.122 105.948 180.122 105.821 180.122 105.692V105.498V105.4V105.351V105.327V105.314V105.308V105.305V105.303V105.303V105.302C180.186 105.366 180.14 105.32 180.154 105.334C178.191 105.329 176.439 105.325 175.243 105.322L175.263 105.302C175.259 105.755 175.255 106.125 175.252 106.41C175.251 106.525 175.249 106.623 175.248 106.708C175.245 106.777 175.242 106.815 175.242 106.815Z" fill="#263238"/>
<path d="M158.29 122.419C158.29 122.419 158.288 122.386 158.286 122.32C158.285 122.236 158.283 122.14 158.281 122.026C158.278 121.738 158.275 121.364 158.27 120.906V120.886H158.29C159.487 120.883 161.239 120.879 163.201 120.875C163.216 120.889 163.17 120.842 163.233 120.907V120.907V120.908V120.909V120.912V120.919V120.931V120.956V121.004V121.102V121.296C163.233 121.425 163.233 121.553 163.233 121.679C163.233 121.931 163.233 122.179 163.233 122.419V122.45H163.202C161.804 122.445 160.583 122.44 159.677 122.436C159.262 122.432 158.919 122.429 158.654 122.427C158.549 122.425 158.46 122.424 158.382 122.423C158.32 122.421 158.289 122.42 158.29 122.419C158.29 122.419 158.326 122.416 158.389 122.415C158.47 122.413 158.561 122.412 158.668 122.411C158.935 122.408 159.28 122.405 159.698 122.402C160.599 122.398 161.813 122.393 163.202 122.388L163.171 122.419C163.171 122.178 163.171 121.931 163.17 121.678C163.17 121.552 163.17 121.424 163.17 121.296V121.102V121.004V120.955V120.93V120.918V120.912V120.909V120.908V120.907V120.906C163.234 120.97 163.188 120.924 163.202 120.938C161.239 120.934 159.487 120.929 158.291 120.927L158.311 120.906C158.307 121.359 158.303 121.73 158.3 122.014C158.298 122.129 158.297 122.228 158.295 122.313C158.293 122.381 158.29 122.419 158.29 122.419Z" fill="#263238"/>
<path d="M181.03 135.683C181.03 135.683 181.027 135.651 181.026 135.584C181.024 135.501 181.023 135.404 181.021 135.29C181.018 135.003 181.014 134.629 181.009 134.17V134.15H181.03C182.226 134.147 183.979 134.143 185.941 134.138C185.955 134.153 185.909 134.106 185.973 134.171V134.172V134.174V134.177V134.183V134.195V134.22V134.269V134.366V134.56C185.973 134.689 185.973 134.817 185.973 134.943C185.973 135.196 185.973 135.443 185.973 135.683V135.714H185.941C184.544 135.709 183.323 135.704 182.417 135.7C182.001 135.696 181.659 135.693 181.394 135.691C181.289 135.69 181.2 135.688 181.122 135.687C181.06 135.685 181.029 135.684 181.03 135.683C181.03 135.683 181.065 135.68 181.129 135.679C181.209 135.678 181.301 135.676 181.408 135.675C181.675 135.673 182.02 135.67 182.438 135.666C183.339 135.663 184.553 135.657 185.941 135.652L185.911 135.683C185.911 135.443 185.91 135.195 185.91 134.943C185.91 134.816 185.91 134.689 185.91 134.56V134.366V134.268V134.219V134.195V134.182V134.176V134.173V134.171V134.171V134.17C185.974 134.234 185.928 134.188 185.942 134.202C183.979 134.197 182.227 134.193 181.031 134.19L181.051 134.17C181.047 134.623 181.043 134.993 181.04 135.277C181.038 135.393 181.037 135.491 181.035 135.576C181.033 135.645 181.03 135.683 181.03 135.683Z" fill="#263238"/>
<path d="M178.923 108.328C178.923 108.328 178.92 108.295 178.919 108.229C178.917 108.145 178.915 108.049 178.914 107.935C178.911 107.647 178.907 107.273 178.902 106.815V106.795H178.923C180.119 106.792 181.871 106.788 183.834 106.783C183.848 106.797 183.802 106.751 183.866 106.815V106.816V106.817V106.818V106.821V106.827V106.839V106.864V106.913V107.011V107.205C183.866 107.334 183.866 107.461 183.866 107.587C183.866 107.84 183.865 108.087 183.865 108.328V108.359H183.834C182.437 108.353 181.216 108.348 180.31 108.345C179.894 108.341 179.552 108.338 179.286 108.336C179.182 108.334 179.092 108.333 179.014 108.332C178.953 108.33 178.922 108.329 178.923 108.328C178.923 108.328 178.958 108.325 179.022 108.324C179.102 108.322 179.194 108.321 179.3 108.32C179.568 108.317 179.913 108.314 180.331 108.311C181.231 108.307 182.445 108.302 183.834 108.296L183.803 108.327C183.803 108.087 183.803 107.84 183.803 107.587C183.803 107.461 183.803 107.333 183.803 107.204V107.01V106.913V106.864V106.839V106.827V106.821V106.817V106.816V106.815C183.866 106.879 183.82 106.832 183.834 106.847C181.871 106.842 180.119 106.838 178.923 106.835L178.944 106.815C178.939 107.268 178.935 107.638 178.933 107.922C178.931 108.038 178.929 108.136 178.928 108.221C178.926 108.29 178.923 108.328 178.923 108.328Z" fill="#263238"/>
<path d="M155.159 151.154C155.159 151.154 155.157 151.122 155.155 151.056C155.154 150.972 155.152 150.875 155.15 150.761C155.147 150.474 155.144 150.099 155.139 149.642V149.622H155.159C156.356 149.619 158.108 149.615 160.07 149.61C160.085 149.625 160.039 149.578 160.102 149.642V149.644V149.645V149.648V149.655V149.667V149.692V149.74V149.838V150.032C160.102 150.161 160.102 150.289 160.102 150.415C160.102 150.667 160.102 150.915 160.102 151.155V151.186H160.071C158.674 151.181 157.453 151.176 156.547 151.172C156.131 151.169 155.789 151.166 155.523 151.163C155.419 151.162 155.329 151.161 155.251 151.159C155.189 151.157 155.158 151.155 155.159 151.154C155.159 151.154 155.195 151.151 155.258 151.15C155.339 151.149 155.43 151.148 155.537 151.146C155.804 151.144 156.149 151.141 156.567 151.137C157.468 151.134 158.682 151.129 160.071 151.123L160.04 151.154C160.039 150.914 160.039 150.667 160.039 150.414C160.039 150.288 160.039 150.16 160.039 150.031V149.837V149.739V149.691V149.666V149.654V149.648V149.644V149.642V149.641V149.641C160.103 149.705 160.057 149.659 160.071 149.673C158.108 149.668 156.356 149.664 155.16 149.661L155.18 149.641C155.176 150.094 155.172 150.464 155.169 150.748C155.167 150.864 155.166 150.962 155.164 151.047C155.162 151.116 155.159 151.154 155.159 151.154Z" fill="#263238"/>
<path d="M176.364 60.2825C171.572 60.3938 167.665 64.2988 167.551 69.0909C167.502 71.143 168.14 73.0429 169.249 74.5816L169.246 74.5825L169.334 74.7022C169.338 74.7079 169.343 74.7136 169.347 74.7189L175.741 83.4159C176.304 84.1815 177.456 84.1573 177.986 83.3689L183.765 74.7765C184.859 73.1085 185.609 71.3652 185.609 69.31C185.609 64.2513 181.449 60.1641 176.364 60.2825ZM176.579 75.877C172.829 75.877 169.789 72.8375 169.789 69.0878C169.789 65.3381 172.829 62.2986 176.579 62.2986C180.328 62.2986 183.368 65.3381 183.368 69.0878C183.368 72.8375 180.328 75.877 176.579 75.877Z" fill="#FE5B5B"/>
<g opacity="0.3">
<path d="M176.364 60.2825C171.572 60.3938 167.665 64.2988 167.551 69.0909C167.502 71.143 168.14 73.0429 169.249 74.5816L169.246 74.5825L169.334 74.7022C169.338 74.7079 169.343 74.7136 169.347 74.7189L175.741 83.4159C176.304 84.1815 177.456 84.1573 177.986 83.3689L183.765 74.7765C184.859 73.1085 185.609 71.3652 185.609 69.31C185.609 64.2513 181.449 60.1641 176.364 60.2825ZM176.579 75.877C172.829 75.877 169.789 72.8375 169.789 69.0878C169.789 65.3381 172.829 62.2986 176.579 62.2986C180.328 62.2986 183.368 65.3381 183.368 69.0878C183.368 72.8375 180.328 75.877 176.579 75.877Z" fill="black"/>
</g>
<path d="M175.829 60.2825C171.037 60.3938 167.13 64.2988 167.016 69.0909C166.967 71.143 167.605 73.0429 168.713 74.5816L168.711 74.5825L168.799 74.7022C168.803 74.7079 168.807 74.7136 168.811 74.7189L175.205 83.4159C175.768 84.1815 176.92 84.1573 177.45 83.3689L183.23 74.7765C184.323 73.1085 185.073 71.3652 185.073 69.31C185.074 64.2513 180.914 60.1641 175.829 60.2825ZM176.044 74.6533C173.204 74.6533 170.902 72.3513 170.902 69.5115C170.902 66.6717 173.204 64.3697 176.044 64.3697C178.883 64.3697 181.185 66.6717 181.185 69.5115C181.185 72.3513 178.883 74.6533 176.044 74.6533Z" fill="#FE5B5B"/>
<path d="M46.9167 189.981H4.05591L6.46975 187.598H48.3274L46.9167 189.981Z" fill="#E0E0E0"/>
<path d="M82.9158 139.751C82.9303 139.772 83.2229 139.593 83.6836 139.286C84.1447 138.98 84.7739 138.547 85.4625 138.059C85.5817 137.974 85.6988 137.891 85.8105 137.812L85.679 137.782C86.0481 138.428 86.3817 138.994 86.6281 139.396C86.8745 139.799 87.0333 140.037 87.0531 140.025C87.0729 140.014 86.951 139.755 86.7328 139.337C86.5145 138.919 86.2004 138.342 85.8369 137.693L85.7881 137.605L85.7058 137.663C85.5936 137.742 85.4761 137.825 85.3565 137.91C84.6679 138.397 84.0505 138.847 83.6088 139.18C83.167 139.514 82.9013 139.73 82.9158 139.751Z" fill="#263238"/>
<path d="M104.199 187.139C104.084 195.087 110.434 201.623 118.382 201.737C126.329 201.852 132.865 195.502 132.98 187.554C133.094 179.606 126.745 173.07 118.797 172.956C110.849 172.842 104.313 179.191 104.199 187.139Z" fill="#8196A0"/>
<path d="M104.201 187.102C104.201 187.114 104.199 187.127 104.199 187.139C104.084 195.087 110.434 201.623 118.382 201.737C126.329 201.852 132.865 195.502 132.98 187.554C132.98 187.542 132.979 187.529 132.979 187.517L104.201 187.102Z" fill="#8196A0"/>
<path d="M108.486 187.201C108.405 192.781 112.864 197.369 118.443 197.45C124.023 197.531 128.612 193.072 128.692 187.492C128.773 181.913 124.315 177.324 118.734 177.243C113.155 177.163 108.567 181.621 108.486 187.201Z" fill="#FAFAFA"/>
<path d="M118.735 177.243C113.155 177.163 108.566 181.621 108.486 187.201L128.692 187.492C128.773 181.913 124.315 177.324 118.735 177.243Z" fill="#E0E0E0"/>
<path d="M112.435 187.258C112.386 190.657 115.101 193.452 118.5 193.501C121.899 193.55 124.695 190.835 124.744 187.436C124.792 184.037 122.077 181.241 118.678 181.192C115.279 181.143 112.484 183.859 112.435 187.258Z" fill="#8196A0"/>
<path d="M111.758 166.244C111.758 166.244 126.493 161.788 132.587 177.796L101.752 187.347L111.758 166.244Z" fill="#84A6B7"/>
<path d="M15.3983 187.139C15.2835 195.087 21.6336 201.623 29.5813 201.737C37.529 201.852 44.0648 195.502 44.1796 187.554C44.294 179.606 37.9444 173.07 29.9966 172.956C22.0485 172.842 15.5127 179.191 15.3983 187.139Z" fill="#8196A0"/>
<path d="M15.4005 187.102C15.4 187.114 15.3983 187.127 15.3978 187.139C15.283 195.087 21.6331 201.623 29.5808 201.737C37.5285 201.852 44.0643 195.502 44.1791 187.554C44.1791 187.542 44.1778 187.529 44.1778 187.517L15.4005 187.102Z" fill="#8196A0"/>
<path d="M19.6856 187.201C19.6051 192.781 24.0632 197.369 29.6428 197.45C35.2229 197.531 39.8112 193.072 39.8918 187.492C39.9723 181.913 35.5142 177.324 29.9341 177.243C24.3545 177.163 19.7662 181.621 19.6856 187.201Z" fill="#FAFAFA"/>
<path d="M29.9341 177.243C24.3544 177.163 19.7657 181.621 19.6856 187.201L39.8917 187.492C39.9722 181.913 35.5142 177.324 29.9341 177.243Z" fill="#E0E0E0"/>
<path d="M23.6342 187.258C23.5854 190.657 26.301 193.452 29.6996 193.501C33.0986 193.55 35.8939 190.835 35.9428 187.436C35.9916 184.037 33.2759 181.241 29.8769 181.192C26.4784 181.143 23.6835 183.859 23.6342 187.258Z" fill="#8196A0"/>
<path d="M50.2595 181.569C50.1794 181.61 42.6858 180.411 42.6858 180.411C41.8647 181.481 40.6142 182.135 39.267 182.2C36.0303 182.355 32.8645 182.497 30.1238 182.62C27.5669 182.735 25.586 184.897 25.6938 187.454V187.458C25.7959 189.875 27.7359 191.81 30.1532 191.905L46.0909 192.532C48.7116 192.635 52.1959 191.042 53.8318 188.993L50.2595 181.569Z" fill="#84A6B7"/>
<path d="M11.1047 175.2C11.1047 175.2 10.4192 161.175 23.6003 158.252V156.454H69.7765V160.742C69.7765 160.742 62.9988 168.902 65.212 175.68C67.4252 182.458 68.1168 183.15 68.1168 183.15H94.3976C94.3976 183.15 97.5788 179.139 97.7174 173.191C97.8556 167.243 95.3841 157.073 93.5396 150.572C91.8623 144.66 90.8015 139.718 90.8015 139.718L98.6854 137.089C98.6854 137.089 113.274 156.164 113.87 157.237C114.466 158.31 116.492 160.813 116.015 166.295C115.539 171.777 102.429 188.701 98.9723 190.608C95.5161 192.515 92.4172 192.634 89.3187 193.11C86.629 193.524 66.733 193.25 61.5292 193.171C59.7216 193.143 57.9366 192.682 56.3913 191.744C54.8354 190.8 53.6646 189.239 52.3728 186.674L49.6316 181.311L11.1047 175.2Z" fill="#84A6B7"/>
<path d="M14.6384 174.224L8.82158 183.334C8.0771 184.5 9.28138 185.968 10.5512 185.418C11.1668 185.151 11.8299 184.734 12.5022 184.094C15.1624 181.564 19.9039 174.897 19.9039 174.897L14.6384 174.224Z" fill="#84A6B7"/>
<path d="M56.3447 175.865C56.3416 175.864 56.3535 175.819 56.3785 175.732C56.4076 175.637 56.4463 175.511 56.4956 175.349C56.5946 175.012 56.7138 174.507 56.8001 173.846C56.9483 172.535 56.881 170.532 55.9003 168.348C55.4224 167.259 54.714 166.147 53.7575 165.126C52.7961 164.113 51.6089 163.176 50.2229 162.43C48.8418 161.678 47.282 161.088 45.6104 160.714C43.9384 160.338 42.1608 160.169 40.3427 160.169C38.5225 160.168 36.7475 160.33 35.0447 160.557C33.3415 160.787 31.7064 161.069 30.1677 161.421C27.0877 162.113 24.4081 163.137 22.3353 164.319C20.255 165.492 18.7805 166.772 17.8592 167.734C17.3945 168.214 17.0619 168.612 16.8393 168.884C16.7341 169.015 16.6514 169.119 16.5893 169.197C16.5321 169.267 16.5018 169.301 16.4991 169.3C16.4991 169.3 16.8921 168.666 17.8077 167.685C18.7167 166.705 20.1872 165.401 22.2711 164.207C24.3479 163.004 27.0398 161.96 30.1299 161.256C31.6739 160.899 33.3133 160.613 35.0209 160.38C36.7286 160.15 38.5115 159.986 40.3427 159.986C42.1723 159.986 43.9631 160.158 45.65 160.539C47.3365 160.92 48.91 161.519 50.3039 162.283C51.7022 163.041 52.9003 163.993 53.8683 165.023C54.8319 166.061 55.543 167.193 56.0186 168.297C56.995 170.511 57.0421 172.537 56.8709 173.855C56.7732 174.52 56.6417 175.026 56.5308 175.361C56.474 175.52 56.4296 175.645 56.3961 175.739C56.3649 175.823 56.3477 175.866 56.3447 175.865Z" fill="#8196A0"/>
<path d="M53.6844 172.716C53.6646 172.708 53.7614 172.494 53.8586 172.091C53.9673 171.691 54.0131 171.081 53.911 170.348C53.8102 169.614 53.5278 168.762 53.053 167.903C52.8207 167.471 52.5342 167.04 52.202 166.622C51.8747 166.201 51.4897 165.8 51.058 165.437C50.1899 164.708 49.2228 164.195 48.3116 163.83C47.3937 163.476 46.5274 163.263 45.7917 163.142C45.0556 163.02 44.4519 162.968 44.0348 162.943C43.6172 162.917 43.3853 162.907 43.3853 162.893C43.3853 162.887 43.4434 162.881 43.5538 162.877C43.6643 162.874 43.8275 162.865 44.0374 162.871C44.4576 162.875 45.0666 162.907 45.8119 163.014C46.5573 163.12 47.4373 163.322 48.3727 163.673C49.3016 164.035 50.288 164.552 51.1755 165.297C51.6186 165.669 52.0106 166.079 52.3428 166.511C52.6799 166.938 52.9685 167.38 53.2013 167.822C53.6769 168.703 53.9528 169.577 54.039 170.331C54.127 171.083 54.0588 171.707 53.9273 172.11C53.8859 172.318 53.7957 172.461 53.7601 172.565C53.7161 172.667 53.6901 172.718 53.6844 172.716Z" fill="#F5F5F5"/>
<g opacity="0.4">
<path d="M44.6415 160.428C47.2226 160.92 49.478 161.846 51.5949 163.258C53.7117 164.671 55.3313 166.672 56.2527 169.044C57.1741 171.417 57.0359 174.559 56.0666 176.524L59.3292 176.794C60.4279 173.131 59.2315 168.635 56.5919 165.767C53.4952 162.403 49.2356 160.428 44.6415 160.428Z" fill="#142B40"/>
</g>
<path d="M69.7537 158.088C69.7537 158.138 59.3754 158.179 46.5763 158.179C33.7727 158.179 23.3966 158.138 23.3966 158.088C23.3966 158.037 33.7727 157.996 46.5763 157.996C59.3754 157.996 69.7537 158.037 69.7537 158.088Z" fill="#8196A0"/>
<path d="M69.7765 156.454C69.7765 156.454 70.5382 155.545 70.6112 154.385C70.6843 153.226 70.1554 151.776 68.9075 151.776H52.9624C50.3787 151.776 48.2843 153.87 48.2843 156.454H69.7765V156.454Z" fill="#29586F"/>
<path d="M90.801 139.717L88.0282 133.934C87.27 132.29 87.8746 130.338 89.4295 129.411L97.7209 124.465C98.1543 124.206 98.6502 124.07 99.1549 124.07H100.947L101.664 135.759L98.8997 136.816L100.649 139.662L90.801 139.717Z" fill="#638293"/>
<path d="M100.973 124.494C100.973 124.494 103.811 125.145 104.167 129.519C104.525 133.892 101.665 135.254 101.665 135.254L100.973 124.494Z" fill="white"/>
<path d="M100.973 124.494C100.978 124.5 100.988 124.579 101.001 124.725C101.016 124.894 101.034 125.103 101.056 125.356C101.101 125.929 101.162 126.704 101.237 127.653C101.386 129.59 101.584 132.253 101.778 135.246L101.615 135.15C101.897 135.001 102.189 134.781 102.446 134.533C103.021 133.976 103.444 133.296 103.697 132.583C103.952 131.871 104.075 131.138 104.086 130.438C104.112 129.038 103.845 127.766 103.387 126.815C102.929 125.856 102.284 125.246 101.791 124.923C101.295 124.593 100.966 124.512 100.973 124.494C100.968 124.487 101.063 124.497 101.21 124.548C101.359 124.602 101.581 124.686 101.838 124.847C102.357 125.154 103.041 125.764 103.532 126.742C104.023 127.714 104.311 129.008 104.296 130.442C104.291 131.16 104.17 131.918 103.907 132.659C103.647 133.401 103.208 134.114 102.604 134.697C102.331 134.959 102.037 135.184 101.714 135.355L101.562 135.436L101.551 135.26C101.357 132.213 101.209 129.496 101.109 127.563C101.063 126.626 101.025 125.86 100.997 125.295C100.987 125.052 100.979 124.854 100.972 124.692C100.968 124.557 100.968 124.488 100.973 124.494Z" fill="#8196A0"/>
<path d="M90.7597 131.811C90.7597 131.811 83.204 135.392 82.2822 135.979C81.6429 136.387 81.0933 137.101 81.5949 138.356C82.4507 140.497 85.9835 138.483 85.9835 138.483L93.0147 134.968C93.0147 134.968 95.7189 133.691 94.7206 132.095C93.6034 130.307 90.7597 131.811 90.7597 131.811Z" fill="#8196A0"/>
<path d="M89.8022 127.123C91.0391 127.123 92.0418 125.355 92.0418 123.174C92.0418 120.994 91.0391 119.226 89.8022 119.226C88.5653 119.226 87.5626 120.994 87.5626 123.174C87.5626 125.355 88.5653 127.123 89.8022 127.123Z" fill="#8196A0"/>
<path d="M90.1701 125.889L91.4003 130.152C91.9495 129.873 92.0643 129.326 91.9728 128.894C91.6639 127.433 91.4901 126.393 91.1509 125.115C91.1095 124.985 90.1701 125.889 90.1701 125.889Z" fill="#8196A0"/>
<g opacity="0.3">
<path d="M65.8196 177.502C65.6977 177.151 65.5736 176.791 65.4562 176.422C65.3466 176.078 65.2177 175.721 65.1235 175.379C64.955 174.767 64.8573 174.137 64.816 173.773C62.74 182.226 65.9094 188.179 71.3535 188.598C79.306 189.209 89.0023 189.655 92.9245 188.625C100.073 186.748 102.696 180.789 103.322 179.806C103.948 178.823 109.635 168.43 106.15 158.422C102.665 148.413 96.591 137.788 96.591 137.788L90.801 139.718C90.801 139.718 91.8619 144.66 93.5392 150.572C95.3836 157.073 97.8551 167.243 97.717 173.191C97.5788 179.138 94.3972 183.15 94.3972 183.15H68.1164C68.1164 183.15 67.5536 182.585 65.8196 177.502Z" fill="#142B40"/>
</g>
<path d="M10.0536 173L10.2388 170.995L58.2076 176.521C60.9145 176.839 62.7964 179.37 62.3216 182.054L62.1064 183.269L12.4599 176.055C10.9732 175.839 9.91541 174.496 10.0536 173Z" fill="#29586F"/>
<g opacity="0.3">
<path d="M10.0536 173L10.2388 170.995L58.2076 176.521C60.9145 176.839 62.7964 179.37 62.3216 182.054L62.1064 183.269L12.4599 176.055C10.9732 175.839 9.91541 174.496 10.0536 173Z" fill="#577587"/>
</g>
<g opacity="0.3">
<path d="M103.322 186.42C103.322 186.42 113.882 174.805 116.059 165.674C116.79 165.667 118.495 165.741 119.33 165.916C119.33 165.916 113.085 182.89 103.322 186.42Z" fill="#142B40"/>
</g>
<path d="M115.906 161.581C115.912 161.58 115.932 161.681 115.963 161.874C115.99 162.068 116.047 162.353 116.083 162.724C116.152 163.465 116.197 164.553 116.001 165.876C115.811 167.199 115.359 168.742 114.608 170.339C113.874 171.946 112.864 173.604 111.812 175.337C109.697 178.817 107.343 181.663 105.631 183.695C104.771 184.71 104.062 185.52 103.569 186.077C103.33 186.344 103.139 186.557 102.997 186.715C102.865 186.859 102.793 186.933 102.788 186.929C102.784 186.925 102.846 186.843 102.969 186.691C103.104 186.527 103.286 186.307 103.515 186.03C104.002 185.445 104.689 184.623 105.532 183.612C107.217 181.56 109.549 178.707 111.655 175.242C112.707 173.508 113.718 171.859 114.455 170.268C115.208 168.685 115.668 167.164 115.873 165.856C116.083 164.548 116.058 163.469 116.012 162.73C115.987 162.36 115.942 162.074 115.926 161.879C115.907 161.685 115.899 161.582 115.906 161.581Z" fill="#8196A0"/>
<path d="M97.6514 186.336C97.6162 186.372 96.859 185.688 95.9605 184.808C95.0616 183.928 94.362 183.186 94.3972 183.15C94.4324 183.113 95.1896 183.797 96.0886 184.677C96.987 185.557 97.6866 186.299 97.6514 186.336Z" fill="#8196A0"/>
<path d="M66.3128 185.977C66.2693 185.958 66.5588 185.251 67.0872 184.474C67.613 183.696 68.1635 183.166 68.1974 183.199C68.237 183.235 67.7556 183.813 67.2386 184.577C66.7194 185.34 66.3608 186.001 66.3128 185.977Z" fill="#8196A0"/>
<path d="M46.0236 192.683C45.9809 192.647 46.7812 192.138 47.4641 190.854C47.8047 190.219 48.085 189.392 48.1699 188.444C48.2574 187.5 48.1202 186.432 47.6573 185.439C47.1768 184.454 46.4323 183.675 45.6438 183.149C44.8536 182.618 44.0339 182.316 43.3268 182.182C41.899 181.904 40.9996 182.206 40.9983 182.15C40.997 182.144 41.0507 182.127 41.1554 182.102C41.2606 182.083 41.4137 182.032 41.6178 182.013C42.0226 181.95 42.6246 181.931 43.3501 182.054C44.0752 182.175 44.92 182.471 45.7367 183.008C46.5516 183.541 47.3246 184.34 47.8218 185.36C48.301 186.388 48.4361 187.491 48.3371 188.459C48.2407 189.432 47.9398 190.275 47.5772 190.915C47.2164 191.557 46.823 192.012 46.5194 192.287C46.3764 192.434 46.2405 192.521 46.1586 192.591C46.0742 192.657 46.0275 192.688 46.0236 192.683Z" fill="#8196A0"/>
<path d="M28.5076 189.006C28.457 189.009 28.38 188.251 28.3351 187.315C28.2907 186.378 28.2955 185.617 28.3461 185.614C28.3967 185.612 28.4737 186.369 28.5186 187.306C28.5631 188.243 28.5582 189.004 28.5076 189.006Z" fill="#8196A0"/>
<path d="M29.7797 189.009C29.7295 189.015 29.5918 188.259 29.4717 187.321C29.352 186.383 29.2953 185.617 29.3454 185.61C29.3956 185.604 29.5333 186.359 29.6534 187.298C29.7735 188.236 29.8299 189.002 29.7797 189.009Z" fill="#8196A0"/>
<path d="M49.5621 156.454C49.5621 156.504 43.7299 156.545 36.5372 156.545C29.3419 156.545 23.511 156.504 23.511 156.454C23.511 156.403 29.3419 156.362 36.5372 156.362C43.7299 156.362 49.5621 156.403 49.5621 156.454Z" fill="#8196A0"/>
<path d="M19.0265 197.117C19.0216 197.121 18.9688 197.068 18.872 196.962C18.7779 196.854 18.6283 196.703 18.4611 196.488C18.113 196.068 17.6466 195.427 17.1622 194.579C16.1889 192.9 15.2244 190.276 15.2363 187.273C15.2491 184.268 16.2356 181.653 17.2225 179.981C17.714 179.137 18.1856 178.5 18.5372 178.083C18.7062 177.87 18.8571 177.72 18.9521 177.613C19.0498 177.507 19.103 177.455 19.1079 177.459C19.1127 177.463 19.0683 177.525 18.9798 177.637C18.894 177.752 18.7528 177.909 18.5931 178.128C18.2604 178.556 17.8086 179.201 17.3356 180.045C16.3856 181.719 15.4326 184.309 15.4198 187.274C15.4084 190.238 16.3394 192.835 17.2757 194.517C17.7417 195.365 18.1883 196.013 18.5174 196.444C18.6749 196.665 18.8153 196.823 18.9002 196.938C18.9878 197.051 19.0313 197.113 19.0265 197.117Z" fill="#455A64"/>
<path d="M68.2 191.388C68.2 191.388 68.6031 200.799 68.6114 201.254L70.6099 202.766L75.4037 201.572L74.987 191.173L68.2 191.388Z" fill="#FFBE9D"/>
<path d="M81.3899 108.59L86.4033 111.271L94.7923 105.145L97.2321 109.351C97.2321 109.351 92.1272 114.277 90.3158 115.96C88.5043 117.642 87.3127 118.526 85.9905 118.266C84.6683 118.006 77.2896 113.911 77.2896 113.911C77.2896 113.911 79.4372 108.688 81.3899 108.59Z" fill="#FFBE9D"/>
<path d="M86.4389 113.138C86.4548 113.137 86.4702 113.167 86.4851 113.221L86.4957 113.267L86.497 113.273L86.4979 113.276L86.4983 113.277C86.4477 113.28 86.6114 113.272 86.3848 113.278V113.279L86.3822 113.266L86.3769 113.238C86.3703 113.192 86.3637 113.149 86.358 113.107C86.3342 112.913 86.3166 112.644 86.3113 112.348C86.3012 111.754 86.3408 111.272 86.4037 111.271C86.4675 111.269 86.53 111.75 86.5406 112.344C86.5458 112.641 86.5375 112.91 86.5199 113.105C86.515 113.146 86.5102 113.19 86.5049 113.236L86.5005 113.264L86.4983 113.278V113.279C86.2717 113.285 86.4354 113.277 86.3848 113.279L86.3852 113.278L86.3857 113.274L86.387 113.268L86.3962 113.223C86.4086 113.168 86.4231 113.138 86.4389 113.138Z" fill="#EB996E"/>
<path d="M95.8382 110.512C96.0032 110.563 97.5647 108.879 97.5647 108.879C97.5647 108.879 100.49 108.824 101.19 108.425C101.89 108.025 102.934 106.594 102.934 106.594L101.521 102.292C101.521 102.292 98.5582 102.513 97.6268 102.774C96.6953 103.036 94.4623 105.37 94.4623 105.37L93.5062 106.863C93.5062 106.863 93.2206 109.705 95.8382 110.512Z" fill="#FFBE9D"/>
<path d="M100.78 108.676C100.78 108.676 101.16 108.659 101.85 108.541C102.554 108.421 103.282 108.36 103.259 107.641C103.246 107.217 102.991 107.028 102.991 107.028C102.991 107.028 103.51 106.809 103.506 106.418C103.503 106.027 103.204 105.839 103.204 105.839C103.204 105.839 103.919 105.506 103.942 104.926C103.97 104.198 103.316 103.884 103.316 103.884C103.316 103.884 105.523 103.256 105.693 103.186C106.318 102.929 107.511 102.364 107.016 101.894C106.835 101.722 106.764 101.533 105.506 101.687C104.364 101.827 102.565 102.249 102.565 102.249C102.565 102.249 101.022 102.321 100.214 102.406C99.4065 102.49 97.6263 102.774 97.2255 102.96C96.1879 103.439 95.282 104.805 95.282 104.805L97.5651 108.879C97.5651 108.879 100.411 108.702 100.78 108.676Z" fill="#FFBE9D"/>
<path d="M102.817 107.03C102.817 107.016 102.58 107.004 102.198 106.997C101.998 106.994 101.772 106.991 101.527 106.988C101.401 106.988 101.266 106.985 101.123 107.008C100.984 107.03 100.831 107.086 100.719 107.201C100.607 107.31 100.54 107.482 100.587 107.635C100.629 107.789 100.747 107.89 100.855 107.96C100.966 108.031 101.081 108.077 101.185 108.119C101.29 108.16 101.388 108.197 101.479 108.229C101.66 108.293 101.809 108.337 101.912 108.365C102.016 108.392 102.075 108.403 102.076 108.397C102.081 108.383 101.857 108.307 101.504 108.164C101.331 108.089 101.109 108.014 100.905 107.884C100.805 107.818 100.709 107.728 100.68 107.611C100.646 107.495 100.694 107.364 100.789 107.271C100.882 107.174 101.01 107.125 101.14 107.103C101.27 107.081 101.401 107.081 101.527 107.079C101.772 107.074 101.998 107.07 102.199 107.067C102.581 107.056 102.817 107.043 102.817 107.03Z" fill="#EB996E"/>
<path d="M100.415 104.026C100.428 104.048 100.723 103.887 101.006 103.591C101.291 103.295 101.44 102.994 101.418 102.982C101.393 102.967 101.212 103.237 100.936 103.523C100.661 103.81 100.399 104.002 100.415 104.026Z" fill="#EB996E"/>
<path d="M98.5767 103.008C99.1589 103.13 99.6833 103.462 100.103 103.884C100.522 104.306 100.843 104.815 101.117 105.343C101.336 105.766 101.524 106.289 101.283 106.7C101.035 107.122 100.416 107.2 99.9782 106.981C99.5399 106.762 99.2513 106.329 99.0255 105.893C98.7998 105.458 98.6115 104.995 98.2872 104.627" fill="#FFBE9D"/>
<path d="M98.2867 104.627C98.2806 104.632 98.3681 104.731 98.4931 104.932C98.6207 105.131 98.7668 105.44 98.9511 105.825C99.0453 106.016 99.1553 106.224 99.3031 106.431C99.451 106.635 99.6393 106.842 99.8923 106.986C100.144 107.133 100.467 107.19 100.778 107.113C100.934 107.076 101.084 106.997 101.205 106.879C101.322 106.759 101.405 106.6 101.43 106.43C101.484 106.087 101.366 105.767 101.24 105.488C101.106 105.208 100.96 104.952 100.808 104.713C100.505 104.235 100.159 103.849 99.821 103.584C99.4835 103.318 99.1641 103.169 98.9375 103.093C98.824 103.055 98.7338 103.033 98.6722 103.021C98.6101 103.009 98.5776 103.005 98.5767 103.008C98.5745 103.018 98.7047 103.042 98.9243 103.129C99.1439 103.214 99.4519 103.37 99.7775 103.638C100.104 103.904 100.437 104.287 100.732 104.76C100.879 104.997 101.024 105.255 101.153 105.527C101.275 105.799 101.383 106.107 101.333 106.414C101.311 106.565 101.237 106.704 101.136 106.81C101.03 106.913 100.897 106.986 100.755 107.019C100.47 107.091 100.17 107.041 99.9367 106.907C99.6978 106.774 99.5152 106.579 99.3687 106.382C99.2222 106.184 99.1104 105.981 99.0127 105.793C98.8213 105.415 98.6634 105.106 98.5248 104.911C98.457 104.812 98.3972 104.741 98.3558 104.693C98.3131 104.647 98.2894 104.625 98.2867 104.627Z" fill="#EB996E"/>
<path d="M102.754 107.03C101.862 107.018 100.939 107.094 100.05 107.171C99.7916 107.193 99.5179 107.217 99.2843 107.104C99.0973 107.014 99.0273 106.538 98.9785 106.336L102.286 105.82" fill="#FFBE9D"/>
<path d="M102.287 105.82C102.286 105.814 102.195 105.822 102.03 105.842C101.849 105.867 101.613 105.898 101.328 105.937C100.734 106.021 99.906 106.144 98.9714 106.288L98.9199 106.296L98.9318 106.347C98.9666 106.498 98.9952 106.664 99.0506 106.829C99.073 106.894 99.0986 106.958 99.1355 107.019C99.154 107.05 99.1751 107.08 99.205 107.106C99.2328 107.134 99.2732 107.153 99.3018 107.165C99.4294 107.218 99.5641 107.235 99.6926 107.237C99.9504 107.236 100.187 107.201 100.416 107.184C100.874 107.143 101.286 107.11 101.632 107.089C101.978 107.066 102.259 107.055 102.453 107.048C102.647 107.04 102.755 107.037 102.755 107.029C102.755 107.023 102.648 107.014 102.453 107.009C102.259 107.005 101.977 107.005 101.629 107.019C101.281 107.032 100.867 107.058 100.409 107.094C100.181 107.109 99.9376 107.142 99.6952 107.14C99.5742 107.138 99.4519 107.121 99.3406 107.074C99.2367 107.041 99.1874 106.916 99.1448 106.798C99.0924 106.642 99.0642 106.48 99.0277 106.324L98.9881 106.383C99.9222 106.236 100.748 106.101 101.34 106C101.623 105.95 101.857 105.909 102.037 105.877C102.198 105.846 102.288 105.826 102.287 105.82Z" fill="#EB996E"/>
<path d="M103.25 105.636C102.102 105.856 100.953 106.076 99.8052 106.296C99.5614 106.342 99.3119 106.389 99.0664 106.353C98.8209 106.317 98.5754 106.182 98.4742 105.956C98.3347 105.644 98.5177 105.264 98.7963 105.065C99.0748 104.867 99.4246 104.804 99.7603 104.738C100.804 104.532 101.831 104.245 102.831 103.88" fill="#FFBE9D"/>
<path d="M102.831 103.88C102.829 103.877 102.795 103.886 102.729 103.906C102.654 103.93 102.56 103.96 102.445 103.997C102.198 104.075 101.842 104.187 101.396 104.309C100.95 104.431 100.415 104.563 99.8162 104.68C99.5192 104.742 99.1896 104.786 98.8847 104.953C98.7334 105.035 98.5943 105.16 98.5015 105.314C98.4082 105.468 98.3519 105.659 98.3897 105.849C98.4262 106.041 98.5626 106.198 98.7206 106.286C98.8786 106.377 99.0598 106.414 99.2314 106.414C99.5777 106.411 99.8875 106.319 100.189 106.268C100.786 106.15 101.326 106.043 101.784 105.952C102.227 105.86 102.591 105.786 102.858 105.73C102.976 105.704 103.072 105.682 103.149 105.665C103.216 105.649 103.25 105.639 103.25 105.636C103.249 105.633 103.213 105.636 103.146 105.646C103.067 105.658 102.97 105.674 102.851 105.693C102.582 105.74 102.217 105.805 101.772 105.884C101.312 105.969 100.771 106.069 100.172 106.179C99.8712 106.228 99.5553 106.318 99.2328 106.318C99.0722 106.317 98.9102 106.282 98.7694 106.201C98.6291 106.121 98.516 105.989 98.4856 105.83C98.4535 105.67 98.501 105.503 98.5846 105.364C98.6691 105.224 98.7901 105.113 98.9314 105.036C99.2138 104.878 99.535 104.831 99.8338 104.768C100.435 104.645 100.97 104.506 101.415 104.375C101.86 104.243 102.214 104.121 102.458 104.032C102.579 103.987 102.673 103.95 102.736 103.924C102.799 103.899 102.832 103.884 102.831 103.88Z" fill="#EB996E"/>
<path d="M96.3468 106.486C96.338 106.493 96.3961 106.586 96.5285 106.702C96.6601 106.818 96.8731 106.948 97.134 107.018C97.3953 107.087 97.6444 107.08 97.816 107.045C97.9885 107.01 98.0848 106.958 98.0809 106.948C98.0756 106.917 97.6585 107.062 97.1591 106.923C96.6566 106.795 96.3662 106.463 96.3468 106.486Z" fill="#EB996E"/>
<path d="M77.7177 130.855C77.7177 130.855 86.0561 132.399 86.658 132.56C87.2599 132.72 89.628 133.844 89.7486 134.567C89.8691 135.289 89.7486 137.416 89.7486 137.416C89.7486 137.416 89.3209 137.765 89.0534 137.069C88.7854 136.373 88.8255 134.996 88.8255 134.996L87.5011 134.486L88.2235 135.771L88.3441 138.781C88.3441 138.781 87.4188 138.696 87.2393 137.976C87.0597 137.256 87.0628 136.453 87.0628 136.453L86.0966 135.635L86.819 136.614L87.0628 138.781C87.0628 138.781 86.3579 139.009 86.1362 138.528C85.9144 138.047 85.8959 136.614 85.8959 136.614L83.1715 135.662L81.3666 136.667L79.4068 135.593C78.8511 135.289 78.4604 134.752 78.342 134.129L77.7177 130.855Z" fill="#FFBE9D"/>
<path d="M61.0254 89.3006L61.2991 103.889C61.344 106.271 63.2228 108.212 65.6014 108.335C68.2207 108.471 70.4102 106.364 70.3732 103.741C70.3538 102.353 70.3301 101.216 70.3301 101.216C70.3301 101.216 73.8774 100.851 74.1026 97.335C74.2329 95.3044 74.1211 90.6752 74.0036 87.1266C73.924 84.7277 72.0197 82.7913 69.623 82.6672L67.4978 82.5572C63.8264 82.5818 60.8996 85.6315 61.0254 89.3006Z" fill="#FFBE9D"/>
<path d="M70.3305 101.216C70.3305 101.216 68.1063 101.231 65.8196 99.6244C65.8196 99.6244 66.8202 102.242 70.3472 102.107L70.3305 101.216Z" fill="#EB996E"/>
<path d="M73.1694 90.4526C73.1038 90.5146 72.7378 90.2136 72.197 90.1868C71.6571 90.1525 71.2462 90.4103 71.1912 90.3408C71.1639 90.31 71.2334 90.1952 71.4125 90.0781C71.5889 89.9615 71.8855 89.855 72.2221 89.8735C72.5587 89.8929 72.8359 90.0315 72.9921 90.1666C73.1518 90.3034 73.202 90.4248 73.1694 90.4526Z" fill="#263238"/>
<path d="M67.962 91.6093C67.9576 91.8751 67.7288 92.0907 67.4512 92.0911C67.174 92.0916 66.9522 91.8773 66.9566 91.6115C66.961 91.3458 67.1898 91.1297 67.467 91.1293C67.7446 91.1288 67.9664 91.3436 67.962 91.6093Z" fill="#263238"/>
<path d="M72.8856 91.6093C72.8812 91.8751 72.6524 92.0907 72.3748 92.0911C72.0976 92.0916 71.8758 91.8773 71.8802 91.6115C71.8846 91.3458 72.1134 91.1297 72.3906 91.1293C72.6682 91.1288 72.89 91.3436 72.8856 91.6093Z" fill="#263238"/>
<path d="M67.9448 90.2554C67.8788 90.3179 67.5123 90.0165 66.972 89.9897C66.4321 89.9554 66.0212 90.2128 65.9657 90.1437C65.9384 90.1129 66.0075 89.998 66.1875 89.881C66.3639 89.7644 66.6605 89.6579 66.9971 89.6764C67.3337 89.6958 67.6104 89.8344 67.7671 89.9699C67.9259 90.1063 67.9765 90.2277 67.9448 90.2554Z" fill="#263238"/>
<path d="M69.6498 94.5604C69.6489 94.5296 69.9882 94.4887 70.536 94.4473C70.675 94.4403 70.807 94.4196 70.8352 94.3263C70.873 94.2282 70.8229 94.0764 70.7643 93.9123C70.6517 93.5717 70.5342 93.2144 70.4106 92.84C69.9209 91.3141 69.5746 90.0618 69.6362 90.0429C69.6978 90.0236 70.1448 91.245 70.6341 92.7714C70.7516 93.1476 70.8638 93.5062 70.9703 93.8494C71.0143 94.0091 71.0948 94.1917 71.0138 94.395C70.9716 94.4962 70.8664 94.5657 70.7762 94.585C70.6865 94.6075 70.6086 94.6048 70.5399 94.6053C69.9904 94.6062 69.6503 94.5912 69.6498 94.5604Z" fill="#263238"/>
<path d="M68.0395 94.8521C68.1279 94.8517 68.0984 95.4386 68.5793 95.8808C69.0589 96.3248 69.6881 96.2914 69.6886 96.3736C69.6947 96.411 69.5434 96.4801 69.2789 96.474C69.0193 96.4696 68.6453 96.3666 68.3514 96.096C68.0584 95.8245 67.944 95.4769 67.9365 95.2354C67.9264 94.9885 67.9994 94.8464 68.0395 94.8521Z" fill="#263238"/>
<path d="M68.0121 88.2935C67.951 88.4378 67.4151 88.3401 66.7766 88.3837C66.1373 88.4145 65.6163 88.5738 65.5389 88.4374C65.5046 88.3722 65.6009 88.2385 65.8152 88.1069C66.0277 87.9754 66.3617 87.8574 66.7445 87.8346C67.1273 87.8126 67.4731 87.8913 67.6993 87.9974C67.9272 88.103 68.0385 88.2248 68.0121 88.2935Z" fill="#263238"/>
<path d="M73.0039 88.4968C72.9023 88.6147 72.5367 88.4677 72.0892 88.4387C71.6426 88.3938 71.258 88.4783 71.1771 88.3454C71.1419 88.2812 71.2079 88.161 71.3799 88.0537C71.5493 87.9463 71.8274 87.8658 72.1345 87.8909C72.4416 87.9164 72.7025 88.0418 72.8521 88.1756C73.0035 88.3098 73.0493 88.4391 73.0039 88.4968Z" fill="#263238"/>
<path d="M62.0748 92.0027C62.0163 91.9736 59.6944 91.1627 59.6469 93.5717C59.5993 95.9812 62.0277 95.5319 62.0334 95.4628C62.0387 95.3938 62.0748 92.0027 62.0748 92.0027Z" fill="#FFBE9D"/>
<path d="M61.3154 94.5358C61.3048 94.5279 61.2727 94.5644 61.2014 94.5956C61.1314 94.626 61.0122 94.6453 60.8877 94.596C60.6351 94.4975 60.4288 94.0892 60.4257 93.6549C60.4239 93.4353 60.4741 93.2276 60.555 93.056C60.632 92.8814 60.7486 92.7604 60.8771 92.7401C61.0052 92.7133 61.0945 92.7916 61.1226 92.8598C61.1534 92.928 61.1372 92.9755 61.1499 92.9799C61.1565 92.9861 61.2023 92.9408 61.1851 92.8409C61.1759 92.7929 61.149 92.7353 61.0936 92.6882C61.0364 92.6402 60.9519 92.6143 60.8626 92.6222C60.6765 92.6315 60.5058 92.7991 60.4169 92.987C60.3174 93.1757 60.2563 93.4094 60.258 93.6558C60.2638 94.1415 60.5036 94.6009 60.8498 94.7083C61.0184 94.7558 61.1609 94.7074 61.2348 94.6519C61.3096 94.5938 61.3237 94.5402 61.3154 94.5358Z" fill="#EB996E"/>
<path d="M60.7407 91.8518C61.1121 91.7822 61.7294 92.1536 61.868 92.5052C62.0066 92.8567 62.0211 93.2479 62.1593 93.5994C62.2974 93.951 62.634 94.2801 63.0059 94.2124C63.2624 94.1653 63.4555 93.9374 63.5356 93.6896C63.6157 93.4415 63.602 93.1744 63.5831 92.9144C63.4995 91.7836 63.3209 90.6576 63.3345 89.5242C63.3477 88.3907 63.5699 87.2234 64.2136 86.2906C64.8574 85.3574 65.9855 84.7053 67.1093 84.8549C67.8538 84.9539 68.519 85.3789 69.2565 85.5215C70.1308 85.6904 71.0776 85.4278 71.7398 84.8329C71.8248 84.7568 72.2133 84.5284 72.2133 84.5284C72.2164 84.4699 72.1873 83.9648 71.9986 83.7716C70.5958 82.3328 67.9607 81.8149 65.989 82.2039C64.0174 82.5928 62.1223 83.8724 61.1904 85.653C60.2576 87.4328 60.3746 89.9822 60.7407 91.8518Z" fill="#263238"/>
<path d="M71.1076 84.1412C69.7748 84.1909 67.2338 84.6828 66.18 85.5004C66.0555 85.5972 65.9204 85.7582 66.0036 85.8924C66.0665 85.9936 66.2095 85.9967 66.3287 85.9936C67.1256 85.9729 69.1799 86.324 69.946 86.5454C70.7116 86.7667 71.5022 86.9761 72.2951 86.8991C73.0884 86.8226 73.8954 86.4006 74.2148 85.6702L74.5532 85.7965C73.8373 84.671 72.4403 84.0915 71.1076 84.1412Z" fill="#263238"/>
<path d="M73.8681 85.7604C73.8681 85.7604 72.8455 84.7062 71.2501 84.5623C68.2048 84.2873 63.2047 85.2003 60.5559 90.4345C60.5559 90.4345 60.016 88.7154 60.0213 87.6427C60.0248 86.9264 60.474 82.6619 64.8705 81.341C64.8705 81.341 71.496 78.8484 73.8681 85.7604Z" fill="#455A64"/>
<g opacity="0.3">
<path d="M73.8681 85.7604C73.8681 85.7604 72.8222 84.5042 70.9355 84.4118C68.2101 84.278 63.0516 85.5017 60.5555 90.4345C60.5555 90.4345 60.0156 88.7154 60.0209 87.6427C60.0244 86.9264 60.4736 82.6619 64.8701 81.341C64.8701 81.341 71.4961 78.8484 73.8681 85.7604Z" fill="#0F3971"/>
</g>
<path d="M60.9699 89.6883C62.2965 87.4821 64.2726 85.9703 66.4035 84.6534C68.5344 83.3364 72.0535 82.0406 74.4779 81.4097C75.2057 81.2205 75.9642 81.0555 76.7048 81.187C77.4453 81.3186 78.1682 81.8154 78.3486 82.5458C78.5743 83.4596 76.9476 84.8602 76.1838 85.4102C75.42 85.9602 73.9838 86.702 73.9838 86.702C73.9838 86.702 73.8932 85.0656 71.1841 84.7101C67.4916 84.2261 60.8573 89.7824 60.9699 89.6883Z" fill="#0B284F"/>
<path d="M65.9921 82.9356C66.0189 82.9897 67.0547 82.3508 68.501 82.078C69.9442 81.7894 71.1441 81.9936 71.1485 81.9333C71.1524 81.9122 70.8594 81.8334 70.3714 81.7903C69.8848 81.7467 69.2019 81.756 68.4658 81.8981C67.7305 82.042 67.0938 82.2892 66.6587 82.5119C66.2231 82.7345 65.9806 82.9176 65.9921 82.9356Z" fill="white"/>
<path d="M75.4631 200.999L75.4926 201.412C75.4926 201.412 82.9739 203.907 83.1407 205.231L68.6541 205.787L68.5661 201.154C70.7784 202.029 73.0396 202.051 75.4631 200.999Z" fill="#455A64"/>
<g opacity="0.6">
<path d="M68.6537 205.788L68.6326 204.673L82.5247 204.548C82.5247 204.548 83.1864 204.793 83.1402 205.232L68.6537 205.788Z" fill="white"/>
</g>
<path d="M75.5454 201.449C75.5471 201.517 75.1956 201.561 74.8607 201.793C74.5197 202.016 74.3582 202.317 74.2918 202.292C74.2258 202.282 74.3063 201.872 74.7164 201.598C75.1243 201.322 75.5568 201.386 75.5454 201.449Z" fill="#072B59"/>
<path d="M77.1021 201.994C77.1223 202.059 76.8231 202.186 76.6005 202.483C76.3686 202.773 76.3272 203.085 76.2568 203.085C76.1908 203.098 76.1174 202.703 76.4016 202.339C76.6823 201.974 77.0968 201.929 77.1021 201.994Z" fill="#072B59"/>
<path d="M78.0728 203.705C78.0094 203.723 77.8902 203.387 78.049 203.008C78.2048 202.628 78.5295 202.469 78.5629 202.524C78.606 202.579 78.4036 202.786 78.2782 203.099C78.1449 203.409 78.1423 203.696 78.0728 203.705Z" fill="#072B59"/>
<path d="M76.6269 168.611L74.1717 160.428L70.9003 150.009L71.0802 144.646L65.6084 140.875C62.033 140.937 51.6098 140.32 51.6098 140.32C51.6098 140.32 51.8764 145.758 52.4146 149.676C52.521 150.452 52.8106 151.191 53.2536 151.838L58.0536 158.839L66.3093 174.224C66.3093 174.224 66.8593 179.722 67.0881 184.474C67.3446 189.799 68.2009 199.447 68.2009 199.447L76.6933 199.648L77.224 178.321C77.4418 175.114 77.6772 171.648 76.6269 168.611Z" fill="#072B59"/>
<path d="M81.8849 168.352C82.8626 169.147 83.7386 179.912 82.1247 179.128L84.0396 180.938L89.1616 180.053L89.8691 168.742L81.8849 168.352Z" fill="#FFBE9D"/>
<path d="M67.4085 136.174C67.4085 136.174 88.6262 141.947 90.8253 146.513C90.8253 146.513 92.1418 148.41 92.0133 151.476C91.8848 154.542 90.1367 176.7 90.1367 176.7L82.1238 176.17L81.3543 168L81.2183 155.633L81.778 154.224C81.778 154.224 80.8311 154.47 79.919 154.202C79.0069 153.934 65.1812 149.749 65.1812 149.749L59.785 141.247L67.4085 136.174Z" fill="#072B59"/>
<path d="M89.2861 179.438L89.2716 179.888C89.2716 179.888 96.7872 183.231 96.8154 184.682L81.671 184.048L82.0881 179.018C84.2956 180.154 86.6474 180.371 89.2861 179.438Z" fill="#455A64"/>
<g opacity="0.6">
<path d="M81.671 184.048L81.7713 182.838L96.2495 183.889C96.2495 183.889 96.9117 184.21 96.8154 184.682L81.671 184.048Z" fill="white"/>
</g>
<path d="M89.3226 179.932C89.3169 180.006 88.946 180.024 88.572 180.247C88.1922 180.46 87.9916 180.772 87.9247 180.74C87.857 180.723 87.9859 180.286 88.443 180.024C88.898 179.758 89.3415 179.865 89.3226 179.932Z" fill="#072B59"/>
<path d="M90.8837 180.656C90.8974 180.728 90.5722 180.84 90.3078 181.143C90.0345 181.437 89.9571 181.773 89.8836 181.767C89.8136 181.775 89.7806 181.34 90.1164 180.971C90.4486 180.598 90.885 180.585 90.8837 180.656Z" fill="#072B59"/>
<path d="M91.7061 182.595C91.6383 182.608 91.5507 182.234 91.7575 181.837C91.9617 181.438 92.3168 181.293 92.3458 181.356C92.385 181.419 92.1514 181.627 91.9864 181.955C91.8143 182.28 91.78 182.59 91.7061 182.595Z" fill="#072B59"/>
<path d="M85.1647 150.116C85.1523 150.098 84.8734 150.256 84.4695 150.578C84.0655 150.899 83.5459 151.398 83.0685 152.028C82.592 152.66 82.2545 153.296 82.0556 153.772C81.8554 154.249 81.7797 154.56 81.8004 154.567C81.8563 154.591 82.2717 153.378 83.2168 152.141C84.1491 150.894 85.2029 150.163 85.1647 150.116Z" fill="#455A64"/>
<path d="M83.4447 148.435C83.4257 148.423 83.2225 148.717 82.9624 149.232C82.7019 149.746 82.3979 150.487 82.1779 151.341C81.9597 152.195 81.869 152.992 81.8501 153.567C81.8303 154.143 81.8668 154.499 81.8893 154.498C81.9183 154.498 81.9284 154.143 81.9812 153.576C82.0336 153.009 82.1431 152.228 82.3579 151.387C82.5748 150.546 82.8542 149.81 83.0817 149.288C83.3083 148.764 83.4702 148.449 83.4447 148.435Z" fill="#455A64"/>
<path d="M69.2327 145.293C69.2925 145.273 70.2508 147.913 71.3728 151.189C72.4953 154.466 73.3564 157.139 73.2965 157.159C73.2367 157.18 72.2784 154.54 71.1559 151.263C70.0344 147.987 69.1728 145.314 69.2327 145.293Z" fill="#455A64"/>
<path d="M72.4675 106.356L75.929 104.968L84.9622 109.87L81.2772 118.311L73.3277 114.364L72.4675 106.356Z" fill="#B5E1F1"/>
<path d="M75.929 104.968L70.44 102.89C70.44 102.89 69.2393 105.43 66.6129 104.651C63.9861 103.872 61.0892 101.529 61.0892 101.529C61.0892 101.529 56.0938 103.509 54.5732 104.414C53.0526 105.319 52.2262 128.719 52.2262 128.719L51.814 137.775C51.814 137.775 51.7392 138.297 51.5698 139.485C51.4004 140.672 51.407 141.948 51.407 141.948C60.713 144.039 69.912 141.827 74.8458 139.088C74.8458 139.088 75.4961 138.576 75.2132 137.414C74.9302 136.251 74.3301 136.042 74.3301 136.042L74.452 125.81L75.3676 115.34L75.929 104.968Z" fill="#B5E1F1"/>
<path d="M80.8474 131.438L68.4886 126.322L60.8348 109.369L54.021 112.23C54.021 112.23 61.3378 130.614 64.174 132.142C67.0107 133.67 78.7147 134.371 78.7147 134.371L80.8474 131.438Z" fill="#FFBE9D"/>
<path d="M54.5727 104.414C54.5727 104.414 51.9987 105.702 52.0023 110.631C52.0053 114.913 53.2642 121.735 53.2642 121.735L65.395 117.515C65.395 117.515 62.3511 110.447 61.6431 108.802C60.7508 106.727 58.7994 102.906 54.5727 104.414Z" fill="#B5E1F1"/>
<path d="M54.6542 121.252C54.652 121.246 54.7211 121.214 54.8553 121.161C55.0101 121.102 55.2064 121.027 55.4493 120.935C55.9949 120.736 56.7477 120.463 57.6801 120.124C59.6121 119.442 62.2842 118.497 65.3585 117.41L65.2894 117.549C64.9106 116.396 64.4921 115.167 64.0315 113.91C63.3103 111.937 62.5601 110.081 61.7892 108.435C61.406 107.611 61.0236 106.836 60.5515 106.19C60.0798 105.546 59.5404 105.011 58.9116 104.75C57.6633 104.206 56.5145 104.131 55.7647 104.218C55.3863 104.266 55.1052 104.363 54.9239 104.449C54.7483 104.543 54.6603 104.605 54.6537 104.596C54.6511 104.593 54.6709 104.575 54.7118 104.542C54.7545 104.512 54.8121 104.456 54.9023 104.408C55.081 104.306 55.3665 104.192 55.7524 104.13C56.5189 104.014 57.6836 104.062 58.9785 104.603C59.6389 104.865 60.2193 105.425 60.7046 106.078C61.1965 106.737 61.5908 107.522 61.9802 108.345C62.7651 109.994 63.5237 111.854 64.2466 113.832C64.7082 115.092 65.1249 116.324 65.5002 117.481L65.5336 117.585L65.4311 117.62C62.3458 118.676 59.6645 119.594 57.7258 120.258C56.7847 120.571 56.0248 120.824 55.4739 121.007C55.2262 121.085 55.0255 121.149 54.8676 121.198C54.7294 121.239 54.6564 121.258 54.6542 121.252Z" fill="#263238"/>
<path d="M73.7788 136.378C73.7884 136.391 73.5737 136.561 73.1755 136.86C72.9784 137.012 72.7324 137.192 72.4315 137.377C72.1323 137.566 71.8009 137.796 71.4058 138.002C71.0177 138.221 70.5901 138.457 70.1113 138.67C69.6432 138.907 69.1187 139.105 68.5718 139.325C67.4648 139.728 66.216 140.089 64.8758 140.332C63.5329 140.56 62.2354 140.645 61.0566 140.642C60.4674 140.622 59.9069 140.614 59.3863 140.551C58.8632 140.513 58.381 140.437 57.9418 140.364C57.5001 140.305 57.1098 140.2 56.7648 140.125C56.4186 140.053 56.126 139.968 55.8892 139.892C55.4136 139.747 55.1536 139.66 55.158 139.644C55.1628 139.629 55.4316 139.688 55.9121 139.806C56.1515 139.869 56.4454 139.941 56.7921 140C57.138 140.063 57.5274 140.155 57.9669 140.204C58.4043 140.267 58.8834 140.333 59.4026 140.363C59.9196 140.417 60.4749 140.418 61.0579 140.432C62.2248 140.423 63.5074 140.333 64.8362 140.107C66.1619 139.867 67.3988 139.516 68.4988 139.127C69.0422 138.915 69.564 138.726 70.0317 138.499C70.5095 138.294 70.9377 138.069 71.3275 137.861C71.7248 137.666 72.0592 137.446 72.3633 137.27C72.6691 137.096 72.9212 136.928 73.1249 136.788C73.5363 136.512 73.7695 136.366 73.7788 136.378Z" fill="#263238"/>
<path d="M73.8333 114.851H70.4396V116.459H73.8333V114.851Z" fill="white"/>
<path d="M75.7561 109.87C75.819 109.875 75.695 112.349 75.4785 115.396C75.262 118.444 75.035 120.91 74.972 120.906C74.9091 120.901 75.0332 118.428 75.2501 115.379C75.4662 112.332 75.6928 109.866 75.7561 109.87Z" fill="#263238"/>
<path d="M46.5749 121.252H14.5244V128.252H46.5749V121.252Z" fill="#97D4EA"/>
<path d="M48.7322 128.328H12.3847V156.362H48.7322V128.328Z" fill="#97D4EA"/>
<path d="M39.6256 156.164C39.586 156.164 39.5534 149.915 39.5534 142.209C39.5534 134.5 39.5855 128.252 39.6256 128.252C39.6652 128.252 39.6977 134.5 39.6977 142.209C39.6977 149.915 39.6656 156.164 39.6256 156.164Z" fill="#263238"/>
<path d="M47.4681 149.981H42.864V154.585H47.4681V149.981Z" fill="#F5F5F5"/>
<path opacity="0.3" d="M27.5788 128.328H23.4503V134.31H27.5788V128.328Z" fill="white"/>
<path opacity="0.3" d="M27.6021 150.38H23.4736V156.362H27.6021V150.38Z" fill="white"/>
<path opacity="0.3" d="M48.7322 128.252H39.6255V156.438H48.7322V128.252Z" fill="black"/>
<path d="M48.6099 128.328C48.6099 128.391 40.5144 128.442 30.5303 128.442C20.5428 128.442 12.449 128.391 12.449 128.328C12.449 128.264 20.5428 128.213 30.5303 128.213C40.5144 128.213 48.6099 128.265 48.6099 128.328Z" fill="#263238"/>
<path opacity="0.3" d="M46.5749 121.252H37.602V128.203H46.5749V121.252Z" fill="black"/>
<path d="M37.5338 128.157C37.4704 128.157 37.4194 126.643 37.4194 124.775C37.4194 122.907 37.4709 121.393 37.5338 121.393C37.5971 121.393 37.6482 122.907 37.6482 124.775C37.6482 126.643 37.5971 128.157 37.5338 128.157Z" fill="#263238"/>
<path d="M28.4464 121.252H23.9369V123.375H28.4464V121.252Z" fill="white"/>
<path d="M30.2482 121.387C30.2443 121.387 30.2456 121.352 30.2513 121.284C30.2601 121.203 30.2702 121.104 30.283 120.984C30.3156 120.721 30.375 120.334 30.477 119.84C30.697 118.863 31.0768 117.417 32.069 115.889C32.3154 115.509 32.6 115.126 32.9318 114.758C33.2649 114.397 33.609 114 34.0952 113.728C34.335 113.598 34.6196 113.493 34.9268 113.534C35.2352 113.57 35.5076 113.796 35.6356 114.075C35.8882 114.646 35.79 115.264 35.6748 115.85C35.4002 117.039 34.687 118.15 33.7436 119.054C32.7989 119.967 31.6448 120.685 30.4691 121.389C30.4137 121.422 30.3587 121.455 30.3076 121.486L30.2421 121.525L30.1805 121.48C29.0831 120.671 28.0276 119.848 27.111 118.935C26.1936 118.027 25.4245 117.017 24.9159 115.935C24.7839 115.669 24.6668 115.392 24.6039 115.097C24.541 114.804 24.5485 114.48 24.68 114.202C24.8019 113.927 25.0532 113.689 25.362 113.64C25.6705 113.589 25.9587 113.712 26.1831 113.861C26.4114 114.013 26.6033 114.2 26.774 114.387C26.9509 114.57 27.1146 114.759 27.2734 114.945C27.584 115.322 27.8714 115.694 28.1186 116.068C29.124 117.553 29.6556 118.918 29.938 119.872C30.0762 120.352 30.1558 120.732 30.1998 120.99C30.217 121.109 30.2306 121.205 30.2421 121.286C30.2496 121.352 30.2518 121.387 30.2482 121.387C30.2443 121.388 30.2342 121.355 30.2188 121.29C30.2012 121.211 30.18 121.116 30.1541 120.999C30.096 120.744 30.0027 120.371 29.8527 119.898C29.5464 118.959 28.9969 117.616 27.9853 116.159C27.7367 115.792 27.449 115.428 27.1388 115.059C26.9804 114.877 26.8176 114.692 26.642 114.513C26.4708 114.329 26.2891 114.156 26.0797 114.019C25.8729 113.884 25.63 113.791 25.3955 113.832C25.1614 113.871 24.9656 114.053 24.8626 114.285C24.6418 114.76 24.849 115.335 25.106 115.844C25.6071 116.896 26.3622 117.882 27.269 118.775C28.1745 119.673 29.2222 120.488 30.3164 121.295L30.1897 121.289C30.2403 121.258 30.2958 121.225 30.3508 121.192C31.5251 120.49 32.6643 119.781 33.5878 118.892C34.5092 118.013 35.2009 116.938 35.4688 115.802C35.5859 115.242 35.6686 114.64 35.4534 114.162C35.3465 113.93 35.1397 113.759 34.8982 113.728C34.6579 113.693 34.4071 113.776 34.1862 113.894C33.7401 114.137 33.3947 114.523 33.0638 114.877C32.7347 115.235 32.4513 115.607 32.2045 115.978C31.211 117.469 30.8092 118.895 30.5642 119.86C30.4493 120.347 30.3758 120.731 30.3288 120.991C30.3072 121.11 30.2892 121.207 30.2746 121.287C30.261 121.354 30.2518 121.388 30.2482 121.387Z" fill="#263238"/>
<path d="M48.8335 140.719C48.8335 140.782 40.6877 140.833 30.6421 140.833C20.5929 140.833 12.449 140.782 12.449 140.719C12.449 140.656 20.5929 140.605 30.6421 140.605C40.6877 140.605 48.8335 140.656 48.8335 140.719Z" fill="#263238"/>
<path d="M30.3213 156.813C30.258 156.813 30.2069 148.796 30.2069 138.908C30.2069 129.016 30.2584 121 30.3213 121C30.3847 121 30.4357 129.016 30.4357 138.908C30.4357 148.796 30.3847 156.813 30.3213 156.813Z" fill="#263238"/>
</svg>
