<svg width="267" height="258" viewBox="0 0 267 258" fill="none" xmlns="http://www.w3.org/2000/svg">
<path d="M133.374 257.191C207.034 257.191 266.748 226.988 266.748 189.731C266.748 152.473 207.034 122.271 133.374 122.271C59.7136 122.271 0 152.473 0 189.731C0 226.988 59.7136 257.191 133.374 257.191Z" fill="#F5F5F5"/>
<path d="M57.405 229.93C78.9823 229.93 96.4741 219.83 96.4741 207.371C96.4741 194.912 78.9823 184.812 57.405 184.812C35.8278 184.812 18.3359 194.912 18.3359 207.371C18.3359 219.83 35.8278 229.93 57.405 229.93Z" fill="#E0E0E0"/>
<path d="M250.68 182.814L186.52 145.885C185.436 145.258 183.683 145.258 182.599 145.885L87.6135 200.723C86.5299 201.349 86.5299 202.362 87.6135 202.988L151.774 239.917C152.857 240.543 154.611 240.543 155.694 239.917L250.68 185.079C251.764 184.453 251.764 183.44 250.68 182.814Z" fill="#E0E0E0"/>
<path d="M191.711 51.6276L229.838 73.6478C232.544 75.2106 234.76 79.044 234.76 82.1695V157.422L238 159.289V81.8755C238 77.4649 234.875 72.0524 231.052 69.8471L191.569 47.0373C187.747 44.832 184.621 46.6344 184.621 51.045V128.464L187.877 130.343V53.8383C187.877 51.4043 189.603 50.4079 191.711 51.6221V51.6276Z" fill="#E0E0E0"/>
<path d="M162.309 219.791C162.309 215.822 165.097 210.997 168.532 209.015C170.335 207.975 171.952 207.932 173.09 208.694L177.288 211.09L168.364 226.249L164.204 223.859V223.848C163.044 223.216 162.314 221.817 162.314 219.791H162.309Z" fill="#455A64"/>
<path d="M172.89 211.525C169.454 213.507 166.672 218.331 166.672 222.301C166.672 226.27 169.454 227.877 172.89 225.894C176.326 223.912 179.109 219.088 179.109 215.119C179.109 211.149 176.326 209.543 172.89 211.525Z" fill="#37474F"/>
<path d="M174.988 217.492C174.988 215.94 174.046 215.227 172.881 215.902C171.715 216.572 170.773 218.374 170.773 219.926C170.773 221.478 171.715 222.191 172.881 221.516C174.046 220.846 174.988 219.044 174.988 217.492Z" fill="#263238"/>
<path d="M165.592 204.908C165.592 204.908 165.592 212.009 168.979 214.519C169.616 214.993 170.297 215.319 170.694 215.652C171.56 216.37 170.988 217.693 169.937 218.254C168.413 219.071 160.109 216.86 156.586 210.108L165.592 204.908Z" fill="#F0F0F0"/>
<path d="M168.823 206.76C168.823 206.76 168.823 213.86 172.21 216.37C172.847 216.844 173.527 217.171 173.925 217.503C174.791 218.222 174.219 219.545 173.168 220.106C171.643 220.923 163.339 218.712 159.816 211.96L168.823 206.76Z" fill="#FAFAFA"/>
<path d="M172.892 218.021C172.56 218.211 172.293 218.674 172.293 219.055C172.293 219.436 172.56 219.589 172.892 219.398C173.224 219.208 173.491 218.745 173.491 218.364C173.491 217.982 173.224 217.83 172.892 218.021Z" fill="#263238"/>
<path d="M229.84 180.797C229.84 176.828 232.628 172.003 236.064 170.021C237.866 168.981 239.483 168.938 240.621 169.7L244.82 172.096L235.895 187.255L231.735 184.865V184.854C230.575 184.222 229.845 182.823 229.845 180.797H229.84Z" fill="#455A64"/>
<path d="M240.422 172.532C236.986 174.514 234.203 179.338 234.203 183.308C234.203 187.277 236.986 188.883 240.422 186.901C243.857 184.919 246.64 180.095 246.64 176.125C246.64 172.156 243.852 170.549 240.422 172.532Z" fill="#37474F"/>
<path d="M242.519 178.501C242.519 176.949 241.577 176.236 240.412 176.911C239.247 177.581 238.305 179.383 238.305 180.935C238.305 182.487 239.247 183.2 240.412 182.525C241.577 181.855 242.519 180.053 242.519 178.501Z" fill="#263238"/>
<path d="M233.123 165.911C233.123 165.911 233.123 173.012 236.51 175.522C237.147 175.996 237.828 176.322 238.226 176.654C239.091 177.373 238.52 178.696 237.469 179.257C235.944 180.074 227.64 177.863 224.117 171.111L233.123 165.911Z" fill="#F0F0F0"/>
<path d="M236.354 167.763C236.354 167.763 236.354 174.863 239.741 177.373C240.378 177.847 241.059 178.174 241.456 178.506C242.322 179.225 241.75 180.548 240.699 181.109C239.175 181.926 230.871 179.715 227.348 172.963L236.354 167.763Z" fill="#FAFAFA"/>
<path d="M240.423 179.028C240.091 179.219 239.824 179.682 239.824 180.063C239.824 180.444 240.091 180.597 240.423 180.406C240.755 180.215 241.022 179.753 241.022 179.371C241.022 178.99 240.755 178.838 240.423 179.028Z" fill="#263238"/>
<path d="M241.25 161.173L181.359 126.585L83.5039 183.079L143.395 217.672L241.25 161.173Z" fill="#455A64"/>
<path d="M241.25 161.172V164.934L143.395 221.434V217.671L241.25 161.172Z" fill="#37474F"/>
<path d="M83.5039 183.078V186.841L143.395 221.434V217.671L83.5039 183.078Z" fill="#263238"/>
<path opacity="0.1" d="M232.552 161.339L181.177 191.009L128.789 160.8L180.3 131.205L232.552 161.339Z" fill="black"/>
<path d="M230.801 126.059L183.755 98.8496L134.035 127.627L181.081 154.837L230.801 126.059Z" fill="#407BFF"/>
<path opacity="0.7" d="M230.801 126.059L183.755 98.8496L134.035 127.627L181.081 154.837L230.801 126.059Z" fill="white"/>
<path d="M181.082 187.718L230.802 158.945V126.057L181.082 154.834V187.718Z" fill="#407BFF"/>
<path opacity="0.6" d="M181.082 187.718L230.802 158.945V126.057L181.082 154.834V187.718Z" fill="white"/>
<path d="M186.573 176.813C186.421 176.813 186.274 176.775 186.143 176.698C185.805 176.502 185.609 176.072 185.609 175.517V172.032V171.765L185.789 171.798L188.523 170.191V174.085C188.523 175.076 187.929 176.192 187.178 176.628C186.971 176.747 186.769 176.807 186.573 176.807V176.813ZM186.05 172.293V175.522C186.05 175.914 186.165 176.208 186.366 176.323C186.562 176.437 186.796 176.35 186.96 176.257C187.57 175.903 188.087 174.912 188.087 174.09V173.807H187.074L186.873 172.44L186.05 172.293ZM187.45 173.366H188.081V170.959L186.453 171.918L187.259 172.059L187.45 173.366Z" fill="#455A64"/>
<path d="M187.065 179.591C186.946 179.591 186.848 179.493 186.848 179.373V176.443C186.848 176.324 186.946 176.226 187.065 176.226C187.185 176.226 187.283 176.324 187.283 176.443V179.373C187.283 179.493 187.185 179.591 187.065 179.591Z" fill="#455A64"/>
<path d="M185.791 180.325C185.714 180.325 185.644 180.287 185.6 180.216C185.54 180.112 185.573 179.976 185.682 179.916L188.225 178.446C188.328 178.381 188.464 178.419 188.524 178.528C188.584 178.631 188.551 178.767 188.442 178.827L185.899 180.297C185.867 180.319 185.829 180.325 185.791 180.325Z" fill="#455A64"/>
<path d="M194.853 175.284C194.765 175.284 194.684 175.263 194.613 175.225C194.444 175.127 194.352 174.936 194.352 174.696V174.097C194.352 173.978 194.45 173.88 194.569 173.88C194.689 173.88 194.787 173.978 194.787 174.097V174.696C194.787 174.789 194.814 174.832 194.831 174.843C194.847 174.854 194.902 174.849 194.972 174.805C195.163 174.691 195.381 174.255 195.381 173.814V169.921C195.381 169.801 195.479 169.703 195.599 169.703C195.718 169.703 195.816 169.801 195.816 169.921V173.814C195.816 174.386 195.55 174.974 195.196 175.181C195.081 175.252 194.961 175.284 194.853 175.284Z" fill="#455A64"/>
<path d="M192.551 171.882V171.5C192.551 169.714 193.809 167.536 195.355 166.643C196.145 166.186 196.901 166.121 197.479 166.453C198.056 166.785 198.377 167.471 198.377 168.386V168.511L192.551 171.876V171.882ZM196.667 166.687C196.335 166.687 195.965 166.801 195.573 167.024C194.261 167.781 193.172 169.546 193.014 171.108L197.936 168.266C197.909 167.58 197.675 167.073 197.261 166.839C197.087 166.736 196.885 166.687 196.667 166.687Z" fill="#455A64"/>
<path d="M202.726 170.799C202.606 170.799 202.508 170.701 202.508 170.581V163.127C202.508 163.007 202.606 162.909 202.726 162.909C202.845 162.909 202.943 163.007 202.943 163.127V170.581C202.943 170.701 202.845 170.799 202.726 170.799Z" fill="#455A64"/>
<path d="M202.091 164.826C202.064 164.826 202.032 164.821 202.004 164.81C201.89 164.761 201.841 164.635 201.89 164.521L202.669 162.719L203.54 163.721C203.622 163.813 203.611 163.949 203.518 164.031C203.426 164.107 203.289 164.102 203.208 164.009L202.794 163.53L202.293 164.69C202.26 164.772 202.179 164.821 202.091 164.821V164.826Z" fill="#455A64"/>
<path d="M204.745 169.645C204.625 169.645 204.527 169.547 204.527 169.427V161.973C204.527 161.853 204.625 161.755 204.745 161.755C204.865 161.755 204.963 161.853 204.963 161.973V169.427C204.963 169.547 204.865 169.645 204.745 169.645Z" fill="#455A64"/>
<path d="M204.111 163.672C204.084 163.672 204.051 163.666 204.024 163.655C203.91 163.606 203.861 163.481 203.91 163.367L204.688 161.564L205.559 162.566C205.641 162.659 205.63 162.795 205.538 162.877C205.445 162.953 205.309 162.948 205.227 162.855L204.813 162.376L204.312 163.536C204.28 163.617 204.198 163.666 204.111 163.666V163.672Z" fill="#455A64"/>
<path d="M181.081 187.722L134.035 160.512V127.629L181.081 154.838V187.722Z" fill="#407BFF"/>
<path opacity="0.5" d="M181.081 187.722L134.035 160.512V127.629L181.081 154.838V187.722Z" fill="white"/>
<path d="M153.789 144.027L157.007 145.884V140.885L153.789 139.028V144.027Z" fill="#37474F"/>
<path d="M157.007 140.885L206.727 112.113L203.509 110.251L153.789 139.029L157.007 140.885Z" fill="#455A64"/>
<path d="M155.25 138.179L158.468 140.041L160.265 139.006L157.041 137.139L155.25 138.179Z" fill="#37474F"/>
<path d="M206.848 116.308L193.676 123.893C193.436 124.029 193.502 124.291 193.817 124.476L208.688 133.063C209.004 133.248 209.456 133.286 209.696 133.145L222.867 125.554C223.107 125.418 223.042 125.156 222.726 124.971L207.855 116.39C207.539 116.205 207.087 116.172 206.848 116.308Z" fill="#FAFAFA"/>
<path d="M213.487 129.219C213.58 129.219 213.672 129.17 213.721 129.083C213.797 128.953 213.754 128.789 213.623 128.713L201.279 121.585C201.148 121.509 200.985 121.553 200.909 121.683C200.832 121.814 200.876 121.977 201.007 122.054L213.351 129.181C213.394 129.209 213.443 129.219 213.487 129.219Z" fill="#E0E0E0"/>
<path d="M212.12 130.004C212.212 130.004 212.305 129.955 212.354 129.868C212.43 129.737 212.387 129.573 212.256 129.497L199.912 122.37C199.781 122.293 199.618 122.337 199.541 122.468C199.465 122.598 199.509 122.762 199.639 122.838L211.984 129.966C212.027 129.993 212.076 130.004 212.12 130.004Z" fill="#E0E0E0"/>
<path d="M210.749 130.787C210.841 130.787 210.934 130.738 210.983 130.651C211.059 130.52 211.015 130.357 210.885 130.28L198.541 123.153C198.41 123.077 198.247 123.12 198.17 123.251C198.094 123.381 198.138 123.545 198.268 123.621L210.613 130.749C210.656 130.776 210.705 130.787 210.749 130.787Z" fill="#E0E0E0"/>
<path d="M209.378 131.577C209.47 131.577 209.563 131.528 209.612 131.441C209.688 131.31 209.644 131.147 209.514 131.071L197.169 123.943C197.039 123.867 196.87 123.91 196.799 124.041C196.723 124.171 196.767 124.34 196.897 124.411L209.241 131.539C209.285 131.566 209.334 131.577 209.378 131.577Z" fill="#E0E0E0"/>
<path d="M221.618 125.21L221.139 124.933L215.52 128.178L215.999 128.456L221.618 125.21Z" fill="#455A64"/>
<path d="M219.669 124.078L218.836 123.604L213.211 126.855L214.044 127.329L219.669 124.078Z" fill="#455A64"/>
<path d="M217.713 122.951L217.229 122.673L211.609 125.924L212.089 126.196L217.713 122.951Z" fill="#455A64"/>
<path d="M216.25 122.096L215.281 121.546L209.656 124.791L210.625 125.341L216.25 122.096Z" fill="#455A64"/>
<path d="M213.807 120.697L213.328 120.419L207.703 123.664L208.182 123.942L213.807 120.697Z" fill="#455A64"/>
<path d="M212.407 119.875L211.367 119.287L205.742 122.538L206.782 123.121L212.407 119.875Z" fill="#455A64"/>
<path d="M209.893 118.437L209.414 118.159L203.789 121.404L204.274 121.682L209.893 118.437Z" fill="#455A64"/>
<path d="M208.79 117.789L208.545 117.653L202.926 120.899L203.165 121.035L208.79 117.789Z" fill="#455A64"/>
<path d="M210.763 118.965L210.523 118.829L204.898 122.074L205.138 122.216L210.763 118.965Z" fill="#455A64"/>
<path d="M214.72 121.232L214.48 121.091L208.855 124.336L209.095 124.478L214.72 121.232Z" fill="#455A64"/>
<path d="M216.872 122.478L216.633 122.336L211.008 125.587L211.247 125.723L216.872 122.478Z" fill="#455A64"/>
<path d="M218.392 123.387L218.147 123.245L212.527 126.496L212.767 126.632L218.392 123.387Z" fill="#455A64"/>
<path d="M220.54 124.573L220.301 124.437L214.676 127.682L214.915 127.818L220.54 124.573Z" fill="#455A64"/>
<path d="M207.94 117.31L207.461 117.032L201.836 120.278L202.321 120.555L207.94 117.31Z" fill="#455A64"/>
<path d="M215.525 155.677V163.926C215.525 164.242 215.748 164.373 216.02 164.215L228.898 156.782C229.176 156.625 229.399 156.238 229.394 155.922V147.667C229.394 147.351 229.171 147.221 228.893 147.379L216.015 154.817C215.737 154.975 215.52 155.361 215.52 155.677H215.525Z" fill="#FAFAFA"/>
<path d="M228.603 148.555L228.184 148.794V156.292L228.603 156.053V148.555Z" fill="#455A64"/>
<path d="M226.91 149.535L226.191 149.954V157.452L226.91 157.033V149.535Z" fill="#455A64"/>
<path d="M225.219 150.509L224.805 150.748V158.246L225.219 158.007V150.509Z" fill="#455A64"/>
<path d="M223.939 151.234L223.105 151.724V159.222L223.939 158.732V151.234Z" fill="#455A64"/>
<path d="M221.828 152.463L221.414 152.702V160.2L221.828 159.961V152.463Z" fill="#455A64"/>
<path d="M220.61 153.151L219.723 153.68V161.178L220.61 160.649V153.151Z" fill="#455A64"/>
<path d="M218.451 154.413L218.031 154.658V162.156L218.451 161.911V154.413Z" fill="#455A64"/>
<path d="M217.48 154.964L217.273 155.084V162.582L217.48 162.462V154.964Z" fill="#455A64"/>
<path d="M219.219 154.005L219.012 154.13V161.628L219.219 161.503V154.005Z" fill="#455A64"/>
<path d="M222.629 152.013L222.422 152.132V159.63L222.629 159.511V152.013Z" fill="#455A64"/>
<path d="M224.496 150.939L224.289 151.059V158.557L224.496 158.437V150.939Z" fill="#455A64"/>
<path d="M225.836 150.2L225.629 150.32V157.818L225.836 157.698V150.2Z" fill="#455A64"/>
<path d="M227.658 149.093L227.445 149.213L227.451 156.711L227.658 156.591V149.093Z" fill="#455A64"/>
<path d="M216.755 155.394L216.336 155.633V163.131L216.755 162.892V155.394Z" fill="#455A64"/>
<path opacity="0.1" d="M227.607 125.362L181.966 151.744L133.684 123.805L179.325 97.4287L227.607 125.362Z" fill="black"/>
<path d="M132.43 88.0872L176.214 62.7617L225.765 91.4305L181.975 116.756L132.43 88.0872Z" fill="#407BFF"/>
<path opacity="0.3" d="M132.43 88.0872L176.214 62.7617L225.765 91.4305L181.975 116.756L132.43 88.0872Z" fill="white"/>
<path d="M153.414 79.1161L166.586 86.7066C166.826 86.8428 166.76 87.1041 166.445 87.2893L151.574 95.8763C151.258 96.0614 150.806 96.0996 150.567 95.958L137.395 88.3674C137.155 88.2313 137.22 87.9699 137.536 87.7848L152.407 79.2032C152.723 79.0181 153.175 78.9854 153.414 79.1215V79.1161Z" fill="#FAFAFA"/>
<path d="M146.768 92.0261C146.675 92.0261 146.583 91.9771 146.534 91.89C146.457 91.7593 146.501 91.596 146.632 91.5197L158.976 84.392C159.107 84.3158 159.27 84.3593 159.346 84.49C159.422 84.6207 159.379 84.7841 159.248 84.8603L146.904 91.988C146.86 92.0152 146.817 92.0261 146.768 92.0261Z" fill="#E0E0E0"/>
<path d="M148.135 92.8103C148.042 92.8103 147.95 92.7613 147.901 92.6742C147.825 92.5435 147.868 92.3801 147.999 92.3039L160.343 85.1762C160.474 85.0999 160.637 85.1435 160.713 85.2742C160.79 85.4049 160.746 85.5682 160.615 85.6445L148.271 92.7722C148.227 92.7994 148.178 92.8103 148.135 92.8103Z" fill="#E0E0E0"/>
<path d="M149.51 93.5935C149.417 93.5935 149.325 93.5445 149.276 93.4574C149.2 93.3267 149.243 93.1633 149.374 93.0871L161.718 85.9594C161.849 85.8832 162.012 85.9267 162.088 86.0574C162.165 86.1881 162.121 86.3514 161.99 86.4277L149.646 93.5554C149.602 93.5826 149.553 93.5935 149.51 93.5935Z" fill="#E0E0E0"/>
<path d="M150.877 94.3787C150.785 94.3787 150.692 94.3297 150.643 94.2425C150.567 94.1119 150.61 93.9485 150.741 93.8723L163.085 86.7445C163.216 86.6683 163.379 86.7119 163.455 86.8426C163.532 86.9732 163.488 87.142 163.357 87.2128L151.013 94.3406C150.97 94.3678 150.921 94.3787 150.877 94.3787Z" fill="#E0E0E0"/>
<path d="M138.637 88.0135L139.121 87.7412L144.741 90.9865L144.262 91.2642L138.637 88.0135Z" fill="#455A64"/>
<path d="M140.59 86.8868L141.423 86.4131L147.048 89.6584L146.215 90.1321L140.59 86.8868Z" fill="#455A64"/>
<path d="M142.543 85.7592L143.022 85.4814L148.647 88.7268L148.168 89.0045L142.543 85.7592Z" fill="#455A64"/>
<path d="M144.008 84.9045L144.977 84.3545L150.602 87.5998L149.633 88.1498L144.008 84.9045Z" fill="#455A64"/>
<path d="M146.457 83.5004L146.936 83.2227L152.561 86.4734L152.082 86.7511L146.457 83.5004Z" fill="#455A64"/>
<path d="M147.852 82.6838L148.892 82.0957L154.516 85.3465L153.476 85.9291L147.852 82.6838Z" fill="#455A64"/>
<path d="M150.363 81.2455L150.842 80.9678L156.467 84.2131L155.983 84.4908L150.363 81.2455Z" fill="#455A64"/>
<path d="M151.477 80.598L151.716 80.4619L157.341 83.7072L157.101 83.8434L151.477 80.598Z" fill="#455A64"/>
<path d="M149.496 81.7738L149.736 81.6377L155.361 84.883L155.121 85.0246L149.496 81.7738Z" fill="#455A64"/>
<path d="M145.539 84.0355L145.779 83.8994L151.404 87.1447L151.164 87.2863L145.539 84.0355Z" fill="#455A64"/>
<path d="M143.387 85.2861L143.626 85.1445L149.251 88.3899L149.012 88.5314L143.387 85.2861Z" fill="#455A64"/>
<path d="M141.867 86.1898L142.107 86.0537L147.732 89.299L147.492 89.4406L141.867 86.1898Z" fill="#455A64"/>
<path d="M139.727 87.3838L139.966 87.2422L145.591 90.4929L145.351 90.6291L139.727 87.3838Z" fill="#455A64"/>
<path d="M152.32 80.1185L152.805 79.8408L158.424 83.0861L157.945 83.3638L152.32 80.1185Z" fill="#455A64"/>
<path d="M181.975 149.644L132.43 120.975V88.0859L181.975 116.755V149.644Z" fill="#407BFF"/>
<path d="M181.977 149.644L225.767 124.319V91.4297L181.977 116.755V149.644Z" fill="#407BFF"/>
<path opacity="0.1" d="M181.977 149.644L225.767 124.319V91.4297L181.977 116.755V149.644Z" fill="black"/>
<path d="M206.013 107.832L202.789 109.688V104.69L206.013 102.833V107.832Z" fill="#37474F"/>
<path d="M202.792 104.694L153.246 76.0199L156.464 74.1631L206.015 102.832L202.792 104.694Z" fill="#455A64"/>
<path d="M163.809 133.912C163.167 133.541 162.66 132.583 162.66 131.739V128.412L164.996 129.784L165.149 129.757V129.975V132.959C165.149 133.433 164.98 133.803 164.691 133.972C164.577 134.037 164.457 134.07 164.326 134.07C164.163 134.07 163.989 134.021 163.809 133.917V133.912ZM164.07 130.329L163.902 131.494H163.036V131.739C163.036 132.442 163.477 133.286 164 133.59C164.136 133.667 164.337 133.743 164.506 133.645C164.675 133.547 164.773 133.296 164.773 132.959V130.204L164.07 130.329ZM163.738 130.008L164.43 129.882L163.036 129.066V131.124H163.575L163.738 130.008Z" fill="#455A64"/>
<path d="M163.9 136.437C164.003 136.437 164.085 136.355 164.085 136.252V133.753C164.085 133.649 164.003 133.567 163.9 133.567C163.797 133.567 163.715 133.649 163.715 133.753V136.252C163.715 136.355 163.797 136.437 163.9 136.437Z" fill="#455A64"/>
<path d="M164.989 137.064C165.054 137.064 165.114 137.032 165.152 136.972C165.201 136.885 165.174 136.77 165.081 136.716L162.909 135.458C162.822 135.404 162.707 135.436 162.653 135.529C162.604 135.616 162.631 135.73 162.724 135.785L164.896 137.043C164.924 137.059 164.956 137.07 164.989 137.07V137.064Z" fill="#455A64"/>
<path d="M171.512 140.929C171.583 140.929 171.654 140.913 171.719 140.875C171.861 140.793 171.942 140.63 171.942 140.423V139.911C171.942 139.807 171.861 139.726 171.757 139.726C171.654 139.726 171.572 139.807 171.572 139.911V140.423C171.572 140.499 171.55 140.537 171.534 140.548C171.518 140.553 171.474 140.548 171.414 140.515C171.251 140.417 171.066 140.047 171.066 139.671V136.344C171.066 136.241 170.984 136.159 170.88 136.159C170.777 136.159 170.695 136.241 170.695 136.344V139.671C170.695 140.161 170.924 140.662 171.229 140.842C171.327 140.902 171.43 140.929 171.523 140.929H171.512Z" fill="#455A64"/>
<path d="M168.504 135.147V135.038C168.504 134.259 168.776 133.671 169.272 133.388C169.767 133.105 170.41 133.159 171.085 133.551C172.408 134.314 173.481 136.176 173.481 137.701V138.027L168.504 135.152V135.147ZM169.457 133.709C169.103 133.911 168.901 134.346 168.88 134.929L173.089 137.358C172.953 136.024 172.021 134.515 170.9 133.867C170.568 133.677 170.246 133.579 169.963 133.579C169.778 133.579 169.604 133.622 169.457 133.709Z" fill="#455A64"/>
<path d="M179.029 145.13C179.132 145.13 179.214 145.048 179.214 144.945V138.574C179.214 138.47 179.132 138.389 179.029 138.389C178.925 138.389 178.844 138.47 178.844 138.574V144.945C178.844 145.048 178.925 145.13 179.029 145.13Z" fill="#455A64"/>
<path d="M179.579 140.027C179.579 140.027 179.628 140.027 179.655 140.011C179.753 139.967 179.791 139.858 179.753 139.766L179.089 138.225L178.348 139.085C178.277 139.161 178.288 139.281 178.365 139.346C178.446 139.412 178.561 139.406 178.631 139.33L178.985 138.922L179.415 139.913C179.448 139.983 179.513 140.027 179.59 140.027H179.579Z" fill="#455A64"/>
<path d="M177.298 144.142C177.402 144.142 177.484 144.061 177.484 143.957V137.587C177.484 137.483 177.402 137.401 177.298 137.401C177.195 137.401 177.113 137.483 177.113 137.587V143.957C177.113 144.061 177.195 144.142 177.298 144.142Z" fill="#455A64"/>
<path d="M177.848 139.035C177.848 139.035 177.897 139.035 177.925 139.018C178.023 138.98 178.061 138.866 178.023 138.773L177.358 137.232L176.618 138.093C176.547 138.169 176.558 138.289 176.634 138.354C176.716 138.419 176.83 138.414 176.901 138.338L177.255 137.929L177.685 138.92C177.718 138.991 177.783 139.035 177.859 139.035H177.848Z" fill="#455A64"/>
<path d="M147.56 117.996V126.246C147.56 126.562 147.337 126.692 147.065 126.534L134.187 119.102C133.909 118.944 133.691 118.557 133.691 118.241V109.987C133.691 109.671 133.915 109.54 134.192 109.698L147.07 117.136C147.348 117.294 147.566 117.681 147.566 118.002L147.56 117.996Z" fill="#FAFAFA"/>
<path d="M134.484 110.874L134.904 111.119V118.617L134.484 118.372V110.874Z" fill="#455A64"/>
<path d="M136.18 111.854L136.898 112.274V119.772L136.18 119.352V111.854Z" fill="#455A64"/>
<path d="M137.871 112.83L138.285 113.07V120.568L137.871 120.328V112.83Z" fill="#455A64"/>
<path d="M139.145 113.554L139.978 114.049V121.547L139.145 121.052V113.554Z" fill="#455A64"/>
<path d="M141.254 114.782L141.668 115.022V122.52L141.254 122.28V114.782Z" fill="#455A64"/>
<path d="M142.473 115.471L143.366 115.999V123.497L142.473 122.969V115.471Z" fill="#455A64"/>
<path d="M144.641 116.738L145.06 116.978V124.476L144.641 124.236V116.738Z" fill="#455A64"/>
<path d="M145.609 117.288L145.816 117.408V124.906L145.609 124.786V117.288Z" fill="#455A64"/>
<path d="M143.875 116.329L144.082 116.449V123.947L143.875 123.827V116.329Z" fill="#455A64"/>
<path d="M140.457 114.332L140.669 114.452V121.95L140.457 121.83V114.332Z" fill="#455A64"/>
<path d="M138.594 113.259L138.801 113.379V120.877L138.594 120.757V113.259Z" fill="#455A64"/>
<path d="M137.25 112.52L137.457 112.639V120.137L137.25 120.018V112.52Z" fill="#455A64"/>
<path d="M135.434 111.412L135.641 111.532V119.03L135.434 118.91V111.412Z" fill="#455A64"/>
<path d="M146.332 117.713L146.751 117.952L146.746 125.45L146.332 125.211V117.713Z" fill="#455A64"/>
<path opacity="0.1" d="M131.645 87.6332L179.099 115.093L216.284 93.6229L168.742 66.1738L131.645 87.6332Z" fill="black"/>
<path d="M129.453 72.6462L169.263 49.6621L215.715 76.4796L175.9 99.4636L129.453 72.6462Z" fill="#407BFF"/>
<path opacity="0.1" d="M129.453 72.6462L169.263 49.6621L215.715 76.4796L175.9 99.4636L129.453 72.6462Z" fill="black"/>
<path d="M150.438 63.6782L163.61 71.2633C163.849 71.3994 163.784 71.6608 163.468 71.8459L148.597 80.4329C148.282 80.6181 147.83 80.6562 147.59 80.5146L134.418 72.9241C134.179 72.7879 134.244 72.5266 134.56 72.3414L149.43 63.7598C149.746 63.5747 150.198 63.542 150.438 63.6782Z" fill="#FAFAFA"/>
<path d="M143.791 76.5886C143.699 76.5886 143.606 76.5396 143.557 76.4525C143.481 76.3218 143.524 76.1585 143.655 76.0822L155.999 68.9545C156.13 68.8783 156.293 68.9218 156.37 69.0525C156.446 69.1832 156.402 69.352 156.272 69.4228L143.927 76.5505C143.884 76.5777 143.835 76.5886 143.791 76.5886Z" fill="#E0E0E0"/>
<path d="M145.158 77.3728C145.066 77.3728 144.973 77.3238 144.924 77.2367C144.848 77.106 144.892 76.9426 145.022 76.8664L157.366 69.7387C157.497 69.6624 157.666 69.706 157.737 69.8367C157.813 69.9674 157.769 70.1362 157.639 70.207L145.294 77.3347C145.251 77.3619 145.207 77.3728 145.158 77.3728Z" fill="#E0E0E0"/>
<path d="M146.533 78.156C146.441 78.156 146.348 78.107 146.299 78.0199C146.223 77.8892 146.267 77.7258 146.397 77.6496L158.741 70.5219C158.872 70.4457 159.041 70.4892 159.112 70.6199C159.188 70.7506 159.144 70.9139 159.014 70.9902L146.669 78.1179C146.626 78.1451 146.577 78.156 146.533 78.156Z" fill="#E0E0E0"/>
<path d="M147.901 78.9461C147.808 78.9461 147.715 78.897 147.666 78.8099C147.59 78.6792 147.634 78.5159 147.764 78.4396L160.109 71.3119C160.239 71.2357 160.403 71.2793 160.479 71.4099C160.555 71.5406 160.512 71.704 160.381 71.7802L148.037 78.9079C147.993 78.9352 147.944 78.9461 147.901 78.9461Z" fill="#E0E0E0"/>
<path d="M135.664 72.5814L136.149 72.3037L141.768 75.549L141.289 75.8267L135.664 72.5814Z" fill="#455A64"/>
<path d="M137.617 71.4493L138.45 70.9756L144.075 74.2264L143.242 74.7001L137.617 71.4493Z" fill="#455A64"/>
<path d="M139.57 70.3217L140.049 70.0439L145.674 73.2947L145.195 73.567L139.57 70.3217Z" fill="#455A64"/>
<path d="M141.035 69.467L142.004 68.917L147.629 72.1623L146.66 72.7123L141.035 69.467Z" fill="#455A64"/>
<path d="M143.484 68.0677L143.964 67.79L149.588 71.0354L149.109 71.3131L143.484 68.0677Z" fill="#455A64"/>
<path d="M144.879 67.2463L145.919 66.6582L151.544 69.909L150.504 70.4916L144.879 67.2463Z" fill="#455A64"/>
<path d="M147.391 65.808L147.87 65.5303L153.495 68.7756L153.01 69.0533L147.391 65.808Z" fill="#455A64"/>
<path d="M148.504 65.1605L148.743 65.0244L154.368 68.2697L154.129 68.4059L148.504 65.1605Z" fill="#455A64"/>
<path d="M146.523 66.3363L146.763 66.2002L152.388 69.4455L152.148 69.5871L146.523 66.3363Z" fill="#455A64"/>
<path d="M142.566 68.6035L142.806 68.4619L148.431 71.7072L148.191 71.8488L142.566 68.6035Z" fill="#455A64"/>
<path d="M140.414 69.8486L140.654 69.707L146.279 72.9578L146.039 73.0939L140.414 69.8486Z" fill="#455A64"/>
<path d="M138.895 70.7578L139.134 70.6162L144.759 73.867L144.519 74.0031L138.895 70.7578Z" fill="#455A64"/>
<path d="M136.754 71.9437L136.993 71.8076L142.618 75.0529L142.379 75.1891L136.754 71.9437Z" fill="#455A64"/>
<path d="M149.348 64.681L149.827 64.4033L155.446 67.6486L154.967 67.9263L149.348 64.681Z" fill="#455A64"/>
<path d="M175.9 114.79L129.453 87.9727V72.6445L175.9 99.462V114.79Z" fill="#407BFF"/>
<g opacity="0.2">
<path d="M175.9 114.79L129.453 87.9727V72.6445L175.9 99.462V114.79Z" fill="black"/>
</g>
<path d="M175.902 114.79L215.717 91.8002V76.4775L175.902 99.4616V114.79Z" fill="#407BFF"/>
<path opacity="0.3" d="M175.902 114.79L215.717 91.8002V76.4775L175.902 99.4616V114.79Z" fill="black"/>
<path d="M199.937 90.5387L196.719 92.3955V87.3968L199.937 85.54V90.5387Z" fill="#37474F"/>
<path d="M196.717 87.4014L150.27 60.5839L153.488 58.7217L199.935 85.5391L196.717 87.4014Z" fill="#455A64"/>
<path d="M157.747 99.0533C157.104 98.6831 156.598 97.7247 156.598 96.8807V93.5537L158.934 94.9259L159.086 94.8987V95.1165V98.1004C159.086 98.5742 158.917 98.9444 158.629 99.1132C158.514 99.1786 158.395 99.2112 158.264 99.2112C158.101 99.2112 157.926 99.1568 157.747 99.0588V99.0533ZM158.008 95.4704L157.839 96.6357H156.973V96.8807C156.973 97.5831 157.414 98.4271 157.937 98.7321C158.073 98.8083 158.275 98.8845 158.444 98.7865C158.612 98.6885 158.71 98.438 158.71 98.1004V95.3452L158.008 95.4704ZM157.676 95.1491L158.367 95.0239L156.973 94.2071V96.2654H157.512L157.676 95.1491Z" fill="#455A64"/>
<path d="M157.837 101.579C157.941 101.579 158.023 101.497 158.023 101.393V98.8941C158.023 98.7907 157.941 98.709 157.837 98.709C157.734 98.709 157.652 98.7907 157.652 98.8941V101.393C157.652 101.497 157.734 101.579 157.837 101.579Z" fill="#455A64"/>
<path d="M158.926 102.211C158.992 102.211 159.052 102.178 159.09 102.118C159.139 102.031 159.112 101.917 159.019 101.862L156.846 100.605C156.759 100.55 156.645 100.583 156.59 100.675C156.541 100.762 156.569 100.877 156.661 100.931L158.834 102.189C158.861 102.205 158.894 102.216 158.926 102.216V102.211Z" fill="#455A64"/>
<path d="M165.442 106.077C165.513 106.077 165.583 106.06 165.649 106.022C165.79 105.94 165.872 105.777 165.872 105.57V105.058C165.872 104.955 165.79 104.873 165.687 104.873C165.583 104.873 165.502 104.955 165.502 105.058V105.57C165.502 105.646 165.48 105.69 165.464 105.695C165.447 105.701 165.404 105.695 165.344 105.663C165.18 105.565 164.995 105.194 164.995 104.819V101.492C164.995 101.388 164.914 101.307 164.81 101.307C164.707 101.307 164.625 101.388 164.625 101.492V104.819C164.625 105.309 164.854 105.81 165.159 105.989C165.257 106.049 165.36 106.077 165.453 106.077H165.442Z" fill="#455A64"/>
<path d="M162.434 100.294V100.185C162.434 99.4068 162.706 98.8187 163.201 98.5355C163.697 98.2524 164.339 98.3068 165.015 98.6989C166.338 99.4612 167.41 101.323 167.41 102.848V103.175L162.434 100.3V100.294ZM163.386 98.8568C163.033 99.0583 162.831 99.4939 162.809 100.077L167.018 102.505C166.882 101.171 165.951 99.6627 164.829 99.0147C164.497 98.8241 164.176 98.7261 163.893 98.7261C163.708 98.7261 163.534 98.7697 163.386 98.8568Z" fill="#455A64"/>
<path d="M172.962 110.273C173.066 110.273 173.148 110.192 173.148 110.088V103.717C173.148 103.614 173.066 103.532 172.962 103.532C172.859 103.532 172.777 103.614 172.777 103.717V110.088C172.777 110.192 172.859 110.273 172.962 110.273Z" fill="#455A64"/>
<path d="M173.509 105.166C173.509 105.166 173.558 105.166 173.585 105.149C173.683 105.106 173.721 104.997 173.683 104.904L173.018 103.363L172.278 104.224C172.207 104.3 172.218 104.42 172.294 104.485C172.376 104.55 172.49 104.545 172.561 104.469L172.915 104.06L173.345 105.051C173.378 105.122 173.443 105.166 173.514 105.166H173.509Z" fill="#455A64"/>
<path d="M171.228 109.287C171.332 109.287 171.413 109.205 171.413 109.102V102.731C171.413 102.628 171.332 102.546 171.228 102.546C171.125 102.546 171.043 102.628 171.043 102.731V109.102C171.043 109.205 171.125 109.287 171.228 109.287Z" fill="#455A64"/>
<path d="M171.778 104.179C171.778 104.179 171.827 104.179 171.854 104.163C171.952 104.119 171.99 104.011 171.952 103.918L171.288 102.377L170.547 103.237C170.477 103.314 170.488 103.433 170.564 103.499C170.645 103.564 170.76 103.559 170.831 103.482L171.185 103.074L171.615 104.065C171.647 104.136 171.713 104.179 171.789 104.179H171.778Z" fill="#455A64"/>
<path d="M144.584 84.9925V93.2419C144.584 93.5577 144.36 93.6884 144.088 93.5305L131.21 86.0979C130.933 85.9399 130.715 85.5533 130.715 85.2375V76.9826C130.715 76.6668 130.938 76.5361 131.216 76.694L144.094 84.1321C144.371 84.2901 144.589 84.6767 144.589 84.9925H144.584Z" fill="#FAFAFA"/>
<path d="M131.5 77.8711L131.919 78.1107V85.6087L131.5 85.3691V77.8711Z" fill="#455A64"/>
<path d="M133.195 78.8467L133.914 79.2714V86.7694L133.195 86.3447V78.8467Z" fill="#455A64"/>
<path d="M134.887 79.8252L135.301 80.0648V87.5628L134.887 87.3232V79.8252Z" fill="#455A64"/>
<path d="M136.16 80.5508L136.993 81.0409V88.5388L136.16 88.0488V80.5508Z" fill="#455A64"/>
<path d="M138.27 81.7793L138.683 82.0189V89.5169L138.27 89.2773V81.7793Z" fill="#455A64"/>
<path d="M139.496 82.4678L140.384 82.996V90.4939L139.496 89.9658V82.4678Z" fill="#455A64"/>
<path d="M141.656 83.7295L142.076 83.9691V91.4671L141.656 91.2275V83.7295Z" fill="#455A64"/>
<path d="M142.625 84.2803L142.832 84.4001V91.8981L142.625 91.7783V84.2803Z" fill="#455A64"/>
<path d="M140.891 83.3213L141.098 83.4411V90.9391L140.891 90.8193V83.3213Z" fill="#455A64"/>
<path d="M137.48 81.3291L137.687 81.4489V88.9469L137.48 88.8271V81.3291Z" fill="#455A64"/>
<path d="M135.609 80.2559L135.816 80.3757V87.8736L135.609 87.7538V80.2559Z" fill="#455A64"/>
<path d="M134.266 79.5166L134.478 79.6364V87.1344L134.266 87.0146V79.5166Z" fill="#455A64"/>
<path d="M132.449 78.4092L132.662 78.529V86.027L132.449 85.9072V78.4092Z" fill="#455A64"/>
<path d="M143.348 84.71L143.767 84.9495V92.4475L143.348 92.208V84.71Z" fill="#455A64"/>
<path opacity="0.1" d="M151.63 177.245L115.251 198.225L88.0195 182.483L124.48 161.552L151.63 177.245Z" fill="black"/>
<path d="M91.3438 115.433L124.521 96.2822L148.85 110.325L115.673 129.481L91.3438 115.433Z" fill="#407BFF"/>
<path opacity="0.1" d="M91.3438 115.433L124.521 96.2822L148.85 110.325L115.673 129.481L91.3438 115.433Z" fill="black"/>
<path d="M124.197 99.0308L114.015 104.895C113.829 105.004 113.878 105.2 114.124 105.347L125.618 111.985C125.863 112.126 126.212 112.154 126.397 112.05L136.585 106.18C136.77 106.071 136.721 105.875 136.476 105.728L124.976 99.0907C124.731 98.9491 124.382 98.9219 124.197 99.0254V99.0308Z" fill="#FAFAFA"/>
<path d="M129.345 109.011C129.416 109.011 129.487 108.973 129.525 108.908C129.585 108.804 129.547 108.679 129.449 108.619L119.903 103.109C119.805 103.049 119.674 103.087 119.615 103.185C119.555 103.288 119.593 103.414 119.691 103.474L129.236 108.984C129.269 109.006 129.307 109.011 129.34 109.011H129.345Z" fill="#E0E0E0"/>
<path d="M128.287 109.621C128.357 109.621 128.428 109.583 128.466 109.517C128.526 109.414 128.488 109.289 128.39 109.229L118.845 103.718C118.747 103.658 118.616 103.696 118.556 103.794C118.496 103.898 118.534 104.023 118.632 104.083L128.178 109.593C128.21 109.615 128.248 109.621 128.281 109.621H128.287Z" fill="#E0E0E0"/>
<path d="M127.22 110.226C127.291 110.226 127.362 110.188 127.4 110.123C127.46 110.025 127.422 109.894 127.324 109.834L117.778 104.324C117.68 104.264 117.549 104.302 117.49 104.4C117.43 104.498 117.468 104.629 117.566 104.688L127.111 110.199C127.144 110.221 127.182 110.226 127.215 110.226H127.22Z" fill="#E0E0E0"/>
<path d="M126.162 110.836C126.232 110.836 126.303 110.797 126.341 110.732C126.401 110.634 126.363 110.503 126.265 110.443L116.72 104.933C116.622 104.873 116.491 104.911 116.431 105.009C116.371 105.107 116.409 105.238 116.507 105.298L126.053 110.808C126.085 110.83 126.123 110.836 126.156 110.836H126.162Z" fill="#E0E0E0"/>
<path d="M135.623 105.915L135.253 105.703L130.902 108.213L131.273 108.426L135.623 105.915Z" fill="#455A64"/>
<path d="M134.114 105.044L133.466 104.674L129.121 107.189L129.764 107.554L134.114 105.044Z" fill="#455A64"/>
<path d="M132.604 104.173L132.233 103.955L127.883 106.465L128.259 106.683L132.604 104.173Z" fill="#455A64"/>
<path d="M131.468 103.508L130.716 103.083L126.371 105.593L127.123 106.018L131.468 103.508Z" fill="#455A64"/>
<path d="M129.583 102.424L129.212 102.212L124.867 104.722L125.237 104.934L129.583 102.424Z" fill="#455A64"/>
<path d="M128.503 101.793L127.702 101.341L123.352 103.851L124.157 104.303L128.503 101.793Z" fill="#455A64"/>
<path d="M126.559 100.682L126.189 100.464L121.844 102.974L122.214 103.192L126.559 100.682Z" fill="#455A64"/>
<path d="M125.704 100.181L125.519 100.072L121.168 102.582L121.353 102.691L125.704 100.181Z" fill="#455A64"/>
<path d="M127.227 101.09L127.042 100.981L122.691 103.492L122.877 103.601L127.227 101.09Z" fill="#455A64"/>
<path d="M130.29 102.837L130.105 102.729L125.754 105.239L125.939 105.348L130.29 102.837Z" fill="#455A64"/>
<path d="M131.944 103.802L131.759 103.693L127.414 106.204L127.599 106.312L131.944 103.802Z" fill="#455A64"/>
<path d="M133.13 104.504L132.939 104.396L128.594 106.906L128.779 107.015L133.13 104.504Z" fill="#455A64"/>
<path d="M134.776 105.425L134.591 105.316L130.246 107.827L130.431 107.936L134.776 105.425Z" fill="#455A64"/>
<path d="M125.049 99.8051L124.679 99.5928L120.328 102.103L120.698 102.315L125.049 99.8051Z" fill="#455A64"/>
<path d="M115.673 195.896L91.3438 181.847V115.433L115.673 129.481V195.896Z" fill="#407BFF"/>
<g opacity="0.2">
<path d="M115.673 195.897L91.3438 181.848V115.434L115.673 129.482V195.897Z" fill="black"/>
</g>
<path d="M115.668 195.896L148.845 176.74V110.325L115.668 129.481V195.896Z" fill="#407BFF"/>
<path opacity="0.3" d="M115.668 195.896L148.845 176.74V110.325L115.668 129.481V195.896Z" fill="black"/>
<path d="M133.37 124.263L130.152 126.12V121.121L133.37 119.265V124.263Z" fill="#37474F"/>
<path d="M130.151 121.122L105.816 107.079L109.04 105.217L133.369 119.265L130.151 121.122Z" fill="#455A64"/>
<path d="M97.5161 180.166C96.8736 179.795 96.3672 178.837 96.3672 177.993V174.666L98.7032 176.038L98.8556 176.011V176.229V179.213C98.8556 179.686 98.6868 180.057 98.3982 180.226C98.2839 180.291 98.1641 180.324 98.0334 180.324C97.8701 180.324 97.6958 180.275 97.5161 180.171V180.166ZM97.7775 176.583L97.6087 177.748H96.7429V177.993C96.7429 178.695 97.184 179.539 97.7067 179.844C97.8428 179.921 98.0443 179.997 98.2131 179.899C98.3819 179.801 98.4799 179.55 98.4799 179.213V176.457L97.7775 176.583ZM97.4453 176.261L98.1369 176.136L96.7429 175.319V177.378H97.282L97.4453 176.261Z" fill="#455A64"/>
<path d="M97.607 182.691C97.7105 182.691 97.7921 182.609 97.7921 182.506V180.006C97.7921 179.903 97.7105 179.821 97.607 179.821C97.5036 179.821 97.4219 179.903 97.4219 180.006V182.506C97.4219 182.609 97.5036 182.691 97.607 182.691Z" fill="#455A64"/>
<path d="M98.6959 183.318C98.7613 183.318 98.8212 183.286 98.8593 183.226C98.9083 183.139 98.881 183.024 98.7885 182.97L96.6159 181.712C96.5287 181.658 96.4144 181.69 96.3599 181.783C96.3109 181.87 96.3382 181.984 96.4307 182.039L98.6033 183.297C98.6306 183.313 98.6632 183.324 98.6959 183.324V183.318Z" fill="#455A64"/>
<path d="M105.219 187.184C105.29 187.184 105.361 187.168 105.426 187.13C105.568 187.048 105.649 186.885 105.649 186.678V186.166C105.649 186.062 105.568 185.981 105.464 185.981C105.361 185.981 105.279 186.062 105.279 186.166V186.678C105.279 186.754 105.257 186.792 105.241 186.803C105.225 186.808 105.181 186.803 105.121 186.77C104.958 186.672 104.773 186.302 104.773 185.926V182.599C104.773 182.496 104.691 182.414 104.587 182.414C104.484 182.414 104.402 182.496 104.402 182.599V185.926C104.402 186.416 104.631 186.917 104.936 187.097C105.034 187.157 105.137 187.184 105.23 187.184H105.219Z" fill="#455A64"/>
<path d="M102.211 181.402V181.293C102.211 180.514 102.483 179.926 102.979 179.643C103.474 179.36 104.117 179.414 104.792 179.806C106.115 180.569 107.188 182.431 107.188 183.956V184.282L102.211 181.407V181.402ZM103.164 179.964C102.81 180.166 102.608 180.601 102.587 181.184L106.796 183.612C106.66 182.278 105.729 180.77 104.607 180.122C104.275 179.932 103.953 179.834 103.67 179.834C103.485 179.834 103.311 179.877 103.164 179.964Z" fill="#455A64"/>
<path d="M112.74 191.384C112.843 191.384 112.925 191.302 112.925 191.199V184.828C112.925 184.724 112.843 184.643 112.74 184.643C112.636 184.643 112.555 184.724 112.555 184.828V191.199C112.555 191.302 112.636 191.384 112.74 191.384Z" fill="#455A64"/>
<path d="M113.29 186.281C113.29 186.281 113.339 186.281 113.366 186.265C113.464 186.221 113.502 186.112 113.464 186.019L112.8 184.479L112.059 185.339C111.988 185.415 111.999 185.535 112.075 185.6C112.157 185.666 112.272 185.66 112.342 185.584L112.696 185.175L113.126 186.167C113.159 186.237 113.224 186.281 113.301 186.281H113.29Z" fill="#455A64"/>
<path d="M111.009 190.396C111.113 190.396 111.194 190.315 111.194 190.211V183.84C111.194 183.737 111.113 183.655 111.009 183.655C110.906 183.655 110.824 183.737 110.824 183.84V190.211C110.824 190.315 110.906 190.396 111.009 190.396Z" fill="#455A64"/>
<path d="M111.559 185.289C111.559 185.289 111.608 185.289 111.636 185.272C111.734 185.229 111.772 185.12 111.734 185.027L111.069 183.486L110.329 184.347C110.258 184.423 110.269 184.543 110.345 184.608C110.427 184.673 110.541 184.668 110.612 184.592L110.966 184.183L111.396 185.174C111.429 185.245 111.494 185.289 111.57 185.289H111.559Z" fill="#455A64"/>
<path d="M113.463 171.048V179.298C113.463 179.613 113.239 179.744 112.967 179.586L100.089 172.154C99.8116 171.996 99.5938 171.609 99.5938 171.293V163.038C99.5938 162.722 99.817 162.592 100.095 162.75L112.973 170.188C113.25 170.346 113.468 170.732 113.468 171.054L113.463 171.048Z" fill="#FAFAFA"/>
<path d="M100.387 163.925L100.801 164.164V171.662L100.387 171.423V163.925Z" fill="#455A64"/>
<path d="M102.082 164.9L102.795 165.325V172.823L102.082 172.398V164.9Z" fill="#455A64"/>
<path d="M103.77 165.879L104.189 166.118V173.616L103.77 173.377V165.879Z" fill="#455A64"/>
<path d="M105.047 166.598L105.88 167.093V174.591L105.047 174.096V166.598Z" fill="#455A64"/>
<path d="M107.156 167.829L107.57 168.069V175.567L107.156 175.327V167.829Z" fill="#455A64"/>
<path d="M108.375 168.521L109.263 169.05V176.548L108.375 176.019V168.521Z" fill="#455A64"/>
<path d="M110.543 169.783L110.957 170.023V177.521L110.543 177.281V169.783Z" fill="#455A64"/>
<path d="M111.508 170.334L111.715 170.454V177.952L111.508 177.832V170.334Z" fill="#455A64"/>
<path d="M109.773 169.375L109.98 169.495V176.993L109.773 176.873V169.375Z" fill="#455A64"/>
<path d="M106.359 167.377L106.566 167.497V174.995L106.359 174.875V167.377Z" fill="#455A64"/>
<path d="M104.492 166.31L104.699 166.429V173.927L104.492 173.808V166.31Z" fill="#455A64"/>
<path d="M103.152 165.57L103.359 165.69V173.188L103.152 173.068V165.57Z" fill="#455A64"/>
<path d="M101.336 164.463L101.543 164.583V172.081L101.336 171.961V164.463Z" fill="#455A64"/>
<path d="M112.234 170.759L112.648 171.004V178.502L112.234 178.262V170.759Z" fill="#455A64"/>
<path opacity="0.1" d="M181.382 194.399L145.002 215.38L117.074 199.295L153.535 178.363L181.382 194.399Z" fill="black"/>
<path d="M121.293 166.819L154.47 147.663L178.805 161.712L145.627 180.868L121.293 166.819Z" fill="#407BFF"/>
<g opacity="0.3">
<path d="M121.293 166.819L154.47 147.663L178.805 161.712L145.627 180.868L121.293 166.819Z" fill="white"/>
</g>
<path d="M154.154 150.419L143.972 156.284C143.787 156.393 143.836 156.589 144.081 156.736L155.575 163.374C155.82 163.515 156.169 163.542 156.354 163.439L166.542 157.569C166.727 157.46 166.678 157.264 166.433 157.117L154.933 150.479C154.688 150.338 154.339 150.311 154.154 150.414V150.419Z" fill="#FAFAFA"/>
<path d="M159.302 160.4C159.373 160.4 159.444 160.362 159.482 160.297C159.542 160.198 159.504 160.068 159.406 160.008L149.86 154.497C149.762 154.438 149.632 154.476 149.572 154.574C149.512 154.672 149.55 154.802 149.648 154.862L159.193 160.373C159.226 160.395 159.264 160.4 159.297 160.4H159.302Z" fill="#E0E0E0"/>
<path d="M158.24 161.004C158.31 161.004 158.381 160.966 158.419 160.901C158.479 160.798 158.441 160.672 158.343 160.612L148.798 155.102C148.7 155.042 148.569 155.08 148.509 155.178C148.449 155.276 148.487 155.407 148.585 155.467L158.131 160.977C158.163 160.999 158.202 161.004 158.234 161.004H158.24Z" fill="#E0E0E0"/>
<path d="M157.173 161.615C157.244 161.615 157.315 161.577 157.353 161.511C157.413 161.413 157.375 161.283 157.277 161.223L147.731 155.712C147.633 155.652 147.503 155.69 147.443 155.788C147.383 155.892 147.421 156.017 147.519 156.077L157.064 161.588C157.097 161.609 157.135 161.615 157.168 161.615H157.173Z" fill="#E0E0E0"/>
<path d="M156.119 162.219C156.189 162.219 156.26 162.181 156.298 162.116C156.358 162.012 156.32 161.887 156.222 161.827L146.677 156.317C146.579 156.257 146.448 156.295 146.388 156.393C146.328 156.491 146.366 156.622 146.464 156.682L156.01 162.192C156.042 162.214 156.08 162.219 156.113 162.219H156.119Z" fill="#E0E0E0"/>
<path d="M165.579 157.302L165.209 157.084L160.863 159.594L161.234 159.812L165.579 157.302Z" fill="#455A64"/>
<path d="M164.067 156.426L163.419 156.062L159.074 158.572L159.717 158.937L164.067 156.426Z" fill="#455A64"/>
<path d="M162.551 155.555L162.181 155.343L157.836 157.853L158.206 158.065L162.551 155.555Z" fill="#455A64"/>
<path d="M161.421 154.894L160.675 154.47L156.324 156.98L157.076 157.405L161.421 154.894Z" fill="#455A64"/>
<path d="M159.536 153.813L159.166 153.595L154.82 156.105L155.191 156.323L159.536 153.813Z" fill="#455A64"/>
<path d="M158.456 153.176L157.655 152.724L153.305 155.234L154.111 155.686L158.456 153.176Z" fill="#455A64"/>
<path d="M156.512 152.064L156.142 151.852L151.797 154.362L152.167 154.574L156.512 152.064Z" fill="#455A64"/>
<path d="M155.657 151.563L155.472 151.46L151.121 153.97L151.312 154.074L155.657 151.563Z" fill="#455A64"/>
<path d="M157.18 152.478L156.995 152.369L152.645 154.879L152.835 154.988L157.18 152.478Z" fill="#455A64"/>
<path d="M160.241 154.225L160.056 154.116L155.711 156.626L155.896 156.735L160.241 154.225Z" fill="#455A64"/>
<path d="M161.898 155.19L161.712 155.081L157.367 157.591L157.552 157.7L161.898 155.19Z" fill="#455A64"/>
<path d="M163.083 155.892L162.898 155.783L158.547 158.293L158.732 158.402L163.083 155.892Z" fill="#455A64"/>
<path d="M164.735 156.813L164.55 156.704L160.199 159.214L160.384 159.323L164.735 156.813Z" fill="#455A64"/>
<path d="M155.002 151.193L154.632 150.98L150.281 153.491L150.657 153.703L155.002 151.193Z" fill="#455A64"/>
<path d="M145.622 213.185L121.293 199.136V166.819L145.622 180.868V213.185Z" fill="#407BFF"/>
<path d="M145.622 213.185L121.293 199.136V166.819L145.622 180.868V213.185Z" fill="#407BFF"/>
<path d="M145.633 213.185L178.81 194.029V161.712L145.633 180.868V213.185Z" fill="#407BFF"/>
<path opacity="0.1" d="M145.633 213.185L178.81 194.029V161.712L145.633 180.868V213.185Z" fill="black"/>
<path d="M163.324 175.645L160.105 177.507V172.508L163.324 170.651V175.645Z" fill="#37474F"/>
<path d="M160.106 172.509L135.777 158.46L138.995 156.604L163.324 170.652L160.106 172.509Z" fill="#455A64"/>
<path d="M175.734 190.921C175.647 190.921 175.566 190.899 175.495 190.855C175.304 190.747 175.195 190.502 175.195 190.191V188.231V188.084L175.293 188.1L176.834 187.196V189.391C176.834 189.946 176.502 190.578 176.077 190.823C175.963 190.888 175.849 190.926 175.74 190.926L175.734 190.921ZM175.44 188.372V190.191C175.44 190.414 175.506 190.578 175.62 190.643C175.734 190.708 175.865 190.659 175.952 190.605C176.295 190.403 176.584 189.848 176.584 189.385V189.222H176.012L175.898 188.454L175.435 188.372H175.44ZM176.23 188.977H176.584V187.621L175.664 188.16L176.116 188.242L176.224 188.977H176.23Z" fill="#455A64"/>
<path d="M176.012 192.483C175.947 192.483 175.887 192.429 175.887 192.358V190.708C175.887 190.637 175.941 190.583 176.012 190.583C176.083 190.583 176.137 190.637 176.137 190.708V192.358C176.137 192.429 176.083 192.483 176.012 192.483Z" fill="#455A64"/>
<path d="M175.293 192.898C175.25 192.898 175.212 192.876 175.185 192.838C175.152 192.778 175.168 192.702 175.228 192.669L176.66 191.842C176.72 191.809 176.796 191.825 176.829 191.885C176.862 191.945 176.845 192.021 176.785 192.054L175.353 192.882C175.353 192.882 175.315 192.898 175.293 192.898Z" fill="#455A64"/>
<path d="M171.006 195.446C170.957 195.446 170.913 195.435 170.87 195.413C170.777 195.359 170.723 195.25 170.723 195.114V194.776C170.723 194.706 170.777 194.651 170.848 194.651C170.919 194.651 170.973 194.706 170.973 194.776V195.114C170.973 195.163 170.989 195.19 170.995 195.196C171.006 195.196 171.033 195.196 171.077 195.174C171.186 195.109 171.305 194.864 171.305 194.618V192.424C171.305 192.353 171.36 192.299 171.431 192.299C171.501 192.299 171.556 192.353 171.556 192.424V194.618C171.556 194.94 171.403 195.272 171.207 195.386C171.142 195.424 171.077 195.446 171.011 195.446H171.006Z" fill="#455A64"/>
<path d="M169.703 193.53V193.317C169.703 192.31 170.411 191.085 171.282 190.584C171.729 190.328 172.153 190.29 172.48 190.48C172.807 190.671 172.987 191.057 172.987 191.569V191.64L169.709 193.535L169.703 193.53ZM172.017 190.606C171.832 190.606 171.62 190.671 171.402 190.796C170.661 191.221 170.052 192.217 169.959 193.094L172.731 191.493C172.714 191.106 172.584 190.823 172.349 190.687C172.251 190.633 172.137 190.6 172.017 190.6V190.606Z" fill="#455A64"/>
<path d="M166.039 198.211C165.969 198.211 165.914 198.157 165.914 198.086V193.888C165.914 193.823 165.969 193.763 166.039 193.763C166.11 193.763 166.165 193.817 166.165 193.888V198.086C166.165 198.157 166.11 198.211 166.039 198.211Z" fill="#455A64"/>
<path d="M165.68 194.847C165.68 194.847 165.647 194.847 165.631 194.836C165.565 194.809 165.538 194.738 165.565 194.673L166.006 193.66L166.496 194.226C166.54 194.275 166.534 194.357 166.485 194.401C166.431 194.444 166.355 194.439 166.311 194.39L166.077 194.123L165.794 194.776C165.772 194.825 165.729 194.853 165.68 194.853V194.847Z" fill="#455A64"/>
<path d="M167.184 197.564C167.118 197.564 167.059 197.509 167.059 197.439V193.24C167.059 193.17 167.113 193.115 167.184 193.115C167.255 193.115 167.309 193.17 167.309 193.24V197.439C167.309 197.509 167.255 197.564 167.184 197.564Z" fill="#455A64"/>
<path d="M166.82 194.2C166.82 194.2 166.787 194.2 166.771 194.189C166.706 194.162 166.679 194.091 166.706 194.026L167.147 193.013L167.637 193.579C167.68 193.628 167.675 193.71 167.626 193.753C167.572 193.797 167.495 193.791 167.452 193.742L167.218 193.476L166.934 194.129C166.913 194.178 166.869 194.205 166.82 194.205V194.2Z" fill="#455A64"/>
<path d="M148.244 199.829V208.079C148.244 208.395 148.467 208.525 148.739 208.367L161.617 200.935C161.895 200.777 162.113 200.39 162.113 200.074V191.82C162.113 191.504 161.889 191.373 161.612 191.531L148.734 198.969C148.456 199.127 148.238 199.514 148.238 199.829H148.244Z" fill="#FAFAFA"/>
<path d="M161.316 192.707L160.902 192.952V200.45L161.316 200.205V192.707Z" fill="#455A64"/>
<path d="M159.623 193.688L158.91 194.107V201.605L159.623 201.185V193.688Z" fill="#455A64"/>
<path d="M157.926 194.661L157.512 194.901V202.399L157.926 202.159V194.661Z" fill="#455A64"/>
<path d="M156.657 195.387L155.824 195.882V203.38L156.657 202.885V195.387Z" fill="#455A64"/>
<path d="M154.548 196.615L154.129 196.855V204.353L154.548 204.113V196.615Z" fill="#455A64"/>
<path d="M153.33 197.304L152.438 197.832L152.443 205.33L153.33 204.802V197.304Z" fill="#455A64"/>
<path d="M151.164 198.571L150.75 198.811V206.309L151.164 206.069V198.571Z" fill="#455A64"/>
<path d="M150.197 199.121L149.984 199.241L149.99 206.739L150.197 206.619V199.121Z" fill="#455A64"/>
<path d="M151.937 198.162L151.73 198.282V205.78L151.937 205.66V198.162Z" fill="#455A64"/>
<path d="M155.348 196.165L155.141 196.285V203.783L155.348 203.663V196.165Z" fill="#455A64"/>
<path d="M157.215 195.092L157.008 195.212V202.71L157.215 202.59V195.092Z" fill="#455A64"/>
<path d="M158.551 194.353L158.344 194.472V201.97L158.551 201.851V194.353Z" fill="#455A64"/>
<path d="M160.371 193.245L160.164 193.365V200.863L160.371 200.743V193.245Z" fill="#455A64"/>
<path d="M149.469 199.546L149.055 199.785V207.283L149.469 207.044V199.546Z" fill="#455A64"/>
<path d="M72.0673 186.763C72.247 183.871 73.7934 154.745 73.7934 154.745L59.6523 164.732C62.1244 181.383 62.6635 186.398 62.7724 189.18C62.7506 189.246 62.6962 189.48 62.7071 189.894C62.7833 193.193 66.7311 194.92 69.8294 197.07C71.0545 197.92 74.6102 200.436 78.1931 202.08C80.4311 203.109 84.9451 203.142 85.4788 201.775C81.7107 199.129 77.3491 196.243 74.3325 193.199C72.895 191.745 71.8604 190.231 72.0728 186.763H72.0673Z" fill="#FFA8A7"/>
<path d="M91.8811 205.233C92.0716 205.233 92.3983 207.225 91.3801 208.086C90.2039 209.082 86.7245 210.743 82.0743 210.237C77.4241 209.73 74.8921 208.407 73.0081 206.953C71.1241 205.505 68.4832 203.457 66.3813 203.049C64.4265 202.668 62.292 201.862 61.6604 201.296C61.0287 200.729 61.0668 198.187 61.0668 198.187L91.8865 205.227L91.8811 205.233Z" fill="#263238"/>
<path d="M62.7275 188.369C62.7275 188.369 62.1449 188.385 62.036 188.974C61.9053 189.676 61.7909 191.718 61.5078 192.872C61.1103 194.479 60.8871 197.762 61.1702 199.063C61.4479 200.365 64.6442 201.225 66.6862 201.933C68.7717 202.652 71.2002 204.166 73.3347 205.788C75.5454 207.465 80.163 209.115 83.185 209.11C87.8025 209.11 90.7647 207.874 91.6577 206.289C92.7631 204.323 91.8483 203.207 86.5011 200.947C85.4883 200.517 81.9272 198.584 80.7129 197.887C77.424 195.987 74.1515 193.324 72.5942 189.905C72.409 189.507 72.2184 189.061 71.8101 188.865C71.4997 188.712 71.124 188.739 70.7755 188.788C69.8934 188.919 69.0385 189.18 68.238 189.556C67.5302 189.888 66.5282 190.28 66.5609 191.146C66.5718 191.446 66.6698 191.74 66.7787 192.023C66.8441 192.197 66.8985 192.431 66.7406 192.54C66.5881 192.644 66.3812 192.529 66.2397 192.415C65.6734 191.952 65.2595 191.348 64.7803 190.803C64.5244 190.509 64.2467 190.231 63.9255 190.003C63.6369 189.796 63.2666 189.692 63.0052 189.458C62.6785 189.159 62.7493 188.778 62.7221 188.375L62.7275 188.369Z" fill="#37474F"/>
<path d="M87.3628 201.318C80.6925 201.852 78.6615 205.8 78.4219 208.234C80.0881 208.767 81.8033 209.116 83.1809 209.116C87.793 209.116 90.9512 207.88 91.8442 206.29C92.8842 204.433 92.1274 202.963 87.3574 201.318H87.3628Z" fill="#FAFAFA"/>
<path d="M77.3537 201.523C77.2829 201.523 77.2067 201.502 77.1468 201.458C77.0052 201.349 76.9834 201.159 77.0923 201.022C78.0017 199.928 80.6589 198.458 83.0874 198.67C83.2671 198.686 83.3978 198.839 83.3815 199.008C83.3651 199.176 83.2127 199.302 83.0275 199.285C80.7569 199.089 78.3229 200.532 77.5987 201.404C77.5388 201.48 77.4408 201.518 77.3482 201.523H77.3537Z" fill="#F0F0F0"/>
<path d="M74.4435 199.971C74.3727 199.971 74.2965 199.949 74.2366 199.905C74.095 199.796 74.0733 199.606 74.1822 199.47C75.0915 198.375 77.7487 196.899 80.1773 197.117C80.357 197.134 80.4877 197.286 80.4713 197.455C80.455 197.624 80.3025 197.749 80.1174 197.733C77.8468 197.531 75.4128 198.98 74.694 199.851C74.6341 199.927 74.5361 199.965 74.4435 199.971Z" fill="#F0F0F0"/>
<path d="M71.7482 198.19C71.6774 198.19 71.6012 198.169 71.5413 198.125C71.3997 198.021 71.3779 197.825 71.4868 197.689C72.3962 196.595 75.0643 195.119 77.482 195.337C77.6617 195.353 77.7923 195.506 77.776 195.675C77.7597 195.843 77.6072 195.969 77.4221 195.952C75.1569 195.756 72.7175 197.199 71.9987 198.071C71.9388 198.147 71.8408 198.185 71.7482 198.19Z" fill="#F0F0F0"/>
<path d="M69.1016 196.404C69.0308 196.404 68.96 196.382 68.9001 196.339C68.7586 196.235 68.7313 196.039 68.8402 195.903C70.0926 194.351 72.9622 193.295 75.3908 193.513C75.5705 193.529 75.7012 193.682 75.6848 193.85C75.6685 194.019 75.516 194.139 75.3309 194.128C73.1419 193.932 70.4629 194.901 69.3575 196.279C69.2976 196.355 69.1996 196.399 69.1071 196.399L69.1016 196.404Z" fill="#F0F0F0"/>
<path d="M48.7419 163.329L33.991 160.138C33.6044 169.269 33.8385 181.624 33.5227 190.2C33.4628 191.812 32.6297 202.719 33.0925 206.068C33.7895 211.099 40.5361 210.772 41.0969 207.81C41.6578 204.848 42.1424 192.188 42.2513 190.876C42.5671 185.381 45.6981 176.152 47.8979 166.378C48.0068 165.899 48.6385 163.797 48.7419 163.329Z" fill="#FFA8A7"/>
<path d="M43.4772 210.016C43.4173 212.951 42.9926 214.911 41.8927 216.67C40.7928 218.429 38.5984 219.05 36.3223 218.63C34.0516 218.211 31.1058 216.975 30.3435 214.476C29.5812 211.976 29.6356 210.239 30.0222 207.506L43.4772 210.016Z" fill="#263238"/>
<path d="M33.5471 189.15C32.6215 189.248 32.5289 193.19 32.175 197.143C31.7938 201.38 30.4488 203.182 30.0949 206.656C29.692 210.631 30.0078 212.385 31.6849 214.715C33.362 217.046 39.0304 219.186 41.6114 215.663C43.7133 212.793 43.6643 209.695 43.2831 205.758C42.8856 201.685 42.5698 198.826 42.6188 195.722C42.6624 192.755 43.1742 189.994 42.352 189.694C42.3084 190.13 42.2757 190.686 42.2267 191.116C42.1941 191.442 42.1723 193.049 41.655 193.087C41.5897 192.711 41.5842 192.357 41.5951 191.971C41.606 191.633 41.557 191.274 41.2956 191.023C41.0343 190.778 40.2175 190.593 39.8363 190.544C38.9161 190.419 37.9904 190.31 37.0647 190.272C36.6019 190.25 36.139 190.25 35.6762 190.272C35.3005 190.288 34.8594 190.332 34.5109 190.462C34.2931 190.544 34.0971 190.686 34.0263 190.882C33.9719 191.029 33.9936 191.181 33.9991 191.333C34.01 191.606 33.9828 191.883 33.9229 192.15C33.8956 192.27 33.8085 192.412 33.6778 192.39C33.5689 192.374 33.5199 192.254 33.5145 192.156C33.4872 191.682 33.5417 191.328 33.5417 190.773C33.5417 190.517 33.5744 190.163 33.5635 189.907C33.558 189.651 33.5471 189.4 33.5526 189.145L33.5471 189.15Z" fill="#37474F"/>
<path d="M29.9472 208.96C29.8982 211.421 30.1378 213.093 31.4501 214.917C33.1272 217.247 39.2421 219.377 41.8231 215.854C43.1082 214.1 43.3805 212.075 43.473 210.016C41.7088 207.441 32.4302 206.618 29.9472 208.96Z" fill="#FAFAFA"/>
<path d="M40.9012 205.808C40.8631 205.808 40.825 205.797 40.7869 205.786C40.7488 205.77 36.8936 204.349 32.7607 205.356C32.5756 205.399 32.3904 205.307 32.336 205.144C32.287 204.98 32.3959 204.817 32.5756 204.768C36.948 203.706 40.8903 205.165 41.0591 205.225C41.2334 205.291 41.3151 205.47 41.2388 205.623C41.1789 205.742 41.0428 205.813 40.9012 205.808Z" fill="#F0F0F0"/>
<path d="M32.8446 202.397C32.7139 202.392 32.5941 202.316 32.5451 202.207C32.4798 202.049 32.5669 201.875 32.7412 201.815C36.8414 200.421 41.0342 202.131 41.2084 202.207C41.3826 202.278 41.4534 202.457 41.3717 202.61C41.2901 202.762 41.0832 202.822 40.9144 202.757C40.8762 202.74 36.8033 201.085 32.9916 202.387C32.9426 202.403 32.8936 202.408 32.8446 202.408V202.397Z" fill="#F0F0F0"/>
<path d="M32.9577 199.61C32.827 199.604 32.7126 199.534 32.6582 199.419C32.5874 199.261 32.6691 199.087 32.8488 199.022C37.3519 197.41 41.316 199.299 41.4848 199.381C41.6536 199.463 41.7135 199.648 41.6209 199.795C41.5284 199.942 41.316 199.996 41.1527 199.915C41.1145 199.898 37.3029 198.085 33.1101 199.583C33.0611 199.599 33.0067 199.61 32.9577 199.604V199.61Z" fill="#F0F0F0"/>
<path d="M33.096 196.479C32.9707 196.473 32.851 196.403 32.8019 196.294C32.7257 196.141 32.8074 195.962 32.9871 195.896C37.2071 194.323 41.5088 196.256 41.6885 196.337C41.8573 196.414 41.9226 196.599 41.8355 196.746C41.7484 196.893 41.5414 196.953 41.3726 196.876C41.3291 196.86 37.1744 194.992 33.2593 196.457C33.2103 196.473 33.1559 196.484 33.1069 196.479H33.096Z" fill="#EBEBEB"/>
<path d="M40.1819 88.5059C39.8334 105.125 36.8604 142.037 36.8604 142.037C36.6099 144.079 33.6532 152.759 33.5443 160.142C33.3755 171.724 33.125 180.502 33.125 180.502C33.125 180.502 39.5939 183.061 44.3475 181.292C44.3475 181.292 50.5332 156.668 52.2648 148.985C54.3285 139.832 59.4851 122.816 59.4851 122.816L59.1093 147.009C59.1093 147.009 58.0748 154.469 58.9133 161.634C59.4851 166.513 61.4453 180.099 61.4453 180.099C61.4453 180.099 67.4023 181.297 72.5644 179.772C72.5644 179.772 75.6735 150.597 75.9295 146.11C76.2235 140.992 77.8026 89.5187 77.8026 89.5187L40.1765 88.5222L40.1819 88.5059Z" fill="#455A64"/>
<path d="M59.4988 122.811L61.813 107.39C61.813 107.39 67.4597 107.167 71.3312 103.546C71.3312 103.546 70.8466 107.161 63.7896 109.345L61.116 122.348L59.0469 146.552L59.5043 122.811H59.4988Z" fill="#37474F"/>
<path d="M69.5677 40.057C72.568 39.8991 78.1547 39.7085 82.1678 44.6527C84.9884 48.1267 92.6879 56.4851 97.044 62.001C99.9681 58.9572 107.058 51.5844 108.218 49.4336C109.666 46.8961 110.423 44.3968 110.864 43.0845C111.43 41.4129 111.643 40.1115 111.795 39.1259C112.16 36.779 111.898 35.0257 111.882 34.1653C111.844 32.6679 114.077 33.4357 114.926 35.8152C115.547 37.5577 115.498 38.821 115.579 39.8882C116.407 39.4907 118.803 38.3146 119.179 38.1403C120.485 37.5359 124.629 36.0766 125.027 38.418C125.114 38.9407 124.951 39.5125 125.179 39.9917C125.288 40.2204 125.479 40.4001 125.631 40.6015C126.219 41.353 126.35 42.4365 125.958 43.3078C125.762 43.7325 125.675 44.0755 125.729 44.5438C125.784 44.9849 125.914 45.4477 125.784 45.8888C125.686 46.2427 125.43 46.5313 125.261 46.858C125.043 47.2827 124.967 47.7619 124.902 48.2357C124.836 48.7094 124.776 49.1886 124.586 49.6242C124.128 50.6587 122.876 50.8983 121.912 51.2414C120.632 51.6988 118.917 52.2977 117.589 52.9457C115.274 54.4704 109.045 65.7419 102.734 72.9622C100.572 75.4343 98.634 76.9861 96.5812 76.7139H96.5975C94.9368 76.6703 92.8839 75.162 90.9073 73.4522C84.6182 68.0234 74.5174 57.3454 74.5174 57.3454C70.2592 52.227 69.0776 43.4766 69.5568 40.0461L69.5677 40.057Z" fill="#FFA8A7"/>
<path d="M72.3555 39.2174C74.3484 39.5277 75.7206 39.4678 78.258 40.9108C80.4905 42.1795 81.2964 43.2468 83.8829 46.1382C86.4693 49.0296 92.6496 56.5439 92.6496 56.5439C92.6496 56.5439 90.0141 62.8331 81.8682 65.1146L72.8564 56.3642L72.3609 39.2119L72.3555 39.2174Z" fill="#455A64"/>
<path d="M117.251 40.1113C115.966 40.5633 115.639 41.4345 115.737 43.3022C115.797 44.4076 115.53 46.4604 114.359 47.3207C114.359 47.3207 115.35 47.1955 115.9 46.5911C116.45 45.9867 116.603 45.9159 116.929 46.2426C117.256 46.5638 117.773 46.6945 117.773 46.6945C117.773 46.6945 117.087 47.4732 117.697 48.4098C118.307 49.3463 120.899 49.2864 122.985 48.1212C122.985 48.1212 119.576 49.3028 118.743 48.2355C117.91 47.1683 119.69 45.7362 121.035 45.3224C121.035 45.3224 117.735 46.2208 117.191 45.1481C116.646 44.0754 117.997 43.2042 119.935 42.6379C119.935 42.6379 117.202 43.226 116.701 42.3057C116.091 41.1895 116.902 40.5034 117.256 40.1168L117.251 40.1113Z" fill="#F28F8F"/>
<path d="M41.7531 40.9218C41.7531 40.9218 38.5568 43.7315 37.74 46.7699C37.337 48.2619 36.9668 49.5088 38.2301 57.7964C39.4389 65.7082 39.4334 68.0823 39.7057 74.2408L40.0215 90.7669C44.7534 96.3101 67.7211 99.3267 78.7748 91.8559C78.7748 91.8559 78.8401 63.2034 78.056 53.7615C77.5278 47.3471 75.5567 41.3248 73.3514 39.3536C70.3457 38.8309 67.4597 38.4824 67.4597 38.4824L56.406 37.8398L41.7476 40.9218H41.7531Z" fill="#407BFF"/>
<path d="M73.0184 17.944C74.4886 14.568 73.0511 10.0867 71.2923 7.98483C68.7494 4.94643 64.7908 3.63414 58.8229 4.00441C54.287 4.28756 49.822 6.17159 48.9726 10.8272C45.3243 11.9162 45.7436 17.9059 46.6475 20.5468C48.4879 25.9103 52.109 30.5714 52.1689 33.3157L73.0184 17.944Z" fill="#37474F"/>
<path d="M73.0181 30.5558C72.2993 33.1423 70.8019 35.0426 68.4115 35.4129C66.9794 35.6416 64.6325 35.4347 64.6325 35.4347L64.7251 38.729C67.9432 41.4843 66.7671 45.1053 64.6162 48.367C61.9481 45.3993 58.8933 44.343 56.2252 43.1668C53.5625 41.9961 52.3319 39.3988 52.3319 39.3988L51.9889 28.2688C51.9889 28.2688 50.5241 29.9296 48.1065 28.3614C46.4511 27.2778 45.2641 24.4845 46.4675 21.9143C47.66 19.3878 50.0613 20.4332 50.7964 21.201C51.5315 21.9688 52.3918 23.4118 53.0071 23.2103C53.9437 22.8999 54.2541 22.3118 54.4936 21.6965C54.9238 20.6129 55.2287 19.2135 55.2777 16.8013C55.9475 16.4637 56.5846 15.9737 57.1509 15.3529C58.18 14.2094 58.73 12.8536 58.779 11.6066C63.9519 9.98397 69.9035 10.7517 72.0543 12.4125C73.2904 14.5906 73.3394 19.66 73.5408 22.5786C73.7641 25.7477 73.6225 28.3886 73.0181 30.5558Z" fill="#FFA8A7"/>
<path d="M64.6264 35.4347C61.98 35.2877 56.6547 34.0516 55.2389 32.5705C53.8232 31.0949 53.2188 28.0674 53.2188 28.0674C53.2188 28.0674 53.4311 31.8844 54.5256 33.5724C55.6201 35.255 58.3917 35.9901 60.0742 36.4094C61.7568 36.8287 64.6754 37.1064 64.6754 37.1064L64.6264 35.4292V35.4347Z" fill="#F28F8F"/>
<path d="M64.6125 48.3732C63.2294 47.5238 60.1692 44.0498 58.65 45.667C57.1308 47.2842 56.314 47.7252 55.3121 47.4258C54.3102 47.1263 52.0886 44.9373 50.6402 43.3364C49.1918 41.7356 48.7344 39.4377 48.7344 39.4377C48.7344 39.4377 50.1392 37.7334 50.7763 36.6008C51.4624 35.3756 51.3208 35.0326 52.1975 34.9727L52.2737 37.276C52.2737 37.276 52.8346 38.5338 55.323 40.2327C57.8115 41.9316 62.821 44.4636 64.6125 48.3787V48.3732Z" fill="#455A64"/>
<path d="M64.6133 48.3736C65.4355 47.6222 66.7805 44.1046 67.1398 44.2081C67.668 44.3605 68.6155 46.7836 69.0729 46.2228C69.7971 45.3298 69.5793 41.2514 68.3759 39.7703C67.2161 38.3436 65.5662 36.7155 64.6677 36.5576L64.7331 38.7302C64.7331 38.7302 65.637 40.489 65.6261 42.2369C65.6152 43.473 64.793 47.192 64.6242 48.3736H64.6133Z" fill="#455A64"/>
<path d="M62.9525 20.8862C62.9525 21.5015 62.4787 21.997 61.8852 21.997C61.2917 21.997 60.8125 21.5015 60.8125 20.8862C60.8125 20.2709 61.2862 19.7754 61.8798 19.7754C62.4733 19.7754 62.9525 20.2709 62.9525 20.8862Z" fill="#263238"/>
<path d="M61.453 17.4672L59.2859 18.932C58.8884 18.3058 59.0572 17.4727 59.6561 17.0698C60.2551 16.6668 61.061 16.8465 61.453 17.4672Z" fill="#263238"/>
<path d="M71.8405 18.4688L69.4609 17.3308C69.755 16.6556 70.5227 16.367 71.1762 16.6773C71.835 16.9932 72.1291 17.7936 71.835 18.4633L71.8405 18.4688Z" fill="#263238"/>
<path d="M71.0423 20.8208C71.0423 21.4361 70.5686 21.9316 69.975 21.9316C69.3815 21.9316 68.9023 21.4361 68.9023 20.8208C68.9023 20.2055 69.3761 19.71 69.9696 19.71C70.5631 19.71 71.0423 20.2055 71.0423 20.8208Z" fill="#263238"/>
<path d="M65.4141 18.583L66.1873 26.2825L70.3147 25.0355L65.4141 18.583Z" fill="#F28F8F"/>
<path d="M62.943 28.0752L67.3699 29.0553C67.1249 30.3186 65.9379 31.1245 64.7127 30.8577C63.4875 30.5854 62.698 29.3439 62.943 28.0806V28.0752Z" fill="#B16668"/>
<path d="M64.7181 30.8516C64.8106 30.8734 64.9032 30.8734 64.9958 30.8843C64.9685 29.768 64.0538 28.875 62.9375 28.875C63.0736 29.8279 63.7597 30.6392 64.7181 30.8516Z" fill="#F28F8F"/>
<path d="M100.46 65.4863L71.5139 71.1493L60.8359 105.928L88.4048 99.8127L100.46 65.4863Z" fill="#263238"/>
<path opacity="0.15" d="M76.3227 91.6656C76.1375 92.5967 74.9777 95.6133 71.6344 96.49C67.8336 97.4919 63.875 96.0326 63.875 96.0326L64.768 93.1249L76.3227 91.6602V91.6656Z" fill="black"/>
<path opacity="0.15" d="M91.8029 70.0655C91.8029 70.0655 91.939 69.5864 92.1078 68.9928C92.2766 68.3993 90.6049 68.2686 88.3833 68.6934L84.1197 69.5101C81.8927 69.9349 79.9542 70.7625 79.7854 71.3506L79.4805 72.4233L91.8083 70.0601L91.8029 70.0655Z" fill="black"/>
<path d="M94.0377 66.0971C94.1466 65.7268 93.4768 65.5852 92.5402 65.7813L90.8522 66.1352C90.8522 66.1352 91.5002 63.821 87.7594 64.4036C84.024 64.9863 83.0439 67.6 83.0439 67.6C83.0439 67.6 82.238 67.7742 81.2361 67.9866C80.2396 68.1989 79.3194 68.6727 79.1778 69.0375L78.9219 69.7018L93.8307 66.7886C93.8307 66.7886 93.9233 66.4728 94.0322 66.1025L94.0377 66.0971Z" fill="#407BFF"/>
<path opacity="0.3" d="M94.0377 66.0971C94.1466 65.7268 93.4768 65.5852 92.5402 65.7813L90.8522 66.1352C90.8522 66.1352 91.5002 63.821 87.7594 64.4036C84.024 64.9863 83.0439 67.6 83.0439 67.6C83.0439 67.6 82.238 67.7742 81.2361 67.9866C80.2396 68.1989 79.3194 68.6727 79.1778 69.0375L78.9219 69.7018L93.8307 66.7886C93.8307 66.7886 93.9233 66.4728 94.0322 66.1025L94.0377 66.0971Z" fill="black"/>
<path d="M79.9495 71.472C80.091 70.9819 81.4578 70.3285 83.1948 69.8765C83.2111 69.8166 83.2275 69.7513 83.2438 69.7023C83.3799 69.1904 83.1784 68.8583 82.1275 69.0652L82.0676 68.6459L92.4026 66.7129L91.9452 67.1376C90.5784 67.3772 90.0121 67.5188 89.7508 68.4281C89.729 68.5044 89.7126 68.5642 89.6963 68.635C91.319 68.4499 92.4189 68.6187 92.2773 69.1033C92.1085 69.6968 91.9724 70.176 91.9724 70.176L79.6445 72.5392L79.9495 71.4665V71.472Z" fill="#407BFF"/>
<path opacity="0.4" d="M79.9495 71.472C80.091 70.9819 81.4578 70.3285 83.1948 69.8765C83.2111 69.8166 83.2275 69.7513 83.2438 69.7023C83.3799 69.1904 83.1784 68.8583 82.1275 69.0652L82.0676 68.6459L92.4026 66.7129L91.9452 67.1376C90.5784 67.3772 90.0121 67.5188 89.7508 68.4281C89.729 68.5044 89.7126 68.5642 89.6963 68.635C91.319 68.4499 92.4189 68.6187 92.2773 69.1033C92.1085 69.6968 91.9724 70.176 91.9724 70.176L79.6445 72.5392L79.9495 71.4665V71.472Z" fill="black"/>
<path d="M67.0417 85.708C70.5865 86.895 74.1259 86.9822 77.8068 86.9767C78.7052 86.9767 79.3859 87.1128 79.6527 87.9732C79.7453 88.2781 79.8705 88.6974 78.7107 89.0404C78.4058 89.133 77.981 89.2419 77.8068 89.5087C77.5345 89.928 77.6707 90.3527 77.5999 90.8482C77.4964 91.5779 76.9846 92.1768 76.5 92.7268C75.95 93.3476 75.3837 93.9846 74.6813 94.4257C72.4379 95.836 68.9802 96.0102 66.4264 95.5964C64.6948 95.3187 62.9687 94.698 61.3297 94.0881C59.7724 93.5109 50.2815 90.7175 49.1489 90.32C40.7688 87.396 29.2468 83.8131 28.5661 79.8381C27.8909 75.8686 30.02 63.4917 31.5447 53.4073C32.7753 45.2613 36.0805 42.359 41.4331 41.2373C47.2975 47.9022 43.5894 59.4514 43.5894 59.4514L41.4549 74.8394C42.3588 75.5909 56.0697 83.2903 58.4383 84.0527C59.2987 84.3304 60.905 83.9928 61.7599 83.6987C64.0523 82.9146 65.6205 82.98 67.8421 83.0834" fill="#FFA8A7"/>
<path d="M41.7462 40.9219C36.0614 41.7005 32.6963 44.6137 31.5419 50.1242C30.5782 54.7526 28.7812 69.6996 28.7812 69.6996C32.5656 73.0375 38.7677 72.8523 42.1219 71.6871L43.8535 59.6805C45.2474 56.6094 47.4364 47.4452 41.7407 40.9219H41.7462Z" fill="#455A64"/>
<path d="M38.1033 89.4766L35.2337 91.0611C34.8852 91.2517 34.5912 91.7309 34.5803 92.1338C34.5095 94.7094 34.3026 103.541 34.711 108.382C34.7436 108.78 35.0595 109.259 35.408 109.455C37.0469 110.375 41.4739 112.804 43.5049 113.365C43.8915 113.473 44.5177 113.365 44.8825 113.212L46.9299 112.39C47.3002 112.243 47.5942 111.796 47.5942 111.399C47.616 106.259 48.5036 100.612 49.353 95.0143C49.4129 94.6223 49.1679 94.1595 48.8085 93.9852L39.3775 89.433C39.0181 89.2588 38.4464 89.2751 38.0924 89.4712L38.1033 89.4766Z" fill="#455A64"/>
<path d="M34.7111 108.388C34.2973 103.547 34.5042 94.715 34.5804 92.1394C34.5913 91.7419 34.8908 91.5622 35.2502 91.7364L44.0278 96.098C44.3872 96.2777 44.6431 96.7406 44.6159 97.1381C44.4308 99.4196 43.9026 106.705 44.1857 112.766C44.2021 113.163 43.8971 113.474 43.5105 113.37C41.4795 112.809 37.058 110.381 35.4136 109.46C35.0651 109.264 34.7492 108.78 34.7166 108.388H34.7111Z" fill="#37474F"/>
<path d="M43.6133 113.386C43.9999 113.463 44.5499 113.348 44.8875 113.218L46.9348 112.395C47.3051 112.254 47.5665 111.802 47.5991 111.404C48.0021 106.128 48.5085 100.617 49.3634 95.0198C49.3961 94.8293 49.3525 94.6387 49.2599 94.459L44.5117 96.6262C44.588 96.7895 44.6315 96.9692 44.6152 97.138C44.4301 99.425 43.9019 106.711 44.185 112.771C44.2014 113.13 43.9509 113.419 43.6187 113.386H43.6133Z" fill="#263238"/>
<path d="M36.2891 93.9634L42.7307 97.0781L42.3877 102.322L36.1094 99.5556C36.1094 99.5556 36.1529 96.1796 36.2891 93.958V93.9634Z" fill="#263238"/>
<path d="M42.411 101.923L36.4648 99.3039C36.4648 99.3039 36.503 96.3254 36.6228 94.1201L42.7322 97.0768L42.4164 101.923H42.411Z" fill="#407BFF"/>
<path opacity="0.4" d="M42.411 101.923L36.4648 99.3039C36.4648 99.3039 36.503 96.3254 36.6228 94.1201L42.7322 97.0768L42.4164 101.923H42.411Z" fill="black"/>
<path d="M45.4314 93.6295L43.8305 94.3918L38.0586 91.5658L39.6105 90.7871L45.4314 93.6295Z" fill="#263238"/>
<path d="M45.1944 93.746L43.8331 94.394L38.3008 91.6877L39.624 91.0234L45.1944 93.746Z" fill="#407BFF"/>
<path opacity="0.4" d="M45.1944 93.746L43.8331 94.394L38.3008 91.6877L39.624 91.0234L45.1944 93.746Z" fill="black"/>
<path opacity="0.4" d="M44.3722 93.343L43 93.9855L42.8203 93.9038L44.1871 93.2559L44.3722 93.343Z" fill="black"/>
<path opacity="0.4" d="M43.1339 92.7375L41.7781 93.3909L41.582 93.2929L42.9542 92.6504L43.1339 92.7375Z" fill="black"/>
<path opacity="0.4" d="M41.9175 92.1447L40.5508 92.7873L40.3711 92.7056L41.7378 92.0576L41.9175 92.1447Z" fill="black"/>
<path opacity="0.4" d="M40.8042 91.6004L39.4375 92.2429L39.2578 92.1558L40.6191 91.5078L40.8042 91.6004Z" fill="black"/>
<path d="M42.6689 104.112L42.6254 104.76C42.609 104.961 42.4511 105.059 42.266 104.983L41.1007 104.504C40.9156 104.427 40.774 104.204 40.7903 104.008L40.8285 103.344C40.8394 103.142 40.9973 103.044 41.1824 103.121L42.364 103.611C42.5491 103.687 42.6853 103.91 42.6744 104.112H42.6689Z" fill="#263238"/>
<path d="M42.6756 106.224L42.6429 106.872C42.632 107.073 42.4741 107.171 42.289 107.101L41.1183 106.643C40.9332 106.573 40.7916 106.349 40.797 106.153L40.8243 105.489C40.8351 105.287 40.9876 105.189 41.1727 105.26L42.3598 105.734C42.5449 105.81 42.6865 106.028 42.6756 106.229V106.224Z" fill="#263238"/>
<path d="M42.685 108.332L42.6577 108.98C42.6523 109.181 42.4944 109.285 42.3038 109.214L41.1276 108.773C40.9425 108.702 40.7955 108.484 40.8009 108.283L40.8173 107.619C40.8227 107.417 40.9806 107.314 41.1658 107.385L42.3637 107.837C42.5488 107.907 42.6958 108.125 42.685 108.327V108.332Z" fill="#263238"/>
<path d="M42.6981 110.44L42.6817 111.088C42.6817 111.29 42.5184 111.393 42.3332 111.328L41.1462 110.903C40.9556 110.838 40.8086 110.62 40.8086 110.419V109.754C40.8195 109.553 40.9719 109.449 41.1625 109.515L42.3659 109.95C42.551 110.016 42.7035 110.233 42.6981 110.435V110.44Z" fill="#263238"/>
<path d="M40.0553 102.925L40.0227 103.6C40.0118 103.801 39.8539 103.899 39.6687 103.823L38.5089 103.344C38.3238 103.268 38.1822 103.044 38.1877 102.843L38.2149 102.151C38.2203 101.95 38.3782 101.852 38.5634 101.928L39.7395 102.418C39.9247 102.494 40.0662 102.718 40.0553 102.919V102.925Z" fill="#263238"/>
<path d="M40.0499 105.014L40.0172 105.69C40.0063 105.891 39.8484 105.989 39.6687 105.913L38.5089 105.439C38.3238 105.363 38.1822 105.14 38.1877 104.944L38.2149 104.252C38.2203 104.051 38.3782 103.953 38.5634 104.029L39.7395 104.513C39.9247 104.59 40.0662 104.813 40.0553 105.014H40.0499Z" fill="#263238"/>
<path d="M40.041 107.111L40.0137 107.787C40.0028 107.988 39.8504 108.086 39.6652 108.01L38.5054 107.542C38.3203 107.465 38.1733 107.248 38.1842 107.046L38.2059 106.355C38.2114 106.153 38.3693 106.055 38.549 106.131L39.7251 106.61C39.9103 106.687 40.0519 106.91 40.0464 107.106L40.041 107.111Z" fill="#263238"/>
<path d="M40.028 109.203L40.0008 109.878C39.9953 110.08 39.8374 110.178 39.6523 110.107L38.487 109.644C38.3019 109.568 38.1549 109.35 38.1603 109.149L38.1766 108.457C38.1766 108.256 38.3345 108.158 38.5197 108.234L39.7013 108.708C39.8864 108.784 40.028 109.002 40.0225 109.203H40.028Z" fill="#263238"/>
<path d="M37.4383 101.739L37.4165 102.441C37.411 102.642 37.2531 102.74 37.0734 102.664L35.9245 102.185C35.7394 102.109 35.5924 101.886 35.5978 101.684L35.6141 100.965C35.6141 100.764 35.7721 100.666 35.9572 100.748L37.1225 101.243C37.3076 101.319 37.4492 101.548 37.4437 101.744L37.4383 101.739Z" fill="#263238"/>
<path d="M37.45 103.77L37.4282 104.472C37.4228 104.674 37.2649 104.772 37.0852 104.696L35.9362 104.216C35.7511 104.14 35.6041 103.917 35.6095 103.715L35.6259 102.997C35.6259 102.795 35.7838 102.697 35.9689 102.779L37.1342 103.274C37.3193 103.351 37.4609 103.579 37.4554 103.775L37.45 103.77Z" fill="#263238"/>
<path d="M37.4578 105.807L37.436 106.509C37.4306 106.711 37.2727 106.809 37.093 106.733L35.944 106.253C35.7589 106.177 35.6119 105.954 35.6173 105.752L35.6337 105.034C35.6337 104.832 35.7916 104.734 35.9767 104.816L37.142 105.311C37.3271 105.388 37.4687 105.616 37.4632 105.812L37.4578 105.807Z" fill="#263238"/>
<path d="M37.4617 107.842L37.4399 108.545C37.4345 108.746 37.2766 108.844 37.0969 108.768L35.9479 108.289C35.7628 108.212 35.6158 107.989 35.6212 107.788L35.6376 107.069C35.6376 106.867 35.7955 106.769 35.9806 106.851L37.1459 107.347C37.331 107.423 37.4726 107.652 37.4672 107.848L37.4617 107.842Z" fill="#263238"/>
<path d="M154.083 38.0186L147.348 41.9173L150.021 47.9288C150.081 48.0594 150.168 48.1575 150.277 48.2174C150.598 48.397 152.488 49.4915 152.591 49.5514C152.913 49.7366 153.37 49.6059 153.495 49.192L156.398 39.3581L154.078 38.0186H154.083Z" fill="#407BFF"/>
<path opacity="0.15" d="M154.083 38.0186L147.348 41.9173L150.021 47.9288C150.081 48.0594 150.168 48.1575 150.277 48.2174C150.598 48.397 152.488 49.4915 152.591 49.5514C152.913 49.7366 153.37 49.6059 153.495 49.192L156.398 39.3581L154.078 38.0186H154.083Z" fill="black"/>
<path d="M149.666 43.2552L152.339 49.2667C152.573 49.7894 153.33 49.7404 153.494 49.1904L156.396 39.3564L149.66 43.2552H149.666Z" fill="#407BFF"/>
<path d="M162.553 0.141604L137.157 14.8054C136.836 14.9906 136.574 15.4425 136.574 15.8128V47.324C136.574 47.6943 136.836 48.1462 137.162 48.3259L139.253 49.4966C139.575 49.6817 140.103 49.6763 140.424 49.4912L165.82 34.8273C166.141 34.6422 166.403 34.1902 166.403 33.82V2.30878C166.403 1.93851 166.141 1.48656 165.815 1.30687L163.724 0.136159C163.403 -0.0489765 162.874 -0.0435313 162.553 0.141604Z" fill="#407BFF"/>
<path opacity="0.5" d="M166.394 2.20657C166.351 1.91253 166.111 1.80908 165.817 1.97243L140.426 16.6363C140.263 16.7288 140.121 16.8867 140.012 17.0719L136.762 15.2205C136.865 15.0463 137.007 14.8938 137.165 14.8067L162.561 0.142854C162.882 -0.0422815 163.405 -0.0477266 163.732 0.142854L165.817 1.31357C166.111 1.48237 166.356 1.86353 166.394 2.21202V2.20657Z" fill="white"/>
<path d="M139.836 49.1577V17.6465C139.836 17.2762 140.097 16.8243 140.419 16.6391L165.815 1.9753C166.136 1.79016 166.397 1.94263 166.397 2.3129V33.8241C166.397 34.1944 166.136 34.6463 165.815 34.8314L140.419 49.4953C140.097 49.6804 139.836 49.5279 139.836 49.1577Z" fill="#407BFF"/>
<path opacity="0.15" d="M140.419 49.4961C140.108 49.6758 139.542 49.6812 139.248 49.5015L137.162 48.3308C136.841 48.1511 136.574 47.6992 136.574 47.3289V15.8123C136.574 15.6162 136.645 15.4039 136.759 15.2188L140.005 17.0701C139.896 17.2498 139.83 17.4567 139.83 17.6419V49.153C139.83 49.4961 140.07 49.6921 140.413 49.4906L140.419 49.4961Z" fill="black"/>
<path d="M142.571 26.4234C142.522 26.4234 142.468 26.4125 142.424 26.3852C142.332 26.3308 142.277 26.2382 142.277 26.1348V20.646C142.277 20.5426 142.332 20.4446 142.424 20.3956L147.178 17.6512C147.271 17.5967 147.379 17.5967 147.472 17.6512C147.565 17.7056 147.619 17.7982 147.619 17.9017V23.3904C147.619 23.4939 147.565 23.5919 147.472 23.6409L142.718 26.3852C142.675 26.4125 142.62 26.4234 142.571 26.4234ZM142.865 20.8148V25.6284L147.031 23.2216V18.4081L142.865 20.8148Z" fill="#FAFAFA"/>
<path d="M147.882 16.5242C147.588 16.399 147.251 16.5405 147.125 16.8346L144.947 22.0184L144.43 21.512C144.201 21.2887 143.837 21.2942 143.613 21.5229C143.39 21.7516 143.396 22.1164 143.624 22.3396L144.751 23.4341C144.86 23.5376 145.002 23.5975 145.154 23.5975C145.192 23.5975 145.231 23.5975 145.269 23.5866C145.454 23.5485 145.612 23.4232 145.682 23.2435L148.187 17.2811C148.312 16.987 148.171 16.6494 147.882 16.5242Z" fill="#455A64"/>
<path d="M151.352 17.4866L163.473 10.4895C163.892 10.2499 164.235 10.4187 164.235 10.8761C164.235 11.3335 163.898 11.8998 163.473 12.1448L151.352 19.1419C150.933 19.3815 150.59 19.2127 150.59 18.7553C150.59 18.2979 150.927 17.7316 151.352 17.492V17.4866Z" fill="#455A64"/>
<path d="M142.571 34.6568C142.522 34.6568 142.468 34.6459 142.424 34.6186C142.332 34.5642 142.277 34.4716 142.277 34.3682V28.8794C142.277 28.776 142.332 28.678 142.424 28.629L147.178 25.8846C147.271 25.8301 147.379 25.8301 147.472 25.8846C147.565 25.939 147.619 26.0316 147.619 26.1351V31.6238C147.619 31.7273 147.565 31.8253 147.472 31.8743L142.718 34.6186C142.675 34.6459 142.62 34.6568 142.571 34.6568ZM142.865 29.0482V33.8618L147.031 31.455V26.6415L142.865 29.0482Z" fill="#FAFAFA"/>
<path d="M147.882 24.7576C147.588 24.6324 147.251 24.7739 147.125 25.068L144.947 30.2518L144.43 29.7454C144.201 29.5221 143.837 29.5276 143.613 29.7563C143.39 29.985 143.396 30.3498 143.624 30.573L144.751 31.6675C144.86 31.771 145.002 31.8309 145.154 31.8309C145.192 31.8309 145.231 31.8309 145.269 31.82C145.454 31.7819 145.612 31.6566 145.682 31.4769L148.187 25.5145C148.312 25.2204 148.171 24.8828 147.882 24.7576Z" fill="#455A64"/>
<path d="M151.352 25.6946L163.473 18.6975C163.892 18.4579 164.235 18.6267 164.235 19.0841C164.235 19.5415 163.898 20.1078 163.473 20.3529L151.352 27.3499C150.933 27.5895 150.59 27.4207 150.59 26.9633C150.59 26.5059 150.927 25.9396 151.352 25.7V25.6946Z" fill="#455A64"/>
<path d="M142.571 42.8882C142.522 42.8882 142.468 42.8773 142.424 42.8501C142.332 42.7956 142.277 42.7031 142.277 42.5996V37.1109C142.277 37.0074 142.332 36.9094 142.424 36.8604L147.178 34.116C147.271 34.0616 147.379 34.0616 147.472 34.116C147.565 34.1705 147.619 34.2631 147.619 34.3665V39.8552C147.619 39.9587 147.565 40.0567 147.472 40.1057L142.718 42.8501C142.675 42.8773 142.62 42.8882 142.571 42.8882ZM142.865 37.2797V42.0932L147.031 39.6864V34.8729L142.865 37.2797Z" fill="#FAFAFA"/>
<path d="M147.882 32.9891C147.588 32.8638 147.251 33.0054 147.125 33.2994L144.947 38.4832L144.43 37.9768C144.201 37.7536 143.837 37.759 143.613 37.9877C143.39 38.2164 143.396 38.5812 143.624 38.8045L144.751 39.899C144.86 40.0024 145.002 40.0623 145.154 40.0623C145.192 40.0623 145.231 40.0623 145.269 40.0514C145.454 40.0133 145.612 39.8881 145.682 39.7084L148.187 33.7459C148.312 33.4519 148.171 33.1143 147.882 32.9891Z" fill="#455A64"/>
<path d="M151.352 33.8987L163.473 26.9016C163.892 26.662 164.235 26.8308 164.235 27.2882C164.235 27.7456 163.898 28.3119 163.473 28.557L151.352 35.554C150.933 35.7936 150.59 35.6248 150.59 35.1674C150.59 34.71 150.927 34.1437 151.352 33.9041V33.8987Z" fill="#455A64"/>
</svg>
