<svg width="324" height="242" viewBox="0 0 324 242" fill="none" xmlns="http://www.w3.org/2000/svg">
<g clip-path="url(#clip0_69_19358)">
<path d="M324 212.67H0V212.832H324V212.67Z" fill="#EBEBEB"/>
<path d="M291.536 223.119H270.074V223.282H291.536V223.119Z" fill="#EBEBEB"/>
<path d="M214.631 224.886H209V225.048H214.631V224.886Z" fill="#EBEBEB"/>
<path d="M269.427 217.093H256.992V217.255H269.427V217.093Z" fill="#EBEBEB"/>
<path d="M61.9793 218.185H33.9922V218.347H61.9793V218.185Z" fill="#EBEBEB"/>
<path d="M71.8557 218.185H67.7539V218.347H71.8557V218.185Z" fill="#EBEBEB"/>
<path d="M145.896 220.925H85.1914V221.087H145.896V220.925Z" fill="#EBEBEB"/>
<path d="M153.583 183.703H28.454C26.4128 183.703 24.7539 182.041 24.7539 179.995V3.70849C24.7539 1.66265 26.4128 0 28.454 0H153.583C155.624 0 157.283 1.66265 157.283 3.70849V179.995C157.283 182.041 155.624 183.703 153.583 183.703ZM28.454 0.162368C26.5035 0.162368 24.9159 1.75358 24.9159 3.70849V179.995C24.9159 181.95 26.5035 183.541 28.454 183.541H153.583C155.533 183.541 157.121 181.95 157.121 179.995V3.70849C157.121 1.75358 155.533 0.162368 153.583 0.162368H28.454Z" fill="#EBEBEB"/>
<path d="M293.747 183.703H168.618C166.577 183.703 164.918 182.041 164.918 179.995V3.70849C164.918 1.66265 166.577 0 168.618 0H293.747C295.788 0 297.447 1.66265 297.447 3.70849V179.995C297.447 182.041 295.788 183.703 293.747 183.703ZM168.618 0.162368C166.668 0.162368 165.08 1.75358 165.08 3.70849V179.995C165.08 181.95 166.668 183.541 168.618 183.541H293.747C295.697 183.541 297.285 181.95 297.285 179.995V3.70849C297.285 1.75358 295.697 0.162368 293.747 0.162368H168.618Z" fill="#EBEBEB"/>
<path d="M72.1836 212.669V120.775H42.7838L42.7838 212.669H72.1836Z" fill="#F0F0F0"/>
<path d="M70.5586 150.132V123.081H44.3859V150.132H70.5586Z" fill="#E6E6E6"/>
<path d="M70.5586 179.605V152.555H44.3859V179.605H70.5586Z" fill="#E6E6E6"/>
<path d="M70.5664 209.085V182.034H44.3937V209.085H70.5664Z" fill="#E6E6E6"/>
<path d="M70.5586 150.132V123.081H60.2619V150.132H70.5586Z" fill="#E0E0E0"/>
<path d="M70.5586 179.605V152.555H60.2619V179.605H70.5586Z" fill="#E0E0E0"/>
<path d="M66.6319 139.325H59.5039V150.132H66.6319V139.325Z" fill="#F0F0F0"/>
<path d="M56.4829 150.126H59.4961V139.319H56.4829V150.126Z" fill="#E0E0E0"/>
<path d="M57.9922 142.131H48.8359V150.126H57.9922V142.131Z" fill="#F0F0F0"/>
<path d="M44.9674 150.132H48.8359V142.137H44.9674V150.132Z" fill="#E0E0E0"/>
<path d="M70.5664 209.085V182.034H60.2697V209.085H70.5664Z" fill="#E0E0E0"/>
<path d="M42.7813 212.669L42.7812 120.775H34.7979L34.7979 212.669H42.7813Z" fill="#F5F5F5"/>
<path d="M67.6392 193.225H48.1992V209.085H67.6392V193.225Z" fill="#F0F0F0"/>
<path d="M44.3955 209.084H48.1992V193.224H44.3955V209.084Z" fill="#E0E0E0"/>
<path d="M64.2288 167.024H46.9531V179.611H64.2288V167.024Z" fill="#FAFAFA"/>
<path d="M44.4 179.604H46.9531V167.018H44.4V179.604Z" fill="#F0F0F0"/>
<path d="M289.27 212.67V120.776H259.87V212.67H289.27Z" fill="#F0F0F0"/>
<path d="M287.652 150.132V123.081H261.48V150.132H287.652Z" fill="#E6E6E6"/>
<path d="M287.652 179.611V152.561H261.48V179.611H287.652Z" fill="#E6E6E6"/>
<path d="M287.66 209.091V182.04H261.487V209.091H287.66Z" fill="#E6E6E6"/>
<path d="M287.652 150.132V123.081H277.356V150.132H287.652Z" fill="#E0E0E0"/>
<path d="M287.652 179.611V152.561H277.356V179.611H287.652Z" fill="#E0E0E0"/>
<path d="M272.737 171.754H265.609V179.606H272.737V171.754Z" fill="#F0F0F0"/>
<path d="M262.596 179.612H265.609V171.76H262.596V179.612Z" fill="#E0E0E0"/>
<path d="M279.191 163.901H272.062V171.753H279.191V163.901Z" fill="#F0F0F0"/>
<path d="M269.049 171.754H272.062V163.902H269.049V171.754Z" fill="#E0E0E0"/>
<path d="M284.261 171.754H277.133V179.606H284.261V171.754Z" fill="#F0F0F0"/>
<path d="M274.12 179.612H277.133V171.76H274.12V179.612Z" fill="#E0E0E0"/>
<path d="M287.66 209.085V182.034H277.363V209.085H287.66Z" fill="#E0E0E0"/>
<path d="M259.875 212.663V120.77H251.892V212.663H259.875Z" fill="#F5F5F5"/>
<path d="M280.71 187.613H264.633V209.091H280.71V187.613Z" fill="#F0F0F0"/>
<path d="M261.49 209.085H264.633V187.607H261.49V209.085Z" fill="#E0E0E0"/>
<path d="M285.881 133.084H264.633V150.133H285.881V133.084Z" fill="#FAFAFA"/>
<path d="M261.49 150.126H264.633V133.077H261.49V150.126Z" fill="#F0F0F0"/>
<path d="M234.759 17.2891H84.7148V116.067H234.759V17.2891Z" fill="#E6E6E6"/>
<path d="M236.787 17.2891H86.7422V116.067H236.787V17.2891Z" fill="#F5F5F5"/>
<path d="M233.152 111.976V21.3809L90.372 21.3809V111.976L233.152 111.976Z" fill="white"/>
<path d="M233.152 111.983V21.3877H231.623V111.983H233.152Z" fill="#E6E6E6"/>
<path d="M235.284 83.5938H88.2461V89.0883H235.284V83.5938Z" fill="#F5F5F5"/>
<path d="M240.754 10.5146H80.7565C80.4455 10.5146 80.1992 10.7679 80.1992 11.0732C80.1992 11.3849 80.4519 11.6317 80.7565 11.6317H240.754C241.065 11.6317 241.311 11.3784 241.311 11.0732C241.311 10.7614 241.059 10.5146 240.754 10.5146Z" fill="#E6E6E6"/>
<path d="M242.71 11.0796C242.71 11.8525 242.081 12.4825 241.31 12.4825C240.539 12.4825 239.91 11.8525 239.91 11.0796C239.91 10.3067 240.539 9.67676 241.31 9.67676C242.081 9.67676 242.71 10.3067 242.71 11.0796Z" fill="#E6E6E6"/>
<path d="M85.473 14.2167C85.0583 14.2167 84.7148 13.879 84.7148 13.4568V11.8331C84.7148 11.4175 85.0518 11.0732 85.473 11.0732C85.8877 11.0732 86.2312 11.411 86.2312 11.8331V13.4568C86.2312 13.8725 85.8942 14.2167 85.473 14.2167Z" fill="#E6E6E6"/>
<path d="M232.309 14.2167C231.894 14.2167 231.551 13.879 231.551 13.4568V11.8331C231.551 11.4175 231.888 11.0732 232.309 11.0732C232.724 11.0732 233.067 11.411 233.067 11.8331V13.4568C233.067 13.8725 232.73 14.2167 232.309 14.2167Z" fill="#E6E6E6"/>
<path opacity="0.4" d="M240.575 11.0791H88.25V108.136H240.575V11.0791Z" fill="#E0E0E0"/>
<path d="M95.8658 11.0796C95.8658 11.8525 95.2372 12.4825 94.4661 12.4825C93.695 12.4825 93.0664 11.8525 93.0664 11.0796C93.0664 10.3067 93.695 9.67676 94.4661 9.67676C95.2372 9.67676 95.8658 10.3067 95.8658 11.0796Z" fill="#E6E6E6"/>
<path d="M105.607 160.121L243.184 160.121V154.458L105.607 154.458V160.121Z" fill="#F0F0F0"/>
<path d="M105.607 154.465H89.3164V160.128H105.607V154.465Z" fill="#E6E6E6"/>
<path d="M240.92 160.128H91.8281V163.414H240.92V160.128Z" fill="#E0E0E0"/>
<path d="M239.328 162.686V212.663H240.929V162.686H239.328Z" fill="#E0E0E0"/>
<path d="M105.605 162.693V212.67H107.206V162.693H105.605Z" fill="#E0E0E0"/>
<path d="M91.8281 162.693V212.67H93.4222V162.693H91.8281Z" fill="#E0E0E0"/>
<path d="M225.551 162.693V212.67H227.151V162.693H225.551Z" fill="#E0E0E0"/>
<path d="M194.301 102.506L199.829 112.378C199.66 133.72 201.552 134.954 201.572 138.623H195.72C195.189 120.756 191.742 122.276 194.295 102.506H194.301Z" fill="#E0E0E0"/>
<path d="M198.569 128.387C196.605 107.806 164.277 111.098 161.205 120.769C158.134 130.44 199.696 140.227 198.569 128.387Z" fill="#E0E0E0"/>
<path d="M196.125 120.035C200.395 104.85 180.936 101.986 172.24 106.377C167.121 111.534 193.663 128.771 196.125 120.035Z" fill="#E0E0E0"/>
<path d="M190.766 110.469C200.784 107.208 194.298 96.6738 188.317 93.9655C183.399 93.277 185.006 112.339 190.766 110.469Z" fill="#E0E0E0"/>
<path d="M201.777 120.458C190.443 111.859 204.187 103.604 213.304 103.65C220.024 105.364 208.289 125.407 201.777 120.458Z" fill="#E0E0E0"/>
<path d="M199.742 111.806C184.643 107.981 193.67 97.1931 202.411 94.5952C209.688 94.0691 208.425 114.001 199.742 111.806Z" fill="#E0E0E0"/>
<path d="M196.969 129.634C194.156 111.066 224.561 111.956 227.016 119.321C229.479 126.679 198.582 140.318 196.969 129.634Z" fill="#E0E0E0"/>
<path d="M195.376 154.463C184.373 154.463 175.087 153.983 172.832 143.513C172.236 140.746 171.555 137.993 170.48 135.375L170.305 134.953H220.44L220.265 135.375C219.19 137.993 218.516 140.746 217.913 143.513C215.658 153.983 206.372 154.463 195.369 154.463H195.376Z" fill="#FAFAFA"/>
<path d="M223.686 135.908H167.057L165.438 131.167H225.306L223.686 135.908Z" fill="#F0F0F0"/>
<path d="M162 242C231.39 242 287.641 238.708 287.641 234.648C287.641 230.588 231.39 227.296 162 227.296C92.6106 227.296 36.3594 230.588 36.3594 234.648C36.3594 238.708 92.6106 242 162 242Z" fill="#F5F5F5"/>
<path d="M246.564 229.303L241.367 229.219L241.348 217.132L246.538 217.21L246.564 229.303Z" fill="#FFB573"/>
<path d="M272.949 229.323H267.752L266.203 217.249H271.407L272.949 229.323Z" fill="#FFB573"/>
<path d="M267.204 228.719H273.548C273.762 228.719 273.936 228.868 273.975 229.076L274.805 233.707C274.889 234.187 274.494 234.642 274.001 234.635C271.96 234.603 270.476 234.48 267.91 234.48C266.329 234.48 261.553 234.642 259.369 234.642C257.186 234.642 256.991 232.479 257.892 232.284C261.936 231.408 265.007 230.193 266.342 229.037C266.582 228.829 266.886 228.719 267.197 228.719H267.204Z" fill="#263238"/>
<path d="M241.118 228.62L246.794 228.711C247.008 228.711 247.183 228.867 247.216 229.075L247.922 233.725C247.993 234.206 247.598 234.654 247.112 234.641C245.064 234.576 242.116 234.407 239.543 234.368C236.537 234.323 236.2 234.446 232.674 234.388C230.543 234.355 230.095 232.179 231.003 231.998C235.13 231.166 236.18 231.127 239.841 229.01C240.237 228.783 240.671 228.614 241.118 228.62Z" fill="#263238"/>
<path d="M243.424 74.1504C242.005 77.9564 240.443 81.5544 238.661 85.159C237.774 86.9516 236.841 88.7376 235.817 90.4912C234.819 92.2513 233.711 93.9918 232.486 95.7064L231.507 97.0249C230.97 97.7133 230.224 98.4082 229.298 98.9083C228.378 99.4149 227.321 99.6487 226.401 99.6747C225.468 99.7007 224.652 99.5513 223.939 99.35C222.52 98.9213 221.431 98.3173 220.466 97.6679C219.5 97.0119 218.645 96.3169 217.848 95.6025C214.692 92.6994 212.281 89.5365 210.078 86.0813L213.156 83.6717C214.485 84.9512 215.884 86.2826 217.297 87.4906C218.709 88.7116 220.142 89.8807 221.593 90.8679C222.312 91.368 223.038 91.8096 223.738 92.1538C224.431 92.4981 225.105 92.7578 225.572 92.8163C225.805 92.8553 225.961 92.8293 225.993 92.8033C226.038 92.7708 225.948 92.7643 225.87 92.7838C225.792 92.8033 225.773 92.8163 225.812 92.7319L226.492 91.6537C228.352 88.6012 230.017 85.211 231.579 81.7753C233.14 78.3525 234.644 74.7934 236.037 71.3447L243.411 74.144L243.424 74.1504Z" fill="#FFB573"/>
<path d="M245.364 70.7532C247.074 75.4359 238.074 89.0878 238.074 89.0878L227.719 83.3335C227.719 83.3335 230.207 76.5075 233.836 71.1818C237.568 65.7198 243.485 65.6159 245.357 70.7532H245.364Z" fill="#407BFF"/>
<path opacity="0.5" d="M245.364 70.7532C247.074 75.4359 238.074 89.0878 238.074 89.0878L227.719 83.3335C227.719 83.3335 230.207 76.5075 233.836 71.1818C237.568 65.7198 243.485 65.6159 245.357 70.7532H245.364Z" fill="white"/>
<path opacity="0.2" d="M239.616 75.8783C237.626 76.885 233.103 81.834 231.781 85.5879L238.073 89.0886C238.073 89.0886 241.54 83.8279 243.763 78.7165C242.337 77.3396 240.672 75.3458 239.622 75.8783H239.616Z" fill="#407BFF"/>
<path d="M213.509 83.7499L210.347 80.8857L207.359 86.0101C207.359 86.0101 210.392 89.5822 213.762 87.8416L214.215 86.5686C214.565 85.5749 214.286 84.4643 213.509 83.7564V83.7499Z" fill="#FFB573"/>
<path d="M205.242 78.7285L204.367 83.7035L207.361 86.0091L210.348 80.8848L205.242 78.7285Z" fill="#FFB573"/>
<path opacity="0.2" d="M241.348 217.132L241.361 223.367L246.551 223.445L246.545 217.216L241.348 217.132Z" fill="black"/>
<path opacity="0.2" d="M271.407 217.255H266.203L267 223.477H272.204L271.407 217.255Z" fill="black"/>
<path d="M268.371 67.1232C264.069 87.2504 266.57 108.15 266.343 112.43C262.261 112.398 246.897 112.262 238.524 112.184C232.958 82.8145 239.237 67.1232 239.237 67.1232C239.237 67.1232 240.993 66.6621 243.397 66.2529C244.149 66.123 244.966 65.9996 245.814 65.9022C246.281 65.8438 246.76 65.7983 247.246 65.7528C250.376 65.4931 255.521 65.6619 259.072 65.8568C259.818 65.9022 260.576 65.9607 261.308 66.0321C261.988 66.1036 262.662 66.1815 263.291 66.2659C266.155 66.6426 268.371 67.1167 268.371 67.1167V67.1232Z" fill="#407BFF"/>
<path opacity="0.5" d="M268.371 67.1232C264.069 87.2504 266.57 108.15 266.343 112.43C262.261 112.398 246.897 112.262 238.524 112.184C232.958 82.8145 239.237 67.1232 239.237 67.1232C239.237 67.1232 240.993 66.6621 243.397 66.2529C244.149 66.123 244.966 65.9996 245.814 65.9022C246.281 65.8438 246.76 65.7983 247.246 65.7528C250.376 65.4931 255.521 65.6619 259.072 65.8568C259.818 65.9022 260.576 65.9607 261.308 66.0321C261.988 66.1036 262.662 66.1815 263.291 66.2659C266.155 66.6426 268.371 67.1167 268.371 67.1167V67.1232Z" fill="white"/>
<path opacity="0.2" d="M263.016 75.9883C262.64 77.9302 263.781 86.6201 265.913 88.64C266.003 85.8278 266.172 82.8857 266.457 79.8786L263.016 75.9883Z" fill="black"/>
<path d="M258.008 52.5036C257.23 56.3095 256.42 63.2913 259.058 65.8632C256.971 67.9026 254.25 70.2601 249.727 70.3771C245.21 70.494 246.026 67.3895 247.232 65.7528C251.483 64.7721 251.405 61.6222 250.692 58.6476L258.008 52.4971V52.5036Z" fill="#FFB573"/>
<path d="M258.292 64.4014C258.292 64.4014 256.919 68.0124 249.551 70.3765C251.449 71.1819 252.285 73.0588 252.285 73.0588C252.285 73.0588 260.904 70.8636 260.249 65.3951C259.705 64.9144 258.292 64.4014 258.292 64.4014Z" fill="white"/>
<path d="M246.739 72.754C246.739 72.754 247.75 70.968 249.558 70.377C248.722 69.6171 247.387 67.24 247.977 65.3955C246.811 65.415 246.247 65.6163 246.247 65.6163C246.247 65.6163 243.169 68.5714 246.746 72.7475L246.739 72.754Z" fill="white"/>
<path d="M249.342 74.5789C249.283 75.092 249.018 75.4882 248.739 75.4557C248.46 75.4232 248.285 74.9816 248.337 74.4685C248.396 73.9554 248.661 73.5592 248.94 73.5917C249.219 73.6242 249.393 74.0658 249.342 74.5789Z" fill="white"/>
<path d="M248.843 79.918C248.83 80.4376 248.597 80.8533 248.318 80.8468C248.04 80.8468 247.826 80.4181 247.832 79.8985C247.845 79.379 248.078 78.9633 248.357 78.9698C248.636 78.9763 248.85 79.3985 248.843 79.918Z" fill="white"/>
<path opacity="0.2" d="M255.028 55.0098L250.699 58.6468C250.868 59.3482 251.004 60.0627 251.043 60.7511C252.663 60.5303 254.911 58.7702 255.093 57.0686C255.183 56.2178 255.157 55.4059 255.021 55.0098H255.028Z" fill="black"/>
<path d="M250.325 43.8131C247.856 46.4889 247.96 49.6518 248.239 50.613C247.04 51.6457 244.875 51.4638 244.875 51.4638L244.189 50.7754C243.521 50.1064 243.184 49.1777 243.255 48.236C243.379 46.7162 243.722 44.4106 244.681 42.9493C246.21 40.6176 250.325 43.8131 250.325 43.8131Z" fill="#263238"/>
<path d="M258.515 46.7683C258.152 51.9316 258.204 54.9711 255.58 57.595C251.627 61.5438 245.29 59.1277 244.11 53.9579C243.047 49.3077 243.819 41.6504 248.879 39.6371C253.869 37.6562 258.885 41.605 258.522 46.7618L258.515 46.7683Z" fill="#FFB573"/>
<path d="M254.21 43.6377C255.298 46.1317 254.942 48.4113 254.449 49.7492C254.138 50.6 254.572 51.5677 255.434 51.834C256.154 52.0548 256.815 52.0224 256.815 52.0224L259.296 51.5483C259.296 51.5483 260.34 47.8463 259.659 45.138C258.972 42.4297 254.203 43.6377 254.203 43.6377H254.21Z" fill="#263238"/>
<path d="M254.193 44.3206C248.276 44.9376 242.801 43.7231 242.801 43.7231C242.801 43.7231 244.019 39.8652 246.754 38.5338C249.488 37.2089 255.268 37.3128 257.05 38.0727C258.832 38.8325 261.165 41.1187 260.284 46.7301C258.45 48.7565 254.199 44.3141 254.199 44.3141L254.193 44.3206Z" fill="#263238"/>
<path d="M261.058 45.905C261.058 45.905 246.542 43.7942 240.529 42.7356C240.082 42.6577 240.101 42.0147 240.548 41.9562C243.95 41.4821 248.085 42.294 248.085 42.294L261.051 45.905H261.058Z" fill="#407BFF"/>
<path d="M242.898 41.962C243.164 40.6695 245.406 33.9475 254.815 35.9868C263.531 37.8768 261.062 45.9043 261.062 45.9043L242.898 41.962Z" fill="#407BFF"/>
<path d="M248.797 36.195L251.946 35.2598L255.743 35.5715V36.2275L253.333 36.786L248.797 36.195Z" fill="#407BFF"/>
<path opacity="0.2" d="M249.271 42.6374C249.135 42.6374 249.031 42.527 249.031 42.3906C249.031 42.3386 249.103 37.1169 255.271 35.7335C255.401 35.7075 255.531 35.7855 255.563 35.9153C255.596 36.0452 255.511 36.1751 255.382 36.2076C249.601 37.5066 249.524 42.1957 249.524 42.3906C249.524 42.527 249.414 42.6309 249.277 42.6309L249.271 42.6374Z" fill="black"/>
<path d="M260.717 52.0287C260.024 53.2367 258.838 54.016 257.73 54.2953C256.065 54.7175 255.274 53.2107 255.773 51.6585C256.22 50.2556 257.633 48.3526 259.292 48.6189C260.925 48.8852 261.514 50.6518 260.724 52.0287H260.717Z" fill="#FFB573"/>
<path d="M239.742 222.132L248.548 222.269C248.548 222.269 250.933 187.346 250.667 171.103C250.589 166.161 251.121 159.211 251.937 151.742C252.967 142.331 253.518 138.571 254.866 126.673C255.832 118.191 256.797 112.352 256.797 112.352L238.51 112.189C238.51 112.189 236.171 154.73 236.651 170.629C237.15 187.165 239.735 222.132 239.735 222.132H239.742Z" fill="#263238"/>
<path opacity="0.2" d="M251.125 123.874C248.383 132.252 249.569 151.392 251.429 156.679C251.585 155.068 251.753 153.419 251.935 151.736C252.971 142.319 253.516 138.565 254.87 126.667C254.896 126.433 254.922 126.199 254.948 125.972C253.755 125.056 252.466 124.296 251.125 123.874Z" fill="black"/>
<path d="M248.387 112.274C248.387 112.274 254.595 156.055 256.811 171.169C259.234 187.717 264.606 222.269 264.606 222.269H274.132C274.132 222.269 272.343 189.705 270.289 173.526C267.956 155.094 266.336 112.437 266.336 112.437L248.387 112.274Z" fill="#263238"/>
<path d="M263.459 222.476H274.676V219.118L262.137 218.897L263.459 222.476Z" fill="#407BFF"/>
<path d="M238.42 222.321L248.891 222.483L249.371 219.086L237.688 218.723L238.42 222.321Z" fill="#407BFF"/>
<path d="M250.685 48.1394C250.685 48.5616 250.459 48.8993 250.18 48.8993C249.901 48.8993 249.688 48.5551 249.688 48.1329C249.688 47.7108 249.914 47.373 250.193 47.373C250.465 47.373 250.685 47.7173 250.685 48.1394Z" fill="#263238"/>
<path d="M245.943 48.1004C245.943 48.5225 245.716 48.8602 245.438 48.8602C245.159 48.8602 244.945 48.516 244.945 48.0939C244.945 47.6717 245.172 47.334 245.451 47.334C245.723 47.334 245.943 47.6782 245.943 48.1004Z" fill="#263238"/>
<path d="M247.312 48.5352C247.312 48.5352 246.334 50.9512 245.277 52.1137C246.016 52.8152 247.28 52.5099 247.28 52.5099L247.312 48.5352Z" fill="#ED893E"/>
<path d="M249.177 53.7636C250.777 53.5623 251.522 52.4582 251.561 52.4062C251.6 52.3478 251.581 52.2698 251.529 52.2374C251.471 52.1984 251.393 52.2179 251.36 52.2698C251.354 52.2828 250.473 53.5623 248.639 53.5493C248.574 53.5493 248.516 53.6013 248.516 53.6727C248.516 53.7377 248.567 53.7961 248.639 53.7961C248.833 53.7961 249.015 53.7896 249.183 53.7636H249.177Z" fill="#263238"/>
<path d="M252.166 46.6188C252.205 46.6188 252.244 46.5993 252.283 46.5734C252.393 46.4889 252.413 46.3396 252.335 46.2291C251.525 45.1315 250.384 45.19 250.339 45.19C250.203 45.1965 250.099 45.3134 250.106 45.4498C250.112 45.5862 250.229 45.6901 250.365 45.6836C250.404 45.6836 251.292 45.6446 251.94 46.5214C251.991 46.5929 252.082 46.6318 252.166 46.6188Z" fill="#263238"/>
<path d="M243.915 46.4439C243.992 46.431 244.064 46.3855 244.103 46.3076C244.589 45.3334 245.463 45.2099 245.502 45.2035C245.638 45.184 245.736 45.0606 245.716 44.9307C245.697 44.7943 245.58 44.6969 245.444 44.7163C245.392 44.7228 244.271 44.8657 243.662 46.0932C243.604 46.2166 243.649 46.366 243.772 46.4245C243.817 46.444 243.863 46.4569 243.915 46.4504V46.4439Z" fill="#263238"/>
<path d="M265.446 229.628C265.926 229.628 266.45 229.531 266.813 229.44C266.865 229.427 266.898 229.388 266.911 229.342C266.923 229.29 266.898 229.245 266.859 229.219C266.677 229.102 265.038 228.069 264.455 228.361C264.364 228.407 264.247 228.504 264.228 228.712C264.202 228.991 264.273 229.206 264.455 229.362C264.681 229.563 265.051 229.628 265.446 229.628ZM266.463 229.264C265.576 229.44 264.895 229.407 264.623 229.173C264.5 229.069 264.455 228.92 264.474 228.725C264.487 228.628 264.526 228.595 264.558 228.582C264.863 228.426 265.802 228.875 266.463 229.271V229.264Z" fill="#407BFF"/>
<path d="M266.785 229.445C266.785 229.445 266.83 229.439 266.849 229.426C266.888 229.4 266.914 229.361 266.908 229.316C266.908 229.251 266.843 227.75 266.26 227.25C266.111 227.12 265.936 227.068 265.741 227.094C265.443 227.133 265.359 227.315 265.333 227.419C265.197 227.997 266.188 229.14 266.72 229.432C266.739 229.445 266.759 229.445 266.778 229.445H266.785ZM265.825 227.335C265.929 227.335 266.02 227.367 266.104 227.445C266.48 227.763 266.61 228.64 266.648 229.075C266.13 228.666 265.501 227.802 265.586 227.465C265.592 227.432 265.612 227.361 265.774 227.341C265.774 227.341 265.813 227.341 265.832 227.341L265.825 227.335Z" fill="#407BFF"/>
<path d="M240.557 229.329C240.602 229.316 240.634 229.277 240.647 229.231C240.66 229.179 240.634 229.127 240.589 229.102C240.362 228.978 238.347 227.881 237.692 228.225C237.563 228.29 237.485 228.407 237.466 228.549C237.433 228.796 237.492 228.998 237.654 229.153C238.191 229.667 239.695 229.485 240.544 229.335C240.544 229.335 240.557 229.335 240.563 229.335L240.557 229.329ZM237.841 228.426C238.243 228.296 239.345 228.744 240.142 229.153C238.982 229.329 238.127 229.264 237.829 228.972C237.725 228.868 237.686 228.738 237.705 228.575C237.712 228.51 237.738 228.472 237.79 228.446C237.803 228.439 237.822 228.433 237.835 228.426H237.841Z" fill="#407BFF"/>
<path d="M240.559 229.329C240.559 229.329 240.578 229.322 240.591 229.316C240.63 229.29 240.65 229.251 240.65 229.206C240.65 229.147 240.604 227.738 239.982 227.186C239.794 227.017 239.567 226.939 239.315 226.965C238.971 226.991 238.868 227.166 238.835 227.303C238.699 227.894 239.865 229.037 240.475 229.329C240.501 229.342 240.533 229.342 240.565 229.329H240.559ZM239.192 227.231C239.224 227.218 239.263 227.212 239.321 227.205C239.509 227.192 239.671 227.244 239.814 227.368C240.222 227.731 240.351 228.576 240.39 228.985C239.775 228.589 238.991 227.692 239.075 227.335C239.075 227.316 239.094 227.257 239.198 227.225L239.192 227.231Z" fill="#407BFF"/>
<path d="M261.009 64.5187C260.348 64.4277 259.68 64.6551 259.227 65.1487C257.438 67.0711 253.174 73.0462 252.287 86.9515C251.159 104.65 255.151 118.178 255.151 118.178L266.232 115.028C266.97 114.82 267.443 114.106 267.353 113.346C267.048 110.722 266.407 104.494 266.232 97.5054C266.108 92.5759 266.478 88.1465 266.458 86.1331C265.24 83.7431 263.05 79.8397 263.84 75.5857C264.722 70.838 267.333 70.1821 269.102 69.3183C270.133 68.8117 270.1 67.3114 269.063 66.8113C266.102 65.376 262.668 64.7525 261.009 64.5252V64.5187Z" fill="#407BFF"/>
<path d="M245.412 118.178L237.818 115.788C237.241 115.606 236.82 115.106 236.736 114.502C236.075 109.475 233.379 86.3995 236.878 69.2729C237.118 68.0973 237.947 67.1296 239.081 66.7334C240.565 66.2204 242.885 65.5709 245.821 65.2526C246.112 65.2202 246.339 65.4929 246.261 65.7787C244.816 71.0589 242.425 100.071 245.406 118.178H245.412Z" fill="#407BFF"/>
<path d="M235.453 100.52C235.589 102.949 235.764 105.189 235.939 107.157C238.693 107.469 241.512 107.683 244.311 107.82C244.182 105.67 244.091 103.468 244.046 101.253C241.143 101.098 238.252 100.864 235.453 100.52Z" fill="white"/>
<path d="M244.117 89.0627C241.039 88.9328 238.012 88.6925 235.135 88.3223C235.116 90.5694 235.142 92.7776 235.207 94.9014C238.064 95.2521 241.019 95.4794 244 95.6028C244.006 93.3881 244.052 91.1929 244.117 89.0627Z" fill="white"/>
<path d="M266.346 100.817C262.296 101.214 257.481 101.454 252.414 101.46C252.596 103.844 252.842 106.039 253.12 107.994C258.078 107.962 262.763 107.702 266.78 107.306C266.612 105.331 266.456 103.123 266.346 100.817Z" fill="white"/>
<path d="M266.401 88.3613C262.092 88.8095 257.193 89.1147 252.177 89.1797C252.087 91.4463 252.074 93.635 252.119 95.7199C257.076 95.6549 261.897 95.3626 266.213 94.9275C266.213 92.3946 266.33 90.1019 266.401 88.3613Z" fill="white"/>
<path d="M286.742 122.133L257.303 127.056C256.48 127.193 255.761 126.634 255.696 125.803L254.29 107.513C254.225 106.682 254.841 105.896 255.664 105.76L285.102 100.837C285.925 100.701 286.644 101.259 286.709 102.09L288.115 120.38C288.18 121.211 287.565 121.997 286.742 122.133Z" fill="#407BFF"/>
<path opacity="0.4" d="M286.741 122.133L257.983 126.939C257.16 127.076 256.44 126.517 256.376 125.686L254.97 107.397C254.905 106.565 255.52 105.779 256.343 105.643L285.102 100.837C285.924 100.701 286.644 101.259 286.709 102.09L288.115 120.38C288.18 121.211 287.564 121.997 286.741 122.133Z" fill="black"/>
<path d="M269.545 70.4287C271.185 74.1697 272.636 77.8976 273.952 81.736C274.619 83.6455 275.228 85.5809 275.825 87.5358C276.116 88.5165 276.395 89.4972 276.654 90.4909L276.855 91.2378L277.062 92.0951C277.211 92.6796 277.295 93.2577 277.399 93.8422C278.034 98.4989 277.347 102.857 276.252 106.929C275.695 108.968 275.002 110.943 274.211 112.865C273.803 113.82 273.375 114.768 272.928 115.703C272.474 116.652 272.014 117.535 271.457 118.49L267.932 116.808C268.496 115.047 269.066 113.151 269.487 111.3C269.947 109.443 270.317 107.572 270.589 105.715C270.848 103.857 271.042 102.013 271.036 100.214C271.062 98.4145 270.9 96.6739 270.543 95.0697C270.44 94.68 270.362 94.2709 270.232 93.9007L270.044 93.3161L269.798 92.6342C269.481 91.7249 269.124 90.8157 268.794 89.9064C268.12 88.0814 267.388 86.2694 266.681 84.4443L262.301 73.5332L269.552 70.4287H269.545Z" fill="#FFB573"/>
<path d="M268.363 67.1234C273.028 68.838 276.061 82.3145 276.061 82.3145L265.719 89.4587C265.719 89.4587 262.544 81.5027 260.801 75.3067C258.895 68.5522 262.706 65.0515 268.363 67.1298V67.1234Z" fill="#407BFF"/>
<path opacity="0.5" d="M268.363 67.1234C273.028 68.838 276.061 82.3145 276.061 82.3145L265.719 89.4587C265.719 89.4587 262.544 81.5027 260.801 75.3067C258.895 68.5522 262.706 65.0515 268.363 67.1298V67.1234Z" fill="white"/>
<path d="M267.514 117.62L266.613 121.614L272.841 121.432C272.841 121.432 273.34 116.607 270.871 115.847L268.946 116.223C268.233 116.36 267.67 116.912 267.508 117.62H267.514Z" fill="#FFB573"/>
<path d="M268.564 126.601L272.303 125.835C272.756 125.744 273.074 125.328 273.048 124.861L272.841 121.432L266.613 121.613L267.469 125.868C267.572 126.374 268.065 126.699 268.57 126.601H268.564Z" fill="#FFB573"/>
<path d="M214.152 39.0205H102.288C100.953 39.0205 99.884 40.1246 99.9229 41.456L104.433 195.862C104.472 197.141 105.515 198.161 106.798 198.161H218.662C219.997 198.161 221.067 197.057 221.028 195.725L216.518 41.3196C216.479 40.0402 215.435 39.0205 214.152 39.0205Z" fill="#407BFF"/>
<path opacity="0.2" d="M214.152 39.0205H102.288C100.953 39.0205 99.884 40.1246 99.9229 41.456L104.433 195.862C104.472 197.141 105.515 198.161 106.798 198.161H218.662C219.997 198.161 221.067 197.057 221.028 195.725L216.518 41.3196C216.479 40.0402 215.435 39.0205 214.152 39.0205Z" fill="black"/>
<path d="M126.853 36.7471H116.355V37.3965H126.853V36.7471Z" fill="#407BFF"/>
<path d="M112.609 36.7471H109.945V37.3965H112.609V36.7471Z" fill="#407BFF"/>
<path d="M215.228 39.0205H103.37C102.035 39.0205 100.966 40.1246 101.005 41.456L105.515 195.862C105.554 197.141 106.597 198.161 107.88 198.161H219.744C221.079 198.161 222.149 197.057 222.11 195.725L217.6 41.3196C217.561 40.0402 216.517 39.0205 215.234 39.0205H215.228Z" fill="#407BFF"/>
<path opacity="0.2" d="M105.8 47.3854L110.006 191.198C110.045 192.478 111.107 193.51 112.377 193.51H213.673C214.949 193.51 215.947 192.478 215.915 191.198L211.709 47.3854C211.67 46.1059 210.608 45.0732 209.338 45.0732H108.036C106.759 45.0732 105.761 46.1059 105.794 47.3854H105.8Z" fill="black"/>
<path d="M106.499 46.6842L110.705 190.497C110.744 191.776 111.807 192.809 113.077 192.809H214.372C215.649 192.809 216.646 191.776 216.614 190.497L212.409 46.6842C212.37 45.4047 211.307 44.3721 210.037 44.3721H108.735C107.458 44.3721 106.461 45.4047 106.493 46.6842H106.499Z" fill="white"/>
<path d="M137.646 92.9984H118.18L117.609 73.4883H137.075L137.646 92.9984Z" fill="#F5F5F5"/>
<path d="M201.02 81.2367H145.979L145.875 77.5996H200.916L201.02 81.2367Z" fill="#E0E0E0"/>
<path d="M189.274 88.8935H146.208L146.098 85.25H189.17L189.274 88.8935Z" fill="#E0E0E0"/>
<path d="M138.665 128.004H119.199L118.629 108.494H138.095L138.665 128.004Z" fill="#F5F5F5"/>
<path d="M167.216 116.242H146.998L146.895 112.599H167.112L167.216 116.242Z" fill="#E0E0E0"/>
<path d="M186.368 116.242H171.497L171.387 112.599H186.265L186.368 116.242Z" fill="#E0E0E0"/>
<path d="M195.387 123.893H147.227L147.117 120.256H195.283L195.387 123.893Z" fill="#E0E0E0"/>
<path d="M139.691 163.005H120.219L119.648 143.495H139.121L139.691 163.005Z" fill="#F5F5F5"/>
<path d="M203.182 155.257H148.141L148.244 158.9H203.285L203.182 155.257Z" fill="#E0E0E0"/>
<path d="M190.987 147.6H147.914L148.024 151.243H191.097L190.987 147.6Z" fill="#E0E0E0"/>
<path d="M128.876 87.9324C128.533 88.4325 127.774 88.4 127.45 87.861C126.187 85.7827 123.77 83.8862 122.383 82.9445C122.007 82.6912 121.891 82.1911 122.111 81.8079C122.351 81.3857 122.901 81.2688 123.31 81.5481C124.496 82.3469 126.148 83.6394 127.502 85.1592C127.859 85.5553 128.468 85.5618 128.792 85.1592C131.144 82.2171 134.391 79.1905 138.641 75.9561C139.011 75.6769 139.549 75.7613 139.84 76.138C140.125 76.5147 140.054 77.0473 139.691 77.32C134.715 81.1 131.176 84.5681 128.883 87.9194L128.876 87.9324Z" fill="#407BFF"/>
<path d="M129.899 122.932C129.556 123.433 128.798 123.4 128.474 122.861C127.21 120.783 124.793 118.886 123.407 117.944C123.031 117.691 122.914 117.191 123.134 116.808C123.374 116.386 123.925 116.269 124.333 116.548C125.519 117.347 127.171 118.639 128.526 120.159C128.882 120.555 129.491 120.562 129.815 120.159C132.167 117.217 135.414 114.191 139.665 110.956C140.034 110.677 140.572 110.761 140.864 111.138C141.149 111.515 141.077 112.047 140.715 112.32C135.738 116.1 132.2 119.568 129.906 122.919L129.899 122.932Z" fill="#407BFF"/>
<path d="M130.923 158.016C130.579 158.516 129.821 158.484 129.497 157.945C128.234 155.867 125.817 153.97 124.43 153.028C124.054 152.775 123.937 152.275 124.158 151.892C124.398 151.47 124.948 151.353 125.357 151.632C126.542 152.431 128.195 153.723 129.549 155.243C129.906 155.639 130.515 155.646 130.839 155.243C133.191 152.301 136.437 149.274 140.688 146.04C141.058 145.761 141.595 145.845 141.887 146.222C142.172 146.599 142.101 147.131 141.738 147.404C136.761 151.184 133.223 154.652 130.929 158.003L130.923 158.016Z" fill="#407BFF"/>
<path d="M175.876 184.073C172.895 184.073 171.295 182.969 169.889 181.995C168.541 181.06 167.271 180.183 164.75 180.183C162.229 180.183 161.011 181.066 159.715 181.995C158.367 182.969 156.838 184.073 153.851 184.073C150.863 184.073 149.276 182.969 147.863 181.995C146.515 181.06 145.245 180.183 142.725 180.183C140.204 180.183 138.986 181.066 137.696 181.995C136.348 182.969 134.819 184.073 131.832 184.073C128.844 184.073 127.257 182.969 125.844 181.995C124.496 181.06 123.226 180.183 120.706 180.183L120.66 178.722C123.641 178.722 125.235 179.826 126.648 180.8C127.996 181.735 129.266 182.612 131.786 182.612C134.307 182.612 135.525 181.729 136.815 180.8C138.163 179.826 139.692 178.722 142.679 178.722C145.666 178.722 147.254 179.826 148.667 180.8C150.015 181.735 151.285 182.612 153.805 182.612C156.326 182.612 157.544 181.729 158.84 180.8C160.188 179.826 161.717 178.722 164.705 178.722C167.692 178.722 169.286 179.826 170.692 180.8C172.04 181.735 173.31 182.612 175.831 182.612L175.876 184.073Z" fill="#EBEBEB"/>
<path d="M185.516 43.4693H185.399L185.386 43.4369C183.896 38.6762 180.306 35.5198 176.386 35.5198H168.409C167.216 35.5198 166.115 34.6885 165.668 33.4155C164.598 30.3825 161.974 28.2197 158.961 28.2197C155.948 28.2197 153.44 30.3825 152.526 33.4155C152.144 34.6885 151.081 35.5133 149.895 35.5133H141.918C137.998 35.5133 134.57 38.6697 133.326 43.4304V43.4628H133.196C132.296 43.4628 131.576 44.3007 131.602 45.3268C131.628 46.353 132.386 47.1908 133.287 47.1908H185.613C186.514 47.1908 187.233 46.353 187.201 45.3268C187.175 44.3007 186.417 43.4628 185.516 43.4628V43.4693Z" fill="#263238"/>
<path d="M126.182 59.5564C126.357 59.6733 126.474 59.7512 126.526 59.7837C126.604 59.8291 126.714 59.8811 126.85 59.9395L126.487 60.7124C126.293 60.6215 126.098 60.5111 125.904 60.3812C125.709 60.2513 125.58 60.1539 125.502 60.0889C125.204 60.2188 124.822 60.2838 124.368 60.2838C123.694 60.2838 123.156 60.1084 122.754 59.7512C122.281 59.3355 122.035 58.7445 122.009 57.9911C121.99 57.2572 122.171 56.6857 122.567 56.2765C122.955 55.8674 123.519 55.666 124.238 55.666C124.958 55.666 125.554 55.8674 125.969 56.2635C126.383 56.6597 126.597 57.2312 126.623 57.9716C126.642 58.6276 126.493 59.1602 126.182 59.5564ZM125.107 58.8484C125.21 58.6536 125.256 58.3548 125.243 57.9651C125.23 57.517 125.139 57.1923 124.964 56.9974C124.789 56.8026 124.556 56.7117 124.264 56.7117C123.992 56.7117 123.772 56.8091 123.61 57.0039C123.448 57.1988 123.37 57.5105 123.383 57.9262C123.396 58.4133 123.493 58.7575 123.662 58.9523C123.83 59.1472 124.063 59.2446 124.355 59.2446C124.446 59.2446 124.536 59.2381 124.621 59.2186C124.504 59.1082 124.316 59.0043 124.063 58.9004L124.264 58.4068C124.387 58.4263 124.485 58.4587 124.549 58.4912C124.621 58.5237 124.75 58.6081 124.951 58.7445C124.997 58.777 125.048 58.8095 125.107 58.8419V58.8484Z" fill="#263238"/>
<path d="M130.196 55.7432H131.57L131.648 58.3995C131.654 58.6658 131.622 58.9126 131.544 59.1464C131.466 59.3802 131.349 59.588 131.174 59.7634C131.006 59.9388 130.825 60.0622 130.637 60.1336C130.371 60.231 130.053 60.283 129.678 60.283C129.464 60.283 129.224 60.27 128.965 60.2375C128.706 60.205 128.492 60.1466 128.317 60.0557C128.142 59.9647 127.98 59.8348 127.831 59.6725C127.682 59.5036 127.578 59.3347 127.52 59.1594C127.429 58.8736 127.377 58.6268 127.371 58.406L127.293 55.7497H128.667L128.744 58.4709C128.751 58.7113 128.822 58.9061 128.965 59.0425C129.101 59.1789 129.289 59.2503 129.529 59.2503C129.768 59.2503 129.95 59.1854 130.079 59.049C130.209 58.9126 130.274 58.7242 130.267 58.4774L130.19 55.7562L130.196 55.7432Z" fill="#263238"/>
<path d="M135.111 59.4711H133.55L133.355 60.205H131.949L133.491 55.7432H134.988L136.79 60.205H135.351L135.105 59.4711H135.111ZM134.8 58.5099L134.263 56.9057L133.822 58.5099H134.8Z" fill="#263238"/>
<path d="M137.102 55.7441H138.475L138.573 59.1084H140.717L140.75 60.206H137.231L137.102 55.7441Z" fill="#263238"/>
<path d="M141.297 55.7432H142.677L142.807 60.205H141.426L141.297 55.7432Z" fill="#263238"/>
<path d="M143.355 55.7432H147.535L147.567 56.8473H146.168L146.265 60.205H144.891L144.794 56.8473H143.394L143.362 55.7432H143.355Z" fill="#263238"/>
<path d="M147.707 55.7432H149.236L150.176 57.2499L151.031 55.7432H152.548L150.895 58.3346L150.947 60.205H149.567L149.515 58.3346L147.707 55.7432Z" fill="#263238"/>
<path d="M157.908 59.4711H156.347L156.152 60.205H154.746L156.288 55.7432H157.785L159.587 60.205H158.148L157.902 59.4711H157.908ZM157.597 58.5099L157.059 56.9057L156.619 58.5099H157.597Z" fill="#263238"/>
<path d="M159.747 58.7319L161.056 58.6474C161.089 58.8618 161.153 59.0241 161.244 59.1345C161.393 59.3164 161.594 59.4073 161.86 59.4073C162.054 59.4073 162.203 59.3619 162.307 59.2709C162.411 59.18 162.462 59.0696 162.456 58.9527C162.456 58.8358 162.398 58.7319 162.294 58.6409C162.19 58.55 161.951 58.4656 161.581 58.3812C160.972 58.2448 160.538 58.0629 160.272 57.8421C160.007 57.6148 159.87 57.329 159.857 56.9783C159.851 56.751 159.909 56.5302 160.039 56.3288C160.169 56.1275 160.363 55.9651 160.622 55.8482C160.888 55.7313 161.251 55.6729 161.711 55.6729C162.281 55.6729 162.715 55.7768 163.02 55.9911C163.324 56.2054 163.512 56.5431 163.583 57.0043L162.287 57.0822C162.249 56.8809 162.171 56.738 162.061 56.6471C161.951 56.5561 161.795 56.5107 161.601 56.5107C161.439 56.5107 161.322 56.5431 161.244 56.6146C161.166 56.6795 161.128 56.764 161.128 56.8614C161.128 56.9328 161.166 56.9978 161.231 57.0562C161.296 57.1147 161.452 57.1666 161.698 57.2186C162.3 57.3485 162.735 57.4784 163 57.6148C163.266 57.7447 163.46 57.9135 163.583 58.1084C163.707 58.3032 163.771 58.524 163.778 58.7708C163.784 59.0566 163.713 59.3229 163.564 59.5632C163.415 59.8035 163.201 59.9853 162.916 60.1152C162.637 60.2386 162.281 60.3036 161.847 60.3036C161.089 60.3036 160.564 60.1607 160.259 59.8684C159.955 59.5762 159.786 59.206 159.734 58.7578L159.747 58.7319Z" fill="#263238"/>
<path d="M164.24 58.7319L165.548 58.6474C165.581 58.8618 165.646 59.0241 165.736 59.1345C165.885 59.3164 166.086 59.4073 166.352 59.4073C166.546 59.4073 166.695 59.3619 166.799 59.2709C166.903 59.18 166.955 59.0696 166.948 58.9527C166.948 58.8358 166.89 58.7319 166.786 58.6409C166.682 58.55 166.443 58.4656 166.073 58.3812C165.464 58.2448 165.03 58.0629 164.764 57.8421C164.499 57.6148 164.363 57.329 164.35 56.9783C164.343 56.751 164.402 56.5302 164.531 56.3288C164.661 56.1275 164.855 55.9651 165.114 55.8482C165.38 55.7313 165.743 55.6729 166.203 55.6729C166.773 55.6729 167.207 55.7768 167.512 55.9911C167.816 56.2054 168.004 56.5431 168.076 57.0043L166.78 57.0822C166.741 56.8809 166.663 56.738 166.553 56.6471C166.443 56.5561 166.287 56.5107 166.093 56.5107C165.931 56.5107 165.814 56.5431 165.736 56.6146C165.659 56.6795 165.62 56.764 165.62 56.8614C165.62 56.9328 165.659 56.9978 165.723 57.0562C165.788 57.1147 165.944 57.1666 166.19 57.2186C166.793 57.3485 167.227 57.4784 167.492 57.6148C167.758 57.7447 167.953 57.9135 168.076 58.1084C168.199 58.3032 168.264 58.524 168.27 58.7708C168.277 59.0566 168.205 59.3229 168.056 59.5632C167.907 59.8035 167.693 59.9853 167.408 60.1152C167.13 60.2386 166.773 60.3036 166.339 60.3036C165.581 60.3036 165.056 60.1607 164.751 59.8684C164.453 59.5762 164.278 59.206 164.227 58.7578L164.24 58.7319Z" fill="#263238"/>
<path d="M171.778 55.7432H173.152L173.23 58.3995C173.236 58.6658 173.204 58.9126 173.126 59.1464C173.048 59.3802 172.931 59.588 172.757 59.7634C172.588 59.9388 172.407 60.0622 172.219 60.1336C171.953 60.231 171.635 60.283 171.26 60.283C171.046 60.283 170.806 60.27 170.547 60.2375C170.288 60.205 170.074 60.1466 169.899 60.0557C169.724 59.9647 169.562 59.8348 169.413 59.6725C169.264 59.5036 169.16 59.3347 169.102 59.1594C169.011 58.8736 168.959 58.6268 168.953 58.406L168.875 55.7497H170.249L170.327 58.4709C170.333 58.7113 170.404 58.9061 170.547 59.0425C170.683 59.1789 170.877 59.2503 171.111 59.2503C171.344 59.2503 171.532 59.1854 171.661 59.049C171.791 58.9126 171.856 58.7242 171.849 58.4774L171.772 55.7562L171.778 55.7432Z" fill="#263238"/>
<path d="M174.208 60.205L174.078 55.7432H176.372C176.8 55.7432 177.124 55.7821 177.351 55.8536C177.577 55.925 177.765 56.0614 177.908 56.2627C178.05 56.4641 178.128 56.7044 178.135 56.9837C178.141 57.2305 178.096 57.4448 177.999 57.6266C177.901 57.8085 177.759 57.9514 177.577 58.0618C177.461 58.1332 177.305 58.1917 177.098 58.2371C177.266 58.2891 177.383 58.3475 177.461 58.3995C177.513 58.4385 177.59 58.5164 177.687 58.6333C177.785 58.7502 177.856 58.8476 177.888 58.9126L178.595 60.205H177.039L176.262 58.8411C176.165 58.6658 176.08 58.5489 176.003 58.4969C175.899 58.4255 175.789 58.393 175.666 58.393H175.543L175.594 60.205H174.214H174.208ZM175.51 57.5552H176.087C176.152 57.5552 176.268 57.5357 176.45 57.4967C176.541 57.4773 176.612 57.4318 176.67 57.3539C176.728 57.2759 176.754 57.1915 176.748 57.0941C176.748 56.9512 176.696 56.8408 176.599 56.7628C176.502 56.6849 176.333 56.6459 176.08 56.6459H175.478L175.504 57.5552H175.51Z" fill="#263238"/>
<path d="M181.74 59.4711H180.179L179.984 60.205H178.578L180.12 55.7432H181.617L183.419 60.205H181.98L181.734 59.4711H181.74ZM181.429 58.5099L180.891 56.9057L180.451 58.5099H181.429Z" fill="#263238"/>
<path d="M183.738 55.7432H185.021L186.771 58.2112L186.7 55.7432H187.996L188.125 60.205H186.829L185.093 57.7565L185.164 60.205H183.868L183.738 55.7432Z" fill="#263238"/>
<path d="M191.95 58.3808L193.169 58.7445C193.097 59.0822 192.981 59.368 192.812 59.5953C192.644 59.8226 192.436 59.9915 192.177 60.1084C191.924 60.2253 191.594 60.2838 191.199 60.2838C190.713 60.2838 190.317 60.2123 190.006 60.0694C189.695 59.9266 189.423 59.6798 189.19 59.329C188.957 58.9718 188.833 58.5172 188.814 57.9651C188.795 57.2248 188.969 56.6597 189.352 56.2635C189.734 55.8674 190.278 55.666 190.998 55.666C191.561 55.666 192.002 55.7764 192.333 56.0037C192.663 56.2311 192.909 56.5818 193.078 57.0494L191.873 57.3222C191.827 57.1858 191.782 57.0884 191.73 57.0234C191.652 56.9195 191.555 56.8351 191.438 56.7831C191.328 56.7247 191.199 56.6987 191.063 56.6987C190.751 56.6987 190.518 56.8221 190.356 57.0754C190.233 57.2637 190.181 57.556 190.194 57.9522C190.207 58.4458 190.291 58.7835 190.447 58.9718C190.602 59.1537 190.816 59.2446 191.088 59.2446C191.361 59.2446 191.549 59.1732 191.678 59.0238C191.808 58.8744 191.898 58.6601 191.95 58.3808Z" fill="#263238"/>
<path d="M193.742 55.7441H197.429L197.455 56.6989H195.148L195.168 57.4068H197.306L197.332 58.3161H195.194L195.22 59.1928H197.591L197.624 60.206H193.872L193.742 55.7441Z" fill="#263238"/>
<path d="M81.4907 111.885C81.4907 111.885 79.6504 152.301 79.3005 168.668C78.9376 185.691 78.7756 225.452 78.7756 225.452H74.4859C74.4859 225.452 67.6495 192.406 69.6712 168.668C66.6062 150.437 64.5391 111.885 64.5391 111.885H81.4907Z" fill="#FF8B7B"/>
<path d="M75.7969 111.885C75.7969 111.885 65.5844 154.211 61.4048 170.039C57.0179 186.665 51.0951 224.224 51.0627 225.458H47.3562C47.3562 225.458 46.1898 182.06 52.0542 167.304C52.0801 148.82 59.7265 111.885 59.7265 111.885H75.7904H75.7969Z" fill="#FF8B7B"/>
<path d="M47.2667 223.204C46.5604 224.009 46.0031 228.179 47.0594 230.036C48.1156 231.894 47.0594 234.641 50.6299 234.641C54.2003 234.641 54.5503 233.861 53.6431 232.199C52.7359 230.536 51.7055 227.412 51.7379 225.451C51.7768 222.937 52.7488 221.638 47.2732 223.197L47.2667 223.204Z" fill="#263238"/>
<path d="M46.8229 227.549C46.7451 229.693 46.7905 233.193 46.7905 233.193L47.3543 233.174C47.3543 233.174 47.7755 229.349 48.1319 227.926L46.8229 227.543V227.549Z" fill="#263238"/>
<path d="M85.1373 86.0352C85.5974 89.328 86.0056 92.6338 86.3814 95.9396C86.7702 99.2454 87.1266 102.551 87.4506 105.87C87.5349 106.695 87.5997 107.565 87.7422 108.254C87.7941 108.611 87.8718 108.988 87.9561 109.377C88.0403 109.76 88.1051 110.15 88.2023 110.533C88.5522 112.079 88.9994 113.631 89.4724 115.183C89.9454 116.736 90.4509 118.288 91.0211 119.827C91.5719 121.366 92.1616 122.925 92.7577 124.425L90.3666 125.705C88.4939 122.808 86.9258 119.808 85.5326 116.651C84.8522 115.067 84.2106 113.462 83.6858 111.787C83.5432 111.371 83.433 110.942 83.3034 110.52C83.1738 110.105 83.0637 109.663 82.96 109.202C82.7073 108.26 82.6166 107.468 82.4805 106.636C81.9621 103.324 81.4696 100.012 81.0095 96.693C80.5365 93.3742 80.0958 90.0489 79.707 86.7236L85.1373 86.0352Z" fill="#FF8B7B"/>
<path d="M84.197 81.2227C85.5578 83.7751 86.2706 93.8419 87.4046 100.765C87.4888 101.265 87.1907 101.752 86.7177 101.928C85.0264 102.551 83.549 103.623 82.5575 104.474C81.9484 104.993 81.0153 104.669 80.8468 103.883L77.6133 88.867L79.0194 86.0288C79.7258 83.5867 81.7216 81.7357 84.2034 81.2227H84.197Z" fill="#263238"/>
<path d="M92.7098 123.906L97.4272 126.563L92.3274 128.479C92.3274 128.479 89.716 126.231 90.1955 124.056L92.7098 123.906Z" fill="#FF8B7B"/>
<path d="M99.1581 130.726L94.8035 132.103L92.3281 128.478L97.4279 126.562L99.1581 130.726Z" fill="#FF8B7B"/>
<path d="M90.6289 129.57L140.564 123.666L140.622 124.147L90.7715 130.713L90.6289 129.57Z" fill="#263238"/>
<path d="M84.6728 83.0863C84.757 86.9766 84.5238 97.9722 81.7892 114.794H59.0509C59.4138 105.922 60.5283 97.4591 56.2969 79.2544C56.2969 79.2544 60.4311 78.3451 65.1097 78.1243C68.7709 77.9489 71.7711 77.832 74.9852 78.1243C77.1106 78.3191 79.3851 78.6634 81.1153 78.9621C83.137 79.3063 84.621 81.0404 84.6663 83.0928L84.6728 83.0863Z" fill="#263238"/>
<path opacity="0.2" d="M73.0122 114.872C73.0122 114.872 73.0122 114.872 73.0057 114.872C72.9603 114.872 72.9279 114.827 72.9344 114.781C75.0015 95.44 73.1871 87.7308 73.1677 87.6594C73.1547 87.6139 73.1807 87.5749 73.226 87.5619C73.2714 87.5489 73.3103 87.5749 73.3232 87.6204C73.3427 87.6983 75.17 95.4335 73.0964 114.801C73.0964 114.84 73.0575 114.872 73.0187 114.872H73.0122Z" fill="white"/>
<path d="M74.9966 78.1182H65.1211C65.1211 78.1182 68.5166 83.8335 73.0137 86.8471C75.8196 82.6255 74.9966 78.1182 74.9966 78.1182Z" fill="#E0E0E0"/>
<path d="M69.3879 64.0437C71.6105 67.8041 70.7228 72.4544 67.405 74.4158C64.0873 76.3837 59.6031 74.9224 57.3805 71.1619C55.1578 67.4015 56.0456 62.7512 59.3633 60.7898C62.6811 58.8219 67.1653 60.2832 69.3879 64.0437Z" fill="#263238"/>
<path d="M55.4328 68.1482C55.3291 65.9985 55.9642 63.9331 57.2343 62.3484C58.5043 60.7507 60.2604 59.822 62.1655 59.731C64.0771 59.6336 65.911 60.387 67.3301 61.8548C68.7492 63.3096 69.5851 65.297 69.6888 67.4533L69.3648 67.4728C69.2611 65.4009 68.4576 63.485 67.0968 62.0886C65.7425 60.6923 63.9929 59.9778 62.1785 60.0623C60.3641 60.1532 58.6987 61.0365 57.4805 62.5627C56.2623 64.089 55.6467 66.0699 55.7503 68.1417L55.4263 68.1612L55.4328 68.1482Z" fill="#263238"/>
<path d="M80.9064 70.0124C82.669 66.3644 81.2936 62.046 77.8342 60.3669C74.3749 58.6878 70.1417 60.2839 68.379 63.9319C66.6164 67.5798 67.9918 71.8983 71.4512 73.5774C74.9105 75.2565 79.1437 73.6604 80.9064 70.0124Z" fill="#263238"/>
<path d="M66.0879 66.9668C66.7099 70.1492 67.332 75.988 65.1094 78.1117C65.1094 78.1117 66.8266 81.4825 71.9004 82.671C75.0627 80.6967 74.9849 78.1117 74.9849 78.1117C71.4403 77.2609 71.5311 74.6306 72.1531 72.1561L66.0879 66.9668Z" fill="#FF8B7B"/>
<path d="M69.8367 82.0082L65.4109 76.7734L63.8816 77.5853L63.6289 85.1451L66.9078 80.8326L69.8367 82.0082Z" fill="white"/>
<path d="M72.8359 82.0023L74.2745 77.3066L76.0824 78.1185L78.0653 84.4833L75.1104 80.8333L72.8359 82.0023Z" fill="white"/>
<path opacity="0.2" d="M68.5662 69.084L72.1561 72.1495C72.0071 72.734 71.8904 73.3315 71.8516 73.9096C70.4972 73.7147 68.6375 72.2209 68.4949 70.8051C68.4236 70.0972 68.456 69.4152 68.5662 69.084Z" fill="black"/>
<path d="M62.7427 61.1274C63.9868 66.3037 64.408 68.5249 67.5184 70.7461C72.2035 74.0843 78.2752 71.415 78.5992 65.9724C78.8908 61.0689 76.8043 53.4246 71.3222 52.2491C65.9244 51.093 61.4985 55.9576 62.7427 61.1339V61.1274Z" fill="#FF8B7B"/>
<path d="M63.9205 63.5179C67.154 61.5695 66.7328 55.7437 66.7328 55.7437C72.338 55.6658 74.5283 55.7502 76.2131 55.9775C77.8979 56.2048 76.8805 53.9382 74.3663 52.0677C71.852 50.1972 65.0999 50.7428 62.9939 54.3149C60.4019 55.341 57.9265 61.2447 63.914 63.5179H63.9205Z" fill="#263238"/>
<path d="M59.5234 58.5044C59.5234 58.5044 77.7582 54.5751 81.6008 53.4775C81.6008 51.1849 72.2178 54.0231 72.2178 54.0231L59.5234 58.5044Z" fill="#407BFF"/>
<path d="M77.3756 53.341C77.0257 52.068 74.3365 45.5149 65.083 48.1907C56.5165 50.6652 59.5232 58.5043 59.5232 58.5043L77.3756 53.341Z" fill="#407BFF"/>
<path d="M71.1014 47.9827L67.8549 47.1709L64.1289 47.8334L64.1743 48.4893L66.6172 48.8855L71.1014 47.9827Z" fill="#407BFF"/>
<path opacity="0.4" d="M71.0523 54.529C70.8838 54.529 70.7413 54.3991 70.7283 54.2303C70.7153 54.0354 70.3201 49.4242 64.5334 48.5279C64.3585 48.5019 64.2353 48.3331 64.2613 48.1577C64.2872 47.9823 64.4557 47.8654 64.6306 47.8849C70.9421 48.8591 71.3698 54.1264 71.3698 54.1783C71.3828 54.3602 71.2467 54.5095 71.0717 54.5225C71.0653 54.5225 71.0588 54.5225 71.0458 54.5225L71.0523 54.529Z" fill="black"/>
<path opacity="0.2" d="M79.4205 163.789L68.5859 161.14C68.2878 158.834 68.0157 156.379 67.75 153.853L79.6732 155.944C79.576 158.75 79.4918 161.399 79.4205 163.789Z" fill="black"/>
<path opacity="0.2" d="M53.2158 151.307L65.6185 153.476C65.0548 155.743 64.504 157.938 63.9856 160.01L52.5938 157.223C52.7687 155.307 52.9761 153.327 53.2158 151.307Z" fill="black"/>
<path d="M71.884 61.1869C71.9617 61.6156 72.2468 61.9208 72.5255 61.8689C72.8041 61.8169 72.9661 61.4337 72.8948 61.0051C72.8236 60.5764 72.532 60.2712 72.2533 60.3231C71.9747 60.3751 71.8127 60.7583 71.884 61.1869Z" fill="#263238"/>
<path d="M76.6926 60.3295C76.7703 60.7582 77.0554 61.0634 77.3341 61.0115C77.6127 60.9595 77.7747 60.5763 77.7034 60.1477C77.6322 59.719 77.3406 59.4138 77.0619 59.4657C76.7833 59.5177 76.6213 59.9009 76.6926 60.3295Z" fill="#263238"/>
<path d="M76.9375 59.5181L77.9095 59.0439C77.9095 59.0439 77.5272 59.9337 76.9375 59.5181Z" fill="#263238"/>
<path d="M75.5547 61.2907C75.5547 61.2907 76.598 62.9988 77.5505 63.7392C77.084 64.3627 76.0861 64.2912 76.0861 64.2912L75.5547 61.2842V61.2907Z" fill="#FF5652"/>
<path d="M73.5363 66.3047C73.7631 66.3047 74.0029 66.2853 74.2621 66.2398C74.3334 66.2268 74.3787 66.1619 74.3658 66.0904C74.3528 66.019 74.288 65.9735 74.2167 65.9865C72.3505 66.3177 71.2489 65.1682 71.2359 65.1552C71.1906 65.1032 71.1063 65.1032 71.0545 65.1552C71.0027 65.2006 71.0027 65.2851 71.0545 65.337C71.0999 65.3825 71.9876 66.3112 73.5428 66.3112L73.5363 66.3047Z" fill="#263238"/>
<path d="M62.0216 64.0829C62.4363 65.1026 63.2852 65.843 64.1276 66.1807C65.3912 66.6873 66.1688 65.5962 65.9484 64.3232C65.7476 63.1802 64.8404 61.5305 63.512 61.563C62.203 61.5954 61.5485 62.9139 62.028 64.0894L62.0216 64.0829Z" fill="#FF8B7B"/>
<path d="M69.7647 59.2446C69.8295 59.2446 69.8943 59.2057 69.9396 59.1472C70.646 58.2574 71.5726 58.3354 71.5856 58.3354C71.7217 58.3484 71.8513 58.2444 71.8642 58.1081C71.8772 57.9652 71.7735 57.8418 71.6374 57.8288C71.5856 57.8288 70.4192 57.7249 69.5509 58.829C69.4666 58.9394 69.4796 59.1017 69.5897 59.1862C69.6416 59.2251 69.7064 59.2446 69.7712 59.2381L69.7647 59.2446Z" fill="#263238"/>
<path d="M77.5856 57.6658C77.6439 57.6463 77.6957 57.6009 77.7281 57.5424C77.7929 57.419 77.7411 57.2631 77.6115 57.2047C76.3544 56.5877 75.337 57.1722 75.2981 57.1982C75.175 57.2696 75.1361 57.4255 75.2074 57.5489C75.2787 57.6723 75.4342 57.7113 75.5573 57.6398C75.5962 57.6139 76.3868 57.1722 77.3912 57.6658C77.456 57.6983 77.5272 57.6983 77.592 57.6788L77.5856 57.6658Z" fill="#263238"/>
<path d="M72.1328 60.3686L73.1048 59.8945C73.1048 59.8945 72.7225 60.7843 72.1328 60.3686Z" fill="#263238"/>
<path d="M81.7901 114.788L80.8569 160.011L51.7682 155.854C50.6018 132.207 54.6842 119.796 59.0517 114.788H81.7901Z" fill="#263238"/>
<path opacity="0.2" d="M74.1576 141.254L67.2305 132.902V126.31L74.1576 141.254Z" fill="black"/>
<path d="M59.1514 85.0939C58.2831 87.6983 57.4472 90.4001 56.6566 93.0629C55.879 95.7388 55.1662 98.4276 54.6024 101.09C54.3368 102.422 54.0776 103.753 53.935 105.046L53.9026 105.293L53.8896 105.416C53.8896 105.455 53.8896 105.429 53.8896 105.435C53.8767 105.435 53.8702 105.442 53.8637 105.461C53.8508 105.494 53.8637 105.585 53.9091 105.728C54.0128 106.007 54.3044 106.416 54.6932 106.806C55.4643 107.605 56.54 108.378 57.6545 109.092C58.7691 109.806 59.9938 110.495 61.1732 111.112L60.3437 113.697C58.8339 113.404 57.4277 113.008 55.9956 112.469C54.5765 111.917 53.1639 111.261 51.7707 110.216C51.0838 109.676 50.384 109.04 49.7748 108.085C49.4768 107.605 49.2111 107.033 49.075 106.364C49.0037 106.033 48.9648 105.682 48.9648 105.331V105.085L48.9778 104.942L48.9972 104.656C49.0426 103.883 49.1009 103.123 49.1981 102.383C49.2694 101.629 49.399 100.902 49.5092 100.162C49.9757 97.2326 50.6626 94.4009 51.4078 91.5951C51.7772 90.1923 52.1789 88.8024 52.6196 87.419C53.0537 86.0292 53.4879 84.6718 53.9998 83.2754L59.1644 85.1069L59.1514 85.0939Z" fill="#FF8B7B"/>
<path d="M75.9851 103.084L72.4859 100.486L64.4702 112.508L55.3398 123.711L58.8455 126.303L66.8613 114.281L75.9851 103.084Z" fill="#FAFAFA"/>
<path d="M72.4766 100.486C73.3125 101.805 74.4789 102.675 75.9822 103.084C75.1463 101.766 73.9799 100.895 72.4766 100.486Z" fill="#E6E6E6"/>
<path d="M55.3398 123.712C56.1758 125.03 57.3422 125.901 58.8455 126.31C58.0096 124.991 56.8432 124.121 55.3398 123.712Z" fill="#E6E6E6"/>
<path d="M60.5969 110.91L66.3706 111.293L62.5927 115.229C62.5927 115.229 59.275 114.333 58.7695 112.164L60.5969 110.917V110.91Z" fill="#FF8B7B"/>
<path d="M68.2391 114.332L66.6127 116.632C66.3146 117.054 65.7508 117.177 65.3037 116.93L61.7656 114.937L66.3664 111.293L68.129 113.04C68.4789 113.384 68.5243 113.936 68.2456 114.339L68.2391 114.332Z" fill="#FF8B7B"/>
<path d="M60.985 84.0541C60.5768 81.5472 58.6976 80.0599 56.3 79.248C52.7619 81.8135 51.0318 90.2956 49.0748 100.174C48.9582 100.765 49.2757 101.356 49.8265 101.59C51.3752 102.233 52.6906 102.863 53.5849 103.311C54.2394 103.636 55.0364 103.33 55.3086 102.649L61.633 86.9248L60.985 84.0606V84.0541Z" fill="#263238"/>
<path d="M86.9131 233.59C86.3753 233.135 85.5135 232.765 84.7488 232.492C84.7488 232.492 80.9127 230.323 78.9103 223.789L74.478 222.679C74.0115 222.562 73.5449 222.88 73.4866 223.361C73.4477 223.711 73.4218 224.114 73.3764 224.439C73.2922 225.043 73.3635 225.965 73.3764 226.562C73.4153 228.771 73.6615 233.733 73.6615 233.733H74.1735C74.1735 233.733 74.1864 230.68 74.4456 229.232C74.7048 227.777 75.7287 229.498 76.2989 231.141C76.8756 232.784 79.1825 234.538 82.5327 234.622C86.4595 234.72 88.0536 234.544 86.9131 233.59Z" fill="#263238"/>
</g>
<defs>
<clipPath id="clip0_69_19358">
<rect width="324" height="242" fill="white"/>
</clipPath>
</defs>
</svg>
