<svg width="273" height="266" viewBox="0 0 273 266" fill="none" xmlns="http://www.w3.org/2000/svg">
<path d="M130.411 147.266C130.64 148.761 129.613 150.163 128.118 150.391L24.9841 166.301C23.4887 166.53 22.0872 165.503 21.8526 164.008L0.0318813 22.5163C-0.196823 21.021 0.829414 19.6194 2.32479 19.3848L105.459 3.47524C106.954 3.24654 108.356 4.27277 108.59 5.76815L130.417 147.266H130.411Z" fill="#1D0C8C"/>
<path d="M124.107 136.435C124.335 137.93 123.309 139.332 121.814 139.566L27.7283 154.08C26.2329 154.309 24.8314 153.283 24.5968 151.787L5.11001 25.4253C4.8813 23.93 5.90754 22.5284 7.40291 22.2938L101.488 7.78579C102.984 7.55708 104.385 8.58332 104.62 10.0787L124.107 136.429V136.435Z" fill="#D8E5FE"/>
<path d="M68.565 4.84192L60.3669 6.10859C59.757 2.1737 56.0801 -0.523836 52.1452 0.0860418C48.2103 0.690056 45.5128 4.37278 46.1227 8.30767L37.9245 9.57434C34.9279 10.0376 32.8754 12.8407 33.3387 15.8315L33.4091 16.2889C33.8723 19.2855 36.6754 21.3379 39.6662 20.8747L70.3067 16.1481C73.3033 15.6848 75.3558 12.8818 74.8925 9.891L74.8221 9.4336C74.3589 6.43698 71.5558 4.38451 68.565 4.84778V4.84192ZM53.7227 10.3132C51.9224 10.5888 50.2394 9.35736 49.9637 7.55705C49.6881 5.75673 50.9196 4.07371 52.7199 3.79809C54.5202 3.52247 56.2033 4.75395 56.4789 6.55427C56.7545 8.35458 55.523 10.0376 53.7227 10.3132Z" fill="#5758FF"/>
<g opacity="0.5">
<path d="M51.4994 35.471C51.7105 36.8256 50.7781 38.0923 49.4235 38.3034L22.5068 42.4553C21.1521 42.6664 19.8855 41.734 19.6744 40.3793C19.4632 39.0247 20.3957 37.758 21.7503 37.5469L48.667 33.3951C50.0217 33.1839 51.2883 34.1164 51.4994 35.471Z" fill="url(#paint0_linear_418_16786)"/>
<path d="M40.3048 52.8753C40.5159 54.2299 39.5835 55.4966 38.2289 55.7077L22.3427 58.1589C20.9881 58.3701 19.7214 57.4376 19.5103 56.083C19.2992 54.7284 20.2316 53.4617 21.5862 53.2506L37.4724 50.7994C38.827 50.5882 40.0937 51.5207 40.3048 52.8753Z" fill="url(#paint1_linear_418_16786)"/>
<path d="M73.341 47.7796C73.5521 49.1342 72.6197 50.4009 71.265 50.612L44.6591 54.7169C43.3045 54.9281 42.0378 53.9956 41.8267 52.641C41.6156 51.2864 42.548 50.0197 43.9026 49.8086L70.5086 45.7037C71.8632 45.4925 73.1299 46.425 73.341 47.7796Z" fill="url(#paint2_linear_418_16786)"/>
<path d="M72.1627 66.8382C72.3738 68.1928 71.4414 69.4595 70.0868 69.6706L25.1786 76.5962C23.824 76.8073 22.5573 75.8749 22.3462 74.5203C22.1351 73.1657 23.0675 71.899 24.4222 71.6879L69.3303 64.7622C70.6849 64.5511 71.9516 65.4835 72.1627 66.8382Z" fill="url(#paint3_linear_418_16786)"/>
<path d="M55.7475 79.7864C55.9586 81.141 55.0262 82.4077 53.6715 82.6188L26.7607 86.7707C25.406 86.9818 24.1394 86.0494 23.9283 84.6948C23.7172 83.3401 24.6496 82.0735 26.0042 81.8624L52.9151 77.7105C54.2697 77.4994 55.5364 78.4318 55.7475 79.7864Z" fill="url(#paint4_linear_418_16786)"/>
<path d="M80.2049 76.0159C80.416 77.3705 79.4836 78.6372 78.129 78.8483L62.5888 81.2468C61.2342 81.4579 59.9675 80.5255 59.7564 79.1709C59.5453 77.8162 60.4777 76.5496 61.8323 76.3384L77.3725 73.94C78.7271 73.7289 79.9938 74.6613 80.2049 76.0159Z" fill="url(#paint5_linear_418_16786)"/>
<path d="M64.536 93.8313C64.7471 95.186 63.8147 96.4526 62.4601 96.6638L29.081 101.813C27.7264 102.024 26.4597 101.091 26.2486 99.7366C26.0375 98.382 26.9699 97.1153 28.3245 96.9042L61.7036 91.7554C63.0582 91.5443 64.3249 92.4767 64.536 93.8313Z" fill="url(#paint6_linear_418_16786)"/>
<path d="M82.5274 91.0579C82.7385 92.4125 81.8061 93.6792 80.4514 93.8903L69.3857 95.5968C68.031 95.8079 66.7644 94.8755 66.5533 93.5209C66.3422 92.1662 67.2746 90.8996 68.6292 90.6885L79.695 88.982C81.0496 88.7709 82.3163 89.7033 82.5274 91.0579Z" fill="url(#paint7_linear_418_16786)"/>
<path d="M73.8725 102.81C74.0836 104.164 73.1512 105.431 71.7966 105.642L30.6474 111.987C29.2928 112.198 28.0261 111.266 27.815 109.911C27.6039 108.557 28.5363 107.29 29.8909 107.079L71.0401 100.734C72.3947 100.523 73.6614 101.455 73.8725 102.81Z" fill="url(#paint8_linear_418_16786)"/>
<path d="M57.6443 120.713C57.8554 122.068 56.923 123.334 55.5684 123.546L32.9677 127.035C31.6131 127.246 30.3464 126.313 30.1353 124.959C29.9242 123.604 30.8566 122.338 32.2112 122.126L54.8119 118.643C56.1665 118.432 57.4332 119.364 57.6443 120.719V120.713Z" fill="url(#paint9_linear_418_16786)"/>
<path d="M87.6158 116.092C87.8269 117.447 86.8945 118.713 85.5399 118.925L61.9599 122.56C60.6053 122.771 59.3386 121.839 59.1275 120.484C58.9164 119.13 59.8488 117.863 61.2034 117.652L84.7834 114.016C86.138 113.805 87.4047 114.737 87.6158 116.092Z" fill="url(#paint10_linear_418_16786)"/>
<path d="M52.5783 131.908C52.7894 133.263 51.857 134.53 50.5024 134.741L34.5341 137.204C33.1795 137.415 31.9128 136.483 31.7017 135.128C31.4906 133.773 32.423 132.507 33.7776 132.296L49.7459 129.833C51.1005 129.621 52.3672 130.554 52.5783 131.908Z" fill="url(#paint11_linear_418_16786)"/>
</g>
<path d="M91.8891 36.0572C92.7863 35.9165 93.6308 36.5381 93.7657 37.4353L95.1789 46.5835C95.3197 47.4807 94.6981 48.3251 93.8009 48.46L84.6527 49.8733C83.7555 50.014 82.911 49.3924 82.7761 48.4952L81.3629 39.347C81.2221 38.4498 81.8437 37.6053 82.741 37.4705L91.8891 36.0572ZM91.7191 34.9723L82.5709 36.3856C81.0755 36.6143 80.0493 38.0158 80.278 39.5171L81.6913 48.6652C81.92 50.1606 83.3215 51.1869 84.8227 50.9582L93.9709 49.5449C95.4663 49.3162 96.4925 47.9146 96.2638 46.4134L94.8505 37.2652C94.6218 35.7698 93.2203 34.7436 91.7191 34.9723Z" fill="url(#paint12_linear_418_16786)"/>
<path d="M95.8579 61.7838C96.7551 61.643 97.5995 62.2646 97.7344 63.1618L99.1477 72.31C99.2884 73.2072 98.6668 74.0517 97.7696 74.1866L88.6214 75.5998C87.7242 75.7406 86.8798 75.119 86.7449 74.2217L85.3316 65.0736C85.1909 64.1764 85.8125 63.3319 86.7097 63.197L95.8579 61.7838ZM95.6878 60.6989L86.5396 62.1121C85.0443 62.3409 84.018 63.7424 84.2467 65.2436L85.66 74.3918C85.8887 75.8872 87.2903 76.9134 88.7915 76.6847L97.9397 75.2714C99.435 75.0427 100.461 73.6412 100.233 72.1399L98.8193 62.9918C98.5906 61.4964 97.189 60.4702 95.6878 60.6989Z" fill="url(#paint13_linear_418_16786)"/>
<path d="M99.8305 87.5035C100.728 87.3627 101.572 87.9844 101.707 88.8816L103.12 98.0297C103.261 98.927 102.639 99.7714 101.742 99.9063L92.5941 101.32C91.6969 101.46 90.8524 100.839 90.7175 99.9415L89.3043 90.7933C89.1635 89.8961 89.7851 89.0516 90.6823 88.9168L99.8305 87.5035ZM99.6605 86.4186L90.5123 87.8319C89.0169 88.0606 87.9907 89.4621 88.2194 90.9634L89.6327 100.112C89.8614 101.607 91.2629 102.633 92.7641 102.404L101.912 100.991C103.408 100.762 104.434 99.3609 104.205 97.8597L102.792 88.7115C102.563 87.2161 101.162 86.1899 99.6605 86.4186Z" fill="url(#paint14_linear_418_16786)"/>
<path d="M103.795 113.23C104.693 113.089 105.537 113.711 105.672 114.608L107.085 123.756C107.226 124.654 106.604 125.498 105.707 125.633L96.5589 127.046C95.6617 127.187 94.8173 126.565 94.6824 125.668L93.2691 116.52C93.1284 115.623 93.75 114.778 94.6472 114.643L103.795 113.23ZM103.625 112.145L94.4771 113.558C92.9818 113.787 91.9555 115.189 92.1842 116.69L93.5975 125.838C93.8262 127.333 95.2278 128.36 96.729 128.131L105.877 126.718C107.373 126.489 108.399 125.082 108.17 123.586L106.757 114.438C106.528 112.943 105.127 111.916 103.625 112.145Z" fill="url(#paint15_linear_418_16786)"/>
<path d="M89.0799 45.874C88.6929 45.9326 88.2941 45.8447 87.9657 45.6277L78.5654 39.3237C77.8441 38.8428 77.6505 37.8635 78.1314 37.1422C78.6181 36.4209 79.5916 36.2274 80.3129 36.7082L88.3469 42.0916L97.8469 26.4283C98.2984 25.6835 99.266 25.4489 100.011 25.9005C100.756 26.352 100.99 27.3196 100.539 28.0644L90.1824 45.1351C89.9595 45.5045 89.5959 45.7626 89.1737 45.8564C89.1385 45.8623 89.1092 45.8681 89.074 45.874H89.0799Z" fill="#6986D9"/>
<path d="M93.1619 72.3203C92.7749 72.3789 92.3761 72.291 92.0477 72.074L82.6474 65.77C81.9261 65.2832 81.7326 64.3098 82.2134 63.5885C82.7002 62.8672 83.6736 62.6736 84.3949 63.1545L92.4289 68.5379L101.929 52.8745C102.38 52.1298 103.348 51.8952 104.093 52.3468C104.838 52.7983 105.072 53.7659 104.621 54.5107L94.2644 71.5814C94.0416 71.9508 93.678 72.2089 93.2558 72.3027C93.2206 72.3085 93.1912 72.3144 93.1561 72.3203H93.1619Z" fill="#6986D9"/>
<path d="M97.2361 98.7636C96.8491 98.8223 96.4503 98.7343 96.1219 98.5173L86.7216 92.2133C86.0003 91.7266 85.8068 90.7531 86.2877 90.0318C86.7744 89.3105 87.7478 89.117 88.4691 89.5979L96.5031 94.9812L106.003 79.3179C106.455 78.5731 107.422 78.3386 108.167 78.7901C108.912 79.2417 109.146 80.2093 108.695 80.954L98.3386 98.0247C98.1158 98.3942 97.7522 98.6522 97.33 98.746C97.2948 98.7519 97.2655 98.7578 97.2303 98.7636H97.2361Z" fill="#6986D9"/>
<path d="M101.318 125.205C100.931 125.264 100.532 125.176 100.204 124.959L90.8036 118.655C90.0823 118.168 89.8888 117.189 90.3697 116.467C90.8564 115.746 91.8299 115.553 92.5512 116.039L100.585 121.423L110.085 105.765C110.537 105.02 111.504 104.786 112.249 105.237C112.994 105.689 113.228 106.657 112.777 107.401L102.421 124.472C102.198 124.841 101.834 125.099 101.412 125.193C101.377 125.199 101.347 125.205 101.312 125.211L101.318 125.205Z" fill="#6986D9"/>
<path d="M137.22 172.886C137.255 174.558 135.935 175.942 134.258 175.983L52.863 177.836C51.1917 177.877 49.8077 176.546 49.7667 174.874L47.2509 64.328C47.2099 62.6567 48.5352 61.2669 50.2065 61.2317L131.602 59.3845C133.273 59.3493 134.657 60.6687 134.698 62.34L137.214 172.886H137.22Z" fill="white"/>
<path d="M63.7415 74.1726C66.785 74.1022 69.3125 76.5183 69.3829 79.5618C69.4532 82.6053 67.0372 85.1328 63.9937 85.2032C60.9501 85.2736 58.4227 82.8516 58.3523 79.814C58.2819 76.7704 60.7038 74.243 63.7415 74.1726ZM63.7122 72.9646C59.9943 73.0467 57.0563 76.1312 57.1384 79.8433C57.2264 83.5612 60.3051 86.505 64.0171 86.4171C67.735 86.335 70.6789 83.2504 70.5909 79.5383C70.5088 75.8263 67.4242 72.8825 63.7122 72.9646Z" fill="white"/>
<path d="M64.3392 100.521C67.3827 100.451 69.9102 102.873 69.9805 105.916C70.0509 108.96 67.629 111.487 64.5913 111.558C61.5478 111.628 59.0203 109.206 58.9499 106.168C58.8796 103.125 61.3015 100.597 64.3392 100.527M64.3098 99.3191C60.5978 99.4012 57.654 102.486 57.7361 106.198C57.8182 109.916 60.9027 112.86 64.6148 112.772C68.3327 112.689 71.2765 109.605 71.1886 105.893C71.1065 102.181 68.0219 99.237 64.3098 99.3191Z" fill="white"/>
<path d="M64.9056 124.37C67.9491 124.299 70.4766 126.721 70.5469 129.759C70.6173 132.803 68.1954 135.33 65.1577 135.4C62.1142 135.471 59.5867 133.049 59.5164 130.011C59.446 126.968 61.8679 124.44 64.9056 124.37ZM64.8762 123.162C61.1583 123.244 58.2204 126.329 58.3025 130.041C58.3846 133.758 61.4691 136.702 65.1812 136.614C68.8932 136.526 71.8371 133.448 71.755 129.73C71.667 126.018 68.5883 123.074 64.8762 123.156V123.162Z" fill="white"/>
<path d="M65.4253 148.226C68.4689 148.155 70.9963 150.577 71.0667 153.615C71.1371 156.658 68.721 159.186 65.6775 159.256C62.634 159.327 60.1065 156.905 60.0361 153.867C59.9658 150.823 62.3877 148.296 65.4253 148.226ZM65.396 147.012C61.6781 147.094 58.7343 150.178 58.8222 153.89C58.9043 157.608 61.9889 160.552 65.701 160.464C69.413 160.382 72.3568 157.298 72.2747 153.585C72.1868 149.868 69.1081 146.924 65.396 147.012Z" fill="white"/>
<path d="M78.3579 75.4293L124.885 74.3737C125.055 74.3737 125.184 74.233 125.178 74.0629C125.178 73.8929 125.037 73.7639 124.867 73.7697L78.3403 74.8253C78.1702 74.8253 78.0412 74.966 78.0471 75.1361C78.0471 75.3061 78.1878 75.4352 78.3579 75.4293Z" fill="url(#paint16_linear_418_16786)"/>
<path d="M78.4516 79.6634L121.9 78.6782C122.07 78.6782 122.199 78.5375 122.193 78.3674C122.193 78.1974 122.052 78.0684 121.882 78.0684L78.434 79.0535C78.2698 79.0535 78.1349 79.1943 78.1408 79.3643C78.1408 79.5344 78.2815 79.6634 78.4516 79.6576V79.6634Z" fill="url(#paint17_linear_418_16786)"/>
<path d="M78.551 83.8907L99.2928 83.4157C99.457 83.4157 99.5918 83.275 99.586 83.1049C99.586 82.9349 99.4452 82.8059 99.2752 82.8117L78.5334 83.2809C78.3634 83.2809 78.2344 83.4216 78.2344 83.5917C78.2344 83.7617 78.3751 83.8907 78.5452 83.8907H78.551Z" fill="url(#paint18_linear_418_16786)"/>
<path d="M101.797 82.7592C101.627 82.7592 101.498 82.9 101.504 83.07C101.504 83.2401 101.645 83.3691 101.815 83.3691L114.429 83.0817C114.593 83.0817 114.728 82.941 114.722 82.7709C114.722 82.6067 114.581 82.4719 114.411 82.4777L101.797 82.7651V82.7592Z" fill="url(#paint19_linear_418_16786)"/>
<path d="M78.9555 101.778L114.833 100.963C114.997 100.963 115.132 100.816 115.126 100.652C115.126 100.488 114.985 100.353 114.815 100.359L78.9379 101.174C78.7737 101.174 78.6389 101.314 78.6447 101.485C78.6447 101.655 78.7855 101.784 78.9555 101.784V101.778Z" fill="url(#paint20_linear_418_16786)"/>
<path d="M79.051 106.011L108.624 105.337C108.794 105.337 108.923 105.196 108.917 105.026C108.917 104.862 108.777 104.727 108.607 104.733L79.0334 105.407C78.8692 105.407 78.7344 105.548 78.7344 105.718C78.7344 105.888 78.8751 106.017 79.0452 106.017L79.051 106.011Z" fill="url(#paint21_linear_418_16786)"/>
<path d="M79.1487 110.24L99.8904 109.771C100.06 109.771 100.189 109.625 100.184 109.46C100.184 109.296 100.043 109.161 99.8728 109.167L79.1311 109.636C78.961 109.636 78.832 109.777 78.832 109.947C78.832 110.111 78.9728 110.246 79.1428 110.24H79.1487Z" fill="url(#paint22_linear_418_16786)"/>
<path d="M123.342 108.932C123.342 108.762 123.201 108.633 123.031 108.639L102.395 109.108C102.225 109.108 102.096 109.249 102.102 109.419C102.102 109.583 102.242 109.718 102.413 109.712L123.049 109.243C123.219 109.243 123.348 109.102 123.342 108.932Z" fill="url(#paint23_linear_418_16786)"/>
<path d="M110.735 104.984C110.735 105.148 110.875 105.283 111.045 105.277L127.928 104.89C128.099 104.89 128.228 104.75 128.222 104.58C128.222 104.409 128.081 104.28 127.911 104.286L111.028 104.668C110.858 104.668 110.729 104.808 110.735 104.978V104.984Z" fill="url(#paint24_linear_418_16786)"/>
<path d="M79.4985 125.633L110.514 124.929C110.679 124.929 110.813 124.789 110.808 124.619C110.808 124.449 110.667 124.32 110.497 124.325L79.4809 125.029C79.3167 125.029 79.1818 125.17 79.1877 125.34C79.1877 125.504 79.3284 125.639 79.4985 125.633Z" fill="url(#paint25_linear_418_16786)"/>
<path d="M79.5962 129.861L123.044 128.876C123.214 128.876 123.343 128.729 123.337 128.565C123.337 128.401 123.197 128.266 123.026 128.272L79.5786 129.257C79.4085 129.257 79.2795 129.398 79.2853 129.568C79.2853 129.738 79.4261 129.867 79.5962 129.861Z" fill="url(#paint26_linear_418_16786)"/>
<path d="M79.686 134.095L100.428 133.626C100.592 133.626 100.727 133.479 100.721 133.315C100.721 133.145 100.58 133.016 100.41 133.022L79.6684 133.491C79.5042 133.491 79.3693 133.632 79.3752 133.802C79.3752 133.966 79.5159 134.101 79.686 134.095Z" fill="url(#paint27_linear_418_16786)"/>
<path d="M113.383 124.857L126.026 124.57C126.191 124.57 126.325 124.423 126.32 124.259C126.32 124.089 126.179 123.96 126.009 123.966L113.365 124.253C113.195 124.253 113.066 124.394 113.066 124.564C113.066 124.734 113.213 124.863 113.377 124.857H113.383Z" fill="url(#paint28_linear_418_16786)"/>
<path d="M80.0415 149.483L99.9974 149.031C100.167 149.031 100.296 148.89 100.291 148.72C100.291 148.55 100.15 148.421 99.9798 148.427L80.0239 148.878C79.8538 148.878 79.7248 149.019 79.7307 149.189C79.7307 149.353 79.8714 149.488 80.0415 149.483Z" fill="url(#paint29_linear_418_16786)"/>
<path d="M80.1333 153.716L110.645 153.024C110.809 153.024 110.944 152.883 110.938 152.713C110.938 152.549 110.797 152.414 110.627 152.42L80.1215 153.112C79.9515 153.112 79.8225 153.253 79.8283 153.423C79.8283 153.593 79.9691 153.722 80.1391 153.722L80.1333 153.716Z" fill="url(#paint30_linear_418_16786)"/>
<path d="M98.1557 156.93L80.217 157.34C80.0529 157.34 79.918 157.487 79.918 157.651C79.918 157.821 80.0587 157.95 80.2288 157.944L98.1674 157.534C98.3375 157.534 98.4665 157.393 98.4665 157.223C98.4665 157.053 98.3257 156.924 98.1557 156.924V156.93Z" fill="url(#paint31_linear_418_16786)"/>
<path d="M124.121 156.343L103.485 156.812C103.321 156.812 103.186 156.953 103.192 157.123C103.192 157.287 103.332 157.422 103.502 157.416L124.139 156.947C124.303 156.947 124.438 156.806 124.432 156.636C124.432 156.466 124.291 156.337 124.121 156.343Z" fill="url(#paint32_linear_418_16786)"/>
<path d="M128.9 147.765L103.291 148.345C103.121 148.345 102.992 148.486 102.992 148.656C102.992 148.82 103.133 148.955 103.303 148.949L128.912 148.369C129.076 148.369 129.211 148.228 129.205 148.058C129.205 147.888 129.064 147.759 128.894 147.765H128.9Z" fill="url(#paint33_linear_418_16786)"/>
<path d="M128.995 151.999L112.182 152.38C112.012 152.38 111.883 152.527 111.883 152.691C111.883 152.861 112.024 152.99 112.194 152.99L129.006 152.609C129.176 152.609 129.305 152.468 129.3 152.298C129.3 152.128 129.159 151.999 128.989 152.005L128.995 151.999Z" fill="url(#paint34_linear_418_16786)"/>
<path d="M64.525 109.646C64.1908 109.652 63.8624 109.535 63.6102 109.312L56.3738 102.955C55.8167 102.469 55.7639 101.618 56.2506 101.067C56.7373 100.51 57.5876 100.457 58.1389 100.944L64.3198 106.374L74.0661 94.2177C74.5294 93.6371 75.3738 93.5492 75.9485 94.0066C76.5232 94.4699 76.617 95.3143 76.1537 95.889L65.5337 109.142C65.3049 109.429 64.9707 109.605 64.6071 109.641C64.5778 109.641 64.5485 109.641 64.5191 109.641L64.525 109.646Z" fill="url(#paint35_linear_418_16786)"/>
<path d="M63.8922 81.8436C63.5579 81.8495 63.2295 81.7322 62.9774 81.5093L55.7409 75.1525C55.1838 74.6658 55.1311 73.8155 55.6178 73.2642C56.1045 72.7071 56.9548 72.6544 57.5061 73.1411L63.687 78.5714L73.4333 66.4148C73.8965 65.8343 74.741 65.7463 75.3157 66.2096C75.8904 66.6729 75.9842 67.5173 75.5209 68.092L64.9008 81.3451C64.6721 81.6325 64.3379 81.8084 63.9743 81.8436C63.945 81.8436 63.9157 81.8436 63.8863 81.8436H63.8922Z" fill="url(#paint36_linear_418_16786)"/>
<path d="M65.0602 133.196C64.7259 133.202 64.3975 133.085 64.1454 132.862L56.9089 126.505C56.3518 126.018 56.299 125.168 56.7858 124.617C57.2725 124.06 58.1228 124.007 58.674 124.494L64.8549 129.924L74.6012 117.767C75.0645 117.193 75.9031 117.099 76.4837 117.562C77.0583 118.026 77.1522 118.87 76.6889 119.445L66.0688 132.698C65.8401 132.985 65.5058 133.161 65.1423 133.196C65.1129 133.196 65.0836 133.196 65.0543 133.196H65.0602Z" fill="url(#paint37_linear_418_16786)"/>
<path d="M65.5875 156.208C65.2533 156.214 64.9249 156.096 64.6727 155.874L57.4363 149.517C56.8792 149.03 56.8264 148.18 57.3131 147.629C57.7998 147.071 58.6501 147.019 59.2014 147.505L65.3823 152.936L75.1286 140.779C75.5919 140.199 76.4363 140.111 77.011 140.574C77.5857 141.037 77.6795 141.876 77.2221 142.456L66.602 155.709C66.3733 155.997 66.0391 156.173 65.6755 156.208C65.6462 156.208 65.6168 156.208 65.5934 156.208H65.5875Z" fill="url(#paint38_linear_418_16786)"/>
<path d="M208.832 8.76444C208.832 11.8901 206.299 14.4293 203.167 14.4293H127.067C123.942 14.4293 121.402 11.8959 121.402 8.76444C121.402 5.63881 123.936 3.09961 127.067 3.09961H203.167C206.293 3.09961 208.832 5.63295 208.832 8.76444Z" fill="url(#paint39_linear_418_16786)"/>
<path d="M208.833 8.76444C208.833 5.63881 206.3 3.09961 203.169 3.09961H192.871V14.4293H203.169C206.294 14.4293 208.833 11.8959 208.833 8.76444Z" fill="#D8E5FE"/>
<path d="M202.219 6.28484C201.281 5.32897 199.733 5.31724 198.783 6.26138C197.827 7.19966 197.815 8.74194 198.759 9.69781C199.61 10.5598 200.953 10.6478 201.909 9.9617L203.744 11.8207C203.891 11.9673 204.125 11.9673 204.278 11.8207C204.424 11.674 204.424 11.4395 204.278 11.287L202.442 9.42806C203.14 8.48392 203.075 7.14101 202.219 6.27897V6.28484ZM201.668 9.18762C201.011 9.83855 199.944 9.82682 199.293 9.17003C198.642 8.51324 198.648 7.44595 199.311 6.79502C199.967 6.1441 201.035 6.14996 201.686 6.81262C202.337 7.46941 202.331 8.5367 201.668 9.18762Z" fill="white"/>
<path d="M179.084 222.088C178.058 223.325 176.223 223.495 174.979 222.469L106.591 165.715C105.354 164.689 105.184 162.848 106.21 161.61L186.409 64.9739C187.435 63.7365 189.271 63.5665 190.514 64.5927L258.902 121.347C260.14 122.373 260.31 124.208 259.283 125.451L179.084 222.094V222.088Z" fill="white"/>
<path d="M191.076 207.016C190.279 208.412 188.502 208.898 187.1 208.101L109.91 164.055C108.514 163.257 108.027 161.475 108.825 160.079L171.062 51.0045C171.859 49.6089 173.636 49.1221 175.038 49.9197L252.228 93.9658C253.624 94.7633 254.111 96.5401 253.313 97.9417L191.076 207.022V207.016Z" fill="#D8E5FE"/>
<path d="M171.111 65.0433L238.339 103.401C238.48 103.483 238.655 103.43 238.738 103.29C238.82 103.149 238.767 102.973 238.626 102.891L171.399 64.5272C171.258 64.4451 171.082 64.4979 171 64.6386C170.918 64.7794 170.971 64.9553 171.106 65.0374L171.111 65.0433Z" fill="url(#paint40_linear_418_16786)"/>
<path d="M168.103 70.3218L210.659 94.6055C210.8 94.6876 210.976 94.6348 211.058 94.4999C211.14 94.3592 211.087 94.1832 210.947 94.1011L168.384 69.8174C168.244 69.7353 168.068 69.7881 167.986 69.923C167.909 70.0637 167.956 70.2397 168.097 70.3218H168.103Z" fill="url(#paint41_linear_418_16786)"/>
<path d="M213.098 95.3262C212.957 95.2441 212.781 95.2969 212.699 95.4318C212.617 95.5725 212.67 95.7485 212.81 95.8305L233.734 107.77C233.875 107.852 234.051 107.799 234.133 107.665C234.215 107.524 234.162 107.348 234.021 107.266L213.104 95.3262H213.098Z" fill="url(#paint42_linear_418_16786)"/>
<path d="M165.09 75.5923L224.477 109.482C224.618 109.564 224.794 109.511 224.876 109.376C224.958 109.235 224.905 109.059 224.77 108.977L165.383 75.0879C165.242 75.0058 165.067 75.0586 164.984 75.1935C164.902 75.3342 164.955 75.5102 165.09 75.5923Z" fill="url(#paint43_linear_418_16786)"/>
<path d="M162.082 80.8704L211.283 108.942C211.423 109.024 211.599 108.972 211.681 108.837C211.764 108.696 211.711 108.52 211.576 108.438L162.375 80.3661C162.234 80.284 162.059 80.3367 161.976 80.4775C161.894 80.6182 161.947 80.7942 162.088 80.8763L162.082 80.8704Z" fill="url(#paint44_linear_418_16786)"/>
<path d="M159.074 86.1429L219.98 120.894C220.121 120.976 220.297 120.923 220.379 120.789C220.461 120.648 220.408 120.472 220.273 120.39L159.368 85.6327C159.227 85.5506 159.051 85.6034 158.969 85.7441C158.887 85.8848 158.939 86.0608 159.074 86.1429Z" fill="url(#paint45_linear_418_16786)"/>
<path d="M156.065 91.4204L207.019 120.495C207.159 120.577 207.335 120.524 207.417 120.384C207.5 120.243 207.447 120.067 207.306 119.985L156.352 90.9102C156.211 90.8281 156.035 90.8809 155.953 91.0158C155.871 91.1565 155.924 91.3324 156.059 91.4145L156.065 91.4204Z" fill="url(#paint46_linear_418_16786)"/>
<path d="M153.055 96.6919L209.41 128.845C209.551 128.922 209.727 128.875 209.809 128.734C209.891 128.593 209.838 128.417 209.703 128.335L153.348 96.1817C153.207 96.0996 153.031 96.1524 152.949 96.2872C152.867 96.428 152.92 96.6039 153.055 96.686V96.6919Z" fill="url(#paint47_linear_418_16786)"/>
<path d="M150.041 101.971L195.852 128.114C195.993 128.19 196.169 128.143 196.251 128.002C196.333 127.861 196.28 127.686 196.14 127.603L150.328 101.467C150.188 101.385 150.012 101.437 149.93 101.578C149.847 101.719 149.9 101.895 150.041 101.977V101.971Z" fill="url(#paint48_linear_418_16786)"/>
<path d="M199.348 129.432C199.207 129.35 199.031 129.402 198.949 129.537C198.867 129.678 198.92 129.854 199.06 129.936L209.857 136.093C209.997 136.176 210.173 136.123 210.255 135.988C210.332 135.847 210.285 135.671 210.144 135.589L199.348 129.426V129.432Z" fill="url(#paint49_linear_418_16786)"/>
<path d="M147.035 107.243L211.289 143.906C211.43 143.988 211.606 143.935 211.688 143.8C211.77 143.659 211.718 143.483 211.577 143.401L147.329 106.738C147.188 106.656 147.012 106.709 146.93 106.844C146.848 106.985 146.9 107.161 147.035 107.243Z" fill="url(#paint50_linear_418_16786)"/>
<path d="M211.54 150.373L144.313 112.009C144.172 111.927 143.996 111.98 143.914 112.114C143.832 112.255 143.885 112.431 144.02 112.513L211.247 150.871C211.388 150.953 211.564 150.9 211.646 150.765C211.722 150.625 211.675 150.449 211.534 150.367L211.54 150.373Z" fill="url(#paint51_linear_418_16786)"/>
<path d="M141.018 117.792L183.574 142.076C183.715 142.158 183.891 142.105 183.973 141.965C184.055 141.824 184.002 141.648 183.867 141.566L141.305 117.282C141.164 117.2 140.988 117.253 140.906 117.388C140.824 117.529 140.877 117.705 141.018 117.787V117.792Z" fill="url(#paint52_linear_418_16786)"/>
<path d="M206.936 154.737L186.012 142.797C185.871 142.721 185.695 142.768 185.613 142.908C185.531 143.049 185.584 143.225 185.719 143.307L206.642 155.247C206.783 155.323 206.959 155.276 207.041 155.135C207.123 154.995 207.07 154.819 206.93 154.737H206.936Z" fill="url(#paint53_linear_418_16786)"/>
<path d="M138.004 123.064L197.391 156.953C197.531 157.035 197.707 156.983 197.789 156.848C197.872 156.707 197.819 156.531 197.684 156.449L138.297 122.56C138.156 122.478 137.98 122.53 137.898 122.665C137.816 122.806 137.869 122.982 138.01 123.064H138.004Z" fill="url(#paint54_linear_418_16786)"/>
<path d="M134.996 128.341L184.196 156.413C184.337 156.49 184.513 156.443 184.595 156.302C184.671 156.161 184.624 155.985 184.484 155.903L135.283 127.831C135.142 127.749 134.966 127.802 134.884 127.937C134.802 128.077 134.849 128.253 134.99 128.335L134.996 128.341Z" fill="url(#paint55_linear_418_16786)"/>
<path d="M131.986 133.613L192.892 168.364C193.033 168.446 193.209 168.394 193.291 168.253C193.373 168.112 193.32 167.936 193.18 167.854L132.274 133.103C132.133 133.026 131.957 133.073 131.875 133.214C131.793 133.355 131.846 133.531 131.981 133.613H131.986Z" fill="url(#paint56_linear_418_16786)"/>
<path d="M128.977 138.891L179.931 167.966C180.071 168.042 180.247 167.995 180.329 167.854C180.411 167.714 180.359 167.538 180.224 167.456L129.27 138.381C129.129 138.299 128.953 138.352 128.871 138.486C128.789 138.627 128.842 138.803 128.982 138.885L128.977 138.891Z" fill="url(#paint57_linear_418_16786)"/>
<path d="M125.963 144.164L182.318 176.317C182.459 176.399 182.635 176.346 182.717 176.212C182.799 176.071 182.746 175.895 182.611 175.813L126.262 143.659C126.121 143.583 125.945 143.63 125.863 143.771C125.781 143.912 125.834 144.087 125.969 144.17L125.963 144.164Z" fill="url(#paint58_linear_418_16786)"/>
<path d="M122.955 149.44L168.766 175.577C168.907 175.659 169.083 175.606 169.165 175.471C169.247 175.331 169.195 175.155 169.054 175.073L123.243 148.936C123.102 148.854 122.926 148.901 122.844 149.041C122.762 149.182 122.814 149.358 122.949 149.44H122.955Z" fill="url(#paint59_linear_418_16786)"/>
<path d="M172.259 176.903C172.119 176.826 171.943 176.873 171.861 177.014C171.784 177.155 171.831 177.331 171.972 177.413L182.768 183.576C182.909 183.658 183.085 183.605 183.167 183.465C183.249 183.324 183.196 183.148 183.055 183.066L172.259 176.903Z" fill="url(#paint60_linear_418_16786)"/>
<path d="M184.489 190.871L120.235 154.208C120.094 154.126 119.918 154.179 119.836 154.319C119.754 154.46 119.806 154.636 119.947 154.718L184.196 191.381C184.336 191.463 184.512 191.41 184.594 191.276C184.676 191.135 184.624 190.959 184.489 190.877V190.871Z" fill="url(#paint61_linear_418_16786)"/>
<path d="M192.337 114.977C191.686 116.695 189.762 117.557 188.05 116.901L150.296 102.539C148.578 101.888 147.716 99.9648 148.373 98.2525L163.854 57.549C164.505 55.8308 166.428 54.9687 168.141 55.6255L205.895 69.987C207.613 70.6379 208.475 72.5614 207.818 74.2737L192.337 114.977Z" fill="#8FB3FF"/>
<path d="M191.734 54.4418C189.535 53.1868 186.462 53.1809 184.562 55.3566L186.444 56.4297C187.641 55.4035 189.371 55.4973 190.702 56.2597C192.332 57.1862 192.895 59.268 191.969 60.8924L185.494 72.2455C184.656 73.7174 183.026 74.7495 181.278 73.7526C179.654 72.8261 179.085 70.7443 180.011 69.1199L182.897 64.0591C183.184 63.5547 183.008 62.9214 182.51 62.6341C182.005 62.3467 181.372 62.5226 181.085 63.027L178.193 68.0878C176.692 70.7149 177.613 74.0751 180.24 75.5764C182.762 77.0131 185.735 76.0514 187.306 73.2893L193.781 61.9362C195.282 59.3091 194.361 55.9489 191.734 54.4476V54.4418Z" fill="#1D0C8C"/>
<path d="M164.546 152.409H77.609V141.941C77.609 140.176 76.1782 138.751 74.4189 138.751H29.1003C27.3352 138.751 25.9102 140.182 25.9102 141.941V229.377C25.9102 231.142 27.341 232.567 29.1003 232.567H164.546C166.311 232.567 167.736 231.136 167.736 229.377V155.593C167.736 153.828 166.305 152.403 164.546 152.403V152.409Z" fill="#3652CD"/>
<path d="M246.053 204.921L193.776 206.885C193.776 206.885 193.776 193.369 176.507 191.16C176.507 191.16 167.193 184.926 162.307 171.185C159.245 162.594 151.03 164.184 151.296 173.545C151.526 181.578 158.307 195.575 158.307 195.575L136.412 201.174C136.412 201.174 139.036 220.22 141.569 224.278C144.103 228.337 167.582 238.001 181.691 229.473L223.962 243.024L246.049 204.918L246.053 204.921Z" fill="#F6A9A3"/>
<path d="M180.955 207.752C178.831 206.756 176.7 205.85 174.314 205.886C171.422 205.929 168.478 207.625 166.247 209.322C165.912 209.575 165.593 209.008 165.921 208.756C168.327 206.931 171.258 205.439 174.319 205.236C176.758 205.071 179.131 206.176 181.282 207.188C181.662 207.366 181.335 207.93 180.955 207.752Z" fill="#DB6356"/>
<path d="M142.042 185.232L149.455 183.795L144.286 157.899L136.869 159.34L142.042 185.232Z" fill="#BDD0FB"/>
<g style="mix-blend-mode:multiply" opacity="0.5">
<path d="M140.584 158.617L136.875 159.34L142.047 185.231L145.754 184.513L140.584 158.617Z" fill="#BDD0FB"/>
</g>
<path d="M147.108 227.84C147.838 231.588 151.463 234.037 155.216 233.31C158.965 232.581 161.414 228.956 160.691 225.205L152.149 181.16C151.419 177.411 147.789 174.96 144.043 175.685C140.295 176.414 137.843 180.044 138.568 183.79L147.111 227.835L147.108 227.84Z" fill="#1D0C8C"/>
<path d="M96.6029 133.602C100.657 154.507 120.89 168.165 141.799 164.114C162.704 160.06 176.363 139.827 172.311 118.917C168.257 98.0128 148.024 84.3542 127.119 88.4081C106.214 92.4621 92.5533 112.7 96.6073 133.605L96.6029 133.602ZM128.357 94.824C145.721 91.4551 162.521 102.8 165.89 120.164C169.255 137.526 157.914 154.329 140.55 157.697C123.186 161.066 106.386 149.721 103.017 132.357C99.648 114.993 110.993 98.1928 128.357 94.824Z" fill="#1D0C8C"/>
<path d="M98.0783 133.318C101.979 153.41 121.424 166.541 141.513 162.644C161.607 158.75 174.736 139.299 170.839 119.209C166.945 99.1155 147.494 85.9867 127.404 89.8833C107.31 93.7774 94.1817 113.229 98.0783 133.318ZM128.366 94.8262C145.73 91.4573 162.53 102.802 165.899 120.166C169.264 137.528 157.923 154.331 140.559 157.7C123.195 161.069 106.394 149.724 103.026 132.359C99.6567 114.995 111.002 98.195 128.366 94.8262Z" fill="#8199FD"/>
<path style="mix-blend-mode:screen" opacity="0.7" d="M103.02 132.36C106.385 149.721 123.192 161.064 140.553 157.7C157.915 154.335 169.258 137.528 165.894 120.167C162.529 102.805 145.722 91.4619 128.36 94.8263C110.999 98.1908 99.6512 114.996 103.02 132.36Z" fill="url(#paint62_linear_418_16786)"/>
<path d="M139.828 153.526C139.963 154.593 139.205 155.566 138.138 155.701C130.507 156.659 122.902 154.647 116.712 150.041C115.494 149.135 114.343 148.126 113.282 147.052C112.526 146.284 112.54 145.051 113.308 144.295C113.473 144.131 113.666 144.002 113.866 143.912C114.591 143.584 115.473 143.719 116.066 144.321C116.985 145.254 117.985 146.128 119.041 146.917C124.414 150.92 131.025 152.668 137.653 151.835C138.72 151.7 139.693 152.459 139.828 153.526Z" fill="white"/>
<path d="M110.996 136.921C111.443 137.898 111.006 139.057 110.025 139.501C109.043 139.945 107.888 139.511 107.444 138.529C105.753 134.806 104.858 130.855 104.785 126.798C104.772 125.996 105.242 125.297 105.928 124.988C106.16 124.881 106.427 124.818 106.698 124.816C107.774 124.798 108.662 125.654 108.68 126.73C108.741 130.251 109.519 133.681 110.988 136.916L110.996 136.921Z" fill="white"/>
<path d="M133.349 203.346C130.658 200.332 128.421 193.82 133.19 190.874C137.959 187.928 154.241 183.461 161.036 189.643C165.647 193.834 161.078 198.944 153.132 200.679C145.186 202.413 133.352 203.342 133.352 203.342L133.349 203.346Z" fill="#F6A9A3"/>
<path d="M158.942 198.784C160.967 197.616 162.331 196.157 162.825 194.542C163.358 192.791 162.807 190.988 161.223 189.334C159.122 187.139 155.775 186.494 153.338 186.342C153.156 186.33 153.007 186.467 152.991 186.646C152.98 186.828 153.117 186.978 153.291 186.991C155.615 187.137 158.79 187.742 160.747 189.788C162.158 191.265 162.66 192.846 162.198 194.355C161.408 196.947 157.886 199.214 153.007 200.278C152.832 200.317 152.721 200.488 152.76 200.664C152.799 200.84 152.97 200.951 153.146 200.912C155.411 200.417 157.371 199.687 158.937 198.782L158.942 198.784Z" fill="#DB6356"/>
<path d="M137.037 213.888C132.813 212.035 128.79 204.646 134.999 201.063C139.855 198.262 159.618 192.439 166.413 198.621C171.024 202.812 166.187 207.126 158.241 208.86C150.296 210.595 137.04 213.884 137.04 213.884L137.037 213.888Z" fill="#F6A9A3"/>
<path d="M164.769 206.825C166.735 205.687 168.026 204.334 168.409 202.901C168.691 201.835 168.618 200.185 166.636 198.383C162.835 194.926 155.457 195.265 149.932 196.154C143.79 197.144 137.436 199.289 134.841 200.781C134.685 200.867 134.634 201.067 134.72 201.223C134.806 201.379 135.011 201.433 135.165 201.34C140.146 198.464 159.621 192.875 166.199 198.854C167.596 200.129 168.132 201.428 167.781 202.726C167.128 205.161 163.449 207.385 158.173 208.536C157.997 208.575 157.886 208.746 157.925 208.922C157.965 209.098 158.136 209.209 158.312 209.17C160.866 208.613 163.07 207.795 164.769 206.814L164.769 206.825Z" fill="#DB6356"/>
<path d="M136.432 212.612C138.105 211.645 140.671 210.59 143.607 209.719C147.94 208.439 153.087 207.572 157.371 208.042C159.812 208.309 161.978 209.011 163.554 210.313C167.188 213.326 164.959 216.096 159.442 218.697C158.479 219.151 157.417 219.601 156.265 220.046C152.344 221.559 147.859 222.391 146.123 222.674L146.305 223.609L147.125 227.841C147.214 228.298 147.349 228.735 147.519 229.152C144.194 228.084 140.32 226.451 137.404 224.066C133.833 221.148 131.441 215.494 136.434 212.608L136.432 212.612Z" fill="#F6A9A3"/>
<path d="M146.825 222.834C148.378 222.592 152.456 221.865 156.383 220.35C162.239 218.088 165.258 215.917 165.617 213.712C165.819 212.48 165.194 211.253 163.764 210.065C160.216 207.125 154.159 207.329 149.696 208.01C144.098 208.873 138.92 210.799 136.271 212.331C136.115 212.418 136.064 212.617 136.155 212.776C136.246 212.934 136.445 212.986 136.6 212.892C141.81 209.885 157.197 205.458 163.352 210.562C164.591 211.592 165.14 212.616 164.978 213.606C164.66 215.535 161.692 217.6 156.149 219.738C151.266 221.623 146.143 222.274 146.093 222.28C145.966 222.295 145.865 222.378 145.826 222.496C145.787 222.615 145.818 222.745 145.904 222.83L146.824 222.827L146.825 222.834Z" fill="#DB6356"/>
<path d="M185.666 149.044C184.44 147.255 194.439 135.145 197.394 133.111L264.159 87.2993C267.12 85.2703 274.474 95.9842 271.512 98.0191L204.748 143.83C201.787 145.859 186.886 150.826 185.66 149.044H185.666Z" fill="white"/>
<path d="M197.188 133.269C197.434 135.111 198.437 137.21 199.873 139.298C201.31 141.391 202.905 143.08 204.535 143.977C204.617 143.931 204.688 143.878 204.758 143.837L264.638 102.752C264.731 100.676 264.075 98.3421 262.632 96.2427C261.195 94.1492 259.254 92.689 257.284 92.0322L197.404 133.117C197.34 133.164 197.264 133.217 197.193 133.269H197.188Z" fill="#1D0C8C"/>
<g style="mix-blend-mode:multiply">
<path d="M265.944 93.9659C267.345 96.0067 268.072 98.2527 268.154 100.329L271.515 98.024C274.476 95.9891 267.117 85.2752 264.161 87.3042L260.801 89.6088C262.707 90.4298 264.542 91.9252 265.944 93.9659Z" fill="#8199FD"/>
</g>
<g style="mix-blend-mode:multiply">
<path d="M186.952 145.437C185.885 147.166 185.31 148.533 185.662 149.049C186.014 149.559 187.497 149.518 189.497 149.143C189.521 148.363 189.304 147.565 188.829 146.873C188.354 146.181 187.691 145.695 186.952 145.437Z" fill="#8199FD"/>
</g>
<path d="M262.626 96.2427C261.19 94.1492 259.248 92.689 257.278 92.0322L197.399 133.117C197.334 133.164 197.258 133.217 197.188 133.269C197.434 135.111 198.437 137.21 199.873 139.298" fill="#3652CD"/>
<defs>
<linearGradient id="paint0_linear_418_16786" x1="-2.80114" y1="43.845" x2="92.6648" y2="29.1173" gradientUnits="userSpaceOnUse">
<stop stop-color="#6986D9"/>
<stop offset="1" stop-color="#8FB3FF"/>
</linearGradient>
<linearGradient id="paint1_linear_418_16786" x1="-0.437876" y1="59.1622" x2="95.0397" y2="44.4327" gradientUnits="userSpaceOnUse">
<stop stop-color="#6986D9"/>
<stop offset="1" stop-color="#8FB3FF"/>
</linearGradient>
<linearGradient id="paint2_linear_418_16786" x1="-0.434788" y1="59.1625" x2="95.0369" y2="44.4339" gradientUnits="userSpaceOnUse">
<stop stop-color="#6986D9"/>
<stop offset="1" stop-color="#8FB3FF"/>
</linearGradient>
<linearGradient id="paint3_linear_418_16786" x1="2.40394" y1="77.5984" x2="97.8757" y2="62.8698" gradientUnits="userSpaceOnUse">
<stop stop-color="#6986D9"/>
<stop offset="1" stop-color="#8FB3FF"/>
</linearGradient>
<linearGradient id="paint4_linear_418_16786" x1="3.97765" y1="87.7698" x2="99.4436" y2="73.0421" gradientUnits="userSpaceOnUse">
<stop stop-color="#6986D9"/>
<stop offset="1" stop-color="#8FB3FF"/>
</linearGradient>
<linearGradient id="paint5_linear_418_16786" x1="3.97544" y1="87.77" x2="99.453" y2="73.0405" gradientUnits="userSpaceOnUse">
<stop stop-color="#6986D9"/>
<stop offset="1" stop-color="#8FB3FF"/>
</linearGradient>
<linearGradient id="paint6_linear_418_16786" x1="6.30263" y1="102.815" x2="101.774" y2="88.0859" gradientUnits="userSpaceOnUse">
<stop stop-color="#6986D9"/>
<stop offset="1" stop-color="#8FB3FF"/>
</linearGradient>
<linearGradient id="paint7_linear_418_16786" x1="6.29681" y1="102.816" x2="101.774" y2="88.0863" gradientUnits="userSpaceOnUse">
<stop stop-color="#6986D9"/>
<stop offset="1" stop-color="#8FB3FF"/>
</linearGradient>
<linearGradient id="paint8_linear_418_16786" x1="7.87245" y1="112.986" x2="103.344" y2="98.2577" gradientUnits="userSpaceOnUse">
<stop stop-color="#6986D9"/>
<stop offset="1" stop-color="#8FB3FF"/>
</linearGradient>
<linearGradient id="paint9_linear_418_16786" x1="10.1916" y1="128.032" x2="105.663" y2="113.303" gradientUnits="userSpaceOnUse">
<stop stop-color="#6986D9"/>
<stop offset="1" stop-color="#8FB3FF"/>
</linearGradient>
<linearGradient id="paint10_linear_418_16786" x1="10.1854" y1="128.033" x2="105.663" y2="113.303" gradientUnits="userSpaceOnUse">
<stop stop-color="#6986D9"/>
<stop offset="1" stop-color="#8FB3FF"/>
</linearGradient>
<linearGradient id="paint11_linear_418_16786" x1="11.7624" y1="138.209" x2="107.234" y2="123.481" gradientUnits="userSpaceOnUse">
<stop stop-color="#6986D9"/>
<stop offset="1" stop-color="#8FB3FF"/>
</linearGradient>
<linearGradient id="paint12_linear_418_16786" x1="98.8054" y1="111.21" x2="86.9755" y2="34.5276" gradientUnits="userSpaceOnUse">
<stop stop-color="#6986D9"/>
<stop offset="1" stop-color="#8FB3FF"/>
</linearGradient>
<linearGradient id="paint13_linear_418_16786" x1="98.8041" y1="111.21" x2="86.9741" y2="34.5278" gradientUnits="userSpaceOnUse">
<stop stop-color="#6986D9"/>
<stop offset="1" stop-color="#8FB3FF"/>
</linearGradient>
<linearGradient id="paint14_linear_418_16786" x1="98.8067" y1="111.209" x2="86.9767" y2="34.5271" gradientUnits="userSpaceOnUse">
<stop stop-color="#6986D9"/>
<stop offset="1" stop-color="#8FB3FF"/>
</linearGradient>
<linearGradient id="paint15_linear_418_16786" x1="98.8073" y1="111.21" x2="86.9774" y2="34.5274" gradientUnits="userSpaceOnUse">
<stop stop-color="#6986D9"/>
<stop offset="1" stop-color="#8FB3FF"/>
</linearGradient>
<linearGradient id="paint16_linear_418_16786" x1="141.247" y1="68.4523" x2="30.7097" y2="85.6191" gradientUnits="userSpaceOnUse">
<stop stop-color="#6986D9"/>
<stop offset="1" stop-color="#8FB3FF"/>
</linearGradient>
<linearGradient id="paint17_linear_418_16786" x1="141.858" y1="72.4038" x2="31.3212" y2="89.5648" gradientUnits="userSpaceOnUse">
<stop stop-color="#6986D9"/>
<stop offset="1" stop-color="#8FB3FF"/>
</linearGradient>
<linearGradient id="paint18_linear_418_16786" x1="142.277" y1="75.08" x2="31.7395" y2="92.241" gradientUnits="userSpaceOnUse">
<stop stop-color="#6986D9"/>
<stop offset="1" stop-color="#8FB3FF"/>
</linearGradient>
<linearGradient id="paint19_linear_418_16786" x1="142.662" y1="77.5644" x2="32.1249" y2="94.7254" gradientUnits="userSpaceOnUse">
<stop stop-color="#6986D9"/>
<stop offset="1" stop-color="#8FB3FF"/>
</linearGradient>
<linearGradient id="paint20_linear_418_16786" x1="145.148" y1="93.5868" x2="34.6112" y2="110.748" gradientUnits="userSpaceOnUse">
<stop stop-color="#6986D9"/>
<stop offset="1" stop-color="#8FB3FF"/>
</linearGradient>
<linearGradient id="paint21_linear_418_16786" x1="145.728" y1="97.3213" x2="35.1964" y2="114.488" gradientUnits="userSpaceOnUse">
<stop stop-color="#6986D9"/>
<stop offset="1" stop-color="#8FB3FF"/>
</linearGradient>
<linearGradient id="paint22_linear_418_16786" x1="146.288" y1="100.9" x2="35.7448" y2="118.067" gradientUnits="userSpaceOnUse">
<stop stop-color="#6986D9"/>
<stop offset="1" stop-color="#8FB3FF"/>
</linearGradient>
<linearGradient id="paint23_linear_418_16786" x1="146.749" y1="103.904" x2="36.2181" y2="121.064" gradientUnits="userSpaceOnUse">
<stop stop-color="#6986D9"/>
<stop offset="1" stop-color="#8FB3FF"/>
</linearGradient>
<linearGradient id="paint24_linear_418_16786" x1="146.242" y1="100.641" x2="35.7165" y2="117.801" gradientUnits="userSpaceOnUse">
<stop stop-color="#6986D9"/>
<stop offset="1" stop-color="#8FB3FF"/>
</linearGradient>
<linearGradient id="paint25_linear_418_16786" x1="148.731" y1="116.646" x2="38.1939" y2="133.807" gradientUnits="userSpaceOnUse">
<stop stop-color="#6986D9"/>
<stop offset="1" stop-color="#8FB3FF"/>
</linearGradient>
<linearGradient id="paint26_linear_418_16786" x1="149.498" y1="121.596" x2="38.9613" y2="138.757" gradientUnits="userSpaceOnUse">
<stop stop-color="#6986D9"/>
<stop offset="1" stop-color="#8FB3FF"/>
</linearGradient>
<linearGradient id="paint27_linear_418_16786" x1="149.913" y1="124.273" x2="39.3758" y2="141.434" gradientUnits="userSpaceOnUse">
<stop stop-color="#6986D9"/>
<stop offset="1" stop-color="#8FB3FF"/>
</linearGradient>
<linearGradient id="paint28_linear_418_16786" x1="149.227" y1="119.841" x2="38.6842" y2="137.002" gradientUnits="userSpaceOnUse">
<stop stop-color="#6986D9"/>
<stop offset="1" stop-color="#8FB3FF"/>
</linearGradient>
<linearGradient id="paint29_linear_418_16786" x1="152.246" y1="139.301" x2="41.7149" y2="156.468" gradientUnits="userSpaceOnUse">
<stop stop-color="#6986D9"/>
<stop offset="1" stop-color="#8FB3FF"/>
</linearGradient>
<linearGradient id="paint30_linear_418_16786" x1="152.999" y1="144.134" x2="42.4618" y2="161.295" gradientUnits="userSpaceOnUse">
<stop stop-color="#6986D9"/>
<stop offset="1" stop-color="#8FB3FF"/>
</linearGradient>
<linearGradient id="paint31_linear_418_16786" x1="153.516" y1="147.466" x2="42.9791" y2="164.627" gradientUnits="userSpaceOnUse">
<stop stop-color="#6986D9"/>
<stop offset="1" stop-color="#8FB3FF"/>
</linearGradient>
<linearGradient id="paint32_linear_418_16786" x1="154.009" y1="150.651" x2="43.4722" y2="167.812" gradientUnits="userSpaceOnUse">
<stop stop-color="#6986D9"/>
<stop offset="1" stop-color="#8FB3FF"/>
</linearGradient>
<linearGradient id="paint33_linear_418_16786" x1="152.773" y1="142.68" x2="42.2355" y2="159.841" gradientUnits="userSpaceOnUse">
<stop stop-color="#6986D9"/>
<stop offset="1" stop-color="#8FB3FF"/>
</linearGradient>
<linearGradient id="paint34_linear_418_16786" x1="153.502" y1="147.397" x2="42.9706" y2="164.558" gradientUnits="userSpaceOnUse">
<stop stop-color="#6986D9"/>
<stop offset="1" stop-color="#8FB3FF"/>
</linearGradient>
<linearGradient id="paint35_linear_418_16786" x1="55.9238" y1="102.01" x2="76.6075" y2="101.541" gradientUnits="userSpaceOnUse">
<stop stop-color="#6986D9"/>
<stop offset="1" stop-color="#8FB3FF"/>
</linearGradient>
<linearGradient id="paint36_linear_418_16786" x1="55.2935" y1="74.2084" x2="75.9771" y2="73.739" gradientUnits="userSpaceOnUse">
<stop stop-color="#6986D9"/>
<stop offset="1" stop-color="#8FB3FF"/>
</linearGradient>
<linearGradient id="paint37_linear_418_16786" x1="56.4657" y1="125.559" x2="77.1434" y2="125.09" gradientUnits="userSpaceOnUse">
<stop stop-color="#6986D9"/>
<stop offset="1" stop-color="#8FB3FF"/>
</linearGradient>
<linearGradient id="paint38_linear_418_16786" x1="56.9816" y1="148.571" x2="77.6652" y2="148.102" gradientUnits="userSpaceOnUse">
<stop stop-color="#6986D9"/>
<stop offset="1" stop-color="#8FB3FF"/>
</linearGradient>
<linearGradient id="paint39_linear_418_16786" x1="165.114" y1="4.98789" x2="165.114" y2="13.4206" gradientUnits="userSpaceOnUse">
<stop offset="0.01" stop-color="white"/>
<stop offset="1" stop-color="#E1E7FF"/>
</linearGradient>
<linearGradient id="paint40_linear_418_16786" x1="206.422" y1="65.2321" x2="195.73" y2="193.323" gradientUnits="userSpaceOnUse">
<stop stop-color="#8FB3FF"/>
<stop offset="1" stop-color="#6986D9"/>
</linearGradient>
<linearGradient id="paint41_linear_418_16786" x1="191.038" y1="63.949" x2="180.346" y2="192.04" gradientUnits="userSpaceOnUse">
<stop stop-color="#8FB3FF"/>
<stop offset="1" stop-color="#6986D9"/>
</linearGradient>
<linearGradient id="paint42_linear_418_16786" x1="226.296" y1="66.8917" x2="215.602" y2="194.974" gradientUnits="userSpaceOnUse">
<stop stop-color="#8FB3FF"/>
<stop offset="1" stop-color="#6986D9"/>
</linearGradient>
<linearGradient id="paint43_linear_418_16786" x1="197.241" y1="64.4616" x2="186.549" y2="192.552" gradientUnits="userSpaceOnUse">
<stop stop-color="#8FB3FF"/>
<stop offset="1" stop-color="#6986D9"/>
</linearGradient>
<linearGradient id="paint44_linear_418_16786" x1="189.39" y1="63.8099" x2="178.698" y2="191.901" gradientUnits="userSpaceOnUse">
<stop stop-color="#8FB3FF"/>
<stop offset="1" stop-color="#6986D9"/>
</linearGradient>
<linearGradient id="paint45_linear_418_16786" x1="192.931" y1="64.1022" x2="182.236" y2="192.198" gradientUnits="userSpaceOnUse">
<stop stop-color="#8FB3FF"/>
<stop offset="1" stop-color="#6986D9"/>
</linearGradient>
<linearGradient id="paint46_linear_418_16786" x1="185.201" y1="63.4593" x2="174.504" y2="191.547" gradientUnits="userSpaceOnUse">
<stop stop-color="#8FB3FF"/>
<stop offset="1" stop-color="#6986D9"/>
</linearGradient>
<linearGradient id="paint47_linear_418_16786" x1="185.461" y1="63.4834" x2="174.765" y2="191.571" gradientUnits="userSpaceOnUse">
<stop stop-color="#8FB3FF"/>
<stop offset="1" stop-color="#6986D9"/>
</linearGradient>
<linearGradient id="paint48_linear_418_16786" x1="177.421" y1="62.8095" x2="166.725" y2="190.897" gradientUnits="userSpaceOnUse">
<stop stop-color="#8FB3FF"/>
<stop offset="1" stop-color="#6986D9"/>
</linearGradient>
<linearGradient id="paint49_linear_418_16786" x1="210.197" y1="65.5493" x2="199.507" y2="193.627" gradientUnits="userSpaceOnUse">
<stop stop-color="#8FB3FF"/>
<stop offset="1" stop-color="#6986D9"/>
</linearGradient>
<linearGradient id="paint50_linear_418_16786" x1="184.462" y1="63.3956" x2="173.768" y2="191.491" gradientUnits="userSpaceOnUse">
<stop stop-color="#8FB3FF"/>
<stop offset="1" stop-color="#6986D9"/>
</linearGradient>
<linearGradient id="paint51_linear_418_16786" x1="183.454" y1="63.3126" x2="172.763" y2="191.403" gradientUnits="userSpaceOnUse">
<stop stop-color="#8FB3FF"/>
<stop offset="1" stop-color="#6986D9"/>
</linearGradient>
<linearGradient id="paint52_linear_418_16786" x1="168.071" y1="62.0302" x2="157.379" y2="190.121" gradientUnits="userSpaceOnUse">
<stop stop-color="#8FB3FF"/>
<stop offset="1" stop-color="#6986D9"/>
</linearGradient>
<linearGradient id="paint53_linear_418_16786" x1="203.331" y1="64.968" x2="192.637" y2="193.064" gradientUnits="userSpaceOnUse">
<stop stop-color="#8FB3FF"/>
<stop offset="1" stop-color="#6986D9"/>
</linearGradient>
<linearGradient id="paint54_linear_418_16786" x1="174.278" y1="62.5468" x2="163.587" y2="190.637" gradientUnits="userSpaceOnUse">
<stop stop-color="#8FB3FF"/>
<stop offset="1" stop-color="#6986D9"/>
</linearGradient>
<linearGradient id="paint55_linear_418_16786" x1="166.424" y1="61.8863" x2="155.73" y2="189.982" gradientUnits="userSpaceOnUse">
<stop stop-color="#8FB3FF"/>
<stop offset="1" stop-color="#6986D9"/>
</linearGradient>
<linearGradient id="paint56_linear_418_16786" x1="169.961" y1="62.1828" x2="159.27" y2="190.273" gradientUnits="userSpaceOnUse">
<stop stop-color="#8FB3FF"/>
<stop offset="1" stop-color="#6986D9"/>
</linearGradient>
<linearGradient id="paint57_linear_418_16786" x1="162.231" y1="61.5406" x2="151.539" y2="189.631" gradientUnits="userSpaceOnUse">
<stop stop-color="#8FB3FF"/>
<stop offset="1" stop-color="#6986D9"/>
</linearGradient>
<linearGradient id="paint58_linear_418_16786" x1="162.49" y1="61.5607" x2="151.799" y2="189.651" gradientUnits="userSpaceOnUse">
<stop stop-color="#8FB3FF"/>
<stop offset="1" stop-color="#6986D9"/>
</linearGradient>
<linearGradient id="paint59_linear_418_16786" x1="154.454" y1="60.8893" x2="143.762" y2="188.98" gradientUnits="userSpaceOnUse">
<stop stop-color="#8FB3FF"/>
<stop offset="1" stop-color="#6986D9"/>
</linearGradient>
<linearGradient id="paint60_linear_418_16786" x1="187.233" y1="63.6207" x2="176.539" y2="191.716" gradientUnits="userSpaceOnUse">
<stop stop-color="#8FB3FF"/>
<stop offset="1" stop-color="#6986D9"/>
</linearGradient>
<linearGradient id="paint61_linear_418_16786" x1="161.495" y1="61.4707" x2="150.801" y2="189.566" gradientUnits="userSpaceOnUse">
<stop stop-color="#8FB3FF"/>
<stop offset="1" stop-color="#6986D9"/>
</linearGradient>
<linearGradient id="paint62_linear_418_16786" x1="101.869" y1="91.2378" x2="162.903" y2="156.844" gradientUnits="userSpaceOnUse">
<stop offset="0.01" stop-color="white"/>
<stop offset="1" stop-color="#E1E7FF"/>
</linearGradient>
</defs>
</svg>
