<svg width="321" height="236" viewBox="0 0 321 236" fill="none" xmlns="http://www.w3.org/2000/svg">
<path d="M288.407 220.222H267.176V220.382H288.407V220.222Z" fill="#EBEBEB"/>
<path d="M212.321 221.965H206.75V222.125H212.321V221.965Z" fill="#EBEBEB"/>
<path d="M266.532 214.273H254.23V214.434H266.532V214.273Z" fill="#EBEBEB"/>
<path d="M61.3193 215.351H33.6328V215.511H61.3193V215.351Z" fill="#EBEBEB"/>
<path d="M71.0812 215.351H67.0234V215.511H71.0812V215.351Z" fill="#EBEBEB"/>
<path d="M144.33 218.057H84.2773V218.217H144.33V218.057Z" fill="#EBEBEB"/>
<path d="M152.824 181.318H29.0392C27.02 181.318 25.3789 179.677 25.3789 177.658V3.66034C25.3789 1.64106 27.02 0 29.0392 0H152.824C154.843 0 156.484 1.64106 156.484 3.66034V177.658C156.484 179.677 154.843 181.318 152.824 181.318ZM29.0392 0.16026C27.1097 0.16026 25.5392 1.73081 25.5392 3.66034V177.658C25.5392 179.587 27.1097 181.158 29.0392 181.158H152.824C154.754 181.158 156.324 179.587 156.324 177.658V3.66034C156.324 1.73081 154.754 0.16026 152.824 0.16026H29.0392Z" fill="#EBEBEB"/>
<path d="M291.48 181.318H167.695C165.676 181.318 164.035 179.677 164.035 177.658V3.66034C164.035 1.64106 165.676 0 167.695 0H291.48C293.5 0 295.141 1.64106 295.141 3.66034V177.658C295.141 179.677 293.5 181.318 291.48 181.318ZM167.695 0.16026C165.766 0.16026 164.195 1.73081 164.195 3.66034V177.658C164.195 179.587 165.766 181.158 167.695 181.158H291.48C293.41 181.158 294.98 179.587 294.98 177.658V3.66034C294.98 1.73081 293.41 0.16026 291.48 0.16026H167.695Z" fill="#EBEBEB"/>
<path d="M320.52 209.907H0V210.067H320.52V209.907Z" fill="#EBEBEB"/>
<path d="M120.163 209.836H116.656V155.053H122.15L120.163 209.836Z" fill="#F0F0F0"/>
<path d="M116.659 168.771C116.877 168.752 117.088 168.733 117.306 168.733C118.819 168.733 120.236 169.233 121.608 169.944L122.146 155.053H116.652V168.771H116.659Z" fill="#E0E0E0"/>
<path d="M106.237 209.836H102.73V155.053H108.224L106.237 209.836Z" fill="#F0F0F0"/>
<path d="M102.725 174.701C104.36 174.963 105.956 174.367 107.546 173.47L108.212 155.053H102.719V174.701H102.725Z" fill="#E0E0E0"/>
<path d="M203.05 209.836H206.556V155.053H201.062L203.05 209.836Z" fill="#F0F0F0"/>
<path d="M206.562 168.771C206.344 168.752 206.132 168.733 205.914 168.733C204.401 168.733 202.985 169.233 201.613 169.944L201.074 155.053H206.568V168.771H206.562Z" fill="#E0E0E0"/>
<path d="M216.979 209.836H220.486V155.053H214.992L216.979 209.836Z" fill="#F0F0F0"/>
<path d="M220.487 174.701C218.853 174.963 217.256 174.367 215.667 173.47L215 155.053H220.494V174.701H220.487Z" fill="#E0E0E0"/>
<path d="M219.365 144.341C229.557 148.129 232.34 164.399 219.365 166.476C214.499 167.252 210.031 160.508 204.788 160.508C199.544 160.508 195.454 166.476 190.21 166.476C184.967 166.476 180.877 160.508 175.633 160.508C170.389 160.508 166.3 166.476 161.056 166.476C155.812 166.476 151.722 160.508 146.479 160.508C141.235 160.508 137.145 166.476 131.901 166.476C126.658 166.476 122.568 160.508 117.324 160.508C112.08 160.508 107.612 167.258 102.747 166.476C89.7722 164.405 91.6953 147.738 102.747 144.341H219.384H219.365Z" fill="#F0F0F0"/>
<path d="M189.404 120.917V113.629C189.404 113.065 188.949 112.609 188.385 112.609H187.391C186.827 112.609 186.372 113.065 186.372 113.629V120.917L185.064 123.097C184.365 124.263 184 125.59 184 126.949V143.264C184 144.001 184.596 144.597 185.333 144.597H190.449C191.186 144.597 191.782 144.001 191.782 143.264V126.949C191.782 125.59 191.41 124.257 190.718 123.097L189.41 120.917H189.404Z" fill="#E0E0E0"/>
<path d="M186.46 133.32C186.46 139.109 186.569 143.808 186.171 143.808C185.774 143.808 185.453 139.115 185.453 133.32C185.453 127.525 186.21 122.833 186.607 122.833C187.004 122.833 186.466 127.525 186.466 133.32H186.46Z" fill="#F5F5F5"/>
<path d="M187.493 117.359C187.493 119.398 187.288 121.052 187.032 121.052C186.775 121.052 186.968 119.398 186.968 117.359C186.968 115.321 187.173 113.667 187.429 113.667C187.686 113.667 187.493 115.321 187.493 117.359Z" fill="#F5F5F5"/>
<path d="M146.014 123.616V117.154C146.014 116.654 145.61 116.25 145.11 116.25H144.232C143.732 116.25 143.328 116.654 143.328 117.154V123.616L142.167 125.545C141.546 126.577 141.219 127.757 141.219 128.962V143.417C141.219 144.071 141.751 144.597 142.398 144.597H146.93C147.584 144.597 148.11 144.065 148.11 143.417V128.962C148.11 127.757 147.783 126.577 147.161 125.545L146.001 123.616H146.014Z" fill="#E0E0E0"/>
<path d="M143.394 134.604C143.394 139.738 143.49 143.899 143.137 143.899C142.785 143.899 142.496 139.738 142.496 134.604C142.496 129.469 143.163 125.309 143.515 125.309C143.868 125.309 143.387 129.469 143.387 134.604H143.394Z" fill="#F5F5F5"/>
<path d="M144.313 120.455C144.313 122.263 144.127 123.731 143.902 123.731C143.678 123.731 143.845 122.263 143.845 120.455C143.845 118.648 144.031 117.18 144.255 117.18C144.479 117.18 144.313 118.648 144.313 120.455Z" fill="#F5F5F5"/>
<path d="M136.326 118.166V110.032C136.326 109.403 135.813 108.891 135.185 108.891H134.076C133.448 108.891 132.935 109.403 132.935 110.032V118.166L131.474 120.596C130.692 121.897 130.281 123.385 130.281 124.897V143.103C130.281 143.923 130.948 144.59 131.768 144.59H137.474C138.294 144.59 138.961 143.923 138.961 143.103V124.897C138.961 123.385 138.551 121.897 137.769 120.596L136.307 118.166H136.326Z" fill="#E0E0E0"/>
<path d="M133.031 132.006C133.031 138.468 133.152 143.712 132.71 143.712C132.268 143.712 131.902 138.468 131.902 132.006C131.902 125.544 132.742 120.301 133.191 120.301C133.64 120.301 133.031 125.544 133.031 132.006Z" fill="#F5F5F5"/>
<path d="M134.187 114.191C134.187 116.467 133.956 118.313 133.674 118.313C133.392 118.313 133.603 116.467 133.603 114.191C133.603 111.916 133.834 110.069 134.116 110.069C134.398 110.069 134.187 111.916 134.187 114.191Z" fill="#F5F5F5"/>
<path d="M198.612 141.578V135.366C198.612 134.796 198.965 134.27 199.51 134.091C201.516 133.437 202.978 131.462 202.978 129.123C202.978 127.77 202.484 126.539 201.683 125.616H194.426C193.625 126.539 193.125 127.77 193.125 129.123C193.125 131.456 194.587 133.43 196.593 134.091C197.138 134.27 197.49 134.796 197.49 135.366V141.578C197.49 142.238 197.016 142.809 196.362 142.911C195.24 143.097 194.484 143.456 194.484 143.873C194.484 144.476 196.08 144.591 198.055 144.591C200.029 144.591 201.625 144.476 201.625 143.873C201.625 143.456 200.862 143.091 199.747 142.911C199.093 142.802 198.619 142.238 198.619 141.578H198.612Z" fill="#F5F5F5"/>
<path d="M194.165 128.674C194.152 128.821 194.133 128.969 194.133 129.116C194.133 130.975 195.248 132.584 196.909 133.129C197.383 133.283 197.78 133.584 198.056 133.975C198.332 133.584 198.729 133.289 199.203 133.129C200.864 132.584 201.979 130.975 201.979 129.116C201.979 128.969 201.96 128.821 201.947 128.674H194.165Z" fill="#E0E0E0"/>
<path d="M123.269 141.577V135.365C123.269 134.795 123.621 134.269 124.166 134.09C126.172 133.436 127.634 131.462 127.634 129.122C127.634 127.769 127.14 126.538 126.339 125.615H119.083C118.281 126.538 117.781 127.769 117.781 129.122C117.781 131.455 119.243 133.43 121.249 134.09C121.794 134.269 122.147 134.795 122.147 135.365V141.577C122.147 142.237 121.672 142.808 121.018 142.91C119.897 143.096 119.14 143.455 119.14 143.872C119.14 144.475 120.736 144.59 122.711 144.59C124.685 144.59 126.281 144.475 126.281 143.872C126.281 143.455 125.519 143.09 124.403 142.91C123.749 142.802 123.275 142.237 123.275 141.577H123.269Z" fill="#EBEBEB"/>
<path d="M62.5042 133.619C64.4658 145.17 65.7671 156.658 66.4466 168.357C67.1774 168.299 67.5492 168.267 68.28 168.203C67.594 156.427 66.2799 144.856 64.3055 133.228C63.2029 125.759 55.7476 119.926 48.5808 120.413C45.2218 120.644 42.2409 122.42 40.3498 125.048C38.4331 127.721 37.7793 131.042 38.4716 134.535C40.4075 145.016 41.7345 155.452 42.5037 166.087C43.2345 166.036 43.5999 166.017 44.3371 165.966C43.5679 155.254 42.2281 144.734 40.2729 134.176C39.6832 131.196 40.228 128.381 41.8371 126.151C42.055 125.843 42.2986 125.561 42.555 125.285C45.5679 139.023 47.5167 152.632 48.4911 166.658C49.2218 166.607 49.5872 166.581 50.3244 166.53C49.3372 152.113 47.2987 138.042 44.1256 123.945C45.2474 123.183 46.5615 122.67 47.9975 122.439C51.3693 137.266 53.4976 152.055 54.4848 167.228C55.2156 167.171 55.5874 167.145 56.3182 167.087C55.331 151.92 53.2027 137.125 49.8501 122.298C51.3693 122.317 52.8758 122.65 54.2989 123.259C57.5169 138.01 59.549 152.728 60.4721 167.792C61.2029 167.735 61.5747 167.703 62.3055 167.645C61.4144 153.029 59.4849 138.741 56.4464 124.413C59.4657 126.426 61.8055 129.753 62.5106 133.612L62.5042 133.619Z" fill="#E0E0E0"/>
<path d="M46.6893 162.555H80.4337C82.767 162.555 84.6581 164.446 84.6581 166.779V167.042H42.4648V166.779C42.4648 164.446 44.3559 162.555 46.6893 162.555Z" fill="#F0F0F0"/>
<path d="M43.8921 209.838H41.6484L43.4818 167.036H46.3344L43.8921 209.838Z" fill="#E0E0E0"/>
<path d="M58.8765 209.838H56.6328L57.8572 167.036H60.7098L58.8765 209.838Z" fill="#E0E0E0"/>
<path d="M70.4911 209.838H68.2474L66.4141 167.036H69.2667L70.4911 209.838Z" fill="#E0E0E0"/>
<path d="M85.4737 209.838H83.23L80.7812 167.036H83.6403L85.4737 209.838Z" fill="#E0E0E0"/>
<path d="M86.489 165.408H61.418V168.671H86.489V165.408Z" fill="#EBEBEB"/>
<path d="M61.4164 165.408H40.6211V168.671H61.4164V165.408Z" fill="#F5F5F5"/>
<path d="M258.01 133.619C256.049 145.17 254.747 156.658 254.068 168.357C253.337 168.299 252.965 168.267 252.234 168.203C252.92 156.427 254.234 144.856 256.209 133.228C257.311 125.759 264.767 119.926 271.934 120.413C275.293 120.644 278.273 122.42 280.164 125.048C282.081 127.721 282.735 131.042 282.043 134.535C280.107 145.016 278.78 155.452 278.011 166.087C277.28 166.036 276.914 166.017 276.177 165.966C276.946 155.254 278.286 144.734 280.241 134.176C280.831 131.196 280.286 128.381 278.677 126.151C278.459 125.843 278.216 125.561 277.959 125.285C274.946 139.023 272.998 152.632 272.023 166.658C271.292 166.607 270.927 166.581 270.19 166.53C271.177 152.113 273.216 138.042 276.389 123.945C275.267 123.183 273.953 122.67 272.517 122.439C269.145 137.266 267.017 152.055 266.03 167.228C265.299 167.171 264.927 167.145 264.196 167.087C265.183 151.92 267.312 137.125 270.664 122.298C269.145 122.317 267.639 122.65 266.215 123.259C262.997 138.01 260.965 152.728 260.042 167.792C259.311 167.735 258.94 167.703 258.209 167.645C259.1 153.029 261.029 138.741 264.068 124.413C261.049 126.426 258.709 129.753 258.004 133.612L258.01 133.619Z" fill="#E0E0E0"/>
<path d="M278.052 167.036H235.865V166.773C235.865 164.44 237.756 162.549 240.09 162.549H273.834C276.168 162.549 278.059 164.44 278.059 166.773V167.036H278.052Z" fill="#F0F0F0"/>
<path d="M276.622 209.838H278.866L277.032 167.036H274.18L276.622 209.838Z" fill="#E0E0E0"/>
<path d="M261.634 209.838H263.878L262.653 167.036H259.801L261.634 209.838Z" fill="#E0E0E0"/>
<path d="M250.023 209.838H252.267L254.1 167.036H251.248L250.023 209.838Z" fill="#E0E0E0"/>
<path d="M235.039 209.838H237.283L239.731 167.036H236.872L235.039 209.838Z" fill="#E0E0E0"/>
<path d="M234.019 168.671H259.09V165.408H234.019V168.671Z" fill="#EBEBEB"/>
<path d="M259.095 168.671H279.891V165.408H259.095V168.671Z" fill="#F5F5F5"/>
<path d="M94.7031 54.4806C94.7031 54.4806 102.735 43.5957 113.62 43.5957C124.505 43.5957 131.518 54.4806 131.518 54.4806V112.725H94.7031V54.4806Z" fill="#F5F5F5"/>
<path d="M130.601 54.8964C125.908 48.5629 119.735 45.082 113.177 45.082C106.62 45.082 100.453 48.5629 95.7539 54.8964V111.622H130.594V54.8964H130.601ZM129.511 110.103H96.8501V55.5438C101.292 49.768 107.075 46.5949 113.184 46.5949C119.293 46.5949 125.069 49.768 129.517 55.5438V110.103H129.511Z" fill="#E0E0E0"/>
<path d="M132.502 114.27H93.8477V53.7944L94.1297 53.4033C99.2196 46.3262 105.983 42.4287 113.175 42.4287C120.367 42.4287 127.137 46.3262 132.22 53.4033L132.502 53.7944V114.27ZM95.758 111.623H130.598V54.8969C125.906 48.5635 119.733 45.0826 113.175 45.0826C106.617 45.0826 100.45 48.5635 95.7515 54.8969V111.623H95.758Z" fill="#EBEBEB"/>
<path d="M120.25 110.937V84.7247H130.187V82.0708H120.25V55.9869H130.187V55.1343C129.712 54.4997 129.219 53.9099 128.712 53.333H120.25V47.0764C119.622 46.8136 118.988 46.5956 118.347 46.4033V53.333H108V46.4033C107.359 46.5956 106.724 46.8136 106.096 47.0764V53.333H97.6346C97.1281 53.9035 96.6345 54.4997 96.1602 55.1343V55.9869H106.096V82.0708H96.1602V84.7247H106.096V110.937H108V84.7247H118.347V110.937H120.25ZM118.347 82.0708H108V55.9869H118.347V82.0708Z" fill="#E6E6E6"/>
<path d="M190.582 54.4806C190.582 54.4806 198.614 43.5957 209.499 43.5957C220.384 43.5957 227.397 54.4806 227.397 54.4806V112.725H190.582V54.4806Z" fill="#F5F5F5"/>
<path d="M226.48 54.8964C221.787 48.5629 215.614 45.082 209.056 45.082C202.498 45.082 196.332 48.5629 191.633 54.8964V111.622H226.473V54.8964H226.48ZM225.39 110.103H192.723V55.5438C197.165 49.768 202.947 46.5949 209.056 46.5949C215.165 46.5949 220.941 49.768 225.39 55.5438V110.103Z" fill="#E0E0E0"/>
<path d="M228.381 114.27H189.727V53.7944L190.009 53.4033C195.098 46.3262 201.861 42.4287 209.054 42.4287C216.246 42.4287 223.016 46.3262 228.099 53.4033L228.381 53.7944V114.27ZM191.637 111.623H226.477V54.8969C221.785 48.5635 215.612 45.0826 209.054 45.0826C202.496 45.0826 196.329 48.5635 191.63 54.8969V111.623H191.637Z" fill="#EBEBEB"/>
<path d="M216.129 110.937V84.7247H226.065V82.0708H216.129V55.9869H226.065V55.1343C225.591 54.4997 225.098 53.9099 224.591 53.333H216.129V47.0764C215.501 46.8136 214.867 46.5956 214.225 46.4033V53.333H203.879V46.4033C203.238 46.5956 202.603 46.8136 201.975 47.0764V53.333H193.513C193.007 53.9035 192.513 54.4997 192.039 55.1343V55.9869H201.975V82.0708H192.039V84.7247H201.975V110.937H203.879V84.7247H214.225V110.937H216.129ZM214.225 82.0708H203.879V55.9869H214.225V82.0708Z" fill="#E6E6E6"/>
<path d="M135.126 155.919C135.126 155.919 140.992 159.099 148.415 152.932V145.163L134.383 145.009L135.107 155.503L135.126 155.919Z" fill="#F0F0F0"/>
<path d="M161.483 235.473C230.127 235.473 285.774 232.224 285.774 228.217C285.774 224.209 230.127 220.96 161.483 220.96C92.8385 220.96 37.1914 224.209 37.1914 228.217C37.1914 232.224 92.8385 235.473 161.483 235.473Z" fill="#F5F5F5"/>
<path d="M78.4488 77.3016L69.0639 78.7119L63.6215 64.8077C63.3907 64 62.4164 65.1667 61.5894 65.0321L60.1727 64.8013C60.0381 64.5449 62.7946 76.7182 64.6151 83.885C65.3587 86.8146 80.3527 83.6479 80.3527 83.6479C86.1861 81.0196 78.4552 77.3016 78.4552 77.3016H78.4488Z" fill="#FFB573"/>
<path d="M72.8633 76.9296C72.9658 78.6604 73.9402 82.8015 75.3697 85.7054C75.5236 86.0195 75.8569 86.2118 76.2095 86.1926C80.9853 85.8977 83.0815 84.7567 83.0815 84.7567C82.652 83.3207 84.5623 75.4295 83.5751 74.3975C83.5751 74.3975 80.8827 74.8847 79.6455 75.5257C78.5621 76.0898 72.8633 76.9296 72.8633 76.9296Z" fill="#407BFF"/>
<path d="M81.7067 85.526C81.7643 98.7635 80.5977 110.123 80.5977 110.123C80.5977 110.123 103.515 110.219 104.29 110.238C106.137 94.9108 107.464 90.9812 107.944 81.6605C108.188 77.795 105.989 74.3911 103.784 73.9488L103.367 73.8911C96.9378 73.0385 90.0209 73.7244 83.5721 74.4039C81.1041 74.7629 81.9438 79.3143 81.7067 85.526Z" fill="#407BFF"/>
<path d="M91.5247 176.302C89.6208 193.893 91.1657 225.393 91.1657 225.393L95.1978 225.496C95.1978 225.496 98.262 196.322 98.4223 175.328L91.5311 176.302H91.5247Z" fill="#FFB573"/>
<path d="M91.5247 176.302C89.6208 193.893 91.1657 225.393 91.1657 225.393L95.1978 225.496C95.1978 225.496 98.262 196.322 98.4223 175.328L91.5311 176.302H91.5247Z" fill="#FFB573"/>
<path d="M96.7368 223.483C99.7177 225.182 100.051 225.221 103.333 225.894C104.051 226.041 103.782 227.759 102.109 227.772C99.3459 227.817 99.5767 227.721 97.2112 227.746C95.1983 227.765 92.2816 227.881 90.679 227.926C90.6598 227.926 90.6406 227.926 90.6277 227.926C90.2623 227.9 89.9739 227.573 89.9931 227.208L90.2944 223.515C90.3072 223.349 90.4418 223.227 90.6085 223.227L95.7112 223.188C96.0702 223.188 96.4291 223.297 96.7432 223.49L96.7368 223.483Z" fill="#263238"/>
<path d="M96.4688 223.548C97.1354 223.677 98.315 223.83 98.7573 223.414C98.8919 223.292 98.956 223.112 98.9304 222.933C98.9239 222.824 98.8598 222.721 98.7637 222.67C98.2573 222.401 96.6226 223.26 96.4431 223.356C96.4047 223.375 96.3854 223.414 96.3918 223.459C96.3918 223.497 96.4239 223.529 96.4624 223.536L96.4752 223.548H96.4688ZM98.6675 222.843C98.706 222.862 98.7316 222.901 98.7316 222.946C98.7509 223.068 98.7124 223.189 98.6227 223.266C98.3791 223.497 97.6996 223.548 96.7893 223.401C97.4367 223.08 98.3214 222.721 98.6355 222.824L98.6739 222.843H98.6675Z" fill="#407BFF"/>
<path d="M96.5277 223.548C97.0149 223.318 97.9765 222.414 97.8868 221.926C97.8675 221.817 97.7842 221.676 97.515 221.651C97.3162 221.632 97.1239 221.696 96.9765 221.83C96.4636 222.273 96.3867 223.401 96.3867 223.446C96.3867 223.484 96.3995 223.516 96.4316 223.535H96.4572C96.4572 223.535 96.5021 223.555 96.5277 223.548ZM97.6047 221.882C97.688 221.907 97.6944 221.952 97.6944 221.971C97.7457 222.26 97.0983 222.971 96.5983 223.285C96.6303 222.811 96.8098 222.356 97.1047 221.991C97.2137 221.894 97.3547 221.843 97.5021 221.862H97.6047V221.875V221.882Z" fill="#407BFF"/>
<path d="M76.97 177.348C74.47 194.861 65.1877 225.009 65.1877 225.009L60.7773 224.919C60.7773 224.919 65.0146 195.893 70.0532 175.508L76.97 177.348Z" fill="#FFB573"/>
<path d="M59.6137 223.298C56.5111 225.067 56.1585 225.106 52.7418 225.811C51.9918 225.965 52.2738 227.753 54.0174 227.766C56.8957 227.817 56.6521 227.715 59.1137 227.74C61.2099 227.766 64.2484 227.881 65.9216 227.926C65.9408 227.926 65.96 227.926 65.9793 227.926C66.3639 227.894 66.6588 227.561 66.6395 227.176L66.3254 223.33C66.3126 223.157 66.1716 223.029 65.9985 223.029L60.6843 222.99C60.3061 222.99 59.9342 223.106 59.6137 223.304V223.298Z" fill="#263238"/>
<path d="M59.8989 223.355C59.9374 223.342 59.963 223.31 59.9694 223.272C59.9694 223.227 59.9566 223.188 59.9181 223.169C59.7322 223.066 58.0335 222.169 57.5014 222.451C57.3989 222.509 57.3348 222.611 57.3219 222.727C57.2963 222.913 57.3604 223.105 57.5014 223.227C57.9566 223.656 59.1938 223.496 59.8861 223.361L59.8989 223.349V223.355ZM57.6296 222.611C57.9566 222.502 58.8797 222.874 59.5528 223.208C58.604 223.361 57.8989 223.31 57.6425 223.066C57.5463 222.983 57.5014 222.861 57.5271 222.733C57.5271 222.688 57.5527 222.65 57.5912 222.624L57.6296 222.605V222.611Z" fill="#407BFF"/>
<path d="M59.8999 223.355H59.9255C59.9255 223.355 59.9768 223.298 59.9704 223.259C59.9704 223.214 59.8871 222.041 59.355 221.58C59.2012 221.445 59.0024 221.375 58.7973 221.394C58.5152 221.419 58.4319 221.56 58.4127 221.682C58.3165 222.189 59.323 223.125 59.8294 223.368C59.855 223.375 59.8807 223.368 59.9063 223.355H59.8999ZM58.7011 221.612H58.8037C58.9576 221.592 59.105 221.644 59.214 221.746C59.5217 222.131 59.7076 222.599 59.746 223.093C59.2204 222.766 58.5537 222.022 58.605 221.721C58.605 221.701 58.6178 221.65 58.7011 221.625V221.612Z" fill="#407BFF"/>
<path d="M89.9031 140.078C87.9095 143.681 77.6528 179.585 77.6528 179.585L73.172 200.419C72.5053 203.509 72.0309 206.56 71.7424 209.56L70.845 216.221L60.4922 216.349C60.7101 215.445 62.6397 206.246 67.159 177.316C71.813 147.552 80.4157 110.205 80.4157 110.205C80.4157 110.205 93.6083 109.693 99.2879 110.571C100.871 118.622 94.2173 132.328 89.9159 140.072L89.9031 140.078Z" fill="#263238"/>
<path opacity="0.2" d="M87.006 129.617C87.006 129.617 83.6213 150.047 84.6406 155.99L91.9356 132.515L87.006 129.617Z" fill="black"/>
<path d="M98.0237 216.356C98.2609 215.997 99.6328 186.721 100.165 178.426L104.146 132.393C104.146 132.393 106.389 117.072 104.3 110.232L85.0234 110.098C85.0234 110.098 90.203 166.458 89.0235 194.875C88.5876 205.478 88.344 216.369 88.344 216.369H98.0237V216.356Z" fill="#263238"/>
<path d="M97.0951 73.8083C98.5375 74.8339 97.9221 76.4494 96.749 77.7699C94.3002 80.52 91.7617 81.3726 91.7617 81.3726C91.7232 81.3597 85.4026 76.7891 89.8706 73.9301C90.6078 73.4557 90.8963 72.3339 90.9796 71.1608C91.0437 70.18 90.9668 69.1736 90.8706 68.4812C90.8514 68.2569 90.813 68.0389 90.7745 67.8338C90.7424 67.6158 90.6976 67.4171 90.6463 67.2248L97.3452 64.4619C96.608 65.5709 96.0503 69.1223 96.2041 70.2697C96.3772 71.5518 96.4285 73.3403 97.0951 73.8211V73.8083Z" fill="#FFB573"/>
<path opacity="0.2" d="M91.002 71.1302C91.0661 70.1494 90.9892 69.143 90.893 68.4506C90.8738 68.2263 90.8353 68.0083 90.7969 67.8032L95.9829 66.8096C94.8931 67.8929 93.3739 70.0981 91.002 71.1366V71.1302Z" fill="black"/>
<path d="M85.3035 64.5986C86.1369 69.1371 91.5665 71.5282 95.1499 68.2781C97.2204 66.4063 97.5474 64.1755 97.9256 60.6946C97.9833 60.169 98.0474 59.6113 98.1115 59.0215C98.2205 58.1048 98.1243 57.1689 97.8358 56.2971C97.714 55.9253 97.5538 55.5727 97.3679 55.2458C95.9448 52.6945 92.8742 51.4316 90.0023 52.3996C85.5086 53.9124 84.5471 60.5216 85.3035 64.605V64.5986Z" fill="#FFB573"/>
<path d="M90.9071 59.1479C90.6699 59.1351 90.4648 59.4235 90.4392 59.7825C90.4199 60.1479 90.5674 60.4556 90.8302 60.4684C91.0994 60.4812 91.3046 60.1992 91.3238 59.8338C91.3366 59.4492 91.1379 59.1671 90.9007 59.1479H90.9071Z" fill="#263238"/>
<path d="M86.8415 59.1108C86.6043 59.098 86.3992 59.38 86.3735 59.739C86.3479 60.098 86.5274 60.4121 86.7646 60.4249C87.0082 60.4377 87.2133 60.1557 87.2325 59.7967C87.2454 59.4313 87.0723 59.1236 86.8351 59.1108H86.8415Z" fill="#263238"/>
<path d="M88.5531 63.3866C87.9313 63.4507 86.8095 63.0789 86.3672 62.6366C87.2134 61.7968 88.1621 60.8545 88.7454 59.8096L88.5531 63.3866Z" fill="#ED893E"/>
<path d="M92.2948 58.7908C91.9743 58.3421 91.4615 58.0792 90.9102 58.0728C90.9102 58.0728 90.8653 58.0792 90.8461 58.0792C90.7243 58.0792 90.6345 57.9703 90.6409 57.8549C90.6409 57.7331 90.7499 57.6433 90.8653 57.6497C91.5576 57.6433 92.2051 57.9638 92.6154 58.5216C92.6859 58.6177 92.673 58.7459 92.5769 58.8228C92.5448 58.8485 92.5128 58.8613 92.4743 58.8677C92.4038 58.8677 92.3397 58.8485 92.2948 58.7972V58.7908Z" fill="#263238"/>
<path d="M85.3555 57.2846C85.3555 57.1628 85.4516 57.0667 85.5734 57.0731C86.2593 57.0538 86.9132 57.3808 87.3235 57.9321C87.3876 58.0282 87.3555 58.1628 87.2594 58.2205C87.2594 58.2205 87.2465 58.2269 87.2465 58.2334C87.1504 58.291 87.0222 58.259 86.9645 58.1628C86.6311 57.7269 86.1119 57.4833 85.567 57.4962C85.4965 57.4962 85.426 57.4641 85.3875 57.4064C85.3683 57.368 85.3555 57.3295 85.3555 57.2846Z" fill="#263238"/>
<path d="M95.1225 56.0459C95.3725 56.9562 95.4622 57.9114 95.3917 58.8537C96.5263 60.2768 96.9302 62.0525 96.5968 63.8474C97.2507 62.7448 98.3405 61.9051 99.5585 61.514C99.9495 59.8537 100.11 58.0909 100.071 56.3857C100.058 55.7254 100.001 55.0395 99.6995 54.4498C99.3982 53.86 98.7892 53.3792 98.1289 53.4177C98.2059 52.7254 97.5648 52.1612 96.9686 51.7959C93.5134 49.6676 88.8018 49.8022 85.4684 52.11C84.9363 52.11 84.3914 52.0843 83.8594 52.0843C83.9299 53.1741 84.7697 54.3857 85.6735 55.0075C85.8722 55.1421 86.0966 55.4113 86.244 55.5972C87.3979 55.9883 88.6544 55.937 89.8595 55.7254C91.0647 55.5139 92.2506 55.1805 93.4686 55.0972C94.1096 55.0523 94.9494 55.4241 95.1225 56.0459Z" fill="#263238"/>
<path d="M98.2783 60.4248C96.8103 60.4569 95.9193 62.303 95.7654 63.5723C95.5795 64.9762 96.5283 66.1365 97.8873 65.5147C98.913 65.0403 99.7014 64.1749 100.073 63.1108C100.528 61.803 99.7463 60.3992 98.2783 60.4312V60.4248Z" fill="#FFB573"/>
<path d="M87.3984 64.6294C87.3984 64.6294 88.6549 64.1166 92.3601 63.6807C92.1485 65.0268 91.3408 65.591 89.4369 65.7961C87.5395 66.0012 87.3984 64.6294 87.3984 64.6294Z" fill="#263238"/>
<path d="M87.5664 64.5851C87.6818 64.8864 87.9446 65.1044 88.2587 65.1557C89.3549 65.021 90.4319 64.7839 91.4768 64.4441C91.8357 64.3608 92.1178 64.0787 92.2011 63.7197C90.6306 63.8672 89.0793 64.162 87.5664 64.5915V64.5851Z" fill="white"/>
<path d="M88.3355 65.0472C89.2715 64.669 90.2523 64.4383 91.2587 64.3613C91.5408 64.3934 91.81 64.4959 92.0343 64.669C91.6305 65.3357 90.81 65.6626 89.451 65.8165C88.9445 65.9062 88.4189 65.8165 87.9766 65.5473C88.0727 65.3613 88.1945 65.1947 88.342 65.0408L88.3355 65.0472Z" fill="white"/>
<path d="M61.3242 63.2115C61.3242 63.2115 60.087 60.1217 61.0101 59.5512C61.9332 58.987 61.7152 59.7691 61.7152 59.7691L63.2922 63.5961L61.3242 63.2115Z" fill="#FFB573"/>
<path d="M58.7707 66.2632C57.9566 66.0837 57.9181 65.4555 57.5463 64.7183C57.5463 64.7183 56.5014 61.7695 57.5207 61.417C57.5207 61.417 59.0015 61.3465 60.6489 61.526C62.5015 61.7311 63.2964 63.2632 63.5208 64.3337C64.2067 67.5389 58.7707 66.2568 58.7707 66.2568V66.2632Z" fill="#FFB573"/>
<path opacity="0.2" d="M102.684 78.9033L106.273 95.5191L109.171 79.5572L102.684 78.9033Z" fill="black"/>
<path d="M110.207 79.6428C110.745 81.0851 111.245 82.5339 111.739 83.9955C112.226 85.4506 112.694 86.9186 113.149 88.3866C113.611 89.8546 114.04 91.3354 114.476 92.8098C114.694 93.5021 115.124 94.829 115.053 96.265C115.028 96.9765 114.886 97.6496 114.72 98.1881C114.553 98.733 114.367 99.1817 114.194 99.5984L114.066 99.8932L114.053 99.9125C112.604 102.4 111.136 104.881 109.636 107.342C108.886 108.573 108.156 109.817 107.38 111.035C106.611 112.259 105.861 113.49 105.066 114.701C104.502 115.567 103.348 115.81 102.482 115.246C101.732 114.759 101.45 113.823 101.752 113.022C102.258 111.669 102.803 110.329 103.335 108.99C103.861 107.643 104.431 106.323 104.976 104.99C106.072 102.323 107.2 99.6689 108.348 97.0278L108.207 97.3419C108.303 97.0278 108.374 96.7521 108.399 96.5534C108.431 96.3483 108.418 96.2521 108.399 96.1944L108.29 95.906L107.976 95.156C107.412 93.7136 106.841 92.2713 106.303 90.8161C105.758 89.3674 105.22 87.9122 104.713 86.4506C104.2 84.9891 103.707 83.5211 103.239 82.0403C102.63 80.0979 103.713 78.0274 105.656 77.4184C107.534 76.8286 109.534 77.8286 110.213 79.6492L110.207 79.6428Z" fill="#FFB573"/>
<path d="M102.285 112.488L99.6953 115.712C99.6953 115.712 101.849 119.059 103.279 118.578C104.715 118.097 105.189 114.276 105.189 114.276L102.285 112.481V112.488Z" fill="#FFB573"/>
<path d="M104.533 74.1794C104.533 74.1794 99.8342 74.9487 103.418 84.2758C106.213 91.5452 106.424 90.4939 106.424 90.4939L113.463 86.372C113.463 86.372 110.905 73.8204 104.527 74.1794H104.533Z" fill="#407BFF"/>
<path d="M66.5404 32.502H99.0155C99.8873 32.502 100.599 33.2135 100.599 34.0853V42.8612C100.599 43.7266 99.8873 44.4381 99.0155 44.4381H87.6434L85.6626 47.6946C85.1562 48.528 83.9767 48.5728 83.4959 47.7779L81.4638 44.4381H66.534C65.6622 44.4381 64.957 43.7266 64.957 42.8612V34.0853C64.957 33.2135 65.6686 32.502 66.5404 32.502Z" fill="#407BFF"/>
<g opacity="0.7">
<path d="M66.5404 32.502H99.0155C99.8873 32.502 100.599 33.2135 100.599 34.0853V42.8612C100.599 43.7266 99.8873 44.4381 99.0155 44.4381H87.6434L85.6626 47.6946C85.1562 48.528 83.9767 48.5728 83.4959 47.7779L81.4638 44.4381H66.534C65.6622 44.4381 64.957 43.7266 64.957 42.8612V34.0853C64.957 33.2135 65.6686 32.502 66.5404 32.502Z" fill="white"/>
</g>
<path d="M71.9491 35.8467L72.7055 37.3659L74.385 37.6095L73.167 38.7955L73.4555 40.4686L71.9491 39.6801L70.449 40.4686L70.7375 38.7955L69.5195 37.6095L71.1991 37.3659L71.9491 35.8467Z" fill="#407BFF"/>
<path d="M77.6053 35.8467L78.3553 37.3659L80.0413 37.6095L78.8233 38.7955L79.1118 40.4686L77.6053 39.6801L76.1053 40.4686L76.3873 38.7955L75.1758 37.6095L76.8553 37.3659L77.6053 35.8467Z" fill="#407BFF"/>
<path d="M83.2563 35.8467L84.0063 37.3659L85.6858 37.6095L84.4742 38.7955L84.7627 40.4686L83.2563 39.6801L81.7498 40.4686L82.0383 38.7955L80.8203 37.6095L82.5062 37.3659L83.2563 35.8467Z" fill="#407BFF"/>
<path d="M88.9086 35.8467L89.6586 37.3659L91.3381 37.6095L90.1202 38.7955L90.4086 40.4686L88.9086 39.6801L87.4022 40.4686L87.6906 38.7955L86.4727 37.6095L88.1522 37.3659L88.9086 35.8467Z" fill="#407BFF"/>
<path d="M94.5584 35.8467L95.3149 37.3659L96.9944 37.6095L95.7764 38.7955L96.0649 40.4686L94.5584 39.6801L93.0584 40.4686L93.3469 38.7955L92.1289 37.6095L93.8084 37.3659L94.5584 35.8467Z" fill="#407BFF"/>
<path d="M173.952 86.7044C170.221 83.8133 167.932 86.4737 164.124 84.3454C162.278 83.3133 161.118 83.7364 162.483 82.23C162.496 82.2172 162.503 82.2043 162.515 82.1915C163.567 80.9158 164.381 79.4094 165.022 77.9222C165.83 76.0375 166.009 73.9734 165.823 71.9285C165.714 70.7618 166.041 69.6912 166.631 68.7617C168.714 69.1271 171.381 68.7489 172.317 70.6784C172.407 70.8579 173.343 73.6208 173.484 77.4222C173.093 77.1401 172.714 76.8645 172.323 76.576C172.907 78.0312 173.471 79.0376 173.926 79.9607C174.65 81.4094 174.054 84.2364 173.945 86.7044H173.952Z" fill="#263238"/>
<path d="M160.651 90.2697C162.363 88.5709 161.921 80.7246 161.921 80.7246L166.684 84.1606C166.684 84.1606 166.838 89.0133 167.966 89.9812C168.229 90.2056 168.639 90.0325 168.959 90.0646L168.632 91.289L167.684 92.7954L166.414 93.6416L164.575 93.5903L162.94 93.071L161.094 91.6992L159.594 90.4171C159.953 90.3659 160.414 90.5133 160.658 90.2697H160.651Z" fill="#EEC8C0"/>
<path opacity="0.1" d="M166.973 85.5132C163.794 85.058 162.37 83.3593 161.742 82.0323L161.915 80.7246L166.678 84.1606L166.973 85.5132Z" fill="black"/>
<path d="M172.452 78.7365V78.8134C172.452 79.089 172.439 79.3583 172.42 79.6147C172.401 79.8711 172.362 80.1211 172.317 80.3519C171.747 83.0186 169.317 84.6148 166.727 84.3776C166.708 84.3776 166.695 84.3776 166.683 84.3776C165.663 84.2815 164.631 83.9032 163.682 83.2045C163.221 82.8712 162.843 82.5314 162.516 82.1853C162.298 81.9481 162.112 81.7109 161.939 81.4545C161.9 81.3968 161.875 81.3519 161.836 81.2942C161.721 81.1147 161.618 80.9288 161.522 80.7365C161.471 80.6403 161.426 80.5442 161.381 80.4416C161.381 80.4288 161.368 80.416 161.362 80.3968C161.33 80.3262 161.304 80.2493 161.272 80.1788C160.952 79.3839 160.708 78.448 160.439 77.2941C160.413 77.2044 160.388 77.1082 160.368 77.0121C160.368 76.9736 160.355 76.9415 160.349 76.9031C160.259 76.5121 160.17 76.0826 160.067 75.6338C159.868 74.7812 159.868 73.8838 160.067 73.0184C160.42 71.5248 161.33 70.3132 162.522 69.5504C163.407 68.9798 164.458 68.6529 165.548 68.6465C165.907 68.6465 166.272 68.6785 166.631 68.7491C166.715 68.7619 166.798 68.7811 166.888 68.8003C168.843 69.2427 170.221 70.7363 171.119 72.5825C171.208 72.762 171.292 72.9543 171.369 73.1402C171.401 73.1979 171.426 73.2684 171.452 73.3325C171.734 74.0312 171.945 74.762 172.106 75.5056C172.119 75.5569 172.125 75.6018 172.138 75.6531C172.24 76.1595 172.317 76.6595 172.362 77.1531C172.42 77.698 172.452 78.23 172.445 78.7365H172.452Z" fill="#EEC8C0"/>
<path d="M170.306 75.2551C170.364 75.5884 170.223 75.8897 170.011 75.9217C169.793 75.9538 169.575 75.7166 169.511 75.3768C169.466 75.0948 169.562 74.8448 169.723 74.7486L169.755 74.7358L170.485 74.3896C170.485 74.3896 170.332 74.7294 170.088 74.8127C170.191 74.9089 170.274 75.0691 170.3 75.2551H170.306Z" fill="#263238"/>
<path d="M169.266 76.0171C169.817 76.639 170.445 77.1838 171.144 77.6326C170.9 77.9851 170.509 78.2095 170.086 78.2544L169.272 76.0107L169.266 76.0171Z" fill="#ED893E"/>
<path d="M165.144 75.1476C165.234 75.1476 165.311 75.0899 165.336 75.013C165.612 74.4232 166.125 73.9745 166.747 73.7757C166.856 73.7437 166.913 73.6347 166.881 73.5257C166.849 73.4232 166.74 73.3655 166.638 73.3975C166.638 73.3975 166.638 73.3975 166.631 73.3975C165.881 73.6283 165.266 74.1796 164.958 74.8976C164.926 75.0001 164.984 75.1091 165.086 75.1412C165.086 75.1412 165.125 75.154 165.144 75.1476Z" fill="#263238"/>
<path d="M171.398 73.148C171.468 73.148 171.539 73.1095 171.571 73.0454C171.622 72.9492 171.59 72.8274 171.5 72.7697C170.949 72.4236 170.263 72.3723 169.673 72.6351C169.577 72.68 169.539 72.789 169.577 72.8851C169.577 72.8851 169.577 72.8915 169.584 72.898C169.635 72.9941 169.75 73.0326 169.846 72.9877C170.314 72.8018 170.846 72.8467 171.276 73.1159C171.308 73.1351 171.353 73.148 171.391 73.148H171.398Z" fill="#263238"/>
<path d="M166.527 75.9349C166.578 76.2683 166.443 76.5695 166.232 76.608C166.014 76.6401 165.796 76.3965 165.732 76.0631C165.7 75.7426 165.821 75.4285 166.033 75.39H166.084L166.706 75.1016C166.706 75.1016 166.559 75.4157 166.321 75.5118C166.424 75.608 166.501 75.7618 166.527 75.9349Z" fill="#263238"/>
<path d="M155.244 102.315L152.597 108.674C151.821 110.54 152.661 113.322 153.501 115.264C155.385 119.642 158.315 126.553 158.315 126.553C157.789 128.143 155.052 127.764 155.052 127.764C155.052 127.764 150.103 120.136 148.039 112.668C146.667 107.719 150.135 96.5907 153.174 92.4816C154.103 91.2316 157.071 89.1738 157.071 89.1738L156.488 103.007L155.238 102.309L155.244 102.315Z" fill="#EEC8C0"/>
<path d="M156.958 125.675L158.984 126.983C159.048 127.027 159.106 127.085 159.157 127.149L160.856 129.579C160.945 129.707 160.984 129.867 160.965 130.027L160.824 131.092C160.798 131.271 160.702 131.425 160.548 131.502L157.715 133.028C157.445 133.175 157.099 133.047 156.952 132.745L155.285 129.386C155.253 129.322 155.234 129.252 155.221 129.175L154.939 126.797C154.907 126.553 155.022 126.329 155.227 126.226L156.426 125.624C156.593 125.54 156.792 125.553 156.952 125.662L156.958 125.675Z" fill="#EEC8C0"/>
<path d="M173.239 124.674L155.374 121.071C155.374 121.071 158.079 116.609 154.309 99.7821C152.585 92.096 155.688 88.019 161.707 87.4997C161.989 87.4677 162.265 87.4549 162.553 87.442C164.989 87.3587 168.085 89.3075 170.002 90.769C170.015 90.769 170.021 90.7883 170.034 90.7947C170.63 91.4293 171.201 92.1152 171.88 92.8588C177.47 98.9295 172.547 104.019 173.009 118.917C173.009 119.052 173.009 119.186 172.996 119.315C172.9 122.501 173.252 124.667 173.252 124.667L173.239 124.674Z" fill="#EEC8C0"/>
<path d="M164.574 65.7941C163.433 65.371 162.125 65.6082 161.074 66.2171C160.023 66.8261 159.208 67.7813 158.555 68.8005C157.119 71.0442 156.362 74.6276 156.792 77.2559C157.228 79.8841 159.189 83.897 162.221 84.1855C160.567 78.3584 163.491 71.0442 165.029 65.8325C164.875 65.8646 164.721 65.7556 164.568 65.7876L164.574 65.7941Z" fill="#263238"/>
<path d="M159.457 78.9739C159.835 79.6662 160.47 80.1855 161.22 80.4098C162.226 80.6983 162.745 79.8008 162.47 78.8393C162.22 77.9739 161.399 76.7879 160.38 76.9033C159.643 77.0123 159.136 77.6918 159.245 78.429C159.271 78.6213 159.348 78.8136 159.457 78.9739Z" fill="#EEC8C0"/>
<path d="M165.747 65.711C169.215 66.5379 172.074 67.961 172.958 72.9547C172.099 72.7945 171.381 73.1471 170.445 73.7817C169.888 72.5252 168.33 70.9098 167.054 70.3906C166.657 71.4483 166.266 72.5124 165.868 73.5701C165.657 74.1471 165.356 75.4548 165.356 75.4548C165.356 75.4548 163.272 75.5061 162.554 75.6792C162.554 75.6792 161.753 71.4739 162.785 68.647C163.227 67.4418 163.766 66.1661 164.868 65.5059L165.753 65.711H165.747Z" fill="#263238"/>
<path d="M172.991 118.918C172.991 119.046 172.991 119.181 173.004 119.309C173.004 119.309 172.985 119.309 172.979 119.322C168.043 121.514 158.844 118.815 155.664 117.886C155.69 117.354 155.696 116.745 155.69 116.072C157.036 115.424 158.837 114.969 159.709 114.546C162.914 112.988 165.664 110.501 167.478 107.424C170.011 103.135 171.408 97.2827 169.991 92.507C169.357 90.3723 167.004 89.0197 165.055 88.2889C164.357 88.0197 161.965 87.8018 161.703 87.5005C161.703 87.321 161.683 86.6607 161.946 86.7184C166.639 87.7312 168.421 89.0774 170.03 90.8018C170.626 91.4365 172.818 94.3532 173.498 95.0904C179.088 101.161 172.543 104.02 173.004 118.918H172.991Z" fill="#263238"/>
<path opacity="0.3" d="M172.991 118.918C172.991 119.046 172.991 119.181 173.004 119.309C173.004 119.309 172.985 119.309 172.979 119.322C168.043 121.514 158.844 118.815 155.664 117.886C155.69 117.354 155.696 116.745 155.69 116.072C157.036 115.424 158.837 114.969 159.709 114.546C162.914 112.988 165.664 110.501 167.478 107.424C170.011 103.135 171.408 97.2827 169.991 92.507C169.357 90.3723 167.004 89.0197 165.055 88.2889C164.357 88.0197 161.965 87.8018 161.703 87.5005C161.703 87.321 161.683 86.6607 161.946 86.7184C166.639 87.7312 168.421 89.0774 170.03 90.8018C170.626 91.4365 172.818 94.3532 173.498 95.0904C179.088 101.161 172.543 104.02 173.004 118.918H172.991Z" fill="white"/>
<path d="M161.624 149.248C161.624 149.248 160.899 151.53 159.771 155.005C159.771 155.03 159.752 155.056 159.752 155.075C158.944 157.543 157.951 160.614 156.867 163.883C154.784 170.197 153.649 175.165 151.784 180.191C149.617 186.044 136.982 208.134 133.655 213.532C132.944 214.685 132.283 215.871 131.661 217.076L131.008 218.359L127.738 216.153L128.475 214.41V214.391C128.815 213.512 140.046 184.153 142.207 176.069C145.117 165.165 146.649 147.094 150.322 135.318C150.662 134.216 151.034 133.158 151.425 132.139C151.425 132.139 162.681 141.568 163.316 142.357C163.944 143.145 161.611 149.242 161.611 149.242L161.624 149.248Z" fill="#EEC8C0"/>
<path opacity="0.1" d="M146.616 152.91C146.616 152.91 149.552 156.82 159.155 156.903L159.956 154.429L160.558 150.538L160.879 149.089C160.879 149.089 152.501 140.743 146.609 152.91H146.616Z" fill="black"/>
<path d="M131.858 217.672L127.871 215.307C126.724 216.813 124.704 219.082 124.704 219.082C124.467 219.377 124.486 219.826 124.756 220.082C124.788 220.114 124.826 220.146 124.865 220.172C126.409 221.063 127.813 221.794 129.711 222.941C131.954 224.294 131.236 224.249 133.852 225.884C135.429 226.865 136.717 225.063 136.089 224.557C133.217 222.268 131.884 218.627 131.852 217.672H131.858Z" fill="#263238"/>
<path d="M173.159 141.484C172.736 150.195 172.498 167.394 171.594 176.074C170.543 186.145 165.364 221.319 165.364 221.319L161.171 220.908C161.171 220.908 159.357 193.106 161.357 178.856C161.985 174.407 160.319 162.356 159.626 155.189C159.626 155.157 159.613 155.138 159.62 155.099C159.024 149.009 158.472 144.118 158.472 144.118C158.472 144.118 154.152 142.477 151.594 138.81C150.902 137.836 150.338 136.708 150.03 135.426C149.889 134.887 149.799 134.323 149.761 133.727C149.299 126.759 155.068 120.919 155.068 120.919L172.845 124.579C172.845 124.579 173.37 137.163 173.165 141.484H173.159Z" fill="#EEC8C0"/>
<path opacity="0.1" d="M159.124 151.247L159.784 156.638C159.297 157.734 169.476 157.792 172.823 154.138L172.835 153.805L172.476 147.907L159.117 151.247H159.124Z" fill="black"/>
<path d="M173.525 153.837C173.525 153.837 161.473 152.926 155.505 153.458C144.191 154.471 142.312 149.811 142.312 149.811C142.312 149.811 147.21 148.997 148.793 132.06C149.172 127.99 152.351 123.868 154.076 121.9C154.883 120.663 155.415 119.265 155.633 117.804L172.961 118.842L173.076 123.208C173.076 123.208 173.717 129.753 173.775 131.413C173.98 137.452 173.525 153.843 173.525 153.843V153.837Z" fill="#263238"/>
<path opacity="0.3" d="M173.525 153.837C173.525 153.837 161.473 152.926 155.505 153.458C144.191 154.471 142.312 149.811 142.312 149.811C142.312 149.811 147.21 148.997 148.793 132.06C149.172 127.99 152.351 123.868 154.076 121.9C154.883 120.663 155.415 119.265 155.633 117.804L172.961 118.842L173.076 123.208C173.076 123.208 173.717 129.753 173.775 131.413C173.98 137.452 173.525 153.843 173.525 153.843V153.837Z" fill="white"/>
<path d="M165.809 220.371L160.86 220.383C160.731 220.383 160.635 220.127 160.584 220.819C160.469 222.46 160.187 224.082 159.693 225.653L159.655 225.762C159.578 226.204 159.828 226.653 160.212 226.755C160.264 226.768 160.308 226.775 160.36 226.781C162.244 226.775 163.924 226.678 166.27 226.717C169.046 226.762 168.353 227.14 171.61 227.249C173.578 227.313 173.86 224.691 173.02 224.55C169.193 223.928 166.219 220.364 165.809 220.377V220.371Z" fill="#263238"/>
<path opacity="0.1" d="M166.178 91.6102C164.377 89.482 164.3 104.585 171.095 110.014C175.268 113.348 175.338 102.425 166.178 91.6102Z" fill="black"/>
<path d="M164.039 91.5406C164.18 92.5022 164.365 93.4573 164.603 94.3996C169.693 109.823 177.391 106.323 178.975 104.599C180.116 101.97 179.943 90.438 178.731 85.9443L176.693 87.1238C176.013 88.6239 175.975 101.65 174.75 99.1177C174.75 99.1177 171.045 94.2843 170.699 92.8419C170.699 92.8355 170.699 92.8291 170.699 92.8163C170.148 90.5278 168.218 88.8354 165.872 88.6559C165.872 88.6559 163.846 89.1623 164.045 91.5342L164.039 91.5406Z" fill="#EEC8C0"/>
<path d="M177.396 87.311C175.377 86.8174 174.223 84.6956 174.223 84.6956L178.261 81.875L178.729 85.9456L177.402 87.311H177.396Z" fill="#EEC8C0"/>
<path d="M178.275 81.8809L174.237 84.7015L172.551 80.2014L176.032 79.2334L178.275 81.8809Z" fill="#EEC8C0"/>
<path d="M169.171 80.1544C169.235 80.4942 169.472 80.7314 169.69 80.6929C169.908 80.648 170.037 80.3403 169.972 80.0006C169.908 79.6608 169.671 79.4236 169.453 79.4621C169.235 79.507 169.101 79.8147 169.171 80.1544Z" fill="#263238"/>
<path d="M143.667 45.96H175.277C176.148 45.96 176.86 46.6715 176.86 47.5369V56.3128C176.86 57.1782 176.148 57.8897 175.277 57.8897H170.507L170.321 61.1462C169.815 61.9796 168.635 62.0244 168.155 61.2295L166.122 57.8897H143.667C142.795 57.8897 142.09 57.1782 142.09 56.3128V47.5369C142.09 46.6651 142.801 45.96 143.673 45.96H143.667Z" fill="#407BFF"/>
<g opacity="0.7">
<path d="M143.667 45.959H175.277C176.148 45.959 176.86 46.6705 176.86 47.5359V56.3118C176.86 57.1772 176.148 57.8887 175.277 57.8887H170.507L170.321 61.1452C169.815 61.9786 168.635 62.0234 168.155 61.2286L166.122 57.8887H143.667C142.795 57.8887 142.09 57.1772 142.09 56.3118V47.5359C142.09 46.6641 142.801 45.959 143.673 45.959H143.667Z" fill="white"/>
</g>
<path d="M148.291 49.5049L149.041 51.0306L150.721 51.2742L149.509 52.4601L149.791 54.1332L148.291 53.3447L146.785 54.1332L147.073 52.4601L145.855 51.2742L147.541 51.0306L148.291 49.5049Z" fill="#407BFF"/>
<path d="M153.948 49.5049L154.698 51.0306L156.377 51.2742L155.159 52.4601L155.448 54.1332L153.948 53.3447L152.441 54.1332L152.73 52.4601L151.512 51.2742L153.191 51.0306L153.948 49.5049Z" fill="#407BFF"/>
<path d="M159.594 49.5049L160.35 51.0306L162.03 51.2742L160.812 52.4601L161.1 54.1332L159.594 53.3447L158.094 54.1332L158.382 52.4601L157.164 51.2742L158.844 51.0306L159.594 49.5049Z" fill="#407BFF"/>
<path d="M165.246 49.5049L165.996 51.0306L167.682 51.2742L166.464 52.4601L166.752 54.1332L165.246 53.3447L163.746 54.1332L164.028 52.4601L162.816 51.2742L164.496 51.0306L165.246 49.5049Z" fill="#263238"/>
<path d="M170.901 49.5049L171.651 51.0306L173.33 51.2742L172.119 52.4601L172.401 54.1332L170.901 53.3447L169.394 54.1332L169.683 52.4601L168.465 51.2742L170.151 51.0306L170.901 49.5049Z" fill="#263238"/>
<path d="M183.478 228.057C182.683 228.057 182.049 227.595 181.863 226.871L173.664 195.37H183.972L185.959 225.486C186.043 226.781 184.812 228.05 183.472 228.05L183.478 228.057Z" fill="#263238"/>
<path d="M220.182 228.057C219.387 228.057 218.752 227.595 218.566 226.871L210.367 195.37H220.675L222.662 225.486C222.746 226.781 221.515 228.05 220.175 228.05L220.182 228.057Z" fill="#263238"/>
<path opacity="0.2" d="M220.182 228.057C219.387 228.057 218.752 227.595 218.566 226.871L210.367 195.37H220.675L222.662 225.486C222.746 226.781 221.515 228.05 220.175 228.05L220.182 228.057Z" fill="white"/>
<path d="M154.102 228.057C154.897 228.057 155.532 227.595 155.717 226.871L163.916 195.37H153.608L151.621 225.486C151.538 226.781 152.769 228.05 154.108 228.05L154.102 228.057Z" fill="#263238"/>
<path opacity="0.2" d="M154.102 228.057C154.897 228.057 155.532 227.595 155.717 226.871L163.916 195.37H153.608L151.621 225.486C151.538 226.781 152.769 228.05 154.108 228.05L154.102 228.057Z" fill="white"/>
<path d="M117.399 228.057C118.194 228.057 118.828 227.595 119.014 226.871L127.213 195.37H116.905L114.918 225.486C114.835 226.781 116.066 228.05 117.405 228.05L117.399 228.057Z" fill="#263238"/>
<path d="M224.808 147.723L219.782 192.916C219.449 196.089 216.308 198.544 212.493 198.653C212.404 198.66 212.307 198.66 212.211 198.66H148.864C144.408 198.66 140.908 195.493 141.299 191.82L146.319 146.627C146.665 143.376 149.947 140.883 153.889 140.883H217.231C217.333 140.883 217.429 140.883 217.532 140.889C221.846 141.024 225.179 144.126 224.801 147.723H224.808Z" fill="#407BFF"/>
<path opacity="0.5" d="M224.808 147.723L219.782 192.916C219.449 196.089 216.308 198.544 212.493 198.653C212.404 198.66 212.307 198.66 212.211 198.66H148.864C144.408 198.66 140.908 195.493 141.299 191.82L146.319 146.627C146.665 143.376 149.947 140.883 153.889 140.883H217.231C217.333 140.883 217.429 140.883 217.532 140.889C221.846 141.024 225.179 144.126 224.801 147.723H224.808Z" fill="white"/>
<path d="M228.282 147.724L223.256 192.917C222.923 196.091 219.782 198.546 215.968 198.655C211.653 198.52 208.314 195.417 208.698 191.821L213.724 146.628C214.057 143.455 217.192 141 221.013 140.891C225.327 141.025 228.667 144.128 228.282 147.724Z" fill="#407BFF"/>
<path opacity="0.3" d="M228.282 147.724L223.256 192.917C222.923 196.091 219.782 198.546 215.968 198.655C211.653 198.52 208.314 195.417 208.698 191.821L213.724 146.628C214.057 143.455 217.192 141 221.013 140.891C225.327 141.025 228.667 144.128 228.282 147.724Z" fill="white"/>
<path d="M215.592 186.377H171.488C167.059 186.377 163.469 189.967 163.469 194.396V199.544C163.469 203.973 167.059 207.563 171.488 207.563H215.592C220.021 207.563 223.611 203.973 223.611 199.544V194.396C223.611 189.967 220.021 186.377 215.592 186.377Z" fill="#407BFF"/>
<path opacity="0.3" d="M215.592 186.377H171.488C167.059 186.377 163.469 189.967 163.469 194.396V199.544C163.469 203.973 167.059 207.563 171.488 207.563H215.592C220.021 207.563 223.611 203.973 223.611 199.544V194.396C223.611 189.967 220.021 186.377 215.592 186.377Z" fill="white"/>
<path d="M187.2 186.377H118.544C114.207 186.377 110.691 189.893 110.691 194.23V199.711C110.691 204.048 114.207 207.563 118.544 207.563H187.2C191.536 207.563 195.052 204.048 195.052 199.711V194.23C195.052 189.893 191.536 186.377 187.2 186.377Z" fill="#407BFF"/>
<path opacity="0.6" d="M187.2 186.377H118.544C114.207 186.377 110.691 189.893 110.691 194.23V199.711C110.691 204.048 114.207 207.563 118.544 207.563H187.2C191.536 207.563 195.052 204.048 195.052 199.711V194.23C195.052 189.893 191.536 186.377 187.2 186.377Z" fill="white"/>
<path d="M137.007 208.433L131.34 219.203L127.859 216.799L131.34 206.087L137.007 208.433Z" fill="#7F3E3B"/>
<path d="M182.886 162.565C182.886 162.565 177.777 162.68 172.11 160.969C171.969 163.559 170.847 165.995 168.975 167.789L168.232 168.507C168.232 168.507 146.148 163.135 143.129 170.078C140.552 176.001 128.5 210.38 128.5 210.38L135.859 213.585C135.859 213.585 146.635 198.482 151.59 186.328C151.853 185.681 152.763 182.264 152.763 182.264C156.449 183.95 167.398 188.136 181.463 187.482C183.642 187.38 185.828 185.995 185.309 178.879C184.79 171.764 182.879 162.559 182.879 162.559L182.886 162.565Z" fill="#407BFF"/>
<path opacity="0.2" d="M169.939 183.393C163.759 180.521 155.259 172.809 151.31 169.931C150.175 169.104 149.137 168.662 148.227 168.437C151.707 167.751 156.143 167.873 159.951 168.219L168.945 172.386L183.381 179.13L185.086 184.303C184.413 187.059 182.663 187.431 181.099 187.508C174.58 187.81 167.567 186.925 163.022 185.777C163.746 185.861 175.9 186.175 169.939 183.399V183.393Z" fill="black"/>
<path d="M126.295 188.566L118.365 196.297L115.391 193.861L121.551 184.944L126.295 188.566Z" fill="#7F3E3B"/>
<path d="M115.969 192.798L119.431 195.548C119.578 195.67 119.63 195.875 119.546 196.048L117.694 199.856C117.533 200.196 117.123 200.337 116.79 200.177C116.745 200.157 116.706 200.132 116.668 200.1C115.251 198.939 114.04 197.843 112.258 196.433C110.149 194.76 110.482 195.439 107.982 193.51C106.475 192.343 107.546 190.433 108.245 190.849C111.431 192.785 112.944 192.555 114.88 192.407C115.283 192.407 115.668 192.542 115.976 192.805L115.969 192.798Z" fill="#407BFF"/>
<path d="M114.56 192.623C114.56 192.623 114.624 192.629 114.65 192.603C114.675 192.578 114.682 192.539 114.669 192.501C114.598 192.328 113.925 190.815 113.419 190.719C113.323 190.7 113.22 190.738 113.15 190.809C113.034 190.924 112.976 191.084 113.002 191.244C113.079 191.783 114.002 192.334 114.541 192.616H114.553L114.56 192.623ZM113.425 190.905C113.701 191.007 114.13 191.757 114.406 192.341C113.682 191.93 113.233 191.52 113.188 191.219C113.169 191.116 113.207 191.007 113.291 190.93C113.316 190.898 113.355 190.885 113.393 190.892H113.432L113.425 190.905Z" fill="#407BFF"/>
<path d="M114.558 192.623L114.577 192.636C114.609 192.636 114.641 192.623 114.66 192.597C114.686 192.565 115.256 191.725 115.147 191.129C115.115 190.956 115.013 190.802 114.865 190.706C114.66 190.571 114.526 190.623 114.449 190.693C114.115 190.982 114.288 192.161 114.5 192.597C114.513 192.616 114.532 192.629 114.558 192.629V192.623ZM114.686 190.802L114.756 190.86C114.865 190.93 114.942 191.046 114.961 191.174C114.961 191.597 114.84 192.02 114.596 192.373C114.417 191.866 114.365 191.007 114.558 190.828C114.57 190.815 114.602 190.783 114.673 190.815V190.802H114.686Z" fill="#407BFF"/>
<path d="M126.674 216.279C126.674 216.279 126.718 216.228 126.712 216.189C126.706 216.151 126.673 216.119 126.635 216.112C126.449 216.074 124.75 215.792 124.372 216.176C124.302 216.253 124.276 216.356 124.295 216.458C124.327 216.625 124.436 216.766 124.59 216.837C125.103 217.074 126.109 216.593 126.661 216.285L126.674 216.273V216.279ZM124.532 216.279C124.776 216.099 125.673 216.157 126.334 216.253C125.565 216.651 124.949 216.798 124.667 216.67C124.564 216.625 124.494 216.529 124.475 216.42C124.462 216.382 124.475 216.337 124.5 216.311L124.526 216.285L124.532 216.279Z" fill="#407BFF"/>
<path d="M126.676 216.279H126.695C126.714 216.247 126.721 216.208 126.708 216.176C126.695 216.138 126.298 215.163 125.714 214.913C125.547 214.843 125.355 214.843 125.182 214.913C124.951 215.016 124.919 215.157 124.932 215.266C124.99 215.721 126.112 216.24 126.612 216.304C126.637 216.304 126.656 216.291 126.669 216.272L126.676 216.279ZM125.169 215.125L125.259 215.093C125.381 215.035 125.522 215.035 125.65 215.093C126.022 215.33 126.31 215.682 126.477 216.093C125.939 215.958 125.156 215.516 125.118 215.247C125.118 215.227 125.105 215.182 125.169 215.138V215.125Z" fill="#407BFF"/>
<path d="M177.402 162.015C186.992 163.778 195.813 162.387 195.813 162.387C195.813 162.387 202.159 186.791 184.037 186.772C177.338 186.765 174.601 183.926 170.293 181.297C160.485 175.304 152.459 166.541 148.619 167.028C143.094 167.727 146.1 174.329 123.305 192.214L118.715 188.035C118.715 188.035 135.946 150.162 147.273 150.162C157.1 150.162 172.562 165.291 174.639 165.342C176.716 165.393 177.402 162.021 177.402 162.021V162.015Z" fill="#407BFF"/>
<path opacity="0.2" d="M145.522 168.381H145.528C144.137 168.977 143.093 169.81 142.586 170.964C142.285 171.663 142.003 172.785 141.753 174.227C141.099 175.137 140.336 176.144 139.426 177.253C140.144 169.874 145.522 168.387 145.522 168.387V168.381Z" fill="black"/>
<path d="M128.17 216.223L132.356 218.101C132.536 218.184 132.638 218.376 132.6 218.575L131.715 222.877C131.638 223.261 131.267 223.505 130.888 223.434C130.837 223.421 130.792 223.409 130.747 223.389C129.029 222.582 127.529 221.8 125.369 220.832C122.824 219.691 123.33 220.287 120.318 218.985C118.503 218.203 119.093 216.005 119.901 216.242C123.6 217.37 125.061 216.755 126.972 216.101C127.375 215.992 127.799 216.037 128.17 216.216V216.223Z" fill="#407BFF"/>
<path d="M158.069 133.253C158.069 133.253 156.685 130.4 157.524 129.804C158.364 129.201 158.21 129.964 158.21 129.964L159.967 133.49L158.076 133.259L158.069 133.253Z" fill="#7F3E3B"/>
<path d="M155.848 136.323C155.066 136.208 154.983 135.618 154.579 134.939C154.579 134.939 153.387 132.214 154.335 131.811C154.335 131.811 155.739 131.644 157.31 131.702C159.085 131.772 159.938 133.176 160.227 134.176C161.092 137.17 155.848 136.323 155.848 136.323Z" fill="#7F3E3B"/>
<path d="M157 136.06L160.833 142.221L164.654 141.535L160.071 135.496L157 136.06Z" fill="#7F3E3B"/>
<path d="M176.784 132.099C176.784 132.099 172.233 131.875 170.477 140.76C169.195 147.247 168.983 146.535 168.983 146.535L161.72 136.522L157.547 138.195C157.547 138.195 165.989 155.087 170.374 153.696C170.374 153.696 172.618 153.587 174.329 149.85C176.041 146.112 176.791 132.106 176.791 132.106L176.784 132.099Z" fill="#407BFF"/>
<path d="M176.784 132.099C176.784 132.099 172.233 131.875 170.477 140.76C169.195 147.247 168.983 146.535 168.983 146.535L161.72 136.522L157.547 138.195C157.547 138.195 165.989 155.087 170.374 153.696C170.374 153.696 172.618 153.587 174.329 149.85C176.041 146.112 176.791 132.106 176.791 132.106L176.784 132.099Z" fill="#263238"/>
<path d="M172.481 138.642C172.429 140.738 168.801 145.341 172.679 148.418C171.801 150.066 170.378 161.547 171.776 163.713C171.776 163.713 186.141 165.848 196.315 165.201C197.026 161.059 195.27 152.45 198.994 139.181C199.86 136.104 197.866 132.956 194.718 132.424C193.879 132.283 192.981 132.148 192.064 132.04C188.5 131.623 185.584 131.309 182.423 131.386C181.378 131.411 180.289 131.469 179.25 131.54C175.506 131.809 172.57 134.886 172.474 138.642H172.481Z" fill="#263238"/>
<path opacity="0.2" d="M190.883 146.074C192.037 139.977 194.293 134.843 194.293 134.843L194.562 137.292L195.37 138.317C194.03 142.369 200.921 149.119 193.146 158.51C192.767 158.965 192.139 159.119 191.588 158.888C188.325 157.529 184.703 153.305 184.703 153.305L186.408 148.946C188.71 150.029 190.255 149.375 190.883 146.074Z" fill="black"/>
<path d="M174.8 147.264L177.659 147.315C178.248 147.328 178.633 146.854 178.518 146.264L177.062 138.77C176.947 138.18 176.377 137.693 175.793 137.68L172.934 137.629C172.344 137.616 171.96 138.091 172.075 138.68L173.53 146.174C173.646 146.764 174.216 147.251 174.8 147.264Z" fill="#263238"/>
<path opacity="0.3" d="M174.8 147.264L177.659 147.315C178.248 147.328 178.633 146.854 178.518 146.264L177.062 138.77C176.947 138.18 176.377 137.693 175.793 137.68L172.934 137.629C172.344 137.616 171.96 138.091 172.075 138.68L173.53 146.174C173.646 146.764 174.216 147.251 174.8 147.264Z" fill="white"/>
<path d="M174.37 147.254L177.229 147.306C177.819 147.318 178.203 146.844 178.088 146.254L176.633 138.76C176.517 138.171 175.947 137.683 175.363 137.671L172.504 137.619C171.915 137.607 171.53 138.081 171.645 138.671L173.101 146.164C173.216 146.754 173.787 147.241 174.37 147.254Z" fill="#263238"/>
<path opacity="0.7" d="M174.37 147.254L177.229 147.306C177.819 147.318 178.203 146.844 178.088 146.254L176.633 138.76C176.517 138.171 175.947 137.683 175.363 137.671L172.504 137.619C171.915 137.607 171.53 138.081 171.645 138.671L173.101 146.164C173.216 146.754 173.787 147.241 174.37 147.254Z" fill="white"/>
<path d="M175.65 139.889H175.375C174.977 139.876 174.599 139.549 174.522 139.152L174.471 138.876C174.394 138.479 174.65 138.165 175.048 138.171H175.323C175.721 138.184 176.099 138.511 176.176 138.908L176.227 139.184C176.304 139.581 176.048 139.895 175.65 139.889Z" fill="#263238"/>
<path d="M174.99 138.6C175.022 138.766 175.182 138.901 175.343 138.901C175.509 138.901 175.612 138.773 175.58 138.606C175.548 138.439 175.387 138.305 175.227 138.305C175.067 138.305 174.958 138.433 174.99 138.6Z" fill="#263238"/>
<path d="M175.15 139.453C175.182 139.62 175.342 139.754 175.503 139.754C175.669 139.754 175.772 139.626 175.74 139.459C175.708 139.293 175.548 139.158 175.387 139.158C175.227 139.158 175.118 139.286 175.15 139.453Z" fill="#263238"/>
<path d="M178.316 146.822L182.708 151.162L184.637 148.091L180.034 144.636L178.316 146.822Z" fill="#7F3E3B"/>
<path d="M199.238 142.181C199.706 139.649 199.77 134.482 197.097 133.521C193.968 132.393 193.135 137.117 192.462 141.38C191.789 145.643 190.468 150.944 189.443 150.425C187.314 149.348 183.59 146.887 183.59 146.887L181.34 150.367C181.34 150.367 189.186 158.727 192.757 156.771C196.77 154.573 198.642 145.38 199.231 142.168L199.238 142.181Z" fill="#263238"/>
<path d="M189.679 125.04C189.679 125.04 188.891 128.495 189.743 131.81C189.743 131.81 181.141 137.316 181.141 131.649C181.141 131.649 183.814 131.97 184.038 128.54C184.166 126.591 186.198 124.617 189.679 125.034V125.04Z" fill="#7F3E3B"/>
<path opacity="0.2" d="M184.042 128.546C184.273 126.751 185.933 124.918 188.946 124.995L189.144 125.18L189.356 125.571C189.356 125.571 187.414 130.507 183.715 129.911C183.843 129.578 183.965 129.142 184.042 128.546Z" fill="black"/>
<path d="M191.646 118.308C190.979 122.982 190.8 124.975 188.229 127.2C184.37 130.539 178.774 128.7 178.024 123.918C177.351 119.616 178.556 112.693 183.306 111.193C186.691 110.103 190.319 111.969 191.409 115.353C191.716 116.308 191.793 117.321 191.64 118.308H191.646Z" fill="#7F3E3B"/>
<path d="M181.237 120.879C180.827 121.725 180.301 122.514 179.68 123.212C180.051 123.526 180.539 123.661 181.019 123.584L181.237 120.879Z" fill="#630F0F"/>
<path d="M185.406 118.513C185.438 118.513 185.47 118.493 185.496 118.474C185.579 118.41 185.592 118.295 185.528 118.211C185.105 117.634 184.432 117.301 183.72 117.314C183.618 117.327 183.541 117.416 183.547 117.519C183.554 117.622 183.643 117.698 183.746 117.692C184.336 117.692 184.887 117.974 185.233 118.448C185.272 118.5 185.336 118.525 185.406 118.519V118.513Z" fill="#263238"/>
<path d="M178.471 117.642C178.503 117.642 178.535 117.623 178.561 117.604C179.029 117.251 179.638 117.136 180.195 117.309C180.291 117.347 180.4 117.302 180.439 117.206C180.471 117.11 180.426 117.001 180.33 116.962C179.65 116.751 178.907 116.879 178.336 117.302C178.253 117.36 178.227 117.475 178.285 117.559C178.323 117.616 178.4 117.648 178.471 117.642Z" fill="#263238"/>
<path d="M183.983 120.461C183.951 120.839 183.727 121.134 183.471 121.115C183.214 121.096 183.041 120.769 183.08 120.384C183.112 120 183.336 119.711 183.586 119.73C183.836 119.75 184.015 120.077 183.983 120.461Z" fill="#263238"/>
<path d="M179.661 120.115C179.629 120.494 179.405 120.789 179.155 120.769C178.905 120.75 178.726 120.423 178.758 120.039C178.79 119.654 179.014 119.365 179.264 119.385C179.514 119.404 179.694 119.731 179.661 120.115Z" fill="#263238"/>
<path d="M179.366 119.417L178.469 119.077C178.469 119.077 178.885 119.827 179.366 119.417Z" fill="#263238"/>
<path d="M183.698 119.763L182.801 119.423C182.801 119.423 183.217 120.173 183.698 119.763Z" fill="#263238"/>
<path d="M183.442 124.295C183.545 124.179 183.641 124.058 183.724 123.929C183.756 123.891 183.743 123.833 183.705 123.801C183.66 123.776 183.602 123.788 183.577 123.833C183.16 124.5 182.449 124.929 181.66 124.993C181.609 124.993 181.57 125.032 181.57 125.083C181.57 125.135 181.609 125.173 181.66 125.173C182.352 125.135 182.993 124.814 183.449 124.295H183.442Z" fill="#263238"/>
<path d="M187.413 110.154C187.413 110.154 194.772 108.718 196.484 120.693C197.336 126.655 189.214 129.995 189.214 129.995V128.751C189.214 126.962 189.58 125.193 190.285 123.546L190.823 122.296L187.291 117.347C187.291 117.347 185.176 116.687 184.881 114.719C184.881 114.719 184.381 115.417 185.176 116.693C185.176 116.693 179.778 116.904 180.073 114.11C180.073 114.11 179.644 114.898 180.041 115.616C180.041 115.616 178.362 115.584 178.573 114.116C178.785 112.642 180.067 106.52 187.419 110.154H187.413Z" fill="#263238"/>
<path d="M192.457 122.111C192.124 122.963 191.47 123.649 190.637 124.015C189.521 124.496 188.81 123.54 188.983 122.406C189.137 121.387 189.906 119.906 191.092 119.912C191.951 119.938 192.63 120.656 192.605 121.521C192.598 121.726 192.553 121.931 192.464 122.117L192.457 122.111Z" fill="#7F3E3B"/>
<path d="M174.572 145.264L175.213 146.316C175.456 146.713 175.873 146.963 176.335 146.995L178.495 147.149C179.36 147.213 180.2 146.848 180.751 146.181L181.091 145.764C180.142 143.95 177.783 142.681 177.783 142.681L177.149 142.245C176.585 141.86 175.854 141.976 175.476 142.514L174.597 143.758C174.296 144.187 174.283 144.784 174.572 145.258V145.264Z" fill="#7F3E3B"/>
<path d="M154.096 167.781H185.706C186.578 167.781 187.29 167.07 187.29 166.198V157.422C187.29 156.557 186.578 155.845 185.706 155.845H180.937L180.751 152.589C180.245 151.755 179.065 151.711 178.584 152.505L176.552 155.845H154.096C153.225 155.845 152.52 156.557 152.52 157.422V166.198C152.52 167.07 153.231 167.781 154.103 167.781H154.096Z" fill="#407BFF"/>
<g opacity="0.7">
<path d="M154.096 167.78H185.706C186.578 167.78 187.29 167.069 187.29 166.197V157.421C187.29 156.556 186.578 155.844 185.706 155.844H180.937L180.751 152.588C180.245 151.754 179.065 151.71 178.584 152.504L176.552 155.844H154.096C153.225 155.844 152.52 156.556 152.52 157.421V166.197C152.52 167.069 153.231 167.78 154.103 167.78H154.096Z" fill="white"/>
</g>
<path d="M158.89 159.086L159.647 160.612L161.326 160.855L160.108 162.041L160.397 163.714L158.89 162.926L157.39 163.714L157.679 162.041L156.461 160.855L158.14 160.612L158.89 159.086Z" fill="#407BFF"/>
<path d="M164.547 159.086L165.297 160.612L166.983 160.855L165.765 162.041L166.053 163.714L164.547 162.926L163.047 163.714L163.329 162.041L162.117 160.855L163.797 160.612L164.547 159.086Z" fill="#407BFF"/>
<path d="M170.198 159.086L170.948 160.612L172.627 160.855L171.416 162.041L171.698 163.714L170.198 162.926L168.691 163.714L168.98 162.041L167.762 160.855L169.448 160.612L170.198 159.086Z" fill="#407BFF"/>
<path d="M175.85 159.086L176.6 160.612L178.28 160.855L177.062 162.041L177.35 163.714L175.85 162.926L174.344 163.714L174.632 162.041L173.414 160.855L175.094 160.612L175.85 159.086Z" fill="#407BFF"/>
<path d="M181.5 159.086L182.256 160.612L183.936 160.855L182.718 162.041L183.006 163.714L181.5 162.926L180 163.714L180.288 162.041L179.07 160.855L180.75 160.612L181.5 159.086Z" fill="#263238"/>
<path d="M251.504 204.021L253.587 222.008L258.376 222.021L258.793 203.168L251.504 204.021Z" fill="#FFB573"/>
<path d="M260.214 220.821C263.65 222.783 264.035 222.821 267.817 223.597C268.65 223.764 268.336 225.745 266.407 225.757C263.221 225.809 263.49 225.7 260.765 225.725C258.445 225.751 255.079 225.879 253.233 225.93C253.214 225.93 253.195 225.93 253.169 225.93C252.746 225.898 252.419 225.527 252.438 225.103L252.784 220.847C252.804 220.655 252.958 220.514 253.143 220.514L259.022 220.469C259.438 220.469 259.849 220.591 260.208 220.815L260.214 220.821Z" fill="#263238"/>
<path d="M259.903 220.898C260.666 221.046 262.031 221.219 262.538 220.744C262.692 220.603 262.762 220.398 262.737 220.187C262.724 220.058 262.653 219.943 262.544 219.885C261.961 219.578 260.076 220.565 259.871 220.68C259.833 220.699 259.807 220.751 259.813 220.796C259.813 220.84 259.852 220.873 259.89 220.885L259.91 220.898H259.903ZM262.442 220.09C262.487 220.116 262.512 220.161 262.512 220.206C262.538 220.34 262.487 220.481 262.384 220.571C262.102 220.834 261.32 220.892 260.269 220.725C261.012 220.353 262.038 219.943 262.397 220.065L262.442 220.09Z" fill="#407BFF"/>
<path d="M259.969 220.897C260.533 220.628 261.642 219.59 261.539 219.032C261.514 218.904 261.418 218.744 261.11 218.718C260.886 218.699 260.661 218.769 260.488 218.923C259.898 219.436 259.809 220.731 259.809 220.782C259.809 220.827 259.821 220.865 259.86 220.891H259.886C259.886 220.891 259.943 220.91 259.969 220.904V220.897ZM261.212 218.974C261.309 219 261.315 219.058 261.321 219.083C261.379 219.41 260.636 220.237 260.059 220.603C260.097 220.051 260.302 219.532 260.648 219.109C260.77 218.994 260.937 218.942 261.104 218.962H261.219V218.981L261.212 218.974Z" fill="#407BFF"/>
<path d="M243.504 209.279L250.446 224.113H255.812L250.132 206.125L243.504 209.279Z" fill="#FFB573"/>
<path d="M256.386 223.029C259.822 224.991 260.207 225.029 263.989 225.805C264.822 225.972 264.508 227.953 262.578 227.965C259.392 228.017 259.662 227.908 256.937 227.933C254.617 227.959 251.251 228.087 249.405 228.138C249.386 228.138 249.367 228.138 249.341 228.138C248.918 228.106 248.591 227.735 248.61 227.311L248.956 223.055C248.976 222.863 249.129 222.722 249.315 222.722L255.194 222.677C255.61 222.677 256.021 222.799 256.38 223.023L256.386 223.029Z" fill="#263238"/>
<path d="M256.075 223.106C256.838 223.254 258.203 223.427 258.71 222.952C258.864 222.811 258.934 222.606 258.909 222.395C258.896 222.266 258.825 222.151 258.716 222.093C258.133 221.786 256.248 222.773 256.043 222.888C256.005 222.914 255.979 222.959 255.985 223.004C255.985 223.048 256.024 223.081 256.062 223.093L256.082 223.106H256.075ZM258.614 222.298C258.658 222.324 258.684 222.369 258.684 222.414C258.71 222.548 258.658 222.69 258.556 222.779C258.274 223.042 257.492 223.1 256.441 222.933C257.184 222.561 258.21 222.151 258.569 222.273L258.614 222.298Z" fill="#407BFF"/>
<path d="M256.145 223.105C256.709 222.836 257.818 221.798 257.715 221.24C257.69 221.112 257.593 220.952 257.286 220.926C257.061 220.907 256.837 220.977 256.664 221.131C256.074 221.644 255.984 222.939 255.984 222.99C255.984 223.035 255.997 223.073 256.036 223.099H256.061C256.061 223.099 256.119 223.118 256.145 223.112V223.105ZM257.388 221.182C257.484 221.208 257.491 221.266 257.497 221.291C257.555 221.625 256.811 222.445 256.234 222.811C256.273 222.259 256.478 221.74 256.824 221.317C256.946 221.202 257.113 221.15 257.279 221.17H257.395V221.189L257.388 221.182Z" fill="#407BFF"/>
<path d="M236.988 103.107C237.918 103.145 238.674 102.382 238.636 101.453L238.264 83.7857C238.213 82.6703 237.988 80.9844 237.988 80.9844C240.559 81.4011 245.027 82.6639 246.283 87.5871C247.591 92.7154 247.277 102.767 246.738 107.6C246.482 109.927 244.636 112.921 240.572 112.094L236.988 103.113V103.107Z" fill="#407BFF"/>
<path d="M242.909 86.3698C241.486 98.8958 238.588 106.14 238.883 116.197C238.883 116.197 216.03 115.819 215.254 115.8C215.408 97.2996 212.78 100.71 212.498 90.652C212.459 86.7929 212.562 81.9467 214.78 81.6261L228.178 78.9658L239.088 81.1454C241.524 81.6325 243.184 83.9082 242.902 86.3762L242.909 86.3698Z" fill="#407BFF"/>
<path opacity="0.1" d="M242.909 86.3698C241.486 98.8958 238.588 106.14 238.883 116.197C238.883 116.197 216.03 115.819 215.254 115.8C215.408 97.2996 212.78 100.71 212.498 90.652C212.459 86.7929 212.562 81.9467 214.78 81.6261L228.178 78.9658L239.088 81.1454C241.524 81.6325 243.184 83.9082 242.902 86.3762L242.909 86.3698Z" fill="black"/>
<path d="M231.345 86.9399C226.96 86.5553 222.191 82.7347 221.723 80.5616C223.248 80.3436 223.671 79.2859 223.973 77.4461C224.146 76.3692 224.171 75.1512 224.139 73.9653C224.094 72.2152 223.915 70.5165 223.864 69.3818L231.364 73.8563C231.319 74.0678 231.268 74.2986 231.223 74.5294C231.024 75.6256 230.947 76.9076 231.191 78.0551C231.511 79.5872 232.402 80.8949 234.338 81.2603C235.39 82.645 234.89 85.286 231.345 86.9399Z" fill="#FFB573"/>
<path d="M231.352 87.2428C228.454 86.3518 225.076 85.6979 222.063 85.9479C222.422 85.2235 222.787 84.3517 223.14 83.6273C222.024 83.6273 220.947 83.5312 219.832 83.5312C220.069 82.1081 220.319 80.6529 221.024 79.4029C221.73 78.1529 222.672 77.1016 224.089 77.1144C223.896 77.608 223.409 79.4349 223.903 80.4157C224.396 81.3965 225.255 82.1273 226.089 82.826C227.864 84.3197 229.569 85.7492 231.345 87.2428H231.352Z" fill="#407BFF"/>
<g opacity="0.5">
<path d="M231.352 87.2438C228.454 86.3527 225.076 85.6989 222.063 85.9489C222.422 85.2245 222.787 84.3527 223.14 83.6283C222.024 83.6283 220.947 83.5322 219.832 83.5322C220.069 82.1091 220.319 80.6539 221.024 79.4039C221.73 78.1538 222.672 77.1025 224.089 77.1154C223.896 77.609 223.409 79.4359 223.903 80.4167C224.396 81.3975 225.255 82.1283 226.089 82.827C227.864 84.3206 229.569 85.7502 231.345 87.2438H231.352Z" fill="white"/>
</g>
<path d="M231.198 77.7942C231.166 78.4481 231.486 79.0699 231.877 79.5891C232.268 80.1148 232.736 80.5763 233.082 81.134C233.698 82.1212 233.871 83.3648 233.557 84.4803C233.243 85.5957 232.441 86.5636 231.403 87.0829C231.332 87.1149 231.339 87.1983 231.358 87.2688C232.679 86.3906 234.063 85.6021 235.499 84.9162C235.922 84.7174 236.288 84.4931 236.692 84.2623C236.377 83.3905 235.865 82.5764 235.038 82.1661C236.083 82.0571 237.095 81.7943 238.14 81.6853C236.711 80.7109 235.365 79.6019 233.929 78.6404C233.179 78.134 232.063 77.557 231.191 77.7942H231.198Z" fill="#407BFF"/>
<path opacity="0.5" d="M231.198 77.7942C231.166 78.4481 231.486 79.0699 231.877 79.5891C232.268 80.1148 232.736 80.5763 233.082 81.134C233.698 82.1212 233.871 83.3648 233.557 84.4803C233.243 85.5957 232.441 86.5636 231.403 87.0829C231.332 87.1149 231.339 87.1983 231.358 87.2688C232.679 86.3906 234.063 85.6021 235.499 84.9162C235.922 84.7174 236.288 84.4931 236.692 84.2623C236.377 83.3905 235.865 82.5764 235.038 82.1661C236.083 82.0571 237.095 81.7943 238.14 81.6853C236.711 80.7109 235.365 79.6019 233.929 78.6404C233.179 78.134 232.063 77.557 231.191 77.7942H231.198Z" fill="white"/>
<path opacity="0.2" d="M231.18 78.0568C227.987 77.3196 225.833 74.8452 224.59 73.499L231.212 74.5311C231.013 75.6273 230.936 76.9094 231.18 78.0568Z" fill="black"/>
<path d="M235.368 71.59C234.105 76.0068 228.483 77.8594 225.245 74.2888C223.374 72.2311 223.265 69.9874 223.226 66.4938C223.22 65.9617 223.213 65.4104 223.201 64.8142C223.181 63.8911 223.367 62.9744 223.739 62.1347C223.899 61.7757 224.085 61.4424 224.303 61.1347C225.957 58.7372 229.13 57.7884 231.887 59.0256C236.201 60.9616 236.515 67.6156 235.368 71.59Z" fill="#FFB573"/>
<path d="M231.102 65.5821C231.339 65.5886 231.519 65.8963 231.499 66.2616C231.487 66.627 231.307 66.9155 231.044 66.9027C230.775 66.8899 230.595 66.5886 230.615 66.2232C230.64 65.8386 230.865 65.5757 231.102 65.5821Z" fill="#263238"/>
<path d="M233.573 70.2702C233.002 70.2894 232.432 70.3086 231.861 70.3214C231.714 70.6612 231.547 70.9689 231.406 71.3022C232.406 71.7317 233.535 71.8599 234.599 71.6228C234.554 71.1163 234.432 70.6997 234.297 70.2061C234.086 70.2253 233.791 70.2573 233.579 70.2637L233.573 70.2702Z" fill="#263238"/>
<path d="M235.186 65.8839C235.423 65.8903 235.602 66.1916 235.583 66.557C235.57 66.9224 235.365 67.2108 235.128 67.198C234.884 67.1916 234.705 66.8903 234.724 66.5249C234.743 66.166 234.948 65.8775 235.186 65.8839Z" fill="#263238"/>
<path d="M233.511 70.2314C234.127 70.3404 234.755 70.1738 235.229 69.7763C234.454 68.8724 233.806 67.866 233.312 66.7891L233.511 70.2314Z" fill="#ED893E"/>
<path d="M232.726 72.1162C232.726 72.1162 232.681 72.1162 232.662 72.1033L232.483 72.02C231.797 71.7059 231.008 71.6931 230.31 71.9751C230.226 72.0072 230.137 71.9751 230.098 71.8854C230.066 71.802 230.098 71.7123 230.188 71.6738C230.963 71.3597 231.848 71.379 232.611 71.7251L232.79 71.8085C232.874 71.8469 232.906 71.9431 232.867 72.02C232.842 72.0777 232.784 72.1162 232.72 72.1162H232.726Z" fill="#263238"/>
<path d="M230.221 64.8265C230.555 64.3906 231.08 64.147 231.632 64.1598C231.632 64.1598 231.677 64.1726 231.696 64.1662C231.818 64.1662 231.907 64.0701 231.907 63.9483C231.907 63.8329 231.811 63.7367 231.689 63.7367C231.004 63.7047 230.343 63.9996 229.914 64.538C229.837 64.6278 229.85 64.7624 229.939 64.8393C229.965 64.865 230.004 64.8778 230.036 64.8842C230.106 64.8906 230.17 64.8714 230.221 64.8201V64.8265Z" fill="#263238"/>
<path d="M236.087 65.3005C236.19 65.2428 236.222 65.1082 236.164 65.0057C235.837 64.4031 235.228 63.9992 234.549 63.9287C234.549 63.9287 234.549 63.9287 234.542 63.9287C234.427 63.9287 234.331 64.012 234.324 64.1274C234.324 64.1274 234.324 64.1403 234.324 64.1467C234.324 64.262 234.414 64.3518 234.523 64.3518C235.061 64.4223 235.536 64.7428 235.792 65.2236C235.824 65.2877 235.888 65.3262 235.959 65.3326C236.004 65.3326 236.042 65.3198 236.081 65.3005H236.087Z" fill="#263238"/>
<path d="M233.09 56.3969C234.065 56.3456 234.994 56.7687 235.597 57.5315C235.686 57.6469 235.02 60.8906 234.315 60.9611C232.501 61.147 231.218 60.8713 229.488 60.3008C229.199 60.2046 228.911 60.1021 228.609 60.0893C228.308 60.0764 226.802 61.4803 226.513 62.1149C226.225 62.7496 226.09 63.4355 225.975 64.1214C225.943 64.3329 225.904 64.5509 225.802 64.7368C225.693 64.9227 225.641 65.0958 225.423 65.083C225.135 65.6855 225.103 66.3843 225.212 67.0381C225.321 67.6984 225.552 68.3266 225.789 68.9484C225.955 69.3972 226.129 69.8459 226.302 70.301C226.077 70.3074 223.404 69.1856 222.449 68.8715C221.205 67.1343 220.564 64.974 220.667 62.8393C220.693 62.2367 220.725 60.3264 221.019 59.8008C221.308 59.2687 221.834 58.8392 222.436 58.7879C222.058 57.243 223.353 56.8712 224.834 56.2879C226.314 55.7045 227.981 55.8904 229.545 56.1917C230.68 56.4097 231.898 56.4546 233.084 56.3905L233.09 56.3969Z" fill="#263238"/>
<path d="M222.905 66.1915C224.354 66.3646 225.065 68.2877 225.097 69.557C225.142 70.9737 224.091 72.025 222.809 71.2814C221.841 70.7109 221.142 69.775 220.873 68.6852C220.552 67.3454 221.463 66.0249 222.911 66.198L222.905 66.1915Z" fill="#FFB573"/>
<path d="M218.266 85.9861C218.304 80.4668 210.83 80.4539 209.913 85.5694C209.907 85.6207 209.894 85.6656 209.888 85.7169C209.061 90.9478 210.811 103.576 211.785 108.339C212.253 110.634 214.484 112.115 216.779 111.673L231.689 108.782L230.901 101.66L221.08 102.974C220.157 103.095 219.33 102.403 219.285 101.474L218.266 85.9797V85.9861Z" fill="#407BFF"/>
<path d="M229.568 107.39L233.37 106.415C233.716 106.325 234.075 106.319 234.421 106.402L237.896 107.191C238.652 107.364 239.447 107.127 239.992 106.575L241.748 104.787C242.639 103.877 242.601 102.409 241.658 101.55L241.088 101.03C240.325 100.338 239.19 100.248 238.338 100.819C237.915 101.101 237.415 101.229 236.908 101.184L236.703 101.165C235.748 101.088 234.844 101.627 234.46 102.511L234.242 103.018L228.863 103.671L229.568 107.39Z" fill="#FFB573"/>
<path d="M228.159 102.555L224.268 102.036C223.915 101.991 223.582 101.857 223.287 101.658L220.364 99.6258C219.723 99.1834 218.902 99.1001 218.191 99.4142L215.889 100.414C214.723 100.921 214.21 102.299 214.761 103.446L215.094 104.139C215.537 105.068 216.556 105.575 217.569 105.363C218.062 105.26 218.582 105.331 219.03 105.555L219.216 105.652C220.075 106.087 221.114 105.921 221.8 105.248L222.197 104.863L227.428 106.273L228.172 102.562L228.159 102.555Z" fill="#FFB573"/>
<path d="M228.762 102.465L224.845 101.638L223.781 106.702L227.563 107.696L228.762 102.465Z" fill="#263238"/>
<g opacity="0.7">
<path d="M228.762 102.464L224.845 101.637L223.781 106.701L227.563 107.695L228.762 102.464Z" fill="white"/>
</g>
<path d="M246.244 109.254C245.616 111.51 243.289 112.831 241.033 112.228L226.359 108.311L227.641 101.26L237.347 103.253C246.911 104.484 246.244 109.254 246.244 109.254Z" fill="#407BFF"/>
<path d="M261.808 174.076L259.243 216.577L249.634 216.211C249.634 216.211 249.647 209.481 249.365 200.032C249.134 192.313 246.185 181.768 247.929 173.646C238.608 156.96 226.538 143.46 224.589 138.633C220.563 128.645 223.999 115.908 223.999 115.908L239.012 115.639C240.115 122.754 242.307 129.652 245.506 136.101L259.987 165.306C261.333 168.024 261.962 171.05 261.808 174.082V174.076Z" fill="#263238"/>
<path opacity="0.2" d="M241.547 163.197L228.566 134.556H236.4L241.547 163.197Z" fill="black"/>
<path d="M215.255 115.798C215.255 115.798 210.8 126.939 213.409 137.382C214.704 142.568 233.134 182.415 233.134 182.415C233.134 182.421 234.224 193.293 240.519 205.986L246.769 217.73L254.308 217.441L245.057 176.71L235.91 147.453C233.121 137.017 230.91 126.42 230.519 115.625L215.249 115.792L215.255 115.798Z" fill="#263238"/>
<path d="M256.384 37.541H224.775C223.903 37.541 223.191 38.2526 223.191 39.1244V47.9002C223.191 48.7656 223.903 49.4772 224.775 49.4772H229.544L229.73 52.7337C230.236 53.567 231.416 53.6119 231.897 52.817L233.929 49.4772H256.384C257.256 49.4772 257.961 48.7656 257.961 47.9002V39.1244C257.961 38.2526 257.25 37.541 256.378 37.541H256.384Z" fill="#407BFF"/>
<g opacity="0.7">
<path d="M256.384 37.54H224.775C223.903 37.54 223.191 38.2516 223.191 39.1234V47.8993C223.191 48.7647 223.903 49.4762 224.775 49.4762H229.544L229.73 52.7327C230.236 53.566 231.416 53.6109 231.897 52.816L233.929 49.4762H256.384C257.256 49.4762 257.961 48.7647 257.961 47.8993V39.1234C257.961 38.2516 257.25 37.54 256.378 37.54H256.384Z" fill="white"/>
</g>
<path d="M229.578 46.2406L230.328 44.7149L232.014 44.4713L230.796 43.2854L231.084 41.6123L229.578 42.4008L228.078 41.6123L228.36 43.2854L227.148 44.4713L228.828 44.7149L229.578 46.2406Z" fill="#407BFF"/>
<path d="M235.229 46.2406L235.979 44.7149L237.658 44.4713L236.447 43.2854L236.729 41.6123L235.229 42.4008L233.722 41.6123L234.011 43.2854L232.793 44.4713L234.479 44.7149L235.229 46.2406Z" fill="#407BFF"/>
<path d="M240.885 46.2406L241.635 44.7149L243.315 44.4713L242.097 43.2854L242.385 41.6123L240.885 42.4008L239.379 41.6123L239.667 43.2854L238.449 44.4713L240.129 44.7149L240.885 46.2406Z" fill="#263238"/>
<path d="M246.531 46.2406L247.288 44.7149L248.967 44.4713L247.749 43.2854L248.038 41.6123L246.531 42.4008L245.031 41.6123L245.32 43.2854L244.102 44.4713L245.781 44.7149L246.531 46.2406Z" fill="#263238"/>
<path d="M252.187 46.2406L252.937 44.7149L254.623 44.4713L253.405 43.2854L253.694 41.6123L252.187 42.4008L250.687 41.6123L250.969 43.2854L249.758 44.4713L251.437 44.7149L252.187 46.2406Z" fill="#263238"/>
</svg>
