<svg width="287" height="161" viewBox="0 0 287 161" fill="none" xmlns="http://www.w3.org/2000/svg">
<path d="M274.253 159.667C258.749 159.667 25.9909 159.723 25.8598 159.318L25.8377 159.267C25.8377 159.267 25.8157 159.217 25.8157 159.192C25.7299 158.99 -19.005 140.971 10.483 100.666C25.9375 79.5441 -1.65121 47.2045 31.1965 18.669C82.6696 -26.0472 131.791 29.0305 152.612 18.669C170.114 9.95969 198.238 -2.52137 226.786 8.67074C234.63 11.7463 251.617 27.1707 237.511 53.1109C230.463 66.0722 261.739 67.577 273.18 81.3481C298.095 111.338 283.526 159.667 274.255 159.667H274.253Z" fill="#EBF3FA"/>
<g opacity="0.5">
<g opacity="0.5">
<path d="M187.398 66.4657C187.398 66.4657 184.41 42.789 192.769 26.1314C193.88 23.9178 197.166 24.3308 197.715 26.7463C197.724 26.7869 197.733 26.8275 197.741 26.8681C198.611 31.0076 189.736 51.597 187.398 66.4657Z" fill="#AEC3FF"/>
</g>
<g opacity="0.5">
<path d="M187.605 73.4035C187.605 73.4035 192.179 41.7391 209.06 24.028C210.089 22.9479 211.816 22.8156 212.933 23.8052C213.66 24.4491 214.203 25.6035 214.077 27.6477C213.739 33.1005 195.619 55.6924 187.605 73.4035Z" fill="#AEC3FF"/>
</g>
</g>
<g opacity="0.4">
<path d="M46.3333 81.8125H36.3176C35.437 81.8125 34.7212 81.0978 34.7212 80.2161L34.7212 38.0604C34.7212 37.1798 35.4359 36.464 36.3176 36.464H46.3333C47.2139 36.464 47.9297 37.1786 47.9297 38.0604L47.9297 80.2161C47.9297 81.0967 47.215 81.8125 46.3333 81.8125Z" fill="#407BFF"/>
<path d="M44.425 72.0318C44.425 70.3218 43.0386 68.9365 41.3297 68.9365C39.6208 68.9365 38.2344 70.3229 38.2344 72.0318C38.2344 73.7408 39.6208 75.1272 41.3297 75.1272C43.0386 75.1272 44.425 73.7408 44.425 72.0318Z" fill="#407BFF"/>
<path d="M41.326 75.4723C39.4384 75.4723 37.9023 73.9362 37.9023 72.0486C37.9023 70.1611 39.4384 68.625 41.326 68.625C43.2136 68.625 44.7496 70.1611 44.7496 72.0486C44.7496 73.9362 43.2136 75.4723 41.326 75.4723ZM41.326 69.2805C39.7992 69.2805 38.5578 70.5219 38.5578 72.0486C38.5578 73.5754 39.7992 74.8168 41.326 74.8168C42.8528 74.8168 44.0941 73.5754 44.0941 72.0486C44.0941 70.5219 42.8528 69.2805 41.326 69.2805Z" fill="white"/>
<path d="M44.606 64.0301H38.0499C37.725 64.0301 37.4605 63.7656 37.4605 63.4407V39.1306C37.4605 38.8058 37.725 38.5413 38.0499 38.5413H44.606C44.9308 38.5413 45.1953 38.8058 45.1953 39.1306V63.4419C45.1953 63.7667 44.9308 64.0312 44.606 64.0312V64.0301Z" fill="#AEC3FF"/>
<path d="M38.8339 40.4834H43.659C43.9185 40.4834 44.1289 40.273 44.1289 40.0135V39.9312C44.1289 39.6717 43.9185 39.4613 43.659 39.4613H38.8339C38.5744 39.4613 38.364 39.6717 38.364 39.9312V40.0135C38.364 40.273 38.5744 40.4834 38.8339 40.4834Z" fill="#FE7A6F"/>
<path d="M42.3086 55.7533V61.0077C42.3086 61.1492 42.4234 61.2629 42.5638 61.2629C42.7054 61.2629 42.8191 61.148 42.8191 61.0077V55.7533C42.8191 55.6117 42.7042 55.498 42.5638 55.498C42.4223 55.498 42.3086 55.6129 42.3086 55.7533Z" fill="#407BFF"/>
<path d="M42.3086 48.5257V53.7801C42.3086 53.9217 42.4234 54.0354 42.5638 54.0354C42.7054 54.0354 42.8191 53.9205 42.8191 53.7801V48.5257C42.8191 48.3842 42.7042 48.2705 42.5638 48.2705C42.4223 48.2705 42.3086 48.3854 42.3086 48.5257Z" fill="#407BFF"/>
<path d="M39.3789 55.7533V61.0077C39.3789 61.1492 39.4938 61.2629 39.6341 61.2629C39.7757 61.2629 39.8894 61.148 39.8894 61.0077V55.7533C39.8894 55.6117 39.7745 55.498 39.6341 55.498C39.4926 55.498 39.3789 55.6129 39.3789 55.7533Z" fill="#407BFF"/>
<path d="M39.3789 48.5257V53.7801C39.3789 53.9217 39.4938 54.0354 39.6341 54.0354C39.7757 54.0354 39.8894 53.9205 39.8894 53.7801V48.5257C39.8894 48.3842 39.7745 48.2705 39.6341 48.2705C39.4926 48.2705 39.3789 48.3854 39.3789 48.5257Z" fill="#407BFF"/>
<path d="M40.9062 54.2709V61.0079C40.9062 61.1495 41.0211 61.2632 41.1615 61.2632C41.303 61.2632 41.4167 61.1483 41.4167 61.0079V54.2709C41.4167 54.1293 41.3019 54.0156 41.1615 54.0156C41.0199 54.0156 40.9062 54.1305 40.9062 54.2709Z" fill="#407BFF"/>
<path d="M40.9062 45.182V51.9191C40.9062 52.0606 41.0211 52.1743 41.1615 52.1743C41.303 52.1743 41.4167 52.0595 41.4167 51.9191V45.182C41.4167 45.0405 41.3019 44.9268 41.1615 44.9268C41.0199 44.9268 40.9062 45.0416 40.9062 45.182Z" fill="#407BFF"/>
<path d="M52.7942 81.8125H62.8099C63.6915 81.8125 64.4062 81.0978 64.4062 80.2161V38.0615C64.4062 37.1799 63.6915 36.4651 62.8099 36.4651H52.7942C51.9125 36.4651 51.1978 37.1799 51.1978 38.0615L51.1978 80.2161C51.1978 81.0978 51.9125 81.8125 52.7942 81.8125Z" fill="#407BFF"/>
<path d="M60.9016 72.0318C60.9016 70.3218 59.5152 68.9365 57.8063 68.9365C56.0973 68.9365 54.7109 70.3229 54.7109 72.0318C54.7109 73.7408 56.0973 75.1272 57.8063 75.1272C59.5152 75.1272 60.9016 73.7408 60.9016 72.0318Z" fill="#407BFF"/>
<path d="M57.8065 75.4723C55.9189 75.4723 54.3828 73.9362 54.3828 72.0486C54.3828 70.1611 55.9189 68.625 57.8065 68.625C59.694 68.625 61.2301 70.1611 61.2301 72.0486C61.2301 73.9362 59.694 75.4723 57.8065 75.4723ZM57.8065 69.2805C56.2797 69.2805 55.0383 70.5219 55.0383 72.0486C55.0383 73.5754 56.2797 74.8168 57.8065 74.8168C59.3332 74.8168 60.5746 73.5754 60.5746 72.0486C60.5746 70.5219 59.3332 69.2805 57.8065 69.2805Z" fill="white"/>
<path d="M54.5264 64.0283H61.0825C61.408 64.0283 61.6719 63.7645 61.6719 63.439V39.1277C61.6719 38.8022 61.408 38.5383 61.0825 38.5383H54.5264C54.2009 38.5383 53.9371 38.8022 53.9371 39.1277V63.439C53.9371 63.7645 54.2009 64.0283 54.5264 64.0283Z" fill="#AEC3FF"/>
<path d="M55.3105 40.4834H60.1356C60.3951 40.4834 60.6055 40.273 60.6055 40.0135V39.9312C60.6055 39.6717 60.3951 39.4613 60.1356 39.4613H55.3105C55.051 39.4613 54.8406 39.6717 54.8406 39.9312V40.0135C54.8406 40.273 55.051 40.4834 55.3105 40.4834Z" fill="#FE7A6F"/>
<path d="M58.7891 55.7533V61.0077C58.7891 61.1492 58.9039 61.2629 59.0443 61.2629C59.1858 61.2629 59.2995 61.148 59.2995 61.0077V55.7533C59.2995 55.6117 59.1847 55.498 59.0443 55.498C58.9028 55.498 58.7891 55.6129 58.7891 55.7533Z" fill="#407BFF"/>
<path d="M58.7891 48.5257V53.7801C58.7891 53.9217 58.9039 54.0354 59.0443 54.0354C59.1858 54.0354 59.2995 53.9205 59.2995 53.7801V48.5257C59.2995 48.3842 59.1847 48.2705 59.0443 48.2705C58.9028 48.2705 58.7891 48.3854 58.7891 48.5257Z" fill="#407BFF"/>
<path d="M55.8594 55.7533V61.0077C55.8594 61.1492 55.9742 61.2629 56.1146 61.2629C56.2561 61.2629 56.3698 61.148 56.3698 61.0077V55.7533C56.3698 55.6117 56.255 55.498 56.1146 55.498C55.9731 55.498 55.8594 55.6129 55.8594 55.7533Z" fill="#407BFF"/>
<path d="M55.8594 48.5257V53.7801C55.8594 53.9217 55.9742 54.0354 56.1146 54.0354C56.2561 54.0354 56.3698 53.9205 56.3698 53.7801V48.5257C56.3698 48.3842 56.255 48.2705 56.1146 48.2705C55.9731 48.2705 55.8594 48.3854 55.8594 48.5257Z" fill="#407BFF"/>
<path d="M57.3867 54.2709V61.0079C57.3867 61.1495 57.5016 61.2632 57.642 61.2632C57.7835 61.2632 57.8972 61.1483 57.8972 61.0079V54.2709C57.8972 54.1293 57.7823 54.0156 57.642 54.0156C57.5004 54.0156 57.3867 54.1305 57.3867 54.2709Z" fill="#407BFF"/>
<path d="M57.3867 45.182V51.9191C57.3867 52.0606 57.5016 52.1743 57.642 52.1743C57.7835 52.1743 57.8972 52.0595 57.8972 51.9191V45.182C57.8972 45.0405 57.7823 44.9268 57.642 44.9268C57.5004 44.9268 57.3867 45.0416 57.3867 45.182Z" fill="#407BFF"/>
<path d="M69.5754 81.8125H79.5911C80.4728 81.8125 81.1875 81.0978 81.1875 80.2161V38.0615C81.1875 37.1799 80.4728 36.4651 79.5911 36.4651H69.5754C68.6937 36.4651 67.979 37.1799 67.979 38.0615V80.2161C67.979 81.0978 68.6937 81.8125 69.5754 81.8125Z" fill="#407BFF"/>
<path d="M77.6828 72.0318C77.6828 70.3218 76.2964 68.9365 74.5875 68.9365C72.8786 68.9365 71.4922 70.3229 71.4922 72.0318C71.4922 73.7408 72.8786 75.1272 74.5875 75.1272C76.2964 75.1272 77.6828 73.7408 77.6828 72.0318Z" fill="#407BFF"/>
<path d="M74.5877 75.4723C72.7001 75.4723 71.1641 73.9362 71.1641 72.0486C71.1641 70.1611 72.7001 68.625 74.5877 68.625C76.4753 68.625 78.0114 70.1611 78.0114 72.0486C78.0114 73.9362 76.4753 75.4723 74.5877 75.4723ZM74.5877 69.2805C73.0609 69.2805 71.8196 70.5219 71.8196 72.0486C71.8196 73.5754 73.0609 74.8168 74.5877 74.8168C76.1145 74.8168 77.3559 73.5754 77.3559 72.0486C77.3559 70.5219 76.1145 69.2805 74.5877 69.2805Z" fill="white"/>
<path d="M71.3077 64.0283H77.8638C78.1893 64.0283 78.4531 63.7645 78.4531 63.439V39.1277C78.4531 38.8022 78.1893 38.5383 77.8638 38.5383H71.3077C70.9822 38.5383 70.7183 38.8022 70.7183 39.1277V63.439C70.7183 63.7645 70.9822 64.0283 71.3077 64.0283Z" fill="#AEC3FF"/>
<path d="M72.0917 40.4834H76.9169C77.1764 40.4834 77.3867 40.273 77.3867 40.0135V39.9312C77.3867 39.6717 77.1764 39.4613 76.9169 39.4613H72.0917C71.8322 39.4613 71.6219 39.6717 71.6219 39.9312V40.0135C71.6219 40.273 71.8322 40.4834 72.0917 40.4834Z" fill="#FE7A6F"/>
<path d="M75.5703 55.7533V61.0077C75.5703 61.1492 75.6852 61.2629 75.8255 61.2629C75.9671 61.2629 76.0808 61.148 76.0808 61.0077V55.7533C76.0808 55.6117 75.9659 55.498 75.8255 55.498C75.684 55.498 75.5703 55.6129 75.5703 55.7533Z" fill="#407BFF"/>
<path d="M75.5703 48.5257V53.7801C75.5703 53.9217 75.6852 54.0354 75.8255 54.0354C75.9671 54.0354 76.0808 53.9205 76.0808 53.7801V48.5257C76.0808 48.3842 75.9659 48.2705 75.8255 48.2705C75.684 48.2705 75.5703 48.3854 75.5703 48.5257Z" fill="#407BFF"/>
<path d="M72.6406 55.7533V61.0077C72.6406 61.1492 72.7555 61.2629 72.8959 61.2629C73.0374 61.2629 73.1511 61.148 73.1511 61.0077V55.7533C73.1511 55.6117 73.0362 55.498 72.8959 55.498C72.7543 55.498 72.6406 55.6129 72.6406 55.7533Z" fill="#407BFF"/>
<path d="M72.6406 48.5257V53.7801C72.6406 53.9217 72.7555 54.0354 72.8959 54.0354C73.0374 54.0354 73.1511 53.9205 73.1511 53.7801V48.5257C73.1511 48.3842 73.0362 48.2705 72.8959 48.2705C72.7543 48.2705 72.6406 48.3854 72.6406 48.5257Z" fill="#407BFF"/>
<path d="M74.168 54.2709V61.0079C74.168 61.1495 74.2828 61.2632 74.4232 61.2632C74.5647 61.2632 74.6784 61.1483 74.6784 61.0079V54.2709C74.6784 54.1293 74.5636 54.0156 74.4232 54.0156C74.2817 54.0156 74.168 54.1305 74.168 54.2709Z" fill="#407BFF"/>
<path d="M74.168 45.182V51.9191C74.168 52.0606 74.2828 52.1743 74.4232 52.1743C74.5647 52.1743 74.6784 52.0595 74.6784 51.9191V45.182C74.6784 45.0405 74.5636 44.9268 74.4232 44.9268C74.2817 44.9268 74.168 45.0416 74.168 45.182Z" fill="#407BFF"/>
<path d="M96.8841 81.8125H86.8672C85.9866 81.8125 85.272 81.0978 85.272 80.2173V38.0615C85.272 37.1809 85.9866 36.4651 86.8684 36.4651H96.8841C97.7646 36.4651 98.4805 37.1798 98.4805 38.0615V80.2161C98.4805 81.0967 97.7658 81.8125 96.8841 81.8125Z" fill="#407BFF"/>
<path d="M95.1567 64.0283H88.6006C88.2746 64.0283 88.0113 63.7638 88.0113 63.439V39.1289C88.0113 38.804 88.2758 38.5395 88.6006 38.5395H95.1567C95.4816 38.5395 95.7461 38.804 95.7461 39.1289V63.439C95.7461 63.7638 95.4816 64.0283 95.1567 64.0283Z" fill="#AEC3FF"/>
<path d="M94.2098 40.4834H89.3835C89.1248 40.4834 88.9137 40.2734 88.9137 40.0135V39.93C88.9137 39.6713 89.1237 39.4601 89.3835 39.4601H94.2098C94.4685 39.4601 94.6797 39.6701 94.6797 39.93V40.0135C94.6797 40.2722 94.4697 40.4834 94.2098 40.4834Z" fill="#FE7A6F"/>
<path d="M113.56 81.8125H103.544C102.664 81.8125 101.948 81.0978 101.948 80.2161V38.0604C101.948 37.1798 102.662 36.464 103.544 36.464H113.56C114.44 36.464 115.156 37.1786 115.156 38.0604V80.2161C115.156 81.0967 114.442 81.8125 113.56 81.8125Z" fill="#407BFF"/>
<path d="M111.833 64.0312H105.276C104.952 64.0312 104.687 63.7667 104.687 63.4419V39.1318C104.687 38.8069 104.952 38.5424 105.276 38.5424H111.833C112.157 38.5424 112.422 38.8069 112.422 39.1318V63.4419C112.422 63.7667 112.157 64.0312 111.833 64.0312Z" fill="#AEC3FF"/>
<path d="M106.06 40.4834H110.886C111.145 40.4834 111.355 40.273 111.355 40.0135V39.9312C111.355 39.6717 111.145 39.4613 110.886 39.4613H106.06C105.801 39.4613 105.591 39.6717 105.591 39.9312V40.0135C105.591 40.273 105.801 40.4834 106.06 40.4834Z" fill="#FE7A6F"/>
<path d="M46.3333 133.105H36.3176C35.437 133.105 34.7212 132.391 34.7212 131.509L34.7212 89.3531C34.7212 88.4726 35.4359 87.7579 36.3164 87.7579H46.3333C47.2139 87.7579 47.9297 88.4726 47.9297 89.3543L47.9297 131.51C47.9297 132.391 47.215 133.106 46.3333 133.106V133.105Z" fill="#407BFF"/>
<path d="M41.3297 126.421C43.0392 126.421 44.425 125.035 44.425 123.326C44.425 121.616 43.0392 120.23 41.3297 120.23C39.6202 120.23 38.2344 121.616 38.2344 123.326C38.2344 125.035 39.6202 126.421 41.3297 126.421Z" fill="#407BFF"/>
<path d="M41.326 126.766C39.4384 126.766 37.9023 125.23 37.9023 123.343C37.9023 121.455 39.4384 119.919 41.326 119.919C43.2136 119.919 44.7496 121.455 44.7496 123.343C44.7496 125.23 43.2136 126.766 41.326 126.766ZM41.326 120.574C39.7992 120.574 38.5578 121.816 38.5578 123.343C38.5578 124.869 39.7992 126.111 41.326 126.111C42.8528 126.111 44.0941 124.869 44.0941 123.343C44.0941 121.816 42.8528 120.574 41.326 120.574Z" fill="white"/>
<path d="M44.606 115.324H38.0499C37.725 115.324 37.4605 115.06 37.4605 114.735V90.4246C37.4605 90.0997 37.725 89.8352 38.0499 89.8352H44.606C44.9308 89.8352 45.1953 90.0997 45.1953 90.4246V114.736C45.1953 115.061 44.9308 115.325 44.606 115.325V115.324Z" fill="#AEC3FF"/>
<path d="M43.659 91.7773H38.8328C38.574 91.7773 38.3629 91.5674 38.3629 91.3075V91.2239C38.3629 90.9652 38.5729 90.7541 38.8328 90.7541H43.659C43.9178 90.7541 44.1289 90.9641 44.1289 91.2239V91.3075C44.1289 91.5662 43.9189 91.7773 43.659 91.7773Z" fill="#FE7A6F"/>
<path d="M42.3086 107.045V112.3C42.3086 112.441 42.4234 112.555 42.5638 112.555C42.7054 112.555 42.8191 112.44 42.8191 112.3V107.045C42.8191 106.904 42.7042 106.79 42.5638 106.79C42.4223 106.79 42.3086 106.905 42.3086 107.045Z" fill="#407BFF"/>
<path d="M42.3086 99.8177V105.072C42.3086 105.214 42.4234 105.327 42.5638 105.327C42.7054 105.327 42.8191 105.213 42.8191 105.072V99.8177C42.8191 99.6762 42.7042 99.5625 42.5638 99.5625C42.4223 99.5625 42.3086 99.6774 42.3086 99.8177Z" fill="#407BFF"/>
<path d="M39.3789 107.045V112.3C39.3789 112.441 39.4938 112.555 39.6341 112.555C39.7757 112.555 39.8894 112.44 39.8894 112.3V107.045C39.8894 106.904 39.7745 106.79 39.6341 106.79C39.4926 106.79 39.3789 106.905 39.3789 107.045Z" fill="#407BFF"/>
<path d="M39.3789 99.8177V105.072C39.3789 105.214 39.4938 105.327 39.6341 105.327C39.7757 105.327 39.8894 105.213 39.8894 105.072V99.8177C39.8894 99.6762 39.7745 99.5625 39.6341 99.5625C39.4926 99.5625 39.3789 99.6774 39.3789 99.8177Z" fill="#407BFF"/>
<path d="M40.9062 105.563V112.3C40.9062 112.441 41.0211 112.555 41.1615 112.555C41.303 112.555 41.4167 112.44 41.4167 112.3V105.563C41.4167 105.421 41.3019 105.308 41.1615 105.308C41.0199 105.308 40.9062 105.422 40.9062 105.563Z" fill="#407BFF"/>
<path d="M40.9062 96.474V103.211C40.9062 103.353 41.0211 103.466 41.1615 103.466C41.303 103.466 41.4167 103.351 41.4167 103.211V96.474C41.4167 96.3324 41.3019 96.2188 41.1615 96.2188C41.0199 96.2188 40.9062 96.3336 40.9062 96.474Z" fill="#407BFF"/>
<path d="M62.811 133.105H52.7942C51.9136 133.105 51.1978 132.391 51.1978 131.509L51.1978 89.3531C51.1978 88.4726 51.9124 87.7579 52.793 87.7579H62.8099C63.6904 87.7579 64.4062 88.4726 64.4062 89.3543V131.51C64.4062 132.391 63.6916 133.106 62.8099 133.106L62.811 133.105Z" fill="#407BFF"/>
<path d="M60.9016 123.326C60.9016 121.616 59.5152 120.23 57.8063 120.23C56.0973 120.23 54.7109 121.617 54.7109 123.326C54.7109 125.035 56.0973 126.421 57.8063 126.421C59.5152 126.421 60.9016 125.035 60.9016 123.326Z" fill="#407BFF"/>
<path d="M57.8065 126.766C55.9189 126.766 54.3828 125.23 54.3828 123.343C54.3828 121.455 55.9189 119.919 57.8065 119.919C59.694 119.919 61.2301 121.455 61.2301 123.343C61.2301 125.23 59.694 126.766 57.8065 126.766ZM57.8065 120.574C56.2797 120.574 55.0383 121.816 55.0383 123.343C55.0383 124.869 56.2797 126.111 57.8065 126.111C59.3332 126.111 60.5746 124.869 60.5746 123.343C60.5746 121.816 59.3332 120.574 57.8065 120.574Z" fill="white"/>
<path d="M54.5264 115.323H61.0825C61.408 115.323 61.6719 115.059 61.6719 114.734V90.4226C61.6719 90.0971 61.408 89.8333 61.0825 89.8333H54.5264C54.2009 89.8333 53.9371 90.0971 53.9371 90.4226V114.734C53.9371 115.059 54.2009 115.323 54.5264 115.323Z" fill="#AEC3FF"/>
<path d="M60.1356 91.7773H55.3093C55.0506 91.7773 54.8395 91.5674 54.8395 91.3075V91.2239C54.8395 90.9652 55.0494 90.7541 55.3093 90.7541H60.1356C60.3943 90.7541 60.6055 90.9641 60.6055 91.2239V91.3075C60.6055 91.5662 60.3955 91.7773 60.1356 91.7773Z" fill="#FE7A6F"/>
<path d="M58.7891 107.045V112.3C58.7891 112.441 58.9039 112.555 59.0443 112.555C59.1858 112.555 59.2995 112.44 59.2995 112.3V107.045C59.2995 106.904 59.1847 106.79 59.0443 106.79C58.9028 106.79 58.7891 106.905 58.7891 107.045Z" fill="#407BFF"/>
<path d="M58.7891 99.8177V105.072C58.7891 105.214 58.9039 105.327 59.0443 105.327C59.1858 105.327 59.2995 105.213 59.2995 105.072V99.8177C59.2995 99.6762 59.1847 99.5625 59.0443 99.5625C58.9028 99.5625 58.7891 99.6774 58.7891 99.8177Z" fill="#407BFF"/>
<path d="M55.8594 107.045V112.3C55.8594 112.441 55.9742 112.555 56.1146 112.555C56.2561 112.555 56.3698 112.44 56.3698 112.3V107.045C56.3698 106.904 56.255 106.79 56.1146 106.79C55.9731 106.79 55.8594 106.905 55.8594 107.045Z" fill="#407BFF"/>
<path d="M55.8594 99.8177V105.072C55.8594 105.214 55.9742 105.327 56.1146 105.327C56.2561 105.327 56.3698 105.213 56.3698 105.072V99.8177C56.3698 99.6762 56.255 99.5625 56.1146 99.5625C55.9731 99.5625 55.8594 99.6774 55.8594 99.8177Z" fill="#407BFF"/>
<path d="M57.3867 105.563V112.3C57.3867 112.441 57.5016 112.555 57.642 112.555C57.7835 112.555 57.8972 112.44 57.8972 112.3V105.563C57.8972 105.421 57.7823 105.308 57.642 105.308C57.5004 105.308 57.3867 105.422 57.3867 105.563Z" fill="#407BFF"/>
<path d="M57.3867 96.474V103.211C57.3867 103.353 57.5016 103.466 57.642 103.466C57.7835 103.466 57.8972 103.351 57.8972 103.211V96.474C57.8972 96.3324 57.7823 96.2188 57.642 96.2188C57.5004 96.2188 57.3867 96.3336 57.3867 96.474Z" fill="#407BFF"/>
<path d="M79.5923 133.105H69.5754C68.6948 133.105 67.979 132.391 67.979 131.509V89.3531C67.979 88.4726 68.6937 87.7579 69.5742 87.7579H79.5911C80.4717 87.7579 81.1875 88.4726 81.1875 89.3543V131.51C81.1875 132.391 80.4728 133.106 79.5911 133.106L79.5923 133.105Z" fill="#407BFF"/>
<path d="M96.8841 133.104H86.8672C85.9866 133.104 85.272 132.389 85.272 131.509V89.3531C85.272 88.4726 85.9866 87.7579 86.8672 87.7579H96.8841C97.7646 87.7579 98.4805 88.4726 98.4805 89.3543V131.51C98.4805 132.391 97.7658 133.106 96.8841 133.106V133.104Z" fill="#407BFF"/>
<path d="M113.568 133.105H103.552C102.671 133.105 101.956 132.391 101.956 131.509V89.3531C101.956 88.4726 102.67 87.7579 103.551 87.7579H113.568C114.448 87.7579 115.164 88.4726 115.164 89.3543V131.51C115.164 132.391 114.449 133.106 113.568 133.106V133.105Z" fill="#407BFF"/>
<path d="M31.1898 159.669C30.3127 159.669 29.6016 158.958 29.6016 158.081V31.7728C29.6016 30.8958 30.3127 30.1846 31.1898 30.1846C32.0669 30.1846 32.7781 30.8958 32.7781 31.7728V158.081C32.7781 158.958 32.0669 159.669 31.1898 159.669Z" fill="#BDD1F9"/>
<path d="M29.6011 83.0957L121.352 83.0957V81.8207L29.6011 81.8207V83.0957Z" fill="#BDD1F9"/>
<path d="M29.6078 134.36H127.055V133.085H29.6078V134.36Z" fill="#BDD1F9"/>
</g>
<path d="M224.597 73.9349C224.597 73.9349 215.874 81.5073 217.383 83.0434C218.892 84.5795 226.495 73.9048 226.495 73.9048C226.495 73.9048 237.917 76.4769 240.914 79.361C240.914 79.361 228.901 83.9878 230.742 85.105C232.584 86.2222 245.306 81.9888 245.306 81.9888C245.306 81.9888 255.03 87.1341 252.411 93.2378C249.792 99.3414 245.603 100.112 244.098 99.4319C242.593 98.7509 234.615 92.2621 233.995 93.4744C233.376 94.6868 237.493 100.674 241.275 102.136C241.275 102.136 231.375 107.754 227.309 103.852C223.244 99.9505 224.039 96.1509 221.483 93.7854C218.927 91.4198 216.357 90.5775 217.138 92.3885C217.919 94.1995 222.916 97.3552 223.634 100.966C224.352 104.576 225.22 107.138 220.474 104.741C215.727 102.345 208.813 96.0175 209.835 91.7156C209.879 91.5277 209.922 91.349 209.963 91.1773C209.845 91.5068 209.835 91.7156 209.835 91.7156C208.734 91.5578 205.945 92.7586 203.888 93.7459C203.56 93.9315 203.083 94.1694 202.413 94.4757C202.123 94.6242 201.887 94.746 201.723 94.833C197.432 97.2949 193.269 104.117 193.269 104.117L192.211 103.66C195.241 95.8609 202.71 93.3979 202.71 93.3979C208.142 91.0567 210.857 87.4137 210.857 87.4137C210.857 87.4137 206.488 76.7982 214.878 73.7331C214.878 73.7331 220.712 72.3908 224.599 73.9361L224.597 73.9349Z" fill="#D2E2F9"/>
<path d="M256.189 136.344H263.691V112.14H256.189V136.344Z" fill="#35488B"/>
<path d="M238.099 136.344H256.191V112.14H238.099V136.344Z" fill="#2C3A64"/>
<path d="M261.195 115.162C261.195 114.471 260.635 113.91 259.943 113.91C259.252 113.91 258.691 114.471 258.691 115.162C258.691 115.853 259.252 116.414 259.943 116.414C260.635 116.414 261.195 115.853 261.195 115.162Z" fill="#DDE7FE"/>
<path d="M260.833 115.163C260.833 114.673 260.436 114.277 259.948 114.277C259.459 114.277 259.062 114.674 259.062 115.163C259.062 115.651 259.459 116.048 259.948 116.048C260.436 116.048 260.833 115.651 260.833 115.163Z" fill="#6C7AFF"/>
<path d="M258.154 124.556H261.684V118.181H258.154V124.556Z" fill="#8FADEF"/>
<path d="M242.196 136.344H249.699V112.14H242.196V136.344Z" fill="#35488B"/>
<path d="M224.11 136.344H242.203V112.14H224.11V136.344Z" fill="#2C3A64"/>
<path d="M247.207 115.162C247.207 114.471 246.646 113.91 245.955 113.91C245.263 113.91 244.703 114.471 244.703 115.162C244.703 115.853 245.263 116.414 245.955 116.414C246.646 116.414 247.207 115.853 247.207 115.162Z" fill="#DDE7FE"/>
<path d="M246.837 115.163C246.837 114.673 246.44 114.277 245.952 114.277C245.463 114.277 245.066 114.674 245.066 115.163C245.066 115.651 245.463 116.048 245.952 116.048C246.44 116.048 246.837 115.651 246.837 115.163Z" fill="#6C7AFF"/>
<path d="M244.162 124.555H247.691V118.18H244.162V124.555Z" fill="#8FADEF"/>
<path d="M229.392 136.344H236.895V112.14H229.392V136.344Z" fill="#35488B"/>
<path d="M211.302 136.344H229.395V112.14H211.302V136.344Z" fill="#2C3A64"/>
<path d="M234.398 115.162C234.398 114.471 233.838 113.91 233.146 113.91C232.455 113.91 231.895 114.471 231.895 115.162C231.895 115.853 232.455 116.414 233.146 116.414C233.838 116.414 234.398 115.853 234.398 115.162Z" fill="#DDE7FE"/>
<path d="M234.032 115.163C234.032 114.673 233.635 114.277 233.147 114.277C232.658 114.277 232.262 114.674 232.262 115.163C232.262 115.651 232.658 116.048 233.147 116.048C233.635 116.048 234.032 115.651 234.032 115.163Z" fill="#6C7AFF"/>
<path d="M231.358 124.555H234.887V118.18H231.358V124.555Z" fill="#8FADEF"/>
<path d="M210.185 159.221H252.574V127.902H210.185V159.221Z" fill="#F77D48"/>
<path d="M232.899 159.221H266.508V127.902H232.899V159.221Z" fill="#FE7A6F"/>
<path d="M247.26 133.017H255.965C256.506 133.017 256.945 132.578 256.945 132.036V131.91C256.945 131.368 256.506 130.929 255.965 130.929H247.26C246.719 130.929 246.28 131.368 246.28 131.91V132.036C246.28 132.578 246.719 133.017 247.26 133.017Z" fill="#2C3A64"/>
<path d="M146.335 86.973L140.602 155.133C140.602 155.133 140.001 159.264 143.075 159.272C148.127 159.284 168.226 159.272 168.226 159.272C168.226 159.272 164.423 158.412 164.469 156.477C164.524 154.196 171.169 86.3291 171.169 86.3291L146.336 86.9742L146.335 86.973Z" fill="#798EE8"/>
<path d="M170.118 158.031C169.124 158.035 149.667 158.067 144.746 158.003C142.602 157.977 142.225 156.096 142.208 154.88C142.199 154.297 142.273 153.865 142.273 153.865L142.422 152.094L142.803 147.578L143.138 143.59L143.57 138.464L143.933 134.138L148.006 85.7054L172.841 85.0615C172.841 85.0615 170.043 113.464 168.062 134.138C167.841 136.441 167.631 138.65 167.437 140.711C167.374 141.369 167.314 142.013 167.255 142.639C167.071 144.595 166.903 146.391 166.757 147.977C166.68 148.814 166.608 149.59 166.545 150.301C166.292 153.089 166.144 154.87 166.142 155.209C166.142 155.406 166.158 155.589 166.191 155.761C166.598 157.933 169.748 158.031 170.12 158.031H170.118Z" fill="#AEC3FF"/>
<path d="M86.0234 49.8535L99.9872 105.939L101.899 113.621L108.402 139.744H229.223L205.252 49.8535H86.0234Z" fill="#AEC3FF"/>
<path d="M86.025 49.8535L84.0898 50.4986L105.831 141.696L108.403 139.744L86.025 49.8535Z" fill="#798EE8"/>
<path d="M105.828 141.697H225.905L229.221 139.745H108.4L105.828 141.697Z" fill="#849DEF"/>
<path d="M147.998 159.268H173.996V158.032H147.998V159.268Z" fill="#AEC3FF"/>
<path d="M167.389 141.695L167.255 142.64L142.805 147.579L143.14 143.59L143.3 141.695H167.389Z" fill="#407BFF"/>
<g opacity="0.5">
<path d="M170.117 158.033C169.123 158.036 149.666 158.069 144.745 158.005C142.601 157.978 142.224 156.098 142.207 154.882L166.541 150.304C166.289 153.092 166.141 154.872 166.139 155.211C166.139 155.408 166.155 155.592 166.188 155.763C166.595 157.935 169.745 158.034 170.117 158.034V158.033Z" fill="#407BFF"/>
</g>
<path d="M86.0234 49.8535H205.252L224.598 122.097H104.008L86.0234 49.8535Z" fill="#407BFF"/>
<path d="M218.977 118.967H107.343L103.353 103.075L101.81 96.9259L101.18 94.4187L97.0801 78.0871L96.8678 77.2367L94.7006 68.6039L93.7307 64.7417L92.9035 61.4457L92.2283 58.7588L90.9648 53.7236H200.99L202.379 58.7588L203.119 61.4457L204.028 64.7417L205.091 68.6039L212.108 94.051V94.0521L212.701 96.2077L212.978 97.2089L217.821 114.776L218.977 118.967Z" fill="#407BFF"/>
<path d="M79.3625 88.6652C79.3625 88.6652 79.6537 85.4922 76.1083 85.4922C76.1083 85.4922 77.1826 85.7834 77.7383 86.3669C77.7383 86.3669 75.4771 85.0397 73.0164 87.0793C70.5557 89.1189 72.0848 94.2352 71.3365 95.2062C70.5882 96.1773 67.6739 96.3722 68.03 99.5128C68.3862 102.653 77.2789 106.587 76.7081 109.186C76.7081 109.186 80.1932 104.063 77.7012 101.725C77.7012 101.725 78.9159 102.869 79.04 104.229C79.04 104.229 79.3695 101.573 77.6803 100.724C76.1848 99.9722 74.9597 97.2238 75.0896 96.733C75.2196 96.2423 79.3637 88.6652 79.3637 88.6652H79.3625Z" fill="#2C3A64"/>
<path d="M75.8726 103.899C75.8726 103.899 78.5213 114.857 81.1212 117.048C82.684 118.364 87.3316 121.385 87.3316 121.385L85.3988 122.087C85.3988 122.087 78.9529 119.911 77.5108 118.215C76.0675 116.519 72.1172 108.017 72.1172 108.017L75.8738 103.899H75.8726Z" fill="#FFB27D"/>
<path d="M91.1717 125.395L90.5486 123.853C89.8816 122.199 88.277 121.118 86.495 121.118H75.0117V159.512H122.512V128.405H95.6325C93.6707 128.405 91.906 127.215 91.1705 125.396L91.1717 125.395Z" fill="#FE7A6F"/>
<path d="M50.9752 123.152C50.9984 123.194 51.0228 123.237 51.0483 123.281C51.6284 124.288 52.9579 126.757 54.4221 129.459C55.1147 130.741 55.8398 132.075 56.5278 133.33C57.7135 135.496 58.7924 137.427 59.4212 138.446C60.0616 139.483 60.5327 140.211 60.7229 140.503H60.7241C60.7809 140.594 60.7937 140.7 60.7867 140.804C60.7206 141.718 60.7392 142.627 60.8285 143.521C61.7114 152.31 67.6387 157.02 67.6387 157.02L69.401 157.28C69.401 157.28 66.9078 148.041 66.1722 142.818C66.0481 141.933 65.9936 141.216 66.0376 140.747C66.1676 139.386 65.9263 137.389 65.4692 135.095C64.6559 131.019 63.1628 126.017 61.8657 122.012C61.7833 121.757 59.3052 112.792 59.3052 112.792C57.225 114.61 49.6399 115.359 49.6399 115.359C49.6399 115.359 48.3532 118.487 50.9752 123.15V123.152Z" fill="#2F539B"/>
<path d="M73.1017 159.509H65.7474C65.7474 159.509 65.5711 158.388 65.9551 157.538C66.3229 156.722 66.8473 156.695 66.0224 155.417C66.49 155.898 67.9924 156.097 69.0551 155.954C69.185 156.165 69.895 157.582 70.3301 157.895C70.8104 158.241 72.9532 158.118 73.1017 159.509Z" fill="#233862"/>
<path d="M50.9766 123.152C50.9998 123.194 51.0241 123.237 51.0497 123.281C51.6297 124.288 54.7645 130.078 56.2286 132.779C54.5313 125.797 55.7124 118.815 55.7124 118.815L50.9777 123.152H50.9766Z" fill="#233862"/>
<path d="M78.3676 88.2206C78.4151 88.028 74.1666 90.1406 73.952 90.3796C71.96 92.5897 72.5273 95.4739 73.6677 95.5017C74.3986 95.5192 74.2571 96.735 74.2571 96.735L82.4026 93.2893C82.4026 93.2893 81.4211 87.5697 78.3676 88.2206Z" fill="#2C3A64"/>
<path d="M75.6227 102.254C75.6227 102.254 76.8618 104.73 76.7075 106.74C76.7075 106.74 75.2132 109.1 71.3359 109.698C71.3359 109.698 74.6691 102.253 75.6227 102.255V102.254Z" fill="#6385DB"/>
<path d="M56.7096 115.909L56.734 114.533C53.9937 114.879 47.2844 111.258 47.2844 111.258C47.2844 111.258 44.4177 113.165 44.0255 118.611C43.8341 121.269 42.6217 132.51 42.4883 135.866C42.4396 137.083 42.4233 137.951 42.4175 138.298C42.4175 138.299 42.4175 138.3 42.4175 138.301C42.4164 138.407 42.3665 138.501 42.3015 138.584C41.7342 139.305 41.2423 140.068 40.8165 140.861C36.6353 148.641 38.821 159.213 38.821 159.213L39.7921 158.966C39.7921 158.966 43.3283 148.007 45.6393 143.266C46.0314 142.462 46.3876 141.836 46.6858 141.474C47.5547 140.419 48.4713 138.627 49.3739 136.469C51.0805 132.391 56.7084 115.908 56.7084 115.908L56.7096 115.909Z" fill="#2F539B"/>
<path d="M44.672 159.508H37.3178C37.3178 159.508 37.1414 158.387 37.5254 157.536C37.8932 156.721 38.4698 156.35 38.3317 155.362C38.7993 155.844 39.5604 156.382 40.6242 156.239C40.7542 156.451 41.4654 157.581 41.9004 157.894C42.3807 158.24 44.5235 158.117 44.672 159.508Z" fill="#233862"/>
<path d="M70.8371 111.276C69.8498 111.444 70.9983 112.23 69.6398 112.377C67.7058 112.588 65.7091 112.732 64.6638 113.15C64.2821 113.302 64.0269 113.49 63.948 113.73C63.4944 115.093 60.623 117.435 60.623 117.435C47.8171 116.853 46.9922 111.145 46.9922 111.145C55.3036 103.073 62.3737 98.6733 68.2174 98.1292C69.6398 97.9969 71.5564 98.1744 72.4567 98.5747C74.5009 99.4842 75.6204 102.254 75.6204 102.254C75.6204 102.254 74.5914 110.636 70.8371 111.275V111.276Z" fill="#739AF0"/>
<path d="M69.6424 112.378C67.7084 112.589 65.7117 112.733 64.6664 113.151C64.2395 106.764 67.2524 101.96 67.2524 101.96C67.2524 101.96 69.2189 109.962 69.6424 112.378Z" fill="#6385DB"/>
<path d="M71.3098 100.881C71.3098 100.881 66.4464 100.615 65.5832 103.669C64.7189 106.722 67.204 118.909 67.74 120.166C68.7157 122.456 73.6313 129.277 73.6313 129.277L75.2068 128.46C75.2068 128.46 72.0419 118.476 71.3353 117.487C70.2262 115.936 72.7658 102.209 71.3098 100.881Z" fill="#FFB27D"/>
<path d="M75.2042 128.459C75.2042 128.459 75.6103 128.813 75.9375 129.212C76.2646 129.611 75.9769 129.756 76.9166 131.566C76.9166 131.566 76.8691 131.818 76.6649 131.772C76.4607 131.726 75.7518 131.025 75.3887 131.074C75.3887 131.074 75.1288 131.288 75.101 131.998C75.0743 132.662 75.072 134.129 74.9571 134.405C74.8411 134.681 73.9977 133.25 73.5823 132.215C73.218 131.308 73.573 128.247 73.573 128.247L75.2054 128.459H75.2042Z" fill="#FFB27D"/>
<path d="M64.625 107.748C64.6378 107.82 69.2274 108.593 72.0976 107.136C72.0976 107.136 74.4957 99.6236 71.0686 99.9832C67.6414 100.343 65.6123 101.422 65.5265 103.062C65.4394 104.703 64.625 107.748 64.625 107.748Z" fill="#739AF0"/>
<path d="M72.3493 99.1028C72.3992 99.7107 72.4769 100.423 73.2717 101.242C73.8807 101.87 74.7625 102.359 75.3808 101.741C75.6964 101.425 76.1222 100.956 76.338 100.584C76.8728 99.6655 77.5097 98.7258 77.5097 98.7258L74.7578 96.3138L74.5931 96.1699C73.8726 97.4287 73.1638 98.0343 72.5431 98.4961C72.3551 98.6364 72.3296 98.8685 72.3493 99.1005V99.1028Z" fill="#FFB27D"/>
<path d="M77.5095 98.7255C77.5095 98.7255 76.8737 99.6629 76.3389 100.583C74.6276 99.5283 74.6265 97.4098 74.7576 96.3135L77.5095 98.7255Z" fill="#ED985F"/>
<path d="M77.5864 99.937C77.5864 99.937 73.433 97.626 74.9122 95.0609C76.3914 92.4957 76.852 90.4701 79.5657 91.8379C82.2804 93.2058 82.2271 94.4785 81.9405 95.4542C81.6551 96.4299 78.7048 100.472 77.5853 99.9359L77.5864 99.937Z" fill="#FFB27D"/>
<path d="M82.6378 93.9586C82.4475 92.8193 81.8698 92.7114 81.466 92.7868C79.9323 90.2495 77.4263 91.2403 77.4263 91.2403C76.0875 92.9202 74.1523 93.2068 74.1523 93.2068C74.1523 93.2068 74.6338 94.1036 76.62 94.6593C77.2268 94.8287 77.9148 94.7266 78.5795 94.5027C77.2013 95.2707 75.7603 95.5654 75.7603 95.5654C78.3777 95.8056 80.8674 93.4122 81.1261 93.1558C81.2468 93.527 81.4591 94.3032 81.3314 94.8705C81.1586 95.642 80.4741 97.0388 80.8929 97.2198C80.8929 97.2198 82.9232 95.6664 82.6378 93.9586Z" fill="#2C3A64"/>
<path d="M88.0918 121.392C88.0918 121.392 86.9328 122.261 87.8064 122.83C88.68 123.398 90.2393 123.551 90.2463 123.179C90.2683 121.927 89.643 121.037 88.0918 121.392Z" fill="#FFB27D"/>
<path d="M283.787 159.276H13.3358C13.159 159.276 13.0156 159.42 13.0156 159.597V159.737C13.0156 159.914 13.159 160.057 13.3358 160.057H283.787C283.963 160.057 284.107 159.914 284.107 159.737V159.597C284.107 159.42 283.963 159.276 283.787 159.276Z" fill="#233862"/>
<path d="M115.845 72.933L114.815 71.4132C113.711 69.7832 111.837 68.7158 110.079 68.7158H98.7539L100.719 75.9019L108.517 104.416C108.866 105.695 110.027 106.581 111.352 106.581H152.104C154.044 106.581 155.451 104.737 154.94 102.866L147.566 75.9019H121.055C119.119 75.9019 117.058 74.7278 115.843 72.933H115.845Z" fill="#FE7A6F"/>
<path d="M117.022 64.3785C116.844 64.5816 116.821 64.8089 116.909 65.0526C116.909 65.0526 116.909 65.0549 116.91 65.0561C117.073 65.505 117.61 66.0074 118.233 66.5086C118.313 66.5736 118.384 66.6316 118.445 66.6861C118.462 66.7 118.478 66.7139 118.493 66.729C118.506 66.7406 118.517 66.7511 118.53 66.7627C119.111 67.2987 118.892 67.4216 119.937 68.5099C121.129 69.7501 121.949 69.7721 122.182 69.6596C122.38 69.5633 121.979 68.9055 121.535 68.1665C121.513 68.1305 121.492 68.0945 121.47 68.0586C121.411 67.9599 121.352 67.8602 121.294 67.7616C120.773 66.8717 120.907 66.4552 121.031 65.1315C121.132 64.056 122.707 59.123 122.707 59.123L120.423 58.7285C120.423 58.7285 119.734 62.6568 118.977 63.2613C118.572 63.5838 118.118 63.5873 117.728 63.8263C117.701 63.8425 117.674 63.8599 117.647 63.8773C117.426 64.0235 117.201 64.1755 117.022 64.3797V64.3785Z" fill="#FFB27D"/>
<path d="M117.022 64.3791C116.844 64.5822 116.821 64.8095 116.909 65.0532C116.909 65.0532 116.909 65.0555 116.91 65.0567C117.109 65.5056 117.632 66.0045 118.235 66.5045C118.314 66.5695 118.384 66.6298 118.445 66.6867C118.462 66.7006 118.478 66.7145 118.493 66.7296C118.506 66.7412 118.517 66.7517 118.53 66.7633C119.111 67.2993 118.892 67.4222 119.937 68.5105C121.129 69.7507 121.949 69.7727 122.182 69.6602C122.38 69.5639 121.979 68.9061 121.535 68.1671C121.303 68.0824 120.226 67.6438 119.412 66.6008C118.72 65.7179 118.252 64.5937 117.782 63.9034C117.73 63.8942 117.699 63.8884 117.647 63.8779C117.426 64.0241 117.201 64.1761 117.022 64.3803V64.3791Z" fill="#233862"/>
<path d="M135.433 62.9603C135.574 63.6657 136.578 63.5485 137.701 63.2735C138.823 62.9997 138.557 63.3257 140.154 63.1494C141.751 62.9731 142.235 62.3779 142.284 62.1401C142.328 61.9289 141.538 61.8547 140.692 61.7572C140.585 61.7456 140.479 61.7317 140.372 61.7189C139.416 61.5983 138.716 60.9811 137.849 60.4752C137.026 59.9949 135.8 58.04 135.8 58.04L133.609 58.2129C133.609 58.2129 134.758 59.959 135.202 60.7189C135.463 61.1655 135.449 61.7561 135.417 62.212C135.4 62.4603 135.383 62.7132 135.433 62.9615V62.9603Z" fill="#FFB27D"/>
<path d="M137.705 63.2741C138.827 63.0004 138.561 63.3264 140.158 63.15C141.755 62.9737 142.239 62.3785 142.288 62.1407C142.332 61.9295 141.542 61.8553 140.696 61.7578L140.688 61.7741C140.688 61.7741 139.729 62.4528 138.4 62.4841C137.316 62.5096 136.168 62.1998 135.419 62.2114C135.402 62.4597 135.386 62.7126 135.436 62.9609C135.576 63.6663 136.581 63.5491 137.704 63.2741H137.705Z" fill="#233862"/>
<path d="M127.044 48.9481L124.994 54.4578L122.317 61.6519C122.317 61.6519 121.592 61.7215 120.897 61.522C120.258 61.3364 119.523 60.8526 119.523 60.8526C119.523 60.8526 120.268 53.127 121.655 48.6929C122.01 47.5548 122.408 46.6336 122.847 46.1162C124.995 43.58 127.042 48.9481 127.042 48.9481H127.044Z" fill="#FE776B"/>
<path d="M124.97 40.1957C123.804 39.8198 120.763 40.1887 117.463 40.7839C116.552 40.9486 115.633 40.5321 115.154 39.7397L106.851 39.0889C106.851 39.0889 104.11 45.1635 105.608 49.035C105.828 49.6034 106.312 49.9596 107.058 49.9712C107.058 49.9712 112.074 49.9793 113.679 49.9805C117.808 49.9817 122.419 47.1451 123.015 47.0256C123.991 46.8306 124.38 48.7832 125.356 50.8332C126.332 52.8832 134.527 59.9127 134.527 59.9127C134.527 59.9127 135.787 59.9254 136.308 59.7305C136.867 59.5205 137.073 59.2479 137.073 59.2479C137.073 59.2479 127.994 41.1714 124.97 40.1933V40.1957Z" fill="#FE7A6F"/>
<path d="M114.273 15.3595C113.657 14.9917 113.056 14.936 112.687 14.9465C112.43 14.9534 112.174 14.9372 111.921 14.9001C108.753 14.4349 106.843 19.0361 106.731 20.4271C106.524 22.9806 105.174 23.3693 103.272 24.968C99.4587 28.1724 100.575 31.8988 102.66 33.2841C103.91 34.1147 106.115 33.2841 106.115 33.2841C106.146 33.3061 112.145 29.9335 115.102 28.3069C119.535 27.6781 116.054 16.4199 114.274 15.3595H114.273Z" fill="#233862"/>
<path d="M112.63 26.9204C112.643 26.9286 111.176 27.4298 110.194 26.9947C109.271 26.5863 108.572 25.0677 108.586 25.0665C109.006 25.0468 109.468 24.6802 109.823 22.2705L110.002 22.3343L113.009 23.4179C113.009 23.4179 112.791 24.3832 112.649 25.3009C112.53 26.0724 112.466 26.8114 112.63 26.9204Z" fill="#FFB27D"/>
<path d="M113.003 23.4164C113.003 23.4164 112.883 23.9373 112.707 24.9096C110.98 24.5986 110.24 23.2679 109.996 22.334L113.003 23.4176V23.4164Z" fill="#ED975D"/>
<path d="M113.454 24.3741C113.454 24.3741 109.341 23.8207 109.725 21.2637C110.109 18.7067 109.837 16.9143 112.48 17.1591C115.123 17.405 115.485 18.4561 115.565 19.3413C115.644 20.2254 114.535 24.4519 113.454 24.3741Z" fill="#FFB27D"/>
<path d="M115.412 17.9408C115.412 17.9408 112.777 20.2101 110.986 20.3923C109.194 20.5744 108.516 19.999 108.516 19.999C108.516 19.999 109.571 19.123 110.207 17.7076C110.395 17.2911 110.791 17.0046 111.245 16.9651C112.525 16.8549 114.95 16.805 115.41 17.9397L115.412 17.9408Z" fill="#233862"/>
<path d="M113.766 17.7379C113.766 17.7379 114.646 18.5906 114.923 19.2218C115.191 19.832 115.27 21.2903 115.057 21.8693C115.057 21.8693 116.431 19.2009 115.654 17.9038C114.831 16.5279 113.766 17.7379 113.766 17.7379Z" fill="#233862"/>
<path d="M116.09 32.9816C115.963 41.3093 116.054 39.569 115.142 40.3591C114.923 40.5494 114.306 40.6619 113.494 40.7153C110.94 40.8835 106.452 40.4612 106.281 39.9902C105.693 38.3567 106.108 37.8497 105.619 35.3495C105.568 35.0838 105.504 34.7961 105.429 34.4829C105.02 32.7658 104.622 32.1811 106.077 29.4234C107.396 26.9255 108.766 24.8976 108.889 24.9707C112.366 27.0369 112.647 25.3013 112.647 25.3013C112.647 25.3013 116.153 28.9199 116.09 32.9816Z" fill="#2F539B"/>
<path d="M124.994 54.4572L122.317 61.6514C122.317 61.6514 121.592 61.721 120.897 61.5215C120.258 61.3359 119.523 60.8521 119.523 60.8521C119.523 60.8521 120.268 53.1265 121.655 48.6924L124.994 54.4572Z" fill="#FE7A6F"/>
<path d="M112.641 25.301C112.641 25.301 116.219 25.9089 116.639 27.4496C117.059 28.9903 118.438 38.3435 118.438 38.3435C118.438 38.3435 117.429 39.3285 116.589 38.4874C115.749 37.6463 113.947 29.7363 113.947 29.7363L112.641 25.2998V25.301Z" fill="#2F539B"/>
<path d="M113.488 40.7163C110.935 40.8845 106.446 40.4622 106.276 39.9912C105.688 38.3577 106.103 37.8507 105.613 35.3505L106.847 31.8828C106.847 31.8828 106.641 35.745 107.78 36.7613C108.917 37.7776 112.443 38.7243 112.997 39.5724C113.263 39.9796 113.439 40.388 113.49 40.7163H113.488Z" fill="#233862"/>
<path d="M110.564 39.0904C110.564 39.0904 113.084 38.5301 113.49 38.754C113.896 38.9779 114.889 39.7923 115.013 40.0754C115.137 40.3585 114.108 39.8596 113.774 39.7703C113.557 39.7123 112.986 39.9107 112.703 40.0047C111.514 40.4003 110.785 40.1961 110.785 40.1961L110.562 39.0904H110.564Z" fill="#FFB27D"/>
<path d="M108.885 24.9688C108.885 24.9688 105.502 25.1764 104.33 26.8088C102.681 29.1071 99.4072 38.9047 101.281 40.2122C103.391 41.6844 110.886 40.6008 110.886 40.6008C110.886 40.6008 111.135 39.4349 110.788 38.871C110.442 38.3072 104.803 37.3941 104.542 37.1342C104.282 36.8744 107.798 32.0597 107.798 31.2789C107.798 30.4981 108.883 24.9699 108.883 24.9699L108.885 24.9688Z" fill="#2F539B"/>
<path d="M113.617 39.4561C113.617 39.4561 114.145 40.1371 114.318 40.2183C114.491 40.2995 114.602 40.2798 114.602 40.2798L114.247 39.6394L113.617 39.4561Z" fill="#FFB27D"/>
<path d="M113.496 38.7539L115.031 39.4999C115.031 39.4999 114.966 39.6066 114.777 39.5985C114.588 39.5904 114.111 39.4152 114.111 39.4152L113.496 38.7539Z" fill="#FFB27D"/>
<path d="M126.598 40.5097L110.566 40.5039V40.8578L126.456 40.8636L126.598 40.5097Z" fill="#233862"/>
<path d="M114.316 40.8578L126.458 40.8624L130.112 31.7818L117.991 31.7783L114.316 40.8578Z" fill="#233862"/>
<path d="M123.39 36.3229C123.482 36.0038 123.297 35.7451 122.978 35.7451C122.659 35.7451 122.326 36.0038 122.234 36.3229C122.143 36.6419 122.327 36.9006 122.646 36.9006C122.965 36.9006 123.298 36.6419 123.39 36.3229Z" fill="white"/>
<g opacity="0.5">
<path d="M183.266 70.8814L179.908 66.5923L179.749 66.3904L179.56 66.3556L164.063 63.5039L158.848 91.8502L178.938 95.5465L183.399 71.2979L183.436 71.0995L183.266 70.8814Z" fill="#407BFF"/>
</g>
<path d="M173.191 62.0868L173.199 62.2886L174.155 86.9259L153.742 87.7183L152.625 58.9172L168.371 58.3069L168.563 58.2988L168.762 58.4624L172.978 61.9127L173.191 62.0868Z" fill="#407BFF"/>
<path d="M159.765 69.1409L125.699 71.039C125.631 71.0424 125.578 71.1016 125.582 71.1701L128.069 115.778C128.072 115.847 128.131 115.9 128.2 115.896L162.217 114C162.285 113.996 162.339 113.937 162.334 113.869L159.845 69.2117C159.843 69.1699 159.807 69.1374 159.765 69.1398V69.1409Z" fill="#233862"/>
<path d="M159.703 112.595L130.849 114.406C129.983 114.46 129.237 113.802 129.183 112.937L126.722 73.7292C126.667 72.8637 127.325 72.1177 128.191 72.0632L157.045 70.2522C157.911 70.1977 158.657 70.8555 158.711 71.721L161.172 110.929C161.226 111.794 160.569 112.54 159.703 112.595Z" fill="#EBF3FA"/>
<path d="M148.316 76.7197L130.164 77.859C130.154 77.859 130.146 77.852 130.146 77.8427L130.117 77.3891C130.117 77.3798 130.123 77.3717 130.132 77.3717L148.284 76.2324C148.293 76.2324 148.302 76.2394 148.302 76.2487L148.331 76.7023C148.331 76.7116 148.324 76.7197 148.314 76.7197H148.316Z" fill="#BDD1F9"/>
<path d="M148.558 80.617L130.406 81.7563C130.397 81.7563 130.388 81.7493 130.388 81.7412L130.359 81.2875C130.359 81.2783 130.366 81.2701 130.376 81.2701L148.528 80.1309C148.537 80.1309 148.545 80.1378 148.545 80.1471L148.574 80.6007C148.574 80.61 148.567 80.6181 148.558 80.6181V80.617Z" fill="#BDD1F9"/>
<path d="M155.372 78.2334L130.285 79.8077C130.275 79.8077 130.267 79.8007 130.267 79.7915L130.238 79.3378C130.238 79.3286 130.245 79.3204 130.255 79.3204L155.341 77.7461C155.35 77.7461 155.358 77.7531 155.358 77.7612L155.387 78.2148C155.387 78.2241 155.38 78.2322 155.371 78.2322L155.372 78.2334Z" fill="#BDD1F9"/>
<path d="M144.171 93.0048L131.821 93.7798C131.813 93.7798 131.808 93.774 131.806 93.7671L131.777 93.3077C131.777 93.2995 131.783 93.2937 131.79 93.2926L144.14 92.5176C144.148 92.5176 144.154 92.5234 144.155 92.5303L144.184 92.9898C144.184 92.9979 144.178 93.0037 144.171 93.0048Z" fill="#BDD1F9"/>
<path d="M148.775 90.7607L131.704 91.8315C131.696 91.8315 131.69 91.8257 131.689 91.8188L131.66 91.3594C131.66 91.3512 131.666 91.3454 131.673 91.3443L148.744 90.2734C148.752 90.2734 148.758 90.2792 148.759 90.2862L148.788 90.7456C148.788 90.7537 148.782 90.7595 148.775 90.7607Z" fill="#BDD1F9"/>
<path d="M150.03 94.8152L131.878 95.9545C131.869 95.9545 131.861 95.9475 131.861 95.9394L131.832 95.4858C131.832 95.4765 131.839 95.4684 131.848 95.4684L150 94.3291C150.009 94.3291 150.018 94.3361 150.018 94.3453L150.047 94.799C150.047 94.8082 150.04 94.8164 150.03 94.8164V94.8152Z" fill="#BDD1F9"/>
<path d="M152.182 96.6357L131.998 97.9026C131.99 97.9026 131.983 97.8968 131.982 97.8887L131.953 97.4316C131.953 97.4235 131.959 97.4165 131.967 97.4153L152.15 96.1484C152.159 96.1484 152.166 96.1542 152.167 96.1624L152.196 96.6195C152.196 96.6276 152.19 96.6345 152.182 96.6357Z" fill="#BDD1F9"/>
<path d="M145.312 100.504L132.321 101.319C132.313 101.319 132.308 101.314 132.306 101.306L132.277 100.847C132.277 100.839 132.283 100.832 132.291 100.832L145.282 100.017C145.29 100.017 145.297 100.022 145.297 100.031L145.326 100.489C145.326 100.497 145.32 100.504 145.313 100.504H145.312Z" fill="#BDD1F9"/>
<path d="M145.558 104.401L132.568 105.217C132.559 105.217 132.552 105.211 132.552 105.204L132.523 104.746C132.523 104.738 132.529 104.731 132.536 104.731L145.527 103.915C145.535 103.915 145.542 103.921 145.542 103.929L145.571 104.387C145.571 104.395 145.565 104.401 145.558 104.402V104.401Z" fill="#BDD1F9"/>
<path d="M150.397 102.142L132.443 103.268C132.434 103.268 132.427 103.262 132.427 103.254L132.398 102.796C132.398 102.788 132.404 102.782 132.412 102.781L150.367 101.654C150.375 101.654 150.381 101.66 150.382 101.667L150.411 102.125C150.411 102.133 150.405 102.14 150.398 102.14L150.397 102.142Z" fill="#BDD1F9"/>
<path d="M150.484 67.1995L134.598 68.0847C133.55 68.1427 132.745 68.9792 132.799 69.9514L132.933 72.3518C132.946 72.5768 133.152 72.7474 133.393 72.7346L152.196 71.687C152.439 71.6731 152.624 71.4805 152.612 71.2554L152.478 68.855C152.424 67.8828 151.532 67.1415 150.484 67.1995Z" fill="#FE7A6F"/>
<path d="M179.178 86.4826C179.178 86.4826 178.847 85.7401 178.634 85.3886C178.42 85.0371 177.506 84.0069 177.351 84.2401C177.195 84.4732 176.573 86.0429 176.904 86.4826C177.235 86.9223 176.882 87.6869 178.526 88.1498L179.178 86.4826Z" fill="#FFB27D"/>
<path d="M197.444 81.7912C197.444 81.7912 189.031 88.8137 185.75 88.164C183.185 87.6558 179.131 86.3692 179.131 86.3692C179.131 86.3692 178.06 87.3878 178.363 88.6072C178.363 88.6072 183.529 93.4683 187.21 93.4996C192.963 93.5483 195.677 90.6479 195.677 90.6479L197.444 81.79V81.7912Z" fill="#FE776B"/>
<path d="M212.198 155.866C212.198 155.866 211.953 159.805 211.191 159.862C211.09 159.869 207.325 159.869 207.325 159.869L202.52 159.841C202.52 159.841 202.551 158.684 203.956 158.439C205.361 158.194 207.711 157.207 208.563 155.35C209.457 153.398 212.198 155.866 212.198 155.866Z" fill="#113C68"/>
<path d="M212.478 156.138C212.478 156.138 211.018 156.626 209.877 156.626C208.605 156.626 207.449 156.279 207.449 156.279C207.449 156.279 207.174 153.619 205.66 147.759C204.867 144.688 203.733 140.738 202.122 135.83C197.664 122.267 196.309 114.332 196.185 113.582C196.178 113.542 196.176 113.523 196.176 113.523L196.19 113.516L209.894 107.499C209.894 107.499 208.2 126.192 210.361 133.367C210.664 134.37 210.923 135.539 211.145 136.805C212.51 144.599 212.478 156.138 212.478 156.138Z" fill="#2A4E96"/>
<path d="M205.659 147.759C204.865 144.688 203.732 140.738 202.12 135.83C197.663 122.267 196.308 114.332 196.184 113.582C196.185 113.56 196.186 113.538 196.188 113.516L209.892 107.499C209.892 107.499 208.198 126.192 210.36 133.367C210.662 134.37 205.659 147.759 205.659 147.759Z" fill="#233862"/>
<path d="M201.498 155.866C201.498 155.866 201.254 159.805 200.491 159.862C200.39 159.869 196.626 159.869 196.626 159.869L191.82 159.841C191.82 159.841 191.852 158.684 193.257 158.439C194.662 158.194 197.012 157.207 197.864 155.35C198.758 153.398 201.498 155.866 201.498 155.866Z" fill="#15447C"/>
<path d="M193.73 107.94C193.73 107.94 193.552 120.054 195.648 134.927C197.743 149.8 197.033 156.113 197.033 156.113C197.033 156.113 198.473 156.579 199.054 156.627C200.535 156.747 202.053 156.28 202.053 156.28C202.053 156.28 205.054 141.402 204.193 133.957C203.333 126.512 208.301 108.413 208.301 108.413L193.73 107.94Z" fill="#2A4E96"/>
<path d="M203.447 79.5952L200.772 81.3494L198.336 80.6602C197.89 80.0245 197.773 78.8005 197.766 77.739C197.759 76.6855 197.861 75.7934 197.861 75.7934L201.47 74.2004L202.817 73.6064C202.814 73.6273 202.713 74.7121 202.698 74.871C202.446 77.6833 203.447 79.5952 203.447 79.5952Z" fill="#FFB27D"/>
<path d="M193.664 111.309C196.993 114.524 209.594 113.983 210.371 110.441C211.146 106.899 209.524 80.2895 203.837 78.6188C202.657 78.2719 196.347 80.3115 196.347 80.3115C196.347 80.3115 195.358 82.901 194.708 86.1993C194.583 86.8409 194.214 93.6406 193.939 100.003C193.81 102.978 193.702 105.858 193.646 107.966C193.595 109.942 193.593 111.239 193.665 111.31L193.664 111.309Z" fill="#FE7A6F"/>
<path d="M202.429 74.9211C201.697 76.159 199.128 77.2426 197.766 77.7391C197.759 76.6857 197.861 75.7935 197.861 75.7935L201.47 74.2006C202.269 74.1902 202.755 74.3689 202.428 74.9211H202.429Z" fill="#FCA56B"/>
<path d="M196.496 75.5742C196.496 75.5742 202.31 77.3875 203.385 73.7492C204.459 70.111 205.932 67.8939 202.265 66.5817C198.598 65.2696 197.463 66.4448 196.81 67.5714C196.156 68.699 195.012 75.008 196.497 75.573L196.496 75.5742Z" fill="#FFB27D"/>
<path d="M197.044 67.2203C197.044 67.2203 197.415 71.4549 198.29 71.2705C199.166 71.086 200.13 70.6939 200.001 71.9701C199.873 73.2462 200.853 75.4343 202.115 75.4297C204.823 75.4181 207.766 68.4698 207.024 67.1519C204.884 63.35 193.951 62.582 197.043 67.2203H197.044Z" fill="#163560"/>
<path d="M197.894 78.7099C197.97 78.6786 202.223 76.7701 202.72 76.9349C203.218 77.0996 203.838 78.6183 203.838 78.6183L196.348 80.3121C196.348 80.3121 196.937 79.1137 197.894 78.7099Z" fill="#FE776B"/>
<path d="M171.408 99.3162L195.254 121.768C195.722 122.207 196.311 122.348 196.564 122.08L197.369 121.225C197.622 120.956 197.447 120.377 196.979 119.936L173.133 97.4843C172.666 97.0446 172.076 96.9042 171.823 97.1722L171.018 98.0272C170.765 98.2964 170.94 98.8753 171.408 99.3162Z" fill="#1F4D84"/>
<path d="M184.789 111.916L195.253 121.768C195.72 122.208 196.309 122.348 196.562 122.08L197.368 121.225C197.62 120.956 197.445 120.377 196.978 119.936L186.514 110.084L184.789 111.916Z" fill="#739AF0"/>
<path d="M172.622 72.5788C165.549 65.0609 153.721 64.7012 146.205 71.7748C146.105 71.8676 146.007 71.9615 145.911 72.0578C138.678 79.1592 138.418 90.7736 145.397 98.1929C152.47 105.71 164.299 106.072 171.818 98.9992C174.28 96.6835 175.975 93.8573 176.89 90.8409C178.775 84.6433 177.38 77.6359 172.622 72.5799V72.5788ZM170.806 97.9249C166.431 102.042 160.47 103.424 155.03 102.136C151.863 101.386 148.872 99.7313 146.474 97.1824C139.96 90.2574 140.29 79.3634 147.215 72.8491C149.764 70.451 152.851 68.9811 156.06 68.4254C161.568 67.4717 167.432 69.2154 171.549 73.5904C178.064 80.5166 177.732 91.4106 170.807 97.9249H170.806Z" fill="#1F4D84"/>
<g opacity="0.5">
<path d="M146.474 97.1802C148.872 99.7291 151.864 101.385 155.032 102.135C160.472 103.422 166.432 102.04 170.807 97.9227C177.731 91.4084 178.064 80.5132 171.549 73.5882C167.433 69.2132 161.568 67.4695 156.061 68.4232C152.852 68.9777 149.764 70.4488 147.216 72.8457C140.292 79.36 139.959 90.2552 146.473 97.179L146.474 97.1802Z" fill="#B3CFF9"/>
</g>
<path d="M193.648 107.965C206.787 98.6022 205.696 86.1084 205.696 86.1084C200.894 88.8174 196.128 94.8062 193.942 100.001C193.813 102.976 193.705 105.857 193.65 107.965H193.648Z" fill="#FE776B"/>
<path d="M180.68 103.703C179.753 103.49 179.131 102.789 179.002 102.666C179.002 102.666 178.606 102.693 179.067 103.536C179.105 103.607 179.191 103.788 179.255 103.916C179.282 103.968 179.245 104.029 179.187 104.033C178.652 104.073 178.115 103.862 177.084 104.077C176.942 104.107 176.901 104.447 176.907 104.592C176.916 104.838 176.899 105.113 177.184 105.489C177.35 105.708 177.813 105.943 178.844 106.359C179.238 106.517 180.361 106.397 181.413 106.036L182.254 105.646L181.993 104.083L181.782 104.127C181.447 104.197 181.031 103.788 180.681 103.702L180.68 103.703Z" fill="#FFB27D"/>
<path d="M201.618 80.3125C201.618 80.3125 213.424 82.5609 198.144 99.6571C195.701 102.392 182.498 105.951 182.498 105.951C182.498 105.951 181.16 104.812 181.835 103.889C181.835 103.889 190.925 97.288 192.925 96.2393C193.825 95.7671 196.417 85.7038 197.883 83.2802C199.35 80.8566 201.618 80.3137 201.618 80.3137V80.3125Z" fill="#FE7A6F"/>
<path d="M178.863 86.689C178.863 86.689 178.477 85.9512 178.402 85.5614C178.326 85.1715 177.84 84.0369 177.639 83.8362C177.559 83.7561 177.295 83.8594 177.263 84.204C177.249 84.3536 177.324 84.6263 177.452 84.9511C177.664 85.479 177.629 86.196 177.702 86.435C177.885 87.0301 178.862 86.689 178.862 86.689H178.863Z" fill="#FFB27D"/>
</svg>
