<svg width="300" height="220" viewBox="0 0 300 220" fill="none" xmlns="http://www.w3.org/2000/svg">
<g clip-path="url(#clip0_1_27470)">
<path d="M300 193.914H0V194.058H300V193.914Z" fill="#E0E0E0"/>
<path d="M227.601 199.242H206.961V199.387H227.601V199.242Z" fill="#E0E0E0"/>
<path d="M251.882 198.828H240.266V198.972H251.882V198.828Z" fill="#E0E0E0"/>
<path d="M148.4 199.172H132.992V199.316H148.4V199.172Z" fill="#E0E0E0"/>
<path d="M159.532 201.227H149.008V201.371H159.532V201.227Z" fill="#E0E0E0"/>
<path d="M86.8018 197.719H55.0078V197.863H86.8018V197.719Z" fill="#E0E0E0"/>
<path d="M142.208 168.165H26.3479C24.4579 168.165 22.9219 166.687 22.9219 164.868V8.14078C22.9219 6.32193 24.4579 4.84375 26.3479 4.84375H142.208C144.098 4.84375 145.634 6.32193 145.634 8.14078V164.874C145.634 166.693 144.098 168.171 142.208 168.171V168.165ZM26.3479 4.99388C24.5419 4.99388 23.0719 6.40854 23.0719 8.14655V164.874C23.0719 166.612 24.5419 168.026 26.3479 168.026H142.208C144.014 168.026 145.484 166.612 145.484 164.874V8.14078C145.484 6.40276 144.014 4.9881 142.208 4.9881H26.3479V4.99388Z" fill="#E0E0E0"/>
<path d="M271.989 168.165H156.129C154.239 168.165 152.703 166.687 152.703 164.868V8.14078C152.703 6.32193 154.239 4.84375 156.129 4.84375H271.989C273.879 4.84375 275.415 6.32193 275.415 8.14078V164.874C275.415 166.693 273.879 168.171 271.989 168.171V168.165ZM156.129 4.99388C154.323 4.99388 152.853 6.40854 152.853 8.14655V164.874C152.853 166.612 154.323 168.026 156.129 168.026H271.989C273.795 168.026 275.265 166.612 275.265 164.874V8.14078C275.265 6.40276 273.795 4.9881 271.989 4.9881H156.129V4.99388Z" fill="#E0E0E0"/>
<path d="M260.42 18.8906H170V93.7002H260.42V18.8906Z" fill="#E0E0E0"/>
<path d="M262.428 18.8906H172.008V93.7002H262.428V18.8906Z" fill="#F0F0F0"/>
<path d="M258.82 90.1867V22.3984L175.612 22.3984V90.1867H258.82Z" fill="#FAFAFA"/>
<path d="M232.234 90.1867V22.3984H226.798V90.1867H232.234Z" fill="#E0E0E0"/>
<path d="M203.633 90.1867V22.3984H198.197V90.1867H203.633Z" fill="#E0E0E0"/>
<path d="M234.141 92.416V19.7891H228.705V92.416H234.141Z" fill="#F0F0F0"/>
<path d="M205.539 92.416V19.7891H200.103V92.416H205.539Z" fill="#F0F0F0"/>
<path d="M258.82 90.1867V22.3984H257.302V90.1867H258.82Z" fill="#E0E0E0"/>
<path d="M106.407 77.973C106.407 77.973 95.4029 59.721 110.667 45.1875C110.667 45.1875 114.651 47.6877 114.591 51.0482C114.531 54.4088 110.325 55.2576 111.231 58.0638C112.137 60.87 116.103 63.6185 113.499 65.9339C110.895 68.2494 113.919 70.3165 113.745 73.1516C113.571 75.9925 106.413 77.973 106.413 77.973H106.407Z" fill="#E0E0E0"/>
<path d="M108.132 80.9582C108.132 80.9582 112.59 60.2984 93.3478 51.1406C93.3478 51.1406 90.3838 54.7206 91.5418 57.8906C92.6998 61.0606 96.9718 60.5929 97.0318 63.5261C97.0918 66.4594 94.2238 70.2761 97.4578 71.685C100.692 73.0939 98.4958 75.9694 99.5938 78.6082C100.692 81.2469 108.132 80.9582 108.132 80.9582Z" fill="#E6E6E6"/>
<path d="M98.3359 75.7188C98.3359 75.7188 98.5279 93.5493 105.938 93.5493C113.348 93.5493 113.54 75.7188 113.54 75.7188H98.3419H98.3359Z" fill="#F0F0F0"/>
<path d="M53.8185 86.8359C53.8185 86.8359 54.2325 93.5455 70.0545 93.5455C85.8765 93.5455 86.2905 86.8359 86.2905 86.8359H53.8125H53.8185Z" fill="#E6E6E6"/>
<path d="M220.627 127.289H212.275C211.234 127.289 210.391 128.101 210.391 129.102V142.394C210.391 143.396 211.234 144.207 212.275 144.207H220.627C221.667 144.207 222.511 143.396 222.511 142.394V129.102C222.511 128.101 221.667 127.289 220.627 127.289Z" fill="#F0F0F0"/>
<path d="M242.779 132.828H237.157C236.457 132.828 235.891 133.374 235.891 134.046V142.996C235.891 143.669 236.457 144.215 237.157 144.215H242.779C243.478 144.215 244.045 143.669 244.045 142.996V134.046C244.045 133.374 243.478 132.828 242.779 132.828Z" fill="#E6E6E6"/>
<path d="M243.619 131.719H236.317C236.081 131.719 235.891 131.902 235.891 132.129V132.591C235.891 132.817 236.081 133.001 236.317 133.001H243.619C243.854 133.001 244.045 132.817 244.045 132.591V132.129C244.045 131.902 243.854 131.719 243.619 131.719Z" fill="#F0F0F0"/>
<path d="M191.062 134.797C191.062 134.797 191.362 144.209 202.816 144.209C214.27 144.209 214.57 134.797 214.57 134.797H191.062Z" fill="#E6E6E6"/>
<path d="M162.572 122.367H179.906V119.076H162.572V122.367Z" fill="#E0E0E0"/>
<path d="M266.084 119.078H179.906V122.369H266.084V119.078Z" fill="#F0F0F0"/>
<path d="M162.572 147.5H179.906V144.209H162.572V147.5Z" fill="#E0E0E0"/>
<path d="M266.084 144.219H179.906V147.51H266.084V144.219Z" fill="#F0F0F0"/>
<path d="M168.815 122.367H165.617V193.92H168.815V122.367Z" fill="#E0E0E0"/>
<path d="M183.104 122.367H179.906V193.92H183.104V122.367Z" fill="#F0F0F0"/>
<path d="M254.995 122.367H251.797V193.92H254.995V122.367Z" fill="#E0E0E0"/>
<path d="M266.081 122.367H262.883V193.92H266.081V122.367Z" fill="#F0F0F0"/>
<path d="M53.8139 97.7266H37.4219V189.587H53.8139V97.7266Z" fill="#E6E6E6"/>
<path d="M121.402 189.586H40.5703V193.922H121.402V189.586Z" fill="#E6E6E6"/>
<path d="M53.8129 189.586H124.547L124.547 97.7254L53.8129 97.7254L53.8129 189.586Z" fill="#F0F0F0"/>
<path d="M60.2556 154.875H118.102V132.437H60.2556V154.875Z" fill="#E6E6E6"/>
<path d="M60.2556 181.398H118.102V158.96H60.2556V181.398Z" fill="#E6E6E6"/>
<path d="M95.6798 134.892H82.6898C81.8078 134.892 81.0938 134.199 81.0938 133.356C81.0938 132.507 81.8138 131.82 82.6898 131.82H95.6798C96.5618 131.82 97.2758 132.513 97.2758 133.356C97.2758 134.205 96.5558 134.892 95.6798 134.892Z" fill="#F0F0F0"/>
<path d="M60.2556 128.344H118.102V105.905H60.2556V128.344Z" fill="#E6E6E6"/>
<path d="M95.6798 108.369H82.6898C81.8078 108.369 81.0938 107.676 81.0938 106.833C81.0938 105.984 81.8138 105.297 82.6898 105.297H95.6798C96.5618 105.297 97.2758 105.99 97.2758 106.833C97.2758 107.682 96.5558 108.369 95.6798 108.369Z" fill="#F0F0F0"/>
<path d="M95.6798 161.423H82.6898C81.8078 161.423 81.0938 160.731 81.0938 159.887C81.0938 159.039 81.8138 158.352 82.6898 158.352H95.6798C96.5618 158.352 97.2758 159.044 97.2758 159.887C97.2758 160.736 96.5558 161.423 95.6798 161.423Z" fill="#F0F0F0"/>
<path d="M126.738 93.5391H53.8203V97.7253H126.738V93.5391Z" fill="#E6E6E6"/>
<path d="M35.1363 97.7266H53.8203V93.5403H35.1363V97.7266Z" fill="#E0E0E0"/>
<path d="M72.0903 22.3984H45.5703V50.426H72.0903V22.3984Z" fill="#E6E6E6"/>
<path d="M74.9663 22.3984H47.5703V50.426H74.9663V22.3984Z" fill="#F0F0F0"/>
<path d="M72.6641 48.212V24.6016H49.8581V48.212H72.6641Z" fill="#FAFAFA"/>
<path d="M67.1406 42.4942V30.3281H55.3926V42.4942H67.1406Z" fill="#F0F0F0"/>
<path d="M100.05 14.125H79.9375V34.9176H100.05V14.125Z" fill="#E6E6E6"/>
<path d="M102.189 14.125H81.8672V34.9176H102.189V14.125Z" fill="#F0F0F0"/>
<path d="M100.477 33.2786V15.7656L83.5626 15.7656V33.2786H100.477Z" fill="#FAFAFA"/>
<path d="M92.0244 20.0938L87.3984 27.8022H96.6504L92.0244 20.0938Z" fill="#F0F0F0"/>
<path d="M149.998 219.995C214.248 219.995 266.332 217.068 266.332 213.458C266.332 209.848 214.248 206.922 149.998 206.922C85.7486 206.922 33.6641 209.848 33.6641 213.458C33.6641 217.068 85.7486 219.995 149.998 219.995Z" fill="#F5F5F5"/>
<path d="M251.88 57.3125H193.02C189.916 57.3125 187.398 59.7348 187.398 62.7229V78.1282C187.398 81.1163 189.916 83.5386 193.02 83.5386H251.88C254.985 83.5386 257.502 81.1163 257.502 78.1282V62.7229C257.502 59.7348 254.985 57.3125 251.88 57.3125Z" fill="#407BFF"/>
<path d="M240.204 61.7344H194.226C193.683 61.7344 193.242 62.1583 193.242 62.6813V63.7207C193.242 64.2437 193.683 64.6676 194.226 64.6676H240.204C240.748 64.6676 241.188 64.2437 241.188 63.7207V62.6813C241.188 62.1583 240.748 61.7344 240.204 61.7344Z" fill="#407BFF"/>
<path d="M225.642 68.8047H194.226C193.683 68.8047 193.242 69.2287 193.242 69.7516V70.791C193.242 71.314 193.683 71.7379 194.226 71.7379H225.642C226.186 71.7379 226.626 71.314 226.626 70.791V69.7516C226.626 69.2287 226.186 68.8047 225.642 68.8047Z" fill="#407BFF"/>
<path d="M217.218 75.875H194.226C193.683 75.875 193.242 76.299 193.242 76.822V77.8613C193.242 78.3843 193.683 78.8083 194.226 78.8083H217.218C217.762 78.8083 218.202 78.3843 218.202 77.8613V76.822C218.202 76.299 217.762 75.875 217.218 75.875Z" fill="#407BFF"/>
<path d="M245.71 75.875H222.718C222.175 75.875 221.734 76.299 221.734 76.822V77.8613C221.734 78.3843 222.175 78.8083 222.718 78.8083H245.71C246.254 78.8083 246.694 78.3843 246.694 77.8613V76.822C246.694 76.299 246.254 75.875 245.71 75.875Z" fill="#407BFF"/>
<g opacity="0.5">
<path d="M240.204 61.7344H194.226C193.683 61.7344 193.242 62.1583 193.242 62.6813V63.7207C193.242 64.2437 193.683 64.6676 194.226 64.6676H240.204C240.748 64.6676 241.188 64.2437 241.188 63.7207V62.6813C241.188 62.1583 240.748 61.7344 240.204 61.7344Z" fill="white"/>
<path d="M225.642 68.8047H194.226C193.683 68.8047 193.242 69.2287 193.242 69.7516V70.791C193.242 71.314 193.683 71.7379 194.226 71.7379H225.642C226.186 71.7379 226.626 71.314 226.626 70.791V69.7516C226.626 69.2287 226.186 68.8047 225.642 68.8047Z" fill="white"/>
<path d="M217.218 75.875H194.226C193.683 75.875 193.242 76.299 193.242 76.822V77.8613C193.242 78.3843 193.683 78.8083 194.226 78.8083H217.218C217.762 78.8083 218.202 78.3843 218.202 77.8613V76.822C218.202 76.299 217.762 75.875 217.218 75.875Z" fill="white"/>
<path d="M245.71 75.875H222.718C222.175 75.875 221.734 76.299 221.734 76.822V77.8613C221.734 78.3843 222.175 78.8083 222.718 78.8083H245.71C246.254 78.8083 246.694 78.3843 246.694 77.8613V76.822C246.694 76.299 246.254 75.875 245.71 75.875Z" fill="white"/>
</g>
<path d="M204.734 51.2031H137.924C133.371 51.2031 129.68 54.7551 129.68 59.1368V81.7252C129.68 86.1068 133.371 89.6588 137.924 89.6588H204.734C209.287 89.6588 212.978 86.1068 212.978 81.7252V59.1368C212.978 54.7551 209.287 51.2031 204.734 51.2031Z" fill="#407BFF"/>
<path d="M207.1 57.6953H139.696C138.897 57.6953 138.25 58.3183 138.25 59.0869V60.6055C138.25 61.374 138.897 61.997 139.696 61.997H207.1C207.899 61.997 208.546 61.374 208.546 60.6055V59.0869C208.546 58.3183 207.899 57.6953 207.1 57.6953Z" fill="#407BFF"/>
<path d="M185.746 68.0625H139.696C138.897 68.0625 138.25 68.6855 138.25 69.4541V70.9727C138.25 71.7412 138.897 72.3642 139.696 72.3642H185.746C186.545 72.3642 187.192 71.7412 187.192 70.9727V69.4541C187.192 68.6855 186.545 68.0625 185.746 68.0625Z" fill="#407BFF"/>
<path d="M173.398 78.4219H139.696C138.897 78.4219 138.25 79.0449 138.25 79.8134V81.332C138.25 82.1006 138.897 82.7236 139.696 82.7236H173.398C174.197 82.7236 174.844 82.1006 174.844 81.332V79.8134C174.844 79.0449 174.197 78.4219 173.398 78.4219Z" fill="#407BFF"/>
<path d="M209.557 78.4219H181.477C180.679 78.4219 180.031 79.0449 180.031 79.8134V81.332C180.031 82.1006 180.679 82.7236 181.477 82.7236H209.557C210.356 82.7236 211.003 82.1006 211.003 81.332V79.8134C211.003 79.0449 210.356 78.4219 209.557 78.4219Z" fill="#407BFF"/>
<g opacity="0.5">
<path d="M207.1 57.6953H139.696C138.897 57.6953 138.25 58.3183 138.25 59.0869V60.6055C138.25 61.374 138.897 61.997 139.696 61.997H207.1C207.899 61.997 208.546 61.374 208.546 60.6055V59.0869C208.546 58.3183 207.899 57.6953 207.1 57.6953Z" fill="white"/>
<path d="M185.746 68.0625H139.696C138.897 68.0625 138.25 68.6855 138.25 69.4541V70.9727C138.25 71.7412 138.897 72.3642 139.696 72.3642H185.746C186.545 72.3642 187.192 71.7412 187.192 70.9727V69.4541C187.192 68.6855 186.545 68.0625 185.746 68.0625Z" fill="white"/>
<path d="M173.398 78.4219H139.696C138.897 78.4219 138.25 79.0449 138.25 79.8134V81.332C138.25 82.1006 138.897 82.7236 139.696 82.7236H173.398C174.197 82.7236 174.844 82.1006 174.844 81.332V79.8134C174.844 79.0449 174.197 78.4219 173.398 78.4219Z" fill="white"/>
<path d="M209.557 78.4219H181.477C180.679 78.4219 180.031 79.0449 180.031 79.8134V81.332C180.031 82.1006 180.679 82.7236 181.477 82.7236H209.557C210.356 82.7236 211.003 82.1006 211.003 81.332V79.8134C211.003 79.0449 210.356 78.4219 209.557 78.4219Z" fill="white"/>
</g>
<path d="M163.194 96.625H131.016C128.889 96.625 127.164 98.2847 127.164 100.332V146.721C127.164 148.769 128.889 150.428 131.016 150.428H163.194C165.321 150.428 167.046 148.769 167.046 146.721V100.332C167.046 98.2847 165.321 96.625 163.194 96.625Z" fill="#407BFF"/>
<path opacity="0.4" d="M163.194 96.625H131.016C128.889 96.625 127.164 98.2847 127.164 100.332V146.721C127.164 148.769 128.889 150.428 131.016 150.428H163.194C165.321 150.428 167.046 148.769 167.046 146.721V100.332C167.046 98.2847 165.321 96.625 163.194 96.625Z" fill="black"/>
<path d="M161.721 102.234H132.489C132.098 102.234 131.781 102.539 131.781 102.916V103.938C131.781 104.314 132.098 104.619 132.489 104.619H161.721C162.112 104.619 162.429 104.314 162.429 103.938V102.916C162.429 102.539 162.112 102.234 161.721 102.234Z" fill="#FAFAFA"/>
<path d="M152.415 107.984H132.489C132.098 107.984 131.781 108.289 131.781 108.666V109.688C131.781 110.064 132.098 110.369 132.489 110.369H152.415C152.806 110.369 153.123 110.064 153.123 109.688V108.666C153.123 108.289 152.806 107.984 152.415 107.984Z" fill="#FAFAFA"/>
<path d="M161.721 113.719H132.489C132.098 113.719 131.781 114.024 131.781 114.4V115.422C131.781 115.798 132.098 116.103 132.489 116.103H161.721C162.112 116.103 162.429 115.798 162.429 115.422V114.4C162.429 114.024 162.112 113.719 161.721 113.719Z" fill="#FAFAFA"/>
<path d="M143.355 119.469H132.489C132.098 119.469 131.781 119.774 131.781 120.15V121.172C131.781 121.548 132.098 121.853 132.489 121.853H143.355C143.746 121.853 144.063 121.548 144.063 121.172V120.15C144.063 119.774 143.746 119.469 143.355 119.469Z" fill="#FAFAFA"/>
<path d="M158.558 119.469H147.692C147.301 119.469 146.984 119.774 146.984 120.15V121.172C146.984 121.548 147.301 121.853 147.692 121.853H158.558C158.949 121.853 159.266 121.548 159.266 121.172V120.15C159.266 119.774 158.949 119.469 158.558 119.469Z" fill="#FAFAFA"/>
<path d="M161.721 125.203H132.489C132.098 125.203 131.781 125.508 131.781 125.884V126.906C131.781 127.283 132.098 127.588 132.489 127.588H161.721C162.112 127.588 162.429 127.283 162.429 126.906V125.884C162.429 125.508 162.112 125.203 161.721 125.203Z" fill="#FAFAFA"/>
<path d="M161.721 130.953H132.489C132.098 130.953 131.781 131.258 131.781 131.634V132.656C131.781 133.033 132.098 133.338 132.489 133.338H161.721C162.112 133.338 162.429 133.033 162.429 132.656V131.634C162.429 131.258 162.112 130.953 161.721 130.953Z" fill="#FAFAFA"/>
<path d="M156.537 136.695H132.489C132.098 136.695 131.781 137 131.781 137.377V138.399C131.781 138.775 132.098 139.08 132.489 139.08H156.537C156.928 139.08 157.245 138.775 157.245 138.399V137.377C157.245 137 156.928 136.695 156.537 136.695Z" fill="#FAFAFA"/>
<path d="M143.709 142.438H132.489C132.098 142.438 131.781 142.743 131.781 143.119V144.141C131.781 144.517 132.098 144.822 132.489 144.822H143.709C144.1 144.822 144.417 144.517 144.417 144.141V143.119C144.417 142.743 144.1 142.438 143.709 142.438Z" fill="#FAFAFA"/>
<path d="M171.901 96.3047H127.273L146.983 111.416L177.241 122.369V101.444C177.241 98.6143 174.835 96.3047 171.901 96.3047Z" fill="#407BFF"/>
<path opacity="0.4" d="M171.901 96.3047H127.273L146.983 111.416L177.241 122.369V101.444C177.241 98.6143 174.835 96.3047 171.901 96.3047Z" fill="black"/>
<path d="M169.952 104.086H137.294C136.804 104.086 136.406 104.469 136.406 104.941V106.534C136.406 107.006 136.804 107.389 137.294 107.389H169.952C170.443 107.389 170.84 107.006 170.84 106.534V104.941C170.84 104.469 170.443 104.086 169.952 104.086Z" fill="#FAFAFA"/>
<path d="M249.086 137.207V106.997C249.086 104.682 247.136 102.805 244.73 102.805H190.22C187.814 102.805 185.864 104.682 185.864 106.997V137.207C185.864 139.522 187.814 141.399 190.22 141.399H244.73C247.136 141.399 249.086 139.522 249.086 137.207Z" fill="#407BFF"/>
<path d="M259.023 127.629V97.4186C259.023 95.1034 257.073 93.2266 254.667 93.2266H200.157C197.752 93.2266 195.801 95.1034 195.801 97.4186V127.629C195.801 129.944 197.752 131.821 200.157 131.821H254.667C257.073 131.821 259.023 129.944 259.023 127.629Z" fill="#407BFF"/>
<path opacity="0.5" d="M259.023 127.629V97.4186C259.023 95.1034 257.073 93.2266 254.667 93.2266H200.157C197.752 93.2266 195.801 95.1034 195.801 97.4186V127.629C195.801 129.944 197.752 131.821 200.157 131.821H254.667C257.073 131.821 259.023 129.944 259.023 127.629Z" fill="white"/>
<path d="M253.492 117.276V98.6775C253.492 97.6475 252.625 96.8125 251.554 96.8125H233.74C232.67 96.8125 231.802 97.6475 231.802 98.6775V117.276C231.802 118.306 232.67 119.141 233.74 119.141H251.554C252.625 119.141 253.492 118.306 253.492 117.276Z" fill="#407BFF"/>
<path opacity="0.7" d="M253.492 117.276V98.6775C253.492 97.6475 252.625 96.8125 251.554 96.8125H233.74C232.67 96.8125 231.802 97.6475 231.802 98.6775V117.276C231.802 118.306 232.67 119.141 233.74 119.141H251.554C252.625 119.141 253.492 118.306 253.492 117.276Z" fill="white"/>
<path d="M228.422 126.268V112.018C228.422 111.227 227.756 110.586 226.934 110.586H213.284C212.462 110.586 211.796 111.227 211.796 112.018V126.268C211.796 127.059 212.462 127.7 213.284 127.7H226.934C227.756 127.7 228.422 127.059 228.422 126.268Z" fill="#407BFF"/>
<path opacity="0.3" d="M228.422 126.268V112.018C228.422 111.227 227.756 110.586 226.934 110.586H213.284C212.462 110.586 211.796 111.227 211.796 112.018V126.268C211.796 127.059 212.462 127.7 213.284 127.7H226.934C227.756 127.7 228.422 127.059 228.422 126.268Z" fill="white"/>
<path d="M220.117 35.9192V28.2222C220.117 25.8688 218.135 23.9609 215.689 23.9609L69.2112 23.9609C66.7657 23.9609 64.7832 25.8688 64.7832 28.2222V35.9192C64.7832 38.2726 66.7657 40.1805 69.2112 40.1805L215.689 40.1805C218.135 40.1805 220.117 38.2726 220.117 35.9192Z" fill="#407BFF"/>
<path opacity="0.5" d="M220.117 35.9192V28.2222C220.117 25.8688 218.135 23.9609 215.689 23.9609L69.2112 23.9609C66.7657 23.9609 64.7832 25.8688 64.7832 28.2222V35.9192C64.7832 38.2726 66.7657 40.1805 69.2112 40.1805L215.689 40.1805C218.135 40.1805 220.117 38.2726 220.117 35.9192Z" fill="white"/>
<path d="M192.398 42.8961V37.3125L150.248 37.3125V42.8961L192.398 42.8961Z" fill="#407BFF"/>
<path opacity="0.5" d="M192.398 42.8961V37.3125L150.248 37.3125V42.8961L192.398 42.8961Z" fill="white"/>
<path d="M235.219 11.9582V4.26131C235.219 1.90785 233.236 0 230.791 0L84.3127 0C81.8672 0 79.8847 1.90785 79.8847 4.26131V11.9582C79.8847 14.3117 81.8672 16.2195 84.3127 16.2195L230.791 16.2195C233.236 16.2195 235.219 14.3117 235.219 11.9582Z" fill="#407BFF"/>
<path d="M78.2157 85.2882C77.6877 86.42 77.1057 87.6845 76.5957 88.9086C76.0797 90.1443 75.5637 91.3799 75.1017 92.6271C74.1537 95.11 73.3497 97.6275 72.8277 100.093L72.6537 101.017L72.5937 101.369C72.5757 101.462 72.5757 101.594 72.5577 101.704C72.5277 102.195 72.5397 102.784 72.5937 103.39C72.7077 104.608 72.9117 105.913 73.1637 107.218C73.6677 109.834 74.3157 112.531 74.9517 115.181L71.8737 116.353C70.4397 113.818 69.2277 111.249 68.2137 108.5C67.7157 107.126 67.2657 105.717 66.9477 104.193C66.7917 103.425 66.6477 102.634 66.6117 101.733C66.6117 101.496 66.5937 101.283 66.6057 101.028C66.6177 100.786 66.6237 100.509 66.6477 100.341L66.7677 99.1981C66.9537 97.691 67.2297 96.2129 67.5897 94.7809C67.9257 93.3373 68.3577 91.9342 68.8197 90.5485C69.2817 89.1627 69.7977 87.8 70.3617 86.4604C70.6437 85.7906 70.9377 85.1265 71.2377 84.4625C71.5377 83.7869 71.8497 83.1633 72.2217 82.4531L78.2217 85.2882H78.2157Z" fill="#E4897B"/>
<path d="M74.8271 114.398L77.1671 116.598L72.0611 118.885C72.0611 118.885 70.8191 116.8 71.6771 114.918L74.8271 114.398Z" fill="#E4897B"/>
<path d="M79.0585 119.875L74.7445 121.573L72.0625 118.888L77.1685 116.602L79.0585 119.875Z" fill="#E4897B"/>
<path opacity="0.4" d="M166.445 117.508C142.733 114.962 125.651 94.3941 128.303 71.569C130.955 48.7438 152.327 32.3107 176.039 34.8628C199.757 37.415 216.839 57.9767 214.187 80.8018C211.535 103.627 190.163 120.06 166.445 117.508Z" fill="#FAFAFA"/>
<path opacity="0.4" d="M197.874 43.4463L132.174 93.9641C131.892 93.3925 131.628 92.8151 131.37 92.2319C129.744 88.5133 128.676 84.5407 128.25 80.4065L184.998 36.7656C189.732 38.2842 194.07 40.565 197.874 43.4405V43.4463Z" fill="#FAFAFA"/>
<path opacity="0.4" d="M213.038 65.5724L151.268 113.065C145.346 110.097 140.282 105.864 136.406 100.777L203.858 48.9141C208.16 53.6719 211.334 59.3652 213.038 65.5782V65.5724Z" fill="#FAFAFA"/>
<path d="M122.632 60.3298L122.062 60.145C123.053 57.333 124.3 54.6018 125.77 52.0323L126.298 52.3095C124.846 54.8559 123.61 57.5524 122.632 60.3298ZM129.916 46.8529L129.43 46.5123C134.29 40.155 140.8 34.9236 148.252 31.3783L148.516 31.898C141.148 35.3971 134.717 40.5707 129.911 46.8529H129.916ZM195.677 32.689C193.727 31.6785 191.687 30.7778 189.617 30.0214L189.833 29.4844C191.927 30.2523 193.99 31.1589 195.964 32.1867L195.683 32.6948L195.677 32.689Z" fill="#407BFF"/>
<path opacity="0.3" d="M122.632 60.3298L122.062 60.145C123.053 57.333 124.3 54.6018 125.77 52.0323L126.298 52.3095C124.846 54.8559 123.61 57.5524 122.632 60.3298ZM129.916 46.8529L129.43 46.5123C134.29 40.155 140.8 34.9236 148.252 31.3783L148.516 31.898C141.148 35.3971 134.717 40.5707 129.911 46.8529H129.916ZM195.677 32.689C193.727 31.6785 191.687 30.7778 189.617 30.0214L189.833 29.4844C191.927 30.2523 193.99 31.1589 195.964 32.1867L195.683 32.6948L195.677 32.689Z" fill="black"/>
<path d="M215.922 54.9567C203.742 31.2077 173.862 21.461 149.184 33.1825C126.246 44.0783 115.884 69.6981 124.332 92.3326C120.324 93.6838 116.364 95.1389 112.428 96.6286C106.752 98.7939 101.136 101.063 95.5561 103.419C89.9881 105.792 84.4441 108.212 78.9601 110.741C76.2001 111.976 73.4821 113.293 70.7461 114.563C69.3601 115.169 68.0581 115.943 66.9421 117.069C66.3781 117.629 65.8681 118.276 65.4001 119.021C64.9381 119.777 64.5181 120.603 64.2241 121.694C63.3001 125.147 65.1061 128.825 68.6221 130.269C69.6961 130.708 70.6381 130.886 71.5381 130.996C72.4381 131.094 73.2841 131.094 74.0881 131.002C75.6961 130.835 77.1301 130.315 78.4681 129.622C81.1861 128.3 83.9221 127.024 86.6161 125.667C92.0401 123.011 97.4041 120.245 102.75 117.439C108.084 114.609 113.376 111.699 118.614 108.679C122.238 106.577 125.844 104.441 129.402 102.201C142.938 122.416 170.364 130.084 193.308 119.182C217.986 107.461 228.114 78.7057 215.934 54.951L215.922 54.9567ZM188.646 110.117C169.17 119.367 145.596 111.67 135.984 92.9332C126.372 74.1961 134.364 51.5096 153.834 42.2537C173.31 33.0035 196.884 40.7004 206.496 59.4317C216.108 78.1745 208.122 100.861 188.646 110.111V110.117Z" fill="#407BFF"/>
<path opacity="0.3" d="M215.922 54.9567C203.742 31.2077 173.862 21.461 149.184 33.1825C126.246 44.0783 115.884 69.6981 124.332 92.3326C120.324 93.6838 116.364 95.1389 112.428 96.6286C106.752 98.7939 101.136 101.063 95.5561 103.419C89.9881 105.792 84.4441 108.212 78.9601 110.741C76.2001 111.976 73.4821 113.293 70.7461 114.563C69.3601 115.169 68.0581 115.943 66.9421 117.069C66.3781 117.629 65.8681 118.276 65.4001 119.021C64.9381 119.777 64.5181 120.603 64.2241 121.694C63.3001 125.147 65.1061 128.825 68.6221 130.269C69.6961 130.708 70.6381 130.886 71.5381 130.996C72.4381 131.094 73.2841 131.094 74.0881 131.002C75.6961 130.835 77.1301 130.315 78.4681 129.622C81.1861 128.3 83.9221 127.024 86.6161 125.667C92.0401 123.011 97.4041 120.245 102.75 117.439C108.084 114.609 113.376 111.699 118.614 108.679C122.238 106.577 125.844 104.441 129.402 102.201C142.938 122.416 170.364 130.084 193.308 119.182C217.986 107.461 228.114 78.7057 215.934 54.951L215.922 54.9567ZM188.646 110.117C169.17 119.367 145.596 111.67 135.984 92.9332C126.372 74.1961 134.364 51.5096 153.834 42.2537C173.31 33.0035 196.884 40.7004 206.496 59.4317C216.108 78.1745 208.122 100.861 188.646 110.111V110.117Z" fill="black"/>
<path d="M94.8125 64.6647C94.8125 65.0054 94.9985 65.2825 95.2325 65.2825C95.4665 65.2825 95.6525 65.0054 95.6525 64.6647C95.6525 64.324 95.4665 64.0469 95.2325 64.0469C94.9985 64.0469 94.8125 64.324 94.8125 64.6647Z" fill="#263238"/>
<path d="M94.9688 65.2891C94.9688 65.2891 95.7728 67.2638 96.6668 68.2165C96.0368 68.7824 94.9688 68.5226 94.9688 68.5226V65.2891Z" fill="#DE5753"/>
<path d="M93.5588 62.7723C93.4928 62.7723 93.4328 62.7434 93.3908 62.6857C93.3248 62.5933 93.3428 62.4721 93.4388 62.4028C94.3748 61.7561 95.2808 62.0794 95.3168 62.091C95.4248 62.1314 95.4788 62.2469 95.4368 62.3508C95.3948 62.4547 95.2748 62.5067 95.1668 62.4663C95.1308 62.4547 94.4288 62.2122 93.6848 62.7261C93.6488 62.7492 93.6068 62.7665 93.5648 62.7665L93.5588 62.7723Z" fill="#263238"/>
<path d="M82.6775 67.2422C83.3075 70.3429 83.9435 76.0304 81.6875 78.1033C81.6875 78.1033 82.5695 81.2502 88.5635 81.2502C95.1515 81.2502 91.7135 78.1033 91.7135 78.1033C88.1195 77.2776 88.2095 74.7081 88.8395 72.3003L82.6895 67.248L82.6775 67.2422Z" fill="#E4897B"/>
<path d="M78.992 79.7276C79.706 78.6594 78.5 76.0726 78.5 76.0726C78.5 76.0726 89.114 73.5031 93.452 77.4468C94.352 78.2667 93.35 79.462 93.35 79.462L78.992 79.7276Z" fill="#407BFF"/>
<path opacity="0.1" d="M78.992 79.7276C79.706 78.6594 78.5 76.0726 78.5 76.0726C78.5 76.0726 89.114 73.5031 93.452 77.4468C94.352 78.2667 93.35 79.462 93.35 79.462L78.992 79.7276Z" fill="black"/>
<path d="M61.4404 197.546C60.8824 197.546 59.9884 196.645 59.7244 196.31C59.7004 196.281 59.6944 196.235 59.7184 196.2C59.7364 196.166 59.7784 196.148 59.8204 196.148C59.8804 196.148 61.3564 196.275 61.7524 196.778C61.8424 196.893 61.8784 197.02 61.8544 197.159C61.8064 197.419 61.6564 197.505 61.5424 197.528C61.5124 197.534 61.4764 197.54 61.4404 197.54V197.546ZM60.0544 196.379C60.4924 196.864 61.1944 197.413 61.4944 197.344C61.5244 197.338 61.6144 197.315 61.6504 197.13C61.6684 197.049 61.6504 196.98 61.5904 196.911C61.3504 196.61 60.5464 196.449 60.0544 196.385V196.379Z" fill="#407BFF"/>
<path d="M60.1098 196.374C59.9838 196.374 59.8758 196.368 59.7858 196.351C59.7498 196.345 59.7198 196.317 59.7078 196.282C59.6958 196.247 59.7078 196.207 59.7318 196.184C59.7678 196.143 60.6558 195.266 61.3158 195.266C61.4898 195.266 61.6338 195.323 61.7418 195.439C61.9158 195.612 61.8678 195.768 61.8258 195.843C61.6278 196.195 60.7098 196.374 60.1098 196.374ZM60.0378 196.172C60.6018 196.195 61.5018 195.993 61.6458 195.739C61.6578 195.716 61.6878 195.664 61.5918 195.566C61.5198 195.491 61.4298 195.456 61.3158 195.456C60.9198 195.456 60.3558 195.883 60.0378 196.166V196.172Z" fill="#407BFF"/>
<path d="M101.037 210.648C100.509 210.648 99.9687 210.584 99.6867 210.526C99.6447 210.521 99.6087 210.486 99.6027 210.445C99.5967 210.405 99.6147 210.365 99.6507 210.342C99.7167 210.307 101.253 209.458 101.991 209.654C102.141 209.695 102.255 209.776 102.321 209.891C102.447 210.099 102.393 210.243 102.327 210.33C102.141 210.573 101.595 210.648 101.031 210.648H101.037ZM100.023 210.382C100.845 210.492 101.955 210.486 102.165 210.215C102.189 210.18 102.219 210.116 102.147 209.995C102.105 209.926 102.039 209.88 101.943 209.857C101.493 209.735 100.569 210.122 100.029 210.388L100.023 210.382Z" fill="#407BFF"/>
<path d="M99.7047 210.529C99.7047 210.529 99.6627 210.524 99.6447 210.512C99.6147 210.489 99.5967 210.454 99.6027 210.42C99.6027 210.373 99.7287 209.23 100.287 208.786C100.455 208.653 100.653 208.595 100.863 208.612C101.151 208.641 101.235 208.78 101.253 208.895C101.331 209.375 100.281 210.293 99.7467 210.524C99.7347 210.524 99.7167 210.529 99.7047 210.529ZM100.779 208.809C100.647 208.809 100.527 208.849 100.419 208.941C100.053 209.23 99.8907 209.917 99.8367 210.246C100.377 209.935 101.097 209.213 101.049 208.924C101.049 208.901 101.031 208.832 100.845 208.809C100.821 208.809 100.803 208.809 100.785 208.809H100.779Z" fill="#407BFF"/>
<path d="M94.8516 210.429H99.2616L99.6996 200.602H95.2896L94.8516 210.429Z" fill="#E4897B"/>
<path d="M55.5781 193.565L59.2681 195.891L67.4041 189.274L63.7141 186.953L55.5781 193.565Z" fill="#E4897B"/>
<path d="M59.8733 195.665L56.0453 192.645C55.9073 192.535 55.7033 192.535 55.5653 192.645L52.4093 195.029C52.0793 195.278 52.0853 195.757 52.4093 196.005C53.7653 197.039 54.4793 197.472 56.1653 198.8C57.2033 199.62 59.7773 202.109 61.2113 203.235C62.6093 204.337 63.9893 203.148 63.5093 202.565C61.3553 199.937 60.4853 197.691 60.2633 196.3C60.2213 196.052 60.0833 195.821 59.8793 195.659L59.8733 195.665Z" fill="#263238"/>
<path d="M99.232 209.938H94.42C94.24 209.938 94.084 210.059 94.042 210.226L93.172 213.997C93.082 214.389 93.388 214.759 93.808 214.753C95.542 214.724 98.056 214.626 100.234 214.626C102.784 214.626 104.992 214.759 107.98 214.759C109.792 214.759 110.29 212.998 109.534 212.836C106.084 212.109 103.27 212.034 100.288 210.267C99.964 210.076 99.604 209.938 99.226 209.938H99.232Z" fill="#263238"/>
<path d="M72.9916 79.3733C69.1696 81.1344 67.0156 92.7116 67.0156 92.7116L76.3576 96.3031C76.3576 96.3031 78.4576 91.5106 79.6636 86.4004C80.9236 81.0421 76.9036 77.5776 72.9916 79.3791V79.3733Z" fill="#263238"/>
<path d="M77.953 85.9021C75.643 88.154 74.587 92.5655 74.125 95.4352L76.363 96.2956C76.363 96.2956 78.391 91.682 79.603 86.6816C79.405 85.4575 78.913 84.9667 77.953 85.9021Z" fill="#203048"/>
<path d="M98.4851 79.2795C98.4851 79.2795 103.177 84.3781 98.7431 115.945H75.1691C75.0071 112.463 77.2811 95.4702 73.7891 79.0601C73.7891 79.0601 77.8331 78.2806 81.6791 78.1016C84.6911 77.963 89.0531 77.8707 91.6991 78.1016C95.1911 78.4076 98.4791 79.2795 98.4791 79.2795H98.4851Z" fill="#263238"/>
<path d="M100.638 91.5336L96.666 84.9453C95.898 88.5541 95.574 90.783 95.736 94.3398C95.844 96.6033 97.998 104.987 99.924 106.211C100.53 100.05 100.704 95.2521 100.638 91.5336Z" fill="#203048"/>
<path d="M101.193 83.7891C101.781 86.5953 102.399 89.4708 103.035 92.2943C103.671 95.1237 104.343 97.9414 105.117 100.673C105.315 101.342 105.501 102.035 105.723 102.688L105.885 103.184L105.963 103.433C105.963 103.433 105.939 103.41 105.933 103.404C105.885 103.352 105.837 103.346 105.873 103.404C105.921 103.519 106.299 103.768 106.785 103.952C107.283 104.137 107.889 104.299 108.531 104.426C111.135 104.905 114.201 104.969 117.111 104.963L117.681 108.098C116.877 108.346 116.121 108.525 115.335 108.704C114.555 108.883 113.763 109.034 112.959 109.149C111.357 109.386 109.713 109.542 107.961 109.472C107.085 109.438 106.173 109.357 105.201 109.126C104.235 108.883 103.161 108.56 102.039 107.711C101.493 107.29 100.947 106.707 100.557 105.996C100.461 105.823 100.371 105.627 100.299 105.459L100.191 105.188L99.9692 104.639C99.6632 103.906 99.4112 103.184 99.1352 102.457C98.1212 99.5524 97.2752 96.6596 96.5312 93.7494C95.7932 90.8277 95.1512 87.9349 94.6172 84.9497L101.193 83.7948V83.7891Z" fill="#E4897B"/>
<path d="M92.5955 82.379C91.3535 86.2535 96.3875 97.8075 96.3875 97.8075L106.414 95.3824C106.414 95.3824 106.03 89.3831 103.744 84.6194C100.3 77.4306 94.0835 77.7309 92.5895 82.3848L92.5955 82.379Z" fill="#263238"/>
<path d="M117.055 104.949L122.048 104.828L119.648 109.823C119.648 109.823 117.62 110.083 115.946 107.444L114.188 105.429L116.209 105.036C116.485 104.984 116.767 104.949 117.055 104.944V104.949Z" fill="#E4897B"/>
<path d="M125.198 105.766L122.342 109.906L119.648 109.831L122.048 104.836L125.198 105.766Z" fill="#E4897B"/>
<path d="M99.7005 200.609L99.4725 205.673H95.0625L95.2905 200.609H99.7005Z" fill="#CE6F64"/>
<path d="M63.7096 186.953L67.3996 189.28L63.1996 192.687L59.5156 190.36L63.7096 186.953Z" fill="#CE6F64"/>
<path d="M82.9551 63.9275C83.2191 68.1311 83.1531 70.6024 85.3551 72.7619C88.6671 76.007 94.0611 74.0899 95.1051 69.8979C96.0471 66.1217 95.4531 59.8856 91.1811 58.2111C86.9691 56.5597 82.6851 59.7297 82.9491 63.9333L82.9551 63.9275Z" fill="#E4897B"/>
<path d="M77.8172 63.1974C78.9032 67.0314 81.4592 71.4429 84.7652 71.72C88.8692 72.0665 90.7232 67.9842 91.2632 63.7691C93.7232 62.1465 92.4332 60.3681 94.8992 60.1371C98.0612 59.8484 97.0532 54.2706 92.8832 53.3756C92.8832 53.3756 94.2812 55.8874 91.3472 54.6228C88.4132 53.3583 85.5512 52.8098 82.3832 53.1273C82.3832 53.1273 86.1212 54.9289 82.4672 55.7315C78.8072 56.5341 77.7152 58.7051 79.4012 60.0216C79.4012 60.0216 77.1032 60.6857 77.8172 63.2032V63.1974Z" fill="#263238"/>
<path d="M88.7623 64.6342C88.8283 65.737 89.3623 66.7706 89.9983 67.4462C90.9583 68.4624 91.9603 67.833 92.1343 66.5916C92.2903 65.4772 91.9723 63.6006 90.7963 63.0347C89.6383 62.4804 88.6843 63.3754 88.7623 64.6342Z" fill="#E4897B"/>
<path d="M90.3827 115.945C90.3827 115.945 94.6788 145.884 91.2948 157.877C85.9308 176.874 65.4228 192.909 65.4228 192.909L58.4688 188.526C58.4688 188.526 75.9347 174.986 78.0707 159.084C79.9907 144.799 75.1667 127.534 75.1667 115.945H90.3768H90.3827Z" fill="#407BFF"/>
<path opacity="0.1" d="M90.3827 115.945C90.3827 115.945 94.6788 145.884 91.2948 157.877C85.9308 176.874 65.4228 192.909 65.4228 192.909L58.4688 188.526C58.4688 188.526 75.9347 174.986 78.0707 159.084C79.9907 144.799 75.1667 127.534 75.1667 115.945H90.3768H90.3827Z" fill="black"/>
<path d="M92.1604 133.07C90.1384 130.864 88.3984 129.594 88.3984 129.594C89.1304 139.312 89.7304 153.707 89.0644 163.932C89.9584 161.964 90.7144 159.937 91.2964 157.881C92.9464 152.026 92.7724 141.904 92.1604 133.07Z" fill="#407BFF"/>
<path opacity="0.3" d="M92.1604 133.07C90.1384 130.864 88.3984 129.594 88.3984 129.594C89.1304 139.312 89.7304 153.707 89.0644 163.932C89.9584 161.964 90.7144 159.937 91.2964 157.881C92.9464 152.026 92.7724 141.904 92.1604 133.07Z" fill="black"/>
<path d="M68.2275 191.424L65.5335 193.133L57.9375 188.341L60.3075 186.43L68.2275 191.424Z" fill="#407BFF"/>
<path opacity="0.3" d="M68.2275 191.424L65.5335 193.133L57.9375 188.341L60.3075 186.43L68.2275 191.424Z" fill="black"/>
<path d="M98.748 115.945C98.748 115.945 105.39 143.026 105.852 155.96C106.374 170.465 101.118 204.688 101.118 204.688H93.654C93.654 204.688 92.736 170.205 92.4 156.988C92.04 142.581 83.25 115.945 83.25 115.945H98.748Z" fill="#407BFF"/>
<path opacity="0.1" d="M98.748 115.945C98.748 115.945 105.39 143.026 105.852 155.96C106.374 170.465 101.118 204.688 101.118 204.688H93.654C93.654 204.688 92.736 170.205 92.4 156.988C92.04 142.581 83.25 115.945 83.25 115.945H98.748Z" fill="black"/>
<path d="M102.555 201.828C102.591 201.828 102.135 204.813 102.135 204.813H93.0507L92.8047 202.151L102.555 201.828Z" fill="#407BFF"/>
<path opacity="0.3" d="M102.555 201.828C102.591 201.828 102.135 204.813 102.135 204.813H93.0507L92.8047 202.151L102.555 201.828Z" fill="black"/>
<path d="M213.574 89.9219C214.084 90.3838 214.486 90.7764 214.906 91.2211C215.32 91.6541 215.722 92.0872 216.112 92.5318C216.898 93.4152 217.624 94.3391 218.332 95.2803C219.754 97.1511 220.996 99.1432 222.1 101.205L222.322 101.626C222.43 101.834 222.52 102.048 222.592 102.261C222.742 102.694 222.826 103.139 222.856 103.566C222.904 104.426 222.754 105.2 222.532 105.882C222.076 107.25 221.356 108.318 220.606 109.3C219.04 111.228 217.306 112.793 215.326 114.179L213.832 112.528C214.54 111.742 215.272 110.894 215.92 110.045C216.586 109.202 217.198 108.33 217.708 107.446C218.224 106.58 218.632 105.674 218.8 104.894C218.884 104.507 218.89 104.161 218.836 103.913C218.812 103.786 218.776 103.682 218.734 103.595C218.71 103.549 218.686 103.508 218.656 103.468L218.458 103.162C217.3 101.343 216.046 99.5878 214.696 97.8959C214.03 97.0471 213.316 96.233 212.596 95.4304C212.242 95.0262 211.876 94.6336 211.51 94.2467C211.15 93.8714 210.748 93.4614 210.43 93.1496L213.58 89.9277L213.574 89.9219Z" fill="#E4897B"/>
<path d="M214.419 112.033L209.938 111.328L212.277 115.104C212.277 115.104 215.163 115.006 215.985 113.395L214.413 112.033H214.419Z" fill="#E4897B"/>
<path d="M206.625 113.078L208.761 116.138L212.283 115.104L209.937 111.328L206.625 113.078Z" fill="#E4897B"/>
<path d="M214.206 210.595C213.858 210.595 213.54 210.537 213.348 210.369C213.198 210.237 213.138 210.052 213.174 209.827C213.198 209.653 213.3 209.573 213.384 209.538C213.906 209.313 215.274 210.161 215.43 210.254C215.466 210.277 215.484 210.317 215.478 210.358C215.472 210.398 215.436 210.427 215.4 210.439C215.082 210.508 214.626 210.595 214.212 210.595H214.206ZM213.606 209.7C213.552 209.7 213.51 209.705 213.468 209.723C213.432 209.74 213.39 209.769 213.378 209.85C213.354 210.011 213.39 210.127 213.486 210.213C213.714 210.416 214.302 210.439 215.082 210.289C214.602 210.006 213.942 209.694 213.6 209.694L213.606 209.7Z" fill="#407BFF"/>
<path d="M215.373 210.442C215.373 210.442 215.337 210.442 215.319 210.43C214.893 210.194 214.071 209.264 214.173 208.773C214.191 208.681 214.263 208.519 214.533 208.49C214.707 208.467 214.851 208.513 214.983 208.629C215.469 209.044 215.481 210.292 215.481 210.344C215.481 210.378 215.463 210.413 215.427 210.43C215.409 210.442 215.391 210.442 215.373 210.442ZM214.611 208.686C214.611 208.686 214.581 208.686 214.563 208.686C214.425 208.704 214.395 208.762 214.389 208.808C214.329 209.102 214.839 209.807 215.265 210.136C215.241 209.72 215.139 209.021 214.851 208.773C214.779 208.715 214.701 208.681 214.617 208.681L214.611 208.686Z" fill="#407BFF"/>
<path d="M193.756 210.601C193.306 210.601 192.898 210.532 192.664 210.336C192.514 210.209 192.454 210.041 192.472 209.839C192.484 209.718 192.544 209.62 192.652 209.568C193.21 209.273 194.998 210.157 195.196 210.261C195.238 210.278 195.256 210.324 195.25 210.364C195.244 210.405 195.208 210.44 195.166 210.451C194.782 210.526 194.248 210.607 193.75 210.607L193.756 210.601ZM192.952 209.706C192.868 209.706 192.802 209.718 192.754 209.741C192.712 209.764 192.688 209.799 192.682 209.851C192.67 209.989 192.712 210.099 192.808 210.18C193.078 210.416 193.822 210.457 194.818 210.295C194.2 210.012 193.384 209.7 192.958 209.7L192.952 209.706Z" fill="#407BFF"/>
<path d="M195.152 210.439C195.152 210.439 195.122 210.439 195.11 210.427C194.576 210.196 193.514 209.261 193.598 208.77C193.616 208.654 193.7 208.51 194 208.481C194.216 208.458 194.414 208.522 194.588 208.66C195.152 209.111 195.254 210.277 195.26 210.329C195.26 210.364 195.248 210.398 195.218 210.421C195.2 210.433 195.176 210.439 195.158 210.439H195.152ZM194.078 208.683C194.078 208.683 194.036 208.683 194.012 208.683C193.82 208.701 193.808 208.776 193.802 208.799C193.754 209.093 194.474 209.827 195.02 210.144C194.966 209.803 194.816 209.105 194.45 208.81C194.336 208.718 194.216 208.678 194.084 208.678L194.078 208.683Z" fill="#407BFF"/>
<path d="M202.243 76.6406C202.069 79.2505 201.6 84.557 203.682 86.0236C203.682 86.0236 203.311 88.697 198.397 89.3148C192.991 89.9962 195.462 87.0571 195.462 87.0571C198.318 86.0063 197.958 83.9102 197.172 81.999L202.243 76.6406Z" fill="#E4897B"/>
<path d="M191.064 72.03C191.004 72.03 190.944 72.0069 190.902 71.9608C190.278 71.2736 189.498 71.366 189.492 71.3718C189.36 71.3891 189.27 71.3083 189.252 71.1986C189.234 71.0889 189.318 70.9849 189.432 70.9676C189.474 70.9676 190.446 70.8406 191.226 71.6951C191.304 71.7818 191.292 71.9088 191.208 71.9839C191.166 72.0185 191.118 72.0358 191.07 72.0358L191.064 72.03Z" fill="#263238"/>
<path d="M190.132 74.5917C190.132 74.5917 189.724 76.1565 189.148 76.9591C189.682 77.3286 190.462 77.0284 190.462 77.0284L190.132 74.5859V74.5917Z" fill="#DE5753"/>
<path d="M190.369 73.9567C190.417 74.3031 190.261 74.6092 190.027 74.638C189.793 74.6669 189.565 74.4128 189.517 74.0664C189.469 73.72 189.625 73.4139 189.859 73.385C190.093 73.3562 190.321 73.6102 190.369 73.9567Z" fill="#263238"/>
<path d="M189.972 73.3906L189.078 73.2578C189.078 73.2578 189.612 73.8525 189.972 73.3906Z" fill="#263238"/>
<path d="M200.097 210.344H195.597L195.297 200.32H199.797L200.097 210.344Z" fill="#E4897B"/>
<path d="M220.518 210.344H216.024L214.578 200.32H219.078L220.518 210.344Z" fill="#E4897B"/>
<path d="M215.748 209.844H220.8C220.986 209.844 221.13 209.965 221.16 210.138L221.736 213.984C221.796 214.382 221.442 214.758 221.016 214.752C219.252 214.723 218.406 214.625 216.186 214.625C214.818 214.625 212.82 214.763 210.936 214.763C209.052 214.763 208.95 212.968 209.736 212.806C213.258 212.078 213.816 211.074 215.004 210.109C215.22 209.936 215.484 209.844 215.754 209.844H215.748Z" fill="#263238"/>
<path d="M195.443 209.844H200.495C200.681 209.844 200.825 209.965 200.855 210.138L201.431 213.984C201.491 214.382 201.137 214.758 200.711 214.752C198.947 214.723 198.101 214.625 195.881 214.625C194.513 214.625 191.687 214.763 189.803 214.763C187.919 214.763 187.817 212.968 188.603 212.806C192.125 212.078 193.511 211.074 194.699 210.109C194.915 209.936 195.179 209.844 195.449 209.844H195.443Z" fill="#263238"/>
<path d="M195.297 200.328L195.453 205.49H199.953L199.797 200.328H195.297Z" fill="#CE6F64"/>
<path d="M219.078 200.328H214.578L215.328 205.49H219.822L219.078 200.328Z" fill="#CE6F64"/>
<path d="M202.301 71.2444C202.607 75.5288 202.835 77.3361 200.897 79.7958C197.987 83.4971 192.455 82.9254 190.823 78.8142C189.353 75.113 189.101 68.7326 193.193 66.4923C197.225 64.2923 201.995 66.9542 202.301 71.2386V71.2444Z" fill="#E4897B"/>
<path d="M204.894 75.2236C207.396 76.5632 209.244 73.2604 209.244 73.2604C209.244 73.2604 204.768 73.7281 205.17 71.1644C205.698 67.7634 203.172 63.6291 196.818 64.1603C196.464 64.1892 196.128 64.2296 195.798 64.2816C194.568 63.785 192.9 63.837 191.85 65.1593C190.074 65.3036 187.626 67.3708 189.27 70.1019C189.27 70.1019 189.414 69.6689 189.804 69.2531C189.936 70.8526 191.394 73.3932 193.206 73.5606C193.596 75.749 192.084 78.2839 192.624 80.5704C193.398 83.8674 199.176 84.6354 199.176 84.6354C198.54 83.036 199.512 82.0948 199.512 82.0948C203.436 83.8212 206.022 82.1352 206.022 82.1352C203.346 81.1709 204.156 79.4676 204.156 79.4676C207.738 80.7841 209.25 77.6891 209.25 77.6891C207.342 77.7873 205.728 76.7595 204.9 75.2351L204.894 75.2236Z" fill="#263238"/>
<path d="M194.769 74.2137C194.799 75.1029 194.397 75.9229 193.869 76.4483C193.071 77.2394 192.099 76.6851 191.841 75.6746C191.607 74.7623 191.739 73.2552 192.771 72.8453C193.785 72.4411 194.739 73.1975 194.769 74.2137Z" fill="#E4897B"/>
<path d="M198.508 114.133C198.508 114.133 199.654 142.634 202.36 159.368C204.544 172.885 214.246 204.487 214.246 204.487H220.378C220.378 204.487 215.326 173.971 214.216 160.598C211.408 126.761 218.692 119.503 211.834 112.453L198.508 114.133Z" fill="#263238"/>
<path d="M203.626 123.144C203.626 123.144 200.854 122.682 199.234 127.763C199.846 137.389 200.86 150.161 202.354 159.365C202.684 161.415 203.188 163.886 203.806 166.594C202.636 150.334 203.626 123.144 203.626 123.144Z" fill="#161F33"/>
<path d="M193.723 114.739C193.723 114.739 188.671 146.272 188.965 159.465C189.271 173.191 194.497 204.492 194.497 204.492H200.575C200.575 204.492 199.615 173.993 200.149 160.511C200.737 145.815 206.977 113.07 206.977 113.07L193.717 114.739H193.723Z" fill="#263238"/>
<path d="M221.267 204.758H213.113L212.477 202.125L221.207 202.189L221.267 204.758Z" fill="#407BFF"/>
<path opacity="0.2" d="M221.267 204.758H213.113L212.477 202.125L221.207 202.189L221.267 204.758Z" fill="black"/>
<path d="M211.505 86.0344C213.845 86.248 217.415 92.6631 217.415 92.6631L211.493 97.0341C211.493 97.0341 206.591 92.894 207.173 90.5671C207.779 88.1419 209.255 85.8207 211.505 86.0286V86.0344Z" fill="#407BFF"/>
<path opacity="0.1" d="M211.505 86.0344C213.845 86.248 217.415 92.6631 217.415 92.6631L211.493 97.0341C211.493 97.0341 206.591 92.894 207.173 90.5671C207.779 88.1419 209.255 85.8207 211.505 86.0286V86.0344Z" fill="black"/>
<path d="M209.735 88.7845C209.735 88.7845 208.793 88.5246 207.899 88.5881C207.587 89.2002 207.347 89.8758 207.173 90.5629C206.591 92.8899 211.493 97.0299 211.493 97.0299L211.931 96.7066L209.735 88.7845Z" fill="#407BFF"/>
<path opacity="0.3" d="M209.735 88.7845C209.735 88.7845 208.793 88.5246 207.899 88.5881C207.587 89.2002 207.347 89.8758 207.173 90.5629C206.591 92.8899 211.493 97.0299 211.493 97.0299L211.931 96.7066L209.735 88.7845Z" fill="black"/>
<path d="M191.714 94.9456C190.004 99.1145 188.204 103.341 186.77 107.522C186.68 107.781 186.596 108.041 186.512 108.301L186.308 108.942C186.254 109.144 186.242 109.294 186.308 109.543C186.44 110.033 187.07 110.744 187.862 111.333C189.464 112.545 191.612 113.515 193.676 114.329L193.136 116.46C190.628 116.09 188.264 115.461 185.882 114.179C184.73 113.498 183.476 112.655 182.654 111.026C182.252 110.224 182.084 109.202 182.234 108.272C182.252 108.157 182.276 108.047 182.3 107.932L182.354 107.695L182.462 107.256C182.534 106.962 182.606 106.673 182.684 106.384C183.302 104.086 184.052 101.886 184.856 99.7034C185.654 97.515 186.512 95.3786 187.472 93.2422L191.714 94.9456Z" fill="#E4897B"/>
<path d="M188.07 89.1111C188.07 89.1111 186.042 90.0985 193.722 114.737C200.904 113.83 208.332 112.895 211.83 112.456C210.564 105.4 209.958 101.029 211.5 86.0335C211.5 86.0335 207.6 85.7159 203.676 86.0277C200.61 86.2702 198.102 86.4896 195.456 87.0613C191.964 87.8177 188.07 89.1111 188.07 89.1111Z" fill="#407BFF"/>
<path opacity="0.1" d="M188.07 89.1111C188.07 89.1111 186.042 90.0985 193.722 114.737C200.904 113.83 208.332 112.895 211.83 112.456C210.564 105.4 209.958 101.029 211.5 86.0335C211.5 86.0335 207.6 85.7159 203.676 86.0277C200.61 86.2702 198.102 86.4896 195.456 87.0613C191.964 87.8177 188.07 89.1111 188.07 89.1111Z" fill="black"/>
<path d="M211.962 111.399L212.988 112.854C213.066 112.97 212.934 113.108 212.724 113.137L193.734 115.528C193.572 115.551 193.428 115.487 193.404 115.389L193.026 113.847C193.002 113.743 193.128 113.634 193.308 113.611L211.644 111.301C211.776 111.284 211.908 111.324 211.956 111.393L211.962 111.399Z" fill="#407BFF"/>
<path opacity="0.2" d="M211.962 111.399L212.988 112.854C213.066 112.97 212.934 113.108 212.724 113.137L193.734 115.528C193.572 115.551 193.428 115.487 193.404 115.389L193.026 113.847C193.002 113.743 193.128 113.634 193.308 113.611L211.644 111.301C211.776 111.284 211.908 111.324 211.956 111.393L211.962 111.399Z" fill="black"/>
<path d="M209.765 113.675L210.257 113.612C210.353 113.6 210.425 113.543 210.407 113.485L209.903 111.487C209.891 111.429 209.795 111.389 209.699 111.4L209.207 111.464C209.111 111.475 209.039 111.533 209.057 111.591L209.561 113.589C209.573 113.647 209.669 113.687 209.765 113.675Z" fill="#263238"/>
<path d="M197.867 115.183L198.359 115.12C198.455 115.108 198.527 115.05 198.509 114.993L198.005 112.995C197.993 112.937 197.897 112.897 197.801 112.908L197.309 112.972C197.213 112.983 197.141 113.041 197.159 113.099L197.663 115.097C197.675 115.154 197.771 115.195 197.867 115.183Z" fill="#263238"/>
<path d="M188.914 97.4643C189.412 99.6931 190.132 102.517 191.14 106.091L191.362 97.0312L188.914 97.4643Z" fill="#407BFF"/>
<path opacity="0.3" d="M188.914 97.4643C189.412 99.6931 190.132 102.517 191.14 106.091L191.362 97.0312L188.914 97.4643Z" fill="black"/>
<path d="M188.073 89.1067C185.823 89.9786 183.891 97.3868 183.891 97.3868L191.631 101.013C191.631 101.013 195.375 91.9533 193.695 90.1864C191.949 88.3445 190.665 88.1077 188.073 89.1067Z" fill="#407BFF"/>
<path opacity="0.1" d="M188.073 89.1067C185.823 89.9786 183.891 97.3868 183.891 97.3868L191.631 101.013C191.631 101.013 195.375 91.9533 193.695 90.1864C191.949 88.3445 190.665 88.1077 188.073 89.1067Z" fill="black"/>
<path d="M201.618 204.758H193.464L192.828 202.125L201.906 202.189L201.618 204.758Z" fill="#407BFF"/>
<path opacity="0.2" d="M201.618 204.758H193.464L192.828 202.125L201.906 202.189L201.618 204.758Z" fill="black"/>
<path d="M193.799 113.589L193.145 113.33C192.437 113.052 191.687 113.618 191.801 114.346L192.275 117.354C192.377 117.995 193.061 118.399 193.691 118.174C193.907 118.099 194.135 117.983 194.351 117.822C194.801 117.481 195.023 116.938 194.999 116.39L194.939 115.143C194.903 114.455 194.465 113.849 193.805 113.589H193.799Z" fill="#E4897B"/>
</g>
<defs>
<clipPath id="clip0_1_27470">
<rect width="300" height="220" fill="white"/>
</clipPath>
</defs>
</svg>
