<svg width="300" height="200" viewBox="0 0 300 200" fill="none" xmlns="http://www.w3.org/2000/svg">
<g clip-path="url(#clip0_1_26004)">
<path d="M269.496 133.942H197.196C195.904 133.942 194.852 132.724 194.852 131.229V9.3534C194.852 7.85813 195.904 6.64062 197.196 6.64062H269.496C270.788 6.64062 271.84 7.85813 271.84 9.3534V131.229C271.84 132.724 270.788 133.942 269.496 133.942ZM197.2 6.75636C195.964 6.75636 194.956 7.92294 194.956 9.3534V131.229C194.956 132.66 195.964 133.826 197.2 133.826H269.5C270.736 133.826 271.744 132.66 271.744 131.229V9.3534C271.744 7.92294 270.736 6.75636 269.5 6.75636H197.2Z" fill="#E0E0E0"/>
<path d="M186.128 133.942H113.828C112.536 133.942 111.484 132.724 111.484 131.229V9.3534C111.484 7.85813 112.536 6.64062 113.828 6.64062H186.128C187.42 6.64062 188.472 7.85813 188.472 9.3534V131.229C188.472 132.724 187.42 133.942 186.128 133.942ZM113.828 6.75636C112.592 6.75636 111.584 7.92294 111.584 9.3534V131.229C111.584 132.66 112.592 133.826 113.828 133.826H186.128C187.364 133.826 188.372 132.66 188.372 131.229V9.3534C188.372 7.92294 187.364 6.75636 186.128 6.75636H113.828Z" fill="#E0E0E0"/>
<path d="M102.804 133.942H30.5081C29.2161 133.942 28.1641 132.724 28.1641 131.229V9.3534C28.1641 7.85813 29.2161 6.64062 30.5081 6.64062H102.808C104.1 6.64062 105.152 7.85813 105.152 9.3534V131.229C105.152 132.724 104.1 133.942 102.808 133.942H102.804ZM30.5081 6.75636C29.2721 6.75636 28.2641 7.92294 28.2641 9.3534V131.229C28.2641 132.66 29.2721 133.826 30.5081 133.826H102.808C104.044 133.826 105.052 132.66 105.052 131.229V9.3534C105.052 7.92294 104.044 6.75636 102.808 6.75636H30.5081Z" fill="#E0E0E0"/>
<path d="M300 162.211H0V162.266H300V162.211Z" fill="#E0E0E0"/>
<path d="M283.745 175.812H261.453V176.007H283.745V175.812Z" fill="#EBEBEB"/>
<path d="M203.868 177.93H198.016V178.124H203.868V177.93Z" fill="#EBEBEB"/>
<path d="M45.3258 169.891H16.2578V170.085H45.3258V169.891Z" fill="#EBEBEB"/>
<path d="M55.5843 169.891H51.3203V170.085H55.5843V169.891Z" fill="#EBEBEB"/>
<path d="M132.482 173.18H69.4375V173.374H132.482V173.18Z" fill="#EBEBEB"/>
<path d="M264.7 168.076C265.652 166.72 267.488 165.813 269.508 165.378C269.348 166.044 269.468 166.66 269.808 166.813C270.188 166.979 270.7 166.507 270.948 165.757C271.02 165.544 271.056 165.336 271.072 165.137C273.108 164.947 275.14 165.216 276.5 165.97C276.5 165.97 275.172 167.359 273.664 171.002C273.616 171.002 273.572 171.002 273.524 171.002C272.548 171.011 271.764 171.558 271.768 172.22C271.772 172.701 272.2 173.113 272.808 173.294C272.728 173.525 272.648 173.766 272.572 174.011C271.136 178.506 267.312 175.257 267.344 172.183C267.344 172.183 262.564 171.123 264.696 168.081L264.7 168.076Z" fill="#E6E6E6"/>
<path d="M259.983 162.28C258.811 160.817 256.659 159.942 254.327 159.623C254.551 160.372 254.455 161.085 254.075 161.284C253.651 161.511 253.039 161.016 252.707 160.178C252.615 159.942 252.555 159.706 252.523 159.479C250.191 159.437 247.891 159.923 246.391 160.9C246.391 160.9 247.995 162.368 249.947 166.391C249.999 166.386 250.051 166.377 250.107 166.377C251.219 166.307 252.151 166.858 252.187 167.613C252.215 168.164 251.755 168.668 251.071 168.927C251.175 169.187 251.283 169.451 251.387 169.724C253.311 174.723 257.467 170.687 257.227 167.187C257.227 167.187 262.607 165.562 259.979 162.28H259.983Z" fill="#E6E6E6"/>
<path d="M257.135 161.186C257.631 158.376 259.719 155.441 262.375 153.038C262.583 154.149 263.159 154.946 263.755 154.867C264.419 154.779 264.855 153.64 264.723 152.325C264.687 151.955 264.607 151.613 264.499 151.312C267.339 149.247 270.483 147.858 272.955 147.766C272.955 147.766 271.927 150.951 272.119 157.589C272.051 157.626 271.983 157.663 271.915 157.705C270.503 158.575 269.715 160.056 270.155 161.015C270.479 161.714 271.367 161.936 272.371 161.667C272.407 162.079 272.447 162.491 272.495 162.922C273.347 170.727 265.643 169.352 263.679 164.839C263.679 164.839 256.019 167.482 257.135 161.181V161.186Z" fill="#EBEBEB"/>
<path d="M262.688 178.991C261.404 170.737 263.32 161.886 267.816 155.312" stroke="#E0E0E0" stroke-width="0.75" stroke-miterlimit="10"/>
<path d="M253.172 163.133C258.564 166.373 261.544 173.331 262.34 176.035C262.34 176.035 268.94 170.489 272.124 168.132" stroke="#E0E0E0" stroke-width="0.75" stroke-linecap="round" stroke-linejoin="round"/>
<path d="M270.599 181.63H254.391L254.395 178.195H270.583L270.599 181.63Z" fill="#E0E0E0"/>
<path d="M255.562 180.508L258.095 192.701H267.423L269.682 180.508H255.562Z" fill="#E0E0E0"/>
<path d="M255.297 177.492H256.737" stroke="#E0E0E0" stroke-width="0.5" stroke-linecap="round" stroke-linejoin="round"/>
<path d="M257.398 177.492H261.346" stroke="#E0E0E0" stroke-width="0.5" stroke-linecap="round" stroke-linejoin="round"/>
<path d="M41.4484 170.522C40.4964 169.165 38.6604 168.258 36.6404 167.823C36.8004 168.489 36.6804 169.105 36.3404 169.258C35.9604 169.425 35.4484 168.952 35.2004 168.202C35.1284 167.99 35.0924 167.781 35.0764 167.582C33.0404 167.392 31.0084 167.661 29.6484 168.415C29.6484 168.415 30.9764 169.804 32.4844 173.447C32.5324 173.447 32.5764 173.447 32.6244 173.447C33.6004 173.457 34.3844 174.003 34.3804 174.665C34.3764 175.146 33.9484 175.558 33.3404 175.739C33.4204 175.97 33.5004 176.211 33.5764 176.457C35.0124 180.952 38.8364 177.702 38.8044 174.628C38.8044 174.628 43.5844 173.568 41.4524 170.526L41.4484 170.522Z" fill="#E6E6E6"/>
<path d="M46.1645 164.717C47.3365 163.254 49.4885 162.379 51.8205 162.06C51.5965 162.81 51.6925 163.523 52.0725 163.722C52.4965 163.949 53.1085 163.453 53.4405 162.616C53.5325 162.379 53.5925 162.143 53.6245 161.917C55.9565 161.875 58.2565 162.361 59.7565 163.338C59.7565 163.338 58.1525 164.805 56.2005 168.828C56.1485 168.823 56.0965 168.814 56.0405 168.814C54.9285 168.745 53.9965 169.296 53.9605 170.05C53.9325 170.601 54.3925 171.106 55.0765 171.365C54.9725 171.624 54.8645 171.888 54.7605 172.161C52.8365 177.161 48.6805 173.124 48.9205 169.624C48.9205 169.624 43.5405 167.999 46.1685 164.717H46.1645Z" fill="#E6E6E6"/>
<path d="M49.0115 163.623C48.5155 160.814 46.4275 157.883 43.7715 155.476C43.5635 156.587 42.9875 157.383 42.3915 157.304C41.7275 157.217 41.2915 156.078 41.4195 154.763C41.4555 154.393 41.5355 154.05 41.6435 153.749C38.8035 151.685 35.6595 150.296 33.1875 150.203C33.1875 150.203 34.2155 153.388 34.0235 160.027C34.0915 160.064 34.1595 160.101 34.2275 160.142C35.6395 161.013 36.4275 162.494 35.9875 163.452C35.6635 164.151 34.7755 164.373 33.7715 164.105C33.7355 164.512 33.6915 164.929 33.6475 165.359C32.7955 173.165 40.4995 171.79 42.4635 167.276C42.4635 167.276 50.1235 169.919 49.0075 163.619L49.0115 163.623Z" fill="#EBEBEB"/>
<path d="M43.4561 181.429C44.7401 173.175 42.8241 164.324 38.3281 157.75" stroke="#E0E0E0" stroke-width="0.75" stroke-miterlimit="10"/>
<path d="M52.9833 165.57C47.5913 168.811 44.6112 175.769 43.8152 178.472C43.8152 178.472 37.2153 172.926 34.0312 170.57" stroke="#E0E0E0" stroke-width="0.75" stroke-linecap="round" stroke-linejoin="round"/>
<path d="M35.5469 184.068H51.7589L51.7509 180.633H35.5629L35.5469 184.068Z" fill="#E0E0E0"/>
<path d="M50.5809 182.945L48.0489 195.139H38.7209L36.4609 182.945H50.5809Z" fill="#E0E0E0"/>
<path d="M50.8503 179.93H49.4062" stroke="#E0E0E0" stroke-width="0.5" stroke-linecap="round" stroke-linejoin="round"/>
<path d="M48.7449 179.93H44.7969" stroke="#E0E0E0" stroke-width="0.5" stroke-linecap="round" stroke-linejoin="round"/>
<path d="M43.6924 94.4687C42.8124 96.0195 42.2204 97.7277 41.9044 99.4822L39.4844 99.7461V105.172L41.9044 105.436C42.2204 107.195 42.8124 108.898 43.6924 110.449L42.1484 112.611L45.4644 116.449L47.3324 114.662C48.6724 115.68 50.1484 116.365 51.6644 116.731L51.8924 119.532H56.5804L56.8084 116.731C58.3284 116.365 59.8004 115.68 61.1404 114.662L63.0084 116.449L66.3244 112.611L64.7804 110.449C65.6604 108.898 66.2524 107.19 66.5684 105.436L68.9884 105.172V99.7461L66.5684 99.4822C66.2524 97.7231 65.6604 96.0195 64.7804 94.4687L66.3244 92.3068L63.0084 88.4737L61.1404 90.2607C59.8004 89.2422 58.3244 88.5571 56.8084 88.1914L56.5804 85.3906H51.8924L51.6644 88.1914C50.1444 88.5571 48.6724 89.2422 47.3324 90.2607L45.4644 88.4737L42.1484 92.3114L43.6924 94.4733V94.4687ZM58.7204 97.2694C61.1964 100.135 61.1964 104.787 58.7204 107.653C56.2444 110.519 52.2244 110.519 49.7484 107.653C47.2724 104.787 47.2724 100.135 49.7484 97.2694C52.2244 94.4039 56.2444 94.4039 58.7204 97.2694Z" fill="#F5F5F5"/>
<path d="M108.364 161.303C107.976 161.988 107.712 162.742 107.572 163.52L106.5 163.636V166.034L107.572 166.15C107.712 166.927 107.972 167.682 108.364 168.367L107.68 169.321L109.144 171.015L109.968 170.223C110.56 170.672 111.212 170.978 111.884 171.14L111.984 172.381H114.056L114.156 171.14C114.828 170.978 115.48 170.677 116.072 170.223L116.896 171.015L118.36 169.321L117.676 168.367C118.064 167.682 118.328 166.927 118.468 166.15L119.54 166.034V163.636L118.472 163.52C118.332 162.742 118.072 161.988 117.68 161.303L118.364 160.349L116.9 158.655L116.076 159.446C115.484 158.997 114.832 158.692 114.16 158.53L114.06 157.289H111.988L111.888 158.53C111.216 158.692 110.564 158.993 109.972 159.446L109.148 158.655L107.684 160.349L108.368 161.303H108.364ZM115.008 162.539C116.104 163.807 116.104 165.863 115.008 167.131C113.912 168.399 112.136 168.399 111.04 167.131C109.944 165.863 109.944 163.807 111.04 162.539C112.136 161.27 113.912 161.27 115.008 162.539Z" fill="#F5F5F5"/>
<path d="M184.386 144.673C184.046 145.275 183.814 145.937 183.694 146.617L182.758 146.719V148.821L183.694 148.923C183.818 149.603 184.046 150.265 184.386 150.867L183.786 151.705L185.07 153.191L185.794 152.497C186.314 152.89 186.886 153.159 187.474 153.297L187.562 154.385H189.378L189.466 153.302C190.054 153.159 190.626 152.895 191.146 152.501L191.87 153.196L193.154 151.71L192.554 150.872C192.894 150.27 193.126 149.608 193.246 148.927L194.182 148.826V146.724L193.246 146.622C193.122 145.942 192.894 145.28 192.554 144.678L193.154 143.84L191.87 142.354L191.146 143.048C190.626 142.655 190.054 142.386 189.466 142.247L189.378 141.164H187.562L187.474 142.247C186.886 142.391 186.314 142.655 185.794 143.048L185.07 142.354L183.786 143.84L184.386 144.678V144.673ZM190.21 145.756C191.17 146.867 191.17 148.668 190.21 149.779C189.25 150.89 187.694 150.89 186.734 149.779C185.774 148.668 185.774 146.867 186.734 145.756C187.694 144.645 189.25 144.645 190.21 145.756Z" fill="#F5F5F5"/>
<path d="M248.816 133.822C248.476 134.423 248.243 135.085 248.123 135.766L247.188 135.868V137.969L248.123 138.071C248.247 138.752 248.476 139.414 248.816 140.016L248.216 140.853L249.499 142.339L250.223 141.645C250.743 142.039 251.315 142.307 251.903 142.446L251.991 143.534H253.807L253.895 142.451C254.483 142.307 255.055 142.043 255.575 141.65L256.299 142.344L257.583 140.858L256.983 140.02C257.323 139.418 257.555 138.756 257.675 138.076L258.611 137.974V135.872L257.675 135.77C257.551 135.09 257.323 134.428 256.983 133.826L257.583 132.988L256.299 131.502L255.575 132.197C255.055 131.803 254.483 131.535 253.895 131.396L253.807 130.312H251.991L251.903 131.4C251.315 131.544 250.743 131.808 250.223 132.201L249.499 131.507L248.216 132.993L248.816 133.831V133.822ZM254.64 134.905C255.6 136.016 255.6 137.817 254.64 138.928C253.68 140.039 252.124 140.039 251.164 138.928C250.204 137.817 250.204 136.016 251.164 134.905C252.124 133.794 253.68 133.794 254.64 134.905Z" fill="#F5F5F5"/>
<path d="M140.393 19.1665C139.277 20.9858 138.501 23.0042 138.057 25.0967L135.141 25.2911L134.938 31.8045L137.833 32.2443C138.145 34.3738 138.794 36.4477 139.79 38.3596L137.849 40.8733L141.685 45.6462L143.993 43.5907C145.565 44.8823 147.309 45.7804 149.117 46.2943L149.285 49.669L154.914 49.9051L155.293 46.5535C157.133 46.1924 158.926 45.4425 160.578 44.2898L162.75 46.5304L166.873 42.0909L165.097 39.4197C166.213 37.6004 166.989 35.582 167.433 33.4896L170.349 33.2952L170.557 26.7817L167.661 26.3419C167.349 24.2125 166.701 22.1385 165.705 20.2266L167.641 17.7083L163.805 12.9355L161.497 14.9909C159.925 13.6993 158.181 12.8012 156.373 12.2827L156.205 8.90797L150.578 8.67188L150.197 12.0235C148.357 12.3846 146.566 13.1345 144.914 14.2872L142.738 12.042L138.614 16.4815L140.39 19.1526L140.393 19.1665ZM158.333 23.2912C161.201 26.8604 161.025 32.4434 157.941 35.7626C154.857 39.0818 150.034 38.8781 147.166 35.3089C144.298 31.7397 144.473 26.1568 147.557 22.8376C150.641 19.5183 155.465 19.722 158.333 23.2912Z" fill="#E0E0E0"/>
<path d="M98.3564 131.073C97.5444 132.499 97.0004 134.068 96.7124 135.689L94.4844 135.929V140.92L96.7124 141.16C97.0044 142.776 97.5484 144.345 98.3564 145.776L96.9324 147.762L99.9804 151.289L101.696 149.646C102.932 150.586 104.284 151.215 105.684 151.549L105.892 154.127H110.204L110.412 151.549C111.808 151.211 113.164 150.581 114.4 149.646L116.116 151.289L119.164 147.762L117.744 145.776C118.556 144.345 119.1 142.781 119.388 141.16L121.616 140.92V135.929L119.388 135.689C119.096 134.073 118.552 132.504 117.744 131.073L119.168 129.087L116.12 125.56L114.404 127.208C113.168 126.268 111.816 125.638 110.416 125.305L110.208 122.727H105.896L105.688 125.305C104.292 125.643 102.936 126.273 101.7 127.208L99.9844 125.56L96.9364 129.087L98.3604 131.073H98.3564ZM112.18 133.647C114.46 136.286 114.46 140.563 112.18 143.202C109.9 145.841 106.204 145.841 103.924 143.202C101.644 140.563 101.644 136.286 103.924 133.647C106.204 131.008 109.9 131.008 112.18 133.647Z" fill="#E0E0E0"/>
<path d="M106.832 21.8969C106.276 22.8737 105.904 23.9477 105.704 25.0587L104.18 25.2254V28.6464L105.704 28.8131C105.904 29.9195 106.276 30.9981 106.832 31.9749L105.856 33.3359L107.944 35.7524L109.12 34.6229C109.964 35.2663 110.892 35.6969 111.852 35.9283L111.996 37.6921H114.952L115.096 35.9283C116.052 35.6969 116.984 35.2663 117.828 34.6229L119.004 35.7524L121.092 33.3359L120.116 31.9749C120.672 30.9981 121.044 29.9241 121.244 28.8131L122.768 28.6464V25.2254L121.244 25.0587C121.044 23.9523 120.672 22.8737 120.116 21.8969L121.092 20.5359L119.004 18.1194L117.828 19.2489C116.984 18.6054 116.052 18.1749 115.096 17.9435L114.952 16.1797H111.996L111.852 17.9435C110.896 18.1749 109.964 18.6054 109.12 19.2489L107.944 18.1194L105.856 20.5359L106.832 21.8969ZM116.304 23.6606C117.864 25.4661 117.864 28.4011 116.304 30.2065C114.744 32.0119 112.208 32.0119 110.648 30.2065C109.088 28.4011 109.088 25.4707 110.648 23.6606C112.208 21.8552 114.74 21.8552 116.304 23.6606Z" fill="#F5F5F5"/>
<path d="M251.204 18.9482L202.125 16.6172L200.683 57.2792L249.762 59.6102L251.204 18.9482Z" fill="#E0E0E0"/>
<path d="M249.226 20.4456L203.984 18.2969L202.655 55.7812L247.897 57.93L249.226 20.4456Z" fill="#F5F5F5"/>
<path d="M202.656 55.7915L202.856 50.1391C205.852 44.6673 213.092 37.2604 215.444 37.2511C219.348 37.2373 225.136 45.658 225.136 45.658C225.136 45.658 235.828 33.506 238.452 32.9922C242.628 32.1682 248.372 44.658 248.372 44.658L247.9 57.9441L202.656 55.7915Z" fill="#EBEBEB"/>
<path d="M229.193 31.5195C228.921 34.0471 226.933 35.8433 224.745 35.5285C222.561 35.2137 221.009 32.913 221.281 30.3807C221.553 27.8531 223.541 26.0569 225.729 26.3717C227.913 26.6865 229.465 28.9919 229.193 31.5195Z" fill="#EBEBEB"/>
<path d="M267.131 94.715L238.031 100.375L241.532 124.484L270.632 118.824L267.131 94.715Z" fill="#E0E0E0"/>
<path d="M266.132 95.8835L239.305 101.102L242.533 123.33L269.36 118.112L266.132 95.8835Z" fill="#FAFAFA"/>
<path d="M242.535 123.329L242.047 119.977C243.223 116.334 246.687 110.941 248.067 110.598C250.363 110.029 254.663 114.149 254.663 114.149C254.663 114.149 259.651 105.474 261.135 104.793C263.503 103.71 268.215 110.233 268.215 110.233L269.359 118.112L242.531 123.329H242.535Z" fill="#EBEBEB"/>
<path d="M255.531 105.256C255.643 106.779 254.663 108.122 253.347 108.252C252.031 108.381 250.871 107.247 250.759 105.724C250.647 104.201 251.627 102.858 252.943 102.729C254.259 102.599 255.419 103.733 255.531 105.256Z" fill="#EBEBEB"/>
<path d="M71.634 123.486L47.1719 127.672L49.7606 147.936L74.2227 143.751L71.634 123.486Z" fill="#E0E0E0"/>
<path d="M70.7852 124.438L48.2344 128.297L50.6213 146.981L73.1721 143.123L70.7852 124.438Z" fill="#FAFAFA"/>
<path d="M50.6256 146.977L50.2656 144.157C51.3016 141.125 54.2816 136.676 55.4456 136.412C57.3776 135.982 60.9216 139.514 60.9216 139.514C60.9216 139.514 65.2216 132.343 66.4776 131.802C68.4776 130.941 72.3336 136.491 72.3336 136.491L73.1816 143.111L50.6336 146.972L50.6256 146.977Z" fill="#EBEBEB"/>
<path d="M61.7739 132.078C61.8459 133.355 61.0059 134.462 59.9019 134.545C58.7979 134.628 57.8419 133.656 57.7699 132.379C57.6979 131.101 58.5379 129.995 59.6419 129.911C60.7459 129.828 61.7019 130.8 61.7739 132.078Z" fill="#EBEBEB"/>
<path d="M255.324 47.6302C254.904 48.3663 254.624 49.1764 254.476 50.0143L253.328 50.1393V52.7178L254.476 52.8428C254.624 53.6761 254.908 54.4862 255.324 55.2269L254.588 56.2546L256.164 58.0785L257.052 57.2268C257.688 57.7128 258.388 58.0369 259.112 58.2082L259.22 59.5368H261.448L261.556 58.2082C262.276 58.0369 262.976 57.7082 263.616 57.2268L264.504 58.0785L266.08 56.2546L265.344 55.2269C265.764 54.4908 266.044 53.6807 266.192 52.8428L267.34 52.7178V50.1393L266.192 50.0143C266.044 49.181 265.76 48.3709 265.344 47.6302L266.08 46.6025L264.504 44.7785L263.616 45.6303C262.98 45.1443 262.28 44.8202 261.556 44.6489L261.448 43.3203H259.22L259.112 44.6489C258.392 44.8202 257.692 45.1489 257.052 45.6303L256.164 44.7785L254.588 46.6025L255.324 47.6302ZM262.46 48.9588C263.636 50.3198 263.636 52.528 262.46 53.889C261.284 55.25 259.376 55.25 258.196 53.889C257.02 52.528 257.02 50.3198 258.196 48.9542C259.372 47.5932 261.28 47.5932 262.456 48.9542L262.46 48.9588Z" fill="#F5F5F5"/>
<path d="M216.459 73.3502C215.747 74.6001 215.271 75.975 215.015 77.3962L213.062 77.6091V81.9838L215.015 82.1968C215.271 83.6134 215.747 84.9883 216.459 86.2428L215.211 87.9834L217.883 91.0758L219.386 89.6315C220.466 90.4555 221.655 91.0064 222.883 91.3026L223.067 93.5617H226.847L227.031 91.3026C228.255 91.0064 229.443 90.4555 230.527 89.6315L232.031 91.0758L234.703 87.9834L233.455 86.2428C234.163 84.9929 234.643 83.618 234.895 82.1968L236.847 81.9838V77.6091L234.895 77.3962C234.639 75.9796 234.163 74.6047 233.451 73.3502L234.699 71.6096L232.027 68.5172L230.523 69.9615C229.443 69.1375 228.255 68.5866 227.027 68.2904L226.843 66.0312H223.062L222.879 68.2904C221.655 68.5866 220.467 69.1375 219.383 69.9615L217.879 68.5172L215.207 71.6096L216.455 73.3502H216.459ZM228.575 75.6093C230.571 77.9239 230.571 81.6691 228.575 83.9837C226.575 86.2984 223.339 86.2937 221.339 83.9837C219.339 81.6691 219.343 77.9239 221.339 75.6093C223.339 73.2993 226.575 73.2993 228.575 75.6093Z" fill="#F5F5F5"/>
<path d="M36.6835 73.7708C36.2635 74.5069 35.9835 75.317 35.8355 76.1549L34.6875 76.2799V78.8584L35.8355 78.9834C35.9835 79.8167 36.2675 80.6268 36.6835 81.3675L35.9475 82.3952L37.5235 84.2192L38.4115 83.3674C39.0475 83.8535 39.7475 84.1775 40.4715 84.3488L40.5795 85.6774H42.8075L42.9155 84.3488C43.6355 84.1775 44.3355 83.8488 44.9755 83.3674L45.8635 84.2192L47.4395 82.3952L46.7035 81.3675C47.1235 80.6315 47.4035 79.8213 47.5515 78.9834L48.6995 78.8584V76.2799L47.5515 76.1549C47.4035 75.3216 47.1195 74.5115 46.7035 73.7708L47.4395 72.7431L45.8635 70.9192L44.9755 71.771C44.3395 71.2849 43.6395 70.9608 42.9155 70.7896L42.8075 69.4609H40.5795L40.4715 70.7896C39.7515 70.9608 39.0515 71.2895 38.4115 71.771L37.5235 70.9192L35.9475 72.7431L36.6835 73.7708ZM43.8195 75.0994C44.9955 76.4605 44.9955 78.6686 43.8195 80.0343C42.6435 81.3953 40.7355 81.3953 39.5555 80.0343C38.3795 78.6733 38.3795 76.4651 39.5555 75.0994C40.7315 73.7384 42.6395 73.7384 43.8155 75.0994H43.8195Z" fill="#E0E0E0"/>
<path d="M122.461 5.35148C121.941 6.26808 121.593 7.27264 121.405 8.30961L119.977 8.46701V11.6659L121.405 11.8233C121.589 12.8602 121.941 13.8648 122.461 14.7814L121.549 16.0544L123.501 18.3135L124.601 17.2581C125.393 17.8599 126.261 18.2626 127.157 18.4802L127.293 20.1329H130.057L130.193 18.4802C131.089 18.2626 131.957 17.8599 132.749 17.2581L133.849 18.3135L135.801 16.0544L134.889 14.7814C135.409 13.8648 135.757 12.8602 135.945 11.8233L137.373 11.6659V8.46701L135.945 8.30961C135.761 7.27264 135.409 6.26808 134.889 5.35148L135.801 4.07842L133.849 1.81932L132.749 2.8748C131.957 2.27299 131.089 1.87024 130.193 1.65266L130.057 0H127.293L127.157 1.65266C126.261 1.87024 125.393 2.27299 124.601 2.8748L123.501 1.81932L121.549 4.07842L122.461 5.35148ZM131.321 6.99951C132.781 8.68921 132.781 11.4298 131.321 13.1195C129.861 14.8092 127.493 14.8092 126.033 13.1195C124.573 11.4298 124.573 8.68921 126.033 6.99951C127.493 5.30982 129.861 5.30982 131.321 6.99951Z" fill="#E0E0E0"/>
<path d="M275.842 197.166C275.842 198.735 221.314 200.004 154.054 200.004C86.7936 200.004 32.2656 198.731 32.2656 197.166C32.2656 195.601 86.7936 194.328 154.054 194.328C221.314 194.328 275.842 195.601 275.842 197.166Z" fill="#F5F5F5"/>
<path d="M214.759 24.9531H91.9071C88.4807 24.9531 85.7031 28.1677 85.7031 32.1332V128.395C85.7031 132.36 88.4807 135.575 91.9071 135.575H214.759C218.185 135.575 220.963 132.36 220.963 128.395V32.1332C220.963 28.1677 218.185 24.9531 214.759 24.9531Z" fill="#407BFF"/>
<path opacity="0.8" d="M214.759 24.9844H91.9071C88.4807 24.9844 85.7031 28.199 85.7031 32.1644V128.426C85.7031 132.392 88.4807 135.606 91.9071 135.606H214.759C218.185 135.606 220.963 132.392 220.963 128.426V32.1644C220.963 28.199 218.185 24.9844 214.759 24.9844Z" fill="white"/>
<path d="M91.9791 24.9531H214.791C218.195 24.9531 220.959 28.152 220.959 32.0915V38.8688H85.7031V32.2211C85.7031 28.2122 88.5151 24.9531 91.9831 24.9531H91.9791Z" fill="#407BFF"/>
<path d="M94.521 34.4276C95.5681 34.4276 96.417 33.4452 96.417 32.2334C96.417 31.0215 95.5681 30.0391 94.521 30.0391C93.4739 30.0391 92.625 31.0215 92.625 32.2334C92.625 33.4452 93.4739 34.4276 94.521 34.4276Z" fill="white"/>
<path d="M99.0991 34.4276C100.146 34.4276 100.995 33.4452 100.995 32.2334C100.995 31.0215 100.146 30.0391 99.0991 30.0391C98.052 30.0391 97.2031 31.0215 97.2031 32.2334C97.2031 33.4452 98.052 34.4276 99.0991 34.4276Z" fill="white"/>
<path d="M105.714 32.2334C105.714 33.4462 104.866 34.4276 103.818 34.4276C102.77 34.4276 101.922 33.4462 101.922 32.2334C101.922 31.0205 102.77 30.0391 103.818 30.0391C104.866 30.0391 105.714 31.0205 105.714 32.2334Z" fill="white"/>
<path d="M140.321 45.6172H97.6649C96.9093 45.6172 96.2969 46.326 96.2969 47.2004V89.841C96.2969 90.7154 96.9093 91.4242 97.6649 91.4242H140.321C141.076 91.4242 141.689 90.7154 141.689 89.841V47.2004C141.689 46.326 141.076 45.6172 140.321 45.6172Z" fill="#407BFF"/>
<path opacity="0.2" d="M96.2946 84.0572L108.047 70.697C109.143 69.4517 110.807 69.1647 112.167 69.9841L121.495 75.6087L129.791 65.1881C131.247 63.3596 133.691 63.1883 135.327 64.7993L141.691 71.0674V88.5245C141.499 90.1447 139.927 91.4224 138.979 91.4224H99.2026C95.4466 91.4224 96.1266 85.2191 96.3026 84.0526L96.2946 84.0572Z" fill="black"/>
<path opacity="0.2" d="M126.631 58.613C126.631 61.7471 124.487 64.2886 121.839 64.2886C119.191 64.2886 117.047 61.7471 117.047 58.613C117.047 55.479 119.191 52.9375 121.839 52.9375C124.487 52.9375 126.631 55.479 126.631 58.613Z" fill="black"/>
<path d="M141.687 97.5391H97.8594V101.543H141.687V97.5391Z" stroke="#407BFF" stroke-width="0.5" stroke-miterlimit="10"/>
<path d="M141.687 105.031H97.8594V109.036H141.687V105.031Z" stroke="#407BFF" stroke-width="0.5" stroke-miterlimit="10"/>
<path d="M141.687 112.375H97.8594V116.379H141.687V112.375Z" stroke="#407BFF" stroke-width="0.5" stroke-miterlimit="10"/>
<path d="M141.687 119.867H97.8594V123.872H141.687V119.867Z" stroke="#407BFF" stroke-width="0.5" stroke-miterlimit="10"/>
<path d="M180.33 47.8438H160.93C160.175 47.8438 159.562 48.5526 159.562 49.427V68.6016C159.562 69.476 160.175 70.1848 160.93 70.1848H180.33C181.086 70.1848 181.698 69.476 181.698 68.6016V49.427C181.698 48.5526 181.086 47.8438 180.33 47.8438Z" stroke="#407BFF" stroke-width="0.5" stroke-miterlimit="10"/>
<path d="M159.562 66.5917L165.294 60.0783C165.826 59.4718 166.638 59.333 167.302 59.7311L171.85 62.4763L175.894 57.3933C176.602 56.4998 177.794 56.4165 178.594 57.2035L181.698 60.2588V68.7721C181.606 69.5637 180.838 70.1841 180.378 70.1841H160.978C159.146 70.1841 159.478 67.1565 159.562 66.5917Z" stroke="#407BFF" stroke-width="0.5" stroke-miterlimit="10"/>
<path d="M173.297 54.1824C173.297 55.7101 172.249 56.9507 170.961 56.9507C169.673 56.9507 168.625 55.7101 168.625 54.1824C168.625 52.6547 169.673 51.4141 170.961 51.4141C172.249 51.4141 173.297 52.6547 173.297 54.1824Z" stroke="#407BFF" stroke-width="0.5" stroke-miterlimit="10"/>
<path d="M172.754 73.2891H160.422V76.3675H172.754V73.2891Z" stroke="#407BFF" stroke-width="0.5" stroke-miterlimit="10"/>
<path d="M182.49 80.9766H160.422V84.055H182.49V80.9766Z" stroke="#407BFF" stroke-width="0.5" stroke-miterlimit="10"/>
<path d="M182.49 86.7266H160.422V89.805H182.49V86.7266Z" stroke="#407BFF" stroke-width="0.5" stroke-miterlimit="10"/>
<path d="M173.286 92.75H160.422V95.8285H173.286V92.75Z" stroke="#407BFF" stroke-width="0.5" stroke-miterlimit="10"/>
<path d="M209.526 47.8438H190.126C189.37 47.8438 188.758 48.5526 188.758 49.427V68.6016C188.758 69.476 189.37 70.1848 190.126 70.1848H209.526C210.281 70.1848 210.894 69.476 210.894 68.6016V49.427C210.894 48.5526 210.281 47.8438 209.526 47.8438Z" stroke="#407BFF" stroke-width="0.5" stroke-miterlimit="10"/>
<path d="M188.758 66.5917L194.489 60.0783C195.021 59.4718 195.834 59.333 196.498 59.7311L201.046 62.4763L205.089 57.3933C205.797 56.4998 206.989 56.4165 207.789 57.2035L210.894 60.2588V68.7721C210.802 69.5637 210.034 70.1841 209.574 70.1841H190.174C188.342 70.1841 188.674 67.1565 188.758 66.5917Z" stroke="#407BFF" stroke-width="0.5" stroke-miterlimit="10"/>
<path d="M202.492 54.1824C202.492 55.7101 201.444 56.9507 200.156 56.9507C198.868 56.9507 197.82 55.7101 197.82 54.1824C197.82 52.6547 198.868 51.4141 200.156 51.4141C201.444 51.4141 202.492 52.6547 202.492 54.1824Z" stroke="#407BFF" stroke-width="0.5" stroke-miterlimit="10"/>
<path d="M201.941 73.2891H189.609V76.3675H201.941V73.2891Z" stroke="#407BFF" stroke-width="0.5" stroke-miterlimit="10"/>
<path d="M211.677 80.9766H189.609V84.055H211.677V80.9766Z" stroke="#407BFF" stroke-width="0.5" stroke-miterlimit="10"/>
<path d="M211.677 86.7266H189.609V89.805H211.677V86.7266Z" stroke="#407BFF" stroke-width="0.5" stroke-miterlimit="10"/>
<path d="M202.473 92.75H189.609V95.8285H202.473V92.75Z" stroke="#407BFF" stroke-width="0.5" stroke-miterlimit="10"/>
<path d="M211.679 104.469H159.047V107.482H211.679V104.469Z" stroke="#407BFF" stroke-width="0.5" stroke-miterlimit="10"/>
<path d="M211.679 109.602H159.047V126.165H211.679V109.602Z" stroke="#407BFF" stroke-width="0.5" stroke-miterlimit="10"/>
<path d="M176.14 133.609C170.556 141.169 168.928 152.353 172.06 161.617C175.54 158.024 177.992 152.543 178.144 147.752C178.296 142.961 177.216 138.243 176.14 133.609Z" fill="#407BFF"/>
<path d="M175.162 162.488C173.266 165.849 172.362 169.936 172.622 173.936C175.642 172.719 178.302 168.775 179.898 165.571C181.494 162.368 182.386 158.766 183.198 155.188C179.93 156.521 177.058 159.127 175.162 162.488Z" fill="#407BFF"/>
<path d="M174.427 146.797C172.187 156.13 171.039 165.805 171.047 175.49C171.047 178.249 171.147 181.003 171.331 183.753C171.347 183.975 171.647 183.975 171.631 183.753C170.979 174.092 171.463 164.338 173.083 154.829C173.539 152.158 174.083 149.515 174.715 146.894C174.767 146.677 174.479 146.589 174.427 146.802V146.797Z" fill="#263238"/>
<path d="M171.472 177.113C173.764 170.803 176.776 164.896 180.256 159.369C180.368 159.188 180.108 159.012 179.996 159.193C176.5 164.748 173.488 170.683 171.184 177.02C171.108 177.224 171.4 177.317 171.472 177.113Z" fill="#263238"/>
<path d="M168.184 167.72C169.764 170.521 170.52 173.933 170.3 177.266C167.784 176.252 165.564 172.961 164.236 170.29C162.904 167.618 162.164 164.614 161.484 161.633C164.212 162.744 166.604 164.92 168.184 167.72Z" fill="#407BFF"/>
<path d="M171.398 179.471C169.514 174.291 167.034 169.495 164.178 164.959C164.066 164.778 163.806 164.954 163.918 165.134C166.758 169.643 169.238 174.416 171.11 179.564C171.182 179.768 171.474 179.68 171.398 179.471Z" fill="#263238"/>
<path d="M171.475 181.228C175.027 177.001 178.651 172.853 182.203 168.627C182.339 168.465 182.127 168.219 181.991 168.381C178.439 172.608 174.815 176.756 171.263 180.982C171.127 181.144 171.339 181.39 171.475 181.228Z" fill="#263238"/>
<path d="M182.321 166.656C179.241 170.096 176.433 173.864 173.945 177.896H174.509C176.853 177.771 179.129 176.429 180.601 174.313C182.073 172.198 182.713 169.337 182.317 166.656H182.321Z" fill="#407BFF"/>
<path d="M167.71 158.476C169.034 160.981 170.278 163.536 171.446 166.142C171.534 166.341 171.794 166.166 171.706 165.966C170.538 163.36 169.29 160.805 167.97 158.3C167.87 158.111 167.61 158.286 167.71 158.476Z" fill="#263238"/>
<path d="M164.543 145.812C164.039 148.437 163.539 151.854 163.531 154.59C163.527 157.326 164.247 159.992 165.591 161.825C166.935 163.658 169.643 164.459 170.739 163.413L164.543 145.812Z" fill="#407BFF"/>
<path d="M177.929 182.422H164.469V185.311H177.929V182.422Z" fill="#263238"/>
<path d="M175.751 195.597H167.395L165.875 184.648H176.951L175.751 195.597Z" fill="#263238"/>
<path opacity="0.2" d="M165.977 185.367H176.877L176.741 186.603H166.149L165.977 185.367Z" fill="black"/>
<path d="M254.805 81.5922C257.933 77.5508 257.633 71.3383 254.141 67.7228C250.649 64.1027 245.281 64.4499 242.157 68.4913C239.745 71.6114 239.381 76.0231 240.941 79.5368L240.029 82.2912L242.721 82.2496C242.757 82.2866 242.785 82.3283 242.821 82.3653C246.313 85.9854 251.681 85.6382 254.805 81.5968V81.5922Z" fill="#407BFF"/>
<path d="M253.281 65.2734C255.749 66.7039 257.513 69.6481 257.801 72.8238" stroke="#407BFF" stroke-width="0.5" stroke-linecap="round" stroke-linejoin="round"/>
<path d="M257.88 74.2891C257.956 74.7705 257.944 75.2658 257.844 75.738" stroke="#407BFF" stroke-width="0.5" stroke-linecap="round" stroke-linejoin="round"/>
<path d="M248.31 79.2182L244.422 75.8666L245.43 74.2926L248.042 76.5425L251.626 71.5938L252.922 72.8529L248.31 79.2182Z" fill="white"/>
<path opacity="0.3" d="M178.539 40.9135C176.435 36.5665 171.711 35.1453 167.991 37.747C164.271 40.3487 162.963 45.9779 165.067 50.3295C165.087 50.3758 165.115 50.4128 165.135 50.4545L164.579 53.3061L166.875 52.8247C169.275 55.1069 172.739 55.5004 175.611 53.4959C179.331 50.8943 180.639 45.265 178.535 40.9135H178.539Z" fill="black"/>
<path d="M176.738 38.8978C178.842 43.2448 177.534 48.8786 173.814 51.4803C170.942 53.4894 167.478 53.0913 165.078 50.809L162.782 51.2905L163.338 48.4388C163.318 48.3972 163.29 48.3555 163.27 48.3139C161.166 43.9669 162.474 38.3331 166.194 35.7314C169.914 33.1297 174.638 34.5509 176.742 38.8978H176.738Z" fill="white"/>
<path d="M168.105 43.4053C168.105 44.0673 167.625 44.5997 167.037 44.5997C166.449 44.5997 165.969 44.0627 165.969 43.4053C165.969 42.7479 166.449 42.2109 167.037 42.2109C167.625 42.2109 168.105 42.7479 168.105 43.4053Z" fill="#407BFF"/>
<path d="M171.378 43.4053C171.378 44.0673 170.898 44.5997 170.31 44.5997C169.722 44.5997 169.242 44.0627 169.242 43.4053C169.242 42.7479 169.722 42.2109 170.31 42.2109C170.898 42.2109 171.378 42.7479 171.378 43.4053Z" fill="#407BFF"/>
<path d="M174.652 43.4053C174.652 44.0673 174.172 44.5997 173.584 44.5997C172.996 44.5997 172.516 44.0627 172.516 43.4053C172.516 42.7479 172.996 42.2109 173.584 42.2109C174.172 42.2109 174.652 42.7479 174.652 43.4053Z" fill="#407BFF"/>
<path d="M54.7422 59.2422C55.0222 59.4875 60.8382 66.2973 60.8382 66.2973V59.2422H54.7422Z" fill="#407BFF"/>
<path opacity="0.8" d="M54.7422 59.2422C55.0222 59.4875 60.8382 66.2973 60.8382 66.2973V59.2422H54.7422Z" fill="white"/>
<path d="M74.5608 16.6719H40.0208C38.4258 16.6719 37.1328 18.1683 37.1328 20.0142V56.7247C37.1328 58.5706 38.4258 60.067 40.0208 60.067H74.5608C76.1558 60.067 77.4488 58.5706 77.4488 56.7247V20.0142C77.4488 18.1683 76.1558 16.6719 74.5608 16.6719Z" fill="#407BFF"/>
<path opacity="0.8" d="M74.5608 16.6719H40.0208C38.4258 16.6719 37.1328 18.1683 37.1328 20.0142V56.7247C37.1328 58.5706 38.4258 60.067 40.0208 60.067H74.5608C76.1558 60.067 77.4488 58.5706 77.4488 56.7247V20.0142C77.4488 18.1683 76.1558 16.6719 74.5608 16.6719Z" fill="white"/>
<path d="M56.5187 22.0813C57.1867 21.2804 59.7387 22.8822 62.2227 25.6597C64.7067 28.4327 66.1787 31.3307 65.5147 32.1315C64.8467 32.9324 62.2947 31.3307 59.8107 28.5531C57.3267 25.7801 55.8547 22.8822 56.5187 22.0813Z" fill="#263238"/>
<path d="M59.8129 28.5577C57.3289 25.7848 55.857 22.8868 56.521 22.0859L48.6609 31.5251C47.9929 32.3213 49.4649 35.2193 51.9529 37.9969C54.4409 40.7745 56.9889 42.3855 57.6369 41.5707L65.5009 32.1362C64.8489 32.9324 62.2969 31.3307 59.8129 28.5577Z" fill="#407BFF"/>
<path opacity="0.6" d="M59.8129 28.5577C57.3289 25.7848 55.857 22.8868 56.521 22.0859L48.6609 31.5251C47.9929 32.3213 49.4649 35.2193 51.9529 37.9969C54.4409 40.7745 56.9889 42.3855 57.6369 41.5707L65.5009 32.1362C64.8489 32.9324 62.2969 31.3307 59.8129 28.5577Z" fill="white"/>
<path d="M71.0412 29.0094C69.5612 32.0879 67.2892 32.9813 64.6852 32.3008H64.6652C63.5452 32.037 61.6612 30.625 59.8092 28.5603C58.8612 27.5188 58.0172 26.3614 57.2812 25.1115C57.3492 24.0468 58.5933 23.1672 59.6893 23.0422C61.1333 22.8756 62.9972 23.2228 64.8252 26.1531C67.0173 29.6714 69.3172 29.0788 69.6492 27.778C70.2252 25.4957 72.3732 26.2411 71.0372 29.0094H71.0412Z" fill="#407BFF"/>
<path d="M68.9574 26.8507C69.0414 25.897 68.3414 25.5221 68.3934 26.4433C68.4454 27.3645 68.8974 27.5404 68.9574 26.8507Z" fill="#407BFF"/>
<path d="M70.6223 31.4553C71.2303 31.2469 71.2223 30.5664 70.6783 30.8766C70.1343 31.1868 70.1823 31.5988 70.6223 31.4553Z" fill="#407BFF"/>
<path d="M46.236 45.2711C44.8 46.9006 44.82 49.618 46.28 51.3401C47.74 53.0622 50.088 53.1317 51.524 51.5021C52.96 49.8726 52.94 47.1552 51.48 45.4331C50.02 43.711 47.672 43.6416 46.236 45.2711Z" fill="#407BFF"/>
<path opacity="0.6" d="M55.3141 45.7242C53.8781 47.3537 53.8981 50.0711 55.3581 51.7932C56.8181 53.5153 59.1661 53.5848 60.6021 51.9553C62.0381 50.3258 62.0181 47.6083 60.5581 45.8862C59.0981 44.1641 56.7501 44.0947 55.3141 45.7242Z" fill="#407BFF"/>
<path opacity="0.2" d="M66.9736 53.1338C68.9336 53.2357 70.5896 51.4765 70.6776 49.2128C70.6776 49.1434 70.6776 49.0693 70.6776 48.9998C70.6616 46.6111 69.0336 44.6576 66.9696 44.5511C65.0096 44.4492 63.3536 46.2084 63.2656 48.4721C63.2656 48.5415 63.2656 48.6156 63.2656 48.6851C63.2816 51.0738 64.9096 53.0273 66.9736 53.1338Z" fill="#407BFF"/>
<path d="M48.8804 53.4721C51.3082 53.4721 53.2764 51.1943 53.2764 48.3845C53.2764 45.5747 51.3082 43.2969 48.8804 43.2969C46.4525 43.2969 44.4844 45.5747 44.4844 48.3845C44.4844 51.1943 46.4525 53.4721 48.8804 53.4721Z" stroke="#407BFF" stroke-width="0.5" stroke-miterlimit="10"/>
<path d="M214.774 156.227H255.45C256.206 156.227 256.818 156.935 256.818 157.81V193.34C256.818 194.761 255.822 195.914 254.594 195.914H214.774C214.018 195.914 213.406 195.205 213.406 194.33V157.81C213.406 156.935 214.018 156.227 214.774 156.227Z" fill="#407BFF"/>
<path opacity="0.7" d="M227.438 176.067V167.762C227.438 166.925 228.222 166.401 228.85 166.818L235.066 170.971L241.281 175.123C241.909 175.544 241.909 176.591 241.281 177.007L235.066 181.16L228.85 185.312C228.222 185.733 227.438 185.206 227.438 184.368V176.063V176.067Z" fill="white"/>
<path opacity="0.3" d="M248.961 156.219H255.513C256.233 156.219 256.821 156.895 256.821 157.733V193.374C256.821 194.776 255.837 195.91 254.629 195.91H248.961V156.219Z" fill="black"/>
<path opacity="0.3" d="M223.372 192.737C223.372 192.737 225.276 191.774 225.244 191.909C225.212 192.047 222.28 177.132 221.236 171.665C220.192 166.197 218.312 158.684 218.312 158.684L233.496 156.277C233.496 156.277 210.652 154.013 211.044 154.356C211.328 154.601 215.484 179.34 218.972 190.399C220.328 194.7 223.372 192.733 223.372 192.733V192.737Z" fill="black"/>
<path d="M200.959 171.004L196.543 180.35L192.688 179.026L196.191 168.18L200.959 171.004Z" fill="#E9B376"/>
<path d="M195.561 185.388L192.805 184.707C192.805 184.707 192.649 184.055 192.065 183.893C191.737 183.8 190.873 184.138 190.873 184.138L183.281 182.337C183.281 182.337 183.385 181.735 183.517 181.495C183.677 181.203 183.841 180.962 184.013 180.763C184.613 180.078 185.533 179.939 186.213 179.865C187.357 179.74 190.657 178.726 190.657 178.726C190.657 178.726 191.513 178.37 192.221 177.25C192.617 176.625 193.141 176.31 193.477 176.338C194.165 176.398 194.453 176.944 194.417 177.689L194.373 178.555C194.801 179.138 195.481 179.277 196.101 178.842C196.101 178.842 197.697 178.212 197.469 179.023C197.337 179.486 196.685 181.522 196.209 183.152C196.097 183.532 195.993 183.893 195.901 184.207C195.697 184.906 195.557 185.388 195.557 185.388H195.561Z" fill="#263238"/>
<path d="M188.894 179.196C188.934 179.168 188.986 179.177 189.022 179.214C189.178 179.39 189.298 179.608 189.358 179.862C189.39 179.997 189.206 180.075 189.17 179.937C189.114 179.71 189.014 179.515 188.874 179.362C188.83 179.312 188.834 179.228 188.89 179.191L188.894 179.196Z" fill="#407BFF"/>
<path d="M189.542 178.969C189.582 178.941 189.634 178.951 189.67 178.988C189.826 179.164 189.946 179.381 190.006 179.636C190.038 179.77 189.854 179.849 189.818 179.71C189.762 179.483 189.662 179.289 189.522 179.136C189.478 179.085 189.482 179.002 189.538 178.965L189.542 178.969Z" fill="#407BFF"/>
<path d="M190.206 178.774C190.246 178.746 190.298 178.755 190.334 178.792C190.49 178.968 190.61 179.186 190.67 179.441C190.702 179.575 190.518 179.654 190.482 179.515C190.426 179.288 190.326 179.093 190.186 178.941C190.142 178.89 190.146 178.806 190.202 178.769L190.206 178.774Z" fill="#407BFF"/>
<path opacity="0.2" d="M192.065 183.893C191.737 183.801 190.873 184.139 190.873 184.139L183.281 182.338C183.281 182.338 183.385 181.736 183.517 181.495C183.589 181.361 183.665 181.241 183.741 181.125L195.957 184.028C195.941 184.083 195.921 184.148 195.905 184.203C195.701 184.903 195.561 185.384 195.561 185.384L192.805 184.703C192.805 184.703 192.649 184.051 192.065 183.889V183.893Z" fill="white"/>
<path d="M190.256 178.889C190.332 178.588 190.412 178.287 190.44 177.977C190.472 177.667 190.452 177.343 190.344 177.056C190.292 176.921 190.208 176.787 190.084 176.769C189.952 176.745 189.836 176.861 189.764 176.995C189.632 177.245 189.612 177.56 189.676 177.847C189.74 178.13 190.096 178.662 190.256 178.889Z" stroke="#407BFF" stroke-width="0.25" stroke-miterlimit="10"/>
<path d="M190.289 178.896C190.441 178.642 190.597 178.383 190.789 178.16C190.977 177.938 191.209 177.753 191.469 177.674C191.589 177.637 191.733 177.628 191.825 177.73C191.921 177.836 191.917 178.017 191.873 178.16C191.789 178.438 191.585 178.651 191.357 178.771C191.125 178.892 190.545 178.906 190.293 178.901" stroke="#407BFF" stroke-width="0.25" stroke-miterlimit="10"/>
<path d="M219.208 177.859L221.224 188.252L217.576 190.201L214.016 179.378L219.208 177.859Z" fill="#E9B376"/>
<path d="M223.362 192.783L220.906 194.38C220.906 194.38 220.414 194.009 219.886 194.333C219.59 194.514 219.13 195.431 219.13 195.431L212.402 199.879C212.402 199.879 212.138 199.347 212.098 199.065C212.05 198.722 212.038 198.416 212.054 198.139C212.114 197.167 212.726 196.361 213.194 195.782C213.982 194.815 215.882 191.533 215.882 191.533C215.882 191.533 216.322 190.611 216.214 189.227C216.154 188.454 216.366 187.82 216.638 187.584C217.19 187.102 217.718 187.297 218.118 187.88L218.578 188.561C219.234 188.672 219.822 188.255 220.038 187.454C220.038 187.454 220.878 185.76 221.166 186.542C221.33 186.991 222.006 189.019 222.578 190.602C222.71 190.973 222.838 191.32 222.95 191.63C223.198 192.31 223.366 192.778 223.366 192.778L223.362 192.783Z" fill="#263238"/>
<path d="M214.821 193.232C214.837 193.181 214.881 193.148 214.929 193.148C215.145 193.158 215.361 193.236 215.553 193.38C215.653 193.454 215.557 193.658 215.457 193.579C215.285 193.449 215.098 193.385 214.91 193.375C214.846 193.375 214.805 193.306 214.825 193.236L214.821 193.232Z" fill="#407BFF"/>
<path d="M215.173 192.568C215.189 192.517 215.233 192.484 215.281 192.484C215.497 192.494 215.713 192.568 215.905 192.716C216.005 192.79 215.909 192.994 215.809 192.915C215.637 192.785 215.449 192.72 215.261 192.711C215.197 192.711 215.157 192.642 215.177 192.572L215.173 192.568Z" fill="#407BFF"/>
<path d="M215.564 191.911C215.58 191.861 215.624 191.828 215.672 191.828C215.888 191.837 216.104 191.911 216.296 192.06C216.396 192.134 216.3 192.337 216.2 192.259C216.028 192.129 215.84 192.064 215.652 192.055C215.588 192.055 215.548 191.986 215.568 191.916L215.564 191.911Z" fill="#407BFF"/>
<path opacity="0.2" d="M219.887 194.336C219.591 194.516 219.131 195.433 219.131 195.433L212.403 199.882C212.403 199.882 212.139 199.349 212.099 199.067C212.079 198.91 212.063 198.761 212.055 198.618L222.887 191.461C222.907 191.516 222.931 191.577 222.947 191.632C223.195 192.313 223.363 192.78 223.363 192.78L220.907 194.377C220.907 194.377 220.415 194.007 219.887 194.331V194.336Z" fill="white"/>
<path d="M215.674 191.964C215.562 191.682 215.446 191.395 215.294 191.14C215.138 190.885 214.942 190.654 214.698 190.524C214.586 190.464 214.442 190.427 214.338 190.506C214.226 190.589 214.206 190.77 214.226 190.918C214.266 191.209 214.434 191.459 214.646 191.626C214.854 191.793 215.426 191.918 215.678 191.969" stroke="#407BFF" stroke-width="0.25" stroke-miterlimit="10"/>
<path d="M215.701 191.934C215.669 191.624 215.637 191.313 215.653 190.999C215.669 190.688 215.737 190.374 215.885 190.114C215.953 189.994 216.057 189.878 216.185 189.883C216.317 189.888 216.417 190.026 216.465 190.17C216.561 190.443 216.529 190.758 216.425 191.026C216.321 191.295 215.889 191.749 215.697 191.938" stroke="#407BFF" stroke-width="0.25" stroke-miterlimit="10"/>
<path d="M204.971 151.077C205.115 152.744 205.427 155.022 205.803 156.637C206.823 161.202 207.987 165.595 209.455 170.127C212.291 179.085 214.579 187.399 214.579 187.399L221.775 184.899C221.775 184.899 217.015 158.98 213.807 156.327H233.487C233.855 156.327 234.223 156.299 234.587 156.239C231.199 155.73 225.915 153.313 221.015 150.897C216.683 148.754 212.635 146.615 210.439 145.805C207.751 147.133 204.763 148.462 204.971 151.073V151.077Z" fill="#263238"/>
<path opacity="0.6" d="M210.438 145.832C212.638 146.656 216.686 148.781 221.014 150.924C225.914 153.341 231.197 155.757 234.585 156.266C240.297 155.387 242.441 147.508 236.473 138.43C232.597 138.43 228.701 142.712 228.701 142.712C228.701 142.712 216.986 142.642 210.438 145.832Z" fill="black"/>
<path d="M194.41 173.726L199.17 177.059C199.17 177.059 203.142 167.407 206.938 156.523C206.562 154.907 206.302 153.255 206.154 151.593C205.946 148.982 207.742 147.139 210.426 145.839C212.626 146.663 216.674 148.788 221.002 150.931C225.902 153.347 231.186 155.764 234.574 156.273C234.962 156.333 235.354 156.366 235.746 156.37C242.262 156.37 244.506 149.76 241.878 138.552C238.002 138.552 231.366 138.071 231.366 138.071C231.366 138.071 218.558 134.511 209.342 135.719C204.854 136.33 201.222 140.228 200.354 145.357C197.978 158.967 194.406 173.726 194.406 173.726H194.41Z" fill="#263238"/>
<path d="M193.66 174.136L199.172 177.067C199.172 177.067 203.144 167.414 206.94 156.531C206.564 154.915 206.304 153.263 206.156 151.601C205.948 148.99 207.744 147.147 210.428 145.846C212.628 146.67 216.676 148.795 221.004 150.939C225.904 153.355 231.188 155.772 234.576 156.281C234.964 156.341 235.356 156.374 235.748 156.378C242.264 156.378 244.508 149.767 241.88 138.56C238.004 138.56 231.368 138.078 231.368 138.078C231.368 138.078 218.56 134.519 209.344 135.727C204.856 136.338 201.224 140.236 200.356 145.365C197.98 158.975 193.656 174.141 193.656 174.141L193.66 174.136Z" fill="#263238"/>
<path opacity="0.2" d="M204.971 151.077C205.115 152.744 205.427 155.022 205.803 156.637C206.823 161.202 207.987 165.595 209.455 170.127C212.291 179.085 214.579 187.399 214.579 187.399L221.775 184.899C221.775 184.899 217.015 158.98 213.807 156.327H233.487C233.855 156.327 234.223 156.299 234.587 156.239C231.199 155.73 225.915 153.313 221.015 150.897C216.683 148.754 212.635 146.615 210.439 145.805C207.751 147.133 204.763 148.462 204.971 151.073V151.077Z" fill="black"/>
<path d="M227.25 103.321L229.438 101.266L235.666 100.789C235.666 100.789 237.226 102.275 237.302 102.289C237.378 102.303 238.29 102.724 238.29 102.724L237.674 104.483L227.254 103.321H227.25Z" fill="#407BFF"/>
<path d="M221.3 113.68C221.3 113.68 218.036 125.582 217.72 126.235C216.648 128.452 209.548 132.253 209.548 132.253L205.928 131.373L203.336 133.882L205.048 135.433L207.056 134.553C208.152 134.78 209.26 134.891 210.372 134.891C212.24 134.891 221.26 132.248 222.764 129.336C224.268 126.424 224.96 112.953 224.96 112.953L221.3 113.68Z" fill="#E9B376"/>
<path d="M242.361 140.834L220.633 137.042C220.957 120.738 224.177 103.674 224.177 103.674C230.445 102.855 236.769 102.818 243.041 103.568C240.129 114.021 242.365 140.834 242.365 140.834H242.361Z" fill="#407BFF"/>
<path opacity="0.6" d="M240.505 140.537L220.625 137.042C220.949 120.738 224.169 103.674 224.169 103.674C230.437 102.855 236.761 102.818 243.033 103.568C240.121 114.021 240.505 140.537 240.505 140.537Z" fill="white"/>
<path d="M243.042 103.567C241.862 115.385 244.922 140.536 244.922 140.536C243.542 143.957 239.87 144.596 235.522 144.416C231.626 124.968 237.206 102.289 237.206 102.289L243.042 103.562V103.567Z" fill="#407BFF"/>
<path d="M224.179 103.656C221.287 112.489 219.547 136.765 219.547 136.765L221.275 137.246C223.531 107.947 228.339 102.633 228.339 102.633L224.179 103.661V103.656Z" fill="#407BFF"/>
<path d="M226.166 113.979L226.37 110.622C226.378 110.428 226.502 110.285 226.642 110.289L233.758 110.553C233.758 110.553 233.762 110.553 233.766 110.553C233.914 110.562 234.026 110.738 234.018 110.937L233.87 114.395L233.722 117.867C233.722 117.867 233.722 117.867 233.722 117.872C233.714 118.071 233.59 118.219 233.442 118.21L226.222 117.622C226.074 117.608 225.958 117.432 225.97 117.229L226.166 113.979Z" fill="#407BFF"/>
<path opacity="0.4" d="M226.166 113.979L226.37 110.622C226.378 110.428 226.502 110.285 226.642 110.289L233.758 110.553C233.758 110.553 233.762 110.553 233.766 110.553C233.914 110.562 234.026 110.738 234.018 110.937L233.87 114.395L233.722 117.867C233.722 117.867 233.722 117.867 233.722 117.872C233.714 118.071 233.59 118.219 233.442 118.21L226.222 117.622C226.074 117.608 225.958 117.432 225.97 117.229L226.166 113.979Z" fill="white"/>
<path opacity="0.2" d="M226.166 113.98C227.394 114.327 229.586 114.92 229.63 114.735C229.69 114.471 229.658 113.406 229.79 113.1C229.926 112.795 231.126 115.924 231.53 115.471C231.934 115.017 231.558 111.67 232.346 111.633C232.778 111.614 233.402 113.077 233.87 114.392L233.722 117.864C233.722 117.864 233.722 117.864 233.722 117.869C233.714 118.068 233.59 118.216 233.442 118.207L226.222 117.619C226.074 117.605 225.958 117.429 225.97 117.225L226.166 113.975V113.98Z" fill="#263238"/>
<path d="M216.266 120.038L220.63 121.455H220.982L222.518 112.192L224.174 103.688C220.046 104.336 216.266 120.034 216.266 120.034V120.038Z" fill="#407BFF"/>
<path d="M235.648 100.828L236.04 108.304L237.3 102.286L235.648 100.828Z" fill="#407BFF"/>
<path d="M214.786 135.75H228.262C228.262 135.75 228.262 135.75 228.262 135.755C228.262 136.352 227.686 136.829 226.978 136.829H216.082C216.082 136.829 216.07 136.829 216.062 136.829H205.026C204.326 136.824 203.762 136.343 203.766 135.75H214.786Z" fill="#263238"/>
<path d="M204.825 136.765H217.137C217.349 136.765 217.521 136.603 217.517 136.404C217.517 136.367 217.509 136.33 217.497 136.293L212.021 121.762C211.881 121.345 211.469 121.062 211.001 121.062H198.681C198.473 121.062 198.305 121.22 198.305 121.414C198.305 121.456 198.313 121.493 198.329 121.535L203.805 136.066C203.945 136.478 204.357 136.76 204.825 136.765Z" fill="#263238"/>
<path opacity="0.7" d="M198.684 121.067H211.005C211.473 121.067 211.884 121.354 212.024 121.766L217.296 135.751H228.268C228.268 135.751 228.268 135.751 228.268 135.756C228.268 136.353 227.692 136.83 226.984 136.83H216.088C216.088 136.83 216.076 136.83 216.068 136.83H205.033C204.813 136.83 204.604 136.774 204.424 136.686C204.136 136.575 203.909 136.353 203.812 136.066L198.336 121.535C198.32 121.498 198.312 121.456 198.312 121.414C198.312 121.22 198.481 121.062 198.689 121.062L198.684 121.067Z" fill="white"/>
<path d="M206.079 128.801C206.347 129.5 206.883 129.977 207.287 129.88C207.691 129.783 207.795 129.148 207.539 128.449C207.283 127.75 206.735 127.283 206.335 127.38C205.935 127.477 205.811 128.088 206.083 128.801H206.079Z" fill="white"/>
<g opacity="0.3">
<path d="M212.02 121.769L217.292 135.754H216.72L211 121.07C211.468 121.07 211.88 121.357 212.02 121.769Z" fill="black"/>
</g>
<path d="M239.892 111.492C239.892 111.492 239.032 126.102 238.012 127.371C236.292 129.514 226.876 134.157 226.876 134.157L222.624 132.431C222.328 132.319 221.996 132.38 221.752 132.593L218.844 135.162L219.12 135.435C219.24 135.551 219.412 135.574 219.556 135.495L220.008 135.236L219.504 135.81L219.664 135.967C219.824 136.125 220.044 136.18 220.248 136.115L221.548 135.713L220.348 136.639C220.616 136.898 220.988 136.99 221.332 136.879L223.232 136.25C224.528 136.592 225.848 136.81 227.18 136.902C229.42 137.06 240.56 134.699 242.528 131.565C244.5 128.435 245.964 113.529 245.964 113.529L239.888 111.501L239.892 111.492Z" fill="#E9B376"/>
<path d="M243.043 103.578C243.043 103.578 246.599 104.11 246.583 108.508C246.571 112.3 245.387 122.174 245.387 122.174L237.859 120.531L239.519 109.601C239.899 107.101 241.179 104.911 243.043 103.578Z" fill="#407BFF"/>
<path d="M226.453 84.8785C226.605 84.6563 226.185 79.6335 233.653 82.1333C239.197 83.9897 237.101 89.0171 237.101 89.0171L230.761 83.7165L226.453 84.8785Z" fill="#263238"/>
<path d="M235.505 103.165C234.953 102.79 234.881 102.507 234.705 101.841C234.249 100.123 234.741 94.2578 234.741 94.2578L229.205 96.8919C229.205 96.8919 229.249 97.0354 229.313 97.2761C229.489 97.9566 229.845 99.401 229.949 100.609C230.017 101.364 229.989 102.026 229.769 102.364C229.541 102.711 228.885 103.183 228.469 103.345C228.469 103.345 229.169 105.095 231.653 104.873C234.133 104.651 235.509 103.165 235.509 103.165H235.505Z" fill="#E9B376"/>
<path opacity="0.2" d="M233.818 97.4942C233.818 97.4942 232.63 100.355 229.894 100.258C229.786 99.0496 229.43 97.6053 229.258 96.9248C229.462 96.8368 229.594 96.7812 229.594 96.7812L233.818 97.4942Z" fill="black"/>
<path d="M226.768 83.8562C226.768 83.8562 225.156 89.1336 227.304 91.7723C229.452 94.4156 231.124 84.296 231.124 84.296L226.772 83.8516L226.768 83.8562Z" fill="#263238"/>
<path d="M233.823 97.692C232.135 99.1641 230.223 99.5252 228.615 98.5207C227.579 97.8772 226.735 96.7754 226.327 95.3681C226.271 95.1829 226.227 94.9931 226.187 94.7987C225.511 91.2064 226.079 85.3132 229.471 83.8041C231.883 82.7116 234.615 84.0911 235.555 86.8872C235.827 87.6788 235.928 88.5399 235.86 89.3917C235.592 93.359 235.791 95.9699 233.819 97.692H233.823Z" fill="#E9B376"/>
<path d="M230.653 90.6044C230.669 91.0165 230.453 91.3544 230.213 91.3498C229.973 91.3451 229.793 90.9979 229.797 90.5813C229.801 90.1647 230.005 89.8314 230.237 89.836C230.469 89.8406 230.657 90.1785 230.653 90.6044Z" fill="#263238"/>
<path d="M227.512 90.6045C227.528 91.0211 227.304 91.3544 227.072 91.3498C226.84 91.3451 226.652 90.9979 226.656 90.5813C226.66 90.1647 226.864 89.8314 227.096 89.836C227.328 89.8406 227.516 90.2063 227.512 90.6045Z" fill="#263238"/>
<path d="M228.47 90.4922C228.122 91.4736 227.654 92.3948 227.086 93.2327C227.47 93.5614 227.958 93.6818 228.426 93.5522L228.47 90.4922Z" fill="#D58745"/>
<path d="M226.323 88.7155C226.375 88.7525 226.443 88.7525 226.495 88.7155C226.847 88.4562 227.287 88.41 227.675 88.5812C227.755 88.6275 227.855 88.5905 227.895 88.4933C227.935 88.4007 227.903 88.285 227.819 88.2387C227.331 88.0026 226.775 88.0581 226.327 88.3822C226.247 88.4331 226.219 88.5488 226.263 88.6414C226.279 88.6646 226.299 88.6877 226.319 88.7062L226.323 88.7155Z" fill="#263238"/>
<path d="M231.287 88.9353C231.319 88.9353 231.351 88.9215 231.379 88.8983C231.439 88.8196 231.435 88.7039 231.367 88.6298C230.979 88.2132 230.439 88.0373 229.919 88.1669C229.831 88.1947 229.779 88.2965 229.803 88.3983C229.827 88.5002 229.919 88.5557 230.003 88.5326C230.415 88.4446 230.839 88.5881 231.143 88.9215C231.187 88.9492 231.235 88.9539 231.283 88.9353H231.287Z" fill="#263238"/>
<path d="M233.429 84.375L233.141 86.111C233.617 86.4536 233.881 87.1248 233.613 87.7961C233.041 89.2311 233.629 91.5689 234.549 92.555C234.549 92.555 234.617 91.9208 235.073 92.1059C235.529 92.2958 235.089 94.9622 234.605 96.6056C234.605 96.6056 235.661 95.7909 236.637 92.3652C237.541 89.1987 237.785 86.523 237.289 85.2314L233.429 84.375Z" fill="#263238"/>
<path opacity="0.4" d="M233.429 84.375L233.141 86.111C233.617 86.4536 233.881 87.1248 233.613 87.7961C233.041 89.2311 233.629 91.5689 234.549 92.555C234.549 92.555 234.617 91.9208 235.073 92.1059C235.529 92.2958 235.089 94.9622 234.605 96.6056C234.605 96.6056 235.661 95.7909 236.637 92.3652C237.541 89.1987 237.785 86.523 237.289 85.2314L233.429 84.375Z" fill="white"/>
<path d="M237.316 92.6856C236.92 93.5745 236.232 94.2504 235.408 94.5559C234.316 94.954 233.732 93.8291 234.004 92.6116C234.252 91.5329 235.12 89.9868 236.232 90.1349C237.348 90.283 237.788 91.5885 237.316 92.6856Z" fill="#E9B376"/>
<path opacity="0.1" d="M234.734 92.8962C234.838 92.2296 235.21 91.6278 235.722 91.2945C235.938 91.1556 236.234 91.0677 236.422 91.2575" stroke="black" stroke-width="0.5" stroke-miterlimit="10"/>
<path d="M225.562 85.2838C224.931 85.4551 224.223 85.2144 223.771 84.6728C224.667 84.6033 225.547 84.2885 226.323 83.7654C225.535 83.9969 224.659 83.7654 224.039 83.1636C225.227 82.946 226.315 82.2794 227.447 81.8072C229.951 80.761 232.779 80.6684 235.259 81.7841C235.843 82.048 236.427 82.3905 236.815 82.9646C237.203 83.534 237.627 84.6219 237.291 85.2329L233.247 85.4412C232.599 84.0617 231.579 84.5432 230.099 85.5662C229.499 85.9782 228.135 86.756 227.459 86.955C226.603 87.2096 225.927 87.3254 225.403 87.293C224.491 87.2374 224.123 86.9365 223.562 86.4504C224.391 86.0893 224.915 85.9829 225.567 85.2838H225.562Z" fill="#263238"/>
<path d="M229.692 94.1191C230.344 93.9062 230.948 93.5358 231.464 93.0312C231.52 93.147 231.564 93.2766 231.588 93.4062C231.64 93.6377 231.64 93.883 231.588 94.1145C231.484 94.5913 231.136 95.1098 230.176 95.4339C230.104 95.4616 230.036 95.4848 229.964 95.5033C229.788 95.0635 229.58 94.6422 229.352 94.2395C229.352 94.2395 229.484 94.2025 229.696 94.1191H229.692Z" fill="#263238"/>
<path d="M231.448 93.0312C231.504 93.147 231.548 93.2766 231.572 93.4062C231.372 93.8182 230.772 94.1747 229.868 94.4895L229.68 94.1191C230.332 93.9062 230.936 93.5358 231.452 93.0312H231.448Z" fill="white"/>
<path d="M230.576 94.719C230.88 94.4505 231.22 94.2468 231.584 94.1172C231.48 94.594 231.132 95.1125 230.172 95.4365C230.24 95.1542 230.384 94.9042 230.58 94.7236L230.576 94.719Z" fill="#C15854"/>
<path opacity="0.3" d="M179.426 83.0748C179.162 83.3479 178.302 84.1905 177.682 84.9311C177.414 85.2506 177.026 85.6765 176.65 86.0838C176.602 86.1255 176.55 86.1672 176.506 86.2181L176.138 86.6394C175.954 86.843 175.794 87.0236 175.686 87.1625L175.266 87.6485C175.018 87.9402 174.818 88.2828 174.678 88.6624L173.834 92.1945C171.89 94.412 167.686 98.9672 167.442 98.7913C167.282 98.6756 166.514 96.1017 165.81 93.6342L167.098 93.1019L166.882 92.3658L166.654 92.463C166.23 90.6483 163.722 80.0704 162.802 78.8945C161.074 76.5845 158.858 74.8809 156.406 73.9088C156.47 73.631 156.55 73.3625 156.654 73.1033C157.658 73.6449 158.834 73.7282 159.926 73.2607C161.07 72.7977 162.014 71.8441 162.57 70.5988C162.65 70.4321 162.718 70.2516 162.786 70.0664C163.054 69.2748 163.274 68.2101 163.41 67.0528C164.07 66.9555 164.618 66.3676 164.718 65.5667C164.766 64.7242 164.322 63.9789 163.674 63.6919C163.818 62.854 163.854 62.0114 163.846 61.2985C164.486 60.6226 164.83 59.6551 164.79 58.6552C164.658 57.1136 162.802 56.8498 162.802 56.8498C162.802 56.8498 162.246 55.1091 161.018 54.5814C159.79 54.0537 158.558 55.373 158.558 55.373C158.558 55.373 157.026 53.6602 155.242 54.1509C154.006 54.4471 153.114 55.7017 153.102 57.1646C153.102 57.1646 151.01 57.4099 151.054 58.6552C151.098 59.8033 152.134 60.6226 152.29 60.743C152.222 61.7661 152.254 62.979 152.422 64.4789C152.282 64.7242 152.194 65.0159 152.182 65.3307C152.174 65.5621 152.21 65.789 152.286 66.0065C152.418 66.4787 152.63 66.9092 152.906 67.275C153.118 68.0573 153.382 68.7147 153.638 69.2424C153.09 70.6544 152.414 72.02 151.65 72.9644C148.722 72.8301 146.702 72.932 145.134 73.3255C145.106 73.3301 145.082 73.3394 145.054 73.3486C144.954 73.3764 144.854 73.4042 144.758 73.4319C144.542 73.4968 144.334 73.5616 144.134 73.6356C141.846 74.1078 139.726 75.3485 138.054 77.228C135.47 80.0056 131.202 84.8293 131.202 84.8293L131.218 84.8524C129.174 87.0884 127.366 89.1438 126.934 89.866C125.822 91.7131 125.874 110.272 125.874 110.272C125.874 110.272 125.374 111.439 125.362 112.276C125.358 112.605 125.238 114.179 125.21 115.077L118.222 113.795C117.074 113.582 115.994 114.489 115.814 115.818L113.886 129.905C113.702 131.233 114.486 132.483 115.634 132.692L133.202 135.914C133.202 135.955 133.202 135.992 133.202 136.034H144.214C144.406 133.266 144.582 130.659 144.734 128.474C144.734 128.484 144.738 128.507 144.742 128.521H144.738C144.738 128.521 145.13 132.627 145.442 136.034H154.67C154.13 128.201 153.39 121.345 152.722 116.091C152.85 116.091 152.982 116.091 153.106 116.091L152.918 114.911C152.978 114.911 153.042 114.906 153.102 114.901V114.892C153.102 114.864 153.11 113.994 153.194 112.624C153.206 112.448 153.218 112.267 153.234 112.073C153.29 111.263 153.37 110.318 153.486 109.295C153.534 108.879 153.59 108.434 153.65 107.976C154.018 105.3 154.63 102.282 155.65 99.7727C156.61 97.4349 157.522 95.074 158.386 92.6899L159.206 94.449L159.67 95.435L159.39 95.5554L159.602 96.1943L160.498 95.8239C162.042 100.476 164.274 106.24 166.026 106.865C168.69 107.814 174.83 96.3054 176.118 93.8194C177.39 93.2963 178.374 91.0835 178.374 91.0835L179.466 89.3984C179.834 88.8336 179.798 88.042 179.382 87.5236L178.322 86.2598C178.322 86.2598 178.334 86.2459 178.338 86.2366C178.75 85.6811 179.982 84.3432 180.058 83.8201C180.134 83.297 179.686 82.797 179.422 83.0748H179.426ZM135.834 92.8056C135.714 93.412 135.598 94.0185 135.486 94.6203C135.458 94.7731 135.43 94.9258 135.402 95.0786C133.762 103.865 132.578 112.309 132.578 112.309C132.678 112.341 132.782 112.374 132.886 112.401L132.586 114.244C132.586 114.244 132.902 114.29 133.462 114.369C133.458 115.063 133.45 115.799 133.442 116.577L129.746 115.897C129.822 115.804 129.898 115.711 129.974 115.614L130.966 115.79L128.902 111.05L132.098 93.3195L135.006 90.5928L135.21 90.903C135.61 90.6206 135.998 90.3197 136.39 90.028C136.202 90.94 136.014 91.8659 135.834 92.7963V92.8056Z" fill="black"/>
<path d="M147.879 194.176L151.479 193.801L152.167 184.82L147.359 185.575L147.879 194.176Z" fill="#A77865"/>
<path d="M151.976 191.009H150.724C150.44 191.009 150.176 191.176 150.012 191.44C149.288 192.583 148.744 192.153 147.96 191.074C147.46 191.005 147.324 191.671 147.284 191.847L146.348 195.791C146.268 196.12 146.432 196.463 146.716 196.56C146.768 196.578 146.82 196.583 146.872 196.583H156.804C158.384 196.583 158.712 194.74 158.06 194.569C155.132 193.819 153.06 192.824 152.156 191.838C151.988 191.667 152.16 191.537 151.98 191L151.976 191.009Z" fill="#263238"/>
<path d="M154.697 192.128C154.829 192.017 154.909 191.841 154.909 191.656C154.921 191.554 154.881 191.457 154.805 191.401C154.413 191.077 152.845 191.929 152.669 192.026C152.649 192.035 152.633 192.054 152.629 192.073C152.617 192.114 152.633 192.16 152.669 192.174C153.053 192.281 153.449 192.336 153.845 192.35C154.141 192.383 154.441 192.304 154.697 192.128ZM154.709 191.536C154.741 191.559 154.757 191.6 154.749 191.647C154.741 191.781 154.685 191.911 154.593 191.994C154.237 192.304 153.377 192.17 152.917 192.068C153.569 191.735 154.493 191.364 154.709 191.536Z" fill="#407BFF"/>
<path d="M152.728 192.196C153.2 191.969 154.184 191.076 154.132 190.599C154.124 190.502 154.064 190.382 153.848 190.349C152.988 190.233 152.62 192.02 152.62 192.099C152.612 192.131 152.62 192.164 152.64 192.182C152.656 192.187 152.672 192.187 152.688 192.182L152.724 192.196H152.728ZM153.82 190.497C153.98 190.516 153.98 190.581 153.98 190.608C154.024 190.895 153.308 191.641 152.796 191.956C152.904 191.539 153.216 190.497 153.76 190.497H153.816H153.82Z" fill="#407BFF"/>
<path d="M152.845 192.125C152.413 192.194 152.013 192.491 151.781 192.917" stroke="#407BFF" stroke-width="0.5" stroke-linecap="round" stroke-linejoin="round"/>
<path d="M153.626 192.805C153.194 192.874 152.794 193.17 152.562 193.596" stroke="#407BFF" stroke-width="0.5" stroke-linecap="round" stroke-linejoin="round"/>
<path d="M154.595 193.375C154.163 193.444 153.763 193.741 153.531 194.167" stroke="#407BFF" stroke-width="0.5" stroke-linecap="round" stroke-linejoin="round"/>
<path d="M130.219 194.235H133.627L135.291 185.102H130.435L130.219 194.235Z" fill="#A77865"/>
<path d="M134.351 191.587H133.099C132.815 191.587 132.551 191.754 132.387 192.018C131.663 193.161 131.119 192.731 130.335 191.652C129.835 191.583 129.699 192.249 129.659 192.425L128.723 196.369C128.643 196.698 128.807 197.041 129.091 197.138C129.143 197.156 129.195 197.161 129.247 197.161H139.179C140.759 197.161 141.087 195.319 140.435 195.147C137.507 194.397 135.435 193.402 134.531 192.416C134.363 192.245 134.535 192.115 134.355 191.578L134.351 191.587Z" fill="#263238"/>
<path d="M137.072 192.706C137.204 192.595 137.284 192.419 137.284 192.234C137.296 192.132 137.256 192.035 137.18 191.979C136.788 191.655 135.22 192.507 135.044 192.604C135.024 192.614 135.008 192.632 135.004 192.651C134.992 192.692 135.008 192.739 135.044 192.753C135.428 192.859 135.824 192.915 136.22 192.928C136.516 192.961 136.816 192.882 137.072 192.706ZM137.084 192.114C137.116 192.137 137.132 192.178 137.124 192.225C137.116 192.359 137.06 192.489 136.968 192.572C136.612 192.877 135.752 192.748 135.292 192.646C135.944 192.313 136.868 191.942 137.084 192.114Z" fill="#407BFF"/>
<path d="M135.103 192.774C135.575 192.548 136.559 191.654 136.507 191.177C136.499 191.08 136.439 190.96 136.223 190.927C135.363 190.812 134.995 192.598 134.995 192.677C134.987 192.71 134.995 192.742 135.015 192.76C135.031 192.765 135.047 192.765 135.063 192.76L135.099 192.774H135.103ZM136.195 191.075C136.355 191.094 136.355 191.159 136.355 191.187C136.399 191.474 135.683 192.219 135.171 192.534C135.279 192.117 135.591 191.075 136.135 191.075H136.191H136.195Z" fill="#407BFF"/>
<path d="M135.22 192.703C134.788 192.773 134.388 193.069 134.156 193.495" stroke="#407BFF" stroke-width="0.5" stroke-linecap="round" stroke-linejoin="round"/>
<path d="M136.002 193.383C135.57 193.452 135.169 193.749 134.938 194.174" stroke="#407BFF" stroke-width="0.5" stroke-linecap="round" stroke-linejoin="round"/>
<path d="M136.97 193.953C136.538 194.023 136.138 194.319 135.906 194.745" stroke="#407BFF" stroke-width="0.5" stroke-linecap="round" stroke-linejoin="round"/>
<path d="M131.497 104.883H149.585C150.665 111.711 153.093 129.46 153.405 150.208C153.621 164.453 153.909 187.493 153.405 188.724L146.201 188.752C146.201 188.752 145.893 170.957 144.937 153.278C144.389 143.098 142.909 125.886 142.725 125.275C142.105 134.27 141.037 150.449 140.413 155.541C138.841 168.073 136.965 188.965 136.965 188.965H129.453C129.453 188.965 130.033 166.67 130.621 154.356C131.265 140.973 131.493 107.628 131.493 104.883H131.497Z" fill="#263238"/>
<path opacity="0.2" d="M142.734 125.323C142.734 125.323 143.462 132.943 143.726 136.035C144.23 128.055 144.746 122.328 144.746 122.328L142.734 125.323Z" fill="#263238"/>
<path d="M172.8 87.8286C172.576 88.2637 165.756 95.8095 165.444 95.5873C165.132 95.3651 162.536 85.875 162.536 85.875L156.672 86.625C156.672 86.625 161.044 102.591 164.028 103.656C167.012 104.721 174.364 90.134 174.364 90.134" fill="#A77865"/>
<path d="M130.998 108.523L130.586 111.051C130.586 111.051 143.238 112.944 151.106 112.894L150.83 111.158L131.002 108.523H130.998Z" fill="#407BFF"/>
<path d="M154.188 84.7905L154.719 85.9246L157.207 91.2483L157.728 92.3501L164.711 89.5401C164.711 89.5401 161.803 76.9901 160.799 75.7031L154.188 84.7951V84.7905Z" fill="#407BFF"/>
<path opacity="0.4" d="M154.188 84.7905L154.719 85.9246L157.207 91.2483L157.728 92.3501L164.711 89.5401C164.711 89.5401 161.803 76.9901 160.799 75.7031L154.188 84.7951V84.7905Z" fill="white"/>
<path opacity="0.2" d="M154.719 85.9237L157.207 91.2474C158.747 87.7523 158.303 82.9609 158.303 82.9609L154.719 85.9237Z" fill="#263238"/>
<path d="M160.798 75.7044C158.138 72.149 154.334 70.0149 150.278 69.7974C143.434 69.427 141.282 70.214 138.782 72.7972C135.126 76.5747 130.578 109.109 130.578 109.109C137.25 111.257 144.182 112.132 151.098 111.693C151.098 111.693 151.182 102.647 153.65 96.5733C156.43 89.8099 158.822 82.8381 160.802 75.7044H160.798Z" fill="#407BFF"/>
<path opacity="0.4" d="M130.578 109.115C137.25 111.263 144.182 112.137 151.098 111.702C151.098 111.702 151.098 110.587 151.23 108.878C151.286 108.068 151.366 107.124 151.482 106.101C151.598 105.078 151.762 103.916 151.942 102.754C152.054 102.134 152.182 101.504 152.318 100.879C152.638 99.4022 153.074 97.9579 153.622 96.5737C153.926 95.8284 154.218 95.0877 154.506 94.3656C154.998 93.0971 155.466 91.8704 155.886 90.6945C156.806 88.2178 157.586 85.9587 158.242 83.9774C158.702 82.5562 159.114 81.2831 159.45 80.1952C159.822 78.9777 160.118 77.9778 160.334 77.2325C160.614 76.2464 160.754 75.7094 160.754 75.7094C160.526 75.3761 160.278 75.066 160.018 74.7697C157.45 71.844 154.058 70.0848 150.462 69.821H150.234C145.018 69.5386 142.53 69.9274 140.534 71.2746C139.89 71.719 139.286 72.2421 138.734 72.83C138.214 73.4828 137.806 74.2373 137.53 75.066C136.682 77.3528 135.982 79.7138 135.442 82.121L135.138 83.4126C134.678 85.3893 134.246 87.491 133.834 89.6159C133.714 90.2223 133.598 90.8288 133.486 91.4306C133.314 92.3564 133.146 93.2777 132.986 94.1896C132.574 96.4812 132.198 98.7078 131.874 100.708C131.414 103.583 131.042 105.985 130.822 107.485C130.67 108.54 130.582 109.124 130.582 109.124L130.578 109.115ZM150.674 70.1033C151.134 70.1172 151.594 70.1589 152.054 70.2237C153.894 70.5107 156.722 72.2189 156.654 73.0291C156.586 73.8392 155.51 75.9039 152.758 75.4039C151.798 75.2002 150.89 74.7604 150.09 74.117C148.574 72.955 147.47 71.3857 147.358 70.8764C147.222 70.2654 149.006 70.0571 150.678 70.1172V70.108L150.674 70.1033Z" fill="white"/>
<path opacity="0.2" d="M133.484 91.4407C137.824 89.3529 141.256 80.7377 141.256 80.7377L138.792 79.0156L135.444 82.1312L135.14 83.4227C134.68 85.3994 134.248 87.5012 133.836 89.626C133.716 90.2324 133.6 90.8389 133.488 91.4407H133.484Z" fill="#263238"/>
<path d="M157.391 92.3522L164.875 89.1719L165.091 89.9079L157.599 92.9911L157.391 92.3522Z" fill="#407BFF"/>
<path d="M113.814 112.617L111.884 126.704C111.702 128.033 112.485 129.28 113.633 129.491L135.95 133.586C137.098 133.797 138.175 132.891 138.357 131.563L140.287 117.476C140.469 116.147 139.687 114.9 138.539 114.689L116.222 110.594C115.074 110.383 113.996 111.289 113.814 112.617Z" fill="#407BFF"/>
<path d="M123.978 118.492L119.57 121.14L123.054 125.232" stroke="white" stroke-width="2" stroke-linecap="round" stroke-linejoin="round"/>
<path d="M128.188 126.165L132.595 123.522L129.111 119.43" stroke="white" stroke-width="2" stroke-linecap="round" stroke-linejoin="round"/>
<path d="M124.594 125.509L127.582 119.148" stroke="white" stroke-width="2" stroke-linecap="round" stroke-linejoin="round"/>
<path d="M136.198 74.1875C136.198 74.1875 126.046 84.8164 124.934 86.6589C123.822 88.506 123.874 107.065 123.874 107.065C123.874 107.065 123.374 108.231 123.362 109.069C123.354 109.514 123.146 112.208 123.218 112.472C123.218 112.472 124.586 116.823 127.974 112.416L128.966 112.592L126.902 107.852L130.098 90.1216L138.058 82.6638L136.194 74.1875H136.198Z" fill="#A77865"/>
<path d="M142.479 70.3594C143.671 73.2805 142.763 79.4328 140.567 81.604C138.243 83.8353 135.783 85.8768 133.211 87.71L129.203 81.6271C129.203 81.6271 133.471 76.8034 136.055 74.0258C137.811 72.0537 140.063 70.7714 142.483 70.3594H142.479Z" fill="#407BFF"/>
<path opacity="0.4" d="M142.479 70.3594C143.671 73.2805 142.763 79.4328 140.567 81.604C138.243 83.8353 135.783 85.8768 133.211 87.71L129.203 81.6271C129.203 81.6271 133.471 76.8034 136.055 74.0258C137.811 72.0537 140.063 70.7714 142.483 70.3594H142.479Z" fill="white"/>
<path d="M148.273 70.8966C149.013 73.3455 151.769 74.4612 153.213 74.6232C154.305 74.8223 155.381 74.151 155.833 72.9845C155.833 72.9845 154.181 72.0308 154.349 70.9614C154.465 70.3087 154.697 69.6884 155.029 69.1421C155.201 68.832 155.389 68.5311 155.589 68.244L152.945 61.6797C152.357 64.5221 150.549 69.98 148.273 70.8966Z" fill="#A77865"/>
<path opacity="0.2" d="M152.841 64.7031C151.581 67.8973 153.361 70.0963 154.349 70.9342C154.465 70.2814 154.697 69.6611 155.029 69.1149L152.841 64.7031Z" fill="#263238"/>
<path d="M161.706 56.1892C161.706 56.1892 162.554 61.5962 160.114 63.7628C157.678 65.9293 157.43 55.8281 157.43 55.8281L161.706 56.1892Z" fill="#A77865"/>
<path opacity="0.4" d="M161.706 56.1892C161.706 56.1892 162.554 61.5962 160.114 63.7628C157.678 65.9293 157.43 55.8281 157.43 55.8281L161.706 56.1892Z" fill="#263238"/>
<path d="M152.995 68.3112C154.111 70.1121 156.131 70.8296 157.931 70.0611C159.075 69.5982 160.019 68.6446 160.575 67.3993C160.655 67.2326 160.723 67.0521 160.791 66.8669C161.931 63.5107 162.171 55.3122 159.099 55.6177C156.559 55.8677 154.079 54.965 152.779 57.5018C152.407 58.224 152.191 59.0387 152.143 59.8766C151.867 63.793 151.547 66.066 152.995 68.3112Z" fill="#A77865"/>
<path d="M157.076 61.8144C157.02 62.1246 157.148 62.407 157.328 62.4394C157.508 62.4718 157.684 62.231 157.724 61.907C157.764 61.5829 157.644 61.3144 157.472 61.2913C157.296 61.2635 157.116 61.4996 157.076 61.819V61.8144Z" fill="#263238"/>
<path d="M160.153 62.3163C160.097 62.6264 160.233 62.9088 160.405 62.9412C160.581 62.9736 160.761 62.7329 160.797 62.4089C160.833 62.0848 160.725 61.8163 160.545 61.7839C160.365 61.7515 160.189 62.02 160.153 62.3163Z" fill="#263238"/>
<path d="M159.153 62.3125C159.361 63.3263 159.685 64.3077 160.125 65.2197C159.709 65.4697 159.217 65.4975 158.781 65.2891L159.153 62.3125Z" fill="#8E4F42"/>
<path d="M156.269 60.5019C156.325 60.5204 156.389 60.5019 156.429 60.4556C156.713 60.113 157.121 59.951 157.529 60.0065C157.617 60.0251 157.701 59.9649 157.721 59.863C157.741 59.7658 157.689 59.6686 157.605 59.6455C157.605 59.6455 157.601 59.6455 157.597 59.6455C157.089 59.5575 156.577 59.7566 156.217 60.1778C156.157 60.2519 156.157 60.3676 156.217 60.4417C156.217 60.4417 156.249 60.4834 156.269 60.5019Z" fill="#263238"/>
<path d="M161.62 61.3003C161.648 61.3141 161.684 61.3141 161.712 61.3003C161.792 61.2771 161.844 61.1799 161.82 61.0873C161.82 61.0827 161.82 61.0781 161.816 61.0734C161.668 60.4994 161.288 60.0411 160.796 59.8513C160.712 59.8235 160.624 59.8744 160.6 59.9717C160.6 59.9717 160.6 59.9763 160.6 59.9809C160.576 60.0781 160.624 60.18 160.712 60.2077C161.096 60.3698 161.396 60.7355 161.512 61.1938C161.532 61.2493 161.572 61.291 161.624 61.3049L161.62 61.3003Z" fill="#263238"/>
<path d="M156.641 65.4219C156.641 65.4219 157.205 66.8246 158.361 66.7736" stroke="#263238" stroke-width="0.5" stroke-linecap="round" stroke-linejoin="round"/>
<path d="M155.179 55.4766L155.223 57.2126C154.679 57.4394 154.379 58.1153 154.539 58.7634C154.899 60.254 154.011 62.4159 152.983 63.2029C152.983 63.2029 152.983 62.5733 152.523 62.6705C152.063 62.7677 151.919 66.036 152.679 67.6794C152.679 67.6794 151.055 65.9481 150.571 62.4529C150.111 59.2217 150.199 57.1755 150.571 55.6247L155.175 55.4812L155.179 55.4766Z" fill="#A77865"/>
<path opacity="0.4" d="M155.179 55.4766L155.223 57.2126C154.679 57.4394 154.379 58.1153 154.539 58.7634C154.899 60.254 154.011 62.4159 152.983 63.2029C152.983 63.2029 152.983 62.5733 152.523 62.6705C152.063 62.7677 151.919 66.036 152.679 67.6794C152.679 67.6794 151.055 65.9481 150.571 62.4529C150.111 59.2217 150.199 57.1755 150.571 55.6247L155.175 55.4812L155.179 55.4766Z" fill="#263238"/>
<path d="M150.319 57.5584C151.959 57.7436 153.615 57.6278 155.227 57.2112C159.859 56.1465 161.831 58.1139 161.831 58.1139C162.479 57.438 162.831 56.4613 162.791 55.4521C162.659 53.9105 160.803 53.6466 160.803 53.6466C160.803 53.6466 160.247 51.906 159.019 51.3783C157.791 50.8505 156.559 52.1699 156.559 52.1699C156.559 52.1699 155.027 50.457 153.243 50.9477C152.007 51.244 151.115 52.4986 151.103 53.9614C151.103 53.9614 149.011 54.2068 149.055 55.4521C149.099 56.6974 150.315 57.5538 150.315 57.5538L150.319 57.5584Z" fill="#263238"/>
<path d="M157.434 60.0703C158.266 60.0703 158.938 60.9684 158.938 62.0748C158.938 63.1812 158.266 64.0793 157.434 64.0793C156.602 64.0793 155.93 63.1812 155.93 62.0748C155.93 60.9684 156.602 60.0703 157.434 60.0703Z" stroke="#263238" stroke-width="0.5" stroke-linecap="round" stroke-linejoin="round"/>
<path d="M162.723 62.3685C162.603 63.3268 161.835 63.9934 161.003 63.8545C160.175 63.7156 159.599 62.8268 159.719 61.8639C159.827 60.9982 160.467 60.3594 161.219 60.3594C162.111 60.4381 162.779 61.3315 162.723 62.3639V62.3685Z" stroke="#263238" stroke-width="0.5" stroke-linecap="round" stroke-linejoin="round"/>
<path d="M158.938 62.3118C158.938 62.3118 159.426 61.96 159.714 62.372" stroke="#263238" stroke-width="0.5" stroke-linecap="round" stroke-linejoin="round"/>
<path d="M155.927 62.0729L153.291 61.6609C152.947 61.6099 152.595 61.7164 152.319 61.9664L152.203 62.0729" stroke="#263238" stroke-width="0.5" stroke-linecap="round" stroke-linejoin="round"/>
<path d="M150.289 62.8099C150.553 63.745 151.125 64.5228 151.885 64.9718C152.893 65.5505 153.609 64.5737 153.509 63.3423C153.417 62.2451 152.789 60.5971 151.669 60.5323C150.877 60.4999 150.213 61.2221 150.189 62.134C150.181 62.3655 150.217 62.5923 150.293 62.8099H150.289Z" fill="#A77865"/>
<path d="M178.065 80.6138C178.141 80.0906 177.693 79.5907 177.429 79.8684C177.165 80.1416 176.304 80.9841 175.684 81.7248C175.416 82.0442 175.029 82.4701 174.653 82.8775C174.605 82.9192 174.552 82.9608 174.508 83.0117L174.141 83.433C173.957 83.6367 173.797 83.8172 173.689 83.9561L173.269 84.4422C173.021 84.7338 172.821 85.0764 172.681 85.456L171.812 89.0854L173.169 90.6455C174.865 91.2843 176.384 87.8771 176.384 87.8771L177.477 86.1921C177.845 85.6273 177.809 84.8357 177.393 84.3172L176.332 83.0534C176.332 83.0534 176.344 83.0395 176.348 83.0303C176.76 82.4747 177.993 81.1369 178.069 80.6138H178.065Z" fill="#A77865"/>
<path opacity="0.3" d="M113.675 64.6486H113.443V62.2969H100.431V64.6486H100.415C99.9195 64.6486 99.5155 65.1161 99.5155 65.6902V67.6946C99.5155 68.2687 99.9195 68.7362 100.415 68.7362H106.431C106.723 68.7362 106.963 69.014 106.963 69.3519V72.1156H105.499V74.4766C104.807 74.833 104.247 75.1432 104.107 75.2636C103.699 75.62 103.379 77.1894 103.379 77.1894L102.711 78.3328C102.519 78.2078 102.399 78.1615 102.399 78.1615L95.5995 88.92C91.4475 85.9295 87.0955 83.3278 82.5875 81.1428C80.0515 86.985 82.8115 94.9798 82.8115 94.9798C82.8115 94.9798 92.3475 100.956 96.8835 99.4286C101.419 97.9009 104.911 82.5131 104.911 82.5131C104.775 81.777 104.595 81.1706 104.391 80.6567L104.963 79.3281C105.023 79.3281 105.131 79.3096 105.331 79.2679C105.379 79.2587 105.435 79.2401 105.499 79.2216V82.4899C105.499 83.4065 106.139 84.1472 106.931 84.1472H107.395C108.187 84.1472 108.827 83.4065 108.827 82.4899V77.4162C108.919 77.3375 108.999 77.2588 109.047 77.194C109.511 76.5737 109.535 72.9396 109.047 72.9304C109.003 72.9304 108.923 72.9489 108.827 72.9767V72.1249H107.363V69.3612C107.363 68.7686 106.947 68.2826 106.431 68.2826H100.415C100.139 68.2826 99.9155 68.0233 99.9155 67.7039V65.6994C99.9155 65.38 100.139 65.1207 100.415 65.1207H100.431V67.4724H113.443V65.1207H113.675V64.6578V64.6486Z" fill="black"/>
<path d="M64.729 83.4656C63.081 85.6645 54.6849 104.381 56.3089 108.746C57.9329 113.112 71.381 108.08 71.381 108.08L70.5769 101.909C70.5769 101.909 65.353 102.122 64.849 101.548C64.349 100.974 71.917 92.2242 71.917 92.2242L64.725 83.4609L64.729 83.4656Z" fill="#263238"/>
<g opacity="0.2">
<path d="M56.3071 108.785C56.5071 109.29 56.8551 109.697 57.2871 109.938L57.5551 110.077H57.5911C57.6751 110.119 57.7591 110.151 57.8471 110.179C58.2231 110.318 58.6151 110.415 59.0071 110.456L59.3471 110.493C59.5151 110.493 59.6831 110.521 59.8551 110.526H60.3191C64.8191 110.577 71.3791 108.128 71.3871 108.077L70.5831 101.906C70.5831 101.906 69.2271 101.962 67.8311 101.939C66.4871 101.92 65.1031 101.827 64.8591 101.545C64.7391 101.406 65.0951 100.781 65.7031 99.9294C67.1791 97.8277 70.1431 94.3233 71.3631 92.8929L71.9151 92.2494L64.7151 83.5C63.0671 85.6804 54.6711 104.392 56.3031 108.781L56.3071 108.785Z" fill="white"/>
</g>
<path opacity="0.2" d="M67.4844 109.317L67.9884 107.025L67.6204 101.938H68.9844L69.7404 107.479L69.0204 108.868L67.4844 109.317Z" fill="#263238"/>
<path opacity="0.2" d="M67.6215 97.3873L65.9375 91.6562L66.3695 99.003L67.6215 97.3873Z" fill="#263238"/>
<path opacity="0.2" d="M64.9136 101.633C64.9136 101.633 64.2096 103.739 62.7656 105.114C62.7656 105.114 65.0656 104.072 65.4736 101.795L64.9096 101.633H64.9136Z" fill="#263238"/>
<path d="M77.3878 187.331L79.7118 187.372C82.0758 174.512 83.7518 158.597 84.7918 146.588C84.9558 144.704 85.1038 142.926 85.2558 141.264C85.3158 140.473 85.3758 139.714 85.4318 138.982C85.7118 135.371 85.8958 132.529 86.0158 130.742C86.0998 129.45 86.1398 128.742 86.1398 128.742H77.6918L77.7718 131.223L78.0518 139.403L78.0798 140.339L78.2558 145.746L78.5478 154.949C75.6598 167.911 77.3878 187.331 77.3878 187.331Z" fill="#E9B376"/>
<path d="M58.5156 186.648L60.8076 187.148C65.3956 173.881 69.7036 156.887 72.5076 145.017C72.9396 143.179 73.3396 141.457 73.6956 139.897C73.6956 139.818 73.7276 139.74 73.7476 139.666C74.4556 136.569 74.9996 134.097 75.3356 132.532L75.7396 130.634L67.4676 128.977L67.0036 133.009L66.3116 138.925L66.1756 140.087L65.7116 144.128L64.4516 154.961C59.6756 167.173 58.5156 186.648 58.5156 186.648Z" fill="#E9B376"/>
<path d="M84.2594 196.267C83.8274 195.859 83.3354 195.544 82.8034 195.341C82.8034 195.341 81.2194 193.521 80.4514 188.045L78.3794 187.415C77.6594 187.216 76.9034 187.559 76.4914 188.272C76.4354 188.369 76.3914 188.475 76.3594 188.591C76.2514 189.179 76.1794 189.772 76.1354 190.373C76.0194 192.373 76.0074 194.382 76.1034 196.387H76.4794L76.6274 192.623C76.6834 191.336 77.5354 192.846 77.7754 194.239C78.0154 195.632 78.5314 197.086 80.9594 197.155C83.7954 197.202 84.9714 197.077 84.2554 196.271L84.2594 196.267Z" fill="#263238"/>
<path d="M76.4182 188.353C76.2822 187.07 76.2422 184.844 76.2422 184.844L80.8542 185.436C80.8542 185.436 80.2982 187.969 80.7582 189.876C78.4342 189.14 76.4222 188.353 76.4222 188.353H76.4182Z" fill="#263238"/>
<path d="M65.4993 196.27C65.0673 195.867 64.5713 195.552 64.0433 195.349C64.0433 195.349 62.4593 193.529 61.6953 188.053L59.6193 187.423C58.8993 187.224 58.1433 187.567 57.7313 188.28C57.6753 188.377 57.6313 188.483 57.5993 188.599C57.4913 189.187 57.4193 189.779 57.3753 190.381C57.2593 192.381 57.2513 194.39 57.3473 196.395H57.6993L57.8473 192.631C57.9033 191.344 58.7553 192.853 58.9953 194.247C59.2353 195.64 59.7513 197.094 62.1833 197.163C65.0313 197.205 66.2073 197.075 65.4913 196.274L65.4993 196.27Z" fill="#263238"/>
<path d="M57.6644 188.353C57.5244 187.07 57.4844 184.844 57.4844 184.844L62.0964 185.436C62.0964 185.436 61.5404 187.969 62.0004 189.876C59.6764 189.14 57.6684 188.353 57.6684 188.353H57.6644Z" fill="#263238"/>
<path opacity="0.2" d="M71.375 73.8906C71.911 74.3304 72.515 74.6452 73.155 74.8118C75.039 75.3164 76.323 74.9461 77.167 73.9462C76.039 74.2702 74.855 74.1545 73.787 73.6221C72.991 73.2795 72.103 73.3814 71.375 73.8906Z" fill="#263238"/>
<path d="M77.5703 67.023C77.5703 68.1433 77.9983 69.046 78.4983 69.046C78.9983 69.046 79.4543 68.1433 79.4543 67.023C79.4543 65.9027 79.0263 65 78.4983 65C77.9703 65 77.5703 65.9027 77.5703 67.023Z" stroke="#263238" stroke-width="0.5" stroke-linecap="round" stroke-linejoin="round"/>
<path d="M71.271 73.7784C71.307 73.8155 71.343 73.8479 71.383 73.8756C71.915 74.3432 72.519 74.6858 73.163 74.8802C75.047 75.3848 76.331 75.0839 77.175 74.1025C78.351 72.6211 78.643 70.0055 78.475 66.8391C78.447 65.5799 78.243 64.3346 77.879 63.1495V63.0894C77.879 63.0894 77.851 62.9968 77.831 62.9551C77.363 61.5941 76.331 60.6034 75.087 60.3257C74.559 60.1868 74.015 60.1173 73.475 60.1173C68.143 60.0711 67.187 70.2787 71.267 73.7784H71.271Z" fill="#E9B376"/>
<path d="M70.8436 79.4584C70.5156 81.2129 72.4796 81.9258 72.4796 81.9258C75.6916 80.3102 76.2876 78.3613 76.2876 78.3613C73.6076 76.7456 74.3836 72.1719 74.3836 72.1719L73.8396 72.482L70.0156 73.3477C70.0156 73.3477 71.0756 75.704 71.2156 76.241C71.9396 79.0649 70.8476 79.4584 70.8476 79.4584H70.8436Z" fill="#E9B376"/>
<path d="M77.879 63.1226C77.879 63.1226 78.171 67.4279 74.627 69.3027C74.627 69.3027 73.107 73.7932 70.871 73.8533C67.819 73.9413 65.131 68.9231 66.187 63.8077C67.567 57.1693 76.255 56.6323 77.879 63.1226Z" fill="#263238"/>
<path d="M71.3904 58.5332C71.3904 58.5332 74.9504 57.4916 76.9224 59.1535C79.2224 61.0886 80.0984 63.0931 77.3864 66.1993C77.3864 66.1993 71.4064 63.9541 69.4144 64.4309C68.2504 64.7041 67.1104 65.0837 66.0024 65.5744C65.5704 61.0006 69.3984 57.5981 71.3904 58.5332Z" fill="#263238"/>
<path d="M76.4339 67.0228C76.4339 67.0228 75.5059 72.004 76.9619 76.2537L75.8419 76.5268L75.5459 75.3047C75.3419 75.3787 75.2579 76.8647 75.0019 76.9527C72.3979 77.8323 67.6899 79.1424 65.5579 77.7999C62.6139 75.9528 65.3099 69.7634 65.4379 66.1942C65.5659 62.625 66.9019 57.3476 71.3779 58.5281C75.8539 59.7132 76.4299 67.0228 76.4299 67.0228H76.4339Z" fill="#263238"/>
<path d="M79.3263 66.7109H75.9062" stroke="#263238" stroke-width="0.5" stroke-linecap="round" stroke-linejoin="round"/>
<path d="M67.8128 62.0836C68.1528 60.9819 67.9968 59.6764 67.3528 58.7737C66.7128 57.871 65.5887 57.4404 64.6247 57.7969C63.6607 58.1534 62.9487 59.3107 63.0367 60.4726C63.0967 61.2504 63.4848 61.9725 64.0288 62.4401C64.5728 62.9077 65.2527 63.1299 65.9247 63.1484C64.9247 63.9492 63.6808 64.3335 62.4688 64.2085C63.4007 65.0418 64.6487 65.3797 65.8047 65.1158C65.1527 65.6528 64.4288 66.0787 63.6688 66.3657C64.4968 66.8055 65.4768 66.8426 66.3288 66.4676C67.1808 66.0926 67.8927 65.3103 68.2607 64.3427L67.8047 62.0836H67.8128Z" fill="#263238"/>
<path d="M63.3709 150.971C60.7749 156.823 59.4549 171.965 58.0469 183.428L62.4949 184.256L68.5789 162.744L74.5949 137.639L76.3989 129.991L76.8749 151.212C74.8469 158.827 75.4709 171.016 75.3349 182.983L80.8509 183.631L86.2629 137.616C90.4469 109.178 83.2949 102.461 83.2949 102.461L70.5469 105.428C64.7749 116.789 66.1469 129.987 66.1469 129.987L63.3749 150.971H63.3709Z" fill="#407BFF"/>
<path opacity="0.2" d="M74.2561 137.585L74.5961 137.631L76.4001 129.984C76.4001 129.984 72.5321 122.341 73.7401 118.359C73.5681 118.637 69.4041 125.789 74.2561 137.585Z" fill="#263238"/>
<path opacity="0.2" d="M69.3125 108.13L86.0925 108.38C86.0925 108.38 85.8805 107.273 85.5965 106.76C85.3125 106.246 85.4765 106.76 85.4765 106.76L69.6005 107.449L69.3165 108.13H69.3125Z" fill="#263238"/>
<path d="M106.081 73.7701V67.2844C106.081 66.8169 105.753 66.4372 105.349 66.4372H99.3328C98.9448 66.4372 98.6328 66.0762 98.6328 65.6271V63.6226C98.6328 63.1736 98.9448 62.8125 99.3328 62.8125H112.593" stroke="#263238" stroke-miterlimit="10"/>
<path d="M99.3474 65.3984H112.359V60.2275H99.3474V65.3984Z" fill="#407BFF"/>
<path opacity="0.3" d="M99.3474 65.3984H112.359V60.2275H99.3474V65.3984Z" fill="white"/>
<path d="M106.318 82.0703H105.854C105.062 82.0703 104.422 81.3296 104.422 80.413V70.0434H107.75V80.413C107.75 81.3296 107.11 82.0703 106.318 82.0703Z" fill="#263238"/>
<g opacity="0.3">
<path d="M99.3518 62.2698C99.5278 62.1911 99.8518 62.3393 99.9358 62.5337C100.024 62.7281 100.044 62.955 100.124 63.154C100.336 63.6679 100.996 63.8345 101.376 63.4781C101.66 63.2096 101.82 62.7096 102.18 62.6679C102.488 62.6309 102.732 62.9642 102.852 63.2929C102.972 63.6216 103.044 63.9966 103.272 64.2373C103.48 64.4549 103.772 64.515 104.052 64.5289C104.428 64.5428 104.824 64.478 105.12 64.2095C105.388 63.9641 105.532 63.5892 105.668 63.2281C105.804 62.867 105.948 62.4874 106.216 62.242C106.48 61.9967 106.908 61.9319 107.148 62.2096C107.324 62.4133 107.356 62.7328 107.508 62.9596C107.652 63.1725 107.904 63.2836 108.132 63.2327C108.36 63.1818 108.56 62.9735 108.624 62.7142C108.676 62.5013 108.656 62.242 108.8 62.0939C109 61.8902 109.332 62.1263 109.412 62.418C109.492 62.7142 109.424 63.029 109.44 63.3392C109.464 63.8021 109.7 64.2604 110.068 64.441C110.436 64.6215 110.92 64.4687 111.112 64.0614C111.284 63.6957 111.208 63.2188 111.392 62.8577C111.556 62.5337 112.02 62.2744 112.324 62.3994L112.356 60.2422H99.3438V62.2791L99.3518 62.2698Z" fill="white"/>
</g>
<path d="M81.5073 79.0746C81.5073 79.0746 77.2553 77.3201 70.8473 79.4635C64.4393 81.6022 64.1953 84.764 64.1953 84.764C64.1953 84.764 68.2593 95.4207 68.8993 107.485L85.6033 106.763C85.6033 106.763 87.5953 89.7313 81.5073 79.0793V79.0746Z" fill="#263238"/>
<path opacity="0.2" d="M64.1875 84.7591C64.1875 84.7591 68.2515 95.4158 68.8915 107.48L85.5955 106.758C85.7955 104.795 85.8995 102.818 85.9035 100.841C85.9355 97.948 85.7795 95.0547 85.4395 92.1845C84.8835 87.7219 83.7355 82.9537 81.5035 79.0512C81.5035 79.0512 77.2515 77.2967 70.8435 79.44C64.4355 81.5788 64.1915 84.7591 64.1915 84.7591H64.1875Z" fill="white"/>
<path opacity="0.2" d="M81.7344 92.9299C81.7344 92.9299 82.4264 97.837 85.9184 100.86C85.9504 97.9666 85.7944 95.0733 85.4544 92.2031L81.7344 92.9299Z" fill="#263238"/>
<path d="M100.196 78.7307L102.299 75.1152C102.299 75.1152 102.62 73.5459 103.028 73.1894C103.436 72.833 107.48 70.8377 107.968 70.8516C108.456 70.8609 108.432 74.4995 107.968 75.1152C107.504 75.7356 104.927 77.0549 104.247 77.1938C103.567 77.3327 103.904 77.1938 103.904 77.1938L102.043 81.499L100.188 78.7353L100.196 78.7307Z" fill="#E9B376"/>
<path d="M81.5055 79.075C86.0175 81.2601 90.3695 83.8617 94.5175 86.8523L101.318 76.0938C101.318 76.0938 103.15 76.7511 103.826 80.4407C103.826 80.4407 100.334 95.8285 95.7975 97.3562C91.2615 98.8838 81.7255 92.9074 81.7255 92.9074C81.7255 92.9074 78.9655 84.9126 81.5015 79.0704L81.5055 79.075Z" fill="#263238"/>
<path opacity="0.2" d="M81.5055 79.075C86.0175 81.2601 90.3695 83.8617 94.5175 86.8523L101.318 76.0938C101.318 76.0938 103.15 76.7511 103.826 80.4407C103.826 80.4407 100.334 95.8285 95.7975 97.3562C91.2615 98.8838 81.7255 92.9074 81.7255 92.9074C81.7255 92.9074 78.9655 84.9126 81.5015 79.0704L81.5055 79.075Z" fill="white"/>
<path opacity="0.2" d="M70.0156 92.0977C70.0156 92.0977 71.9116 92.8801 73.6076 90.8663C75.3036 88.8526 76.2716 82.4688 76.2716 82.4688L70.0156 92.0977Z" fill="#263238"/>
<path d="M77.1739 78.375C77.1739 78.375 75.5099 91.5315 70.1299 92.1009C64.7499 92.6657 62.3419 82.2497 63.2499 81.0183C64.1579 79.7869 71.0579 78.287 77.1739 78.3796V78.375Z" fill="#263238"/>
<path opacity="0.3" d="M77.1739 78.375C77.1739 78.375 75.5099 91.5315 70.1299 92.1009C64.7499 92.6657 62.3419 82.2497 63.2499 81.0183C64.1579 79.7869 71.0579 78.287 77.1739 78.3796V78.375Z" fill="white"/>
<path d="M76.431 68.0651C76.431 67.3938 75.967 66.2597 75.035 66.4124C74.107 66.5698 73.575 69.2456 75.879 69.8427C76.227 69.9307 76.427 69.477 76.427 68.0605L76.431 68.0651Z" fill="#E9B376"/>
<path opacity="0.2" d="M94.5156 86.8498C94.5156 86.8498 96.0996 88.1229 96.2316 88.7015C96.2316 88.7015 96.1556 87.1692 94.8396 86.3359L94.5156 86.8498Z" fill="#263238"/>
</g>
<defs>
<clipPath id="clip0_1_26004">
<rect width="300" height="200" fill="white"/>
</clipPath>
</defs>
</svg>
