<svg width="240" height="200" viewBox="0 0 240 200" fill="none" xmlns="http://www.w3.org/2000/svg">
<g clip-path="url(#clip0_1_26721)">
<path d="M240 175.758H0V175.892H240V175.758Z" fill="#EBEBEB"/>
<path d="M215.952 184.398H200.055V184.533H215.952V184.398Z" fill="#EBEBEB"/>
<path d="M158.984 185.859H154.812V185.994H158.984V185.859Z" fill="#EBEBEB"/>
<path d="M199.571 179.414H190.359V179.548H199.571V179.414Z" fill="#EBEBEB"/>
<path d="M45.9109 180.32H25.1797V180.455H45.9109V180.32Z" fill="#EBEBEB"/>
<path d="M53.2259 180.32H50.1875V180.455H53.2259V180.32Z" fill="#EBEBEB"/>
<path d="M108.076 182.586H63.1094V182.72H108.076V182.586Z" fill="#EBEBEB"/>
<path d="M113.765 151.821H21.0767C19.5647 151.821 18.3359 150.447 18.3359 148.756V3.06487C18.3359 1.37409 19.5647 0 21.0767 0H113.765C115.277 0 116.506 1.37409 116.506 3.06487V148.756C116.506 150.447 115.277 151.821 113.765 151.821ZM21.0767 0.134189C19.6319 0.134189 18.4559 1.44924 18.4559 3.06487V148.756C18.4559 150.372 19.6319 151.687 21.0767 151.687H113.765C115.21 151.687 116.386 150.372 116.386 148.756V3.06487C116.386 1.44924 115.21 0.134189 113.765 0.134189H21.0767Z" fill="#EBEBEB"/>
<path d="M217.585 151.821H124.897C123.385 151.821 122.156 150.447 122.156 148.756V3.06487C122.156 1.37409 123.385 0 124.897 0H217.585C219.097 0 220.326 1.37409 220.326 3.06487V148.756C220.326 150.447 219.097 151.821 217.585 151.821ZM124.897 0.134189C123.452 0.134189 122.276 1.44924 122.276 3.06487V148.756C122.276 150.372 123.452 151.687 124.897 151.687H217.585C219.03 151.687 220.206 150.372 220.206 148.756V3.06487C220.206 1.44924 219.03 0.134189 217.585 0.134189H124.897Z" fill="#EBEBEB"/>
<path d="M152.958 124.086H207.832C207.832 126.34 206.248 128.187 204.232 128.289C198.332 128.584 189.26 129.631 186.385 133.281C181.024 140.081 181.542 163.972 187.964 169.506C189.98 171.24 195.851 174.686 195.851 174.686H164.934C164.934 174.686 170.42 171.17 172.326 169.506C178.715 163.929 178.897 140.049 173.512 133.281C170.747 129.808 162.246 128.686 156.539 128.332C154.528 128.208 152.953 126.34 152.953 124.086H152.958Z" fill="#F5F5F5"/>
<path d="M201.031 128.516C195.458 129.015 188.777 130.249 186.386 133.282C185.676 134.178 185.076 135.381 184.572 136.798H175.356C174.837 135.381 174.228 134.178 173.513 133.282C171.113 130.265 164.373 129.02 158.906 128.516H201.031Z" fill="#E6E6E6"/>
<path d="M176.33 124.116L177.079 114.578H166.26L165.516 124.116H176.33Z" fill="#EBEBEB"/>
<path d="M176.328 124.116L177.077 114.578H177.658L176.914 124.116H176.328Z" fill="#E0E0E0"/>
<path d="M175.307 123.137L175.897 115.547H167.286L166.695 123.137H175.307Z" fill="#F0F0F0"/>
<path d="M174.648 122.516L175.143 116.172H167.952L167.453 122.516H174.648Z" fill="#FAFAFA"/>
<path d="M179.83 124.082H190.697L189.492 108.672H178.625L179.83 124.082Z" fill="#E6E6E6"/>
<path d="M179.833 124.082H179.314L178.109 108.672H178.628L179.833 124.082Z" fill="#E0E0E0"/>
<path d="M180.819 122.507H189.469L188.509 110.242H179.859L180.819 122.507Z" fill="#F0F0F0"/>
<path d="M181.458 121.497H188.682L187.88 111.25H180.656L181.458 121.497Z" fill="#FAFAFA"/>
<path d="M185.104 115.865C184.615 116.413 183.818 116.413 183.328 115.865C182.839 115.318 182.839 114.427 183.328 113.879C183.818 113.332 184.615 113.332 185.104 113.879C185.594 114.427 185.594 115.318 185.104 115.865Z" fill="#EBEBEB"/>
<path d="M184.571 117.591C184.931 117.188 185.512 117.188 185.872 117.591C186.453 118.24 186.04 119.346 185.219 119.346C184.398 119.346 183.99 118.235 184.566 117.591H184.571Z" fill="#F0F0F0"/>
<path d="M92.4921 171.532H103.076L97.5129 120.863C97.2777 118.716 95.5305 116.977 93.6153 116.977H47.4297L54.1977 171.532H92.4873H92.4921Z" fill="#F5F5F5"/>
<path d="M58.9236 171.532H48.3396L42.7764 120.863C42.5412 118.716 43.9044 116.977 45.8244 116.977H49.4628C51.3828 116.977 53.1252 118.716 53.3604 120.863L58.9236 171.532Z" fill="#F0F0F0"/>
<path d="M62.8242 171.473L60.909 146.965C60.8226 145.87 60.069 144.989 59.0946 144.85L58.3074 144.737C57.0018 144.549 55.9842 143.368 55.869 141.903L55.5186 137.432C55.3746 135.601 56.6658 134.023 58.3122 134.023H40.6242C38.9778 134.023 37.6914 135.601 37.8306 137.432L38.181 141.903C38.2962 143.374 39.309 144.549 40.6194 144.737L41.4066 144.85C42.381 144.989 43.1394 145.87 43.221 146.965L45.1362 171.473C45.2754 173.26 46.6146 174.629 48.2178 174.629H65.9058C64.3026 174.629 62.9634 173.26 62.8242 171.473Z" fill="#E6E6E6"/>
<path d="M111.498 140.832C111.801 136.983 114.681 134.031 118.137 134.031H102.738C99.2821 134.031 96.4021 136.983 96.0997 140.832L94.5781 160.257H109.977L111.498 140.832Z" fill="#E6E6E6"/>
<path d="M124.976 134.031H118.136C114.68 134.031 111.8 136.983 111.498 140.832L109.976 160.257H73.3039L71.7823 140.832C71.4799 136.983 68.5999 134.031 65.1439 134.031H58.3039C56.6575 134.031 55.3711 135.609 55.5103 137.44L55.8607 141.911C55.9759 143.382 56.9887 144.557 58.2991 144.745L59.0863 144.858C60.0607 144.997 60.8191 145.877 60.9007 146.972L62.8159 171.481C62.9551 173.268 64.2943 174.637 65.8975 174.637H117.368C118.971 174.637 120.31 173.268 120.45 171.481L122.365 146.972C122.451 145.877 123.205 144.997 124.179 144.858L124.966 144.745C126.272 144.557 127.29 143.376 127.405 141.911L127.755 137.44C127.899 135.609 126.608 134.031 124.962 134.031H124.976Z" fill="#F0F0F0"/>
<path d="M186.949 46.89C186.949 46.89 187.486 42.9449 184.909 40.4114C182.336 37.8833 182.562 36.375 183.296 36.1818C184.03 35.9885 184.712 38.5166 185.84 39.2091C185.84 39.2091 185.874 35.6021 184.726 34.2763C183.579 32.9505 182.974 29.526 184.069 29.467C185.163 29.4079 185.274 31.5013 185.504 32.9827C185.734 34.4641 186.949 36.5521 186.949 36.5521C186.949 36.5521 187.189 33.3262 187.928 31.9951C188.672 30.6693 186.69 27.6313 187.453 26.3001C188.216 24.9743 189.574 27.5024 189.459 30.3472C189.344 33.192 187.65 36.2301 188.043 39.2037C188.043 39.2037 188.792 37.1157 189.464 36.9278C190.136 36.74 190.813 35.3552 191.269 34.8452C191.72 34.3353 192.286 36.1066 191.269 37.7491C190.251 39.3915 187.65 43.7929 188.043 47.3516L186.944 46.8846L186.949 46.89Z" fill="#E6E6E6"/>
<path d="M185.41 45.0938L184.565 51.0088C184.306 52.8337 185.568 54.487 187.22 54.487H188.117C189.773 54.487 191.035 52.8337 190.771 51.0088L189.927 45.0938H185.4H185.41Z" fill="#E6E6E6"/>
<path d="M198.156 52.3047H138.578V55.7292H198.156V52.3047Z" fill="#E0E0E0"/>
<path d="M143.946 39.6875H141.32V52.3066H143.946V39.6875Z" fill="#EBEBEB"/>
<path d="M156.641 39.6875H154.016V52.3066H156.641V39.6875Z" fill="#EBEBEB"/>
<path d="M171.048 39.3685L168.461 39.8672L170.378 52.3029L172.965 51.8042L171.048 39.3685Z" fill="#EBEBEB"/>
<path d="M147.204 41.3516H144.578V52.3067H147.204V41.3516Z" fill="#EBEBEB"/>
<path d="M153.235 41.3516H150.609V52.3067H153.235V41.3516Z" fill="#EBEBEB"/>
<path d="M168.454 41.3516H165.828V52.3067H168.454V41.3516Z" fill="#EBEBEB"/>
<path d="M160.087 40.9646L157.523 41.6016L159.649 52.2958L162.212 51.6588L160.087 40.9646Z" fill="#EBEBEB"/>
<path d="M149.467 39.0625H148.156V52.3042H149.467V39.0625Z" fill="#EBEBEB"/>
<path d="M165.076 39.0625H163.766V52.3042H165.076V39.0625Z" fill="#EBEBEB"/>
<path d="M138.579 81.2813L198.156 81.2812V77.8568L138.579 77.8568V81.2813Z" fill="#E0E0E0"/>
<path d="M192.788 77.8594H195.414V65.2403H192.788V77.8594Z" fill="#EBEBEB"/>
<path d="M180.093 77.8594H182.719V65.2403H180.093V77.8594Z" fill="#EBEBEB"/>
<path d="M163.772 77.3528L166.359 77.8516L168.276 65.4159L165.689 64.9171L163.772 77.3528Z" fill="#EBEBEB"/>
<path d="M189.531 77.8594H192.156V66.9042H189.531V77.8594Z" fill="#EBEBEB"/>
<path d="M183.499 77.8594H186.125V66.9042H183.499V77.8594Z" fill="#EBEBEB"/>
<path d="M168.273 77.8594H170.898V66.9042H168.273V77.8594Z" fill="#EBEBEB"/>
<path d="M174.531 77.2068L177.094 77.8438L179.219 67.1495L176.656 66.5125L174.531 77.2068Z" fill="#EBEBEB"/>
<path d="M187.268 77.8594H188.578V64.6176H187.268V77.8594Z" fill="#EBEBEB"/>
<path d="M171.658 77.8594H172.969V64.6176H171.658V77.8594Z" fill="#EBEBEB"/>
<path d="M144.299 77.75H157.086V67.8791H144.299V77.75Z" fill="#EBEBEB"/>
<path d="M99.917 32.7266H45.8594V99.6169H99.917V32.7266Z" fill="#E9E9E9"/>
<path d="M97.6744 35.375H48.2344V97.1017H97.6744V35.375Z" fill="#F5F5F5"/>
<path d="M62.2072 35.375L48.2344 93.8919V62.2127L54.628 35.375H62.2072Z" fill="white"/>
<path d="M68.4527 35.375L53.7167 97.1017H50.9375L65.6735 35.375H68.4527Z" fill="white"/>
<path d="M97.6776 52.2031V83.8877L94.548 97.0972H86.9688L97.6776 52.2031Z" fill="white"/>
<path d="M73.8497 32.7266H71.9297V99.6169H73.8497V32.7266Z" fill="#E9E9E9"/>
<path d="M98.8769 46.2969H46.7969V48.4439H98.8769V46.2969Z" fill="#E9E9E9"/>
<path d="M47.6284 103.425C47.6284 104.171 47.0908 104.773 46.4236 104.773C45.7564 104.773 45.2188 104.171 45.2188 103.425C45.2188 102.679 45.7564 102.078 46.4236 102.078C47.0908 102.078 47.6284 102.679 47.6284 103.425Z" fill="#E0E0E0"/>
<path d="M100.863 103.386C100.863 104.132 100.325 104.734 99.6579 104.734C98.9907 104.734 98.4531 104.132 98.4531 103.386C98.4531 102.64 98.9907 102.039 99.6579 102.039C100.325 102.039 100.863 102.64 100.863 103.386Z" fill="#E0E0E0"/>
<path d="M120.005 200.004C171.404 200.004 213.072 197.283 213.072 193.928C213.072 190.572 171.404 187.852 120.005 187.852C68.6051 187.852 26.9375 190.572 26.9375 193.928C26.9375 197.283 68.6051 200.004 120.005 200.004Z" fill="#F5F5F5"/>
<path d="M88.6138 188.203H60.5386C60.1807 188.203 59.8906 188.528 59.8906 188.928V192.696C59.8906 193.096 60.1807 193.42 60.5386 193.42H88.6138C88.9717 193.42 89.2618 193.096 89.2618 192.696V188.928C89.2618 188.528 88.9717 188.203 88.6138 188.203Z" fill="#407BFF"/>
<path opacity="0.5" d="M89.2618 188.928V192.696C89.2618 193.098 88.969 193.42 88.609 193.42H60.5386C60.1786 193.42 59.8906 193.098 59.8906 192.696V188.928C59.8906 188.525 60.1786 188.203 60.5386 188.203H88.609C88.969 188.203 89.2618 188.525 89.2618 188.928Z" fill="white"/>
<path opacity="0.2" d="M85.3758 193.094C85.2462 193.094 85.1406 192.976 85.1406 192.831V188.794C85.1406 188.649 85.2462 188.531 85.3758 188.531C85.5054 188.531 85.611 188.649 85.611 188.794V192.831C85.611 192.976 85.5054 193.094 85.3758 193.094Z" fill="black"/>
<path opacity="0.2" d="M82.0243 193.094C81.8947 193.094 81.7891 192.976 81.7891 192.831V188.794C81.7891 188.649 81.8947 188.531 82.0243 188.531C82.1539 188.531 82.2595 188.649 82.2595 188.794V192.831C82.2595 192.976 82.1539 193.094 82.0243 193.094Z" fill="black"/>
<path opacity="0.2" d="M78.3055 193.094C78.1759 193.094 78.0703 192.976 78.0703 192.831V188.794C78.0703 188.649 78.1759 188.531 78.3055 188.531C78.4351 188.531 78.5407 188.649 78.5407 188.794V192.831C78.5407 192.976 78.4351 193.094 78.3055 193.094Z" fill="black"/>
<path opacity="0.2" d="M88.1258 193.094C87.9962 193.094 87.8906 192.976 87.8906 192.831V188.794C87.8906 188.649 87.9962 188.531 88.1258 188.531C88.2554 188.531 88.361 188.649 88.361 188.794V192.831C88.361 192.976 88.2554 193.094 88.1258 193.094Z" fill="black"/>
<path opacity="0.2" d="M63.7665 188.523C63.8961 188.523 64.0016 188.642 64.0016 188.786V192.823C64.0016 192.968 63.8961 193.086 63.7665 193.086C63.6369 193.086 63.5312 192.968 63.5312 192.823V188.786C63.5312 188.642 63.6369 188.523 63.7665 188.523Z" fill="black"/>
<path opacity="0.2" d="M67.1258 188.523C67.2554 188.523 67.361 188.642 67.361 188.786V192.823C67.361 192.968 67.2554 193.086 67.1258 193.086C66.9962 193.086 66.8906 192.968 66.8906 192.823V188.786C66.8906 188.642 66.9962 188.523 67.1258 188.523Z" fill="black"/>
<path opacity="0.2" d="M70.8446 188.523C70.9742 188.523 71.0798 188.642 71.0798 188.786V192.823C71.0798 192.968 70.9742 193.086 70.8446 193.086C70.715 193.086 70.6094 192.968 70.6094 192.823V188.786C70.6094 188.642 70.715 188.523 70.8446 188.523Z" fill="black"/>
<path opacity="0.2" d="M61.0164 188.523C61.146 188.523 61.2516 188.642 61.2516 188.786V192.823C61.2516 192.968 61.146 193.086 61.0164 193.086C60.8868 193.086 60.7812 192.968 60.7812 192.823V188.786C60.7812 188.642 60.8868 188.523 61.0164 188.523Z" fill="black"/>
<path opacity="0.2" d="M74.579 193.094C74.4494 193.094 74.3438 192.976 74.3438 192.831V188.794C74.3438 188.649 74.4494 188.531 74.579 188.531C74.7086 188.531 74.8142 188.649 74.8142 188.794V192.831C74.8142 192.976 74.7086 193.094 74.579 193.094Z" fill="black"/>
<path d="M89.4576 182.906H61.3824C61.0245 182.906 60.7344 183.231 60.7344 183.631V187.399C60.7344 187.799 61.0245 188.124 61.3824 188.124H89.4576C89.8155 188.124 90.1056 187.799 90.1056 187.399V183.631C90.1056 183.231 89.8155 182.906 89.4576 182.906Z" fill="#407BFF"/>
<path opacity="0.5" d="M89.4528 182.906H61.3824C61.0245 182.906 60.7344 183.231 60.7344 183.631V187.399C60.7344 187.799 61.0245 188.124 61.3824 188.124H89.4528C89.8107 188.124 90.1008 187.799 90.1008 187.399V183.631C90.1008 183.231 89.8107 182.906 89.4528 182.906Z" fill="white"/>
<path opacity="0.2" d="M86.2196 187.797C86.09 187.797 85.9844 187.679 85.9844 187.534V183.497C85.9844 183.352 86.09 183.234 86.2196 183.234C86.3492 183.234 86.4548 183.352 86.4548 183.497V187.534C86.4548 187.679 86.3492 187.797 86.2196 187.797Z" fill="black"/>
<path opacity="0.2" d="M82.868 187.797C82.7384 187.797 82.6328 187.679 82.6328 187.534V183.497C82.6328 183.352 82.7384 183.234 82.868 183.234C82.9976 183.234 83.1032 183.352 83.1032 183.497V187.534C83.1032 187.679 82.9976 187.797 82.868 187.797Z" fill="black"/>
<path opacity="0.2" d="M79.1493 187.797C79.0197 187.797 78.9141 187.679 78.9141 187.534V183.497C78.9141 183.352 79.0197 183.234 79.1493 183.234C79.2789 183.234 79.3845 183.352 79.3845 183.497V187.534C79.3845 187.679 79.2789 187.797 79.1493 187.797Z" fill="black"/>
<path opacity="0.2" d="M88.9696 187.797C88.84 187.797 88.7344 187.679 88.7344 187.534V183.497C88.7344 183.352 88.84 183.234 88.9696 183.234C89.0992 183.234 89.2048 183.352 89.2048 183.497V187.534C89.2048 187.679 89.0992 187.797 88.9696 187.797Z" fill="black"/>
<path opacity="0.2" d="M64.6102 183.234C64.7398 183.234 64.8454 183.352 64.8454 183.497V187.534C64.8454 187.679 64.7398 187.797 64.6102 187.797C64.4806 187.797 64.375 187.679 64.375 187.534V183.497C64.375 183.352 64.4806 183.234 64.6102 183.234Z" fill="black"/>
<path opacity="0.2" d="M67.9696 183.234C68.0992 183.234 68.2048 183.352 68.2048 183.497V187.534C68.2048 187.679 68.0992 187.797 67.9696 187.797C67.84 187.797 67.7344 187.679 67.7344 187.534V183.497C67.7344 183.352 67.84 183.234 67.9696 183.234Z" fill="black"/>
<path opacity="0.2" d="M71.6883 183.234C71.8179 183.234 71.9235 183.352 71.9235 183.497V187.534C71.9235 187.679 71.8179 187.797 71.6883 187.797C71.5587 187.797 71.4531 187.679 71.4531 187.534V183.497C71.4531 183.352 71.5587 183.234 71.6883 183.234Z" fill="black"/>
<path opacity="0.2" d="M61.8602 183.234C61.9898 183.234 62.0954 183.352 62.0954 183.497V187.534C62.0954 187.679 61.9898 187.797 61.8602 187.797C61.7306 187.797 61.625 187.679 61.625 187.534V183.497C61.625 183.352 61.7306 183.234 61.8602 183.234Z" fill="black"/>
<path opacity="0.2" d="M75.4227 187.797C75.2931 187.797 75.1875 187.679 75.1875 187.534V183.497C75.1875 183.352 75.2931 183.234 75.4227 183.234C75.5523 183.234 75.6579 183.352 75.6579 183.497V187.534C75.6579 187.679 75.5523 187.797 75.4227 187.797Z" fill="black"/>
<path d="M90.3091 177.617H62.2339C61.8761 177.617 61.5859 177.942 61.5859 178.342V182.11C61.5859 182.51 61.8761 182.834 62.2339 182.834H90.3091C90.667 182.834 90.9571 182.51 90.9571 182.11V178.342C90.9571 177.942 90.667 177.617 90.3091 177.617Z" fill="#407BFF"/>
<path opacity="0.5" d="M90.3121 177.617H62.2417C61.8839 177.617 61.5938 177.942 61.5938 178.342V182.11C61.5938 182.51 61.8839 182.834 62.2417 182.834H90.3121C90.67 182.834 90.9601 182.51 90.9601 182.11V178.342C90.9601 177.942 90.67 177.617 90.3121 177.617Z" fill="white"/>
<path opacity="0.2" d="M87.079 182.508C86.9494 182.508 86.8438 182.39 86.8438 182.245V178.208C86.8438 178.063 86.9494 177.945 87.079 177.945C87.2086 177.945 87.3142 178.063 87.3142 178.208V182.245C87.3142 182.39 87.2086 182.508 87.079 182.508Z" fill="black"/>
<path opacity="0.2" d="M83.7274 182.508C83.5978 182.508 83.4922 182.39 83.4922 182.245V178.208C83.4922 178.063 83.5978 177.945 83.7274 177.945C83.857 177.945 83.9626 178.063 83.9626 178.208V182.245C83.9626 182.39 83.857 182.508 83.7274 182.508Z" fill="black"/>
<path opacity="0.2" d="M80.0086 182.508C79.879 182.508 79.7734 182.39 79.7734 182.245V178.208C79.7734 178.063 79.879 177.945 80.0086 177.945C80.1382 177.945 80.2438 178.063 80.2438 178.208V182.245C80.2438 182.39 80.1382 182.508 80.0086 182.508Z" fill="black"/>
<path opacity="0.2" d="M89.8289 182.508C89.6993 182.508 89.5938 182.39 89.5938 182.245V178.208C89.5938 178.063 89.6993 177.945 89.8289 177.945C89.9585 177.945 90.0641 178.063 90.0641 178.208V182.245C90.0641 182.39 89.9585 182.508 89.8289 182.508Z" fill="black"/>
<path opacity="0.2" d="M65.4696 177.945C65.5992 177.945 65.7048 178.063 65.7048 178.208V182.245C65.7048 182.39 65.5992 182.508 65.4696 182.508C65.34 182.508 65.2344 182.39 65.2344 182.245V178.208C65.2344 178.063 65.34 177.945 65.4696 177.945Z" fill="black"/>
<path opacity="0.2" d="M68.829 177.945C68.9586 177.945 69.0641 178.063 69.0641 178.208V182.245C69.0641 182.39 68.9586 182.508 68.829 182.508C68.6994 182.508 68.5938 182.39 68.5938 182.245V178.208C68.5938 178.063 68.6994 177.945 68.829 177.945Z" fill="black"/>
<path opacity="0.2" d="M72.5477 177.945C72.6773 177.945 72.7829 178.063 72.7829 178.208V182.245C72.7829 182.39 72.6773 182.508 72.5477 182.508C72.4181 182.508 72.3125 182.39 72.3125 182.245V178.208C72.3125 178.063 72.4181 177.945 72.5477 177.945Z" fill="black"/>
<path opacity="0.2" d="M62.7196 177.945C62.8492 177.945 62.9548 178.063 62.9548 178.208V182.245C62.9548 182.39 62.8492 182.508 62.7196 182.508C62.59 182.508 62.4844 182.39 62.4844 182.245V178.208C62.4844 178.063 62.59 177.945 62.7196 177.945Z" fill="black"/>
<path opacity="0.2" d="M76.2743 182.508C76.1447 182.508 76.0391 182.39 76.0391 182.245V178.208C76.0391 178.063 76.1447 177.945 76.2743 177.945C76.4039 177.945 76.5095 178.063 76.5095 178.208V182.245C76.5095 182.39 76.4039 182.508 76.2743 182.508Z" fill="black"/>
<path d="M86.8326 172.32H58.7574C58.3995 172.32 58.1094 172.645 58.1094 173.045V176.813C58.1094 177.213 58.3995 177.538 58.7574 177.538H86.8326C87.1905 177.538 87.4806 177.213 87.4806 176.813V173.045C87.4806 172.645 87.1905 172.32 86.8326 172.32Z" fill="#407BFF"/>
<path opacity="0.5" d="M86.8326 172.32H58.7574C58.3995 172.32 58.1094 172.645 58.1094 173.045V176.818C58.1094 177.219 58.3995 177.543 58.7574 177.543H86.8326C87.1905 177.543 87.4806 177.219 87.4806 176.818V173.045C87.4806 172.645 87.1905 172.32 86.8326 172.32Z" fill="white"/>
<path opacity="0.2" d="M83.5946 177.211C83.465 177.211 83.3594 177.093 83.3594 176.948V172.911C83.3594 172.767 83.465 172.648 83.5946 172.648C83.7242 172.648 83.8298 172.767 83.8298 172.911V176.948C83.8298 177.093 83.7242 177.211 83.5946 177.211Z" fill="black"/>
<path opacity="0.2" d="M80.243 177.211C80.1134 177.211 80.0078 177.093 80.0078 176.948V172.911C80.0078 172.767 80.1134 172.648 80.243 172.648C80.3726 172.648 80.4782 172.767 80.4782 172.911V176.948C80.4782 177.093 80.3726 177.211 80.243 177.211Z" fill="black"/>
<path opacity="0.2" d="M76.5321 177.211C76.4025 177.211 76.2969 177.093 76.2969 176.948V172.911C76.2969 172.767 76.4025 172.648 76.5321 172.648C76.6617 172.648 76.7673 172.767 76.7673 172.911V176.948C76.7673 177.093 76.6617 177.211 76.5321 177.211Z" fill="black"/>
<path opacity="0.2" d="M86.3602 177.211C86.2306 177.211 86.125 177.093 86.125 176.948V172.911C86.125 172.767 86.2306 172.648 86.3602 172.648C86.4898 172.648 86.5954 172.767 86.5954 172.911V176.948C86.5954 177.093 86.4898 177.211 86.3602 177.211Z" fill="black"/>
<path opacity="0.2" d="M61.9852 172.648C62.1148 172.648 62.2204 172.767 62.2204 172.911V176.948C62.2204 177.093 62.1148 177.211 61.9852 177.211C61.8556 177.211 61.75 177.093 61.75 176.948V172.911C61.75 172.767 61.8556 172.648 61.9852 172.648Z" fill="black"/>
<path opacity="0.2" d="M65.3446 172.648C65.4742 172.648 65.5798 172.767 65.5798 172.911V176.948C65.5798 177.093 65.4742 177.211 65.3446 177.211C65.215 177.211 65.1094 177.093 65.1094 176.948V172.911C65.1094 172.767 65.215 172.648 65.3446 172.648Z" fill="black"/>
<path opacity="0.2" d="M69.0633 172.648C69.1929 172.648 69.2985 172.767 69.2985 172.911V176.948C69.2985 177.093 69.1929 177.211 69.0633 177.211C68.9337 177.211 68.8281 177.093 68.8281 176.948V172.911C68.8281 172.767 68.9337 172.648 69.0633 172.648Z" fill="black"/>
<path opacity="0.2" d="M59.2352 172.648C59.3648 172.648 59.4704 172.767 59.4704 172.911V176.948C59.4704 177.093 59.3648 177.211 59.2352 177.211C59.1056 177.211 59 177.093 59 176.948V172.911C59 172.767 59.1056 172.648 59.2352 172.648Z" fill="black"/>
<path opacity="0.2" d="M72.7977 177.211C72.6681 177.211 72.5625 177.093 72.5625 176.948V172.911C72.5625 172.767 72.6681 172.648 72.7977 172.648C72.9273 172.648 73.0329 172.767 73.0329 172.911V176.948C73.0329 177.093 72.9273 177.211 72.7977 177.211Z" fill="black"/>
<path d="M88.1607 167.031H60.0855C59.7276 167.031 59.4375 167.356 59.4375 167.756V171.524C59.4375 171.924 59.7276 172.249 60.0855 172.249H88.1607C88.5186 172.249 88.8087 171.924 88.8087 171.524V167.756C88.8087 167.356 88.5186 167.031 88.1607 167.031Z" fill="#407BFF"/>
<path opacity="0.5" d="M88.8009 167.764V171.532C88.8009 171.929 88.5081 172.256 88.1529 172.256H60.0777C59.7225 172.256 59.4297 171.929 59.4297 171.532V167.764C59.4297 167.361 59.7225 167.039 60.0777 167.039H88.1529C88.5081 167.039 88.8009 167.361 88.8009 167.764Z" fill="white"/>
<path opacity="0.2" d="M84.9227 171.93C84.7931 171.93 84.6875 171.812 84.6875 171.667V167.63C84.6875 167.485 84.7931 167.367 84.9227 167.367C85.0523 167.367 85.1579 167.485 85.1579 167.63V171.667C85.1579 171.812 85.0523 171.93 84.9227 171.93Z" fill="black"/>
<path opacity="0.2" d="M81.5711 171.93C81.4415 171.93 81.3359 171.812 81.3359 171.667V167.63C81.3359 167.485 81.4415 167.367 81.5711 167.367C81.7007 167.367 81.8063 167.485 81.8063 167.63V171.667C81.8063 171.812 81.7007 171.93 81.5711 171.93Z" fill="black"/>
<path opacity="0.2" d="M77.8602 171.93C77.7306 171.93 77.625 171.812 77.625 171.667V167.63C77.625 167.485 77.7306 167.367 77.8602 167.367C77.9898 167.367 78.0954 167.485 78.0954 167.63V171.667C78.0954 171.812 77.9898 171.93 77.8602 171.93Z" fill="black"/>
<path opacity="0.2" d="M87.6883 171.93C87.5587 171.93 87.4531 171.812 87.4531 171.667V167.63C87.4531 167.485 87.5587 167.367 87.6883 167.367C87.8179 167.367 87.9235 167.485 87.9235 167.63V171.667C87.9235 171.812 87.8179 171.93 87.6883 171.93Z" fill="black"/>
<path opacity="0.2" d="M63.3133 167.359C63.4429 167.359 63.5485 167.477 63.5485 167.622V171.659C63.5485 171.804 63.4429 171.922 63.3133 171.922C63.1837 171.922 63.0781 171.804 63.0781 171.659V167.622C63.0781 167.477 63.1837 167.359 63.3133 167.359Z" fill="black"/>
<path opacity="0.2" d="M66.6727 167.359C66.8023 167.359 66.9079 167.477 66.9079 167.622V171.659C66.9079 171.804 66.8023 171.922 66.6727 171.922C66.5431 171.922 66.4375 171.804 66.4375 171.659V167.622C66.4375 167.477 66.5431 167.359 66.6727 167.359Z" fill="black"/>
<path opacity="0.2" d="M70.3914 167.359C70.521 167.359 70.6266 167.477 70.6266 167.622V171.659C70.6266 171.804 70.521 171.922 70.3914 171.922C70.2618 171.922 70.1562 171.804 70.1562 171.659V167.622C70.1562 167.477 70.2618 167.359 70.3914 167.359Z" fill="black"/>
<path opacity="0.2" d="M60.5633 167.359C60.6929 167.359 60.7985 167.477 60.7985 167.622V171.659C60.7985 171.804 60.6929 171.922 60.5633 171.922C60.4337 171.922 60.3281 171.804 60.3281 171.659V167.622C60.3281 167.477 60.4337 167.359 60.5633 167.359Z" fill="black"/>
<path opacity="0.2" d="M74.118 171.93C73.9884 171.93 73.8828 171.812 73.8828 171.667V167.63C73.8828 167.485 73.9884 167.367 74.118 167.367C74.2476 167.367 74.3532 167.485 74.3532 167.63V171.667C74.3532 171.812 74.2476 171.93 74.118 171.93Z" fill="black"/>
<path opacity="0.2" d="M59.4375 171.532V167.764C59.4375 167.361 59.7303 167.039 60.0855 167.039H72.5463L74.7351 172.256H60.0855C59.7303 172.256 59.4375 171.929 59.4375 171.532Z" fill="black"/>
<path opacity="0.2" d="M76.9494 177.543H58.7574C58.4022 177.543 58.1094 177.216 58.1094 176.818V173.045C58.1094 172.648 58.4022 172.32 58.7574 172.32H74.7606L76.9494 177.543Z" fill="black"/>
<path opacity="0.2" d="M62.2417 177.617H76.9825L79.1713 182.834H62.2417C61.8817 182.834 61.5938 182.512 61.5938 182.11V178.342C61.5938 177.945 61.8817 177.617 62.2417 177.617Z" fill="black"/>
<path opacity="0.2" d="M61.3824 182.906H79.1856L81.3744 188.124H61.3824C61.0224 188.124 60.7344 187.801 60.7344 187.399V183.631C60.7344 183.228 61.0224 182.906 61.3824 182.906Z" fill="black"/>
<path opacity="0.2" d="M83.593 193.42H60.5386C60.1786 193.42 59.8906 193.098 59.8906 192.696V188.928C59.8906 188.525 60.1786 188.203 60.5386 188.203H81.4042L83.593 193.42Z" fill="black"/>
<path d="M69.4107 188.195H41.3355C40.9776 188.195 40.6875 188.52 40.6875 188.92V192.688C40.6875 193.088 40.9776 193.413 41.3355 193.413H69.4107C69.7686 193.413 70.0587 193.088 70.0587 192.688V188.92C70.0587 188.52 69.7686 188.195 69.4107 188.195Z" fill="#407BFF"/>
<path opacity="0.5" d="M69.4107 188.195H41.3355C40.9776 188.195 40.6875 188.52 40.6875 188.92V192.688C40.6875 193.088 40.9776 193.413 41.3355 193.413H69.4107C69.7686 193.413 70.0587 193.088 70.0587 192.688V188.92C70.0587 188.52 69.7686 188.195 69.4107 188.195Z" fill="white"/>
<path opacity="0.2" d="M66.1727 193.086C66.0431 193.086 65.9375 192.968 65.9375 192.823V188.786C65.9375 188.642 66.0431 188.523 66.1727 188.523C66.3023 188.523 66.4079 188.642 66.4079 188.786V192.823C66.4079 192.968 66.3023 193.086 66.1727 193.086Z" fill="black"/>
<path opacity="0.2" d="M62.8211 193.086C62.6915 193.086 62.5859 192.968 62.5859 192.823V188.786C62.5859 188.642 62.6915 188.523 62.8211 188.523C62.9507 188.523 63.0563 188.642 63.0563 188.786V192.823C63.0563 192.968 62.9507 193.086 62.8211 193.086Z" fill="black"/>
<path opacity="0.2" d="M59.1102 193.086C58.9806 193.086 58.875 192.968 58.875 192.823V188.786C58.875 188.642 58.9806 188.523 59.1102 188.523C59.2398 188.523 59.3454 188.642 59.3454 188.786V192.823C59.3454 192.968 59.2398 193.086 59.1102 193.086Z" fill="black"/>
<path opacity="0.2" d="M68.9383 193.086C68.8087 193.086 68.7031 192.968 68.7031 192.823V188.786C68.7031 188.642 68.8087 188.523 68.9383 188.523C69.0679 188.523 69.1735 188.642 69.1735 188.786V192.823C69.1735 192.968 69.0679 193.086 68.9383 193.086Z" fill="black"/>
<path opacity="0.2" d="M44.5633 188.516C44.6929 188.516 44.7985 188.634 44.7985 188.779V192.815C44.7985 192.96 44.6929 193.078 44.5633 193.078C44.4337 193.078 44.3281 192.96 44.3281 192.815V188.779C44.3281 188.634 44.4337 188.516 44.5633 188.516Z" fill="black"/>
<path opacity="0.2" d="M47.9227 188.516C48.0523 188.516 48.1579 188.634 48.1579 188.779V192.815C48.1579 192.96 48.0523 193.078 47.9227 193.078C47.7931 193.078 47.6875 192.96 47.6875 192.815V188.779C47.6875 188.634 47.7931 188.516 47.9227 188.516Z" fill="black"/>
<path opacity="0.2" d="M51.6414 188.516C51.771 188.516 51.8767 188.634 51.8767 188.779V192.815C51.8767 192.96 51.771 193.078 51.6414 193.078C51.5118 193.078 51.4062 192.96 51.4062 192.815V188.779C51.4062 188.634 51.5118 188.516 51.6414 188.516Z" fill="black"/>
<path opacity="0.2" d="M41.8133 188.516C41.9429 188.516 42.0485 188.634 42.0485 188.779V192.815C42.0485 192.96 41.9429 193.078 41.8133 193.078C41.6837 193.078 41.5781 192.96 41.5781 192.815V188.779C41.5781 188.634 41.6837 188.516 41.8133 188.516Z" fill="black"/>
<path opacity="0.2" d="M55.3758 193.086C55.2462 193.086 55.1406 192.968 55.1406 192.823V188.786C55.1406 188.642 55.2462 188.523 55.3758 188.523C55.5054 188.523 55.611 188.642 55.611 188.786V192.823C55.611 192.968 55.5054 193.086 55.3758 193.086Z" fill="black"/>
<path d="M70.2544 182.906H42.1792C41.8214 182.906 41.5312 183.231 41.5312 183.631V187.399C41.5312 187.799 41.8214 188.124 42.1792 188.124H70.2544C70.6123 188.124 70.9025 187.799 70.9025 187.399V183.631C70.9025 183.231 70.6123 182.906 70.2544 182.906Z" fill="#407BFF"/>
<path opacity="0.5" d="M70.2544 182.906H42.1792C41.8214 182.906 41.5312 183.231 41.5312 183.631V187.399C41.5312 187.799 41.8214 188.124 42.1792 188.124H70.2544C70.6123 188.124 70.9025 187.799 70.9025 187.399V183.631C70.9025 183.231 70.6123 182.906 70.2544 182.906Z" fill="white"/>
<path opacity="0.2" d="M67.0165 187.797C66.8869 187.797 66.7812 187.679 66.7812 187.534V183.497C66.7812 183.352 66.8869 183.234 67.0165 183.234C67.1461 183.234 67.2516 183.352 67.2516 183.497V187.534C67.2516 187.679 67.1461 187.797 67.0165 187.797Z" fill="black"/>
<path opacity="0.2" d="M63.6649 187.797C63.5353 187.797 63.4297 187.679 63.4297 187.534V183.497C63.4297 183.352 63.5353 183.234 63.6649 183.234C63.7945 183.234 63.9001 183.352 63.9001 183.497V187.534C63.9001 187.679 63.7945 187.797 63.6649 187.797Z" fill="black"/>
<path opacity="0.2" d="M59.9539 187.797C59.8243 187.797 59.7188 187.679 59.7188 187.534V183.497C59.7188 183.352 59.8243 183.234 59.9539 183.234C60.0835 183.234 60.1891 183.352 60.1891 183.497V187.534C60.1891 187.679 60.0835 187.797 59.9539 187.797Z" fill="black"/>
<path opacity="0.2" d="M69.7821 187.797C69.6525 187.797 69.5469 187.679 69.5469 187.534V183.497C69.5469 183.352 69.6525 183.234 69.7821 183.234C69.9117 183.234 70.0173 183.352 70.0173 183.497V187.534C70.0173 187.679 69.9117 187.797 69.7821 187.797Z" fill="black"/>
<path opacity="0.2" d="M45.4071 183.234C45.5367 183.234 45.6423 183.352 45.6423 183.497V187.534C45.6423 187.679 45.5367 187.797 45.4071 187.797C45.2775 187.797 45.1719 187.679 45.1719 187.534V183.497C45.1719 183.352 45.2775 183.234 45.4071 183.234Z" fill="black"/>
<path opacity="0.2" d="M48.7664 183.234C48.896 183.234 49.0016 183.352 49.0016 183.497V187.534C49.0016 187.679 48.896 187.797 48.7664 187.797C48.6368 187.797 48.5312 187.679 48.5312 187.534V183.497C48.5312 183.352 48.6368 183.234 48.7664 183.234Z" fill="black"/>
<path opacity="0.2" d="M52.4852 183.234C52.6148 183.234 52.7204 183.352 52.7204 183.497V187.534C52.7204 187.679 52.6148 187.797 52.4852 187.797C52.3556 187.797 52.25 187.679 52.25 187.534V183.497C52.25 183.352 52.3556 183.234 52.4852 183.234Z" fill="black"/>
<path opacity="0.2" d="M42.6571 183.234C42.7867 183.234 42.8923 183.352 42.8923 183.497V187.534C42.8923 187.679 42.7867 187.797 42.6571 187.797C42.5275 187.797 42.4219 187.679 42.4219 187.534V183.497C42.4219 183.352 42.5275 183.234 42.6571 183.234Z" fill="black"/>
<path opacity="0.2" d="M56.2196 187.797C56.09 187.797 55.9844 187.679 55.9844 187.534V183.497C55.9844 183.352 56.09 183.234 56.2196 183.234C56.3492 183.234 56.4548 183.352 56.4548 183.497V187.534C56.4548 187.679 56.3492 187.797 56.2196 187.797Z" fill="black"/>
<path d="M68.6919 177.609H40.6167C40.2589 177.609 39.9688 177.934 39.9688 178.334V182.102C39.9688 182.502 40.2589 182.827 40.6167 182.827H68.6919C69.0498 182.827 69.34 182.502 69.34 182.102V178.334C69.34 177.934 69.0498 177.609 68.6919 177.609Z" fill="#407BFF"/>
<path opacity="0.5" d="M68.6919 177.609H40.6167C40.2589 177.609 39.9688 177.934 39.9688 178.334V182.102C39.9688 182.502 40.2589 182.827 40.6167 182.827H68.6919C69.0498 182.827 69.34 182.502 69.34 182.102V178.334C69.34 177.934 69.0498 177.609 68.6919 177.609Z" fill="white"/>
<path opacity="0.2" d="M65.454 182.5C65.3244 182.5 65.2188 182.382 65.2188 182.237V178.201C65.2188 178.056 65.3244 177.938 65.454 177.938C65.5836 177.938 65.6892 178.056 65.6892 178.201V182.237C65.6892 182.382 65.5836 182.5 65.454 182.5Z" fill="black"/>
<path opacity="0.2" d="M62.1024 182.5C61.9728 182.5 61.8672 182.382 61.8672 182.237V178.201C61.8672 178.056 61.9728 177.938 62.1024 177.938C62.232 177.938 62.3376 178.056 62.3376 178.201V182.237C62.3376 182.382 62.232 182.5 62.1024 182.5Z" fill="black"/>
<path opacity="0.2" d="M58.3836 182.5C58.254 182.5 58.1484 182.382 58.1484 182.237V178.201C58.1484 178.056 58.254 177.938 58.3836 177.938C58.5132 177.938 58.6188 178.056 58.6188 178.201V182.237C58.6188 182.382 58.5132 182.5 58.3836 182.5Z" fill="black"/>
<path opacity="0.2" d="M68.2196 182.5C68.09 182.5 67.9844 182.382 67.9844 182.237V178.201C67.9844 178.056 68.09 177.938 68.2196 177.938C68.3492 177.938 68.4548 178.056 68.4548 178.201V182.237C68.4548 182.382 68.3492 182.5 68.2196 182.5Z" fill="black"/>
<path opacity="0.2" d="M43.8446 177.938C43.9742 177.938 44.0798 178.056 44.0798 178.201V182.237C44.0798 182.382 43.9742 182.5 43.8446 182.5C43.715 182.5 43.6094 182.382 43.6094 182.237V178.201C43.6094 178.056 43.715 177.938 43.8446 177.938Z" fill="black"/>
<path opacity="0.2" d="M47.2039 177.938C47.3335 177.938 47.4391 178.056 47.4391 178.201V182.237C47.4391 182.382 47.3335 182.5 47.2039 182.5C47.0743 182.5 46.9688 182.382 46.9688 182.237V178.201C46.9688 178.056 47.0743 177.938 47.2039 177.938Z" fill="black"/>
<path opacity="0.2" d="M50.9227 177.938C51.0523 177.938 51.1579 178.056 51.1579 178.201V182.237C51.1579 182.382 51.0523 182.5 50.9227 182.5C50.7931 182.5 50.6875 182.382 50.6875 182.237V178.201C50.6875 178.056 50.7931 177.938 50.9227 177.938Z" fill="black"/>
<path opacity="0.2" d="M41.0946 177.938C41.2242 177.938 41.3298 178.056 41.3298 178.201V182.237C41.3298 182.382 41.2242 182.5 41.0946 182.5C40.965 182.5 40.8594 182.382 40.8594 182.237V178.201C40.8594 178.056 40.965 177.938 41.0946 177.938Z" fill="black"/>
<path opacity="0.2" d="M54.6571 182.5C54.5275 182.5 54.4219 182.382 54.4219 182.237V178.201C54.4219 178.056 54.5275 177.938 54.6571 177.938C54.7867 177.938 54.8923 178.056 54.8923 178.201V182.237C54.8923 182.382 54.7867 182.5 54.6571 182.5Z" fill="black"/>
<path d="M68.5826 172.32H40.5074C40.1495 172.32 39.8594 172.645 39.8594 173.045V176.813C39.8594 177.213 40.1495 177.538 40.5074 177.538H68.5826C68.9405 177.538 69.2306 177.213 69.2306 176.813V173.045C69.2306 172.645 68.9405 172.32 68.5826 172.32Z" fill="#407BFF"/>
<path opacity="0.5" d="M68.5826 172.32H40.5074C40.1495 172.32 39.8594 172.645 39.8594 173.045V176.813C39.8594 177.213 40.1495 177.538 40.5074 177.538H68.5826C68.9405 177.538 69.2306 177.213 69.2306 176.813V173.045C69.2306 172.645 68.9405 172.32 68.5826 172.32Z" fill="white"/>
<path opacity="0.2" d="M65.3446 177.211C65.215 177.211 65.1094 177.093 65.1094 176.948V172.911C65.1094 172.767 65.215 172.648 65.3446 172.648C65.4742 172.648 65.5798 172.767 65.5798 172.911V176.948C65.5798 177.093 65.4742 177.211 65.3446 177.211Z" fill="black"/>
<path opacity="0.2" d="M61.993 177.211C61.8634 177.211 61.7578 177.093 61.7578 176.948V172.911C61.7578 172.767 61.8634 172.648 61.993 172.648C62.1226 172.648 62.2282 172.767 62.2282 172.911V176.948C62.2282 177.093 62.1226 177.211 61.993 177.211Z" fill="black"/>
<path opacity="0.2" d="M58.2743 177.211C58.1447 177.211 58.0391 177.093 58.0391 176.948V172.911C58.0391 172.767 58.1447 172.648 58.2743 172.648C58.4039 172.648 58.5095 172.767 58.5095 172.911V176.948C58.5095 177.093 58.4039 177.211 58.2743 177.211Z" fill="black"/>
<path opacity="0.2" d="M68.0946 177.211C67.965 177.211 67.8594 177.093 67.8594 176.948V172.911C67.8594 172.767 67.965 172.648 68.0946 172.648C68.2242 172.648 68.3298 172.767 68.3298 172.911V176.948C68.3298 177.093 68.2242 177.211 68.0946 177.211Z" fill="black"/>
<path opacity="0.2" d="M43.7352 172.648C43.8648 172.648 43.9704 172.767 43.9704 172.911V176.948C43.9704 177.093 43.8648 177.211 43.7352 177.211C43.6056 177.211 43.5 177.093 43.5 176.948V172.911C43.5 172.767 43.6056 172.648 43.7352 172.648Z" fill="black"/>
<path opacity="0.2" d="M47.0946 172.648C47.2242 172.648 47.3298 172.767 47.3298 172.911V176.948C47.3298 177.093 47.2242 177.211 47.0946 177.211C46.965 177.211 46.8594 177.093 46.8594 176.948V172.911C46.8594 172.767 46.965 172.648 47.0946 172.648Z" fill="black"/>
<path opacity="0.2" d="M50.8133 172.648C50.9429 172.648 51.0485 172.767 51.0485 172.911V176.948C51.0485 177.093 50.9429 177.211 50.8133 177.211C50.6837 177.211 50.5781 177.093 50.5781 176.948V172.911C50.5781 172.767 50.6837 172.648 50.8133 172.648Z" fill="black"/>
<path opacity="0.2" d="M40.9852 172.648C41.1148 172.648 41.2204 172.767 41.2204 172.911V176.948C41.2204 177.093 41.1148 177.211 40.9852 177.211C40.8556 177.211 40.75 177.093 40.75 176.948V172.911C40.75 172.767 40.8556 172.648 40.9852 172.648Z" fill="black"/>
<path opacity="0.2" d="M54.5477 177.211C54.4181 177.211 54.3125 177.093 54.3125 176.948V172.911C54.3125 172.767 54.4181 172.648 54.5477 172.648C54.6773 172.648 54.7829 172.767 54.7829 172.911V176.948C54.7829 177.093 54.6773 177.211 54.5477 177.211Z" fill="black"/>
<path d="M69.9107 167.031H41.8355C41.4776 167.031 41.1875 167.356 41.1875 167.756V171.524C41.1875 171.924 41.4776 172.249 41.8355 172.249H69.9107C70.2686 172.249 70.5587 171.924 70.5587 171.524V167.756C70.5587 167.356 70.2686 167.031 69.9107 167.031Z" fill="#407BFF"/>
<path opacity="0.5" d="M69.9107 167.031H41.8355C41.4776 167.031 41.1875 167.356 41.1875 167.756V171.524C41.1875 171.924 41.4776 172.249 41.8355 172.249H69.9107C70.2686 172.249 70.5587 171.924 70.5587 171.524V167.756C70.5587 167.356 70.2686 167.031 69.9107 167.031Z" fill="white"/>
<path opacity="0.2" d="M66.6727 171.93C66.5431 171.93 66.4375 171.812 66.4375 171.667V167.63C66.4375 167.485 66.5431 167.367 66.6727 167.367C66.8023 167.367 66.9079 167.485 66.9079 167.63V171.667C66.9079 171.812 66.8023 171.93 66.6727 171.93Z" fill="black"/>
<path opacity="0.2" d="M63.3211 171.93C63.1915 171.93 63.0859 171.812 63.0859 171.667V167.63C63.0859 167.485 63.1915 167.367 63.3211 167.367C63.4507 167.367 63.5563 167.485 63.5563 167.63V171.667C63.5563 171.812 63.4507 171.93 63.3211 171.93Z" fill="black"/>
<path opacity="0.2" d="M59.6024 171.93C59.4728 171.93 59.3672 171.812 59.3672 171.667V167.63C59.3672 167.485 59.4728 167.367 59.6024 167.367C59.732 167.367 59.8376 167.485 59.8376 167.63V171.667C59.8376 171.812 59.732 171.93 59.6024 171.93Z" fill="black"/>
<path opacity="0.2" d="M69.4227 171.93C69.2931 171.93 69.1875 171.812 69.1875 171.667V167.63C69.1875 167.485 69.2931 167.367 69.4227 167.367C69.5523 167.367 69.6579 167.485 69.6579 167.63V171.667C69.6579 171.812 69.5523 171.93 69.4227 171.93Z" fill="black"/>
<path opacity="0.2" d="M45.0633 167.359C45.1929 167.359 45.2985 167.477 45.2985 167.622V171.659C45.2985 171.804 45.1929 171.922 45.0633 171.922C44.9337 171.922 44.8281 171.804 44.8281 171.659V167.622C44.8281 167.477 44.9337 167.359 45.0633 167.359Z" fill="black"/>
<path opacity="0.2" d="M48.4227 167.359C48.5523 167.359 48.6579 167.477 48.6579 167.622V171.659C48.6579 171.804 48.5523 171.922 48.4227 171.922C48.2931 171.922 48.1875 171.804 48.1875 171.659V167.622C48.1875 167.477 48.2931 167.359 48.4227 167.359Z" fill="black"/>
<path opacity="0.2" d="M52.1415 167.359C52.2711 167.359 52.3767 167.477 52.3767 167.622V171.659C52.3767 171.804 52.2711 171.922 52.1415 171.922C52.0119 171.922 51.9062 171.804 51.9062 171.659V167.622C51.9062 167.477 52.0119 167.359 52.1415 167.359Z" fill="black"/>
<path opacity="0.2" d="M42.3133 167.359C42.4429 167.359 42.5485 167.477 42.5485 167.622V171.659C42.5485 171.804 42.4429 171.922 42.3133 171.922C42.1837 171.922 42.0781 171.804 42.0781 171.659V167.622C42.0781 167.477 42.1837 167.359 42.3133 167.359Z" fill="black"/>
<path opacity="0.2" d="M55.8758 171.93C55.7462 171.93 55.6406 171.812 55.6406 171.667V167.63C55.6406 167.485 55.7462 167.367 55.8758 167.367C56.0054 167.367 56.111 167.485 56.111 167.63V171.667C56.111 171.812 56.0054 171.93 55.8758 171.93Z" fill="black"/>
<path d="M68.8326 161.734H40.7574C40.3995 161.734 40.1094 162.059 40.1094 162.459V166.227C40.1094 166.627 40.3995 166.952 40.7574 166.952H68.8326C69.1905 166.952 69.4806 166.627 69.4806 166.227V162.459C69.4806 162.059 69.1905 161.734 68.8326 161.734Z" fill="#407BFF"/>
<path opacity="0.5" d="M68.8326 161.734H40.7574C40.3995 161.734 40.1094 162.059 40.1094 162.459V166.227C40.1094 166.627 40.3995 166.952 40.7574 166.952H68.8326C69.1905 166.952 69.4806 166.627 69.4806 166.227V162.459C69.4806 162.059 69.1905 161.734 68.8326 161.734Z" fill="white"/>
<path opacity="0.2" d="M65.5946 166.633C65.465 166.633 65.3594 166.515 65.3594 166.37V162.333C65.3594 162.188 65.465 162.07 65.5946 162.07C65.7242 162.07 65.8298 162.188 65.8298 162.333V166.37C65.8298 166.515 65.7242 166.633 65.5946 166.633Z" fill="black"/>
<path opacity="0.2" d="M62.243 166.633C62.1134 166.633 62.0078 166.515 62.0078 166.37V162.333C62.0078 162.188 62.1134 162.07 62.243 162.07C62.3726 162.07 62.4782 162.188 62.4782 162.333V166.37C62.4782 166.515 62.3726 166.633 62.243 166.633Z" fill="black"/>
<path opacity="0.2" d="M58.5243 166.633C58.3947 166.633 58.2891 166.515 58.2891 166.37V162.333C58.2891 162.188 58.3947 162.07 58.5243 162.07C58.6539 162.07 58.7595 162.188 58.7595 162.333V166.37C58.7595 166.515 58.6539 166.633 58.5243 166.633Z" fill="black"/>
<path opacity="0.2" d="M68.3446 166.633C68.215 166.633 68.1094 166.515 68.1094 166.37V162.333C68.1094 162.188 68.215 162.07 68.3446 162.07C68.4742 162.07 68.5798 162.188 68.5798 162.333V166.37C68.5798 166.515 68.4742 166.633 68.3446 166.633Z" fill="black"/>
<path opacity="0.2" d="M43.9852 162.062C44.1148 162.062 44.2204 162.181 44.2204 162.326V166.362C44.2204 166.507 44.1148 166.625 43.9852 166.625C43.8556 166.625 43.75 166.507 43.75 166.362V162.326C43.75 162.181 43.8556 162.062 43.9852 162.062Z" fill="black"/>
<path opacity="0.2" d="M47.3446 162.062C47.4742 162.062 47.5798 162.181 47.5798 162.326V166.362C47.5798 166.507 47.4742 166.625 47.3446 166.625C47.215 166.625 47.1094 166.507 47.1094 166.362V162.326C47.1094 162.181 47.215 162.062 47.3446 162.062Z" fill="black"/>
<path opacity="0.2" d="M51.0633 162.062C51.1929 162.062 51.2985 162.181 51.2985 162.326V166.362C51.2985 166.507 51.1929 166.625 51.0633 166.625C50.9337 166.625 50.8281 166.507 50.8281 166.362V162.326C50.8281 162.181 50.9337 162.062 51.0633 162.062Z" fill="black"/>
<path opacity="0.2" d="M41.2352 162.062C41.3648 162.062 41.4704 162.181 41.4704 162.326V166.362C41.4704 166.507 41.3648 166.625 41.2352 166.625C41.1056 166.625 41 166.507 41 166.362V162.326C41 162.181 41.1056 162.062 41.2352 162.062Z" fill="black"/>
<path opacity="0.2" d="M54.7977 166.633C54.6681 166.633 54.5625 166.515 54.5625 166.37V162.333C54.5625 162.188 54.6681 162.07 54.7977 162.07C54.9273 162.07 55.0329 162.188 55.0329 162.333V166.37C55.0329 166.515 54.9273 166.633 54.7977 166.633Z" fill="black"/>
<path d="M70.1607 156.445H42.0855C41.7276 156.445 41.4375 156.77 41.4375 157.17V160.938C41.4375 161.338 41.7276 161.663 42.0855 161.663H70.1607C70.5186 161.663 70.8087 161.338 70.8087 160.938V157.17C70.8087 156.77 70.5186 156.445 70.1607 156.445Z" fill="#407BFF"/>
<path opacity="0.5" d="M70.1607 156.445H42.0855C41.7276 156.445 41.4375 156.77 41.4375 157.17V160.938C41.4375 161.338 41.7276 161.663 42.0855 161.663H70.1607C70.5186 161.663 70.8087 161.338 70.8087 160.938V157.17C70.8087 156.77 70.5186 156.445 70.1607 156.445Z" fill="white"/>
<path opacity="0.2" d="M66.9227 161.336C66.7931 161.336 66.6875 161.218 66.6875 161.073V157.036C66.6875 156.892 66.7931 156.773 66.9227 156.773C67.0523 156.773 67.1579 156.892 67.1579 157.036V161.073C67.1579 161.218 67.0523 161.336 66.9227 161.336Z" fill="black"/>
<path opacity="0.2" d="M63.5711 161.336C63.4415 161.336 63.3359 161.218 63.3359 161.073V157.036C63.3359 156.892 63.4415 156.773 63.5711 156.773C63.7007 156.773 63.8063 156.892 63.8063 157.036V161.073C63.8063 161.218 63.7007 161.336 63.5711 161.336Z" fill="black"/>
<path opacity="0.2" d="M59.8524 161.336C59.7228 161.336 59.6172 161.218 59.6172 161.073V157.036C59.6172 156.892 59.7228 156.773 59.8524 156.773C59.982 156.773 60.0876 156.892 60.0876 157.036V161.073C60.0876 161.218 59.982 161.336 59.8524 161.336Z" fill="black"/>
<path opacity="0.2" d="M69.6727 161.336C69.5431 161.336 69.4375 161.218 69.4375 161.073V157.036C69.4375 156.892 69.5431 156.773 69.6727 156.773C69.8023 156.773 69.9079 156.892 69.9079 157.036V161.073C69.9079 161.218 69.8023 161.336 69.6727 161.336Z" fill="black"/>
<path opacity="0.2" d="M45.3133 156.766C45.4429 156.766 45.5485 156.884 45.5485 157.029V161.065C45.5485 161.21 45.4429 161.328 45.3133 161.328C45.1837 161.328 45.0781 161.21 45.0781 161.065V157.029C45.0781 156.884 45.1837 156.766 45.3133 156.766Z" fill="black"/>
<path opacity="0.2" d="M48.6727 156.766C48.8023 156.766 48.9079 156.884 48.9079 157.029V161.065C48.9079 161.21 48.8023 161.328 48.6727 161.328C48.5431 161.328 48.4375 161.21 48.4375 161.065V157.029C48.4375 156.884 48.5431 156.766 48.6727 156.766Z" fill="black"/>
<path opacity="0.2" d="M52.3914 156.766C52.521 156.766 52.6266 156.884 52.6266 157.029V161.065C52.6266 161.21 52.521 161.328 52.3914 161.328C52.2618 161.328 52.1562 161.21 52.1562 161.065V157.029C52.1562 156.884 52.2618 156.766 52.3914 156.766Z" fill="black"/>
<path opacity="0.2" d="M42.5633 156.766C42.6929 156.766 42.7985 156.884 42.7985 157.029V161.065C42.7985 161.21 42.6929 161.328 42.5633 161.328C42.4337 161.328 42.3281 161.21 42.3281 161.065V157.029C42.3281 156.884 42.4337 156.766 42.5633 156.766Z" fill="black"/>
<path opacity="0.2" d="M56.1258 161.336C55.9962 161.336 55.8906 161.218 55.8906 161.073V157.036C55.8906 156.892 55.9962 156.773 56.1258 156.773C56.2554 156.773 56.361 156.892 56.361 157.036V161.073C56.361 161.218 56.2554 161.336 56.1258 161.336Z" fill="black"/>
<path d="M70.0435 151.156H41.9683C41.6104 151.156 41.3203 151.481 41.3203 151.881V155.649C41.3203 156.049 41.6104 156.374 41.9683 156.374H70.0435C70.4014 156.374 70.6915 156.049 70.6915 155.649V151.881C70.6915 151.481 70.4014 151.156 70.0435 151.156Z" fill="#407BFF"/>
<path opacity="0.5" d="M70.0435 151.156H41.9683C41.6104 151.156 41.3203 151.481 41.3203 151.881V155.649C41.3203 156.049 41.6104 156.374 41.9683 156.374H70.0435C70.4014 156.374 70.6915 156.049 70.6915 155.649V151.881C70.6915 151.481 70.4014 151.156 70.0435 151.156Z" fill="white"/>
<path opacity="0.2" d="M66.8133 156.047C66.6837 156.047 66.5781 155.929 66.5781 155.784V151.747C66.5781 151.602 66.6837 151.484 66.8133 151.484C66.9429 151.484 67.0485 151.602 67.0485 151.747V155.784C67.0485 155.929 66.9429 156.047 66.8133 156.047Z" fill="black"/>
<path opacity="0.2" d="M63.4618 156.047C63.3322 156.047 63.2266 155.929 63.2266 155.784V151.747C63.2266 151.602 63.3322 151.484 63.4618 151.484C63.5914 151.484 63.697 151.602 63.697 151.747V155.784C63.697 155.929 63.5914 156.047 63.4618 156.047Z" fill="black"/>
<path opacity="0.2" d="M59.743 156.047C59.6134 156.047 59.5078 155.929 59.5078 155.784V151.747C59.5078 151.602 59.6134 151.484 59.743 151.484C59.8726 151.484 59.9782 151.602 59.9782 151.747V155.784C59.9782 155.929 59.8726 156.047 59.743 156.047Z" fill="black"/>
<path opacity="0.2" d="M69.5633 156.047C69.4337 156.047 69.3281 155.929 69.3281 155.784V151.747C69.3281 151.602 69.4337 151.484 69.5633 151.484C69.6929 151.484 69.7985 151.602 69.7985 151.747V155.784C69.7985 155.929 69.6929 156.047 69.5633 156.047Z" fill="black"/>
<path opacity="0.2" d="M45.204 151.484C45.3336 151.484 45.4392 151.602 45.4392 151.747V155.784C45.4392 155.929 45.3336 156.047 45.204 156.047C45.0744 156.047 44.9688 155.929 44.9688 155.784V151.747C44.9688 151.602 45.0744 151.484 45.204 151.484Z" fill="black"/>
<path opacity="0.2" d="M48.5633 151.484C48.6929 151.484 48.7985 151.602 48.7985 151.747V155.784C48.7985 155.929 48.6929 156.047 48.5633 156.047C48.4337 156.047 48.3281 155.929 48.3281 155.784V151.747C48.3281 151.602 48.4337 151.484 48.5633 151.484Z" fill="black"/>
<path opacity="0.2" d="M52.2821 151.484C52.4117 151.484 52.5173 151.602 52.5173 151.747V155.784C52.5173 155.929 52.4117 156.047 52.2821 156.047C52.1525 156.047 52.0469 155.929 52.0469 155.784V151.747C52.0469 151.602 52.1525 151.484 52.2821 151.484Z" fill="black"/>
<path opacity="0.2" d="M42.4539 151.484C42.5835 151.484 42.6891 151.602 42.6891 151.747V155.784C42.6891 155.929 42.5835 156.047 42.4539 156.047C42.3243 156.047 42.2188 155.929 42.2188 155.784V151.747C42.2188 151.602 42.3243 151.484 42.4539 151.484Z" fill="black"/>
<path opacity="0.2" d="M56.0008 156.047C55.8712 156.047 55.7656 155.929 55.7656 155.784V151.747C55.7656 151.602 55.8712 151.484 56.0008 151.484C56.1304 151.484 56.236 151.602 56.236 151.747V155.784C56.236 155.929 56.1304 156.047 56.0008 156.047Z" fill="black"/>
<path d="M67.3794 130.507C71.8588 122.948 70.01 112.759 63.2502 107.75C56.4903 102.741 47.379 104.808 42.8997 112.368C38.4203 119.927 40.269 130.115 47.0289 135.124C53.7888 140.133 62.9 138.066 67.3794 130.507Z" fill="#407BFF"/>
<path opacity="0.5" d="M67.9589 129.453C64.0901 137.193 55.4501 140.075 48.4517 136.055C48.2933 135.969 48.1348 135.873 47.9764 135.776C47.386 135.411 46.8293 135.003 46.3061 134.558C45.2645 133.683 44.3525 132.679 43.5845 131.568C40.0421 126.517 39.3461 119.389 42.3173 113.436C44.6021 108.863 48.5524 105.981 52.8484 105.219C54.1012 104.993 55.3876 104.956 56.6693 105.106C57.4996 105.197 58.33 105.38 59.1557 105.648C60.2309 105.986 61.2868 106.464 62.2996 107.103C69.3796 111.525 71.9189 121.525 67.9589 129.448V129.453Z" fill="white"/>
<path opacity="0.1" d="M51.7553 118.319C51.9521 119.392 52.8977 119.687 54.1265 119.805L53.4065 115.828C52.0337 116.397 51.5777 117.336 51.7553 118.319Z" fill="black"/>
<path opacity="0.1" d="M56.3281 122.602L57.0481 126.557C58.4641 125.978 58.9441 125.081 58.7713 124.121C58.5745 123.026 57.6001 122.709 56.3329 122.602H56.3281Z" fill="black"/>
<path opacity="0.1" d="M52.5079 106.947C45.3463 108.574 40.7191 116.378 42.1735 124.386C43.6279 132.395 50.6071 137.569 57.7687 135.943C64.9303 134.316 69.5575 126.512 68.1031 118.504C66.6487 110.495 59.6695 105.321 52.5079 106.947ZM58.4839 115.857C57.2983 115.407 56.1127 115.278 55.0279 115.385L55.8487 119.899C58.1767 120.001 60.7399 120.232 61.3015 123.34C61.7143 125.621 60.5719 127.929 57.4999 128.997L57.9559 131.498L56.3191 131.869L55.8679 129.389C53.8855 129.7 51.8551 129.416 50.6359 128.643L51.1255 126.179C52.2679 126.85 53.8855 127.161 55.4311 126.974L54.6199 122.502C52.2919 122.4 49.7671 122.137 49.2007 119.03C48.7879 116.748 49.9063 114.424 52.9639 113.383L52.5079 110.855L54.1447 110.485L54.5959 112.964C56.0935 112.717 57.6823 112.868 58.9015 113.41L58.4935 115.852L58.4839 115.857Z" fill="black"/>
<g opacity="0.1">
<path d="M52.8484 105.216L43.5845 131.56C40.0421 126.509 39.3461 119.381 42.3173 113.429C44.6021 108.855 48.5524 105.973 52.8484 105.211V105.216Z" fill="white"/>
<path d="M59.1573 105.644L48.4581 136.045C48.2997 135.96 48.1413 135.863 47.9829 135.766C47.3925 135.401 46.8357 134.993 46.3125 134.548L56.6757 105.102C57.5061 105.193 58.3365 105.375 59.1621 105.644H59.1573Z" fill="white"/>
</g>
<path d="M77.884 97.7345C85.3847 94.2876 88.9664 84.694 85.884 76.3065C82.8017 67.919 74.2224 63.9137 66.7218 67.3605C59.2211 70.8074 55.6394 80.401 58.7217 88.7885C61.8041 97.176 70.3833 101.181 77.884 97.7345Z" fill="#407BFF"/>
<path opacity="0.5" d="M85.8583 88.867C82.8007 97.0471 74.5111 101.008 67.1479 97.9059C66.9799 97.8415 66.8167 97.7664 66.6487 97.6912C66.0247 97.4014 65.4295 97.0686 64.8631 96.6928C63.7399 95.9575 62.7319 95.0718 61.8535 94.0681C57.8215 89.5003 56.4055 82.5064 58.7527 76.2157C60.5575 71.3795 64.1911 68.0141 68.3815 66.7151C69.6055 66.334 70.8775 66.1301 72.1639 66.1193C72.9991 66.1032 73.8439 66.1784 74.6887 66.3394C75.7927 66.538 76.8871 66.8815 77.9623 67.3861C85.4455 70.8803 88.9831 80.4936 85.8583 88.867Z" fill="white"/>
<path opacity="0.1" d="M71.0641 77.8222C70.6849 78.8313 71.3233 79.674 72.2833 80.5382L73.6801 76.7916C72.2593 76.3998 71.4097 76.8936 71.0641 77.8222Z" fill="black"/>
<path opacity="0.1" d="M72.7123 84.25L71.3203 87.9751C72.7795 88.383 73.6339 87.9429 73.9699 87.0357C74.3539 86.0052 73.7059 85.1356 72.7123 84.25Z" fill="black"/>
<path opacity="0.1" d="M77.398 68.8869C70.654 65.7415 62.9068 69.3002 60.094 76.8416C57.2812 84.383 60.4636 93.0462 67.2076 96.1916C73.9516 99.337 81.6988 95.7783 84.5116 88.2369C87.3244 80.6955 84.142 72.0323 77.398 68.8869ZM77.8732 80.0138C77.1196 78.8974 76.198 78.0439 75.2476 77.4535L73.6588 81.7046C75.5356 83.2504 77.5372 85.0486 76.4476 87.9739C75.646 90.1209 73.5436 91.3125 70.462 90.2712L69.5836 92.6275L68.038 91.9083L68.9116 89.5734C67.1164 88.5858 65.5756 87.0775 64.9516 85.6712L66.5932 83.9429C67.2028 85.215 68.3836 86.4871 69.7612 87.2976L71.3308 83.0894C69.454 81.5436 67.4956 79.7401 68.59 76.8148C69.3916 74.6677 71.4844 73.4439 74.5372 74.5014L75.4252 72.1235L76.9708 72.8428L76.0972 75.1777C77.4604 75.913 78.6988 77.0348 79.438 78.2479L77.8732 80.0138Z" fill="black"/>
<g opacity="0.1">
<path d="M68.3815 66.7188L61.8535 94.0717C57.8215 89.504 56.4055 82.5101 58.7527 76.2193C60.5575 71.3831 64.1911 68.0177 68.3815 66.7188Z" fill="white"/>
<path d="M74.685 66.3394L67.1442 97.9059C66.9762 97.8415 66.813 97.7664 66.645 97.6912C66.021 97.4014 65.4258 97.0686 64.8594 96.6928L72.1602 66.1193C72.9954 66.1032 73.8402 66.1784 74.685 66.3394Z" fill="white"/>
</g>
<path d="M58.9453 51.7958L63.9085 58.1832L68.8717 51.7958H66.4141V44.9844H61.3981V51.7958H58.9453Z" fill="#407BFF"/>
<path d="M115.747 69.1191L117.283 69.2425L118.843 69.3499C119.875 69.4143 120.902 69.4787 121.886 69.4787C122.375 69.4841 122.851 69.4787 123.283 69.4358C123.494 69.4143 123.705 69.3928 123.873 69.3714C124.051 69.3499 124.19 69.3177 124.247 69.3123C124.252 69.3123 124.276 69.3123 124.267 69.3177C124.252 69.3284 124.238 69.3392 124.228 69.3606C124.228 69.3606 124.252 69.3553 124.286 69.3338C124.353 69.2855 124.459 69.1835 124.569 69.0493C124.795 68.7756 125.049 68.3891 125.289 67.9597C125.769 67.0955 126.211 66.0757 126.628 65.0344C127.041 63.9823 127.43 62.8927 127.804 61.787C128.543 59.5756 129.23 57.2675 129.892 55.0078L132.571 55.5714C132.388 58.0995 132.052 60.5418 131.582 63.0162C131.347 64.2507 131.068 65.4853 130.727 66.7252C130.387 67.9704 129.993 69.2103 129.427 70.4932C129.139 71.1319 128.822 71.7921 128.361 72.4684C128.131 72.8066 127.862 73.1555 127.516 73.5097C127.343 73.6869 127.147 73.8586 126.921 74.0304C126.791 74.1216 126.662 74.2129 126.527 74.2988C126.398 74.3793 126.297 74.4276 126.177 74.492C125.726 74.7174 125.342 74.857 124.987 74.959C124.622 75.0717 124.295 75.1415 123.964 75.2059C123.311 75.3293 122.702 75.4045 122.097 75.4582C119.692 75.646 117.479 75.5387 115.156 75.2327L115.742 69.1137L115.747 69.1191Z" fill="#E4897B"/>
<path d="M115.675 67.8828L122.909 68.6343L120.149 77.8289C120.149 77.8289 114.687 80.0242 112.661 76.9379C110.635 73.8515 110.347 67.9526 115.675 67.8828Z" fill="#407BFF"/>
<path opacity="0.7" d="M122.904 68.6289L120.144 77.8235C120.144 77.8235 119.717 77.9953 119.05 78.1778C117.96 78.473 116.237 78.7897 114.763 78.3978C113.933 78.1778 113.179 77.7323 112.661 76.9379C110.635 73.8515 110.347 67.9526 115.675 67.8828L122.909 68.6343L122.904 68.6289Z" fill="white"/>
<path opacity="0.2" d="M119.052 78.1829C117.963 78.4781 116.24 78.7948 114.766 78.4029C113.772 76.0573 114.824 72.2625 116.225 73.234C117.694 74.2592 118.601 76.637 119.062 78.1829H119.052Z" fill="black"/>
<path d="M129.82 55.1244L132.316 52.0703L133.857 56.3214C133.857 56.3214 131.486 58.8978 130.348 57.4754L129.82 55.1244Z" fill="#E4897B"/>
<path d="M135.831 50.9219L136.042 55.0817L133.853 56.3216L132.312 52.0705L135.831 50.9219Z" fill="#E4897B"/>
<path d="M114.275 190.452L117.861 189.754L117.448 180.312L113.867 181.01L114.275 190.452Z" fill="#E4897B"/>
<path d="M86.9297 190.172L90.5009 190.881L92.9873 181.826L89.4161 181.117L86.9297 190.172Z" fill="#E4897B"/>
<path opacity="0.2" d="M117.453 180.312L117.664 185.181L114.083 185.879L113.867 181.01L117.453 180.312Z" fill="black"/>
<path opacity="0.2" d="M89.4144 181.117L92.9904 181.831L91.7088 186.495L88.1328 185.787L89.4144 181.117Z" fill="black"/>
<path d="M118.874 183.998L112.807 185.178C112.807 185.178 111.837 162.366 111.405 149.737C111.271 145.893 110.632 140.52 109.778 134.766C108.698 127.51 107.287 119.651 106.115 113.495C104.877 107.011 103.922 102.416 103.922 102.416L116.69 102.078C116.69 102.078 121.283 134.208 121.495 146.591C121.715 159.463 118.879 183.998 118.879 183.998H118.874Z" fill="#263238"/>
<path opacity="0.2" d="M109.772 134.762C108.692 127.505 107.281 119.647 106.109 113.491L107.588 110.383C110.535 114.736 110.737 127.747 109.772 134.762Z" fill="black"/>
<path d="M109.798 102.258C109.798 102.258 106.51 137.201 104.782 148.95C102.886 161.816 93.516 185.9 93.516 185.9L86.9688 184.601C86.9688 184.601 93.1896 162.433 94.3416 149.535C95.6328 135.118 97.26 102.591 97.26 102.591L109.793 102.258H109.798Z" fill="#263238"/>
<path d="M94.2713 186.218L86.5625 184.683L86.9945 182.117L95.1257 183.196L94.2713 186.218Z" fill="#407BFF"/>
<path d="M119.645 184.067L112.397 185.361L112.047 182.747L119.996 181.195L119.645 184.067Z" fill="#407BFF"/>
<path d="M118.217 188.892L114.248 188.773C114.099 188.773 113.964 188.881 113.931 189.042L113.096 192.617C113.009 192.987 113.254 193.347 113.595 193.352C115.03 193.368 117.099 193.336 118.904 193.39C121.011 193.454 122.345 193.336 124.817 193.411C126.31 193.454 126.78 191.79 126.156 191.618C123.334 190.84 121.491 190.996 119.086 189.235C118.827 189.042 118.534 188.902 118.222 188.892H118.217Z" fill="#263238"/>
<path d="M118.5 189.386C118.5 189.343 118.514 189.306 118.548 189.29C118.716 189.198 120.204 188.415 120.636 188.705C120.718 188.758 120.766 188.85 120.77 188.962C120.775 189.155 120.718 189.311 120.593 189.424C120.18 189.805 119.143 189.612 118.562 189.467H118.553C118.524 189.456 118.5 189.424 118.5 189.386ZM118.86 189.343C119.657 189.515 120.257 189.494 120.487 189.279C120.569 189.204 120.607 189.102 120.602 188.973C120.602 188.925 120.583 188.892 120.55 188.871C120.54 188.866 120.53 188.86 120.521 188.855C120.252 188.742 119.446 189.053 118.86 189.343Z" fill="#407BFF"/>
<path d="M118.535 189.447C118.511 189.426 118.496 189.394 118.501 189.362C118.506 189.313 118.64 188.229 119.115 187.821C119.259 187.698 119.423 187.644 119.6 187.671C119.835 187.703 119.898 187.843 119.912 187.95C119.965 188.412 119.067 189.26 118.621 189.464C118.602 189.474 118.578 189.474 118.559 189.464C118.549 189.464 118.544 189.458 118.535 189.453V189.447ZM119.576 187.859C119.447 187.837 119.331 187.875 119.221 187.971C118.909 188.24 118.76 188.889 118.703 189.206C119.159 188.921 119.773 188.251 119.744 187.971C119.744 187.955 119.739 187.912 119.667 187.88C119.643 187.869 119.615 187.864 119.581 187.859H119.576Z" fill="#407BFF"/>
<path d="M95.3281 68.3255C96.2401 72.8557 96.7489 77.4504 97.0225 81.7659C97.2193 84.922 97.2913 87.9278 97.2961 90.6545C97.3057 97.0419 96.9601 101.894 97.0513 103.547C99.8977 103.456 110.626 103.118 116.472 102.93C120.163 79.9946 115.675 67.88 115.675 67.88C115.675 67.88 113.554 67.3057 111.072 67.0266C110.746 66.989 110.415 66.9622 110.074 66.9353C107.885 66.7851 104.295 66.9837 101.818 67.1984C101.295 67.2413 100.771 67.3057 100.258 67.3701C97.6465 67.7244 95.3329 68.3255 95.3329 68.3255H95.3281Z" fill="#407BFF"/>
<path opacity="0.7" d="M95.3281 68.3255C96.2401 72.8557 96.7489 77.4504 97.0225 81.7659C97.2193 84.922 97.2913 87.9278 97.2961 90.6545C97.3057 97.0419 96.9601 101.894 97.0513 103.547C99.8977 103.456 110.626 103.118 116.472 102.93C120.163 79.9946 115.675 67.88 115.675 67.88C115.675 67.88 113.554 67.3057 111.072 67.0266C110.746 66.989 110.415 66.9622 110.074 66.9353C107.885 66.7851 104.295 66.9837 101.818 67.1984C101.295 67.2413 100.771 67.3057 100.258 67.3701C97.6465 67.7244 95.3329 68.3255 95.3329 68.3255H95.3281Z" fill="white"/>
<path d="M108.996 71.1719C109.505 72.7821 110.345 74.1079 110.993 78.3161C110.772 79.2017 110.513 80.0927 110.216 80.9891C109.75 80.1357 109.256 79.2769 108.732 78.4288C108.416 74.3709 108.756 73.2867 108.219 71.2309L108.996 71.1772V71.1719Z" fill="#263238"/>
<path d="M108.978 72.4772L109.612 70.4215L108.282 69.8203L107.312 70.5235L108.978 72.4772Z" fill="#263238"/>
<path d="M108.225 69.8215C105.24 69.9878 103.2 68.7211 101.812 67.1967C102.292 66.66 102.6 65.9031 102.787 65.0121C103.32 62.5001 102.878 58.9683 102.461 56.7891L107.606 61.4642C107.529 61.8453 107.462 62.2264 107.419 62.6021C107.193 64.5398 107.577 66.354 110.068 66.9337C110.596 67.9052 110.505 69.698 108.225 69.8215Z" fill="#E4897B"/>
<path d="M108.292 69.8222C108.292 69.8222 107.456 71.0889 106.477 72.3449C104.946 71.5129 101.356 69.2693 101.423 67.0579C101.596 66.403 102.349 65.9844 102.349 65.9844C102.349 65.9844 104.648 68.2548 108.296 69.8275L108.292 69.8222Z" fill="white"/>
<path d="M108.286 69.822C108.286 69.822 109.5 70.8472 110.316 72.1783C111.372 71.2873 110.619 67.2026 110.196 66.7678C109.299 66.1828 108.708 66.2794 108.708 66.2794C108.708 66.2794 109.99 69.2745 108.281 69.8273L108.286 69.822Z" fill="white"/>
<path opacity="0.2" d="M107.611 61.4642C107.535 61.8453 107.467 62.2264 107.424 62.6021C106.162 64.5183 104.199 65.098 102.787 65.0121C103.32 62.5001 102.879 58.9683 102.461 56.7891L107.607 61.4642H107.611Z" fill="black"/>
<path d="M98.7157 50.9971C98.1781 52.5215 98.2165 55.742 100.228 54.8564C102.239 53.9707 99.6373 48.3777 98.7157 50.9971Z" fill="#263238"/>
<path d="M108.627 53.8956C108.589 57.9159 108.747 60.2776 107.024 62.4193C104.432 65.6398 99.9106 64.0027 98.8738 60.0361C97.9378 56.4667 98.1586 50.4872 101.61 48.732C105.008 47.0037 108.671 49.87 108.627 53.8956Z" fill="#E4897B"/>
<path d="M103.22 55.2622C103.235 55.5896 103.091 55.8633 102.899 55.8687C102.707 55.8794 102.539 55.6218 102.524 55.2944C102.51 54.9669 102.654 54.6932 102.846 54.6878C103.038 54.6771 103.206 54.9347 103.22 55.2622Z" fill="#263238"/>
<path d="M99.9157 55.4182C99.9301 55.7456 99.7861 56.0193 99.5941 56.0247C99.4021 56.0354 99.2341 55.7778 99.2197 55.4504C99.2053 55.1229 99.3493 54.8492 99.5413 54.8438C99.7333 54.8385 99.9013 55.0907 99.9157 55.4182Z" fill="#263238"/>
<path d="M100.973 55.5312C100.973 55.5312 100.373 57.3777 99.6719 58.2902C100.205 58.7786 101.073 58.4888 101.073 58.4888L100.973 55.5312Z" fill="#DE5753"/>
<path d="M102.697 59.6644C102.577 59.6859 102.452 59.702 102.318 59.7073C102.27 59.7073 102.231 59.6698 102.227 59.6161C102.227 59.5624 102.26 59.5195 102.308 59.5141C103.595 59.4551 104.147 58.4245 104.151 58.4138C104.175 58.3655 104.228 58.3547 104.267 58.3816C104.31 58.4084 104.319 58.4674 104.295 58.5158C104.271 58.5587 103.796 59.4443 102.692 59.659L102.697 59.6644Z" fill="#263238"/>
<path d="M104.187 54.0287C104.13 54.0394 104.067 54.018 104.024 53.9589C103.53 53.2987 102.901 53.3685 102.896 53.3685C102.8 53.3792 102.714 53.3041 102.704 53.1967C102.694 53.0894 102.762 52.9981 102.853 52.9874C102.886 52.9874 103.678 52.8961 104.288 53.7174C104.35 53.7979 104.341 53.9213 104.269 53.9858C104.245 54.0072 104.216 54.0233 104.192 54.0287H104.187Z" fill="#263238"/>
<path d="M98.4327 54.2079C98.3991 54.2133 98.3655 54.2079 98.3319 54.1972C98.2455 54.1543 98.2023 54.0415 98.2407 53.9449C98.6151 52.968 99.3927 52.8177 99.4263 52.807C99.5175 52.7909 99.6087 52.8607 99.6279 52.9627C99.6423 53.0646 99.5847 53.1666 99.4887 53.1827C99.4551 53.1827 98.8551 53.3115 98.5575 54.0952C98.5335 54.1543 98.4855 54.1972 98.4327 54.2079Z" fill="#263238"/>
<path d="M102.876 50.9181C102.876 50.9181 103.841 50.0862 104.316 50.9181C104.791 51.7501 104.844 54.0313 104.844 54.0313L105.031 53.6234C105.031 53.6234 106.476 58.642 108.281 57.284C110.086 55.926 112.63 50.6659 108.218 48.2236C108.218 48.2236 107.719 47.0159 104.844 46.5382C101.969 46.0551 98.5896 48.1753 98.0712 50.3062C97.5528 52.4425 98.4216 53.5804 98.4216 53.5804C98.5512 52.8075 98.9256 52.3083 98.9256 52.3083C99.0168 52.99 99.6696 53.2476 99.6696 53.2476C99.6264 52.4157 99.8616 51.9916 99.8616 51.9916C99.9288 52.4425 100.37 52.9846 100.37 52.9846C100.505 50.8054 101.81 50.3062 102.228 50.3062C102.742 50.3062 102.871 50.9235 102.871 50.9235L102.876 50.9181Z" fill="#263238"/>
<path d="M110.155 57.1635C109.915 58.2102 109.262 59.0368 108.566 59.4716C107.524 60.1264 106.708 59.1549 106.752 57.8881C106.79 56.7449 107.385 55.0272 108.547 54.8931C109.694 54.7589 110.424 55.9666 110.15 57.1635H110.155Z" fill="#E4897B"/>
<path d="M90.7328 188.892L86.7632 188.773C86.6144 188.773 86.48 188.881 86.4464 189.042L85.6112 192.617C85.5248 192.987 85.7696 193.347 86.1104 193.352C87.5456 193.368 89.6144 193.336 91.4192 193.39C93.5264 193.454 94.8608 193.336 97.3328 193.411C98.8256 193.454 99.296 191.79 98.672 191.618C95.8496 190.84 94.0064 190.996 91.6016 189.235C91.3424 189.042 91.0496 188.902 90.7376 188.892H90.7328Z" fill="#263238"/>
<path d="M91.0156 189.386C91.0156 189.343 91.03 189.306 91.0636 189.29C91.2316 189.198 92.7196 188.415 93.1516 188.705C93.2332 188.758 93.2812 188.85 93.286 188.962C93.2908 189.155 93.2332 189.311 93.1084 189.424C92.6956 189.805 91.6588 189.612 91.078 189.467H91.0684C91.0396 189.456 91.0156 189.424 91.0156 189.386ZM91.3708 189.343C92.1676 189.515 92.7676 189.494 92.998 189.279C93.0796 189.204 93.118 189.102 93.1132 188.973C93.1132 188.925 93.094 188.892 93.0604 188.871C93.0508 188.866 93.0412 188.86 93.0316 188.855C92.7628 188.742 91.9564 189.053 91.3708 189.343Z" fill="#407BFF"/>
<path d="M91.0501 189.447C91.0261 189.426 91.0117 189.394 91.0165 189.362C91.0213 189.313 91.1557 188.229 91.6309 187.821C91.7749 187.698 91.9381 187.644 92.1157 187.671C92.3509 187.703 92.4133 187.843 92.4277 187.95C92.4805 188.412 91.5829 189.26 91.1365 189.464C91.1173 189.474 91.0933 189.474 91.0741 189.464C91.0645 189.464 91.0597 189.458 91.0501 189.453V189.447ZM92.0917 187.859C91.9621 187.837 91.8469 187.875 91.7365 187.971C91.4245 188.24 91.2757 188.889 91.2181 189.206C91.6741 188.921 92.2885 188.251 92.2597 187.971C92.2597 187.955 92.2549 187.912 92.1829 187.88C92.1589 187.869 92.1301 187.864 92.0965 187.859H92.0917Z" fill="#407BFF"/>
<path d="M118.381 90.4104C118.371 90.5929 118.366 90.7807 118.357 90.9686C118.304 92.1333 118.232 93.3464 118.126 94.6024C118.093 95.0318 118.054 95.4773 118.016 95.9175C117.944 96.685 117.862 97.4579 117.771 98.2523C117.651 99.3258 117.502 100.426 117.339 101.559C117.262 102.053 117.186 102.552 117.109 103.056C111.262 103.244 99.8959 103.464 97.0543 103.55C97.0351 103.19 97.0351 102.675 97.0543 102.031C97.0735 101.162 97.1119 100.05 97.1503 98.73C97.1791 98.0108 97.2031 97.2325 97.2271 96.4005C97.2367 95.9765 97.2463 95.5417 97.2559 95.0909C97.2799 93.9637 97.2991 92.7452 97.2991 91.457C97.2991 91.2745 97.2991 91.092 97.2991 90.9042V90.6573C97.2991 89.1436 97.2751 87.5387 97.2223 85.8748C97.1839 84.5436 97.1215 83.1695 97.0303 81.7686C96.9535 80.4858 96.8479 79.1868 96.7183 77.8718C96.4207 74.7425 95.9791 71.522 95.3359 68.3337C95.3359 68.3337 97.6495 67.7325 100.261 67.3836C104.365 71.8655 107.734 76.4011 110.23 80.9957C111.81 76.2669 112.323 71.624 111.522 67.0938C113.811 67.3836 115.683 67.8935 115.683 67.8935C115.683 67.8935 118.938 75.6603 118.39 90.4157L118.381 90.4104Z" fill="#407BFF"/>
<path opacity="0.4" d="M117.773 98.25C117.653 99.3235 117.504 100.424 117.341 101.556L97.0469 102.029C97.0661 101.159 97.1045 100.048 97.1429 98.7277L117.773 98.25Z" fill="white"/>
<path opacity="0.4" d="M118.132 94.5938C118.099 95.0232 118.06 95.4687 118.022 95.9088L97.2188 96.3919C97.2284 95.9678 97.2379 95.5331 97.2475 95.0822L118.132 94.5938Z" fill="white"/>
<path opacity="0.4" d="M118.377 90.4141C118.368 90.5966 118.363 90.7844 118.353 90.9723L97.2812 91.4607C97.2812 91.2782 97.2812 91.0957 97.2812 90.9079L118.372 90.4141H118.377Z" fill="white"/>
<path opacity="0.2" d="M97.2071 85.8729C97.1687 84.5417 97.1063 83.1676 97.0151 81.7667C96.9383 80.4839 96.8327 79.1849 96.7031 77.8699C97.5047 77.0111 98.4023 76.4743 99.2855 76.5548C99.2855 76.5548 100.265 84.0265 97.2071 85.8783V85.8729Z" fill="black"/>
<path d="M98.0871 74.1106C97.1223 76.5797 96.1622 79.1776 95.3318 81.7218C94.9046 82.9939 94.5255 84.2767 94.1943 85.5327C93.8631 86.778 93.6087 88.0501 93.5127 89.0914C93.4887 89.3491 93.4838 89.5852 93.4838 89.7731C93.4838 89.8643 93.4886 89.9448 93.4934 90.0039V90.0737C93.4934 90.0737 93.4982 90.0951 93.4934 90.0898C93.4934 90.079 93.4838 90.0683 93.479 90.0576C93.431 89.9717 93.383 89.9395 93.3974 89.9824C93.4166 90.0254 93.4934 90.122 93.6278 90.224C93.8918 90.4333 94.3286 90.6534 94.8134 90.8305C95.2982 91.013 95.8406 91.1686 96.3974 91.2975C98.6487 91.802 101.169 92.0167 103.602 92.1616L103.885 95.1943C101.265 95.8277 98.6822 96.1819 95.8838 96.0424C95.183 95.9941 94.4678 95.9189 93.719 95.7633C92.975 95.5915 92.1927 95.3714 91.3431 94.8991C90.9207 94.6575 90.4694 94.357 90.0278 93.9061C89.591 93.4552 89.1543 92.8433 88.8759 92.0919L88.7799 91.8074L88.7127 91.5712C88.6695 91.4102 88.6359 91.2653 88.6071 91.1203C88.5495 90.8305 88.511 90.5567 88.4822 90.2937C88.4294 89.7731 88.415 89.3007 88.4246 88.8445C88.4582 87.0464 88.7463 85.5327 89.0487 84.0298C89.3607 82.5376 89.7542 81.1099 90.1622 79.7036C90.5894 78.3026 91.031 76.9232 91.5303 75.5706C92.0294 74.2072 92.519 72.8922 93.1094 71.5234L98.0966 74.116L98.0871 74.1106Z" fill="#E4897B"/>
<path d="M94.2743 68.7206C91.1255 70.3846 88.4375 81.592 88.4375 81.592L96.9623 84.4583C96.9623 84.4583 98.8055 79.606 99.6695 74.6679C100.61 69.2896 98.0855 66.7078 94.2743 68.7206Z" fill="#407BFF"/>
<path opacity="0.7" d="M94.2743 68.7206C91.1255 70.3846 88.4375 81.592 88.4375 81.592L96.9623 84.4583C96.9623 84.4583 98.8055 79.606 99.6695 74.6679C100.61 69.2896 98.0855 66.7078 94.2743 68.7206Z" fill="white"/>
<path d="M102.703 92.1151L105.698 89.7266L106.543 94.8472C106.543 94.8472 103.591 96.2428 102.766 94.5574L102.703 92.1098V92.1151Z" fill="#E4897B"/>
<path d="M108.718 89.8715L109.236 94.144L106.543 94.8472L105.703 89.7266L108.718 89.8715Z" fill="#E4897B"/>
<path d="M193.55 51.8047H134.309C132.524 51.8047 131.078 53.422 131.078 55.417V189.804C131.078 191.799 132.524 193.417 134.309 193.417H193.55C195.334 193.417 196.781 191.799 196.781 189.804V55.417C196.781 53.422 195.334 51.8047 193.55 51.8047Z" fill="#263238"/>
<path d="M195.459 55.8488V184.251C195.459 185.427 194.614 186.345 193.563 186.345H134.105C133.957 186.345 133.808 186.323 133.673 186.28C133.376 186.205 133.121 186.039 132.915 185.808C132.598 185.464 132.406 184.981 132.406 184.423V55.6717C132.406 54.7431 133.021 53.9219 133.861 53.9219H150.752C151.227 53.9219 151.659 54.2708 151.837 54.7699L152.537 56.6915C152.715 57.1853 153.147 57.5342 153.622 57.5342H174.286C174.766 57.5342 175.193 57.2014 175.371 56.7076L176.072 54.7753C176.249 54.2761 176.681 53.9219 177.157 53.9219H193.798C194.715 53.9219 195.454 54.8129 195.454 55.8435L195.459 55.8488Z" fill="#407BFF"/>
<path opacity="0.6" d="M140.247 59.6797H141.125V58.37H140.247V59.6797Z" fill="white"/>
<path opacity="0.6" d="M138.825 59.6797H139.703V57.9352H138.825V59.6797Z" fill="white"/>
<path opacity="0.6" d="M137.387 59.6797H138.266V57.4951H137.387V59.6797Z" fill="white"/>
<path opacity="0.6" d="M135.95 59.6797H136.828V57.0603H135.95V59.6797Z" fill="white"/>
<path opacity="0.6" d="M187.409 57.8828H186.891V59.1925H187.409V57.8828Z" fill="white"/>
<path opacity="0.6" d="M187.775 59.6797H191.922V57.4146H187.775V59.6797Z" fill="white"/>
<path opacity="0.3" d="M195.454 62.9297H132.406V175.852H195.454V62.9297Z" fill="white"/>
<path d="M180.541 140.719H147.321C146.358 140.719 145.578 141.591 145.578 142.667V150.772C145.578 151.848 146.358 152.721 147.321 152.721H180.541C181.504 152.721 182.284 151.848 182.284 150.772V142.667C182.284 141.591 181.504 140.719 180.541 140.719Z" fill="#407BFF"/>
<path d="M153.447 149.249L152.554 147.816C152.496 147.821 152.444 147.821 152.386 147.821H151.397V149.249H150.586V144.359H152.386C153.533 144.359 154.248 145.014 154.248 146.098C154.248 146.839 153.912 147.381 153.317 147.644L154.325 149.249H153.452H153.447ZM152.348 145.127H151.397V147.075H152.348C153.058 147.075 153.428 146.71 153.428 146.098C153.428 145.487 153.058 145.127 152.348 145.127Z" fill="white"/>
<path d="M158.435 148.487V149.249H155.156V144.359H158.348V145.122H155.967V146.394H158.079V147.14H155.967V148.487H158.435Z" fill="white"/>
<path d="M160.147 145.122V146.608H162.259V147.376H160.147V149.249H159.336V144.359H162.528V145.122H160.147Z" fill="white"/>
<path d="M163.273 147.118V144.359H164.085V147.086C164.085 148.095 164.493 148.525 165.198 148.525C165.904 148.525 166.302 148.09 166.302 147.086V144.359H167.104V147.118C167.104 148.546 166.384 149.319 165.193 149.319C164.003 149.319 163.273 148.546 163.273 147.118Z" fill="white"/>
<path d="M172.133 144.359V149.249H171.466L169.056 145.937V149.249H168.25V144.359H168.917L171.327 147.671V144.359H172.133Z" fill="white"/>
<path d="M173.297 144.359H175.207C176.623 144.359 177.593 145.336 177.593 146.807C177.593 148.278 176.623 149.255 175.207 149.255H173.297V144.365V144.359ZM175.169 148.482C176.143 148.482 176.772 147.816 176.772 146.807C176.772 145.798 176.143 145.132 175.169 145.132H174.108V148.487H175.169V148.482Z" fill="white"/>
<path opacity="0.3" d="M195.454 62.9297H132.406V69.8323H195.454V62.9297Z" fill="white"/>
<path d="M182.397 114.212C184.805 102.804 178.486 91.3734 168.285 88.6809C158.083 85.9884 147.861 93.0536 145.453 104.461C143.046 115.869 149.364 127.3 159.565 129.992C169.767 132.685 179.989 125.62 182.397 114.212Z" fill="#407BFF"/>
<path d="M169.731 116.7H158.139L156.094 103.195H171.78L169.731 116.7Z" stroke="white" stroke-width="2.64" stroke-linecap="round" stroke-linejoin="round"/>
<path d="M165.859 116.7H162.01L161.328 103.195H166.536L165.859 116.7Z" stroke="white" stroke-width="2.64" stroke-linecap="round" stroke-linejoin="round"/>
<path d="M156.891 107.734H170.979" stroke="white" stroke-width="2.64" stroke-linecap="round" stroke-linejoin="round"/>
<path d="M157.641 112.25H170.221" stroke="white" stroke-width="2.64" stroke-linecap="round" stroke-linejoin="round"/>
<path d="M170.402 122.033C171.155 122.033 171.765 121.351 171.765 120.509C171.765 119.667 171.155 118.984 170.402 118.984C169.649 118.984 169.039 119.667 169.039 120.509C169.039 121.351 169.649 122.033 170.402 122.033Z" stroke="white" stroke-width="2.64" stroke-linecap="round" stroke-linejoin="round"/>
<path d="M157.465 122.033C158.218 122.033 158.828 121.351 158.828 120.509C158.828 119.667 158.218 118.984 157.465 118.984C156.712 118.984 156.102 119.667 156.102 120.509C156.102 121.351 156.712 122.033 157.465 122.033Z" stroke="white" stroke-width="2.64" stroke-linecap="round" stroke-linejoin="round"/>
<path d="M166.129 97.7296L163.936 94.9062L161.742 97.7296H162.827V100.741H165.045V97.7296H166.129Z" fill="white"/>
<path d="M171.781 103.196L175.156 102.031" stroke="white" stroke-width="2.64" stroke-linecap="round" stroke-linejoin="round"/>
<g opacity="0.1">
<path d="M160.772 57.5396L142.624 133.565L142.422 134.424L142.096 135.798L141.889 136.657L132.414 176.356V128.311L150.174 53.9219H150.75C151.225 53.9219 151.657 54.2708 151.84 54.7699L152.54 56.6969C152.718 57.1961 153.15 57.5396 153.625 57.5396H160.777H160.772Z" fill="white"/>
<path d="M195.457 96.3594V144.41L185.444 186.335H173.977L174.188 185.444L174.49 184.188L175.09 181.676L175.393 180.42L175.983 177.903L176.285 176.652L185.722 137.126V137.12L186.159 135.296L195.457 96.3594Z" fill="white"/>
<path d="M166.984 57.5391L148.945 133.093L148.84 133.543L147.851 137.682L147.745 138.133L136.24 186.339H134.104C133.955 186.339 133.806 186.317 133.672 186.274L145.163 138.133L145.273 137.682L146.262 133.543L146.368 133.093L164.406 57.5391H166.984Z" fill="white"/>
</g>
</g>
<defs>
<clipPath id="clip0_1_26721">
<rect width="240" height="200" fill="white"/>
</clipPath>
</defs>
</svg>
