<svg width="34" height="26" viewBox="0 0 34 26" fill="none" xmlns="http://www.w3.org/2000/svg">
<g id="india 4" clip-path="url(#clip0_4564_25420)">
<path id="Vector" d="M0 0H34V8.66667H0V0Z" fill="#FF9933"/>
<path id="Vector_2" d="M0 8.66406H34V17.3307H0V8.66406Z" fill="white"/>
<path id="Vector_3" d="M0 17.3359H34V26.0026H0V17.3359Z" fill="#128807"/>
<g id="Group">
<path id="Vector_4" d="M17.0016 16.4646C18.8793 16.4646 20.4016 14.9125 20.4016 12.9979C20.4016 11.0833 18.8793 9.53125 17.0016 9.53125C15.1238 9.53125 13.6016 11.0833 13.6016 12.9979C13.6016 14.9125 15.1238 16.4646 17.0016 16.4646Z" fill="#000088"/>
<path id="Vector_5" d="M16.9984 16.0276C18.6415 16.0276 19.9734 14.6695 19.9734 12.9943C19.9734 11.319 18.6415 9.96094 16.9984 9.96094C15.3554 9.96094 14.0234 11.319 14.0234 12.9943C14.0234 14.6695 15.3554 16.0276 16.9984 16.0276Z" fill="white"/>
<path id="Vector_6" d="M17.0013 13.604C17.3299 13.604 17.5963 13.3323 17.5963 12.9973C17.5963 12.6622 17.3299 12.3906 17.0013 12.3906C16.6726 12.3906 16.4062 12.6622 16.4062 12.9973C16.4062 13.3323 16.6726 13.604 17.0013 13.604Z" fill="#000088"/>
<g id="d">
<g id="c">
<g id="b">
<g id="a">
<path id="Vector_7" d="M19.9399 13.5406C20.0237 13.5519 20.1005 13.4917 20.1115 13.4063C20.1226 13.3209 20.0636 13.2425 19.9798 13.2313C19.896 13.2201 19.8192 13.2802 19.8082 13.3656C19.7971 13.451 19.8561 13.5294 19.9399 13.5406Z" fill="#000088"/>
<path id="Vector_8" d="M17.0083 16.0226L17.1103 14.2026L17.0083 13.3359L16.9062 14.2026L17.0083 16.0226Z" fill="#000088"/>
</g>
<g id="a_2">
<path id="Vector_9" d="M19.6976 14.3006C19.7759 14.3338 19.8654 14.2965 19.8975 14.2172C19.9296 14.1378 19.8921 14.0466 19.8137 14.0133C19.7354 13.9801 19.6459 14.0174 19.6138 14.0967C19.5817 14.1761 19.6193 14.2673 19.6976 14.3006Z" fill="#000088"/>
<path id="Vector_10" d="M16.2407 15.9185L16.8008 14.1885L16.9201 13.3242L16.6012 14.1337L16.2407 15.9185Z" fill="#000088"/>
</g>
</g>
<g id="b_2">
<g id="a_3">
<path id="Vector_11" d="M19.2726 14.9591C19.3399 15.0119 19.436 14.9995 19.4871 14.9314C19.5383 14.8634 19.5252 14.7654 19.4578 14.7127C19.3905 14.6599 19.2945 14.6724 19.2433 14.7404C19.1922 14.8085 19.2053 14.9064 19.2726 14.9591Z" fill="#000088"/>
<path id="Vector_12" d="M15.5156 15.6125L16.4961 14.0897L16.8314 13.2869L16.3177 13.9846L15.5156 15.6125Z" fill="#000088"/>
</g>
<g id="a_4">
<path id="Vector_13" d="M18.6955 15.5007C18.7472 15.5693 18.8432 15.5827 18.91 15.5305C18.9768 15.4783 18.989 15.3803 18.9373 15.3117C18.8857 15.2431 18.7896 15.2298 18.7228 15.282C18.656 15.3342 18.6438 15.4321 18.6955 15.5007Z" fill="#000088"/>
<path id="Vector_14" d="M14.9059 15.1368L16.24 13.9247L16.768 13.2382L16.0946 13.7765L14.9059 15.1368Z" fill="#000088"/>
</g>
</g>
</g>
<g id="c_2">
<g id="b_3">
<g id="a_5">
<path id="Vector_15" d="M17.9851 15.85C18.0171 15.9293 18.1066 15.9666 18.185 15.9333C18.2634 15.9 18.3009 15.8088 18.2689 15.7295C18.2369 15.6502 18.1474 15.6129 18.069 15.6462C17.9906 15.6795 17.9531 15.7708 17.9851 15.85Z" fill="#000088"/>
<path id="Vector_16" d="M14.4158 14.5046L16.0129 13.6826L16.6989 13.1595L15.912 13.5042L14.4158 14.5046Z" fill="#000088"/>
</g>
<g id="a_6">
<path id="Vector_17" d="M17.2305 16.0241C17.2412 16.1092 17.3181 16.1688 17.4022 16.1572C17.4862 16.1457 17.5457 16.0673 17.535 15.9822C17.5243 15.8971 17.4475 15.8375 17.3634 15.8491C17.2793 15.8606 17.2198 15.939 17.2305 16.0241Z" fill="#000088"/>
<path id="Vector_18" d="M14.1205 13.7815L15.8712 13.4078L16.6666 13.0835L15.8193 13.2095L14.1205 13.7815Z" fill="#000088"/>
</g>
</g>
<g id="b_4">
<g id="a_7">
<path id="Vector_19" d="M16.4507 15.9751C16.4393 16.0608 16.4978 16.1392 16.5812 16.1501C16.6647 16.161 16.7416 16.1004 16.7529 16.0146C16.7642 15.9289 16.7058 15.8505 16.6223 15.8396C16.5388 15.8287 16.462 15.8893 16.4507 15.9751Z" fill="#000088"/>
<path id="Vector_20" d="M14.0217 12.9923L15.8057 13.0834L16.6558 12.9813L15.8065 12.8863L14.0217 12.9923Z" fill="#000088"/>
</g>
<g id="a_8">
<path id="Vector_21" d="M15.7137 15.7364C15.6812 15.8162 15.7181 15.9074 15.796 15.9403C15.8739 15.9731 15.9634 15.9351 15.9959 15.8553C16.0284 15.7756 15.9915 15.6843 15.9136 15.6515C15.8356 15.6187 15.7461 15.6567 15.7137 15.7364Z" fill="#000088"/>
<path id="Vector_22" d="M14.1239 12.204L15.8212 12.7752L16.6687 12.898L15.8744 12.573L14.1239 12.204Z" fill="#000088"/>
</g>
</g>
</g>
</g>
<g id="d_2">
<g id="c_3">
<g id="b_5">
<g id="a_9">
<path id="Vector_23" d="M15.0698 15.3072C15.0187 15.3753 15.0318 15.4732 15.0991 15.5259C15.1664 15.5787 15.2625 15.5663 15.3136 15.4982C15.3648 15.4302 15.3517 15.3322 15.2843 15.2795C15.217 15.2267 15.121 15.2392 15.0698 15.3072Z" fill="#000088"/>
<path id="Vector_24" d="M14.4243 11.4785L15.9204 12.4788L16.7074 12.8236L16.0213 12.3005L14.4243 11.4785Z" fill="#000088"/>
</g>
<g id="a_10">
<path id="Vector_25" d="M14.5512 14.713C14.4844 14.7652 14.4723 14.8631 14.524 14.9317C14.5757 15.0004 14.6718 15.0138 14.7385 14.9616C14.8053 14.9095 14.8174 14.8115 14.7657 14.7429C14.714 14.6742 14.6179 14.6609 14.5512 14.713Z" fill="#000088"/>
<path id="Vector_26" d="M14.8999 10.8515L16.0915 12.2122L16.7645 12.7526L16.2345 12.0664L14.8999 10.8515Z" fill="#000088"/>
</g>
</g>
<g id="b_6">
<g id="a_11">
<path id="Vector_27" d="M14.1865 14.0124C14.1086 14.0451 14.0719 14.1364 14.1045 14.2162C14.137 14.2961 14.2265 14.3342 14.3044 14.3015C14.3822 14.2687 14.4189 14.1775 14.3864 14.0977C14.3538 14.0178 14.2643 13.9797 14.1865 14.0124Z" fill="#000088"/>
<path id="Vector_28" d="M15.5076 10.3725L16.3132 12.0008L16.8263 12.7L16.4887 11.8976L15.5076 10.3725Z" fill="#000088"/>
</g>
<g id="a_12">
<path id="Vector_29" d="M14.0267 13.2332C13.9432 13.2443 13.8845 13.3226 13.8958 13.4083C13.907 13.4939 13.9839 13.5544 14.0675 13.5434C14.151 13.5324 14.2096 13.454 14.1984 13.3684C14.1871 13.2827 14.1103 13.2222 14.0267 13.2332Z" fill="#000088"/>
<path id="Vector_30" d="M16.2264 10.0637L16.592 11.8487L16.9102 12.6594L16.7872 11.7955L16.2264 10.0637Z" fill="#000088"/>
</g>
</g>
</g>
<g id="c_4">
<g id="b_7">
<g id="a_13">
<path id="Vector_31" d="M14.0662 12.4443C13.9821 12.4328 13.9053 12.4924 13.8946 12.5775C13.8839 12.6626 13.9433 12.7409 14.0274 12.7525C14.1115 12.7641 14.1884 12.7045 14.1991 12.6194C14.2098 12.5343 14.1503 12.4559 14.0662 12.4443Z" fill="#000088"/>
<path id="Vector_32" d="M16.9943 9.97002L16.9047 11.789L17.0048 12.6558L17.0982 11.7899L16.9943 9.97002Z" fill="#000088"/>
</g>
<g id="a_14">
<path id="Vector_33" d="M14.3102 11.6916C14.2319 11.6584 14.1424 11.6957 14.1103 11.775C14.0782 11.8544 14.1158 11.9456 14.1941 11.9789C14.2724 12.0121 14.3619 11.9748 14.394 11.8954C14.4261 11.8161 14.3886 11.7249 14.3102 11.6916Z" fill="#000088"/>
<path id="Vector_34" d="M17.7749 10.0659L17.2149 11.7959L17.0955 12.6601L17.4145 11.8507L17.7749 10.0659Z" fill="#000088"/>
</g>
</g>
<g id="b_8">
<g id="a_15">
<path id="Vector_35" d="M14.7352 11.0174C14.6679 10.9647 14.5718 10.9771 14.5207 11.0451C14.4695 11.1132 14.4826 11.2111 14.55 11.2639C14.6173 11.3166 14.7133 11.3042 14.7645 11.2362C14.8156 11.1681 14.8025 11.0702 14.7352 11.0174Z" fill="#000088"/>
<path id="Vector_36" d="M18.4922 10.364L17.5116 11.8869L17.1764 12.6896L17.6901 11.992L18.4922 10.364Z" fill="#000088"/>
</g>
<g id="a_16">
<path id="Vector_37" d="M15.3199 10.4837C15.2682 10.4151 15.1722 10.4017 15.1054 10.4538C15.0387 10.506 15.0265 10.6039 15.0782 10.6726C15.1299 10.7412 15.226 10.7546 15.2927 10.7024C15.3595 10.6503 15.3717 10.5524 15.3199 10.4837Z" fill="#000088"/>
<path id="Vector_38" d="M19.1095 10.8477L17.7754 12.0595L17.2475 12.7461L17.9209 12.2079L19.1095 10.8477Z" fill="#000088"/>
</g>
</g>
</g>
</g>
<g id="d_3">
<g id="c_5">
<g id="b_9">
<g id="a_17">
<path id="Vector_39" d="M16.0071 10.1421C15.9751 10.0629 15.8856 10.0256 15.8072 10.0589C15.7288 10.0922 15.6912 10.1834 15.7233 10.2627C15.7553 10.342 15.8448 10.3793 15.9232 10.346C16.0016 10.3127 16.0391 10.2214 16.0071 10.1421Z" fill="#000088"/>
<path id="Vector_40" d="M19.5764 11.4876L17.9793 12.3096L17.2933 12.8327L18.0802 12.488L19.5764 11.4876Z" fill="#000088"/>
</g>
<g id="a_18">
<path id="Vector_41" d="M16.7617 9.96809C16.751 9.88299 16.6741 9.82338 16.59 9.83495C16.5059 9.84652 16.4465 9.92488 16.4572 10.01C16.4679 10.0951 16.5447 10.1547 16.6288 10.1431C16.7129 10.1316 16.7724 10.0532 16.7617 9.96809Z" fill="#000088"/>
<path id="Vector_42" d="M19.8717 12.2107L18.1209 12.5843L17.3256 12.9087L18.1729 12.7827L19.8717 12.2107Z" fill="#000088"/>
</g>
</g>
<g id="b_10">
<g id="a_19">
<path id="Vector_43" d="M17.5415 10.0091C17.5528 9.92326 17.4944 9.8449 17.411 9.83402C17.3276 9.82315 17.2507 9.88388 17.2394 9.96967C17.228 10.0555 17.2864 10.1338 17.3698 10.1447C17.4532 10.1556 17.5301 10.0948 17.5415 10.0091Z" fill="#000088"/>
<path id="Vector_44" d="M19.9705 12.9914L18.1866 12.9019L17.3364 13.0037L18.1856 13.0976L19.9705 12.9914Z" fill="#000088"/>
</g>
<g id="a_20">
<path id="Vector_45" d="M18.2784 10.2555C18.3109 10.1757 18.2742 10.0844 18.1963 10.0516C18.1184 10.0189 18.0289 10.057 17.9964 10.1368C17.9639 10.2166 18.0006 10.3078 18.0785 10.3406C18.1564 10.3734 18.2459 10.3352 18.2784 10.2555Z" fill="#000088"/>
<path id="Vector_46" d="M19.8682 13.7874L18.1711 13.2162L17.3236 13.0939L18.1177 13.419L19.8682 13.7874Z" fill="#000088"/>
</g>
</g>
</g>
<g id="c_6">
<g id="b_11">
<g id="a_21">
<path id="Vector_47" d="M18.9294 10.6904C18.981 10.6219 18.9686 10.5239 18.9017 10.4716C18.8348 10.4193 18.7387 10.4325 18.6872 10.501C18.6356 10.5695 18.648 10.6674 18.7149 10.7197C18.7818 10.772 18.8778 10.7589 18.9294 10.6904Z" fill="#000088"/>
<path id="Vector_48" d="M19.5749 14.5175L18.0807 13.5176L17.2935 13.1751L17.9781 13.6987L19.5749 14.5175Z" fill="#000088"/>
</g>
<g id="a_22">
<path id="Vector_49" d="M19.4558 11.2845C19.523 11.2319 19.5359 11.134 19.4846 11.0658C19.4333 10.9976 19.3373 10.985 19.2701 11.0376C19.2029 11.0902 19.19 11.1881 19.2413 11.2563C19.2926 11.3245 19.3886 11.3371 19.4558 11.2845Z" fill="#000088"/>
<path id="Vector_50" d="M19.1069 15.1455L17.9176 13.7852L17.2443 13.2464L17.7727 13.9329L19.1069 15.1455Z" fill="#000088"/>
</g>
</g>
<g id="b_12">
<g id="a_23">
<path id="Vector_51" d="M19.8129 11.9856C19.8911 11.9525 19.9284 11.8612 19.8962 11.7818C19.864 11.7023 19.7745 11.6647 19.6963 11.6979C19.6181 11.731 19.5808 11.8222 19.613 11.9017C19.6452 11.9811 19.7347 12.0187 19.8129 11.9856Z" fill="#000088"/>
<path id="Vector_52" d="M18.4914 15.6333L17.6881 14.0053L17.1747 13.3071L17.5107 14.1098L18.4914 15.6333Z" fill="#000088"/>
</g>
<g id="a_24">
<path id="Vector_53" d="M19.9648 12.7569C20.0487 12.7455 20.1079 12.6672 20.097 12.5819C20.0862 12.4966 20.0093 12.4367 19.9254 12.4481C19.8415 12.4595 19.7823 12.5379 19.7932 12.6232C19.804 12.7084 19.8809 12.7683 19.9648 12.7569Z" fill="#000088"/>
<path id="Vector_54" d="M17.7721 15.927L17.41 14.1421L17.0913 13.3323L17.2118 14.1964L17.7721 15.927Z" fill="#000088"/>
</g>
</g>
</g>
</g>
</g>
</g>
<defs>
<clipPath id="clip0_4564_25420">
<rect width="34" height="26" fill="white"/>
</clipPath>
</defs>
</svg>
