<svg width="269" height="195" viewBox="0 0 269 195" fill="none" xmlns="http://www.w3.org/2000/svg">
<g clip-path="url(#clip0_8_2922)">
<path d="M21.3842 79.0764H20.0433L17.1173 75.0181V72.3544C17.1173 72.3544 15.0449 72.2276 15.2886 75.7154C15.5327 79.2036 15.2686 78.3151 15.2686 78.3151C15.2686 78.3151 10.8682 78.3319 10.5026 78.7125C10.2365 78.989 10.1166 83.3391 10.0704 85.6986C10.0472 86.8866 10.7792 87.991 11.8889 88.2718C12.0464 88.312 12.2059 88.3354 12.3627 88.3354C13.4602 88.3354 19.0676 87.4474 19.0676 87.4474H21.3834V79.0764H21.3842Z" fill="#EBEBEB"/>
<path d="M25.2223 78.3452L24.3974 87.4719H22.1012V78.5285L25.2223 78.3452Z" fill="#EBEBEB"/>
<path d="M176.353 33.692C176.307 33.6959 176.361 32.9581 176.04 31.6968C175.89 31.0654 175.588 30.3201 175.115 29.5315C174.639 28.7461 173.955 27.9271 173.026 27.2329C172.101 26.5453 170.935 25.9615 169.59 25.7275C168.255 25.5021 166.749 25.5453 165.316 26.089C164.595 26.339 163.899 26.7165 163.26 27.1931C162.613 27.6603 162.027 28.2402 161.543 28.9122C160.544 30.2363 159.981 31.9374 159.964 33.6909C159.98 35.4447 160.543 37.1471 161.542 38.4715C162.026 39.1439 162.613 39.7238 163.26 40.191C163.899 40.6676 164.594 41.0451 165.316 41.2951C166.749 41.8392 168.255 41.8824 169.59 41.6566C170.935 41.4222 172.101 40.8384 173.026 40.1508C173.955 39.4566 174.639 38.6372 175.115 37.8522C175.587 37.0636 175.89 36.3187 176.04 35.6873C176.361 34.4256 176.307 33.6881 176.353 33.692C176.358 33.692 176.361 33.7373 176.361 33.8254C176.359 33.9311 176.358 34.0598 176.356 34.2182C176.356 34.3913 176.346 34.605 176.305 34.855C176.271 35.1058 176.239 35.3971 176.149 35.7142C176.013 36.3585 175.723 37.1221 175.254 37.9345C174.782 38.7429 174.094 39.5904 173.15 40.3127C172.209 41.028 171.017 41.6395 169.634 41.8914C168.261 42.1348 166.709 42.0989 165.225 41.5443C164.478 41.2892 163.758 40.902 163.095 40.4118C162.425 39.9305 161.816 39.3326 161.314 38.6384C160.277 37.2707 159.69 35.5067 159.675 33.6913C159.691 31.8762 160.278 30.113 161.314 28.7457C161.817 28.0519 162.425 27.4536 163.095 26.9727C163.757 26.4825 164.478 26.0956 165.224 25.8402C166.708 25.286 168.261 25.2501 169.633 25.4931C171.015 25.7446 172.209 26.3561 173.149 27.0714C174.093 27.7933 174.781 28.6408 175.253 29.4496C175.722 30.262 176.013 31.0256 176.148 31.6699C176.238 31.9874 176.27 32.2787 176.304 32.5295C176.346 32.7795 176.355 32.9932 176.355 33.1663C176.357 33.3247 176.359 33.4534 176.36 33.5591C176.361 33.6468 176.358 33.692 176.353 33.692Z" fill="#E0E0E0"/>
<path d="M187.46 47.4271C187.415 47.493 184.491 45.6167 180.928 43.2365C177.364 40.8556 174.512 38.8728 174.556 38.8069C174.6 38.741 177.525 40.6169 181.089 42.9978C184.651 45.378 187.504 47.3611 187.46 47.4271Z" fill="#E0E0E0"/>
<path d="M65.9713 142.69H32.5303V185.601H65.9713V142.69Z" fill="#EBEBEB"/>
<path d="M54.969 142.69H21.528V185.601H54.969V142.69Z" fill="#F5F5F5"/>
<path fill-rule="evenodd" clip-rule="evenodd" d="M28.356 146.84V144.977H25.1985V146.84C25.1985 147.637 25.8027 148.298 26.577 148.397L26.5774 150.019H25.8756C25.6299 150.019 25.4289 150.16 25.4289 150.332H28.1264C28.1264 150.16 27.9254 150.019 27.6797 150.019H26.9775V148.397C27.7522 148.298 28.356 147.636 28.356 146.84Z" fill="#E0E0E0"/>
<path fill-rule="evenodd" clip-rule="evenodd" d="M34.3998 146.715C34.1533 145.721 33.247 144.977 32.1749 144.977H32.1745C31.1024 144.977 30.1964 145.721 29.9496 146.715H31.9617V149.636C31.9433 149.864 31.7513 150.043 31.5174 150.043C31.2834 150.043 31.0914 149.864 31.0726 149.636H30.6443C30.6631 150.099 31.0468 150.469 31.5174 150.469C31.9876 150.469 32.3716 150.099 32.3904 149.636V146.715H34.3998Z" fill="#E0E0E0"/>
<path d="M66.0544 163.224C66.0544 163.28 56.018 163.325 43.6399 163.325C31.2576 163.325 21.2231 163.279 21.2231 163.224C21.2231 163.167 31.2576 163.122 43.6399 163.122C56.018 163.122 66.0544 163.167 66.0544 163.224Z" fill="#E0E0E0"/>
<path d="M38.2485 185.778C38.1921 185.778 38.1466 176.119 38.1466 164.205C38.1466 152.288 38.1925 142.63 38.2485 142.63C38.3049 142.63 38.3504 152.288 38.3504 164.205C38.3504 176.119 38.3049 185.778 38.2485 185.778Z" fill="#E0E0E0"/>
<path d="M231.91 121.512H198.469V164.423H231.91V121.512Z" fill="#EBEBEB"/>
<path d="M220.907 121.512H187.466V164.423H220.907V121.512Z" fill="#F5F5F5"/>
<path fill-rule="evenodd" clip-rule="evenodd" d="M194.295 125.662V123.799H191.137V125.662C191.137 126.459 191.741 127.12 192.516 127.219L192.516 128.841H191.814C191.569 128.841 191.368 128.982 191.368 129.154H194.065C194.065 128.982 193.864 128.841 193.618 128.841H192.916V127.219C193.69 127.12 194.295 126.459 194.295 125.662Z" fill="#E0E0E0"/>
<path fill-rule="evenodd" clip-rule="evenodd" d="M200.338 125.537C200.092 124.543 199.185 123.799 198.114 123.799C197.041 123.799 196.135 124.543 195.888 125.537H197.9V128.457C197.882 128.686 197.69 128.865 197.456 128.865C197.222 128.865 197.03 128.686 197.011 128.457H196.583C196.602 128.921 196.986 129.291 197.456 129.291C197.926 129.291 198.31 128.921 198.329 128.457V125.537H200.338Z" fill="#E0E0E0"/>
<path d="M231.993 142.045C231.993 142.102 221.957 142.147 209.579 142.147C197.197 142.147 187.162 142.101 187.162 142.045C187.162 141.99 197.196 141.944 209.579 141.944C221.956 141.944 231.993 141.989 231.993 142.045Z" fill="#E0E0E0"/>
<path d="M204.187 164.6C204.13 164.6 204.085 154.94 204.085 143.027C204.085 131.109 204.131 121.451 204.187 121.451C204.243 121.451 204.289 131.109 204.289 143.027C204.289 154.94 204.243 164.6 204.187 164.6Z" fill="#E0E0E0"/>
<path d="M193.383 136.316H165.293V164.273H193.383V136.316Z" fill="#EBEBEB"/>
<path d="M182.258 136.316H154.168V164.273H182.258V136.316Z" fill="#F5F5F5"/>
<path fill-rule="evenodd" clip-rule="evenodd" d="M161.745 141.036H162.545L161.856 139.779L161.167 138.522L160.479 139.779L159.79 141.036H160.59V144.197H158.622V141.036H159.422L158.733 139.779L158.045 138.522L157.356 139.779L156.667 141.036H157.467V144.197H157.003L157.003 144.637H162.209V144.197H161.745V141.036Z" fill="#E0E0E0"/>
<path d="M168.524 164.235C168.468 164.235 168.423 158.032 168.423 150.382C168.423 142.729 168.468 136.527 168.524 136.527C168.581 136.527 168.626 142.729 168.626 150.382C168.627 158.032 168.581 164.235 168.524 164.235Z" fill="#E0E0E0"/>
<path d="M193.653 150.258C193.653 150.315 184.755 150.36 173.781 150.36C162.803 150.36 153.907 150.314 153.907 150.258C153.907 150.202 162.803 150.157 173.781 150.157C184.755 150.157 193.653 150.202 193.653 150.258Z" fill="#E0E0E0"/>
<path fill-rule="evenodd" clip-rule="evenodd" d="M245.111 186.002H78.6343C72.5865 186.002 67.6837 181.122 67.6837 175.103C67.6837 169.084 72.5865 164.204 78.6343 164.204H245.111C251.159 164.204 256.062 169.084 256.062 175.103C256.062 181.122 251.159 186.002 245.111 186.002Z" fill="#E0E0E0"/>
<path fill-rule="evenodd" clip-rule="evenodd" d="M246.117 181.28H78.7095C75.282 181.28 72.5034 178.514 72.5034 175.103C72.5034 171.692 75.282 168.926 78.7095 168.926H246.117C249.545 168.926 252.323 171.692 252.323 175.103C252.323 178.514 249.545 181.28 246.117 181.28Z" fill="#EBEBEB"/>
<path d="M84.608 175.103C84.5778 175.105 84.6092 174.651 84.4101 173.874C84.2134 173.113 83.7021 171.994 82.5516 171.128C81.9815 170.706 81.264 170.347 80.4372 170.204C79.6159 170.065 78.6895 170.093 77.8087 170.427C77.3651 170.581 76.9376 170.813 76.5446 171.107C76.1472 171.394 75.7863 171.751 75.4893 172.164C74.8749 172.978 74.5289 174.024 74.5187 175.102C74.5285 176.181 74.8745 177.227 75.4889 178.041C75.7864 178.455 76.1469 178.812 76.5446 179.099C76.9376 179.392 77.3651 179.624 77.8087 179.778C78.6899 180.113 79.6163 180.14 80.4376 180.002C81.2648 179.858 81.9822 179.499 82.552 179.077C83.7025 178.211 84.2134 177.092 84.4101 176.331C84.6092 175.555 84.5778 175.1 84.608 175.103C84.6151 175.103 84.6162 175.214 84.6119 175.427C84.6123 175.534 84.6072 175.666 84.5818 175.82C84.5614 175.975 84.5422 176.155 84.4869 176.351C84.3106 177.129 83.811 178.286 82.6394 179.191C82.059 179.633 81.3224 180.011 80.4685 180.167C79.6206 180.318 78.6613 180.296 77.7444 179.954C77.2832 179.796 76.8377 179.557 76.4286 179.255C76.0144 178.957 75.6386 178.588 75.3279 178.159C74.6868 177.314 74.324 176.224 74.3146 175.102C74.3244 173.98 74.6872 172.891 75.3283 172.046C75.6386 171.617 76.0148 171.247 76.4286 170.951C76.8381 170.648 77.2832 170.409 77.7444 170.251C78.6609 169.909 79.6206 169.888 80.4681 170.038C81.322 170.194 82.0586 170.572 82.639 171.014C83.811 171.919 84.3106 173.076 84.4869 173.855C84.5422 174.05 84.5614 174.23 84.5818 174.385C84.6072 174.539 84.6127 174.671 84.6119 174.778C84.6162 174.992 84.6151 175.103 84.608 175.103Z" fill="#E0E0E0"/>
<path d="M79.5125 176.936C80.5296 176.936 81.3541 176.115 81.3541 175.103C81.3541 174.091 80.5296 173.27 79.5125 173.27C78.4953 173.27 77.6708 174.091 77.6708 175.103C77.6708 176.115 78.4953 176.936 79.5125 176.936Z" fill="#E0E0E0"/>
<path d="M250.754 175.103C250.723 175.105 250.755 174.651 250.556 173.874C250.359 173.113 249.848 171.994 248.697 171.128C248.127 170.706 247.41 170.347 246.583 170.204C245.761 170.065 244.835 170.093 243.954 170.427C243.511 170.581 243.083 170.813 242.69 171.107C242.293 171.394 241.932 171.751 241.635 172.164C241.02 172.978 240.674 174.024 240.664 175.102C240.674 176.181 241.02 177.227 241.634 178.041C241.932 178.455 242.292 178.812 242.69 179.099C243.083 179.392 243.511 179.624 243.954 179.778C244.835 180.113 245.762 180.14 246.583 180.002C247.41 179.858 248.128 179.499 248.698 179.077C249.848 178.211 250.359 177.092 250.556 176.331C250.755 175.555 250.723 175.1 250.754 175.103C250.761 175.103 250.762 175.214 250.757 175.427C250.758 175.534 250.753 175.666 250.727 175.82C250.707 175.975 250.688 176.155 250.632 176.351C250.456 177.129 249.957 178.286 248.785 179.191C248.204 179.633 247.467 180.011 246.614 180.167C245.766 180.318 244.806 180.296 243.89 179.954C243.428 179.796 242.983 179.557 242.574 179.255C242.16 178.957 241.783 178.588 241.473 178.159C240.832 177.314 240.469 176.224 240.46 175.102C240.47 173.98 240.832 172.891 241.473 172.046C241.784 171.617 242.16 171.247 242.574 170.951C242.983 170.648 243.428 170.409 243.89 170.251C244.806 169.909 245.766 169.888 246.613 170.038C247.467 170.194 248.204 170.572 248.784 171.014C249.956 171.919 250.456 173.076 250.632 173.855C250.687 174.05 250.707 174.23 250.727 174.385C250.752 174.539 250.758 174.671 250.757 174.778C250.762 174.992 250.761 175.103 250.754 175.103Z" fill="#E0E0E0"/>
<path d="M245.658 176.936C246.675 176.936 247.5 176.115 247.5 175.103C247.5 174.091 246.675 173.27 245.658 173.27C244.641 173.27 243.816 174.091 243.816 175.103C243.816 176.115 244.641 176.936 245.658 176.936Z" fill="#E0E0E0"/>
<path d="M246.127 169.98C246.127 170.036 208.826 170.081 162.824 170.081C116.805 170.081 79.5125 170.035 79.5125 169.98C79.5125 169.923 116.805 169.878 162.824 169.878C208.826 169.878 246.127 169.923 246.127 169.98Z" fill="#E0E0E0"/>
<path d="M246.127 180.175C246.127 180.231 208.98 180.276 163.169 180.276C117.341 180.276 80.2029 180.23 80.2029 180.175C80.2029 180.119 117.341 180.073 163.169 180.073C208.98 180.073 246.127 180.118 246.127 180.175Z" fill="#E0E0E0"/>
<path d="M254.177 186.204C254.177 186.26 195.02 186.306 122.064 186.306C49.082 186.306 -10.0623 186.26 -10.0623 186.204C-10.0623 186.148 49.082 186.103 122.064 186.103C195.02 186.103 254.177 186.148 254.177 186.204Z" fill="#263238"/>
<path d="M115.992 136.636H40.9591C39.5822 136.636 38.4658 135.525 38.4658 134.154V28.8436C38.4658 27.4732 39.5822 26.3621 40.9591 26.3621H115.992C117.369 26.3621 118.485 27.4732 118.485 28.8436V134.154C118.485 135.525 117.369 136.636 115.992 136.636Z" fill="#0F3970"/>
<g opacity="0.3">
<path d="M115.992 136.636H40.9591C39.5822 136.636 38.4658 135.525 38.4658 134.154V28.8436C38.4658 27.4732 39.5822 26.3621 40.9591 26.3621H115.992C117.369 26.3621 118.485 27.4732 118.485 28.8436V134.154C118.485 135.525 117.369 136.636 115.992 136.636Z" fill="#0F3970"/>
</g>
<path d="M112.871 32.2616H44.0807V132.775H112.871V32.2616Z" fill="#F5F5F5"/>
<path d="M111.924 31.4558H43.1335V130.05H111.924V31.4558Z" fill="white"/>
<path d="M111.923 130.05C111.922 129.226 111.885 89.6313 111.83 31.4558L111.923 31.5483C91.0596 31.551 67.7169 31.5541 43.1414 31.5572H43.1336L43.2354 31.4558C43.228 68.4785 43.2213 102.684 43.2154 130.05L43.1332 129.968C84.9574 130.018 111.249 130.049 111.923 130.05C111.249 130.051 84.9574 130.082 43.1332 130.132H43.0509V130.05C43.0454 102.684 43.0383 68.4785 43.0309 31.4558V31.354H43.1328H43.1406C67.7161 31.3572 91.0584 31.3603 111.922 31.363H112.016V31.4558C111.962 89.6313 111.924 129.226 111.923 130.05Z" fill="#263238"/>
<path d="M87.522 130.05C87.522 130.05 105.198 123.352 111.76 112.246C111.76 112.246 105.892 116.837 97.6344 115.171C97.6344 115.171 92.9549 127.601 87.522 130.05Z" fill="white"/>
<path d="M87.522 130.05C87.5847 130.015 87.6634 129.971 87.8143 129.887C88.0255 129.776 88.3041 129.602 88.6583 129.349C89.3633 128.843 90.3053 127.976 91.3041 126.714C93.3025 124.193 95.5662 120.168 97.5478 115.139L97.5768 115.065L97.6528 115.081C99.6363 115.486 101.824 115.556 104.05 115.208C104.61 115.141 105.162 114.993 105.724 114.876C106.277 114.718 106.839 114.571 107.388 114.366C108.492 113.977 109.58 113.481 110.62 112.874C110.998 112.645 111.376 112.41 111.697 112.166L112.12 111.845L111.848 112.297C110.75 114.126 109.434 115.749 108.049 117.192C106.652 118.627 105.19 119.89 103.743 121.015C100.841 123.261 98.0117 124.967 95.5936 126.292C93.1705 127.614 91.1466 128.55 89.7371 129.164C89.0318 129.47 88.4789 129.693 88.1023 129.84C87.9205 129.909 87.7779 129.962 87.6721 130.002C87.5764 130.039 87.5153 130.051 87.522 130.05C87.5286 130.048 87.5663 130.023 87.6638 129.984C87.7677 129.94 87.9076 129.88 88.0862 129.804C88.4577 129.645 89.0051 129.41 89.7046 129.093C91.1027 128.459 93.1144 127.505 95.5243 126.169C97.9291 124.83 100.744 123.116 103.627 120.869C105.066 119.744 106.519 118.484 107.905 117.055C109.28 115.618 110.584 114.006 111.672 112.194L111.823 112.325C111.487 112.581 111.109 112.815 110.724 113.048C109.671 113.663 108.572 114.164 107.456 114.556C106.901 114.763 106.333 114.911 105.774 115.069C105.206 115.187 104.648 115.337 104.082 115.403C101.831 115.752 99.6187 115.675 97.6168 115.261L97.7214 115.203C95.7167 120.246 93.4256 124.266 91.3911 126.782C90.375 128.041 89.4138 128.902 88.6928 129.397C87.9683 129.9 87.5322 130.025 87.522 130.05Z" fill="#263238"/>
<path d="M58.2475 66.6947H52.5179C51.7781 66.6947 51.1782 66.0976 51.1782 65.3613V59.6587C51.1782 58.9224 51.7781 58.3253 52.5179 58.3253H58.2475C58.9873 58.3253 59.5873 58.9224 59.5873 59.6587V65.3613C59.5873 66.0976 58.9873 66.6947 58.2475 66.6947Z" fill="#0F3971"/>
<path d="M54.8553 63.717C54.8534 63.717 54.851 63.717 54.8487 63.7166C54.7938 63.7151 54.7421 63.6901 54.7064 63.6488L53.5289 62.281C53.4584 62.1995 53.4682 62.0763 53.5505 62.0061C53.6328 61.9367 53.7562 61.9456 53.8267 62.0275L54.8651 63.2334L57.5948 60.4551C57.6704 60.3782 57.7946 60.3767 57.8718 60.4519C57.949 60.5272 57.9505 60.6508 57.8749 60.7277L54.9956 63.6585C54.9584 63.696 54.9079 63.717 54.8553 63.717Z" fill="white"/>
<path d="M103.897 59.344C103.897 59.4001 94.9476 59.4454 83.9104 59.4454C72.8693 59.4454 63.9215 59.3997 63.9215 59.344C63.9215 59.2882 72.8693 59.2426 83.9104 59.2426C94.9476 59.2422 103.897 59.2878 103.897 59.344Z" fill="#263238"/>
<path d="M80.7647 65.465C80.7647 65.479 80.5292 65.4923 80.1028 65.5044C79.642 65.5126 79.0335 65.5235 78.298 65.5368C76.7741 65.5551 74.6687 65.5664 72.3435 65.5664C70.0175 65.5664 67.9121 65.5551 66.3882 65.5368C65.6527 65.5235 65.0441 65.5126 64.5833 65.5044C64.1574 65.4923 63.9215 65.479 63.9215 65.465C63.9215 65.451 64.157 65.4377 64.5833 65.4256C65.0441 65.4174 65.6523 65.4065 66.3882 65.3932C67.9121 65.3749 70.0175 65.3636 72.3435 65.3636C74.6687 65.3636 76.7741 65.3749 78.298 65.3932C79.0335 65.4065 79.642 65.4174 80.1028 65.4256C80.5288 65.4377 80.7647 65.451 80.7647 65.465Z" fill="#263238"/>
<path d="M103.897 62.0564C103.897 62.1126 94.9476 62.1578 83.9104 62.1578C72.8693 62.1578 63.9215 62.1122 63.9215 62.0564C63.9215 62.0002 72.8693 61.955 83.9104 61.955C94.9476 61.955 103.897 62.0006 103.897 62.0564Z" fill="#263238"/>
<path d="M58.2475 81.3848H52.5179C51.7781 81.3848 51.1782 80.7877 51.1782 80.0514V74.3488C51.1782 73.6125 51.7781 73.0154 52.5179 73.0154H58.2475C58.9873 73.0154 59.5873 73.6125 59.5873 74.3488V80.0514C59.5873 80.7877 58.9873 81.3848 58.2475 81.3848Z" fill="#0F3971"/>
<path d="M54.8553 78.4071C54.8534 78.4071 54.851 78.4071 54.8487 78.4071C54.7938 78.4056 54.7421 78.3806 54.7064 78.3393L53.5289 76.9716C53.4584 76.89 53.4682 76.7668 53.5505 76.6966C53.6328 76.6268 53.7562 76.6358 53.8267 76.7181L54.8651 77.9239L57.5948 75.1456C57.6704 75.0687 57.7946 75.0676 57.8718 75.1425C57.949 75.2177 57.9505 75.3414 57.8749 75.4182L54.9956 78.3486C54.9584 78.3861 54.9079 78.4071 54.8553 78.4071Z" fill="white"/>
<path d="M103.897 74.0341C103.897 74.0902 94.9476 74.1355 83.9104 74.1355C72.8693 74.1355 63.9215 74.0898 63.9215 74.0341C63.9215 73.9783 72.8693 73.9327 83.9104 73.9327C94.9476 73.9323 103.897 73.9779 103.897 74.0341Z" fill="#263238"/>
<path d="M80.7647 80.1551C80.7647 80.1692 80.5292 80.1824 80.1028 80.1945C79.642 80.2027 79.0335 80.2136 78.298 80.2269C76.7741 80.2452 74.6687 80.2565 72.3435 80.2565C70.0175 80.2565 67.9121 80.2452 66.3882 80.2269C65.6527 80.2136 65.0441 80.2027 64.5833 80.1945C64.1574 80.1824 63.9215 80.1692 63.9215 80.1551C63.9215 80.1411 64.157 80.1278 64.5833 80.1157C65.0441 80.1075 65.6523 80.0966 66.3882 80.0834C67.9121 80.065 70.0175 80.0537 72.3435 80.0537C74.6687 80.0537 76.7741 80.065 78.298 80.0834C79.0335 80.0966 79.642 80.1075 80.1028 80.1157C80.5288 80.1278 80.7647 80.1411 80.7647 80.1551Z" fill="#263238"/>
<path d="M103.897 76.7469C103.897 76.8031 94.9476 76.8483 83.9104 76.8483C72.8693 76.8483 63.9215 76.8027 63.9215 76.7469C63.9215 76.6908 72.8693 76.6455 83.9104 76.6455C94.9476 76.6451 103.897 76.6908 103.897 76.7469Z" fill="#263238"/>
<path d="M58.2475 96.0749H52.5179C51.7781 96.0749 51.1782 95.4778 51.1782 94.7415V89.0389C51.1782 88.3026 51.7781 87.7055 52.5179 87.7055H58.2475C58.9873 87.7055 59.5873 88.3026 59.5873 89.0389V94.7415C59.5873 95.4782 58.9873 96.0749 58.2475 96.0749Z" fill="#0F3971"/>
<path d="M54.8553 93.0973C54.8534 93.0973 54.851 93.0973 54.8487 93.0969C54.7938 93.0953 54.7421 93.0704 54.7064 93.029L53.5289 91.6613C53.4584 91.5794 53.4682 91.4565 53.5505 91.3863C53.6328 91.3165 53.7562 91.3259 53.8267 91.4078L54.8651 92.6137L57.5948 89.8353C57.6704 89.7589 57.7946 89.7569 57.8718 89.8322C57.949 89.9075 57.9505 90.0311 57.8749 90.1079L54.9956 93.0388C54.9584 93.0762 54.9079 93.0973 54.8553 93.0973Z" fill="white"/>
<path d="M103.897 88.7242C103.897 88.7804 94.9476 88.8256 83.9104 88.8256C72.8693 88.8256 63.9215 88.78 63.9215 88.7242C63.9215 88.6684 72.8693 88.6228 83.9104 88.6228C94.9476 88.6228 103.897 88.668 103.897 88.7242Z" fill="#263238"/>
<path d="M80.7647 94.8452C80.7647 94.8593 80.5292 94.8726 80.1028 94.8846C79.642 94.8928 79.0335 94.9038 78.298 94.917C76.7741 94.9353 74.6687 94.9467 72.3435 94.9467C70.0175 94.9467 67.9121 94.9353 66.3882 94.917C65.6527 94.9038 65.0441 94.8928 64.5833 94.8846C64.1574 94.8726 63.9215 94.8593 63.9215 94.8452C63.9215 94.8312 64.157 94.8179 64.5833 94.8059C65.0441 94.7977 65.6523 94.7868 66.3882 94.7735C67.9121 94.7552 70.0175 94.7439 72.3435 94.7439C74.6687 94.7439 76.7741 94.7552 78.298 94.7735C79.0335 94.7868 79.642 94.7977 80.1028 94.8059C80.5288 94.8179 80.7647 94.8312 80.7647 94.8452Z" fill="#263238"/>
<path d="M103.897 91.437C103.897 91.4932 94.9476 91.5385 83.9104 91.5385C72.8693 91.5385 63.9215 91.4928 63.9215 91.437C63.9215 91.3809 72.8693 91.3357 83.9104 91.3357C94.9476 91.3353 103.897 91.3809 103.897 91.437Z" fill="#263238"/>
<path d="M58.2475 110.765H52.5179C51.7781 110.765 51.1782 110.168 51.1782 109.432V103.729C51.1782 102.993 51.7781 102.396 52.5179 102.396H58.2475C58.9873 102.396 59.5873 102.993 59.5873 103.729V109.432C59.5873 110.168 58.9873 110.765 58.2475 110.765Z" fill="#0F3971"/>
<path d="M54.8553 107.787C54.8534 107.787 54.851 107.787 54.8487 107.787C54.7938 107.785 54.7421 107.761 54.7064 107.719L53.5289 106.351C53.4584 106.27 53.4682 106.147 53.5505 106.076C53.6328 106.006 53.7562 106.016 53.8267 106.098L54.8651 107.304L57.5948 104.525C57.6704 104.449 57.7946 104.448 57.8718 104.522C57.949 104.598 57.9505 104.721 57.8749 104.798L54.9956 107.729C54.9584 107.766 54.9079 107.787 54.8553 107.787Z" fill="white"/>
<path d="M103.897 103.414C103.897 103.471 94.9476 103.516 83.9104 103.516C72.8693 103.516 63.9215 103.47 63.9215 103.414C63.9215 103.359 72.8693 103.313 83.9104 103.313C94.9476 103.313 103.897 103.358 103.897 103.414Z" fill="#263238"/>
<path d="M80.7647 109.535C80.7647 109.549 80.5292 109.563 80.1028 109.575C79.642 109.583 79.0335 109.594 78.298 109.607C76.7741 109.625 74.6687 109.637 72.3435 109.637C70.0175 109.637 67.9121 109.625 66.3882 109.607C65.6527 109.594 65.0441 109.583 64.5833 109.575C64.1574 109.563 63.9215 109.549 63.9215 109.535C63.9215 109.521 64.157 109.508 64.5833 109.496C65.0441 109.488 65.6523 109.477 66.3882 109.464C67.9121 109.445 70.0175 109.434 72.3435 109.434C74.6687 109.434 76.7741 109.445 78.298 109.464C79.0335 109.477 79.642 109.488 80.1028 109.496C80.5288 109.508 80.7647 109.521 80.7647 109.535Z" fill="#263238"/>
<path d="M103.897 106.127C103.897 106.183 94.9476 106.229 83.9104 106.229C72.8693 106.229 63.9215 106.183 63.9215 106.127C63.9215 106.071 72.8693 106.026 83.9104 106.026C94.9476 106.026 103.897 106.071 103.897 106.127Z" fill="#263238"/>
<path d="M53.0834 25.3188V30.4797C53.0834 33.4745 55.5226 35.9022 58.5316 35.9022H96.58C99.589 35.9022 102.028 33.4745 102.028 30.4797V25.3289L53.0834 25.3188Z" fill="#DCDCDC"/>
<path d="M77.5283 26.8421C74.7117 26.8421 72.4198 24.5614 72.4198 21.7577C72.4198 18.954 74.7117 16.6733 77.5283 16.6733C80.3453 16.6733 82.6368 18.9544 82.6368 21.7577C82.6368 24.561 80.3449 26.8421 77.5283 26.8421ZM77.5283 18.6233C75.7916 18.6233 74.379 20.0292 74.379 21.7577C74.379 23.4862 75.7916 24.8921 77.5283 24.8921C79.265 24.8921 80.6776 23.4862 80.6776 21.7577C80.6776 20.0292 79.265 18.6233 77.5283 18.6233Z" fill="#DCDCDC"/>
<path d="M218.524 173.172L220.561 181.8L224.59 188.683C224.881 189.179 224.688 189.817 224.172 190.071C223.882 190.214 223.544 190.209 223.26 190.057C221.45 189.085 214.812 185.478 214.676 184.781C214.52 183.975 211.895 174.896 211.895 174.896L218.524 173.172Z" fill="#0F3970"/>
<g opacity="0.6">
<path d="M224.172 190.071L214.502 184.152L214.611 184.547C214.706 184.888 214.919 185.186 215.213 185.385C216.002 185.918 218.211 187.34 223.232 190.065C223.523 190.223 223.878 190.226 224.172 190.071Z" fill="white"/>
</g>
<g opacity="0.6">
<path d="M215.589 180.613C215.869 180.71 216.043 181.043 215.958 181.325C215.872 181.607 215.534 181.787 215.252 181.695C214.971 181.603 214.749 181.21 214.866 180.939C214.983 180.669 215.391 180.479 215.643 180.636" fill="white"/>
</g>
<path d="M220.897 186.585C220.958 186.596 221.033 186.049 221.518 185.633C221.989 185.203 222.544 185.192 222.539 185.131C222.541 185.106 222.402 185.066 222.175 185.096C221.949 185.124 221.64 185.241 221.376 185.475C221.112 185.709 220.959 186 220.905 186.22C220.848 186.442 220.872 186.584 220.897 186.585Z" fill="#072B59"/>
<path d="M221.912 187.65C221.968 187.679 222.184 187.292 222.63 187.021C223.071 186.739 223.514 186.714 223.513 186.652C223.527 186.597 223.021 186.523 222.517 186.841C222.01 187.153 221.856 187.639 221.912 187.65Z" fill="#072B59"/>
<path d="M219.21 185.326C219.266 185.358 219.596 184.763 220.253 184.28C220.903 183.787 221.569 183.637 221.554 183.575C221.555 183.521 220.823 183.583 220.125 184.11C219.422 184.63 219.157 185.312 219.21 185.326Z" fill="#072B59"/>
<path d="M218.248 182.533C218.289 182.582 218.746 182.224 219.413 182.015C220.078 181.796 220.659 181.82 220.663 181.756C220.677 181.703 220.062 181.579 219.348 181.813C218.632 182.04 218.206 182.498 218.248 182.533Z" fill="#072B59"/>
<path d="M217.48 179.796C217.524 179.842 217.958 179.388 218.679 179.224C219.396 179.045 219.99 179.254 220.008 179.193C220.018 179.169 219.883 179.08 219.633 179.015C219.384 178.95 219.017 178.926 218.63 179.017C218.243 179.111 217.927 179.297 217.735 179.468C217.541 179.639 217.461 179.779 217.48 179.796Z" fill="#072B59"/>
<path d="M218.518 178.708C218.53 178.705 218.516 178.574 218.433 178.351C218.349 178.131 218.191 177.817 217.894 177.505C217.745 177.359 217.578 177.165 217.282 177.115C217.134 177.088 216.947 177.166 216.87 177.32C216.793 177.47 216.801 177.633 216.839 177.782C217.013 178.371 217.683 178.803 218.376 178.704C219.068 178.593 219.57 178.044 219.695 177.459C219.716 177.31 219.712 177.137 219.595 177C219.479 176.86 219.271 176.849 219.143 176.909C218.877 177.027 218.745 177.235 218.615 177.399C218.364 177.746 218.239 178.072 218.177 178.299C218.114 178.527 218.11 178.659 218.122 178.661C218.162 178.676 218.232 178.138 218.735 177.489C218.865 177.336 219.012 177.147 219.207 177.074C219.302 177.037 219.396 177.053 219.453 177.122C219.51 177.187 219.523 177.31 219.501 177.427C219.393 177.907 218.932 178.409 218.345 178.494C217.762 178.583 217.174 178.202 217.029 177.729C216.996 177.615 216.995 177.491 217.038 177.406C217.079 177.322 217.167 177.278 217.263 177.289C217.465 177.312 217.642 177.475 217.788 177.61C218.372 178.187 218.479 178.728 218.518 178.708Z" fill="#072B59"/>
<g opacity="0.3">
<path d="M212.192 175.925L212.563 177.216L219.139 175.776L218.916 174.836L212.192 175.925Z" fill="black"/>
</g>
<path d="M192.377 175.424L192.835 182.317C192.835 182.317 185.949 185.095 185.909 186.377L199.369 185.974L199.099 175.205L192.377 175.424Z" fill="#0F3970"/>
<g opacity="0.6">
<path d="M196.979 181.612C197.242 181.676 197.43 181.962 197.378 182.226C197.325 182.489 197.035 182.683 196.771 182.625C196.507 182.566 196.27 182.229 196.352 181.973C196.434 181.717 196.788 181.508 197.03 181.628" fill="white"/>
</g>
<g opacity="0.6">
<path d="M199.368 185.975L199.341 184.901L186.419 185.681C186.419 185.681 185.828 185.959 185.909 186.377L199.368 185.975Z" fill="white"/>
</g>
<path d="M192.614 182.256C192.619 182.321 192.948 182.341 193.278 182.541C193.613 182.734 193.788 183.012 193.847 182.984C193.908 182.97 193.798 182.582 193.394 182.346C192.993 182.106 192.598 182.196 192.614 182.256Z" fill="#072B59"/>
<path d="M191.22 182.879C191.207 182.943 191.495 183.046 191.726 183.316C191.966 183.579 192.031 183.877 192.097 183.872C192.159 183.88 192.193 183.496 191.898 183.165C191.607 182.832 191.22 182.817 191.22 182.879Z" fill="#072B59"/>
<path d="M190.469 184.585C190.529 184.597 190.611 184.267 190.431 183.914C190.254 183.559 189.939 183.427 189.913 183.483C189.878 183.538 190.083 183.724 190.226 184.016C190.376 184.305 190.403 184.58 190.469 184.585Z" fill="#072B59"/>
<path d="M192.685 180.673C192.715 180.732 193.013 180.633 193.385 180.647C193.758 180.653 194.051 180.769 194.083 180.712C194.12 180.663 193.83 180.429 193.392 180.419C192.954 180.405 192.651 180.623 192.685 180.673Z" fill="#072B59"/>
<g opacity="0.3">
<path d="M192.404 175.67L192.484 176.898L199.136 176.704V175.486L192.404 175.67Z" fill="black"/>
</g>
<path d="M192.619 179.281C192.619 179.308 192.88 179.341 193.293 179.258C193.498 179.216 193.739 179.141 193.991 179.021C194.117 178.96 194.245 178.889 194.372 178.805C194.433 178.764 194.505 178.721 194.571 178.641C194.642 178.57 194.678 178.396 194.59 178.292C194.518 178.191 194.395 178.15 194.298 178.151C194.199 178.151 194.119 178.173 194.046 178.193C193.898 178.234 193.758 178.288 193.631 178.349C193.378 178.473 193.173 178.627 193.022 178.774C192.718 179.071 192.619 179.318 192.642 179.33C192.673 179.351 192.818 179.141 193.129 178.895C193.284 178.772 193.482 178.643 193.72 178.539C193.839 178.488 193.967 178.443 194.103 178.409C194.245 178.368 194.366 178.363 194.405 178.425C194.419 178.449 194.421 178.458 194.392 178.501C194.362 178.54 194.306 178.579 194.246 178.62C194.129 178.701 194.011 178.772 193.896 178.834C193.665 178.957 193.443 179.042 193.252 179.102C192.87 179.22 192.617 179.246 192.619 179.281Z" fill="#072B59"/>
<path d="M192.707 179.372C192.731 179.382 192.854 179.143 192.865 178.719C192.87 178.508 192.841 178.255 192.751 177.987C192.706 177.854 192.646 177.718 192.567 177.585C192.484 177.455 192.383 177.281 192.127 177.259C191.994 177.258 191.886 177.365 191.851 177.455C191.809 177.547 191.803 177.625 191.789 177.703C191.769 177.86 191.777 178.013 191.803 178.155C191.854 178.439 191.978 178.672 192.111 178.839C192.385 179.178 192.662 179.248 192.666 179.226C192.687 179.193 192.454 179.073 192.243 178.746C192.139 178.584 192.044 178.37 192.011 178.122C191.994 177.998 191.992 177.866 192.012 177.734C192.028 177.59 192.079 177.474 192.133 177.487C192.2 177.484 192.316 177.588 192.375 177.7C192.448 177.818 192.506 177.939 192.553 178.058C192.645 178.298 192.689 178.529 192.704 178.724C192.734 179.116 192.671 179.363 192.707 179.372Z" fill="#072B59"/>
<path d="M209.288 63.3586C208.851 63.7026 208.851 64.3949 209.125 64.8781C209.399 65.3613 209.874 65.6912 210.318 66.027C210.762 66.3628 211.21 66.7489 211.384 67.2762C211.705 68.2485 210.995 69.3584 211.377 70.3088C211.71 71.1376 212.732 71.4878 213.184 72.2584C213.649 73.0505 213.395 74.0571 213.057 74.9104C212.72 75.7641 212.302 76.6592 212.479 77.5593C212.577 78.0562 212.855 78.5312 212.798 79.0343C212.715 79.762 211.976 80.225 211.281 80.466C210.142 80.8607 208.899 80.955 207.713 80.737C206.853 80.5791 205.967 80.2129 205.508 79.4723C205.115 78.8369 205.106 78.046 205.122 77.3C205.216 72.9756 205.755 68.6607 206.728 64.4452" fill="#0B0C0E"/>
<path d="M185.097 92.875L189.255 83.0174C189.255 83.0174 192.151 74.0446 196.763 74.1952L197.874 82.2651L191.486 95.9603L184.63 93.0255" fill="#B5E1F1"/>
<path d="M192.793 98.1981C192.793 98.1981 185.283 112.946 185.409 117.558C185.478 120.125 189.418 175.789 189.418 175.789H200.749L198.653 117.727L210.541 176.192L220.574 174.568L212.566 112.048C212.566 112.048 211.194 103.539 208.372 100.046L192.793 98.1981Z" fill="#072B59"/>
<path d="M198.423 111.626C198.48 111.624 198.577 112.988 198.64 114.672C198.703 116.358 198.709 117.725 198.653 117.727C198.596 117.729 198.5 116.365 198.436 114.68C198.373 112.995 198.367 111.628 198.423 111.626Z" fill="#455A64"/>
<path d="M208.154 98.6057L210.289 87.8514L211.94 76.2836C210.497 75.038 208.773 74.1608 206.667 73.7853L196.763 74.1956L193.031 82.9047L193.425 100.914L208.154 98.6057Z" fill="#B5E1F1"/>
<path d="M207.503 73.9659C207.503 73.9659 202.77 84.4167 200.28 85.1042C199.164 89.5315 198.175 112.946 198.175 112.946L213.759 112.301L209.147 97.1166L211 89.4995C211 89.4995 208.979 77.454 211.143 75.3714C209.922 74.5672 208.917 74.0536 207.503 73.9659Z" fill="#0F3970"/>
<path d="M197.874 73.7853C197.874 73.7853 197.38 77.0893 197.484 79.9812C197.551 81.8442 198.316 83.6144 199.595 84.9763L197.529 112.946L186.499 111.345C186.499 111.345 188.774 104.346 190.588 101.301C190.588 101.301 191.452 99.8552 193.031 97.1162C193.031 97.1162 191.928 88.1915 191.887 86.9314C191.872 86.4568 194.745 74.7166 194.745 74.7166C195.725 73.9658 196.861 73.6117 197.874 73.7853Z" fill="#0F3970"/>
<path d="M194.912 60.6337C193.498 60.2636 192.63 59.7628 192.63 59.211C192.63 58.0726 196.327 57.1494 200.888 57.1494C205.449 57.1494 209.146 58.0722 209.146 59.211C209.146 59.7597 208.287 60.2585 206.886 60.6278" fill="#0F3970"/>
<g opacity="0.4">
<path d="M195.7 60.5939C194.446 60.2659 193.646 59.8209 193.677 59.333C193.765 57.9751 196.954 57.5059 200.997 57.5059C205.04 57.5059 208.317 58.3237 208.317 59.333C208.317 59.8194 207.555 60.2616 206.314 60.5888" fill="black"/>
</g>
<path d="M206.839 59.4653C206.667 60.051 207.095 60.6489 207.585 61.0155C208.076 61.3821 208.663 61.6407 209.043 62.12C209.562 62.7744 209.573 63.7252 209.253 64.4955C208.934 65.2661 208.333 65.8858 207.701 66.4326C207.224 66.8456 206.6 67.252 206.002 67.0469" fill="#0B0C0E"/>
<path d="M211.143 75.371C210.946 75.3718 210.222 77.2087 209.681 78.8642C208.713 81.8282 209.038 85.0617 210.587 87.7707L214.015 93.7669L203.696 97.2165L205.205 102.024L219.652 98.1669C220.989 97.81 222.065 96.8218 222.529 95.5239C222.945 94.3617 222.825 93.0766 222.201 92.0104L214.672 79.1294C214.672 79.1294 212.225 75.3671 211.143 75.371Z" fill="#B5E1F1"/>
<path d="M206.731 60.1875C206.668 57.0667 204.03 54.5895 200.86 54.7462C197.872 54.8944 195.573 57.4583 195.558 60.436C195.545 63.0462 195.59 65.6725 195.739 66.6069C196.189 69.4255 198.009 70.2835 198.731 70.5159C198.895 70.5689 199.331 70.5927 199.504 70.5923C199.515 70.5923 199.524 70.6013 199.523 70.6122L199.368 73.9448C199.393 76.1097 200.862 77.8311 203.037 77.8311C205.22 77.8311 206.651 75.9576 206.667 73.7853L206.731 60.1875Z" fill="#FFBE9D"/>
<path d="M196.619 61.8961C196.611 62.1356 196.808 62.3403 197.059 62.354C197.31 62.3672 197.52 62.1847 197.529 61.9449C197.537 61.7054 197.341 61.5003 197.09 61.487C196.838 61.4734 196.628 61.6563 196.619 61.8961Z" fill="#072B59"/>
<path d="M196.325 61.1068C196.381 61.166 196.727 60.9118 197.217 60.9129C197.707 60.9071 198.067 61.1582 198.12 61.0986C198.146 61.072 198.088 60.9656 197.932 60.8517C197.777 60.7386 197.514 60.6286 197.209 60.6298C196.903 60.6313 196.646 60.7433 196.499 60.8579C196.348 60.9734 196.297 61.0802 196.325 61.1068Z" fill="#072B59"/>
<path d="M201.414 61.8961C201.405 62.1356 201.602 62.3403 201.853 62.354C202.104 62.3672 202.314 62.1847 202.323 61.9449C202.332 61.7054 202.135 61.5003 201.884 61.487C201.633 61.4734 201.422 61.6563 201.414 61.8961Z" fill="#072B59"/>
<path d="M201.146 61.198C201.202 61.2573 201.548 61.003 202.038 61.0042C202.528 60.9983 202.888 61.2495 202.941 61.1898C202.967 61.1633 202.91 61.0568 202.753 60.943C202.599 60.8299 202.336 60.7199 202.03 60.721C201.725 60.7226 201.468 60.8345 201.32 60.9492C201.169 61.0642 201.118 61.1715 201.146 61.198Z" fill="#072B59"/>
<path d="M199.366 64.8176C199.368 64.7899 199.063 64.7373 198.569 64.6745C198.444 64.6616 198.325 64.637 198.304 64.5516C198.275 64.4615 198.327 64.3274 198.388 64.1823C198.505 63.8808 198.629 63.5645 198.758 63.233C199.272 61.8817 199.645 60.7706 199.589 60.7503C199.535 60.73 199.073 61.8091 198.559 63.1605C198.435 63.4936 198.317 63.8114 198.204 64.1152C198.157 64.2568 198.075 64.4175 198.139 64.6043C198.173 64.6975 198.265 64.765 198.345 64.7864C198.426 64.811 198.496 64.8121 198.558 64.816C199.055 64.8433 199.364 64.8453 199.366 64.8176Z" fill="#072B59"/>
<path d="M199.524 70.5923C199.524 70.5923 201.417 70.7472 203.786 69.3303C203.786 69.3303 203.039 71.8216 199.482 71.4905L199.524 70.5923Z" fill="#EB996E"/>
<path d="M199.573 65.9942C199.749 65.7622 200.059 65.6347 200.365 65.6674C200.578 65.69 200.793 65.7922 200.923 65.965C201.052 66.1374 201.079 66.3823 200.961 66.5469C200.829 66.7321 200.553 66.7746 200.318 66.7087C200.084 66.6424 199.883 66.4891 199.692 66.3363C199.639 66.2941 199.585 66.2501 199.551 66.192C199.519 66.1339 199.511 66.0582 199.552 66.0102" fill="#EB996E"/>
<path d="M200.809 65.1554C200.729 65.1507 200.728 65.6807 200.272 66.0567C199.817 66.4338 199.25 66.3745 199.246 66.4486C199.239 66.4817 199.373 66.5516 199.612 66.5578C199.847 66.566 200.19 66.4907 200.469 66.2606C200.747 66.0301 200.867 65.7224 200.885 65.5048C200.904 65.2837 200.845 65.1522 200.809 65.1554Z" fill="#072B59"/>
<path d="M200.925 60.3431C200.973 60.4757 201.463 60.4129 202.038 60.482C202.615 60.5393 203.079 60.707 203.155 60.5881C203.189 60.5311 203.109 60.4063 202.921 60.2776C202.735 60.1493 202.438 60.0276 202.093 59.989C201.748 59.9516 201.431 60.0062 201.222 60.0908C201.01 60.1758 200.904 60.2803 200.925 60.3431Z" fill="#072B59"/>
<path d="M196.505 60.1095C196.591 60.2203 196.929 60.1052 197.335 60.0998C197.741 60.0803 198.086 60.1743 198.165 60.0584C198.199 60.0019 198.145 59.8911 197.995 59.7862C197.847 59.6817 197.599 59.5963 197.32 59.6045C197.041 59.6135 196.799 59.7137 196.658 59.8276C196.514 59.9411 196.467 60.0553 196.505 60.1095Z" fill="#072B59"/>
<path d="M201.574 64.9284C201.617 64.9108 201.671 64.9475 201.671 64.9931C201.671 65.0387 201.616 65.0746 201.574 65.0567C201.532 65.0387 201.519 64.9744 201.552 64.9428" fill="#072B59"/>
<path d="M198.693 58.1217C199.21 58.8779 200.082 59.3822 200.998 59.4536C201.6 59.5004 202.284 59.3951 202.738 59.7901C203.07 60.0783 203.163 60.5432 203.311 60.9566C203.535 61.5849 203.942 62.1684 204.525 62.496C204.982 62.7522 205.549 62.8598 205.879 63.2654C206.227 63.6925 206.193 64.2989 206.201 64.8484C206.21 65.3979 206.341 66.0375 206.838 66.2778C206.855 64.2747 206.873 62.2717 206.891 60.2683C206.893 59.9699 206.895 59.6634 206.786 59.3853C206.542 58.7566 205.83 58.4583 205.177 58.2812C203.327 57.7805 201.389 57.7196 199.473 57.6623" fill="#0B0C0E"/>
<path d="M193.766 58.6759C193.766 58.6759 194.947 53.8442 195.048 53.609C195.149 53.3738 196.533 51.2581 199.839 50.6536H202.573C202.573 50.6536 206.453 51.8961 207.162 52.8364C207.87 53.7767 208.174 58.3444 208.174 58.3444L200.509 56.6861L195.296 57.9517L193.766 58.6759Z" fill="#0F3970"/>
<path d="M200.734 50.0998C200.629 50.0998 199.56 50.0998 199.56 50.0998C199.56 50.0998 199.149 50.4816 199.095 51.3275C199.04 52.173 198.848 57.9751 198.848 57.9751L202.274 57.8198L202.164 50.6536L203.327 50.911L203.291 50.505L202.982 50.1427L200.734 50.0998Z" fill="#0F3970"/>
<path d="M195.223 59.1061L195.29 57.3491L200.447 55.8203L206.886 57.7087V59.5971C206.886 59.5971 201.65 56.8893 195.223 59.1061Z" fill="#455A64"/>
<path d="M195.612 56.9771L195.386 57.1958L193.53 58.3557C193.53 58.3557 197.095 57.3577 200.785 57.3971C204.475 57.4365 208.696 58.6759 208.696 58.6759L206.251 57.2126C205.475 56.3858 204.395 55.9073 203.258 55.8851L198.626 55.795C197.503 55.7731 196.418 56.1986 195.612 56.9771Z" fill="#0F3970"/>
<path d="M198.926 55.6713C198.87 55.6682 198.885 54.5688 198.961 53.2163C199.037 51.8634 199.144 50.7694 199.2 50.7725C199.256 50.7757 199.241 51.8747 199.165 53.2276C199.09 54.5801 198.983 55.6744 198.926 55.6713Z" fill="#072B59"/>
<path d="M203.328 50.911C203.329 50.9434 202.969 50.8786 202.463 50.801C202.36 50.8061 202.253 50.8989 202.251 51.0171C202.256 51.1805 202.262 51.3486 202.268 51.5221C202.277 51.8922 202.286 52.2838 202.296 52.6945C202.31 53.5263 202.311 54.2794 202.302 54.8246C202.293 55.3699 202.273 55.7068 202.245 55.7068C202.216 55.7068 202.185 55.3699 202.158 54.825C202.13 54.2802 202.105 53.5271 202.091 52.6956C202.087 52.285 202.083 51.8934 202.079 51.5237C202.08 51.3455 202.081 51.1731 202.082 51.0058C202.098 50.7944 202.289 50.6536 202.458 50.6579C203.028 50.7776 203.325 50.8872 203.328 50.911Z" fill="#072B59"/>
<path d="M193.414 58.3339C193.411 58.3276 193.46 58.296 193.558 58.241C193.656 58.1884 193.805 58.1162 193.999 58.0339C194.193 57.9497 194.434 57.8557 194.697 57.722C194.956 57.5862 195.247 57.4037 195.45 57.1046C195.671 56.8234 195.702 56.3803 196.007 56.0052C196.151 55.8113 196.399 55.6869 196.64 55.6413C196.885 55.591 197.131 55.5879 197.379 55.5734C198.379 55.5227 199.479 55.5083 200.633 55.5391C201.787 55.5695 202.884 55.6401 203.881 55.7267C204.373 55.7681 204.899 55.8628 205.243 56.2111C205.409 56.378 205.526 56.5621 205.642 56.731C205.7 56.8144 205.756 56.8959 205.812 56.9763L205.899 57.0909C205.92 57.1182 205.949 57.1323 205.991 57.1584C206.651 57.4965 207.223 57.7348 207.596 57.9294C207.785 58.0238 207.93 58.1018 208.026 58.1576C208.122 58.2141 208.171 58.2469 208.168 58.2531C208.161 58.2664 207.95 58.1669 207.563 58.0012C207.177 57.8272 206.611 57.6163 205.921 57.2836C205.882 57.2621 205.824 57.2309 205.784 57.1826L205.691 57.066C205.633 56.9856 205.573 56.9033 205.512 56.8199C205.393 56.653 205.274 56.4763 205.124 56.3312C204.826 56.0364 204.352 55.9486 203.864 55.9131C202.871 55.8371 201.776 55.7719 200.627 55.7419C199.478 55.7115 198.383 55.7201 197.388 55.7603C196.897 55.7786 196.393 55.7766 196.137 56.112C195.863 56.426 195.818 56.8698 195.567 57.1876C195.336 57.5102 195.018 57.6939 194.747 57.8237C194.471 57.9517 194.225 58.0343 194.028 58.1073C193.631 58.2469 193.422 58.3479 193.414 58.3339Z" fill="#072B59"/>
<path d="M194.104 58.6065C194.1 58.601 194.14 58.5667 194.22 58.5063C194.297 58.4411 194.422 58.3616 194.591 58.2734C194.929 58.0964 195.449 57.9006 196.112 57.7469C197.435 57.4419 199.326 57.2465 201.391 57.4345C202.417 57.5075 203.403 57.5582 204.294 57.6845C205.187 57.8218 205.968 57.9992 206.627 58.1744C206.955 58.2648 207.247 58.3612 207.5 58.4575C207.752 58.5499 207.974 58.6603 208.107 58.8101C208.243 58.9586 208.281 59.1186 208.281 59.2207C208.279 59.3253 208.248 59.3736 208.244 59.3717C208.225 59.3806 208.314 59.1314 208.05 58.8654C207.922 58.7387 207.714 58.6463 207.461 58.5647C207.208 58.4797 206.917 58.3939 206.59 58.3136C205.939 58.1591 205.144 57.9946 204.268 57.8705C203.387 57.7559 202.407 57.7106 201.375 57.6377C199.328 57.4509 197.458 57.6221 196.143 57.8877C195.484 58.0215 194.967 58.1931 194.625 58.3448C194.281 58.4918 194.119 58.6268 194.104 58.6065Z" fill="#072B59"/>
<path d="M199.471 55.8991C199.471 55.8936 199.558 55.8905 199.714 55.8897C199.921 55.8929 200.14 55.896 200.379 55.8995C200.94 55.9151 201.715 55.9521 202.568 56.0235C202.995 56.059 203.401 56.0992 203.77 56.1405C204.137 56.1865 204.474 56.2072 204.747 56.3016C205.02 56.3917 205.199 56.5637 205.277 56.7013C205.359 56.8409 205.353 56.9338 205.353 56.9338C205.344 56.9365 205.336 56.846 205.25 56.7181C205.167 56.5913 204.993 56.4353 204.728 56.3562C204.466 56.2723 204.129 56.2567 203.762 56.215C203.383 56.1803 202.982 56.1432 202.561 56.1046C201.709 56.0336 200.936 55.9876 200.377 55.9572C200.138 55.9443 199.919 55.9326 199.714 55.9213C199.557 55.9124 199.471 55.9049 199.471 55.8991Z" fill="#B5E1F1"/>
<path d="M202.051 55.2197C202.045 55.2205 202.033 55.1593 202.017 55.0485C202 54.9377 201.981 54.7767 201.96 54.5778C201.919 54.1796 201.877 53.6277 201.859 53.0166C201.841 52.4055 201.85 51.8521 201.867 51.4519C201.876 51.2519 201.886 51.0904 201.896 50.9789C201.906 50.8673 201.914 50.8057 201.92 50.8061C201.925 50.8065 201.928 50.8685 201.928 50.9804C201.927 51.1376 201.926 51.2944 201.925 51.4539C201.922 51.8536 201.922 52.4051 201.94 53.0147C201.959 53.6238 201.991 54.1745 202.018 54.5731C202.029 54.7322 202.039 54.8886 202.049 55.0454C202.055 55.1573 202.056 55.2193 202.051 55.2197Z" fill="#B5E1F1"/>
<path d="M205.91 57.3846C205.912 57.3795 205.968 57.3975 206.068 57.4341C206.209 57.4887 206.348 57.5429 206.488 57.5972C206.932 57.7797 207.377 57.963 207.863 58.163C208.129 58.2781 208.39 58.374 208.608 58.514C208.826 58.649 208.986 58.8416 209.04 59.0324C209.099 59.2211 209.073 59.3884 209.027 59.4871C208.979 59.5865 208.926 59.6205 208.926 59.6205C208.919 59.6158 208.961 59.5717 208.997 59.4754C209.031 59.3795 209.047 59.2242 208.985 59.0507C208.928 58.876 208.779 58.7044 208.567 58.5772C208.359 58.4474 208.097 58.353 207.831 58.2379C207.348 58.0301 206.906 57.8397 206.466 57.6502C206.329 57.5878 206.193 57.5262 206.055 57.4634C205.96 57.4178 205.908 57.3901 205.91 57.3846Z" fill="#B5E1F1"/>
<path d="M200.054 50.2492C200.054 50.2378 200.238 50.2312 200.536 50.2293C200.834 50.2273 201.245 50.23 201.699 50.2382C202.153 50.2566 202.564 50.2343 202.866 50.2991C203.015 50.3338 203.128 50.402 203.182 50.4699C203.238 50.5366 203.247 50.5849 203.244 50.5861C203.236 50.5963 203.152 50.4017 202.853 50.3556C202.568 50.3081 202.15 50.3377 201.698 50.3197C201.243 50.3116 200.832 50.2995 200.535 50.287C200.238 50.2737 200.054 50.2605 200.054 50.2492Z" fill="#B5E1F1"/>
<path d="M195.223 59.1061C194.873 60.6423 194.953 62.2912 195.556 63.7475C195.556 63.7475 195.551 62.1594 195.823 60.8728C195.903 60.4937 196.028 59.8502 196.266 59.5436C196.567 59.156 197.103 59.0597 197.584 58.9563C198.065 58.853 198.603 58.7753 198.78 58.3183C197.427 58.4146 196.405 58.7184 195.223 59.1061Z" fill="#0B0C0E"/>
<path d="M199.482 71.4905C199.01 71.5549 198.398 71.7101 198.07 72.1168C197.744 72.5232 197.533 73.0333 197.119 73.3508C196.729 73.6499 196.199 73.7431 195.845 74.084C195.15 74.7529 195.491 75.9217 195.189 76.8355C195.013 77.3694 194.619 77.7991 194.315 78.273C194.012 78.7468 193.792 79.3463 194.011 79.8642C194.191 80.2916 194.642 80.5627 195.102 80.6313C195.563 80.7 196.033 80.5943 196.473 80.4441C196.455 80.083 196.437 79.7215 196.419 79.3603C196.476 79.567 196.537 79.7807 196.674 79.9461C196.811 80.1115 197.047 80.2164 197.247 80.1372C197.562 80.012 197.572 79.5791 197.539 79.2429C197.416 78.0031 197.477 76.6681 198.184 75.6401C198.52 75.1526 199.086 74.6394 199.373 74.1218L199.482 71.4905Z" fill="#072B59"/>
<path d="M179.35 90.9617C179.35 90.9617 180.052 89.4379 181.072 89.5011C182.093 89.5647 184.964 89.8821 184.964 89.8821L185.283 91.2791L179.031 90.9617" fill="#FFBE9D"/>
<path d="M182.329 90.9761L184.078 85.5738C184.169 85.2934 184.431 85.1035 184.727 85.1035C185.179 85.1035 185.506 85.534 185.382 85.9669L183.867 91.2787L182.329 90.9761Z" fill="#0F3970"/>
<path d="M176.094 90.9706H193.115L204.405 106.241L188.484 106.01L176.094 90.9706Z" fill="#072B59"/>
<path d="M197.175 96.5449C197.175 96.5449 198.561 96.3854 199.454 96.4743C200.345 96.5632 203.696 97.3187 203.696 97.3187L205.118 101.748L203.456 101.6L202.338 102.137C200.555 102.372 198.505 102.608 198.115 102.511C198.115 102.511 197.443 102.135 197.645 101.756C197.645 101.756 196.123 101.578 196.28 100.375C196.28 100.375 195.407 100.219 195.295 99.2843L192.507 99.1322C192.233 99.1173 192.011 98.9032 191.988 98.6302C191.961 98.319 192.383 98.211 192.696 98.1977L197.042 98.0109C197.558 97.9887 197.834 97.3967 197.519 96.9895L197.175 96.5449Z" fill="#FFBE9D"/>
<g opacity="0.5">
<path d="M198.446 107.243L211.386 104.487L212.833 109.253L198.269 110.853L198.446 107.243Z" fill="white"/>
</g>
<g opacity="0.5">
<path d="M197.913 107.159L189.217 104.078L187.229 108.767L197.695 110.692L197.913 107.159Z" fill="white"/>
</g>
<path d="M210.879 89.7675C210.873 89.7718 210.837 89.7304 210.771 89.6485C210.708 89.5651 210.607 89.4461 210.496 89.2804C210.265 88.9551 209.958 88.4645 209.638 87.8249C208.996 86.5554 208.365 84.6288 208.344 82.4363C208.323 80.2429 208.917 78.3046 209.534 77.0231C209.841 76.3776 210.138 75.8811 210.363 75.5516C210.471 75.3839 210.569 75.263 210.631 75.1784C210.695 75.0949 210.731 75.0536 210.737 75.0575C210.75 75.0668 210.633 75.2528 210.431 75.5937C210.228 75.9338 209.951 76.4369 209.665 77.0827C209.088 78.3658 208.527 80.278 208.549 82.4347C208.569 84.5906 209.167 86.4915 209.769 87.7633C210.068 88.4033 210.354 88.9009 210.563 89.2371C210.771 89.5744 210.893 89.7581 210.879 89.7675Z" fill="#072B59"/>
<path d="M199.935 86.6525C199.926 86.6393 200.098 86.511 200.4 86.2723C200.703 86.0348 201.13 85.676 201.623 85.1978C202.615 84.2478 203.815 82.7592 204.852 80.9371C205.891 79.115 206.624 77.3557 207.156 76.0867C207.409 75.4767 207.62 74.9697 207.781 74.5797C207.931 74.2248 208.02 74.0306 208.034 74.0356C208.047 74.0407 207.983 74.2443 207.855 74.6082C207.728 74.972 207.537 75.4962 207.29 76.1397C206.792 77.424 206.077 79.2 205.029 81.0377C203.984 82.8754 202.75 84.3695 201.722 85.3016C201.212 85.7711 200.767 86.1159 200.448 86.3355C200.291 86.4493 200.16 86.5254 200.074 86.58C199.987 86.6334 199.939 86.6584 199.935 86.6525Z" fill="#072B59"/>
<path d="M196.758 74.3168C196.797 74.3282 196.578 74.9865 196.422 76.0847C196.341 76.6331 196.298 77.2925 196.303 78.0242C196.321 78.7554 196.394 79.558 196.558 80.3868C196.731 81.214 196.977 81.9819 197.246 82.6628C197.527 83.3387 197.824 83.93 198.114 84.4034C198.687 85.355 199.146 85.8764 199.114 85.9022C199.103 85.9111 198.985 85.7852 198.779 85.5481C198.674 85.4311 198.551 85.2836 198.423 85.1011C198.293 84.9202 198.134 84.7205 197.991 84.4783C197.682 84.0087 197.368 83.4159 197.072 82.7338C196.789 82.0466 196.534 81.2674 196.358 80.427C196.192 79.585 196.123 78.7679 196.115 78.0257C196.12 77.2832 196.179 76.6147 196.28 76.0629C196.317 75.7844 196.386 75.5391 196.435 75.3223C196.481 75.1046 196.537 74.921 196.588 74.7728C196.685 74.4748 196.745 74.3126 196.758 74.3168Z" fill="#072B59"/>
<path d="M195.332 73.6312C195.387 73.6433 194.745 76.722 193.897 80.5069C193.049 84.293 192.317 87.351 192.262 87.3389C192.207 87.3269 192.85 84.2486 193.698 80.4629C194.546 76.6779 195.278 73.6191 195.332 73.6312Z" fill="#072B59"/>
<path d="M175.584 70.9176L176.889 66.3944C176.889 66.3944 177.362 64.5563 177.474 64.1265C177.623 63.5583 177.224 63.3758 176.983 63.7607C176.892 63.907 175.875 65.7739 175.875 65.7739C175.875 65.7739 176.7 62.71 176.73 62.5985C176.998 61.5982 176.373 61.696 176.186 62.0533C175.994 62.4218 174.838 65.4338 174.838 65.4338C175.934 61.494 175.606 61.143 175.308 61.0783C175.011 61.0135 174.043 64.616 174.043 64.616C174.043 64.616 173.713 63.9959 173.095 63.5645C172.142 62.9 170.54 63.54 170.458 63.9885C170.377 64.437 170.946 64.568 170.946 64.568C172.154 63.8091 173.376 64.7529 173.24 65.8921C173.104 67.0312 171.654 66.8596 171.481 66.0461C171.101 64.2619 170.48 64.8348 170.48 64.8348L171.061 68.7683L170.389 70.7374" fill="#FFBE9D"/>
<path d="M154.422 55.2692C155.911 54.8796 156.825 54.3524 156.825 53.7713C156.825 52.5724 152.932 51.6009 148.13 51.6009C143.328 51.6009 139.435 52.5728 139.435 53.7713C139.435 54.3492 140.339 54.8742 141.814 55.263" fill="#0F3970"/>
<g opacity="0.4">
<path d="M153.592 55.2271C154.912 54.882 155.755 54.4132 155.722 53.8996C155.629 52.4698 152.271 51.9757 148.015 51.9757C143.759 51.9757 140.308 52.8368 140.308 53.8996C140.308 54.4116 141.11 54.8773 142.417 55.2221" fill="black"/>
</g>
<path d="M155.629 53.2077C155.629 53.2077 154.386 48.1202 154.279 47.8725C154.172 47.6249 152.716 45.3972 149.234 44.7607H146.356C146.356 44.7607 142.27 46.0691 141.524 47.0594C140.778 48.0496 140.458 52.8587 140.458 52.8587L148.529 51.1126L154.018 52.4449L155.629 53.2077Z" fill="#0F3970"/>
<path d="M148.292 44.1776C148.402 44.1776 149.527 44.1776 149.527 44.1776C149.527 44.1776 149.96 44.5797 150.018 45.4701C150.076 46.3605 150.278 52.4694 150.278 52.4694L146.67 52.306L146.786 44.7603L145.561 45.0314L145.6 44.6039L145.924 44.2225L148.292 44.1776Z" fill="#0F3970"/>
<path d="M129.376 171.486L127 180.87L122.97 187.754C122.68 188.25 122.872 188.887 123.389 189.142C123.678 189.285 124.017 189.28 124.301 189.127C126.11 188.156 132.749 184.548 132.884 183.852C133.041 183.045 136.051 174.118 136.051 174.118L129.376 171.486Z" fill="#0F3970"/>
<g opacity="0.6">
<path d="M123.389 189.142L133.059 183.222L132.949 183.617C132.854 183.959 132.642 184.257 132.347 184.456C131.559 184.988 129.349 186.411 124.329 189.135C124.037 189.294 123.683 189.297 123.389 189.142Z" fill="white"/>
</g>
<g opacity="0.6">
<path d="M131.971 179.684C131.692 179.781 131.517 180.113 131.603 180.395C131.689 180.677 132.027 180.857 132.308 180.765C132.589 180.673 132.812 180.281 132.695 180.01C132.578 179.739 132.169 179.549 131.918 179.706" fill="white"/>
</g>
<path d="M126.663 185.656C126.603 185.667 126.527 185.12 126.043 184.704C125.571 184.273 125.017 184.263 125.021 184.202C125.019 184.177 125.158 184.137 125.386 184.166C125.612 184.194 125.921 184.312 126.185 184.545C126.448 184.779 126.602 185.071 126.656 185.291C126.712 185.512 126.689 185.654 126.663 185.656Z" fill="#072B59"/>
<path d="M125.649 186.721C125.593 186.749 125.376 186.363 124.93 186.092C124.49 185.81 124.046 185.785 124.047 185.722C124.033 185.667 124.539 185.594 125.043 185.911C125.551 186.224 125.705 186.709 125.649 186.721Z" fill="#072B59"/>
<path d="M128.351 184.396C128.295 184.429 127.965 183.833 127.307 183.35C126.658 182.857 125.992 182.708 126.007 182.645C126.005 182.591 126.738 182.653 127.436 183.18C128.139 183.7 128.403 184.383 128.351 184.396Z" fill="#072B59"/>
<path d="M129.312 181.604C129.272 181.653 128.814 181.295 128.147 181.086C127.483 180.867 126.901 180.89 126.897 180.827C126.884 180.774 127.498 180.65 128.212 180.883C128.929 181.11 129.354 181.568 129.312 181.604Z" fill="#072B59"/>
<path d="M130.08 178.866C130.036 178.913 129.602 178.458 128.881 178.295C128.164 178.115 127.571 178.324 127.552 178.264C127.542 178.24 127.677 178.151 127.928 178.086C128.176 178.021 128.544 177.996 128.931 178.088C129.318 178.181 129.634 178.368 129.826 178.539C130.02 178.71 130.1 178.85 130.08 178.866Z" fill="#072B59"/>
<path d="M129.042 177.778C129.03 177.775 129.044 177.644 129.128 177.422C129.211 177.201 129.37 176.887 129.666 176.575C129.816 176.429 129.983 176.236 130.279 176.185C130.426 176.159 130.613 176.236 130.69 176.39C130.767 176.541 130.759 176.703 130.722 176.852C130.547 177.441 129.878 177.874 129.185 177.774C128.492 177.663 127.99 177.114 127.866 176.529C127.844 176.381 127.849 176.207 127.966 176.07C128.081 175.931 128.289 175.92 128.417 175.979C128.684 176.097 128.815 176.305 128.946 176.469C129.197 176.816 129.321 177.143 129.384 177.369C129.446 177.597 129.45 177.729 129.438 177.731C129.399 177.746 129.329 177.208 128.825 176.559C128.695 176.406 128.549 176.218 128.354 176.144C128.259 176.107 128.164 176.123 128.107 176.191C128.05 176.257 128.037 176.379 128.059 176.497C128.168 176.977 128.629 177.478 129.215 177.563C129.798 177.653 130.387 177.272 130.531 176.799C130.564 176.685 130.566 176.561 130.523 176.476C130.481 176.392 130.394 176.348 130.298 176.359C130.095 176.382 129.918 176.544 129.773 176.68C129.188 177.257 129.082 177.799 129.042 177.778Z" fill="#072B59"/>
<path d="M154.72 174.18L154.199 181.667C154.199 181.667 161.67 184.708 161.709 186.101L147.088 185.617L147.419 173.919L154.72 174.18Z" fill="#0F3970"/>
<path d="M149.698 180.886C149.412 180.954 149.206 181.264 149.262 181.551C149.318 181.838 149.634 182.049 149.92 181.986C150.207 181.924 150.466 181.559 150.378 181.28C150.29 181.001 149.906 180.774 149.643 180.903" fill="#B5E1F1"/>
<g opacity="0.6">
<path d="M147.087 185.617L147.166 184.439L161.155 185.344C161.155 185.344 161.797 185.647 161.708 186.101L147.087 185.617Z" fill="white"/>
</g>
<path d="M154.438 181.6C154.433 181.671 154.075 181.692 153.716 181.908C153.351 182.116 153.16 182.418 153.095 182.387C153.03 182.371 153.15 181.95 153.59 181.695C154.026 181.437 154.455 181.536 154.438 181.6Z" fill="#072B59"/>
<path d="M155.95 182.282C155.964 182.352 155.651 182.463 155.399 182.755C155.138 183.04 155.065 183.363 154.994 183.358C154.927 183.367 154.891 182.949 155.212 182.591C155.53 182.231 155.951 182.215 155.95 182.282Z" fill="#072B59"/>
<path d="M156.76 184.138C156.694 184.151 156.607 183.793 156.803 183.41C156.997 183.025 157.339 182.883 157.367 182.943C157.406 183.002 157.182 183.204 157.025 183.521C156.862 183.834 156.831 184.133 156.76 184.138Z" fill="#072B59"/>
<path d="M154.366 179.881C154.334 179.945 154.01 179.836 153.605 179.85C153.2 179.856 152.882 179.98 152.846 179.918C152.807 179.865 153.122 179.612 153.599 179.602C154.076 179.589 154.403 179.826 154.366 179.881Z" fill="#072B59"/>
<path d="M154.443 178.368C154.443 178.398 154.16 178.432 153.711 178.34C153.488 178.294 153.226 178.212 152.953 178.081C152.816 178.015 152.677 177.936 152.54 177.845C152.474 177.799 152.395 177.753 152.324 177.666C152.247 177.589 152.209 177.399 152.304 177.287C152.383 177.178 152.517 177.134 152.622 177.135C152.73 177.135 152.817 177.159 152.895 177.182C153.057 177.227 153.208 177.285 153.345 177.352C153.62 177.488 153.842 177.655 154.006 177.816C154.335 178.14 154.442 178.409 154.417 178.422C154.383 178.444 154.226 178.216 153.889 177.947C153.721 177.813 153.506 177.673 153.248 177.559C153.12 177.503 152.98 177.454 152.832 177.416C152.679 177.37 152.547 177.365 152.505 177.432C152.49 177.458 152.488 177.468 152.518 177.514C152.551 177.557 152.612 177.6 152.677 177.645C152.803 177.733 152.931 177.81 153.056 177.878C153.307 178.012 153.548 178.106 153.755 178.171C154.171 178.301 154.446 178.33 154.443 178.368Z" fill="#072B59"/>
<path d="M154.347 178.468C154.321 178.478 154.188 178.218 154.177 177.757C154.172 177.529 154.206 177.253 154.304 176.962C154.354 176.818 154.42 176.67 154.505 176.526C154.596 176.385 154.707 176.196 154.984 176.174C155.129 176.173 155.246 176.289 155.283 176.387C155.328 176.487 155.335 176.572 155.35 176.656C155.371 176.827 155.362 176.994 155.334 177.147C155.277 177.455 155.141 177.709 154.996 177.89C154.697 178.258 154.397 178.333 154.392 178.308C154.369 178.272 154.622 178.143 154.853 177.788C154.967 177.613 155.071 177.38 155.108 177.111C155.127 176.977 155.129 176.833 155.109 176.689C155.091 176.534 155.037 176.407 154.978 176.421C154.906 176.417 154.778 176.53 154.714 176.651C154.634 176.779 154.57 176.91 154.519 177.04C154.419 177.3 154.37 177.55 154.353 177.762C154.319 178.189 154.386 178.458 154.347 178.468Z" fill="#072B59"/>
<path d="M142.715 72.7401L151.505 72.3388C151.555 71.4106 151.079 65.667 151.079 65.667C151.079 65.667 154.402 65.1526 154.443 61.8462C154.483 58.5398 153.98 51.9383 153.98 51.9383L153.923 51.6497C150.078 50.0046 145.623 49.8576 142.306 52.3988L141.814 52.776L142.715 72.7401Z" fill="#FFBE9D"/>
<path d="M151.085 65.6191C151.085 65.6191 148.985 65.7891 146.753 64.3941C146.753 64.3941 147.777 66.7739 151.092 66.4759L151.085 65.6191Z" fill="#AA6550"/>
<path d="M142.223 56.2006C142.167 56.176 139.941 55.5286 140.013 57.789C140.086 60.0495 142.351 59.5109 142.353 59.4458C142.355 59.381 142.223 56.2006 142.223 56.2006Z" fill="#FFBE9D"/>
<path d="M141.632 58.6115C141.621 58.6045 141.593 58.6404 141.527 58.6732C141.463 58.7047 141.351 58.7289 141.232 58.6888C140.989 58.6088 140.775 58.236 140.75 57.8288C140.738 57.6233 140.775 57.4259 140.843 57.2614C140.907 57.0937 141.011 56.9747 141.131 56.9497C141.25 56.9182 141.338 56.9876 141.368 57.0504C141.4 57.1128 141.388 57.1584 141.4 57.1615C141.406 57.167 141.447 57.1221 141.426 57.0293C141.415 56.9848 141.387 56.9322 141.332 56.8905C141.276 56.848 141.195 56.8281 141.111 56.8398C140.937 56.8573 140.784 57.0227 140.709 57.2032C140.625 57.385 140.578 57.6069 140.592 57.8378C140.621 58.2929 140.87 58.7118 141.201 58.7956C141.362 58.8319 141.494 58.7796 141.561 58.7242C141.629 58.6665 141.639 58.6154 141.632 58.6115Z" fill="#AA6550"/>
<path d="M152.818 56.0715C152.827 56.3207 152.623 56.534 152.361 56.5481C152.1 56.5621 151.881 56.3718 151.872 56.1222C151.863 55.873 152.068 55.6593 152.329 55.6452C152.59 55.6312 152.81 55.8219 152.818 56.0715Z" fill="#072B59"/>
<path d="M153.279 55.5984C153.22 55.66 152.861 55.3952 152.351 55.3964C151.841 55.3906 151.466 55.6518 151.411 55.5894C151.384 55.5618 151.443 55.451 151.606 55.3324C151.767 55.2147 152.041 55.1004 152.359 55.1016C152.677 55.1035 152.945 55.2197 153.099 55.3391C153.255 55.4596 153.308 55.5707 153.279 55.5984Z" fill="#072B59"/>
<path d="M147.8 56.2485C147.809 56.4977 147.604 56.7111 147.343 56.7247C147.082 56.7388 146.863 56.5484 146.854 56.2988C146.845 56.0496 147.05 55.8363 147.311 55.8223C147.572 55.8086 147.791 55.9993 147.8 56.2485Z" fill="#072B59"/>
<path d="M148.261 55.6932C148.202 55.7548 147.842 55.49 147.332 55.4915C146.822 55.4857 146.447 55.747 146.392 55.6846C146.365 55.6573 146.424 55.5461 146.588 55.428C146.748 55.3102 147.022 55.1955 147.34 55.1971C147.658 55.1987 147.925 55.3153 148.079 55.4346C148.236 55.5543 148.29 55.6655 148.261 55.6932Z" fill="#072B59"/>
<path d="M150.114 59.4614C150.111 59.4325 150.429 59.3779 150.943 59.3124C151.073 59.2987 151.197 59.273 151.219 59.1849C151.249 59.0913 151.195 58.9513 151.132 58.8003C151.009 58.4864 150.881 58.1572 150.746 57.8125C150.211 56.4057 149.823 55.249 149.88 55.2279C149.937 55.2069 150.418 56.3301 150.953 57.7368C151.082 58.0839 151.205 58.4142 151.322 58.7309C151.372 58.8783 151.456 59.0456 151.39 59.2399C151.355 59.337 151.259 59.4072 151.176 59.4298C151.092 59.4551 151.019 59.4567 150.954 59.4606C150.437 59.4879 150.116 59.4902 150.114 59.4614Z" fill="#072B59"/>
<path d="M148.611 59.8131C148.694 59.8085 148.695 60.3599 149.17 60.7515C149.643 61.1442 150.234 61.0822 150.238 61.1594C150.246 61.1941 150.107 61.2667 149.857 61.2733C149.613 61.2815 149.255 61.2035 148.965 60.964C148.676 60.7238 148.552 60.4036 148.533 60.1774C148.511 59.9465 148.573 59.81 148.611 59.8131Z" fill="#072B59"/>
<path d="M148.393 53.7018C148.342 53.8399 147.832 53.7744 147.233 53.8465C146.633 53.9062 146.15 54.0809 146.07 53.9569C146.035 53.8976 146.119 53.7677 146.315 53.634C146.508 53.5006 146.817 53.3735 147.177 53.3337C147.536 53.2947 147.866 53.3512 148.084 53.4398C148.304 53.5279 148.414 53.6363 148.393 53.7018Z" fill="#072B59"/>
<path d="M153.092 54.1277C153.002 54.2432 152.65 54.1234 152.227 54.1176C151.804 54.0969 151.446 54.1952 151.364 54.0743C151.328 54.0158 151.384 53.9 151.541 53.7908C151.695 53.682 151.953 53.593 152.243 53.6016C152.534 53.611 152.786 53.7155 152.933 53.8337C153.082 53.9526 153.131 54.0716 153.092 54.1277Z" fill="#072B59"/>
<path d="M157.87 104.102L156.42 178.809C156.41 179.311 155.996 179.712 155.491 179.707L146.747 179.631C146.234 179.626 145.824 179.206 145.835 178.695L147.19 114.394L135.817 178.218C135.674 179.024 134.957 179.602 134.135 179.573L126.802 179.321C125.813 179.287 125.076 178.4 125.228 177.427L136.745 103.796L157.87 104.102Z" fill="#072B59"/>
<path d="M175.754 70.8217L170.32 69.5175L166.735 79.2L156.824 70.3755C155.77 69.6072 153.952 69.5117 152.569 69.3412C152.534 69.3369 152.5 69.3326 152.465 69.3287C151.928 69.2656 151.665 69.1883 151.343 69.1497C148.954 70.9379 144.866 71.0518 142.52 69.2078C142.52 69.2078 140.741 69.6084 139.679 69.8108C136.333 70.4488 133.924 72.8746 133.255 75.1148L137.444 84.7295L138.246 93.8629L135.928 102.04C135.691 102.875 136.255 103.724 137.12 103.834L157.87 104.148L158.21 103.981C158.647 103.18 158.971 102.253 158.768 101.365C157.871 97.4516 158.496 85.7813 158.307 82.1991C162.377 86.135 166.868 89.4009 170.15 87.3783C172.878 85.6966 175.754 70.8217 175.754 70.8217Z" fill="#B5E1F1"/>
<path d="M142.676 68.9789L142.68 68.981L142.676 68.9789Z" fill="#0F3970"/>
<path d="M141.85 54.0735C141.938 54.9904 141.909 55.9198 141.997 56.8363C142.03 57.1779 142.182 57.5149 142.328 57.8257C142.474 58.1365 142.755 58.4072 143.098 58.4446C143.501 58.4887 143.882 58.1958 144.061 57.8335C144.241 57.4712 144.26 57.0535 144.263 56.6495C144.267 56.2454 144.258 55.832 144.388 55.4498C144.534 55.0212 144.842 54.6694 145.076 54.281C145.309 53.8922 145.469 53.407 145.289 52.9913C144.055 52.9714 142.92 53.4635 141.85 54.0735Z" fill="#0B0C0E"/>
<path d="M154.095 53.6609L154.024 51.8111L148.595 50.2012L141.814 52.1894V54.178C141.814 54.178 147.327 51.3267 154.095 53.6609Z" fill="#455A64"/>
<path d="M153.685 51.4188L153.924 51.6493L155.878 52.8707C155.878 52.8707 152.124 51.8201 148.239 51.8614C144.353 51.9028 139.909 53.2077 139.909 53.2077L142.483 51.6668C143.301 50.7963 144.437 50.2921 145.634 50.2691L150.511 50.1743C151.694 50.1513 152.836 50.5994 153.685 51.4188Z" fill="#0F3970"/>
<path d="M150.196 50.044C150.139 50.0471 150.029 48.8951 149.949 47.4708C149.87 46.0461 149.851 44.889 149.907 44.8859C149.963 44.8828 150.074 46.0348 150.153 47.4595C150.233 48.8834 150.252 50.0409 150.196 50.044Z" fill="#072B59"/>
<path d="M145.561 45.0317C145.564 45.008 145.878 44.8941 146.476 44.7685C146.652 44.7646 146.851 44.9112 146.868 45.1316C146.869 45.3071 146.87 45.4888 146.87 45.6764C146.866 46.0649 146.862 46.4775 146.857 46.9104C146.843 47.7859 146.817 48.5788 146.789 49.1525C146.761 49.7262 146.729 50.0811 146.701 50.0811C146.673 50.0811 146.654 49.7262 146.645 49.1521C146.636 48.578 146.638 47.7851 146.653 46.9092C146.663 46.4763 146.673 46.0637 146.682 45.6749C146.688 45.4916 146.694 45.3141 146.699 45.1425C146.697 45.0154 146.582 44.9163 146.471 44.9112C145.937 44.9951 145.56 45.0645 145.561 45.0317Z" fill="#072B59"/>
<path d="M155.999 52.8473C155.991 52.8614 155.771 52.7545 155.353 52.6071C155.145 52.5299 154.886 52.4425 154.596 52.3076C154.311 52.1711 153.978 51.9773 153.734 51.6383C153.471 51.3049 153.424 50.8377 153.134 50.505C152.864 50.1497 152.331 50.1521 151.815 50.1326C150.767 50.09 149.614 50.0807 148.404 50.1127C147.193 50.1443 146.041 50.2129 144.995 50.2932C144.481 50.3307 143.98 50.4235 143.665 50.7351C143.507 50.8884 143.382 51.0748 143.257 51.2507C143.193 51.3388 143.13 51.425 143.069 51.51L142.971 51.6329C142.93 51.6832 142.87 51.7152 142.829 51.7382C142.103 52.0888 141.507 52.3115 141.101 52.4952C140.693 52.6699 140.472 52.7756 140.464 52.7623C140.461 52.7561 140.513 52.7222 140.614 52.6629C140.716 52.6048 140.868 52.5229 141.067 52.4238C141.46 52.2194 142.062 51.9695 142.758 51.6134C142.803 51.5861 142.833 51.5705 142.856 51.5412L142.948 51.4207C143.006 51.3361 143.067 51.2499 143.128 51.1622C143.25 50.9847 143.373 50.7909 143.547 50.6154C143.908 50.2499 144.461 50.1509 144.979 50.1072C146.028 50.0163 147.183 49.9418 148.398 49.9099C149.613 49.8775 150.772 49.8927 151.824 49.9457C152.085 49.961 152.344 49.9641 152.601 50.0171C152.855 50.0647 153.114 50.195 153.265 50.3981C153.586 50.7917 153.619 51.2581 153.852 51.5553C154.067 51.8712 154.373 52.0634 154.646 52.2058C154.924 52.3466 155.178 52.4449 155.382 52.5334C155.587 52.6196 155.743 52.6952 155.847 52.7502C155.95 52.808 156.002 52.8411 155.999 52.8473Z" fill="#072B59"/>
<path d="M155.272 53.1344C155.268 53.1398 155.218 53.1153 155.127 53.0634C155.04 53.0072 154.904 52.9363 154.724 52.8563C154.364 52.6956 153.819 52.5147 153.126 52.3731C151.741 52.0927 149.772 51.9117 147.616 52.1083C146.53 52.1855 145.498 52.2327 144.569 52.354C143.647 52.485 142.811 52.6586 142.125 52.822C141.781 52.907 141.474 52.9975 141.208 53.0872C140.941 53.1734 140.723 53.2713 140.587 53.4054C140.308 53.687 140.404 53.9499 140.384 53.9401C140.38 53.9421 140.349 53.8914 140.347 53.7814C140.346 53.6741 140.388 53.5064 140.53 53.3504C140.67 53.1933 140.904 53.0774 141.169 52.9803C141.435 52.8789 141.743 52.7775 142.088 52.6828C142.782 52.4991 143.605 52.3127 144.544 52.1684C145.482 52.0354 146.52 51.9823 147.601 51.9055C149.775 51.7074 151.765 51.9125 153.157 52.2327C153.855 52.3938 154.403 52.5993 154.759 52.7849C154.937 52.8774 155.069 52.9608 155.15 53.0291C155.235 53.093 155.277 53.1289 155.272 53.1344Z" fill="#072B59"/>
<path d="M149.008 44.3352C149.008 44.3465 148.815 44.3602 148.502 44.373C148.08 44.3847 147.694 44.3956 147.277 44.407C146.801 44.4261 146.361 44.3945 146.06 44.4452C145.745 44.4943 145.656 44.7002 145.649 44.6893C145.646 44.6885 145.656 44.6374 145.715 44.5676C145.772 44.4967 145.891 44.4253 146.048 44.389C146.365 44.3212 146.797 44.3449 147.275 44.3254C147.692 44.3219 148.078 44.3188 148.5 44.3153C148.814 44.3173 149.008 44.3239 149.008 44.3352Z" fill="#B5E1F1"/>
<path d="M149.622 50.2839C149.622 50.2893 149.531 50.2971 149.366 50.3065C149.152 50.3178 148.921 50.3299 148.668 50.3435C148.079 50.3751 147.265 50.4231 146.368 50.498C145.924 50.5389 145.501 50.5779 145.103 50.6146C144.716 50.6583 144.362 50.675 144.085 50.7636C143.806 50.8474 143.623 51.012 143.535 51.1458C143.445 51.2807 143.437 51.3759 143.428 51.3731C143.428 51.3731 143.423 51.2756 143.509 51.129C143.591 50.9843 143.779 50.8033 144.067 50.709C144.354 50.6099 144.709 50.5881 145.096 50.5397C145.484 50.4964 145.911 50.4539 146.361 50.4169C147.259 50.342 148.075 50.3026 148.666 50.2858C148.919 50.2819 149.151 50.278 149.365 50.2745C149.531 50.2753 149.622 50.2784 149.622 50.2839Z" fill="#B5E1F1"/>
<path d="M146.906 49.569C146.9 49.5682 146.901 49.5031 146.908 49.3853C146.919 49.2219 146.93 49.0573 146.942 48.8881C146.97 48.4684 147.005 47.8881 147.024 47.2469C147.043 46.6054 147.043 46.0243 147.039 45.6035C147.038 45.4338 147.037 45.2689 147.035 45.1051C147.035 44.9873 147.038 44.9221 147.043 44.9218C147.049 44.9214 147.057 44.9861 147.067 45.1039C147.077 45.2213 147.088 45.3917 147.097 45.6023C147.115 46.0235 147.124 46.6062 147.105 47.2497C147.086 47.8928 147.042 48.4739 146.999 48.8931C146.978 49.1029 146.957 49.2722 146.94 49.3888C146.923 49.505 146.911 49.5694 146.906 49.569Z" fill="#B5E1F1"/>
<path d="M142.842 51.8482C142.845 51.8532 142.789 51.8821 142.688 51.9301C142.545 51.9952 142.402 52.0599 142.256 52.1262C141.799 52.3228 141.331 52.524 140.818 52.7444C140.538 52.8657 140.263 52.9651 140.042 53.102C139.82 53.2362 139.663 53.4171 139.602 53.6016C139.537 53.7849 139.554 53.9483 139.59 54.0497C139.628 54.1515 139.673 54.1975 139.666 54.2022C139.666 54.2022 139.611 54.1659 139.56 54.0614C139.513 53.9577 139.485 53.7818 139.547 53.5837C139.604 53.3832 139.772 53.1808 140.002 53.0388C140.231 52.8918 140.506 52.7908 140.786 52.6695C141.302 52.4569 141.773 52.2627 142.233 52.0732C142.382 52.0151 142.528 51.9581 142.675 51.9008C142.781 51.8622 142.84 51.8431 142.842 51.8482Z" fill="#B5E1F1"/>
<path d="M141.85 69.8061L142.331 66.5016L146.853 68.1541L148.13 70.3927L148.923 67.9361L151.404 67.0859L152.465 69.2827L150.645 71.8466L147.229 72.5338L141.85 69.8061Z" fill="#B5E1F1"/>
<path d="M148.209 70.9051C148.202 70.9117 148.143 70.8653 148.04 70.7694C147.938 70.6727 147.794 70.5249 147.625 70.3232C147.29 69.9215 146.858 69.294 146.534 68.4508L146.7 68.4532C146.391 69.2293 146.035 70.1228 145.656 71.074C145.473 71.5221 145.297 71.9569 145.13 72.3676L145.074 72.5033L144.969 72.4019C144.056 71.524 143.268 70.755 142.712 70.2012C142.459 69.9442 142.245 69.7265 142.066 69.5452C141.918 69.3892 141.841 69.3003 141.85 69.2917C141.858 69.2831 141.95 69.3556 142.113 69.4964C142.303 69.6661 142.531 69.8701 142.799 70.1103C143.379 70.6391 144.185 71.3899 145.106 72.26L144.946 72.2943C145.111 71.8828 145.286 71.4472 145.466 70.9983C145.854 70.0506 146.218 69.1606 146.535 68.3873L146.623 68.1728L146.701 68.3896C147 69.2172 147.401 69.8447 147.708 70.2593C148.016 70.6746 148.225 70.8895 148.209 70.9051Z" fill="#072B59"/>
<path d="M152.465 69.2827C152.481 69.2948 152.3 69.5772 151.934 70.0105C151.566 70.4379 151.01 71.0334 150.203 71.5256L150.103 71.5864L150.062 71.4753C149.913 71.074 149.743 70.6407 149.562 70.1914C149.29 69.5179 149.035 68.8771 148.837 68.3081L149.013 68.2941C148.864 69.0398 148.68 69.6497 148.568 70.0807C148.453 70.5112 148.391 70.7616 148.37 70.7577C148.352 70.7542 148.377 70.4964 148.462 70.0561C148.544 69.6154 148.703 68.9992 148.834 68.2605L148.892 67.931L149.009 68.2465C149.218 68.8073 149.479 69.4411 149.752 70.1162C149.933 70.5662 150.101 71.0038 150.245 71.4098L150.104 71.3595C150.89 70.8965 151.455 70.3307 151.844 69.9301C152.231 69.5234 152.445 69.2671 152.465 69.2827Z" fill="#072B59"/>
<path d="M149.849 104.555C149.842 104.554 149.85 104.436 149.872 104.21C149.898 103.968 149.933 103.64 149.977 103.227C150.034 102.802 150.066 102.278 150.111 101.669C150.132 101.365 150.156 101.04 150.18 100.696C150.194 100.35 150.208 99.9851 150.224 99.6025C150.294 98.0702 150.291 96.2419 150.253 94.2139C150.201 92.1855 150.089 89.9574 149.929 87.6209C149.589 82.9475 149.127 78.7289 148.778 75.6779C148.604 74.1663 148.463 72.9366 148.363 72.0642C148.318 71.6512 148.283 71.3232 148.256 71.0806C148.234 70.8556 148.226 70.7366 148.233 70.7359C148.24 70.7351 148.262 70.8517 148.297 71.0752C148.333 71.3166 148.381 71.6426 148.442 72.0537C148.561 72.9043 148.73 74.1359 148.921 75.6604C149.307 78.7082 149.792 82.9273 150.133 87.6061C150.293 89.9453 150.4 92.1773 150.441 94.2096C150.469 96.2415 150.457 98.0733 150.368 99.6083C150.348 99.9917 150.328 100.357 150.31 100.703C150.279 101.048 150.251 101.373 150.224 101.678C150.169 102.286 150.125 102.811 150.056 103.235C149.996 103.647 149.948 103.974 149.913 104.215C149.878 104.44 149.856 104.557 149.849 104.555Z" fill="#072B59"/>
<path d="M146.224 69.6579L147.25 70.1914L147.059 71.9125L145.458 71.5783L146.224 69.6579Z" fill="#0F3970"/>
<g opacity="0.4">
<path d="M146.224 69.6579L147.25 70.1914L147.059 71.9125L145.458 71.5783L146.224 69.6579Z" fill="black"/>
</g>
<path d="M148.578 70.0846L149.355 69.404L150.065 71.2042L149.047 71.691L148.578 70.0846Z" fill="#0F3970"/>
<path d="M147.441 72.331L146.962 92.68L150.417 96.0804L152.09 91.5634L148.772 72.2233L147.441 72.331Z" fill="#0F3970"/>
<path d="M147.464 69.5616C147.699 69.5347 148.024 69.4707 148.281 69.4161C148.528 69.3638 148.778 69.4797 148.898 69.7L149.334 70.5007C149.397 70.6157 149.418 70.7491 149.393 70.8778L149.218 71.7764C149.174 72.0014 148.998 72.1777 148.772 72.2229L147.786 72.4214C147.536 72.4718 147.282 72.3497 147.167 72.1227L146.673 71.1539C146.596 71.0026 146.591 70.8252 146.66 70.67L147.004 69.895C147.086 69.7098 147.261 69.585 147.464 69.5616Z" fill="#0F3970"/>
<path d="M148.899 69.778C148.907 69.7858 148.806 69.9102 148.636 70.1041C148.466 70.2979 148.227 70.5615 147.961 70.8494C147.693 71.1372 147.448 71.395 147.267 71.5787C147.087 71.7623 146.97 71.8727 146.962 71.8657C146.953 71.8587 147.054 71.735 147.224 71.5412C147.394 71.3474 147.633 71.083 147.901 70.7944C148.169 70.5058 148.415 70.2476 148.595 70.0639C148.776 69.8798 148.892 69.7702 148.899 69.778Z" fill="#072B59"/>
<path d="M147.889 70.716C147.873 70.7324 147.66 70.5537 147.413 70.3174C147.165 70.081 146.978 69.8763 146.993 69.8603C147.009 69.8439 147.222 70.0226 147.469 70.2589C147.716 70.4952 147.904 70.7 147.889 70.716Z" fill="#072B59"/>
<path d="M149.044 72.0174C149.018 72.0131 149.144 71.4831 149.288 70.8439C149.348 70.5214 149.139 70.269 149.041 70.0787C148.931 69.8864 148.912 69.7449 148.922 69.7441C148.934 69.7414 148.971 69.8697 149.091 70.0495C149.148 70.1411 149.225 70.246 149.292 70.379C149.359 70.5093 149.401 70.6844 149.37 70.8552C149.303 71.1887 149.215 71.4706 149.158 71.6824C149.097 71.8918 149.055 72.0201 149.044 72.0174Z" fill="#072B59"/>
<path d="M145.846 93.9857C145.846 93.9857 134.866 98.8732 133.749 99.1173C130.042 99.927 125.805 96.4419 126.982 92.4694C127.419 90.9921 133.327 74.6499 133.327 74.6499L138.95 82.3824L136.571 90.2963L142.799 89.8849L145.846 93.9857Z" fill="#B5E1F1"/>
<path d="M142.292 89.9496C142.292 89.9613 142.139 89.982 141.858 90.0097C141.542 90.0362 141.14 90.0701 140.656 90.1111C139.634 90.1898 138.205 90.2885 136.577 90.3915L136.44 90.4001L136.479 90.269C136.598 89.8739 136.72 89.4637 136.846 89.0444C137.401 87.197 137.914 85.5274 138.295 84.3219C138.48 83.7467 138.635 83.2681 138.755 82.8972C138.868 82.5622 138.937 82.3785 138.949 82.3824C138.962 82.3863 138.919 82.577 138.828 82.9191C138.723 83.2943 138.589 83.779 138.427 84.3613C138.08 85.5769 137.587 87.2524 137.032 89.0998C136.906 89.5187 136.782 89.9285 136.663 90.3232L136.565 90.2008C138.194 90.1064 139.625 90.0315 140.649 89.9863C141.134 89.9683 141.537 89.9535 141.854 89.9418C142.136 89.9356 142.291 89.9375 142.292 89.9496Z" fill="#072B59"/>
<path d="M144.62 94.6233C144.64 94.6729 142.23 95.7087 139.237 96.9364C136.243 98.1645 133.8 99.1197 133.779 99.0701C133.759 99.0206 136.168 97.9852 139.162 96.757C142.155 95.5293 144.599 94.5738 144.62 94.6233Z" fill="#072B59"/>
<path d="M143.293 89.5873L142.426 85.3913C142.357 85.0559 142.615 84.7419 142.959 84.7435L153.871 84.7942C154.195 84.7958 154.445 85.0766 154.407 85.396L153.281 95.0095C153.236 95.3893 152.911 95.6748 152.527 95.6721L145.411 95.6171C145.069 95.6144 144.772 95.3823 144.687 95.0524L143.293 89.5873Z" fill="#455A64"/>
<path d="M142.331 87.3775C142.805 87.3775 143.232 87.6658 143.403 88.1061C143.582 88.5694 143.843 89.1107 144.133 89.2683C144.669 89.5592 145.595 89.7913 146.082 89.5541C146.569 89.3166 148.518 87.5714 148.859 87.7652C149.199 87.959 149.492 88.3954 149.151 88.7835C148.81 89.1712 147.008 90.3349 147.348 90.723C147.689 91.1106 151.489 89.4036 152.073 89.5541C152.658 89.7047 152.999 90.0623 152.658 90.2955C152.317 90.5287 149.735 91.4983 149.589 91.838C149.589 91.838 153.486 90.8197 153.632 91.0623C153.778 91.3048 154.022 91.6925 153.632 91.838C153.242 91.9834 149.881 92.8563 149.589 93.0013C149.297 93.1468 148.289 93.4378 148.087 93.4378C147.98 93.4378 147.218 93.692 146.517 93.9334C145.728 94.2053 144.867 94.1827 144.093 93.8691L143.699 93.7092C143.085 93.4604 142.698 92.8496 142.738 92.1909L142.818 90.8684L142.393 89.7772L142.331 87.3775Z" fill="#FFBE9D"/>
<path d="M148.88 86.36C148.88 86.5781 148.702 86.7547 148.483 86.7547C148.264 86.7547 148.087 86.5781 148.087 86.36C148.087 86.142 148.264 85.9654 148.483 85.9654C148.702 85.9654 148.88 86.142 148.88 86.36Z" fill="#B5E1F1"/>
<path d="M156.244 79.6641H151.779V81.1017H156.244V79.6641Z" fill="#072B59"/>
<path d="M141.122 106.507L136.377 106.392L136.6 104.962L141.287 105.142L141.122 106.507Z" fill="#455A64"/>
<path d="M154.294 106.479L142.374 106.392L142.532 105.081L154.281 105.112L154.294 106.479Z" fill="#455A64"/>
<path d="M147.111 105.004V106.583C147.111 106.839 147.287 107.046 147.504 107.046H150.786C151.003 107.046 151.179 106.839 151.179 106.583V105.004C151.179 104.749 151.003 104.541 150.786 104.541H147.504C147.287 104.541 147.111 104.749 147.111 105.004ZM150.665 106.463H147.625V105.125H150.665V106.463Z" fill="#B5E1F1"/>
<path d="M155.316 105.124V106.463L157.835 106.507L157.87 105.081L155.316 105.124Z" fill="#455A64"/>
<path d="M156.685 176.154C156.685 176.21 154.302 176.255 151.362 176.255C148.421 176.255 146.038 176.21 146.038 176.154C146.038 176.098 148.421 176.053 151.362 176.053C154.302 176.052 156.685 176.098 156.685 176.154Z" fill="#455A64"/>
<path d="M136.339 175.749C136.339 175.763 136.187 175.777 135.912 175.789C135.593 175.8 135.204 175.814 134.748 175.829C133.715 175.854 132.381 175.886 130.906 175.922C129.405 175.953 128.045 175.966 127.061 175.956C126.569 175.951 126.171 175.943 125.896 175.931C125.621 175.919 125.469 175.906 125.469 175.892C125.469 175.878 125.621 175.865 125.896 175.852C126.215 175.841 126.604 175.828 127.06 175.812C128.093 175.787 129.427 175.755 130.902 175.719C132.403 175.688 133.763 175.675 134.747 175.685C135.239 175.69 135.637 175.698 135.913 175.71C136.187 175.722 136.339 175.735 136.339 175.749Z" fill="#455A64"/>
<path d="M166.62 82.9366C166.563 82.9366 166.518 82.058 166.518 80.9745C166.518 79.8907 166.564 79.0121 166.62 79.0121C166.676 79.0121 166.722 79.8903 166.722 80.9745C166.722 82.058 166.676 82.9366 166.62 82.9366Z" fill="#072B59"/>
<path d="M168.003 83.1874C167.954 83.2092 167.515 82.3189 167.119 81.1637C166.721 80.0089 166.519 79.0378 166.572 79.0249C166.628 79.0105 166.916 79.9515 167.312 81.0978C167.705 82.2447 168.057 83.1644 168.003 83.1874Z" fill="#072B59"/>
</g>
<defs>
<clipPath id="clip0_8_2922">
<rect width="269" height="195" fill="white"/>
</clipPath>
</defs>
</svg>
