<svg width="25" height="16" viewBox="0 0 25 16" fill="none" xmlns="http://www.w3.org/2000/svg">
<g id="Group 4006">
<path id="Vector" d="M1 1H24V15H1V1Z" fill="#5C9E31"/>
<path id="Vector_2" d="M1 6H24V10H1V6Z" fill="white"/>
<path id="Vector_3" d="M1 1H24V6H1V1Z" fill="black"/>
<path id="Vector_4" d="M9 8L1 15V1L9 8Z" fill="#D22F27"/>
<path id="Vector_5" d="M4 7L4.2224 7.578L4.802 7.396L4.5 7.9352L5 8.2864L4.4008 8.38L4.4452 9L4 8.578L3.5548 9L3.5992 8.38L3 8.2864L3.5 7.9352L3.198 7.396L3.7776 7.578L4 7Z" fill="white" stroke="white" stroke-linecap="round" stroke-linejoin="round"/>
<path id="Vector_6" d="M1 1H24V15H1V1Z" stroke="black" stroke-linecap="round" stroke-linejoin="round"/>
</g>
</svg>
