<svg width="240" height="200" viewBox="0 0 240 200" fill="none" xmlns="http://www.w3.org/2000/svg">
<g clip-path="url(#clip0_0_791)">
<path d="M240 175.758H0V175.892H240V175.758Z" fill="#EBEBEB"/>
<path d="M215.952 184.398H200.055V184.533H215.952V184.398Z" fill="#EBEBEB"/>
<path d="M158.984 185.859H154.812V185.994H158.984V185.859Z" fill="#EBEBEB"/>
<path d="M199.574 179.414H190.363V179.548H199.574V179.414Z" fill="#EBEBEB"/>
<path d="M45.9109 180.32H25.1797V180.455H45.9109V180.32Z" fill="#EBEBEB"/>
<path d="M53.2259 180.32H50.1875V180.455H53.2259V180.32Z" fill="#EBEBEB"/>
<path d="M108.072 182.586H63.1055V182.72H108.072V182.586Z" fill="#EBEBEB"/>
<path d="M113.765 151.821H21.0768C19.5648 151.821 18.336 150.447 18.336 148.756V3.06487C18.336 1.37409 19.5648 0 21.0768 0H113.765C115.277 0 116.506 1.37409 116.506 3.06487V148.756C116.506 150.447 115.277 151.821 113.765 151.821ZM21.0768 0.134189C19.632 0.134189 18.456 1.44924 18.456 3.06487V148.756C18.456 150.372 19.632 151.687 21.0768 151.687H113.765C115.21 151.687 116.386 150.372 116.386 148.756V3.06487C116.386 1.44924 115.21 0.134189 113.765 0.134189H21.0768Z" fill="#EBEBEB"/>
<path d="M217.589 151.821H124.901C123.389 151.821 122.16 150.447 122.16 148.756V3.06487C122.16 1.37409 123.389 0 124.901 0H217.589C219.101 0 220.33 1.37409 220.33 3.06487V148.756C220.33 150.447 219.101 151.821 217.589 151.821ZM124.901 0.134189C123.456 0.134189 122.28 1.44924 122.28 3.06487V148.756C122.28 150.372 123.456 151.687 124.901 151.687H217.589C219.034 151.687 220.21 150.372 220.21 148.756V3.06487C220.21 1.44924 219.034 0.134189 217.589 0.134189H124.901Z" fill="#EBEBEB"/>
<path d="M152.962 124.086H207.835C207.835 126.34 206.251 128.187 204.235 128.289C198.336 128.584 189.264 129.631 186.389 133.281C181.027 140.081 181.546 163.972 187.968 169.506C189.984 171.24 195.855 174.686 195.855 174.686H164.938C164.938 174.686 170.424 171.17 172.33 169.506C178.719 163.929 178.901 140.049 173.515 133.281C170.751 129.808 162.25 128.686 156.543 128.332C154.531 128.208 152.957 126.34 152.957 124.086H152.962Z" fill="#F5F5F5"/>
<path d="M201.039 128.516C195.466 129.015 188.784 130.249 186.394 133.282C185.684 134.178 185.084 135.381 184.58 136.798H175.364C174.845 135.381 174.236 134.178 173.52 133.282C171.12 130.265 164.381 129.02 158.914 128.516H201.039Z" fill="#E6E6E6"/>
<path d="M176.334 124.116L177.083 114.578H166.264L165.52 124.116H176.334Z" fill="#EBEBEB"/>
<path d="M176.332 124.116L177.081 114.578H177.662L176.918 124.116H176.332Z" fill="#E0E0E0"/>
<path d="M175.31 123.137L175.901 115.547H167.29L166.699 123.137H175.31Z" fill="#F0F0F0"/>
<path d="M174.648 122.516L175.143 116.172H167.952L167.453 122.516H174.648Z" fill="#FAFAFA"/>
<path d="M179.842 124.082H190.709L189.504 108.672H178.637L179.842 124.082Z" fill="#E6E6E6"/>
<path d="M179.84 124.082H179.322L178.117 108.672H178.636L179.84 124.082Z" fill="#E0E0E0"/>
<path d="M180.831 122.507H189.481L188.521 110.242H179.871L180.831 122.507Z" fill="#F0F0F0"/>
<path d="M181.462 121.497H188.686L187.884 111.25H180.66L181.462 121.497Z" fill="#FAFAFA"/>
<path d="M185.112 115.865C184.622 116.413 183.826 116.413 183.336 115.865C182.846 115.318 182.846 114.427 183.336 113.879C183.826 113.332 184.622 113.332 185.112 113.879C185.602 114.427 185.602 115.318 185.112 115.865Z" fill="#EBEBEB"/>
<path d="M184.579 117.591C184.939 117.188 185.52 117.188 185.88 117.591C186.46 118.24 186.048 119.346 185.227 119.346C184.406 119.346 183.998 118.235 184.574 117.591H184.579Z" fill="#F0F0F0"/>
<path d="M92.4921 171.532H103.076L97.5129 120.863C97.2777 118.716 95.5305 116.977 93.6153 116.977H47.4297L54.1977 171.532H92.4873H92.4921Z" fill="#F5F5F5"/>
<path d="M58.9275 171.532H48.3435L42.7803 120.863C42.5451 118.716 43.9083 116.977 45.8283 116.977H49.4667C51.3867 116.977 53.1291 118.716 53.3643 120.863L58.9275 171.532Z" fill="#F0F0F0"/>
<path d="M62.8242 171.473L60.909 146.965C60.8226 145.87 60.069 144.989 59.0946 144.85L58.3074 144.737C57.0018 144.549 55.9842 143.368 55.869 141.903L55.5186 137.432C55.3746 135.601 56.6658 134.023 58.3122 134.023H40.6242C38.9778 134.023 37.6914 135.601 37.8306 137.432L38.181 141.903C38.2962 143.374 39.309 144.549 40.6194 144.737L41.4066 144.85C42.381 144.989 43.1394 145.87 43.221 146.965L45.1362 171.473C45.2754 173.26 46.6146 174.629 48.2178 174.629H65.9058C64.3026 174.629 62.9634 173.26 62.8242 171.473Z" fill="#E6E6E6"/>
<path d="M111.498 140.832C111.801 136.983 114.681 134.031 118.137 134.031H102.738C99.2821 134.031 96.4021 136.983 96.0997 140.832L94.5781 160.257H109.977L111.498 140.832Z" fill="#E6E6E6"/>
<path d="M124.976 134.031H118.136C114.68 134.031 111.8 136.983 111.498 140.832L109.976 160.257H73.3039L71.7823 140.832C71.4799 136.983 68.5999 134.031 65.1439 134.031H58.3039C56.6575 134.031 55.3711 135.609 55.5103 137.44L55.8607 141.911C55.9759 143.382 56.9887 144.557 58.2991 144.745L59.0863 144.858C60.0607 144.997 60.8191 145.877 60.9007 146.972L62.8159 171.481C62.9551 173.268 64.2943 174.637 65.8975 174.637H117.368C118.971 174.637 120.31 173.268 120.45 171.481L122.365 146.972C122.451 145.877 123.205 144.997 124.179 144.858L124.966 144.745C126.272 144.557 127.29 143.376 127.405 141.911L127.755 137.44C127.899 135.609 126.608 134.031 124.962 134.031H124.976Z" fill="#F0F0F0"/>
<path d="M186.949 46.89C186.949 46.89 187.486 42.9449 184.909 40.4114C182.336 37.8833 182.562 36.375 183.296 36.1818C184.03 35.9885 184.712 38.5166 185.84 39.2091C185.84 39.2091 185.874 35.6021 184.726 34.2763C183.579 32.9505 182.974 29.526 184.069 29.467C185.163 29.4079 185.274 31.5013 185.504 32.9827C185.734 34.4641 186.949 36.5521 186.949 36.5521C186.949 36.5521 187.189 33.3262 187.928 31.9951C188.672 30.6693 186.69 27.6313 187.453 26.3001C188.216 24.9743 189.574 27.5024 189.459 30.3472C189.344 33.192 187.65 36.2301 188.043 39.2037C188.043 39.2037 188.792 37.1157 189.464 36.9278C190.136 36.74 190.813 35.3552 191.269 34.8452C191.72 34.3353 192.286 36.1066 191.269 37.7491C190.251 39.3915 187.65 43.7929 188.043 47.3516L186.944 46.8846L186.949 46.89Z" fill="#E6E6E6"/>
<path d="M185.406 45.0938L184.561 51.0088C184.302 52.8337 185.564 54.487 187.216 54.487H188.113C189.769 54.487 191.032 52.8337 190.768 51.0088L189.923 45.0938H185.396H185.406Z" fill="#E6E6E6"/>
<path d="M198.156 52.3047H138.578V55.7292H198.156V52.3047Z" fill="#E0E0E0"/>
<path d="M143.946 39.6875H141.32V52.3066H143.946V39.6875Z" fill="#EBEBEB"/>
<path d="M156.637 39.6875H154.012V52.3066H156.637V39.6875Z" fill="#EBEBEB"/>
<path d="M171.048 39.3685L168.461 39.8672L170.378 52.3029L172.965 51.8042L171.048 39.3685Z" fill="#EBEBEB"/>
<path d="M147.2 41.3516H144.574V52.3067H147.2V41.3516Z" fill="#EBEBEB"/>
<path d="M153.231 41.3516H150.605V52.3067H153.231V41.3516Z" fill="#EBEBEB"/>
<path d="M168.458 41.3516H165.832V52.3067H168.458V41.3516Z" fill="#EBEBEB"/>
<path d="M160.087 40.9646L157.523 41.6016L159.649 52.2958L162.212 51.6588L160.087 40.9646Z" fill="#EBEBEB"/>
<path d="M149.463 39.0625H148.152V52.3042H149.463V39.0625Z" fill="#EBEBEB"/>
<path d="M165.08 39.0625H163.77V52.3042H165.08V39.0625Z" fill="#EBEBEB"/>
<path d="M138.579 81.2813L198.156 81.2813V77.8568L138.579 77.8568V81.2813Z" fill="#E0E0E0"/>
<path d="M192.788 77.8594H195.414V65.2403H192.788V77.8594Z" fill="#EBEBEB"/>
<path d="M180.097 77.8594H182.723V65.2403H180.097V77.8594Z" fill="#EBEBEB"/>
<path d="M163.776 77.3529L166.363 77.8516L168.28 65.4159L165.693 64.9172L163.776 77.3529Z" fill="#EBEBEB"/>
<path d="M189.535 77.8594H192.16V66.9043H189.535V77.8594Z" fill="#EBEBEB"/>
<path d="M183.499 77.8594H186.125V66.9043H183.499V77.8594Z" fill="#EBEBEB"/>
<path d="M168.277 77.8594H170.902V66.9043H168.277V77.8594Z" fill="#EBEBEB"/>
<path d="M174.531 77.2068L177.094 77.8438L179.219 67.1496L176.656 66.5126L174.531 77.2068Z" fill="#EBEBEB"/>
<path d="M187.268 77.8594H188.578V64.6177H187.268V77.8594Z" fill="#EBEBEB"/>
<path d="M171.658 77.8594H172.969V64.6177H171.658V77.8594Z" fill="#EBEBEB"/>
<path d="M144.299 77.7501H157.086V67.8792H144.299V77.7501Z" fill="#EBEBEB"/>
<path d="M99.9131 32.7266H45.8555V99.6169H99.9131V32.7266Z" fill="#E9E9E9"/>
<path d="M97.6783 35.375H48.2383V97.1017H97.6783V35.375Z" fill="#F5F5F5"/>
<path d="M62.2111 35.375L48.2383 93.8919V62.2127L54.6319 35.375H62.2111Z" fill="white"/>
<path d="M68.4566 35.375L53.7206 97.1017H50.9414L65.6774 35.375H68.4566Z" fill="white"/>
<path d="M97.6776 52.2031V83.8877L94.548 97.0972H86.9688L97.6776 52.2031Z" fill="white"/>
<path d="M73.846 32.7266H71.926V99.6169H73.846V32.7266Z" fill="#E9E9E9"/>
<path d="M98.8769 46.2969H46.7969V48.4439H98.8769V46.2969Z" fill="#E9E9E9"/>
<path d="M47.6284 103.425C47.6284 104.171 47.0908 104.773 46.4236 104.773C45.7564 104.773 45.2188 104.171 45.2188 103.425C45.2188 102.679 45.7564 102.078 46.4236 102.078C47.0908 102.078 47.6284 102.679 47.6284 103.425Z" fill="#E0E0E0"/>
<path d="M100.859 103.386C100.859 104.132 100.321 104.734 99.654 104.734C98.9868 104.734 98.4492 104.132 98.4492 103.386C98.4492 102.64 98.9868 102.039 99.654 102.039C100.321 102.039 100.859 102.64 100.859 103.386Z" fill="#E0E0E0"/>
<path d="M120.001 200.004C171.4 200.004 213.068 197.283 213.068 193.928C213.068 190.572 171.4 187.852 120.001 187.852C68.6012 187.852 26.9336 190.572 26.9336 193.928C26.9336 197.283 68.6012 200.004 120.001 200.004Z" fill="#F5F5F5"/>
<path d="M88.6216 188.203H60.5464C60.1886 188.203 59.8984 188.528 59.8984 188.928V192.696C59.8984 193.096 60.1886 193.42 60.5464 193.42H88.6216C88.9795 193.42 89.2696 193.096 89.2696 192.696V188.928C89.2696 188.528 88.9795 188.203 88.6216 188.203Z" fill="#B5E1F1"/>
<path opacity="0.5" d="M89.2735 188.928V192.696C89.2735 193.098 88.9807 193.42 88.6207 193.42H60.5503C60.1903 193.42 59.9023 193.098 59.9023 192.696V188.928C59.9023 188.525 60.1903 188.203 60.5503 188.203H88.6207C88.9807 188.203 89.2735 188.525 89.2735 188.928Z" fill="white"/>
<path opacity="0.2" d="M85.3914 193.094C85.2618 193.094 85.1562 192.976 85.1562 192.831V188.794C85.1562 188.649 85.2618 188.531 85.3914 188.531C85.521 188.531 85.6266 188.649 85.6266 188.794V192.831C85.6266 192.976 85.521 193.094 85.3914 193.094Z" fill="black"/>
<path opacity="0.2" d="M82.036 193.094C81.9064 193.094 81.8008 192.976 81.8008 192.831V188.794C81.8008 188.649 81.9064 188.531 82.036 188.531C82.1656 188.531 82.2712 188.649 82.2712 188.794V192.831C82.2712 192.976 82.1656 193.094 82.036 193.094Z" fill="black"/>
<path opacity="0.2" d="M78.3172 193.094C78.1876 193.094 78.082 192.976 78.082 192.831V188.794C78.082 188.649 78.1876 188.531 78.3172 188.531C78.4468 188.531 78.5524 188.649 78.5524 188.794V192.831C78.5524 192.976 78.4468 193.094 78.3172 193.094Z" fill="black"/>
<path opacity="0.2" d="M88.1415 193.094C88.0119 193.094 87.9062 192.976 87.9062 192.831V188.794C87.9062 188.649 88.0119 188.531 88.1415 188.531C88.2711 188.531 88.3766 188.649 88.3766 188.794V192.831C88.3766 192.976 88.2711 193.094 88.1415 193.094Z" fill="black"/>
<path opacity="0.2" d="M63.7821 188.523C63.9117 188.523 64.0173 188.642 64.0173 188.786V192.823C64.0173 192.968 63.9117 193.086 63.7821 193.086C63.6525 193.086 63.5469 192.968 63.5469 192.823V188.786C63.5469 188.642 63.6525 188.523 63.7821 188.523Z" fill="black"/>
<path opacity="0.2" d="M67.1338 188.523C67.2634 188.523 67.369 188.642 67.369 188.786V192.823C67.369 192.968 67.2634 193.086 67.1338 193.086C67.0042 193.086 66.8986 192.968 66.8986 192.823V188.786C66.8986 188.642 67.0042 188.523 67.1338 188.523Z" fill="black"/>
<path opacity="0.2" d="M70.8524 188.523C70.982 188.523 71.0876 188.642 71.0876 188.786V192.823C71.0876 192.968 70.982 193.086 70.8524 193.086C70.7228 193.086 70.6172 192.968 70.6172 192.823V188.786C70.6172 188.642 70.7228 188.523 70.8524 188.523Z" fill="black"/>
<path opacity="0.2" d="M61.0282 188.523C61.1578 188.523 61.2634 188.642 61.2634 188.786V192.823C61.2634 192.968 61.1578 193.086 61.0282 193.086C60.8986 193.086 60.793 192.968 60.793 192.823V188.786C60.793 188.642 60.8986 188.523 61.0282 188.523Z" fill="black"/>
<path opacity="0.2" d="M74.5868 193.094C74.4572 193.094 74.3516 192.976 74.3516 192.831V188.794C74.3516 188.649 74.4572 188.531 74.5868 188.531C74.7164 188.531 74.822 188.649 74.822 188.794V192.831C74.822 192.976 74.7164 193.094 74.5868 193.094Z" fill="black"/>
<path d="M89.4654 182.906H61.3902C61.0323 182.906 60.7422 183.231 60.7422 183.631V187.399C60.7422 187.799 61.0323 188.124 61.3902 188.124H89.4654C89.8233 188.124 90.1134 187.799 90.1134 187.399V183.631C90.1134 183.231 89.8233 182.906 89.4654 182.906Z" fill="#B5E1F1"/>
<path opacity="0.5" d="M89.4645 182.906H61.3941C61.0362 182.906 60.7461 183.231 60.7461 183.631V187.399C60.7461 187.799 61.0362 188.124 61.3941 188.124H89.4645C89.8224 188.124 90.1125 187.799 90.1125 187.399V183.631C90.1125 183.231 89.8224 182.906 89.4645 182.906Z" fill="white"/>
<path opacity="0.2" d="M86.2352 187.797C86.1056 187.797 86 187.679 86 187.534V183.497C86 183.352 86.1056 183.234 86.2352 183.234C86.3648 183.234 86.4704 183.352 86.4704 183.497V187.534C86.4704 187.679 86.3648 187.797 86.2352 187.797Z" fill="black"/>
<path opacity="0.2" d="M82.8797 187.797C82.7501 187.797 82.6445 187.679 82.6445 187.534V183.497C82.6445 183.352 82.7501 183.234 82.8797 183.234C83.0093 183.234 83.1149 183.352 83.1149 183.497V187.534C83.1149 187.679 83.0093 187.797 82.8797 187.797Z" fill="black"/>
<path opacity="0.2" d="M79.161 187.797C79.0314 187.797 78.9258 187.679 78.9258 187.534V183.497C78.9258 183.352 79.0314 183.234 79.161 183.234C79.2906 183.234 79.3962 183.352 79.3962 183.497V187.534C79.3962 187.679 79.2906 187.797 79.161 187.797Z" fill="black"/>
<path opacity="0.2" d="M88.9852 187.797C88.8556 187.797 88.75 187.679 88.75 187.534V183.497C88.75 183.352 88.8556 183.234 88.9852 183.234C89.1148 183.234 89.2204 183.352 89.2204 183.497V187.534C89.2204 187.679 89.1148 187.797 88.9852 187.797Z" fill="black"/>
<path opacity="0.2" d="M64.6258 183.234C64.7554 183.234 64.861 183.352 64.861 183.497V187.534C64.861 187.679 64.7554 187.797 64.6258 187.797C64.4962 187.797 64.3906 187.679 64.3906 187.534V183.497C64.3906 183.352 64.4962 183.234 64.6258 183.234Z" fill="black"/>
<path opacity="0.2" d="M67.9775 183.234C68.1071 183.234 68.2127 183.352 68.2127 183.497V187.534C68.2127 187.679 68.1071 187.797 67.9775 187.797C67.8479 187.797 67.7423 187.679 67.7423 187.534V183.497C67.7423 183.352 67.8479 183.234 67.9775 183.234Z" fill="black"/>
<path opacity="0.2" d="M71.6961 183.234C71.8257 183.234 71.9313 183.352 71.9313 183.497V187.534C71.9313 187.679 71.8257 187.797 71.6961 187.797C71.5665 187.797 71.4609 187.679 71.4609 187.534V183.497C71.4609 183.352 71.5665 183.234 71.6961 183.234Z" fill="black"/>
<path opacity="0.2" d="M61.8719 183.234C62.0015 183.234 62.1071 183.352 62.1071 183.497V187.534C62.1071 187.679 62.0015 187.797 61.8719 187.797C61.7423 187.797 61.6367 187.679 61.6367 187.534V183.497C61.6367 183.352 61.7423 183.234 61.8719 183.234Z" fill="black"/>
<path opacity="0.2" d="M75.4305 187.797C75.3009 187.797 75.1953 187.679 75.1953 187.534V183.497C75.1953 183.352 75.3009 183.234 75.4305 183.234C75.5601 183.234 75.6657 183.352 75.6657 183.497V187.534C75.6657 187.679 75.5601 187.797 75.4305 187.797Z" fill="black"/>
<path d="M90.313 177.617H62.2378C61.88 177.617 61.5898 177.942 61.5898 178.342V182.11C61.5898 182.51 61.88 182.834 62.2378 182.834H90.313C90.6709 182.834 90.961 182.51 90.961 182.11V178.342C90.961 177.942 90.6709 177.617 90.313 177.617Z" fill="#B5E1F1"/>
<path opacity="0.5" d="M90.3121 177.617H62.2417C61.8839 177.617 61.5938 177.942 61.5938 178.342V182.11C61.5938 182.51 61.8839 182.834 62.2417 182.834H90.3121C90.67 182.834 90.9601 182.51 90.9601 182.11V178.342C90.9601 177.942 90.67 177.617 90.3121 177.617Z" fill="white"/>
<path opacity="0.2" d="M87.0829 182.508C86.9533 182.508 86.8477 182.39 86.8477 182.245V178.208C86.8477 178.063 86.9533 177.945 87.0829 177.945C87.2125 177.945 87.3181 178.063 87.3181 178.208V182.245C87.3181 182.39 87.2125 182.508 87.0829 182.508Z" fill="black"/>
<path opacity="0.2" d="M83.7274 182.508C83.5978 182.508 83.4922 182.39 83.4922 182.245V178.208C83.4922 178.063 83.5978 177.945 83.7274 177.945C83.857 177.945 83.9626 178.063 83.9626 178.208V182.245C83.9626 182.39 83.857 182.508 83.7274 182.508Z" fill="black"/>
<path opacity="0.2" d="M80.0086 182.508C79.879 182.508 79.7734 182.39 79.7734 182.245V178.208C79.7734 178.063 79.879 177.945 80.0086 177.945C80.1382 177.945 80.2438 178.063 80.2438 178.208V182.245C80.2438 182.39 80.1382 182.508 80.0086 182.508Z" fill="black"/>
<path opacity="0.2" d="M89.8329 182.508C89.7033 182.508 89.5977 182.39 89.5977 182.245V178.208C89.5977 178.063 89.7033 177.945 89.8329 177.945C89.9625 177.945 90.0681 178.063 90.0681 178.208V182.245C90.0681 182.39 89.9625 182.508 89.8329 182.508Z" fill="black"/>
<path opacity="0.2" d="M65.4735 177.945C65.6031 177.945 65.7087 178.063 65.7087 178.208V182.245C65.7087 182.39 65.6031 182.508 65.4735 182.508C65.3439 182.508 65.2383 182.39 65.2383 182.245V178.208C65.2383 178.063 65.3439 177.945 65.4735 177.945Z" fill="black"/>
<path opacity="0.2" d="M68.8252 177.945C68.9548 177.945 69.0604 178.063 69.0604 178.208V182.245C69.0604 182.39 68.9548 182.508 68.8252 182.508C68.6956 182.508 68.59 182.39 68.59 182.245V178.208C68.59 178.063 68.6956 177.945 68.8252 177.945Z" fill="black"/>
<path opacity="0.2" d="M72.5438 177.945C72.6734 177.945 72.779 178.063 72.779 178.208V182.245C72.779 182.39 72.6734 182.508 72.5438 182.508C72.4142 182.508 72.3086 182.39 72.3086 182.245V178.208C72.3086 178.063 72.4142 177.945 72.5438 177.945Z" fill="black"/>
<path opacity="0.2" d="M62.7196 177.945C62.8492 177.945 62.9548 178.063 62.9548 178.208V182.245C62.9548 182.39 62.8492 182.508 62.7196 182.508C62.59 182.508 62.4844 182.39 62.4844 182.245V178.208C62.4844 178.063 62.59 177.945 62.7196 177.945Z" fill="black"/>
<path opacity="0.2" d="M76.2782 182.508C76.1486 182.508 76.043 182.39 76.043 182.245V178.208C76.043 178.063 76.1486 177.945 76.2782 177.945C76.4078 177.945 76.5134 178.063 76.5134 178.208V182.245C76.5134 182.39 76.4078 182.508 76.2782 182.508Z" fill="black"/>
<path d="M86.8365 172.32H58.7613C58.4034 172.32 58.1133 172.645 58.1133 173.045V176.813C58.1133 177.213 58.4034 177.538 58.7613 177.538H86.8365C87.1944 177.538 87.4845 177.213 87.4845 176.813V173.045C87.4845 172.645 87.1944 172.32 86.8365 172.32Z" fill="#B5E1F1"/>
<path opacity="0.5" d="M86.8365 172.32H58.7613C58.4034 172.32 58.1133 172.645 58.1133 173.045V176.818C58.1133 177.219 58.4034 177.543 58.7613 177.543H86.8365C87.1944 177.543 87.4845 177.219 87.4845 176.818V173.045C87.4845 172.645 87.1944 172.32 86.8365 172.32Z" fill="white"/>
<path opacity="0.2" d="M83.5985 177.211C83.4689 177.211 83.3633 177.093 83.3633 176.948V172.911C83.3633 172.767 83.4689 172.648 83.5985 172.648C83.7281 172.648 83.8337 172.767 83.8337 172.911V176.948C83.8337 177.093 83.7281 177.211 83.5985 177.211Z" fill="black"/>
<path opacity="0.2" d="M80.243 177.211C80.1134 177.211 80.0078 177.093 80.0078 176.948V172.911C80.0078 172.767 80.1134 172.648 80.243 172.648C80.3726 172.648 80.4782 172.767 80.4782 172.911V176.948C80.4782 177.093 80.3726 177.211 80.243 177.211Z" fill="black"/>
<path opacity="0.2" d="M76.5282 177.211C76.3986 177.211 76.293 177.093 76.293 176.948V172.911C76.293 172.767 76.3986 172.648 76.5282 172.648C76.6578 172.648 76.7634 172.767 76.7634 172.911V176.948C76.7634 177.093 76.6578 177.211 76.5282 177.211Z" fill="black"/>
<path opacity="0.2" d="M86.3563 177.211C86.2267 177.211 86.1211 177.093 86.1211 176.948V172.911C86.1211 172.767 86.2267 172.648 86.3563 172.648C86.4859 172.648 86.5915 172.767 86.5915 172.911V176.948C86.5915 177.093 86.4859 177.211 86.3563 177.211Z" fill="black"/>
<path opacity="0.2" d="M61.9891 172.648C62.1187 172.648 62.2243 172.767 62.2243 172.911V176.948C62.2243 177.093 62.1187 177.211 61.9891 177.211C61.8595 177.211 61.7539 177.093 61.7539 176.948V172.911C61.7539 172.767 61.8595 172.648 61.9891 172.648Z" fill="black"/>
<path opacity="0.2" d="M65.3446 172.648C65.4742 172.648 65.5798 172.767 65.5798 172.911V176.948C65.5798 177.093 65.4742 177.211 65.3446 177.211C65.215 177.211 65.1094 177.093 65.1094 176.948V172.911C65.1094 172.767 65.215 172.648 65.3446 172.648Z" fill="black"/>
<path opacity="0.2" d="M69.0672 172.648C69.1968 172.648 69.3024 172.767 69.3024 172.911V176.948C69.3024 177.093 69.1968 177.211 69.0672 177.211C68.9376 177.211 68.832 177.093 68.832 176.948V172.911C68.832 172.767 68.9376 172.648 69.0672 172.648Z" fill="black"/>
<path opacity="0.2" d="M59.2352 172.648C59.3648 172.648 59.4704 172.767 59.4704 172.911V176.948C59.4704 177.093 59.3648 177.211 59.2352 177.211C59.1056 177.211 59 177.093 59 176.948V172.911C59 172.767 59.1056 172.648 59.2352 172.648Z" fill="black"/>
<path opacity="0.2" d="M72.7977 177.211C72.6681 177.211 72.5625 177.093 72.5625 176.948V172.911C72.5625 172.767 72.6681 172.648 72.7977 172.648C72.9273 172.648 73.0329 172.767 73.0329 172.911V176.948C73.0329 177.093 72.9273 177.211 72.7977 177.211Z" fill="black"/>
<path d="M88.1607 167.031H60.0855C59.7276 167.031 59.4375 167.356 59.4375 167.756V171.524C59.4375 171.924 59.7276 172.249 60.0855 172.249H88.1607C88.5186 172.249 88.8087 171.924 88.8087 171.524V167.756C88.8087 167.356 88.5186 167.031 88.1607 167.031Z" fill="#B5E1F1"/>
<path opacity="0.5" d="M88.8048 167.764V171.532C88.8048 171.929 88.512 172.256 88.1568 172.256H60.0816C59.7264 172.256 59.4336 171.929 59.4336 171.532V167.764C59.4336 167.361 59.7264 167.039 60.0816 167.039H88.1568C88.512 167.039 88.8048 167.361 88.8048 167.764Z" fill="white"/>
<path opacity="0.2" d="M84.9266 171.93C84.797 171.93 84.6914 171.812 84.6914 171.667V167.63C84.6914 167.485 84.797 167.367 84.9266 167.367C85.0562 167.367 85.1618 167.485 85.1618 167.63V171.667C85.1618 171.812 85.0562 171.93 84.9266 171.93Z" fill="black"/>
<path opacity="0.2" d="M81.5711 171.93C81.4415 171.93 81.3359 171.812 81.3359 171.667V167.63C81.3359 167.485 81.4415 167.367 81.5711 167.367C81.7007 167.367 81.8063 167.485 81.8063 167.63V171.667C81.8063 171.812 81.7007 171.93 81.5711 171.93Z" fill="black"/>
<path opacity="0.2" d="M77.8563 171.93C77.7267 171.93 77.6211 171.812 77.6211 171.667V167.63C77.6211 167.485 77.7267 167.367 77.8563 167.367C77.9859 167.367 78.0915 167.485 78.0915 167.63V171.667C78.0915 171.812 77.9859 171.93 77.8563 171.93Z" fill="black"/>
<path opacity="0.2" d="M87.6844 171.93C87.5548 171.93 87.4492 171.812 87.4492 171.667V167.63C87.4492 167.485 87.5548 167.367 87.6844 167.367C87.814 167.367 87.9196 167.485 87.9196 167.63V171.667C87.9196 171.812 87.814 171.93 87.6844 171.93Z" fill="black"/>
<path opacity="0.2" d="M63.3172 167.359C63.4468 167.359 63.5524 167.477 63.5524 167.622V171.659C63.5524 171.804 63.4468 171.922 63.3172 171.922C63.1876 171.922 63.082 171.804 63.082 171.659V167.622C63.082 167.477 63.1876 167.359 63.3172 167.359Z" fill="black"/>
<path opacity="0.2" d="M66.6727 167.359C66.8023 167.359 66.9079 167.477 66.9079 167.622V171.659C66.9079 171.804 66.8023 171.922 66.6727 171.922C66.5431 171.922 66.4375 171.804 66.4375 171.659V167.622C66.4375 167.477 66.5431 167.359 66.6727 167.359Z" fill="black"/>
<path opacity="0.2" d="M70.3954 167.359C70.525 167.359 70.6306 167.477 70.6306 167.622V171.659C70.6306 171.804 70.525 171.922 70.3954 171.922C70.2658 171.922 70.1602 171.804 70.1602 171.659V167.622C70.1602 167.477 70.2658 167.359 70.3954 167.359Z" fill="black"/>
<path opacity="0.2" d="M60.5633 167.359C60.6929 167.359 60.7985 167.477 60.7985 167.622V171.659C60.7985 171.804 60.6929 171.922 60.5633 171.922C60.4337 171.922 60.3281 171.804 60.3281 171.659V167.622C60.3281 167.477 60.4337 167.359 60.5633 167.359Z" fill="black"/>
<path opacity="0.2" d="M74.1219 171.93C73.9923 171.93 73.8867 171.812 73.8867 171.667V167.63C73.8867 167.485 73.9923 167.367 74.1219 167.367C74.2515 167.367 74.3571 167.485 74.3571 167.63V171.667C74.3571 171.812 74.2515 171.93 74.1219 171.93Z" fill="black"/>
<path opacity="0.2" d="M59.4375 171.532V167.764C59.4375 167.361 59.7303 167.039 60.0855 167.039H72.5463L74.7351 172.256H60.0855C59.7303 172.256 59.4375 171.929 59.4375 171.532Z" fill="black"/>
<path opacity="0.2" d="M76.9533 177.543H58.7613C58.4061 177.543 58.1133 177.216 58.1133 176.818V173.045C58.1133 172.648 58.4061 172.32 58.7613 172.32H74.7645L76.9533 177.543Z" fill="black"/>
<path opacity="0.2" d="M62.2417 177.617H76.9825L79.1713 182.834H62.2417C61.8817 182.834 61.5938 182.512 61.5938 182.11V178.342C61.5938 177.945 61.8817 177.617 62.2417 177.617Z" fill="black"/>
<path opacity="0.2" d="M61.3902 182.906H79.1934L81.3822 188.124H61.3902C61.0302 188.124 60.7422 187.801 60.7422 187.399V183.631C60.7422 183.228 61.0302 182.906 61.3902 182.906Z" fill="black"/>
<path opacity="0.2" d="M83.6008 193.42H60.5464C60.1864 193.42 59.8984 193.098 59.8984 192.696V188.928C59.8984 188.525 60.1864 188.203 60.5464 188.203H81.412L83.6008 193.42Z" fill="black"/>
<path d="M69.4146 188.195H41.3394C40.9815 188.195 40.6914 188.52 40.6914 188.92V192.688C40.6914 193.088 40.9815 193.413 41.3394 193.413H69.4146C69.7725 193.413 70.0626 193.088 70.0626 192.688V188.92C70.0626 188.52 69.7725 188.195 69.4146 188.195Z" fill="#B5E1F1"/>
<path opacity="0.5" d="M69.4146 188.195H41.3394C40.9815 188.195 40.6914 188.52 40.6914 188.92V192.688C40.6914 193.088 40.9815 193.413 41.3394 193.413H69.4146C69.7725 193.413 70.0626 193.088 70.0626 192.688V188.92C70.0626 188.52 69.7725 188.195 69.4146 188.195Z" fill="white"/>
<path opacity="0.2" d="M66.1766 193.086C66.047 193.086 65.9414 192.968 65.9414 192.823V188.786C65.9414 188.642 66.047 188.523 66.1766 188.523C66.3062 188.523 66.4118 188.642 66.4118 188.786V192.823C66.4118 192.968 66.3062 193.086 66.1766 193.086Z" fill="black"/>
<path opacity="0.2" d="M62.8211 193.086C62.6915 193.086 62.5859 192.968 62.5859 192.823V188.786C62.5859 188.642 62.6915 188.523 62.8211 188.523C62.9507 188.523 63.0563 188.642 63.0563 188.786V192.823C63.0563 192.968 62.9507 193.086 62.8211 193.086Z" fill="black"/>
<path opacity="0.2" d="M59.1063 193.086C58.9767 193.086 58.8711 192.968 58.8711 192.823V188.786C58.8711 188.642 58.9767 188.523 59.1063 188.523C59.2359 188.523 59.3415 188.642 59.3415 188.786V192.823C59.3415 192.968 59.2359 193.086 59.1063 193.086Z" fill="black"/>
<path opacity="0.2" d="M68.9344 193.086C68.8048 193.086 68.6992 192.968 68.6992 192.823V188.786C68.6992 188.642 68.8048 188.523 68.9344 188.523C69.064 188.523 69.1696 188.642 69.1696 188.786V192.823C69.1696 192.968 69.064 193.086 68.9344 193.086Z" fill="black"/>
<path opacity="0.2" d="M44.5672 188.516C44.6968 188.516 44.8024 188.634 44.8024 188.779V192.815C44.8024 192.96 44.6968 193.078 44.5672 193.078C44.4376 193.078 44.332 192.96 44.332 192.815V188.779C44.332 188.634 44.4376 188.516 44.5672 188.516Z" fill="black"/>
<path opacity="0.2" d="M47.9227 188.516C48.0523 188.516 48.1579 188.634 48.1579 188.779V192.815C48.1579 192.96 48.0523 193.078 47.9227 193.078C47.7931 193.078 47.6875 192.96 47.6875 192.815V188.779C47.6875 188.634 47.7931 188.516 47.9227 188.516Z" fill="black"/>
<path opacity="0.2" d="M51.6454 188.516C51.775 188.516 51.8806 188.634 51.8806 188.779V192.815C51.8806 192.96 51.775 193.078 51.6454 193.078C51.5158 193.078 51.4102 192.96 51.4102 192.815V188.779C51.4102 188.634 51.5158 188.516 51.6454 188.516Z" fill="black"/>
<path opacity="0.2" d="M41.8133 188.516C41.9429 188.516 42.0485 188.634 42.0485 188.779V192.815C42.0485 192.96 41.9429 193.078 41.8133 193.078C41.6837 193.078 41.5781 192.96 41.5781 192.815V188.779C41.5781 188.634 41.6837 188.516 41.8133 188.516Z" fill="black"/>
<path opacity="0.2" d="M55.3758 193.086C55.2462 193.086 55.1406 192.968 55.1406 192.823V188.786C55.1406 188.642 55.2462 188.523 55.3758 188.523C55.5054 188.523 55.611 188.642 55.611 188.786V192.823C55.611 192.968 55.5054 193.086 55.3758 193.086Z" fill="black"/>
<path d="M70.2584 182.906H42.1832C41.8253 182.906 41.5352 183.231 41.5352 183.631V187.399C41.5352 187.799 41.8253 188.124 42.1832 188.124H70.2584C70.6162 188.124 70.9064 187.799 70.9064 187.399V183.631C70.9064 183.231 70.6162 182.906 70.2584 182.906Z" fill="#B5E1F1"/>
<path opacity="0.5" d="M70.2584 182.906H42.1832C41.8253 182.906 41.5352 183.231 41.5352 183.631V187.399C41.5352 187.799 41.8253 188.124 42.1832 188.124H70.2584C70.6162 188.124 70.9064 187.799 70.9064 187.399V183.631C70.9064 183.231 70.6162 182.906 70.2584 182.906Z" fill="white"/>
<path opacity="0.2" d="M67.0204 187.797C66.8908 187.797 66.7852 187.679 66.7852 187.534V183.497C66.7852 183.352 66.8908 183.234 67.0204 183.234C67.15 183.234 67.2556 183.352 67.2556 183.497V187.534C67.2556 187.679 67.15 187.797 67.0204 187.797Z" fill="black"/>
<path opacity="0.2" d="M63.6649 187.797C63.5353 187.797 63.4297 187.679 63.4297 187.534V183.497C63.4297 183.352 63.5353 183.234 63.6649 183.234C63.7945 183.234 63.9001 183.352 63.9001 183.497V187.534C63.9001 187.679 63.7945 187.797 63.6649 187.797Z" fill="black"/>
<path opacity="0.2" d="M59.95 187.797C59.8204 187.797 59.7148 187.679 59.7148 187.534V183.497C59.7148 183.352 59.8204 183.234 59.95 183.234C60.0796 183.234 60.1852 183.352 60.1852 183.497V187.534C60.1852 187.679 60.0796 187.797 59.95 187.797Z" fill="black"/>
<path opacity="0.2" d="M69.7782 187.797C69.6486 187.797 69.543 187.679 69.543 187.534V183.497C69.543 183.352 69.6486 183.234 69.7782 183.234C69.9078 183.234 70.0134 183.352 70.0134 183.497V187.534C70.0134 187.679 69.9078 187.797 69.7782 187.797Z" fill="black"/>
<path opacity="0.2" d="M45.411 183.234C45.5406 183.234 45.6462 183.352 45.6462 183.497V187.534C45.6462 187.679 45.5406 187.797 45.411 187.797C45.2814 187.797 45.1758 187.679 45.1758 187.534V183.497C45.1758 183.352 45.2814 183.234 45.411 183.234Z" fill="black"/>
<path opacity="0.2" d="M48.7664 183.234C48.896 183.234 49.0016 183.352 49.0016 183.497V187.534C49.0016 187.679 48.896 187.797 48.7664 187.797C48.6368 187.797 48.5312 187.679 48.5312 187.534V183.497C48.5312 183.352 48.6368 183.234 48.7664 183.234Z" fill="black"/>
<path opacity="0.2" d="M52.4891 183.234C52.6187 183.234 52.7243 183.352 52.7243 183.497V187.534C52.7243 187.679 52.6187 187.797 52.4891 187.797C52.3595 187.797 52.2539 187.679 52.2539 187.534V183.497C52.2539 183.352 52.3595 183.234 52.4891 183.234Z" fill="black"/>
<path opacity="0.2" d="M42.6571 183.234C42.7867 183.234 42.8923 183.352 42.8923 183.497V187.534C42.8923 187.679 42.7867 187.797 42.6571 187.797C42.5275 187.797 42.4219 187.679 42.4219 187.534V183.497C42.4219 183.352 42.5275 183.234 42.6571 183.234Z" fill="black"/>
<path opacity="0.2" d="M56.2196 187.797C56.09 187.797 55.9844 187.679 55.9844 187.534V183.497C55.9844 183.352 56.09 183.234 56.2196 183.234C56.3492 183.234 56.4548 183.352 56.4548 183.497V187.534C56.4548 187.679 56.3492 187.797 56.2196 187.797Z" fill="black"/>
<path d="M68.6959 177.609H40.6207C40.2628 177.609 39.9727 177.934 39.9727 178.334V182.102C39.9727 182.502 40.2628 182.827 40.6207 182.827H68.6959C69.0537 182.827 69.3439 182.502 69.3439 182.102V178.334C69.3439 177.934 69.0537 177.609 68.6959 177.609Z" fill="#B5E1F1"/>
<path opacity="0.5" d="M68.6959 177.609H40.6207C40.2628 177.609 39.9727 177.934 39.9727 178.334V182.102C39.9727 182.502 40.2628 182.827 40.6207 182.827H68.6959C69.0537 182.827 69.3439 182.502 69.3439 182.102V178.334C69.3439 177.934 69.0537 177.609 68.6959 177.609Z" fill="white"/>
<path opacity="0.2" d="M65.4657 182.5C65.3361 182.5 65.2305 182.382 65.2305 182.237V178.201C65.2305 178.056 65.3361 177.938 65.4657 177.938C65.5953 177.938 65.7009 178.056 65.7009 178.201V182.237C65.7009 182.382 65.5953 182.5 65.4657 182.5Z" fill="black"/>
<path opacity="0.2" d="M62.1102 182.5C61.9806 182.5 61.875 182.382 61.875 182.237V178.201C61.875 178.056 61.9806 177.938 62.1102 177.938C62.2398 177.938 62.3454 178.056 62.3454 178.201V182.237C62.3454 182.382 62.2398 182.5 62.1102 182.5Z" fill="black"/>
<path opacity="0.2" d="M58.3914 182.5C58.2618 182.5 58.1562 182.382 58.1562 182.237V178.201C58.1562 178.056 58.2618 177.938 58.3914 177.938C58.521 177.938 58.6266 178.056 58.6266 178.201V182.237C58.6266 182.382 58.521 182.5 58.3914 182.5Z" fill="black"/>
<path opacity="0.2" d="M68.2235 182.5C68.0939 182.5 67.9883 182.382 67.9883 182.237V178.201C67.9883 178.056 68.0939 177.938 68.2235 177.938C68.3531 177.938 68.4587 178.056 68.4587 178.201V182.237C68.4587 182.382 68.3531 182.5 68.2235 182.5Z" fill="black"/>
<path opacity="0.2" d="M43.8563 177.938C43.9859 177.938 44.0915 178.056 44.0915 178.201V182.237C44.0915 182.382 43.9859 182.5 43.8563 182.5C43.7267 182.5 43.6211 182.382 43.6211 182.237V178.201C43.6211 178.056 43.7267 177.938 43.8563 177.938Z" fill="black"/>
<path opacity="0.2" d="M47.2118 177.938C47.3414 177.938 47.447 178.056 47.447 178.201V182.237C47.447 182.382 47.3414 182.5 47.2118 182.5C47.0822 182.5 46.9766 182.382 46.9766 182.237V178.201C46.9766 178.056 47.0822 177.938 47.2118 177.938Z" fill="black"/>
<path opacity="0.2" d="M50.9266 177.938C51.0562 177.938 51.1618 178.056 51.1618 178.201V182.237C51.1618 182.382 51.0562 182.5 50.9266 182.5C50.797 182.5 50.6914 182.382 50.6914 182.237V178.201C50.6914 178.056 50.797 177.938 50.9266 177.938Z" fill="black"/>
<path opacity="0.2" d="M41.1024 177.938C41.232 177.938 41.3376 178.056 41.3376 178.201V182.237C41.3376 182.382 41.232 182.5 41.1024 182.5C40.9728 182.5 40.8672 182.382 40.8672 182.237V178.201C40.8672 178.056 40.9728 177.938 41.1024 177.938Z" fill="black"/>
<path opacity="0.2" d="M54.661 182.5C54.5314 182.5 54.4258 182.382 54.4258 182.237V178.201C54.4258 178.056 54.5314 177.938 54.661 177.938C54.7906 177.938 54.8962 178.056 54.8962 178.201V182.237C54.8962 182.382 54.7906 182.5 54.661 182.5Z" fill="black"/>
<path d="M68.5826 172.32H40.5074C40.1495 172.32 39.8594 172.645 39.8594 173.045V176.813C39.8594 177.213 40.1495 177.538 40.5074 177.538H68.5826C68.9405 177.538 69.2306 177.213 69.2306 176.813V173.045C69.2306 172.645 68.9405 172.32 68.5826 172.32Z" fill="#B5E1F1"/>
<path opacity="0.5" d="M68.5826 172.32H40.5074C40.1495 172.32 39.8594 172.645 39.8594 173.045V176.813C39.8594 177.213 40.1495 177.538 40.5074 177.538H68.5826C68.9405 177.538 69.2306 177.213 69.2306 176.813V173.045C69.2306 172.645 68.9405 172.32 68.5826 172.32Z" fill="white"/>
<path opacity="0.2" d="M65.3524 177.211C65.2228 177.211 65.1172 177.093 65.1172 176.948V172.912C65.1172 172.767 65.2228 172.649 65.3524 172.649C65.482 172.649 65.5876 172.767 65.5876 172.912V176.948C65.5876 177.093 65.482 177.211 65.3524 177.211Z" fill="black"/>
<path opacity="0.2" d="M61.9969 177.211C61.8673 177.211 61.7617 177.093 61.7617 176.948V172.912C61.7617 172.767 61.8673 172.649 61.9969 172.649C62.1265 172.649 62.2321 172.767 62.2321 172.912V176.948C62.2321 177.093 62.1265 177.211 61.9969 177.211Z" fill="black"/>
<path opacity="0.2" d="M58.2782 177.211C58.1486 177.211 58.043 177.093 58.043 176.948V172.912C58.043 172.767 58.1486 172.649 58.2782 172.649C58.4078 172.649 58.5134 172.767 58.5134 172.912V176.948C58.5134 177.093 58.4078 177.211 58.2782 177.211Z" fill="black"/>
<path opacity="0.2" d="M68.1024 177.211C67.9728 177.211 67.8672 177.093 67.8672 176.948V172.912C67.8672 172.767 67.9728 172.649 68.1024 172.649C68.232 172.649 68.3376 172.767 68.3376 172.912V176.948C68.3376 177.093 68.232 177.211 68.1024 177.211Z" fill="black"/>
<path opacity="0.2" d="M43.743 172.649C43.8726 172.649 43.9782 172.767 43.9782 172.912V176.948C43.9782 177.093 43.8726 177.211 43.743 177.211C43.6134 177.211 43.5078 177.093 43.5078 176.948V172.912C43.5078 172.767 43.6134 172.649 43.743 172.649Z" fill="black"/>
<path opacity="0.2" d="M47.0947 172.649C47.2243 172.649 47.3299 172.767 47.3299 172.912V176.948C47.3299 177.093 47.2243 177.211 47.0947 177.211C46.9651 177.211 46.8595 177.093 46.8595 176.948V172.912C46.8595 172.767 46.9651 172.649 47.0947 172.649Z" fill="black"/>
<path opacity="0.2" d="M50.8133 172.649C50.9429 172.649 51.0485 172.767 51.0485 172.912V176.948C51.0485 177.093 50.9429 177.211 50.8133 177.211C50.6837 177.211 50.5781 177.093 50.5781 176.948V172.912C50.5781 172.767 50.6837 172.649 50.8133 172.649Z" fill="black"/>
<path opacity="0.2" d="M40.9891 172.649C41.1187 172.649 41.2243 172.767 41.2243 172.912V176.948C41.2243 177.093 41.1187 177.211 40.9891 177.211C40.8595 177.211 40.7539 177.093 40.7539 176.948V172.912C40.7539 172.767 40.8595 172.649 40.9891 172.649Z" fill="black"/>
<path opacity="0.2" d="M54.5477 177.211C54.4181 177.211 54.3125 177.093 54.3125 176.948V172.912C54.3125 172.767 54.4181 172.649 54.5477 172.649C54.6773 172.649 54.7829 172.767 54.7829 172.912V176.948C54.7829 177.093 54.6773 177.211 54.5477 177.211Z" fill="black"/>
<path d="M69.9068 167.031H41.8316C41.4737 167.031 41.1836 167.356 41.1836 167.756V171.524C41.1836 171.924 41.4737 172.249 41.8316 172.249H69.9068C70.2647 172.249 70.5548 171.924 70.5548 171.524V167.756C70.5548 167.356 70.2647 167.031 69.9068 167.031Z" fill="#B5E1F1"/>
<path opacity="0.5" d="M69.9068 167.031H41.8316C41.4737 167.031 41.1836 167.356 41.1836 167.756V171.524C41.1836 171.924 41.4737 172.249 41.8316 172.249H69.9068C70.2647 172.249 70.5548 171.924 70.5548 171.524V167.756C70.5548 167.356 70.2647 167.031 69.9068 167.031Z" fill="white"/>
<path opacity="0.2" d="M66.6766 171.93C66.547 171.93 66.4414 171.812 66.4414 171.667V167.63C66.4414 167.485 66.547 167.367 66.6766 167.367C66.8062 167.367 66.9118 167.485 66.9118 167.63V171.667C66.9118 171.812 66.8062 171.93 66.6766 171.93Z" fill="black"/>
<path opacity="0.2" d="M63.3211 171.93C63.1915 171.93 63.0859 171.812 63.0859 171.667V167.63C63.0859 167.485 63.1915 167.367 63.3211 167.367C63.4507 167.367 63.5563 167.485 63.5563 167.63V171.667C63.5563 171.812 63.4507 171.93 63.3211 171.93Z" fill="black"/>
<path opacity="0.2" d="M59.6024 171.93C59.4728 171.93 59.3672 171.812 59.3672 171.667V167.63C59.3672 167.485 59.4728 167.367 59.6024 167.367C59.732 167.367 59.8376 167.485 59.8376 167.63V171.667C59.8376 171.812 59.732 171.93 59.6024 171.93Z" fill="black"/>
<path opacity="0.2" d="M69.4266 171.93C69.297 171.93 69.1914 171.812 69.1914 171.667V167.63C69.1914 167.485 69.297 167.367 69.4266 167.367C69.5562 167.367 69.6618 167.485 69.6618 167.63V171.667C69.6618 171.812 69.5562 171.93 69.4266 171.93Z" fill="black"/>
<path opacity="0.2" d="M45.0672 167.359C45.1968 167.359 45.3024 167.477 45.3024 167.622V171.659C45.3024 171.804 45.1968 171.922 45.0672 171.922C44.9376 171.922 44.832 171.804 44.832 171.659V167.622C44.832 167.477 44.9376 167.359 45.0672 167.359Z" fill="black"/>
<path opacity="0.2" d="M48.4189 167.359C48.5485 167.359 48.6541 167.477 48.6541 167.622V171.659C48.6541 171.804 48.5485 171.922 48.4189 171.922C48.2893 171.922 48.1837 171.804 48.1837 171.659V167.622C48.1837 167.477 48.2893 167.359 48.4189 167.359Z" fill="black"/>
<path opacity="0.2" d="M52.1375 167.359C52.2671 167.359 52.3727 167.477 52.3727 167.622V171.659C52.3727 171.804 52.2671 171.922 52.1375 171.922C52.0079 171.922 51.9023 171.804 51.9023 171.659V167.622C51.9023 167.477 52.0079 167.359 52.1375 167.359Z" fill="black"/>
<path opacity="0.2" d="M42.3133 167.359C42.4429 167.359 42.5485 167.477 42.5485 167.622V171.659C42.5485 171.804 42.4429 171.922 42.3133 171.922C42.1837 171.922 42.0781 171.804 42.0781 171.659V167.622C42.0781 167.477 42.1837 167.359 42.3133 167.359Z" fill="black"/>
<path opacity="0.2" d="M55.8719 171.93C55.7423 171.93 55.6367 171.812 55.6367 171.667V167.63C55.6367 167.485 55.7423 167.367 55.8719 167.367C56.0015 167.367 56.1071 167.485 56.1071 167.63V171.667C56.1071 171.812 56.0015 171.93 55.8719 171.93Z" fill="black"/>
<path d="M68.8326 161.734H40.7574C40.3995 161.734 40.1094 162.059 40.1094 162.459V166.227C40.1094 166.627 40.3995 166.952 40.7574 166.952H68.8326C69.1905 166.952 69.4806 166.627 69.4806 166.227V162.459C69.4806 162.059 69.1905 161.734 68.8326 161.734Z" fill="#B5E1F1"/>
<path opacity="0.5" d="M68.8326 161.734H40.7574C40.3995 161.734 40.1094 162.059 40.1094 162.459V166.227C40.1094 166.627 40.3995 166.952 40.7574 166.952H68.8326C69.1905 166.952 69.4806 166.627 69.4806 166.227V162.459C69.4806 162.059 69.1905 161.734 68.8326 161.734Z" fill="white"/>
<path opacity="0.2" d="M65.6024 166.633C65.4728 166.633 65.3672 166.515 65.3672 166.37V162.333C65.3672 162.188 65.4728 162.07 65.6024 162.07C65.732 162.07 65.8376 162.188 65.8376 162.333V166.37C65.8376 166.515 65.732 166.633 65.6024 166.633Z" fill="black"/>
<path opacity="0.2" d="M62.2469 166.633C62.1173 166.633 62.0117 166.515 62.0117 166.37V162.333C62.0117 162.188 62.1173 162.07 62.2469 162.07C62.3765 162.07 62.4821 162.188 62.4821 162.333V166.37C62.4821 166.515 62.3765 166.633 62.2469 166.633Z" fill="black"/>
<path opacity="0.2" d="M58.5282 166.633C58.3986 166.633 58.293 166.515 58.293 166.37V162.333C58.293 162.188 58.3986 162.07 58.5282 162.07C58.6578 162.07 58.7634 162.188 58.7634 162.333V166.37C58.7634 166.515 58.6578 166.633 58.5282 166.633Z" fill="black"/>
<path opacity="0.2" d="M68.3524 166.633C68.2228 166.633 68.1172 166.515 68.1172 166.37V162.333C68.1172 162.188 68.2228 162.07 68.3524 162.07C68.482 162.07 68.5876 162.188 68.5876 162.333V166.37C68.5876 166.515 68.482 166.633 68.3524 166.633Z" fill="black"/>
<path opacity="0.2" d="M43.9891 162.062C44.1187 162.062 44.2243 162.181 44.2243 162.326V166.362C44.2243 166.507 44.1187 166.625 43.9891 166.625C43.8595 166.625 43.7539 166.507 43.7539 166.362V162.326C43.7539 162.181 43.8595 162.062 43.9891 162.062Z" fill="black"/>
<path opacity="0.2" d="M47.3447 162.062C47.4743 162.062 47.5799 162.181 47.5799 162.326V166.362C47.5799 166.507 47.4743 166.625 47.3447 166.625C47.2151 166.625 47.1095 166.507 47.1095 166.362V162.326C47.1095 162.181 47.2151 162.062 47.3447 162.062Z" fill="black"/>
<path opacity="0.2" d="M51.0633 162.062C51.1929 162.062 51.2985 162.181 51.2985 162.326V166.362C51.2985 166.507 51.1929 166.625 51.0633 166.625C50.9337 166.625 50.8281 166.507 50.8281 166.362V162.326C50.8281 162.181 50.9337 162.062 51.0633 162.062Z" fill="black"/>
<path opacity="0.2" d="M41.2391 162.062C41.3687 162.062 41.4743 162.181 41.4743 162.326V166.362C41.4743 166.507 41.3687 166.625 41.2391 166.625C41.1095 166.625 41.0039 166.507 41.0039 166.362V162.326C41.0039 162.181 41.1095 162.062 41.2391 162.062Z" fill="black"/>
<path opacity="0.2" d="M54.7938 166.633C54.6642 166.633 54.5586 166.515 54.5586 166.37V162.333C54.5586 162.188 54.6642 162.07 54.7938 162.07C54.9234 162.07 55.029 162.188 55.029 162.333V166.37C55.029 166.515 54.9234 166.633 54.7938 166.633Z" fill="black"/>
<path d="M70.1568 156.445H42.0816C41.7237 156.445 41.4336 156.77 41.4336 157.17V160.938C41.4336 161.338 41.7237 161.663 42.0816 161.663H70.1568C70.5147 161.663 70.8048 161.338 70.8048 160.938V157.17C70.8048 156.77 70.5147 156.445 70.1568 156.445Z" fill="#B5E1F1"/>
<path opacity="0.5" d="M70.1568 156.445H42.0816C41.7237 156.445 41.4336 156.77 41.4336 157.17V160.938C41.4336 161.338 41.7237 161.663 42.0816 161.663H70.1568C70.5147 161.663 70.8048 161.338 70.8048 160.938V157.17C70.8048 156.77 70.5147 156.445 70.1568 156.445Z" fill="white"/>
<path opacity="0.2" d="M66.9266 161.336C66.797 161.336 66.6914 161.218 66.6914 161.073V157.036C66.6914 156.892 66.797 156.773 66.9266 156.773C67.0562 156.773 67.1618 156.892 67.1618 157.036V161.073C67.1618 161.218 67.0562 161.336 66.9266 161.336Z" fill="black"/>
<path opacity="0.2" d="M63.5711 161.336C63.4415 161.336 63.3359 161.218 63.3359 161.073V157.036C63.3359 156.892 63.4415 156.773 63.5711 156.773C63.7007 156.773 63.8063 156.892 63.8063 157.036V161.073C63.8063 161.218 63.7007 161.336 63.5711 161.336Z" fill="black"/>
<path opacity="0.2" d="M59.8524 161.336C59.7228 161.336 59.6172 161.218 59.6172 161.073V157.036C59.6172 156.892 59.7228 156.773 59.8524 156.773C59.982 156.773 60.0876 156.892 60.0876 157.036V161.073C60.0876 161.218 59.982 161.336 59.8524 161.336Z" fill="black"/>
<path opacity="0.2" d="M69.6766 161.336C69.547 161.336 69.4414 161.218 69.4414 161.073V157.036C69.4414 156.892 69.547 156.773 69.6766 156.773C69.8062 156.773 69.9118 156.892 69.9118 157.036V161.073C69.9118 161.218 69.8062 161.336 69.6766 161.336Z" fill="black"/>
<path opacity="0.2" d="M45.3133 156.766C45.4429 156.766 45.5485 156.884 45.5485 157.029V161.065C45.5485 161.21 45.4429 161.328 45.3133 161.328C45.1837 161.328 45.0781 161.21 45.0781 161.065V157.029C45.0781 156.884 45.1837 156.766 45.3133 156.766Z" fill="black"/>
<path opacity="0.2" d="M48.6689 156.766C48.7985 156.766 48.9041 156.884 48.9041 157.029V161.065C48.9041 161.21 48.7985 161.328 48.6689 161.328C48.5393 161.328 48.4337 161.21 48.4337 161.065V157.029C48.4337 156.884 48.5393 156.766 48.6689 156.766Z" fill="black"/>
<path opacity="0.2" d="M52.3875 156.766C52.5171 156.766 52.6227 156.884 52.6227 157.029V161.065C52.6227 161.21 52.5171 161.328 52.3875 161.328C52.2579 161.328 52.1523 161.21 52.1523 161.065V157.029C52.1523 156.884 52.2579 156.766 52.3875 156.766Z" fill="black"/>
<path opacity="0.2" d="M42.5633 156.766C42.6929 156.766 42.7985 156.884 42.7985 157.029V161.065C42.7985 161.21 42.6929 161.328 42.5633 161.328C42.4337 161.328 42.3281 161.21 42.3281 161.065V157.029C42.3281 156.884 42.4337 156.766 42.5633 156.766Z" fill="black"/>
<path opacity="0.2" d="M56.118 161.336C55.9884 161.336 55.8828 161.218 55.8828 161.073V157.036C55.8828 156.892 55.9884 156.773 56.118 156.773C56.2476 156.773 56.3532 156.892 56.3532 157.036V161.073C56.3532 161.218 56.2476 161.336 56.118 161.336Z" fill="black"/>
<path d="M70.0435 151.156H41.9683C41.6104 151.156 41.3203 151.481 41.3203 151.881V155.649C41.3203 156.049 41.6104 156.374 41.9683 156.374H70.0435C70.4014 156.374 70.6915 156.049 70.6915 155.649V151.881C70.6915 151.481 70.4014 151.156 70.0435 151.156Z" fill="#B5E1F1"/>
<path opacity="0.5" d="M70.0435 151.156H41.9683C41.6104 151.156 41.3203 151.481 41.3203 151.881V155.649C41.3203 156.049 41.6104 156.374 41.9683 156.374H70.0435C70.4014 156.374 70.6915 156.049 70.6915 155.649V151.881C70.6915 151.481 70.4014 151.156 70.0435 151.156Z" fill="white"/>
<path opacity="0.2" d="M66.8094 156.047C66.6798 156.047 66.5742 155.929 66.5742 155.784V151.747C66.5742 151.602 66.6798 151.484 66.8094 151.484C66.939 151.484 67.0446 151.602 67.0446 151.747V155.784C67.0446 155.929 66.939 156.047 66.8094 156.047Z" fill="black"/>
<path opacity="0.2" d="M63.4579 156.047C63.3283 156.047 63.2227 155.929 63.2227 155.784V151.747C63.2227 151.602 63.3283 151.484 63.4579 151.484C63.5875 151.484 63.6931 151.602 63.6931 151.747V155.784C63.6931 155.929 63.5875 156.047 63.4579 156.047Z" fill="black"/>
<path opacity="0.2" d="M59.7391 156.047C59.6095 156.047 59.5039 155.929 59.5039 155.784V151.747C59.5039 151.602 59.6095 151.484 59.7391 151.484C59.8687 151.484 59.9743 151.602 59.9743 151.747V155.784C59.9743 155.929 59.8687 156.047 59.7391 156.047Z" fill="black"/>
<path opacity="0.2" d="M69.5633 156.047C69.4337 156.047 69.3281 155.929 69.3281 155.784V151.747C69.3281 151.602 69.4337 151.484 69.5633 151.484C69.6929 151.484 69.7985 151.602 69.7985 151.747V155.784C69.7985 155.929 69.6929 156.047 69.5633 156.047Z" fill="black"/>
<path opacity="0.2" d="M45.2 151.484C45.3296 151.484 45.4352 151.602 45.4352 151.747V155.784C45.4352 155.929 45.3296 156.047 45.2 156.047C45.0704 156.047 44.9648 155.929 44.9648 155.784V151.747C44.9648 151.602 45.0704 151.484 45.2 151.484Z" fill="black"/>
<path opacity="0.2" d="M48.5556 151.484C48.6852 151.484 48.7908 151.602 48.7908 151.747V155.784C48.7908 155.929 48.6852 156.047 48.5556 156.047C48.426 156.047 48.3204 155.929 48.3204 155.784V151.747C48.3204 151.602 48.426 151.484 48.5556 151.484Z" fill="black"/>
<path opacity="0.2" d="M52.2743 151.484C52.4039 151.484 52.5095 151.602 52.5095 151.747V155.784C52.5095 155.929 52.4039 156.047 52.2743 156.047C52.1447 156.047 52.0391 155.929 52.0391 155.784V151.747C52.0391 151.602 52.1447 151.484 52.2743 151.484Z" fill="black"/>
<path opacity="0.2" d="M42.45 151.484C42.5796 151.484 42.6852 151.602 42.6852 151.747V155.784C42.6852 155.929 42.5796 156.047 42.45 156.047C42.3204 156.047 42.2148 155.929 42.2148 155.784V151.747C42.2148 151.602 42.3204 151.484 42.45 151.484Z" fill="black"/>
<path opacity="0.2" d="M56.0047 156.047C55.8751 156.047 55.7695 155.929 55.7695 155.784V151.747C55.7695 151.602 55.8751 151.484 56.0047 151.484C56.1343 151.484 56.2399 151.602 56.2399 151.747V155.784C56.2399 155.929 56.1343 156.047 56.0047 156.047Z" fill="black"/>
<path d="M67.3794 130.507C71.8588 122.948 70.01 112.759 63.2502 107.75C56.4903 102.741 47.379 104.808 42.8997 112.368C38.4203 119.927 40.269 130.115 47.0289 135.124C53.7888 140.133 62.9 138.066 67.3794 130.507Z" fill="#B5E1F1"/>
<path opacity="0.5" d="M67.9589 129.453C64.0901 137.193 55.4501 140.075 48.4517 136.055C48.2933 135.969 48.1348 135.873 47.9764 135.776C47.386 135.411 46.8293 135.003 46.3061 134.558C45.2645 133.683 44.3525 132.679 43.5845 131.568C40.0421 126.517 39.3461 119.389 42.3173 113.436C44.6021 108.863 48.5524 105.981 52.8484 105.219C54.1012 104.993 55.3876 104.956 56.6693 105.106C57.4996 105.197 58.33 105.38 59.1557 105.648C60.2309 105.986 61.2868 106.464 62.2996 107.103C69.3796 111.525 71.9189 121.525 67.9589 129.448V129.453Z" fill="white"/>
<path opacity="0.1" d="M51.7514 118.319C51.9482 119.392 52.8938 119.687 54.1226 119.805L53.4026 115.828C52.0298 116.397 51.5738 117.336 51.7514 118.319Z" fill="black"/>
<path opacity="0.1" d="M56.332 122.602L57.052 126.557C58.468 125.978 58.948 125.081 58.7752 124.121C58.5784 123.026 57.604 122.709 56.3368 122.602H56.332Z" fill="black"/>
<path opacity="0.1" d="M52.5079 106.947C45.3463 108.574 40.7191 116.378 42.1735 124.386C43.6279 132.395 50.6071 137.569 57.7687 135.943C64.9303 134.316 69.5575 126.512 68.1031 118.504C66.6487 110.495 59.6695 105.321 52.5079 106.947ZM58.4839 115.857C57.2983 115.407 56.1127 115.278 55.0279 115.385L55.8487 119.899C58.1767 120.001 60.7399 120.232 61.3015 123.34C61.7143 125.621 60.5719 127.929 57.4999 128.997L57.9559 131.498L56.3191 131.869L55.8679 129.389C53.8855 129.7 51.8551 129.416 50.6359 128.643L51.1255 126.179C52.2679 126.85 53.8855 127.161 55.4311 126.974L54.6199 122.502C52.2919 122.4 49.7671 122.137 49.2007 119.03C48.7879 116.748 49.9063 114.424 52.9639 113.383L52.5079 110.855L54.1447 110.485L54.5959 112.964C56.0935 112.717 57.6823 112.868 58.9015 113.41L58.4935 115.852L58.4839 115.857Z" fill="black"/>
<g opacity="0.1">
<path d="M52.8445 105.216L43.5805 131.56C40.0381 126.509 39.3421 119.381 42.3133 113.429C44.5981 108.855 48.5485 105.973 52.8445 105.211V105.216Z" fill="white"/>
<path d="M59.1534 105.644L48.4542 136.045C48.2958 135.96 48.1374 135.863 47.979 135.766C47.3886 135.401 46.8318 134.993 46.3086 134.548L56.6718 105.102C57.5022 105.193 58.3326 105.375 59.1582 105.644H59.1534Z" fill="white"/>
</g>
<path d="M77.884 97.7345C85.3847 94.2876 88.9664 84.694 85.884 76.3065C82.8017 67.919 74.2224 63.9137 66.7218 67.3605C59.2211 70.8074 55.6394 80.401 58.7217 88.7885C61.8041 97.176 70.3833 101.181 77.884 97.7345Z" fill="#B5E1F1"/>
<path opacity="0.5" d="M85.8583 88.867C82.8007 97.0471 74.5111 101.008 67.1479 97.9059C66.9799 97.8415 66.8167 97.7664 66.6487 97.6912C66.0247 97.4014 65.4295 97.0686 64.8631 96.6928C63.7399 95.9575 62.7319 95.0718 61.8535 94.0681C57.8215 89.5003 56.4055 82.5064 58.7527 76.2157C60.5575 71.3795 64.1911 68.0141 68.3815 66.7151C69.6055 66.334 70.8775 66.1301 72.1639 66.1193C72.9991 66.1032 73.8439 66.1784 74.6887 66.3394C75.7927 66.538 76.8871 66.8815 77.9623 67.3861C85.4455 70.8803 88.9831 80.4936 85.8583 88.867Z" fill="white"/>
<path opacity="0.1" d="M71.068 77.8222C70.6888 78.8313 71.3272 79.674 72.2872 80.5382L73.684 76.7916C72.2632 76.3998 71.4136 76.8936 71.068 77.8222Z" fill="black"/>
<path opacity="0.1" d="M72.7123 84.25L71.3203 87.9751C72.7795 88.383 73.6339 87.9429 73.9699 87.0357C74.3539 86.0052 73.7059 85.1356 72.7123 84.25Z" fill="black"/>
<path opacity="0.1" d="M77.398 68.8869C70.654 65.7415 62.9068 69.3002 60.094 76.8416C57.2812 84.383 60.4636 93.0462 67.2076 96.1916C73.9516 99.337 81.6988 95.7783 84.5116 88.2369C87.3244 80.6955 84.142 72.0323 77.398 68.8869ZM77.8732 80.0138C77.1196 78.8974 76.198 78.0439 75.2476 77.4535L73.6588 81.7046C75.5356 83.2504 77.5372 85.0486 76.4476 87.9739C75.646 90.1209 73.5436 91.3125 70.462 90.2712L69.5836 92.6275L68.038 91.9083L68.9116 89.5734C67.1164 88.5858 65.5756 87.0775 64.9516 85.6712L66.5932 83.9429C67.2028 85.215 68.3836 86.4871 69.7612 87.2976L71.3308 83.0894C69.454 81.5436 67.4956 79.7401 68.59 76.8148C69.3916 74.6677 71.4844 73.4439 74.5372 74.5014L75.4252 72.1235L76.9708 72.8428L76.0972 75.1777C77.4604 75.913 78.6988 77.0348 79.438 78.2479L77.8732 80.0138Z" fill="black"/>
<g opacity="0.1">
<path d="M68.3815 66.7188L61.8535 94.0717C57.8215 89.504 56.4055 82.5101 58.7527 76.2193C60.5575 71.3831 64.1911 68.0177 68.3815 66.7188Z" fill="white"/>
<path d="M74.6887 66.3394L67.1479 97.9059C66.9799 97.8415 66.8167 97.7664 66.6487 97.6912C66.0247 97.4014 65.4295 97.0686 64.8631 96.6928L72.1639 66.1193C72.9991 66.1032 73.8439 66.1784 74.6887 66.3394Z" fill="white"/>
</g>
<path d="M58.9453 51.7958L63.9085 58.1832L68.8717 51.7958H66.4141V44.9844H61.3981V51.7958H58.9453Z" fill="#B5E1F1"/>
<path d="M115.743 69.1191L117.279 69.2425L118.839 69.3499C119.871 69.4143 120.898 69.4787 121.882 69.4787C122.372 69.4841 122.847 69.4787 123.279 69.4358C123.49 69.4143 123.701 69.3928 123.869 69.3714C124.047 69.3499 124.186 69.3177 124.244 69.3123C124.248 69.3123 124.272 69.3123 124.263 69.3177C124.248 69.3284 124.234 69.3392 124.224 69.3606C124.224 69.3606 124.248 69.3553 124.282 69.3338C124.349 69.2855 124.455 69.1835 124.565 69.0493C124.791 68.7756 125.045 68.3891 125.285 67.9597C125.765 67.0955 126.207 66.0757 126.624 65.0344C127.037 63.9823 127.426 62.8927 127.8 61.787C128.54 59.5756 129.226 57.2675 129.888 55.0078L132.567 55.5714C132.384 58.0995 132.048 60.5418 131.578 63.0162C131.343 64.2507 131.064 65.4853 130.724 66.7252C130.383 67.9704 129.989 69.2103 129.423 70.4932C129.135 71.1319 128.818 71.7921 128.357 72.4684C128.127 72.8066 127.858 73.1555 127.512 73.5097C127.34 73.6869 127.143 73.8586 126.917 74.0304C126.788 74.1216 126.658 74.2129 126.524 74.2988C126.394 74.3793 126.293 74.4276 126.173 74.492C125.722 74.7174 125.338 74.857 124.983 74.959C124.618 75.0717 124.292 75.1415 123.96 75.2059C123.308 75.3293 122.698 75.4045 122.093 75.4582C119.688 75.646 117.476 75.5387 115.152 75.2327L115.738 69.1137L115.743 69.1191Z" fill="#FFBF9D"/>
<path d="M115.671 67.8828L122.905 68.6343L120.145 77.8289C120.145 77.8289 114.683 80.0242 112.657 76.9379C110.631 73.8515 110.343 67.9526 115.671 67.8828Z" fill="#B5E1F1"/>
<path opacity="0.7" d="M122.904 68.6289L120.144 77.8235C120.144 77.8235 119.717 77.9953 119.05 78.1778C117.96 78.473 116.237 78.7897 114.763 78.3978C113.933 78.1778 113.179 77.7323 112.661 76.9379C110.635 73.8515 110.347 67.9526 115.675 67.8828L122.909 68.6343L122.904 68.6289Z" fill="white"/>
<path opacity="0.2" d="M119.049 78.1829C117.959 78.4781 116.236 78.7948 114.762 78.4029C113.769 76.0573 114.82 72.2625 116.221 73.234C117.69 74.2592 118.597 76.637 119.058 78.1829H119.049Z" fill="black"/>
<path d="M129.816 55.1247L132.312 52.0706L133.853 56.3216C133.853 56.3216 131.482 58.8981 130.344 57.4757L129.816 55.1247Z" fill="#FFBF9D"/>
<path d="M135.831 50.9219L136.042 55.0817L133.853 56.3216L132.312 52.0705L135.831 50.9219Z" fill="#FFBF9D"/>
<path d="M114.271 190.452L117.857 189.754L117.444 180.312L113.863 181.01L114.271 190.452Z" fill="#FFBF9D"/>
<path d="M86.9258 190.172L90.497 190.881L92.9834 181.826L89.4122 181.117L86.9258 190.172Z" fill="#FFBF9D"/>
<path opacity="0.2" d="M117.449 180.312L117.66 185.181L114.079 185.879L113.863 181.01L117.449 180.312Z" fill="black"/>
<path opacity="0.2" d="M89.4105 181.117L92.9865 181.831L91.7049 186.495L88.1289 185.787L89.4105 181.117Z" fill="black"/>
<path d="M118.866 183.998L112.799 185.178C112.799 185.178 111.829 162.366 111.397 149.737C111.263 145.893 110.624 140.52 109.77 134.766C108.69 127.51 107.279 119.651 106.108 113.495C104.869 107.011 103.914 102.416 103.914 102.416L116.682 102.078C116.682 102.078 121.276 134.208 121.487 146.591C121.708 159.463 118.871 183.998 118.871 183.998H118.866Z" fill="#072B59"/>
<path opacity="0.2" d="M109.772 134.762C108.692 127.505 107.281 119.647 106.109 113.491L107.588 110.383C110.535 114.736 110.737 127.747 109.772 134.762Z" fill="black"/>
<path d="M109.79 102.258C109.79 102.258 106.502 137.201 104.774 148.95C102.878 161.816 93.5081 185.9 93.5081 185.9L86.9609 184.601C86.9609 184.601 93.1817 162.433 94.3337 149.535C95.6249 135.118 97.2521 102.591 97.2521 102.591L109.785 102.258H109.79Z" fill="#072B59"/>
<path d="M94.2674 186.218L86.5586 184.683L86.9906 182.117L95.1218 183.196L94.2674 186.218Z" fill="#B5E1F1"/>
<path d="M119.637 184.067L112.389 185.361L112.039 182.747L119.988 181.195L119.637 184.067Z" fill="#B5E1F1"/>
<path d="M118.209 188.892L114.24 188.773C114.091 188.773 113.957 188.881 113.923 189.042L113.088 192.617C113.001 192.987 113.246 193.347 113.587 193.352C115.022 193.368 117.091 193.336 118.896 193.39C121.003 193.454 122.337 193.336 124.809 193.411C126.302 193.454 126.773 191.79 126.149 191.618C123.326 190.84 121.483 190.996 119.078 189.235C118.819 189.042 118.526 188.902 118.214 188.892H118.209Z" fill="#263238"/>
<path d="M118.492 189.386C118.492 189.343 118.507 189.306 118.54 189.29C118.708 189.198 120.196 188.415 120.628 188.705C120.71 188.758 120.758 188.85 120.763 188.962C120.767 189.155 120.71 189.311 120.585 189.424C120.172 189.805 119.135 189.612 118.555 189.467H118.545C118.516 189.456 118.492 189.424 118.492 189.386ZM118.852 189.343C119.649 189.515 120.249 189.494 120.479 189.279C120.561 189.204 120.599 189.102 120.595 188.973C120.595 188.925 120.575 188.892 120.542 188.871C120.532 188.866 120.523 188.86 120.513 188.855C120.244 188.742 119.438 189.053 118.852 189.343Z" fill="#B5E1F1"/>
<path d="M118.527 189.447C118.503 189.426 118.488 189.394 118.493 189.362C118.498 189.313 118.632 188.229 119.108 187.821C119.252 187.698 119.415 187.644 119.592 187.671C119.828 187.703 119.89 187.843 119.904 187.95C119.957 188.412 119.06 189.26 118.613 189.464C118.594 189.474 118.57 189.474 118.551 189.464C118.541 189.464 118.536 189.458 118.527 189.453V189.447ZM119.568 187.859C119.439 187.837 119.324 187.875 119.213 187.971C118.901 188.24 118.752 188.889 118.695 189.206C119.151 188.921 119.765 188.251 119.736 187.971C119.736 187.955 119.732 187.912 119.66 187.88C119.636 187.869 119.607 187.864 119.573 187.859H119.568Z" fill="#B5E1F1"/>
<path d="M95.3242 68.3255C96.2362 72.8557 96.745 77.4504 97.0186 81.7659C97.2154 84.922 97.2874 87.9278 97.2922 90.6545C97.3018 97.0419 96.9562 101.894 97.0474 103.547C99.8938 103.456 110.622 103.118 116.468 102.93C120.159 79.9946 115.671 67.88 115.671 67.88C115.671 67.88 113.55 67.3057 111.068 67.0266C110.742 66.989 110.411 66.9622 110.07 66.9353C107.881 66.7851 104.291 66.9837 101.814 67.1984C101.291 67.2413 100.767 67.3057 100.254 67.3701C97.6426 67.7244 95.329 68.3255 95.329 68.3255H95.3242Z" fill="#B5E1F1"/>
<path opacity="0.7" d="M95.3242 68.3255C96.2362 72.8557 96.745 77.4504 97.0186 81.7659C97.2154 84.922 97.2874 87.9278 97.2922 90.6545C97.3018 97.0419 96.9562 101.894 97.0474 103.547C99.8938 103.456 110.622 103.118 116.468 102.93C120.159 79.9946 115.671 67.88 115.671 67.88C115.671 67.88 113.55 67.3057 111.068 67.0266C110.742 66.989 110.411 66.9622 110.07 66.9353C107.881 66.7851 104.291 66.9837 101.814 67.1984C101.291 67.2413 100.767 67.3057 100.254 67.3701C97.6426 67.7244 95.329 68.3255 95.329 68.3255H95.3242Z" fill="white"/>
<path d="M108.996 71.1719C109.505 72.7821 110.345 74.1079 110.993 78.3161C110.772 79.2017 110.513 80.0927 110.216 80.9891C109.75 80.1357 109.256 79.2769 108.732 78.4288C108.416 74.3709 108.756 73.2867 108.219 71.2309L108.996 71.1772V71.1719Z" fill="#263238"/>
<path d="M108.978 72.4772L109.612 70.4215L108.282 69.8203L107.312 70.5235L108.978 72.4772Z" fill="#263238"/>
<path d="M108.225 69.8215C105.24 69.9878 103.2 68.7211 101.812 67.1967C102.292 66.66 102.6 65.9031 102.787 65.0121C103.32 62.5001 102.878 58.9683 102.461 56.7891L107.606 61.4642C107.529 61.8453 107.462 62.2264 107.419 62.6021C107.193 64.5398 107.577 66.354 110.068 66.9337C110.596 67.9052 110.505 69.698 108.225 69.8215Z" fill="#FFBF9D"/>
<path d="M108.284 69.8222C108.284 69.8222 107.449 71.0889 106.469 72.3449C104.938 71.5129 101.348 69.2693 101.415 67.0579C101.588 66.403 102.341 65.9844 102.341 65.9844C102.341 65.9844 104.641 68.2548 108.289 69.8275L108.284 69.8222Z" fill="white"/>
<path d="M108.282 69.822C108.282 69.822 109.497 70.8472 110.313 72.1783C111.369 71.2873 110.615 67.2026 110.193 66.7678C109.295 66.1828 108.705 66.2794 108.705 66.2794C108.705 66.2794 109.986 69.2745 108.277 69.8273L108.282 69.822Z" fill="white"/>
<path opacity="0.2" d="M107.607 61.4642C107.531 61.8453 107.463 62.2264 107.42 62.6021C106.158 64.5183 104.195 65.098 102.783 65.0121C103.316 62.5001 102.875 58.9683 102.457 56.7891L107.603 61.4642H107.607Z" fill="black"/>
<path d="M98.7157 50.9971C98.1781 52.5215 98.2165 55.742 100.228 54.8564C102.239 53.9707 99.6373 48.3777 98.7157 50.9971Z" fill="#263238"/>
<path d="M108.627 53.8956C108.589 57.9159 108.747 60.2776 107.024 62.4193C104.432 65.6398 99.9106 64.0027 98.8738 60.0361C97.9378 56.4667 98.1586 50.4872 101.61 48.732C105.008 47.0037 108.671 49.87 108.627 53.8956Z" fill="#FFBF9D"/>
<path d="M103.22 55.2622C103.235 55.5896 103.091 55.8633 102.899 55.8687C102.707 55.8794 102.539 55.6218 102.524 55.2944C102.51 54.9669 102.654 54.6932 102.846 54.6878C103.038 54.6771 103.206 54.9347 103.22 55.2622Z" fill="#263238"/>
<path d="M99.9157 55.4182C99.9301 55.7456 99.7861 56.0193 99.5941 56.0247C99.4021 56.0354 99.2341 55.7778 99.2197 55.4504C99.2053 55.1229 99.3493 54.8492 99.5413 54.8438C99.7333 54.8385 99.9013 55.0907 99.9157 55.4182Z" fill="#263238"/>
<path d="M100.969 55.5312C100.969 55.5312 100.369 57.3777 99.668 58.2902C100.201 58.7786 101.07 58.4888 101.07 58.4888L100.969 55.5312Z" fill="#E4897B"/>
<path d="M102.697 59.6644C102.577 59.6859 102.452 59.702 102.318 59.7073C102.27 59.7073 102.231 59.6698 102.227 59.6161C102.227 59.5624 102.26 59.5195 102.308 59.5141C103.595 59.4551 104.147 58.4245 104.151 58.4138C104.175 58.3655 104.228 58.3547 104.267 58.3816C104.31 58.4084 104.319 58.4674 104.295 58.5158C104.271 58.5587 103.796 59.4443 102.692 59.659L102.697 59.6644Z" fill="#263238"/>
<path d="M104.187 54.0287C104.13 54.0394 104.067 54.018 104.024 53.9589C103.53 53.2987 102.901 53.3685 102.896 53.3685C102.8 53.3792 102.714 53.3041 102.704 53.1967C102.694 53.0894 102.762 52.9981 102.853 52.9874C102.886 52.9874 103.678 52.8961 104.288 53.7174C104.35 53.7979 104.341 53.9213 104.269 53.9858C104.245 54.0072 104.216 54.0233 104.192 54.0287H104.187Z" fill="#263238"/>
<path d="M98.4327 54.2079C98.3991 54.2133 98.3655 54.2079 98.3319 54.1972C98.2455 54.1543 98.2023 54.0415 98.2407 53.9449C98.6151 52.968 99.3927 52.8177 99.4263 52.807C99.5175 52.7909 99.6087 52.8607 99.6279 52.9627C99.6423 53.0646 99.5847 53.1666 99.4887 53.1827C99.4551 53.1827 98.8551 53.3115 98.5575 54.0952C98.5335 54.1543 98.4855 54.1972 98.4327 54.2079Z" fill="#263238"/>
<path d="M102.876 50.9181C102.876 50.9181 103.841 50.0862 104.316 50.9181C104.791 51.7501 104.844 54.0313 104.844 54.0313L105.031 53.6234C105.031 53.6234 106.476 58.642 108.281 57.284C110.086 55.926 112.63 50.6659 108.218 48.2236C108.218 48.2236 107.719 47.0159 104.844 46.5382C101.969 46.0551 98.5896 48.1753 98.0712 50.3062C97.5528 52.4425 98.4216 53.5804 98.4216 53.5804C98.5512 52.8075 98.9256 52.3083 98.9256 52.3083C99.0168 52.99 99.6696 53.2476 99.6696 53.2476C99.6264 52.4157 99.8616 51.9916 99.8616 51.9916C99.9288 52.4425 100.37 52.9846 100.37 52.9846C100.505 50.8054 101.81 50.3062 102.228 50.3062C102.742 50.3062 102.871 50.9235 102.871 50.9235L102.876 50.9181Z" fill="#263238"/>
<path d="M110.159 57.1635C109.919 58.2102 109.266 59.0368 108.57 59.4716C107.528 60.1264 106.712 59.1549 106.756 57.8881C106.794 56.7449 107.389 55.0272 108.551 54.8931C109.698 54.7589 110.428 55.9666 110.154 57.1635H110.159Z" fill="#FFBF9D"/>
<path d="M90.7289 188.892L86.7593 188.773C86.6105 188.773 86.4761 188.881 86.4425 189.042L85.6073 192.617C85.5209 192.987 85.7657 193.347 86.1065 193.352C87.5417 193.368 89.6105 193.336 91.4153 193.39C93.5225 193.454 94.8569 193.336 97.3289 193.411C98.8217 193.454 99.2921 191.79 98.6681 191.618C95.8457 190.84 94.0025 190.996 91.5977 189.235C91.3385 189.042 91.0457 188.902 90.7337 188.892H90.7289Z" fill="#263238"/>
<path d="M91.0117 189.386C91.0117 189.343 91.0261 189.306 91.0597 189.29C91.2277 189.198 92.7157 188.415 93.1477 188.705C93.2293 188.758 93.2773 188.85 93.2821 188.962C93.2869 189.155 93.2293 189.311 93.1045 189.424C92.6917 189.805 91.6549 189.612 91.0741 189.467H91.0645C91.0357 189.456 91.0117 189.424 91.0117 189.386ZM91.3669 189.343C92.1637 189.515 92.7637 189.494 92.9941 189.279C93.0757 189.204 93.1141 189.102 93.1093 188.973C93.1093 188.925 93.0901 188.892 93.0565 188.871C93.0469 188.866 93.0373 188.86 93.0277 188.855C92.7589 188.742 91.9525 189.053 91.3669 189.343Z" fill="#B5E1F1"/>
<path d="M91.0462 189.447C91.0222 189.426 91.0078 189.394 91.0126 189.362C91.0174 189.313 91.1518 188.229 91.627 187.821C91.771 187.698 91.9342 187.644 92.1118 187.671C92.347 187.703 92.4094 187.843 92.4238 187.95C92.4766 188.412 91.579 189.26 91.1326 189.464C91.1134 189.474 91.0894 189.474 91.0702 189.464C91.0606 189.464 91.0558 189.458 91.0462 189.453V189.447ZM92.0878 187.859C91.9582 187.837 91.843 187.875 91.7326 187.971C91.4206 188.24 91.2718 188.889 91.2142 189.206C91.6702 188.921 92.2846 188.251 92.2558 187.971C92.2558 187.955 92.251 187.912 92.179 187.88C92.155 187.869 92.1262 187.864 92.0926 187.859H92.0878Z" fill="#B5E1F1"/>
<path d="M118.377 90.4104C118.367 90.5929 118.362 90.7807 118.353 90.9686C118.3 92.1333 118.228 93.3464 118.122 94.6024C118.089 95.0318 118.05 95.4773 118.012 95.9175C117.94 96.685 117.858 97.4579 117.767 98.2523C117.647 99.3258 117.498 100.426 117.335 101.559C117.258 102.053 117.182 102.552 117.105 103.056C111.258 103.244 99.892 103.464 97.0504 103.55C97.0312 103.19 97.0312 102.675 97.0504 102.031C97.0696 101.162 97.108 100.05 97.1464 98.73C97.1752 98.0108 97.1992 97.2325 97.2232 96.4005C97.2328 95.9765 97.2424 95.5417 97.252 95.0909C97.276 93.9637 97.2952 92.7452 97.2952 91.457C97.2952 91.2745 97.2952 91.092 97.2952 90.9042V90.6573C97.2952 89.1436 97.2712 87.5387 97.2184 85.8748C97.18 84.5436 97.1176 83.1695 97.0264 81.7686C96.9496 80.4858 96.844 79.1868 96.7144 77.8718C96.4168 74.7425 95.9752 71.522 95.332 68.3337C95.332 68.3337 97.6456 67.7325 100.257 67.3836C104.361 71.8655 107.73 76.4011 110.226 80.9957C111.806 76.2669 112.319 71.624 111.518 67.0938C113.807 67.3836 115.679 67.8935 115.679 67.8935C115.679 67.8935 118.934 75.6603 118.386 90.4157L118.377 90.4104Z" fill="#B5E1F1"/>
<path opacity="0.4" d="M117.765 98.25C117.645 99.3235 117.497 100.424 117.333 101.556L97.0391 102.029C97.0583 101.159 97.0967 100.048 97.1351 98.7277L117.765 98.25Z" fill="white"/>
<path opacity="0.4" d="M118.128 94.5938C118.095 95.0232 118.056 95.4687 118.018 95.9088L97.2148 96.3919C97.2244 95.9678 97.234 95.5331 97.2436 95.0822L118.128 94.5938Z" fill="white"/>
<path opacity="0.4" d="M118.377 90.4141C118.368 90.5966 118.363 90.7844 118.353 90.9723L97.2812 91.4607C97.2812 91.2782 97.2812 91.0957 97.2812 90.9079L118.372 90.4141H118.377Z" fill="white"/>
<path opacity="0.2" d="M97.2071 85.8729C97.1687 84.5417 97.1063 83.1676 97.0151 81.7667C96.9383 80.4839 96.8327 79.1849 96.7031 77.8699C97.5047 77.0111 98.4023 76.4743 99.2855 76.5548C99.2855 76.5548 100.265 84.0265 97.2071 85.8783V85.8729Z" fill="black"/>
<path d="M98.0871 74.1106C97.1223 76.5797 96.1622 79.1776 95.3318 81.7218C94.9046 82.9939 94.5255 84.2767 94.1943 85.5327C93.8631 86.778 93.6087 88.0501 93.5127 89.0914C93.4887 89.3491 93.4838 89.5852 93.4838 89.7731C93.4838 89.8643 93.4886 89.9448 93.4934 90.0039V90.0737C93.4934 90.0737 93.4982 90.0951 93.4934 90.0898C93.4934 90.079 93.4838 90.0683 93.479 90.0576C93.431 89.9717 93.383 89.9395 93.3974 89.9824C93.4166 90.0254 93.4934 90.122 93.6278 90.224C93.8918 90.4333 94.3286 90.6534 94.8134 90.8305C95.2982 91.013 95.8406 91.1686 96.3974 91.2975C98.6487 91.802 101.169 92.0167 103.602 92.1616L103.885 95.1943C101.265 95.8277 98.6822 96.1819 95.8838 96.0424C95.183 95.9941 94.4678 95.9189 93.719 95.7633C92.975 95.5915 92.1927 95.3714 91.3431 94.8991C90.9207 94.6575 90.4694 94.357 90.0278 93.9061C89.591 93.4552 89.1543 92.8433 88.8759 92.0919L88.7799 91.8074L88.7127 91.5712C88.6695 91.4102 88.6359 91.2653 88.6071 91.1203C88.5495 90.8305 88.511 90.5567 88.4822 90.2937C88.4294 89.7731 88.415 89.3007 88.4246 88.8445C88.4582 87.0464 88.7463 85.5327 89.0487 84.0298C89.3607 82.5376 89.7542 81.1099 90.1622 79.7036C90.5894 78.3026 91.031 76.9232 91.5303 75.5706C92.0294 74.2072 92.519 72.8922 93.1094 71.5234L98.0966 74.116L98.0871 74.1106Z" fill="#FFBF9D"/>
<path d="M94.2704 68.7206C91.1216 70.3846 88.4336 81.592 88.4336 81.592L96.9584 84.4583C96.9584 84.4583 98.8016 79.606 99.6656 74.6679C100.606 69.2896 98.0816 66.7078 94.2704 68.7206Z" fill="#B5E1F1"/>
<path opacity="0.7" d="M94.2704 68.7206C91.1216 70.3846 88.4336 81.592 88.4336 81.592L96.9584 84.4583C96.9584 84.4583 98.8016 79.606 99.6656 74.6679C100.606 69.2896 98.0816 66.7078 94.2704 68.7206Z" fill="white"/>
<path d="M102.695 92.1151L105.691 89.7266L106.535 94.8472C106.535 94.8472 103.583 96.2428 102.758 94.5574L102.695 92.1098V92.1151Z" fill="#FFBF9D"/>
<path d="M108.71 89.8715L109.228 94.144L106.535 94.8472L105.695 89.7266L108.71 89.8715Z" fill="#FFBF9D"/>
<path d="M193.546 51.8047H134.305C132.521 51.8047 131.074 53.422 131.074 55.417V189.804C131.074 191.799 132.521 193.417 134.305 193.417H193.546C195.33 193.417 196.777 191.799 196.777 189.804V55.417C196.777 53.422 195.33 51.8047 193.546 51.8047Z" fill="#0F3971"/>
<path d="M195.451 55.8488V184.251C195.451 185.427 194.606 186.345 193.555 186.345H134.098C133.949 186.345 133.8 186.323 133.666 186.28C133.368 186.205 133.114 186.039 132.907 185.808C132.59 185.464 132.398 184.981 132.398 184.423V55.6717C132.398 54.7431 133.013 53.9219 133.853 53.9219H150.744C151.219 53.9219 151.651 54.2708 151.829 54.7699L152.53 56.6915C152.707 57.1853 153.139 57.5342 153.614 57.5342H174.278C174.758 57.5342 175.186 57.2014 175.363 56.7076L176.064 54.7753C176.242 54.2761 176.674 53.9219 177.149 53.9219H193.79C194.707 53.9219 195.446 54.8129 195.446 55.8435L195.451 55.8488Z" fill="#B5E1F1"/>
<path opacity="0.6" d="M140.239 59.6797H141.117V58.37H140.239V59.6797Z" fill="white"/>
<path opacity="0.6" d="M138.813 59.6797H139.691V57.9352H138.813V59.6797Z" fill="white"/>
<path opacity="0.6" d="M137.376 59.6797H138.254V57.4951H137.376V59.6797Z" fill="white"/>
<path opacity="0.6" d="M135.942 59.6797H136.82V57.0603H135.942V59.6797Z" fill="white"/>
<path opacity="0.6" d="M187.397 57.8828H186.879V59.1924H187.397V57.8828Z" fill="white"/>
<path opacity="0.6" d="M187.763 59.6796H191.91V57.4145H187.763V59.6796Z" fill="white"/>
<path opacity="0.3" d="M195.446 62.9297H132.398V175.852H195.446V62.9297Z" fill="white"/>
<path d="M180.534 140.719H147.313C146.35 140.719 145.57 141.591 145.57 142.667V150.772C145.57 151.848 146.35 152.721 147.313 152.721H180.534C181.496 152.721 182.276 151.848 182.276 150.772V142.667C182.276 141.591 181.496 140.719 180.534 140.719Z" fill="#B5E1F1"/>
<path d="M153.439 149.249L152.546 147.816C152.489 147.821 152.436 147.821 152.378 147.821H151.389V149.249H150.578V144.359H152.378C153.525 144.359 154.241 145.014 154.241 146.098C154.241 146.839 153.905 147.381 153.309 147.644L154.317 149.249H153.444H153.439ZM152.34 145.127H151.389V147.075H152.34C153.05 147.075 153.42 146.71 153.42 146.098C153.42 145.487 153.05 145.127 152.34 145.127Z" fill="#0F3971"/>
<path d="M158.423 148.487V149.249H155.145V144.359H158.337V145.122H155.956V146.394H158.068V147.14H155.956V148.487H158.423Z" fill="#0F3971"/>
<path d="M160.139 145.122V146.608H162.251V147.376H160.139V149.249H159.328V144.359H162.52V145.122H160.139Z" fill="#0F3971"/>
<path d="M163.269 147.118V144.359H164.081V147.086C164.081 148.095 164.489 148.525 165.194 148.525C165.9 148.525 166.298 148.09 166.298 147.086V144.359H167.1V147.118C167.1 148.546 166.38 149.319 165.189 149.319C163.999 149.319 163.269 148.546 163.269 147.118Z" fill="#0F3971"/>
<path d="M172.121 144.359V149.249H171.454L169.045 145.937V149.249H168.238V144.359H168.905L171.315 147.671V144.359H172.121Z" fill="#0F3971"/>
<path d="M173.293 144.359H175.203C176.619 144.359 177.589 145.336 177.589 146.807C177.589 148.278 176.619 149.255 175.203 149.255H173.293V144.365V144.359ZM175.165 148.482C176.139 148.482 176.768 147.816 176.768 146.807C176.768 145.798 176.139 145.132 175.165 145.132H174.104V148.487H175.165V148.482Z" fill="#0F3971"/>
<path opacity="0.3" d="M195.446 62.9297H132.398V69.8323H195.446V62.9297Z" fill="white"/>
<path d="M182.389 114.212C184.797 102.804 178.479 91.3734 168.277 88.6809C158.075 85.9884 147.853 93.0536 145.446 104.461C143.038 115.869 149.356 127.3 159.558 129.992C169.759 132.685 179.981 125.62 182.389 114.212Z" fill="#B5E1F1"/>
<path d="M169.719 116.7H158.127L156.082 103.195H171.768L169.719 116.7Z" stroke="#0F3971" stroke-width="2.64" stroke-linecap="round" stroke-linejoin="round"/>
<path d="M165.852 116.7H162.002L161.32 103.195H166.528L165.852 116.7Z" stroke="#0F3971" stroke-width="2.64" stroke-linecap="round" stroke-linejoin="round"/>
<path d="M156.879 107.734H170.967" stroke="#0F3971" stroke-width="2.64" stroke-linecap="round" stroke-linejoin="round"/>
<path d="M157.633 112.25H170.214" stroke="#0F3971" stroke-width="2.64" stroke-linecap="round" stroke-linejoin="round"/>
<path d="M170.391 122.033C171.143 122.033 171.754 121.351 171.754 120.509C171.754 119.667 171.143 118.984 170.391 118.984C169.638 118.984 169.027 119.667 169.027 120.509C169.027 121.351 169.638 122.033 170.391 122.033Z" stroke="#0F3971" stroke-width="2.64" stroke-linecap="round" stroke-linejoin="round"/>
<path d="M157.453 122.033C158.206 122.033 158.816 121.351 158.816 120.509C158.816 119.667 158.206 118.984 157.453 118.984C156.7 118.984 156.09 119.667 156.09 120.509C156.09 121.351 156.7 122.033 157.453 122.033Z" stroke="#0F3971" stroke-width="2.64" stroke-linecap="round" stroke-linejoin="round"/>
<path d="M166.122 97.7296L163.928 94.9062L161.734 97.7296H162.819V100.741H165.037V97.7296H166.122Z" fill="#0F3971"/>
<path d="M171.77 103.196L175.144 102.031" stroke="#0F3971" stroke-width="2.64" stroke-linecap="round" stroke-linejoin="round"/>
<g opacity="0.1">
<path d="M160.769 57.5396L142.62 133.565L142.418 134.424L142.092 135.798L141.885 136.657L132.41 176.356V128.311L150.17 53.9219H150.746C151.221 53.9219 151.653 54.2708 151.836 54.7699L152.537 56.6969C152.714 57.1961 153.146 57.5396 153.621 57.5396H160.773H160.769Z" fill="white"/>
<path d="M195.453 96.3594V144.41L185.44 186.335H173.973L174.184 185.444L174.486 184.188L175.086 181.676L175.389 180.42L175.979 177.903L176.281 176.652L185.718 137.126V137.12L186.155 135.296L195.453 96.3594Z" fill="white"/>
<path d="M166.984 57.5391L148.945 133.093L148.84 133.543L147.851 137.682L147.745 138.133L136.24 186.339H134.104C133.955 186.339 133.806 186.317 133.672 186.274L145.163 138.133L145.273 137.682L146.262 133.543L146.368 133.093L164.406 57.5391H166.984Z" fill="white"/>
</g>
</g>
<defs>
<clipPath id="clip0_0_791">
<rect width="240" height="200" fill="white"/>
</clipPath>
</defs>
</svg>
