<svg width="64" height="105" viewBox="0 0 64 105" fill="none" xmlns="http://www.w3.org/2000/svg">
<g id="Highlight_12">
<g id="Group">
<path id="Vector" fill-rule="evenodd" clip-rule="evenodd" d="M49.1381 26.6445C39.9311 20.2595 29.7951 19.6105 18.4726 20.1808C16.5608 20.2775 11.9028 20.6823 8.41815 22.0344C5.95383 22.9898 4.09255 24.4452 3.96542 26.4987C3.85296 28.2932 5.01506 29.6928 6.84211 30.7318C10.8091 32.9885 17.9429 33.5769 20.1334 33.5736C30.0005 33.5556 39.9441 31.4267 49.0403 27.577C49.6009 27.9769 50.16 28.3997 50.7158 28.8455C52.388 30.191 54.2427 31.9643 55.5319 33.9915C56.7853 35.9615 57.5073 38.1739 56.9466 40.4618C55.778 45.2358 50.618 48.8888 44.2518 51.6061C42.8648 52.1993 41.4208 52.7451 39.9441 53.2482C39.0901 52.6615 38.1187 52.1223 37.0544 51.629C28.7977 47.8006 15.0614 46.6174 10.9102 46.8239C9.06195 46.9156 5.65885 47.0385 3.1815 48.1071C1.40986 48.8708 0.10432 50.1098 0.00489998 52.0764C-0.0847412 53.8284 1.06267 55.1542 2.86201 56.113C6.74755 58.1828 13.72 58.5516 15.9888 58.5319C21.1472 58.4893 30.9849 57.1028 39.8268 54.1512C41.5137 55.3738 42.6317 56.8013 42.842 58.4827C43.1354 60.8214 41.442 62.9667 38.8489 64.8858C38.0666 65.4643 37.2027 66.0215 36.2819 66.5509C36.1955 66.5263 36.1107 66.5034 36.0244 66.4788C29.0829 64.5531 20.2883 64.4646 16.4125 64.7678C14.6637 64.9038 11.5132 65.3709 9.27382 66.605C7.67658 67.4867 6.54221 68.7568 6.54873 70.5169C6.55525 72.3246 7.91778 73.3194 9.75135 73.793C12.2532 74.4371 15.6253 74.1159 16.877 73.9881C20.4023 73.6308 29.7462 71.1578 36.3813 67.4342C38.4072 68.0357 40.2506 68.806 41.7191 69.7909C43.2707 70.8283 44.4034 72.1034 44.8614 73.6783C45.9876 77.5641 43.1028 80.8287 38.8798 83.3902C37.5939 84.1703 36.1825 84.8832 34.7107 85.524C33.6139 84.3457 32.0378 83.3755 30.1912 82.6167C25.8395 80.8303 19.9884 80.1912 15.666 80.573C14.1747 80.7041 11.6078 81.0729 9.82309 82.1119C8.53226 82.8625 7.64396 83.9573 7.71079 85.5109C7.79065 87.3989 9.05868 88.5658 10.7831 89.2623C13.1822 90.2292 16.4761 90.2751 18.2151 90.3161C21.6297 90.3947 28.4733 89.0312 34.4874 86.5073C34.8916 87.0269 35.1931 87.5874 35.3724 88.1937C36.0504 90.475 34.9601 93.3185 31.1984 96.8404C29.3763 98.5448 27.3814 100.054 25.142 101.154C21.9149 102.74 18.5623 103.576 15.0434 104.186C14.8218 104.225 14.6719 104.437 14.711 104.659C14.7485 104.882 14.9603 105.033 15.182 104.994C18.7774 104.371 22.2033 103.511 25.5005 101.89C27.8116 100.754 29.8734 99.1987 31.7542 97.4402C35.8483 93.6069 36.8914 90.4423 36.1548 87.9594C35.9657 87.3252 35.6593 86.7319 35.2534 86.1779C36.6812 85.5486 38.0486 84.8521 39.3004 84.0917C43.8884 81.3089 46.8677 77.669 45.6437 73.4489C44.7391 70.3318 41.4778 68.2242 37.3397 66.8754C38.0454 66.446 38.7136 66.0035 39.3313 65.5463C42.2063 63.419 43.9764 60.9722 43.652 58.3812C43.4352 56.6554 42.3775 55.1427 40.7428 53.8382C42.0515 53.3809 43.3342 52.8893 44.5713 52.36C51.208 49.5264 56.5196 45.6357 57.7387 40.6568C58.2326 38.641 57.8398 36.676 56.9548 34.8585C55.6623 32.2117 53.3121 29.8845 51.2242 28.2063C50.7907 27.8573 50.3539 27.5213 49.9155 27.2001C50.9244 26.7576 51.9235 26.2954 52.9095 25.8103C55.3494 24.6123 58.2326 23.0718 60.4427 21.015C61.9519 19.6089 63.1482 17.9634 63.7024 16.0279C64.4993 13.2566 63.6176 10.8966 61.9878 8.95131C60.4117 7.06825 58.1266 5.57852 56.047 4.48376C46.9443 -0.308286 36.2167 -1.63577 26.5257 2.35487C26.3187 2.44009 26.2193 2.67937 26.304 2.88914C26.3888 3.09728 26.6267 3.19891 26.8353 3.11205C36.2998 -0.785176 46.778 0.529163 55.6688 5.20976C57.6605 6.257 59.8542 7.67626 61.3651 9.47902C62.8206 11.2179 63.6322 13.3222 62.92 15.8001C62.2746 18.0487 60.6806 19.8645 58.7737 21.3641C56.8211 22.8997 54.5361 24.101 52.551 25.0745C51.428 25.6251 50.2887 26.1496 49.1381 26.6445ZM33.9137 85.8633C32.9049 84.8619 31.4999 84.0392 29.8831 83.3755C25.6456 81.635 19.9476 81.0172 15.7377 81.3892C14.3328 81.5137 11.9109 81.8415 10.2321 82.8199C9.2135 83.4132 8.47192 84.2506 8.52408 85.4765C8.5909 87.0203 9.67637 87.9315 11.0878 88.5018C13.394 89.4311 16.5625 89.4573 18.2347 89.4966C21.5302 89.572 28.087 88.2691 33.9137 85.8633ZM35.2551 67.1196C28.5043 65.366 20.1937 65.2939 16.4744 65.584C14.8087 65.7134 11.8001 66.1461 9.66496 67.3244C8.34642 68.0504 7.35713 69.06 7.36365 70.5136C7.36854 71.9313 8.51593 72.6278 9.95345 72.9982C12.3558 73.6177 15.5943 73.2948 16.7955 73.1736C20.1351 72.8343 28.7977 70.5645 35.2551 67.1196ZM38.963 53.5727C38.2784 53.1466 37.5222 52.7483 36.7138 52.3731C28.5777 48.6004 15.0402 47.4384 10.9509 47.6417C9.16952 47.7302 5.89029 47.8318 3.50257 48.861C2.03082 49.4936 0.90135 50.4851 0.818228 52.119C0.770963 53.0548 1.18818 53.8251 1.8939 54.4659C2.65829 55.1624 3.75029 55.7049 4.99059 56.1375C8.83376 57.4781 14.09 57.7289 15.9822 57.7125C20.9679 57.6715 30.3753 56.3588 38.963 53.5727ZM48.2417 27.0247C39.3053 21.0232 29.4692 20.4463 18.5134 20.9986C16.6505 21.0937 12.1081 21.4821 8.71153 22.7981C7.61465 23.2242 6.63836 23.7437 5.92449 24.3911C5.26277 24.9925 4.83086 25.7005 4.77871 26.5495C4.7184 27.5213 5.14219 28.3342 5.86421 29.0225C6.6449 29.7649 7.76133 30.3615 9.02934 30.8466C12.9507 32.3461 18.3064 32.7575 20.1318 32.7542C29.7169 32.7362 39.377 30.704 48.2417 27.0247Z" fill="black"/>
</g>
</g>
</svg>
