<svg width="77" height="101" viewBox="0 0 77 101" fill="none" xmlns="http://www.w3.org/2000/svg">
<g id="Arrow_09" opacity="0.6">
<g id="Group">
<g id="Group_2">
<path id="Vector" fill-rule="evenodd" clip-rule="evenodd" d="M6.41322 90.3017C8.43485 79.0405 11.3548 74.0707 14.8926 72.3861C18.4305 70.6979 22.4176 72.2967 26.4047 73.8992C29.1564 75.0265 31.9642 76.1766 34.5474 76.3836C37.243 76.6016 39.7701 75.799 41.9602 72.9726C42.4656 72.294 42.915 71.1931 43.1958 69.7256C43.645 67.7346 43.9258 65.0249 44.0381 61.8454C44.5997 49.7844 43.4768 30.8008 44.8245 19.2396C45.1053 16.5819 45.5542 14.3282 46.172 12.67C46.7335 11.2272 47.4073 10.2522 48.3058 10.0041C49.0358 9.80162 49.8783 10.0853 50.9453 10.855C52.7423 12.1693 54.8761 14.8498 57.5716 19.1976C59.9302 23.0036 61.8961 27.2912 64.1986 31.1848C67.7926 37.2801 71.5549 43.4574 75.7666 48.3479C76.0474 48.6571 76.4403 48.6261 76.6649 48.2795C76.9457 47.932 76.8897 47.3994 76.6089 47.0902C72.4534 42.269 68.7471 36.1719 65.2093 30.1624C62.963 26.2588 60.9415 21.9603 58.5829 18.1442C55.7751 13.5684 53.4727 10.7748 51.5633 9.3912C50.2156 8.36331 49.0358 8.08421 48.025 8.35509C47.0142 8.63418 46.1159 9.49973 45.442 10.8879C44.5435 12.7248 43.9256 15.5375 43.5325 18.9906C42.1847 30.5929 43.3082 49.6449 42.7466 61.7488C42.6343 64.7823 42.3533 67.3698 41.9602 69.2696C41.7356 70.396 41.4547 71.2643 41.0055 71.7851C39.1523 74.2275 36.9625 74.8897 34.6039 74.7018C32.133 74.5021 29.4375 73.3757 26.742 72.2903C22.5303 70.5729 18.206 68.996 14.4435 70.8046C10.681 72.6159 7.31161 77.8138 5.17766 89.9204C5.06535 90.3737 5.28987 90.827 5.62681 90.9319C5.96375 91.0368 6.35706 90.7549 6.41322 90.3017Z" fill="black"/>
<path id="Vector_2" fill-rule="evenodd" clip-rule="evenodd" d="M4.54901 89.6468C4.49286 89.5292 4.38032 89.209 4.32417 88.9445C3.98723 87.6585 3.65062 85.663 3.5383 85.0774C2.30286 79.8978 1.29204 74.0999 1.29204 68.5519C1.29204 68.0867 1.01093 67.71 0.673989 67.7109C0.280893 67.7119 0 68.0894 0 68.5546C0 74.2631 1.06698 80.2298 2.24626 85.5599C2.41473 86.1536 2.75167 88.1793 3.08861 89.4854C3.20093 89.9551 3.31357 90.3436 3.42588 90.5881C3.53819 90.7887 3.65029 90.9264 3.7626 91.0131C3.98723 91.2374 4.3245 91.3469 4.66144 91.3323C5.05453 91.3159 5.50367 91.1472 5.95293 90.8608C6.90759 90.3008 8.03061 89.2765 8.92912 88.4666C9.43453 88.0015 9.88389 87.6047 10.1647 87.4834C12.5794 86.4428 15.2185 87.5518 17.2402 91.1526C17.4648 91.5266 17.8582 91.6077 18.139 91.3323C18.4198 91.0569 18.4758 90.5288 18.3074 90.1539C15.8365 85.8353 12.6916 84.6342 9.77147 85.8837C9.04143 86.1847 7.46926 87.8464 6.06535 88.9081C5.6161 89.2118 5.22267 89.4617 4.88573 89.5839C4.77342 89.6195 4.71726 89.6441 4.60495 89.6477C4.60495 89.6496 4.54901 89.6523 4.54901 89.6468Z" fill="black"/>
</g>
</g>
</g>
</svg>
