<svg width="192" height="120" viewBox="0 0 192 120" fill="none" xmlns="http://www.w3.org/2000/svg">
<path d="M65.729 91.5147L159.999 33.5553V31.7622L165.759 22.4027L147.536 17.8074L37.9385 74.6837L26.8087 82.1933L21.8217 90.2062L21.5532 98.5735C35.7564 100.588 52.7881 97.2239 65.729 91.5147Z" fill="#E0E4EC"/>
<path d="M65.729 91.5147L37.9385 74.6837M65.729 91.5147C52.7881 97.2239 35.7564 100.588 21.5532 98.5735L21.8217 90.2062L26.8087 82.1933L37.9385 74.6837M65.729 91.5147L159.999 33.5553V31.7622L165.759 22.4027L147.536 17.8074L37.9385 74.6837" stroke="#6E7E92" stroke-width="0.2" stroke-linecap="round" stroke-linejoin="round"/>
<path d="M19.601 96.1256L21.7436 96.4533L22.7325 90.0274L27.6221 82.1712L35.0376 76.6298L145.982 18.4666L164.655 23.9604L168.533 21.0298L149.634 15.7557L139.78 14.468L128.305 20.5025V22.2606L125.503 26.4908L44.6534 66.6787C44.6534 66.6787 36.4011 70.5791 31.7426 73.7108C28.8172 75.6774 26.5233 76.8104 24.7103 78.6552C23.172 80.2205 20.5349 84.6435 19.601 86.4564C18.807 87.9977 18.667 90.7966 18.667 90.7966L19.601 96.1256Z" fill="#EFF1F6"/>
<path d="M19.601 96.1256C19.601 96.1256 20.4694 96.2726 21.7436 96.4533M19.601 96.1256L21.7436 96.4533M19.601 96.1256L18.667 90.7966C18.667 90.7966 18.807 87.9977 19.601 86.4564C20.5349 84.6435 23.172 80.2205 24.7103 78.6552C26.5233 76.8104 28.8172 75.6774 31.7426 73.7108C36.4011 70.5791 44.6534 66.6787 44.6534 66.6787L125.503 26.4908L128.305 22.2606V20.5025L139.78 14.468L149.634 15.7557L168.533 21.0298L164.655 23.9604L145.982 18.4666L35.0376 76.6298L27.6221 82.1712L22.7325 90.0274L21.7436 96.4533" stroke="#6E7E92" stroke-width="0.2" stroke-linecap="round" stroke-linejoin="round"/>
<path d="M157.622 28.2663L159.778 26.8637L161.087 13.3888L160.12 13.0682L158.893 14.1502L157.622 28.2663Z" fill="#9EA9B9" stroke="#6E7E92" stroke-width="0.2" stroke-linecap="round" stroke-linejoin="round"/>
<path d="M157.755 28.4748L142.195 23.8093L142.992 10.0284L142.614 8.30957L160.398 12.9751L159.014 14.0801L157.755 28.4748Z" fill="#E0E4EC" stroke="#6E7E92" stroke-width="0.2" stroke-linecap="round" stroke-linejoin="round"/>
<path d="M164.535 11.6193L162.88 12.2861V14.1015L164.334 13.4717L164.535 11.6193Z" fill="#9EA9B9" stroke="#6E7E92" stroke-width="0.2" stroke-linecap="round" stroke-linejoin="round"/>
<path d="M164.535 11.7119L163.196 12.4474L139.712 6.5636L141.132 5.82812L164.535 11.7119Z" fill="#EFF1F6" stroke="#6E7E92" stroke-width="0.2" stroke-linecap="round" stroke-linejoin="round"/>
<path d="M162.88 14.1018V12.224L139.712 6.65515L139.792 8.1985L162.88 14.1018Z" fill="#E0E4EC" stroke="#6E7E92" stroke-width="0.2" stroke-linecap="round" stroke-linejoin="round"/>
<path d="M158.783 45.9221L67.7279 106.551C67.7279 106.551 62.244 109.496 58.4823 110.753C53.8707 112.295 51.0889 112.538 46.2669 113.163C41.6562 113.761 37.7497 114.568 34.3877 113.947C31.3928 113.394 29.6777 105.161 27.0472 103.626C24.4868 102.132 23.0791 101.048 21.2757 98.6953C20.5335 97.7269 19.5947 96.0617 19.5947 96.0617C19.5947 96.0617 25.3113 97.0294 29.0084 97.0703C31.9908 97.1033 33.6641 96.8896 36.6291 96.566C42.5932 95.9151 51.7022 93.5962 51.7022 93.5962C51.7022 93.5962 59.603 91.2428 62.7969 89.1135C64.4779 87.9928 68.9046 89.1695 68.9046 89.1695L154.3 34.0881C155.869 33.1356 157.999 29.2132 157.999 29.2132V27.4201L168.533 21.0322V22.6012L163.378 30.7821L158.783 45.9221Z" fill="#9EA9B9" stroke="#6E7E92" stroke-width="0.2" stroke-linecap="round" stroke-linejoin="round"/>
<path d="M54.4875 85.9222L40.9136 94.1939V95.721L54.4875 87.4069V85.9222Z" fill="#E0E4EC" stroke="#6E7E92" stroke-width="0.2" stroke-linecap="round" stroke-linejoin="round"/>
<path d="M27.8237 87.0765L40.9128 94.193V95.72L27.8684 88.5504L27.8237 87.0765Z" fill="#E0E4EC" stroke="#6E7E92" stroke-width="0.2" stroke-linecap="round" stroke-linejoin="round"/>
<path d="M54.486 85.9228L40.912 94.1944L41.4894 79.5302L54.486 85.9228Z" fill="#EFF1F6"/>
<path d="M27.7783 87.078L40.912 94.1944L41.4894 79.5302L27.7783 87.078Z" fill="#EFF1F6"/>
<path d="M40.912 94.1944L54.486 85.9228L41.4894 79.5302M40.912 94.1944L41.4894 79.5302M40.912 94.1944L27.7783 87.078L41.4894 79.5302" stroke="#6E7E92" stroke-width="0.2" stroke-linecap="round" stroke-linejoin="round"/>
<path d="M154.5 32.4286V30.8812L144.501 36.9607V38.5842L154.5 32.4286Z" fill="#9EA9B9" stroke="#6E7E92" stroke-width="0.2" stroke-linecap="round" stroke-linejoin="round"/>
<path d="M154.499 32.4286V30.8812L144.501 36.9607V38.5842L154.499 32.4286Z" fill="#9EA9B9" stroke="#6E7E92" stroke-width="0.2" stroke-linecap="round" stroke-linejoin="round"/>
<path d="M154.499 32.4286V30.8812L144.501 36.9607V38.5842L154.499 32.4286Z" fill="#9EA9B9" stroke="#6E7E92" stroke-width="0.2" stroke-linecap="round" stroke-linejoin="round"/>
<path d="M133.863 25.1133L154.499 30.8807L144.508 36.951L123.812 30.5691L133.863 25.1133Z" fill="#EFF1F6"/>
<path d="M133.863 25.1133L154.499 30.8807L144.508 36.951M133.863 25.1133L123.812 30.5691L144.508 36.951M133.863 25.1133L144.508 36.951" stroke="#6E7E92" stroke-width="0.2" stroke-linecap="round" stroke-linejoin="round"/>
<path d="M123.791 32.1212V30.5739L144.501 36.96V38.5835L123.791 32.1212Z" fill="#E0E4EC" stroke="#6E7E92" stroke-width="0.2" stroke-linecap="round" stroke-linejoin="round"/>
<path d="M130.953 45.1995V46.9261L154.499 32.4363V30.9025L130.953 45.1995Z" fill="#9EA9B9" stroke="#6E7E92" stroke-width="0.2" stroke-linecap="round" stroke-linejoin="round"/>
<path d="M130.941 45.2118L109.853 38.1775L133.876 25.1028L154.449 30.8988L130.941 45.2118Z" fill="#EFF1F6"/>
<path d="M130.941 45.2118L109.853 38.1775L133.876 25.1028M130.941 45.2118L154.449 30.8988L133.876 25.1028M130.941 45.2118L133.876 25.1028" stroke="#6E7E92" stroke-width="0.2" stroke-linecap="round" stroke-linejoin="round"/>
<path d="M130.953 45.1995V46.9261L109.813 39.6408L109.814 38.1569L130.953 45.1995Z" fill="#E0E4EC" stroke="#6E7E92" stroke-width="0.2" stroke-linecap="round" stroke-linejoin="round"/>
<path d="M117.365 55.2235V53.5032L127.889 47.1116V48.7309L117.365 55.2235Z" fill="#9EA9B9" stroke="#6E7E92" stroke-width="0.2" stroke-linecap="round" stroke-linejoin="round"/>
<path d="M117.343 53.5292L96.043 45.7025L106.798 39.8158L127.89 47.112L117.343 53.5292Z" fill="#EFF1F6"/>
<path d="M117.343 53.5292L96.043 45.7025L106.798 39.8158M117.343 53.5292L127.89 47.112L106.798 39.8158M117.343 53.5292L106.798 39.8158" stroke="#6E7E92" stroke-width="0.2" stroke-linecap="round" stroke-linejoin="round"/>
<path d="M117.365 55.2242V53.5039L95.9844 45.661L95.9844 47.1497L117.365 55.2242Z" fill="#E0E4EC" stroke="#6E7E92" stroke-width="0.2" stroke-linecap="round" stroke-linejoin="round"/>
<path d="M101.68 64.9005V63.0296L127.878 47.1095V48.7345L101.68 64.9005Z" fill="#9EA9B9" stroke="#6E7E92" stroke-width="0.2" stroke-linecap="round" stroke-linejoin="round"/>
<path d="M101.679 63.0295L80.3794 54.2333L106.797 39.8156L127.857 47.1214L101.679 63.0295Z" fill="#EFF1F6"/>
<path d="M101.679 63.0295L80.3794 54.2333L106.797 39.8156M101.679 63.0295L127.857 47.1214L106.797 39.8156M101.679 63.0295L106.797 39.8156" stroke="#6E7E92" stroke-width="0.2" stroke-linecap="round" stroke-linejoin="round"/>
<path d="M101.679 64.9009V63.0299L80.3296 54.1959V56.0949L101.679 64.9009Z" fill="#E0E4EC" stroke="#6E7E92" stroke-width="0.2" stroke-linecap="round" stroke-linejoin="round"/>
<path d="M83.9131 75.8596V73.8181L97.4356 65.6058V67.5176L83.9131 75.8596Z" fill="#9EA9B9" stroke="#6E7E92" stroke-width="0.2" stroke-linecap="round" stroke-linejoin="round"/>
<path d="M83.913 73.818L62.2607 64.027L75.7459 56.6794L97.4355 65.6058L83.913 73.818Z" fill="#EFF1F6"/>
<path d="M83.913 73.818L62.2607 64.027L75.7459 56.6794M83.913 73.818L97.4355 65.6058L75.7459 56.6794M83.913 73.818L75.7459 56.6794" stroke="#6E7E92" stroke-width="0.2" stroke-linecap="round" stroke-linejoin="round"/>
<path d="M83.913 75.8602V73.8186L62.2407 64.0103V66.097L83.913 75.8602Z" fill="#E0E4EC" stroke="#6E7E92" stroke-width="0.2" stroke-linecap="round" stroke-linejoin="round"/>
<path d="M62.3013 87.1381L62.3013 89.1923L97.4465 67.5464V65.6232L62.3013 87.1381Z" fill="#9EA9B9" stroke="#6E7E92" stroke-width="0.2" stroke-linecap="round" stroke-linejoin="round"/>
<path d="M40.458 75.8655L75.7663 56.6764L97.4315 65.6032L62.3064 87.1253L40.458 75.8655Z" fill="#EFF1F6"/>
<path d="M75.7663 56.6764L40.458 75.8655L62.3064 87.1253M75.7663 56.6764L97.4315 65.6032L62.3064 87.1253M75.7663 56.6764L62.3064 87.1253" stroke="#6E7E92" stroke-width="0.2" stroke-linecap="round" stroke-linejoin="round"/>
<path d="M62.3013 87.1374L62.3013 89.1916L40.4189 77.6552V75.8696L62.3013 87.1374Z" fill="#E0E4EC" stroke="#6E7E92" stroke-width="0.2" stroke-linecap="round" stroke-linejoin="round"/>
<path d="M114.503 103.432C115.395 105.592 109.978 108.273 102.548 111.34C95.1184 114.407 88.1723 115.093 87.2807 112.934C86.3494 110.678 90.5335 108.238 94.3314 106.354C96.3594 105.349 98.0885 104.437 99.2895 103.941C103.257 102.303 106.087 100.944 108.602 101C110.797 101.05 114.088 102.426 114.503 103.432Z" fill="#EFF1F6" stroke="#6E7E92" stroke-width="0.2" stroke-linecap="round" stroke-linejoin="round"/>
<path d="M114.503 103.432C115.395 105.592 109.978 108.273 102.548 111.34C95.1184 114.407 88.1723 115.093 87.2807 112.934C86.3494 110.678 90.5335 108.238 94.3314 106.354C96.3594 105.349 98.0885 104.437 99.2895 103.941C103.257 102.303 106.087 100.944 108.602 101C110.797 101.05 114.088 102.426 114.503 103.432Z" fill="#EFF1F6" stroke="#6E7E92" stroke-width="0.2" stroke-linecap="round" stroke-linejoin="round"/>
<path d="M113.957 105.448C114.504 106.918 108.038 110.199 102.476 112.932C96.4249 115.907 90.0906 117.933 87.2817 113.99C84.4727 110.048 90.5345 109.294 94.3323 107.411C96.3603 106.406 98.0895 105.494 99.2904 104.998C103.258 103.36 106.088 102.001 108.603 102.057C109.773 102.083 115.597 102.639 115.597 102.639C115.352 104.204 113.866 105.203 113.957 105.448Z" fill="#9EA9B9" stroke="#6E7E92" stroke-width="0.2" stroke-linecap="round" stroke-linejoin="round"/>
<path d="M116.106 101.47C116.946 103.507 110.192 106.558 102.476 110.274C94.8971 114.101 86.8558 114.776 85.5276 111.707C84.4118 109.129 89.4061 106.957 93.6648 104.836C95.9389 103.704 97.8774 102.676 99.225 102.119C103.678 100.281 106.851 98.751 109.685 98.8412C112.158 98.9199 115.627 100.312 116.106 101.47Z" fill="#E0E4EC"/>
<path fill-rule="evenodd" clip-rule="evenodd" d="M114.601 103.881C115.803 102.971 116.391 102.164 116.106 101.474C115.628 100.316 112.158 98.9236 109.686 98.8449C107.232 98.7668 104.524 99.9033 100.951 101.403C100.398 101.635 99.8231 101.876 99.2255 102.123C98.247 102.527 96.9571 103.179 95.4534 103.94C94.886 104.227 94.2883 104.53 93.6653 104.84C93.3092 105.017 92.9479 105.195 92.5855 105.373C88.6141 107.327 84.5056 109.348 85.5281 111.711C85.8402 112.432 86.5227 112.946 87.4827 113.262C87.3986 113.16 87.3317 113.051 87.283 112.933C86.3517 110.676 90.5357 108.236 94.3336 106.353C94.8891 106.078 95.4222 105.809 95.9282 105.555C97.2693 104.879 98.4197 104.3 99.2917 103.94C99.8241 103.72 100.336 103.506 100.83 103.299C104.013 101.963 106.427 100.951 108.605 100.999C110.799 101.048 114.09 102.425 114.505 103.431C114.566 103.579 114.598 103.729 114.601 103.881Z" fill="#EFF1F6"/>
<path d="M116.106 101.474L116.014 101.512L116.106 101.474ZM114.601 103.881L114.501 103.883C114.502 103.921 114.524 103.955 114.557 103.971C114.591 103.987 114.631 103.983 114.661 103.961L114.601 103.881ZM109.686 98.8449L109.682 98.9448L109.686 98.8449ZM100.951 101.403L100.99 101.495L100.951 101.403ZM99.2255 102.123L99.1874 102.03L99.2255 102.123ZM95.4534 103.94L95.4985 104.029L95.4534 103.94ZM93.6653 104.84L93.6207 104.75L93.6653 104.84ZM92.5855 105.373L92.6297 105.463L92.5855 105.373ZM85.5281 111.711L85.4364 111.75L85.5281 111.711ZM87.4827 113.262L87.4515 113.357C87.4939 113.37 87.5403 113.355 87.5654 113.318C87.5905 113.281 87.5881 113.232 87.5596 113.198L87.4827 113.262ZM87.283 112.933L87.1905 112.971V112.971L87.283 112.933ZM94.3336 106.353L94.378 106.443L94.3336 106.353ZM95.9282 105.555L95.8832 105.465L95.9282 105.555ZM99.2917 103.94L99.2535 103.848L99.2917 103.94ZM100.83 103.299L100.791 103.206L100.83 103.299ZM108.605 100.999L108.602 101.099L108.605 100.999ZM114.505 103.431L114.598 103.393V103.393L114.505 103.431ZM116.014 101.512C116.139 101.816 116.079 102.155 115.827 102.541C115.575 102.928 115.138 103.349 114.541 103.801L114.661 103.961C115.266 103.503 115.724 103.066 115.995 102.65C116.267 102.232 116.358 101.822 116.198 101.436L116.014 101.512ZM109.682 98.9448C110.904 98.9837 112.378 99.3479 113.606 99.8473C114.22 100.097 114.769 100.379 115.192 100.668C115.62 100.96 115.906 101.251 116.014 101.512L116.198 101.436C116.067 101.118 115.74 100.8 115.305 100.503C114.867 100.203 114.304 99.9151 113.681 99.662C112.437 99.156 110.94 98.7847 109.689 98.7449L109.682 98.9448ZM100.99 101.495C102.777 100.745 104.343 100.088 105.769 99.6274C107.194 99.1673 108.472 98.9063 109.682 98.9448L109.689 98.7449C108.446 98.7053 107.143 98.9736 105.707 99.4371C104.272 99.9004 102.698 100.561 100.913 101.311L100.99 101.495ZM99.2637 102.215C99.8615 101.969 100.436 101.727 100.99 101.495L100.913 101.311C100.359 101.543 99.7846 101.784 99.1874 102.03L99.2637 102.215ZM95.4985 104.029C97.0037 103.268 98.2896 102.617 99.2637 102.215L99.1874 102.03C98.2045 102.436 96.9105 103.091 95.4082 103.851L95.4985 104.029ZM93.7099 104.929C94.3332 104.619 94.9312 104.316 95.4985 104.029L95.4082 103.851C94.8409 104.138 94.2434 104.44 93.6207 104.75L93.7099 104.929ZM92.6297 105.463C92.992 105.285 93.3535 105.107 93.7099 104.929L93.6207 104.75C93.2649 104.928 92.9038 105.105 92.5414 105.283L92.6297 105.463ZM85.6199 111.671C85.3783 111.113 85.4378 110.576 85.7286 110.047C86.022 109.513 86.5506 108.988 87.244 108.469C88.6306 107.431 90.641 106.441 92.6297 105.463L92.5414 105.283C90.5586 106.259 88.529 107.257 87.1241 108.309C86.4218 108.834 85.8668 109.38 85.5533 109.95C85.2373 110.526 85.1667 111.127 85.4364 111.75L85.6199 111.671ZM87.5139 113.167C86.5697 112.856 85.9166 112.357 85.6199 111.671L85.4364 111.75C85.7638 112.507 86.4757 113.036 87.4515 113.357L87.5139 113.167ZM87.5596 113.198C87.4816 113.104 87.4201 113.003 87.3754 112.894L87.1905 112.971C87.2433 113.099 87.3156 113.217 87.4058 113.325L87.5596 113.198ZM87.3754 112.894C87.1572 112.366 87.235 111.823 87.545 111.266C87.8566 110.707 88.3996 110.141 89.0974 109.581C90.4926 108.461 92.4794 107.384 94.378 106.443L94.2892 106.264C92.3899 107.205 90.3858 108.29 88.9722 109.425C88.2657 109.992 87.7 110.577 87.3703 111.169C87.039 111.763 86.9431 112.371 87.1905 112.971L87.3754 112.894ZM94.378 106.443C94.9339 106.167 95.4672 105.899 95.9732 105.644L95.8832 105.465C95.3772 105.72 94.8444 105.988 94.2892 106.264L94.378 106.443ZM95.9732 105.644C97.3157 104.968 98.4622 104.391 99.3298 104.033L99.2535 103.848C98.3773 104.21 97.2229 104.791 95.8832 105.465L95.9732 105.644ZM99.3298 104.033C99.8626 103.813 100.375 103.598 100.868 103.391L100.791 103.206C100.297 103.413 99.7857 103.628 99.2535 103.848L99.3298 104.033ZM100.868 103.391C102.461 102.723 103.856 102.137 105.125 101.725C106.394 101.313 107.529 101.075 108.602 101.099L108.607 100.899C107.502 100.875 106.342 101.119 105.063 101.535C103.785 101.95 102.382 102.539 100.791 103.206L100.868 103.391ZM108.602 101.099C109.683 101.123 111.042 101.476 112.184 101.949C112.754 102.185 113.266 102.45 113.661 102.716C114.059 102.986 114.321 103.247 114.413 103.469L114.598 103.393C114.482 103.112 114.176 102.824 113.773 102.551C113.364 102.275 112.839 102.004 112.26 101.764C111.104 101.285 109.72 100.924 108.607 100.899L108.602 101.099ZM114.413 103.469C114.469 103.606 114.498 103.744 114.501 103.883L114.701 103.879C114.697 103.714 114.663 103.552 114.598 103.393L114.413 103.469Z" fill="#6E7E92"/>
<path d="M98.3085 112.251L92.0308 108.801V106.86L92.7471 107.029V103.938L96.1216 102.279L98.7798 103.566L101.306 102.467L107.357 105.125C107.797 105.328 107.964 105.51 108.055 106.011C108.082 106.162 108.338 106.124 108.338 106.294V106.954C104.848 108.99 102.653 110.144 98.3085 112.251Z" fill="#C9CFDB"/>
<path d="M98.3085 112.251L92.0308 108.801V106.86L92.7471 107.029V103.938M98.3085 112.251V110.253L97.4036 109.631M98.3085 112.251C102.653 110.144 104.848 108.99 108.338 106.954V106.294C108.338 106.124 108.082 106.162 108.055 106.011C107.964 105.51 107.797 105.328 107.357 105.125M97.4036 109.631V106.256M97.4036 109.631L103.738 106.764M97.4036 106.256L92.7471 103.938M97.4036 106.256L100.985 104.635M92.7471 103.938L96.1216 102.279L98.7798 103.566M100.985 104.635C100.985 106.294 103.738 105.257 103.738 106.764M100.985 104.635L98.7798 103.566M107.357 105.125L103.738 106.764M107.357 105.125L101.306 102.467L98.7798 103.566" stroke="#6E7E92" stroke-width="0.2" stroke-linecap="round" stroke-linejoin="round"/>
<path d="M92.748 103.938L97.4045 106.256L100.986 104.635L98.7807 103.566L96.1226 102.279L92.748 103.938Z" fill="#EFF1F6" stroke="#6E7E92" stroke-width="0.2" stroke-linecap="round" stroke-linejoin="round"/>
<path d="M98.3085 112.253L92.0308 108.803V106.862L92.7471 107.031V103.939L97.4036 106.258V109.633L98.3085 110.255V112.253Z" fill="#E0E4EC" stroke="#6E7E92" stroke-width="0.2" stroke-linecap="round" stroke-linejoin="round"/>
<path fill-rule="evenodd" clip-rule="evenodd" d="M97.0897 94.6735L96.2036 94.5038L96.4284 104.024C96.4283 104.026 96.4284 104.029 96.4286 104.032L96.4287 104.035L96.429 104.035C96.4401 104.122 96.6053 104.23 96.8241 104.289C97.0654 104.354 97.2806 104.333 97.3046 104.244C97.3098 104.224 97.3057 104.203 97.2936 104.182L97.0897 94.6735Z" fill="#EFF1F6"/>
<path d="M96.2036 94.5038L96.2224 94.4056C96.1927 94.3999 96.1621 94.4079 96.139 94.4275C96.1159 94.447 96.1029 94.4759 96.1036 94.5061L96.2036 94.5038ZM97.0897 94.6735L97.1896 94.6713C97.1886 94.6241 97.1548 94.5841 97.1085 94.5752L97.0897 94.6735ZM96.4284 104.024L96.5285 104.028L96.5284 104.021L96.4284 104.024ZM96.4286 104.032L96.5288 104.03L96.5283 104.024L96.4286 104.032ZM96.4287 104.035L96.3287 104.038C96.3298 104.083 96.3613 104.122 96.4055 104.133L96.4287 104.035ZM96.429 104.035L96.5281 104.023C96.5228 103.981 96.4926 103.948 96.4521 103.938L96.429 104.035ZM96.8241 104.289L96.7982 104.385H96.7982L96.8241 104.289ZM97.3046 104.244L97.208 104.218V104.218L97.3046 104.244ZM97.2936 104.182L97.1936 104.184C97.194 104.2 97.1983 104.216 97.2062 104.23L97.2936 104.182ZM96.1848 94.602L97.0709 94.7717L97.1085 94.5752L96.2224 94.4056L96.1848 94.602ZM96.5284 104.021L96.3036 94.5014L96.1036 94.5061L96.3284 104.026L96.5284 104.021ZM96.5283 104.024C96.5283 104.025 96.5284 104.026 96.5283 104.027L96.3285 104.02C96.3282 104.027 96.3284 104.034 96.329 104.041L96.5283 104.024ZM96.5287 104.033L96.5286 104.03L96.3286 104.035L96.3287 104.038L96.5287 104.033ZM96.4521 103.938L96.4519 103.938L96.4055 104.133L96.4058 104.133L96.4521 103.938ZM96.85 104.192C96.7485 104.165 96.6625 104.127 96.6029 104.089C96.573 104.069 96.5523 104.052 96.5397 104.037C96.5261 104.022 96.5274 104.017 96.5281 104.023L96.3298 104.048C96.3361 104.097 96.3622 104.138 96.3896 104.169C96.4179 104.202 96.4543 104.231 96.4944 104.257C96.5749 104.309 96.6809 104.354 96.7982 104.385L96.85 104.192ZM97.208 104.218C97.2122 104.202 97.2217 104.202 97.209 104.208C97.1965 104.214 97.173 104.221 97.1365 104.225C97.0641 104.231 96.9622 104.222 96.85 104.192L96.7982 104.385C96.9273 104.42 97.0536 104.433 97.1552 104.424C97.2056 104.419 97.2555 104.408 97.2976 104.387C97.3396 104.367 97.385 104.33 97.4012 104.269L97.208 104.218ZM97.2062 104.23C97.2081 104.234 97.2076 104.234 97.2072 104.231C97.2067 104.229 97.2064 104.224 97.208 104.218L97.4012 104.269C97.4151 104.218 97.4014 104.17 97.3809 104.133L97.2062 104.23ZM96.9897 94.6756L97.1936 104.184L97.3936 104.179L97.1896 94.6713L96.9897 94.6756Z" fill="#6E7E92"/>
<ellipse rx="0.456278" ry="0.168133" transform="matrix(0.969969 0.243228 -0.243231 0.969968 96.6444 94.5955)" fill="#EFF1F6" stroke="#6E7E92" stroke-width="0.2" stroke-linecap="round" stroke-linejoin="round"/>
</svg>
