<svg width="236" height="243" viewBox="0 0 236 243" fill="none" xmlns="http://www.w3.org/2000/svg">
<path fill-rule="evenodd" clip-rule="evenodd" d="M114.212 0C143.16 0 139.856 52.9363 160.754 69.0719C188.414 90.4306 236 79.8546 236 116.507C236 180.852 181.474 243 114.212 243C46.9506 243 2.38977 168.647 2.38977 104.301C2.38977 39.9541 46.9516 0 114.212 0Z" fill="#EAF9FE"/>
<path fill-rule="evenodd" clip-rule="evenodd" d="M224.092 120.471C220.283 124.812 219.127 124.932 214.488 121.965C218.594 125.64 218.789 126.786 215.647 131.636C219.456 127.295 220.611 127.177 225.25 130.144C221.142 126.461 220.945 125.314 224.092 120.471Z" fill="white"/>
<path fill-rule="evenodd" clip-rule="evenodd" d="M212.067 166.309C208.306 170.595 207.165 170.714 202.585 167.783C206.636 171.413 206.831 172.544 203.729 177.332C207.49 173.046 208.632 172.928 213.211 175.857C209.16 172.23 208.965 171.096 212.067 166.309Z" fill="white"/>
<path fill-rule="evenodd" clip-rule="evenodd" d="M196.16 118.938C189.116 126.963 186.979 127.188 178.401 121.702C185.987 128.492 186.352 130.618 180.543 139.583C187.586 131.559 189.724 131.335 198.302 136.822C190.716 130.027 190.353 127.903 196.16 118.938Z" fill="white"/>
<path fill-rule="evenodd" clip-rule="evenodd" d="M106.041 196.591C73.3879 196.591 46.9177 197.87 46.9177 199.449C46.9177 201.028 73.3879 202.306 106.046 202.306C138.704 202.306 165.174 201.027 165.174 199.449C165.174 197.871 138.692 196.591 106.041 196.591Z" fill="#D0D9EE"/>
<path fill-rule="evenodd" clip-rule="evenodd" d="M58.5956 36.4634H149.566C157.29 36.4634 163.578 42.7657 163.578 50.5053V69.8548C164.222 69.9409 164.813 70.2579 165.242 70.7472C165.671 71.2366 165.908 71.865 165.91 72.5163V89.2855C165.908 89.9367 165.671 90.565 165.242 91.0541C164.813 91.5433 164.222 91.8601 163.578 91.946V99.4242C164.222 99.5101 164.813 99.8269 165.242 100.316C165.671 100.805 165.908 101.434 165.91 102.085V118.854C165.908 119.505 165.671 120.133 165.242 120.623C164.813 121.112 164.222 121.429 163.578 121.514V184.626C163.578 192.367 157.29 198.669 149.566 198.669H58.5956C50.874 198.669 44.5844 192.367 44.5844 184.626V94.3585C43.91 94.3085 43.2793 94.0052 42.8183 93.5093C42.3574 93.0134 42.1002 92.3614 42.0981 91.6836V74.9144C42.0999 74.2366 42.3571 73.5844 42.8181 73.0885C43.279 72.5925 43.9099 72.2893 44.5844 72.2395V50.5053C44.5844 42.7657 50.874 36.4634 58.5956 36.4634Z" fill="#0F9BE7"/>
<path fill-rule="evenodd" clip-rule="evenodd" d="M58.5956 40.6763H149.566C152.166 40.6809 154.658 41.7179 156.496 43.5602C158.335 45.4024 159.37 47.8998 159.374 50.5053V184.625C159.37 187.231 158.335 189.728 156.496 191.571C154.658 193.413 152.166 194.45 149.566 194.455H58.5956C55.9959 194.45 53.504 193.413 51.6657 191.571C49.8275 189.728 48.7927 187.231 48.7881 184.625V50.5053C48.7927 47.8999 49.8275 45.4025 51.6657 43.5602C53.504 41.7179 55.9959 40.6809 58.5956 40.6763Z" fill="white"/>
<path fill-rule="evenodd" clip-rule="evenodd" d="M58.5956 44.8901H149.566C151.051 44.8942 152.474 45.4871 153.524 46.5392C154.574 47.5913 155.165 49.0172 155.17 50.5053V184.625C155.166 186.114 154.574 187.54 153.524 188.592C152.474 189.645 151.051 190.238 149.566 190.242H58.5956C57.1109 190.237 55.6882 189.644 54.6386 188.592C53.5889 187.539 52.9976 186.113 52.9938 184.625V50.5053C52.9978 49.0175 53.5893 47.5918 54.6389 46.5396C55.6886 45.4875 57.111 44.8945 58.5956 44.8901Z" fill="#E9EFF8"/>
<path d="M126.002 37.6691H82.1627V39.561H126.002V37.6691Z" fill="white"/>
<path fill-rule="evenodd" clip-rule="evenodd" d="M80.2749 62.8724C80.2915 65.2182 79.6136 67.5163 78.3271 69.4761C77.0405 71.4359 75.203 72.9694 73.0469 73.8826C70.8908 74.7959 68.5129 75.0479 66.2139 74.6068C63.9148 74.1657 61.7979 73.0513 60.1308 71.4046C58.4637 69.7578 57.3212 67.6527 56.8479 65.3552C56.3745 63.0578 56.5915 60.6712 57.4714 58.4974C58.3514 56.3235 59.8547 54.46 61.7913 53.1423C63.728 51.8247 66.011 51.1122 68.3517 51.0948C69.9063 51.0833 71.4479 51.3788 72.8885 51.9645C74.3291 52.5502 75.6405 53.4146 76.7477 54.5083C77.8549 55.6019 78.7363 56.9035 79.3415 58.3387C79.9467 59.7738 80.2639 61.3144 80.2749 62.8724Z" fill="#D0D9EE"/>
<path fill-rule="evenodd" clip-rule="evenodd" d="M71.7681 57.3426C71.7729 58.0108 71.58 58.6654 71.2136 59.2237C70.8472 59.782 70.3239 60.2188 69.7098 60.479C69.0957 60.7393 68.4184 60.8111 67.7635 60.6855C67.1086 60.56 66.5056 60.2426 66.0307 59.7736C65.5559 59.3046 65.2304 58.7049 65.0956 58.0505C64.9607 57.3961 65.0225 56.7164 65.2731 56.0972C65.5238 55.478 65.952 54.9472 66.5036 54.5719C67.0553 54.1966 67.7056 53.9936 68.3723 53.9887C68.815 53.9854 69.2541 54.0694 69.6644 54.2362C70.0747 54.4029 70.4482 54.649 70.7636 54.9605C71.0789 55.272 71.33 55.6427 71.5023 56.0514C71.6747 56.4601 71.765 56.8989 71.7681 57.3426Z" fill="white"/>
<path fill-rule="evenodd" clip-rule="evenodd" d="M68.4297 61.9012C67.6083 61.907 66.796 62.0749 66.0393 62.3953C65.2826 62.7158 64.5963 63.1825 64.0195 63.7688C63.4428 64.3551 62.987 65.0495 62.6781 65.8123C62.3692 66.5752 62.2133 67.3916 62.2192 68.2149C62.2225 68.6511 62.3984 69.0682 62.7083 69.3745C63.0181 69.6808 63.4367 69.8513 63.8719 69.8486L73.0984 69.7817C73.3143 69.7805 73.5278 69.7367 73.7267 69.6527C73.9257 69.5687 74.1062 69.4463 74.2578 69.2923C74.4095 69.1384 74.5294 68.956 74.6107 68.7556C74.692 68.5552 74.7331 68.3407 74.7316 68.1243C74.7259 67.3009 74.5582 66.4867 74.2384 65.7283C73.9185 64.9698 73.4526 64.282 72.8674 63.7041C72.2821 63.1261 71.589 62.6695 70.8276 62.3601C70.0661 62.0508 69.2513 61.8948 68.4297 61.9012Z" fill="white"/>
<path fill-rule="evenodd" clip-rule="evenodd" d="M149.044 60.0813H139.84C139.708 60.0813 139.577 60.0553 139.455 60.0047C139.334 59.9542 139.223 59.88 139.13 59.7866C139.036 59.6932 138.962 59.5823 138.912 59.4602C138.862 59.3381 138.836 59.2073 138.836 59.0751C138.836 58.943 138.862 58.8122 138.912 58.6901C138.962 58.568 139.036 58.4571 139.13 58.3637C139.223 58.2703 139.334 58.1961 139.455 58.1456C139.577 58.095 139.708 58.069 139.84 58.069H149.044C149.179 58.0647 149.313 58.0875 149.439 58.1362C149.564 58.1848 149.679 58.2583 149.776 58.3522C149.872 58.4461 149.949 58.5585 150.002 58.6828C150.054 58.8071 150.082 58.9407 150.082 59.0757C150.082 59.2106 150.054 59.3442 150.002 59.4685C149.949 59.5928 149.872 59.7052 149.776 59.7991C149.679 59.893 149.564 59.9665 149.439 60.0152C149.313 60.0638 149.179 60.0867 149.044 60.0823V60.0813ZM110.044 71.5863H84.5042C84.2377 71.5863 83.9821 71.4801 83.7936 71.2913C83.6051 71.1024 83.4993 70.8462 83.4993 70.5791C83.4993 70.3119 83.6051 70.0558 83.7936 69.8669C83.9821 69.678 84.2377 69.5719 84.5042 69.5719H110.044C110.311 69.5719 110.567 69.678 110.755 69.8669C110.943 70.0558 111.049 70.3119 111.049 70.5791C111.049 70.8462 110.943 71.1024 110.755 71.2913C110.567 71.4801 110.311 71.5863 110.044 71.5863ZM139.038 71.5863H114.161C113.894 71.5863 113.639 71.4801 113.45 71.2913C113.262 71.1024 113.156 70.8462 113.156 70.5791C113.156 70.3119 113.262 70.0558 113.45 69.8669C113.639 69.678 113.894 69.5719 114.161 69.5719H139.035C139.301 69.5719 139.557 69.678 139.745 69.8669C139.934 70.0558 140.04 70.3119 140.04 70.5791C140.04 70.8462 139.934 71.1024 139.745 71.2913C139.557 71.4801 139.301 71.5863 139.035 71.5863H139.038ZM100.317 65.8343H84.5084C84.2421 65.8343 83.9867 65.7283 83.7985 65.5396C83.6102 65.3509 83.5044 65.095 83.5044 64.8281C83.5044 64.5613 83.6102 64.3054 83.7985 64.1167C83.9867 63.928 84.2421 63.822 84.5084 63.822H100.317C100.583 63.822 100.839 63.928 101.027 64.1167C101.215 64.3054 101.321 64.5613 101.321 64.8281C101.321 65.095 101.215 65.3509 101.027 65.5396C100.839 65.7283 100.583 65.8343 100.317 65.8343ZM149.044 65.8343H104.737C104.471 65.8343 104.216 65.7283 104.027 65.5396C103.839 65.3509 103.733 65.095 103.733 64.8281C103.733 64.5613 103.839 64.3054 104.027 64.1167C104.216 63.928 104.471 63.822 104.737 63.822H149.044C149.311 63.822 149.566 63.928 149.754 64.1167C149.943 64.3054 150.048 64.5613 150.048 64.8281C150.048 65.095 149.943 65.3509 149.754 65.5396C149.566 65.7283 149.311 65.8343 149.044 65.8343ZM135.579 60.0813H84.5042C84.238 60.0813 83.9826 59.9753 83.7943 59.7866C83.6061 59.5979 83.5003 59.342 83.5003 59.0751C83.5003 58.8083 83.6061 58.5524 83.7943 58.3637C83.9826 58.175 84.238 58.069 84.5042 58.069H135.579C135.84 58.0774 136.088 58.1871 136.269 58.375C136.451 58.5628 136.552 58.8141 136.552 59.0757C136.552 59.3372 136.451 59.5885 136.269 59.7764C136.088 59.9643 135.84 60.074 135.579 60.0823V60.0813Z" fill="white"/>
<path fill-rule="evenodd" clip-rule="evenodd" d="M148.68 81.4184H135.938C135.169 81.4184 134.546 80.9688 134.546 80.4122C134.546 79.8556 135.169 79.405 135.938 79.405H148.68C149.449 79.405 150.072 79.8556 150.072 80.4122C150.072 80.9688 149.449 81.4184 148.68 81.4184ZM94.6844 92.9213H59.3336C58.5658 92.9213 57.9437 92.4686 57.9437 91.913C57.9437 91.3575 58.5658 90.9069 59.3336 90.9069H94.6875C95.4553 90.9069 96.0784 91.3575 96.0784 91.913C96.0784 92.4686 95.4553 92.9213 94.6875 92.9213H94.6844ZM134.822 92.9213H100.389C99.621 92.9213 98.9989 92.4686 98.9989 91.913C98.9989 91.3575 99.621 90.9069 100.389 90.9069H134.824C135.593 90.9069 136.216 91.3575 136.216 91.913C136.216 92.4686 135.593 92.9213 134.824 92.9213H134.822ZM81.2204 87.1703H59.3336C58.5658 87.1703 57.9437 86.7187 57.9437 86.1631C57.9437 85.6076 58.5658 85.156 59.3336 85.156H81.2224C81.9903 85.156 82.6134 85.6066 82.6134 86.1631C82.6134 86.7197 81.9903 87.1703 81.2224 87.1703H81.2204ZM148.678 87.1703H87.3416C86.5737 87.1703 85.9506 86.7187 85.9506 86.1631C85.9506 85.6076 86.5737 85.156 87.3416 85.156H148.68C149.449 85.156 150.072 85.6066 150.072 86.1631C150.072 86.7197 149.449 87.1703 148.68 87.1703H148.678ZM130.04 81.4184H59.3336C58.5658 81.4184 57.9437 80.9688 57.9437 80.4122C57.9437 79.8556 58.5658 79.405 59.3336 79.405H130.042C130.81 79.405 131.433 79.8556 131.433 80.4122C131.433 80.9688 130.807 81.4184 130.04 81.4184Z" fill="white"/>
<path fill-rule="evenodd" clip-rule="evenodd" d="M148.68 99.3429H135.938C135.169 99.3429 134.546 98.8923 134.546 98.3368C134.546 97.7812 135.169 97.3296 135.938 97.3296H148.68C149.449 97.3296 150.072 97.7802 150.072 98.3378C150.072 98.8954 149.449 99.345 148.68 99.344V99.3429ZM94.6844 110.845H59.3336C58.5658 110.845 57.9437 110.393 57.9437 109.837C57.9437 109.28 58.5658 108.83 59.3336 108.83H94.6875C95.4553 108.83 96.0784 109.281 96.0784 109.837C96.0784 110.392 95.4553 110.845 94.6875 110.845H94.6844ZM134.822 110.845H100.389C99.621 110.845 98.9989 110.393 98.9989 109.837C98.9989 109.28 99.621 108.83 100.389 108.83H134.824C135.593 108.83 136.216 109.281 136.216 109.837C136.216 110.392 135.593 110.845 134.824 110.845H134.822ZM81.2204 105.094H59.3336C58.5658 105.094 57.9437 104.642 57.9437 104.087C57.9437 103.531 58.5637 103.085 59.3336 103.085H81.2224C81.9903 103.085 82.6134 103.536 82.6134 104.092C82.6134 104.647 81.9903 105.1 81.2224 105.099L81.2204 105.094ZM148.678 105.094H87.3416C86.5737 105.094 85.9506 104.642 85.9506 104.087C85.9506 103.531 86.5737 103.079 87.3416 103.079H148.68C149.449 103.079 150.072 103.531 150.072 104.087C150.072 104.642 149.449 105.095 148.68 105.094H148.678ZM130.038 99.3429H59.3336C58.5658 99.3429 57.9437 98.8923 57.9437 98.3368C57.9437 97.7812 58.5658 97.3296 59.3336 97.3296H130.042C130.81 97.3296 131.433 97.7802 131.433 98.3378C131.433 98.8954 130.807 99.344 130.04 99.3429H130.038Z" fill="white"/>
<path fill-rule="evenodd" clip-rule="evenodd" d="M148.68 117.267H135.938C135.169 117.267 134.546 116.816 134.546 116.26C134.546 115.705 135.169 115.253 135.938 115.253H148.68C149.449 115.253 150.072 115.705 150.072 116.261C150.072 116.818 149.449 117.269 148.68 117.268V117.267ZM94.6844 128.769H59.3336C58.5658 128.769 57.9437 128.318 57.9437 127.762C57.9437 127.207 58.5658 126.755 59.3336 126.755H94.6875C95.4553 126.755 96.0784 127.206 96.0784 127.762C96.0784 128.319 95.4553 128.769 94.6875 128.769H94.6844ZM134.822 128.769H100.389C99.621 128.769 98.9989 128.318 98.9989 127.762C98.9989 127.207 99.621 126.755 100.389 126.755H134.824C135.593 126.755 136.216 127.206 136.216 127.762C136.216 128.319 135.593 128.769 134.824 128.769H134.822ZM81.2204 123.017H59.3336C58.5658 123.017 57.9437 122.568 57.9437 122.011C57.9437 121.455 58.5658 121.005 59.3336 121.005H81.2224C81.9903 121.005 82.6134 121.455 82.6134 122.011C82.6134 122.568 81.9903 123.018 81.2224 123.017H81.2204ZM148.678 123.017H87.3416C86.5737 123.017 85.9506 122.568 85.9506 122.011C85.9506 121.455 86.5737 121.005 87.3416 121.005H148.68C149.449 121.005 150.072 121.455 150.072 122.011C150.072 122.568 149.449 123.018 148.68 123.017H148.678ZM130.038 117.267H59.3336C58.5658 117.267 57.9437 116.816 57.9437 116.26C57.9437 115.705 58.5658 115.253 59.3336 115.253H130.042C130.81 115.253 131.433 115.705 131.433 116.261C131.433 116.818 130.807 117.268 130.04 117.267H130.038Z" fill="white"/>
<path fill-rule="evenodd" clip-rule="evenodd" d="M148.68 135.191H135.938C135.169 135.191 134.546 134.741 134.546 134.184C134.546 133.626 135.169 133.178 135.938 133.178H148.68C149.449 133.178 150.072 133.628 150.072 134.184C150.072 134.739 149.449 135.191 148.68 135.191ZM94.6844 146.694H59.3336C58.5658 146.694 57.9437 146.241 57.9437 145.686C57.9437 145.13 58.5658 144.68 59.3336 144.68H94.6875C95.4553 144.68 96.0784 145.13 96.0784 145.686C96.0784 146.241 95.4553 146.694 94.6875 146.694H94.6844ZM134.822 146.694H100.389C99.621 146.694 98.9989 146.241 98.9989 145.686C98.9989 145.13 99.621 144.68 100.389 144.68H134.824C135.593 144.68 136.216 145.13 136.216 145.686C136.216 146.241 135.593 146.694 134.824 146.694H134.822ZM81.2224 140.944H59.3336C58.5658 140.944 57.9437 140.493 57.9437 139.938C57.9437 139.382 58.5658 138.931 59.3336 138.931H81.2224C81.9903 138.931 82.6134 139.382 82.6134 139.938C82.6134 140.493 81.9903 140.944 81.2224 140.944ZM148.68 140.944H87.3416C86.5737 140.944 85.9506 140.493 85.9506 139.938C85.9506 139.382 86.5737 138.931 87.3416 138.931H148.68C149.449 138.931 150.072 139.382 150.072 139.938C150.072 140.493 149.449 140.944 148.68 140.944ZM130.04 135.193H59.3336C58.5658 135.193 57.9437 134.744 57.9437 134.186C57.9437 133.628 58.5658 133.18 59.3336 133.18H130.042C130.81 133.18 131.433 133.63 131.433 134.186C131.433 134.741 130.807 135.191 130.04 135.191V135.193Z" fill="white"/>
<path fill-rule="evenodd" clip-rule="evenodd" d="M148.68 153.115H135.938C135.169 153.115 134.546 152.665 134.546 152.11C134.546 151.554 135.169 151.102 135.938 151.102H148.68C149.449 151.102 150.072 151.553 150.072 152.111C150.072 152.668 149.449 153.118 148.68 153.116V153.115ZM94.6844 164.618H59.3336C58.5658 164.618 57.9437 164.167 57.9437 163.609C57.9437 163.052 58.5658 162.604 59.3336 162.604H94.6875C95.4553 162.604 96.0784 163.054 96.0784 163.609C96.0784 164.165 95.4553 164.618 94.6875 164.618H94.6844ZM134.822 164.618H100.389C99.621 164.618 98.9989 164.167 98.9989 163.609C98.9989 163.052 99.621 162.604 100.389 162.604H134.824C135.593 162.604 136.216 163.054 136.216 163.609C136.216 164.165 135.593 164.618 134.824 164.618H134.822ZM81.2204 158.867H59.3336C58.5658 158.867 57.9437 158.415 57.9437 157.86C57.9437 157.304 58.5658 156.853 59.3336 156.853H81.2224C81.9903 156.853 82.6134 157.304 82.6134 157.86C82.6134 158.415 81.9903 158.868 81.2224 158.867H81.2204ZM148.678 158.867H87.3416C86.5737 158.867 85.9506 158.415 85.9506 157.86C85.9506 157.304 86.5737 156.853 87.3416 156.853H148.68C149.449 156.853 150.072 157.304 150.072 157.86C150.072 158.415 149.449 158.868 148.68 158.867H148.678ZM130.038 153.115H59.3336C58.5658 153.115 57.9437 152.665 57.9437 152.11C57.9437 151.554 58.5658 151.102 59.3336 151.102H130.042C130.81 151.102 131.433 151.553 131.433 152.111C131.433 152.668 130.807 153.117 130.04 153.115H130.038Z" fill="white"/>
<path fill-rule="evenodd" clip-rule="evenodd" d="M148.68 171.039H135.938C135.169 171.039 134.546 170.59 134.546 170.033C134.546 169.477 135.169 169.027 135.938 169.027H148.68C149.449 169.027 150.072 169.479 150.072 170.035C150.072 170.592 149.449 171.042 148.68 171.041V171.039ZM94.6844 182.541H59.3336C58.5658 182.541 57.9437 182.091 57.9437 181.535C57.9437 180.979 58.5658 180.528 59.3336 180.528H94.6875C95.4553 180.528 96.0784 180.978 96.0784 181.535C96.0784 182.092 95.4553 182.541 94.6875 182.541H94.6844ZM134.822 182.541H100.389C99.621 182.541 98.9989 182.091 98.9989 181.535C98.9989 180.979 99.621 180.528 100.389 180.528H134.824C135.593 180.528 136.216 180.978 136.216 181.535C136.216 182.092 135.593 182.541 134.824 182.541H134.822ZM81.2204 176.79H59.3336C58.5658 176.79 57.9437 176.341 57.9437 175.783C57.9437 175.225 58.5658 174.778 59.3336 174.778H81.2224C81.9903 174.778 82.6134 175.227 82.6134 175.783C82.6134 176.339 81.9903 176.791 81.2224 176.79H81.2204ZM148.678 176.79H87.3416C86.5737 176.79 85.9506 176.341 85.9506 175.783C85.9506 175.225 86.5737 174.778 87.3416 174.778H148.68C149.449 174.778 150.072 175.227 150.072 175.783C150.072 176.339 149.449 176.791 148.68 176.79H148.678ZM130.038 171.039H59.3336C58.5658 171.039 57.9437 170.59 57.9437 170.033C57.9437 169.477 58.5637 169.03 59.3336 169.03H130.042C130.81 169.03 131.433 169.482 131.433 170.038C131.433 170.595 130.807 171.04 130.04 171.039H130.038Z" fill="white"/>
<path fill-rule="evenodd" clip-rule="evenodd" d="M18.7178 178.117L9.98408 209.36H7.45984L16.1946 178.117H18.7178Z" fill="#C19274"/>
<path fill-rule="evenodd" clip-rule="evenodd" d="M37.7384 178.117L29.0047 209.36H26.4794L35.2142 178.117H37.7384Z" fill="#C19274"/>
<path fill-rule="evenodd" clip-rule="evenodd" d="M35.2142 178.117L34.7677 179.715H18.2703L18.7178 178.117H35.2142Z" fill="#9D7558"/>
<path fill-rule="evenodd" clip-rule="evenodd" d="M15.8127 188.509H32.3081L31.8369 190.197H15.3405L15.8127 188.509Z" fill="#C19274"/>
<path fill-rule="evenodd" clip-rule="evenodd" d="M12.883 198.989H29.3784L28.9052 200.678H12.4108L12.883 198.989Z" fill="#C19274"/>
<path fill-rule="evenodd" clip-rule="evenodd" d="M90.5772 178.117L99.311 209.36H101.836L93.1015 178.117H90.5772Z" fill="#C19274"/>
<path fill-rule="evenodd" clip-rule="evenodd" d="M71.5576 178.117L80.2914 209.36H82.8156L74.0808 178.117H71.5576Z" fill="#C19274"/>
<path fill-rule="evenodd" clip-rule="evenodd" d="M74.0808 178.117L74.5274 179.715H91.0237L90.5772 178.117H74.0808Z" fill="#9D7558"/>
<path fill-rule="evenodd" clip-rule="evenodd" d="M93.4823 188.509H76.9859L77.4581 190.197H93.9545L93.4823 188.509Z" fill="#C19274"/>
<path fill-rule="evenodd" clip-rule="evenodd" d="M96.413 198.989H79.9166L80.3888 200.678H96.8852L96.413 198.989Z" fill="#C19274"/>
<path d="M104.192 174.893H2.31281V179.794H104.192V174.893Z" fill="#C19274"/>
<path fill-rule="evenodd" clip-rule="evenodd" d="M169.605 202.029L169.583 205.268L166.12 203.998C166.12 203.998 164.199 200.99 161.706 196.974C163.286 196.287 164.928 195.702 166.577 195.101C168.278 199.146 169.605 202.029 169.605 202.029Z" fill="#F5B58B"/>
<path fill-rule="evenodd" clip-rule="evenodd" d="M165.904 203.789C165.904 203.789 167.644 203.29 168.06 202.896C168.476 202.502 168.73 201.532 169.42 201.558C170.11 201.585 172.565 203.856 172.767 204.556C172.979 205.295 172.939 206.269 172.507 206.661C172.075 207.053 164.464 211.959 162.917 212.449C161.37 212.939 160.048 211.806 161.11 210.307C162.173 208.808 164.886 203.751 165.904 203.789Z" fill="#142D4D"/>
<path fill-rule="evenodd" clip-rule="evenodd" d="M179.541 162.049C179.541 162.049 149.155 166.085 148.657 169.912C147.504 178.862 164.375 202.378 164.375 202.378L169.118 200.302L160.604 175.598C160.604 175.598 174.179 174.254 175.386 173.404C176.594 172.555 179.541 162.049 179.541 162.049Z" fill="#0F3970"/>
<path fill-rule="evenodd" clip-rule="evenodd" d="M191.067 221.265L190.512 224.454L187.306 222.63C187.306 222.63 185.901 219.346 184.1 214.967C185.775 214.555 187.487 214.246 189.214 213.925C190.234 218.198 191.067 221.265 191.067 221.265Z" fill="#F5B58B"/>
<path fill-rule="evenodd" clip-rule="evenodd" d="M187.126 222.391C187.126 222.391 188.927 222.186 189.409 221.87C189.89 221.554 190.296 220.635 190.968 220.778C191.64 220.921 193.692 223.556 193.774 224.276C193.863 225.041 193.662 225.994 193.172 226.316C192.682 226.638 182.701 230.65 181.1 230.879C179.499 231.107 179.252 229.449 180.549 228.15C181.845 226.852 186.129 222.18 187.126 222.391Z" fill="#142D4D"/>
<path fill-rule="evenodd" clip-rule="evenodd" d="M174.035 164.969L176.898 161.219C176.898 161.219 185.646 162.535 186.778 166.49C187.91 170.445 186.084 195.409 186.084 195.409C186.084 195.409 189.485 212.507 190.967 218.711C189.241 219.028 186.831 219.524 185.155 219.939C182.037 212.359 175.619 195.865 175.619 195.865L172.848 173.137L174.035 164.969Z" fill="#0F3970"/>
<path fill-rule="evenodd" clip-rule="evenodd" d="M146.051 157.976C147.967 157.883 147.907 158.215 148.154 158.191C148.44 158.172 151.542 155.775 151.542 155.775C151.542 155.775 160.697 148.779 161.177 148.385L166.892 137.837L172.846 139.237C172.846 139.237 166.329 150.54 165.886 151.068C165.442 151.597 151.982 159.587 150.816 160.335C150.816 160.335 149.752 161.739 149.056 162.598C148.36 163.457 147.321 163.956 147.086 164.17C146.45 164.661 145.755 165.071 145.018 165.391C143.967 165.862 144.751 164.938 144.751 164.938C144.751 164.938 146.546 163.717 146.427 163.594C146.335 163.491 145.394 164.211 144.239 164.744C143.94 164.879 143.649 165.006 143.379 165.125C142.668 165.433 142.272 165.09 142.968 164.637C143.28 164.433 143.607 164.251 143.945 164.093C144.292 163.937 144.561 163.681 144.832 163.519C145.369 163.18 145.767 162.937 145.742 162.925C145.717 162.914 145.768 162.763 145.447 162.898C145.061 163.057 144.318 163.582 143.734 163.775C143.404 163.885 142.728 164.153 142.728 164.153C142.728 164.153 141.579 164.467 141.549 164.404C141.363 164.077 142.124 163.611 142.589 163.528C142.86 163.311 143.579 163.053 143.579 163.053C143.579 163.053 144.914 162.187 144.803 161.993C144.707 161.829 141.107 163.268 140.941 162.929C140.809 162.647 141.874 162.163 141.874 162.163C141.874 162.163 142.541 161.923 142.758 161.823C143.008 161.709 143.741 161.303 143.741 161.303C143.741 161.303 146.216 159.788 146.089 159.61C145.962 159.432 145.462 159.121 145.277 159.163C145.092 159.205 144.786 159.459 144.606 159.492C144.497 159.513 144.384 159.495 144.287 159.441C144.191 159.387 144.115 159.301 144.075 159.198C144.011 158.966 144.835 158.427 144.835 158.427C144.835 158.427 145.498 158 146.051 157.976Z" fill="#F4AE7C"/>
<path fill-rule="evenodd" clip-rule="evenodd" d="M164.616 140.781L170.743 144.251C170.743 144.251 173.367 139.037 174.479 136.486C175.827 133.395 177.196 129.311 176.791 129.235C175.655 129.03 174.122 128.985 172.787 129.773C168.186 132.514 164.616 140.781 164.616 140.781Z" fill="#9BDEF6"/>
<path fill-rule="evenodd" clip-rule="evenodd" d="M194.501 171.8C195.569 170.051 195.811 170.302 195.939 170.066C196.095 169.794 195.922 165.624 195.922 165.624C195.922 165.624 195.495 153.309 195.449 152.643L189.978 141.275L194.707 136.813C194.707 136.813 200.336 149.344 200.517 150.057C200.698 150.77 199.4 167.498 199.331 168.979C199.331 168.979 199.878 170.769 200.185 171.903C200.492 173.038 200.298 174.255 200.336 174.578C200.373 175.44 200.307 176.304 200.138 177.15C199.901 178.359 199.588 177.104 199.588 177.104C199.588 177.104 199.633 174.789 199.459 174.817C199.32 174.836 199.366 176.11 199.122 177.45C199.058 177.788 198.991 178.135 198.932 178.443C198.774 179.266 198.241 179.399 198.276 178.52C198.287 178.117 198.327 177.716 198.396 177.319C198.476 176.925 198.426 176.542 198.444 176.194C198.48 175.52 198.515 175.023 198.485 175.033C198.456 175.043 198.364 174.911 198.286 175.277C198.192 175.717 198.192 176.691 198.004 177.319C197.901 177.675 197.724 178.443 197.724 178.443C197.724 178.443 197.244 179.549 197.172 179.54C196.785 179.513 196.906 178.659 197.11 178.19C197.093 177.825 197.303 177.029 197.303 177.029C197.303 177.029 197.376 175.323 197.138 175.304C197.041 175.304 196.875 176.345 196.558 177.348C196.262 178.274 195.818 179.166 195.634 179.129C195.32 179.081 195.541 178.013 195.541 178.013C195.541 178.013 195.733 177.282 195.781 177.029C195.835 176.739 195.933 175.848 195.933 175.848C195.933 175.848 196.132 172.737 195.907 172.746C195.682 172.755 195.122 173.018 195.043 173.205C194.964 173.392 195.001 173.814 194.924 174.002C194.847 174.19 194.589 174.367 194.359 174.292C194.129 174.217 194.16 173.161 194.16 173.161C194.16 173.161 194.193 172.316 194.501 171.8Z" fill="#F4AE7C"/>
<path fill-rule="evenodd" clip-rule="evenodd" d="M148.363 159.756C147.567 160.071 146.812 160.058 146.084 159.617C146.629 160.428 147.802 160.359 148.363 159.756Z" fill="#EF8857"/>
<path fill-rule="evenodd" clip-rule="evenodd" d="M184.012 128.032C184.012 128.032 187.719 128.546 188.693 129.266C189.79 130.073 193.193 133.85 193.193 133.85C193.193 133.85 186.109 154.168 186.387 157.786C186.664 161.405 187.445 166.767 187.445 166.767C187.445 166.767 173.597 167.647 168.391 165.586C168.391 165.586 170.136 157.375 170.136 155.229C170.136 153.083 171.059 131.567 171.714 130.44C172.369 129.314 173.699 128.679 176.211 128.125C178.723 127.572 184.012 128.032 184.012 128.032Z" fill="#B5E1F1"/>
<path fill-rule="evenodd" clip-rule="evenodd" d="M197.791 141.134L191.595 145.98C191.595 145.98 188.859 143.357 187.482 140.441C186.093 137.498 187.313 128.904 188.793 129.297C192.104 130.197 197.791 141.134 197.791 141.134Z" fill="#9BDEF6"/>
<path fill-rule="evenodd" clip-rule="evenodd" d="M182.867 124.753C183 124.372 183.14 123.892 183.285 123.313C185.767 121.625 186.106 120.376 184.303 119.565C183.939 119.771 183.488 120.399 182.949 121.451C182.519 121.433 182.193 121.212 181.972 120.79C182.483 119.012 182.816 117.568 182.97 116.459C181.749 114.638 178.891 114.377 175.105 114.868C174.929 115.879 174.785 116.948 174.672 118.077C174.003 118.694 174.09 120.987 174.706 123.627C174.398 125.129 175.322 125.948 177.477 126.085C177.508 126.617 177.299 127.298 177.283 127.377C177.2 127.723 177.095 131.801 177.078 132.091C176.89 135.647 185.418 133.102 182.867 124.753Z" fill="#F4AE7C"/>
<path fill-rule="evenodd" clip-rule="evenodd" d="M175.103 114.863C178.89 114.372 181.75 114.631 182.971 116.453C182.817 117.563 182.484 119.007 181.972 120.785C182.193 121.207 182.519 121.428 182.949 121.446C183.489 120.392 183.94 119.763 184.303 119.559C186.106 120.369 185.767 121.619 183.285 123.308C183.14 123.89 183 124.37 182.866 124.748C185.097 124.247 186.966 122.246 187.228 121.381C189.832 116.237 186.929 114.066 185.374 113.273C184.689 108.179 177.309 112.681 173.61 110.227C172.141 112.266 173.958 114.818 175.103 114.863Z" fill="#0F3970"/>
<path fill-rule="evenodd" clip-rule="evenodd" d="M180.285 126.014C179.353 126.097 178.416 126.119 177.481 126.08C177.485 126.44 177.439 126.798 177.345 127.145C178.684 127.11 179.664 126.733 180.285 126.014Z" fill="#ED7D5B"/>
<path fill-rule="evenodd" clip-rule="evenodd" d="M178.482 119.679C178.829 119.782 179.475 118.529 178.632 118.292C178.184 118.164 177.914 119.517 178.482 119.679Z" fill="#0F3970"/>
<path fill-rule="evenodd" clip-rule="evenodd" d="M174.884 118.858C175.24 118.916 175.745 117.607 174.884 117.463C174.42 117.385 174.305 118.76 174.884 118.858Z" fill="#0F3970"/>
<path fill-rule="evenodd" clip-rule="evenodd" d="M175.801 121.108L175.781 121.101C175.31 120.945 175.062 120.855 174.991 120.664C174.92 120.472 175.028 120.309 175.214 119.985C175.557 119.408 175.839 118.797 176.057 118.162C176.068 118.13 176.092 118.103 176.122 118.089C176.153 118.074 176.188 118.071 176.22 118.082C176.252 118.094 176.278 118.117 176.292 118.147C176.307 118.178 176.309 118.213 176.298 118.245C176.077 118.897 175.788 119.523 175.436 120.114C175.313 120.327 175.208 120.509 175.23 120.571C175.262 120.657 175.596 120.77 175.862 120.859C175.894 120.87 175.92 120.894 175.935 120.924C175.951 120.955 175.953 120.99 175.943 121.023C175.933 121.052 175.914 121.076 175.888 121.092C175.862 121.107 175.831 121.113 175.801 121.108Z" fill="#ED7D5B"/>
<path fill-rule="evenodd" clip-rule="evenodd" d="M175.582 117.149C175.665 117.166 175.749 117.165 175.831 117.147C175.913 117.129 175.99 117.095 176.059 117.046C176.367 116.805 176.049 116.471 175.729 116.309C175.08 115.979 174.169 116.103 173.433 116.379C173.399 116.392 173.37 116.416 173.35 116.446C173.33 116.477 173.319 116.513 173.321 116.549C173.322 116.586 173.334 116.621 173.356 116.65C173.378 116.679 173.408 116.701 173.443 116.712C173.792 116.822 174.421 116.973 175.582 117.149Z" fill="#0F3970"/>
<path fill-rule="evenodd" clip-rule="evenodd" d="M178.911 117.976C178.834 117.946 178.762 117.9 178.702 117.842C178.642 117.784 178.594 117.715 178.56 117.638C178.432 117.27 178.874 117.153 179.232 117.188C179.957 117.252 180.669 117.842 181.14 118.468C181.162 118.498 181.174 118.533 181.174 118.57C181.175 118.607 181.165 118.643 181.145 118.673C181.124 118.704 181.095 118.727 181.061 118.741C181.027 118.754 180.99 118.756 180.954 118.748C180.606 118.655 179.987 118.445 178.911 117.976Z" fill="#0F3970"/>
<path fill-rule="evenodd" clip-rule="evenodd" d="M177.805 122.765C176.669 122.653 176.053 122.472 174.981 122.088C174.55 121.933 175.083 125.432 177.848 122.951C177.913 122.891 177.898 122.772 177.805 122.765Z" fill="#ED7D5B"/>
<path fill-rule="evenodd" clip-rule="evenodd" d="M177.725 122.814C178.066 123.277 175.466 123.02 175.056 122.552C175.011 122.5 174.88 122.244 174.944 122.181C175.008 122.118 175.293 122.277 175.372 122.307C176.127 122.591 176.92 122.762 177.725 122.814Z" fill="white"/>
<path fill-rule="evenodd" clip-rule="evenodd" d="M26.7659 177.145C24.6409 176.395 24.4695 175.293 23.3249 174.763C22.1803 174.232 22.0397 173.262 23.1668 172.217C24.0004 172.884 25.0331 173.704 25.5792 173.27C25.9457 172.98 27.1847 172.998 27.427 173.421C28.5058 175.935 30.0077 175.14 30.3013 176.283C30.3403 177.807 27.7411 177.489 26.7659 177.145Z" fill="#142D4D"/>
<path fill-rule="evenodd" clip-rule="evenodd" d="M45.0104 177.221C41.0881 177.159 38.1573 177.11 36.7982 176.682C35.3374 176.22 35.6402 175.326 36.4789 173.898C40.1744 175.602 39.19 173.549 40.9197 173.809C42.1337 174.788 43.9326 175.445 46.3162 175.78C47.3283 176.525 46.9188 177.188 45.0104 177.221Z" fill="#142D4D"/>
<path fill-rule="evenodd" clip-rule="evenodd" d="M31.4581 81.8309C32.0843 81.8772 33.0718 81.7568 33.2463 81.5336C33.9126 80.6859 34.3755 79.8011 34.5459 79.2435C34.4156 78.8721 34.278 78.405 34.1353 77.8382C31.7223 76.1921 31.3924 74.9764 33.1458 74.1911C33.5002 74.39 33.9389 75.0018 34.4618 76.0265C34.8799 76.01 35.1971 75.7957 35.4134 75.3835C34.9145 73.6538 34.5901 72.2477 34.4402 71.1655C35.6289 69.3939 38.4108 69.1418 42.094 69.6223C42.2644 70.6058 42.4041 71.6466 42.5129 72.7447C43.1647 73.3455 43.0805 75.5738 42.481 78.1417C42.7794 79.6026 41.8795 80.3999 39.7813 80.5336C39.7515 81.048 39.7997 81.6859 39.8326 81.7589C39.886 81.871 40.0728 81.978 40.3305 82.0675C40.4023 84.4818 37.4449 84.4029 31.4581 81.8309Z" fill="#F4AE7C"/>
<path fill-rule="evenodd" clip-rule="evenodd" d="M42.0961 69.6243C38.4129 69.1459 35.6289 69.3979 34.4423 71.1675C34.5935 72.247 34.9179 73.653 35.4154 75.3855C35.1998 75.797 34.8816 76.012 34.4638 76.0285C33.9403 75.0038 33.5016 74.392 33.1478 74.1931C31.3931 74.9812 31.723 76.1969 34.1374 77.8402C34.278 78.4071 34.4156 78.869 34.548 79.2455C32.3769 78.7579 30.5599 76.8114 30.3043 75.9709C27.7718 70.9679 30.5958 68.8547 32.1069 68.0842C32.7752 63.1306 39.9527 67.5091 43.5507 65.1202C44.9765 67.0976 43.2099 69.579 42.0961 69.6243Z" fill="#0F3970"/>
<path fill-rule="evenodd" clip-rule="evenodd" d="M64.1943 90.6075C62.3725 98.4263 59.1714 104.496 54.591 108.817C52.9417 108.315 51.4776 107.183 50.1985 105.422C50.2669 111.08 50.1263 116.71 49.7766 122.312C46.4328 123.899 41.9948 123.796 36.4625 122.003L34.2185 119.237C33.6426 119.125 32.3317 119.762 31.7055 120.735C26.4497 116.722 22.9061 112.401 20.816 108.105C21.3786 98.8838 22.6282 91.6079 24.5649 86.2774C25.5422 84.7685 27.8399 83.2863 31.4581 81.8309C37.4449 84.4036 40.403 84.4838 40.3325 82.0717C42.0933 82.6519 44.4294 83.6773 47.3406 85.1478C49.766 86.9948 51.8331 92.0015 53.5419 100.168C56.3197 96.6791 59.2019 92.9806 62.1884 89.0726C62.8516 89.2605 63.5202 89.7708 64.1943 90.6034V90.6075ZM33.0092 116.739C34.7502 110.997 33.7883 103.912 30.1236 95.485C29.1997 99.6413 28.2026 103.732 27.1323 107.758C28.3778 108.351 30.3368 111.343 33.0092 116.734V116.739Z" fill="#B5E1F1"/>
<path fill-rule="evenodd" clip-rule="evenodd" d="M32.3574 124.216C33.2066 124.147 34.5753 123.409 36.4635 122.002C41.9965 123.796 46.4345 123.899 49.7776 122.311C50.372 131.743 48.0582 141.63 45.1243 152.651C42.2501 157.486 42.3712 160.89 40.8386 172.053C39.9886 172.662 38.5829 172.574 36.6216 171.789C35.9995 162.271 36.4306 155.969 38.8953 152.416C38.5094 149.227 39.5174 141.38 39.5646 136.455C37.7713 140.461 36.5394 145.872 34.2051 151.336C31.3596 157.99 29.3804 165.111 27.8786 171.603C26.2916 171.912 24.8038 171.73 23.4152 171.057C25.0091 160.38 26.7751 153.032 28.7132 149.013C28.6406 138.515 29.6384 129.085 31.7065 120.721C32.0898 121.715 32.3067 122.88 32.3574 124.216Z" fill="#0F3970"/>
<path fill-rule="evenodd" clip-rule="evenodd" d="M36.4625 122.002C34.5757 123.411 33.207 124.149 32.3564 124.216C32.3064 122.879 32.0891 121.717 31.7045 120.73C32.3307 119.758 33.6416 119.12 34.2175 119.232L36.4625 122.002Z" fill="#F4AE7C"/>
<path fill-rule="evenodd" clip-rule="evenodd" d="M50.1975 105.421C50.0148 99.9279 49.5751 95.4243 48.8784 91.9099C50.6509 99.3727 52.369 104.324 54.0326 106.765C55.0838 106.732 56.4156 106.108 58.0279 104.892C57.0065 106.304 55.8555 107.616 54.59 108.813C52.9414 108.311 51.4773 107.18 50.1975 105.421Z" fill="#9BDEF7"/>
<path fill-rule="evenodd" clip-rule="evenodd" d="M34.2185 119.237C33.868 118.379 33.4641 117.544 33.0092 116.738C34.7502 110.996 33.7884 103.912 30.1237 95.485C35.4548 103.08 36.9665 111.177 34.6589 119.777L34.2185 119.237Z" fill="#9BDEF7"/>
<path fill-rule="evenodd" clip-rule="evenodd" d="M37.3658 80.0254C37.9537 80.3176 38.7602 80.4873 39.7854 80.5346C39.7694 80.8666 39.7749 81.1993 39.8018 81.5305C38.7712 81.3316 37.9592 80.8299 37.3658 80.0254Z" fill="#ED7D5B"/>
<path fill-rule="evenodd" clip-rule="evenodd" d="M36.8526 174.064C37.0534 173.383 37.1289 172.671 37.0753 171.963C38.572 172.5 39.7139 172.594 40.5009 172.245C40.4559 172.767 40.5206 173.293 40.6908 173.788C39.3296 173.741 39.9517 175.394 36.8526 174.066V174.064ZM26.9681 173.138C26.4959 173.014 25.8307 173.066 25.5782 173.267C25.0895 173.654 24.2108 173.04 23.4358 172.43C23.577 172.035 23.6879 171.63 23.7674 171.218C24.6943 171.609 25.6965 171.789 26.7012 171.744C26.6889 172.304 26.7782 172.771 26.9691 173.145L26.9681 173.138Z" fill="#F4AE7C"/>
<path fill-rule="evenodd" clip-rule="evenodd" d="M32.3009 125.557C32.359 125.113 32.3779 124.666 32.3574 124.219C33.2066 124.15 34.5754 123.413 36.4635 122.005C36.9131 122.151 37.3535 122.285 37.7877 122.409C36.4601 123.792 34.6311 124.841 32.3009 125.557Z" fill="#142D4D"/>
<path fill-rule="evenodd" clip-rule="evenodd" d="M74.6156 82.6334L73.1313 79.3896L55.2275 87.6158C55.0131 87.7148 54.8466 87.8949 54.7645 88.1167C54.6823 88.3384 54.6912 88.5838 54.7892 88.799L55.5355 90.4214C55.6344 90.636 55.8141 90.8027 56.0353 90.885C56.2565 90.9673 56.5012 90.9586 56.716 90.8606C64.6901 87.1961 66.6405 86.3 74.6156 82.6334Z" fill="#B5E1F1"/>
<path fill-rule="evenodd" clip-rule="evenodd" d="M73.1313 79.3896L74.6157 82.6334L78.2619 78.9956L73.1313 79.3896Z" fill="#F4AE7C"/>
<path fill-rule="evenodd" clip-rule="evenodd" d="M57.298 87.9769L57.7836 89.0376L74.1168 81.5429L73.6312 80.4822L57.298 87.9769Z" fill="#B5E1F1"/>
<path fill-rule="evenodd" clip-rule="evenodd" d="M56.8022 86.8936L58.2876 90.1384L56.7139 90.8585C56.4992 90.9564 56.2545 90.9652 56.0333 90.8829C55.8121 90.8006 55.6324 90.6339 55.5334 90.4192L54.7912 88.7968C54.6933 88.5816 54.6844 88.3363 54.7665 88.1145C54.8487 87.8928 55.0152 87.7127 55.2296 87.6137L56.8022 86.8936Z" fill="#B5E1F1"/>
<path fill-rule="evenodd" clip-rule="evenodd" d="M76.9161 80.3381C75.9539 80.2874 75.7828 79.8875 76.4028 79.1385L78.2639 78.9945L76.9161 80.3381Z" fill="#B5E1F1"/>
<path fill-rule="evenodd" clip-rule="evenodd" d="M62.1884 89.0767C62.2172 87.5078 63.0579 87.122 63.2283 86.263C63.9476 86.5764 64.1334 87.1632 63.7857 88.0232C64.1142 87.7588 64.4376 87.4739 64.7568 87.1652L67.2071 86.0336C66.7676 87.1582 66.2655 88.2573 65.7033 89.3257C65.3214 89.9296 64.7486 89.8144 64.0239 90.4039C63.4079 89.6906 62.7961 89.2482 62.1884 89.0767Z" fill="#F4AE7C"/>
<path fill-rule="evenodd" clip-rule="evenodd" d="M37.5291 73.6726C37.2375 73.7097 36.8752 72.5811 37.5855 72.4926C37.9653 72.4474 38.0074 73.6119 37.5291 73.6726Z" fill="#0F3970"/>
<path fill-rule="evenodd" clip-rule="evenodd" d="M41.7368 73.3876C42.0293 73.3516 42.1258 72.1696 41.4155 72.256C41.0367 72.3023 41.2564 73.4483 41.7368 73.3876Z" fill="#0F3970"/>
<path fill-rule="evenodd" clip-rule="evenodd" d="M37.7128 71.4391C38.1871 71.399 38.2179 71.791 37.8863 71.9381C37.7908 71.9823 35.9225 72.5945 35.9923 72.4669C36.1268 72.2004 36.8166 71.5163 37.7128 71.4391Z" fill="#0F3970"/>
<path fill-rule="evenodd" clip-rule="evenodd" d="M40.8447 71.1716C40.3715 71.2251 40.4126 71.6171 40.7657 71.6953C40.932 71.7313 42.8372 71.9648 42.7038 71.8146C42.4831 71.5688 41.7081 71.0729 40.8447 71.1716Z" fill="#0F3970"/>
<path fill-rule="evenodd" clip-rule="evenodd" d="M41.5459 74.7343C40.9299 75.6417 40.7133 75.189 40.9782 75.0429C41.859 74.5563 40.7729 74.7261 39.7966 73.3064C39.694 73.1551 39.8644 73.043 39.965 73.1562C40.0328 73.2333 40.2494 73.545 40.3294 73.6243C41.3046 74.5872 41.744 74.4421 41.5459 74.7343Z" fill="#ED7D5B"/>
<path fill-rule="evenodd" clip-rule="evenodd" d="M41.5222 76.7528C40.1467 79.3927 38.6644 77.0244 39.0729 76.9585C41.1517 76.6005 41.6906 76.4318 41.5222 76.7528Z" fill="white"/>
<path d="M205.114 80.7363H176.494V109.419H205.114V80.7363Z" fill="#0082C9"/>
<path d="M209.639 80.7363H205.114V109.419H209.639V80.7363Z" fill="#0082C9"/>
<path fill-rule="evenodd" clip-rule="evenodd" d="M177.727 96.0076C177.355 95.5063 177.194 94.8786 177.279 94.2596C177.364 93.6406 177.688 93.0798 178.181 92.6979C178.675 92.316 179.298 92.1435 179.917 92.2176C180.536 92.2917 181.101 92.6064 181.491 93.094L187.641 101.091L200.184 84.836C200.57 84.3354 201.138 84.0088 201.764 83.9281C202.389 83.8474 203.022 84.019 203.521 84.4054C204.02 84.7918 204.346 85.3611 204.427 85.9883C204.507 86.6154 204.336 87.2489 203.951 87.7495L189.532 106.435C189.311 106.727 189.026 106.964 188.699 107.128C188.372 107.291 188.012 107.377 187.647 107.379C187.281 107.38 186.921 107.297 186.592 107.136C186.264 106.975 185.977 106.741 185.754 106.451L177.727 96.0076Z" fill="white"/>
<path fill-rule="evenodd" clip-rule="evenodd" d="M129.866 2.46606L154.728 13.0214L147.767 21.7229L129.866 2.46606Z" fill="#9BDEF6"/>
<path fill-rule="evenodd" clip-rule="evenodd" d="M158.301 8.92476L130.628 2.53186L165.135 5.46185L158.301 8.92476Z" fill="#9BDEF6"/>
<path fill-rule="evenodd" clip-rule="evenodd" d="M158.301 8.9248L157.518 20.4452L154.728 13.0214L129.866 2.46606L130.628 2.53191L158.301 8.9248Z" fill="#90DFFB"/>
<path fill-rule="evenodd" clip-rule="evenodd" d="M157.518 20.4451L151.645 16.8762L154.728 13.0214L157.518 20.4451Z" fill="#B5E1F1"/>
<path fill-rule="evenodd" clip-rule="evenodd" d="M163.952 19.6663C163.141 19.5541 163.336 18.37 164.09 18.4729L165.285 18.6169C166.085 18.727 165.901 19.9142 165.137 19.8093L163.952 19.6663ZM204.36 67.8784C204.515 67.8864 204.661 67.9541 204.766 68.0673C204.872 68.1805 204.931 68.3304 204.929 68.4856C204.927 68.6409 204.865 68.7893 204.757 68.8999C204.648 69.0106 204.501 69.0747 204.346 69.079L203.573 69.0667C202.797 69.0574 202.793 67.8568 203.598 67.8661L204.36 67.8784ZM200.033 67.719C200.74 67.7272 200.827 68.9268 199.952 68.9175L198.746 68.827C197.89 68.7097 198.14 67.5327 198.849 67.6305L200.033 67.719ZM195.326 67.2138C196.068 67.3167 195.952 68.5132 195.132 68.399L195.326 67.2138ZM190.759 66.1511C190.895 66.2127 191.003 66.3229 191.062 66.4602C191.121 66.5974 191.127 66.7519 191.079 66.8934C191.031 67.0348 190.931 67.1532 190.8 67.2252C190.67 67.2972 190.517 67.3177 190.372 67.2828C189.98 67.1521 189.596 67.0101 189.212 66.8548C188.485 66.5328 188.932 65.4577 189.67 65.7447C190.027 65.8918 190.388 66.0235 190.759 66.1459V66.1511ZM186.717 64.0534C187.333 64.5822 186.538 65.4772 185.956 64.9793C185.621 64.703 185.308 64.401 185.02 64.076C184.496 63.4299 185.457 62.7108 185.928 63.2921C186.172 63.5655 186.436 63.8203 186.717 64.0544V64.0534ZM184.518 60.3899C184.615 61.2468 183.416 61.2983 183.335 60.5802C183.263 60.1565 183.221 59.7281 183.211 59.2983C183.22 58.4753 184.417 58.5278 184.409 59.2839C184.417 59.6548 184.454 60.0246 184.518 60.3899ZM184.892 55.9033C184.702 56.6327 183.531 56.3714 183.74 55.572C183.851 55.1801 183.972 54.7758 184.109 54.392C184.417 53.6101 185.509 54.0978 185.238 54.7912C185.11 55.1554 184.995 55.5309 184.89 55.9033H184.892ZM186.596 51.5238C186.288 52.2131 185.177 51.7686 185.512 51.0094C185.686 50.6452 185.862 50.2779 186.045 49.9168C186.493 49.1524 187.468 49.8561 187.116 50.4579C186.937 50.8098 186.765 51.1678 186.596 51.5238ZM188.78 47.2831C188.357 48.0032 187.353 47.352 187.728 46.7101L188.302 45.6535C188.725 44.9333 189.731 45.5876 189.354 46.2317C189.158 46.5732 188.967 46.9354 188.78 47.2831ZM191.063 43.0424C190.619 43.7976 189.64 43.1052 189.997 42.4941L190.533 41.4313C190.606 41.2943 190.73 41.1913 190.878 41.1439C191.026 41.0965 191.186 41.1084 191.326 41.1772C191.465 41.246 191.572 41.3663 191.625 41.5127C191.677 41.6591 191.671 41.8202 191.608 41.9622L191.063 43.0424ZM193.062 38.5795C193.001 38.7154 192.891 38.8234 192.754 38.8826C192.617 38.9417 192.463 38.9477 192.323 38.8995C192.182 38.8512 192.064 38.7521 191.992 38.6214C191.92 38.4908 191.899 38.338 191.933 38.1927C192.058 37.8244 192.171 37.4633 192.274 37.0847C192.473 36.3234 193.633 36.6238 193.432 37.3933C193.323 37.7966 193.202 38.1845 193.067 38.5795H193.062ZM193.721 33.6012C193.809 34.3872 192.619 34.522 192.529 33.737C192.491 33.3635 192.427 32.993 192.34 32.628C192.155 31.8492 193.323 31.5838 193.504 32.344C193.603 32.758 193.675 33.178 193.721 33.6012ZM191.932 28.877C192.393 29.5385 191.399 30.2145 190.956 29.5745C190.739 29.2635 190.506 28.9644 190.257 28.6785C189.72 28.017 190.694 27.3164 191.155 27.8832C191.433 28.1993 191.692 28.5311 191.932 28.877ZM188.355 25.411C188.479 25.5041 188.563 25.6419 188.588 25.7955C188.613 25.9491 188.578 26.1065 188.489 26.2345C188.401 26.3625 188.266 26.4511 188.114 26.4818C187.962 26.5124 187.804 26.4826 187.673 26.3987C187.354 26.1765 187.03 25.9666 186.697 25.7629C186.037 25.375 186.619 24.3226 187.321 24.7341C187.672 24.9501 188.016 25.1724 188.355 25.4079V25.411ZM184.05 23.0572C184.784 23.3812 184.285 24.4738 183.575 24.159C183.215 24.0006 182.85 23.8504 182.486 23.7084C181.757 23.4234 182.178 22.301 182.924 22.5901C183.302 22.7403 183.68 22.8936 184.053 23.0572H184.05ZM179.477 21.4008C180.196 21.5901 179.947 22.766 179.135 22.552L178.001 22.228C177.255 22.0315 177.536 20.8638 178.318 21.0695L179.481 21.4049L179.477 21.4008ZM174.791 20.1951C175.612 20.4132 175.24 21.5531 174.537 21.3689L173.373 21.1241C173.217 21.0926 173.08 21.0003 172.992 20.8675C172.904 20.7348 172.873 20.5725 172.904 20.4163C172.936 20.2601 173.028 20.1228 173.16 20.0346C173.293 19.9464 173.455 19.9146 173.61 19.9461L174.791 20.1951ZM170.051 19.2959C170.796 19.3988 170.679 20.5932 169.859 20.4811L168.682 20.2938C167.925 20.191 168.055 18.9965 168.863 19.1076L170.051 19.2959Z" fill="#B5E1F1"/>
<path fill-rule="evenodd" clip-rule="evenodd" d="M20.9054 119.207C17.097 123.547 15.9421 123.669 11.3022 120.702C15.4083 124.375 15.6034 125.524 12.4611 130.372C16.2706 126.031 17.4265 125.912 22.0654 128.878C17.9644 125.204 17.7652 124.054 20.9054 119.207Z" fill="white"/>
<path fill-rule="evenodd" clip-rule="evenodd" d="M28.0921 54.3623C24.2826 58.7028 23.1268 58.8242 18.4889 55.8571C22.595 59.5309 22.788 60.6791 19.6468 65.5278C23.4573 61.1873 24.6122 61.068 29.25 64.034C25.1501 60.3591 24.9509 59.21 28.0921 54.3623Z" fill="white"/>
<path fill-rule="evenodd" clip-rule="evenodd" d="M139.776 26.5829L151.79 31.6816L148.425 35.8873L139.776 26.5829Z" fill="#9BDEF6"/>
<path fill-rule="evenodd" clip-rule="evenodd" d="M153.516 29.7022L140.144 26.6138L156.818 28.0304L153.516 29.7022Z" fill="#9BDEF6"/>
<path fill-rule="evenodd" clip-rule="evenodd" d="M153.516 29.7022L153.138 35.269L151.79 31.6816L139.776 26.5829L140.144 26.6137L153.516 29.7022Z" fill="#90DFFB"/>
<path fill-rule="evenodd" clip-rule="evenodd" d="M153.138 35.2689L150.3 33.5447L151.79 31.6815L153.138 35.2689Z" fill="#B5E1F1"/>
<path fill-rule="evenodd" clip-rule="evenodd" d="M156.247 34.8935C155.854 34.84 155.949 34.2669 156.313 34.3173L156.89 34.3863C157.277 34.4398 157.188 35.0118 156.818 34.9624L156.247 34.8935ZM175.771 58.1883C175.811 58.1865 175.85 58.1928 175.887 58.2068C175.924 58.2208 175.957 58.2421 175.986 58.2696C176.014 58.2971 176.037 58.3301 176.052 58.3666C176.067 58.403 176.074 58.4422 176.074 58.4818C176.073 58.5213 176.065 58.5603 176.049 58.5964C176.033 58.6325 176.01 58.6649 175.981 58.6916C175.952 58.7184 175.917 58.7389 175.88 58.752C175.843 58.765 175.803 58.7703 175.764 58.7675L175.39 58.7624C175.016 58.7624 175.014 58.178 175.402 58.1832L175.771 58.1883ZM173.68 58.1112C174.022 58.1112 174.063 58.6945 173.64 58.6894L173.058 58.6472C172.648 58.5896 172.766 58.0217 173.108 58.069L173.68 58.1112ZM171.405 57.8674C171.764 57.9178 171.713 58.4939 171.311 58.4394L171.405 57.8674ZM169.198 57.353C169.267 57.3808 169.323 57.434 169.354 57.5017C169.385 57.5693 169.388 57.6462 169.365 57.7167C169.341 57.7871 169.291 57.8457 169.225 57.8804C169.159 57.9151 169.083 57.9233 169.012 57.9034C168.823 57.8396 168.637 57.7707 168.452 57.6976C168.381 57.6683 168.325 57.6119 168.295 57.5408C168.265 57.4697 168.265 57.3897 168.295 57.3185C168.324 57.2473 168.38 57.1906 168.451 57.161C168.522 57.1314 168.602 57.1312 168.673 57.1606C168.845 57.2326 169.022 57.2953 169.198 57.355V57.353ZM167.248 56.3406C167.548 56.5947 167.162 57.0279 166.88 56.7861C166.718 56.6535 166.567 56.5076 166.429 56.3499C166.174 56.0413 166.634 55.6904 166.867 55.9713C166.985 56.1034 167.112 56.2268 167.248 56.3406ZM166.186 54.568C166.233 54.9795 165.653 55.0073 165.614 54.6606C165.579 54.4566 165.559 54.2503 165.553 54.0433C165.553 53.6442 166.136 53.6709 166.133 54.0361C166.137 54.2156 166.154 54.3944 166.186 54.5711V54.568ZM166.366 52.4004C166.275 52.7522 165.709 52.6267 165.81 52.2399C165.863 52.0506 165.922 51.8551 165.988 51.6699C166.134 51.2924 166.664 51.528 166.535 51.8623C166.472 52.0382 166.416 52.2203 166.366 52.4004ZM167.187 50.2842C167.041 50.6164 166.502 50.4025 166.664 50.0352C166.747 49.8593 166.833 49.6823 166.923 49.5084C167.138 49.1381 167.608 49.4786 167.436 49.7687C167.349 49.9385 167.265 50.1123 167.184 50.2831L167.187 50.2842ZM168.244 48.2369C168.038 48.5866 167.555 48.2708 167.73 47.9601L168.009 47.4457C168.214 47.097 168.698 47.4138 168.522 47.7245C168.426 47.8902 168.335 48.0651 168.244 48.2327V48.2369ZM169.347 46.1927C169.134 46.5568 168.659 46.2225 168.834 45.9272L169.093 45.4128C169.109 45.3786 169.133 45.348 169.161 45.3228C169.19 45.2976 169.223 45.2783 169.259 45.2659C169.295 45.2536 169.333 45.2485 169.371 45.251C169.409 45.2534 169.447 45.2633 169.481 45.2801C169.515 45.2969 169.545 45.3203 169.571 45.349C169.596 45.3776 169.615 45.411 169.627 45.4471C169.64 45.4832 169.645 45.5214 169.642 45.5595C169.64 45.5975 169.63 45.6348 169.613 45.669L169.347 46.1927ZM170.311 44.0373C170.286 44.1102 170.234 44.1702 170.165 44.2042C170.096 44.2381 170.016 44.2432 169.944 44.2184C169.871 44.1936 169.811 44.1408 169.777 44.0718C169.743 44.0027 169.738 43.923 169.763 43.8501C169.825 43.6711 169.879 43.4983 169.928 43.3162C170.025 42.9468 170.585 43.0919 170.489 43.4633C170.434 43.6588 170.377 43.847 170.311 44.0373ZM170.629 41.632C170.672 42.0117 170.098 42.0765 170.055 41.6968C170.036 41.5166 170.005 41.3379 169.962 41.1619C169.874 40.7853 170.438 40.6567 170.526 41.025C170.573 41.225 170.607 41.4277 170.628 41.632H170.629ZM169.766 39.3492C169.989 39.6691 169.508 39.9942 169.294 39.6856C169.189 39.5352 169.076 39.3906 168.956 39.2524C168.697 38.9346 169.168 38.5951 169.39 38.8697C169.525 39.022 169.65 39.182 169.766 39.3492ZM168.037 37.6753C168.101 37.7191 168.144 37.7863 168.158 37.862C168.171 37.9377 168.154 38.0158 168.111 38.0791C168.067 38.1424 168 38.1857 167.925 38.1995C167.849 38.2133 167.771 38.1965 167.708 38.1527C167.554 38.045 167.397 37.9421 167.237 37.844C166.917 37.6558 167.199 37.1486 167.537 37.3471C167.707 37.45 167.873 37.5591 168.037 37.6733V37.6753ZM165.958 36.5375C166.312 36.6949 166.072 37.2216 165.728 37.0694C165.554 36.9932 165.378 36.9222 165.201 36.8513C164.85 36.7144 165.055 36.1723 165.414 36.3122C165.595 36.3842 165.778 36.4583 165.958 36.5375ZM163.749 35.7381C164.094 35.8297 163.974 36.3965 163.582 36.2936L163.032 36.1352C162.673 36.0406 162.808 35.4758 163.186 35.5745L163.749 35.7381ZM161.484 35.1558C161.882 35.2587 161.701 35.8111 161.362 35.7227L160.798 35.6033C160.723 35.5881 160.657 35.5434 160.614 35.4793C160.572 35.4151 160.557 35.3367 160.572 35.2613C160.587 35.1858 160.632 35.1195 160.696 35.077C160.76 35.0344 160.838 35.0191 160.913 35.0344L161.484 35.1558ZM159.194 34.7196C159.554 34.77 159.496 35.3472 159.1 35.2926L158.532 35.2031C158.166 35.1538 158.229 34.5756 158.619 34.6301L159.194 34.7196Z" fill="#B5E1F1"/>
<path fill-rule="evenodd" clip-rule="evenodd" d="M187.216 55.3201L199.229 60.4198L195.866 64.6244L187.216 55.3201Z" fill="#9BDEF6"/>
<path fill-rule="evenodd" clip-rule="evenodd" d="M200.956 58.4403L187.585 55.3519L204.258 56.7675L200.956 58.4403Z" fill="#9BDEF6"/>
<path fill-rule="evenodd" clip-rule="evenodd" d="M200.956 58.4404L200.577 64.0061L199.229 60.4198L187.216 55.3201L187.585 55.352L200.956 58.4404Z" fill="#90DFFB"/>
<path fill-rule="evenodd" clip-rule="evenodd" d="M200.577 64.0062L197.739 62.2829L199.229 60.4198L200.577 64.0062Z" fill="#B5E1F1"/>
<path fill-rule="evenodd" clip-rule="evenodd" d="M203.687 63.6306C203.294 63.5772 203.389 63.0041 203.754 63.0545L204.33 63.1245C204.717 63.177 204.628 63.75 204.259 63.6996L203.687 63.6306ZM223.21 86.9255C223.284 86.9308 223.354 86.9641 223.404 87.0188C223.454 87.0734 223.481 87.1453 223.48 87.2196C223.48 87.2938 223.45 87.365 223.399 87.4184C223.347 87.4718 223.277 87.5034 223.203 87.5068L222.83 87.5006C222.455 87.5006 222.453 86.9152 222.842 86.9193L223.21 86.9255ZM221.119 86.8484C221.461 86.8535 221.503 87.4327 221.08 87.4286L220.498 87.3854C220.088 87.3278 220.205 86.7589 220.547 86.8072L221.119 86.8484ZM218.846 86.6056C219.204 86.6539 219.154 87.2331 218.751 87.1786L218.846 86.6056ZM216.639 86.0912C216.708 86.1183 216.765 86.1715 216.796 86.2394C216.828 86.3074 216.832 86.3849 216.807 86.4558C216.783 86.5266 216.732 86.5853 216.666 86.6196C216.599 86.6538 216.522 86.661 216.451 86.6395C216.262 86.5768 216.076 86.5078 215.89 86.4338C215.819 86.4042 215.763 86.3475 215.734 86.2763C215.705 86.2051 215.705 86.1252 215.734 86.0541C215.764 85.9831 215.82 85.9267 215.891 85.8973C215.962 85.868 216.042 85.8682 216.113 85.8978C216.284 85.9687 216.462 86.0315 216.639 86.0912ZM214.688 85.0768C214.987 85.333 214.601 85.765 214.319 85.5243C214.158 85.3904 214.007 85.2446 213.868 85.0881C213.614 84.7795 214.079 84.4286 214.307 84.7095C214.424 84.842 214.552 84.9648 214.688 85.0768ZM213.622 83.3062C213.668 83.7178 213.088 83.7445 213.05 83.3978C213.015 83.1938 212.995 82.9875 212.989 82.7805C212.989 82.3803 213.572 82.4081 213.568 82.7733C213.572 82.9524 213.59 83.1309 213.622 83.3073V83.3062ZM213.801 81.1376C213.709 81.4904 213.144 81.3649 213.246 80.9781C213.298 80.7888 213.357 80.5923 213.422 80.4081C213.57 80.0295 214.1 80.2662 213.97 80.6005C213.907 80.7775 213.853 80.9585 213.801 81.1376ZM214.622 79.0213C214.477 79.3547 213.938 79.1407 214.099 78.7734C214.183 78.5975 214.269 78.4185 214.357 78.2456C214.572 77.8763 215.044 78.2168 214.87 78.5069C214.784 78.6777 214.7 78.8506 214.618 79.0213H214.622ZM215.68 76.9751C215.475 77.3249 214.99 77.008 215.167 76.6983L215.444 76.1839C215.649 75.8341 216.134 76.151 215.957 76.4627C215.862 76.6273 215.769 76.8033 215.679 76.971L215.68 76.9751ZM216.782 74.9257C216.57 75.2909 216.096 74.9566 216.269 74.6613L216.528 74.1469C216.567 74.0888 216.626 74.047 216.694 74.0292C216.762 74.0115 216.834 74.019 216.897 74.0505C216.959 74.0819 217.009 74.1351 217.035 74.2001C217.062 74.2652 217.064 74.3377 217.041 74.4041L216.778 74.9257H216.782ZM217.747 72.7714C217.722 72.8443 217.67 72.9043 217.601 72.9383C217.532 72.9722 217.452 72.9773 217.38 72.9525C217.307 72.9277 217.247 72.8749 217.213 72.8059C217.179 72.7368 217.174 72.6571 217.199 72.5842C217.259 72.4062 217.315 72.2313 217.363 72.0492C217.46 71.6809 218.02 71.826 217.923 72.1974C217.87 72.3928 217.813 72.5801 217.747 72.7714ZM218.065 70.3661C218.109 70.7458 217.534 70.8106 217.49 70.4309C217.471 70.2508 217.44 70.0721 217.398 69.896C217.309 69.5184 217.874 69.3908 217.961 69.7581C218.008 69.9583 218.043 70.1614 218.063 70.3661H218.065ZM217.201 68.0833C217.424 68.4032 216.943 68.7273 216.73 68.4197C216.625 68.2695 216.512 68.125 216.392 67.9865C216.133 67.6676 216.598 67.3281 216.825 67.6018C216.96 67.7546 217.086 67.9154 217.201 68.0833ZM215.471 66.4084C215.533 66.4525 215.575 66.5192 215.588 66.5941C215.602 66.6689 215.585 66.746 215.542 66.8086C215.499 66.8713 215.433 66.9146 215.359 66.9292C215.284 66.9438 215.207 66.9286 215.144 66.8868C214.99 66.7839 214.836 66.681 214.673 66.5781C214.354 66.3919 214.634 65.8837 214.974 66.0833C215.143 66.1868 215.309 66.2952 215.471 66.4084ZM213.394 65.2767C213.747 65.4341 213.507 65.9609 213.163 65.8086C212.989 65.7325 212.814 65.6615 212.637 65.5905C212.284 65.4537 212.49 64.9115 212.85 65.0504C213.031 65.1234 213.213 65.1975 213.394 65.2767ZM211.184 64.4773C211.531 64.5679 211.41 65.1358 211.018 65.0329L210.468 64.8734C210.107 64.7798 210.244 64.215 210.622 64.3138L211.184 64.4773ZM208.925 63.894C209.322 63.9969 209.141 64.5494 208.801 64.4599L208.239 64.3426C208.164 64.3274 208.098 64.2829 208.055 64.2189C208.013 64.1548 207.998 64.0765 208.013 64.001C208.028 63.9256 208.072 63.8592 208.136 63.8166C208.2 63.774 208.278 63.7585 208.353 63.7737L208.925 63.894ZM206.634 63.4588C206.993 63.5082 206.937 64.0864 206.541 64.0319L205.973 63.9413C205.606 63.8909 205.665 63.3148 206.06 63.3673L206.634 63.4588Z" fill="#B5E1F1"/>
</svg>
