<svg width="354" height="264" viewBox="0 0 354 264" fill="none" xmlns="http://www.w3.org/2000/svg">
<g clip-path="url(#clip0_63_17970)">
<path d="M354 232.004H0V232.181H354V232.004Z" fill="#EBEBEB"/>
<path d="M318.531 243.403H295.082V243.58H318.531V243.403Z" fill="#EBEBEB"/>
<path d="M234.504 245.33H228.352V245.507H234.504V245.33Z" fill="#EBEBEB"/>
<path d="M294.372 236.828H280.785V237.005H294.372V236.828Z" fill="#EBEBEB"/>
<path d="M67.7191 238.019H37.1406V238.196H67.7191V238.019Z" fill="#EBEBEB"/>
<path d="M78.509 238.019H74.0273V238.196H78.509V238.019Z" fill="#EBEBEB"/>
<path d="M159.407 241.009H93.082V241.186H159.407V241.009Z" fill="#EBEBEB"/>
<path d="M167.804 200.404H31.0896C28.8594 200.404 27.0469 198.59 27.0469 196.358V4.04562C27.0469 1.8138 28.8594 0 31.0896 0H167.804C170.035 0 171.847 1.8138 171.847 4.04562V196.358C171.847 198.59 170.035 200.404 167.804 200.404ZM31.0896 0.177129C28.9585 0.177129 27.2239 1.91299 27.2239 4.04562V196.358C27.2239 198.491 28.9585 200.227 31.0896 200.227H167.804C169.935 200.227 171.67 198.491 171.67 196.358V4.04562C171.67 1.91299 169.935 0.177129 167.804 0.177129H31.0896Z" fill="#EBEBEB"/>
<path d="M320.945 200.404H184.23C182 200.404 180.188 198.59 180.188 196.358V4.04562C180.188 1.8138 182 0 184.23 0H320.945C323.175 0 324.988 1.8138 324.988 4.04562V196.358C324.988 198.59 323.175 200.404 320.945 200.404ZM184.23 0.177129C182.099 0.177129 180.365 1.91299 180.365 4.04562V196.358C180.365 198.491 182.099 200.227 184.23 200.227H320.945C323.076 200.227 324.811 198.491 324.811 196.358V4.04562C324.811 1.91299 323.076 0.177129 320.945 0.177129H184.23Z" fill="#EBEBEB"/>
<path d="M314.493 13.957H198.062V117.344H314.493V13.957Z" fill="#E6E6E6"/>
<path d="M311.421 16.791H200.973V114.566H311.421V16.791Z" fill="#F0F0F0"/>
<path d="M226.9 16.791L200.973 114.354V68.5056L214.658 16.791H226.9Z" fill="white"/>
<path d="M236.074 16.791L209.927 114.566H205.75L231.904 16.791H236.074Z" fill="white"/>
<path d="M311.42 78.4883V94.1111L306.131 114.566H301.961L311.42 78.4883Z" fill="white"/>
<path d="M239.503 15.0342H237.641V116.749H239.503V15.0342Z" fill="#E6E6E6"/>
<path d="M275.553 15.0342H273.691V116.749H275.553V15.0342Z" fill="#E6E6E6"/>
<path d="M101.335 174.365H37.1406V231.975H101.335V174.365Z" fill="#F5F5F5"/>
<path d="M59.4851 174.365H37.1406V231.975H59.4851V174.365Z" fill="#EBEBEB"/>
<path d="M114.108 117.939H49.9141V175.549H114.108V117.939Z" fill="#EBEBEB"/>
<path d="M72.2585 117.939H49.9141V175.549H72.2585V117.939Z" fill="#E0E0E0"/>
<path d="M101.335 60.499H37.1406V118.108H101.335V60.499Z" fill="#F5F5F5"/>
<path d="M59.4851 60.499H37.1406V118.108H59.4851V60.499Z" fill="#EBEBEB"/>
<path d="M171.194 174.414H107V232.023H171.194V174.414Z" fill="#EBEBEB"/>
<path d="M129.344 174.414H107V232.023H129.344V174.414Z" fill="#E0E0E0"/>
<path d="M178.3 139.514H114.105V175.598H178.3V139.514Z" fill="#F5F5F5"/>
<path d="M136.45 139.514H114.105V175.598H136.45V139.514Z" fill="#E6E6E6"/>
<path d="M150.596 82.5137H109.121V140.123H150.596V82.5137Z" fill="#EBEBEB"/>
<path d="M123.557 82.5137H109.121V140.123H123.557V82.5137Z" fill="#E0E0E0"/>
<path d="M245.329 232.073H309.523V174.464H245.329V232.073Z" fill="#F5F5F5"/>
<path d="M287.179 232.073H309.523V174.464H287.179V232.073Z" fill="#E6E6E6"/>
<path d="M232.548 175.647H296.742V128.751H232.548V175.647Z" fill="#EBEBEB"/>
<path d="M274.406 175.647H296.75V128.751H274.406V175.647Z" fill="#E0E0E0"/>
<path d="M247.612 128.751H309.52V105.795H247.612V128.751Z" fill="#F5F5F5"/>
<path d="M287.983 128.751H309.527V105.795H287.983V128.751Z" fill="#E6E6E6"/>
<path d="M177.001 264C252.815 264 314.275 260.409 314.275 255.979C314.275 251.55 252.815 247.959 177.001 247.959C101.186 247.959 39.7266 251.55 39.7266 255.979C39.7266 260.409 101.186 264 177.001 264Z" fill="#F5F5F5"/>
<path d="M253.364 38.9688H233.66C231.889 38.9688 230.453 40.4057 230.453 42.1783V60.0613C230.453 61.8339 231.889 63.2708 233.66 63.2708H253.364C255.135 63.2708 256.571 61.8339 256.571 60.0613V42.1783C256.571 40.4057 255.135 38.9688 253.364 38.9688Z" fill="#407BFF"/>
<path d="M240.961 60.1816C240.961 60.1816 242.611 68.1595 253.854 72.5948C253.854 72.5948 246.979 68.202 247.411 60.1816H240.968H240.961Z" fill="#407BFF"/>
<path d="M237.859 50.4327L241.591 55.619L249.166 46.6279" stroke="white" stroke-width="3" stroke-linecap="round" stroke-linejoin="round"/>
<path d="M277.913 66.933C281.375 69.4269 284.504 73.6709 282.168 85.5811C279.831 97.4841 279.237 100.318 279.237 100.318L256.588 97.7676C256.588 97.7676 255.526 87.2319 257.331 77.3198C259.667 64.5169 267.774 59.6494 277.913 66.933Z" fill="#263238"/>
<path d="M255.234 132.697C255.234 132.697 247.559 173.621 245.513 190.427C242.837 212.349 231.898 244.416 231.898 244.416L236.274 245.55C236.274 245.55 251.694 218.3 254.703 193.778C266.952 168.718 267.943 137.862 267.943 137.862L255.241 132.704L255.234 132.697Z" fill="#EEC1BB"/>
<path d="M223.756 254.343C224.464 254.017 225.229 253.825 226.001 253.769C226.001 253.769 228.691 252.182 231.353 246.032L234.348 246.018C235.389 246.032 236.302 246.691 236.649 247.668C236.699 247.803 236.727 247.945 236.734 248.086C236.706 248.809 236.628 249.532 236.5 250.247C236.231 252.493 234.752 257.304 234.752 257.304L234.242 257.177L235.162 252.699C235.467 251.176 233.874 252.649 233.13 254.18C232.387 255.71 231.254 257.255 227.941 256.497C224.082 255.597 222.532 255.037 223.735 254.343H223.756Z" fill="#263238"/>
<path d="M236.74 247.746C237.307 246.293 238.029 243.693 238.029 243.693L231.607 242.793C231.607 242.793 231.607 245.953 230.418 248.022C233.774 248.001 236.74 247.738 236.74 247.738V247.746Z" fill="#263238"/>
<path d="M263.199 132.045C263.199 132.045 264.155 173.677 265.621 190.54C267.532 212.539 263.461 246.18 263.461 246.18L267.971 246.378C267.971 246.378 277.423 216.521 275.299 191.914C282.103 164.863 276.694 134.468 276.694 134.468L263.199 132.045Z" fill="#EEC1BB"/>
<path d="M256.437 255.71C257.103 255.306 257.839 255.037 258.611 254.902C258.611 254.902 261.11 253.039 263.1 246.634L266.08 246.294C267.114 246.194 268.098 246.747 268.544 247.682C268.608 247.81 268.65 247.945 268.672 248.086C268.721 248.809 268.721 249.539 268.672 250.261C268.643 252.522 267.695 257.467 267.695 257.467L267.178 257.396L267.61 252.847C267.751 251.303 266.321 252.932 265.755 254.541C265.181 256.142 264.218 257.8 260.848 257.41C256.919 256.928 255.312 256.546 256.437 255.724V255.71Z" fill="#263238"/>
<path d="M268.638 247.746C269.042 246.237 269.481 243.58 269.481 243.58L263.003 243.382C263.003 243.382 263.343 246.528 262.387 248.71C265.721 248.32 268.638 247.746 268.638 247.746Z" fill="#263238"/>
<path d="M253.602 125.867L245.184 184.122C245.184 184.122 272.604 188.38 283.578 185.886C283.578 185.886 286.269 152.245 274.813 127.788L253.602 125.86V125.867Z" fill="#263238"/>
<path d="M228.261 105.278L220.941 98.0372C220.941 98.0372 220.686 96.0959 219.978 95.5574C219.27 95.019 214.243 93.191 213.627 93.5949C213.011 93.9987 212.154 98.0656 213.018 98.8095C213.875 99.5535 218.449 100.503 218.916 100.425L226.838 109.834L228.261 105.278Z" fill="#EEC1BB"/>
<path d="M254.485 92.0781C251.327 93.7573 240.113 109.437 238.463 110.216C236.813 110.995 224.19 100.75 224.19 100.75L222.059 104.385C222.059 104.385 232.417 119.03 238.272 118.322C244.127 117.613 255.335 105.214 255.335 105.214L254.485 92.0852V92.0781Z" fill="#407BFF"/>
<path opacity="0.1" d="M254.485 92.0781C251.327 93.7573 240.113 109.437 238.463 110.216C236.813 110.995 224.19 100.75 224.19 100.75L222.059 104.385C222.059 104.385 232.417 119.03 238.272 118.322C244.127 117.613 255.335 105.214 255.335 105.214L254.485 92.0852V92.0781Z" fill="white"/>
<path d="M224.882 101.132L224.004 100.311L221.703 104.207L222.531 105.802L224.882 101.132Z" fill="#407BFF"/>
<path opacity="0.2" d="M250.831 109.791C253.451 107.29 255.334 105.214 255.334 105.214L255.136 102.097L254.152 99.0713C254.152 99.0713 249.734 103.145 250.831 109.791Z" fill="black"/>
<path d="M253.421 125.279C252.536 109.678 252.933 101.105 253.336 96.8181C253.782 92.2481 254.483 92.0781 254.483 92.0781C254.483 92.0781 259.432 91.5963 263.737 91.6317C267.072 91.7451 270.392 92.0923 273.67 92.6803C276.778 93.1976 279.844 93.9415 282.853 94.898C282.35 96.3363 281.897 97.6966 281.472 98.979C280.906 100.672 280.403 102.238 279.95 103.705C279.1 106.44 278.435 108.813 277.904 110.932C276.247 117.493 275.9 121.694 275.553 127.192C275.553 127.192 280.998 141.433 282.06 151.884L264.006 153.832L261.528 143.382L259.05 154.187L248.961 150.644L253.421 125.279Z" fill="#407BFF"/>
<path opacity="0.1" d="M253.421 125.279C252.536 109.678 252.933 101.105 253.336 96.8181C253.782 92.2481 254.483 92.0781 254.483 92.0781C254.483 92.0781 259.432 91.5963 263.737 91.6317C267.072 91.7451 270.392 92.0923 273.67 92.6803C276.778 93.1976 279.844 93.9415 282.853 94.898C282.35 96.3363 281.897 97.6966 281.472 98.979C280.906 100.672 280.403 102.238 279.95 103.705C279.1 106.44 278.435 108.813 277.904 110.932C276.247 117.493 275.9 121.694 275.553 127.192C275.553 127.192 280.998 141.433 282.06 151.884L264.006 153.832L261.528 143.382L259.05 154.187L248.961 150.644L253.421 125.279Z" fill="white"/>
<path opacity="0.2" d="M277.036 114.744C277.276 113.553 277.56 112.285 277.907 110.925C278.126 110.06 278.367 109.153 278.636 108.19C277.949 105.774 277.241 107.666 277.241 107.666C277.241 107.666 276.533 110.585 277.036 114.744Z" fill="black"/>
<path d="M263.988 92.5809C264.186 92.4747 264.413 92.3826 264.66 92.2905C265.17 91.8866 265.793 90.9159 265.758 88.5495C265.751 87.7772 265.673 86.8703 265.503 85.7863L272.066 84.5605C272.066 84.5605 269.829 88.9817 271.698 92.2621C272.342 92.5455 272.725 92.9494 272.654 93.4878C272.165 97.2855 264.009 100.956 264.009 100.956C264.009 100.956 260.03 94.7561 263.988 92.5809Z" fill="#EEC1BB"/>
<path opacity="0.2" d="M265.508 85.7863C265.678 86.8703 265.756 87.7843 265.763 88.5495C270.195 88.5495 272.071 84.5605 272.071 84.5605L265.508 85.7863Z" fill="black"/>
<path d="M269.134 67.4218C263.428 67.11 261.424 70.0645 260.681 75.931C259.753 83.2571 261.099 88.571 268.32 87.3948C278.126 85.7936 278.607 67.9461 269.134 67.4288V67.4218Z" fill="#EEC1BB"/>
<path d="M264.389 75.8105C264.389 75.8105 263.518 77.2559 262.598 78.0849C262.598 78.0849 263.044 78.8855 264.063 78.8147L264.382 75.8105H264.389Z" fill="#D4827D"/>
<path d="M267.91 75.534C267.875 76.0016 268.094 76.4054 268.406 76.4267C268.717 76.4479 269 76.0937 269.036 75.6261C269.071 75.1584 268.852 74.7546 268.54 74.7333C268.229 74.7121 267.945 75.0663 267.91 75.534Z" fill="#263238"/>
<path d="M268.668 74.7621L267.684 74.2803C267.684 74.2803 268.123 75.1801 268.668 74.7621Z" fill="#263238"/>
<path d="M262.097 74.9812C262.062 75.4488 262.282 75.8527 262.593 75.8739C262.905 75.8952 263.188 75.5409 263.223 75.0733C263.259 74.6057 263.039 74.2019 262.728 74.1806C262.416 74.1593 262.133 74.5136 262.097 74.9812Z" fill="#263238"/>
<path d="M262.855 74.2093L261.871 73.7275C261.871 73.7275 262.31 74.6274 262.855 74.2093Z" fill="#263238"/>
<path d="M268.184 71.5946C268.184 71.5946 269.798 71.4741 270.612 72.5936" stroke="#263238" stroke-width="0.69" stroke-linecap="round" stroke-linejoin="round"/>
<path d="M264.051 71.1195C264.051 71.1195 263.067 70.6873 261.75 71.4667" stroke="#263238" stroke-width="0.69" stroke-linecap="round" stroke-linejoin="round"/>
<path d="M274.849 77.3834C274.849 77.3834 272.435 72.5442 273.044 68.9449C273.044 68.9449 261.992 63.7019 260.802 75.1586C260.802 75.1586 260.257 64.8993 270.077 65.2111C279.883 65.5228 279.069 79.8844 273.773 83.8805C273.773 83.8805 276.343 80.4087 274.856 77.3834H274.849Z" fill="#263238"/>
<path d="M273.851 78.5379C273.936 77.6239 274.97 76.1148 276.669 76.3982C278.425 76.6887 279.069 80.3659 274.623 80.9964C273.986 81.0885 273.66 80.4509 273.844 78.5379H273.851Z" fill="#EEC1BB"/>
<path d="M268.525 80.1465C268.525 80.1465 267.194 81.5635 265.254 81.4785" stroke="#263238" stroke-width="0.69" stroke-linecap="round" stroke-linejoin="round"/>
<path d="M273.035 68.9445C273.035 68.9445 260.695 65.7349 259.668 77.3121" stroke="#263238" stroke-width="0.69" stroke-linecap="round" stroke-linejoin="round"/>
<path d="M262.032 95.3945C262.032 95.3945 261.09 104.775 262.626 113.313C262.626 113.313 266.266 100.127 271.377 95.6425L265.501 96.4856L262.032 95.4016V95.3945Z" fill="#407BFF"/>
<path opacity="0.5" d="M262.032 95.3945C262.032 95.3945 261.09 104.775 262.626 113.313C262.626 113.313 266.266 100.127 271.377 95.6425L265.501 96.4856L262.032 95.4016V95.3945Z" fill="white"/>
<path d="M271.468 91.2209L265.507 95.635V90.9375C265.507 90.9375 260.685 92.6875 261.025 98.0156L264.983 96.1947V98.0156L265.91 96.2655L269.04 99.8365C269.04 99.8365 272.87 95.3657 273.273 94.0195C273.67 92.6734 271.468 91.2138 271.468 91.2138V91.2209Z" fill="#407BFF"/>
<path opacity="0.7" d="M271.468 91.2209L265.507 95.635V90.9375C265.507 90.9375 260.685 92.6875 261.025 98.0156L264.983 96.1947V98.0156L265.91 96.2655L269.04 99.8365C269.04 99.8365 272.87 95.3657 273.273 94.0195C273.67 92.6734 271.468 91.2138 271.468 91.2138V91.2209Z" fill="white"/>
<path d="M277.7 132.613L272.22 106.447C272.1 105.88 271.604 105.477 271.031 105.477H254.138C253.614 105.477 253.21 105.951 253.302 106.468L257.869 132.096C257.968 132.662 258.456 133.08 259.03 133.102L276.85 133.626C277.395 133.64 277.813 133.144 277.7 132.606V132.613Z" fill="#263238"/>
<path opacity="0.1" d="M277.7 132.613L272.22 106.447C272.1 105.88 271.604 105.477 271.031 105.477H254.138C253.614 105.477 253.21 105.951 253.302 106.468L257.869 132.096C257.968 132.662 258.456 133.08 259.03 133.102L276.85 133.626C277.395 133.64 277.813 133.144 277.7 132.606V132.613Z" fill="white"/>
<path d="M284.984 124.138L276.275 118.647C276.275 118.647 275.61 116.805 274.803 116.43C273.995 116.054 268.692 115.353 268.183 115.884C267.673 116.416 267.708 120.568 268.707 121.106C269.705 121.644 274.371 121.595 274.81 121.411L284.573 128.893L284.984 124.131V124.138Z" fill="#EEC1BB"/>
<path d="M282.853 94.8984C282.853 94.8984 277.16 103.174 277.989 110.259L285.543 122.779L280.467 120.178L278.166 124.514C278.166 124.514 284.007 133.52 291.441 131.394C298.875 129.269 282.853 94.8984 282.853 94.8984Z" fill="#407BFF"/>
<path opacity="0.1" d="M282.853 94.8984C282.853 94.8984 277.16 103.174 277.989 110.259L285.543 122.779L280.467 120.178L278.166 124.514C278.166 124.514 284.007 133.52 291.441 131.394C298.875 129.269 282.853 94.8984 282.853 94.8984Z" fill="white"/>
<path d="M281.001 119.938L278.112 125.315L277.461 123.778L279.762 119.406L281.001 119.938Z" fill="#407BFF"/>
<path d="M270.477 105.477C269.812 105.477 269.812 122.906 269.812 122.906L254.59 122.467C254.59 122.467 252.876 107.73 254.59 105.477H270.477Z" fill="white"/>
<path opacity="0.1" d="M270.477 105.477C269.812 105.477 269.812 122.906 269.812 122.906L254.59 122.467C254.59 122.467 252.876 107.73 254.59 105.477H270.477Z" fill="black"/>
<path d="M207.587 91.6674L221.981 97.7252C222.313 97.8669 222.462 98.2424 222.32 98.5754C222.179 98.8943 221.811 99.0431 221.485 98.9084L206.999 92.7656C206.95 92.7443 206.907 92.7231 206.872 92.6877L205.18 91.4336L207.396 91.6249C207.459 91.6249 207.53 91.6461 207.587 91.6745V91.6674Z" fill="#263238"/>
<path d="M159.832 121.525L145.827 122.772L140.22 119.605C140.22 119.605 122.237 109.58 117.557 106.412C116.134 105.442 114.817 103.33 113.677 100.851C112.714 98.7676 111.879 96.4295 111.213 94.311C110.895 93.312 110.612 92.3555 110.371 91.5053C109.833 89.6136 109.5 88.1965 109.408 87.814C109.408 87.7573 109.394 87.7289 109.387 87.7148L109.422 87.6935L113.854 86.2836L117.557 85.1074C117.557 85.1074 117.727 85.986 118.017 87.3251C118.095 87.6864 118.18 88.0832 118.272 88.5083C118.35 88.8484 118.428 89.2097 118.513 89.5852C119.447 93.7088 120.885 99.3344 121.925 100.255C123.603 101.736 144.702 116.126 145.452 116.502C146.196 116.877 152.922 116.502 152.922 116.502L159.832 121.525Z" fill="#E4897B"/>
<path d="M109.323 67.8254C115.759 67.7333 119.865 87.7064 119.865 87.7064L111.377 91.9717C111.377 91.9717 107.546 85.8926 107.737 78.2123C107.921 70.532 109.33 67.8184 109.33 67.8184L109.323 67.8254Z" fill="#407BFF"/>
<path opacity="0.5" d="M109.323 67.8254C115.759 67.7333 119.865 87.7064 119.865 87.7064L111.377 91.9717C111.377 91.9717 107.546 85.8926 107.737 78.2123C107.921 70.532 109.33 67.8184 109.33 67.8184L109.323 67.8254Z" fill="white"/>
<path d="M120.804 88.0967L118.51 89.5846L115.515 91.5259L111.21 94.3104L110.438 94.8135L109.504 91.9723L110.368 91.5047L110.934 91.193L114.871 89.0461L118.014 87.3245L119.586 86.4671L119.862 86.3184L120.804 88.0967Z" fill="#407BFF"/>
<path opacity="0.2" d="M115.899 94.8137C115.948 97.2297 114.985 99.2419 113.675 100.85C112.713 98.7672 111.877 96.4291 111.212 94.3106L110.44 94.8137L109.505 91.9725L110.369 91.5049C109.831 89.6132 109.498 88.1961 109.406 87.8135L109.413 87.7852V87.6931L110.44 79.8994C110.44 79.8994 112.309 82.5847 113.852 86.2831C114.221 87.1546 114.568 88.0828 114.872 89.0464C114.978 89.3794 115.077 89.7194 115.169 90.0666C115.304 90.5484 115.417 91.0373 115.516 91.5262C115.736 92.6102 115.877 93.7155 115.899 94.8137Z" fill="black"/>
<path d="M108.359 251.105L114.285 251.729L115.397 238.947L109.471 238.316L108.359 251.105Z" fill="#E4897B"/>
<path d="M78.8008 250.673H84.5356L85.0099 237.367H79.2681L78.8008 250.673Z" fill="#E4897B"/>
<path d="M85.333 250.007H78.3592C78.1255 250.007 77.9202 250.17 77.8706 250.404L76.7378 255.519C76.6387 255.98 76.9361 256.426 77.3892 256.525C77.4529 256.539 77.5096 256.546 77.5733 256.546C79.8318 256.511 81.4744 256.369 84.3064 256.369C86.0551 256.369 91.3156 256.554 93.7298 256.554C96.1441 256.554 96.4556 254.173 95.4644 253.953C91.0394 252.99 87.7118 251.651 86.2958 250.382C86.0339 250.141 85.687 250.007 85.333 250.014V250.007Z" fill="#263238"/>
<path d="M85.7294 250.801C85.6727 250.787 85.6373 250.737 85.6302 250.68C85.6232 250.624 85.6444 250.574 85.694 250.546C85.8993 250.411 87.7542 249.278 88.3914 249.604C88.5401 249.674 88.6322 249.823 88.6251 249.986C88.6605 250.262 88.5543 250.539 88.3419 250.716C88.0162 250.936 87.6268 251.042 87.2374 251.006C86.7276 250.992 86.225 250.921 85.7364 250.794L85.7294 250.801ZM86.1258 250.61C86.7984 250.836 87.5277 250.801 88.172 250.51C88.3065 250.39 88.3773 250.206 88.356 250.022C88.349 249.915 88.3065 249.859 88.2711 249.859C88.2144 249.83 88.1578 249.816 88.0941 249.823C87.3932 249.958 86.7276 250.227 86.1329 250.61H86.1258Z" fill="#407BFF"/>
<path d="M85.6887 250.836C85.6462 250.807 85.625 250.765 85.625 250.708C85.6321 250.63 85.7737 248.979 86.4321 248.434C86.5879 248.292 86.8003 248.228 87.0056 248.257C87.218 248.257 87.4021 248.405 87.4446 248.618C87.5578 249.227 86.418 250.488 85.8232 250.807H85.7595C85.7595 250.807 85.71 250.828 85.6887 250.828V250.836ZM86.6091 248.597C86.2056 249.114 85.9719 249.737 85.9294 250.396C86.5242 249.95 87.2534 248.993 87.1755 248.618C87.1684 248.582 87.1543 248.476 86.9773 248.476H86.9136C86.8003 248.476 86.6941 248.519 86.6091 248.597Z" fill="#407BFF"/>
<path d="M114.907 249.822H107.933C107.7 249.822 107.494 249.985 107.445 250.219L106.312 255.335C106.213 255.795 106.51 256.241 106.963 256.341C107.027 256.355 107.084 256.362 107.147 256.362C109.406 256.326 111.049 256.185 113.881 256.185C115.629 256.185 120.89 256.369 123.304 256.369C125.718 256.369 126.03 253.988 125.039 253.769C120.614 252.805 117.286 251.466 115.87 250.198C115.608 249.957 115.261 249.822 114.907 249.829V249.822Z" fill="#263238"/>
<path d="M115.304 250.623C115.247 250.609 115.212 250.559 115.204 250.51C115.197 250.453 115.219 250.403 115.268 250.375C115.473 250.24 117.328 249.107 117.966 249.433C118.114 249.503 118.206 249.652 118.199 249.815C118.235 250.092 118.128 250.368 117.916 250.545C117.59 250.765 117.201 250.871 116.812 250.835C116.302 250.821 115.799 250.75 115.311 250.623H115.304ZM115.7 250.432C116.373 250.658 117.102 250.623 117.746 250.332C117.881 250.212 117.951 250.028 117.93 249.844C117.923 249.737 117.881 249.681 117.845 249.681C117.789 249.652 117.732 249.638 117.668 249.645C116.967 249.78 116.302 250.049 115.707 250.432H115.7Z" fill="#407BFF"/>
<path d="M115.267 250.652C115.224 250.624 115.203 250.581 115.203 250.524C115.21 250.447 115.352 248.796 116.01 248.25C116.166 248.108 116.378 248.045 116.584 248.073C116.796 248.073 116.98 248.222 117.023 248.434C117.136 249.044 115.996 250.305 115.401 250.624H115.338C115.338 250.624 115.288 250.645 115.267 250.645V250.652ZM116.187 248.413C115.784 248.93 115.55 249.554 115.508 250.213C116.102 249.766 116.832 248.81 116.754 248.434C116.747 248.399 116.732 248.293 116.555 248.293H116.492C116.378 248.293 116.272 248.335 116.187 248.413Z" fill="#407BFF"/>
<path opacity="0.2" d="M109.471 238.316L115.397 238.947L114.817 245.536L108.891 244.913L109.471 238.316Z" fill="black"/>
<path opacity="0.2" d="M79.2673 237.374H85.0092L84.7614 244.232H79.0195L79.2673 237.374Z" fill="black"/>
<path d="M81.6318 120.639H112.104C115 136.467 124.069 192.489 117.563 242.411L107.247 241.129C107.247 241.129 108.203 174.861 99.0981 150.368C98.0503 163.476 96.8042 177.426 95.7281 184.851C93.0801 203.124 87.402 243.049 87.402 243.049H76.9023C76.9023 243.049 79.0476 204.832 80.0459 186.878C81.1291 167.387 81.6035 124.649 81.6389 120.646L81.6318 120.639Z" fill="#407BFF"/>
<path opacity="0.2" d="M99.0977 150.369C100.443 153.982 101.561 158.488 102.503 163.561C103.353 151.892 99.9473 139.521 99.9473 139.521L99.0977 150.369Z" fill="black"/>
<path d="M118.745 244.813L105.973 242.915L106.369 239.372L119.644 241.122L118.745 244.813Z" fill="#407BFF"/>
<path opacity="0.6" d="M118.745 244.813L105.973 242.915L106.369 239.372L119.644 241.122L118.745 244.813Z" fill="white"/>
<path d="M88.6603 243.127H76.2773V239.428L89.1275 239.188L88.6603 243.127Z" fill="#407BFF"/>
<path opacity="0.6" d="M88.6603 243.127H76.2773V239.428L89.1275 239.188L88.6603 243.127Z" fill="white"/>
<path d="M81.5752 125.939L81.5469 121.525L112.6 119.604L112.819 123.877L81.5752 125.939Z" fill="#263238"/>
<path d="M89.4331 120.398H88.0312V126.867H89.4331V120.398Z" fill="#407BFF"/>
<path d="M110.898 118.253L109.5 118.355L109.97 124.807L111.368 124.705L110.898 118.253Z" fill="#407BFF"/>
<path d="M112.599 119.604L81.5463 121.921C81.5817 119.201 81.4755 116.168 81.2702 112.966C80.8879 107.049 80.1586 100.574 79.3444 94.5017C77.6169 81.5996 75.5 70.5255 75.5 70.5255C89.9432 66.8767 109.321 67.8261 109.321 67.8261C114.355 86.6797 112.599 119.604 112.599 119.604Z" fill="#407BFF"/>
<path opacity="0.6" d="M112.599 119.604L81.5463 121.921C81.5817 119.201 81.4755 116.168 81.2702 112.966C80.8879 107.049 80.1586 100.574 79.3444 94.5017C77.6169 81.5996 75.5 70.5255 75.5 70.5255C89.9432 66.8767 109.321 67.8261 109.321 67.8261C114.355 86.6797 112.599 119.604 112.599 119.604Z" fill="white"/>
<path d="M86.5234 68.5701C89.32 71.1137 96.1735 70.1714 96.1735 70.1714C96.1735 70.1714 100.45 69.0023 99.5506 67.6633C97.0302 67.2452 95.8124 66.0691 95.3097 64.567C95.0194 63.6885 94.977 62.7036 95.0548 61.6905C95.0902 61.1591 95.1681 60.6135 95.2672 60.0821L86.7996 53.8047C87.9111 57.9495 89.2705 65.5731 86.5305 68.5772L86.5234 68.5701Z" fill="#E4897B"/>
<path opacity="0.2" d="M88.7539 57.7939C89.0867 62.8811 93.2639 64.2839 95.31 64.5674C95.0197 63.6888 94.9772 62.704 95.0551 61.6908L88.7539 57.7939Z" fill="black"/>
<path d="M103.365 41.717C105.425 43.6725 104.569 49.6311 100.37 52.6777C96.1719 55.7243 96.1719 40.9872 96.1719 40.9872C96.1719 40.9872 102.055 40.47 103.365 41.717Z" fill="#263238"/>
<path d="M88.1783 58.9697C90.2173 61.903 93.5379 62.6682 96.4194 61.7542C98.2744 61.1661 99.9453 59.8837 100.986 58.0345C101.128 57.7936 101.248 57.5385 101.368 57.2764C103.436 52.4372 104.094 43.9775 98.9824 40.8034C95.3503 38.5149 90.5501 39.606 88.2633 43.2407C87.6048 44.268 87.2083 45.4441 87.0951 46.6699C86.4649 52.3238 85.8348 55.6255 88.1854 58.9697H88.1783Z" fill="#E4897B"/>
<path d="M95.3291 49.6881C95.2229 50.1345 95.4282 50.5525 95.7327 50.6021C96.0371 50.6517 96.3344 50.3187 96.4123 49.8653C96.4902 49.4118 96.3061 49.0009 96.0088 48.9513C95.7114 48.9017 95.407 49.2276 95.3291 49.6881Z" fill="#263238"/>
<path d="M100.493 50.5735C100.386 51.0199 100.599 51.4379 100.896 51.4875C101.194 51.5371 101.498 51.2041 101.576 50.7507C101.654 50.2972 101.47 49.8863 101.172 49.8367C100.875 49.7871 100.563 50.1413 100.493 50.5735Z" fill="#263238"/>
<path d="M98.813 50.5176C99.1174 52.0055 99.6272 53.4508 100.328 54.797C99.613 55.1442 98.7847 55.1584 98.0625 54.8324L98.813 50.5176Z" fill="#DE5753"/>
<path d="M94.0147 47.7465C94.1138 47.7748 94.22 47.7536 94.2908 47.6898C94.7864 47.208 95.4732 46.9813 96.1599 47.0876C96.3015 47.123 96.4502 47.038 96.4856 46.8892C96.521 46.7475 96.4361 46.5987 96.2874 46.5633C95.4236 46.4074 94.5457 46.6837 93.9227 47.293C93.8094 47.3922 93.8023 47.5623 93.9014 47.6756C93.9368 47.704 93.9722 47.7323 94.0147 47.7465Z" fill="#263238"/>
<path d="M96.9162 57.0705C95.5568 57.0421 94.2966 56.3549 93.5319 55.2283C93.4894 55.1575 93.5178 55.0724 93.5815 55.0299C93.6452 54.9874 93.7302 55.0087 93.7726 55.0724C93.7726 55.0724 93.7726 55.0724 93.7726 55.0795C94.4948 56.1069 95.663 56.7375 96.9232 56.7729C97.0011 56.7729 97.0648 56.8366 97.0648 56.9075C97.0648 56.9075 97.0648 56.9146 97.0648 56.9217C97.0648 56.9996 97.0011 57.0634 96.9303 57.0634C96.9303 57.0634 96.9232 57.0634 96.9162 57.0634V57.0705Z" fill="#263238"/>
<path d="M103.011 49.1716C103.06 49.1999 103.11 49.2141 103.166 49.207C103.308 49.1645 103.393 49.0157 103.358 48.874C103.131 48.0238 102.508 47.3436 101.687 47.0389C101.545 46.9964 101.396 47.0744 101.347 47.2161C101.304 47.3578 101.389 47.5066 101.531 47.5561C102.175 47.8112 102.657 48.3639 102.834 49.0299C102.869 49.1007 102.94 49.1574 103.018 49.1716H103.011Z" fill="#263238"/>
<path d="M92.3986 40.3704V42.8998C91.5278 43.2328 90.926 44.0972 91.1809 45.1245C91.726 47.3138 90.1472 50.4171 88.3843 51.5153C88.3843 51.5153 88.448 50.6013 87.655 50.7218C86.8621 50.8422 86.501 55.5964 87.7187 58.0266C87.7187 58.0266 85.708 55.7097 85.0425 50.5942C84.4265 45.8614 84.7451 42.0212 85.8992 40.3633H92.4057L92.3986 40.3704Z" fill="#263238"/>
<path d="M83.8612 50.85C84.2648 52.2245 85.1994 53.3864 86.4596 54.0737C88.1305 54.9735 89.3766 53.5707 89.2633 51.7781C89.15 50.184 88.1588 47.7396 86.3039 47.605C84.4489 47.4633 83.3798 49.1637 83.8612 50.857V50.85Z" fill="#E4897B"/>
<path d="M84.7827 44.6434C84.7827 44.6434 83.0339 40.4419 87.5934 37.3599C92.1459 34.2778 103.042 37.87 103.807 40.3711C104.564 42.8721 96.3797 47.4421 84.7897 44.6434H84.7827Z" fill="#263238"/>
<path d="M87.5927 65.9551L94.5241 69.7527L95.4728 64.5664L100.33 67.7264V74.3439L95.1896 71.2761L91.5788 76.6962L84.4492 68.86L87.5927 65.9551Z" fill="#407BFF"/>
<path d="M103.328 119.787L97.8708 120.089C97.4179 120.114 97.0711 120.502 97.0962 120.955L97.3006 124.648C97.3257 125.101 97.7131 125.448 98.166 125.423L103.623 125.121C104.076 125.096 104.423 124.708 104.398 124.255L104.194 120.562C104.169 120.109 103.781 119.762 103.328 119.787Z" fill="white"/>
<path opacity="0.5" d="M87.5927 65.9551L94.5241 69.7527L95.4728 64.5664L100.33 67.7264V74.3439L95.1896 71.2761L91.5788 76.6962L84.4492 68.86L87.5927 65.9551Z" fill="white"/>
<path opacity="0.2" d="M92.3993 111.591C90.339 114.695 83.7475 114.673 81.2695 112.966C80.8872 107.05 80.1579 100.574 79.3438 94.502L92.3993 111.591Z" fill="black"/>
<path d="M81.5468 87.707C81.5468 87.707 83.0123 97.2507 84.4496 99.1212C85.8868 100.992 115.573 117.245 115.573 117.245L125.846 116.501L130.576 121.921C130.576 121.921 116.89 124.047 115.396 123.636C113.902 123.225 112.763 122.609 112.763 122.609C112.763 122.609 81.6034 110.33 78.9909 107.531C76.3784 104.726 73.3906 90.3215 73.3906 90.3215L81.568 87.707H81.5468Z" fill="#E4897B"/>
<path d="M75.5003 70.5257C80.9378 69.392 83.7414 91.9724 83.7414 91.9724L72.6188 94.8136C72.6188 94.8136 68.8026 71.9215 75.4932 70.5257H75.5003Z" fill="#407BFF"/>
<path opacity="0.5" d="M75.5003 70.5257C80.9378 69.392 83.7414 91.9724 83.7414 91.9724L72.6188 94.8136C72.6188 94.8136 68.8026 71.9215 75.4932 70.5257H75.5003Z" fill="white"/>
<path d="M71.9727 94.2614L84.4476 91.2715V93.4254L72.532 96.8829L71.9727 94.2614Z" fill="#407BFF"/>
<path d="M114.725 235.284V138.139C114.725 133.938 113.436 129.835 111.036 126.385L107.645 121.524H167.895L171.287 126.385C173.687 129.835 174.975 133.938 174.975 138.139V234.341" stroke="#263238" stroke-width="6" stroke-linecap="round" stroke-linejoin="round"/>
<path d="M242.737 256.547C246.182 256.547 248.975 253.752 248.975 250.305C248.975 246.857 246.182 244.062 242.737 244.062C239.293 244.062 236.5 246.857 236.5 250.305C236.5 253.752 239.293 256.547 242.737 256.547Z" fill="#263238"/>
<path opacity="0.4" d="M245.859 250.305C245.859 248.583 244.465 247.188 242.744 247.188C241.024 247.188 239.629 248.583 239.629 250.305C239.629 252.027 241.024 253.422 242.744 253.422C244.465 253.422 245.859 252.027 245.859 250.305Z" fill="white"/>
<path d="M241.986 251.7C240.988 251.7 240.103 251.077 239.756 250.141L236.074 240.066H244.351V249.327C244.351 250.637 243.289 251.7 241.979 251.7H241.986Z" fill="#263238"/>
<path opacity="0.2" d="M241.986 251.7C240.988 251.7 240.103 251.077 239.756 250.141L236.074 240.066H244.351V249.327C244.351 250.637 243.289 251.7 241.979 251.7H241.986Z" fill="white"/>
<path d="M173.355 256.547C176.8 256.547 179.592 253.752 179.592 250.305C179.592 246.857 176.8 244.062 173.355 244.062C169.91 244.062 167.117 246.857 167.117 250.305C167.117 253.752 169.91 256.547 173.355 256.547Z" fill="#263238"/>
<path opacity="0.4" d="M176.476 250.305C176.476 248.583 175.082 247.188 173.361 247.188C171.641 247.188 170.246 248.583 170.246 250.305C170.246 252.027 171.641 253.422 173.361 253.422C175.082 253.422 176.476 252.027 176.476 250.305Z" fill="white"/>
<path d="M172.603 251.7C171.605 251.7 170.72 251.077 170.373 250.141L166.691 240.066H174.968V249.327C174.968 250.637 173.906 251.7 172.596 251.7H172.603Z" fill="#263238"/>
<path opacity="0.2" d="M172.603 251.7C171.605 251.7 170.72 251.077 170.373 250.141L166.691 240.066H174.968V249.327C174.968 250.637 173.906 251.7 172.596 251.7H172.603Z" fill="white"/>
<path d="M253.464 232.797V238.692C253.464 239.79 252.572 240.683 251.475 240.683H112.048C110.951 240.683 110.059 239.79 110.059 238.692V232.797H253.464Z" fill="#263238"/>
<path opacity="0.4" d="M253.464 232.797V238.692C253.464 239.79 252.572 240.683 251.475 240.683H112.048C110.951 240.683 110.059 239.79 110.059 238.692V232.797H253.464Z" fill="white"/>
<path opacity="0.2" d="M203.904 232.797V238.692C203.904 239.79 203.012 240.683 201.915 240.683H112.048C110.951 240.683 110.059 239.79 110.059 238.692V232.797H203.904Z" fill="white"/>
<path d="M192.472 256.547C195.917 256.547 198.709 253.752 198.709 250.305C198.709 246.857 195.917 244.062 192.472 244.062C189.027 244.062 186.234 246.857 186.234 250.305C186.234 253.752 189.027 256.547 192.472 256.547Z" fill="#263238"/>
<path opacity="0.6" d="M195.594 250.305C195.594 248.583 194.199 247.188 192.478 247.188C190.758 247.188 189.363 248.583 189.363 250.305C189.363 252.027 190.758 253.422 192.478 253.422C194.199 253.422 195.594 252.027 195.594 250.305Z" fill="white"/>
<path d="M191.72 251.7C190.722 251.7 189.837 251.077 189.49 250.141L185.809 240.066H194.085V249.327C194.085 250.637 193.023 251.7 191.713 251.7H191.72Z" fill="#263238"/>
<path opacity="0.4" d="M191.72 251.7C190.722 251.7 189.837 251.077 189.49 250.141L185.809 240.066H194.085V249.327C194.085 250.637 193.023 251.7 191.713 251.7H191.72Z" fill="white"/>
<path d="M123.085 256.547C126.53 256.547 129.323 253.752 129.323 250.305C129.323 246.857 126.53 244.062 123.085 244.062C119.64 244.062 116.848 246.857 116.848 250.305C116.848 253.752 119.64 256.547 123.085 256.547Z" fill="#263238"/>
<path opacity="0.6" d="M126.207 250.305C126.207 248.583 124.812 247.188 123.092 247.188C121.371 247.188 119.977 248.583 119.977 250.305C119.977 252.027 121.371 253.422 123.092 253.422C124.812 253.422 126.207 252.027 126.207 250.305Z" fill="white"/>
<path d="M122.334 251.7C121.335 251.7 120.45 251.077 120.103 250.141L116.422 240.066H124.698V249.327C124.698 250.637 123.636 251.7 122.327 251.7H122.334Z" fill="#263238"/>
<path opacity="0.4" d="M122.334 251.7C121.335 251.7 120.45 251.077 120.103 250.141L116.422 240.066H124.698V249.327C124.698 250.637 123.636 251.7 122.327 251.7H122.334Z" fill="white"/>
<path d="M193.349 187.062H127.328V232.797H193.349V187.062Z" fill="#407BFF"/>
<path opacity="0.4" d="M193.349 187.062H127.328V232.797H193.349V187.062Z" fill="white"/>
<path opacity="0.2" d="M157.963 187.062H127.328V232.797H157.963V187.062Z" fill="white"/>
<path opacity="0.2" d="M155.068 223.126H151.237C150.878 223.126 150.586 223.418 150.586 223.778V229.014C150.586 229.374 150.878 229.666 151.237 229.666H155.068C155.427 229.666 155.719 229.374 155.719 229.014V223.778C155.719 223.418 155.427 223.126 155.068 223.126Z" fill="black"/>
<path opacity="0.2" d="M148.157 223.126H144.327C143.967 223.126 143.676 223.418 143.676 223.778V229.014C143.676 229.374 143.967 229.666 144.327 229.666H148.157C148.517 229.666 148.809 229.374 148.809 229.014V223.778C148.809 223.418 148.517 223.126 148.157 223.126Z" fill="black"/>
<path opacity="0.4" d="M179.153 187.062H175.422V191.831H179.153V187.062Z" fill="black"/>
<path opacity="0.2" d="M189.357 206.59H163.656V212.57H189.357V206.59Z" fill="black"/>
<path opacity="0.2" d="M138.111 189.45H129.324V198.243H138.111V189.45Z" fill="black"/>
<path d="M200.087 141.328H134.066V187.063H200.087V141.328Z" fill="#407BFF"/>
<path opacity="0.4" d="M200.087 141.328H134.066V187.063H200.087V141.328Z" fill="black"/>
<path opacity="0.2" d="M164.702 141.328H134.066V187.063H164.702V141.328Z" fill="white"/>
<path opacity="0.2" d="M161.814 177.392H157.983C157.624 177.392 157.332 177.683 157.332 178.043V183.279C157.332 183.639 157.624 183.931 157.983 183.931H161.814C162.173 183.931 162.465 183.639 162.465 183.279V178.043C162.465 177.683 162.173 177.392 161.814 177.392Z" fill="black"/>
<path opacity="0.2" d="M154.904 177.392H151.073C150.713 177.392 150.422 177.683 150.422 178.043V183.279C150.422 183.639 150.713 183.931 151.073 183.931H154.904C155.263 183.931 155.555 183.639 155.555 183.279V178.043C155.555 177.683 155.263 177.392 154.904 177.392Z" fill="black"/>
<path opacity="0.4" d="M185.891 141.328H182.16V146.096H185.891V141.328Z" fill="black"/>
<path opacity="0.2" d="M196.095 160.855H170.395V166.835H196.095V160.855Z" fill="black"/>
<path opacity="0.2" d="M144.857 143.716H136.07V152.509H144.857V143.716Z" fill="black"/>
<path d="M240.501 141.328H174.48V187.063H240.501V141.328Z" fill="#407BFF"/>
<path opacity="0.4" d="M240.501 141.328H174.48V187.063H240.501V141.328Z" fill="white"/>
<path opacity="0.2" d="M205.116 141.328H174.48V187.063H205.116V141.328Z" fill="white"/>
<path opacity="0.2" d="M202.228 177.392H198.397C198.038 177.392 197.746 177.683 197.746 178.043V183.279C197.746 183.639 198.038 183.931 198.397 183.931H202.228C202.587 183.931 202.879 183.639 202.879 183.279V178.043C202.879 177.683 202.587 177.392 202.228 177.392Z" fill="black"/>
<path opacity="0.2" d="M195.318 177.392H191.487C191.128 177.392 190.836 177.683 190.836 178.043V183.279C190.836 183.639 191.128 183.931 191.487 183.931H195.318C195.677 183.931 195.969 183.639 195.969 183.279V178.043C195.969 177.683 195.677 177.392 195.318 177.392Z" fill="black"/>
<path opacity="0.4" d="M226.305 141.328H222.574V146.096H226.305V141.328Z" fill="black"/>
<path opacity="0.2" d="M236.509 160.855H210.809V166.835H236.509V160.855Z" fill="black"/>
<path opacity="0.2" d="M185.271 143.716H176.484V152.509H185.271V143.716Z" fill="black"/>
<path d="M217.669 95.5928H151.648V141.327H217.669V95.5928Z" fill="#407BFF"/>
<path opacity="0.2" d="M182.284 95.5928H151.648V141.327H182.284V95.5928Z" fill="white"/>
<path opacity="0.2" d="M179.388 131.656H175.558C175.198 131.656 174.906 131.948 174.906 132.308V137.544C174.906 137.904 175.198 138.196 175.558 138.196H179.388C179.748 138.196 180.039 137.904 180.039 137.544V132.308C180.039 131.948 179.748 131.656 179.388 131.656Z" fill="black"/>
<path opacity="0.2" d="M172.486 131.656H168.655C168.296 131.656 168.004 131.948 168.004 132.308V137.544C168.004 137.904 168.296 138.196 168.655 138.196H172.486C172.845 138.196 173.137 137.904 173.137 137.544V132.308C173.137 131.948 172.845 131.656 172.486 131.656Z" fill="black"/>
<path opacity="0.4" d="M203.473 95.5928H199.742V100.361H203.473V95.5928Z" fill="black"/>
<path opacity="0.2" d="M213.677 115.119H187.977V121.099H213.677V115.119Z" fill="black"/>
<path opacity="0.2" d="M162.431 97.9805H153.645V106.773H162.431V97.9805Z" fill="black"/>
<path d="M235.361 187.062H169.34V232.797H235.361V187.062Z" fill="#263238"/>
<path opacity="0.2" d="M235.361 187.062H169.34V232.797H235.361V187.062Z" fill="white"/>
<path opacity="0.2" d="M199.975 187.062H169.34V232.797H199.975V187.062Z" fill="white"/>
<path opacity="0.2" d="M197.079 223.126H193.249C192.889 223.126 192.598 223.418 192.598 223.778V229.014C192.598 229.374 192.889 229.666 193.249 229.666H197.079C197.439 229.666 197.731 229.374 197.731 229.014V223.778C197.731 223.418 197.439 223.126 197.079 223.126Z" fill="black"/>
<path opacity="0.2" d="M190.169 223.126H186.339C185.979 223.126 185.688 223.418 185.688 223.778V229.014C185.688 229.374 185.979 229.666 186.339 229.666H190.169C190.529 229.666 190.82 229.374 190.82 229.014V223.778C190.82 223.418 190.529 223.126 190.169 223.126Z" fill="black"/>
<path opacity="0.4" d="M221.165 187.062H217.434V191.831H221.165V187.062Z" fill="black"/>
<path opacity="0.2" d="M231.368 206.59H205.668V212.57H231.368V206.59Z" fill="black"/>
<path opacity="0.2" d="M180.122 189.45H171.336V198.243H180.122V189.45Z" fill="black"/>
</g>
<defs>
<clipPath id="clip0_63_17970">
<rect width="354" height="264" fill="white"/>
</clipPath>
</defs>
</svg>
