<svg width="274" height="224" viewBox="0 0 274 224" fill="none" xmlns="http://www.w3.org/2000/svg">
<path d="M7.55975 117.379C7.55975 117.379 4.03269 141.883 18.6922 169.222C31.4616 193.039 54.5703 209.64 82.033 216.671C100.163 221.312 118.845 221.093 137.234 219.945C160.888 218.471 187.192 219.849 209.03 210.939C243.029 197.061 263.803 160.733 265.378 127.01C266.396 105.223 258.02 80.2015 235.739 68.7147C227.486 64.4619 218.328 61.3061 211.1 55.4896C202.442 48.5255 198.662 38.4168 192.199 29.9789C184.211 19.5552 172.775 13.6205 160.36 8.81653C120.015 -6.77679 81.5155 0.226701 50.0813 20.8434C18.6472 41.4601 5.6809 105.369 7.55975 117.379Z" fill="#407BFF"/>
<path opacity="0.7" d="M7.55975 117.379C7.55975 117.379 4.03269 141.883 18.6922 169.222C31.4616 193.039 54.5703 209.64 82.033 216.671C100.163 221.312 118.845 221.093 137.234 219.945C160.888 218.471 187.192 219.849 209.03 210.939C243.029 197.061 263.803 160.733 265.378 127.01C266.396 105.223 258.02 80.2015 235.739 68.7147C227.486 64.4619 218.328 61.3061 211.1 55.4896C202.442 48.5255 198.662 38.4168 192.199 29.9789C184.211 19.5552 172.775 13.6205 160.36 8.81653C120.015 -6.77679 81.5155 0.226701 50.0813 20.8434C18.6472 41.4601 5.6809 105.369 7.55975 117.379Z" fill="white"/>
<path d="M126.755 48.9971H40.5195V147.85H126.755V48.9971Z" fill="#BDBDBD"/>
<path d="M122.862 54.2285H44.4062V147.85H122.862V54.2285Z" fill="#DBDBDB"/>
<path d="M122.862 70.2959H44.4062V75.5274H122.862V70.2959Z" fill="#BDBDBD"/>
<path d="M108.507 1.46387H102.859V3.23021H108.507V1.46387Z" fill="#BDBDBD"/>
<path d="M108.507 3.93848H102.859V5.70482H108.507V3.93848Z" fill="#BDBDBD"/>
<path d="M108.507 6.4082H102.859V8.17455H108.507V6.4082Z" fill="#BDBDBD"/>
<path d="M108.507 8.87695H102.859V10.6433H108.507V8.87695Z" fill="#BDBDBD"/>
<path d="M108.507 11.3467H102.859V13.113H108.507V11.3467Z" fill="#BDBDBD"/>
<path d="M108.507 13.8164H102.859V15.5827H108.507V13.8164Z" fill="#BDBDBD"/>
<path d="M108.507 16.2871H102.859V18.0535H108.507V16.2871Z" fill="#BDBDBD"/>
<path d="M108.507 18.7627H102.859V20.529H108.507V18.7627Z" fill="#BDBDBD"/>
<path d="M108.507 21.2314H102.859V22.9978H108.507V21.2314Z" fill="#BDBDBD"/>
<path d="M108.507 23.7012H102.859V25.4675H108.507V23.7012Z" fill="#BDBDBD"/>
<path d="M108.507 26.1699H102.859V27.9363H108.507V26.1699Z" fill="#BDBDBD"/>
<path d="M108.507 28.6396H102.859V30.406H108.507V28.6396Z" fill="#BDBDBD"/>
<path d="M108.507 31.1084H102.859V32.8747H108.507V31.1084Z" fill="#BDBDBD"/>
<path d="M108.507 33.584H102.859V35.3503H108.507V33.584Z" fill="#BDBDBD"/>
<path d="M108.507 36.0537H102.859V37.8201H108.507V36.0537Z" fill="#BDBDBD"/>
<path d="M108.507 38.5234H102.859V40.2898H108.507V38.5234Z" fill="#BDBDBD"/>
<path d="M108.507 40.9932H102.859V42.7595H108.507V40.9932Z" fill="#BDBDBD"/>
<path d="M108.507 43.4629H102.859V45.2292H108.507V43.4629Z" fill="#BDBDBD"/>
<path d="M108.507 45.9326H102.859V47.699H108.507V45.9326Z" fill="#BDBDBD"/>
<path d="M108.507 48.4072H102.859V50.1736H108.507V48.4072Z" fill="#BDBDBD"/>
<path d="M182.329 48.9971H138.266V147.85H182.329V48.9971Z" fill="#BDBDBD"/>
<path d="M178.892 54.2285H141.703V147.85H178.892V54.2285Z" fill="#DBDBDB"/>
<path d="M178.892 70.2959H141.703V75.5274H178.892V70.2959Z" fill="#BDBDBD"/>
<path d="M164.074 1.46387H158.426V3.23021H164.074V1.46387Z" fill="#BDBDBD"/>
<path d="M164.074 3.93848H158.426V5.70482H164.074V3.93848Z" fill="#BDBDBD"/>
<path d="M164.074 6.4082H158.426V8.17455H164.074V6.4082Z" fill="#BDBDBD"/>
<path d="M164.074 8.87695H158.426V10.6433H164.074V8.87695Z" fill="#BDBDBD"/>
<path d="M164.074 11.3467H158.426V13.113H164.074V11.3467Z" fill="#BDBDBD"/>
<path d="M164.074 13.8164H158.426V15.5827H164.074V13.8164Z" fill="#BDBDBD"/>
<path d="M164.074 16.2871H158.426V18.0535H164.074V16.2871Z" fill="#BDBDBD"/>
<path d="M164.074 18.7627H158.426V20.529H164.074V18.7627Z" fill="#BDBDBD"/>
<path d="M164.074 21.2314H158.426V22.9978H164.074V21.2314Z" fill="#BDBDBD"/>
<path d="M164.074 23.7012H158.426V25.4675H164.074V23.7012Z" fill="#BDBDBD"/>
<path d="M164.074 26.1699H158.426V27.9363H164.074V26.1699Z" fill="#BDBDBD"/>
<path d="M164.074 28.6396H158.426V30.406H164.074V28.6396Z" fill="#BDBDBD"/>
<path d="M164.074 31.1084H158.426V32.8747H164.074V31.1084Z" fill="#BDBDBD"/>
<path d="M164.074 33.584H158.426V35.3503H164.074V33.584Z" fill="#BDBDBD"/>
<path d="M164.074 36.0537H158.426V37.8201H164.074V36.0537Z" fill="#BDBDBD"/>
<path d="M164.074 38.5234H158.426V40.2898H164.074V38.5234Z" fill="#BDBDBD"/>
<path d="M164.074 40.9932H158.426V42.7595H164.074V40.9932Z" fill="#BDBDBD"/>
<path d="M164.074 43.4629H158.426V45.2292H164.074V43.4629Z" fill="#BDBDBD"/>
<path d="M164.074 45.9326H158.426V47.699H164.074V45.9326Z" fill="#BDBDBD"/>
<path d="M164.074 48.4072H158.426V50.1736H164.074V48.4072Z" fill="#BDBDBD"/>
<path d="M145.873 134.222H21.7734V155.958H145.873V134.222Z" fill="#BDBDBD"/>
<path d="M31.2496 138.957C31.2496 140.408 30.074 141.589 28.617 141.589C27.1601 141.589 25.9844 140.414 25.9844 138.957C25.9844 137.5 27.1601 136.324 28.617 136.324C30.074 136.324 31.2496 137.5 31.2496 138.957Z" fill="#407BFF"/>
<path d="M43.0819 136.324H36.1797V141.584H43.0819V136.324Z" fill="#407BFF"/>
<path d="M51.6327 136.324H44.7305V141.584H51.6327V136.324Z" fill="#808080"/>
<path d="M145.873 84.2744H21.7734V134.289H145.873V84.2744Z" fill="#DBDBDB"/>
<path d="M145.873 155.99H21.7734V222.993H145.873V155.99Z" fill="#DBDBDB"/>
<path d="M115.197 86.1592H52.4414V132.399H115.197V86.1592Z" fill="#BDBDBD"/>
<path d="M54.6564 124.827C54.5102 125.328 54.4258 125.851 54.4258 126.397C54.4258 129.457 56.9065 131.932 59.9611 131.932C63.0156 131.932 65.4964 129.451 65.4964 126.397C65.4964 125.851 65.412 125.322 65.2657 124.827H54.6508H54.6564Z" fill="#407BFF"/>
<path d="M62.1136 120.592V113.257H57.8158V120.592C55.4532 121.47 53.7656 123.731 53.7656 126.403C53.7656 129.829 56.5389 132.602 59.9647 132.602C63.3905 132.602 66.1638 129.829 66.1638 126.403C66.1638 123.737 64.4762 121.47 62.1136 120.592Z" stroke="white" stroke-miterlimit="10"/>
<path d="M79.7306 124.828C79.5844 125.329 79.5 125.852 79.5 126.398C79.5 129.458 81.9808 131.933 85.0353 131.933C88.0898 131.933 90.5706 129.452 90.5706 126.398C90.5706 125.852 90.4862 125.323 90.3399 124.828H79.725H79.7306Z" fill="#407BFF"/>
<path d="M87.1878 120.592V113.257H82.8901V120.592C80.5274 121.47 78.8398 123.731 78.8398 126.403C78.8398 129.829 81.6131 132.602 85.0389 132.602C88.4647 132.602 91.238 129.829 91.238 126.403C91.238 123.737 89.5504 121.47 87.1878 120.592Z" stroke="white" stroke-miterlimit="10"/>
<path d="M68.0477 126.841C67.9408 127.212 67.8789 127.6 67.8789 128.005C67.8789 130.272 69.7128 132.106 71.9797 132.106C74.2467 132.106 76.0806 130.272 76.0806 128.005C76.0806 127.6 76.0187 127.212 75.9118 126.841H68.0477Z" fill="#407BFF"/>
<path d="M73.5689 123.702V118.268H70.385V123.702C68.6355 124.349 67.3867 126.03 67.3867 128.005C67.3867 130.542 69.44 132.595 71.977 132.595C74.514 132.595 76.5672 130.542 76.5672 128.005C76.5672 126.03 75.3184 124.349 73.5689 123.702Z" stroke="white" stroke-miterlimit="10"/>
<path d="M62.5809 92.876H59.7852V96.4593H62.5809V92.876Z" fill="#858585"/>
<path d="M59.1354 96.4707H63.2419C64.4232 96.4707 65.3795 97.427 65.3795 98.6083V106.984H56.9922V98.6083C56.9922 97.427 57.9485 96.4707 59.1298 96.4707H59.1354Z" fill="#DBDBDB"/>
<path d="M80.2567 92.876H77.4609V96.4593H80.2567V92.876Z" fill="#858585"/>
<path d="M76.7995 96.4707H80.906C82.0873 96.4707 83.0436 97.427 83.0436 98.6083V106.984H74.6562V98.6083C74.6562 97.427 75.6125 96.4707 76.7939 96.4707H76.7995Z" fill="#DBDBDB"/>
<path d="M95.5575 92.876H92.7617V96.4593H95.5575V92.876Z" fill="#858585"/>
<path d="M92.112 96.4707H96.2185C97.3998 96.4707 98.3561 97.427 98.3561 98.6083V106.984H89.9688V98.6083C89.9688 97.427 90.9251 96.4707 92.1064 96.4707H92.112Z" fill="#DBDBDB"/>
<path d="M106.624 92.876H103.828V96.4593H106.624V92.876Z" fill="#858585"/>
<path d="M103.178 96.4707H107.285C108.466 96.4707 109.422 97.427 109.422 98.6083V106.984H101.035V98.6083C101.035 97.427 101.991 96.4707 103.173 96.4707H103.178Z" fill="#DBDBDB"/>
<path d="M115.197 106.923H52.4414V111.642H115.197V106.923Z" fill="#DBDBDB"/>
<path d="M30.2227 159.098L31.4827 161.41H38.6156L39.8757 159.098H30.2227Z" fill="#808080"/>
<path d="M63.0742 159.098L64.3343 161.41H71.4672L72.7272 159.098H63.0742Z" fill="#808080"/>
<path d="M95.9258 159.098L97.1802 161.41H104.319L105.579 159.098H95.9258Z" fill="#808080"/>
<path d="M128.777 159.098L130.032 161.41H137.17L138.43 159.098H128.777Z" fill="#808080"/>
<path d="M30.2227 174.303L31.4827 176.62H38.6156L39.8757 174.303H30.2227Z" fill="#808080"/>
<path d="M63.0742 174.303L64.3343 176.62H71.4672L72.7272 174.303H63.0742Z" fill="#808080"/>
<path d="M95.9258 174.303L97.1802 176.62H104.319L105.579 174.303H95.9258Z" fill="#808080"/>
<path d="M128.777 174.303L130.032 176.62H137.17L138.43 174.303H128.777Z" fill="#808080"/>
<path d="M23.168 159.097H143.87" stroke="#808080" stroke-miterlimit="10"/>
<path d="M23.168 174.233H143.87" stroke="#808080" stroke-miterlimit="10"/>
<path d="M236.344 128.039L233.869 118.42V115.793H230.364V118.42L227.889 128.039C227.72 128.686 228.21 129.316 228.879 129.316H235.365C236.029 129.316 236.518 128.686 236.355 128.039H236.344Z" fill="#BDBDBD"/>
<path d="M234.314 123.179H229.91L228.61 128.225C228.582 128.337 228.627 128.416 228.661 128.455C228.695 128.495 228.757 128.562 228.875 128.562H235.361C235.473 128.562 235.541 128.495 235.575 128.455C235.603 128.416 235.653 128.337 235.625 128.225L234.326 123.179H234.314Z" fill="#808080"/>
<path d="M251.309 128.039L248.834 118.42V115.793H245.329V118.42L242.854 128.039C242.685 128.686 243.174 129.316 243.844 129.316H250.324C250.994 129.316 251.477 128.686 251.314 128.039H251.309Z" fill="#BDBDBD"/>
<path d="M249.283 123.179H244.879L243.579 128.225C243.551 128.337 243.596 128.416 243.63 128.455C243.658 128.495 243.725 128.562 243.844 128.562H250.33C250.442 128.562 250.51 128.495 250.543 128.455C250.577 128.416 250.622 128.337 250.594 128.225L249.294 123.179H249.283Z" fill="#808080"/>
<path d="M231.867 118.026V89.3369" stroke="#BDBDBD" stroke-miterlimit="10"/>
<path d="M266.754 129.271H171.793V185.197H266.754V129.271Z" fill="#DBDBDB"/>
<path d="M264.13 131.492H174.418V185.197H264.13V131.492Z" fill="#BDBDBD"/>
<path d="M222.332 153.139L225.567 157.583H250.599L254.036 153.139H222.332Z" fill="#808080"/>
<path d="M248.199 155.67H228.77V157.577H248.199V155.67Z" fill="#5C5C5C"/>
<path d="M219.444 145.764H203.496V150.596H219.444V145.764Z" fill="#808080"/>
<path d="M228.884 139.224H226.527V144.995H228.884V139.224Z" fill="#263238" stroke="#263238" stroke-miterlimit="10"/>
<path d="M226.306 142.255H229.107C230.288 142.255 231.245 143.211 231.245 144.392V151.126H224.168V144.392C224.168 143.211 225.124 142.255 226.306 142.255Z" fill="#DBDBDB"/>
<path d="M238.599 139.222H236.242V144.993H238.599V139.222Z" fill="#263238" stroke="#263238" stroke-miterlimit="10"/>
<path d="M236.017 142.254H238.818C239.999 142.254 240.956 143.21 240.956 144.392V151.125H233.879V144.392C233.879 143.21 234.835 142.254 236.017 142.254Z" fill="#DBDBDB"/>
<path d="M248.318 139.222H245.961V144.993H248.318V139.222Z" fill="#263238" stroke="#263238" stroke-miterlimit="10"/>
<path d="M245.739 142.254H248.541C249.722 142.254 250.678 143.21 250.678 144.392V151.125H243.602V144.392C243.602 143.21 244.558 142.254 245.739 142.254Z" fill="#DBDBDB"/>
<path d="M219.444 141.607H203.496V145.765H219.444V141.607Z" fill="#A3A3A3"/>
<path d="M264.13 150.27H174.418V153.903H264.13V150.27Z" fill="#DBDBDB"/>
<path d="M207.363 167.026H201.152V185.955H207.363V167.026Z" fill="#263238" stroke="#263238" stroke-linecap="round" stroke-linejoin="round"/>
<path d="M218.716 157.79H189.797V181.714H218.716V157.79Z" fill="#545454"/>
<path d="M216.701 159.455H191.809V180.049H216.701V159.455Z" fill="white"/>
<path d="M197.152 164.377L204.848 169.924L199.661 172.787" stroke="#828282" stroke-miterlimit="10"/>
<path d="M208.601 164.731L204.844 169.924L206.633 176.725" stroke="#828282" stroke-miterlimit="10"/>
<path d="M204.844 169.924L212.899 174.576" stroke="#828282" stroke-miterlimit="10"/>
<path d="M197.871 163.927C197.871 164.962 197.027 165.806 195.992 165.806C194.957 165.806 194.113 164.962 194.113 163.927C194.113 162.892 194.957 162.048 195.992 162.048C197.027 162.048 197.871 162.892 197.871 163.927Z" fill="#407BFF"/>
<path d="M201.539 172.787C201.539 173.828 200.695 174.666 199.66 174.666C198.625 174.666 197.781 173.822 197.781 172.787C197.781 171.752 198.625 170.908 199.66 170.908C200.695 170.908 201.539 171.752 201.539 172.787Z" fill="#407BFF"/>
<path d="M210.488 164.731C210.488 165.766 209.644 166.61 208.609 166.61C207.574 166.61 206.73 165.766 206.73 164.731C206.73 163.696 207.574 162.853 208.609 162.853C209.644 162.853 210.488 163.696 210.488 164.731Z" fill="#407BFF"/>
<path d="M214.777 174.575C214.777 175.616 213.933 176.454 212.898 176.454C211.863 176.454 211.02 175.61 211.02 174.575C211.02 173.54 211.863 172.696 212.898 172.696C213.933 172.696 214.777 173.54 214.777 174.575Z" fill="#407BFF"/>
<path d="M206.637 178.602C207.674 178.602 208.516 177.761 208.516 176.724C208.516 175.686 207.674 174.845 206.637 174.845C205.599 174.845 204.758 175.686 204.758 176.724C204.758 177.761 205.599 178.602 206.637 178.602Z" fill="#407BFF"/>
<path d="M246.415 173.688H238.844V175.354H246.415V173.688Z" fill="#263238" stroke="#263238" stroke-linecap="round" stroke-linejoin="round"/>
<path d="M228.627 185.805V182.076C228.627 180.984 229.099 179.944 229.921 179.223L234.528 175.207H251.336L255.718 179.229C256.5 179.944 256.939 180.956 256.939 182.014V186.413L228.621 185.805H228.627Z" fill="#C4C4C4"/>
<path d="M250.884 179.972C250.884 181.519 247.256 182.774 242.784 182.774C238.312 182.774 234.684 181.519 234.684 179.972C234.684 178.425 238.312 177.171 242.784 177.171C247.256 177.171 250.884 178.425 250.884 179.972Z" fill="#DBDBDB"/>
<path d="M267.13 185.197H171.793V222.994H267.13V185.197Z" fill="#DBDBDB"/>
<path d="M171.766 204.88H266.704" stroke="#808080" stroke-miterlimit="10"/>
<path d="M267.127 185.197H237.477V222.994H267.127V185.197Z" fill="#BDBDBD"/>
<path d="M268.973 185.197H169.945V188.831H268.973V185.197Z" fill="#808080"/>
<path d="M218.406 188.865L219.903 191.627H228.408L229.91 188.865H218.406Z" fill="#808080"/>
<path d="M218.406 204.762L219.903 207.524H228.408L229.91 204.762H218.406Z" fill="#808080"/>
<path d="M186.449 188.865L187.946 191.627H196.457L197.959 188.865H186.449Z" fill="#808080"/>
<path d="M186.449 204.762L187.946 207.524H196.457L197.959 204.762H186.449Z" fill="#808080"/>
<path d="M229.98 99.1807H256.335" stroke="#BDBDBD" stroke-miterlimit="10"/>
<path d="M227.645 99.1807H229.979" stroke="#BDBDBD" stroke-width="3" stroke-miterlimit="10"/>
<path d="M247.055 99.4629V117.183" stroke="#BDBDBD" stroke-miterlimit="10"/>
<path d="M43.9495 152.492H39.3086V157.741H43.9495V152.492Z" fill="#263238" stroke="#263238" stroke-miterlimit="10"/>
<path d="M45.7691 150.472H36.8867V153.701H45.7691V150.472Z" fill="#263238" stroke="#263238" stroke-miterlimit="10"/>
<path d="M51.4242 156.126H31.4375V209.426H51.4242V156.126Z" fill="white" stroke="#263238" stroke-miterlimit="10"/>
<path d="M39.2057 177.119C42.0484 177.119 44.3529 174.815 44.3529 171.972C44.3529 169.13 42.0484 166.825 39.2057 166.825C36.363 166.825 34.0586 169.13 34.0586 171.972C34.0586 174.815 36.363 177.119 39.2057 177.119Z" fill="#263238" stroke="#263238" stroke-miterlimit="10"/>
<path d="M81.1825 222.994L72.0133 211.49H45.5631L36.4727 222.994H81.1825Z" fill="white" stroke="#263238" stroke-miterlimit="10"/>
<path d="M41.533 208.217H84.1333V208.459C84.1333 210.219 82.7045 211.648 80.9438 211.648H44.7169C42.9562 211.648 41.5273 210.219 41.5273 208.459V208.217H41.533Z" fill="white" stroke="#263238" stroke-miterlimit="10"/>
<path d="M66.9246 137.984L58.8984 143.214L59.9457 144.821L67.9719 139.591L66.9246 137.984Z" fill="white" stroke="#263238" stroke-miterlimit="10"/>
<path d="M71.4654 132.484L63.9766 137.364L67.1153 142.181L74.6042 137.301L71.4654 132.484Z" fill="#263238" stroke="#263238" stroke-miterlimit="10"/>
<path d="M42.3365 125.237H40.5195V131.093H42.3365V125.237Z" fill="#263238" stroke="#263238" stroke-miterlimit="10"/>
<path d="M43.1457 130.688H39.5117V142.198H43.1457V130.688Z" fill="white" stroke="#263238" stroke-miterlimit="10"/>
<path d="M45.5633 140.982H37.0859V147.643H45.5633V140.982Z" fill="white" stroke="#263238" stroke-miterlimit="10"/>
<path d="M59.2685 137.794L49.6099 145.956L28.1719 147.846L28.6557 153.359L54.5264 151.075L63.2681 144.556L59.2685 137.794Z" fill="white" stroke="#263238" stroke-miterlimit="10"/>
<path d="M217.632 73.8853L216.67 83.9996C216.67 83.9996 211.084 83.6171 209.447 80.3375C207.81 77.058 208.542 72.7828 208.542 72.7828L209.256 68.8788C209.256 68.8788 212.148 67.3375 215.129 69.1657C218.116 70.9939 217.632 73.8853 217.632 73.8853Z" fill="#B5B5B5" stroke="#263238" stroke-miterlimit="10"/>
<path d="M177.91 106.337L198.386 101.347L208.54 72.7822C208.54 72.7822 210.948 77.2543 212.669 79.3188C214.39 81.3833 217.659 83.279 217.659 83.279C217.659 83.279 214.216 102.034 213.012 108.058C211.808 114.083 211.634 115.113 210.087 116.491C208.54 117.869 189.954 129.57 189.954 129.57C189.954 129.57 196.147 141.096 196.839 149.185C197.526 157.274 198.043 166.736 198.043 166.736C198.043 166.736 182.9 142.648 177.393 135.594C171.886 128.54 169.652 117.869 170.856 112.367C172.06 106.86 177.91 106.343 177.91 106.343V106.337Z" fill="white" stroke="#263238" stroke-miterlimit="10"/>
<path d="M185.188 111.822L189.958 129.564L193.445 108.554" stroke="#263238" stroke-miterlimit="10"/>
<path d="M198.957 101.843C198.957 101.843 204.29 103.733 205.15 109.932" stroke="#263238" stroke-miterlimit="10"/>
<path d="M202.742 101.843C202.742 101.843 209.279 103.221 209.628 110.101" stroke="#263238" stroke-miterlimit="10"/>
<path d="M178.477 113.025L187.078 130.925L185.188 134.193L189.491 137.63L190.695 144.341" stroke="#263238" stroke-miterlimit="10"/>
<path d="M147.723 90.9014C147.723 90.9014 137.569 94.1697 134.301 100.537C131.033 106.905 138.947 118.432 140.151 122.735C141.355 127.038 139.634 128.585 138.087 127.381C136.54 126.178 134.818 128.585 136.54 131.342C138.261 134.092 147.723 132.028 150.822 130.481C153.922 128.934 153.23 118.606 151.509 111.901C149.787 105.19 147.723 97.618 148.758 94.3497C149.793 91.0814 147.723 90.907 147.723 90.907V90.9014Z" fill="#263238" stroke="#263238" stroke-miterlimit="10"/>
<path d="M179.811 76.9102C179.811 76.9102 184.8 82.9348 185.144 85.3425C185.487 87.7501 185.318 89.1283 185.318 89.1283C185.318 89.1283 187.726 91.8791 188.243 92.2278C188.761 92.571 190.482 93.606 189.447 94.9786C188.412 96.3568 186.696 96.3568 186.696 96.3568C186.696 96.3568 186.871 101.69 186.353 104.097C185.836 106.505 184.806 107.365 182.91 107.54C181.02 107.714 178.607 107.714 178.607 107.714L176.717 117.35L179.125 129.912L161.23 110.471C161.23 110.471 162.952 103.417 162.952 102.038C162.952 100.66 160.37 98.0781 162.609 90.8553C164.848 83.6324 179.816 76.9158 179.816 76.9158L179.811 76.9102Z" fill="#B5B5B5" stroke="#263238" stroke-miterlimit="10"/>
<path d="M162.431 95.3219C162.431 95.3219 165.531 96.357 166.391 94.1181C167.252 91.8792 165.874 89.1285 170.177 86.7209C174.481 84.3132 182.052 82.5919 183.599 78.6317C185.146 74.6715 183.425 70.5425 181.017 70.0306C178.61 69.5131 175.684 70.8913 171.038 71.0657C166.391 71.24 152.773 71.1669 148.469 77.7035C144.166 84.2401 148.323 96.0138 149.527 98.5958C150.731 101.178 150.731 107.889 155.72 108.232C160.71 108.575 164.153 104.789 164.496 102.039C164.839 99.2878 162.431 95.3276 162.431 95.3276V95.3219Z" fill="#263238" stroke="#263238" stroke-miterlimit="10"/>
<g opacity="0.5">
<path d="M161.223 93.2575L186.002 84.8252C186.002 84.8252 190.474 87.576 187.38 91.193L174.65 95.322L161.403 94.9789L161.228 93.2575H161.223Z" fill="white"/>
</g>
<path d="M161.223 93.2575L186.002 84.8252C186.002 84.8252 190.474 87.576 187.38 91.193L174.65 95.322L161.403 94.9789L161.228 93.2575H161.223Z" stroke="#263238" stroke-miterlimit="10"/>
<path d="M161.223 93.2575L186.002 84.8252" stroke="#263238" stroke-width="2" stroke-miterlimit="10" stroke-linecap="round"/>
<path d="M172.062 90.1631L174.645 95.3215" stroke="#263238" stroke-miterlimit="10"/>
<path d="M165.699 96.5257C165.181 96.5257 160.709 90.501 158.47 92.2224C156.231 93.9437 158.296 100.137 161.052 101.341C163.803 102.545 166.042 99.6196 166.042 99.6196" fill="#B5B5B5"/>
<path d="M165.699 96.5257C165.181 96.5257 160.709 90.501 158.47 92.2224C156.231 93.9437 158.296 100.137 161.052 101.341C163.803 102.545 166.042 99.6196 166.042 99.6196" stroke="#263238" stroke-miterlimit="10"/>
<path d="M182.388 89.6466C182.388 90.5016 182.079 91.1935 181.702 91.1935C181.325 91.1935 181.016 90.5016 181.016 89.6466C181.016 88.7915 181.325 88.0996 181.702 88.0996C182.079 88.0996 182.388 88.7915 182.388 89.6466Z" fill="#263238"/>
<path d="M160.713 108.402C160.713 108.402 169.663 115.799 174.653 123.889C179.642 131.978 192.378 146.429 194.443 151.244C196.507 156.06 198.228 161.055 198.228 165.184C198.228 169.313 198.571 200.629 198.571 201.315V222.995H145.75C145.75 222.995 149.018 177.739 149.018 168.103C149.018 158.467 144.889 149.692 147.983 135.927C151.077 122.162 156.241 114.247 160.713 108.396V108.402Z" fill="white" stroke="#263238" stroke-miterlimit="10"/>
<path d="M157.27 113.392L176.367 139.718L181.188 138.171L180.84 144.021L192.889 150.384" stroke="#263238" stroke-miterlimit="10"/>
<path d="M193.348 200.432H165.559V204.881H191.126" stroke="#263238" stroke-miterlimit="10"/>
<path d="M221.564 84.8154H224.163V92.359C224.163 93.0284 223.623 93.5684 222.954 93.5684H222.768C222.099 93.5684 221.559 93.0284 221.559 92.359V84.8154H221.564Z" fill="white" stroke="#263238" stroke-miterlimit="10"/>
<path d="M224.793 83.2344H220.945V85.8333H224.793V83.2344Z" fill="white" stroke="#263238" stroke-miterlimit="10"/>
<path d="M236.038 69.3627C236.038 69.3627 237.388 71.4834 237.192 72.7323C237 73.9867 235.166 79.477 234.593 79.5726C234.013 79.6683 233.918 78.9932 234.109 77.0694C234.3 75.1455 234.593 73.8911 234.593 73.3117C234.593 72.7323 234.975 68.2039 236.038 69.3627Z" fill="#407BFF" stroke="#263238" stroke-linecap="round" stroke-linejoin="round"/>
<path d="M210.127 66.7591C210.127 66.7591 207.911 70.6124 209.548 72.8287C211.185 75.0451 214.751 75.2364 214.751 75.2364C214.751 75.2364 215.331 79.5735 216.197 80.2429C217.063 80.9179 219.184 83.9049 219.471 84.9625C219.758 86.0201 221.783 84.6756 221.783 83.8093C221.783 82.943 220.337 79.4722 219.955 78.5103C219.572 77.5484 220.439 74.9439 220.725 74.0776C221.012 73.2113 221.305 72.8231 221.305 72.8231C221.305 72.8231 224.101 75.5176 224.388 77.059C224.674 78.6003 223.904 84.2818 224.674 84.9569C225.445 85.6319 227.47 85.4407 227.853 84.2818C228.235 83.1287 228.91 76.3839 228.91 75.2251C228.91 74.0663 227.082 70.1174 227.082 70.1174C227.082 70.1174 230.069 73.1044 230.165 74.1619C230.26 75.2195 229.394 81.9642 229.878 82.1555C230.362 82.3467 231.132 82.6393 231.802 82.0599C232.471 81.4804 233.056 79.9391 233.056 79.9391C233.056 79.9391 234.98 75.4108 235.751 73.2956C236.521 71.1805 237.196 68.7673 235.464 67.901C233.731 67.0347 232.381 66.264 227.47 64.3345C222.559 62.4107 215.623 60.965 213.12 62.7932C210.617 64.6214 210.133 66.7422 210.133 66.7422L210.127 66.7591Z" fill="#407BFF" stroke="#263238" stroke-linecap="round" stroke-linejoin="round"/>
<path d="M214.751 75.2368L214.363 68.3008" stroke="#263238" stroke-miterlimit="10"/>
<path d="M214.658 72.7331C214.658 72.7331 210.804 72.6374 210.422 67.7266" stroke="#263238" stroke-miterlimit="10"/>
<path d="M234.108 77.0657C234.108 77.0657 235.362 73.4036 234.299 71.671C233.242 69.9384 229.191 67.2383 229.191 67.2383" stroke="#263238" stroke-miterlimit="10"/>
<path d="M207.054 134.47C207.392 134.245 213.388 127.911 213.501 127.455C213.613 127.005 213.726 120.896 214.406 119.54C215.087 118.185 217.349 114.224 217.461 112.981C217.574 111.738 217.574 107.553 217.461 106.079C217.349 104.611 218.817 104.498 219.835 105.854C220.853 107.21 221.078 109.134 221.078 110.832C221.078 112.531 221.191 113.887 221.416 114.224C221.641 114.562 223.564 116.261 224.47 116.486C225.376 116.711 230.804 113.999 232.385 113.431C233.966 112.863 234.984 108.228 235.214 107.778C235.439 107.328 235.552 103.93 235.664 103.143C235.777 102.349 237.245 101.331 237.813 103.255C238.381 105.179 238.151 109.702 238.038 110.945C237.926 112.188 238.038 114.793 237.47 115.468C236.902 116.148 233.285 119.315 232.947 119.765C232.61 120.215 231.249 124.631 230.799 125.306C230.349 125.981 226.501 127.455 223.896 129.041C221.297 130.622 218.58 133.114 218.58 133.114C218.58 133.114 219.374 134.02 218.58 134.813C217.787 135.606 216.319 136.169 216.319 136.169L213.945 141.822L207.043 134.47H207.054Z" fill="#B5B5B5" stroke="#263238" stroke-miterlimit="10"/>
<path d="M230.805 125.311C231.255 124.631 232.616 120.22 232.954 119.77C233.291 119.32 236.914 116.153 237.476 115.473C238.044 114.792 237.926 112.193 238.044 110.95C238.157 109.707 238.382 105.184 237.819 103.26C237.251 101.336 235.783 102.354 235.671 103.148C235.558 103.941 235.446 107.333 235.221 107.783C234.996 108.233 233.977 112.874 232.391 113.436C230.81 114.004 225.376 116.716 224.476 116.491C223.571 116.266 221.647 114.567 221.422 114.229C221.197 113.892 221.084 112.531 221.084 110.837C221.084 109.144 220.859 107.22 219.841 105.859C218.823 104.498 217.355 104.616 217.467 106.084C217.58 107.552 217.58 111.737 217.467 112.986C217.355 114.229 215.093 118.19 214.413 119.545C213.732 120.901 213.619 127.01 213.507 127.46C213.451 127.696 211.808 129.508 210.199 131.235L216.235 136.41L216.336 136.174C216.336 136.174 217.805 135.605 218.598 134.818C219.391 134.025 218.598 133.119 218.598 133.119C218.598 133.119 221.315 130.633 223.914 129.046C226.513 127.46 230.36 125.992 230.816 125.311H230.805Z" fill="#407BFF" stroke="#263238" stroke-linecap="round" stroke-linejoin="round"/>
<path d="M232.951 119.766L229.109 122.595" stroke="#263238" stroke-miterlimit="10"/>
<path d="M156.751 126.297C156.751 126.297 162.601 125.262 166.044 128.018C169.486 130.769 170.69 135.933 170.859 136.451C171.033 136.968 187.206 151.763 187.206 151.763L207.508 133.008L217.487 142.813C217.487 142.813 204.757 158.985 198.215 165.179C191.678 171.372 186.857 174.297 185.653 174.815C184.45 175.333 183.246 174.815 181.867 173.954C180.489 173.094 151.93 144.36 151.93 144.36" fill="white"/>
<path d="M156.751 126.297C156.751 126.297 162.601 125.262 166.044 128.018C169.486 130.769 170.69 135.933 170.859 136.451C171.033 136.968 187.206 151.763 187.206 151.763L207.508 133.008L217.487 142.813C217.487 142.813 204.757 158.985 198.215 165.179C191.678 171.372 186.857 174.297 185.653 174.815C184.45 175.333 183.246 174.815 181.867 173.954C180.489 173.094 151.93 144.36 151.93 144.36" stroke="#263238" stroke-miterlimit="10"/>
<path d="M156.406 138.341C156.406 138.341 161.739 133.351 164.495 133.177C167.246 133.002 169.142 135.241 169.142 135.241" stroke="#263238" stroke-miterlimit="10"/>
<path d="M153.66 134.211C153.66 134.211 160.197 129.908 163.983 131.973" stroke="#263238" stroke-miterlimit="10"/>
<path d="M187.201 151.762C187.201 151.762 182.729 161.223 183.415 165.701" stroke="#263238" stroke-miterlimit="10"/>
<path d="M186.348 152.279C186.348 152.279 181.702 155.204 179.98 160.712" stroke="#263238" stroke-miterlimit="10"/>
<path d="M227.779 96.9209H230.378V104.464C230.378 105.134 229.838 105.674 229.169 105.674H228.983C228.313 105.674 227.773 105.134 227.773 104.464V96.9209H227.779Z" fill="white" stroke="#263238" stroke-miterlimit="10"/>
<path d="M231.008 95.335H227.16V97.9338H231.008V95.335Z" fill="white" stroke="#263238" stroke-miterlimit="10"/>
<path d="M232.646 96.9209H235.245V104.464C235.245 105.134 234.705 105.674 234.036 105.674H233.85C233.181 105.674 232.641 105.134 232.641 104.464V96.9209H232.646Z" fill="white" stroke="#263238" stroke-miterlimit="10"/>
<path d="M235.871 95.335H232.023V97.9338H235.871V95.335Z" fill="white" stroke="#263238" stroke-miterlimit="10"/>
<path d="M236.914 100.876H220.398V109.359H236.914V100.876Z" fill="#263238" stroke="#263238" stroke-miterlimit="10"/>
<path d="M69.8925 120.569C69.8925 120.569 69.6956 127.089 71.0794 129.659C72.4632 132.23 74.8371 133.214 75.034 135.391C75.2309 137.563 74.2408 140.527 75.6246 141.321C77.0085 142.114 86.8921 151.992 90.0535 151.795C93.2149 151.598 96.5732 147.053 96.5732 147.053L103.689 151.598L113.173 132.033L106.851 126.301C106.851 126.301 104.28 110.888 100.725 106.539C97.1695 102.191 83.9276 101.004 77.2053 104.165C70.4831 107.327 68.1149 114.443 66.5342 115.827C64.9534 117.211 61.5952 118.594 63.3727 121.165C65.1503 123.736 69.8925 120.574 69.8925 120.574V120.569Z" fill="white" stroke="#263238" stroke-miterlimit="10"/>
<path d="M105.073 130.256C105.827 129.671 106.581 128.163 107.199 126.616L106.851 126.301C106.851 126.301 104.28 110.888 100.725 106.539C97.1695 102.191 83.9276 101.004 77.2053 104.165C70.4831 107.327 68.1149 114.443 66.5342 115.827C64.9534 117.211 61.5952 118.594 63.3727 121.165C65.0322 123.561 69.268 120.974 69.8306 120.614L69.8981 120.569C69.8981 120.569 73.0595 119.579 75.2365 118.397C77.4078 117.211 79.7817 115.236 79.7817 115.236C79.7817 115.236 75.6303 122.155 77.211 124.327C78.7917 126.498 83.5338 125.513 83.5338 125.513C83.5338 125.513 86.6952 129.665 88.6697 128.675C90.6442 127.685 87.8765 123.933 90.8411 122.549C93.8056 121.165 96.1795 127.094 96.1795 128.084C96.1795 129.074 103.295 131.639 105.073 130.256Z" fill="#263238" stroke="#263238" stroke-miterlimit="10"/>
<path d="M107.235 126.643L93.4139 142.704C93.4139 142.704 90.0556 142.31 87.6818 140.532C85.3079 138.755 83.3334 134.406 83.3334 134.406C83.3334 134.406 93.4139 123.341 98.5498 120.174C103.033 117.412 104.507 116.912 104.811 116.827C104.636 116.158 104.451 115.483 104.26 114.813C103.185 115.286 100.035 116.867 94.9946 120.962C89.4875 125.44 77.8319 137.107 74.918 140.043C74.9967 140.617 75.1992 141.072 75.6268 141.32C77.0106 142.113 86.8942 151.991 90.0556 151.794C90.68 151.755 91.3045 151.547 91.9176 151.237C92.5195 148.779 93.5602 145.038 94.404 143.491C95.4278 141.612 105.576 130.615 108.332 127.639L107.23 126.643H107.235Z" fill="#407BFF" stroke="#263238" stroke-linecap="round" stroke-linejoin="round"/>
<path d="M89.656 129.267C89.656 129.267 87.8784 122.944 90.2466 121.757C92.6205 120.57 95.585 123.141 95.9788 125.908C96.3726 128.676 94.9887 132.034 94.9887 132.034C94.9887 132.034 96.3726 134.802 95.7819 137.767" fill="white"/>
<path d="M89.656 129.267C89.656 129.267 87.8784 122.944 90.2466 121.757C92.6205 120.57 95.585 123.141 95.9788 125.908C96.3726 128.676 94.9887 132.034 94.9887 132.034C94.9887 132.034 96.3726 134.802 95.7819 137.767" stroke="#263238" stroke-miterlimit="10"/>
<path d="M79.4916 134.166C79.8853 134.931 79.8797 135.712 79.4916 135.915C79.1034 136.118 78.4565 135.667 78.0628 134.902C77.669 134.137 77.6746 133.355 78.0628 133.153C78.4509 132.95 79.0978 133.4 79.4916 134.166Z" fill="#263238"/>
<path d="M74.3828 130.486C74.3828 130.486 74.6135 127.724 77.9493 128.298" stroke="#263238" stroke-miterlimit="10"/>
<path d="M112.8 129.721L97.8594 153.544L103.715 157.785L117.441 131.943L112.8 129.721Z" fill="white" stroke="#263238" stroke-miterlimit="10"/>
<path d="M116.436 132.349C116.436 132.349 104.927 152.335 102.705 156.779C100.483 161.223 94.0248 172.125 93.6198 178.583C93.2148 185.046 91.1953 223 91.1953 223H137.632C137.632 223 141.064 194.131 140.861 183.027C140.659 171.923 137.835 155.57 129.352 144.466C120.874 133.361 116.43 132.354 116.43 132.354L116.436 132.349Z" fill="white" stroke="#263238" stroke-miterlimit="10"/>
<path d="M120.473 135.375C120.473 135.375 113.61 148.296 108.963 155.767C104.323 163.237 98.2641 171.315 96.6496 175.956C95.0352 180.597 95.0352 182.616 95.0352 182.616" stroke="#263238" stroke-miterlimit="10"/>
<path d="M60.9137 186.25L55.4627 182.211C55.4627 182.211 52.8357 175.551 51.2213 173.734C49.6068 171.917 47.3848 172.322 45.9729 170.708C44.5609 169.093 42.9465 165.459 42.1364 165.054C41.3264 164.649 39.5094 165.662 39.5094 167.276C39.5094 168.891 41.3264 171.518 41.3264 172.12V172.727C41.3264 172.727 34.4635 170.708 33.6535 171.315C32.8434 171.923 32.039 173.942 32.6466 174.949C33.2541 175.956 34.4635 176.361 34.4635 177.171C34.4635 177.981 33.0516 180.602 33.856 181.615C34.666 182.622 35.8755 183.229 35.8755 183.229C35.8755 183.229 35.8755 187.066 37.0849 188.68C38.2943 190.295 47.5817 191.504 50.4112 191.909C53.2351 192.314 61.5156 196.353 61.5156 196.353L60.908 186.256L60.9137 186.25Z" fill="#407BFF" stroke="#263238" stroke-linecap="round" stroke-linejoin="round"/>
<path d="M114.419 151.524C114.419 151.524 105.739 155.766 102.504 166.87C99.2752 177.975 97.2557 189.484 97.2557 189.484C97.2557 189.484 95.2363 189.079 95.2363 190.294C95.2363 191.509 95.0338 192.111 95.0338 192.111L59.9038 185.451L59.0938 202.006C59.0938 202.006 104.721 210.483 107.145 210.483C109.57 210.483 112.191 209.673 113.001 207.659C113.811 205.645 126.929 176.163 126.929 176.163" fill="white"/>
<path d="M114.419 151.524C114.419 151.524 105.739 155.766 102.504 166.87C99.2752 177.975 97.2557 189.484 97.2557 189.484C97.2557 189.484 95.2363 189.079 95.2363 190.294C95.2363 191.509 95.0338 192.111 95.0338 192.111L59.9038 185.451L59.0938 202.006C59.0938 202.006 104.721 210.483 107.145 210.483C109.57 210.483 112.191 209.673 113.001 207.659C113.811 205.645 126.929 176.163 126.929 176.163" stroke="#263238" stroke-miterlimit="10"/>
<path d="M118.461 160.812C118.461 160.812 125.324 164.648 126.539 169.896" stroke="#263238" stroke-miterlimit="10"/>
<path d="M113.609 166.668C114.217 166.668 124.511 167.478 126.733 173.328" stroke="#263238" stroke-miterlimit="10"/>
<path d="M123.098 184.635C123.098 184.635 130.973 181.001 133.392 173.126" stroke="#263238" stroke-miterlimit="10"/>
<path d="M96.8555 192.308C96.8555 192.308 100.894 199.778 100.692 205.026" stroke="#263238" stroke-miterlimit="10"/>
<path d="M99.2773 191.098C99.2773 191.098 103.316 191.908 106.14 197.359" stroke="#263238" stroke-miterlimit="10"/>
<path d="M153.569 183.426H146.301C144.962 183.426 143.663 184.511 143.393 185.85L135.883 223H147.994L155.504 185.85C155.774 184.511 154.902 183.426 153.563 183.426H153.569Z" fill="#263238" stroke="#263238" stroke-miterlimit="10"/>
<path d="M0 222.993H273.935" stroke="#263238" stroke-miterlimit="10"/>
<path d="M14.2383 196.606H19.121V219.473C19.121 220.728 18.1029 221.74 16.854 221.74H16.5053C15.2508 221.74 14.2383 220.722 14.2383 219.473V196.606Z" fill="white" stroke="#263238" stroke-linecap="round" stroke-linejoin="round"/>
<path d="M14.2383 205.877V219.299C14.2383 220.649 15.3296 221.74 16.6797 221.74C18.0297 221.74 19.121 220.649 19.121 219.299V205.877H14.2383Z" fill="#407BFF" stroke="#263238" stroke-linecap="round" stroke-linejoin="round"/>
<path d="M19.9847 195.887H13.375V200.483H19.9847V195.887Z" fill="white" stroke="#263238" stroke-linecap="round" stroke-linejoin="round"/>
<path d="M26.1836 221.74C24.8335 221.74 23.7422 220.649 23.7422 219.299V196.606H28.6249V219.299C28.6249 220.649 27.5336 221.74 26.1836 221.74Z" fill="white" stroke="#263238" stroke-linecap="round" stroke-linejoin="round"/>
<path d="M23.7383 205.877V219.299C23.7383 220.649 24.8296 221.74 26.1797 221.74C27.5297 221.74 28.621 220.649 28.621 219.299V205.877H23.7383Z" fill="#407BFF" stroke="#263238" stroke-linecap="round" stroke-linejoin="round"/>
<path d="M29.4847 195.887H22.875V200.483H29.4847V195.887Z" fill="white" stroke="#263238" stroke-linecap="round" stroke-linejoin="round"/>
<path d="M35.6836 221.74C34.3335 221.74 33.2422 220.649 33.2422 219.299V196.606H38.1249V219.299C38.1249 220.649 37.0336 221.74 35.6836 221.74Z" fill="white" stroke="#263238" stroke-linecap="round" stroke-linejoin="round"/>
<path d="M33.2422 205.877V219.299C33.2422 220.649 34.3335 221.74 35.6836 221.74C37.0336 221.74 38.1249 220.649 38.1249 219.299V205.877H33.2422Z" fill="#407BFF" stroke="#263238" stroke-linecap="round" stroke-linejoin="round"/>
<path d="M38.9886 195.887H32.3789V200.483H38.9886V195.887Z" fill="white" stroke="#263238" stroke-linecap="round" stroke-linejoin="round"/>
<path d="M45.1797 221.74C43.8296 221.74 42.7383 220.649 42.7383 219.299V196.606H47.621V219.299C47.621 220.649 46.5297 221.74 45.1797 221.74Z" fill="white" stroke="#263238" stroke-linecap="round" stroke-linejoin="round"/>
<path d="M42.7383 205.877V219.299C42.7383 220.649 43.8296 221.74 45.1797 221.74C46.5297 221.74 47.621 220.649 47.621 219.299V205.877H42.7383Z" fill="#407BFF" stroke="#263238" stroke-linecap="round" stroke-linejoin="round"/>
<path d="M48.4847 195.887H41.875V200.483H48.4847V195.887Z" fill="white" stroke="#263238" stroke-linecap="round" stroke-linejoin="round"/>
<path d="M52.6164 202.963H10.0723V204.409H52.6164V219.484H8.00781V222.995H55.5078V222.173V219.484V204.409V202.963H52.6164Z" fill="white" stroke="#263238" stroke-linecap="round" stroke-linejoin="round"/>
<path d="M212.103 220.13L206.539 198.524V192.617H198.664V198.524L193.1 220.13C192.729 221.582 193.82 222.994 195.317 222.994H209.881C211.377 222.994 212.474 221.582 212.097 220.13H212.103Z" fill="white" stroke="#263238" stroke-miterlimit="10"/>
<path d="M207.545 209.212H197.65L194.73 220.553C194.668 220.8 194.77 220.986 194.837 221.076C194.905 221.166 195.056 221.312 195.315 221.312H209.879C210.138 221.312 210.29 221.166 210.357 221.076C210.425 220.986 210.532 220.806 210.464 220.553L207.545 209.212Z" fill="#407BFF"/>
<path d="M228.126 202.568V190.091H220.813V202.568C216.791 204.058 213.922 207.912 213.922 212.451C213.922 218.279 218.641 222.999 224.469 222.999C230.297 222.999 235.017 218.279 235.017 212.451C235.017 207.912 232.148 204.058 228.126 202.568Z" fill="white" stroke="#263238" stroke-miterlimit="10"/>
<path d="M215.435 209.773C215.182 210.623 215.047 211.517 215.047 212.445C215.047 217.649 219.266 221.868 224.469 221.868C229.673 221.868 233.892 217.649 233.892 212.445C233.892 211.517 233.751 210.623 233.503 209.773H215.441H215.435Z" fill="#407BFF"/>
<path d="M249.813 209.509V186.647H244.987V209.509C242.331 210.493 240.441 213.036 240.441 216.034C240.441 219.876 243.558 222.998 247.4 222.998C251.242 222.998 254.358 219.882 254.358 216.034C254.358 213.041 252.463 210.493 249.813 209.509Z" fill="white" stroke="#263238" stroke-miterlimit="10"/>
<path d="M241.438 214.269C241.275 214.825 241.18 215.422 241.18 216.035C241.18 219.472 243.964 222.256 247.396 222.256C250.827 222.256 253.612 219.472 253.612 216.035C253.612 215.422 253.522 214.831 253.353 214.269H241.433H241.438Z" fill="#407BFF"/>
</svg>
