<svg width="233" height="232" viewBox="0 0 233 232" fill="none" xmlns="http://www.w3.org/2000/svg">
<path d="M205.248 197.888C200.503 202.821 196.012 206.002 192.465 208.516C150.761 238.061 101.414 229.448 90.9275 227.345C75.4408 224.239 45.5054 218.236 23.862 193.106C-8.88241 155.086 -3.78337 95.1865 21.615 55.6464C26.2605 48.4137 50.8006 8.27109 100.679 1.83294C130.864 -2.06272 166.051 5.79481 191.532 26.8738C245.019 71.1198 241.211 160.505 205.248 197.888Z" fill="url(#paint0_linear_63_17787)"/>
<g opacity="0.3">
<path d="M180.019 41.528C180.489 41.6348 180.812 42.0817 180.754 42.5708C180.627 43.641 180.451 44.7218 180.233 45.7829C180.126 46.2993 179.621 46.6312 179.106 46.5244C179.1 46.5228 179.093 46.522 179.087 46.5203C178.582 46.4061 178.259 45.907 178.364 45.3972C178.573 44.3891 178.739 43.3629 178.86 42.3457C178.922 41.8227 179.397 41.4486 179.92 41.5106C179.954 41.5148 179.987 41.5206 180.019 41.528H180.019ZM178.123 49.6214C178.16 49.6297 178.196 49.6405 178.233 49.6529C178.729 49.8292 178.99 50.3737 178.814 50.8712C178.452 51.8916 178.043 52.9063 177.599 53.8879C177.381 54.3679 176.818 54.5798 176.336 54.3638C175.856 54.1461 175.643 53.5808 175.861 53.1008C176.283 52.1681 176.671 51.2039 177.014 50.2339C177.177 49.7729 177.658 49.5163 178.123 49.6214ZM174.493 57.0958C174.597 57.1189 174.699 57.1603 174.793 57.2207C175.238 57.503 175.37 58.0922 175.088 58.5375C174.511 59.4496 173.885 60.3484 173.23 61.2083C172.911 61.6271 172.312 61.7082 171.893 61.3895C171.474 61.0701 171.393 60.4717 171.712 60.0521C172.333 59.2352 172.927 58.3827 173.476 57.5162C173.698 57.1661 174.11 57.0097 174.492 57.0958H174.493ZM169.282 63.572C169.453 63.6109 169.615 63.697 169.748 63.831C170.118 64.2051 170.115 64.8093 169.741 65.1801C168.973 65.9407 168.163 66.6764 167.333 67.3683C166.928 67.7052 166.326 67.6506 165.989 67.2467C165.651 66.842 165.705 66.2403 166.11 65.9026C166.898 65.2455 167.668 64.5461 168.398 63.8236C168.639 63.5861 168.973 63.5016 169.281 63.5712L169.282 63.572ZM162.757 68.724C162.997 68.7786 163.216 68.9251 163.356 69.1502C163.635 69.598 163.497 70.1864 163.05 70.4645C162.134 71.0339 161.182 71.5727 160.217 72.0643C159.748 72.3043 159.174 72.1181 158.934 71.6489C158.695 71.1796 158.88 70.6052 159.349 70.3652C160.265 69.8976 161.171 69.3861 162.041 68.8448C162.263 68.7066 162.519 68.671 162.756 68.724H162.757ZM155.255 72.3035C155.566 72.3739 155.834 72.5981 155.947 72.9217C156.119 73.42 155.856 73.9629 155.358 74.1359C154.337 74.4893 153.289 74.8038 152.242 75.0695C151.731 75.1994 151.212 74.8899 151.082 74.3792C150.952 73.8686 151.262 73.3496 151.772 73.2197C152.767 72.9673 153.764 72.6685 154.733 72.3325C154.907 72.2721 155.087 72.2654 155.255 72.3035ZM120.653 66.7989C120.782 66.8279 120.907 66.8842 121.019 66.9694C121.836 67.5893 122.69 68.1819 123.559 68.7298C124.004 69.0112 124.138 69.6005 123.857 70.0457C123.576 70.4918 122.986 70.6251 122.541 70.3437C121.626 69.766 120.725 69.1428 119.865 68.4898C119.446 68.1711 119.364 67.5728 119.683 67.1532C119.916 66.8453 120.3 66.7186 120.654 66.7989H120.653ZM147.152 74.1309C147.537 74.2186 147.844 74.5423 147.889 74.9577C147.947 75.4816 147.569 75.9525 147.045 76.0105C145.971 76.1288 144.88 76.2008 143.8 76.2265C143.273 76.2364 142.836 75.8218 142.823 75.2954C142.811 74.769 143.228 74.3312 143.755 74.3188C144.78 74.2948 145.817 74.2261 146.836 74.1135C146.945 74.1019 147.051 74.1086 147.152 74.1309ZM127.798 71.0455C127.86 71.0596 127.921 71.0794 127.98 71.1059C128.916 71.5272 129.881 71.9137 130.851 72.2555C131.348 72.431 131.609 72.9755 131.434 73.4721C131.259 73.9687 130.714 74.2327 130.217 74.0556C129.198 73.6964 128.181 73.29 127.197 72.8464C126.717 72.6296 126.503 72.0651 126.719 71.5843C126.909 71.1639 127.365 70.947 127.799 71.0455H127.798ZM138.844 74.1028C139.313 74.2087 139.637 74.6548 139.58 75.1439C139.518 75.667 139.045 76.0419 138.521 75.9815C137.449 75.8565 136.368 75.6827 135.309 75.4659C135.302 75.4651 135.296 75.4634 135.289 75.4618C134.784 75.3475 134.462 74.8501 134.565 74.3403C134.671 73.8239 135.175 73.4912 135.691 73.5971C136.697 73.8032 137.723 73.967 138.742 74.0862C138.776 74.0904 138.81 74.0962 138.843 74.1036L138.844 74.1028Z" fill="#91B3FA"/>
<path d="M115.704 62.2825C115.887 62.3239 116.06 62.4199 116.197 62.5689C116.529 62.9322 116.874 63.2939 117.222 63.6456C117.593 64.0197 117.59 64.6239 117.216 64.9947C116.842 65.3655 116.237 65.3638 115.867 64.9889C115.501 64.6189 115.138 64.2382 114.789 63.8559C114.434 63.4669 114.46 62.8635 114.849 62.5076C115.089 62.2883 115.41 62.2147 115.705 62.2817L115.704 62.2825Z" fill="#91B3FA"/>
</g>
<g opacity="0.3">
<path d="M106.026 34.8526C106.475 34.9544 106.796 35.3699 106.766 35.8441C106.735 36.3349 106.713 36.8348 106.702 37.3297C106.69 37.8569 106.253 38.2741 105.726 38.2625C105.197 38.2501 104.782 37.8139 104.793 37.2867C104.805 36.7661 104.828 36.2397 104.861 35.7225C104.895 35.1969 105.349 34.7972 105.874 34.8311C105.925 34.8344 105.976 34.8419 106.025 34.8526H106.026Z" fill="#91B3FA"/>
<path d="M151.281 0.940685C151.709 1.03752 152.138 1.14263 152.566 1.25436C153.075 1.38843 153.38 1.90984 153.247 2.41966C153.114 2.92948 152.589 3.23571 152.082 3.1008C151.094 2.84175 150.098 2.62409 149.11 2.45029C148.591 2.35842 148.245 1.86515 148.336 1.34622C148.427 0.826472 148.922 0.479694 149.44 0.570734C150.052 0.677498 150.671 0.802471 151.282 0.940685H151.281ZM157.339 2.86162C157.392 2.8732 157.443 2.88976 157.494 2.91045C158.478 3.31682 159.456 3.76953 160.399 4.25618C160.868 4.49785 161.051 5.07305 160.81 5.54149C160.569 6.00993 159.992 6.19532 159.525 5.95282C158.629 5.491 157.7 5.06064 156.765 4.67413C156.278 4.47302 156.047 3.91519 156.248 3.42855C156.428 2.99238 156.894 2.76147 157.339 2.86245V2.86162ZM144.446 0.0484981C144.884 0.147814 145.205 0.54756 145.187 1.01352C145.168 1.54072 144.725 1.95122 144.199 1.93219C143.192 1.89494 142.169 1.90074 141.159 1.94957C140.633 1.9744 140.186 1.56886 140.16 1.04248C140.135 0.51611 140.541 0.0683612 141.067 0.0435323C142.131 -0.00778087 143.208 -0.0135743 144.269 0.0253244C144.329 0.0278073 144.389 0.035256 144.446 0.0484981ZM164.511 6.80032C164.629 6.8268 164.743 6.87729 164.849 6.95095C165.718 7.56339 166.572 8.21971 167.387 8.90333C167.791 9.24183 167.843 9.84352 167.504 10.2474C167.166 10.6513 166.564 10.7043 166.16 10.3658C165.387 9.71689 164.576 9.09368 163.75 8.51186C163.319 8.20895 163.216 7.61305 163.519 7.18268C163.749 6.85742 164.145 6.71838 164.511 6.80114V6.80032ZM136.294 0.656807C136.654 0.737915 136.949 1.02593 137.021 1.41161C137.118 1.9297 136.777 2.42794 136.259 2.5256C135.269 2.71099 134.272 2.9419 133.298 3.21088C132.789 3.35158 132.264 3.05363 132.124 2.54464C131.984 2.03647 132.282 1.51175 132.789 1.37105C133.816 1.08718 134.864 0.84468 135.907 0.649359C136.039 0.62453 136.17 0.628668 136.294 0.65598V0.656807ZM128.472 3.03873C128.76 3.10411 129.013 3.30109 129.139 3.59242C129.346 4.07658 129.123 4.63772 128.639 4.84545C127.71 5.24437 126.787 5.68715 125.897 6.16139C125.432 6.40968 124.854 6.23339 124.607 5.76743C124.359 5.3023 124.535 4.72462 125.001 4.47716C125.938 3.97809 126.909 3.51214 127.886 3.09253C128.078 3.00976 128.282 2.99569 128.472 3.03873H128.472ZM121.356 7.0693C121.574 7.11896 121.777 7.24558 121.918 7.44173C122.227 7.86879 122.13 8.46551 121.703 8.77339C120.883 9.36515 120.079 9.99829 119.313 10.6546C118.913 10.9972 118.311 10.9517 117.967 10.5511C117.625 10.1506 117.671 9.54888 118.071 9.20541C118.877 8.51434 119.723 7.8481 120.586 7.22572C120.817 7.05937 121.097 7.01054 121.356 7.0693ZM115.288 12.5557C115.44 12.5896 115.585 12.6616 115.71 12.7725C116.103 13.1218 116.14 13.7251 115.791 14.1191C115.12 14.8755 114.474 15.6692 113.871 16.4778C113.556 16.8999 112.958 16.9868 112.536 16.6723C112.113 16.357 112.027 15.7594 112.342 15.3373C112.977 14.4857 113.657 13.6498 114.363 12.8536C114.602 12.5838 114.961 12.482 115.288 12.5557ZM110.572 19.2421C110.657 19.2611 110.74 19.2934 110.822 19.3373C111.283 19.5914 111.451 20.1715 111.197 20.6334C110.711 21.5173 110.256 22.4326 109.846 23.3563C109.631 23.8379 109.066 24.0531 108.586 23.8396C108.104 23.6252 107.888 23.0616 108.102 22.5799C108.535 21.6083 109.013 20.6433 109.525 19.7139C109.735 19.3323 110.168 19.1511 110.572 19.2429V19.2421ZM107.441 26.7967C107.46 26.8009 107.479 26.8058 107.498 26.8116C108.003 26.9589 108.294 27.4886 108.147 27.9943C107.939 28.7086 107.75 29.4369 107.586 30.161C107.527 30.4234 107.47 30.6858 107.417 30.9473C107.312 31.4637 106.808 31.7973 106.292 31.6922C105.767 31.5962 105.442 31.083 105.547 30.5674C105.603 30.2918 105.662 30.0162 105.725 29.7406C105.897 28.9792 106.096 28.212 106.315 27.4613C106.457 26.9747 106.953 26.6866 107.441 26.7976V26.7967Z" fill="#91B3FA"/>
<path d="M170.654 12.2397C170.84 12.2819 171.014 12.3787 171.15 12.5293C171.497 12.9125 171.842 13.3098 172.176 13.7112C172.513 14.1159 172.458 14.7176 172.053 15.0553C171.648 15.3921 171.047 15.3383 170.709 14.9328C170.392 14.5521 170.064 14.1738 169.735 13.8105C169.382 13.4199 169.411 12.8165 169.802 12.4631C170.041 12.2463 170.361 12.1743 170.654 12.2405L170.654 12.2397Z" fill="#91B3FA"/>
</g>
<path d="M166.955 22.7482C166.871 22.5777 166.687 22.4801 166.498 22.5049L161.116 23.2067C159.499 21.2552 157.559 19.5469 155.34 18.1756L155.295 12.7521C155.293 12.5617 155.17 12.3937 154.991 12.3333L148.818 10.2634C148.638 10.203 148.439 10.2634 148.323 10.414L145.016 14.7136C142.419 14.4702 139.842 14.6631 137.375 15.2449L133.505 11.4395C133.369 11.3062 133.164 11.2731 132.993 11.3584L127.165 14.2592C126.995 14.3444 126.897 14.5274 126.922 14.7161L127.624 20.0981C125.672 21.7153 123.964 23.6553 122.592 25.8742L117.168 25.9197C116.978 25.9214 116.81 26.043 116.749 26.2234L114.679 32.3959C114.619 32.5763 114.679 32.775 114.83 32.8908L119.13 36.1981C118.886 38.7952 119.079 41.3724 119.661 43.8396L115.855 47.7096C115.722 47.8453 115.689 48.0506 115.774 48.2211L118.675 54.0492C118.76 54.2197 118.943 54.3174 119.132 54.2926L124.514 53.5899C126.131 55.5415 128.071 57.2497 130.29 58.6211L130.336 64.0454C130.337 64.2357 130.459 64.4037 130.639 64.4642L136.812 66.5341C136.992 66.5945 137.191 66.5341 137.307 66.3834L140.614 62.0839C143.211 62.3272 145.788 62.1344 148.256 61.5526L152.126 65.358C152.261 65.4913 152.467 65.5244 152.637 65.4391L158.465 62.5383C158.636 62.4538 158.733 62.2701 158.709 62.0814L158.007 56.6993C159.958 55.0821 161.667 53.1422 163.038 50.9233L168.462 50.8778C168.653 50.8761 168.821 50.7544 168.881 50.5732L170.951 44.4007C171.011 44.2203 170.951 44.0217 170.8 43.9058L166.501 40.5986C166.744 38.0015 166.551 35.4242 165.969 32.9571L169.775 29.087C169.908 28.9513 169.941 28.7461 169.856 28.5756L166.955 22.7474V22.7482Z" fill="#91B3FA"/>
<path d="M144.263 32.0171C147.374 32.7214 149.589 35.6247 149.339 38.898C149.064 42.4965 145.913 45.1987 142.315 44.924C140.572 44.7907 138.985 43.9871 137.847 42.6604C136.709 41.3337 136.156 39.6437 136.289 37.9007C136.565 34.3021 139.715 31.5999 143.313 31.8747C143.638 31.8995 143.955 31.9475 144.263 32.0179V32.0171ZM141.695 43.2911C141.935 43.3457 142.181 43.3829 142.431 43.402C145.189 43.613 147.605 41.5398 147.816 38.7821C148.027 36.0236 145.956 33.6069 143.196 33.3967C140.437 33.1857 138.021 35.2589 137.81 38.0166C137.708 39.3532 138.132 40.6493 139.005 41.6664C139.715 42.4932 140.651 43.0552 141.695 43.2911Z" fill="#BDD0FB"/>
<path d="M146.22 22.7687C146.755 22.8896 147.286 23.0386 147.813 23.2148C147.978 23.2703 148.143 23.3291 148.308 23.3895C149.116 23.6899 149.898 24.0541 150.644 24.4762C150.654 24.4819 150.665 24.4877 150.675 24.4935C150.704 24.5101 150.732 24.5266 150.761 24.5432C150.817 24.5755 150.873 24.6086 150.928 24.6409C151.074 24.7278 151.141 24.8958 151.106 25.053C151.098 25.0911 151.083 25.1283 151.061 25.1639C150.954 25.3452 150.719 25.4039 150.538 25.2972C149.605 24.7435 148.607 24.2866 147.57 23.939C142.421 22.2109 136.987 23.3837 133.046 26.5684C130.855 28.3395 129.125 30.7331 128.165 33.5975C127.996 34.0999 127.855 34.6064 127.739 35.1162C126.963 38.5459 127.387 42.1097 128.975 45.3002C130.799 48.9658 133.942 51.7011 137.823 53.003C145.84 55.6911 154.541 51.3576 157.229 43.3453C157.394 42.8512 157.534 42.3505 157.648 41.8457C158.143 39.6574 158.154 37.3856 157.672 35.1923C157.659 35.1352 157.66 35.0789 157.672 35.026C157.703 34.8861 157.812 34.7702 157.962 34.7371C158.168 34.6924 158.372 34.8216 158.416 35.0285C158.923 37.3309 158.911 39.7162 158.392 42.0137C158.272 42.5434 158.126 43.0689 157.952 43.5878C155.131 52.0007 145.99 56.5477 137.58 53.7271C133.505 52.3607 130.207 49.4888 128.291 45.6404C126.624 42.2909 126.179 38.55 126.995 34.949C127.115 34.4135 127.264 33.8814 127.442 33.355C128.809 29.2797 131.68 25.9808 135.527 24.0656C138.878 22.398 142.619 21.9535 146.221 22.7696L146.22 22.7687Z" fill="#BDD0FB"/>
<g opacity="0.3">
<path d="M217.321 24.1959C217.569 24.2522 217.762 24.4665 217.779 24.7338C217.81 25.2329 217.827 25.7402 217.829 26.241C217.829 26.5662 217.567 26.8311 217.241 26.8319C216.915 26.8344 216.651 26.5695 216.65 26.2443C216.648 25.7676 216.633 25.2842 216.603 24.8075C216.582 24.4831 216.829 24.2033 217.154 24.1826C217.212 24.1793 217.267 24.1843 217.321 24.1967V24.1959Z" fill="#91B3FA"/>
<path d="M217.19 28.7278C217.482 28.794 217.681 29.0713 217.645 29.3734C217.54 30.2283 217.391 31.0882 217.202 31.9274C217.162 32.1045 217.12 32.2808 217.076 32.4579C216.997 32.7741 216.663 32.9504 216.362 32.8883C216.046 32.8097 215.854 32.4902 215.932 32.1741C215.975 32.0044 216.015 31.8356 216.053 31.6667C216.234 30.8656 216.377 30.0462 216.476 29.2302C216.515 28.9066 216.809 28.6773 217.132 28.7162C217.153 28.7187 217.173 28.722 217.192 28.727L217.19 28.7278ZM215.713 34.6661C215.74 34.6719 215.768 34.6801 215.794 34.6901C216.098 34.8068 216.25 35.1477 216.134 35.4515C215.761 36.4264 215.324 37.3873 214.836 38.3068C214.683 38.594 214.325 38.7024 214.039 38.551C213.751 38.3978 213.642 38.042 213.795 37.754C214.26 36.8767 214.678 35.9605 215.033 35.0302C215.139 34.753 215.432 34.6023 215.713 34.6661ZM212.84 40.068C212.913 40.0846 212.984 40.1152 213.049 40.1607C213.315 40.3478 213.379 40.716 213.191 40.9817C212.591 41.8342 211.931 42.6593 211.229 43.4315C211.01 43.6732 210.638 43.6906 210.396 43.4712C210.155 43.2527 210.137 42.8795 210.356 42.6386C211.025 41.9012 211.654 41.1158 212.226 40.3022C212.368 40.1011 212.613 40.0159 212.839 40.0664L212.84 40.068ZM208.727 44.5993C208.846 44.6266 208.957 44.6903 209.043 44.7897C209.255 45.0363 209.227 45.4087 208.98 45.6206C208.188 46.3017 207.346 46.939 206.479 47.5159C206.208 47.6955 205.842 47.621 205.662 47.3512C205.482 47.0805 205.555 46.7147 205.827 46.5343C206.654 45.9847 207.457 45.3764 208.212 44.7276C208.359 44.601 208.551 44.5604 208.727 44.6001V44.5993ZM203.632 47.9884C203.798 48.0257 203.947 48.1349 204.029 48.2996C204.175 48.5901 204.057 48.9444 203.766 49.09C202.833 49.5568 201.863 49.9706 200.881 50.3199C200.574 50.43 200.237 50.2694 200.128 49.9623C200.019 49.6553 200.179 49.3184 200.485 49.2092C201.421 48.8757 202.348 48.4817 203.237 48.0356C203.364 47.9727 203.503 47.9586 203.631 47.9876L203.632 47.9884ZM197.87 50.0377C198.085 50.0865 198.264 50.2553 198.315 50.4846C198.386 50.8024 198.185 51.1169 197.868 51.1872C196.85 51.4132 195.807 51.5779 194.771 51.6764C194.445 51.7062 194.159 51.4686 194.128 51.145C194.098 50.8214 194.335 50.5334 194.66 50.5028C195.649 50.4093 196.641 50.252 197.612 50.0368C197.7 50.017 197.787 50.0186 197.869 50.0368L197.87 50.0377ZM191.783 50.6153C192.052 50.6766 192.25 50.9207 192.241 51.2071C192.231 51.5324 191.96 51.7881 191.635 51.779C190.595 51.7484 189.544 51.6524 188.51 51.4935C188.189 51.438 187.968 51.1426 188.018 50.8206C188.068 50.4987 188.368 50.2785 188.69 50.3282C189.676 50.4804 190.678 50.5723 191.669 50.6013C191.708 50.6021 191.746 50.6071 191.783 50.6153ZM182.843 48.6679C182.876 48.6754 182.909 48.6861 182.942 48.6994C183.734 49.0329 184.558 49.3284 185.392 49.5783C185.518 49.6172 185.642 49.6536 185.767 49.6876C186.08 49.7761 186.263 50.1014 186.174 50.4151C186.086 50.7296 185.756 50.9199 185.447 50.8231C185.315 50.785 185.182 50.7469 185.051 50.7064C184.18 50.4449 183.316 50.1345 182.486 49.7852C182.186 49.6586 182.045 49.3135 182.172 49.0139C182.284 48.7466 182.57 48.6059 182.844 48.6679H182.843Z" fill="#91B3FA"/>
</g>
<g opacity="0.3">
<path d="M197.65 1.43078C197.963 1.50196 198.163 1.81232 198.096 2.12848C198.028 2.44629 197.715 2.64989 197.397 2.58202C196.438 2.37842 195.459 2.2311 194.487 2.1442C194.165 2.11275 193.923 1.8297 193.952 1.50527C193.981 1.18084 194.267 0.941654 194.591 0.970622C195.611 1.06166 196.637 1.2156 197.642 1.42913C197.644 1.42913 197.646 1.42996 197.65 1.43078ZM200.556 2.23442C200.576 2.23938 200.597 2.24517 200.617 2.2518C201.588 2.58368 202.548 2.97846 203.471 3.42372C203.764 3.56525 203.888 3.91699 203.746 4.2108C203.605 4.50461 203.251 4.62544 202.959 4.48557C202.078 4.06017 201.161 3.6836 200.235 3.36662C199.927 3.26151 199.764 2.92632 199.869 2.61844C199.967 2.33042 200.266 2.1682 200.556 2.23442ZM191.656 0.900273C191.911 0.958207 192.105 1.18167 192.115 1.45479C192.126 1.77922 191.871 2.05234 191.546 2.06392C190.566 2.09786 189.58 2.19221 188.615 2.34366C188.293 2.39249 187.992 2.174 187.943 1.85288C187.892 1.53176 188.112 1.22967 188.433 1.17918C189.445 1.02028 190.478 0.922619 191.505 0.887031C191.558 0.885375 191.608 0.890341 191.656 0.9011V0.900273ZM205.976 4.85552C206.041 4.87042 206.105 4.89691 206.164 4.93498C207.028 5.49115 207.865 6.10608 208.653 6.76322C208.903 6.97178 208.937 7.34339 208.728 7.59333C208.521 7.84245 208.148 7.87638 207.898 7.66865C207.147 7.04213 206.349 6.45616 205.526 5.92565C205.252 5.74937 205.173 5.38438 205.349 5.11126C205.487 4.89773 205.74 4.80256 205.975 4.85552H205.976ZM185.712 1.83384C185.916 1.88019 186.089 2.03247 186.149 2.24766C186.238 2.56133 186.056 2.88659 185.743 2.97597C184.802 3.2433 183.869 3.57104 182.967 3.95092C182.666 4.07755 182.321 3.93603 182.195 3.63642C182.068 3.33682 182.21 2.99087 182.509 2.86424C183.455 2.46615 184.434 2.12268 185.42 1.84129C185.518 1.81315 185.618 1.81232 185.71 1.83384H185.712ZM180.165 4.16611C180.321 4.2017 180.462 4.29936 180.547 4.44833C180.708 4.73055 180.611 5.0914 180.327 5.25279C179.477 5.73944 178.647 6.28153 177.864 6.86419C177.602 7.05868 177.233 7.00406 177.039 6.74335C176.845 6.48182 176.899 6.11353 177.16 5.91903C177.982 5.30824 178.851 4.73966 179.742 4.22984C179.876 4.15369 180.026 4.13549 180.164 4.16694L180.165 4.16611ZM175.337 7.76051C175.446 7.78534 175.55 7.84079 175.633 7.92935C175.857 8.16522 175.848 8.53849 175.612 8.76277C174.902 9.43812 174.228 10.1631 173.607 10.9179C173.4 11.1687 173.029 11.2051 172.778 10.9982C172.526 10.7913 172.49 10.4205 172.697 10.1689C173.347 9.3777 174.055 8.61711 174.799 7.90866C174.947 7.76796 175.15 7.71913 175.336 7.76134L175.337 7.76051Z" fill="#91B3FA"/>
<path d="M210.618 8.72735C210.729 8.75218 210.833 8.81011 210.918 8.89867C211.263 9.26614 211.598 9.64602 211.916 10.0276C212.124 10.2775 212.09 10.6491 211.84 10.8577C211.59 11.0646 211.218 11.0315 211.01 10.7815C210.707 10.4182 210.386 10.0557 210.058 9.70478C209.835 9.46725 209.848 9.09399 210.084 8.87219C210.232 8.73314 210.433 8.68597 210.618 8.72735Z" fill="#91B3FA"/>
</g>
<path d="M208.467 16.0443C208.411 15.9301 208.288 15.8647 208.162 15.8813L204.561 16.3514C203.479 15.0454 202.181 13.9024 200.696 12.9846L200.665 9.3554C200.664 9.22794 200.582 9.11539 200.462 9.07483L196.332 7.68938C196.211 7.64882 196.078 7.68938 196.001 7.79035L193.788 10.6672C192.05 10.5042 190.325 10.6333 188.674 11.0231L186.085 8.47645C185.994 8.38707 185.856 8.36555 185.743 8.42183L181.843 10.3626C181.729 10.4197 181.664 10.5422 181.68 10.668L182.15 14.269C180.844 15.3508 179.701 16.6493 178.783 18.1341L175.154 18.1647C175.027 18.1655 174.914 18.2475 174.874 18.3683L173.488 22.499C173.448 22.6199 173.488 22.7531 173.589 22.8301L176.466 25.0432C176.303 26.7812 176.432 28.506 176.822 30.1563L174.275 32.7459C174.186 32.837 174.164 32.9744 174.221 33.0877L176.161 36.9875C176.218 37.1018 176.341 37.1671 176.467 37.1506L180.068 36.6805C181.15 37.9865 182.448 39.1294 183.933 40.0473L183.964 43.6765C183.964 43.8039 184.046 43.9165 184.167 43.957L188.298 45.3425C188.419 45.383 188.552 45.3425 188.629 45.2415L190.842 42.3647C192.58 42.5277 194.305 42.3986 195.955 42.0088L198.545 44.5554C198.636 44.6448 198.773 44.6663 198.887 44.61L202.786 42.6692C202.901 42.6121 202.966 42.4896 202.949 42.3638L202.479 38.7628C203.785 37.6811 204.928 36.3825 205.846 34.8978L209.475 34.8671C209.603 34.8663 209.715 34.7844 209.756 34.6635L211.141 30.5337C211.182 30.4128 211.141 30.2796 211.04 30.2026L208.163 27.9895C208.327 26.2515 208.197 24.5267 207.808 22.8764L210.354 20.2868C210.444 20.1957 210.465 20.0583 210.409 19.9449L208.468 16.0451L208.467 16.0443Z" fill="#91B3FA"/>
<path d="M193.307 22.1706C194.234 22.3809 195.066 22.8799 195.696 23.614C196.472 24.5178 196.848 25.669 196.757 26.8567C196.57 29.3065 194.424 31.148 191.974 30.9609C189.52 30.7689 187.682 28.627 187.869 26.1764C187.96 24.9887 188.507 23.9078 189.41 23.1332C190.314 22.3577 191.465 21.9803 192.653 22.0721C192.875 22.0895 193.093 22.1226 193.306 22.1706H193.307ZM191.587 29.7145C191.742 29.7493 191.901 29.7733 192.063 29.7865C193.866 29.9239 195.444 28.5699 195.582 26.7665C195.649 25.8933 195.372 25.0458 194.802 24.3821C194.231 23.7175 193.436 23.3153 192.563 23.2474C191.69 23.1803 190.842 23.4576 190.178 24.0278C189.513 24.5981 189.11 25.3934 189.043 26.2666C188.917 27.9061 190.028 29.3611 191.586 29.7145H191.587Z" fill="#BDD0FB"/>
<path d="M194.68 15.7351C195.043 15.8171 195.406 15.9189 195.766 16.0397C196.483 16.2797 197.176 16.5934 197.827 16.9716C197.856 16.989 197.885 17.0064 197.915 17.0229C198.14 17.1562 198.244 17.4169 198.189 17.6594C198.176 17.7181 198.153 17.7761 198.12 17.8307C197.954 18.1104 197.593 18.2006 197.312 18.0359C196.707 17.6767 196.061 17.3813 195.392 17.157C195.355 17.1446 195.318 17.133 195.281 17.1206C193.692 16.6041 192.033 16.504 190.432 16.8019C189.563 16.9641 188.711 17.2439 187.896 17.6412C187.889 17.6445 187.882 17.6478 187.876 17.6511C187.855 17.661 187.835 17.6709 187.815 17.6809C185.443 18.8619 183.671 20.8962 182.829 23.4089C182.72 23.7342 182.628 24.0619 182.553 24.3921C182.051 26.6127 182.325 28.9193 183.354 30.9851C184.535 33.3579 186.569 35.1282 189.082 35.9707C191.593 36.8116 194.285 36.627 196.658 35.4468C199.031 34.2658 200.802 32.2315 201.644 29.7188C201.752 29.3993 201.842 29.0749 201.917 28.748C202.237 27.3311 202.244 25.8604 201.931 24.441C201.912 24.3532 201.913 24.2663 201.931 24.1844C201.98 23.9692 202.149 23.7896 202.379 23.7391C202.697 23.6704 203.012 23.8699 203.081 24.1885C203.43 25.7768 203.423 27.4229 203.065 29.007C202.982 29.3728 202.881 29.7353 202.761 30.0929C201.817 32.9043 199.837 35.1803 197.182 36.5012C194.527 37.8221 191.518 38.0332 188.706 37.088C185.894 36.1453 183.618 34.164 182.298 31.5089C181.147 29.1982 180.84 26.6176 181.403 24.1331C181.486 23.764 181.589 23.3973 181.711 23.0332C183.537 17.5898 189.196 14.492 194.679 15.7335L194.68 15.7351Z" fill="#BDD0FB"/>
<path d="M14.6393 46.1862C13.9714 46.8012 13.9135 47.8349 14.5085 48.5202L51.9978 92.2977C52.6177 93.0128 53.706 93.0741 54.402 92.4326L57.5917 89.4962L16.3037 44.6543L14.6393 46.1862Z" fill="url(#paint1_linear_63_17787)"/>
<path d="M19.772 32.122C18.4958 30.792 16.3903 30.7267 15.0339 31.9756L11.6712 35.0717C10.3147 36.3206 10.2063 38.4245 11.427 39.8058L56.1589 90.8152L65.5351 82.1822C66.2957 81.482 66.3305 80.2927 65.6121 79.5495L19.772 32.122Z" fill="url(#paint2_linear_63_17787)"/>
<path d="M22.9782 42.8099L22.6265 43.1335C21.5373 44.1358 21.4678 45.8316 22.4701 46.9208L46.075 72.5583C47.0772 73.6475 48.773 73.717 49.8622 72.7147L50.2139 72.3911C51.3031 71.3889 51.3726 69.6931 50.3704 68.6039L26.7655 42.9663C25.7632 41.8772 24.0674 41.8077 22.9782 42.8099Z" fill="url(#paint3_linear_63_17787)"/>
<path d="M23.2998 42.5131L22.3086 43.4258L49.5462 73.005L50.5374 72.0923L23.2998 42.5131Z" fill="#91B3FA"/>
<path d="M68.0728 95.2645C72.7396 90.5977 72.7396 83.0312 68.0728 78.3644C63.406 73.6976 55.8395 73.6976 51.1727 78.3644C46.5059 83.0312 46.5059 90.5977 51.1727 95.2645C55.8395 99.9313 63.406 99.9313 68.0728 95.2645Z" fill="url(#paint4_linear_63_17787)"/>
<path opacity="0.39" d="M64.1054 94.7695C68.4965 92.2923 70.0479 86.7243 67.5706 82.3333C65.0934 77.9422 59.5255 76.3907 55.1344 78.868C50.7433 81.3453 49.1918 86.9132 51.6691 91.3043C54.1464 95.6954 59.7143 97.2468 64.1054 94.7695Z" fill="white"/>
<path d="M14.3164 34.8835L15.8541 38.007C16.1893 38.689 17.0228 38.9588 17.694 38.6029L58.4573 16.6822C59.1012 16.3413 59.3578 15.55 59.0358 14.8962L58.2339 13.2666L14.3164 34.8835Z" fill="url(#paint5_linear_63_17787)"/>
<path d="M62.86 4.13718L64.4805 7.43033C65.1343 8.75868 64.6054 10.3659 63.2912 11.0463L15.0088 36.2849L10.4883 27.1015C10.1216 26.3566 10.4402 25.4561 11.1934 25.1077L59.2689 2.87422C60.6105 2.2477 62.2061 2.80966 62.86 4.13718Z" fill="url(#paint6_linear_63_17787)"/>
<path d="M49.3906 9.7064L23.1373 22.629C21.9762 23.2009 21.4978 24.6063 22.0697 25.7674C22.6416 26.9286 24.0469 27.407 25.2081 26.8351L51.4614 13.9124C52.6225 13.3405 53.1009 11.9352 52.529 10.774C51.9571 9.61288 50.5518 9.13451 49.3906 9.7064Z" fill="url(#paint7_linear_63_17787)"/>
<path d="M21.8269 25.2815L22.3047 26.252L52.7635 11.2578L52.2857 10.2873L21.8269 25.2815Z" fill="#91B3FA"/>
<path d="M20.357 39.0699C24.1046 35.3222 24.1046 29.2461 20.357 25.4985C16.6094 21.7509 10.5333 21.7509 6.78567 25.4985C3.03805 29.2461 3.03805 35.3222 6.78567 39.0699C10.5333 42.8175 16.6094 42.8175 20.357 39.0699Z" fill="url(#paint8_linear_63_17787)"/>
<path d="M10.3368 25.7073C6.70436 27.495 5.20966 31.8889 6.99734 35.5214C8.78503 39.1538 13.1789 40.6485 16.8114 38.8609C20.4439 37.0732 21.9386 32.6793 20.1509 29.0468C18.3632 25.4143 13.9693 23.9196 10.3368 25.7073Z" fill="#91B3FA"/>
<path d="M78.2676 34.4331L75.8484 35.9974C74.8726 36.628 73.6949 36.5544 73.1992 35.831L54.8125 9.29549L61.5602 4.93387C62.1072 4.58047 62.7669 4.63592 63.021 5.05719L79.2036 31.9486C79.6597 32.6976 79.2434 33.8017 78.2676 34.4323V34.4331Z" fill="url(#paint9_linear_63_17787)"/>
<path d="M67.0947 8.25491C67.1433 4.09478 63.8103 0.682885 59.6502 0.634235C55.49 0.585586 52.0781 3.9186 52.0295 8.07874C51.9808 12.2389 55.3139 15.6508 59.474 15.6994C63.6341 15.7481 67.046 12.415 67.0947 8.25491Z" fill="url(#paint10_linear_63_17787)"/>
<path d="M62.6812 13.0013C65.3505 11.2764 66.1161 7.71423 64.3912 5.0449C62.6664 2.37557 59.1041 1.60994 56.4348 3.33483C53.7655 5.05971 52.9999 8.62193 54.7247 11.2913C56.4496 13.9606 60.0118 14.7262 62.6812 13.0013Z" fill="#91B3FA"/>
<path d="M82.1791 34.2318L80.4892 31.6394C80.4347 31.556 80.323 31.5324 80.2395 31.5868L72.2593 36.789C72.1759 36.8434 72.1523 36.9552 72.2067 37.0387L73.8966 39.631C73.9511 39.7145 74.0628 39.738 74.1463 39.6836L82.1265 34.4814C82.2099 34.427 82.2335 34.3152 82.1791 34.2318Z" fill="url(#paint11_linear_63_17787)"/>
<path d="M84.0248 38.8831L91.6696 37.5332L94.9024 50.8779L93.0319 51.7081L89.6163 40.6608L83.6797 41.75L84.0248 38.8831Z" fill="url(#paint12_linear_63_17787)"/>
<path d="M77.4915 43.1777L73.2656 49.6895L84.2913 57.8732L85.7844 56.4753L76.9461 49.02L80.2657 43.9781L77.4915 43.1777Z" fill="url(#paint13_linear_63_17787)"/>
<path d="M75.7539 42.1126C76.4574 43.6313 77.9256 44.747 79.7116 44.9183C82.3907 45.1757 84.7718 43.2134 85.03 40.5335C85.1608 39.1778 84.7221 37.8983 83.9102 36.9316L75.7539 42.1126Z" fill="url(#paint14_linear_63_17787)"/>
<path d="M74.0039 39.3676L72.712 40.2093C72.4794 40.3616 72.4223 40.6868 72.5845 40.9359L74.1454 43.3303C74.3077 43.5794 74.6288 43.6588 74.8613 43.5066L85.1596 36.7936C85.393 36.6422 85.4501 36.3169 85.287 36.067L83.7261 33.6726C83.5639 33.4235 83.2428 33.3441 83.0102 33.4964L81.8267 34.2677L74.0039 39.3676Z" fill="url(#paint15_linear_63_17787)"/>
<path d="M230.138 228.993L192.929 188.643C190.802 186.336 189.59 183.448 189.489 180.441L186.731 101.604V85.8555L45.4691 86.0293L45.0975 98.2592L42.1776 180.441C42.0758 183.448 40.8699 186.336 38.7429 188.643L2.26917 228.197C1.0211 229.551 2.09868 231.61 4.04444 231.589L48.4063 231.169C52.0198 231.135 55.3038 229.258 56.897 226.315L74.3865 194.007C75.474 192.468 76.1014 190.697 76.2056 188.871L81.3419 98.4446L92.8659 98.6308L91.1146 190.511C91.1072 190.934 90.9987 191.35 90.7968 191.731L72.6766 225.939C71.652 227.874 73.1972 230.117 75.5634 230.131L155.052 230.578C157.443 230.592 159.018 228.322 157.971 226.371L138.839 190.77C138.617 190.356 138.505 189.9 138.514 189.439L139.149 99.7456L149.743 100.303L155.473 188.871C155.577 190.697 156.204 192.467 157.292 194.007L176.369 226.749C178.114 229.745 181.544 231.619 185.279 231.617L228.775 231.601C230.271 231.616 231.099 230.033 230.139 228.992L230.138 228.993Z" fill="url(#paint16_linear_63_17787)"/>
<path d="M46.216 101.24L43.9872 179.051C43.9011 182.057 42.8748 184.946 41.0731 187.253L3.87682 226.816C2.48309 228.839 5.85321 229.746 7.50102 229.724H43.6065C46.667 229.69 51.4582 228.746 52.8072 225.804L71.2585 192.617C72.1796 191.078 73.7687 188.68 73.8572 186.854L78.4572 100.354L46.2151 101.24H46.216Z" fill="url(#paint17_linear_63_17787)"/>
<path d="M184.595 100.523L187.603 178.306C187.748 181.31 188.826 184.181 190.664 186.459L228.274 226.984C229.105 228.012 225.858 228.838 221.721 228.92L188.869 228.838C185.721 228.891 180.734 227.426 179.204 224.455L160.246 192.923C159.298 191.399 157.767 189.521 157.644 187.696L151.695 101.366L184.595 100.522V100.523Z" fill="url(#paint18_linear_63_17787)"/>
<path d="M95.0755 98.7286L93.6602 188.616C93.6536 189.039 93.5584 189.454 93.3805 189.836L77.4204 224.044C76.5175 225.979 77.8789 228.222 79.9629 228.236L149.977 228.683C152.084 228.697 153.472 226.426 152.548 224.476L135.696 188.876C135.5 188.461 135.402 188.005 135.409 187.545L136.825 101.011C136.851 99.4437 135.672 98.1335 134.152 98.0417L98.0822 95.8567C96.4692 95.759 95.102 97.0651 95.0755 98.7294V98.7286Z" fill="url(#paint19_linear_63_17787)"/>
<path d="M222.278 101.976L3.41486 102.251C1.74635 102.251 0.347656 101.095 0.347656 99.6525L0.486698 89.6621C0.486698 87.4143 2.50115 85.6191 5.10075 85.6191H220.931C223.731 85.6191 226.879 87.6584 226.879 90.0801V97.8863C226.879 100.601 225.418 101.976 222.279 101.976H222.278Z" fill="url(#paint20_linear_63_17787)"/>
<path d="M0.549071 94.9131H45.6244C46.0506 94.9131 46.3966 95.259 46.3966 95.6853V102.891C46.3966 103.002 46.3072 103.092 46.1963 103.092H0.486998C0.384372 103.092 0.300781 103.008 0.300781 102.906V95.1614C0.300781 95.0248 0.411684 94.9131 0.549071 94.9131Z" fill="url(#paint21_linear_63_17787)"/>
<path d="M185.34 102.525L226.388 102.078C226.838 102.073 227.2 101.704 227.194 101.254L227.125 95.3976C227.117 94.7438 226.583 94.2182 225.93 94.2207L187.102 94.3556C185.665 94.3556 184.5 95.5209 184.5 96.9577V101.693C184.5 102.156 184.877 102.53 185.34 102.524V102.525Z" fill="url(#paint22_linear_63_17787)"/>
<path d="M137.38 102.533H151.22C151.609 102.533 151.93 102.228 151.948 101.84L152.162 97.3035C152.238 95.6971 150.903 94.3555 149.231 94.3555H139.344C137.848 94.3555 136.637 95.5208 136.637 96.9575V101.79C136.637 102.201 136.969 102.533 137.38 102.533Z" fill="url(#paint23_linear_63_17787)"/>
<path d="M78.9297 102.254H94.3237C94.6854 102.254 94.9833 101.983 95.0015 101.637L95.2399 97.0242C95.3226 95.4178 93.8644 94.0762 92.0361 94.0762H81.2322C79.5985 94.0762 78.2734 95.2415 78.2734 96.6783V101.627C78.2734 101.974 78.5672 102.255 78.9297 102.255V102.254Z" fill="url(#paint24_linear_63_17787)"/>
<path d="M79.8635 86.2751V60.8263C79.8635 58.9203 77.9302 57.3693 75.5243 57.3486C68.3032 57.2865 53.4108 57.2832 41.2247 58.0968C39.562 58.2077 38.2684 59.2877 38.208 60.6086L37.0692 85.5758C36.9848 87.4305 38.8362 88.9807 41.1792 89.0163L75.6691 89.5352C77.9724 89.5699 79.8635 88.1001 79.8635 86.2751Z" fill="url(#paint25_linear_63_17787)"/>
<path opacity="0.87" d="M75.6777 62.3972C75.7083 63.6312 75.662 65.5902 75.6239 66.8556C75.6041 67.5136 74.8749 68.016 74.0489 67.939L68.1066 67.387C67.3145 67.3133 66.7575 66.7356 66.875 66.1107L67.6042 62.2565C67.7076 61.7094 68.301 61.3047 68.9996 61.3047H74.2658C75.033 61.3047 75.6612 61.7897 75.6769 62.3972H75.6777Z" fill="white"/>
<path opacity="0.37" d="M60.1516 69.7013L55.1941 70.125C54.5006 70.1846 53.9088 69.7311 53.9601 69.1799L55.0435 57.4995C57.1217 57.4474 59.1709 57.4093 61.149 57.3828V68.8215C61.149 69.2734 60.7186 69.6533 60.1516 69.7021V69.7013Z" fill="white"/>
<path d="M58.1207 67.6766C58.1058 67.8868 57.8857 68.049 57.6233 68.049C57.6134 68.049 57.6035 68.049 57.5944 68.049C57.3196 68.0366 57.1094 67.8496 57.1259 67.6319L57.8733 57.4372C58.2085 57.4305 58.5412 57.4247 58.873 57.4189L58.1207 67.6774V67.6766Z" fill="white"/>
<path d="M72.9323 66.0764C73.0192 66.0764 73.0929 66.0226 73.0978 65.9531L73.3552 62.7418C73.361 62.669 73.2915 62.6069 73.1996 62.602C73.1036 62.5962 73.0291 62.6525 73.0234 62.7253L72.766 65.9365C72.7602 66.0093 72.8297 66.0714 72.9216 66.0764C72.9249 66.0764 72.929 66.0764 72.9323 66.0764Z" fill="url(#paint26_linear_63_17787)"/>
<path d="M72.4039 66.0769C72.4933 66.0769 72.567 66.0206 72.5703 65.9494L72.7052 62.677C72.7085 62.6041 72.6357 62.5429 72.5446 62.5412C72.4387 62.5371 72.3758 62.5958 72.3733 62.6687L72.2384 65.9411C72.2351 66.014 72.3079 66.0752 72.399 66.0769H72.4047H72.4039Z" fill="url(#paint27_linear_63_17787)"/>
<path d="M71.6857 66.0757C71.5938 66.0724 71.5226 66.0103 71.5276 65.9383C71.5938 64.8392 71.7188 62.742 71.7213 62.6708C71.7213 62.5988 71.7966 62.54 71.8876 62.54C71.9786 62.54 72.054 62.5988 72.054 62.6716C72.054 62.7263 71.8926 65.4119 71.8595 65.9499C71.8553 66.0202 71.7817 66.0757 71.6939 66.0757C71.6915 66.0757 71.689 66.0757 71.6865 66.0757H71.6857Z" fill="url(#paint28_linear_63_17787)"/>
<path d="M70.5829 66.208C70.7609 66.208 70.9082 66.0962 70.9148 65.9539C71.0555 62.7832 71.0307 62.712 71.0141 62.6649C70.9661 62.5242 70.7816 62.4414 70.6061 62.4803C70.4431 62.5159 70.3421 62.6409 70.3636 62.7692C70.3744 62.9595 70.2999 64.8043 70.2502 65.9357C70.2436 66.0813 70.3876 66.203 70.5705 66.208C70.5747 66.208 70.5788 66.208 70.5829 66.208Z" fill="url(#paint29_linear_63_17787)"/>
<path d="M69.8656 66.076C69.9574 66.076 70.0319 66.0172 70.0319 65.9444V62.7332C70.0319 62.6603 69.9574 62.6016 69.8656 62.6016C69.7737 62.6016 69.6992 62.6603 69.6992 62.7332V65.9444C69.6992 66.0172 69.7737 66.076 69.8656 66.076Z" fill="url(#paint30_linear_63_17787)"/>
<path d="M69.2827 66.0756C69.373 66.0756 69.4466 66.0185 69.4491 65.9474C69.4805 64.8317 69.555 63.0093 69.6221 62.7899C69.651 62.7486 69.651 62.6964 69.6163 62.6534C69.5658 62.5921 69.4632 62.5756 69.3862 62.6153C69.296 62.6625 69.2099 62.7072 69.1172 65.9407C69.1156 66.0136 69.1884 66.074 69.2794 66.0756H69.2836H69.2827Z" fill="url(#paint31_linear_63_17787)"/>
<path d="M73.8245 66.3685C73.9999 66.3685 74.1464 66.2592 74.1564 66.1185L74.3782 62.7468C74.3873 62.6011 74.2466 62.4778 74.0637 62.4703C73.8899 62.4604 73.7243 62.5746 73.7144 62.7194L73.4926 66.0912C73.4835 66.2369 73.6242 66.3602 73.8071 66.3676C73.8129 66.3676 73.8187 66.3676 73.8245 66.3676V66.3685Z" fill="url(#paint32_linear_63_17787)"/>
<path d="M136.399 88.4933V62.3219C136.399 60.3621 134.41 58.7672 131.936 58.7457C124.51 58.682 109.195 58.6787 96.6626 59.5146C94.9528 59.6288 93.6228 60.7386 93.5607 62.0976L92.3896 87.7741C92.3027 89.6817 94.2071 91.2758 96.6163 91.3122L132.086 91.846C134.455 91.8816 136.4 90.3703 136.4 88.4941L136.399 88.4933Z" fill="url(#paint33_linear_63_17787)"/>
<path opacity="0.87" d="M132.099 63.9354C132.131 65.205 132.084 67.2187 132.045 68.5205C132.025 69.1975 131.274 69.7131 130.425 69.6345L124.314 69.0668C123.499 68.9915 122.926 68.3972 123.048 67.755L123.797 63.7906C123.904 63.2278 124.514 62.8115 125.232 62.8115H130.649C131.438 62.8115 132.084 63.3106 132.099 63.9354Z" fill="white"/>
<path opacity="0.37" d="M116.129 71.4479L111.031 71.8832C110.317 71.9444 109.709 71.4785 109.761 70.9116L110.876 58.8993C113.013 58.8455 115.121 58.8066 117.155 58.7793V70.5433C117.155 71.0084 116.713 71.3982 116.129 71.4487V71.4479Z" fill="white"/>
<path d="M114.036 69.3654C114.02 69.5814 113.794 69.7478 113.524 69.7478C113.514 69.7478 113.504 69.7478 113.494 69.7478C113.211 69.7345 112.995 69.5425 113.013 69.3191L113.782 58.8354C114.126 58.8288 114.468 58.823 114.81 58.8164L114.036 69.3662L114.036 69.3654Z" fill="white"/>
<path d="M129.272 67.7198C129.362 67.7198 129.437 67.6651 129.443 67.5931L129.707 64.2909C129.713 64.2164 129.642 64.1518 129.547 64.1469C129.448 64.1411 129.372 64.199 129.366 64.2735L129.102 67.5758C129.096 67.6502 129.167 67.7148 129.262 67.7198C129.265 67.7198 129.269 67.7198 129.272 67.7198Z" fill="url(#paint34_linear_63_17787)"/>
<path d="M128.729 67.72C128.821 67.72 128.897 67.662 128.901 67.5892L129.039 64.2241C129.042 64.1496 128.968 64.0867 128.873 64.0842C128.764 64.08 128.7 64.1405 128.697 64.215L128.559 67.5801C128.555 67.6546 128.63 67.7175 128.724 67.72H128.73H128.729Z" fill="url(#paint35_linear_63_17787)"/>
<path d="M127.991 67.7198C127.896 67.7165 127.823 67.6527 127.828 67.5782C127.896 66.4477 128.025 64.2917 128.027 64.2181C128.027 64.1444 128.104 64.084 128.198 64.084C128.293 64.084 128.37 64.1444 128.37 64.2197C128.37 64.2752 128.203 67.0378 128.17 67.5915C128.166 67.6643 128.091 67.7206 128 67.7206C127.997 67.7206 127.995 67.7206 127.991 67.7206L127.991 67.7198Z" fill="url(#paint36_linear_63_17787)"/>
<path d="M126.862 67.8556C127.044 67.8556 127.197 67.7406 127.203 67.5941C127.347 64.3332 127.322 64.2595 127.305 64.2115C127.256 64.0667 127.066 63.9823 126.886 64.0212C126.718 64.0576 126.614 64.1859 126.636 64.3183C126.647 64.5145 126.571 66.4114 126.52 67.575C126.513 67.7248 126.66 67.8498 126.849 67.8548C126.853 67.8548 126.857 67.8548 126.862 67.8548V67.8556Z" fill="url(#paint37_linear_63_17787)"/>
<path d="M126.121 67.7202C126.215 67.7202 126.292 67.6598 126.292 67.5845V64.2822C126.292 64.2077 126.216 64.1465 126.121 64.1465C126.025 64.1465 125.949 64.2069 125.949 64.2822V67.5845C125.949 67.659 126.025 67.7202 126.121 67.7202Z" fill="url(#paint38_linear_63_17787)"/>
<path d="M125.522 67.7196C125.615 67.7196 125.691 67.6608 125.693 67.5872C125.727 66.4401 125.803 64.5655 125.871 64.3404C125.901 64.2982 125.901 64.2435 125.865 64.1997C125.813 64.1368 125.707 64.1202 125.628 64.1608C125.534 64.2088 125.447 64.2551 125.352 67.5806C125.35 67.655 125.424 67.7171 125.519 67.7188H125.523L125.522 67.7196Z" fill="url(#paint39_linear_63_17787)"/>
<path d="M130.194 68.0204C130.374 68.0204 130.526 67.9087 130.535 67.7638L130.763 64.296C130.773 64.1462 130.628 64.0196 130.44 64.0113C130.261 64.0014 130.09 64.1181 130.08 64.2679L129.852 67.7357C129.842 67.8855 129.987 68.0121 130.176 68.0204C130.181 68.0204 130.188 68.0204 130.194 68.0204Z" fill="url(#paint40_linear_63_17787)"/>
<path d="M133.773 135.72V112.107C133.773 110.338 131.979 108.9 129.747 108.88C123.046 108.822 109.227 108.82 97.921 109.575C96.3783 109.677 95.1783 110.679 95.122 111.905L94.0651 135.071C93.9865 136.793 95.7046 138.23 97.8788 138.264L129.882 138.745C132.019 138.778 133.773 137.414 133.773 135.72Z" fill="url(#paint41_linear_63_17787)"/>
<path opacity="0.87" d="M129.612 113.564C129.64 114.709 129.597 116.527 129.562 117.7C129.544 118.311 128.867 118.776 128.1 118.706L122.587 118.194C121.852 118.126 121.334 117.589 121.444 117.01L122.121 113.434C122.217 112.927 122.768 112.551 123.417 112.551H128.303C129.015 112.551 129.598 113.001 129.612 113.565L129.612 113.564Z" fill="white"/>
<path opacity="0.37" d="M115.201 120.341L110.601 120.734C109.957 120.789 109.409 120.368 109.456 119.857L110.462 109.019C112.39 108.97 114.292 108.935 116.127 108.91V119.524C116.127 119.943 115.728 120.295 115.201 120.341H115.201Z" fill="white"/>
<path d="M113.316 118.462C113.302 118.657 113.098 118.807 112.854 118.807C112.845 118.807 112.836 118.807 112.827 118.807C112.572 118.795 112.377 118.623 112.391 118.42L113.085 108.961C113.396 108.955 113.704 108.949 114.013 108.943L113.315 118.462H113.316Z" fill="white"/>
<path d="M127.064 116.977C127.146 116.977 127.213 116.927 127.218 116.863L127.457 113.883C127.463 113.816 127.398 113.758 127.313 113.753C127.223 113.748 127.155 113.801 127.149 113.868L126.911 116.847C126.905 116.914 126.969 116.972 127.055 116.977C127.058 116.977 127.061 116.977 127.064 116.977Z" fill="url(#paint42_linear_63_17787)"/>
<path d="M126.573 116.977C126.656 116.977 126.724 116.925 126.727 116.859L126.852 113.822C126.854 113.754 126.787 113.698 126.703 113.696C126.604 113.691 126.546 113.746 126.543 113.814L126.418 116.85C126.416 116.918 126.483 116.975 126.567 116.977H126.572H126.573Z" fill="url(#paint43_linear_63_17787)"/>
<path d="M125.904 116.977C125.819 116.974 125.754 116.917 125.758 116.85C125.819 115.83 125.936 113.884 125.938 113.818C125.938 113.751 126.007 113.697 126.092 113.697C126.176 113.697 126.245 113.752 126.245 113.82C126.245 113.87 126.096 116.363 126.065 116.862C126.061 116.928 125.993 116.979 125.911 116.979C125.909 116.979 125.906 116.979 125.904 116.979L125.904 116.977Z" fill="url(#paint44_linear_63_17787)"/>
<path d="M124.886 117.099C125.052 117.099 125.188 116.996 125.194 116.863C125.325 113.921 125.302 113.855 125.287 113.811C125.242 113.68 125.071 113.604 124.909 113.64C124.758 113.672 124.664 113.789 124.683 113.908C124.693 114.085 124.625 115.796 124.578 116.846C124.573 116.981 124.706 117.094 124.875 117.098C124.879 117.098 124.883 117.098 124.886 117.098V117.099Z" fill="url(#paint45_linear_63_17787)"/>
<path d="M124.216 116.976C124.302 116.976 124.37 116.922 124.37 116.854V113.874C124.37 113.807 124.302 113.752 124.216 113.752C124.131 113.752 124.062 113.807 124.062 113.874V116.854C124.062 116.922 124.131 116.976 124.216 116.976Z" fill="url(#paint46_linear_63_17787)"/>
<path d="M123.677 116.977C123.761 116.977 123.83 116.924 123.831 116.858C123.861 115.822 123.93 114.132 123.992 113.928C124.019 113.89 124.018 113.841 123.986 113.801C123.94 113.744 123.844 113.729 123.773 113.767C123.688 113.81 123.609 113.852 123.523 116.852C123.522 116.92 123.589 116.975 123.674 116.977H123.677Z" fill="url(#paint47_linear_63_17787)"/>
<path d="M127.891 117.248C128.054 117.248 128.19 117.147 128.199 117.016L128.405 113.888C128.414 113.753 128.283 113.638 128.113 113.631C127.952 113.622 127.798 113.728 127.789 113.863L127.582 116.992C127.573 117.126 127.704 117.242 127.875 117.248C127.88 117.248 127.885 117.248 127.891 117.248Z" fill="url(#paint48_linear_63_17787)"/>
<path d="M185.499 150.68V132.861C185.499 131.527 184.145 130.44 182.46 130.426C177.404 130.383 166.976 130.381 158.443 130.95C157.279 131.028 156.373 131.784 156.331 132.709L155.533 150.191C155.474 151.49 156.771 152.575 158.411 152.599L182.561 152.963C184.174 152.987 185.498 151.958 185.498 150.68H185.499Z" fill="url(#paint49_linear_63_17787)"/>
<path opacity="0.87" d="M182.573 133.959C182.594 134.823 182.562 136.195 182.536 137.081C182.522 137.542 182.011 137.893 181.433 137.84L177.272 137.453C176.717 137.402 176.327 136.997 176.41 136.56L176.92 133.862C176.993 133.478 177.408 133.195 177.898 133.195H181.585C182.123 133.195 182.563 133.535 182.574 133.96L182.573 133.959Z" fill="white"/>
<path opacity="0.37" d="M171.697 139.074L168.226 139.37C167.74 139.411 167.325 139.094 167.362 138.708L168.121 130.529C169.576 130.493 171.011 130.466 172.396 130.447V138.457C172.396 138.774 172.095 139.04 171.698 139.074H171.697Z" fill="white"/>
<path d="M170.272 137.657C170.262 137.804 170.108 137.918 169.924 137.918C169.917 137.918 169.911 137.918 169.903 137.918C169.711 137.908 169.564 137.778 169.575 137.625L170.098 130.487C170.333 130.482 170.565 130.478 170.798 130.475L170.272 137.658L170.272 137.657Z" fill="white"/>
<path d="M180.644 136.536C180.706 136.536 180.757 136.499 180.76 136.45L180.941 134.201C180.945 134.151 180.896 134.107 180.831 134.104C180.763 134.1 180.712 134.139 180.708 134.19L180.528 136.439C180.523 136.489 180.572 136.533 180.637 136.536C180.639 136.536 180.642 136.536 180.644 136.536Z" fill="url(#paint50_linear_63_17787)"/>
<path d="M180.276 136.535C180.339 136.535 180.39 136.496 180.393 136.446L180.487 134.154C180.489 134.103 180.439 134.06 180.375 134.059C180.3 134.056 180.256 134.097 180.255 134.148L180.16 136.44C180.159 136.491 180.208 136.533 180.273 136.535H180.277H180.276Z" fill="url(#paint51_linear_63_17787)"/>
<path d="M179.767 136.535C179.703 136.533 179.653 136.49 179.656 136.439C179.703 135.669 179.79 134.201 179.792 134.152C179.792 134.101 179.844 134.061 179.909 134.061C179.973 134.061 180.026 134.102 180.026 134.152C180.026 134.19 179.912 136.072 179.89 136.448C179.886 136.498 179.835 136.536 179.774 136.536C179.772 136.536 179.771 136.536 179.768 136.536L179.767 136.535Z" fill="url(#paint52_linear_63_17787)"/>
<path d="M178.998 136.629C179.123 136.629 179.226 136.55 179.231 136.451C179.329 134.231 179.312 134.181 179.3 134.148C179.266 134.049 179.137 133.991 179.015 134.018C178.901 134.043 178.829 134.131 178.845 134.221C178.853 134.354 178.801 135.646 178.766 136.438C178.762 136.54 178.862 136.626 178.99 136.629C178.993 136.629 178.996 136.629 178.998 136.629Z" fill="url(#paint53_linear_63_17787)"/>
<path d="M178.496 136.536C178.56 136.536 178.612 136.495 178.612 136.444V134.195C178.612 134.144 178.56 134.104 178.496 134.104C178.431 134.104 178.379 134.145 178.379 134.195V136.444C178.379 136.495 178.431 136.536 178.496 136.536Z" fill="url(#paint54_linear_63_17787)"/>
<path d="M178.089 136.535C178.151 136.535 178.204 136.496 178.205 136.445C178.228 135.664 178.28 134.388 178.326 134.235C178.347 134.206 178.346 134.169 178.322 134.139C178.286 134.095 178.214 134.084 178.161 134.112C178.097 134.145 178.037 134.176 177.973 136.44C177.971 136.491 178.022 136.533 178.086 136.534H178.089V136.535Z" fill="url(#paint55_linear_63_17787)"/>
<path d="M181.268 136.741C181.391 136.741 181.494 136.665 181.501 136.566L181.656 134.205C181.663 134.103 181.564 134.016 181.436 134.011C181.314 134.005 181.199 134.084 181.191 134.186L181.035 136.547C181.029 136.649 181.127 136.736 181.256 136.741C181.26 136.741 181.264 136.741 181.268 136.741Z" fill="url(#paint56_linear_63_17787)"/>
<path d="M75.9399 153.899V135.085C75.9399 133.676 74.5106 132.529 72.732 132.514C67.3938 132.468 56.3838 132.466 47.375 133.067C46.146 133.149 45.1893 133.948 45.1446 134.923L44.3029 153.381C44.24 154.753 45.6089 155.898 47.3411 155.925L72.8396 156.309C74.5429 156.334 75.9399 155.248 75.9399 153.899Z" fill="url(#paint57_linear_63_17787)"/>
<path opacity="0.87" d="M72.8474 136.245C72.8697 137.158 72.8358 138.606 72.8076 139.541C72.7927 140.028 72.254 140.398 71.6432 140.342L67.2501 139.934C66.665 139.879 66.2528 139.452 66.3397 138.991L66.8793 136.141C66.9555 135.736 67.3949 135.438 67.9114 135.438H71.8046C72.3723 135.438 72.8366 135.796 72.8474 136.245Z" fill="white"/>
<path opacity="0.37" d="M61.365 141.645L57.7002 141.958C57.1871 142.002 56.7501 141.667 56.7874 141.26L57.5885 132.624C59.1246 132.585 60.64 132.557 62.1024 132.537V140.994C62.1024 141.328 61.7846 141.609 61.365 141.644V141.645Z" fill="white"/>
<path d="M59.8653 140.149C59.8537 140.305 59.6915 140.424 59.4978 140.424C59.4904 140.424 59.4837 140.424 59.4763 140.424C59.2727 140.415 59.1179 140.276 59.1295 140.115L59.6824 132.579C59.9298 132.574 60.1756 132.57 60.4215 132.565L59.8653 140.15V140.149Z" fill="white"/>
<path d="M70.818 138.966C70.8826 138.966 70.9364 138.926 70.9405 138.875L71.1309 136.501C71.135 136.447 71.0837 136.401 71.0158 136.398C70.9447 136.394 70.89 136.435 70.8859 136.489L70.6955 138.862C70.6914 138.916 70.7427 138.963 70.8106 138.966C70.8131 138.966 70.8156 138.966 70.818 138.966Z" fill="url(#paint58_linear_63_17787)"/>
<path d="M70.4281 138.966C70.4943 138.966 70.5489 138.925 70.5506 138.872L70.6499 136.453C70.6524 136.399 70.5986 136.354 70.5307 136.352C70.4521 136.348 70.4057 136.392 70.4041 136.446L70.3048 138.865C70.3023 138.919 70.3561 138.964 70.4239 138.966H70.4281Z" fill="url(#paint59_linear_63_17787)"/>
<path d="M69.8942 138.965C69.8263 138.963 69.7742 138.917 69.7775 138.863C69.8263 138.051 69.919 136.501 69.9207 136.448C69.9207 136.395 69.9761 136.352 70.0432 136.352C70.1102 136.352 70.1657 136.395 70.1657 136.449C70.1657 136.489 70.0465 138.475 70.0225 138.873C70.0192 138.925 69.9654 138.966 69.9 138.966C69.9 138.966 69.8958 138.966 69.8942 138.966V138.965Z" fill="url(#paint60_linear_63_17787)"/>
<path d="M69.0819 139.063C69.2135 139.063 69.3228 138.98 69.3269 138.875C69.4312 136.531 69.413 136.478 69.4006 136.443C69.365 136.339 69.2284 136.279 69.0985 136.307C68.9785 136.332 68.9031 136.425 68.9197 136.52C68.928 136.661 68.8725 138.025 68.8361 138.862C68.8311 138.969 68.9371 139.059 69.0728 139.063C69.0753 139.063 69.0786 139.063 69.0819 139.063Z" fill="url(#paint61_linear_63_17787)"/>
<path d="M68.5522 138.965C68.62 138.965 68.6747 138.922 68.6747 138.868V136.494C68.6747 136.44 68.62 136.396 68.5522 136.396C68.4843 136.396 68.4297 136.44 68.4297 136.494V138.868C68.4297 138.922 68.4843 138.965 68.5522 138.965Z" fill="url(#paint62_linear_63_17787)"/>
<path d="M68.1194 138.966C68.1865 138.966 68.2411 138.923 68.2419 138.87C68.2651 138.045 68.3206 136.698 68.3694 136.537C68.3909 136.506 68.3909 136.467 68.3653 136.436C68.328 136.39 68.2519 136.378 68.1948 136.407C68.1277 136.442 68.064 136.475 67.9961 138.865C67.9945 138.919 68.0483 138.964 68.1161 138.965H68.1186L68.1194 138.966Z" fill="url(#paint63_linear_63_17787)"/>
<path d="M71.4805 139.182C71.6104 139.182 71.7188 139.102 71.7255 138.998L71.8893 136.505C71.896 136.397 71.7925 136.306 71.6568 136.3C71.5285 136.293 71.406 136.377 71.3986 136.485L71.2347 138.978C71.2281 139.085 71.3315 139.176 71.4672 139.182C71.4714 139.182 71.4755 139.182 71.4805 139.182Z" fill="url(#paint64_linear_63_17787)"/>
<path d="M218.51 204.892V173.908C218.51 171.587 216.155 169.699 213.226 169.673C204.435 169.597 186.302 169.594 171.465 170.584C169.441 170.719 167.866 172.033 167.792 173.642L166.406 204.041C166.303 206.299 168.557 208.186 171.41 208.229L213.404 208.862C216.208 208.904 218.51 207.115 218.51 204.893V204.892Z" fill="url(#paint65_linear_63_17787)"/>
<path opacity="0.87" d="M213.416 175.818C213.453 177.321 213.397 179.706 213.351 181.247C213.327 182.048 212.439 182.659 211.433 182.566L204.198 181.894C203.234 181.805 202.555 181.101 202.699 180.34L203.587 175.648C203.713 174.982 204.435 174.488 205.286 174.488H211.699C212.633 174.488 213.398 175.078 213.417 175.818H213.416Z" fill="white"/>
<path opacity="0.37" d="M194.507 184.712L188.472 185.228C187.627 185.3 186.907 184.748 186.969 184.077L188.288 169.855C190.818 169.792 193.313 169.745 195.722 169.713V183.64C195.722 184.191 195.198 184.652 194.507 184.712H194.507Z" fill="white"/>
<path d="M192.034 182.246C192.016 182.502 191.748 182.699 191.428 182.699C191.416 182.699 191.404 182.699 191.392 182.698C191.057 182.683 190.802 182.456 190.821 182.19L191.732 169.778C192.14 169.77 192.545 169.763 192.949 169.756L192.033 182.246H192.034Z" fill="white"/>
<path d="M210.073 180.299C210.179 180.299 210.269 180.234 210.275 180.148L210.588 176.239C210.596 176.15 210.51 176.074 210.399 176.069C210.281 176.061 210.191 176.131 210.184 176.219L209.872 180.128C209.864 180.217 209.949 180.293 210.061 180.298C210.065 180.298 210.07 180.298 210.073 180.298V180.299Z" fill="url(#paint66_linear_63_17787)"/>
<path d="M209.429 180.299C209.537 180.299 209.627 180.231 209.631 180.144L209.795 176.16C209.799 176.071 209.711 175.997 209.6 175.994C209.471 175.989 209.395 176.061 209.391 176.149L209.227 180.133C209.223 180.222 209.311 180.296 209.422 180.299H209.429Z" fill="url(#paint67_linear_63_17787)"/>
<path d="M208.556 180.299C208.445 180.295 208.359 180.219 208.363 180.131C208.444 178.793 208.597 176.24 208.599 176.153C208.599 176.065 208.69 175.994 208.802 175.994C208.914 175.994 209.005 176.066 209.005 176.155C209.005 176.221 208.808 179.492 208.768 180.146C208.763 180.232 208.674 180.299 208.566 180.299C208.563 180.299 208.56 180.299 208.557 180.299L208.556 180.299Z" fill="url(#paint68_linear_63_17787)"/>
<path d="M207.217 180.459C207.434 180.459 207.613 180.323 207.621 180.15C207.792 176.289 207.761 176.202 207.742 176.145C207.683 175.973 207.459 175.873 207.246 175.92C207.048 175.963 206.924 176.115 206.951 176.271C206.964 176.503 206.873 178.749 206.813 180.127C206.805 180.304 206.98 180.452 207.203 180.459C207.208 180.459 207.213 180.459 207.218 180.459H207.217Z" fill="url(#paint69_linear_63_17787)"/>
<path d="M206.339 180.299C206.451 180.299 206.542 180.227 206.542 180.139V176.229C206.542 176.14 206.452 176.068 206.339 176.068C206.227 176.068 206.137 176.14 206.137 176.229V180.139C206.137 180.227 206.227 180.299 206.339 180.299Z" fill="url(#paint70_linear_63_17787)"/>
<path d="M205.632 180.299C205.742 180.299 205.832 180.23 205.834 180.143C205.873 178.785 205.964 176.566 206.045 176.298C206.08 176.248 206.08 176.184 206.037 176.132C205.976 176.058 205.851 176.038 205.757 176.086C205.647 176.143 205.541 176.197 205.43 180.134C205.427 180.223 205.516 180.297 205.628 180.298H205.633L205.632 180.299Z" fill="url(#paint71_linear_63_17787)"/>
<path d="M211.163 180.655C211.377 180.655 211.555 180.522 211.567 180.351L211.837 176.246C211.848 176.069 211.677 175.918 211.454 175.909C211.242 175.897 211.04 176.036 211.028 176.213L210.758 180.318C210.747 180.495 210.918 180.645 211.142 180.655C211.149 180.655 211.156 180.655 211.163 180.655Z" fill="url(#paint72_linear_63_17787)"/>
<path d="M58.0363 214.752V185.419C58.0363 183.223 55.8075 181.435 53.0341 181.411C44.7106 181.339 27.5447 181.336 13.4998 182.273C11.583 182.402 10.0924 183.646 10.0229 185.169L8.71025 213.946C8.61259 216.085 10.7471 217.871 13.4476 217.911L53.2021 218.51C55.8571 218.549 58.0363 216.856 58.0363 214.752Z" fill="url(#paint73_linear_63_17787)"/>
<path opacity="0.87" d="M53.2179 187.229C53.2535 188.651 53.1997 190.909 53.1567 192.367C53.1343 193.126 52.2926 193.704 51.3417 193.616L44.4922 192.981C43.5793 192.896 42.9371 192.23 43.0728 191.51L43.9137 187.067C44.0329 186.437 44.7173 185.97 45.5218 185.97H51.5924C52.4772 185.97 53.2014 186.528 53.2187 187.229L53.2179 187.229Z" fill="white"/>
<path opacity="0.37" d="M35.316 195.648L29.602 196.136C28.8025 196.205 28.1206 195.683 28.1793 195.047L29.4282 181.584C31.8234 181.524 34.1863 181.48 36.4656 181.449V194.634C36.4656 195.156 35.9698 195.593 35.316 195.649V195.648Z" fill="white"/>
<path d="M32.977 193.315C32.9596 193.558 32.7064 193.744 32.4035 193.744C32.3919 193.744 32.3811 193.744 32.3695 193.743C32.0526 193.728 31.8109 193.513 31.8291 193.262L32.6907 181.512C33.0772 181.504 33.4604 181.498 33.8435 181.49L32.9762 193.315L32.977 193.315Z" fill="white"/>
<path d="M50.0479 191.468C50.148 191.468 50.2324 191.407 50.239 191.326L50.5353 187.625C50.542 187.541 50.4617 187.469 50.3557 187.464C50.2448 187.458 50.1596 187.523 50.1521 187.607L49.8559 191.308C49.8492 191.391 49.9295 191.463 50.0354 191.468C50.0396 191.468 50.0437 191.468 50.047 191.468H50.0479Z" fill="url(#paint74_linear_63_17787)"/>
<path d="M49.4343 191.469C49.5369 191.469 49.6222 191.405 49.6255 191.323L49.7811 187.551C49.7844 187.468 49.7016 187.397 49.5957 187.395C49.474 187.39 49.4012 187.458 49.3979 187.541L49.2423 191.313C49.239 191.396 49.3217 191.467 49.4277 191.469H49.4343Z" fill="url(#paint75_linear_63_17787)"/>
<path d="M48.6082 191.469C48.5022 191.465 48.4203 191.393 48.4261 191.31C48.5022 190.043 48.647 187.626 48.6487 187.543C48.6487 187.46 48.7348 187.393 48.8399 187.393C48.945 187.393 49.0311 187.46 49.0311 187.544C49.0311 187.607 48.8449 190.703 48.8076 191.323C48.8026 191.404 48.7182 191.468 48.6164 191.468C48.6131 191.468 48.6106 191.468 48.6073 191.468L48.6082 191.469Z" fill="url(#paint76_linear_63_17787)"/>
<path d="M47.3396 191.621C47.5449 191.621 47.7146 191.491 47.722 191.328C47.8842 187.673 47.8553 187.591 47.837 187.536C47.7816 187.374 47.5689 187.279 47.3669 187.324C47.1791 187.364 47.0624 187.508 47.088 187.657C47.1004 187.876 47.0144 190.003 46.9573 191.307C46.9498 191.474 47.1153 191.615 47.3264 191.621C47.3305 191.621 47.3355 191.621 47.3405 191.621H47.3396Z" fill="url(#paint77_linear_63_17787)"/>
<path d="M46.5115 191.469C46.6174 191.469 46.7027 191.401 46.7027 191.317V187.616C46.7027 187.533 46.6166 187.465 46.5115 187.465C46.4064 187.465 46.3203 187.533 46.3203 187.616V191.317C46.3203 191.401 46.4064 191.469 46.5115 191.469Z" fill="url(#paint78_linear_63_17787)"/>
<path d="M45.8405 191.469C45.9448 191.469 46.03 191.403 46.0317 191.321C46.0681 190.035 46.1542 187.934 46.2311 187.682C46.2651 187.634 46.2642 187.573 46.2237 187.525C46.1658 187.454 46.0474 187.435 45.958 187.481C45.8537 187.535 45.7544 187.586 45.6485 191.314C45.646 191.397 45.7304 191.467 45.8355 191.469H45.8397H45.8405Z" fill="url(#paint79_linear_63_17787)"/>
<path d="M51.0751 191.806C51.2779 191.806 51.4467 191.681 51.4575 191.518L51.7132 187.632C51.724 187.465 51.5617 187.321 51.3499 187.313C51.1496 187.302 50.9584 187.433 50.9476 187.6L50.6919 191.487C50.6812 191.654 50.8434 191.797 51.0552 191.806C51.0619 191.806 51.0685 191.806 51.0751 191.806V191.806Z" fill="url(#paint80_linear_63_17787)"/>
<path d="M148.904 221.637V179.907C148.904 176.782 145.733 174.239 141.788 174.205C129.947 174.103 105.527 174.097 85.545 175.432C82.8188 175.614 80.6976 177.384 80.5991 179.55L78.7312 220.49C78.5921 223.531 81.6287 226.073 85.4706 226.131L142.027 226.982C145.804 227.039 148.904 224.629 148.904 221.637L148.904 221.637Z" fill="url(#paint81_linear_63_17787)"/>
<path opacity="0.87" d="M142.045 182.48C142.096 184.505 142.019 187.716 141.957 189.791C141.925 190.87 140.728 191.693 139.375 191.567L129.631 190.662C128.333 190.541 127.418 189.594 127.612 188.57L128.808 182.249C128.978 181.352 129.951 180.688 131.096 180.688H139.732C140.99 180.688 142.02 181.484 142.045 182.48Z" fill="white"/>
<path opacity="0.37" d="M116.58 194.459L108.451 195.153C107.314 195.251 106.343 194.508 106.427 193.604L108.204 174.451C111.611 174.366 114.972 174.303 118.216 174.259V193.015C118.216 193.757 117.511 194.379 116.579 194.459H116.58Z" fill="white"/>
<path d="M113.247 191.139C113.222 191.483 112.861 191.749 112.432 191.749C112.416 191.749 112.399 191.749 112.384 191.747C111.933 191.727 111.588 191.42 111.615 191.064L112.84 174.347C113.39 174.336 113.935 174.326 114.48 174.317L113.247 191.139Z" fill="white"/>
<path d="M137.538 188.515C137.68 188.515 137.801 188.427 137.81 188.312L138.231 183.046C138.241 182.927 138.127 182.825 137.976 182.817C137.818 182.807 137.697 182.9 137.687 183.019L137.266 188.284C137.256 188.404 137.371 188.505 137.521 188.514C137.527 188.514 137.533 188.514 137.539 188.514L137.538 188.515Z" fill="url(#paint82_linear_63_17787)"/>
<path d="M136.671 188.516C136.817 188.516 136.939 188.424 136.943 188.307L137.164 182.941C137.169 182.821 137.051 182.721 136.901 182.717C136.727 182.71 136.625 182.807 136.62 182.926L136.399 188.292C136.394 188.411 136.512 188.511 136.662 188.516H136.671Z" fill="url(#paint83_linear_63_17787)"/>
<path d="M135.494 188.514C135.343 188.509 135.227 188.408 135.235 188.288C135.343 186.486 135.548 183.048 135.552 182.93C135.553 182.812 135.675 182.717 135.824 182.717C135.973 182.717 136.096 182.814 136.096 182.933C136.096 183.022 135.831 187.427 135.778 188.309C135.771 188.425 135.65 188.515 135.505 188.515C135.501 188.515 135.497 188.515 135.493 188.515L135.494 188.514Z" fill="url(#paint84_linear_63_17787)"/>
<path d="M133.69 188.73C133.982 188.73 134.224 188.546 134.234 188.314C134.465 183.114 134.424 182.998 134.397 182.92C134.318 182.689 134.016 182.554 133.728 182.617C133.462 182.675 133.295 182.879 133.331 183.091C133.348 183.404 133.227 186.428 133.145 188.284C133.134 188.522 133.369 188.722 133.67 188.731C133.677 188.731 133.684 188.731 133.69 188.731V188.73Z" fill="url(#paint85_linear_63_17787)"/>
<path d="M132.507 188.516C132.657 188.516 132.779 188.419 132.779 188.3V183.034C132.779 182.915 132.657 182.818 132.507 182.818C132.356 182.818 132.234 182.915 132.234 183.034V188.3C132.234 188.419 132.356 188.516 132.507 188.516Z" fill="url(#paint86_linear_63_17787)"/>
<path d="M131.554 188.515C131.703 188.515 131.823 188.422 131.827 188.304C131.879 186.474 132.001 183.487 132.11 183.128C132.158 183.06 132.157 182.974 132.1 182.903C132.017 182.803 131.848 182.776 131.722 182.841C131.574 182.918 131.433 182.991 131.281 188.294C131.278 188.413 131.397 188.511 131.548 188.515H131.554V188.515Z" fill="url(#paint87_linear_63_17787)"/>
<path d="M139.003 188.994C139.291 188.994 139.532 188.816 139.547 188.585L139.91 183.056C139.926 182.818 139.694 182.615 139.394 182.602C139.108 182.587 138.837 182.773 138.821 183.011L138.458 188.54C138.442 188.778 138.673 188.981 138.974 188.993C138.984 188.993 138.993 188.993 139.003 188.993V188.994Z" fill="url(#paint88_linear_63_17787)"/>
<path d="M198.896 87.0794V58.1156C198.896 55.9463 196.695 54.181 193.957 54.1578C185.738 54.0867 168.788 54.0833 154.92 55.0095C153.027 55.1361 151.555 56.3643 151.487 57.8681L150.191 86.2832C150.095 88.3945 152.202 90.1582 154.868 90.1987L194.123 90.7896C196.744 90.8294 198.897 89.1567 198.897 87.0794H198.896Z" fill="url(#paint89_linear_63_17787)"/>
<path opacity="0.87" d="M194.134 59.9023C194.169 61.3068 194.117 63.5364 194.073 64.9765C194.051 65.7255 193.221 66.2966 192.28 66.2097L185.517 65.5815C184.616 65.4979 183.981 64.8399 184.116 64.1298L184.946 59.7425C185.063 59.1202 185.739 58.6592 186.534 58.6592H192.528C193.401 58.6592 194.116 59.2112 194.133 59.9031L194.134 59.9023Z" fill="white"/>
<path opacity="0.37" d="M176.461 68.2161L170.819 68.6978C170.029 68.7656 169.356 68.2492 169.414 67.6218L170.647 54.3276C173.012 54.268 175.344 54.225 177.596 54.1943V67.213C177.596 67.7278 177.106 68.1598 176.46 68.2144L176.461 68.2161Z" fill="white"/>
<path d="M174.15 65.9117C174.132 66.1509 173.882 66.3355 173.584 66.3355C173.573 66.3355 173.561 66.3355 173.55 66.3346C173.238 66.3206 172.998 66.1079 173.017 65.8596L173.867 54.257C174.249 54.2496 174.627 54.2429 175.005 54.2363L174.15 65.9117Z" fill="white"/>
<path d="M191.013 64.0897C191.113 64.0897 191.196 64.0284 191.202 63.949L191.495 60.2941C191.502 60.2114 191.422 60.1402 191.318 60.1352C191.208 60.1286 191.124 60.1932 191.118 60.2751L190.825 63.9299C190.818 64.0127 190.897 64.0839 191.002 64.0888C191.006 64.0888 191.01 64.0888 191.013 64.0888V64.0897Z" fill="url(#paint90_linear_63_17787)"/>
<path d="M190.408 64.0906C190.509 64.0906 190.594 64.0269 190.597 63.9458L190.75 60.2214C190.754 60.1387 190.672 60.0691 190.567 60.0667C190.446 60.0617 190.375 60.1287 190.372 60.2115L190.219 63.9358C190.216 64.0186 190.297 64.0881 190.402 64.0906H190.408H190.408Z" fill="url(#paint91_linear_63_17787)"/>
<path d="M189.594 64.0905C189.49 64.0864 189.409 64.0168 189.414 63.9341C189.49 62.6827 189.632 60.2966 189.635 60.2155C189.635 60.1336 189.72 60.0674 189.824 60.0674C189.928 60.0674 190.014 60.1344 190.014 60.2172C190.014 60.2793 189.83 63.3365 189.793 63.949C189.788 64.0293 189.704 64.0922 189.604 64.0922C189.601 64.0922 189.598 64.0922 189.595 64.0922L189.594 64.0905Z" fill="url(#paint92_linear_63_17787)"/>
<path d="M188.339 64.2395C188.542 64.2395 188.71 64.1121 188.717 63.9507C188.877 60.3422 188.848 60.2611 188.83 60.2073C188.776 60.0476 188.565 59.9532 188.366 59.9971C188.18 60.0368 188.065 60.1792 188.09 60.3257C188.103 60.5425 188.017 62.6422 187.961 63.93C187.954 64.0955 188.117 64.2346 188.326 64.2395C188.33 64.2395 188.335 64.2395 188.34 64.2395H188.339Z" fill="url(#paint93_linear_63_17787)"/>
<path d="M187.518 64.0902C187.622 64.0902 187.707 64.0231 187.707 63.9404V60.2855C187.707 60.2028 187.623 60.1357 187.518 60.1357C187.413 60.1357 187.328 60.2028 187.328 60.2855V63.9404C187.328 64.0231 187.413 64.0902 187.518 64.0902Z" fill="url(#paint94_linear_63_17787)"/>
<path d="M186.858 64.0904C186.96 64.0904 187.045 64.025 187.047 63.9439C187.084 62.6743 187.168 60.6003 187.243 60.3503C187.276 60.3031 187.276 60.2435 187.237 60.1947C187.18 60.1252 187.062 60.1062 186.974 60.1517C186.871 60.2055 186.773 60.256 186.668 63.9364C186.666 64.0192 186.748 64.0879 186.853 64.0896H186.857L186.858 64.0904Z" fill="url(#paint95_linear_63_17787)"/>
<path d="M192.031 64.4229C192.231 64.4229 192.398 64.2988 192.408 64.139L192.661 60.3013C192.672 60.1358 192.511 59.9951 192.303 59.986C192.105 59.9752 191.916 60.1043 191.905 60.2699L191.653 64.1076C191.642 64.2731 191.803 64.4138 192.011 64.4221C192.018 64.4221 192.024 64.4221 192.031 64.4221V64.4229Z" fill="url(#paint96_linear_63_17787)"/>
<defs>
<linearGradient id="paint0_linear_63_17787" x1="260.995" y1="298.768" x2="55.9584" y2="44.1258" gradientUnits="userSpaceOnUse">
<stop stop-color="#DAE3FE"/>
<stop offset="1" stop-color="#E9EFFD"/>
</linearGradient>
<linearGradient id="paint1_linear_63_17787" x1="32.5288" y1="71.1476" x2="36.9525" y2="67.074" gradientUnits="userSpaceOnUse">
<stop stop-color="#09005D"/>
<stop offset="1" stop-color="#1A0F91"/>
</linearGradient>
<linearGradient id="paint2_linear_63_17787" x1="32.07" y1="64.6459" x2="42.7988" y2="54.7665" gradientUnits="userSpaceOnUse">
<stop stop-color="#09005D"/>
<stop offset="1" stop-color="#1A0F91"/>
</linearGradient>
<linearGradient id="paint3_linear_63_17787" x1="24.27" y1="30.1124" x2="40.9787" y2="68.1191" gradientUnits="userSpaceOnUse">
<stop stop-color="#4F52FF"/>
<stop offset="1" stop-color="#4042E2"/>
</linearGradient>
<linearGradient id="paint4_linear_63_17787" x1="50.8367" y1="94.9069" x2="68.4178" y2="78.7176" gradientUnits="userSpaceOnUse">
<stop stop-color="#4F52FF"/>
<stop offset="1" stop-color="#4042E2"/>
</linearGradient>
<linearGradient id="paint5_linear_63_17787" x1="40.1961" y1="35.6295" x2="36.5575" y2="24.4848" gradientUnits="userSpaceOnUse">
<stop stop-color="#09005D"/>
<stop offset="1" stop-color="#1A0F91"/>
</linearGradient>
<linearGradient id="paint6_linear_63_17787" x1="12.4343" y1="31.0378" x2="63.6834" y2="5.80902" gradientUnits="userSpaceOnUse">
<stop stop-color="#09005D"/>
<stop offset="1" stop-color="#1A0F91"/>
</linearGradient>
<linearGradient id="paint7_linear_63_17787" x1="34.0774" y1="7.38719" x2="39.8714" y2="26.9207" gradientUnits="userSpaceOnUse">
<stop stop-color="#4F52FF"/>
<stop offset="1" stop-color="#4042E2"/>
</linearGradient>
<linearGradient id="paint8_linear_63_17787" x1="4.97504" y1="36.5293" x2="22.1922" y2="28.0537" gradientUnits="userSpaceOnUse">
<stop stop-color="#4F52FF"/>
<stop offset="1" stop-color="#4042E2"/>
</linearGradient>
<linearGradient id="paint9_linear_63_17787" x1="58.6717" y1="6.80214" x2="77.0447" y2="35.2242" gradientUnits="userSpaceOnUse">
<stop stop-color="#09005D"/>
<stop offset="1" stop-color="#1A0F91"/>
</linearGradient>
<linearGradient id="paint10_linear_63_17787" x1="74.6012" y1="11.7997" x2="41.6348" y2="3.82123" gradientUnits="userSpaceOnUse">
<stop stop-color="#4F52FF"/>
<stop offset="1" stop-color="#4042E2"/>
</linearGradient>
<linearGradient id="paint11_linear_63_17787" x1="92.8694" y1="-1.59454" x2="88.2545" y2="9.36496" gradientUnits="userSpaceOnUse">
<stop stop-color="#4F52FF"/>
<stop offset="1" stop-color="#4042E2"/>
</linearGradient>
<linearGradient id="paint12_linear_63_17787" x1="100.423" y1="59.8993" x2="89.5931" y2="42.6951" gradientUnits="userSpaceOnUse">
<stop stop-color="#4F52FF"/>
<stop offset="1" stop-color="#4042E2"/>
</linearGradient>
<linearGradient id="paint13_linear_63_17787" x1="89.3652" y1="66.8569" x2="78.5355" y2="49.6527" gradientUnits="userSpaceOnUse">
<stop stop-color="#4F52FF"/>
<stop offset="1" stop-color="#4042E2"/>
</linearGradient>
<linearGradient id="paint14_linear_63_17787" x1="79.8049" y1="39.4955" x2="82.8224" y2="44.1635" gradientUnits="userSpaceOnUse">
<stop stop-color="#09005D"/>
<stop offset="1" stop-color="#1A0F91"/>
</linearGradient>
<linearGradient id="paint15_linear_63_17787" x1="84.8534" y1="39.2847" x2="70.8647" y2="37.4406" gradientUnits="userSpaceOnUse">
<stop stop-color="#4F52FF"/>
<stop offset="1" stop-color="#4042E2"/>
</linearGradient>
<linearGradient id="paint16_linear_63_17787" x1="129.144" y1="2.20755" x2="127.472" y2="31.4809" gradientUnits="userSpaceOnUse">
<stop stop-color="#4F52FF"/>
<stop offset="1" stop-color="#4042E2"/>
</linearGradient>
<linearGradient id="paint17_linear_63_17787" x1="99.2564" y1="-139.486" x2="90.0548" y2="-86.7855" gradientUnits="userSpaceOnUse">
<stop stop-color="#09005D"/>
<stop offset="1" stop-color="#1A0F91"/>
</linearGradient>
<linearGradient id="paint18_linear_63_17787" x1="238.846" y1="-115.114" x2="229.644" y2="-62.415" gradientUnits="userSpaceOnUse">
<stop stop-color="#09005D"/>
<stop offset="1" stop-color="#1A0F91"/>
</linearGradient>
<linearGradient id="paint19_linear_63_17787" x1="174.354" y1="-126.374" x2="165.153" y2="-73.6746" gradientUnits="userSpaceOnUse">
<stop stop-color="#09005D"/>
<stop offset="1" stop-color="#1A0F91"/>
</linearGradient>
<linearGradient id="paint20_linear_63_17787" x1="152.8" y1="-130.138" x2="143.598" y2="-77.4384" gradientUnits="userSpaceOnUse">
<stop stop-color="#09005D"/>
<stop offset="1" stop-color="#1A0F91"/>
</linearGradient>
<linearGradient id="paint21_linear_63_17787" x1="23.2841" y1="98.8766" x2="0.466329" y2="-40.5677" gradientUnits="userSpaceOnUse">
<stop stop-color="#4F52FF"/>
<stop offset="1" stop-color="#4042E2"/>
</linearGradient>
<linearGradient id="paint22_linear_63_17787" x1="210.72" y1="69.2536" x2="233.305" y2="-68.7697" gradientUnits="userSpaceOnUse">
<stop stop-color="#4F52FF"/>
<stop offset="1" stop-color="#4042E2"/>
</linearGradient>
<linearGradient id="paint23_linear_63_17787" x1="150.814" y1="59.4501" x2="173.4" y2="-78.5733" gradientUnits="userSpaceOnUse">
<stop stop-color="#4F52FF"/>
<stop offset="1" stop-color="#4042E2"/>
</linearGradient>
<linearGradient id="paint24_linear_63_17787" x1="94.6258" y1="50.2555" x2="117.212" y2="-87.7687" gradientUnits="userSpaceOnUse">
<stop stop-color="#4F52FF"/>
<stop offset="1" stop-color="#4042E2"/>
</linearGradient>
<linearGradient id="paint25_linear_63_17787" x1="68.467" y1="56.4432" x2="48.9507" y2="91.8517" gradientUnits="userSpaceOnUse">
<stop stop-color="#FF928E"/>
<stop offset="1" stop-color="#FE7062"/>
</linearGradient>
<linearGradient id="paint26_linear_63_17787" x1="71.4724" y1="62.0309" x2="79.8795" y2="74.2476" gradientUnits="userSpaceOnUse">
<stop stop-color="#09005D"/>
<stop offset="1" stop-color="#1A0F91"/>
</linearGradient>
<linearGradient id="paint27_linear_63_17787" x1="71.04" y1="62.2284" x2="79.4909" y2="74.5088" gradientUnits="userSpaceOnUse">
<stop stop-color="#09005D"/>
<stop offset="1" stop-color="#1A0F91"/>
</linearGradient>
<linearGradient id="paint28_linear_63_17787" x1="70.5353" y1="62.4854" x2="78.9647" y2="74.7343" gradientUnits="userSpaceOnUse">
<stop stop-color="#09005D"/>
<stop offset="1" stop-color="#1A0F91"/>
</linearGradient>
<linearGradient id="paint29_linear_63_17787" x1="69.6518" y1="62.9049" x2="78.1723" y2="75.2863" gradientUnits="userSpaceOnUse">
<stop stop-color="#09005D"/>
<stop offset="1" stop-color="#1A0F91"/>
</linearGradient>
<linearGradient id="paint30_linear_63_17787" x1="69.081" y1="63.1983" x2="77.5766" y2="75.5433" gradientUnits="userSpaceOnUse">
<stop stop-color="#09005D"/>
<stop offset="1" stop-color="#1A0F91"/>
</linearGradient>
<linearGradient id="paint31_linear_63_17787" x1="68.7257" y1="63.385" x2="77.1568" y2="75.6356" gradientUnits="userSpaceOnUse">
<stop stop-color="#09005D"/>
<stop offset="1" stop-color="#1A0F91"/>
</linearGradient>
<linearGradient id="paint32_linear_63_17787" x1="72.0707" y1="61.7097" x2="80.5531" y2="74.0365" gradientUnits="userSpaceOnUse">
<stop stop-color="#09005D"/>
<stop offset="1" stop-color="#1A0F91"/>
</linearGradient>
<linearGradient id="paint33_linear_63_17787" x1="125.704" y1="57.2659" x2="103.957" y2="94.069" gradientUnits="userSpaceOnUse">
<stop stop-color="#FF928E"/>
<stop offset="1" stop-color="#FE7062"/>
</linearGradient>
<linearGradient id="paint34_linear_63_17787" x1="127.771" y1="63.5601" x2="136.417" y2="76.1235" gradientUnits="userSpaceOnUse">
<stop stop-color="#09005D"/>
<stop offset="1" stop-color="#1A0F91"/>
</linearGradient>
<linearGradient id="paint35_linear_63_17787" x1="127.326" y1="63.7631" x2="136.017" y2="76.392" gradientUnits="userSpaceOnUse">
<stop stop-color="#09005D"/>
<stop offset="1" stop-color="#1A0F91"/>
</linearGradient>
<linearGradient id="paint36_linear_63_17787" x1="126.808" y1="64.0269" x2="135.477" y2="76.6243" gradientUnits="userSpaceOnUse">
<stop stop-color="#09005D"/>
<stop offset="1" stop-color="#1A0F91"/>
</linearGradient>
<linearGradient id="paint37_linear_63_17787" x1="125.904" y1="64.459" x2="134.666" y2="77.1921" gradientUnits="userSpaceOnUse">
<stop stop-color="#09005D"/>
<stop offset="1" stop-color="#1A0F91"/>
</linearGradient>
<linearGradient id="paint38_linear_63_17787" x1="125.314" y1="64.7614" x2="134.051" y2="77.4573" gradientUnits="userSpaceOnUse">
<stop stop-color="#09005D"/>
<stop offset="1" stop-color="#1A0F91"/>
</linearGradient>
<linearGradient id="paint39_linear_63_17787" x1="124.949" y1="64.9528" x2="133.62" y2="77.5518" gradientUnits="userSpaceOnUse">
<stop stop-color="#09005D"/>
<stop offset="1" stop-color="#1A0F91"/>
</linearGradient>
<linearGradient id="paint40_linear_63_17787" x1="128.39" y1="63.2292" x2="137.114" y2="75.906" gradientUnits="userSpaceOnUse">
<stop stop-color="#09005D"/>
<stop offset="1" stop-color="#1A0F91"/>
</linearGradient>
<linearGradient id="paint41_linear_63_17787" x1="118.287" y1="109.424" x2="109.923" y2="140.929" gradientUnits="userSpaceOnUse">
<stop stop-color="#FF928E"/>
<stop offset="1" stop-color="#FE7062"/>
</linearGradient>
<linearGradient id="paint42_linear_63_17787" x1="125.71" y1="113.224" x2="133.511" y2="124.56" gradientUnits="userSpaceOnUse">
<stop stop-color="#09005D"/>
<stop offset="1" stop-color="#1A0F91"/>
</linearGradient>
<linearGradient id="paint43_linear_63_17787" x1="125.307" y1="113.407" x2="133.148" y2="124.802" gradientUnits="userSpaceOnUse">
<stop stop-color="#09005D"/>
<stop offset="1" stop-color="#1A0F91"/>
</linearGradient>
<linearGradient id="paint44_linear_63_17787" x1="124.838" y1="113.645" x2="132.66" y2="125.011" gradientUnits="userSpaceOnUse">
<stop stop-color="#09005D"/>
<stop offset="1" stop-color="#1A0F91"/>
</linearGradient>
<linearGradient id="paint45_linear_63_17787" x1="124.022" y1="114.035" x2="131.928" y2="125.524" gradientUnits="userSpaceOnUse">
<stop stop-color="#09005D"/>
<stop offset="1" stop-color="#1A0F91"/>
</linearGradient>
<linearGradient id="paint46_linear_63_17787" x1="123.488" y1="114.306" x2="131.371" y2="125.762" gradientUnits="userSpaceOnUse">
<stop stop-color="#09005D"/>
<stop offset="1" stop-color="#1A0F91"/>
</linearGradient>
<linearGradient id="paint47_linear_63_17787" x1="123.161" y1="114.48" x2="130.984" y2="125.848" gradientUnits="userSpaceOnUse">
<stop stop-color="#09005D"/>
<stop offset="1" stop-color="#1A0F91"/>
</linearGradient>
<linearGradient id="paint48_linear_63_17787" x1="126.263" y1="112.925" x2="134.134" y2="124.362" gradientUnits="userSpaceOnUse">
<stop stop-color="#09005D"/>
<stop offset="1" stop-color="#1A0F91"/>
</linearGradient>
<linearGradient id="paint49_linear_63_17787" x1="174.787" y1="130.139" x2="164.193" y2="161.924" gradientUnits="userSpaceOnUse">
<stop stop-color="#FF928E"/>
<stop offset="1" stop-color="#FE7062"/>
</linearGradient>
<linearGradient id="paint50_linear_63_17787" x1="179.622" y1="133.704" x2="185.509" y2="142.258" gradientUnits="userSpaceOnUse">
<stop stop-color="#09005D"/>
<stop offset="1" stop-color="#1A0F91"/>
</linearGradient>
<linearGradient id="paint51_linear_63_17787" x1="179.321" y1="133.841" x2="185.239" y2="142.439" gradientUnits="userSpaceOnUse">
<stop stop-color="#09005D"/>
<stop offset="1" stop-color="#1A0F91"/>
</linearGradient>
<linearGradient id="paint52_linear_63_17787" x1="178.962" y1="134.021" x2="184.865" y2="142.598" gradientUnits="userSpaceOnUse">
<stop stop-color="#09005D"/>
<stop offset="1" stop-color="#1A0F91"/>
</linearGradient>
<linearGradient id="paint53_linear_63_17787" x1="178.346" y1="134.316" x2="184.312" y2="142.986" gradientUnits="userSpaceOnUse">
<stop stop-color="#09005D"/>
<stop offset="1" stop-color="#1A0F91"/>
</linearGradient>
<linearGradient id="paint54_linear_63_17787" x1="177.946" y1="134.521" x2="183.895" y2="143.166" gradientUnits="userSpaceOnUse">
<stop stop-color="#09005D"/>
<stop offset="1" stop-color="#1A0F91"/>
</linearGradient>
<linearGradient id="paint55_linear_63_17787" x1="177.699" y1="134.652" x2="183.601" y2="143.23" gradientUnits="userSpaceOnUse">
<stop stop-color="#09005D"/>
<stop offset="1" stop-color="#1A0F91"/>
</linearGradient>
<linearGradient id="paint56_linear_63_17787" x1="180.04" y1="133.478" x2="185.98" y2="142.11" gradientUnits="userSpaceOnUse">
<stop stop-color="#09005D"/>
<stop offset="1" stop-color="#1A0F91"/>
</linearGradient>
<linearGradient id="paint57_linear_63_17787" x1="66.5513" y1="129.301" x2="55.9567" y2="156.066" gradientUnits="userSpaceOnUse">
<stop stop-color="#FF928E"/>
<stop offset="1" stop-color="#FE7062"/>
</linearGradient>
<linearGradient id="paint58_linear_63_17787" x1="69.7388" y1="135.975" x2="75.9543" y2="145.007" gradientUnits="userSpaceOnUse">
<stop stop-color="#09005D"/>
<stop offset="1" stop-color="#1A0F91"/>
</linearGradient>
<linearGradient id="paint59_linear_63_17787" x1="69.4192" y1="136.121" x2="75.667" y2="145.2" gradientUnits="userSpaceOnUse">
<stop stop-color="#09005D"/>
<stop offset="1" stop-color="#1A0F91"/>
</linearGradient>
<linearGradient id="paint60_linear_63_17787" x1="69.0442" y1="136.311" x2="75.2763" y2="145.367" gradientUnits="userSpaceOnUse">
<stop stop-color="#09005D"/>
<stop offset="1" stop-color="#1A0F91"/>
</linearGradient>
<linearGradient id="paint61_linear_63_17787" x1="68.3933" y1="136.621" x2="74.6924" y2="145.775" gradientUnits="userSpaceOnUse">
<stop stop-color="#09005D"/>
<stop offset="1" stop-color="#1A0F91"/>
</linearGradient>
<linearGradient id="paint62_linear_63_17787" x1="67.972" y1="136.838" x2="74.2529" y2="145.965" gradientUnits="userSpaceOnUse">
<stop stop-color="#09005D"/>
<stop offset="1" stop-color="#1A0F91"/>
</linearGradient>
<linearGradient id="paint63_linear_63_17787" x1="67.7081" y1="136.976" x2="73.941" y2="146.034" gradientUnits="userSpaceOnUse">
<stop stop-color="#09005D"/>
<stop offset="1" stop-color="#1A0F91"/>
</linearGradient>
<linearGradient id="paint64_linear_63_17787" x1="70.1836" y1="135.737" x2="76.4545" y2="144.851" gradientUnits="userSpaceOnUse">
<stop stop-color="#09005D"/>
<stop offset="1" stop-color="#1A0F91"/>
</linearGradient>
<linearGradient id="paint65_linear_63_17787" x1="203.537" y1="164.013" x2="186.53" y2="205.555" gradientUnits="userSpaceOnUse">
<stop stop-color="#FF928E"/>
<stop offset="1" stop-color="#FE7062"/>
</linearGradient>
<linearGradient id="paint66_linear_63_17787" x1="208.296" y1="175.374" x2="218.533" y2="190.248" gradientUnits="userSpaceOnUse">
<stop stop-color="#09005D"/>
<stop offset="1" stop-color="#1A0F91"/>
</linearGradient>
<linearGradient id="paint67_linear_63_17787" x1="207.768" y1="175.614" x2="218.057" y2="190.566" gradientUnits="userSpaceOnUse">
<stop stop-color="#09005D"/>
<stop offset="1" stop-color="#1A0F91"/>
</linearGradient>
<linearGradient id="paint68_linear_63_17787" x1="207.156" y1="175.927" x2="217.419" y2="190.841" gradientUnits="userSpaceOnUse">
<stop stop-color="#09005D"/>
<stop offset="1" stop-color="#1A0F91"/>
</linearGradient>
<linearGradient id="paint69_linear_63_17787" x1="206.083" y1="176.438" x2="216.457" y2="191.513" gradientUnits="userSpaceOnUse">
<stop stop-color="#09005D"/>
<stop offset="1" stop-color="#1A0F91"/>
</linearGradient>
<linearGradient id="paint70_linear_63_17787" x1="205.384" y1="176.796" x2="215.728" y2="191.826" gradientUnits="userSpaceOnUse">
<stop stop-color="#09005D"/>
<stop offset="1" stop-color="#1A0F91"/>
</linearGradient>
<linearGradient id="paint71_linear_63_17787" x1="204.954" y1="177.023" x2="215.219" y2="191.939" gradientUnits="userSpaceOnUse">
<stop stop-color="#09005D"/>
<stop offset="1" stop-color="#1A0F91"/>
</linearGradient>
<linearGradient id="paint72_linear_63_17787" x1="209.028" y1="174.982" x2="219.356" y2="189.99" gradientUnits="userSpaceOnUse">
<stop stop-color="#09005D"/>
<stop offset="1" stop-color="#1A0F91"/>
</linearGradient>
<linearGradient id="paint73_linear_63_17787" x1="44.1437" y1="179.085" x2="22.1179" y2="224.81" gradientUnits="userSpaceOnUse">
<stop stop-color="#FF928E"/>
<stop offset="1" stop-color="#FE7062"/>
</linearGradient>
<linearGradient id="paint74_linear_63_17787" x1="48.3653" y1="186.806" x2="58.056" y2="200.888" gradientUnits="userSpaceOnUse">
<stop stop-color="#09005D"/>
<stop offset="1" stop-color="#1A0F91"/>
</linearGradient>
<linearGradient id="paint75_linear_63_17787" x1="47.8626" y1="187.034" x2="57.603" y2="201.189" gradientUnits="userSpaceOnUse">
<stop stop-color="#09005D"/>
<stop offset="1" stop-color="#1A0F91"/>
</linearGradient>
<linearGradient id="paint76_linear_63_17787" x1="47.2831" y1="187.33" x2="56.9995" y2="201.449" gradientUnits="userSpaceOnUse">
<stop stop-color="#09005D"/>
<stop offset="1" stop-color="#1A0F91"/>
</linearGradient>
<linearGradient id="paint77_linear_63_17787" x1="46.2662" y1="187.813" x2="56.0869" y2="202.085" gradientUnits="userSpaceOnUse">
<stop stop-color="#09005D"/>
<stop offset="1" stop-color="#1A0F91"/>
</linearGradient>
<linearGradient id="paint78_linear_63_17787" x1="45.6069" y1="188.153" x2="55.3994" y2="202.382" gradientUnits="userSpaceOnUse">
<stop stop-color="#09005D"/>
<stop offset="1" stop-color="#1A0F91"/>
</linearGradient>
<linearGradient id="paint79_linear_63_17787" x1="45.1983" y1="188.368" x2="54.9163" y2="202.489" gradientUnits="userSpaceOnUse">
<stop stop-color="#09005D"/>
<stop offset="1" stop-color="#1A0F91"/>
</linearGradient>
<linearGradient id="paint80_linear_63_17787" x1="49.0532" y1="186.436" x2="58.8309" y2="200.644" gradientUnits="userSpaceOnUse">
<stop stop-color="#09005D"/>
<stop offset="1" stop-color="#1A0F91"/>
</linearGradient>
<linearGradient id="paint81_linear_63_17787" x1="136.308" y1="167.418" x2="101.735" y2="220.948" gradientUnits="userSpaceOnUse">
<stop stop-color="#FF928E"/>
<stop offset="1" stop-color="#FE7062"/>
</linearGradient>
<linearGradient id="paint82_linear_63_17787" x1="135.143" y1="181.881" x2="148.93" y2="201.914" gradientUnits="userSpaceOnUse">
<stop stop-color="#09005D"/>
<stop offset="1" stop-color="#1A0F91"/>
</linearGradient>
<linearGradient id="paint83_linear_63_17787" x1="134.435" y1="182.206" x2="148.292" y2="202.342" gradientUnits="userSpaceOnUse">
<stop stop-color="#09005D"/>
<stop offset="1" stop-color="#1A0F91"/>
</linearGradient>
<linearGradient id="paint84_linear_63_17787" x1="133.608" y1="182.627" x2="147.431" y2="202.712" gradientUnits="userSpaceOnUse">
<stop stop-color="#09005D"/>
<stop offset="1" stop-color="#1A0F91"/>
</linearGradient>
<linearGradient id="paint85_linear_63_17787" x1="132.163" y1="183.315" x2="146.135" y2="203.617" gradientUnits="userSpaceOnUse">
<stop stop-color="#09005D"/>
<stop offset="1" stop-color="#1A0F91"/>
</linearGradient>
<linearGradient id="paint86_linear_63_17787" x1="131.22" y1="183.797" x2="145.15" y2="204.04" gradientUnits="userSpaceOnUse">
<stop stop-color="#09005D"/>
<stop offset="1" stop-color="#1A0F91"/>
</linearGradient>
<linearGradient id="paint87_linear_63_17787" x1="130.642" y1="184.103" x2="144.466" y2="204.192" gradientUnits="userSpaceOnUse">
<stop stop-color="#09005D"/>
<stop offset="1" stop-color="#1A0F91"/>
</linearGradient>
<linearGradient id="paint88_linear_63_17787" x1="136.127" y1="181.354" x2="150.037" y2="201.568" gradientUnits="userSpaceOnUse">
<stop stop-color="#09005D"/>
<stop offset="1" stop-color="#1A0F91"/>
</linearGradient>
<linearGradient id="paint89_linear_63_17787" x1="187.027" y1="54.1603" x2="161.098" y2="94.5876" gradientUnits="userSpaceOnUse">
<stop stop-color="#FF928E"/>
<stop offset="1" stop-color="#FE7062"/>
</linearGradient>
<linearGradient id="paint90_linear_63_17787" x1="189.351" y1="59.4855" x2="198.92" y2="73.3907" gradientUnits="userSpaceOnUse">
<stop stop-color="#09005D"/>
<stop offset="1" stop-color="#1A0F91"/>
</linearGradient>
<linearGradient id="paint91_linear_63_17787" x1="188.855" y1="59.7108" x2="198.473" y2="73.6881" gradientUnits="userSpaceOnUse">
<stop stop-color="#09005D"/>
<stop offset="1" stop-color="#1A0F91"/>
</linearGradient>
<linearGradient id="paint92_linear_63_17787" x1="188.285" y1="60.0037" x2="197.879" y2="73.9446" gradientUnits="userSpaceOnUse">
<stop stop-color="#09005D"/>
<stop offset="1" stop-color="#1A0F91"/>
</linearGradient>
<linearGradient id="paint93_linear_63_17787" x1="187.28" y1="60.4812" x2="196.977" y2="74.5725" gradientUnits="userSpaceOnUse">
<stop stop-color="#09005D"/>
<stop offset="1" stop-color="#1A0F91"/>
</linearGradient>
<linearGradient id="paint94_linear_63_17787" x1="186.625" y1="60.8152" x2="196.294" y2="74.8661" gradientUnits="userSpaceOnUse">
<stop stop-color="#09005D"/>
<stop offset="1" stop-color="#1A0F91"/>
</linearGradient>
<linearGradient id="paint95_linear_63_17787" x1="186.224" y1="61.0281" x2="195.819" y2="74.9713" gradientUnits="userSpaceOnUse">
<stop stop-color="#09005D"/>
<stop offset="1" stop-color="#1A0F91"/>
</linearGradient>
<linearGradient id="paint96_linear_63_17787" x1="190.035" y1="59.1203" x2="199.689" y2="73.1496" gradientUnits="userSpaceOnUse">
<stop stop-color="#09005D"/>
<stop offset="1" stop-color="#1A0F91"/>
</linearGradient>
</defs>
</svg>
