<svg width="364" height="271" viewBox="0 0 364 271" fill="none" xmlns="http://www.w3.org/2000/svg">
<path d="M363.575 238.106H0V238.288H363.575V238.106Z" fill="#EBEBEB"/>
<path d="M322.775 245.027H298.691V245.209H322.775V245.027Z" fill="#EBEBEB"/>
<path d="M131.853 247.485H95.5977V247.667H131.853V247.485Z" fill="#EBEBEB"/>
<path d="M297.965 251.783H276.492V251.965H297.965V251.783Z" fill="#EBEBEB"/>
<path d="M53.8549 250.562H38.1484V250.743H53.8549V250.562Z" fill="#EBEBEB"/>
<path d="M88.2289 250.562H60.3281V250.743H88.2289V250.562Z" fill="#EBEBEB"/>
<path d="M240.846 243.057H172.727V243.238H240.846V243.057Z" fill="#EBEBEB"/>
<path d="M172.342 205.675H31.9294C29.6388 205.675 27.7773 203.813 27.7773 201.523V4.15203C27.7773 1.86151 29.6388 0 31.9294 0H172.342C174.633 0 176.494 1.86151 176.494 4.15203V201.523C176.494 203.813 174.633 205.675 172.342 205.675ZM31.9294 0.181788C29.7407 0.181788 27.9591 1.96331 27.9591 4.15203V201.523C27.9591 203.711 29.7407 205.493 31.9294 205.493H172.342C174.531 205.493 176.312 203.711 176.312 201.523V4.15203C176.312 1.96331 174.531 0.181788 172.342 0.181788H31.9294Z" fill="#EBEBEB"/>
<path d="M329.627 205.675H189.215C186.924 205.675 185.062 203.813 185.062 201.523V4.15203C185.062 1.86151 186.924 0 189.215 0H329.627C331.918 0 333.779 1.86151 333.779 4.15203V201.523C333.779 203.813 331.918 205.675 329.627 205.675ZM189.215 0.181788C187.026 0.181788 185.244 1.96331 185.244 4.15203V201.523C185.244 203.711 187.026 205.493 189.215 205.493H329.627C331.816 205.493 333.598 203.711 333.598 201.523V4.15203C333.598 1.96331 331.816 0.181788 329.627 0.181788H189.215Z" fill="#EBEBEB"/>
<path d="M316.746 17.8066H206.866C202.047 17.8066 198.141 21.7133 198.141 26.5325V141.262C198.141 146.081 202.047 149.988 206.866 149.988H316.746C321.565 149.988 325.472 146.081 325.472 141.262V26.5325C325.472 21.7133 321.565 17.8066 316.746 17.8066Z" fill="#FAFAFA"/>
<path d="M296.83 55.5388C302.384 55.5388 306.886 51.0363 306.886 45.4823C306.886 39.9282 302.384 35.4258 296.83 35.4258C291.276 35.4258 286.773 39.9282 286.773 45.4823C286.773 51.0363 291.276 55.5388 296.83 55.5388Z" fill="#F0F0F0"/>
<path d="M270.502 55.5388C276.056 55.5388 280.558 51.0363 280.558 45.4823C280.558 39.9282 276.056 35.4258 270.502 35.4258C264.948 35.4258 260.445 39.9282 260.445 45.4823C260.445 51.0363 264.948 55.5388 270.502 55.5388Z" fill="white"/>
<path d="M271.356 134.726C251.563 134.726 235.457 118.619 235.457 98.8262C235.457 79.0331 251.563 62.9268 271.356 62.9268C291.15 62.9268 307.256 79.0331 307.256 98.8262C307.256 118.619 291.15 134.726 271.356 134.726ZM271.356 63.6539C251.963 63.6539 236.184 79.4331 236.184 98.8262C236.184 118.219 251.963 133.998 271.356 133.998C290.75 133.998 306.529 118.219 306.529 98.8262C306.529 79.4331 290.75 63.6539 271.356 63.6539Z" fill="white"/>
<path d="M272.903 171.397C260.723 171.397 250.594 180.174 248.493 191.75C247.526 197.066 246.58 202.389 245.293 207.639L237.789 238.281H308.017L300.513 207.639C299.226 202.389 298.281 197.066 297.314 191.75C295.212 180.174 285.083 171.397 272.903 171.397Z" fill="#E0E0E0"/>
<path d="M276.79 171.397C264.61 171.397 254.481 180.174 252.379 191.75C251.412 197.066 250.467 202.389 249.18 207.639L241.676 238.281H311.904L304.4 207.639C303.113 202.389 302.167 197.066 301.2 191.75C299.099 180.174 288.97 171.397 276.79 171.397Z" fill="#E6E6E6"/>
<path d="M122.744 53.4818C124.351 46.792 131.143 42.64 137.832 44.247L250.512 71.377C257.202 72.984 261.354 79.7756 259.747 86.4654C258.14 93.1552 251.348 97.3072 244.658 95.7002L131.979 68.5702C125.289 66.9632 121.137 60.1716 122.744 53.4818Z" fill="#E0E0E0"/>
<path d="M124.924 52.1439C126.531 45.4541 133.322 41.3021 140.012 42.9091L252.691 70.0391C259.381 71.6461 263.533 78.4377 261.926 85.1275C260.319 91.8173 253.528 95.9693 246.838 94.3623L134.159 67.2323C127.469 65.6253 123.317 58.8337 124.924 52.1439Z" fill="#EBEBEB"/>
<path d="M140.038 55.7872C140.867 52.3478 144.357 50.2099 147.804 51.0389L242.064 73.7333C245.504 74.5622 247.642 78.0525 246.813 81.4992C245.984 84.9387 242.493 87.0765 239.047 86.2475L144.786 63.5532C141.347 62.7242 139.209 59.2339 140.038 55.7872Z" fill="#E0E0E0"/>
<path d="M125.167 53.2501C118.877 46.9602 110.181 44.5315 102.037 45.964C94.4306 47.302 91.5947 56.784 97.0556 62.2449L116.172 81.3617C121.633 86.8226 131.115 83.9867 132.453 76.3807C133.886 68.2366 131.457 59.5472 125.167 53.2501Z" fill="#F5F5F5"/>
<path d="M81.1254 136.988V129.717C98.9988 129.717 113.542 115.174 113.542 97.3002C113.542 79.4268 98.9988 64.8838 81.1254 64.8838C63.252 64.8838 48.709 79.4268 48.709 97.3002H41.4375C41.4375 75.413 59.2454 57.6123 81.1254 57.6123C103.005 57.6123 120.813 75.4202 120.813 97.3002C120.813 119.18 103.005 136.988 81.1254 136.988Z" fill="#EBEBEB"/>
<path d="M102.677 75.7395C105.251 78.3136 109.607 78.51 114.152 76.7066C118.398 75.0196 121.125 69.5806 118.885 67.3482L111.061 59.5241C108.829 57.2917 103.382 60.0113 101.703 64.2578C99.8994 68.8098 100.096 73.1581 102.67 75.7323L102.677 75.7395Z" fill="#F5F5F5"/>
<path d="M125.167 61.2483C129.584 61.2483 133.165 57.6672 133.165 53.2496C133.165 48.8321 129.584 45.251 125.167 45.251C120.749 45.251 117.168 48.8321 117.168 53.2496C117.168 57.6672 120.749 61.2483 125.167 61.2483Z" fill="#FAFAFA"/>
<path d="M234.707 61.6677L230.049 63.4324C221.585 66.6395 217.322 76.1013 220.529 84.5661L258.843 185.693C262.05 194.158 271.512 198.42 279.977 195.213L284.635 193.449C293.1 190.242 297.362 180.78 294.155 172.315L255.841 71.1877C252.634 62.723 243.172 58.4607 234.707 61.6677Z" fill="#E0E0E0"/>
<path d="M238.586 61.6677L233.928 63.4324C225.464 66.6395 221.201 76.1013 224.408 84.5661L262.722 185.693C265.929 194.158 275.391 198.42 283.856 195.213L288.514 193.449C296.978 190.242 301.241 180.78 298.034 172.315L259.72 71.1877C256.513 62.723 247.051 58.4607 238.586 61.6677Z" fill="#F0F0F0"/>
<path d="M278.096 180.973C277.769 180.973 277.209 180.784 277.013 180.253L238.692 79.1286C238.59 78.8596 238.605 78.576 238.735 78.2851C238.866 77.9943 239.07 77.7907 239.339 77.6889L244 75.9219C244.124 75.8783 244.233 75.8564 244.356 75.8564C244.684 75.8564 245.243 76.0455 245.44 76.5763L283.761 177.701C283.971 178.247 283.659 178.937 283.113 179.141L278.452 180.908C278.329 180.952 278.22 180.973 278.096 180.973Z" fill="#E0E0E0"/>
<path d="M284.903 171.397C272.723 171.397 262.594 180.174 260.493 191.75C259.526 197.066 258.58 202.389 257.293 207.639L249.789 238.281H320.017L312.513 207.639C311.226 202.389 310.281 197.066 309.314 191.75C307.212 180.174 297.083 171.397 284.903 171.397Z" fill="#E0E0E0"/>
<path d="M288.786 171.397C276.606 171.397 266.477 180.174 264.376 191.75C263.408 197.066 262.463 202.389 261.176 207.639L253.672 238.281H323.9L316.396 207.639C315.109 202.389 314.164 197.066 313.196 191.75C311.095 180.174 300.966 171.397 288.786 171.397Z" fill="#F5F5F5"/>
<path d="M255.368 92.8579C262.132 86.0938 262.132 75.1269 255.368 68.3627C248.604 61.5986 237.637 61.5986 230.873 68.3627C224.108 75.1269 224.108 86.0938 230.873 92.858C237.637 99.6221 248.604 99.6221 255.368 92.8579Z" fill="#FAFAFA"/>
<path d="M243.121 94.6818C235.362 94.6818 229.051 88.3701 229.051 80.6114C229.051 72.8527 235.362 66.541 243.121 66.541C250.88 66.541 257.184 72.8527 257.184 80.6114C257.184 88.3701 250.873 94.6818 243.121 94.6818ZM243.121 67.2245C235.741 67.2245 229.734 73.2308 229.734 80.6114C229.734 87.992 235.741 93.9982 243.121 93.9982C250.502 93.9982 256.508 87.992 256.508 80.6114C256.508 73.2308 250.502 67.2245 243.121 67.2245Z" fill="#E0E0E0"/>
<path d="M103.281 190.549H52.5039V238.105H103.281V190.549Z" fill="#F5F5F5"/>
<path d="M37.2337 238.097H52.5039L52.5039 190.541H37.2337L37.2337 238.097Z" fill="#E6E6E6"/>
<path d="M55.175 190.542H98.375V161.296H55.175L55.175 190.542Z" fill="#F0F0F0"/>
<path d="M111.369 161.303H98.375V190.549H111.369V161.303Z" fill="#E0E0E0"/>
<path d="M126.539 238.104H164.125V193.937H126.539V238.104Z" fill="#E6E6E6"/>
<path d="M160.45 233.72H130.215V198.315H160.45V233.72ZM130.942 232.993H159.723V199.043H130.942V232.993Z" fill="#F5F5F5"/>
<path d="M175.425 193.93H164.125V238.097H175.425V193.93Z" fill="#F5F5F5"/>
<path d="M32.2378 141.466H69.8242V97.2914H32.2378L32.2378 141.466Z" fill="#E6E6E6"/>
<path d="M81.1241 97.291H69.8242V141.465H81.1241V97.291Z" fill="#F5F5F5"/>
<path d="M181.788 270.944C259.653 270.944 322.775 267.259 322.775 262.713C322.775 258.167 259.653 254.481 181.788 254.481C103.923 254.481 40.8008 258.167 40.8008 262.713C40.8008 267.259 103.923 270.944 181.788 270.944Z" fill="#F5F5F5"/>
<path d="M114.797 162.402H182.997V155.574H114.797C112.914 155.574 111.387 157.101 111.387 158.985C111.387 160.868 112.914 162.395 114.797 162.395V162.402Z" fill="#263238"/>
<path d="M141.152 261.745H145.5V162.409H141.152V261.745Z" fill="#407BFF"/>
<path opacity="0.7" d="M141.152 261.745H145.5V162.409H141.152V261.745Z" fill="white"/>
<path d="M119.566 261.745H123.914L123.914 162.409H119.566L119.566 261.745Z" fill="#407BFF"/>
<path opacity="0.7" d="M119.566 261.745H123.914L123.914 162.409H119.566L119.566 261.745Z" fill="white"/>
<path d="M114.8 161.21C116.025 161.21 117.018 160.217 117.018 158.992C117.018 157.767 116.025 156.774 114.8 156.774C113.575 156.774 112.582 157.767 112.582 158.992C112.582 160.217 113.575 161.21 114.8 161.21Z" fill="#407BFF"/>
<path d="M122.32 158.992C122.32 160.214 123.309 161.21 124.538 161.21C125.767 161.21 126.756 160.221 126.756 158.992C126.756 157.763 125.767 156.774 124.538 156.774C123.309 156.774 122.32 157.763 122.32 158.992Z" fill="#407BFF"/>
<path d="M134.288 161.21C135.513 161.21 136.506 160.217 136.506 158.992C136.506 157.767 135.513 156.774 134.288 156.774C133.063 156.774 132.07 157.767 132.07 158.992C132.07 160.217 133.063 161.21 134.288 161.21Z" fill="#407BFF"/>
<path d="M144.026 161.21C145.251 161.21 146.244 160.217 146.244 158.992C146.244 157.767 145.251 156.774 144.026 156.774C142.802 156.774 141.809 157.767 141.809 158.992C141.809 160.217 142.802 161.21 144.026 161.21Z" fill="#407BFF"/>
<path d="M153.765 161.21C154.99 161.21 155.982 160.217 155.982 158.992C155.982 157.767 154.99 156.774 153.765 156.774C152.54 156.774 151.547 157.767 151.547 158.992C151.547 160.217 152.54 161.21 153.765 161.21Z" fill="#407BFF"/>
<path d="M163.511 161.21C164.736 161.21 165.729 160.217 165.729 158.992C165.729 157.767 164.736 156.774 163.511 156.774C162.286 156.774 161.293 157.767 161.293 158.992C161.293 160.217 162.286 161.21 163.511 161.21Z" fill="#407BFF"/>
<path d="M173.253 161.21C174.478 161.21 175.471 160.217 175.471 158.992C175.471 157.767 174.478 156.774 173.253 156.774C172.028 156.774 171.035 157.767 171.035 158.992C171.035 160.217 172.028 161.21 173.253 161.21Z" fill="#407BFF"/>
<path d="M182.999 156.774V161.202C181.777 161.202 180.781 160.213 180.781 158.984C180.781 157.756 181.77 156.767 182.999 156.767V156.774Z" fill="#407BFF"/>
<path d="M216.437 79.71H211.922V80.4371H216.437V79.71Z" fill="#407BFF"/>
<path d="M207.727 79.71H193.184V80.4371H207.727V79.71Z" fill="#407BFF"/>
<path d="M165.232 82.2549H235.191C238.485 82.2549 241.161 84.9308 241.161 88.2248V261.738H159.262V88.2248C159.262 84.9308 161.938 82.2549 165.232 82.2549Z" fill="#407BFF"/>
<path opacity="0.2" d="M181.92 134.915H159.262V134.246H181.251V82.2549H181.92V134.915Z" fill="white"/>
<path opacity="0.4" d="M222.408 82.2549H235.191C238.485 82.2549 241.161 84.9308 241.161 88.2248V261.738H216.445V88.2248C216.445 84.9308 219.121 82.2549 222.415 82.2549H222.408Z" fill="#263238"/>
<path d="M224.312 112.031H233.292C234.892 112.031 236.186 113.333 236.186 114.925V169.578H221.418V114.925C221.418 113.326 222.72 112.031 224.312 112.031Z" fill="#407BFF"/>
<path d="M224.315 112.031H232.096C233.696 112.031 234.99 113.333 234.99 114.925V169.578H221.414V114.925C221.414 113.326 222.716 112.031 224.308 112.031H224.315Z" fill="black"/>
<path opacity="0.2" d="M216.438 251.958H191.09V170.001H216.438V170.67H191.759V251.289H216.438V251.958Z" fill="white"/>
<path opacity="0.2" d="M181.38 251.957C179.038 251.957 177.141 250.052 177.141 247.718C177.141 245.384 179.046 243.479 181.38 243.479C183.714 243.479 185.619 245.384 185.619 247.718C185.619 250.052 183.714 251.957 181.38 251.957ZM181.38 244.148C179.409 244.148 177.81 245.747 177.81 247.718C177.81 249.688 179.409 251.288 181.38 251.288C183.35 251.288 184.95 249.688 184.95 247.718C184.95 245.747 183.35 244.148 181.38 244.148Z" fill="white"/>
<path opacity="0.2" d="M170.048 251.957C167.706 251.957 165.809 250.052 165.809 247.718C165.809 245.384 167.714 243.479 170.048 243.479C172.382 243.479 174.287 245.384 174.287 247.718C174.287 250.052 172.382 251.957 170.048 251.957ZM170.048 244.148C168.077 244.148 166.478 245.747 166.478 247.718C166.478 249.688 168.077 251.288 170.048 251.288C172.018 251.288 173.618 249.688 173.618 247.718C173.618 245.747 172.018 244.148 170.048 244.148Z" fill="white"/>
<path d="M311.16 162.402H242.961V155.574H311.16C313.044 155.574 314.571 157.101 314.571 158.985C314.571 160.868 313.044 162.395 311.16 162.395V162.402Z" fill="#407BFF"/>
<path d="M289.617 162.402H221.418V155.574H289.617C291.501 155.574 293.028 157.101 293.028 158.985C293.028 160.868 291.501 162.395 289.617 162.395V162.402Z" fill="#263238"/>
<path d="M284.809 162.401H280.461V261.737H284.809V162.401Z" fill="#407BFF"/>
<path opacity="0.7" d="M284.809 162.401H280.461V261.737H284.809V162.401Z" fill="white"/>
<path d="M306.387 162.401H302.039V261.737H306.387V162.401Z" fill="#407BFF"/>
<path opacity="0.7" d="M306.387 162.401H302.039V261.737H306.387V162.401Z" fill="white"/>
<path d="M289.62 161.209C290.845 161.209 291.838 160.216 291.838 158.991C291.838 157.766 290.845 156.773 289.62 156.773C288.395 156.773 287.402 157.766 287.402 158.991C287.402 160.216 288.395 161.209 289.62 161.209Z" fill="#407BFF"/>
<path d="M279.874 161.209C281.099 161.209 282.092 160.216 282.092 158.991C282.092 157.766 281.099 156.773 279.874 156.773C278.649 156.773 277.656 157.766 277.656 158.991C277.656 160.216 278.649 161.209 279.874 161.209Z" fill="#407BFF"/>
<path d="M270.132 161.209C271.357 161.209 272.35 160.216 272.35 158.991C272.35 157.766 271.357 156.773 270.132 156.773C268.907 156.773 267.914 157.766 267.914 158.991C267.914 160.216 268.907 161.209 270.132 161.209Z" fill="#407BFF"/>
<path d="M260.386 161.209C261.611 161.209 262.604 160.216 262.604 158.991C262.604 157.766 261.611 156.773 260.386 156.773C259.161 156.773 258.168 157.766 258.168 158.991C258.168 160.216 259.161 161.209 260.386 161.209Z" fill="#407BFF"/>
<path d="M250.644 161.209C251.868 161.209 252.861 160.216 252.861 158.991C252.861 157.766 251.868 156.773 250.644 156.773C249.419 156.773 248.426 157.766 248.426 158.991C248.426 160.216 249.419 161.209 250.644 161.209Z" fill="#407BFF"/>
<path d="M240.898 161.209C242.122 161.209 243.115 160.216 243.115 158.991C243.115 157.766 242.122 156.773 240.898 156.773C239.673 156.773 238.68 157.766 238.68 158.991C238.68 160.216 239.673 161.209 240.898 161.209Z" fill="#407BFF"/>
<path d="M231.155 161.209C232.38 161.209 233.373 160.216 233.373 158.991C233.373 157.766 232.38 156.773 231.155 156.773C229.93 156.773 228.938 157.766 228.938 158.991C228.938 160.216 229.93 161.209 231.155 161.209Z" fill="#407BFF"/>
<path d="M221.414 156.773V161.201C222.636 161.201 223.632 160.212 223.632 158.983C223.632 157.755 222.643 156.766 221.414 156.766V156.773Z" fill="#407BFF"/>
<path d="M207.014 100.18H168.686C167.28 100.18 166.141 101.319 166.141 102.725V178.53C166.141 179.936 167.28 181.075 168.686 181.075H207.014C208.419 181.075 209.559 179.936 209.559 178.53V102.725C209.559 101.319 208.419 100.18 207.014 100.18Z" fill="white"/>
<path opacity="0.3" d="M202.205 108.818H173.49C171.992 108.818 170.777 110.033 170.777 111.531V130.226C170.777 131.724 171.992 132.938 173.49 132.938H202.205C203.703 132.938 204.917 131.724 204.917 130.226V111.531C204.917 110.033 203.703 108.818 202.205 108.818Z" fill="#407BFF"/>
<path opacity="0.3" d="M173.351 136.393H202.35C203.768 136.393 204.924 137.549 204.924 138.967V150.434C204.924 151.852 203.768 153.008 202.35 153.008H173.351C171.934 153.008 170.777 151.852 170.777 150.434V138.967C170.777 137.549 171.934 136.393 173.351 136.393Z" fill="#407BFF"/>
<path d="M181.076 144.704L175.375 142.632C176.248 140.239 178.531 138.64 181.076 138.64C184.006 138.64 186.537 140.763 187.046 143.65L181.076 144.704Z" fill="#407BFF"/>
<path d="M181.076 144.704L187.046 143.65C187.104 143.999 187.141 144.348 187.141 144.704C187.141 148.035 184.399 150.769 181.076 150.769C177.753 150.769 175.012 148.027 175.012 144.704C175.012 143.999 175.135 143.294 175.375 142.632L181.076 144.704Z" fill="white"/>
<path d="M197.626 143.911H195.328V150.761H197.626V143.911Z" fill="white"/>
<path d="M193.712 147.553H191.414V150.759H193.712V147.553Z" fill="white"/>
<path d="M193.712 145.597H191.414V147.553H193.712V145.597Z" fill="#407BFF"/>
<path d="M197.626 139.737H195.328V143.911H197.626V139.737Z" fill="#407BFF"/>
<path d="M201.528 145.155H199.23V150.754H201.528V145.155Z" fill="white"/>
<path d="M201.528 142.587H199.23V145.154H201.528V142.587Z" fill="#407BFF"/>
<path d="M175.745 126.088H199.872C200.584 126.088 201.064 125.347 200.759 124.7C200.141 123.405 199.334 121.216 199.072 118.221C198.621 113.116 195.174 111.894 193.705 118.221C192.237 124.547 186.376 121.282 183.976 118.279C181.751 115.487 178.115 118.577 174.887 124.656C174.545 125.303 175.018 126.088 175.752 126.088H175.745Z" fill="#407BFF"/>
<path d="M174.813 158.628C176.667 158.628 178.18 160.141 178.18 161.995C178.18 163.849 176.667 165.362 174.813 165.362C172.959 165.362 171.446 163.849 171.446 161.995C171.446 160.141 172.959 158.628 174.813 158.628ZM174.813 157.952C172.581 157.952 170.777 159.763 170.777 161.988C170.777 164.213 172.588 166.024 174.813 166.024C177.038 166.024 178.849 164.213 178.849 161.988C178.849 159.763 177.038 157.952 174.813 157.952Z" fill="#263238"/>
<path d="M185.79 158.628C187.644 158.628 189.156 160.141 189.156 161.995C189.156 163.849 187.644 165.362 185.79 165.362C183.935 165.362 182.423 163.849 182.423 161.995C182.423 160.141 183.935 158.628 185.79 158.628ZM185.79 157.952C183.557 157.952 181.754 159.763 181.754 161.988C181.754 164.213 183.565 166.024 185.79 166.024C188.015 166.024 189.825 164.213 189.825 161.988C189.825 159.763 188.015 157.952 185.79 157.952Z" fill="#407BFF"/>
<path d="M204.92 172.728C204.92 173.687 204.142 174.473 203.175 174.473C202.208 174.473 201.43 173.695 201.43 172.728C201.43 171.76 202.208 170.982 203.175 170.982C204.142 170.982 204.92 171.76 204.92 172.728Z" fill="#407BFF"/>
<path opacity="0.3" d="M197.256 172.728C197.256 173.687 196.478 174.473 195.511 174.473C194.544 174.473 193.766 173.695 193.766 172.728C193.766 171.76 194.544 170.982 195.511 170.982C196.478 170.982 197.256 171.76 197.256 172.728Z" fill="#407BFF"/>
<path d="M189.588 172.728C189.588 173.687 188.81 174.473 187.843 174.473C186.876 174.473 186.098 173.695 186.098 172.728C186.098 171.76 186.876 170.982 187.843 170.982C188.81 170.982 189.588 171.76 189.588 172.728Z" fill="#407BFF"/>
<path d="M181.928 172.728C181.928 173.687 181.15 174.473 180.183 174.473C179.216 174.473 178.438 173.695 178.438 172.728C178.438 171.76 179.216 170.982 180.183 170.982C181.15 170.982 181.928 171.76 181.928 172.728Z" fill="#407BFF"/>
<path d="M174.264 172.728C174.264 173.687 173.486 174.473 172.519 174.473C171.551 174.473 170.773 173.695 170.773 172.728C170.773 171.76 171.551 170.982 172.519 170.982C173.486 170.982 174.264 171.76 174.264 172.728Z" fill="#407BFF"/>
<path d="M289.611 129.12H251.254V155.581H289.611V129.12Z" fill="#407BFF"/>
<path opacity="0.7" d="M267.912 129.12H261.055V138.842H267.912V129.12Z" fill="white"/>
<path opacity="0.2" d="M289.618 129.12H277.656V155.581H289.618V129.12Z" fill="black"/>
<path opacity="0.7" d="M285.547 129.12H281.723V138.842H285.547V129.12Z" fill="#407BFF"/>
<path d="M258.637 148.201V152.52H254.317V148.201H258.637ZM259.313 147.524H253.648V153.189H259.313V147.524Z" fill="white"/>
<path opacity="0.4" d="M267.352 147.532H261.688V153.197H267.352V147.532Z" fill="#263238"/>
<path d="M147.441 133.498H136.184C135.871 133.498 135.617 133.752 135.617 134.065V155.014C135.617 155.328 135.871 155.582 136.184 155.582H147.441C147.754 155.582 148.008 155.328 148.008 155.014V134.065C148.008 133.752 147.754 133.498 147.441 133.498Z" fill="#263238"/>
<path d="M146.777 133.498H135.52C135.207 133.498 134.953 133.752 134.953 134.065V155.014C134.953 155.328 135.207 155.582 135.52 155.582H146.777C147.09 155.582 147.344 155.328 147.344 155.014V134.065C147.344 133.752 147.09 133.498 146.777 133.498Z" fill="#407BFF"/>
<path d="M146.668 154.389V134.697C146.668 134.408 146.434 134.174 146.144 134.174H136.146C135.857 134.174 135.623 134.408 135.623 134.697V154.389C135.623 154.678 135.857 154.912 136.146 154.912H146.144C146.434 154.912 146.668 154.678 146.668 154.389Z" fill="white"/>
<path opacity="0.2" d="M140.929 134.174H138.646L136.93 154.905H139.22L140.929 134.174Z" fill="#407BFF"/>
<path opacity="0.2" d="M143.212 134.174H141.736L140.027 154.905H141.503L143.212 134.174Z" fill="#407BFF"/>
<path d="M136.519 112.629H118.137C117.744 112.629 117.482 112.309 117.555 111.917L122.325 86.4519C122.398 86.0592 122.776 85.7393 123.169 85.7393H141.551C141.944 85.7393 142.206 86.0592 142.133 86.4519L137.363 111.917C137.29 112.309 136.912 112.629 136.519 112.629Z" fill="#407BFF"/>
<path d="M135.866 111.568H118.56C118.189 111.568 117.949 111.27 118.015 110.899L122.508 86.9248C122.581 86.554 122.937 86.2559 123.301 86.2559H140.607C140.978 86.2559 141.218 86.554 141.153 86.9248L136.659 110.899C136.586 111.27 136.23 111.568 135.866 111.568Z" fill="white"/>
<path d="M95.6426 87.5121L95.4826 87.8538L95.2936 88.2901L94.9082 89.2136C94.661 89.8462 94.421 90.4934 94.2101 91.1551C93.7811 92.4712 93.3884 93.8237 93.0685 95.198C92.3995 97.9394 91.9923 100.768 91.7451 103.618L91.6578 104.636C91.636 104.775 91.6578 104.811 91.5924 104.695C91.5488 104.593 91.3306 104.317 91.1343 104.229C90.938 104.127 90.8798 104.171 90.967 104.2C91.1488 104.273 91.7087 104.266 92.2759 104.186C92.8649 104.098 93.5048 103.953 94.1592 103.757C96.7842 102.986 99.5692 101.793 102.223 100.594L103.983 103.335C101.496 105.32 98.9512 107.058 95.9262 108.461C95.1627 108.803 94.3628 109.116 93.4757 109.377C92.574 109.625 91.6142 109.843 90.2908 109.748C89.6291 109.683 88.8219 109.516 87.993 108.999C87.1568 108.49 86.4587 107.596 86.1606 106.782C85.8334 105.96 85.7606 105.233 85.7461 104.615V103.364C85.7679 100.179 86.0515 96.9723 86.6987 93.8019C87.0113 92.2167 87.4185 90.6461 87.9275 89.0827C88.182 88.3047 88.4656 87.5266 88.771 86.7558C88.931 86.3704 89.0837 85.9778 89.2728 85.5851L89.5564 84.9961C89.6582 84.7853 89.7454 84.6253 89.9054 84.3271L95.6499 87.5121H95.6426Z" fill="#B55B52"/>
<path d="M99.9743 61.6035C100.723 65.4138 102.403 73.7324 99.7344 76.2774C99.7344 76.2774 100.774 80.1459 107.864 80.1459C115.652 80.1459 111.587 76.2774 111.587 76.2774C107.333 75.2594 107.442 72.1108 108.184 69.1441L99.9743 61.6035Z" fill="#B55B52"/>
<path d="M98.1422 77.6011C98.1422 77.6011 97.4587 75.4415 97.2042 74.1471C96.9497 72.8528 106.504 73.2891 109.668 74.0962C112.831 74.9034 113.841 78.6119 113.841 78.6119L98.1422 77.6011Z" fill="#263238"/>
<path d="M117.016 60.7168C117.016 60.7168 117.423 63.08 118.157 64.3307C117.357 64.8179 116.281 64.2944 116.281 64.2944L117.023 60.7168H117.016Z" fill="#A02724"/>
<path d="M115.887 56.8184C115.844 56.8038 115.8 56.782 115.771 56.7457C115.655 56.6293 115.655 56.433 115.771 56.3166C116.971 55.1314 118.345 55.415 118.403 55.4295C118.57 55.4659 118.672 55.6258 118.636 55.7931C118.599 55.9603 118.439 56.0621 118.272 56.0258C118.229 56.0185 117.152 55.8076 116.193 56.7529C116.105 56.8402 115.989 56.862 115.88 56.8256L115.887 56.8184Z" fill="#263238"/>
<path d="M116.739 59.7565C116.637 60.2655 116.819 60.7309 117.146 60.7964C117.481 60.8618 117.83 60.5055 117.939 60.0038C118.041 59.4948 117.859 59.0294 117.532 58.9639C117.197 58.8985 116.848 59.2475 116.739 59.7565Z" fill="#263238"/>
<path d="M117.375 58.9563L118.669 58.8545C118.669 58.8545 117.848 59.6762 117.375 58.9563Z" fill="#263238"/>
<path d="M67.2539 261.367H73.6819L75.7325 246.489H69.3045L67.2539 261.367Z" fill="#B55B52"/>
<path d="M74.7793 256.952H67.5587C67.2969 256.952 67.086 257.134 67.0424 257.388L66.2207 263.097C66.1335 263.686 66.6425 264.253 67.2533 264.238C69.7692 264.195 70.9836 264.049 74.1539 264.049C76.11 264.049 78.9604 264.253 81.6581 264.253C84.3559 264.253 84.5013 261.584 83.3742 261.344C78.3423 260.261 77.5425 258.77 75.8482 257.345C75.5428 257.09 75.1574 256.952 74.772 256.952H74.7793Z" fill="#263238"/>
<path opacity="0.2" d="M69.3038 246.489H75.7318L74.6702 254.161H68.2422L69.3038 246.489Z" fill="black"/>
<path d="M91.653 77.7978C89.0498 78.6267 87.0938 88.4506 87.0938 88.4506L95.3469 95.7439C95.3469 95.7439 100.75 86.1891 99.179 83.0042C97.5356 79.6884 94.7288 76.8161 91.653 77.7978Z" fill="#263238"/>
<path d="M123.204 82.8878C123.226 87.018 123.357 94.6821 120.667 108.367C120.179 110.847 121.147 111.952 120.71 114.482C120.427 116.14 119.496 115.893 119.365 116.7H93.2676C93.2967 115.922 92.126 115.508 91.8642 113.835C91.2607 109.996 93.4785 109.676 93.4131 107.255C93.2313 101.147 92.3369 94.2822 89.6682 82.2188C89.1156 79.7319 90.7881 77.2887 93.3113 76.9179C95.1873 76.6488 97.4488 76.387 99.732 76.2707C104.124 76.0598 107.723 75.9217 111.585 76.2707C113.897 76.4816 116.347 76.8379 118.34 77.1724C121.139 77.6377 123.19 80.0446 123.212 82.8805L123.204 82.8878Z" fill="#263238"/>
<path opacity="0.4" d="M122.209 94.8199C122.041 96.6523 122.158 98.7175 121.867 101.052C117.548 98.8338 116.959 93.2929 118.282 90.457C119.78 91.5696 121.161 93.2856 122.209 94.8199Z" fill="black"/>
<path d="M124.18 84.7129C124.9 87.5342 125.692 90.4428 126.521 93.2715C127.357 96.1073 128.237 98.9287 129.277 101.605C129.793 102.95 130.353 104.23 130.957 105.437C130.957 105.473 130.731 105.153 130.317 105.008C129.895 104.855 129.619 104.957 129.641 104.979C129.677 105.044 130.222 104.833 130.702 104.542C131.727 103.931 132.833 103.008 133.902 102.063C134.971 101.11 136.069 100.07 137.101 99.0596L139.748 100.95C138.999 102.39 138.185 103.721 137.247 105.037C136.294 106.346 135.283 107.611 133.88 108.825C133.524 109.131 133.131 109.429 132.673 109.712C132.207 109.996 131.677 110.28 130.942 110.49C130.23 110.687 129.161 110.81 128.034 110.36C126.914 109.916 126.15 109 125.794 108.382C124.943 106.927 124.18 105.48 123.54 104.019C122.224 101.103 121.184 98.1652 120.231 95.2057C119.759 93.7223 119.315 92.2389 118.915 90.7482C118.508 89.2503 118.115 87.7742 117.773 86.2181L124.172 84.7274L124.18 84.7129Z" fill="#B55B52"/>
<path d="M122.129 79.3394C125.503 83.1352 126.928 90.0504 126.928 90.0504L117.213 96.3911C117.213 96.3911 112.4 85.4911 113.57 82.1317C115.126 77.667 118.871 75.6819 122.129 79.3394Z" fill="#263238"/>
<path d="M140.201 99.386C140.622 98.0844 139.335 98.0917 139.772 95.4376C139.924 94.4996 139.11 94.0996 139.023 94.5941C138.608 97.1028 133.663 100.899 136.303 102.106C137.903 102.833 140.193 99.386 140.193 99.386H140.201Z" fill="#B55B52"/>
<path d="M142.151 98.1433C142.1 96.6527 140.973 94.8421 139.861 97.1471L139.279 97.598C139.279 97.598 137.701 97.8306 135.73 100.528L137.839 102.419L138.537 102.303C139.686 102.114 140.77 101.641 141.686 100.921L141.839 100.805C142.166 100.507 142.333 100.063 142.297 99.6194L142.158 98.1433H142.151Z" fill="#B55B52"/>
<path d="M100.032 54.4852C99.1233 60.7969 98.607 63.451 101.094 67.2976C104.831 73.093 112.786 72.8239 115.557 66.9049C118.051 61.5822 119.12 52.151 113.528 48.4135C108.024 44.7268 100.934 48.1662 100.032 54.4852Z" fill="#B55B52"/>
<path d="M112.64 59.2549C115.186 57.597 117.883 55.2338 117.658 52.027C117.432 48.8203 113.368 45.7881 107.798 45.7881C100.344 45.7881 100.65 50.6382 100.65 50.6382C99.1955 50.82 84.7106 63.6324 102.649 68.6061C120.588 73.5725 112.648 59.2622 112.648 59.2622L112.64 59.2549Z" fill="#263238"/>
<path d="M97.7617 51.0747C97.7617 51.0747 97.0491 52.6744 97.2745 53.4015C99.696 54.0269 108.167 54.3905 112.443 53.5979C112.785 52.7326 114.304 51.2928 114.304 51.2928L97.7617 51.0674V51.0747Z" fill="white"/>
<path d="M97.076 51.8448C97.4614 53.1464 112.193 52.4556 116.935 51.8812C118.614 51.6776 120.265 51.0959 120.265 51.0959V50.5941H118.243C118.243 50.5941 116.935 41.7374 107.932 41.752C100.203 41.7665 95.6654 47.0893 97.076 51.8448Z" fill="#407BFF"/>
<path d="M109.968 41.3017C109.968 41.3017 107.197 41.0909 105.605 41.3017C104.194 41.7526 102.921 41.9562 101.184 44.6466L105.074 44.7702C105.074 44.7702 107.604 41.9562 110.128 41.9416C110.106 41.5635 109.968 41.3017 109.968 41.3017Z" fill="#407BFF"/>
<path opacity="0.2" d="M103.889 50.7255C103.889 50.7255 103.86 50.7255 103.846 50.7255C103.693 50.7037 103.598 50.5655 103.62 50.4128C104.631 43.9194 109.336 41.7234 109.532 41.6289C109.67 41.5707 109.83 41.6289 109.896 41.767C109.961 41.9052 109.896 42.0652 109.757 42.1306C109.714 42.1524 105.118 44.3048 104.158 50.5001C104.137 50.6383 104.02 50.7328 103.889 50.7328V50.7255Z" fill="black"/>
<path d="M115.084 58.5557C115.506 59.93 115.324 61.4134 114.844 62.5041C114.124 64.1402 112.59 63.7766 111.812 62.3296C111.107 61.028 110.634 58.6066 111.827 57.4359C113.005 56.287 114.597 56.985 115.077 58.5557H115.084Z" fill="#B55B52"/>
<path d="M112.482 116.707C112.482 116.707 101.168 160.809 93.0238 185.663C86.4431 205.739 75.9067 252.662 75.9067 252.662H67.1445C67.1445 252.662 71.8565 207.143 76.8593 187.284C89.519 137.038 81.2731 132.952 93.2783 116.707H112.482Z" fill="#407BFF"/>
<path opacity="0.4" d="M100.679 130.522C96.891 144.353 97.1818 159.412 98.8034 166.8C101.145 158.758 103.486 150.359 105.551 142.789C104.839 138.703 102.665 133.94 100.679 130.522Z" fill="black"/>
<path d="M77.193 252.837H66.0312L66.3294 248.918L78.2256 248.518L77.193 252.837Z" fill="#263238"/>
<path d="M110.49 261.352H116.918L116.416 246.475H109.988L110.49 261.352Z" fill="#B55B52"/>
<path d="M117.428 256.952H110.207C109.945 256.952 109.734 257.134 109.691 257.388L108.869 263.097C108.782 263.686 109.291 264.253 109.902 264.238C112.418 264.195 113.632 264.049 116.802 264.049C118.758 264.049 121.609 264.253 124.307 264.253C127.004 264.253 127.15 261.584 126.023 261.344C120.991 260.261 120.191 258.77 118.497 257.345C118.191 257.09 117.806 256.952 117.42 256.952H117.428Z" fill="#263238"/>
<path opacity="0.2" d="M109.988 246.475H116.416L116.671 254.146H110.243L109.988 246.475Z" fill="black"/>
<path d="M119.373 116.707C119.373 116.707 119.395 160.809 117.635 185.663C116.217 205.739 117.744 252.662 117.744 252.662H108.982C108.982 252.662 101.994 207.143 101.893 187.284C101.638 137.038 92.3378 132.952 100.169 116.707H119.373Z" fill="#407BFF"/>
<path d="M118.946 252.837H107.784L107.195 248.918L119.012 248.518L118.946 252.837Z" fill="#263238"/>
<path d="M92.8839 115.173L91.7059 117.507C91.6114 117.689 91.8295 117.871 92.1277 117.871H119.498C119.73 117.871 119.927 117.754 119.941 117.609L120.174 115.275C120.188 115.115 119.985 114.977 119.73 114.977H93.3056C93.1093 114.977 92.9421 115.057 92.8839 115.173Z" fill="white"/>
<path d="M96.43 118.132H95.7247C95.5865 118.132 95.4774 118.06 95.4847 117.972L95.8192 114.94C95.8265 114.853 95.9501 114.78 96.0955 114.78H96.8009C96.939 114.78 97.0481 114.853 97.0408 114.94L96.7063 117.972C96.6991 118.06 96.5754 118.132 96.43 118.132Z" fill="#263238"/>
<path d="M113.594 118.132H112.889C112.751 118.132 112.642 118.06 112.649 117.972L112.983 114.94C112.991 114.853 113.114 114.78 113.26 114.78H113.965C114.103 114.78 114.212 114.853 114.205 114.94L113.87 117.972C113.863 118.06 113.74 118.132 113.594 118.132Z" fill="#263238"/>
</svg>
