<svg width="357" height="265" viewBox="0 0 357 265" fill="none" xmlns="http://www.w3.org/2000/svg">
<path d="M326.232 104.807C319.994 80.9069 309.621 58.6106 298.758 43.3229C272.668 6.57992 211.999 -9.5926 170.087 5.8002C134.369 18.9152 121.867 58.5755 90.67 77.569C61.9695 95.0382 35.9235 109.283 25.8835 142.583C4.68229 212.942 88.5323 269.029 151.19 251.183C170.963 245.549 187.679 233.705 208.784 233.626C251.58 233.477 266.649 239.347 301.272 216.227C335.378 193.449 337.148 146.648 326.232 104.798V104.807Z" fill="#407BFF"/>
<path opacity="0.8" d="M326.232 104.807C319.994 80.9069 309.621 58.6106 298.758 43.3229C272.668 6.57992 211.999 -9.5926 170.087 5.8002C134.369 18.9152 121.867 58.5755 90.67 77.569C61.9695 95.0382 35.9235 109.283 25.8835 142.583C4.68229 212.942 88.5323 269.029 151.19 251.183C170.963 245.549 187.679 233.705 208.784 233.626C251.58 233.477 266.649 239.347 301.272 216.227C335.378 193.449 337.148 146.648 326.232 104.798V104.807Z" fill="white"/>
<path d="M143.462 190.479L144.584 189.962L144.347 188.613L143.103 188.516C142.945 188.096 142.735 187.701 142.481 187.342L143.121 186.265L142.148 185.292L141.062 185.941C140.448 185.52 139.739 185.231 138.977 185.091L138.661 183.847H137.286L136.97 185.099C136.541 185.178 136.129 185.318 135.735 185.494L134.754 184.644L133.633 185.432L134.097 186.65C133.799 186.957 133.527 187.298 133.308 187.675L132.021 187.544L131.547 188.832L132.616 189.559C132.564 189.857 132.537 190.163 132.537 190.47C132.537 190.601 132.537 190.724 132.555 190.855L131.434 191.486L131.793 192.809L133.063 192.791C133.256 193.194 133.484 193.562 133.764 193.904L133.212 195.043L134.263 195.928L135.28 195.201C135.665 195.42 136.077 195.595 136.506 195.718L136.708 196.944L138.074 197.067L138.486 195.902C138.942 195.858 139.388 195.761 139.8 195.612L140.659 196.489L141.85 195.805L141.526 194.623C141.868 194.333 142.174 193.992 142.437 193.624L143.646 193.843L144.224 192.599L143.278 191.819C143.383 191.39 143.445 190.943 143.445 190.487L143.462 190.479ZM141.43 190.452C141.43 192.345 139.897 193.878 138.004 193.878C136.112 193.878 134.579 192.345 134.579 190.452C134.579 188.56 136.112 187.027 138.004 187.027C139.897 187.027 141.43 188.56 141.43 190.452Z" fill="#263238"/>
<path d="M241.536 190.479L242.658 189.962L242.421 188.613L241.177 188.516C241.02 188.096 240.809 187.701 240.555 187.342L241.195 186.265L240.222 185.292L239.136 185.941C238.523 185.52 237.813 185.231 237.051 185.091L236.736 183.847H235.36L235.045 185.099C234.615 185.178 234.204 185.318 233.809 185.494L232.828 184.644L231.707 185.432L232.171 186.65C231.873 186.957 231.602 187.298 231.383 187.675L230.095 187.544L229.622 188.832L230.691 189.559C230.638 189.857 230.612 190.163 230.612 190.47C230.612 190.601 230.612 190.724 230.629 190.855L229.508 191.486L229.867 192.809L231.137 192.791C231.33 193.194 231.558 193.562 231.838 193.904L231.286 195.043L232.338 195.928L233.354 195.201C233.739 195.42 234.151 195.595 234.58 195.718L234.782 196.944L236.149 197.067L236.56 195.902C237.016 195.858 237.463 195.761 237.874 195.612L238.733 196.489L239.924 195.805L239.6 194.623C239.942 194.333 240.249 193.992 240.511 193.624L241.72 193.843L242.299 192.599L241.352 191.819C241.458 191.39 241.519 190.943 241.519 190.487L241.536 190.479ZM239.504 190.452C239.504 192.345 237.971 193.878 236.078 193.878C234.186 193.878 232.653 192.345 232.653 190.452C232.653 188.56 234.186 187.027 236.078 187.027C237.971 187.027 239.504 188.56 239.504 190.452Z" fill="#263238"/>
<path d="M196.269 184.347H187.508V228.799H196.269V184.347Z" fill="#263238" stroke="#263238" stroke-linecap="round" stroke-linejoin="round"/>
<path d="M202.395 199.494H181.387V260.96H202.395V199.494Z" fill="white" stroke="#263238" stroke-linecap="round" stroke-linejoin="round"/>
<path d="M193.46 199.494H190.332V260.96H193.46V199.494Z" fill="white" stroke="#263238" stroke-linecap="round" stroke-linejoin="round"/>
<path d="M323.592 182.551H103.844V190.146H323.592V182.551Z" fill="#407BFF" stroke="#263238" stroke-linecap="round" stroke-linejoin="round"/>
<path d="M131.109 183.006V190.111" stroke="#263238" stroke-linecap="round" stroke-linejoin="round"/>
<path d="M138.414 183.006V190.111" stroke="#263238" stroke-linecap="round" stroke-linejoin="round"/>
<path d="M145.727 183.006V190.111" stroke="#263238" stroke-linecap="round" stroke-linejoin="round"/>
<path d="M153.035 183.006V190.111" stroke="#263238" stroke-linecap="round" stroke-linejoin="round"/>
<path d="M160.34 183.006V190.111" stroke="#263238" stroke-linecap="round" stroke-linejoin="round"/>
<path d="M167.648 183.006V190.111" stroke="#263238" stroke-linecap="round" stroke-linejoin="round"/>
<path d="M174.957 183.006V190.111" stroke="#263238" stroke-linecap="round" stroke-linejoin="round"/>
<path d="M182.27 183.006V190.111" stroke="#263238" stroke-linecap="round" stroke-linejoin="round"/>
<path d="M189.578 183.006V190.111" stroke="#263238" stroke-linecap="round" stroke-linejoin="round"/>
<path d="M196.883 183.006V190.111" stroke="#263238" stroke-linecap="round" stroke-linejoin="round"/>
<path d="M204.191 183.006V190.111" stroke="#263238" stroke-linecap="round" stroke-linejoin="round"/>
<path d="M211.496 183.006V190.111" stroke="#263238" stroke-linecap="round" stroke-linejoin="round"/>
<path d="M218.812 183.006V190.111" stroke="#263238" stroke-linecap="round" stroke-linejoin="round"/>
<path d="M226.117 183.006V190.111" stroke="#263238" stroke-linecap="round" stroke-linejoin="round"/>
<path d="M233.426 183.006V190.111" stroke="#263238" stroke-linecap="round" stroke-linejoin="round"/>
<path d="M240.73 183.006V190.111" stroke="#263238" stroke-linecap="round" stroke-linejoin="round"/>
<path d="M248.039 183.006V190.111" stroke="#263238" stroke-linecap="round" stroke-linejoin="round"/>
<path d="M255.355 183.006V190.111" stroke="#263238" stroke-linecap="round" stroke-linejoin="round"/>
<path d="M262.66 183.006V190.111" stroke="#263238" stroke-linecap="round" stroke-linejoin="round"/>
<path d="M269.969 183.006V190.111" stroke="#263238" stroke-linecap="round" stroke-linejoin="round"/>
<path d="M118.134 125.553H43.8596L9.97266 169.532V260.96H118.134V185.757V125.553Z" fill="white" stroke="#263238" stroke-linecap="round" stroke-linejoin="round"/>
<path d="M121.945 124.151H115.523V197.742H121.945V124.151Z" fill="#263238" stroke="#263238" stroke-linecap="round" stroke-linejoin="round"/>
<path d="M25.653 202.413C27.7094 202.413 29.3764 200.746 29.3764 198.689C29.3764 196.633 27.7094 194.966 25.653 194.966C23.5967 194.966 21.9297 196.633 21.9297 198.689C21.9297 200.746 23.5967 202.413 25.653 202.413Z" fill="#263238" stroke="#263238" stroke-linecap="round" stroke-linejoin="round"/>
<path d="M25.653 221.247C27.7094 221.247 29.3764 219.58 29.3764 217.524C29.3764 215.468 27.7094 213.801 25.653 213.801C23.5967 213.801 21.9297 215.468 21.9297 217.524C21.9297 219.58 23.5967 221.247 25.653 221.247Z" fill="#263238" stroke="#263238" stroke-linecap="round" stroke-linejoin="round"/>
<path d="M37.2617 260.672V183.138H59.1638V125.755" stroke="#263238" stroke-linecap="round" stroke-linejoin="round"/>
<path d="M36.9991 247.093H10.0508" stroke="#263238" stroke-linecap="round" stroke-linejoin="round"/>
<path d="M45.4351 221.686H41.0547V226.066H45.4351V221.686Z" fill="white" stroke="#263238" stroke-linecap="round" stroke-linejoin="round"/>
<path d="M52.1539 221.686H47.7734V226.066H52.1539V221.686Z" fill="white" stroke="#263238" stroke-linecap="round" stroke-linejoin="round"/>
<path d="M58.8765 221.686H54.4961V226.066H58.8765V221.686Z" fill="white" stroke="#263238" stroke-linecap="round" stroke-linejoin="round"/>
<path d="M45.4351 229.859H41.0547V234.24H45.4351V229.859Z" fill="white" stroke="#263238" stroke-linecap="round" stroke-linejoin="round"/>
<path d="M52.1539 229.859H47.7734V234.24H52.1539V229.859Z" fill="white" stroke="#263238" stroke-linecap="round" stroke-linejoin="round"/>
<path d="M58.8765 229.859H54.4961V234.24H58.8765V229.859Z" fill="white" stroke="#263238" stroke-linecap="round" stroke-linejoin="round"/>
<path d="M45.4351 238.042H41.0547V242.422H45.4351V238.042Z" fill="white" stroke="#263238" stroke-linecap="round" stroke-linejoin="round"/>
<path d="M52.1539 238.042H47.7734V242.422H52.1539V238.042Z" fill="white" stroke="#263238" stroke-linecap="round" stroke-linejoin="round"/>
<path d="M58.8765 238.042H54.4961V242.422H58.8765V238.042Z" fill="white" stroke="#263238" stroke-linecap="round" stroke-linejoin="round"/>
<path d="M78.3455 252.13C78.3455 252.13 80.3254 254.705 82.5069 255.897C84.6883 257.088 88.4555 258.472 88.4555 259.462V260.452H71.0039L71.2054 251.727L78.3455 252.121V252.13Z" fill="white" stroke="#263238" stroke-linecap="round" stroke-linejoin="round"/>
<path d="M71.0039 260.461H88.4555V259.471C88.4555 259.181 88.1314 258.866 87.632 258.524H71.0477L71.0039 260.461Z" fill="white" stroke="#263238" stroke-linecap="round" stroke-linejoin="round"/>
<path d="M75.8113 184.89C75.8113 184.89 76.3983 207.379 76.3983 210.008C76.3983 212.636 73.7701 217.892 73.1831 223.149C72.5961 228.405 71.2031 251.736 71.2031 251.736H78.2118C78.2118 251.736 83.1091 227.818 85.7374 217.016C88.3656 206.214 90.1178 179.932 90.1178 179.932H76.6874L75.8113 184.899V184.89Z" fill="#263238" stroke="#263238" stroke-linecap="round" stroke-linejoin="round"/>
<path d="M72.6563 167.64C72.6563 167.64 72.262 177.355 73.4535 180.728C74.645 184.101 76.4322 190.646 76.4322 190.646C76.4322 190.646 78.6136 206.906 78.6136 209.49C78.6136 212.075 76.038 218.812 76.038 224.165C76.038 229.517 78.2194 251.735 78.2194 251.735L85.3595 252.129C85.3595 252.129 89.3282 224.76 91.1154 214.642C92.9026 204.523 93.0953 189.253 92.4996 184.496C91.9039 179.738 92.1053 168.034 92.1053 168.034L72.665 167.64H72.6563Z" fill="#263238" stroke="#263238" stroke-linecap="round" stroke-linejoin="round"/>
<path d="M101.09 162.769L96.2539 156.584L110.762 145.309L118.279 150.81L101.09 162.769Z" fill="#263238" stroke="#263238" stroke-linecap="round" stroke-linejoin="round"/>
<path d="M101.83 161.384L97.5898 155.952L110.328 146.044L116.943 150.88L101.83 161.384Z" fill="white" stroke="#263238" stroke-width="0.5" stroke-linecap="round" stroke-linejoin="round"/>
<path d="M97.7311 151.082C97.7311 151.082 100.955 149.067 102.033 148.935C103.11 148.804 107.543 149.338 107.806 149.873C108.078 150.407 107.806 151.082 107.272 151.082C106.737 151.082 103.11 150.276 103.11 150.276L100.692 152.291C100.692 152.291 105.66 152.159 105.66 152.965C105.66 153.771 104.319 153.903 103.645 153.771C102.97 153.64 100.955 153.64 100.552 153.64C100.149 153.64 98.2655 154.98 96.7936 154.98H94.5071L93.9727 152.965L97.7311 151.082Z" fill="white" stroke="#263238" stroke-linecap="round" stroke-linejoin="round"/>
<path d="M94.5055 154.972L85.9023 157.662L86.3053 152.957H93.9623L94.5055 154.972Z" fill="white" stroke="#263238" stroke-linecap="round" stroke-linejoin="round"/>
<path d="M88.1297 132.535C88.1297 132.535 91.6953 140.271 92.0983 146.219C92.4926 152.168 93.4825 165.66 93.684 166.843C93.8855 168.034 92.0983 169.225 91.5026 169.418C90.9069 169.62 76.2324 170.215 74.4452 169.812C72.658 169.418 70.4766 166.641 70.4766 165.248C70.4766 163.855 72.8595 136.486 73.0522 133.718C73.2537 130.941 79.7543 126.438 79.7543 126.438L88.1209 132.526L88.1297 132.535Z" fill="#407BFF" stroke="#263238" stroke-linecap="round" stroke-linejoin="round"/>
<path d="M78.8516 113.402L81.033 120.288L79.7627 126.456L86.6487 132.256L89.9078 125.002L89.7325 111.589L78.8516 113.402Z" fill="white" stroke="#263238" stroke-linecap="round" stroke-linejoin="round"/>
<path d="M82.8372 117.029L78.6758 119.018L79.5781 121.199L83.5643 119.202L82.8372 117.029Z" fill="white" stroke="#263238" stroke-linecap="round" stroke-linejoin="round"/>
<path d="M96.0761 112.131L96.9785 116.117C96.9785 116.117 98.976 117.563 98.424 118.29C97.8809 119.017 96.7945 119.919 96.7945 119.919C96.7945 119.919 95.5242 125.903 94.6218 126.078C93.7195 126.262 90.4517 126.262 88.4629 125.176C86.4655 124.089 84.2928 120.103 84.2928 120.103L83.9336 113.033L96.0761 112.131Z" fill="white" stroke="#263238" stroke-linecap="round" stroke-linejoin="round"/>
<path d="M89.0312 113.883L89.5919 116.924C89.5919 116.924 95.6632 117.598 97.4679 116.477C99.2639 115.355 98.2564 112.315 97.4679 111.868C96.6795 111.422 89.0312 113.892 89.0312 113.892V113.883Z" fill="white" stroke="#263238" stroke-linecap="round" stroke-linejoin="round"/>
<path d="M78.3085 114.313L102.234 111.956L97.705 109.959L94.9892 102.529C94.9892 102.529 94.262 101.802 92.8165 101.802C91.3709 101.802 85.3873 100.348 81.9443 102.345C78.5013 104.343 77.047 106.875 78.3173 114.304L78.3085 114.313Z" fill="#407BFF" stroke="#263238" stroke-linecap="round" stroke-linejoin="round"/>
<path d="M89.5908 116.923L80.0327 116.467L79.5859 115.118L89.0301 113.883L89.5908 116.923Z" fill="#263238" stroke="#263238" stroke-linecap="round" stroke-linejoin="round"/>
<path d="M84.3822 120.655C82.9279 120.655 81.7539 119.481 81.7539 118.027V116.03C81.7539 114.575 82.9279 113.401 84.3822 113.401C85.8365 113.401 87.0104 114.575 87.0104 116.03V118.027C87.0104 119.481 85.8365 120.655 84.3822 120.655Z" fill="white" stroke="#263238" stroke-linecap="round" stroke-linejoin="round"/>
<path d="M78.4567 123.897L89.2588 130.871L88.4704 134.919L77.4492 127.156L78.4567 123.897Z" fill="white" stroke="#263238" stroke-linecap="round" stroke-linejoin="round"/>
<path d="M77.4128 133.727C77.4128 133.727 75.6256 133.333 74.6356 135.908C73.6456 138.484 72.8484 167.044 73.2514 168.63C73.6456 170.216 75.6343 171.609 77.0185 171.609C78.4027 171.609 101.216 162.489 101.216 162.489L100.62 159.913L81.7757 160.71L83.5629 141.866" fill="#407BFF"/>
<path d="M77.4128 133.727C77.4128 133.727 75.6256 133.333 74.6356 135.908C73.6456 138.484 72.8484 167.044 73.2514 168.63C73.6456 170.216 75.6343 171.609 77.0185 171.609C78.4027 171.609 101.216 162.489 101.216 162.489L100.62 159.913L81.7757 160.71L83.5629 141.866" stroke="#263238" stroke-linecap="round" stroke-linejoin="round"/>
<path d="M100.621 159.905C100.621 159.905 103.766 157.39 104.169 156.453C104.572 155.516 107.262 155.113 107.665 154.972C108.068 154.841 108.602 154.035 109.005 154.438C109.408 154.841 109.005 155.778 108.602 155.919C108.199 156.05 106.053 157.259 106.053 157.259L111.02 156.856C111.02 156.856 111.555 157.259 111.292 157.934C111.02 158.608 109.811 159.143 109.811 159.143C109.811 159.143 108.734 160.08 107.665 160.886C106.587 161.692 101.217 162.489 101.217 162.489L100.621 159.914V159.905Z" fill="white" stroke="#263238" stroke-linecap="round" stroke-linejoin="round"/>
<path d="M85.3533 252.13C85.3533 252.13 87.3333 254.705 89.5147 255.897C91.6962 257.088 95.4633 258.472 95.4633 259.462V260.452H78.0117L78.2132 251.727L85.3533 252.121V252.13Z" fill="white" stroke="#263238" stroke-linecap="round" stroke-linejoin="round"/>
<path d="M78.0117 260.461H95.4633V259.471C95.4633 259.181 95.1392 258.866 94.6398 258.524H78.0555L78.0117 260.461Z" fill="white" stroke="#263238" stroke-linecap="round" stroke-linejoin="round"/>
<path d="M236.104 160.341H209.629V182.576H236.104V160.341Z" fill="white" stroke="#263238" stroke-linecap="round" stroke-linejoin="round"/>
<path d="M240.185 160.341H220.832V182.576H240.185V160.341Z" fill="#263238" stroke="#263238" stroke-linecap="round" stroke-linejoin="round"/>
<path d="M280.329 156.715H314.759C321.163 156.715 326.367 161.919 326.367 168.323V212.784H275.992V161.051C275.992 158.66 277.937 156.715 280.329 156.715Z" fill="white" stroke="#263238" stroke-linecap="round" stroke-linejoin="round"/>
<path d="M272.269 200.957H330.091C333.358 200.957 336.004 203.603 336.004 206.871V217.603H266.355V206.871C266.355 203.603 269.001 200.957 272.269 200.957Z" fill="#407BFF" stroke="#263238" stroke-linecap="round" stroke-linejoin="round"/>
<path d="M258.688 216.289H343.668C345.727 216.289 347.392 217.954 347.392 220.012V260.961H254.965V220.012C254.965 217.954 256.629 216.289 258.688 216.289Z" fill="#263238" stroke="#263238" stroke-linecap="round" stroke-linejoin="round"/>
<path d="M295.809 200.589V189.91H315.547V156.715" stroke="#263238" stroke-linecap="round" stroke-linejoin="round"/>
<path d="M315.543 176.321H325.898" stroke="#263238" stroke-linecap="round" stroke-linejoin="round"/>
<path d="M303.736 119.313H264.023V126.909H303.736V119.313Z" fill="white" stroke="#263238" stroke-linecap="round" stroke-linejoin="round"/>
<path d="M276.691 126.707V119.217" stroke="#263238" stroke-linecap="round" stroke-linejoin="round"/>
<path d="M279.344 126.707V119.217" stroke="#263238" stroke-linecap="round" stroke-linejoin="round"/>
<path d="M282 126.707V119.217" stroke="#263238" stroke-linecap="round" stroke-linejoin="round"/>
<path d="M284.645 126.707V119.217" stroke="#263238" stroke-linecap="round" stroke-linejoin="round"/>
<path d="M287.301 126.707V119.217" stroke="#263238" stroke-linecap="round" stroke-linejoin="round"/>
<path d="M289.957 126.707V119.217" stroke="#263238" stroke-linecap="round" stroke-linejoin="round"/>
<path d="M292.609 126.707V119.217" stroke="#263238" stroke-linecap="round" stroke-linejoin="round"/>
<path d="M311.037 125.245L299.209 167.98C297.764 172.177 293.191 174.402 289.003 172.956C284.807 171.511 282.581 166.938 284.027 162.75L295.854 120.015C297.3 115.818 301.873 113.593 306.06 115.039C310.257 116.484 312.482 121.057 311.037 125.245Z" fill="#407BFF" stroke="#263238" stroke-linecap="round" stroke-linejoin="round"/>
<path d="M241.102 159.483L251.851 153.157L242.74 147.121L241.102 159.483Z" fill="#263238" stroke="#263238" stroke-linecap="round" stroke-linejoin="round"/>
<path d="M269.433 122.259L264.32 118.872L248.06 143.42L253.173 146.807L269.433 122.259Z" fill="white" stroke="#263238" stroke-linecap="round" stroke-linejoin="round"/>
<path d="M254.004 128.154L264.93 135.392L253.464 152.702C252.995 153.411 252.036 153.605 251.327 153.136L242.972 147.601C242.263 147.132 242.069 146.173 242.538 145.464L254.004 128.154Z" fill="#407BFF" stroke="#263238" stroke-linecap="round" stroke-linejoin="round"/>
<path d="M265.776 130.554C270.372 130.554 274.099 126.828 274.099 122.231C274.099 117.634 270.372 113.908 265.776 113.908C261.179 113.908 257.453 117.634 257.453 122.231C257.453 126.828 261.179 130.554 265.776 130.554Z" fill="white" stroke="#263238" stroke-linecap="round" stroke-linejoin="round"/>
<path d="M265.774 126.173C267.952 126.173 269.717 124.408 269.717 122.23C269.717 120.053 267.952 118.288 265.774 118.288C263.597 118.288 261.832 120.053 261.832 122.23C261.832 124.408 263.597 126.173 265.774 126.173Z" fill="#263238" stroke="#263238" stroke-linecap="round" stroke-linejoin="round"/>
<path d="M303.741 130.554C308.337 130.554 312.064 126.828 312.064 122.231C312.064 117.634 308.337 113.908 303.741 113.908C299.144 113.908 295.418 117.634 295.418 122.231C295.418 126.828 299.144 130.554 303.741 130.554Z" fill="white" stroke="#263238" stroke-linecap="round" stroke-linejoin="round"/>
<path d="M303.739 126.174C305.917 126.174 307.682 124.409 307.682 122.231C307.682 120.054 305.917 118.289 303.739 118.289C301.562 118.289 299.797 120.054 299.797 122.231C299.797 124.409 301.562 126.174 303.739 126.174Z" fill="#263238" stroke="#263238" stroke-linecap="round" stroke-linejoin="round"/>
<path d="M291.682 173.684C296.279 173.684 300.005 169.957 300.005 165.361C300.005 160.764 296.279 157.038 291.682 157.038C287.086 157.038 283.359 160.764 283.359 165.361C283.359 169.957 287.086 173.684 291.682 173.684Z" fill="white" stroke="#263238" stroke-linecap="round" stroke-linejoin="round"/>
<path d="M291.681 169.303C293.858 169.303 295.623 167.538 295.623 165.36C295.623 163.183 293.858 161.418 291.681 161.418C289.503 161.418 287.738 163.183 287.738 165.36C287.738 167.538 289.503 169.303 291.681 169.303Z" fill="#263238" stroke="#263238" stroke-linecap="round" stroke-linejoin="round"/>
<path d="M238.18 151.983L239.485 156.136" stroke="#263238" stroke-linecap="round" stroke-linejoin="round"/>
<path d="M233.512 155.102L237.147 157.695" stroke="#263238" stroke-linecap="round" stroke-linejoin="round"/>
<path d="M244.672 160.298L249.087 160.552" stroke="#263238" stroke-linecap="round" stroke-linejoin="round"/>
<path d="M242.34 162.11L244.933 167.306" stroke="#263238" stroke-linecap="round" stroke-linejoin="round"/>
<path d="M246.23 163.153L248.053 164.187" stroke="#263238" stroke-linecap="round" stroke-linejoin="round"/>
<path d="M215.457 9.68202V60.1095H211.418V9.49805" stroke="#263238" stroke-linecap="round" stroke-linejoin="round"/>
<path d="M196.488 122.837V138.326" stroke="#263238" stroke-width="4" stroke-linecap="round" stroke-linejoin="round"/>
<path d="M213.431 112.097L196.926 122.443" stroke="#263238" stroke-width="4" stroke-linecap="round" stroke-linejoin="round"/>
<path d="M199.809 122.837C199.809 121.006 198.319 119.517 196.488 119.517C194.657 119.517 193.168 121.006 193.168 122.837C193.168 124.668 194.657 126.157 196.488 126.157C198.319 126.157 199.809 124.668 199.809 122.837Z" fill="white" stroke="#263238" stroke-linecap="round" stroke-linejoin="round"/>
<path d="M198.064 122.837C198.064 121.969 197.363 121.26 196.487 121.26C195.611 121.26 194.91 121.961 194.91 122.837C194.91 123.713 195.611 124.414 196.487 124.414C197.363 124.414 198.064 123.713 198.064 122.837Z" fill="white" stroke="#263238" stroke-linecap="round" stroke-linejoin="round"/>
<path d="M230.27 122.837V138.326" stroke="#263238" stroke-width="4" stroke-linecap="round" stroke-linejoin="round"/>
<path d="M213.328 112.097L229.842 122.443" stroke="#263238" stroke-width="4" stroke-linecap="round" stroke-linejoin="round"/>
<path d="M226.953 122.837C226.953 121.006 228.442 119.517 230.273 119.517C232.105 119.517 233.594 121.006 233.594 122.837C233.594 124.668 232.105 126.157 230.273 126.157C228.442 126.157 226.953 124.668 226.953 122.837Z" fill="white" stroke="#263238" stroke-linecap="round" stroke-linejoin="round"/>
<path d="M228.707 122.837C228.707 121.969 229.408 121.26 230.284 121.26C231.16 121.26 231.861 121.961 231.861 122.837C231.861 123.713 231.16 124.414 230.284 124.414C229.408 124.414 228.707 123.713 228.707 122.837Z" fill="white" stroke="#263238" stroke-linecap="round" stroke-linejoin="round"/>
<path d="M217.317 51.542H209.555V102.889H217.317V51.542Z" fill="#263238" stroke="#263238" stroke-linecap="round" stroke-linejoin="round"/>
<path d="M213.433 120.962C208.536 120.962 204.559 116.994 204.559 112.087V77.0967H222.299V112.087C222.299 116.985 218.331 120.962 213.425 120.962H213.433Z" fill="#407BFF" stroke="#263238" stroke-linecap="round" stroke-linejoin="round"/>
<path d="M224.256 75.6592H202.617V81.0821H224.256V75.6592Z" fill="white" stroke="#263238" stroke-linecap="round" stroke-linejoin="round"/>
<path d="M213.436 119.123C217.317 119.123 220.463 115.977 220.463 112.097C220.463 108.216 217.317 105.07 213.436 105.07C209.556 105.07 206.41 108.216 206.41 112.097C206.41 115.977 209.556 119.123 213.436 119.123Z" fill="white" stroke="#263238" stroke-linecap="round" stroke-linejoin="round"/>
<path d="M213.435 115.426C215.273 115.426 216.764 113.935 216.764 112.097C216.764 110.258 215.273 108.768 213.435 108.768C211.596 108.768 210.105 110.258 210.105 112.097C210.105 113.935 211.596 115.426 213.435 115.426Z" fill="#263238" stroke="#263238" stroke-linecap="round" stroke-linejoin="round"/>
<path d="M210.001 85.4111H206.199V101.347H210.001V85.4111Z" fill="#263238" stroke="#263238" stroke-linecap="round" stroke-linejoin="round"/>
<path d="M220.705 85.4111H216.902V101.347H220.705V85.4111Z" fill="#263238" stroke="#263238" stroke-linecap="round" stroke-linejoin="round"/>
<path d="M162.604 135.811H136.129V158.046H162.604V135.811Z" fill="white" stroke="#263238" stroke-linecap="round" stroke-linejoin="round"/>
<path d="M166.685 135.811H147.332V158.046H166.685V135.811Z" fill="#263238" stroke="#263238" stroke-linecap="round" stroke-linejoin="round"/>
<path d="M153.468 9.68202V60.1095H149.43V9.49805" stroke="#263238" stroke-linecap="round" stroke-linejoin="round"/>
<path d="M134.5 122.837V138.326" stroke="#263238" stroke-width="4" stroke-linecap="round" stroke-linejoin="round"/>
<path d="M151.452 112.097L134.938 122.443" stroke="#263238" stroke-width="4" stroke-linecap="round" stroke-linejoin="round"/>
<path d="M137.828 122.837C137.828 121.006 136.339 119.517 134.508 119.517C132.677 119.517 131.188 121.006 131.188 122.837C131.188 124.668 132.677 126.157 134.508 126.157C136.339 126.157 137.828 124.668 137.828 122.837Z" fill="white" stroke="#263238" stroke-linecap="round" stroke-linejoin="round"/>
<path d="M136.076 122.837C136.076 121.969 135.375 121.26 134.499 121.26C133.623 121.26 132.922 121.961 132.922 122.837C132.922 123.713 133.623 124.414 134.499 124.414C135.375 124.414 136.076 123.713 136.076 122.837Z" fill="white" stroke="#263238" stroke-linecap="round" stroke-linejoin="round"/>
<path d="M168.289 122.837V138.326" stroke="#263238" stroke-width="4" stroke-linecap="round" stroke-linejoin="round"/>
<path d="M151.348 112.097L167.853 122.443" stroke="#263238" stroke-width="4" stroke-linecap="round" stroke-linejoin="round"/>
<path d="M164.969 122.837C164.969 121.006 166.458 119.517 168.289 119.517C170.12 119.517 171.609 121.006 171.609 122.837C171.609 124.668 170.12 126.157 168.289 126.157C166.458 126.157 164.969 124.668 164.969 122.837Z" fill="white" stroke="#263238" stroke-linecap="round" stroke-linejoin="round"/>
<path d="M166.711 122.837C166.711 121.969 167.412 121.26 168.288 121.26C169.164 121.26 169.865 121.961 169.865 122.837C169.865 123.713 169.164 124.414 168.288 124.414C167.412 124.414 166.711 123.713 166.711 122.837Z" fill="white" stroke="#263238" stroke-linecap="round" stroke-linejoin="round"/>
<path d="M155.332 51.542H147.57V102.889H155.332V51.542Z" fill="#263238" stroke="#263238" stroke-linecap="round" stroke-linejoin="round"/>
<path d="M151.453 120.962C146.556 120.962 142.578 116.994 142.578 112.087V77.0967H160.319V112.087C160.319 116.985 156.35 120.962 151.444 120.962H151.453Z" fill="#407BFF" stroke="#263238" stroke-linecap="round" stroke-linejoin="round"/>
<path d="M162.272 75.6592H140.633V81.0821H162.272V75.6592Z" fill="white" stroke="#263238" stroke-linecap="round" stroke-linejoin="round"/>
<path d="M151.448 119.123C155.329 119.123 158.474 115.977 158.474 112.097C158.474 108.216 155.329 105.07 151.448 105.07C147.568 105.07 144.422 108.216 144.422 112.097C144.422 115.977 147.568 119.123 151.448 119.123Z" fill="white" stroke="#263238" stroke-linecap="round" stroke-linejoin="round"/>
<path d="M151.446 115.426C153.285 115.426 154.775 113.935 154.775 112.097C154.775 110.258 153.285 108.768 151.446 108.768C149.608 108.768 148.117 110.258 148.117 112.097C148.117 113.935 149.608 115.426 151.446 115.426Z" fill="#263238" stroke="#263238" stroke-linecap="round" stroke-linejoin="round"/>
<path d="M148.017 85.4111H144.215V101.347H148.017V85.4111Z" fill="#263238" stroke="#263238" stroke-linecap="round" stroke-linejoin="round"/>
<path d="M158.724 85.4111H154.922V101.347H158.724V85.4111Z" fill="#263238" stroke="#263238" stroke-linecap="round" stroke-linejoin="round"/>
<path d="M355.805 260.461H1V264H355.805V260.461Z" fill="#263238" stroke="#263238" stroke-linecap="round" stroke-linejoin="round"/>
</svg>
