<svg width="407" height="183" viewBox="0 0 407 183" fill="none" xmlns="http://www.w3.org/2000/svg">
<path d="M14.8959 182.346C14.8959 182.346 -18.9185 112.944 20.8847 79.822C43.0941 61.3405 69.7052 74.3859 92.225 24.7801C105.331 -4.08729 151.193 -12.8497 174.126 26.5623C197.061 65.9742 215.778 87.7272 231.603 80.4368C249.75 72.0756 260.517 31.7213 288.923 37.0419C321.754 43.1923 319.273 93.4865 343.466 86.9941C390.118 74.474 424.295 145.365 392.046 182.198L14.8959 182.346Z" fill="#E9F3FE"/>
<path d="M276.252 113.611L276.137 150.173L317.391 150.302L317.506 113.741L276.252 113.611Z" fill="#D3671E"/>
<path d="M329.868 113.797L296.841 113.67L296.75 150.23L329.777 150.357L329.868 113.797Z" fill="#F1A34F"/>
<path opacity="0.4" d="M296.747 113.662L329.86 113.791L329.831 125.415L296.656 150.224L296.747 113.662Z" fill="#D86713"/>
<path d="M251.058 126.724L250.984 150.217L277.493 150.3L277.567 126.807L251.058 126.724Z" fill="#D3671E"/>
<path d="M285.502 126.84L264.28 126.759L264.223 150.252L285.444 150.333L285.502 126.84Z" fill="#F1A34F"/>
<path opacity="0.4" d="M264.28 126.759L285.557 126.841L285.538 134.31L264.223 150.252L264.28 126.759Z" fill="#D86713"/>
<path d="M107.043 151.135H217.226V182.015H101.922V156.252C101.922 153.428 104.217 151.135 107.043 151.135Z" fill="#77A7ED"/>
<path d="M215.116 148.086H112.684V153.851H215.116V148.086Z" fill="#4A75CB"/>
<path d="M128.678 22.8252H165.143V182.016H111.059V40.4337C111.059 30.716 118.954 22.8266 128.678 22.8266V22.8252Z" fill="#407BFF"/>
<path d="M226.139 67.625H189.637V159.585H246.927V88.3967C246.927 76.9242 237.62 67.625 226.14 67.625H226.139Z" fill="#AFCDFB"/>
<path d="M196.21 29.6096V182.016H146.168V43.5974C146.168 32.1249 154.296 22.8271 164.324 22.8271H189.423C193.172 22.8271 196.21 25.8634 196.21 29.6096Z" fill="#AFCDFB"/>
<path d="M189.633 101.01H224.486C226.343 101.01 227.852 102.516 227.852 104.374V159.586H189.634V101.01H189.633Z" fill="#739AF0"/>
<path d="M188.53 101.01C186.672 101.01 185.164 102.515 185.164 104.374V159.586H223.382V101.01H188.529H188.53Z" fill="#739AF0"/>
<path opacity="0.5" d="M224.694 100.992H221.395V159.587H227.854V104.15C227.854 102.406 226.44 100.992 224.694 100.992Z" fill="#4A75CB"/>
<path d="M314.471 151.135H159.07V182.015H314.471V151.135Z" fill="#407BFF"/>
<path d="M360.152 151.135H314.473V182.015H360.152V151.135Z" fill="#AFCDFB"/>
<path d="M185.964 68.0889H146.168V182.016H159.073V89.8736L185.964 68.0889Z" fill="#77A7ED"/>
<path d="M312.361 148.086H159.07V153.851H312.361V148.086Z" fill="#4A75CB"/>
<path d="M312.36 153.85H358.84V148.085H312.36V153.85Z" fill="#81ACEA"/>
<path d="M185.167 104.373C185.167 102.516 186.673 101.009 188.533 101.009H216.363V67.625H179.861C168.38 67.625 159.074 76.9256 159.074 88.3967V148.085H185.17V104.373H185.167Z" fill="#AFCDFB"/>
<path d="M122.191 48.2764H137.866C138.786 48.2764 139.534 49.0224 139.534 49.9431V79.001C139.534 79.9202 138.787 80.6677 137.866 80.6677H122.191C121.271 80.6677 120.523 79.9217 120.523 79.001V49.9431C120.523 49.0239 121.27 48.2764 122.191 48.2764Z" fill="#739AF0"/>
<path d="M118.805 48.2764H134.479C135.399 48.2764 136.147 49.0224 136.147 49.9431V79.001C136.147 79.9202 135.401 80.6677 134.479 80.6677H118.805C117.885 80.6677 117.137 79.9217 117.137 79.001V49.9431C117.137 49.0239 117.883 48.2764 118.805 48.2764Z" fill="#4A75CB"/>
<path d="M143.336 103.644V113.197C143.336 114.117 142.589 114.864 141.668 114.864H118.702C117.782 114.864 117.034 114.118 117.034 113.197V103.644C117.034 102.725 117.781 101.978 118.702 101.978H141.668C142.588 101.978 143.336 102.724 143.336 103.644Z" fill="#739AF0"/>
<path d="M140.151 103.644V113.197C140.151 114.117 139.404 114.864 138.483 114.864H115.518C114.598 114.864 113.85 114.118 113.85 113.197V103.644C113.85 102.725 114.597 101.978 115.518 101.978H138.484C139.404 101.978 140.152 102.724 140.152 103.644H140.151Z" fill="#4A75CB"/>
<path d="M122.358 58.8008C122.927 58.8008 123.387 59.2611 123.387 59.8297V69.2357C123.387 69.8043 122.927 70.2646 122.358 70.2646C121.789 70.2646 121.328 69.8043 121.328 69.2357V59.8297C121.328 59.2611 121.789 58.8008 122.358 58.8008Z" fill="#2B478B"/>
<path d="M121.718 53.1842L120.129 53.7959L123.329 62.095L124.917 61.4833L121.718 53.1842Z" fill="#407BFF"/>
<path d="M130.6 58.8008C131.169 58.8008 131.63 59.2611 131.63 59.8297V69.2357C131.63 69.8043 131.169 70.2646 130.6 70.2646C130.031 70.2646 129.57 69.8043 129.57 69.2357V59.8297C129.57 59.2611 130.031 58.8008 130.6 58.8008Z" fill="#2B478B"/>
<path d="M118.463 46.0882L117.784 46.3494C117.038 46.6365 116.665 47.475 116.953 48.2225L118.928 53.3454C119.215 54.0915 120.055 54.4638 120.803 54.1766L121.481 53.9154C122.228 53.6283 122.601 52.7898 122.313 52.0423L120.338 46.9194C120.05 46.1733 119.211 45.801 118.463 46.0882Z" fill="#C65447"/>
<path d="M120.575 65.0093L121.891 68.3385C122.03 68.6892 122.424 68.8623 122.776 68.7267C123.133 68.5896 123.308 68.1884 123.168 67.8349L122.038 64.9862C121.794 64.3556 122.109 63.6456 122.741 63.4032L126.246 62.0539C126.877 61.81 127.588 62.1246 127.831 62.7567L129.974 68.2837C130.109 68.6372 130.508 68.8133 130.862 68.6776C131.216 68.542 131.392 68.1437 131.256 67.7901L128.931 61.7912C128.466 60.5848 127.11 59.9845 125.904 60.4492L121.918 61.9846C120.711 62.4493 120.11 63.8043 120.575 65.0093Z" fill="#407BFF"/>
<path d="M62.1562 102.028C62.1562 102.028 62.614 106.471 63.1152 107.311C63.6163 108.151 65.7536 110.836 66.6634 111.364C67.5732 111.891 66.1074 107.826 66.2937 107.035C66.48 106.244 67.0432 108.478 67.4447 108.532C67.8461 108.583 67.7422 106.572 67.7566 105.84C67.771 105.109 65.8041 103.302 65.111 101.742C64.4178 100.183 62.1562 102.028 62.1562 102.028Z" fill="#FFB27D"/>
<path d="M115.418 53.165L116.069 51.0841C116.069 51.0841 114.941 47.8011 118.776 44.8788C118.776 44.8788 120.205 43.961 121.313 45.0592C122.334 46.0708 119.958 46.2959 120.454 48.2585C120.949 50.2211 120.224 51.5632 119.031 52.455L118.181 53.9139L115.419 53.165H115.418Z" fill="#FFB27D"/>
<path d="M115.398 53.1728L116.05 51.0933C116.05 51.0933 114.922 47.8146 118.753 44.8938C118.753 44.8938 120.181 43.9775 121.288 45.0742C122.307 46.0844 119.934 46.3095 120.43 48.2706C120.925 50.2318 120.2 51.5724 119.009 52.4628L118.158 53.9203L115.4 53.1728H115.398Z" fill="#FFB27D"/>
<path d="M74.5718 56.088C74.5718 56.088 81.5325 73.2362 102.618 75.3344C109.201 75.9895 119.552 52.8079 119.552 52.8079C119.552 52.8079 118.7 51.0069 115.657 52.0243C115.657 52.0243 103.551 63.7335 101.997 65.0496C100.618 66.217 88.1972 55.9062 83.2048 54.7994C78.2124 53.6925 74.5703 56.088 74.5703 56.088H74.5718Z" fill="#82B378"/>
<path d="M74.5977 56.0921C74.5977 56.0921 81.5512 73.2243 102.617 75.3197C109.193 75.9748 119.535 52.8149 119.535 52.8149C119.535 52.8149 118.684 51.0168 115.644 52.0327C115.644 52.0327 103.55 63.7303 101.999 65.045C100.621 66.2124 88.2115 55.9103 83.2235 54.8049C78.2354 53.6995 74.5977 56.0921 74.5977 56.0921Z" fill="#82B378"/>
<path d="M51.8104 170.431C51.8104 170.431 49.2861 172.733 49.7785 174.368C50.271 176.003 52.5484 177.094 52.856 179.092C53.1636 181.091 54.3955 182.182 55.5031 182.182H60.7857C60.7857 182.182 61.6017 180.775 59.6319 180.352C57.6621 179.928 56.9198 177.58 57.0426 175.399C57.1653 173.219 56.8577 170.311 56.8577 170.311L52.6711 169.343L51.809 170.432L51.8104 170.431Z" fill="#233862"/>
<path d="M82.7715 176.384C82.7715 176.384 82.318 181.622 83.4271 182.168L97.6071 182.139C97.6071 182.139 97.6071 180.504 95.3297 180.14C93.0523 179.777 89.0506 178.445 88.3733 175.476C87.696 172.508 82.7715 176.385 82.7715 176.385V176.384Z" fill="#233862"/>
<path d="M94.7457 102.39C94.7457 102.39 93.9977 111.572 93.1182 122.609C91.9239 137.601 90.487 156.018 90.344 159.507C90.0985 165.565 89.1122 175.255 89.1122 175.255C89.1122 175.255 86.7741 177.557 82.0937 176.587C82.0937 176.587 77.9244 162.754 76.733 148.117C76.7143 147.877 76.6955 147.635 76.6782 147.394C75.5705 132.494 73.8477 101.117 73.8477 101.117L94.7457 102.389V102.39Z" fill="#2B478B"/>
<path d="M94.7457 102.39C94.7457 102.39 93.9977 111.572 93.1182 122.609L76.733 148.117C76.7143 147.877 76.6955 147.635 76.6782 147.394C75.5705 132.494 73.8477 101.117 73.8477 101.117L94.7457 102.389V102.39Z" fill="#233862"/>
<path d="M91.3288 103.481C91.3288 103.481 77.8478 136.734 68.9837 152.361C60.1196 167.988 57.3483 172.349 57.3483 172.349C57.3483 172.349 52.2693 170.35 51.8086 168.987C51.8086 168.987 55.198 138.818 61.1348 131.464C64.4895 127.308 68.4291 114.838 68.614 110.475C68.7988 106.113 69.8141 97.4834 69.8141 97.4834L91.3288 103.479V103.481Z" fill="#2B478B"/>
<path d="M73.5938 52.2343C73.5938 52.2343 82.7149 56.6328 87.9745 55.0007C87.9745 55.0007 86.6805 53.3686 84.4147 52.1549C84.5966 51.1001 84.7381 50.1851 84.819 49.4088C85.0414 47.6179 85.0414 46.6034 85.0414 46.6034L81.5221 43.837L78.1847 41.1904C78.4475 48.6338 73.5938 52.2358 73.5938 52.2358V52.2343Z" fill="#FFB27D"/>
<path d="M68.7854 99.1867C68.7652 99.7438 69.958 100.38 70.4837 100.62C74.3872 102.331 78.0279 103.525 82.1538 103.923C87.0277 104.421 92.7927 103.325 94.7741 103.366C94.9763 103.366 95.1582 103.287 95.32 103.147C95.4615 103.047 95.5626 97.1765 95.4615 89.7937C95.4615 89.495 95.4615 89.1963 95.4413 88.8976V88.798C95.4008 85.9118 95.2997 82.8871 95.1582 79.8625C94.8752 73.2156 94.3495 66.8069 93.4599 63.2656C92.3884 59.0864 89.9608 56.3201 87.757 54.3098L85.936 52.7181C84.1164 53.076 82.1942 52.9764 80.2735 52.0413C78.1709 51.0254 75.905 49.9315 75.5411 50.2101C72.79 52.2203 70.93 56.7371 69.9393 62.5094C69.3732 65.8328 69.0901 69.5545 69.1103 73.4552C69.1103 74.8882 69.1508 76.3601 69.2317 77.8133C69.7169 85.6939 69.2316 92.5399 68.9486 96.4997C68.8677 97.6542 68.8071 98.5503 68.7869 99.1867H68.7854Z" fill="#A8D29F"/>
<path d="M68.9492 98.8249C100.891 98.7614 74.8398 64.1895 74.8398 64.1895L69.6655 62.5098C69.2568 66.0597 69.0518 70.0369 69.0662 74.203C69.0662 75.7341 69.0951 77.3071 69.1543 78.8599C69.5052 87.2788 69.1543 94.5937 68.9492 98.8249Z" fill="#82B378"/>
<path d="M78.125 44.0351C78.125 44.0351 80.4313 48.2344 84.82 49.4077C85.0424 47.6168 85.0424 46.6023 85.0424 46.6023L81.5231 43.8359L78.125 44.0351Z" fill="#ED985F"/>
<path d="M86.6465 46.4811C86.6465 46.4811 77.9442 47.904 77.1282 42.5574C76.3108 37.2122 74.6385 33.795 80.1595 32.6608C85.6804 31.5265 87.074 33.4054 87.7888 35.1256C88.5022 36.8443 88.8893 45.9732 86.648 46.4811H86.6465Z" fill="#FFB27D"/>
<path d="M73.968 32.0218C73.8885 31.9308 73.7066 31.8587 73.3008 31.8356C73.3008 31.8356 73.6243 31.6336 74.0575 31.622C74.1427 31.0592 74.4416 30.0621 75.4121 29.8196C75.4121 29.8196 74.8908 30.0981 74.8229 30.697C75.9464 29.544 78.3553 28.7041 85.0243 29.2294C93.8133 29.9221 90.9163 35.5458 89.7784 36.2153C88.6404 36.8849 85.7767 35.0479 83.6567 35.2167C81.5367 35.3856 81.1338 38.4463 80.4146 38.8663C79.6954 39.2862 79.9785 38.543 79.0051 38.1043C78.0318 37.6642 77.9393 39.2761 78.221 40.3238C78.5026 41.3715 77.1653 42.7539 77.1653 42.7539L75.8136 41.2993C74.4619 39.8447 73.1896 33.6871 73.8033 32.3739C73.8582 32.2584 73.9116 32.1401 73.9665 32.0218H73.968Z" fill="#2C3A64"/>
<path d="M75.5444 50.167C75.5444 50.167 70.0393 52.7718 67.3995 56.7777C63.3053 62.9902 58.5585 85.6321 58.4704 87.7289C58.3823 89.8257 61.9348 104.627 61.9348 104.627C61.9348 104.627 65.538 104.391 66.4665 102.574C66.4665 102.574 65.7474 87.3652 66.2023 86.3868C66.6586 85.4084 81.2213 65.986 79.5836 61.8401C77.946 57.6955 75.5444 50.167 75.5444 50.167Z" fill="#A8D29F"/>
<path d="M116.069 50.9906C116.069 50.9906 115.558 49.8838 116.267 49.2113C116.976 48.5388 117.452 46.9803 117.829 47.1102C118.608 47.3772 117.75 48.8202 118.237 50.3283C118.407 50.8564 117.41 52.5102 116.069 50.9906Z" fill="#FFB27D"/>
<path d="M116.049 51.0003C116.049 51.0003 115.538 49.8949 116.247 49.2224C116.956 48.5499 117.433 46.9943 117.808 47.1227C118.587 47.3897 117.729 48.8299 118.216 50.3379C118.386 50.8661 117.391 52.517 116.049 51.0003Z" fill="#FFB27D"/>
<path d="M406.13 182.818H0.392805C0.176185 182.818 0 182.606 0 182.347C0 182.088 0.177629 181.877 0.392805 181.877H406.13C406.347 181.877 406.524 182.089 406.524 182.347C406.524 182.606 406.347 182.818 406.13 182.818Z" fill="#2E3552"/>
<path d="M364.689 175.557C364.689 175.557 364.299 181.84 363.083 181.931C362.922 181.942 356.913 181.942 356.913 181.942H349.156C349.156 181.942 349.293 180.052 351.535 179.661C353.776 179.27 357.529 177.695 358.887 174.736C360.315 171.62 364.688 175.558 364.688 175.558L364.689 175.557Z" fill="#163560"/>
<path d="M365.13 175.991C365.13 175.991 362.798 176.77 360.978 176.77C358.947 176.77 357.102 176.218 357.102 176.218C357.102 176.218 356.663 171.975 354.247 162.628C352.98 157.729 351.172 151.43 348.599 143.603C341.485 121.971 339.32 109.317 339.124 108.117C339.114 108.054 339.109 108.024 339.109 108.024L339.133 108.013L361.005 98.417C361.005 98.417 358.302 128.231 361.751 139.675C362.234 141.274 362.647 143.138 363.003 145.157C365.18 157.586 365.13 175.991 365.13 175.991Z" fill="#A8D29F"/>
<path d="M363.002 145.158L354.248 162.63C352.981 157.73 351.173 151.431 348.6 143.604C341.486 121.972 339.321 109.318 339.125 108.119C339.126 108.083 339.129 108.05 339.134 108.013L361.007 98.417C361.007 98.417 358.303 128.231 361.752 139.675C362.235 141.274 362.649 143.138 363.004 145.157L363.002 145.158Z" fill="#82B378"/>
<path d="M347.606 175.557C347.606 175.557 347.216 181.84 346 181.931C345.838 181.942 332.008 182.182 332.008 182.182C332.008 182.182 332.21 180.052 334.451 179.661C336.694 179.27 340.446 177.695 341.803 174.736C343.232 171.62 347.604 175.558 347.604 175.558L347.606 175.557Z" fill="#163560"/>
<path d="M335.205 99.1206C335.205 99.1206 334.921 118.441 338.267 142.16C341.611 165.882 340.478 175.95 340.478 175.95C340.478 175.95 342.775 176.695 343.704 176.77C346.067 176.962 348.49 176.216 348.49 176.216C348.49 176.216 353.277 152.486 351.905 140.613C350.532 128.741 358.462 99.8724 358.462 99.8724L335.207 99.1191L335.205 99.1206Z" fill="#A8D29F"/>
<path d="M352.666 53.1523C352.666 53.1523 363.962 64.6133 364.51 69.0695C365.061 73.5272 359.059 80.4987 359.059 80.4987L352.664 53.1523H352.666Z" fill="#163560"/>
<path d="M350.712 53.9107L346.443 56.7073L340.273 55.5586C340.359 55.0608 340.766 52.9986 341.137 51.1298C341.159 51.0202 341.182 50.909 341.203 50.8023C341.521 49.2134 341.796 47.8468 341.796 47.8468L347.558 45.307L349.707 44.3604C349.701 44.3935 349.54 46.1238 349.517 46.3778C349.114 50.8643 350.713 53.9121 350.713 53.9121L350.712 53.9107Z" fill="#FFB27D"/>
<path d="M340.86 52.539C340.98 52.4885 349.285 50.2936 350.079 50.5548C350.874 50.8174 351.343 52.3514 351.343 52.3514L339.387 55.0529C339.387 55.0529 339.332 53.1812 340.86 52.539Z" fill="#163560"/>
<path d="M361.538 101.506C360.299 107.154 339.68 107.824 334.366 102.697C333.76 102.112 333.732 99.3933 333.96 95.7279C334.406 88.5659 335.837 77.7933 335.893 72.2894C335.921 69.6313 336.286 66.9125 336.773 64.4434C337.808 59.1819 339.388 55.0533 339.388 55.0533C339.388 55.0533 349.46 51.8006 351.344 52.3533C360.423 55.0186 362.779 95.8578 361.54 101.506H361.538Z" fill="#1C468A"/>
<path d="M333.961 95.7274C334.407 88.5654 335.838 77.7928 335.895 72.2889C335.922 69.6307 336.287 66.912 336.774 64.4429L342.832 63.375C342.832 63.375 348.756 87.5509 333.961 95.7274Z" fill="#163560"/>
<path d="M337.241 85.7451C337.241 85.7451 337.654 86.7322 336.787 87.3946C335.919 88.0569 335.357 89.1291 335.555 89.9142C335.755 90.6978 337.657 91.9778 338.315 91.7714C338.975 91.5651 340.169 91.0326 340.172 90.1191C340.174 89.6818 341.075 86.4898 339.467 85.2516C337.86 84.0134 337.241 85.7466 337.241 85.7466V85.7451Z" fill="#FFB27D"/>
<path d="M344.032 53.877C344.032 53.877 338.104 54.7082 333.396 61.6407C328.688 68.5733 325.59 73.7279 326.458 76.2274C327.326 78.7253 335.23 87.3925 336.593 87.3925C337.956 87.3925 340.156 86.4025 340.28 84.173C340.28 84.173 335.006 75.8161 336.104 74.5678C336.572 74.0339 343.037 68.5747 344.002 71.051C345.597 75.1479 344.033 53.8784 344.033 53.8784L344.032 53.877Z" fill="#1C468A"/>
<path d="M349.088 46.4551C347.823 48.5966 343.108 50.4481 341.141 51.1292C341.162 51.0196 341.185 50.9084 341.207 50.8016C341.525 49.2128 341.799 47.8462 341.799 47.8462L347.561 45.3064C348.835 45.2891 349.61 45.5734 349.088 46.4551Z" fill="#FCA56B"/>
<path d="M339.622 47.4979C339.622 47.4979 348.904 50.3913 350.618 44.5873C352.332 38.7832 354.685 35.2491 348.83 33.1566C342.977 31.0642 341.166 32.9373 340.122 34.7354C339.078 36.5334 337.251 46.596 339.621 47.4979H339.622Z" fill="#FFB27D"/>
<path d="M340.488 34.1748C340.488 34.1748 341.08 40.9284 342.478 40.6355C343.876 40.3425 345.143 40.1246 344.939 42.1608C344.734 44.197 342.796 46.5478 347.104 46.9071C351.412 47.2679 357.603 36.1677 356.42 34.0651C353.006 28.0013 335.555 26.7776 340.49 34.1748H340.488Z" fill="#963333"/>
<mask id="mask0_63_18641" style="mask-type:luminance" maskUnits="userSpaceOnUse" x="185" y="110" width="47" height="39">
<path d="M231.842 110.488H185.172V148.085H231.842V110.488Z" fill="white"/>
</mask>
<g mask="url(#mask0_63_18641)">
<path d="M218.833 112.943L177.352 112.816L177.466 149.378L218.72 149.505L218.833 112.943Z" fill="#D3671E"/>
<path d="M231.211 113.007L198.183 112.88L198.094 149.442L231.121 149.569L231.211 113.007Z" fill="#F1A34F"/>
<path opacity="0.4" d="M198.183 112.88L231.211 113.007L231.182 124.696L198.094 149.442L198.183 112.88Z" fill="#D86713"/>
</g>
<path d="M119.698 105.449C119.714 104.805 119.205 104.271 118.561 104.254C117.916 104.238 117.381 104.747 117.365 105.391C117.349 106.035 117.858 106.57 118.502 106.586C119.147 106.602 119.682 106.093 119.698 105.449Z" fill="#C65447"/>
<path d="M125.349 105.421C125.349 106.065 124.827 106.588 124.182 106.588C123.538 106.588 123.016 106.066 123.016 105.421C123.016 104.776 123.538 104.255 124.182 104.255C124.827 104.255 125.349 104.777 125.349 105.421Z" fill="#C65447"/>
<path d="M131 105.461C131.017 104.818 130.509 104.282 129.865 104.265C129.22 104.248 128.684 104.756 128.667 105.4C128.65 106.044 129.159 106.579 129.803 106.596C130.447 106.613 130.983 106.105 131 105.461Z" fill="#F1A34F"/>
<path d="M136.645 105.459C136.662 104.816 136.153 104.28 135.509 104.263C134.865 104.246 134.329 104.754 134.312 105.398C134.295 106.042 134.803 106.577 135.448 106.594C136.092 106.611 136.628 106.103 136.645 105.459Z" fill="#C65447"/>
<path d="M119.705 111.53C119.705 112.174 119.182 112.696 118.538 112.696C117.894 112.696 117.371 112.174 117.371 111.53C117.371 110.887 117.894 110.364 118.538 110.364C119.182 110.364 119.705 110.887 119.705 111.53Z" fill="#C65447"/>
<path d="M125.349 111.53C125.349 112.174 124.827 112.696 124.182 112.696C123.538 112.696 123.016 112.174 123.016 111.53C123.016 110.887 123.538 110.364 124.182 110.364C124.827 110.364 125.349 110.887 125.349 111.53Z" fill="#F1A34F"/>
<path d="M130.994 111.53C130.994 112.174 130.471 112.696 129.827 112.696C129.183 112.696 128.66 112.174 128.66 111.53C128.66 110.887 129.183 110.364 129.827 110.364C130.471 110.364 130.994 110.887 130.994 111.53Z" fill="#F1A34F"/>
<path d="M136.638 111.53C136.638 112.174 136.116 112.696 135.472 112.696C134.827 112.696 134.305 112.174 134.305 111.53C134.305 110.887 134.827 110.364 135.472 110.364C136.116 110.364 136.638 110.887 136.638 111.53Z" fill="#F1A34F"/>
<path d="M188.224 45.9223H158.026L155.988 44.3652H186.187L188.224 45.9223Z" fill="#739AF0"/>
<path d="M188.224 47.9594H158.026L155.988 46.4023H186.187L188.224 47.9594Z" fill="#739AF0"/>
<path d="M188.224 49.9946H158.026L155.988 48.4375H186.187L188.224 49.9946Z" fill="#739AF0"/>
<path d="M188.224 52.0307H158.026L155.988 50.4736H186.187L188.224 52.0307Z" fill="#739AF0"/>
<path d="M188.224 54.0668H158.026L155.988 52.5098H186.187L188.224 54.0668Z" fill="#739AF0"/>
<path d="M134.893 50.0328C134.893 50.4051 134.591 50.7053 134.22 50.7053C133.849 50.7053 133.547 50.4037 133.547 50.0328C133.547 49.662 133.849 49.3604 134.22 49.3604C134.591 49.3604 134.893 49.662 134.893 50.0328Z" fill="#2B478B"/>
<path d="M134.893 78.8336C134.893 79.2059 134.591 79.5061 134.22 79.5061C133.849 79.5061 133.547 79.2045 133.547 78.8336C133.547 78.4627 133.849 78.1611 134.22 78.1611C134.591 78.1611 134.893 78.4627 134.893 78.8336Z" fill="#2B478B"/>
<path d="M119.322 78.8336C119.322 79.2059 119.021 79.5061 118.65 79.5061C118.278 79.5061 117.977 79.2045 117.977 78.8336C117.977 78.4627 118.278 78.1611 118.65 78.1611C119.021 78.1611 119.322 78.4627 119.322 78.8336Z" fill="#2B478B"/>
<path d="M116.072 103.27C116.072 103.642 115.771 103.943 115.4 103.943C115.028 103.943 114.727 103.641 114.727 103.27C114.727 102.899 115.028 102.598 115.4 102.598C115.771 102.598 116.072 102.899 116.072 103.27Z" fill="#2B478B"/>
<path d="M139.283 103.27C139.283 103.642 138.982 103.943 138.61 103.943C138.239 103.943 137.938 103.641 137.938 103.27C137.938 102.899 138.239 102.598 138.61 102.598C138.982 102.598 139.283 102.899 139.283 103.27Z" fill="#2B478B"/>
<path d="M116.069 113.37C116.069 113.742 115.767 114.042 115.396 114.042C115.024 114.042 114.723 113.741 114.723 113.37C114.723 112.999 115.024 112.697 115.396 112.697C115.767 112.697 116.069 112.999 116.069 113.37Z" fill="#2B478B"/>
<path d="M139.283 113.37C139.283 113.742 138.982 114.042 138.61 114.042C138.239 114.042 137.938 113.741 137.938 113.37C137.938 112.999 138.239 112.697 138.61 112.697C138.982 112.697 139.283 112.999 139.283 113.37Z" fill="#2B478B"/>
</svg>
