<svg width="300" height="200" viewBox="0 0 300 200" fill="none" xmlns="http://www.w3.org/2000/svg">
<g clip-path="url(#clip0_0_2817)">
<path d="M300 175.758H0V175.892H300V175.758Z" fill="#EBEBEB"/>
<path d="M269.942 184.398H250.07V184.533H269.942V184.398Z" fill="#EBEBEB"/>
<path d="M198.73 185.859H193.516V185.994H198.73V185.859Z" fill="#EBEBEB"/>
<path d="M249.467 179.414H237.953V179.548H249.467V179.414Z" fill="#EBEBEB"/>
<path d="M57.3906 180.32H31.4766V180.455H57.3906V180.32Z" fill="#EBEBEB"/>
<path d="M66.5324 180.32H62.7344V180.455H66.5324V180.32Z" fill="#EBEBEB"/>
<path d="M135.091 182.586H78.8828V182.72H135.091V182.586Z" fill="#EBEBEB"/>
<path d="M142.208 151.821H26.3479C24.4579 151.821 22.9219 150.447 22.9219 148.756V3.06487C22.9219 1.37409 24.4579 0 26.3479 0H142.208C144.098 0 145.634 1.37409 145.634 3.06487V148.756C145.634 150.447 144.098 151.821 142.208 151.821ZM26.3479 0.134189C24.5419 0.134189 23.0719 1.44924 23.0719 3.06487V148.756C23.0719 150.372 24.5419 151.687 26.3479 151.687H142.208C144.014 151.687 145.484 150.372 145.484 148.756V3.06487C145.484 1.44924 144.014 0.134189 142.208 0.134189H26.3479Z" fill="#EBEBEB"/>
<path d="M271.989 151.821H156.129C154.239 151.821 152.703 150.447 152.703 148.756V3.06487C152.703 1.37409 154.239 0 156.129 0H271.989C273.879 0 275.415 1.37409 275.415 3.06487V148.756C275.415 150.447 273.879 151.821 271.989 151.821ZM156.129 0.134189C154.323 0.134189 152.853 1.44924 152.853 3.06487V148.756C152.853 150.372 154.323 151.687 156.129 151.687H271.989C273.795 151.687 275.265 150.372 275.265 148.756V3.06487C275.265 1.44924 273.795 0.134189 271.989 0.134189H156.129Z" fill="#EBEBEB"/>
<path d="M245.717 36.9453L196.319 93.4548L160.067 99.9603L122.465 124.463L99.5874 109.359L51.3594 175.669H64.2414L102.395 123.218L122.423 136.443L164.513 109.015L202.361 102.225L254.225 42.8979L245.717 36.9453Z" fill="#E0E0E0"/>
<path d="M256.511 29.7969L235.469 34.7296L255.401 49.2327L256.511 29.7969Z" fill="#E0E0E0"/>
<path d="M82.5323 60.6888C96.0423 60.6888 106.994 50.8913 106.994 38.8053C106.994 26.7194 96.0423 16.9219 82.5323 16.9219C69.0223 16.9219 58.0703 26.7194 58.0703 38.8053C58.0703 50.8913 69.0223 60.6888 82.5323 60.6888Z" fill="#E0E0E0"/>
<path d="M82.5323 38.8043L104.48 29.1427C106.136 32.1486 106.994 35.455 106.994 38.8043C106.994 50.8115 95.9543 60.6878 82.5323 60.6878C69.1103 60.6878 58.0703 50.8115 58.0703 38.8043C58.0703 32.7122 60.9143 26.8937 65.9063 22.75L82.5323 38.8043Z" fill="#EBEBEB"/>
<path d="M82.5323 38.8043L77.4623 60.2154C66.2003 58.0792 58.0703 49.1046 58.0703 38.8043C58.0703 32.7122 60.9143 26.8937 65.9063 22.75L82.5323 38.8043Z" fill="#F5F5F5"/>
<path d="M82.5305 50.6338C89.8306 50.6338 95.7485 45.3397 95.7485 38.8091C95.7485 32.2785 89.8306 26.9844 82.5305 26.9844C75.2304 26.9844 69.3125 32.2785 69.3125 38.8091C69.3125 45.3397 75.2304 50.6338 82.5305 50.6338Z" fill="white"/>
<path d="M60.8841 98.2734H41.4141V109.69H60.8841V98.2734Z" fill="#F5F5F5"/>
<path d="M60.8841 98.2734H41.4141V100.678H60.8841V98.2734Z" fill="#E0E0E0"/>
<path d="M261.814 147.07H242.344V158.487H261.814V147.07Z" fill="#F5F5F5"/>
<path d="M261.814 147.07H242.344V149.475H261.814V147.07Z" fill="#E0E0E0"/>
<path d="M203.525 13.9375H184.055V25.3543H203.525V13.9375Z" fill="#F5F5F5"/>
<path d="M203.525 13.9375H184.055V16.3422H203.525V13.9375Z" fill="#E0E0E0"/>
<path d="M164.486 151.977H145.016V163.393H164.486V151.977Z" fill="#F5F5F5"/>
<path d="M164.486 151.977H145.016V154.381H164.486V151.977Z" fill="#E0E0E0"/>
<path d="M149.998 200.004C214.248 200.004 266.332 197.283 266.332 193.928C266.332 190.572 214.248 187.852 149.998 187.852C85.7486 187.852 33.6641 190.572 33.6641 193.928C33.6641 197.283 85.7486 200.004 149.998 200.004Z" fill="#F5F5F5"/>
<path d="M198.706 35.8438H56.9676C55.3373 35.8438 54.0156 37.0261 54.0156 38.4846V136.399C54.0156 137.858 55.3373 139.04 56.9676 139.04H198.706C200.336 139.04 201.658 137.858 201.658 136.399V38.4846C201.658 37.0261 200.336 35.8438 198.706 35.8438Z" fill="#0F3970"/>
<path d="M201.652 43.2266V136.396C201.652 137.856 200.332 139.043 198.7 139.043H56.9676C55.3356 139.043 54.0156 137.856 54.0156 136.396V43.2266H201.652Z" fill="#DFF6FF"/>
<path d="M66.5859 59.8281H89.7339" stroke="#263238" stroke-miterlimit="10"/>
<path d="M66.5859 61.8438H89.7339" stroke="#263238" stroke-miterlimit="10"/>
<path d="M66.5859 63.8672H89.7339" stroke="#263238" stroke-miterlimit="10"/>
<path d="M66.5859 65.8827H89.7339" stroke="#263238" stroke-miterlimit="10"/>
<path d="M66.5859 67.8984H89.7339" stroke="#263238" stroke-miterlimit="10"/>
<path d="M66.5859 69.9141H82.5279" stroke="#263238" stroke-miterlimit="10"/>
<path opacity="0.6" d="M92.8753 57.125H63.4453V72.6265H92.8753V57.125Z" fill="white"/>
<path d="M102.695 49.7578H119.837" stroke="#263238" stroke-miterlimit="10"/>
<path d="M102.695 51.7734H119.837" stroke="#263238" stroke-miterlimit="10"/>
<path d="M102.695 53.7969H119.837" stroke="#263238" stroke-miterlimit="10"/>
<path d="M102.695 55.8047H115.031" stroke="#263238" stroke-miterlimit="10"/>
<path opacity="0.6" d="M122.985 47.3672H99.5547V58.1935H122.985V47.3672Z" fill="white"/>
<path d="M173.25 101.141H190.392" stroke="#263238" stroke-miterlimit="10"/>
<path d="M173.25 103.156H190.392" stroke="#263238" stroke-miterlimit="10"/>
<path d="M173.25 105.18H190.392" stroke="#263238" stroke-miterlimit="10"/>
<path d="M173.25 107.195H185.586" stroke="#263238" stroke-miterlimit="10"/>
<path opacity="0.6" d="M193.539 98.75H170.109V109.576H193.539V98.75Z" fill="white"/>
<path d="M175.41 131.663C178.597 130.482 180.111 127.213 178.791 124.362C177.471 121.511 173.817 120.157 170.63 121.338C167.443 122.519 165.93 125.788 167.25 128.639C168.57 131.49 172.223 132.844 175.41 131.663Z" fill="#0F3970"/>
<path opacity="0.3" d="M175.063 130.905C177.781 129.898 179.072 127.109 177.946 124.677C176.82 122.245 173.703 121.09 170.985 122.098C168.266 123.105 166.975 125.893 168.101 128.325C169.228 130.757 172.344 131.912 175.063 130.905Z" fill="white"/>
<path d="M173.401 129.072V129.877H172.741V129.078C171.955 129.035 171.193 128.804 170.773 128.482L171.133 127.757C171.529 128.047 172.129 128.251 172.741 128.305V126.866C171.847 126.673 170.893 126.415 170.893 125.417C170.893 124.687 171.487 124.043 172.741 123.936V123.125H173.401V123.925C173.995 123.952 174.595 124.113 175.033 124.365L174.703 125.09C174.277 124.864 173.827 124.746 173.401 124.703V126.152C174.295 126.346 175.261 126.598 175.261 127.596C175.261 128.326 174.661 128.96 173.401 129.078V129.072ZM172.741 125.997V124.719C172.171 124.8 171.931 125.057 171.931 125.374C171.931 125.718 172.279 125.879 172.741 125.997ZM174.235 127.655C174.235 127.301 173.881 127.14 173.401 127.016V128.289C173.989 128.208 174.235 127.967 174.235 127.655Z" fill="#0F3970"/>
<path d="M183.09 89.8374L179.46 87.6796L175.836 89.8374V80.9219H183.09V89.8374Z" fill="#0F3970"/>
<path d="M179.457 75.8581L180.027 75.4609L180.507 75.944L181.143 75.6434L181.521 76.1963L182.205 76.0031L182.469 76.6042L183.183 76.5237L183.315 77.1571L184.035 77.1893L184.041 77.8334L184.743 77.9837L184.623 78.6171L185.283 78.8801L185.037 79.4866L185.631 79.8462L185.271 80.3991L185.787 80.85L185.319 81.3384L185.733 81.8644L185.175 82.2724L185.481 82.8574L184.851 83.1687L185.037 83.7914L184.353 83.9953L184.413 84.6394L183.699 84.7307L183.627 85.3694L182.907 85.348L182.709 85.9706L182.001 85.831L181.683 86.4107L181.017 86.1638L180.591 86.6791L179.985 86.3302L179.457 86.7704L178.935 86.3302L178.329 86.6791L177.897 86.1638L177.237 86.4107L176.913 85.831L176.211 85.9706L176.013 85.348L175.293 85.3694L175.221 84.7307L174.507 84.6394L174.567 83.9953L173.883 83.7914L174.069 83.1687L173.439 82.8574L173.745 82.2724L173.187 81.8644L173.601 81.3384L173.133 80.85L173.649 80.3991L173.283 79.8462L173.883 79.4866L173.637 78.8801L174.297 78.6171L174.177 77.9837L174.873 77.8334L174.885 77.1893L175.599 77.1571L175.737 76.5237L176.451 76.6042L176.715 76.0031L177.399 76.1963L177.777 75.6434L178.413 75.944L178.893 75.4609L179.457 75.8581Z" fill="#0F3970"/>
<path opacity="0.3" d="M179.457 75.8581L180.027 75.4609L180.507 75.944L181.143 75.6434L181.521 76.1963L182.205 76.0031L182.469 76.6042L183.183 76.5237L183.315 77.1571L184.035 77.1893L184.041 77.8334L184.743 77.9837L184.623 78.6171L185.283 78.8801L185.037 79.4866L185.631 79.8462L185.271 80.3991L185.787 80.85L185.319 81.3384L185.733 81.8644L185.175 82.2724L185.481 82.8574L184.851 83.1687L185.037 83.7914L184.353 83.9953L184.413 84.6394L183.699 84.7307L183.627 85.3694L182.907 85.348L182.709 85.9706L182.001 85.831L181.683 86.4107L181.017 86.1638L180.591 86.6791L179.985 86.3302L179.457 86.7704L178.935 86.3302L178.329 86.6791L177.897 86.1638L177.237 86.4107L176.913 85.831L176.211 85.9706L176.013 85.348L175.293 85.3694L175.221 84.7307L174.507 84.6394L174.567 83.9953L173.883 83.7914L174.069 83.1687L173.439 82.8574L173.745 82.2724L173.187 81.8644L173.601 81.3384L173.133 80.85L173.649 80.3991L173.283 79.8462L173.883 79.4866L173.637 78.8801L174.297 78.6171L174.177 77.9837L174.873 77.8334L174.885 77.1893L175.599 77.1571L175.737 76.5237L176.451 76.6042L176.715 76.0031L177.399 76.1963L177.777 75.6434L178.413 75.944L178.893 75.4609L179.457 75.8581Z" fill="white"/>
<path d="M179.457 85.5049C182.164 85.5049 184.359 83.5416 184.359 81.1197C184.359 78.6977 182.164 76.7344 179.457 76.7344C176.749 76.7344 174.555 78.6977 174.555 81.1197C174.555 83.5416 176.749 85.5049 179.457 85.5049Z" fill="#0F3970"/>
<path opacity="0.3" d="M177.078 80.9483L179.292 82.6767L181.83 79.6172" stroke="white" stroke-width="2" stroke-miterlimit="10"/>
<path d="M152.487 52.4525C151.257 51.3575 149.649 50.8047 148.041 50.8047C146.433 50.8047 144.825 51.3575 143.595 52.4525C141.135 54.6532 141.135 58.2119 143.595 60.4126L148.041 64.3899L152.487 60.4126C154.947 58.2119 154.947 54.6532 152.487 52.4525ZM150.099 58.2709C149.529 58.7755 148.785 59.0331 148.041 59.0331C147.297 59.0331 146.553 58.7755 145.983 58.2709C144.849 57.2565 144.849 55.6086 145.983 54.5942C146.553 54.0843 147.297 53.8266 148.041 53.8266C148.785 53.8266 149.529 54.0843 150.099 54.5942C151.233 55.6086 151.233 57.2565 150.099 58.2709Z" fill="#0F3970"/>
<path opacity="0.3" d="M145.983 54.5942C144.849 55.6086 144.849 57.2565 145.983 58.2709C146.553 58.7755 147.297 59.0331 148.041 59.0331V64.3899L143.595 60.4126C141.135 58.2119 141.135 54.6532 143.595 52.4525C144.825 51.3575 146.433 50.8047 148.041 50.8047V53.8266C147.297 53.8266 146.553 54.0843 145.983 54.5942Z" fill="white"/>
<path d="M78.4429 92.9811C73.9129 91.8163 69.3649 85.0586 72.7969 82.7291C76.1449 80.4479 78.3409 83.6201 78.4369 83.7704H78.4429C78.4429 83.7704 80.6629 80.3942 84.0949 82.7291C87.5269 85.0586 82.9789 91.8163 78.4429 92.9811Z" fill="#0F3970"/>
<path opacity="0.3" d="M78.4429 83.7753V92.9807C73.9129 91.8159 69.3649 85.0582 72.7969 82.7287C76.1449 80.4475 78.3409 83.6197 78.4369 83.77H78.4429V83.7753Z" fill="white"/>
<path d="M124.395 115.629C137.199 115.629 147.579 106.343 147.579 94.8886C147.579 83.4341 137.199 74.1484 124.395 74.1484C111.591 74.1484 101.211 83.4341 101.211 94.8886C101.211 106.343 111.591 115.629 124.395 115.629Z" stroke="#0F3970" stroke-linecap="round" stroke-linejoin="round"/>
<path d="M148.042 67.8536C154.378 67.8536 159.514 63.2588 159.514 57.5909C159.514 51.9229 154.378 47.3281 148.042 47.3281C141.706 47.3281 136.57 51.9229 136.57 57.5909C136.57 63.2588 141.706 67.8536 148.042 67.8536Z" stroke="#0F3970" stroke-linecap="round" stroke-linejoin="round"/>
<path d="M190.447 85.6076C188.623 91.0342 182.221 94.1152 176.155 92.4781C170.089 90.8463 166.645 85.1192 168.475 79.6926C170.299 74.266 176.701 71.185 182.767 72.8221C188.833 74.4539 192.277 80.181 190.447 85.6076Z" stroke="#0F3970" stroke-linecap="round" stroke-linejoin="round"/>
<path d="M175.577 136.51C169.397 137.771 163.247 134.314 161.837 128.786C160.427 123.257 164.291 117.755 170.471 116.494C176.651 115.233 182.801 118.689 184.211 124.218C185.621 129.746 181.757 135.248 175.577 136.51Z" stroke="#0F3970" stroke-linecap="round" stroke-linejoin="round"/>
<path d="M89.633 85.1554C91.043 90.684 87.179 96.1857 80.999 97.4471C74.819 98.7084 68.669 95.2517 67.259 89.7232C65.849 84.1946 69.713 78.6929 75.893 77.4315C82.073 76.1701 88.223 79.6268 89.633 85.1554Z" stroke="#0F3970" stroke-linecap="round" stroke-linejoin="round"/>
<path d="M135.836 76.8481L142.388 66.5156" stroke="#0F3970" stroke-linecap="round" stroke-linejoin="round"/>
<path d="M89.7344 89.2734L101.584 91.195" stroke="#0F3970" stroke-linecap="round" stroke-linejoin="round"/>
<path d="M143.148 107.078L163.74 120.47" stroke="#0F3970" stroke-linecap="round" stroke-linejoin="round"/>
<path d="M168.324 85.125L146.898 89.886" stroke="#0F3970" stroke-linecap="round" stroke-linejoin="round"/>
<path d="M139.836 93.9872C142.26 92.2642 144.576 94.4113 146.292 97.0092" stroke="#263238" stroke-width="0.76" stroke-linecap="round" stroke-linejoin="round"/>
<path d="M150.488 99.2161C150.488 99.2161 146.306 92.6623 140.336 94.1384" stroke="#263238" stroke-width="0.76" stroke-linecap="round" stroke-linejoin="round"/>
<path d="M147.267 103.185C147.225 103.234 147.159 103.261 147.087 103.255C146.961 103.255 146.865 103.159 146.865 103.046C146.865 102.971 147.063 95.6494 141.351 94.1626C140.493 93.9425 139.827 94.0338 139.305 94.4525C137.067 96.2667 138.459 103.293 138.477 103.363C138.501 103.475 138.417 103.577 138.291 103.599C138.165 103.62 138.051 103.545 138.027 103.432C137.967 103.132 136.563 96.1057 138.999 94.1465C139.635 93.6312 140.469 93.5024 141.477 93.7654C147.531 95.3381 147.321 102.976 147.321 103.051C147.321 103.1 147.297 103.143 147.267 103.175V103.185Z" fill="#76D2F3"/>
<path d="M144.078 105.532C144.024 105.591 143.934 105.618 143.85 105.597C143.73 105.57 143.652 105.463 143.682 105.35C143.706 105.269 145.896 97.0194 143.388 94.4913C142.824 93.9277 142.08 93.7023 141.114 93.8043C135.21 94.4376 135.636 105.253 135.642 105.361C135.642 105.473 135.552 105.57 135.426 105.575C135.3 105.575 135.192 105.495 135.186 105.382C135.162 104.92 134.736 94.0834 141.06 93.4017C142.17 93.2836 143.07 93.5573 143.73 94.2229C146.394 96.9067 144.222 105.098 144.126 105.446C144.12 105.479 144.102 105.505 144.078 105.532Z" fill="#76D2F3"/>
<path d="M134.831 85.1391C135.389 86.8459 135.929 88.5796 136.463 90.2919C137.015 91.988 137.549 93.7486 138.155 95.2944L138.251 95.5306C138.251 95.5306 138.197 95.4608 138.143 95.4125C138.035 95.3105 137.849 95.2461 137.807 95.2515C137.711 95.273 138.023 95.3105 138.359 95.2461C139.067 95.1227 139.949 94.8221 140.783 94.4625C141.641 94.119 142.499 93.711 143.351 93.2762C144.203 92.8522 145.067 92.3906 145.895 91.9451L145.925 91.929C146.435 91.6552 147.101 91.8055 147.407 92.2618C147.665 92.6482 147.587 93.1313 147.251 93.4373C145.769 94.7738 144.191 95.9493 142.397 97.0282C141.479 97.5434 140.537 98.0534 139.295 98.4076C138.659 98.5633 137.945 98.7511 136.859 98.5579C136.331 98.4559 135.689 98.1607 135.245 97.7206C135.023 97.5059 134.849 97.2643 134.723 97.0389L134.525 96.6524C134.063 95.74 133.703 94.8811 133.349 94.0062C132.995 93.1421 132.677 92.2725 132.365 91.403C131.741 89.6639 131.165 87.9302 130.655 86.1589C130.355 85.1229 131.057 84.0655 132.215 83.8025C133.349 83.5449 134.501 84.1353 134.831 85.1337V85.1444V85.1391Z" fill="#EBC0BC"/>
<path d="M145.711 92.4526L147.217 89.3984L149.953 90.9872C149.953 90.9872 149.239 93.2577 147.073 93.4402L145.711 92.4526Z" fill="#EEC1BB"/>
<path d="M149.301 87.9297L151.029 89.5507L149.955 90.9892L147.219 89.4004L149.301 87.9297Z" fill="#EEC1BB"/>
<path d="M140.329 94.1328C134.947 95.4586 143.155 103.649 143.155 103.649" stroke="#263238" stroke-width="0.76" stroke-linecap="round" stroke-linejoin="round"/>
<path d="M152.527 97.0938L168.721 110.416L168.349 115.386L153.463 124.141L138.109 107.324L139.783 103.991L152.527 97.0938Z" fill="#76D2F3"/>
<path opacity="0.1" d="M152.527 97.0938L168.721 110.416L168.349 115.386L153.463 124.141L138.109 107.324L151.033 100.991L152.527 97.0938Z" fill="white"/>
<path opacity="0.1" d="M151.033 100.992L168.349 115.388L153.463 124.142L138.109 107.326L151.033 100.992Z" fill="white"/>
<path opacity="0.2" d="M139.783 103.991L138.109 107.324L151.033 100.991L152.527 97.0938L139.783 103.991Z" fill="black"/>
<path d="M146.289 97C148.023 99.6247 149.139 102.706 149.139 102.706" stroke="#263238" stroke-width="0.76" stroke-linecap="round" stroke-linejoin="round"/>
<path d="M141.89 106.668C141.89 106.668 134.954 97.4464 139.832 93.9844" stroke="#263238" stroke-width="0.76" stroke-linecap="round" stroke-linejoin="round"/>
<path d="M141.237 94.1358C141.309 94.0714 141.375 93.9962 141.459 93.9426C141.525 93.8996 141.603 93.8674 141.669 93.8245C141.603 93.8084 141.543 93.7869 141.477 93.7654C140.469 93.5024 139.635 93.6312 138.999 94.1465C136.563 96.1057 137.967 103.132 138.027 103.432C138.051 103.545 138.171 103.615 138.291 103.599C138.417 103.577 138.495 103.47 138.477 103.363C138.465 103.293 137.073 96.2667 139.305 94.4525C139.797 94.0553 140.433 93.9533 141.237 94.1358Z" fill="#76D2F3"/>
<path d="M145.17 96.1406C145.062 96.2319 144.942 96.3231 144.828 96.4144C146.97 99.1035 146.868 102.99 146.862 103.043C146.862 103.156 146.958 103.253 147.084 103.253C147.156 103.253 147.222 103.226 147.264 103.183C147.294 103.151 147.318 103.108 147.318 103.059C147.318 103.006 147.426 98.9586 145.164 96.146L145.17 96.1406Z" fill="#76D2F3"/>
<path d="M150.075 102.193L156.075 121.13L152.847 125.193L135.039 125.676L131.805 104.157L135.183 102.102L150.075 102.193Z" fill="#263238"/>
<path opacity="0.2" d="M150.075 102.193L156.075 121.13L152.847 125.193L135.039 125.676L131.805 104.157L135.183 102.102L150.075 102.193Z" fill="white"/>
<path opacity="0.2" d="M150.075 102.195L156.075 121.132L152.847 125.195L135.039 125.678L131.805 104.16L146.517 104.815L150.075 102.195Z" fill="white"/>
<path opacity="0.2" d="M146.517 104.811L152.847 125.192L135.039 125.675L131.805 104.156L146.517 104.811Z" fill="white"/>
<path d="M141.734 93.7845C141.956 93.6664 142.184 93.5591 142.424 93.4786C142.01 93.3712 141.554 93.339 141.05 93.3927C134.726 94.0744 135.158 104.911 135.176 105.373C135.176 105.486 135.29 105.572 135.416 105.566C135.542 105.566 135.638 105.464 135.632 105.352C135.632 105.244 135.2 94.4286 141.104 93.7953C141.326 93.7738 141.53 93.7684 141.728 93.7791L141.734 93.7845Z" fill="#76D2F3"/>
<path d="M144.74 96.4755C144.632 96.5561 144.518 96.6205 144.398 96.6849C145.07 100.093 143.696 105.278 143.678 105.343C143.648 105.45 143.726 105.563 143.846 105.59C143.93 105.606 144.02 105.579 144.074 105.525C144.098 105.504 144.11 105.472 144.122 105.439C144.194 105.16 145.592 99.9054 144.806 96.4219C144.782 96.438 144.764 96.4594 144.74 96.4755Z" fill="#76D2F3"/>
<path d="M131.477 70.4143C131.477 70.4143 133.475 76.8929 130.715 81.246C127.955 85.599 118.751 91.8361 111.641 89.0718C104.531 86.3076 107.921 80.8541 112.043 79.7538C116.165 78.6534 116.513 78.063 116.075 74.4023C115.637 70.7417 118.847 66.0021 124.763 66.6355C130.679 67.2689 131.471 70.4143 131.471 70.4143H131.477Z" fill="#263238"/>
<path d="M134.329 123.281L133.447 125.455L132.193 128.525L131.311 130.699L130.021 134.698L128.623 139.046H120.727C120.859 137.838 121.027 136.485 121.237 135.063C121.489 133.383 121.795 131.612 122.173 129.867C122.263 129.443 122.359 129.019 122.461 128.6C122.485 128.504 122.503 128.418 122.527 128.327C122.617 127.972 122.707 127.613 122.797 127.259C123.085 126.153 123.403 125.036 123.745 123.931L126.229 123.775L134.329 123.281Z" fill="#EEC1BB"/>
<path opacity="0.1" d="M134.329 123.281L133.447 125.45L132.193 128.52L131.311 130.694L130.021 134.693L128.623 139.04H120.703C120.835 137.811 121.003 136.442 121.213 135.015C121.465 133.329 121.777 131.563 122.161 129.862C122.257 129.443 122.359 129.019 122.461 128.595C122.485 128.498 122.503 128.413 122.527 128.321C122.617 127.967 122.707 127.607 122.797 127.253C123.085 126.148 123.403 125.031 123.745 123.925L126.229 123.775L134.329 123.281Z" fill="black"/>
<path opacity="0.2" d="M134.324 123.281L132.188 128.525C129.806 128.853 125.786 129.395 122.156 129.867C122.27 129.357 122.396 128.842 122.522 128.321C122.876 126.872 123.284 125.391 123.74 123.925L134.324 123.281Z" fill="black"/>
<path d="M131.42 139.039H123.446C122.738 137.772 121.994 136.42 121.238 135.056C121.232 135.04 121.226 135.029 121.214 135.013C120.74 134.144 120.26 133.269 119.792 132.41C119.342 131.583 118.898 130.741 118.466 129.877C118.172 129.297 117.89 128.712 117.614 128.127C116.96 126.737 116.361 125.33 115.845 123.94C114.909 121.433 114.255 118.97 114.062 116.742L123.998 117.767L125.936 122.979L126.231 123.768L127.431 126.994L128.198 129.061L128.318 129.383L130.022 134.691L131.42 139.039Z" fill="#EEC1BB"/>
<path opacity="0.2" d="M127.43 126.999L118.466 129.882C117.488 127.933 116.582 125.92 115.844 123.945L125.936 122.984L127.43 126.999Z" fill="black"/>
<path d="M96.9788 115.235C96.9788 115.235 101.845 109.073 97.8248 104.854C94.2008 101.054 89.3828 111.171 89.3828 111.171" stroke="#263238" stroke-width="0.76" stroke-linecap="round" stroke-linejoin="round"/>
<path d="M99.994 115.999L93.358 134.758L88.168 136.562L73 128.204L83.53 108.645L87.616 108.586L99.994 115.999Z" fill="#76D2F3"/>
<path opacity="0.1" d="M99.994 115.994L93.358 134.754L88.168 136.557L73 128.2L83.53 108.641L95.416 116.429L99.994 115.994Z" fill="white"/>
<path opacity="0.1" d="M95.416 116.429L88.168 136.557L73 128.2L83.53 108.641L95.416 116.429Z" fill="white"/>
<path opacity="0.2" d="M83.5312 108.645L95.4172 116.433L99.9953 115.999L87.6172 108.586L83.5312 108.645Z" fill="black"/>
<path d="M85.7969 111.429C85.7969 111.429 92.1989 101.901 97.7729 104.392C103.347 106.882 92.8769 115.631 92.8769 115.631" stroke="#263238" stroke-width="0.76" stroke-linecap="round" stroke-linejoin="round"/>
<path d="M133.948 86.6047C133.96 86.8302 133.972 87.0717 133.978 87.3347C134.074 90.0829 132.322 91.0813 131.344 99.5083L119.782 99.8465C119.758 98.6227 118.036 94.8332 116.926 92.2031C116.53 91.2638 116.212 90.4694 116.068 89.9917C115.954 89.5998 115.834 89.1919 115.708 88.7732C115.546 88.2418 115.378 87.6944 115.198 87.12C114.964 86.3471 114.7 85.5259 114.406 84.6617C115.18 84.4738 115.96 84.3074 116.74 84.1625C118.006 83.921 119.284 83.7331 120.568 83.5989C122.764 83.3413 124.984 83.2232 127.198 83.2447C128.65 83.293 130.216 83.4272 131.392 83.5506C132.532 83.6633 133.324 83.7707 133.324 83.7707C133.324 83.7707 133.786 83.8888 133.936 86.6101L133.948 86.6047Z" fill="#EEC1BB"/>
<path d="M134.718 114.576C134.82 115.757 134.892 117.018 134.922 118.376C134.922 118.511 134.928 118.645 134.928 118.784C134.94 119.423 134.946 120.083 134.934 120.765C134.934 121.033 134.928 121.313 134.922 121.592C134.916 121.935 134.904 122.284 134.892 122.638C134.88 123.046 134.862 123.465 134.838 123.884C134.82 124.324 134.79 124.764 134.76 125.22L115.908 128.414C115.662 127.899 115.434 127.394 115.224 126.895C115.05 126.498 114.888 126.111 114.738 125.725C114.576 125.327 114.426 124.941 114.288 124.56C114.192 124.292 114.096 124.034 114.006 123.771C113.736 122.976 113.502 122.22 113.316 121.484C113.28 121.35 113.244 121.221 113.214 121.087C112.788 119.38 112.566 117.829 112.494 116.401C112.494 116.331 112.494 116.267 112.482 116.197C112.134 107.26 118.764 98.844 118.764 98.844L117.498 93.9864C117.498 93.9864 118.02 92.4674 118.062 91.2865C118.176 87.76 116.688 84.1638 116.688 84.1638C116.706 84.1638 116.73 84.153 116.748 84.1477C124.116 81.9362 131.406 83.5358 131.406 83.5358C133.482 87.1159 134.67 89.746 132.234 99.0319C132.234 99.0319 134.01 106.251 134.706 114.362C134.706 114.431 134.718 114.496 134.724 114.566L134.718 114.576Z" fill="#76D2F3"/>
<path opacity="0.5" d="M134.718 114.576C134.82 115.757 134.892 117.018 134.922 118.376C134.922 118.511 134.928 118.645 134.928 118.784C134.94 119.423 134.946 120.083 134.934 120.765C134.934 121.033 134.928 121.313 134.922 121.592C134.916 121.935 134.904 122.284 134.892 122.638C134.88 123.046 134.862 123.465 134.838 123.884C134.82 124.324 134.79 124.764 134.76 125.22L115.908 128.414C115.662 127.899 115.434 127.394 115.224 126.895C115.05 126.498 114.888 126.111 114.738 125.725C114.576 125.327 114.426 124.941 114.288 124.56C114.192 124.292 114.096 124.034 114.006 123.771C113.736 122.976 113.502 122.22 113.316 121.484C113.28 121.35 113.244 121.221 113.214 121.087C112.788 119.38 112.566 117.829 112.494 116.401C112.494 116.331 112.494 116.267 112.482 116.197C112.134 107.26 118.764 98.844 118.764 98.844L117.498 93.9864C117.498 93.9864 118.02 92.4674 118.062 91.2865C118.176 87.76 116.688 84.1638 116.688 84.1638C116.706 84.1638 116.73 84.153 116.748 84.1477C124.116 81.9362 131.406 83.5358 131.406 83.5358C133.482 87.1159 134.67 89.746 132.234 99.0319C132.234 99.0319 134.01 106.251 134.706 114.362C134.706 114.431 134.718 114.496 134.724 114.566L134.718 114.576Z" fill="white"/>
<path d="M91.6093 114.306C91.5433 114.29 91.4892 114.247 91.4592 114.188C91.4112 114.086 91.4593 113.963 91.5793 113.92C91.6573 113.893 99.1573 110.946 98.2393 105.691C98.1013 104.902 97.7233 104.403 97.0753 104.156C94.2913 103.109 87.7693 107.21 87.7033 107.253C87.6013 107.318 87.4573 107.296 87.3853 107.205C87.3133 107.114 87.3373 106.985 87.4393 106.92C87.7153 106.743 94.2433 102.632 97.2553 103.78C98.0473 104.081 98.5273 104.698 98.6893 105.627C99.6613 111.198 91.8372 114.263 91.7592 114.295C91.7112 114.311 91.6572 114.317 91.6093 114.306Z" fill="#76D2F3"/>
<path d="M93.7924 116.17L77.1544 129.047L71.6764 128.15L63.6484 113.921L84.0724 102.188L87.5824 104.055L93.7924 116.17Z" fill="#263238"/>
<path opacity="0.2" d="M93.7924 116.17L77.1544 129.047L71.6764 128.15L63.6484 113.921L84.0724 102.188L87.5824 104.055L93.7924 116.17Z" fill="white"/>
<path opacity="0.2" d="M93.7924 116.17L77.1544 129.047L71.6764 128.15L63.6484 113.921L84.0724 102.188L89.6344 114.393L93.7924 116.17Z" fill="white"/>
<path opacity="0.2" d="M89.6344 114.393L71.6764 128.15L63.6484 113.921L84.0724 102.188L89.6344 114.393Z" fill="white"/>
<path d="M87.8826 112.717C87.8046 112.696 87.7386 112.637 87.7206 112.561C87.6966 112.449 87.7746 112.341 87.9006 112.32C87.9966 112.304 97.2786 110.586 98.7726 107.484C99.1086 106.786 99.0186 106.088 98.5026 105.347C95.3586 100.828 84.5886 105.755 84.4806 105.804C84.3666 105.857 84.2286 105.814 84.1746 105.718C84.1146 105.616 84.1626 105.492 84.2706 105.444C84.7266 105.229 95.5266 100.297 98.8866 105.133C99.4806 105.986 99.5766 106.829 99.1866 107.645C97.5966 110.94 88.3806 112.647 87.9906 112.717C87.9546 112.722 87.9186 112.717 87.8886 112.717H87.8826Z" fill="#76D2F3"/>
<path opacity="0.2" d="M117.615 90.3782C117.681 90.9632 117.549 91.6235 116.937 92.1978C116.541 91.2585 116.223 90.4641 116.079 89.9864C115.965 89.5945 115.845 89.1866 115.719 88.7679C116.103 88.7411 116.511 88.7303 116.937 88.7357C116.937 88.7357 117.519 89.4711 117.621 90.3728L117.615 90.3782Z" fill="black"/>
<path d="M117.306 86.7558C116.976 88.7633 116.568 90.7385 116.112 92.7245C115.896 93.7175 115.644 94.7051 115.374 95.7035C115.242 96.2027 115.104 96.7019 114.936 97.2118C114.858 97.464 114.774 97.7271 114.678 97.9901L114.606 98.194C114.564 98.3067 114.516 98.4302 114.462 98.5322C114.36 98.7469 114.246 98.9294 114.126 99.1011C113.646 99.7721 113.124 100.196 112.614 100.583C112.098 100.964 111.582 101.286 111.066 101.581C110.028 102.161 108.984 102.649 107.922 103.084C105.798 103.948 103.668 104.657 101.442 105.226C100.872 105.37 100.272 105.075 100.11 104.56C99.9725 104.114 100.2 103.658 100.638 103.449L100.668 103.438C101.628 102.982 102.618 102.52 103.572 102.032C104.538 101.559 105.486 101.071 106.404 100.556C107.316 100.04 108.216 99.5198 109.02 98.9562C109.422 98.6771 109.8 98.3926 110.124 98.1081C110.442 97.829 110.712 97.5231 110.814 97.3352C110.838 97.2923 110.856 97.2493 110.856 97.2332C110.862 97.2225 110.856 97.2225 110.856 97.2171L110.898 97.0561C110.952 96.836 111.006 96.616 111.06 96.3798L111.36 94.952L111.918 92.0267C112.278 90.0676 112.632 88.0923 113.034 86.1385V86.1278C113.25 85.0758 114.378 84.378 115.554 84.5712C116.706 84.7591 117.474 85.7306 117.306 86.7558Z" fill="#EBC0BB"/>
<path d="M101.538 103.516L97.8359 103.07L97.9259 105.99C97.9259 105.99 100.464 106.624 101.766 105.072L101.532 103.516H101.538Z" fill="#EEC1BB"/>
<path d="M95.3516 103.897L95.9996 106.06L97.9316 105.99L97.8416 103.07L95.3516 103.897Z" fill="#EEC1BB"/>
<path d="M123.342 82.8985C120.594 83.1185 119.85 84.2833 122.532 87.4716C125.214 90.6599 127.698 91.9267 127.698 91.9267C127.698 91.9267 131.412 82.249 123.342 82.8985Z" stroke="#263238" stroke-width="0.5" stroke-miterlimit="10"/>
<path d="M125.847 86.0987C122.247 85.5351 121.227 84.102 121.227 84.102C122.775 82.9157 122.595 81.0639 122.277 79.8992C122.103 79.2551 121.887 78.8203 121.887 78.8203L126.207 79.7274C126.057 80.3662 125.979 80.9083 125.955 81.3645C125.919 81.8637 125.955 82.2609 126.015 82.5776C126.249 83.7531 126.993 83.8014 126.993 83.8014C127.695 85.1111 125.841 86.0987 125.841 86.0987H125.847Z" fill="#EEC1BB"/>
<path opacity="0.2" d="M125.959 81.3645C125.923 81.8637 125.959 82.2609 126.019 82.5776C124.297 82.3038 123.049 81.0103 122.281 79.8992C122.107 79.2551 121.891 78.8203 121.891 78.8203L126.211 79.7274C126.061 80.3662 125.983 80.9083 125.959 81.3645Z" fill="black"/>
<path d="M125.875 68.8904C129.661 69.1749 130.711 71.075 130.663 74.5854C130.603 78.9706 129.235 81.9872 124.591 80.7044C118.279 78.9599 119.593 68.418 125.881 68.8904H125.875Z" fill="#EEC1BB"/>
<path d="M128.232 74.2188C128.232 74.2188 128.676 75.142 129.204 75.7056C129.204 75.7056 128.838 76.1403 128.172 76.0169L128.232 74.2241V74.2188Z" fill="#D4827D"/>
<path d="M125.947 73.7686C125.929 74.0477 125.743 74.2624 125.539 74.2517C125.329 74.2409 125.179 74.0048 125.197 73.7256C125.215 73.4465 125.401 73.2318 125.605 73.2426C125.815 73.2533 125.965 73.4895 125.947 73.7686Z" fill="#263238"/>
<path d="M125.516 73.2508L126.212 73.0469C126.212 73.0469 125.84 73.5407 125.516 73.2508Z" fill="#263238"/>
<path d="M129.822 73.917C129.804 74.1961 129.618 74.4108 129.414 74.4001C129.204 74.3894 129.054 74.1532 129.072 73.8741C129.09 73.595 129.276 73.3803 129.48 73.391C129.69 73.4017 129.84 73.6379 129.822 73.917Z" fill="#263238"/>
<path d="M129.391 73.3993L130.087 73.1953C130.087 73.1953 129.715 73.6891 129.391 73.3993Z" fill="#263238"/>
<path d="M126.122 71.4243C126.122 71.4243 125.072 71.2203 124.43 71.8161" stroke="#263238" stroke-width="0.54" stroke-linecap="round" stroke-linejoin="round"/>
<path d="M128.883 71.4934C128.883 71.4934 129.573 71.3216 130.365 71.8852" stroke="#263238" stroke-width="0.54" stroke-linecap="round" stroke-linejoin="round"/>
<path d="M121.205 74.2955C121.205 74.2955 123.233 71.6439 123.167 69.4754C123.167 69.4754 130.925 67.2908 130.661 74.1291C130.661 74.1291 131.957 68.1335 125.465 67.5163C118.979 66.899 118.205 75.4173 121.331 78.203C121.331 78.203 119.957 75.9487 121.211 74.2901L121.205 74.2955Z" fill="#263238"/>
<path d="M121.758 75.0552C121.782 74.5077 121.242 73.5362 120.096 73.563C118.914 73.5899 118.152 75.7047 121.02 76.44C121.434 76.5474 121.704 76.1985 121.758 75.0552Z" fill="#EEC1BB"/>
<path d="M123.862 66.564C125.938 66.14 131.41 66.2957 132.442 71.4109L131.668 71.7169C131.668 71.7169 129.892 70.7561 127.624 70.4609C127.624 70.4609 127.204 69.6933 126.628 69.0599C126.628 69.0599 126.664 69.8758 126.562 70.3482C126.562 70.3482 122.974 70.6702 121.306 71.8994C118.696 73.8317 118.474 75.1199 118.474 75.1199C118.474 75.1199 117.1 67.9435 123.862 66.5587V66.564Z" fill="#263238"/>
<path d="M127.348 77.5099C127.528 77.5421 127.726 77.5636 127.936 77.5689C127.99 77.5689 128.038 77.5314 128.032 77.4777C128.032 77.424 127.984 77.3811 127.924 77.3811C126.4 77.3435 125.638 76.3451 125.632 76.3344C125.602 76.2914 125.536 76.2753 125.488 76.3022C125.44 76.329 125.434 76.3881 125.464 76.431C125.494 76.4686 126.106 77.2737 127.348 77.5045V77.5099Z" fill="#263238"/>
<path d="M127.645 91.6484C127.645 91.6484 129.169 93.2855 127.897 93.3607C126.625 93.4358 127.645 91.6484 127.645 91.6484Z" fill="#76D2F3"/>
<path opacity="0.5" d="M196.681 41.1503C197.622 41.1503 198.385 40.4678 198.385 39.6259C198.385 38.784 197.622 38.1016 196.681 38.1016C195.739 38.1016 194.977 38.784 194.977 39.6259C194.977 40.4678 195.739 41.1503 196.681 41.1503Z" fill="white"/>
<path opacity="0.5" d="M191.595 41.1503C192.536 41.1503 193.299 40.4678 193.299 39.6259C193.299 38.784 192.536 38.1016 191.595 38.1016C190.654 38.1016 189.891 38.784 189.891 39.6259C189.891 40.4678 190.654 41.1503 191.595 41.1503Z" fill="white"/>
<path opacity="0.5" d="M186.516 41.1503C187.458 41.1503 188.22 40.4678 188.22 39.6259C188.22 38.784 187.458 38.1016 186.516 38.1016C185.575 38.1016 184.812 38.784 184.812 39.6259C184.812 40.4678 185.575 41.1503 186.516 41.1503Z" fill="white"/>
<path d="M92.5312 122.586H115.673" stroke="#263238" stroke-miterlimit="10"/>
<path d="M92.5312 124.602H115.673" stroke="#263238" stroke-miterlimit="10"/>
<path d="M92.5312 126.617H115.673" stroke="#263238" stroke-miterlimit="10"/>
<path d="M92.5312 128.633H115.673" stroke="#263238" stroke-miterlimit="10"/>
<path d="M92.5312 130.656H115.673" stroke="#263238" stroke-miterlimit="10"/>
<path d="M92.5312 132.672H108.473" stroke="#263238" stroke-miterlimit="10"/>
<path opacity="0.6" d="M118.827 119.875H89.3906V135.376H118.827V119.875Z" fill="white"/>
<path d="M58.3828 157.684C58.3828 157.684 62.1928 154.844 65.4568 157.684C68.7208 160.523 69.3508 178.123 69.3508 178.123" stroke="#76D2F3" stroke-miterlimit="10"/>
<path d="M69.6214 181.516C69.6214 181.516 67.3774 160.867 75.8314 152.188" stroke="#76D2F3" stroke-miterlimit="10"/>
<path d="M68.8189 179.336C68.8189 179.336 70.5469 155.827 64.2109 150.609" stroke="#76D2F3" stroke-miterlimit="10"/>
<path d="M69.625 179.339C69.625 179.339 69.775 163.805 74.485 161.39C79.195 158.974 81.595 166.854 81.595 166.854" stroke="#76D2F3" stroke-miterlimit="10"/>
<path d="M67.7646 179.336C67.7646 179.336 68.5326 167.409 64.8846 163.147C61.2366 158.885 57.3906 164.972 57.3906 164.972" stroke="#76D2F3" stroke-miterlimit="10"/>
<path d="M69.0336 180.939C69.0336 180.939 66.6756 153.049 70.5816 148.32" stroke="#76D2F3" stroke-miterlimit="10"/>
<path d="M78.5134 163.655C78.5134 163.655 76.1674 164.428 76.8634 166.258C77.5594 168.088 84.9874 171.099 84.9874 171.099C84.9874 171.099 88.0954 168.55 85.2394 164.401C82.3834 160.252 78.5734 162.35 78.5074 163.66L78.5134 163.655Z" fill="#76D2F3"/>
<path opacity="0.5" d="M78.5134 163.655C78.5134 163.655 76.1674 164.428 76.8634 166.258C77.5594 168.088 84.9874 171.099 84.9874 171.099C84.9874 171.099 88.0954 168.55 85.2394 164.401C82.3834 160.252 78.5734 162.35 78.5074 163.66L78.5134 163.655Z" fill="white"/>
<path d="M68.3028 160.172C68.3028 160.172 70.8048 160.08 70.9488 162.007C71.0928 163.934 65.5308 169.27 65.5308 169.27C65.5308 169.27 61.5648 167.987 62.4168 163.172C63.2688 158.357 67.6848 158.985 68.3088 160.172H68.3028Z" fill="#76D2F3"/>
<path opacity="0.5" d="M68.3028 160.172C68.3028 160.172 70.8048 160.08 70.9488 162.007C71.0928 163.934 65.5308 169.27 65.5308 169.27C65.5308 169.27 61.5648 167.987 62.4168 163.172C63.2688 158.357 67.6848 158.985 68.3088 160.172H68.3028Z" fill="white"/>
<path d="M66.1784 150.939C66.1784 150.939 67.8464 150.778 67.7144 149.871C67.5824 148.964 61.2344 146.623 57.4844 150.407C57.4844 150.407 59.8844 154.095 63.3524 154.143C66.8204 154.192 66.1844 150.944 66.1844 150.944L66.1784 150.939Z" fill="#76D2F3"/>
<path opacity="0.5" d="M66.1784 150.939C66.1784 150.939 67.8464 150.778 67.7144 149.871C67.5824 148.964 61.2344 146.623 57.4844 150.407C57.4844 150.407 59.8844 154.095 63.3524 154.143C66.8204 154.192 66.1844 150.944 66.1844 150.944L66.1784 150.939Z" fill="white"/>
<path d="M69.2912 148.733C69.2912 148.733 67.7792 149.388 67.3592 148.55C66.9332 147.713 70.9412 142.727 76.3532 144.165C76.3532 144.165 76.4972 148.427 73.5812 150.107C70.6652 151.787 69.2912 148.733 69.2912 148.733Z" fill="#76D2F3"/>
<path opacity="0.5" d="M69.2912 148.733C69.2912 148.733 67.7792 149.388 67.3592 148.55C66.9332 147.713 70.9412 142.727 76.3532 144.165C76.3532 144.165 76.4972 148.427 73.5812 150.107C70.6652 151.787 69.2912 148.733 69.2912 148.733Z" fill="white"/>
<path d="M61.3943 162.917C61.3943 162.917 62.5463 162.085 61.3043 161.683C60.0623 161.275 53.9662 161.393 53.9062 166.793C53.9062 166.793 61.0043 167.85 61.8802 165.789C62.7563 163.733 61.3943 162.917 61.3943 162.917Z" fill="#76D2F3"/>
<path opacity="0.5" d="M61.3943 162.917C61.3943 162.917 62.5463 162.085 61.3043 161.683C60.0623 161.275 53.9662 161.393 53.9062 166.793C53.9062 166.793 61.0043 167.85 61.8802 165.789C62.7563 163.733 61.3943 162.917 61.3943 162.917Z" fill="white"/>
<path d="M75.8736 150.808C75.8736 150.808 74.7216 149.976 75.9636 149.573C77.2056 149.165 83.3016 149.283 83.3616 154.683C83.3616 154.683 76.2636 155.741 75.3876 153.679C74.5116 151.624 75.8736 150.808 75.8736 150.808Z" fill="#76D2F3"/>
<path opacity="0.5" d="M75.8736 150.808C75.8736 150.808 74.7216 149.976 75.9636 149.573C77.2056 149.165 83.3016 149.283 83.3616 154.683C83.3616 154.683 76.2636 155.741 75.3876 153.679C74.5116 151.624 75.8736 150.808 75.8736 150.808Z" fill="white"/>
<path d="M72.1163 155.15C72.1163 155.15 72.0143 154.141 72.9263 154.538C73.8383 154.935 77.0183 158 73.7243 160.909C73.7243 160.909 69.2903 157.973 70.0883 156.443C70.8863 154.914 72.1163 155.155 72.1163 155.155V155.15Z" fill="#76D2F3"/>
<path opacity="0.5" d="M72.1163 155.15C72.1163 155.15 72.0143 154.141 72.9263 154.538C73.8383 154.935 77.0183 158 73.7243 160.909C73.7243 160.909 69.2903 157.973 70.0883 156.443C70.8863 154.914 72.1163 155.155 72.1163 155.155V155.15Z" fill="white"/>
<path d="M60.3687 156.593C60.3687 156.593 61.0587 155.788 60.0507 155.686C59.0427 155.584 54.5247 156.663 55.5807 160.699C55.5807 160.699 61.0827 160.329 61.3167 158.654C61.5507 156.98 60.3687 156.593 60.3687 156.593Z" fill="#76D2F3"/>
<path opacity="0.5" d="M60.3687 156.593C60.3687 156.593 61.0587 155.788 60.0507 155.686C59.0427 155.584 54.5247 156.663 55.5807 160.699C55.5807 160.699 61.0827 160.329 61.3167 158.654C61.5507 156.98 60.3687 156.593 60.3687 156.593Z" fill="white"/>
<path d="M78.9491 194.306H60.0731L58.0391 175.82H80.9891L78.9491 194.306Z" fill="#263238"/>
<path opacity="0.2" d="M78.9491 194.306H60.0731L58.0391 175.82H80.9891L78.9491 194.306Z" fill="white"/>
<path d="M81.9972 173.781H57.0312V177.861H81.9972V173.781Z" fill="#263238"/>
<path opacity="0.4" d="M81.9972 173.781H57.0312V177.861H81.9972V173.781Z" fill="white"/>
<path d="M208.185 74.3438C203.925 75.1435 199.383 90.4517 199.383 90.4517L203.187 94.1231L209.985 82.9533L208.179 74.3438H208.185Z" fill="#76D2F3"/>
<path opacity="0.7" d="M209.999 82.9587L209.855 83.1948L204.167 92.529L203.195 94.1285L199.391 90.4517C199.391 90.4517 203.927 75.1489 208.187 74.3438L209.999 82.9587Z" fill="white"/>
<path opacity="0.1" d="M209.852 83.1979L204.164 92.532C204.164 92.3764 204.17 92.2046 204.182 92.0221C204.692 84.9262 209.12 81.1797 209.12 81.1797C209.48 81.8131 209.72 82.4947 209.852 83.1979Z" fill="black"/>
<path d="M239.888 113.393C239.888 113.393 226.832 110.291 211.004 114.842C211.004 114.842 208.454 85.1811 208.76 81.1072C209.066 77.0332 233.192 78.2248 233.192 78.2248C233.192 78.2248 233.816 90.0978 235.37 97.2581C236.924 104.424 240.686 112.019 239.888 113.393Z" fill="#76D2F3"/>
<path opacity="0.5" d="M239.888 113.393C239.888 113.393 226.832 110.291 211.004 114.842C211.004 114.842 208.454 85.1811 208.76 81.1072C209.066 77.0332 233.192 78.2248 233.192 78.2248C233.192 78.2248 233.816 90.0978 235.37 97.2581C236.924 104.424 240.686 112.019 239.888 113.393Z" fill="white"/>
<path d="M203.367 190.502L207.627 191.581L208.641 185.65L209.187 182.477L204.927 181.398L204.201 185.65L203.367 190.502Z" fill="#FFB573"/>
<path d="M227.859 190.812L232.251 191.333L232.293 185.649L232.323 182.117L227.925 181.602L227.895 185.649L227.859 190.812Z" fill="#FFB573"/>
<path opacity="0.2" d="M227.928 181.602L227.898 185.649H232.296L232.326 182.117L227.928 181.602Z" fill="black"/>
<path opacity="0.2" d="M204.203 185.65H208.643L209.189 182.477L204.929 181.398L204.203 185.65Z" fill="black"/>
<path d="M203.425 189.907L208.261 189.789C208.441 189.789 208.603 189.891 208.651 190.047L209.665 193.53C209.773 193.89 209.473 194.244 209.053 194.25C207.307 194.266 204.781 194.233 202.585 194.287C200.023 194.351 198.391 194.239 195.379 194.309C193.561 194.351 192.991 192.725 193.747 192.559C197.185 191.802 199.435 191.952 202.363 190.235C202.681 190.047 203.035 189.913 203.419 189.902L203.425 189.907Z" fill="#263238"/>
<path d="M203.013 190.465H203.001C202.293 190.61 201.027 190.793 200.529 190.422C200.379 190.31 200.307 190.159 200.313 189.971C200.313 189.859 200.373 189.773 200.475 189.719C201.003 189.435 202.815 190.202 203.019 190.288C203.061 190.304 203.085 190.342 203.079 190.385C203.079 190.422 203.049 190.449 203.013 190.46V190.465ZM200.619 189.869C200.619 189.869 200.595 189.88 200.583 189.886C200.541 189.907 200.523 189.939 200.523 189.988C200.523 190.116 200.565 190.213 200.661 190.283C200.943 190.492 201.675 190.514 202.647 190.342C201.933 190.063 200.955 189.757 200.625 189.869H200.619Z" fill="#76D2F3"/>
<path d="M203.012 190.462C203.012 190.462 202.958 190.473 202.934 190.462C202.388 190.264 201.296 189.432 201.362 188.986C201.38 188.879 201.458 188.75 201.74 188.718C201.956 188.691 202.154 188.745 202.328 188.863C202.91 189.26 203.072 190.323 203.078 190.366C203.078 190.398 203.066 190.43 203.036 190.451C203.03 190.457 203.018 190.462 203.012 190.462ZM201.662 188.922C201.578 188.949 201.572 188.991 201.566 189.008C201.53 189.276 202.274 189.931 202.832 190.21C202.76 189.899 202.58 189.271 202.196 189.008C202.064 188.916 201.92 188.879 201.764 188.9C201.722 188.9 201.686 188.911 201.656 188.922H201.662Z" fill="#76D2F3"/>
<path d="M228.042 189.907L232.878 189.789C233.058 189.789 233.22 189.891 233.268 190.047L234.282 193.53C234.39 193.89 234.09 194.244 233.67 194.25C231.924 194.266 229.398 194.233 227.202 194.287C224.64 194.351 223.008 194.239 219.996 194.309C218.178 194.351 217.608 192.725 218.364 192.559C221.802 191.802 224.052 191.952 226.98 190.235C227.298 190.047 227.652 189.913 228.036 189.902L228.042 189.907Z" fill="#263238"/>
<path d="M227.63 190.465C227.63 190.465 227.624 190.465 227.618 190.465C226.91 190.61 225.644 190.793 225.146 190.422C224.996 190.31 224.924 190.159 224.93 189.971C224.93 189.859 224.99 189.773 225.092 189.719C225.62 189.435 227.432 190.202 227.636 190.288C227.678 190.304 227.702 190.342 227.696 190.385C227.696 190.422 227.666 190.449 227.63 190.46V190.465ZM225.236 189.869C225.236 189.869 225.212 189.88 225.2 189.886C225.158 189.907 225.14 189.939 225.14 189.988C225.14 190.116 225.182 190.213 225.278 190.283C225.56 190.492 226.292 190.514 227.264 190.342C226.55 190.063 225.572 189.757 225.242 189.869H225.236Z" fill="#76D2F3"/>
<path d="M227.629 190.462C227.629 190.462 227.575 190.473 227.551 190.462C227.005 190.264 225.913 189.432 225.979 188.986C225.991 188.879 226.075 188.75 226.357 188.718C226.573 188.691 226.771 188.745 226.945 188.863C227.527 189.26 227.689 190.323 227.695 190.366C227.695 190.398 227.683 190.43 227.653 190.451C227.647 190.457 227.635 190.462 227.629 190.462ZM226.279 188.922C226.195 188.949 226.189 188.991 226.183 189.008C226.147 189.276 226.891 189.931 227.449 190.21C227.377 189.899 227.197 189.271 226.813 189.008C226.681 188.916 226.537 188.879 226.381 188.9C226.339 188.9 226.303 188.911 226.273 188.922H226.279Z" fill="#76D2F3"/>
<path d="M236.92 104.43C239.248 113.458 235.252 184.444 235.252 184.444H227.536L224.236 125.283L212.086 184.444L203.836 183.907C209.23 138.079 213.994 110.72 213.994 110.72L213.982 107.264L236.92 104.435V104.43Z" fill="#0F3970"/>
<path d="M232.771 71.004C232.495 75.4269 232.705 79.8336 233.137 83.9398C233.455 86.9456 233.905 89.7851 234.379 92.3454C235.489 98.3517 236.749 102.855 236.929 104.428C233.569 104.841 220.897 106.408 213.991 107.256C205.627 86.3337 208.777 75.2337 208.777 75.2337L214.033 72.5499C214.033 72.5499 214.801 72.3674 215.197 72.2869C217.741 71.7609 222.001 71.3207 224.947 71.0845C225.565 71.0362 226.201 70.9987 226.813 70.9718C229.945 70.843 232.771 71.004 232.771 71.004Z" fill="#76D2F3"/>
<path d="M224.134 70.9845C224.134 70.9845 218.872 74.6988 217.288 74.6827C216.178 74.672 214.57 73.0456 214.57 73.0456C215.38 72.6753 215.944 72.2566 216.304 71.8057C217.402 70.4585 216.766 68.8214 215.872 67.3238L220.486 61.5859C220.552 62.7346 220.726 64.2536 221.08 65.7458C221.602 67.984 222.538 70.1633 224.134 70.9845Z" fill="#FFB573"/>
<path opacity="0.2" d="M221.083 65.7458C220.603 68.2578 219.379 71.1509 216.307 71.8057C217.405 70.4585 216.769 68.8214 215.875 67.3238L220.489 61.5859C220.555 62.7346 220.729 64.2536 221.083 65.7458Z" fill="black"/>
<path d="M207.32 59.3029C207.134 60.8541 208.088 63.8063 210.146 62.4214C212.21 61.0366 207.638 56.6352 207.32 59.3029Z" fill="#263238"/>
<path d="M219.53 59.1691C220.622 62.878 221.468 65.0036 220.094 67.4565C218.024 71.1494 212.366 70.924 210.056 67.5693C207.974 64.5527 206.54 58.9919 210.002 56.4048C213.416 53.8552 218.438 55.4601 219.53 59.1691Z" fill="#FFB573"/>
<path d="M216.131 57.6547L215.195 53.4626C215.195 53.4626 220.109 52.2388 220.403 54.563C223.439 55.2929 223.607 60.9664 220.313 63.516C217.955 62.421 216.791 57.2789 216.791 57.2789C216.593 57.4078 216.365 57.5312 216.137 57.6547H216.131Z" fill="#263238"/>
<path d="M222.225 61.7398C222.243 62.7704 221.727 63.7097 221.055 64.3108C220.041 65.2072 218.829 64.547 218.523 63.3662C218.247 62.3034 218.439 60.5589 219.741 60.1081C221.025 59.6625 222.201 60.5643 222.225 61.7452V61.7398Z" fill="#FFB573"/>
<path d="M213.714 61.9521C213.822 62.2473 213.738 62.5371 213.516 62.6015C213.3 62.6659 213.036 62.4727 212.922 62.1775C212.814 61.8823 212.898 61.5924 213.12 61.528C213.336 61.4636 213.6 61.6568 213.714 61.9521Z" fill="#263238"/>
<path d="M209.948 63.0224C210.056 63.3176 209.972 63.6074 209.75 63.6718C209.528 63.7363 209.27 63.543 209.156 63.2478C209.048 62.9526 209.132 62.6627 209.354 62.5983C209.576 62.5339 209.834 62.7272 209.948 63.0224Z" fill="#263238"/>
<path d="M211.198 62.8335C211.198 62.8335 211.03 64.7014 210.484 65.7373C211.234 66.0325 212.152 65.5226 212.152 65.5226L211.198 62.8281V62.8335Z" fill="#ED893E"/>
<path d="M214.352 66.1492C214.22 66.2029 214.082 66.2566 213.926 66.2995C213.872 66.3156 213.812 66.2888 213.794 66.2405C213.776 66.1922 213.806 66.1385 213.86 66.1278C215.318 65.7091 215.666 64.6087 215.672 64.598C215.684 64.5497 215.744 64.5229 215.798 64.5336C215.852 64.5443 215.888 64.598 215.87 64.6463C215.858 64.6893 215.558 65.6393 214.346 66.1546L214.352 66.1492Z" fill="#263238"/>
<path d="M214.469 60.539C214.403 60.5659 214.325 60.5605 214.265 60.5229C213.509 60.0559 212.807 60.2975 212.801 60.2975C212.693 60.3351 212.573 60.2867 212.531 60.1955C212.489 60.1042 212.537 59.9969 212.645 59.9593C212.681 59.9432 213.563 59.6426 214.499 60.2223C214.595 60.2814 214.613 60.3941 214.553 60.4746C214.535 60.5014 214.505 60.5229 214.475 60.5337L214.469 60.539Z" fill="#263238"/>
<path d="M207.906 62.3394C207.87 62.3555 207.828 62.3609 207.786 62.3555C207.672 62.3394 207.594 62.2482 207.612 62.1462C207.768 61.1425 208.62 60.7882 208.656 60.7667C208.758 60.7238 208.884 60.7667 208.932 60.858C208.98 60.9492 208.932 61.0566 208.836 61.0995C208.8 61.1156 208.146 61.3947 208.026 62.1999C208.014 62.2643 207.972 62.3126 207.912 62.3394H207.906Z" fill="#263238"/>
<path d="M216.792 57.2829C216.792 57.2829 209.076 61.1315 205.692 59.3226C202.308 57.5191 205.692 55.9786 205.692 55.9786C205.692 55.9786 204.623 57.0414 205.631 57.5728C205.631 57.5728 205.854 54.5992 208.74 53.6438C208.74 53.6438 207.966 54.4918 208.284 55.4473C208.284 55.4473 210.204 53.9604 213.558 53.1392C216.912 52.318 225.84 52.8762 216.798 57.2829H216.792Z" fill="#263238"/>
<path d="M217.287 74.683C217.287 74.683 218.571 75.7243 220.035 76.7334C221.799 75.6814 225.879 72.9439 225.381 70.872C225.039 70.287 223.203 70.0938 223.203 70.0938C223.203 70.0938 221.559 72.5575 217.281 74.683H217.287Z" fill="#76D2F3"/>
<path d="M217.289 74.6853C217.289 74.6853 215.957 75.8608 215.183 77.2563C213.695 76.6069 213.869 72.6295 214.319 72.1464C215.333 71.4433 216.617 71.3359 216.617 71.3359C216.617 71.3359 215.873 73.2146 217.289 74.6853Z" fill="#76D2F3"/>
<g opacity="0.2">
<path d="M217.287 74.683C217.287 74.683 218.571 75.7243 220.035 76.7334C221.799 75.6814 225.879 72.9439 225.381 70.872C225.039 70.287 223.203 70.0938 223.203 70.0938C223.203 70.0938 221.559 72.5575 217.281 74.683H217.287Z" fill="white"/>
<path d="M217.289 74.6853C217.289 74.6853 215.957 75.8608 215.183 77.2563C213.695 76.6069 213.869 72.6295 214.319 72.1464C215.333 71.4433 216.617 71.3359 216.617 71.3359C216.617 71.3359 215.873 73.2146 217.289 74.6853Z" fill="white"/>
</g>
<path d="M225.383 70.8768C225.383 70.8768 225.581 77.8654 227.627 86.0401C227.633 86.0562 227.633 86.0616 227.633 86.0616C229.325 92.8247 232.289 100.398 237.467 105.481C237.467 105.481 239.879 110.436 239.093 114.778C239.093 114.778 240.671 114.198 240.989 113.398C241.307 112.604 236.717 102.76 235.607 95.2938C234.503 87.8329 233.867 70.8768 233.867 70.8768C233.867 70.8768 231.761 70.5279 228.143 70.6782C227.303 70.7158 226.379 70.7748 225.383 70.8768Z" fill="#76D2F3"/>
<path opacity="0.7" d="M240.989 113.398C240.671 114.198 239.093 114.778 239.093 114.778C239.879 110.436 237.467 105.481 237.467 105.481C237.137 105.159 236.819 104.827 236.501 104.483C233.597 101.284 231.449 97.2851 229.865 93.1682C228.941 90.7904 228.215 88.3804 227.633 86.0616C227.633 86.0616 227.633 86.0616 227.627 86.0401C227.561 85.7771 227.501 85.5195 227.435 85.2618C225.749 78.1874 225.437 72.1597 225.389 71.0539C225.383 70.9359 225.383 70.8768 225.383 70.8768C226.379 70.7748 227.303 70.7158 228.143 70.6782C231.761 70.5279 233.867 70.8768 233.867 70.8768C233.867 70.8768 234.017 74.8166 234.287 79.7279C234.293 79.803 234.293 79.8728 234.299 79.948C234.383 81.3596 234.473 82.8411 234.569 84.3332H234.575C234.761 87.1244 234.983 89.9316 235.241 92.3202C235.355 93.4098 235.481 94.4189 235.607 95.2938C236.717 102.76 241.307 112.604 240.989 113.398Z" fill="white"/>
<path opacity="0.4" d="M225.383 70.8783C225.383 70.8783 225.581 77.8668 227.627 86.0416C227.633 86.0577 227.633 86.0631 227.633 86.0631L230.663 75.2421L227.459 74.9684L230.663 73.2829L228.143 70.6797C227.303 70.7173 226.379 70.7763 225.383 70.8783Z" fill="white"/>
<path d="M210.853 115.89L211.675 116.421C211.675 116.421 210.487 105.063 210.967 89.927C210.991 89.197 211.021 88.4938 211.051 87.8229C211.663 75.0159 213.883 72.6864 214.027 72.5469L211.951 73.1802L208.189 74.3396C207.079 85.268 210.853 115.89 210.853 115.89Z" fill="#76D2F3"/>
<path opacity="0.7" d="M210.853 115.89L211.675 116.421C211.675 116.421 210.487 105.063 210.967 89.927C210.991 89.197 211.021 88.4938 211.051 87.8229C211.663 75.0159 213.883 72.6864 214.027 72.5469L211.951 73.1802L208.189 74.3396C207.079 85.268 210.853 115.89 210.853 115.89Z" fill="white"/>
<path opacity="0.4" d="M211.795 77.0341L209.419 78.3653C209.419 78.3653 210.037 84.6292 211.051 87.8229C211.663 75.0159 213.883 72.6864 214.027 72.5469L211.951 73.1802C211.123 73.8941 209.851 75.1179 209.125 76.4652L211.795 77.0341Z" fill="white"/>
<path opacity="0.2" d="M233.195 80.1304C233.195 80.1304 233.375 82.5028 234.569 84.3332C234.473 82.841 234.383 81.3596 234.299 79.9479C233.957 79.9318 233.585 79.9908 233.195 80.1304Z" fill="black"/>
<path opacity="0.2" d="M221.649 137.865L224.235 125.278L223.737 118.617C223.737 118.617 220.191 130.168 221.649 137.865Z" fill="black"/>
<path d="M201.411 78.1205C202.875 78.0346 202.953 79.6449 202.275 80.2353C201.597 80.8257 199.353 80.4017 199.383 79.5053C199.413 78.6089 200.103 78.1956 201.405 78.1205H201.411Z" fill="#76D2F3"/>
<path opacity="0.5" d="M201.411 78.1205C202.875 78.0346 202.953 79.6449 202.275 80.2353C201.597 80.8257 199.353 80.4017 199.383 79.5053C199.413 78.6089 200.103 78.1956 201.405 78.1205H201.411Z" fill="white"/>
<path d="M202.91 79.375C202.91 79.375 210.386 93.4058 214.268 96.3311H201.368L191.828 81.1624L202.91 79.375Z" fill="white"/>
<path d="M189.07 79.4508L201.106 78.5061C201.892 78.447 202.636 78.8228 202.978 79.4561L213.046 98.1298C213.196 98.4143 212.986 98.7471 212.632 98.7632L200.656 99.4878C199.888 99.5361 199.168 99.1604 198.826 98.5431L188.662 80.0841C188.506 79.805 188.716 79.4722 189.064 79.4454L189.07 79.4508Z" fill="#263238"/>
<path opacity="0.2" d="M189.07 79.4508L201.106 78.5061C201.892 78.447 202.636 78.8228 202.978 79.4561L213.046 98.1298C213.196 98.4143 212.986 98.7471 212.632 98.7632L200.656 99.4878C199.888 99.5361 199.168 99.1604 198.826 98.5431L188.662 80.0841C188.506 79.805 188.716 79.4722 189.064 79.4454L189.07 79.4508Z" fill="white"/>
<path d="M191.873 90.323L193.043 92.5988C195.071 94.8049 197.045 93.1194 197.045 93.1194L198.581 92.8189C199.103 92.7169 199.247 92.1801 198.929 91.5468L198.125 89.958C197.759 89.2333 196.919 88.6483 196.259 88.6644L194.783 88.6966C194.351 88.7073 193.979 88.8147 193.697 89.0186L191.867 90.3283L191.873 90.323Z" fill="#FFB573"/>
<path d="M201.472 90.221C201.442 90.3498 201.412 90.4786 201.37 90.6021L188.986 91.4448C188.986 91.4448 189.58 85.986 188.764 82.1536C188.182 79.4376 189.52 79.2122 189.52 79.2122L201.43 78.1172C201.43 78.1172 201.418 78.1172 201.412 78.1279C200.122 78.5681 202.57 85.5942 201.472 90.2264V90.221Z" fill="white"/>
<path d="M212.668 185.022H203.008L203.368 182.789H213.028L212.668 185.022Z" fill="#76D2F3"/>
<path d="M236.128 182.789H226.828V185.022H236.128V182.789Z" fill="#76D2F3"/>
<path opacity="0.1" d="M235.241 92.3196C234.971 92.4162 234.695 92.4967 234.419 92.5719C232.901 92.9798 231.287 93.1408 229.865 93.1677C228.599 93.1945 227.483 93.114 226.715 93.012C215.531 91.4876 215.195 89.4372 215.195 89.4372C215.195 89.4372 222.203 89.0185 225.527 87.2258C226.235 86.8447 226.871 86.1362 227.435 85.2613C229.541 82.0193 230.663 76.4531 230.663 76.4531C230.663 76.4531 231.527 77.1348 232.709 78.2191C233.195 78.6592 233.735 79.1691 234.287 79.7273C234.293 79.8025 234.293 79.8723 234.299 79.9474C234.383 81.3591 234.473 82.8405 234.569 84.3327H234.575C234.761 87.1238 234.983 89.931 235.241 92.3196Z" fill="black"/>
<path d="M210.786 83.1484L205.344 90.4483" stroke="#263238" stroke-width="1.12" stroke-linecap="round" stroke-linejoin="round"/>
<path d="M214.527 86.1483L214.653 88.6872C213.717 91.2207 210.285 89.5836 210.285 89.5836L208.275 89.3903C207.597 89.3259 207.063 88.7623 207.027 88.0538L206.925 86.2825C206.877 85.472 207.483 84.7742 208.269 84.7367L210.027 84.6454C210.537 84.6186 211.053 84.7045 211.515 84.8977L214.533 86.1483H214.527Z" fill="#FFB573"/>
<path d="M233.864 70.875C240.554 72.5497 235.016 90.9496 232.568 91.5669C227.924 92.7316 214.022 90.4504 214.022 90.4504L213.992 85.5982C213.992 85.5982 227.372 86.7737 228.5 86.3228C229.958 85.7377 230.666 78.7921 230.984 75.5126C231.302 72.233 233.864 70.8804 233.864 70.8804V70.875Z" fill="#76D2F3"/>
<path opacity="0.7" d="M233.864 70.875C240.554 72.5497 235.016 90.9496 232.568 91.5669C227.924 92.7316 214.022 90.4504 214.022 90.4504L213.992 85.5982C213.992 85.5982 227.372 86.7737 228.5 86.3228C229.958 85.7377 230.666 78.7921 230.984 75.5126C231.302 72.233 233.864 70.8804 233.864 70.8804V70.875Z" fill="white"/>
</g>
<defs>
<clipPath id="clip0_0_2817">
<rect width="300" height="200" fill="white"/>
</clipPath>
</defs>
</svg>
