<svg width="204" height="204" viewBox="0 0 204 204" fill="none" xmlns="http://www.w3.org/2000/svg">
<path d="M73.9822 122.146C73.9822 122.146 70.0467 119.4 68.24 119.899C66.4334 120.398 64.1111 122.937 64.1111 122.937C64.1111 122.937 68.6982 121.617 70.0822 121.892C71.4665 122.167 73.9822 122.146 73.9822 122.146Z" fill="#E0E0E0"/>
<path d="M75.307 123.139C74.7346 124.436 73.7452 125.518 73.1919 126.823C72.5608 128.312 72.5506 130.054 73.1642 131.55C74.2115 130.451 74.8349 129.004 75.172 127.524C75.5086 126.045 75.5632 124.831 75.6306 123.315L75.307 123.139Z" fill="#E0E0E0"/>
<path d="M74.7036 122.799C74.8843 122.269 70.4269 122.5 69.0071 124.219C67.5872 125.938 66.167 127.806 67.3628 132.141C67.3628 132.141 70.0532 127.442 70.0532 127.512C70.0532 127.583 74.3466 123.846 74.7036 122.799Z" fill="#E0E0E0"/>
<path d="M74.7383 122.746C74.3254 122.906 78.374 124.138 80.2422 124.289C82.1104 124.44 83.2402 123.817 83.2402 123.817C83.2402 123.817 80.5262 120.5 74.7383 122.746Z" fill="#E0E0E0"/>
<path d="M95.1921 139.803C95.1921 139.803 97.1412 139.011 97.6895 139.56C98.2379 140.108 100.492 143.093 102.623 143.275C102.623 143.275 100.674 139.133 98.9078 138.463C97.7462 138.023 95.1921 139.803 95.1921 139.803Z" fill="#E0E0E0"/>
<path d="M95.6936 139.58C95.6936 139.58 95.6156 138.117 94.8821 137.347C94.1485 136.577 91.494 136.051 91.494 136.051C91.494 136.051 92.4496 137.583 93.4288 138.329C94.4084 139.075 95.6936 139.58 95.6936 139.58Z" fill="#E0E0E0"/>
<path d="M95.6907 139.496C95.6907 139.496 94.3337 139.475 93.3737 141.172C92.4141 142.869 91.8927 145.001 91.9726 144.86C92.0526 144.718 94.5332 143.632 95.1856 142.259C95.838 140.886 95.6907 139.496 95.6907 139.496Z" fill="#E0E0E0"/>
<path d="M95.9999 139.496C95.9999 139.496 96.2435 142.727 96.7919 143.276C97.3402 143.824 98.1321 145.834 98.1321 145.834C98.1321 145.834 99.3504 142.911 98.6805 141.51C98.0102 140.108 95.9999 139.496 95.9999 139.496Z" fill="#E0E0E0"/>
<path d="M84.1598 145.736C84.0035 145.971 80.8762 148.395 80.407 149.567C79.9378 150.74 80.3287 152.538 80.407 153.085C80.4853 153.632 83.2214 152.381 83.6906 150.271C84.1598 148.16 84.1598 145.736 84.1598 145.736Z" fill="#E0E0E0"/>
<path d="M84.7685 143.92C84.7657 144.311 84.8155 148.142 85.822 149.479C86.8285 150.816 88.6943 152.237 88.6943 152.237C88.6943 152.237 89.3553 147.394 87.9591 145.898C86.5633 144.403 84.7685 143.92 84.7685 143.92Z" fill="#E0E0E0"/>
<path d="M84.3091 144.578C84.0811 144.524 81.252 144.257 79.9072 145.867C78.5625 147.477 77.8085 149.308 77.8085 149.308C77.8085 149.308 82.0859 147.186 82.8701 146.246C83.6551 145.307 84.3091 144.578 84.3091 144.578Z" fill="#E0E0E0"/>
<path d="M86.2545 142.826C86.2545 142.826 87.4054 141.972 88.6772 142.764C89.9489 143.555 92.0611 146.629 92.0611 146.629C92.0611 146.629 89.476 146.461 88.1133 145.166C86.7506 143.873 86.2545 142.826 86.2545 142.826Z" fill="#E0E0E0"/>
<path d="M84.416 143.3C84.416 143.3 82.7742 141.905 81.5233 141.595C80.2723 141.285 76.5979 142.201 76.5979 142.201C76.5979 142.201 78.3176 143.516 80.8586 143.3C83.3997 143.083 84.416 143.3 84.416 143.3Z" fill="#E0E0E0"/>
<path d="M78.9721 157.498C78.9721 157.498 77.7995 159.765 78.9721 161.016C80.1447 162.267 80.7779 164.769 80.7779 164.769C80.7779 164.769 82.8032 162.815 81.7869 160.626C80.7701 158.436 78.9721 157.498 78.9721 157.498Z" fill="#E0E0E0"/>
<path d="M77.0904 157.547C76.7778 157.703 74.7448 160.44 74.5885 162.394C74.4323 164.349 74.276 167.71 74.5885 167.476C74.901 167.241 77.1683 165.13 77.7938 163.098C78.4192 161.065 77.0904 157.547 77.0904 157.547Z" fill="#E0E0E0"/>
<path d="M76.3258 157.333C76.0129 157.411 73.0422 156.864 71.4004 158.975C69.7586 161.086 68.5077 164.135 68.5077 164.135C68.5077 164.135 72.8076 161.936 73.8239 160.729C74.8403 159.522 76.3258 157.333 76.3258 157.333Z" fill="#E0E0E0"/>
<path d="M93.1048 153.58C93.1048 153.58 92.2112 156.238 93.1048 158.584C93.9983 160.929 95.0146 162.493 95.0146 162.493C95.0146 162.493 96.3373 157.802 95.4805 156.551C94.6233 155.3 93.1048 153.58 93.1048 153.58Z" fill="#E0E0E0"/>
<path d="M93.594 153.298C93.9106 153.591 97.5761 158.855 100.069 159.324C102.561 159.794 100.459 159.126 100.459 159.126C100.459 159.126 99.6732 155.578 98.5565 154.109C97.4394 152.641 93.594 153.298 93.594 153.298Z" fill="#E0E0E0"/>
<path d="M93.0354 153.206C93.0354 153.206 95.7417 151.329 96.7992 150.85C97.8816 150.36 101.355 151.002 101.355 151.002C101.355 151.002 97.106 153.213 96.0848 152.979C95.0636 152.744 93.0354 153.649 93.0354 153.649" fill="#E0E0E0"/>
<path d="M102.442 127.61C102.442 127.61 100.097 130.094 100.408 132.035C100.719 133.976 101.411 135.84 101.411 135.84L102.442 132.423V127.61Z" fill="#E0E0E0"/>
<path d="M102.759 127.113C102.759 127.113 102.216 130.917 103.303 132.47C104.39 134.023 105.865 136.973 106.02 136.74C106.175 136.507 108.427 134.489 106.796 131.616C105.166 128.744 102.759 127.113 102.759 127.113Z" fill="#E0E0E0"/>
<path d="M101.972 127.787C101.972 127.787 98.2276 126.7 97.6891 128.486C97.1505 130.272 96.6846 131.824 96.6846 131.824C96.6846 131.824 97.9347 130.487 99.3284 129.642C100.722 128.796 101.972 127.787 101.972 127.787Z" fill="#E0E0E0"/>
<path d="M85.1761 128.793C85.1761 128.793 85.2879 128.692 85.4809 128.527C86.3651 127.773 88.9497 125.697 90.2533 126.015C91.8412 126.403 94.0302 127.388 94.0302 127.388C94.0302 127.388 88.3712 130.329 85.1761 128.793Z" fill="#E0E0E0"/>
<path d="M85.9334 128.82C85.9444 128.537 84.2316 128.083 82.7281 129.635C81.2242 131.188 80.9913 132.141 80.9913 132.141C80.9913 132.141 85.8285 131.498 85.9334 128.82Z" fill="#E0E0E0"/>
<path d="M85.667 129.132C85.667 129.132 83.9468 131.112 85.2667 133.053C86.5866 134.994 87.7298 136.857 87.7298 136.857C87.7298 136.857 88.4071 135.11 87.7298 132.995C87.0525 130.879 85.667 129.132 85.667 129.132Z" fill="#E0E0E0"/>
<path d="M92.1019 134.06C92.0244 133.588 92.6503 129.711 87.5213 130.094H87.0513C87.0513 130.094 89.5042 134.054 90.0656 135.296C90.627 136.538 91.0497 136.926 91.6535 137.47C92.2574 138.013 92.1794 134.533 92.1019 134.06Z" fill="#E0E0E0"/>
<path d="M93.0946 153.42C93.1672 152.213 92.7152 150.982 91.878 150.109C91.7992 150.027 91.6862 149.941 91.5822 149.988C91.5128 150.019 91.4802 150.098 91.4577 150.171C91.2398 150.874 91.3994 151.652 91.7437 152.302C92.0885 152.953 92.6038 153.494 93.1317 154.007" fill="#E0E0E0"/>
<path d="M78.6408 156.995C77.7261 155.316 76.2389 153.955 74.4849 153.193C74.3744 153.144 74.2544 153.098 74.1365 153.122C73.9549 153.159 73.8444 153.352 73.8215 153.536C73.7746 153.913 73.9888 154.27 74.2181 154.572C75.3287 156.038 77.0202 157.049 78.8367 157.335" fill="#E0E0E0"/>
<path d="M99.191 151.27C99.191 151.288 98.927 151.287 98.4561 151.345C97.9869 151.405 97.3093 151.536 96.5202 151.844C95.7323 152.15 94.8364 152.628 93.9396 153.298C93.0383 153.964 92.1375 154.81 91.2105 155.719C89.3471 157.531 87.7053 159.214 86.567 160.48C85.9962 161.111 85.545 161.631 85.2341 161.992C85.0888 162.158 84.9701 162.295 84.8738 162.405C84.7902 162.499 84.7437 162.546 84.7388 162.542C84.7339 162.538 84.7702 162.483 84.8449 162.382C84.9195 162.281 85.0301 162.132 85.1786 161.945C85.4728 161.57 85.9097 161.036 86.4687 160.392C87.5838 159.102 89.2154 157.399 91.0803 155.586C92.0081 154.676 92.9196 153.826 93.8376 153.16C94.7515 152.488 95.6683 152.015 96.4733 151.72C97.2799 151.424 97.9719 151.311 98.448 151.273C98.6867 151.254 98.8727 151.25 98.9984 151.255C99.1249 151.259 99.191 151.264 99.191 151.27Z" fill="#E0E0E0"/>
<path d="M84.6396 161.417C84.6098 161.437 84.3046 160.907 83.6384 160.198C82.9795 159.49 81.9121 158.628 80.5319 158.086C79.1512 157.544 77.7819 157.45 76.8174 157.52C75.8464 157.586 75.2625 157.767 75.2544 157.732C75.2511 157.721 75.3935 157.666 75.6587 157.594C75.9239 157.52 76.3156 157.439 76.8064 157.389C77.7828 157.284 79.1863 157.357 80.6 157.912C82.0129 158.467 83.0917 159.368 83.7355 160.109C84.0611 160.48 84.2928 160.806 84.4372 161.04C84.5825 161.274 84.6494 161.411 84.6396 161.417Z" fill="#E0E0E0"/>
<path d="M85.6474 128.766C85.6506 128.766 85.6494 128.804 85.6441 128.878C85.6368 128.961 85.6278 129.069 85.6164 129.204C85.587 129.503 85.5454 129.923 85.4927 130.457C85.3826 131.544 85.2243 133.117 85.0497 135.064C84.7033 138.954 84.2973 144.342 84.3051 150.303C84.3242 156.265 84.7416 161.652 85.0448 165.547C85.2027 167.485 85.3308 169.058 85.4205 170.16C85.4617 170.695 85.4944 171.115 85.5172 171.415C85.5258 171.55 85.5327 171.658 85.5376 171.742C85.5413 171.816 85.5417 171.853 85.5384 171.854C85.5352 171.854 85.5287 171.817 85.5189 171.744C85.5087 171.66 85.496 171.553 85.4801 171.418C85.4487 171.12 85.4046 170.7 85.3483 170.167C85.2386 169.079 85.0856 167.505 84.9134 165.558C84.5768 161.666 84.1382 156.275 84.119 150.303C84.1109 144.333 84.5388 138.941 84.9187 135.051C85.11 133.106 85.2887 131.534 85.4205 130.449C85.4883 129.917 85.5413 129.498 85.5792 129.2C85.5984 129.066 85.6135 128.959 85.6253 128.876C85.6368 128.803 85.6441 128.766 85.6474 128.766Z" fill="#E0E0E0"/>
<path d="M97.3394 139.26C97.3403 139.273 97.1456 139.302 96.794 139.343C96.4418 139.381 95.9339 139.449 95.3092 139.549C94.0603 139.747 92.3488 140.121 90.5271 140.756C88.7062 141.396 87.135 142.172 86.0358 142.797C85.4854 143.108 85.0456 143.372 84.7469 143.562C84.4462 143.749 84.2765 143.848 84.2692 143.838C84.2618 143.827 84.4181 143.708 84.707 143.501C84.9942 143.292 85.425 143.011 85.9697 142.683C87.0574 142.026 88.6315 141.225 90.4659 140.581C92.3006 139.941 94.0306 139.584 95.2905 139.419C95.9204 139.335 96.4329 139.286 96.7878 139.271C97.1424 139.252 97.3386 139.247 97.3394 139.26Z" fill="#E0E0E0"/>
<path d="M84.6812 137.527C84.6747 137.528 84.658 137.456 84.6319 137.319C84.6045 137.161 84.5694 136.962 84.527 136.717C84.4862 136.455 84.436 136.135 84.3389 135.771C84.2447 135.407 84.1729 134.983 84.015 134.536C83.9436 134.31 83.8693 134.074 83.7918 133.828C83.7159 133.581 83.6021 133.337 83.5042 133.077C83.3157 132.553 83.0439 132.024 82.7738 131.461C82.19 130.356 81.4478 129.194 80.5421 128.071C78.713 125.829 76.6355 124.194 75.0786 123.122C74.6963 122.842 74.3242 122.627 74.0108 122.418C73.6971 122.209 73.4168 122.046 73.1883 121.911C72.9753 121.781 72.8023 121.677 72.6656 121.594C72.5469 121.52 72.4861 121.478 72.4894 121.472C72.4926 121.467 72.5591 121.497 72.6836 121.561C72.8252 121.636 73.0039 121.731 73.2242 121.848C73.4588 121.974 73.7452 122.129 74.0651 122.33C74.385 122.531 74.7628 122.739 75.152 123.014C76.7346 124.061 78.8411 125.692 80.6865 127.954C81.6004 129.087 82.3458 130.263 82.9264 131.383C83.1949 131.954 83.4634 132.49 83.6478 133.021C83.7437 133.284 83.855 133.532 83.9277 133.782C84.0019 134.031 84.0729 134.27 84.1415 134.5C84.292 134.953 84.3557 135.381 84.4409 135.749C84.5291 136.118 84.569 136.441 84.5988 136.706C84.6274 136.954 84.651 137.155 84.6694 137.315C84.6833 137.454 84.6878 137.527 84.6812 137.527Z" fill="#E0E0E0"/>
<path d="M103.028 127.431C103.03 127.437 102.962 127.467 102.832 127.518C102.681 127.575 102.491 127.646 102.257 127.735C101.756 127.915 101.036 128.19 100.153 128.544C98.3868 129.25 95.9824 130.323 93.4377 131.72C90.8943 133.123 88.7017 134.58 87.1594 135.695C86.3879 136.251 85.7702 136.713 85.3496 137.039C85.15 137.19 84.9881 137.312 84.86 137.408C84.7465 137.491 84.6853 137.532 84.6812 137.527C84.6772 137.523 84.7306 137.472 84.8363 137.379C84.9587 137.276 85.1137 137.144 85.3047 136.982C85.7119 136.638 86.3181 136.16 87.0815 135.589C88.607 134.444 90.7959 132.964 93.3476 131.558C95.9004 130.155 98.3219 129.098 100.105 128.422C100.996 128.083 101.725 127.826 102.233 127.666C102.472 127.592 102.666 127.531 102.819 127.483C102.954 127.443 103.026 127.425 103.028 127.431Z" fill="#E0E0E0"/>
<path d="M92.1994 189.344H77.4727L75.9329 171.352H93.9253L92.1994 189.344Z" fill="#E0E0E0"/>
<path d="M95.1207 171.352H74.7938V174.119H95.1207V171.352Z" fill="#E0E0E0"/>
<path d="M94.9889 174.126C94.9889 174.177 90.4434 174.219 84.8379 174.219C79.2299 174.219 74.6856 174.177 74.6856 174.126C74.6856 174.074 79.2299 174.033 84.8379 174.033C90.4434 174.033 94.9889 174.074 94.9889 174.126Z" fill="#EBEBEB"/>
<path d="M156.925 189.62L169.434 189.718L169.557 173.928L157.048 173.831L156.925 189.62Z" fill="#EBEBEB"/>
<path d="M164.672 174.395L164.45 189.683L162.473 189.668L162.897 174.381L164.672 174.395Z" fill="#FAFAFA"/>
<path d="M149.874 174.28L157.051 174.336L169.559 174.433L157.037 176.081L156.931 189.625L149.758 189.568L149.874 174.28Z" fill="#E0E0E0"/>
<path d="M153.781 174.31L153.496 189.598L151.366 189.581L151.714 174.294L153.781 174.31Z" fill="#FAFAFA"/>
<path d="M159.46 169.657C159.463 169.754 159.253 169.853 158.869 169.948C158.484 170.04 157.923 170.132 157.211 170.169C156.855 170.186 156.46 170.187 156.032 170.156C155.818 170.139 155.597 170.117 155.368 170.08C155.135 170.042 154.918 170.008 154.635 169.925C154.496 169.88 154.347 169.826 154.186 169.73C154.027 169.637 153.848 169.498 153.711 169.285C153.57 169.073 153.508 168.806 153.506 168.597C153.501 168.383 153.534 168.21 153.566 168.065C153.685 167.562 153.805 167.044 154.046 166.482C154.167 166.204 154.317 165.929 154.503 165.675C154.6 165.547 154.695 165.431 154.812 165.31C154.931 165.189 155.068 165.074 155.229 164.973C155.391 164.873 155.581 164.788 155.795 164.746C156.009 164.703 156.244 164.711 156.443 164.762C156.846 164.868 157.1 165.073 157.299 165.236C158.059 165.878 158.596 166.6 158.943 167.253C159.289 167.909 159.444 168.491 159.496 168.897C159.544 169.305 159.495 169.538 159.405 169.559C159.202 169.607 158.909 168.802 158.111 167.789C157.712 167.286 157.18 166.735 156.506 166.25C156.348 166.135 156.207 166.067 156.142 166.063C156.109 166.06 156.099 166.064 156.074 166.07C156.05 166.078 156.013 166.095 155.965 166.127C155.918 166.161 155.862 166.209 155.807 166.269C155.751 166.33 155.686 166.413 155.63 166.49C155.517 166.652 155.417 166.835 155.327 167.038C155.151 167.442 155.022 167.925 154.898 168.38C154.872 168.477 154.861 168.547 154.859 168.577L154.857 168.592L154.856 168.594C154.848 168.595 154.828 168.6 154.818 168.603C154.774 168.614 154.762 168.626 154.792 168.608C154.797 168.604 154.826 168.585 154.838 168.573C154.838 168.573 154.837 168.576 154.841 168.579C154.846 168.586 154.856 168.599 154.876 168.613C154.913 168.641 154.978 168.675 155.054 168.706C155.204 168.765 155.422 168.825 155.611 168.874C155.805 168.926 155.997 168.967 156.184 169.006C156.559 169.081 156.918 169.135 157.25 169.18C157.914 169.268 158.469 169.328 158.854 169.403C159.24 169.477 159.457 169.561 159.46 169.657Z" fill="#E0E0E0"/>
<path d="M159.202 169.772C159.167 169.573 160.103 169.28 161.563 168.852C162.289 168.631 163.143 168.363 164.025 167.969C164.242 167.874 164.44 167.77 164.557 167.672C164.615 167.625 164.642 167.583 164.634 167.587C164.625 167.59 164.619 167.643 164.617 167.616C164.612 167.592 164.583 167.512 164.527 167.397C164.467 167.273 164.408 167.149 164.347 167.024C164.227 166.78 164.103 166.552 163.967 166.344C163.83 166.138 163.684 165.958 163.522 165.812C163.442 165.736 163.355 165.672 163.27 165.61C163.192 165.557 163.114 165.515 163.042 165.487C162.894 165.431 162.788 165.424 162.673 165.453C162.553 165.482 162.398 165.573 162.231 165.709C161.513 166.311 160.933 166.974 160.522 167.567C159.683 168.759 159.462 169.691 159.253 169.661C159.162 169.648 159.094 169.393 159.126 168.934C159.159 168.477 159.307 167.817 159.666 167.072C160.024 166.324 160.581 165.512 161.382 164.741C161.598 164.542 161.874 164.316 162.267 164.18C162.662 164.04 163.132 164.062 163.505 164.198C163.695 164.264 163.868 164.352 164.027 164.453C164.175 164.552 164.318 164.656 164.451 164.775C164.719 165.01 164.944 165.287 165.134 165.571C165.321 165.857 165.471 166.144 165.6 166.418C165.662 166.553 165.723 166.686 165.784 166.819C165.845 166.961 165.928 167.141 165.968 167.393C166.014 167.639 165.971 167.981 165.828 168.223C165.692 168.469 165.519 168.62 165.364 168.734C165.052 168.957 164.765 169.066 164.509 169.161C163.493 169.533 162.553 169.713 161.769 169.817C160.199 170.011 159.233 169.954 159.202 169.772Z" fill="#EBEBEB"/>
<path d="M147.591 174.258L165.978 174.401L166.019 169.175L147.632 169.032L147.591 174.258Z" fill="#E0E0E0"/>
<path d="M154.352 174.311L170.972 174.44L171.012 169.214L154.392 169.085L154.352 174.311Z" fill="#EBEBEB"/>
<path d="M165.919 169.179L165.802 174.429L163.864 174.389L163.999 169.164L165.919 169.179Z" fill="#FAFAFA"/>
<path d="M152.148 169.097L151.96 174.3L149.829 174.283L149.944 169.054L152.148 169.097Z" fill="#FAFAFA"/>
<path d="M170.77 189.662L177.858 189.717L177.928 180.77L170.84 180.715L170.77 189.662Z" fill="#EBEBEB"/>
<path d="M175.163 181.037L175.037 189.7L173.917 189.691L174.157 181.029L175.163 181.037Z" fill="#FAFAFA"/>
<path d="M166.777 180.972L170.844 181.003L177.932 181.059L170.836 181.992L170.777 189.667L166.712 189.635L166.777 180.972Z" fill="#E0E0E0"/>
<path d="M168.991 180.989L168.83 189.651L167.623 189.642L167.82 180.98L168.991 180.989Z" fill="#FAFAFA"/>
<path d="M172.209 178.352C172.211 178.483 171.744 178.645 170.932 178.712C170.517 178.735 170.044 178.742 169.446 178.59C169.288 178.536 169.062 178.465 168.872 178.191C168.781 178.056 168.741 177.884 168.74 177.753C168.737 177.618 168.757 177.513 168.775 177.428C168.842 177.139 168.91 176.843 169.051 176.513C169.122 176.351 169.211 176.188 169.321 176.038C169.431 175.893 169.559 175.742 169.76 175.616C169.949 175.489 170.263 175.413 170.521 175.486C170.773 175.553 170.925 175.68 171.041 175.775C171.478 176.15 171.782 176.571 171.975 176.952C172.358 177.727 172.302 178.277 172.178 178.296C172.037 178.329 171.846 177.883 171.387 177.331C171.157 177.057 170.856 176.756 170.48 176.493C170.394 176.431 170.322 176.402 170.309 176.406L170.306 176.408L170.308 176.388L170.311 176.413C170.311 176.415 170.3 176.42 170.281 176.433C170.244 176.458 170.18 176.527 170.119 176.615C170.06 176.7 170.007 176.797 169.959 176.908C169.863 177.125 169.79 177.396 169.719 177.651L169.698 177.739C169.713 177.739 169.65 177.741 169.635 177.744C169.611 177.748 169.594 177.751 169.58 177.755C169.555 177.761 169.549 177.768 169.565 177.757C169.579 177.749 169.601 177.732 169.635 177.696L169.655 177.674V177.675C169.657 177.677 169.658 177.679 169.662 177.682C169.673 177.693 169.705 177.711 169.743 177.728C170.136 177.871 170.598 177.955 170.961 178.012C171.709 178.124 172.208 178.21 172.209 178.352Z" fill="#E0E0E0"/>
<path d="M172.063 178.417C172.037 178.266 172.564 178.064 173.38 177.797C173.786 177.66 174.261 177.5 174.747 177.274C174.866 177.22 174.97 177.161 175.016 177.119C175.039 177.099 175.039 177.086 175.02 177.114C174.999 177.14 174.991 177.211 174.994 177.218C174.948 177.121 174.9 177.022 174.852 176.922C174.785 176.786 174.717 176.663 174.645 176.553C174.572 176.445 174.498 176.353 174.417 176.279C174.333 176.201 174.245 176.141 174.192 176.121C174.131 176.097 174.109 176.095 174.072 176.1C174.032 176.105 173.956 176.143 173.866 176.214C173.468 176.537 173.137 176.898 172.898 177.218C172.411 177.861 172.249 178.375 172.092 178.354C171.956 178.35 171.843 177.724 172.239 176.837C172.436 176.398 172.749 175.922 173.212 175.468C173.339 175.348 173.508 175.206 173.759 175.119C174.011 175.028 174.314 175.042 174.549 175.127C174.668 175.168 174.776 175.223 174.874 175.285C174.965 175.345 175.051 175.408 175.132 175.48C175.295 175.623 175.431 175.789 175.543 175.959C175.655 176.128 175.742 176.297 175.816 176.455L175.921 176.686C175.956 176.768 176.008 176.881 176.035 177.047C176.066 177.209 176.036 177.443 175.94 177.605C175.848 177.77 175.735 177.866 175.637 177.938C175.44 178.077 175.269 178.139 175.12 178.193C174.531 178.401 173.989 178.495 173.539 178.542C172.638 178.627 172.087 178.559 172.063 178.417Z" fill="#E0E0E0"/>
<path d="M165.481 180.957L175.9 181.038L175.923 178.077L165.504 177.996L165.481 180.957Z" fill="#E0E0E0"/>
<path d="M169.311 180.987L178.729 181.061L178.752 178.099L169.334 178.026L169.311 180.987Z" fill="#EBEBEB"/>
<path d="M175.87 178.081L175.803 181.056L174.705 181.033L174.782 178.072L175.87 178.081Z" fill="#FAFAFA"/>
<path d="M168.066 178.035L167.96 180.983L166.752 180.974L166.817 178.01L168.066 178.035Z" fill="#FAFAFA"/>
<path d="M71.3502 17.3449H17.3408V106.746H71.3502V17.3449Z" fill="#E0E0E0"/>
<path d="M69.5538 17.3449H15.5444V106.746H69.5538V17.3449Z" fill="#EBEBEB"/>
<path d="M67.2539 19.1581H17.8443V104.934H67.2539V19.1581Z" fill="#FAFAFA"/>
<path d="M57.6336 30.3038H27.2507V93.7874H57.6336V30.3038Z" fill="#EBEBEB"/>
<path d="M27.2507 71.3225C27.1806 65.3922 32.5127 59.6031 38.3851 58.7749C41.1852 58.3799 44.1607 58.936 46.7772 57.863C51.4476 55.9478 52.9335 49.7426 57.6337 47.9021L57.8483 93.787H27.2507V71.3225Z" fill="#E0E0E0"/>
<path d="M191.449 189.722C191.449 189.781 151.215 189.828 101.596 189.828C51.9604 189.828 11.7357 189.781 11.7357 189.722C11.7357 189.663 51.9604 189.616 101.596 189.616C151.215 189.616 191.449 189.663 191.449 189.722Z" fill="#263238"/>
<path d="M174.868 160.379L90.7086 160.335C88.1063 160.333 85.9978 158.222 85.999 155.62L86.0651 30.7436C86.0663 28.1414 88.1773 26.0328 90.7796 26.0341L174.939 26.0785C177.542 26.0798 179.65 28.1907 179.648 30.793L179.582 155.669C179.581 158.272 177.471 160.381 174.868 160.379Z" fill="#0F3970"/>
<path d="M176.491 35.3385H88.8089V147.496H176.491V35.3385Z" fill="white"/>
<path d="M136.383 153.61C136.382 155.593 134.773 157.2 132.79 157.199C130.807 157.197 129.2 155.589 129.201 153.606C129.203 151.623 130.811 150.016 132.794 150.018C134.777 150.018 136.384 151.627 136.383 153.61Z" fill="#455A64"/>
<path d="M146.454 31.4152L119.259 31.4009C118.985 31.4009 118.763 31.1785 118.763 30.9047L118.764 30.4131C118.764 30.1393 118.986 29.9174 119.26 29.9174L146.454 29.9317C146.728 29.9317 146.95 30.154 146.95 30.4278L146.95 30.9194C146.95 31.1932 146.727 31.4152 146.454 31.4152Z" fill="#455A64"/>
<path d="M172.759 131.978C172.177 131.978 171.706 131.506 171.706 130.924L171.748 51.2978C171.748 50.716 172.22 50.2444 172.802 50.2448C173.384 50.2452 173.856 50.7172 173.855 51.2991L173.813 130.925C173.813 131.507 173.341 131.979 172.759 131.978Z" fill="#E0E0E0"/>
<path d="M151.017 44.5148C151.017 44.5736 142.882 44.6168 132.85 44.6115C122.814 44.6062 114.681 44.5544 114.681 44.4956C114.681 44.4369 122.814 44.3936 132.85 44.3989C142.883 44.4042 151.017 44.4561 151.017 44.5148Z" fill="#263238"/>
<path d="M97.3288 46.5348C97.3312 46.5324 97.3716 46.5295 97.4463 46.5263C97.5409 46.523 97.6478 46.5189 97.7719 46.5144C98.0844 46.5063 98.4838 46.4965 98.9702 46.4838L98.9326 46.5222C98.9281 46.2554 98.9232 45.9649 98.9179 45.6523C98.9196 45.4899 98.9037 45.3394 98.92 45.1501C98.9526 44.9612 99.1207 44.7947 99.328 44.7751C99.523 44.7715 99.6907 44.7625 99.9029 44.7723C100.122 44.7988 100.309 45.0101 100.302 45.2423C100.307 45.6482 100.312 46.0722 100.317 46.5112L100.253 46.4492C100.74 46.4443 101.246 46.4394 101.767 46.4341L101.702 46.5006C101.696 45.891 101.691 45.2606 101.686 44.6148C101.685 44.4536 101.683 44.2937 101.682 44.1346C101.681 43.9889 101.595 43.8938 101.472 43.7821C101.248 43.5613 101.028 43.3435 100.811 43.1293C100.594 42.9155 100.381 42.7049 100.173 42.4989C100.069 42.3961 99.9657 42.2941 99.8637 42.1929C99.7568 42.0897 99.6748 41.9856 99.5544 41.9607C99.4373 41.9289 99.3076 41.9538 99.2133 42.0256C99.1232 42.1015 99.024 42.2121 98.9322 42.3014C98.7458 42.4891 98.5642 42.6719 98.3884 42.8486C98.0469 43.2027 97.689 43.5279 97.432 43.8318C97.3239 43.9987 97.3639 44.2043 97.3557 44.3932C97.3549 44.5801 97.3541 44.758 97.3537 44.9257C97.3508 45.2504 97.3484 45.5365 97.3463 45.7845C97.3431 46.0008 97.3406 46.1819 97.3386 46.3345C97.3349 46.4626 97.332 46.5316 97.3288 46.5348C97.3255 46.5381 97.3218 46.4761 97.3174 46.3537C97.3129 46.2039 97.3076 46.0257 97.301 45.8135C97.2949 45.5634 97.288 45.2749 97.2802 44.9469C97.277 44.7751 97.2733 44.5936 97.2696 44.4022C97.268 44.3051 97.2664 44.206 97.2647 44.104C97.2639 43.9954 97.2917 43.8837 97.3488 43.7845C97.6303 43.4389 97.9632 43.137 98.308 42.771C98.4822 42.5923 98.6621 42.4083 98.847 42.219C98.9445 42.1235 99.0228 42.0297 99.1399 41.9289C99.2627 41.8347 99.4312 41.8008 99.585 41.8416C99.7486 41.8779 99.8547 42.0117 99.9518 42.1035C100.054 42.2039 100.158 42.3055 100.262 42.4079C100.472 42.6131 100.685 42.8229 100.902 43.0358C101.12 43.2492 101.341 43.4667 101.565 43.687C101.673 43.78 101.822 43.9412 101.816 44.1309C101.817 44.2908 101.818 44.452 101.82 44.614C101.824 45.2598 101.829 45.8902 101.833 46.4997L101.833 46.5658L101.767 46.5663C101.246 46.5691 100.74 46.572 100.253 46.5748L100.19 46.5752L100.19 46.5128C100.188 46.0734 100.186 45.6499 100.185 45.2435C100.191 45.064 100.052 44.9057 99.8849 44.8824C99.7131 44.873 99.5055 44.8788 99.3378 44.88C99.1778 44.893 99.044 45.0212 99.0163 45.1688C99.0016 45.3186 99.0126 45.4977 99.0089 45.6515C99.0085 45.9644 99.0081 46.2549 99.0077 46.5218V46.5605L98.9698 46.5601C98.474 46.5552 98.0669 46.5516 97.7486 46.5483C97.6278 46.5458 97.5234 46.5434 97.4312 46.5414C97.3618 46.5393 97.3263 46.5373 97.3288 46.5348Z" fill="#263238"/>
<path d="M166.72 42.4826C166.709 42.4691 166.692 42.4613 166.674 42.4609L163.108 42.4418H162.061L161.753 42.4454L161.726 42.241L161.672 41.84C161.668 41.8102 161.643 41.7881 161.612 41.7881H161.597L160.622 41.793C160.544 41.7951 160.492 41.7963 160.492 41.8575C160.492 41.9179 160.543 41.9199 160.621 41.9232L161.529 41.9424L162.034 45.8518C162.038 45.882 162.063 45.9041 162.093 45.9041L165.006 45.9183L166.1 45.9138C166.193 45.9118 166.24 45.911 166.24 45.8494C166.24 45.7886 166.194 45.787 166.101 45.7837L162.194 45.7307L162.101 45.0379L166.207 45.0942H166.208C166.237 45.0942 166.262 45.0734 166.267 45.0452L166.57 43.4108L166.732 42.5319C166.736 42.5144 166.731 42.4964 166.72 42.4826ZM161.77 42.5723L166.537 42.6343L166.115 44.9212L163.188 44.9073L162.318 44.9081L162.084 44.9114L161.77 42.5723Z" fill="#263238"/>
<path d="M163.182 46.8151C163.173 46.7662 163.138 46.6413 163.017 46.5422C162.923 46.463 162.746 46.3945 162.556 46.461C162.363 46.5222 162.224 46.716 162.224 46.9204C162.22 47.1529 162.384 47.3304 162.547 47.3851C162.604 47.4059 162.659 47.4149 162.712 47.4149C162.836 47.4149 162.944 47.3663 163.01 47.3125C163.135 47.2146 163.171 47.0905 163.18 47.0416C163.186 47.0114 163.193 46.9649 163.186 46.9285C163.193 46.8918 163.187 46.8453 163.182 46.8151ZM162.605 47.2252C162.501 47.1876 162.396 47.0713 162.399 46.9216C162.399 46.7727 162.505 46.6584 162.612 46.6221C162.65 46.6083 162.687 46.6026 162.722 46.6026C162.803 46.6026 162.874 46.6327 162.918 46.6674C163 46.7278 163.032 46.8061 163.044 46.8478C163.053 46.878 163.056 46.9016 163.059 46.9167C163.06 46.9196 163.06 46.9232 163.061 46.9273C163.06 46.9314 163.06 46.9351 163.059 46.9379C163.056 46.953 163.052 46.9767 163.043 47.0069C163.031 47.0481 162.997 47.126 162.914 47.1864C162.849 47.2337 162.73 47.2733 162.605 47.2252Z" fill="#263238"/>
<path d="M165.797 46.8359C165.788 46.787 165.753 46.6625 165.632 46.563C165.537 46.4842 165.36 46.4157 165.171 46.4814C164.978 46.543 164.839 46.7364 164.839 46.9408C164.835 47.1729 164.999 47.3508 165.162 47.4059C165.219 47.4263 165.274 47.4353 165.327 47.4353C165.451 47.4353 165.559 47.3867 165.625 47.3329C165.75 47.2354 165.785 47.1109 165.795 47.062C165.801 47.0318 165.808 46.9848 165.801 46.9485C165.808 46.9098 165.801 46.8604 165.797 46.8359ZM165.22 47.2456C165.118 47.2088 165.011 47.0905 165.014 46.9424C165.014 46.7947 165.123 46.6784 165.227 46.6429C165.264 46.6291 165.302 46.623 165.338 46.623C165.418 46.623 165.489 46.6536 165.533 46.6882C165.615 46.7486 165.647 46.827 165.659 46.8686C165.668 46.8988 165.671 46.9224 165.674 46.9375C165.675 46.94 165.675 46.944 165.676 46.9481C165.675 46.9522 165.675 46.9559 165.674 46.9587C165.671 46.9738 165.667 46.9971 165.658 47.0273C165.645 47.0689 165.612 47.1468 165.528 47.2068C165.464 47.2545 165.345 47.2937 165.22 47.2456Z" fill="#263238"/>
<path d="M111.19 135.475C111.19 136.053 110.771 136.402 110.08 136.401L109.351 136.401L109.351 137.258H109.064L109.065 134.543L110.081 134.544C110.772 134.544 111.19 134.893 111.19 135.475ZM110.903 135.474C110.904 135.04 110.617 134.792 110.073 134.791L109.352 134.791L109.351 136.148L110.073 136.149C110.616 136.149 110.903 135.901 110.903 135.474Z" fill="#263238"/>
<path d="M113.63 135.22L113.629 137.26H113.365L113.366 136.888C113.222 137.136 112.958 137.279 112.632 137.279C112.113 137.279 111.772 136.988 111.772 136.402L111.773 135.219H112.048L112.047 136.375C112.047 136.809 112.272 137.031 112.66 137.031C113.087 137.031 113.354 136.756 113.355 136.29L113.355 135.22L113.63 135.22Z" fill="#263238"/>
<path d="M115.431 135.205V135.473C115.408 135.473 115.384 135.469 115.365 135.469C114.938 135.469 114.678 135.74 114.678 136.221L114.677 137.261H114.402L114.403 135.221H114.667L114.667 135.62C114.794 135.349 115.054 135.205 115.431 135.205Z" fill="#263238"/>
<path d="M115.702 136.241C115.702 135.633 116.145 135.206 116.754 135.206C117.099 135.206 117.389 135.342 117.552 135.61L117.346 135.75C117.207 135.544 116.99 135.447 116.753 135.447C116.307 135.446 115.981 135.764 115.981 136.241C115.981 136.722 116.306 137.037 116.752 137.037C116.989 137.037 117.206 136.944 117.346 136.738L117.551 136.878C117.388 137.141 117.097 137.281 116.752 137.281C116.143 137.281 115.701 136.85 115.702 136.241Z" fill="#263238"/>
<path d="M119.938 136.081L119.937 137.263H119.662L119.663 136.108C119.663 135.677 119.438 135.456 119.05 135.456C118.612 135.455 118.337 135.726 118.336 136.192L118.336 137.263H118.06L118.062 134.385H118.338L118.337 135.579C118.488 135.343 118.756 135.208 119.101 135.208C119.597 135.208 119.938 135.495 119.938 136.081Z" fill="#263238"/>
<path d="M122.227 136.001L122.226 137.265H121.962V136.947C121.838 137.157 121.597 137.285 121.26 137.284C120.799 137.284 120.515 137.043 120.516 136.69C120.516 136.376 120.718 136.112 121.303 136.113L121.951 136.113V135.989C121.951 135.64 121.753 135.449 121.373 135.449C121.109 135.449 120.861 135.542 120.694 135.69L120.57 135.484C120.776 135.31 121.078 135.209 121.4 135.209C121.928 135.209 122.227 135.473 122.227 136.001ZM121.951 136.652V136.318L121.311 136.318C120.916 136.318 120.788 136.473 120.788 136.682C120.788 136.919 120.977 137.067 121.303 137.067C121.613 137.067 121.842 136.919 121.951 136.652Z" fill="#263238"/>
<path d="M122.692 137.032L122.816 136.815C122.979 136.943 123.254 137.044 123.542 137.044C123.93 137.045 124.088 136.913 124.089 136.711C124.089 136.179 122.766 136.598 122.766 135.791C122.766 135.458 123.054 135.209 123.573 135.21C123.837 135.21 124.124 135.283 124.295 135.4L124.174 135.621C123.996 135.497 123.783 135.447 123.573 135.447C123.205 135.446 123.042 135.59 123.042 135.784C123.041 136.334 124.364 135.92 124.364 136.704C124.364 137.057 124.053 137.285 123.522 137.285C123.185 137.285 122.859 137.176 122.692 137.032Z" fill="#263238"/>
<path d="M126.649 136.332L124.942 136.332C124.973 136.758 125.299 137.041 125.745 137.041C125.993 137.041 126.214 136.953 126.369 136.775L126.524 136.953C126.342 137.17 126.059 137.287 125.737 137.286C125.101 137.286 124.667 136.851 124.667 136.246C124.668 135.641 125.091 135.211 125.664 135.211C126.238 135.212 126.653 135.634 126.653 136.247C126.653 136.27 126.649 136.301 126.649 136.332ZM124.943 136.126L126.389 136.127C126.355 135.727 126.064 135.448 125.664 135.448C125.269 135.447 124.978 135.726 124.943 136.126Z" fill="#263238"/>
<path d="M131.227 135.23L130.454 137.269H130.194L129.551 135.597L128.906 137.268H128.646L127.879 135.228H128.143L128.782 136.962L129.438 135.229H129.675L130.325 136.963L130.974 135.23H131.227Z" fill="#263238"/>
<path d="M133.12 136.006L133.119 137.271H132.855V136.953C132.731 137.162 132.49 137.29 132.153 137.29C131.691 137.29 131.408 137.049 131.409 136.696C131.409 136.382 131.611 136.118 132.196 136.119L132.844 136.119V135.995C132.844 135.646 132.647 135.455 132.267 135.455C132.003 135.455 131.755 135.548 131.588 135.695L131.464 135.49C131.67 135.316 131.973 135.215 132.295 135.215C132.822 135.215 133.12 135.479 133.12 136.006ZM132.844 136.658V136.324L132.205 136.324C131.809 136.323 131.681 136.478 131.681 136.688C131.681 136.925 131.87 137.072 132.196 137.072C132.507 137.072 132.736 136.925 132.844 136.658Z" fill="#263238"/>
<path d="M133.585 137.038L133.71 136.821C133.872 136.949 134.148 137.05 134.435 137.05C134.822 137.051 134.981 136.919 134.981 136.717C134.982 136.185 133.659 136.604 133.66 135.797C133.66 135.464 133.947 135.215 134.467 135.216C134.731 135.216 135.017 135.29 135.187 135.406L135.068 135.627C134.889 135.503 134.675 135.453 134.467 135.453C134.098 135.452 133.935 135.596 133.935 135.79C133.935 136.341 135.258 135.926 135.257 136.71C135.257 137.063 134.947 137.292 134.415 137.292C134.077 137.29 133.752 137.181 133.585 137.038Z" fill="#263238"/>
<path d="M136.499 137.039L136.623 136.822C136.786 136.95 137.061 137.051 137.348 137.052C137.736 137.052 137.895 136.92 137.895 136.718C137.895 136.187 136.573 136.605 136.573 135.798C136.573 135.465 136.86 135.217 137.38 135.217C137.644 135.217 137.93 135.291 138.101 135.407L137.981 135.629C137.803 135.504 137.589 135.454 137.38 135.454C137.012 135.454 136.848 135.597 136.848 135.791C136.848 136.342 138.171 135.928 138.171 136.711C138.171 137.064 137.86 137.293 137.329 137.293C136.991 137.292 136.666 137.183 136.499 137.039Z" fill="#263238"/>
<path d="M140.518 135.234L140.517 137.274H140.254V136.902C140.11 137.15 139.846 137.294 139.52 137.294C139.001 137.293 138.66 137.002 138.66 136.416L138.66 135.234H138.936L138.935 136.389C138.935 136.824 139.16 137.045 139.548 137.045C139.975 137.045 140.243 136.77 140.243 136.305L140.243 135.234H140.518Z" fill="#263238"/>
<path d="M141.085 136.254C141.085 135.646 141.527 135.219 142.136 135.219C142.481 135.22 142.772 135.355 142.935 135.623L142.729 135.762C142.59 135.557 142.373 135.459 142.136 135.459C141.69 135.459 141.364 135.777 141.364 136.254C141.363 136.735 141.689 137.049 142.135 137.049C142.372 137.049 142.589 136.957 142.729 136.751L142.934 136.891C142.771 137.154 142.48 137.294 142.135 137.294C141.526 137.294 141.084 136.864 141.085 136.254Z" fill="#263238"/>
<path d="M143.234 136.256C143.234 135.647 143.676 135.22 144.285 135.221C144.63 135.221 144.921 135.356 145.084 135.624L144.878 135.764C144.738 135.558 144.521 135.461 144.285 135.461C143.838 135.46 143.513 135.779 143.512 136.256C143.512 136.737 143.837 137.051 144.284 137.051C144.52 137.051 144.738 136.958 144.877 136.753L145.083 136.892C144.92 137.156 144.629 137.296 144.284 137.295C143.676 137.296 143.233 136.864 143.234 136.256Z" fill="#263238"/>
<path d="M147.365 136.343L145.658 136.343C145.689 136.769 146.014 137.052 146.461 137.052C146.709 137.052 146.93 136.964 147.085 136.786L147.241 136.964C147.058 137.181 146.775 137.298 146.453 137.297C145.817 137.297 145.383 136.862 145.383 136.257C145.383 135.652 145.807 135.222 146.381 135.222C146.954 135.223 147.369 135.645 147.369 136.258C147.369 136.281 147.365 136.312 147.365 136.343ZM145.658 136.137L147.105 136.137C147.07 135.738 146.78 135.458 146.381 135.458C145.984 135.458 145.693 135.737 145.658 136.137Z" fill="#263238"/>
<path d="M147.648 137.046L147.772 136.828C147.935 136.957 148.21 137.057 148.497 137.058C148.885 137.058 149.044 136.926 149.044 136.724C149.044 136.193 147.722 136.611 147.722 135.804C147.722 135.471 148.009 135.223 148.529 135.223C148.793 135.223 149.079 135.297 149.25 135.414L149.13 135.635C148.952 135.51 148.738 135.46 148.529 135.46C148.161 135.46 147.997 135.603 147.997 135.797C147.997 136.348 149.32 135.934 149.32 136.718C149.32 137.07 149.009 137.299 148.478 137.299C148.14 137.298 147.815 137.189 147.648 137.046Z" fill="#263238"/>
<path d="M149.545 137.046L149.669 136.829C149.832 136.957 150.108 137.058 150.395 137.058C150.782 137.059 150.941 136.927 150.941 136.725C150.942 136.193 149.619 136.612 149.619 135.805C149.619 135.471 149.907 135.223 150.426 135.223C150.69 135.223 150.977 135.297 151.147 135.414L151.027 135.635C150.849 135.511 150.635 135.46 150.426 135.46C150.058 135.46 149.895 135.604 149.895 135.797C149.894 136.348 151.217 135.934 151.217 136.718C151.217 137.07 150.907 137.299 150.375 137.299C150.037 137.299 149.712 137.19 149.545 137.046Z" fill="#263238"/>
<path d="M152.04 135V135.241L152.669 135.241V135.474L152.048 135.473L152.047 137.281H151.772L151.773 135.473H151.408V135.241L151.773 135.241V134.989C151.773 134.624 151.99 134.384 152.389 134.384C152.541 134.384 152.696 134.427 152.796 134.512L152.703 134.718C152.626 134.652 152.517 134.617 152.401 134.616C152.165 134.616 152.04 134.748 152.04 135Z" fill="#263238"/>
<path d="M154.88 135.242L154.878 137.282H154.614L154.615 136.91C154.471 137.157 154.207 137.301 153.882 137.301C153.362 137.301 153.021 137.01 153.021 136.424L153.022 135.241H153.297L153.297 136.397C153.297 136.831 153.521 137.053 153.909 137.053C154.336 137.053 154.603 136.778 154.604 136.312L154.604 135.242H154.88Z" fill="#263238"/>
<path d="M155.653 134.405H155.928L155.927 137.283H155.651L155.653 134.405Z" fill="#263238"/>
<path d="M115.547 127.833H114.083V127.139H117.831V127.833H116.367V131.556H115.547V127.833H115.547Z" fill="#0F3970"/>
<path d="M121.69 129.625V131.555H120.902V129.726C120.902 129.126 120.605 128.836 120.101 128.836C119.539 128.836 119.16 129.176 119.16 129.852V131.555H118.372V126.874H119.16V128.578C119.419 128.3 119.817 128.148 120.283 128.148C121.091 128.149 121.69 128.609 121.69 129.625Z" fill="#0F3970"/>
<path d="M125.513 129.58V131.555H124.768V131.145C124.579 131.436 124.213 131.599 123.708 131.599C122.939 131.599 122.453 131.177 122.453 130.59C122.453 130.028 122.832 129.587 123.854 129.587H124.724V129.536C124.724 129.076 124.446 128.805 123.885 128.805C123.506 128.805 123.116 128.931 122.863 129.139L122.554 128.564C122.913 128.287 123.437 128.148 123.979 128.148C124.951 128.149 125.513 128.609 125.513 129.58ZM124.724 130.502V130.11H123.91C123.374 130.11 123.229 130.312 123.229 130.558C123.229 130.842 123.469 131.025 123.872 131.025C124.257 131.026 124.592 130.848 124.724 130.502Z" fill="#0F3970"/>
<path d="M129.839 129.625V131.555H129.051V129.726C129.051 129.126 128.754 128.836 128.25 128.836C127.688 128.836 127.309 129.176 127.309 129.852V131.555H126.521V128.186H127.272V128.622C127.53 128.313 127.94 128.148 128.432 128.148C129.24 128.149 129.839 128.609 129.839 129.625Z" fill="#0F3970"/>
<path d="M132.217 130.11L131.63 130.666V131.555H130.841V126.874H131.63V129.7L133.264 128.186H134.21L132.804 129.599L134.343 131.555H133.384L132.217 130.11Z" fill="#0F3970"/>
<path d="M139.748 128.187L138.171 131.827C137.862 132.59 137.433 132.824 136.872 132.824C136.537 132.824 136.184 132.71 135.97 132.514L136.285 131.934C136.437 132.079 136.651 132.167 136.866 132.167C137.143 132.167 137.307 132.035 137.458 131.7L137.515 131.568L136.045 128.187H136.865L137.925 130.678L138.991 128.187H139.748Z" fill="#0F3970"/>
<path d="M139.867 129.871C139.867 128.861 140.624 128.149 141.658 128.149C142.706 128.149 143.456 128.861 143.456 129.871C143.456 130.88 142.706 131.599 141.658 131.599C140.624 131.599 139.867 130.88 139.867 129.871ZM142.662 129.871C142.662 129.227 142.233 128.817 141.658 128.817C141.091 128.817 140.662 129.227 140.662 129.871C140.662 130.514 141.091 130.924 141.658 130.924C142.233 130.924 142.662 130.514 142.662 129.871Z" fill="#0F3970"/>
<path d="M147.474 128.187V131.556H146.724V131.126C146.471 131.436 146.074 131.6 145.638 131.6C144.774 131.6 144.188 131.126 144.188 130.111V128.187H144.976V130.003C144.976 130.616 145.267 130.906 145.765 130.906C146.314 130.906 146.686 130.565 146.686 129.89V128.187H147.474Z" fill="#0F3970"/>
<path d="M148.363 131.108C148.363 130.836 148.578 130.622 148.874 130.622C149.164 130.622 149.372 130.836 149.372 131.108C149.372 131.378 149.164 131.599 148.874 131.599C148.578 131.599 148.363 131.379 148.363 131.108ZM148.407 127.139H149.341L149.183 130.092H148.559L148.407 127.139Z" fill="#0F3970"/>
<path d="M142.951 61.0372L141.76 77.9133C141.565 80.6685 139.274 82.8044 136.512 82.8044C133.47 82.8044 131.061 80.2332 131.261 77.1985C131.367 75.5922 131.462 74.2768 131.462 74.2768C131.462 74.2768 127.376 73.6415 127.326 69.5567C127.297 67.1972 127.704 61.8434 128.053 57.7418C128.289 54.969 130.61 52.8405 133.393 52.8405H135.86C140.11 53.089 143.317 56.7956 142.951 61.0372Z" fill="#FFBE9D"/>
<path d="M131.463 74.2768C131.463 74.2768 134.037 74.4278 136.781 72.7044C136.781 72.7044 135.466 75.6762 131.389 75.3082L131.463 74.2768Z" fill="#EB996E"/>
<path d="M128.82 61.6431C128.892 61.719 129.334 61.3922 129.962 61.3938C130.589 61.3865 131.05 61.7096 131.118 61.6325C131.151 61.5986 131.078 61.4611 130.877 61.3151C130.68 61.1698 130.343 61.0282 129.952 61.0299C129.561 61.0319 129.232 61.1759 129.043 61.3232C128.85 61.4713 128.784 61.6092 128.82 61.6431Z" fill="#263238"/>
<path d="M134.415 63.3848C134.404 63.6929 134.656 63.956 134.977 63.9736C135.298 63.9907 135.568 63.7557 135.579 63.4477C135.59 63.1396 135.338 62.8761 135.017 62.8589C134.696 62.8414 134.426 63.0768 134.415 63.3848Z" fill="#263238"/>
<path d="M128.811 63.3848C128.8 63.6929 129.052 63.956 129.374 63.9736C129.694 63.9907 129.964 63.7557 129.975 63.4477C129.986 63.1396 129.734 62.8761 129.413 62.8589C129.091 62.8414 128.822 63.0768 128.811 63.3848Z" fill="#263238"/>
<path d="M134.882 61.728C134.954 61.8038 135.397 61.477 136.024 61.4787C136.652 61.4713 137.112 61.7941 137.18 61.7173C137.214 61.6835 137.141 61.546 136.939 61.3999C136.742 61.2543 136.405 61.1131 136.014 61.1147C135.623 61.1168 135.294 61.2608 135.105 61.4081C134.912 61.5562 134.847 61.6937 134.882 61.728Z" fill="#263238"/>
<path d="M132.649 66.6109C132.652 66.575 132.262 66.5077 131.63 66.4269C131.469 66.4106 131.318 66.3783 131.291 66.269C131.253 66.1531 131.32 65.9805 131.398 65.7941C131.549 65.4061 131.706 64.9997 131.872 64.5734C132.53 62.8357 133.006 61.4065 132.936 61.3808C132.866 61.355 132.275 62.7422 131.617 64.4803C131.459 64.9091 131.307 65.3171 131.163 65.7084C131.103 65.8904 130.998 66.0972 131.08 66.3375C131.123 66.4575 131.241 66.5444 131.343 66.5722C131.446 66.6036 131.536 66.6052 131.616 66.6101C132.252 66.6435 132.647 66.6464 132.649 66.6109Z" fill="#263238"/>
<path d="M134.497 67.045C134.395 67.0389 134.394 67.7206 133.81 68.2041C133.228 68.6892 132.502 68.6129 132.496 68.708C132.487 68.7508 132.658 68.8402 132.965 68.8488C133.265 68.859 133.704 68.7627 134.061 68.4669C134.417 68.1703 134.57 67.7745 134.594 67.495C134.619 67.2098 134.543 67.0409 134.497 67.045Z" fill="#263238"/>
<path d="M134.922 59.4517C134.984 59.6223 135.61 59.5415 136.347 59.6304C137.085 59.7043 137.679 59.9201 137.777 59.7667C137.82 59.6937 137.717 59.5329 137.476 59.3677C137.239 59.2028 136.859 59.0458 136.417 58.9968C135.974 58.9487 135.57 59.0188 135.301 59.1278C135.031 59.2367 134.895 59.3709 134.922 59.4517Z" fill="#263238"/>
<path d="M128.723 59.7479C128.833 59.8903 129.265 59.7426 129.786 59.7357C130.305 59.7104 130.746 59.8316 130.847 59.6822C130.892 59.61 130.822 59.4672 130.63 59.3322C130.44 59.1975 130.123 59.0878 129.766 59.0984C129.408 59.1098 129.099 59.2387 128.918 59.3848C128.734 59.5317 128.674 59.6782 128.723 59.7479Z" fill="#263238"/>
<path d="M141.574 64.1029C141.644 64.0727 144.381 63.2726 144.292 66.0654C144.202 68.8582 141.417 68.1927 141.415 68.1123C141.413 68.032 141.574 64.1029 141.574 64.1029Z" fill="#FFBE9D"/>
<path d="M142.302 67.0817C142.315 67.0732 142.35 67.1176 142.43 67.1576C142.51 67.1968 142.647 67.2266 142.794 67.1768C143.093 67.078 143.356 66.6174 143.386 66.1148C143.401 65.861 143.355 65.617 143.272 65.4138C143.193 65.2066 143.065 65.0597 142.918 65.0287C142.771 64.9895 142.663 65.0752 142.626 65.1527C142.586 65.2298 142.602 65.2861 142.587 65.2902C142.579 65.2967 142.529 65.2416 142.555 65.127C142.569 65.0719 142.603 65.007 142.671 64.9556C142.74 64.9034 142.839 64.8785 142.942 64.8932C143.157 64.9148 143.344 65.1192 143.437 65.3424C143.54 65.5668 143.597 65.841 143.58 66.1262C143.544 66.6884 143.239 67.2058 142.832 67.3094C142.634 67.3543 142.472 67.2898 142.389 67.2213C142.305 67.1494 142.292 67.0862 142.302 67.0817Z" fill="#EB996E"/>
<path d="M143.128 64.0083C142.702 63.9054 141.965 64.2983 141.784 64.6974C141.602 65.0964 141.562 65.548 141.381 65.9471C141.2 66.3461 140.791 66.7068 140.364 66.606C140.07 66.5362 139.86 66.2608 139.782 65.9687C139.705 65.6766 139.736 65.3677 139.774 65.0678C139.939 63.7635 140.213 62.4701 140.266 61.1567C140.318 59.8434 140.131 58.4786 139.441 57.3595C138.751 56.2403 137.485 55.4174 136.175 55.5231C135.307 55.5928 134.511 56.0457 133.648 56.1665C132.626 56.3097 131.545 55.949 130.814 55.2203C130.72 55.1269 130.284 54.8397 130.284 54.8397C130.284 54.7719 130.348 54.1889 130.578 53.9759C132.288 52.3937 135.371 51.9523 137.63 52.521C139.89 53.0898 142.008 54.685 142.98 56.8026C143.952 58.9205 143.664 61.8654 143.128 64.0083Z" fill="#263238"/>
<path d="M127.606 57.0049C127.972 57.8532 128.906 58.3468 129.825 58.4403C130.744 58.5337 131.662 58.2954 132.551 58.0433C133.44 57.7912 135.824 57.3958 136.748 57.4239C136.886 57.428 137.053 57.4256 137.126 57.3085C137.223 57.1534 137.068 56.9658 136.924 56.8532C135.706 55.8993 132.763 55.3146 131.218 55.2497C129.673 55.1844 128.05 55.8491 127.213 57.1494" fill="#263238"/>
<path d="M128.008 57.1114C128.008 57.1114 129.199 55.8948 131.05 55.7369C134.582 55.4354 140.375 56.5215 143.417 62.6051C143.417 62.6051 144.053 60.6149 144.053 59.3709C144.053 58.5402 143.556 53.5932 138.466 52.0371C138.466 52.0371 130.797 49.1106 128.008 57.1114Z" fill="#0F3970"/>
<path d="M142.941 61.7382C141.415 59.1726 139.132 57.4089 136.669 55.8699C134.205 54.3309 130.132 52.8091 127.325 52.0637C126.482 51.8401 125.603 51.6442 124.744 51.7927C123.885 51.9413 123.044 52.5133 122.83 53.3586C122.564 54.417 124.442 56.0502 125.325 56.6924C126.207 57.3346 128.008 58.2767 128.008 58.2767C128.008 58.2767 127.983 56.306 131.125 55.9091C135.41 55.368 143.071 61.8479 142.941 61.7382Z" fill="#0C3162"/>
<path d="M137.236 54.0727C137.202 54.1343 136.037 53.3387 134.376 52.9449C132.72 52.5333 131.32 52.7054 131.318 52.6353C131.314 52.6108 131.658 52.5349 132.225 52.5112C132.791 52.4868 133.582 52.5345 134.427 52.7385C135.271 52.9445 135.995 53.2648 136.487 53.5463C136.98 53.8274 137.25 54.0527 137.236 54.0727Z" fill="white"/>
<path d="M158.324 120.637C158.324 120.696 147.879 120.744 134.997 120.744C122.11 120.744 111.667 120.696 111.667 120.637C111.667 120.579 122.11 120.531 134.997 120.531C147.879 120.531 158.324 120.579 158.324 120.637Z" fill="#263238"/>
<path d="M115.038 87.2533L109.032 89.9697L99.7111 82.3724L96.8715 86.8689C96.8715 86.8689 102.179 93.0093 104.145 95.095C106.111 97.1807 107.422 98.2942 108.972 98.0951C110.522 97.896 119.373 93.7246 119.373 93.7246C119.373 93.7246 117.289 87.5164 115.038 87.2533Z" fill="#FFBE9D"/>
<path d="M89.503 78.5408C89.503 78.5408 90.6739 79.4201 91.4389 79.365C92.2039 79.3099 95.1048 79.2948 95.3215 79.3099C95.5381 79.325 98.3664 80.864 98.3664 80.864L100.438 82.8575L97.186 87.3789C97.186 87.3789 96.6491 86.7612 96.2835 86.8085C95.9176 86.8555 91.45 86.4707 90.7772 86.2426C90.1044 86.0146 89.2439 85.882 89.0191 85.4675C88.7943 85.0529 88.7425 84.7596 89.3598 84.2226C89.3598 84.2226 88.5344 83.5849 89.1333 82.793C89.1333 82.793 88.2023 82.1117 88.536 81.4825C88.536 81.4825 88.0077 81.2642 87.922 80.9321C87.8363 80.6 87.9591 79.8836 87.9591 79.8836L89.2929 79.4694C89.2933 79.4686 88.8906 79.0055 89.503 78.5408Z" fill="#FFBE9D"/>
<path d="M88.9799 79.5657C88.9795 79.5498 89.0428 79.538 89.1533 79.5066C89.2647 79.4813 89.4202 79.4115 89.6507 79.405C89.8845 79.4139 90.1366 79.496 90.3749 79.6877C90.6115 79.8717 90.7788 80.2475 90.6523 80.6041C90.596 80.7824 90.4455 80.9297 90.29 80.9941C90.135 81.0639 89.9877 81.0872 89.8551 81.1182C89.6103 81.1688 89.3724 81.2181 89.1378 81.2671C88.7282 81.3458 88.4716 81.3801 88.4646 81.3515C88.4577 81.323 88.7021 81.2369 89.1031 81.121C89.3341 81.0578 89.5687 80.9937 89.8094 80.928C90.0774 80.8607 90.3724 80.7987 90.452 80.5343C90.5418 80.2748 90.4336 79.9953 90.2459 79.8354C90.0636 79.671 89.8237 79.5763 89.6446 79.5555C89.4565 79.5416 89.2855 79.5865 89.1664 79.5886C89.0464 79.5955 88.9799 79.5796 88.9799 79.5657Z" fill="#EB996E"/>
<path d="M90.6519 80.7371C90.6498 80.7228 90.7604 80.6906 90.964 80.6498C91.168 80.6106 91.4658 80.5564 91.8436 80.551C92.2166 80.5486 92.6923 80.5976 93.1333 80.884C93.3471 81.0276 93.5544 81.2483 93.6197 81.5498C93.6854 81.835 93.5883 82.2083 93.2863 82.3781C92.9946 82.5384 92.6988 82.5217 92.4406 82.5511C92.177 82.5719 91.922 82.5919 91.6756 82.611C91.2051 82.6437 90.7706 82.6735 90.3789 82.7008C89.6404 82.7457 89.1823 82.7587 89.1798 82.7294C89.1774 82.7 89.6307 82.6343 90.3663 82.5511C90.7563 82.5103 91.19 82.465 91.6588 82.416C91.9049 82.3928 92.1598 82.3683 92.423 82.3434C92.6874 82.3148 92.9697 82.3148 93.179 82.1945C93.3871 82.0798 93.4622 81.8175 93.4161 81.591C93.3712 81.3646 93.208 81.1741 93.0228 81.0451C92.6413 80.784 92.1994 80.7163 91.8416 80.7012C91.1146 80.689 90.6556 80.7783 90.6519 80.7371Z" fill="#EB996E"/>
<path d="M93.41 82.3724C93.4153 82.3622 93.4948 82.3842 93.5809 82.4984C93.6629 82.6098 93.7347 82.8248 93.6576 83.0758C93.5801 83.3275 93.3365 83.5535 93.0281 83.6641C92.7168 83.7808 92.3614 83.7812 92.0146 83.7983C90.6107 83.864 89.4956 84.1398 89.4805 84.0782C89.4622 84.0272 90.5719 83.6539 92.004 83.5862C92.361 83.5694 92.6919 83.5715 92.9628 83.4793C93.2341 83.3924 93.4397 83.2153 93.5164 83.0248C93.5944 82.8322 93.5601 82.6465 93.5099 82.5409C93.4581 82.4315 93.3993 82.3862 93.41 82.3724Z" fill="#EB996E"/>
<path d="M98.0392 83.1578C98.0477 83.1814 97.8311 83.2932 97.45 83.3854C97.0706 83.4784 96.5222 83.5331 95.9257 83.4544C95.3296 83.3736 94.8147 83.1761 94.4733 82.9868C94.1297 82.7975 93.9502 82.6327 93.9649 82.6123C93.9971 82.5535 94.8021 83.0986 95.9543 83.2438C97.1032 83.4066 98.0233 83.0921 98.0392 83.1578Z" fill="#EB996E"/>
<path d="M93.3887 81.0745C93.4161 81.0199 93.7058 81.1223 94.0636 81.0782C94.4226 81.0431 94.6825 80.8795 94.7213 80.9268C94.7649 80.9635 94.5177 81.2434 94.0868 81.2895C93.6568 81.3389 93.3541 81.1198 93.3887 81.0745Z" fill="#EB996E"/>
<path d="M93.0685 85.5311C93.0138 85.5254 93.1419 84.9113 93.687 84.4083C94.2268 83.8991 94.8482 83.8138 94.8498 83.8689C94.8682 83.9297 94.3235 84.0966 93.8318 84.5637C93.332 85.0215 93.1276 85.5539 93.0685 85.5311Z" fill="#EB996E"/>
<path d="M83.3895 97.2668H101.111L104.399 123.185H79.9288L83.3895 97.2668Z" fill="#FC9741"/>
<path d="M101.111 97.2668H103.161L109.207 123.185H104.399L101.111 97.2668Z" fill="#FC9741"/>
<path opacity="0.3" d="M101.111 97.2668H103.161L109.207 123.185H104.399L101.111 97.2668Z" fill="black"/>
<path d="M91.2137 83.791C91.2141 83.7787 91.2651 83.7616 91.3569 83.7836C91.4475 83.8044 91.5748 83.8795 91.6662 84.0248C91.76 84.1635 91.8069 84.3952 91.7229 84.6111C91.6449 84.8277 91.4675 85.0174 91.2422 85.1353C90.9228 85.2981 90.5964 85.3079 90.3422 85.312L90.4201 85.2598C90.188 85.7057 89.9105 85.9024 89.8897 85.8771C89.8579 85.8481 90.0758 85.6111 90.2561 85.1839L90.2761 85.137L90.3344 85.1317C90.5821 85.1092 90.8808 85.0831 91.1439 84.9473C91.3287 84.851 91.4736 84.7004 91.5405 84.5409C91.6119 84.3797 91.5927 84.2206 91.5348 84.0982C91.4161 83.8444 91.2055 83.822 91.2137 83.791Z" fill="#EB996E"/>
<path d="M87.8918 98.3978C87.8771 98.3957 87.8918 98.2089 87.9301 97.8719C87.9681 97.5349 88.037 97.0493 88.1353 96.452C88.3287 95.2558 88.6527 93.6144 89.035 91.8082C89.4173 90.0015 89.7645 88.3675 89.995 87.1806C90.1035 86.6196 90.1941 86.1488 90.2663 85.7747C90.33 85.4425 90.372 85.2594 90.3867 85.2618C90.4014 85.2638 90.3867 85.4507 90.3483 85.7873C90.3104 86.1239 90.2414 86.6094 90.1431 87.2071C89.9497 88.4034 89.6258 90.0452 89.2431 91.8518C88.8608 93.658 88.514 95.2917 88.2834 96.4785C88.1749 97.0395 88.0843 97.5108 88.0121 97.8845C87.9485 98.2166 87.9065 98.3998 87.8918 98.3978Z" fill="#FC9741"/>
<path d="M97.2472 98.6581C97.2329 98.6618 97.1639 98.4496 97.0513 98.0624C96.933 97.6369 96.7788 97.0836 96.5932 96.4174C96.2153 95.0261 95.7074 93.0999 95.159 90.9697C94.6107 88.8388 94.1256 86.9069 93.7849 85.5058C93.6258 84.833 93.4936 84.2741 93.392 83.8444C93.3039 83.4511 93.2618 83.2316 93.2761 83.2283C93.2904 83.2247 93.3593 83.4372 93.4724 83.8244C93.5907 84.25 93.7449 84.8032 93.9305 85.4695C94.3084 86.8608 94.8163 88.7865 95.3647 90.9171C95.9126 93.0469 96.3977 94.9783 96.7384 96.3794C96.8975 97.0522 97.0297 97.6116 97.1313 98.0412C97.2194 98.4349 97.2615 98.6544 97.2472 98.6581Z" fill="#FC9741"/>
<path d="M109.207 123.185C109.189 123.207 108.864 122.978 108.355 122.588C107.845 122.198 107.15 121.649 106.39 121.032C106.259 120.925 106.13 120.819 106.007 120.719L106.161 120.695C105.684 121.413 105.255 122.043 104.939 122.489C104.623 122.936 104.421 123.199 104.399 123.184C104.376 123.169 104.537 122.88 104.822 122.413C105.106 121.946 105.514 121.302 105.985 120.579L106.048 120.482L106.139 120.555C106.263 120.655 106.393 120.76 106.524 120.867C107.284 121.484 107.963 122.052 108.449 122.471C108.935 122.891 109.226 123.162 109.207 123.185Z" fill="#263238"/>
<path d="M102.188 97.2668C102.246 97.257 103.162 102.481 104.235 108.934C105.308 115.389 106.131 120.628 106.073 120.638C106.015 120.647 105.099 115.424 104.026 108.969C102.953 102.516 102.13 97.2762 102.188 97.2668Z" fill="#263238"/>
<path d="M102.145 104.623C102.145 104.623 102.016 104.772 101.732 105.016C101.449 105.26 101.009 105.6 100.38 105.936C99.7539 106.27 98.9355 106.606 97.9339 106.776C96.9396 106.938 95.7486 106.975 94.5205 106.577C93.9134 106.374 93.2994 106.046 92.8069 105.534C92.3181 105.029 91.9367 104.346 91.8742 103.573C91.8069 102.804 92.1227 101.977 92.7576 101.442C93.0713 101.173 93.4793 100.996 93.9065 100.963C94.3345 100.926 94.769 101.03 95.1566 101.223C95.5434 101.42 95.889 101.705 96.1599 102.057C96.43 102.412 96.6181 102.825 96.7311 103.26C96.9608 104.134 96.9065 105.067 96.7217 105.967C96.3512 107.772 95.3863 109.526 93.9391 110.845C93.2137 111.5 92.3965 112.043 91.5107 112.404C90.629 112.768 89.6768 112.953 88.7469 112.876C87.8191 112.799 86.9285 112.459 86.2243 111.899C85.5164 111.349 85.0125 110.548 84.8754 109.694C84.7314 108.847 84.8905 107.963 85.3516 107.28C85.7979 106.601 86.5719 106.12 87.3703 106.19C87.7665 106.224 88.1308 106.436 88.3691 106.728C88.6127 107.019 88.7518 107.37 88.8224 107.717C88.9656 108.422 88.8232 109.114 88.589 109.71C88.0933 110.91 87.1863 111.734 86.3165 112.242C85.4327 112.748 84.5784 112.981 83.884 113.121C83.1859 113.258 82.6351 113.303 82.2626 113.328C82.0761 113.339 81.9341 113.345 81.8383 113.346C81.7428 113.349 81.6934 113.348 81.6934 113.344C81.6934 113.34 81.742 113.334 81.837 113.325C81.9431 113.315 82.0826 113.302 82.2593 113.285C82.6294 113.247 83.1769 113.189 83.8672 113.04C84.5535 112.889 85.3948 112.646 86.2565 112.14C87.1031 111.633 87.9807 110.817 88.4495 109.654C88.6714 109.079 88.8016 108.411 88.6621 107.751C88.5939 107.424 88.4609 107.099 88.2394 106.839C88.0223 106.577 87.7037 106.395 87.3532 106.366C86.6429 106.305 85.9199 106.746 85.5074 107.385C85.079 108.024 84.9297 108.861 85.0688 109.661C85.201 110.466 85.6747 111.217 86.3507 111.741C87.0215 112.271 87.8767 112.597 88.7641 112.669C90.5625 112.81 92.3953 111.965 93.7963 110.689C95.2096 109.401 96.1542 107.687 96.5185 105.925C96.7009 105.047 96.7523 104.142 96.5356 103.312C96.4296 102.899 96.2513 102.507 96.0024 102.179C95.7511 101.85 95.4279 101.582 95.0689 101.398C94.709 101.218 94.31 101.122 93.9224 101.154C93.5352 101.184 93.1676 101.34 92.8779 101.585C92.292 102.074 91.9905 102.846 92.0509 103.56C92.1052 104.282 92.4618 104.935 92.9265 105.42C93.3932 105.912 93.9816 106.233 94.5703 106.435C95.7608 106.832 96.9359 106.808 97.9159 106.659C98.9045 106.503 99.7172 106.183 100.343 105.863C100.971 105.542 101.416 105.215 101.706 104.983C101.855 104.872 101.958 104.773 102.032 104.713C102.104 104.651 102.142 104.621 102.145 104.623Z" fill="white"/>
<path d="M127.227 79.3156H124.033C123.003 79.6763 114.708 86.7347 114.708 86.7347L119.396 94.1019L125.475 90.547L127.227 79.3156Z" fill="#B5E1F1"/>
<path d="M124.033 79.3156L131.091 76.6367C131.091 76.6367 132.122 78.8007 135.264 78.3368C138.407 77.8729 142.117 75.6579 142.117 75.6579C142.117 75.6579 147.526 78.7493 149.123 80.037C150.72 81.325 147.835 108.322 147.835 108.322L147.114 116.41C147.114 116.41 147.68 116.822 147.68 118.214C147.68 119.604 147.732 120.532 147.732 120.532H119.77C119.77 120.532 119.087 117.286 119.602 115.998C120.117 114.71 120.967 113.422 120.967 113.422L121.405 100.954L121.56 89.8257L124.033 79.3156Z" fill="#B5E1F1"/>
<path d="M149.123 80.037C149.123 80.037 151.379 80.6738 152.048 84.0203C152.717 87.3667 152.596 100.144 152.596 100.144L139.996 97.4157C139.996 97.4157 141.705 92.0517 141.705 91.687C141.705 91.3222 145.173 82.682 145.295 82.4992C145.416 82.3164 149.123 80.037 149.123 80.037Z" fill="#B5E1F1"/>
<path d="M121.346 84.5711C121.405 84.5703 121.485 86.8041 121.526 89.5593C121.567 92.3157 121.552 94.5503 121.494 94.5512C121.435 94.552 121.355 92.319 121.314 89.5621C121.273 86.8069 121.288 84.5719 121.346 84.5711Z" fill="#263238"/>
<path d="M143.281 85.7685C143.296 85.7714 143.278 85.9293 143.234 86.2124C143.19 86.4956 143.117 86.9036 143.018 87.4058C142.821 88.4107 142.514 89.7926 142.116 91.3043C141.718 92.8163 141.306 94.1705 140.983 95.1423C140.822 95.6283 140.685 96.0195 140.584 96.2876C140.483 96.5556 140.421 96.7017 140.407 96.6972C140.393 96.6927 140.429 96.5377 140.505 96.2619C140.597 95.9424 140.709 95.554 140.84 95.0979C141.125 94.1162 141.514 92.7584 141.911 91.25C142.307 89.742 142.637 88.3691 142.871 87.374C142.981 86.9122 143.075 86.5193 143.153 86.1957C143.222 85.9183 143.267 85.7657 143.281 85.7685Z" fill="#263238"/>
<path d="M142.098 85.4981C142.157 85.5013 142.143 86.6527 142.068 88.0697C141.994 89.4871 141.886 90.6331 141.827 90.6303C141.768 90.627 141.782 89.4761 141.856 88.0587C141.931 86.6413 142.039 85.4948 142.098 85.4981Z" fill="#263238"/>
<path d="M138.957 89.718C138.957 89.7767 137.746 89.8241 136.252 89.8241C134.758 89.8241 133.547 89.7763 133.547 89.718C133.547 89.6596 134.758 89.6119 136.252 89.6119C137.746 89.6119 138.957 89.6592 138.957 89.718Z" fill="white"/>
<path d="M124.517 108.061L138.458 106.386L140.657 97.5589L148.456 99.248C148.456 99.248 145.372 111.501 142.192 112.685C139.013 113.87 123.285 111.868 123.285 111.868L124.517 108.061Z" fill="#FFBE9D"/>
<path d="M123.949 107.961C123.949 107.961 122.274 107.271 121.627 107.175C120.98 107.08 120.218 107.221 120.026 107.532L116.263 109.713C116.263 109.713 113.483 109.45 113.22 110.073C113.22 110.073 111.446 109.57 111.158 109.929C111.158 109.929 110.272 110.217 110.415 110.624C110.559 111.031 113.771 112.158 113.771 112.158L118.18 112.613C118.18 112.613 119.858 111.702 120.553 111.63C121.248 111.559 122.633 111.815 122.55 111.788C122.493 111.77 125.121 112.084 125.121 112.084C125.121 112.084 125.657 111.51 125.873 109.929C126.089 108.347 125.873 108.011 125.873 108.011L123.949 107.961Z" fill="#FFBE9D"/>
<path d="M122.087 109.973C122.089 109.984 121.968 109.99 121.814 109.866C121.655 109.755 121.522 109.493 121.279 109.326C121.155 109.249 120.988 109.216 120.797 109.181C120.612 109.148 120.373 109.09 120.195 108.916C120.019 108.751 119.902 108.514 119.872 108.256C119.839 108.003 119.908 107.703 120.106 107.497C120.501 107.099 121.065 107.015 121.508 107.111C121.957 107.209 122.304 107.439 122.56 107.65C122.817 107.865 122.995 108.065 123.116 108.204C123.235 108.345 123.295 108.428 123.285 108.438C123.258 108.466 122.978 108.162 122.467 107.769C122.21 107.581 121.875 107.38 121.47 107.304C121.077 107.224 120.58 107.319 120.262 107.642C119.954 107.964 120.057 108.516 120.331 108.776C120.599 109.054 121.059 108.979 121.362 109.202C121.648 109.431 121.737 109.688 121.869 109.805C121.99 109.934 122.093 109.955 122.087 109.973Z" fill="#EB996E"/>
<path d="M119.761 109.245C119.759 109.28 119.549 109.268 119.251 109.402C118.947 109.518 118.585 109.827 118.047 109.972C117.49 110.087 117.027 109.909 116.704 109.867C116.378 109.805 116.173 109.82 116.168 109.788C116.161 109.762 116.375 109.692 116.722 109.718C117.064 109.728 117.531 109.868 117.998 109.764C118.464 109.644 118.858 109.353 119.2 109.261C119.541 109.152 119.769 109.222 119.761 109.245Z" fill="#EB996E"/>
<path d="M119.853 110.999C119.859 111.011 119.772 111.074 119.599 111.165C119.426 111.256 119.164 111.366 118.827 111.46C118.153 111.657 117.173 111.724 116.118 111.617C115.593 111.551 115.096 111.471 114.643 111.404C114.194 111.325 113.779 111.301 113.44 111.135C113.277 111.054 113.141 110.928 113.081 110.788C113.018 110.652 113.007 110.518 113.027 110.415C113.073 110.201 113.208 110.153 113.207 110.163C113.222 110.177 113.121 110.246 113.109 110.426C113.097 110.601 113.197 110.879 113.505 111C113.799 111.128 114.222 111.145 114.671 111.21C115.13 111.271 115.622 111.337 116.138 111.405C117.178 111.51 118.127 111.468 118.79 111.314C119.457 111.169 119.837 110.965 119.853 110.999Z" fill="#EB996E"/>
<path d="M140.773 109.952C140.71 109.97 140.481 109.103 139.868 108.209C139.265 107.308 138.545 106.773 138.586 106.721C138.608 106.674 139.414 107.151 140.044 108.09C140.681 109.023 140.825 109.948 140.773 109.952Z" fill="#EB996E"/>
<path d="M36.8057 158.132L36.2724 185.369L42.8685 186.076L47.4006 158.344L43.84 153.866L36.8057 158.132Z" fill="#FFBE9D"/>
<path d="M43.6776 184.731L43.6739 185.175C43.6739 185.175 51.1787 188.29 51.2427 189.722L36.2724 189.472V184.485C38.4809 185.553 41.095 185.718 43.6776 184.731Z" fill="#0F3970"/>
<path d="M34.0786 74.9162C33.9713 73.6616 33.2181 72.3923 32.0178 72.0112L30.6367 72.8035C29.1818 73.4735 28.4115 75.3425 28.9717 76.8427C27.1675 77.8697 26.5473 80.5249 27.7105 82.2447C26.8146 82.6596 26.4311 83.7547 26.4466 84.7416C26.4621 85.729 26.7791 86.6874 26.8672 87.6706C26.9353 88.4299 26.8672 89.2023 27.0067 89.9518C27.1463 90.7013 27.5531 91.4642 28.2605 91.7494C29.0039 92.0489 29.8917 91.72 30.4319 91.128C30.9717 90.536 31.2197 89.7335 31.3487 88.9428C31.7208 86.6633 31.2369 84.2822 31.8109 82.0451C32.1239 80.8256 32.7371 79.7085 33.25 78.5588C33.7636 77.4095 34.1859 76.1708 34.0786 74.9162Z" fill="#263238"/>
<path d="M33.4164 74.7542C31.8521 74.7436 30.3262 73.8292 29.5792 72.4547C28.8325 71.0801 28.8954 69.3021 29.7375 67.9842C29.8648 67.7851 30.0194 67.5872 30.2393 67.4999C30.7036 67.3159 31.1855 67.6929 31.5433 68.0414C32.4038 68.8798 33.2642 69.7182 34.1247 70.5567" fill="#263238"/>
<path d="M33.4878 71.5293C31.549 70.613 30.0255 68.4396 29.46 66.3706C28.8945 64.302 29.5457 60.1115 30.1043 58.0409C30.784 55.5211 31.8313 58.7634 32.6885 59.0294C33.1989 59.1877 33.5568 59.6696 33.7102 60.1816C33.8636 60.6937 33.8464 61.2392 33.8277 61.7732C33.7147 65.0254 33.6012 68.2776 33.4878 71.5293Z" fill="#263238"/>
<path d="M38.4446 50.9743C41.687 49.2321 44.2876 50.2615 45.5524 51.2505C46.8172 52.2395 47.5801 53.7462 48.044 55.2836C48.5079 56.8209 48.7111 58.4235 49.0881 59.9846C49.4047 61.2963 49.4014 61.3799 49.5871 62.7165C49.7731 64.0531 49.7115 66.4379 49.0277 67.6011C48.3704 68.7194 47.6626 69.7158 46.5777 70.4269C46.1872 70.6827 45.7258 70.9504 45.2806 70.8088C44.9575 70.7064 44.7388 70.4134 44.5442 70.136C41.0285 65.116 38.2573 59.5753 36.3491 53.7511" fill="#263238"/>
<path d="M34.8354 54.7193L40.4503 52.4566L41.9207 52.6206C45.2276 52.6165 47.5254 56.2526 47.5597 58.9307C47.5981 61.9059 47.5271 65.5399 47.0648 67.7354C46.135 72.1499 42.6959 72.5453 42.6959 72.5453C42.6959 72.5383 42.7363 73.7509 42.7714 75.2315C42.8347 77.8925 40.6653 80.0688 38.0039 80.0149C35.467 79.9631 33.4352 77.897 33.4258 75.3597L33.3552 56.2371C33.3801 55.4231 34.0231 54.7642 34.8354 54.7193Z" fill="#FFBE9D"/>
<path d="M46.1272 61.8765C46.1228 62.1784 45.8633 62.4236 45.5479 62.4248C45.2333 62.4261 44.9808 62.1829 44.9853 61.881C44.9897 61.5791 45.2492 61.3334 45.5638 61.3326C45.8796 61.331 46.1317 61.575 46.1272 61.8765Z" fill="#263238"/>
<path d="M46.3871 60.4497C46.3125 60.5207 45.8963 60.1792 45.2819 60.1498C44.6686 60.1119 44.2023 60.4052 44.1395 60.3265C44.1085 60.2914 44.1872 60.1608 44.3904 60.0278C44.5907 59.8952 44.9273 59.7737 45.3096 59.7941C45.6919 59.8153 46.0069 59.9724 46.1844 60.1258C46.3663 60.2804 46.4234 60.4179 46.3871 60.4497Z" fill="#263238"/>
<path d="M42.6364 65.2564C42.6352 65.2213 43.0203 65.1748 43.6429 65.1262C43.8004 65.1176 43.9505 65.094 43.9824 64.9883C44.0248 64.8769 43.9681 64.7047 43.9012 64.5183C43.7727 64.1315 43.6384 63.726 43.4973 63.3008C42.9387 61.5684 42.5425 60.147 42.6123 60.1254C42.6825 60.1033 43.1921 61.4897 43.751 63.2221C43.8849 63.6492 44.0134 64.056 44.135 64.4457C44.1856 64.6268 44.2774 64.8341 44.1856 65.0654C44.1374 65.1805 44.0183 65.2596 43.9163 65.2817C43.8143 65.3074 43.7261 65.3045 43.6482 65.3053C43.0236 65.3082 42.6372 65.2914 42.6364 65.2564Z" fill="#263238"/>
<path d="M42.6964 72.5449C42.6964 72.5449 39.6931 72.5877 36.8167 70.6562C36.8167 70.6562 38.2496 73.8203 42.7245 73.6273L42.6964 72.5449Z" fill="#EB996E"/>
<path d="M42.2439 66.5848C42.0113 66.2241 41.6531 66.0605 41.2545 66.0621C40.9779 66.0634 40.6992 66.1784 40.5328 66.4077C40.3667 66.637 40.3341 66.9859 40.4891 67.2404C40.6637 67.5273 41.024 67.6301 41.3279 67.5693C41.6319 67.5089 41.8922 67.318 42.1395 67.1262C42.2076 67.0732 42.2778 67.0177 42.3198 66.9389C42.3622 66.8606 42.2978 66.6603 42.2439 66.5848Z" fill="#EB996E"/>
<path d="M40.8077 65.5905C40.9077 65.5897 40.8759 66.2564 41.4226 66.7582C41.9681 67.2613 42.6825 67.2221 42.6833 67.3155C42.6906 67.358 42.5185 67.4371 42.2182 67.4302C41.9236 67.4257 41.4985 67.3094 41.1639 67.0026C40.8302 66.695 40.7 66.3004 40.691 66.0258C40.68 65.7459 40.7624 65.5844 40.8077 65.5905Z" fill="#263238"/>
<path d="M46.2986 58.7329C46.1835 58.8667 45.7678 58.701 45.2594 58.6684C44.7523 58.6182 44.3153 58.7149 44.2235 58.5643C44.1835 58.4913 44.2586 58.355 44.4532 58.2322C44.6454 58.1098 44.9608 58.018 45.31 58.0462C45.6588 58.0747 45.9555 58.2163 46.1252 58.3681C46.2978 58.5207 46.3496 58.6672 46.2986 58.7329Z" fill="#263238"/>
<path d="M39.3414 61.841C39.3271 62.1429 39.5703 62.4036 39.8853 62.4244C40.1994 62.4452 40.4662 62.2184 40.4809 61.9169C40.4952 61.6154 40.252 61.3538 39.9379 61.333C39.6229 61.3118 39.3561 61.5395 39.3414 61.841Z" fill="#263238"/>
<path d="M38.1916 60.3775C38.2614 60.453 38.6984 60.138 39.3132 60.1474C39.9277 60.1478 40.3749 60.4701 40.4422 60.3954C40.4752 60.3624 40.4046 60.2269 40.2104 60.0817C40.0187 59.9368 39.6906 59.794 39.3075 59.7908C38.9244 59.7879 38.6005 59.925 38.4136 60.067C38.2231 60.2098 38.1574 60.344 38.1916 60.3775Z" fill="#263238"/>
<path d="M38.4597 58.4285C38.5662 58.5692 38.9913 58.4301 39.5009 58.4297C40.0101 58.4113 40.4405 58.5354 40.5413 58.3905C40.5858 58.3199 40.5197 58.1796 40.3328 58.0449C40.1488 57.9107 39.8396 57.7993 39.4895 57.8054C39.1394 57.812 38.8347 57.9348 38.6555 58.0755C38.474 58.2167 38.4128 58.3595 38.4597 58.4285Z" fill="#263238"/>
<path d="M39.8024 51.9821C38.3805 51.4092 36.2059 51.6026 34.9852 52.53C33.7644 53.4574 33.0019 54.9074 32.7236 56.415C32.4454 57.9226 32.8187 60.1559 33.2165 61.6366C35.518 58.6725 37.8869 55.2522 40.108 52.2269L39.8024 51.9821Z" fill="#263238"/>
<path d="M40.891 50.6353C48.6907 49.5361 47.9702 61.3322 47.9702 61.3322C47.1909 56.9858 41.1411 52.4382 41.1411 52.4382L39.9109 52.2305L40.891 50.6353Z" fill="#263238"/>
<path d="M33.8395 63.7549C33.8554 63.4236 33.5115 62.6231 33.1867 62.5554C32.3197 62.3755 30.7407 62.3665 30.6151 64.5852C30.4429 67.6183 33.5237 67.1654 33.5339 67.0785C33.5417 67.0112 33.7848 64.8994 33.8395 63.7549Z" fill="#FFBE9D"/>
<path d="M33.0757 65.8773C33.0631 65.8667 33.0207 65.9112 32.9293 65.9471C32.8399 65.9818 32.6885 66.001 32.5339 65.9328C32.2202 65.797 31.9794 65.2731 31.9958 64.7256C32.0035 64.4489 32.0761 64.1895 32.1867 63.9773C32.292 63.7606 32.4441 63.6138 32.6073 63.5946C32.7697 63.5664 32.8787 63.6697 32.9109 63.757C32.9468 63.8443 32.924 63.9039 32.9399 63.9096C32.9476 63.9177 33.0076 63.8626 32.9905 63.7362C32.9815 63.675 32.9501 63.6015 32.8819 63.5391C32.8126 63.4759 32.7073 63.4395 32.5943 63.4453C32.3593 63.4481 32.1369 63.6513 32.0158 63.8843C31.8819 64.1172 31.7934 64.409 31.7848 64.719C31.7693 65.3314 32.05 65.921 32.4813 66.0728C32.6914 66.1405 32.8734 66.0862 32.9692 66.0197C33.0659 65.9504 33.0859 65.8835 33.0757 65.8773Z" fill="#EB996E"/>
<path d="M30.2728 56.4994C31.048 54.4199 32.6163 52.7022 34.4454 51.4451C35.4262 50.7707 36.5184 50.2056 37.7 50.0645C38.882 49.9229 40.1676 50.2636 40.9534 51.1575L41.1729 51.3815C39.831 54.3546 38.8865 56.8703 37.1598 59.6378C36.5254 60.6549 36.252 64.1176 36.099 65.3061C35.5768 69.3657 33.3552 71.103 33.3552 71.103C28.5498 71.1062 29.4976 58.579 30.2728 56.4994Z" fill="#263238"/>
<path d="M84.3666 91.1868C84.1602 91.401 84.1084 91.8682 84.2304 92.1342C84.3523 92.4002 84.5906 92.5932 84.8366 92.7519C85.2459 92.3321 85.5861 91.8449 85.8399 91.3161" fill="#EB996E"/>
<path d="M82.5943 90.6711C82.3413 90.8273 82.1748 91.2672 82.2271 91.5548C82.2793 91.8429 82.4625 92.0889 82.6612 92.3035C83.1618 91.9983 83.6122 91.6107 83.9892 91.1615" fill="#EB996E"/>
<path d="M42.3577 77.2165C42.3577 77.2165 55.7781 87.7775 58.1959 88.1227C60.6137 88.4683 71.9357 87.0974 76.5795 86.9518L77.2381 90.849C77.2381 90.849 64.4126 95.2036 59.75 95.3761C55.0869 95.5487 52.4088 94.29 52.4088 94.29L43.689 85.3597L42.3577 77.2165Z" fill="#FFBE9D"/>
<path d="M76.285 86.9921C76.285 86.9921 82.2764 86.1382 83.2079 86.6041C84.1394 87.0701 86.8159 89.3304 86.8159 89.3304C86.8159 89.3304 87.7065 91.8404 87.1455 91.9587C86.5845 92.0766 86.0023 91.1452 86.0023 91.1452L85.2455 89.7478L81.8986 88.9334L76.3437 89.4246L76.285 86.9921Z" fill="#FFBE9D"/>
<path d="M77.2385 90.849C77.3254 90.9542 79.4645 91.9885 80.5535 91.9583C81.6424 91.9281 82.8885 91.0795 83.8265 91.2092C84.764 91.339 86.7086 91.4891 86.9448 91.1529C87.181 90.8172 87.2479 90.4259 86.9285 90.1236C86.6086 89.8208 85.0374 89.523 83.9032 89.219C82.7689 88.9151 82.223 88.445 82.223 88.445L75.6261 89.1721L75.2515 91.2305L77.2385 90.849Z" fill="#FFBE9D"/>
<path d="M80.0924 88.3781C80.0924 88.3634 80.2148 88.3548 80.438 88.352C80.6599 88.3593 80.9839 88.3822 81.3735 88.465C82.1606 88.6094 83.1842 89.0195 84.3168 89.3989C84.8868 89.5866 85.434 89.7131 85.9501 89.7841C86.2083 89.8236 86.4825 89.8873 86.6792 90.0668C86.8779 90.2467 86.9448 90.5046 86.9227 90.718C86.9044 90.9363 86.7861 91.1182 86.6494 91.2186C86.5131 91.3222 86.3683 91.361 86.2524 91.37C86.0153 91.3834 85.904 91.2961 85.9105 91.2896C85.9158 91.2704 86.0341 91.3251 86.2418 91.288C86.4368 91.2582 86.7583 91.0778 86.773 90.7066C86.7828 90.5311 86.7175 90.3279 86.5629 90.199C86.4074 90.0648 86.1745 90.0105 85.9215 89.9779C85.4021 89.9175 84.826 89.791 84.2516 89.6013C83.1022 89.2161 82.1034 88.7902 81.3405 88.6115C80.5824 88.412 80.0908 88.4177 80.0924 88.3781Z" fill="#EB996E"/>
<path d="M84.4099 89.6197C84.3882 89.6715 83.917 89.5083 83.4409 89.1313C82.9627 88.7563 82.6942 88.3365 82.7391 88.3031C82.7868 88.2647 83.1161 88.6074 83.5722 88.964C84.0255 89.3247 84.436 89.5646 84.4099 89.6197Z" fill="#EB996E"/>
<path d="M30.7971 157.238L18.6354 162.654L20.0969 169.147C20.0969 169.147 35.3916 164.589 40.4075 163.576C45.41 162.565 53.5174 161.273 55.8075 156.421L30.7971 157.238Z" fill="#FFBE9D"/>
<path d="M21.2637 169.266L20.8394 169.38C20.8394 169.38 19.8627 177.353 18.5167 177.793L14.7851 163.472L19.5346 162.149C19.103 164.535 19.6395 167.068 21.2637 169.266Z" fill="#0F3970"/>
<path d="M55.7463 156.607C55.7463 156.607 55.7197 156.732 55.6169 156.948C55.5178 157.166 55.3297 157.471 55.0339 157.818C54.4435 158.517 53.4068 159.346 52.0335 160.211C51.3362 160.637 50.5218 161.007 49.6254 161.339C48.7299 161.685 47.7242 161.895 46.6923 162.159C44.6185 162.682 42.343 163.279 39.9558 163.91C35.1875 165.169 30.8721 166.308 27.726 167.138C26.1716 167.534 24.9076 167.856 24.0112 168.085C23.5852 168.186 23.247 168.267 22.9973 168.327C22.7648 168.38 22.6419 168.404 22.6403 168.397C22.6383 168.39 22.7578 168.352 22.9867 168.285C23.234 168.216 23.5685 168.123 23.9904 168.005C24.8827 167.761 26.141 167.416 27.6877 166.993C30.8109 166.144 35.1255 164.967 39.902 163.704C42.2896 163.074 44.5671 162.482 46.6454 161.969C47.6866 161.708 48.6801 161.508 49.5659 161.173C50.4553 160.851 51.2668 160.492 51.9559 160.082C53.3301 159.239 54.3721 158.435 54.9723 157.763C55.5826 157.096 55.7214 156.593 55.7463 156.607Z" fill="#EB996E"/>
<path d="M36.427 104.448L36.7016 106.843C36.7016 106.843 32.4907 114.803 32.4907 119.075C32.4907 123.347 30.5474 157.35 30.5474 157.35C30.5474 157.35 53.3929 158.65 55.8079 156.421C58.2224 154.192 58.2224 154.192 58.2224 154.192L66.3951 151.963L53.6455 105.439V102.947L36.427 104.448Z" fill="#181B1C"/>
<path d="M42.7241 75.5057C42.614 75.2462 50.8282 81.7966 51.8605 84.9872C52.8927 88.1778 53.0677 97.3814 53.0677 97.3814L53.6451 103.29L37.2455 104.448L36.8057 103.29L35.5939 99.9975L33.9048 95.024C33.9048 95.024 29.8627 88.7461 29.0598 86.0415C28.063 82.6836 29.715 79.2442 29.715 79.2442L33.4254 75.0577L42.7241 75.5057Z" fill="#B5E1F1"/>
<path d="M33.4262 75.3592C33.4262 75.3592 32.5172 73.6709 33.0778 72.9361C33.5237 72.3519 41.4193 73.0842 43.0309 73.4257C43.9771 73.626 43.0134 75.7362 43.0134 75.7362L33.4262 75.3592Z" fill="#B5E1F1"/>
<g opacity="0.3">
<path d="M38.1562 83.314C38.8445 85.0945 37.8726 90.6233 37.7225 91.9395C37.5723 93.2557 37.1986 94.5348 36.8163 95.8033C36.6384 96.3928 36.4691 97.0722 36.8028 97.5895C37.3406 98.423 38.7278 98.1872 39.3989 98.918C38.15 99.5018 36.7106 99.6687 35.3614 99.3859C35.1251 99.3366 34.8754 99.2635 34.7224 99.0771C34.6041 98.933 34.5621 98.7429 34.5254 98.5601C34.137 96.6246 33.9648 94.6172 34.3361 92.6784C34.7073 90.7396 36.558 86.0843 38.1154 84.8709" fill="black"/>
</g>
<path d="M38.4438 85.7559C38.4956 85.7706 38.2467 86.671 37.6555 87.6494C37.0692 88.6314 36.3916 89.2745 36.3544 89.2353C36.3071 89.1929 36.9012 88.4997 37.4736 87.5401C38.0513 86.5841 38.3842 85.7342 38.4438 85.7559Z" fill="#263238"/>
<path d="M43.0313 75.5347C43.0338 75.5489 42.9004 75.5853 42.656 75.6383C42.412 75.6934 42.0554 75.7546 41.6123 75.8141C40.7265 75.9345 39.4879 76.0186 38.1227 75.9512C36.7571 75.8815 35.5331 75.673 34.6641 75.4645C34.2291 75.3609 33.8803 75.2642 33.6433 75.185C33.4054 75.1075 33.2765 75.0581 33.2806 75.0443C33.2899 75.0116 33.8236 75.1491 34.6955 75.318C35.567 75.4877 36.7812 75.6701 38.1337 75.7395C39.4854 75.806 40.7119 75.7464 41.596 75.6652C42.4801 75.5844 43.0252 75.5012 43.0313 75.5347Z" fill="#263238"/>
<path d="M48.8086 91.392C48.7723 91.3806 48.9159 90.9403 49.0265 90.21C49.1391 89.4813 49.1823 88.4532 48.9881 87.3442C48.7894 86.2361 48.3949 85.2854 48.0387 84.6396C47.6838 83.9917 47.3982 83.6282 47.4279 83.6049C47.4394 83.5955 47.5193 83.6792 47.6552 83.8395C47.7939 83.9974 47.9718 84.2446 48.1689 84.5649C48.5654 85.203 48.9939 86.1708 49.1974 87.3075C49.397 88.4446 49.3272 89.5005 49.1746 90.2357C49.0995 90.6041 49.0175 90.8979 48.9416 91.0937C48.8686 91.2908 48.8225 91.3965 48.8086 91.392Z" fill="#263238"/>
<g opacity="0.3">
<path d="M37.9395 75.8137C36.6478 75.7003 35.1272 75.5453 33.8677 75.236C35.7441 76.2405 38.0325 76.7611 40.1443 76.4939C40.9338 76.3939 41.7645 76.1715 42.2876 75.5718C41.0795 76.0442 39.2312 75.9267 37.9395 75.8137Z" fill="black"/>
</g>
<g opacity="0.3">
<path d="M47.197 93.2688C48.6695 91.7339 49.3949 89.5127 49.1118 87.4046C49.3349 88.2279 49.3802 88.6825 49.4149 89.5348C49.4496 90.3871 49.346 91.2039 48.8425 91.8926C48.3394 92.5817 48.0481 92.9987 47.197 93.2688Z" fill="black"/>
</g>
<path d="M35.7657 79.7257C34.0076 78.2626 31.3364 78.4617 29.939 80.2728C29.8799 80.3495 29.8236 80.4278 29.7705 80.5074C28.9195 81.784 26.5702 101.675 27.5061 104.058C28.4425 106.441 29.804 106.271 29.804 106.271C29.804 106.271 35.9562 106.202 40.3818 105.181C44.8074 104.16 49.7425 102.483 49.7425 102.483L48.9245 97.665C48.9245 97.665 38.088 99.0999 35.1092 98.7597L36.2463 89.0762C36.2463 89.0762 38.8355 85.9203 38.0929 83.0268C37.7404 81.6522 36.7298 80.5278 35.7657 79.7257Z" fill="#FFBE9D"/>
<path d="M52.3403 94.7041L54.7728 93.0689L56.5239 91.5923C56.5239 91.5923 56.7397 92.3243 56.1946 93.148C55.65 93.9722 54.7373 95.2043 54.7373 95.2043L52.3403 94.7041Z" fill="#FFBE9D"/>
<path d="M55.9711 93.7184C55.9507 93.7017 56.1077 93.5315 56.2783 93.179C56.4427 92.8351 56.5953 92.2553 56.4366 91.6184L56.5823 91.6617C56.0645 92.1044 55.4733 92.6095 54.8413 93.1497L54.8372 93.1533L54.8319 93.1566C54.7907 93.1843 54.7463 93.2141 54.7018 93.2443C54.1604 93.6046 53.6442 93.9481 53.1669 94.2664C52.6956 94.5809 52.2677 94.8588 51.887 95.0579C51.1379 95.4761 50.6679 95.7217 50.6528 95.6964C50.6381 95.6711 51.0808 95.3798 51.8078 94.9302C52.1775 94.7152 52.5965 94.4251 53.0608 94.1019C53.5345 93.7804 54.0461 93.4328 54.5835 93.0681C54.6279 93.0383 54.6724 93.0085 54.7132 92.9807L54.7042 92.9877C55.3436 92.4561 55.9417 91.9587 56.4652 91.523L56.5802 91.4275L56.6108 91.5666C56.7687 92.2831 56.5712 92.8767 56.3725 93.2276C56.2722 93.4055 56.1714 93.5311 56.0967 93.6087C56.0213 93.687 55.9784 93.7249 55.9711 93.7184Z" fill="#EB996E"/>
<path d="M51.4619 98.8111C51.5447 98.6466 57.9421 91.5164 59.5182 89.7608C59.7239 89.5315 60.0572 89.4695 60.3322 89.6078C60.7341 89.8102 60.8336 90.3389 60.5325 90.6735L52.3399 99.7837L51.4619 98.8111Z" fill="#263238"/>
<path d="M58.2726 95.6956C58.535 95.3398 58.1425 94.6433 57.7806 94.4524C57.4187 94.2615 55.9711 95.0603 55.9711 95.0603L55.4464 95.1076C55.4464 95.1076 52.6369 94.5389 52.5431 94.585C52.5051 94.6038 51.417 95.0558 50.5133 95.8078C50.2191 96.0526 49.9825 96.3561 49.7732 96.6764C49.5586 97.0044 49.0326 97.5459 47.8091 97.838L49.0012 102.68C49.0012 102.68 51.6137 102.065 51.8111 102.063C52.009 102.061 54.1963 101.885 54.4872 101.837C54.7785 101.789 56.0131 101.403 56.9495 100.707C57.8858 100.011 57.4489 99.4186 57.4489 99.4186C58.4183 98.7609 57.6627 98.1069 57.6627 98.1069L57.9336 97.6438C58.3346 96.9041 57.5235 96.4969 57.5235 96.4969C57.5235 96.4969 58.0103 96.0514 58.2726 95.6956Z" fill="#FFBE9D"/>
<path d="M56.3293 97.1986C56.3126 97.1452 56.619 97.0061 56.9662 96.7906C57.3151 96.5781 57.577 96.3667 57.6174 96.4059C57.6561 96.4406 57.4415 96.7294 57.069 96.9575C56.6978 97.1876 56.3432 97.2488 56.3293 97.1986Z" fill="#EB996E"/>
<path d="M57.1502 98.5145C57.1159 98.4724 57.2155 98.3337 57.373 98.2048C57.5305 98.0754 57.6855 98.0045 57.7202 98.0465C57.7545 98.0881 57.6549 98.2268 57.4974 98.3561C57.3399 98.4855 57.1845 98.5565 57.1502 98.5145Z" fill="#EB996E"/>
<path d="M56.8614 99.5875C56.8561 99.5324 57.0188 99.4737 57.2094 99.4002C57.4007 99.3284 57.5611 99.2644 57.5937 99.3088C57.626 99.3509 57.4983 99.5006 57.2788 99.5834C57.0601 99.6671 56.865 99.6405 56.8614 99.5875Z" fill="#EB996E"/>
<path d="M55.9711 95.0599C55.976 95.1215 55.3101 95.2072 54.4913 95.2692C53.6708 95.3255 53.0168 95.399 53.0037 95.3496C52.987 95.2851 53.6492 95.1138 54.4745 95.0575C55.2987 94.9955 55.9666 95.0048 55.9711 95.0599Z" fill="#EB996E"/>
<path d="M35.2524 98.6707C35.2965 98.7095 34.8097 99.3349 34.1655 100.067C33.5213 100.8 32.9631 101.362 32.9191 101.324C32.875 101.285 33.3613 100.66 34.006 99.927C34.6506 99.1946 35.2084 98.6324 35.2524 98.6707Z" fill="#EB996E"/>
<path d="M37.9995 85.5184C37.9791 85.5139 38.0289 85.3014 38.066 84.9126C38.1039 84.5258 38.1317 83.9554 37.9877 83.2769C37.8445 82.5996 37.5005 81.8346 36.9489 81.0998C36.4144 80.3585 35.6253 79.6885 34.6608 79.2638C33.6971 78.8427 32.6482 78.7546 31.7893 79.0765C30.9142 79.3442 30.2614 79.9027 29.9219 80.5033C29.571 81.0982 29.4307 81.6555 29.3381 82.0325C29.2483 82.4131 29.214 82.6286 29.1957 82.6257C29.1883 82.6249 29.1896 82.5702 29.1985 82.4666C29.2087 82.3634 29.2202 82.21 29.2573 82.0158C29.3262 81.6294 29.4441 81.0565 29.7926 80.427C29.9672 80.1149 30.2128 79.7954 30.5429 79.5265C30.8713 79.256 31.2793 79.0414 31.7281 78.8909C32.6221 78.5424 33.7498 78.6294 34.7457 79.0688C35.7473 79.509 36.5646 80.2132 37.1068 80.9839C37.6637 81.7424 38.0073 82.5441 38.135 83.2471C38.2647 83.9521 38.2117 84.5347 38.1484 84.9232C38.117 85.119 38.0819 85.2683 38.0521 85.3679C38.0244 85.4682 38.0064 85.5201 37.9995 85.5184Z" fill="#263238"/>
<path d="M68.2633 66.236H51.5341C50.8474 66.236 50.2905 66.7929 50.2905 67.4795V83.6918C50.2905 84.3785 50.8474 84.9354 51.5341 84.9354H57.6937L60.0996 88.3451L62.1878 84.9354H68.2637C68.9508 84.9354 69.5073 84.3785 69.5073 83.6918V67.4795C69.5073 66.7925 68.9504 66.236 68.2633 66.236Z" fill="#FAFAFA"/>
<path d="M68.2633 66.2359C68.2633 66.2359 68.4412 66.2005 68.7549 66.3184C68.9084 66.3808 69.0895 66.4926 69.2486 66.6811C69.4033 66.8696 69.5346 67.1417 69.5395 67.4677C69.5465 68.7378 69.5567 70.5754 69.5689 72.8864C69.5754 75.2075 69.5832 78.0027 69.5918 81.1736C69.5934 81.9668 69.5946 82.7836 69.5962 83.6225C69.6224 84.0627 69.4024 84.5335 69.0189 84.7926C68.8284 84.9219 68.6028 85.0064 68.3694 85.0235C68.1372 85.0346 67.9287 85.0272 67.7052 85.0297C65.943 85.0317 64.0993 85.0337 62.187 85.0362L62.2726 84.988C61.6129 86.0676 60.9075 87.2214 60.1874 88.3993L60.1053 88.5336L60.0144 88.4046C59.2494 87.3214 58.435 86.1688 57.6068 84.9962L57.6928 85.0407C56.3134 85.0411 54.8532 85.0411 53.3738 85.0415C52.7006 85.0366 52.0543 85.0521 51.3705 85.0305C51.0139 84.9893 50.681 84.7967 50.4655 84.5148C50.2411 84.2398 50.1624 83.8522 50.184 83.529C50.1844 82.2283 50.1852 80.9468 50.1856 79.6873C50.1877 77.1687 50.1897 74.7395 50.1918 72.4245C50.1934 71.2674 50.1946 70.1389 50.1963 69.0426C50.1983 68.493 50.1999 67.9516 50.2016 67.4183C50.2195 66.8414 50.6491 66.3273 51.1877 66.1939C51.4627 66.1184 51.7226 66.1584 51.9719 66.1486C52.2248 66.149 52.4753 66.1495 52.7234 66.1503C53.2199 66.1515 53.7071 66.1523 54.1849 66.1535C55.14 66.156 56.0568 66.158 56.9323 66.1605C60.4256 66.1748 63.2559 66.1862 65.2229 66.1943C66.1939 66.2029 66.952 66.2098 67.4767 66.2143C67.7272 66.2188 67.9218 66.2225 68.063 66.2249C68.196 66.2286 68.2633 66.2359 68.2633 66.2359C68.2633 66.2359 68.1956 66.2433 68.0634 66.247C67.9226 66.2494 67.7276 66.2531 67.4771 66.2576C66.952 66.2621 66.1943 66.269 65.2233 66.2776C63.2563 66.2857 60.426 66.2971 56.9327 66.3114C56.0576 66.3135 55.1404 66.3159 54.1853 66.3184C53.7075 66.3196 53.2204 66.3204 52.7238 66.3216C52.4753 66.322 52.2248 66.3229 51.9723 66.3233C51.7185 66.3326 51.459 66.2988 51.2338 66.3657C50.767 66.4824 50.397 66.9304 50.3835 67.4277C50.3835 67.9581 50.3835 68.4971 50.3835 69.0438C50.3852 70.1401 50.3864 71.2686 50.388 72.4257C50.3901 74.7403 50.3921 77.1699 50.3941 79.6885C50.3945 80.948 50.3954 82.2295 50.3958 83.5303C50.3782 83.8542 50.4439 84.1435 50.6336 84.3866C50.816 84.6249 51.0963 84.7869 51.3962 84.8212C52.0294 84.8395 52.7124 84.8261 53.3742 84.8301C54.8536 84.8306 56.3134 84.8306 57.6933 84.831H57.7479L57.7793 84.8758C58.6064 86.0492 59.4195 87.2027 60.1837 88.2867L60.0107 88.2924C60.7324 87.1158 61.4399 85.9627 62.1013 84.8844L62.1307 84.8363H62.187C64.0993 84.8383 65.9426 84.8407 67.7052 84.8428C67.9222 84.8412 68.1519 84.8481 68.3547 84.8391C68.5558 84.8252 68.7496 84.753 68.9149 84.642C69.2466 84.4148 69.4379 84.0235 69.4167 83.6233C69.4184 82.7848 69.42 81.968 69.4212 81.1745C69.4298 78.0039 69.4379 75.2083 69.4441 72.8872C69.4563 70.5767 69.4657 68.739 69.4726 67.4689C69.4734 67.1597 69.3535 66.8981 69.2091 66.7133C69.0601 66.5293 68.8884 66.4159 68.7411 66.3502C68.4408 66.2245 68.2609 66.2494 68.2633 66.2359Z" fill="#263238"/>
<path d="M62.7006 78.0618C62.7006 78.0643 62.6615 78.0667 62.5864 78.0691C62.5048 78.0708 62.3955 78.0732 62.258 78.0765C61.9646 78.0798 61.5517 78.0842 61.0413 78.09C60.0029 78.0944 58.57 78.101 56.9572 78.1083H56.9238L56.9193 78.0753C56.8887 77.8594 56.8564 77.6305 56.8234 77.3988C56.5496 75.418 56.3052 73.6505 56.1453 72.4951L56.1694 72.5159C55.7091 72.5118 55.3419 72.5085 55.0816 72.5061C54.9605 72.5036 54.8646 72.5016 54.7924 72.4999C54.7267 72.4979 54.6924 72.4955 54.6924 72.4934C54.6924 72.491 54.7267 72.4889 54.7924 72.4865C54.8646 72.4849 54.9605 72.4824 55.0816 72.4795C55.3415 72.4763 55.7091 72.4722 56.1694 72.4669L56.1906 72.4665L56.1934 72.4877C56.3599 73.6419 56.6141 75.4082 56.8993 77.3874C56.9319 77.6191 56.9642 77.848 56.9948 78.0638L56.9568 78.0308C58.5692 78.0332 60.0025 78.0357 61.0409 78.0373C61.5513 78.0414 61.9642 78.0451 62.2575 78.0475C62.3954 78.0504 62.5044 78.0524 62.586 78.0541C62.6615 78.0569 62.7006 78.0594 62.7006 78.0618Z" fill="#263238"/>
<path d="M56.9136 78.1818C56.8813 78.1773 56.8552 78.152 56.8507 78.1189L56.0841 72.5897L54.7911 72.575C54.6753 72.5714 54.6222 72.5697 54.619 72.4975C54.6202 72.4192 54.6769 72.4171 54.7903 72.4135L55.0804 72.4065L56.1898 72.3935C56.2273 72.3931 56.2587 72.42 56.264 72.4567L57.0547 77.9582L62.5876 77.981C62.7214 77.9847 62.772 77.9863 62.7745 78.0598C62.7745 78.061 62.7745 78.0626 62.7745 78.0638C62.7728 78.1373 62.7227 78.1389 62.5888 78.1434L62.2592 78.1508L61.0417 78.1642L56.9238 78.1826C56.9205 78.1826 56.9168 78.1822 56.9136 78.1818Z" fill="#263238"/>
<path d="M56.7891 76.8807C56.7891 76.8794 56.7989 76.8786 56.8177 76.8774C56.8405 76.8766 56.8683 76.8754 56.9026 76.8741C56.9825 76.8725 57.0919 76.8705 57.231 76.8676C57.5235 76.8647 57.9397 76.8603 58.4603 76.8549C59.5154 76.8501 60.9907 76.8431 62.6986 76.8354L62.6623 76.866C62.7867 76.1524 62.9214 75.3808 63.0609 74.582C63.1331 74.1711 63.2037 73.7676 63.2714 73.3829L63.309 73.4277C61.3257 73.4253 59.575 73.4237 58.3134 73.422C57.6896 73.418 57.1873 73.4147 56.8344 73.4127C56.6655 73.4102 56.5321 73.4082 56.4358 73.4065C56.3938 73.4053 56.3599 73.4041 56.3326 73.4033C56.3093 73.402 56.2975 73.4008 56.2975 73.3996C56.2975 73.3984 56.3093 73.3971 56.3326 73.3959C56.3599 73.3951 56.3938 73.3939 56.4358 73.3923C56.5321 73.3906 56.6651 73.3882 56.8344 73.3849C57.1873 73.3816 57.6896 73.3772 58.3134 73.3714C59.575 73.3665 61.3257 73.3596 63.309 73.3515L63.3547 73.351L63.3469 73.3959C63.2796 73.7807 63.209 74.1842 63.1372 74.595C62.9968 75.3935 62.861 76.165 62.7353 76.8782L62.73 76.9088H62.699C60.9911 76.9055 59.5158 76.9031 58.4607 76.9011C57.9405 76.8974 57.5239 76.8941 57.2314 76.8921C57.0923 76.8896 56.9829 76.888 56.903 76.8864C56.8687 76.8851 56.8409 76.8839 56.8181 76.8831C56.7989 76.8827 56.7891 76.8819 56.7891 76.8807Z" fill="#263238"/>
<path d="M56.7916 76.9557C56.7593 76.9512 56.7145 76.9361 56.7149 76.8798C56.7157 76.8088 56.7891 76.8048 56.8136 76.8031L57.2298 76.7933L58.4595 76.7807L62.6052 76.7615L63.1755 73.5016L56.3305 73.4771C56.2971 73.4755 56.222 73.4718 56.2236 73.398C56.2249 73.3278 56.295 73.3241 56.3285 73.3221L56.8328 73.3111L59.355 73.2931L63.3538 73.2772C63.3759 73.2772 63.3967 73.2866 63.4106 73.3033C63.4248 73.32 63.4305 73.3421 63.4269 73.3637L62.8022 76.9219C62.7961 76.9574 62.7651 76.9831 62.7292 76.9831L56.8144 76.9574C56.8095 76.9578 56.8014 76.9569 56.7916 76.9557Z" fill="#263238"/>
<path d="M58.3954 79.6269C58.3885 79.6273 58.3881 79.5759 58.3628 79.4902C58.3379 79.4062 58.2783 79.2846 58.1514 79.1924C58.0286 79.0998 57.8287 79.0492 57.6369 79.1218C57.4464 79.1887 57.2828 79.3919 57.2852 79.6281C57.2832 79.8648 57.4476 80.0676 57.6382 80.1337C57.8303 80.2059 58.0303 80.1549 58.1527 80.0618C58.2795 79.9688 58.3383 79.8472 58.3632 79.7632C58.3881 79.6779 58.3881 79.6265 58.3954 79.6269C58.3987 79.6265 58.4093 79.6783 58.3921 79.7709C58.375 79.8615 58.3203 79.9974 58.1857 80.1055C58.0555 80.2136 57.8336 80.2789 57.6141 80.201C57.3966 80.13 57.2057 79.8995 57.2081 79.6285C57.2053 79.3576 57.3954 79.1267 57.6125 79.0553C57.8316 78.9766 58.0539 79.0414 58.1845 79.1491C58.3195 79.2569 58.3746 79.3927 58.3917 79.4833C58.4093 79.5755 58.3987 79.6273 58.3954 79.6269Z" fill="#263238"/>
<path d="M57.7197 80.303C57.6773 80.2969 57.6332 80.2862 57.5892 80.2707C57.3619 80.1965 57.1314 79.9517 57.1339 79.6281C57.1306 79.3058 57.3603 79.0602 57.5892 78.9851C57.8527 78.8909 58.1004 78.9839 58.2314 79.0924C58.4027 79.2287 58.4513 79.4017 58.4643 79.4698C58.4709 79.5045 58.4815 79.5747 58.4717 79.6273C58.4815 79.68 58.4713 79.7501 58.4648 79.7848C58.4517 79.8529 58.4036 80.0259 58.2318 80.1634C58.1237 80.2532 57.9339 80.3332 57.7197 80.303ZM57.894 79.1659C57.8226 79.1557 57.7438 79.161 57.663 79.1912C57.5096 79.245 57.357 79.4119 57.3591 79.6277C57.3574 79.8448 57.5104 80.0112 57.6626 80.0643C57.8426 80.132 58.0151 80.0737 58.1078 80.0035C58.2269 79.9162 58.2742 79.8028 58.2918 79.7428C58.3044 79.6995 58.3101 79.6661 58.3138 79.6445C58.3146 79.64 58.3154 79.6338 58.3171 79.6273C58.3154 79.6208 58.3146 79.6151 58.3138 79.6106C58.3101 79.589 58.3044 79.5551 58.2914 79.5119C58.2734 79.4523 58.2261 79.3389 58.1078 79.2528C58.0559 79.2132 57.9809 79.1781 57.894 79.1659Z" fill="#263238"/>
<path d="M62.0915 79.6216C62.0845 79.622 62.0841 79.5706 62.0588 79.4849C62.0339 79.4008 61.9744 79.2793 61.8475 79.1871C61.7247 79.0944 61.5247 79.0438 61.333 79.1165C61.1425 79.1834 60.9793 79.3866 60.9813 79.6228C60.9797 79.8594 61.1437 80.0618 61.3342 80.1283C61.5264 80.2005 61.7263 80.1495 61.8487 80.0565C61.9756 79.9639 62.0343 79.8419 62.0592 79.7579C62.0841 79.6726 62.0845 79.6212 62.0915 79.6216C62.0947 79.6212 62.1053 79.673 62.0882 79.7656C62.0711 79.8562 62.0164 79.992 61.8817 80.1002C61.7516 80.2083 61.5292 80.2736 61.3101 80.1956C61.0927 80.1246 60.9021 79.8941 60.9042 79.6232C60.9013 79.3523 61.0915 79.1214 61.3085 79.05C61.5276 78.9716 61.75 79.0361 61.8805 79.1438C62.0156 79.2515 62.0706 79.3874 62.0878 79.478C62.1053 79.5702 62.0947 79.622 62.0915 79.6216Z" fill="#263238"/>
<path d="M61.4162 80.2977C61.3734 80.2915 61.3297 80.2809 61.2853 80.2654C61.058 80.1912 60.8275 79.9464 60.8303 79.6228C60.8267 79.3005 61.0564 79.0553 61.2853 78.9798C61.5488 78.8852 61.7961 78.9782 61.9275 79.0867C62.0988 79.223 62.1474 79.396 62.1604 79.4641C62.1669 79.4988 62.1776 79.569 62.1678 79.6216C62.1776 79.6742 62.1674 79.7444 62.1608 79.7791C62.1478 79.8472 62.0996 80.0198 61.9279 80.1581C61.8197 80.2479 61.63 80.3283 61.4162 80.2977ZM61.5896 79.1606C61.5186 79.1504 61.4395 79.1557 61.3587 79.1858C61.2053 79.2397 61.0527 79.4066 61.0551 79.6224C61.0535 79.8395 61.2065 80.0059 61.3583 80.059C61.539 80.1271 61.7108 80.0684 61.8034 79.9982C61.9226 79.9109 61.9699 79.7974 61.9874 79.7375C62.0001 79.6946 62.0058 79.6608 62.0095 79.6391C62.0103 79.6347 62.0111 79.6285 62.0127 79.622C62.0115 79.6155 62.0103 79.6098 62.0095 79.6053C62.0058 79.5836 62.0001 79.5498 61.987 79.5065C61.9691 79.447 61.9213 79.3335 61.803 79.2475C61.752 79.2079 61.6769 79.1728 61.5896 79.1606Z" fill="#263238"/>
<path d="M65.4134 73.981C65.4134 75.0447 64.5509 75.9072 63.4872 75.9072C62.4236 75.9072 61.5611 75.0451 61.5611 73.981C61.5611 72.9174 62.4232 72.0548 63.4872 72.0548C64.5513 72.0552 65.4134 72.9174 65.4134 73.981Z" fill="#FF725E"/>
<path d="M62.386 74.0222L62.6745 73.7342L63.2302 74.2283L64.3212 73.1785L64.5888 73.4665L63.189 74.784L62.386 74.0222Z" fill="white"/>
</svg>
