<svg width="370" height="198" viewBox="0 0 370 198" fill="none" xmlns="http://www.w3.org/2000/svg">
<path d="M142.961 26.9801C142.842 27.196 143.045 46.6432 143.045 46.6432L144.627 46.661L145.16 26.9825L142.961 26.9801Z" fill="#E0E0E0"/>
<path d="M144.784 44.0053L142.962 44.1006L142.979 46.8542L140.914 47.9346L140.927 49.7446L142.276 51.6134L142.333 49.009L144.017 48.1277L145.457 48.8796L145.368 51.688L146.858 49.8631L146.775 48.1895L144.862 46.7643L144.784 44.0053Z" fill="#E0E0E0"/>
<path d="M134.904 29.6729L118.935 48.9606C117.497 50.6985 114.924 50.9396 113.188 49.4986L112.445 48.8821C110.71 47.4415 110.469 44.8648 111.908 43.1269L127.876 23.8392C129.315 22.1013 131.888 21.8602 133.623 23.3012L134.366 23.9178C136.101 25.3583 136.342 27.935 134.904 29.6729Z" fill="#E0E0E0"/>
<path d="M144.164 29.945H129.897C128.482 29.945 127.335 28.7965 127.335 27.3797V26.7736C127.335 25.3568 128.482 24.2082 129.897 24.2082H144.164C145.579 24.2082 146.726 25.3568 146.726 26.7736V27.3797C146.725 28.797 145.578 29.945 144.164 29.945Z" fill="#E0E0E0"/>
<path d="M117.285 80.829H115.93C112.763 80.829 110.197 78.2583 110.197 75.0873V46.167C110.197 42.996 112.764 40.4253 115.93 40.4253H117.285C120.452 40.4253 123.019 42.996 123.019 46.167V75.0878C123.019 78.2582 120.452 80.829 117.285 80.829Z" fill="#E0E0E0"/>
<path d="M119.899 74.697C119.899 76.4448 118.485 77.8621 116.739 77.8621C114.993 77.8621 113.578 76.4453 113.578 74.697C113.578 72.9492 114.993 71.532 116.739 71.532C118.485 71.532 119.899 72.9487 119.899 74.697Z" fill="#E0E0E0"/>
<path d="M119.768 45.9699C119.768 47.7177 118.353 49.135 116.607 49.135C114.862 49.135 113.447 47.7182 113.447 45.9699C113.447 44.2222 114.862 42.8049 116.607 42.8049C118.353 42.8049 119.768 44.2217 119.768 45.9699Z" fill="#E0E0E0"/>
<path d="M130.595 28.9971C131.654 28.9971 132.512 28.1374 132.512 27.0769C132.512 26.0164 131.654 25.1567 130.595 25.1567C129.536 25.1567 128.677 26.0164 128.677 27.0769C128.677 28.1374 129.536 28.9971 130.595 28.9971Z" fill="#E0E0E0"/>
<path d="M145.078 26.1546C145.586 26.6639 145.586 27.4899 145.078 27.9997C144.569 28.509 143.744 28.509 143.235 27.9997C142.726 27.4904 142.726 26.6644 143.235 26.1546C143.744 25.6453 144.569 25.6453 145.078 26.1546Z" fill="#E0E0E0"/>
<path d="M254.31 18.5094C254.44 18.7604 253.665 33.0666 253.665 33.0666L251.854 33.0395L251.793 18.4462L254.31 18.5094Z" fill="#E0E0E0"/>
<path d="M250.948 25.3889L255.24 25.7268L255.03 32.2194L259.831 34.8954L259.688 39.1631L256.392 43.4861L256.419 37.3412L252.502 35.1577L249.061 36.8413L249.095 43.4698L245.695 39.0737L245.995 35.1321L250.595 31.8909L250.948 25.3889Z" fill="#E0E0E0"/>
<path d="M263.359 21.8395L281.646 43.9277C283.293 45.918 286.24 46.1937 288.228 44.5437L289.078 43.8378C291.066 42.1878 291.341 39.2372 289.693 37.2469L271.407 15.1586C269.759 13.1683 266.813 12.8927 264.825 14.5426L263.974 15.2485C261.987 16.8985 261.712 19.8497 263.359 21.8395Z" fill="#E0E0E0"/>
<path d="M252.754 22.1517H269.092C270.712 22.1517 272.026 20.8367 272.026 19.2139V18.5193C272.026 16.897 270.713 15.5815 269.092 15.5815H252.754C251.134 15.5815 249.82 16.8965 249.82 18.5193V19.2139C249.82 20.8362 251.134 22.1517 252.754 22.1517Z" fill="#E0E0E0"/>
<path d="M283.536 80.4235H285.088C288.714 80.4235 291.654 77.4797 291.654 73.8483V40.7291C291.654 37.0977 288.714 34.1539 285.088 34.1539H283.536C279.909 34.1539 276.969 37.0977 276.969 40.7291V73.8483C276.969 77.4797 279.909 80.4235 283.536 80.4235Z" fill="#E0E0E0"/>
<path d="M287.506 74.7843C288.275 72.9363 287.401 70.8144 285.556 70.0449C283.71 69.2754 281.591 70.1498 280.823 71.9978C280.054 73.8458 280.928 75.9677 282.773 76.7372C284.619 77.5066 286.738 76.6323 287.506 74.7843Z" fill="#E0E0E0"/>
<path d="M284.312 44.1273C286.311 44.1273 287.931 42.5046 287.931 40.5028C287.931 38.5011 286.311 36.8783 284.312 36.8783C282.313 36.8783 280.692 38.5011 280.692 40.5028C280.692 42.5046 282.313 44.1273 284.312 44.1273Z" fill="#E0E0E0"/>
<path d="M268.293 21.0654C269.506 21.0654 270.489 20.081 270.489 18.8666C270.489 17.6523 269.506 16.6678 268.293 16.6678C267.08 16.6678 266.097 17.6523 266.097 18.8666C266.097 20.081 267.08 21.0654 268.293 21.0654Z" fill="#E0E0E0"/>
<path d="M251.708 17.8104C251.125 18.3938 251.125 19.3398 251.708 19.9233C252.29 20.5067 253.235 20.5067 253.818 19.9233C254.4 19.3398 254.4 18.3938 253.818 17.8104C253.235 17.227 252.29 17.227 251.708 17.8104Z" fill="#E0E0E0"/>
<path d="M89.7384 81.6501H311.793C315.015 81.6501 317.626 79.0353 317.626 75.8095V74.4288C317.626 71.2029 315.015 68.5882 311.793 68.5882H89.7384C86.517 68.5882 83.9058 71.2029 83.9058 74.4288V75.8095C83.9058 79.0353 86.517 81.6501 89.7384 81.6501Z" fill="#E0E0E0"/>
<path d="M114.375 75.5076C114.375 77.3004 115.826 78.7537 117.616 78.7537C119.407 78.7537 120.858 77.3004 120.858 75.5076C120.858 73.7149 119.407 72.2616 117.616 72.2616C115.826 72.2621 114.375 73.7154 114.375 75.5076Z" fill="#E0E0E0"/>
<path d="M91.0187 78.2405C92.809 78.2405 94.2604 76.7872 94.2604 74.9944C94.2604 73.2016 92.809 71.7483 91.0187 71.7483C89.2283 71.7483 87.777 73.2016 87.777 74.9944C87.777 76.7872 89.2283 78.2405 91.0187 78.2405Z" fill="#E0E0E0"/>
<path d="M143.886 75.5076C143.886 77.3004 145.338 78.7537 147.128 78.7537C148.918 78.7537 150.37 77.3004 150.37 75.5076C150.37 73.7149 148.918 72.2616 147.128 72.2616C145.338 72.2621 143.886 73.7154 143.886 75.5076Z" fill="#E0E0E0"/>
<path d="M173.398 75.5076C173.398 77.3004 174.849 78.7537 176.64 78.7537C178.43 78.7537 179.881 77.3004 179.881 75.5076C179.881 73.7149 178.43 72.2616 176.64 72.2616C174.849 72.2621 173.398 73.7154 173.398 75.5076Z" fill="#E0E0E0"/>
<path d="M202.909 75.5076C202.909 77.3004 204.36 78.7537 206.151 78.7537C207.941 78.7537 209.392 77.3004 209.392 75.5076C209.392 73.7149 207.941 72.2616 206.151 72.2616C204.36 72.2621 202.909 73.7154 202.909 75.5076Z" fill="#E0E0E0"/>
<path d="M232.421 75.5076C232.421 77.3004 233.872 78.7537 235.662 78.7537C237.453 78.7537 238.904 77.3004 238.904 75.5076C238.904 73.7149 237.453 72.2616 235.662 72.2616C233.872 72.2621 232.421 73.7154 232.421 75.5076Z" fill="#E0E0E0"/>
<path d="M261.932 75.5076C261.932 77.3004 263.384 78.7537 265.174 78.7537C266.965 78.7537 268.416 77.3004 268.416 75.5076C268.416 73.7149 266.965 72.2616 265.174 72.2616C263.384 72.2621 261.932 73.7154 261.932 75.5076Z" fill="#E0E0E0"/>
<path d="M302.169 75.5076C302.169 77.3004 303.621 78.7537 305.411 78.7537C307.201 78.7537 308.653 77.3004 308.653 75.5076C308.653 73.7149 307.201 72.2616 305.411 72.2616C303.62 72.2621 302.169 73.7154 302.169 75.5076Z" fill="#E0E0E0"/>
<path d="M265.174 132.093H302.169V81.6503H265.174V132.093Z" fill="#E0E0E0"/>
<path d="M101.402 133.023H138.397V102.178H101.402V133.023Z" fill="#E0E0E0"/>
<path d="M306.735 183.447C306.735 183.518 242.792 183.576 163.932 183.576C85.0453 183.576 21.1157 183.518 21.1157 183.447C21.1157 183.376 85.0453 183.318 163.932 183.318C242.792 183.318 306.735 183.376 306.735 183.447Z" fill="#263238"/>
<path d="M193.497 181.696L193.544 178.384L187.35 178.255L187.228 183.099L187.612 183.132C189.319 183.263 196.303 183.676 197.453 183.354C198.735 182.993 193.497 181.696 193.497 181.696Z" fill="#97D4EA"/>
<g opacity="0.4">
<path d="M189.475 183.097C189.398 182.577 189.12 182.09 188.713 181.758C188.305 181.427 187.798 181.246 187.274 181.277L187.237 183.011L189.475 183.097Z" fill="black"/>
</g>
<g opacity="0.4">
<path d="M196.054 182.422C196.054 182.422 197.888 182.993 197.652 183.292C197.416 183.592 190.343 183.44 187.229 183.099L187.242 182.961L195.49 183.209C195.49 183.209 195.693 182.429 196.054 182.422Z" fill="black"/>
</g>
<path d="M187.144 182.955C187.144 182.958 187.18 182.963 187.25 182.969C187.342 182.976 187.442 182.985 187.555 182.994C187.861 183.014 188.237 183.038 188.68 183.067C189.63 183.122 190.944 183.18 192.396 183.212C193.849 183.244 195.164 183.245 196.116 183.232C196.56 183.223 196.937 183.216 197.242 183.21C197.356 183.205 197.457 183.202 197.549 183.198C197.619 183.195 197.655 183.192 197.655 183.189C197.655 183.187 197.618 183.185 197.548 183.183C197.456 183.182 197.355 183.182 197.242 183.181C196.936 183.18 196.559 183.18 196.115 183.179C195.164 183.178 193.849 183.169 192.398 183.137C190.947 183.105 189.633 183.055 188.683 183.014C188.239 182.995 187.863 182.978 187.557 182.965C187.443 182.961 187.342 182.958 187.25 182.954C187.181 182.952 187.144 182.952 187.144 182.955Z" fill="#263238"/>
<path d="M195.486 183.305C195.508 183.308 195.532 183.04 195.708 182.771C195.879 182.5 196.113 182.367 196.101 182.348C196.097 182.329 195.829 182.44 195.645 182.731C195.457 183.019 195.467 183.309 195.486 183.305Z" fill="#263238"/>
<path d="M193.678 182.337C193.695 182.348 193.785 182.244 193.878 182.103C193.972 181.963 194.034 181.84 194.016 181.828C193.999 181.816 193.909 181.921 193.816 182.061C193.722 182.202 193.661 182.326 193.678 182.337Z" fill="#263238"/>
<path d="M193.182 182.061C193.195 182.077 193.295 182.014 193.403 181.92C193.512 181.826 193.589 181.737 193.576 181.722C193.563 181.706 193.463 181.769 193.354 181.863C193.246 181.956 193.168 182.045 193.182 182.061Z" fill="#263238"/>
<path d="M192.877 181.469C192.877 181.489 193.021 181.511 193.2 181.517C193.378 181.523 193.524 181.511 193.524 181.49C193.525 181.469 193.381 181.447 193.202 181.441C193.023 181.436 192.878 181.448 192.877 181.469Z" fill="#263238"/>
<path d="M192.777 181.053C192.77 181.071 192.926 181.146 193.136 181.166C193.346 181.187 193.513 181.144 193.509 181.124C193.506 181.103 193.342 181.111 193.143 181.091C192.944 181.072 192.785 181.033 192.777 181.053Z" fill="#263238"/>
<path d="M193.9 181.801C193.899 181.809 194.052 181.831 194.298 181.807C194.421 181.794 194.566 181.769 194.724 181.722C194.801 181.696 194.883 181.677 194.968 181.627C195.008 181.602 195.053 181.566 195.069 181.506C195.087 181.446 195.057 181.379 195.013 181.345C194.636 181.14 194.251 181.346 194.105 181.539C194.025 181.638 193.988 181.735 193.97 181.803C193.952 181.87 193.952 181.909 193.957 181.91C193.971 181.915 193.987 181.754 194.145 181.574C194.223 181.486 194.341 181.401 194.49 181.36C194.632 181.321 194.832 181.315 194.964 181.402C195.026 181.451 195 181.524 194.929 181.565C194.862 181.606 194.777 181.63 194.703 181.656C194.551 181.705 194.41 181.735 194.29 181.754C194.052 181.791 193.9 181.788 193.9 181.801Z" fill="#263238"/>
<path d="M194.002 181.822C194.008 181.827 194.069 181.727 194.054 181.547C194.046 181.459 194.016 181.354 193.951 181.253C193.883 181.163 193.795 181.039 193.624 181.043C193.532 181.053 193.485 181.157 193.498 181.224C193.503 181.294 193.534 181.355 193.561 181.403C193.618 181.504 193.684 181.586 193.744 181.649C193.867 181.774 193.964 181.822 193.969 181.815C193.976 181.806 193.891 181.742 193.784 181.613C193.73 181.549 193.673 181.467 193.622 181.37C193.57 181.285 193.536 181.133 193.636 181.117C193.735 181.11 193.835 181.211 193.894 181.292C193.955 181.379 193.987 181.473 194.001 181.554C194.028 181.717 193.989 181.819 194.002 181.822Z" fill="#263238"/>
<path d="M187.307 181.26C187.308 181.274 187.484 181.247 187.764 181.286C188.04 181.323 188.424 181.445 188.753 181.72C189.083 181.995 189.272 182.351 189.359 182.617C189.447 182.884 189.453 183.064 189.467 183.062C189.471 183.062 189.474 183.017 189.47 182.937C189.465 182.857 189.448 182.741 189.409 182.601C189.334 182.324 189.145 181.95 188.802 181.663C188.458 181.377 188.056 181.258 187.77 181.234C187.626 181.221 187.509 181.226 187.429 181.235C187.349 181.244 187.306 181.256 187.307 181.26Z" fill="#263238"/>
<path d="M188.004 178.693C187.984 178.692 187.947 179.262 187.923 179.966C187.899 180.67 187.897 181.241 187.917 181.241C187.938 181.242 187.974 180.672 187.998 179.968C188.022 179.264 188.025 178.693 188.004 178.693Z" fill="#263238"/>
<path d="M190.268 182.51C190.265 182.529 190.667 182.604 191.17 182.619C191.673 182.635 192.079 182.585 192.078 182.565C192.076 182.544 191.671 182.559 191.172 182.544C190.674 182.529 190.271 182.488 190.268 182.51Z" fill="#263238"/>
<path d="M189.054 182.481C189.038 182.496 189.085 182.568 189.124 182.662C189.165 182.755 189.184 182.839 189.206 182.838C189.226 182.838 189.24 182.74 189.193 182.632C189.147 182.524 189.067 182.467 189.054 182.481Z" fill="#263238"/>
<path d="M188.609 181.901C188.593 181.916 188.632 181.981 188.695 182.048C188.758 182.114 188.821 182.156 188.836 182.142C188.851 182.128 188.812 182.062 188.749 181.996C188.687 181.93 188.623 181.887 188.609 181.901Z" fill="#263238"/>
<path d="M187.959 181.627C187.963 181.648 188.046 181.649 188.136 181.683C188.227 181.715 188.291 181.767 188.307 181.753C188.324 181.742 188.274 181.653 188.161 181.612C188.049 181.571 187.953 181.607 187.959 181.627Z" fill="#263238"/>
<path d="M187.496 181.494C187.488 181.513 187.523 181.546 187.574 181.567C187.624 181.588 187.672 181.59 187.68 181.57C187.688 181.551 187.653 181.519 187.602 181.498C187.551 181.476 187.504 181.475 187.496 181.494Z" fill="#263238"/>
<path d="M169.253 179.147L170.163 175.963L176.131 177.631L174.849 182.305L174.472 182.225C172.8 181.856 165.995 180.231 164.987 179.589C163.863 178.873 169.253 179.147 169.253 179.147Z" fill="#97D4EA"/>
<g opacity="0.4">
<path d="M172.698 181.652C172.922 181.177 173.329 180.79 173.815 180.591C174.301 180.392 174.838 180.366 175.331 180.547L174.867 182.218L172.698 181.652Z" fill="black"/>
</g>
<g opacity="0.4">
<path d="M166.595 179.101C166.595 179.101 164.675 179.118 164.815 179.473C164.955 179.828 171.77 181.729 174.849 182.304L174.877 182.168L166.908 180.018C166.908 180.018 166.938 179.213 166.595 179.101Z" fill="black"/>
</g>
<path d="M174.971 182.19C174.971 182.193 174.934 182.187 174.866 182.173C174.776 182.154 174.677 182.133 174.566 182.109C174.268 182.039 173.901 181.954 173.469 181.853C172.543 181.63 171.268 181.306 169.869 180.917C168.47 180.527 167.21 180.147 166.303 179.86C165.88 179.723 165.522 179.606 165.231 179.512C165.123 179.475 165.028 179.442 164.94 179.412C164.874 179.388 164.84 179.375 164.841 179.373C164.842 179.37 164.877 179.379 164.945 179.398C165.033 179.423 165.13 179.452 165.239 179.484C165.532 179.572 165.893 179.68 166.318 179.809C167.229 180.083 168.49 180.455 169.889 180.844C171.288 181.233 172.56 181.565 173.481 181.801C173.912 181.911 174.276 182.004 174.573 182.08C174.683 182.109 174.78 182.135 174.869 182.158C174.937 182.177 174.972 182.188 174.971 182.19Z" fill="#263238"/>
<path d="M166.884 180.112C166.861 180.108 166.917 179.844 166.826 179.537C166.741 179.227 166.554 179.033 166.572 179.017C166.581 179.001 166.806 179.184 166.898 179.516C166.994 179.846 166.901 180.121 166.884 180.112Z" fill="#263238"/>
<path d="M168.894 179.708C168.874 179.714 168.819 179.588 168.77 179.426C168.721 179.265 168.697 179.129 168.717 179.123C168.737 179.117 168.792 179.243 168.841 179.404C168.891 179.566 168.914 179.702 168.894 179.708Z" fill="#263238"/>
<path d="M169.449 179.587C169.431 179.598 169.354 179.509 169.277 179.388C169.2 179.267 169.152 179.16 169.169 179.148C169.187 179.137 169.264 179.226 169.341 179.347C169.418 179.468 169.466 179.576 169.449 179.587Z" fill="#263238"/>
<path d="M169.911 179.108C169.906 179.129 169.762 179.107 169.589 179.061C169.416 179.015 169.28 178.962 169.286 178.941C169.291 178.921 169.435 178.942 169.608 178.988C169.781 179.035 169.917 179.088 169.911 179.108Z" fill="#263238"/>
<path d="M170.127 178.74C170.128 178.76 169.958 178.786 169.751 178.744C169.544 178.704 169.396 178.614 169.406 178.596C169.415 178.576 169.569 178.632 169.766 178.67C169.962 178.71 170.126 178.718 170.127 178.74Z" fill="#263238"/>
<path d="M168.837 179.13C168.835 179.138 168.683 179.115 168.454 179.021C168.34 178.974 168.208 178.907 168.071 178.817C168.003 178.769 167.931 178.727 167.864 178.655C167.833 178.619 167.801 178.572 167.802 178.51C167.802 178.448 167.851 178.392 167.903 178.372C168.323 178.284 168.632 178.593 168.715 178.821C168.763 178.938 168.771 179.043 168.769 179.112C168.766 179.182 168.754 179.219 168.75 179.218C168.736 179.219 168.767 179.06 168.667 178.842C168.618 178.735 168.53 178.62 168.399 178.537C168.274 178.459 168.084 178.394 167.933 178.441C167.86 178.469 167.863 178.548 167.92 178.607C167.971 178.665 168.046 178.713 168.11 178.759C168.241 178.849 168.367 178.92 168.476 178.972C168.694 179.077 168.84 179.119 168.837 179.13Z" fill="#263238"/>
<path d="M168.732 179.122C168.725 179.125 168.696 179.011 168.762 178.843C168.795 178.761 168.854 178.669 168.945 178.591C169.036 178.525 169.156 178.432 169.319 178.484C169.405 178.52 169.42 178.634 169.388 178.695C169.362 178.76 169.316 178.809 169.275 178.848C169.191 178.928 169.105 178.988 169.029 179.03C168.876 179.114 168.769 179.133 168.766 179.125C168.762 179.113 168.862 179.077 169.002 178.985C169.071 178.939 169.15 178.878 169.226 178.799C169.301 178.732 169.378 178.597 169.287 178.553C169.193 178.517 169.069 178.585 168.989 178.645C168.905 178.711 168.847 178.792 168.811 178.864C168.738 179.012 168.746 179.122 168.732 179.122Z" fill="#263238"/>
<path d="M175.304 180.521C175.299 180.535 175.138 180.457 174.859 180.414C174.584 180.369 174.182 180.375 173.787 180.543C173.392 180.711 173.108 180.996 172.949 181.226C172.786 181.457 172.73 181.627 172.717 181.621C172.712 181.62 172.722 181.576 172.75 181.501C172.778 181.425 172.827 181.318 172.905 181.196C173.057 180.953 173.346 180.649 173.758 180.474C174.17 180.299 174.589 180.302 174.869 180.362C175.01 180.391 175.121 180.429 175.195 180.462C175.268 180.494 175.306 180.517 175.304 180.521Z" fill="#263238"/>
<path d="M175.378 177.861C175.398 177.866 175.268 178.423 175.088 179.103C174.908 179.784 174.745 180.331 174.725 180.326C174.706 180.321 174.835 179.765 175.015 179.084C175.195 178.403 175.358 177.856 175.378 177.861Z" fill="#263238"/>
<path d="M172.109 180.86C172.107 180.879 171.7 180.835 171.214 180.703C170.727 180.574 170.353 180.408 170.36 180.39C170.368 180.37 170.751 180.502 171.233 180.631C171.714 180.761 172.113 180.838 172.109 180.86Z" fill="#263238"/>
<path d="M173.279 181.185C173.29 181.203 173.225 181.259 173.16 181.337C173.094 181.414 173.051 181.488 173.031 181.481C173.012 181.476 173.027 181.379 173.102 181.288C173.177 181.198 173.27 181.166 173.279 181.185Z" fill="#263238"/>
<path d="M173.873 180.758C173.884 180.776 173.828 180.828 173.749 180.873C173.67 180.919 173.597 180.941 173.587 180.923C173.576 180.906 173.632 180.854 173.712 180.808C173.79 180.762 173.863 180.74 173.873 180.758Z" fill="#263238"/>
<path d="M174.574 180.683C174.564 180.702 174.485 180.679 174.389 180.686C174.293 180.69 174.216 180.722 174.204 180.704C174.191 180.689 174.265 180.617 174.384 180.611C174.504 180.604 174.585 180.666 174.574 180.683Z" fill="#263238"/>
<path d="M175.056 180.69C175.058 180.711 175.015 180.732 174.96 180.738C174.905 180.743 174.859 180.731 174.857 180.71C174.855 180.689 174.898 180.668 174.953 180.662C175.008 180.657 175.054 180.669 175.056 180.69Z" fill="#263238"/>
<path d="M177.598 118.537C177.141 119.177 167.316 177.4 167.316 177.4L177.598 180.848L186.208 125.329L185.167 180.482L196.49 180.661L194.87 118.538H177.598V118.537Z" fill="#141515"/>
<path d="M165.13 75.2359L163.53 79.5298L163.504 79.5184L158.942 90.3375C157.554 92.9256 157.424 96.9522 161.585 98.3699C164.913 99.5037 171.883 96.2986 171.883 96.2986L171.039 90.2031L164.263 92.2182L166.912 81.0152C166.912 81.0152 167.137 80.619 167.679 79.4404L169.875 77.2287C169.875 77.2287 169.752 76.5791 168.683 77.5281C168.196 77.9608 167.207 77.3957 167.652 76.6142C168.097 75.8327 169.303 75.8045 169.707 76.8439C169.707 76.8439 170.124 77.0257 170.282 76.7051C170.44 76.3845 169.734 75.2364 168.827 75.2137C168.239 75.1989 167.743 75.4365 167.743 75.4365C167.743 75.4365 168.814 72.7145 168.598 72.6177C168.381 72.5204 168.012 72.5896 166.864 75.5837C166.864 75.5837 167.541 73.1468 167.593 72.8252C167.642 72.5135 167.296 72.1618 166.998 72.9171C166.965 73.0011 166.054 75.3169 166.054 75.3169C166.054 75.3169 166.286 73.667 166.297 73.5326C166.326 73.1779 165.99 73.1078 165.819 73.5356C165.69 73.8572 165.13 75.2359 165.13 75.2359Z" fill="#FFBE9D"/>
<path d="M194.675 97.3123L196.215 100.881L200.766 94.2149L196.873 86.637C195.074 84.8432 189.812 84.7533 188.94 84.6437C186.823 85.2962 184.706 85.2952 182.589 84.6397C181.607 84.6812 180.758 84.8546 179.959 85.1441C178.313 85.7403 175.028 87.0366 175.503 86.8084L164.263 92.2182L167.062 81.9558L162.507 79.9783C162.507 79.9783 156.203 91.3433 157.546 95.7028C158.719 99.5086 163.533 99.3071 164.756 99.192L164.756 99.1974L164.987 99.1668C165.016 99.1633 165.035 99.1603 165.038 99.1603L177.351 97.541L177.337 104.956L169.828 152.495L197.752 153.803L194.963 103.709L194.675 97.3123Z" fill="#0F3970"/>
<path d="M185.167 152.495C185.163 152.495 185.159 152.45 185.155 152.363C185.152 152.261 185.149 152.134 185.145 151.977C185.142 151.618 185.137 151.123 185.132 150.494C185.132 149.207 185.146 147.343 185.179 145.042C185.243 140.438 185.372 134.078 185.533 127.056C185.7 120.039 185.852 113.689 185.962 109.069C186.016 106.783 186.06 104.926 186.091 103.619C186.106 102.991 186.117 102.495 186.126 102.137C186.132 101.98 186.137 101.853 186.141 101.751C186.146 101.664 186.15 101.62 186.155 101.62C186.159 101.62 186.163 101.664 186.167 101.751C186.17 101.853 186.173 101.98 186.178 102.137C186.181 102.495 186.185 102.991 186.19 103.619C186.19 104.907 186.176 106.77 186.144 109.072C186.079 113.676 185.95 120.036 185.789 127.061C185.622 134.075 185.471 140.424 185.36 145.045C185.306 147.33 185.262 149.187 185.232 150.495C185.217 151.123 185.205 151.619 185.197 151.977C185.191 152.134 185.185 152.261 185.182 152.363C185.176 152.45 185.172 152.495 185.167 152.495Z" fill="#263238"/>
<path d="M191.941 75.0695C192.5 74.5853 193.332 74.65 194.066 74.7424C194.617 74.8116 195.234 74.9203 195.548 75.3777C196.047 76.1024 195.436 77.1477 195.778 77.9584C196.132 78.7977 197.245 78.9261 198.006 79.4255C198.621 79.8291 199.026 80.536 199.064 81.2711C199.102 82.0062 198.771 82.7511 198.202 83.2165C199.076 84.2746 199.563 85.6682 199.442 87.0361C199.321 88.404 198.566 89.7225 197.396 90.4393C196.125 91.2188 194.501 91.2395 193.07 90.8201C191.993 90.5045 190.934 89.9033 190.403 88.9138C189.968 88.1041 189.94 87.1394 190.011 86.2225C190.107 84.9959 190.393 83.7228 191.203 82.7981C191.452 82.514 191.746 82.268 191.958 81.9553C192.17 81.6426 192.29 81.2326 192.141 80.8853C192.017 80.5939 191.728 80.3967 191.611 80.1023C191.446 79.6874 191.673 79.2186 191.962 78.8787C192.251 78.5388 192.614 78.2469 192.795 77.8388C192.978 77.4243 192.94 76.919 192.695 76.5371C192.451 76.1558 192.008 75.9097 191.555 75.9043" fill="#263238"/>
<path d="M189.524 79.0728C190.604 78.5768 191.46 77.6145 191.827 76.4833C192.194 75.352 192.066 74.0696 191.485 73.0332H188.452L189.524 79.0728Z" fill="#263238"/>
<path d="M181.905 84.6397C181.848 84.653 186.194 101.738 186.194 101.738L190.646 84.779C190.646 84.779 183.243 84.3295 181.905 84.6397Z" fill="#97D4EA"/>
<path d="M186.228 88.074C184.433 88.074 182.977 86.6197 182.971 84.822C182.967 83.4255 182.967 82.1198 182.967 82.1198C182.967 82.1198 180.489 81.734 180.458 79.2526C180.428 76.7713 180.857 71.0735 180.857 71.0735C183.726 69.839 187.037 70.2559 189.511 72.1628L189.878 72.4458L189.484 84.9159C189.428 86.676 187.987 88.074 186.228 88.074Z" fill="#FFBE9D"/>
<path d="M181.787 75.4671C181.934 75.3333 181.945 75.1055 181.811 74.9583C181.678 74.8111 181.45 74.7997 181.303 74.9336C181.156 75.0675 181.145 75.2952 181.279 75.4424C181.412 75.5901 181.64 75.601 181.787 75.4671Z" fill="#263238"/>
<path d="M180.826 74.7716C180.865 74.8145 181.108 74.6268 181.449 74.6253C181.791 74.6189 182.038 74.8002 182.076 74.7563C182.095 74.7365 182.056 74.6594 181.948 74.5769C181.842 74.4949 181.66 74.4164 181.447 74.4188C181.235 74.4213 181.055 74.5048 180.951 74.5888C180.844 74.6742 180.807 74.7523 180.826 74.7716Z" fill="#263238"/>
<path d="M184.97 75.1322C184.801 75.2364 184.748 75.4582 184.852 75.6277C184.956 75.7971 185.177 75.85 185.347 75.7457C185.516 75.6415 185.569 75.4197 185.465 75.2503C185.361 75.0813 185.139 75.028 184.97 75.1322Z" fill="#263238"/>
<path d="M184.533 75.0724C184.572 75.1154 184.815 74.9282 185.157 74.9262C185.498 74.9198 185.746 75.1011 185.784 75.0571C185.802 75.0373 185.763 74.9603 185.655 74.8778C185.549 74.7963 185.367 74.7172 185.154 74.7197C184.942 74.7222 184.762 74.8056 184.657 74.8896C184.551 74.9751 184.514 75.0536 184.533 75.0724Z" fill="#263238"/>
<path d="M183.165 77.8922C183.167 77.8655 182.956 77.8225 182.613 77.7751C182.523 77.7652 182.453 77.745 182.447 77.697C182.431 77.6432 182.466 77.5474 182.511 77.4412C182.598 77.2149 182.687 76.9862 182.78 76.7466C183.153 75.7571 183.415 74.94 183.364 74.9213C183.314 74.9025 182.971 75.6889 182.599 76.6779C182.511 76.9195 182.426 77.1502 182.343 77.3779C182.31 77.4812 182.249 77.6022 182.294 77.7494C182.319 77.8235 182.389 77.8769 182.448 77.8922C182.508 77.91 182.558 77.91 182.601 77.9119C182.947 77.9243 183.163 77.9188 183.165 77.8922Z" fill="#263238"/>
<path d="M182.963 82.0843C182.963 82.0843 184.529 82.2117 186.193 81.1649C186.193 81.1649 185.429 82.9507 182.957 82.7274L182.963 82.0843Z" fill="#936050"/>
<path d="M189.6 75.3777C189.641 75.3589 191.025 75.0729 191.015 76.7347C191.006 78.3965 189.333 77.8373 189.33 77.7894C189.327 77.742 189.6 75.3777 189.6 75.3777Z" fill="#B78876"/>
<path d="M189.842 77.2095C189.849 77.204 189.871 77.2297 189.919 77.2524C189.967 77.2747 190.049 77.29 190.136 77.2584C190.311 77.1951 190.461 76.917 190.47 76.6177C190.475 76.4665 190.444 76.3222 190.392 76.2027C190.342 76.0807 190.264 75.9952 190.175 75.9794C190.088 75.9587 190.025 76.011 190.004 76.058C189.982 76.1044 189.992 76.1375 189.983 76.1405C189.979 76.1444 189.948 76.1123 189.961 76.0436C189.968 76.0105 189.988 75.9715 190.027 75.9399C190.067 75.9078 190.126 75.8915 190.188 75.8984C190.316 75.9078 190.431 76.0263 190.488 76.1577C190.553 76.2896 190.591 76.4517 190.586 76.6216C190.574 76.9565 190.4 77.2687 190.16 77.3369C190.043 77.3666 189.946 77.331 189.896 77.2915C189.844 77.25 189.836 77.2124 189.842 77.2095Z" fill="#936050"/>
<path d="M180.87 70.9495C181.344 71.8278 182.387 72.2734 183.384 72.3149C184.38 72.3564 185.356 72.063 186.318 71.7967C186.839 71.6524 187.473 71.5418 187.855 71.9251C188.078 72.1484 188.144 72.4809 188.183 72.7936C188.271 73.4891 188.281 74.1941 188.212 74.8916C188.185 75.1707 188.145 75.4567 188.215 75.7284C188.285 76.0001 188.499 76.2575 188.777 76.2812C189.214 76.3183 189.73 75.6143 189.878 75.2008C190.083 74.6278 190.041 74.2573 190.114 73.6527C190.186 73.048 190.115 72.4073 189.795 71.8891C189.434 71.3042 188.808 70.9426 188.189 70.6457C186.946 70.0499 185.6 69.6127 184.222 69.6038C182.844 69.5949 181.427 70.0509 180.458 71.033" fill="#263238"/>
<path d="M184.376 78.3526C184.264 78.155 183.98 78.1041 183.776 78.2039C183.573 78.3042 183.445 78.5186 183.389 78.7389C183.365 78.8362 183.359 78.9567 183.438 79.0185C183.478 79.0511 183.534 79.059 183.586 79.0639C183.75 79.0807 183.919 79.0832 184.077 79.0373C184.236 78.9913 184.385 78.8915 184.46 78.7448C184.536 78.5976 184.524 78.402 184.409 78.2834" fill="#936050"/>
<path d="M191.6 73.3775H179.675C179.324 73.3775 179.039 73.0925 179.039 72.7403C179.039 72.3885 179.324 72.103 179.675 72.103H191.6C191.951 72.103 192.236 72.388 192.236 72.7403C192.236 73.0925 191.951 73.3775 191.6 73.3775Z" fill="#97D4EA"/>
<path d="M191.192 72.268H180.083V71.3916C180.083 68.3194 182.57 65.8292 185.638 65.8292C188.706 65.8292 191.193 68.3194 191.193 71.3916V72.268H191.192Z" fill="#97D4EA"/>
<path d="M186.338 65.8292H184.636V72.5179H186.338V65.8292Z" fill="#97D4EA"/>
<path d="M184.6 72.1603C184.529 72.1603 184.472 70.7465 184.472 69.0031C184.472 67.2588 184.529 65.8455 184.6 65.8455C184.671 65.8455 184.728 67.2588 184.728 69.0031C184.728 70.7465 184.67 72.1603 184.6 72.1603Z" fill="#263238"/>
<path d="M186.312 72.1603C186.241 72.1603 186.183 70.7465 186.183 69.0031C186.183 67.2588 186.241 65.8455 186.312 65.8455C186.383 65.8455 186.44 67.2588 186.44 69.0031C186.44 70.7465 186.382 72.1603 186.312 72.1603Z" fill="#263238"/>
<path d="M191.384 72.0891C191.384 72.1603 188.836 72.2176 185.693 72.2176C182.549 72.2176 180.001 72.1598 180.001 72.0891C180.001 72.018 182.549 71.9607 185.693 71.9607C188.836 71.9607 191.384 72.018 191.384 72.0891Z" fill="#263238"/>
<g opacity="0.2">
<path d="M186.347 65.8124C186.347 67.9173 186.347 70.0223 186.347 72.1277L187.193 66.052L186.347 65.8124Z" fill="black"/>
</g>
<g opacity="0.6">
<path d="M183.869 66.8666C183.881 66.9076 183.574 67.0158 183.13 67.2756C182.686 67.533 182.117 67.9712 181.635 68.5877C181.156 69.2072 180.872 69.8671 180.732 70.3616C180.589 70.8566 180.56 71.1817 180.517 71.1787C180.49 71.1792 180.453 70.8457 180.555 70.3182C180.655 69.7925 180.927 69.0817 181.432 68.4296C181.939 67.7795 182.561 67.3398 183.045 67.1151C183.531 66.8863 183.862 66.8399 183.869 66.8666Z" fill="white"/>
</g>
<path d="M184.677 78.1263C184.724 78.1772 184.458 78.4963 184.024 78.7567C183.591 79.0185 183.184 79.1049 183.162 79.0392C183.137 78.9711 183.483 78.7838 183.892 78.5363C184.302 78.2908 184.629 78.072 184.677 78.1263Z" fill="#263238"/>
<path d="M202.465 125.576C202.465 125.647 195.896 125.704 187.794 125.704C179.689 125.704 173.12 125.646 173.12 125.576C173.12 125.505 179.689 125.447 187.794 125.447C195.896 125.447 202.465 125.504 202.465 125.576Z" fill="#263238"/>
<path d="M202.211 141.121C202.211 141.192 195.642 141.25 187.54 141.25C179.435 141.25 172.867 141.192 172.867 141.121C172.867 141.051 179.435 140.993 187.54 140.993C195.642 140.993 202.211 141.051 202.211 141.121Z" fill="#263238"/>
<path d="M192.134 74.7533C192.203 74.7474 192.284 75.0694 192.223 75.4656C192.164 75.8623 191.991 76.1459 191.927 76.1197C191.859 76.0935 191.915 75.7922 191.969 75.4271C192.026 75.063 192.062 74.7587 192.134 74.7533Z" fill="#97D4EA"/>
<path d="M165.854 100.624L168.247 110.717L182.957 110.396L180.781 100.334L165.854 100.624Z" fill="#263238"/>
<path d="M177.641 104.506H181.614V103.06C181.614 103.06 184.503 103.06 185.225 105.351V108.847H182.467C180.828 108.847 179.463 107.589 179.327 105.953C179.327 105.953 177.28 105.712 177.641 104.506Z" fill="#FFBE9D"/>
<path d="M205.084 103.085L200.588 93.8691L194.917 97.873L196.834 102.249L184.183 103.456V109.256C184.42 109.314 193.708 109.294 199.873 109.275C202.851 109.266 205.259 106.847 205.259 103.866C205.259 103.596 205.199 103.329 205.084 103.085Z" fill="#0F3970"/>
<path d="M198.088 109.226C198.088 109.297 194.975 109.354 191.136 109.354C187.295 109.354 184.183 109.296 184.183 109.226C184.183 109.154 187.295 109.097 191.136 109.097C194.975 109.097 198.088 109.154 198.088 109.226Z" fill="#263238"/>
<path d="M196.834 102.249C196.835 102.267 196.661 102.302 196.344 102.35C196.027 102.398 195.569 102.459 195.002 102.529C193.867 102.67 192.299 102.847 190.565 103.026C188.83 103.205 187.258 103.353 186.12 103.447C185.55 103.494 185.089 103.528 184.77 103.546C184.45 103.563 184.272 103.564 184.27 103.547C184.268 103.529 184.442 103.494 184.758 103.446C185.074 103.397 185.533 103.336 186.1 103.266C187.235 103.125 188.804 102.949 190.54 102.77C192.275 102.59 193.847 102.442 194.985 102.348C195.555 102.301 196.016 102.267 196.335 102.25C196.655 102.232 196.832 102.231 196.834 102.249Z" fill="#263238"/>
<path d="M198.725 104.667C198.661 104.704 198.27 104.107 197.735 103.417C197.204 102.724 196.726 102.194 196.777 102.141C196.823 102.09 197.392 102.548 197.939 103.259C198.487 103.968 198.786 104.635 198.725 104.667Z" fill="#263238"/>
<path d="M199.567 103.27C199.517 103.327 198.996 102.914 198.253 102.608C197.513 102.294 196.854 102.215 196.859 102.139C196.856 102.073 197.564 102.038 198.352 102.371C199.143 102.697 199.616 103.225 199.567 103.27Z" fill="#263238"/>
<path d="M173.506 104.171C173.754 104.171 173.956 103.969 173.956 103.72C173.956 103.472 173.754 103.27 173.506 103.27C173.257 103.27 173.056 103.472 173.056 103.72C173.056 103.969 173.257 104.171 173.506 104.171Z" fill="#455A64"/>
<path d="M193.559 96.1884H189.33V97.3004H193.559V96.1884Z" fill="#97D4EA"/>
<path d="M161.61 95.5359C161.554 95.4924 162.075 94.7183 162.774 93.8069C163.473 92.8949 164.085 92.1915 164.141 92.2345C164.198 92.2779 163.677 93.0515 162.977 93.9635C162.278 94.8749 161.666 95.5788 161.61 95.5359Z" fill="#263238"/>
<path d="M161.407 93.8059C161.361 93.7565 161.896 93.2002 162.705 92.7107C163.511 92.2177 164.251 91.9983 164.273 92.0621C164.301 92.1312 163.622 92.4508 162.838 92.9305C162.052 93.4062 161.456 93.8622 161.407 93.8059Z" fill="#263238"/>
<path d="M82.5489 99.0384C82.619 99.313 82.878 99.7339 83.0857 100.042C83.2569 100.297 83.468 100.521 83.7147 100.704C84.1932 101.058 84.5859 101.302 84.8577 101.458C84.8592 101.458 95.8393 102.055 97.6805 101.788C99.5216 101.521 104.505 95.5369 104.505 95.5369L108.552 100.125C108.552 100.125 105.144 104.315 100.241 107.151C97.122 108.956 83.4868 105.716 83.4749 105.713C82.1508 105.8 80.6901 105.867 79.8859 105.813C78.2111 105.698 78.219 105.547 78.2658 105.354C78.3911 104.836 81.2199 105.444 80.6876 104.96C80.1553 104.477 77.1415 104.619 77.2949 104.083C77.4942 103.383 80.4439 104.075 80.698 104.115C80.9446 104.154 81.0186 103.789 80.7872 103.765C80.4547 103.731 76.9728 103.284 77.1622 102.596C77.2673 102.214 77.9343 102.466 77.9343 102.466C77.9343 102.466 81.1612 103.124 81.2396 102.796C81.3196 102.463 79.438 102.013 78.7927 101.906C78.1553 101.8 77.9461 101.454 78.2273 101.21C78.4192 101.044 80.4029 101.325 81.0384 101.445C81.6738 101.566 83.4113 101.928 82.6999 101.051C81.9885 100.175 81.7715 99.2335 81.8894 98.9376C82.0078 98.6417 82.4621 98.6985 82.5489 99.0384Z" fill="#FFBE9D"/>
<path d="M112.517 75.3056C111.838 75.1372 111.948 73.2634 111.877 72.6904C111.834 72.3411 111.795 71.9701 111.945 71.652C112.14 71.2405 112.608 71.0276 113.058 70.9599C113.508 70.8922 113.968 70.9357 114.418 70.871C115.324 70.7401 116.132 70.1784 117.043 70.0974C117.787 70.0312 118.553 70.3113 119.08 70.8418C119.394 71.1585 119.633 71.5636 120.019 71.7864C120.361 71.984 120.771 72.0106 121.149 72.1243C122.086 72.4048 122.819 73.2748 122.937 74.2475C123.007 74.824 122.878 75.4034 122.811 75.9804C122.745 76.5574 122.749 77.1779 123.053 77.6729C123.368 78.1866 123.961 78.4889 124.252 79.0165C124.51 79.4839 124.48 80.0969 124.176 80.5361C123.874 80.9757 123.312 81.2213 122.784 81.1452C122.616 81.121 122.422 81.0726 122.29 81.1813C122.176 81.2751 122.166 81.4416 122.135 81.5858C122.017 82.1357 121.421 82.5348 120.868 82.4345C120.316 82.3338 119.898 81.7503 119.981 81.1941" fill="#263238"/>
<path d="M120.397 87.3024L114.44 86.8262C114.403 86.1296 114.453 83.4354 114.453 83.4354C114.453 83.4354 111.974 83.0496 111.944 80.5682C111.913 78.0868 112.343 72.389 112.343 72.389C115.212 71.1545 118.522 71.5715 120.996 73.4783L121.363 73.7614L120.397 87.3024Z" fill="#FFBE9D"/>
<path d="M113.061 76.6612C113.208 76.5273 113.219 76.2995 113.086 76.1523C112.952 76.0051 112.725 75.9938 112.578 76.1276C112.43 76.2615 112.419 76.4892 112.553 76.637C112.687 76.7847 112.914 76.795 113.061 76.6612Z" fill="#263238"/>
<path d="M112.312 76.0871C112.351 76.1301 112.594 75.9424 112.935 75.9409C113.277 75.9345 113.524 76.1158 113.562 76.0718C113.581 76.052 113.542 75.975 113.434 75.8925C113.328 75.8105 113.146 75.7319 112.933 75.7344C112.721 75.7369 112.541 75.8204 112.437 75.9043C112.33 75.9893 112.293 76.0679 112.312 76.0871Z" fill="#263238"/>
<path d="M116.232 76.4477C116.063 76.552 116.01 76.7738 116.114 76.9432C116.218 77.1127 116.44 77.1655 116.609 77.0613C116.778 76.9571 116.831 76.7352 116.727 76.5658C116.623 76.3964 116.402 76.3435 116.232 76.4477Z" fill="#263238"/>
<path d="M116.019 76.388C116.058 76.4309 116.301 76.2432 116.643 76.2417C116.984 76.2353 117.232 76.4166 117.27 76.3726C117.288 76.3529 117.249 76.2758 117.141 76.1933C117.035 76.1118 116.853 76.0328 116.64 76.0352C116.428 76.0377 116.248 76.1212 116.143 76.2052C116.037 76.2906 116 76.3687 116.019 76.388Z" fill="#263238"/>
<path d="M114.651 79.2072C114.653 79.1806 114.442 79.1376 114.099 79.0902C114.009 79.0803 113.939 79.06 113.933 79.0121C113.917 78.9583 113.952 78.8624 113.997 78.7562C114.085 78.53 114.174 78.3012 114.267 78.0616C114.64 77.0722 114.901 76.2551 114.851 76.2363C114.801 76.2175 114.458 77.004 114.085 77.993C113.997 78.2346 113.913 78.4652 113.83 78.693C113.797 78.7962 113.735 78.9173 113.781 79.0645C113.806 79.1386 113.876 79.1919 113.935 79.2072C113.994 79.225 114.044 79.225 114.087 79.227C114.433 79.2398 114.648 79.2339 114.651 79.2072Z" fill="#263238"/>
<path d="M114.448 83.3993C114.448 83.3993 116.014 83.5268 117.679 82.48C117.679 82.48 116.915 84.2658 114.443 84.0425L114.448 83.3993Z" fill="#EB996E"/>
<path d="M121.086 76.6933C121.127 76.6745 122.511 76.3885 122.501 78.0503C122.492 79.7121 120.819 79.1529 120.816 79.105C120.813 79.0576 121.086 76.6933 121.086 76.6933Z" fill="#FFBE9D"/>
<path d="M121.328 78.525C121.335 78.5196 121.357 78.5453 121.405 78.568C121.453 78.5902 121.535 78.6055 121.621 78.5739C121.797 78.5107 121.947 78.2326 121.956 77.9332C121.961 77.782 121.93 77.6378 121.878 77.5182C121.828 77.3962 121.75 77.3108 121.661 77.2949C121.574 77.2742 121.511 77.3266 121.49 77.3735C121.468 77.4199 121.478 77.453 121.469 77.456C121.465 77.4599 121.434 77.4278 121.447 77.3597C121.454 77.3266 121.474 77.2875 121.513 77.2559C121.553 77.2238 121.612 77.2075 121.674 77.2144C121.802 77.2238 121.916 77.3424 121.974 77.4738C122.039 77.6057 122.077 77.7677 122.072 77.9376C122.06 78.2726 121.886 78.5848 121.646 78.653C121.529 78.6826 121.432 78.647 121.382 78.6075C121.33 78.565 121.322 78.528 121.328 78.525Z" fill="#EB996E"/>
<path d="M112.356 72.2645C112.83 73.1429 113.873 73.5885 114.87 73.63C115.866 73.6715 116.842 73.378 117.804 73.1113C118.325 72.967 118.959 72.8564 119.341 73.2397C119.564 73.463 119.63 73.7955 119.669 74.1082C119.757 74.8037 119.767 75.5086 119.698 76.2062C119.671 76.4853 119.631 76.7713 119.701 77.043C119.771 77.3147 119.984 77.5721 120.263 77.5958C120.7 77.6328 121.216 76.9289 121.364 76.5154C121.569 75.9424 121.527 75.5719 121.6 74.9672C121.672 74.3626 121.601 73.7218 121.281 73.2036C120.92 72.6187 120.294 72.2571 119.675 71.9602C118.432 71.3645 117.086 70.9273 115.708 70.9184C114.329 70.9095 112.912 71.3655 111.944 72.3475" fill="#263238"/>
<path d="M137.928 181.352L137.169 178.128L143.19 176.665L144.351 181.37L143.984 181.485C142.344 181.981 135.614 183.891 134.421 183.824C133.091 183.748 137.928 181.352 137.928 181.352Z" fill="#97D4EA"/>
<g opacity="0.4">
<path d="M142.156 181.853C142.12 181.328 142.287 180.792 142.613 180.381C142.94 179.969 143.396 179.683 143.915 179.601L144.324 181.286L142.156 181.853Z" fill="black"/>
</g>
<g opacity="0.4">
<path d="M135.586 182.612C135.586 182.612 133.919 183.566 134.214 183.807C134.509 184.049 141.383 182.374 144.351 181.37L144.308 181.238L136.307 183.259C136.307 183.259 135.94 182.542 135.586 182.612Z" fill="black"/>
</g>
<path d="M144.402 181.211C144.402 181.214 144.368 181.226 144.301 181.248C144.214 181.275 144.117 181.305 144.008 181.338C143.714 181.424 143.352 181.528 142.925 181.652C142.009 181.91 140.739 182.251 139.328 182.595C137.917 182.94 136.632 183.224 135.7 183.417C135.264 183.504 134.895 183.579 134.595 183.638C134.483 183.659 134.383 183.677 134.293 183.693C134.224 183.705 134.188 183.71 134.187 183.707C134.187 183.705 134.222 183.695 134.29 183.678C134.38 183.658 134.478 183.635 134.589 183.61C134.888 183.543 135.255 183.462 135.689 183.365C136.618 183.159 137.899 182.867 139.31 182.522C140.72 182.178 141.992 181.846 142.911 181.601C143.34 181.486 143.704 181.389 144 181.31C144.11 181.281 144.208 181.256 144.297 181.234C144.365 181.216 144.401 181.208 144.402 181.211Z" fill="#263238"/>
<path d="M136.332 183.352C136.31 183.361 136.229 183.103 136 182.879C135.775 182.651 135.517 182.572 135.525 182.551C135.525 182.531 135.811 182.582 136.053 182.826C136.298 183.067 136.351 183.352 136.332 183.352Z" fill="#263238"/>
<path d="M137.888 182.017C137.874 182.032 137.764 181.949 137.642 181.832C137.521 181.715 137.434 181.607 137.448 181.593C137.463 181.578 137.573 181.66 137.695 181.778C137.816 181.895 137.903 182.002 137.888 182.017Z" fill="#263238"/>
<path d="M138.313 181.64C138.303 181.658 138.193 181.618 138.067 181.55C137.94 181.482 137.846 181.412 137.855 181.394C137.865 181.376 137.976 181.416 138.102 181.484C138.229 181.552 138.323 181.622 138.313 181.64Z" fill="#263238"/>
<path d="M138.483 180.996C138.488 181.017 138.352 181.069 138.179 181.113C138.006 181.157 137.861 181.177 137.856 181.156C137.851 181.136 137.987 181.084 138.16 181.04C138.334 180.996 138.479 180.976 138.483 180.996Z" fill="#263238"/>
<path d="M138.492 180.569C138.503 180.585 138.367 180.692 138.166 180.757C137.966 180.823 137.793 180.817 137.792 180.797C137.791 180.775 137.953 180.748 138.143 180.686C138.334 180.624 138.481 180.551 138.492 180.569Z" fill="#263238"/>
<path d="M137.557 181.541C137.559 181.549 137.415 181.603 137.169 181.633C137.046 181.647 136.899 181.653 136.735 181.642C136.653 181.634 136.569 181.633 136.476 181.602C136.431 181.586 136.38 181.56 136.351 181.505C136.321 181.451 136.336 181.378 136.372 181.336C136.695 181.054 137.116 181.172 137.3 181.33C137.4 181.41 137.457 181.496 137.489 181.558C137.521 181.621 137.528 181.659 137.524 181.66C137.512 181.669 137.461 181.514 137.268 181.373C137.173 181.304 137.04 181.246 136.885 181.238C136.739 181.231 136.541 181.268 136.432 181.382C136.381 181.442 136.423 181.509 136.501 181.533C136.575 181.559 136.664 181.564 136.742 181.573C136.9 181.588 137.044 181.588 137.165 181.58C137.406 181.565 137.554 181.529 137.557 181.541Z" fill="#263238"/>
<path d="M137.461 181.585C137.457 181.59 137.375 181.505 137.351 181.327C137.34 181.239 137.347 181.13 137.388 181.018C137.436 180.915 137.495 180.776 137.663 180.742C137.755 180.732 137.824 180.823 137.825 180.892C137.835 180.961 137.819 181.027 137.802 181.081C137.768 181.192 137.722 181.286 137.676 181.36C137.583 181.508 137.499 181.577 137.492 181.571C137.484 181.563 137.553 181.482 137.63 181.334C137.668 181.26 137.707 181.168 137.735 181.062C137.768 180.967 137.769 180.812 137.668 180.818C137.568 180.832 137.493 180.952 137.452 181.044C137.412 181.143 137.4 181.241 137.404 181.323C137.413 181.487 137.473 181.578 137.461 181.585Z" fill="#263238"/>
<path d="M143.879 179.591C143.881 179.605 143.702 179.617 143.438 179.715C143.176 179.811 142.828 180.013 142.565 180.352C142.302 180.692 142.194 181.08 142.167 181.358C142.138 181.639 142.171 181.814 142.157 181.816C142.152 181.817 142.14 181.774 142.127 181.695C142.114 181.615 142.106 181.498 142.114 181.354C142.128 181.067 142.232 180.66 142.506 180.306C142.78 179.953 143.147 179.751 143.421 179.665C143.558 179.621 143.674 179.6 143.754 179.593C143.834 179.585 143.879 179.587 143.879 179.591Z" fill="#263238"/>
<path d="M142.645 177.235C142.665 177.23 142.823 177.778 142.998 178.46C143.173 179.142 143.298 179.7 143.278 179.705C143.258 179.71 143.1 179.161 142.925 178.479C142.751 177.797 142.625 177.24 142.645 177.235Z" fill="#263238"/>
<path d="M141.256 181.45C141.262 181.468 140.886 181.628 140.398 181.751C139.91 181.876 139.502 181.915 139.5 181.895C139.497 181.873 139.895 181.802 140.379 181.678C140.863 181.557 141.248 181.429 141.256 181.45Z" fill="#263238"/>
<path d="M142.435 181.161C142.453 181.172 142.423 181.252 142.405 181.352C142.385 181.452 142.384 181.538 142.363 181.541C142.343 181.546 142.309 181.454 142.331 181.338C142.353 181.223 142.419 181.15 142.435 181.161Z" fill="#263238"/>
<path d="M142.745 180.498C142.763 180.509 142.74 180.581 142.693 180.66C142.646 180.739 142.593 180.793 142.576 180.782C142.558 180.772 142.582 180.7 142.629 180.621C142.675 180.542 142.728 180.488 142.745 180.498Z" fill="#263238"/>
<path d="M143.32 180.09C143.321 180.111 143.241 180.13 143.16 180.183C143.078 180.234 143.027 180.298 143.007 180.288C142.989 180.282 143.018 180.183 143.119 180.12C143.22 180.055 143.322 180.07 143.32 180.09Z" fill="#263238"/>
<path d="M143.744 179.86C143.756 179.877 143.729 179.917 143.684 179.948C143.639 179.98 143.592 179.992 143.581 179.974C143.569 179.958 143.596 179.918 143.641 179.886C143.686 179.855 143.733 179.843 143.744 179.86Z" fill="#263238"/>
<path d="M112.146 181.789L112.127 178.477L118.323 178.401L118.402 183.247L118.018 183.277C116.309 183.392 109.322 183.745 108.175 183.412C106.896 183.04 112.146 181.789 112.146 181.789Z" fill="#97D4EA"/>
<g opacity="0.4">
<path d="M116.154 183.225C116.236 182.706 116.519 182.221 116.929 181.893C117.339 181.565 117.848 181.389 118.371 181.424L118.394 183.158L116.154 183.225Z" fill="black"/>
</g>
<g opacity="0.4">
<path d="M109.582 182.492C109.582 182.492 107.743 183.047 107.977 183.348C108.211 183.65 115.285 183.56 118.401 183.247L118.39 183.108L110.14 183.284C110.14 183.284 109.942 182.503 109.582 182.492Z" fill="black"/>
</g>
<path d="M118.487 183.103C118.487 183.106 118.451 183.11 118.381 183.116C118.289 183.123 118.188 183.13 118.075 183.138C117.769 183.156 117.393 183.176 116.95 183.201C115.999 183.248 114.685 183.294 113.232 183.314C111.779 183.333 110.464 183.322 109.513 183.301C109.069 183.289 108.693 183.278 108.386 183.269C108.273 183.263 108.172 183.259 108.08 183.254C108.01 183.251 107.973 183.247 107.973 183.245C107.973 183.242 108.01 183.24 108.08 183.24C108.173 183.24 108.273 183.24 108.387 183.24C108.693 183.242 109.07 183.245 109.514 183.248C110.465 183.255 111.779 183.258 113.231 183.239C114.683 183.219 115.996 183.181 116.948 183.148C117.392 183.132 117.768 183.119 118.074 183.109C118.187 183.106 118.288 183.103 118.38 183.1C118.45 183.1 118.487 183.101 118.487 183.103Z" fill="#263238"/>
<path d="M110.143 183.38C110.12 183.383 110.099 183.115 109.926 182.845C109.757 182.572 109.523 182.437 109.536 182.418C109.541 182.399 109.808 182.513 109.989 182.805C110.174 183.094 110.161 183.384 110.143 183.38Z" fill="#263238"/>
<path d="M111.958 182.428C111.941 182.439 111.852 182.334 111.76 182.192C111.668 182.051 111.607 181.927 111.625 181.916C111.642 181.904 111.731 182.01 111.823 182.151C111.916 182.293 111.976 182.417 111.958 182.428Z" fill="#263238"/>
<path d="M112.457 182.156C112.443 182.172 112.344 182.108 112.237 182.013C112.129 181.918 112.052 181.829 112.066 181.813C112.08 181.798 112.179 181.862 112.286 181.957C112.394 182.051 112.471 182.141 112.457 182.156Z" fill="#263238"/>
<path d="M112.767 181.566C112.767 181.587 112.623 181.607 112.444 181.612C112.265 181.616 112.12 181.603 112.119 181.582C112.119 181.562 112.263 181.541 112.442 181.537C112.621 181.532 112.766 181.546 112.767 181.566Z" fill="#263238"/>
<path d="M112.87 181.152C112.878 181.17 112.721 181.244 112.511 181.262C112.301 181.281 112.134 181.236 112.138 181.217C112.141 181.195 112.305 181.205 112.504 181.187C112.703 181.17 112.863 181.132 112.87 181.152Z" fill="#263238"/>
<path d="M111.742 181.89C111.742 181.898 111.59 181.919 111.343 181.892C111.221 181.879 111.075 181.852 110.918 181.804C110.84 181.777 110.759 181.758 110.674 181.707C110.634 181.682 110.591 181.645 110.574 181.585C110.557 181.525 110.588 181.458 110.633 181.425C111.01 181.223 111.394 181.432 111.538 181.627C111.617 181.727 111.654 181.824 111.671 181.892C111.688 181.96 111.688 181.998 111.683 181.999C111.67 182.005 111.654 181.843 111.498 181.661C111.42 181.572 111.304 181.486 111.155 181.444C111.014 181.404 110.814 181.396 110.681 181.483C110.618 181.53 110.644 181.605 110.714 181.646C110.781 181.688 110.865 181.712 110.939 181.739C111.091 181.789 111.231 181.821 111.351 181.841C111.59 181.879 111.742 181.877 111.742 181.89Z" fill="#263238"/>
<path d="M111.639 181.911C111.633 181.915 111.573 181.814 111.59 181.635C111.598 181.547 111.629 181.441 111.695 181.342C111.764 181.253 111.853 181.13 112.024 181.135C112.116 181.146 112.162 181.25 112.149 181.317C112.142 181.387 112.112 181.447 112.083 181.496C112.026 181.596 111.96 181.678 111.898 181.739C111.775 181.863 111.677 181.911 111.672 181.904C111.666 181.894 111.751 181.831 111.859 181.704C111.913 181.64 111.971 181.559 112.023 181.463C112.076 181.378 112.112 181.226 112.012 181.209C111.912 181.201 111.812 181.302 111.752 181.382C111.69 181.469 111.657 181.562 111.642 181.643C111.614 181.805 111.652 181.908 111.639 181.911Z" fill="#263238"/>
<path d="M118.339 181.407C118.338 181.421 118.162 181.393 117.882 181.429C117.605 181.464 117.22 181.582 116.888 181.854C116.556 182.126 116.364 182.48 116.276 182.745C116.184 183.012 116.178 183.191 116.164 183.19C116.159 183.189 116.156 183.145 116.162 183.065C116.167 182.984 116.185 182.868 116.225 182.729C116.303 182.453 116.495 182.08 116.841 181.796C117.187 181.513 117.59 181.398 117.876 181.377C118.02 181.365 118.137 181.37 118.217 181.381C118.297 181.391 118.34 181.403 118.339 181.407Z" fill="#263238"/>
<path d="M117.664 178.834C117.685 178.833 117.716 179.403 117.734 180.107C117.752 180.811 117.749 181.382 117.729 181.383C117.708 181.383 117.677 180.813 117.659 180.109C117.641 179.405 117.643 178.834 117.664 178.834Z" fill="#263238"/>
<path d="M115.367 182.631C115.37 182.65 114.967 182.721 114.464 182.732C113.96 182.744 113.554 182.69 113.556 182.671C113.558 182.649 113.963 182.668 114.462 182.656C114.961 182.646 115.364 182.609 115.367 182.631Z" fill="#263238"/>
<path d="M116.582 182.613C116.597 182.628 116.549 182.7 116.51 182.793C116.468 182.886 116.448 182.969 116.427 182.968C116.406 182.968 116.394 182.87 116.441 182.762C116.487 182.655 116.568 182.598 116.582 182.613Z" fill="#263238"/>
<path d="M117.032 182.037C117.047 182.052 117.008 182.117 116.945 182.183C116.882 182.248 116.818 182.29 116.803 182.276C116.788 182.262 116.827 182.196 116.89 182.131C116.954 182.064 117.017 182.022 117.032 182.037Z" fill="#263238"/>
<path d="M117.683 181.768C117.679 181.789 117.597 181.789 117.506 181.823C117.415 181.854 117.351 181.905 117.334 181.892C117.317 181.88 117.368 181.791 117.481 181.752C117.594 181.712 117.69 181.749 117.683 181.768Z" fill="#263238"/>
<path d="M118.148 181.639C118.156 181.658 118.12 181.69 118.069 181.711C118.018 181.732 117.971 181.733 117.963 181.714C117.955 181.694 117.991 181.662 118.041 181.642C118.092 181.621 118.14 181.62 118.148 181.639Z" fill="#263238"/>
<path d="M107.921 116.007L110.813 180.362L120.461 180.565L118.859 126.688L136.343 181.206L144.229 179.045L126.633 116.007" fill="#0F3970"/>
<path d="M143.265 177.542C143.315 177.527 143.39 177.631 143.433 177.774C143.476 177.916 143.47 178.044 143.42 178.059C143.371 178.074 143.296 177.97 143.253 177.827C143.21 177.685 143.216 177.557 143.265 177.542Z" fill="#0F3970"/>
<path d="M142.639 175.452C142.689 175.437 142.799 175.659 142.885 175.948C142.972 176.236 143.002 176.482 142.952 176.497C142.903 176.512 142.792 176.29 142.706 176.002C142.62 175.713 142.59 175.467 142.639 175.452Z" fill="#0F3970"/>
<path d="M142.014 173.363C142.063 173.348 142.174 173.57 142.26 173.858C142.346 174.147 142.376 174.393 142.327 174.407C142.277 174.422 142.167 174.2 142.08 173.912C141.994 173.623 141.964 173.377 142.014 173.363Z" fill="#0F3970"/>
<path d="M141.388 171.273C141.437 171.258 141.548 171.48 141.634 171.768C141.72 172.057 141.75 172.303 141.701 172.318C141.651 172.333 141.541 172.111 141.454 171.822C141.368 171.534 141.338 171.288 141.388 171.273Z" fill="#0F3970"/>
<path d="M140.762 169.183C140.812 169.169 140.922 169.39 141.008 169.679C141.095 169.967 141.125 170.213 141.075 170.228C141.026 170.243 140.915 170.021 140.829 169.733C140.742 169.444 140.712 169.198 140.762 169.183Z" fill="#0F3970"/>
<path d="M140.136 167.094C140.185 167.079 140.296 167.301 140.382 167.589C140.469 167.878 140.499 168.124 140.449 168.139C140.4 168.153 140.289 167.932 140.203 167.643C140.116 167.355 140.087 167.109 140.136 167.094Z" fill="#0F3970"/>
<path d="M139.511 165.004C139.56 164.989 139.67 165.211 139.757 165.5C139.843 165.788 139.873 166.034 139.823 166.049C139.774 166.064 139.664 165.842 139.577 165.553C139.491 165.265 139.461 165.019 139.511 165.004Z" fill="#0F3970"/>
<path d="M138.885 162.915C138.934 162.9 139.044 163.122 139.131 163.41C139.217 163.698 139.247 163.945 139.197 163.959C139.148 163.974 139.037 163.752 138.951 163.464C138.865 163.175 138.835 162.929 138.885 162.915Z" fill="#0F3970"/>
<path d="M138.259 160.825C138.308 160.81 138.418 161.032 138.505 161.32C138.591 161.609 138.621 161.855 138.571 161.87C138.522 161.885 138.412 161.663 138.325 161.374C138.239 161.086 138.209 160.84 138.259 160.825Z" fill="#0F3970"/>
<path d="M137.633 158.735C137.682 158.72 137.793 158.942 137.879 159.231C137.965 159.519 137.996 159.765 137.946 159.78C137.896 159.795 137.786 159.573 137.7 159.285C137.613 158.996 137.584 158.75 137.633 158.735Z" fill="#0F3970"/>
<path d="M137.007 156.646C137.056 156.631 137.167 156.853 137.253 157.141C137.34 157.43 137.37 157.676 137.32 157.69C137.27 157.705 137.16 157.483 137.074 157.195C136.988 156.906 136.958 156.66 137.007 156.646Z" fill="#0F3970"/>
<path d="M136.381 154.556C136.431 154.541 136.541 154.763 136.628 155.052C136.714 155.34 136.744 155.586 136.694 155.601C136.645 155.616 136.534 155.394 136.448 155.105C136.362 154.817 136.332 154.571 136.381 154.556Z" fill="#0F3970"/>
<path d="M135.755 152.466C135.805 152.452 135.915 152.673 136.002 152.962C136.088 153.25 136.118 153.496 136.068 153.511C136.019 153.526 135.908 153.304 135.822 153.016C135.736 152.727 135.706 152.481 135.755 152.466Z" fill="#0F3970"/>
<path d="M135.13 150.377C135.179 150.362 135.29 150.584 135.376 150.872C135.462 151.161 135.492 151.407 135.443 151.422C135.393 151.436 135.283 151.215 135.196 150.926C135.11 150.638 135.08 150.392 135.13 150.377Z" fill="#0F3970"/>
<path d="M134.504 148.287C134.553 148.272 134.664 148.494 134.75 148.783C134.836 149.071 134.866 149.317 134.817 149.332C134.767 149.347 134.657 149.125 134.57 148.837C134.485 148.548 134.455 148.302 134.504 148.287Z" fill="#0F3970"/>
<path d="M133.878 146.198C133.928 146.183 134.038 146.405 134.124 146.693C134.211 146.982 134.241 147.228 134.191 147.242C134.142 147.257 134.031 147.035 133.945 146.747C133.858 146.458 133.829 146.212 133.878 146.198Z" fill="#0F3970"/>
<path d="M133.252 144.108C133.302 144.093 133.412 144.315 133.498 144.603C133.585 144.892 133.615 145.138 133.565 145.153C133.516 145.168 133.405 144.946 133.319 144.657C133.233 144.369 133.203 144.123 133.252 144.108Z" fill="#0F3970"/>
<path d="M132.627 142.018C132.676 142.004 132.787 142.225 132.873 142.514C132.959 142.802 132.989 143.048 132.939 143.063C132.89 143.078 132.78 142.856 132.693 142.568C132.607 142.279 132.577 142.033 132.627 142.018Z" fill="#0F3970"/>
<path d="M132.001 139.929C132.05 139.914 132.16 140.136 132.247 140.424C132.333 140.713 132.363 140.959 132.313 140.974C132.264 140.988 132.154 140.767 132.067 140.478C131.981 140.19 131.951 139.944 132.001 139.929Z" fill="#0F3970"/>
<path d="M131.375 137.839C131.424 137.824 131.535 138.046 131.621 138.335C131.708 138.623 131.738 138.869 131.688 138.884C131.638 138.899 131.528 138.677 131.442 138.388C131.355 138.1 131.326 137.854 131.375 137.839Z" fill="#0F3970"/>
<path d="M130.749 135.749C130.798 135.735 130.909 135.956 130.995 136.245C131.082 136.533 131.112 136.779 131.062 136.794C131.013 136.809 130.902 136.587 130.816 136.299C130.73 136.01 130.7 135.764 130.749 135.749Z" fill="#0F3970"/>
<path d="M130.124 133.66C130.173 133.645 130.283 133.867 130.37 134.155C130.456 134.444 130.486 134.69 130.436 134.705C130.387 134.719 130.276 134.498 130.19 134.209C130.104 133.921 130.074 133.675 130.124 133.66Z" fill="#0F3970"/>
<path d="M129.497 131.57C129.547 131.555 129.657 131.777 129.744 132.066C129.83 132.354 129.86 132.6 129.81 132.615C129.761 132.63 129.65 132.408 129.564 132.12C129.478 131.831 129.448 131.585 129.497 131.57Z" fill="#0F3970"/>
<path d="M128.872 129.481C128.921 129.466 129.032 129.688 129.118 129.976C129.204 130.265 129.235 130.511 129.185 130.525C129.135 130.54 129.025 130.318 128.939 130.03C128.852 129.741 128.822 129.495 128.872 129.481Z" fill="#0F3970"/>
<path d="M128.246 127.391C128.296 127.376 128.406 127.598 128.492 127.886C128.578 128.175 128.609 128.421 128.559 128.436C128.509 128.451 128.399 128.229 128.312 127.94C128.226 127.652 128.197 127.406 128.246 127.391Z" fill="#0F3970"/>
<path d="M127.62 125.301C127.67 125.287 127.78 125.508 127.867 125.797C127.953 126.085 127.983 126.331 127.933 126.346C127.884 126.361 127.773 126.139 127.687 125.851C127.601 125.562 127.571 125.316 127.62 125.301Z" fill="#0F3970"/>
<path d="M126.994 123.212C127.044 123.197 127.154 123.419 127.241 123.707C127.327 123.996 127.357 124.242 127.307 124.257C127.257 124.271 127.147 124.05 127.061 123.761C126.975 123.473 126.945 123.227 126.994 123.212Z" fill="#0F3970"/>
<path d="M126.369 121.122C126.418 121.107 126.529 121.329 126.615 121.618C126.701 121.906 126.731 122.152 126.682 122.167C126.632 122.182 126.522 121.96 126.435 121.671C126.349 121.383 126.319 121.137 126.369 121.122Z" fill="#0F3970"/>
<path d="M125.743 119.033C125.793 119.018 125.903 119.239 125.989 119.528C126.075 119.816 126.105 120.063 126.055 120.077C126.006 120.092 125.896 119.87 125.809 119.582C125.723 119.293 125.693 119.047 125.743 119.033Z" fill="#0F3970"/>
<path d="M125.275 117.47C125.324 117.455 125.399 117.559 125.442 117.702C125.485 117.844 125.48 117.972 125.43 117.987C125.381 118.002 125.306 117.898 125.263 117.756C125.22 117.613 125.225 117.485 125.275 117.47Z" fill="#0F3970"/>
<path d="M118.798 180.038C118.85 180.036 118.898 180.154 118.905 180.303C118.913 180.452 118.877 180.575 118.826 180.577C118.774 180.58 118.726 180.462 118.719 180.313C118.711 180.164 118.746 180.041 118.798 180.038Z" fill="#0F3970"/>
<path d="M118.709 177.894C118.761 177.892 118.812 178.131 118.823 178.427C118.834 178.723 118.801 178.964 118.75 178.966C118.698 178.968 118.647 178.73 118.636 178.434C118.625 178.138 118.657 177.896 118.709 177.894Z" fill="#0F3970"/>
<path d="M118.643 175.75C118.695 175.748 118.744 175.987 118.752 176.283C118.76 176.58 118.725 176.821 118.674 176.822C118.622 176.824 118.573 176.585 118.565 176.289C118.556 175.993 118.591 175.751 118.643 175.75Z" fill="#0F3970"/>
<path d="M118.589 173.605C118.641 173.603 118.688 173.843 118.695 174.139C118.703 174.435 118.667 174.676 118.615 174.677C118.563 174.679 118.515 174.44 118.508 174.143C118.501 173.847 118.537 173.606 118.589 173.605Z" fill="#0F3970"/>
<path d="M118.538 171.459C118.59 171.457 118.637 171.697 118.645 171.993C118.652 172.29 118.615 172.531 118.564 172.532C118.512 172.534 118.465 172.294 118.457 171.998C118.45 171.701 118.486 171.46 118.538 171.459Z" fill="#0F3970"/>
<path d="M118.482 169.312C118.534 169.311 118.582 169.55 118.59 169.846C118.598 170.143 118.563 170.384 118.511 170.385C118.46 170.387 118.411 170.148 118.403 169.851C118.395 169.555 118.43 169.314 118.482 169.312Z" fill="#0F3970"/>
<path d="M118.411 167.166C118.463 167.164 118.513 167.403 118.524 167.699C118.534 167.996 118.501 168.237 118.45 168.239C118.398 168.241 118.348 168.002 118.337 167.706C118.326 167.41 118.359 167.168 118.411 167.166Z" fill="#0F3970"/>
<path d="M118.321 165.022C118.373 165.02 118.425 165.259 118.437 165.554C118.45 165.85 118.418 166.092 118.366 166.094C118.315 166.096 118.263 165.858 118.25 165.562C118.238 165.266 118.27 165.025 118.321 165.022Z" fill="#0F3970"/>
<path d="M118.238 162.878C118.289 162.876 118.34 163.115 118.352 163.411C118.363 163.707 118.33 163.948 118.279 163.95C118.227 163.952 118.176 163.714 118.165 163.418C118.153 163.122 118.186 162.88 118.238 162.878Z" fill="#0F3970"/>
<path d="M118.163 160.734C118.215 160.733 118.265 160.971 118.275 161.267C118.284 161.563 118.251 161.805 118.199 161.806C118.147 161.808 118.098 161.57 118.087 161.273C118.078 160.977 118.111 160.735 118.163 160.734Z" fill="#0F3970"/>
<path d="M118.097 158.588C118.149 158.586 118.198 158.825 118.207 159.121C118.216 159.417 118.181 159.659 118.129 159.66C118.077 159.662 118.028 159.423 118.019 159.127C118.011 158.83 118.046 158.589 118.097 158.588Z" fill="#0F3970"/>
<path d="M118.041 156.443C118.093 156.441 118.141 156.68 118.148 156.977C118.156 157.273 118.12 157.514 118.068 157.516C118.016 157.517 117.968 157.278 117.961 156.982C117.954 156.685 117.99 156.444 118.041 156.443Z" fill="#0F3970"/>
<path d="M117.995 154.297C118.047 154.296 118.094 154.535 118.1 154.832C118.106 155.128 118.069 155.369 118.017 155.37C117.965 155.371 117.918 155.132 117.912 154.835C117.907 154.539 117.944 154.298 117.995 154.297Z" fill="#0F3970"/>
<path d="M117.959 152.152C118.011 152.151 118.057 152.39 118.061 152.687C118.066 152.983 118.028 153.224 117.976 153.225C117.924 153.226 117.878 152.986 117.874 152.69C117.869 152.393 117.908 152.153 117.959 152.152Z" fill="#0F3970"/>
<path d="M117.933 150.006C117.985 150.006 118.029 150.245 118.033 150.542C118.036 150.838 117.997 151.079 117.945 151.079C117.893 151.08 117.849 150.84 117.845 150.544C117.842 150.247 117.882 150.007 117.933 150.006Z" fill="#0F3970"/>
<path d="M117.918 147.86C117.97 147.86 118.013 148.1 118.015 148.396C118.016 148.693 117.976 148.933 117.924 148.933C117.872 148.933 117.829 148.694 117.827 148.397C117.826 148.101 117.867 147.861 117.918 147.86Z" fill="#0F3970"/>
<path d="M117.913 145.715C117.965 145.715 118.007 145.955 118.008 146.251C118.008 146.548 117.966 146.788 117.914 146.788C117.863 146.788 117.821 146.548 117.82 146.251C117.82 145.955 117.862 145.715 117.913 145.715Z" fill="#0F3970"/>
<path d="M117.919 143.569C117.971 143.569 118.012 143.81 118.011 144.106C118.01 144.402 117.967 144.642 117.915 144.642C117.864 144.642 117.823 144.401 117.824 144.105C117.825 143.809 117.868 143.569 117.919 143.569Z" fill="#0F3970"/>
<path d="M117.937 141.424C117.988 141.424 118.028 141.665 118.025 141.961C118.023 142.257 117.979 142.497 117.927 142.496C117.875 142.496 117.836 142.255 117.838 141.959C117.84 141.663 117.885 141.423 117.937 141.424Z" fill="#0F3970"/>
<path d="M117.964 139.278C118.016 139.278 118.055 139.519 118.05 139.816C118.046 140.112 118.001 140.352 117.949 140.351C117.897 140.35 117.859 140.109 117.863 139.813C117.867 139.517 117.912 139.277 117.964 139.278Z" fill="#0F3970"/>
<path d="M118.002 137.133C118.054 137.134 118.091 137.375 118.086 137.671C118.08 137.968 118.034 138.207 117.982 138.206C117.93 138.205 117.893 137.964 117.898 137.667C117.904 137.371 117.951 137.132 118.002 137.133Z" fill="#0F3970"/>
<path d="M118.051 134.986C118.102 134.988 118.138 135.229 118.131 135.525C118.124 135.822 118.076 136.061 118.024 136.06C117.973 136.059 117.937 135.817 117.944 135.521C117.951 135.224 117.999 134.985 118.051 134.986Z" fill="#0F3970"/>
<path d="M118.126 132.84C118.178 132.842 118.21 133.084 118.199 133.38C118.187 133.676 118.135 133.915 118.084 133.913C118.032 133.911 117.999 133.669 118.011 133.372C118.023 133.076 118.074 132.837 118.126 132.84Z" fill="#0F3970"/>
<path d="M118.251 130.697C118.302 130.701 118.329 130.943 118.31 131.238C118.29 131.534 118.233 131.771 118.181 131.768C118.13 131.765 118.103 131.522 118.123 131.226C118.142 130.93 118.199 130.693 118.251 130.697Z" fill="#0F3970"/>
<path d="M118.447 128.56C118.499 128.566 118.516 128.809 118.486 129.103C118.456 129.398 118.39 129.632 118.339 129.627C118.287 129.623 118.27 129.379 118.3 129.084C118.33 128.789 118.396 128.554 118.447 128.56Z" fill="#0F3970"/>
<path d="M118.654 126.965C118.706 126.973 118.73 127.098 118.709 127.245C118.688 127.392 118.63 127.507 118.578 127.5C118.527 127.493 118.503 127.367 118.524 127.219C118.544 127.071 118.603 126.957 118.654 126.965Z" fill="#0F3970"/>
<path d="M117.252 116.823C117.265 116.822 117.286 116.963 117.313 117.217C117.34 117.47 117.372 117.839 117.409 118.293C117.482 119.203 117.57 120.461 117.656 121.851C117.696 122.544 117.734 123.204 117.77 123.811C117.806 124.415 117.804 124.96 117.956 125.377C118.099 125.797 118.389 126.048 118.608 126.152C118.832 126.257 118.98 126.24 118.979 126.259C118.98 126.264 118.944 126.274 118.876 126.275C118.807 126.277 118.704 126.265 118.579 126.219C118.335 126.129 118.003 125.872 117.833 125.423C117.654 124.979 117.644 124.419 117.598 123.822C117.558 123.215 117.515 122.555 117.47 121.863C117.384 120.473 117.317 119.214 117.277 118.302C117.257 117.846 117.245 117.476 117.24 117.221C117.236 116.966 117.239 116.824 117.252 116.823Z" fill="#0F3970"/>
<path d="M118.242 117.677C118.257 117.702 118.162 117.765 118.153 117.918C118.149 117.99 118.168 118.081 118.227 118.137C118.282 118.195 118.383 118.21 118.479 118.171C118.575 118.131 118.636 118.05 118.636 117.971C118.639 117.89 118.589 117.81 118.536 117.762C118.424 117.659 118.311 117.68 118.305 117.652C118.287 117.635 118.424 117.544 118.613 117.654C118.699 117.708 118.796 117.81 118.808 117.966C118.823 118.126 118.704 118.287 118.549 118.345C118.398 118.411 118.201 118.379 118.1 118.254C118 118.134 117.998 117.993 118.022 117.895C118.081 117.683 118.242 117.653 118.242 117.677Z" fill="#0F3970"/>
<path d="M127.322 119.203C127.332 119.22 127.047 119.402 126.52 119.51C126.001 119.62 125.223 119.619 124.465 119.281C123.707 118.941 123.188 118.361 122.924 117.9C122.653 117.435 122.599 117.102 122.617 117.098C122.648 117.087 122.747 117.4 123.036 117.829C123.319 118.255 123.827 118.789 124.541 119.11C125.257 119.429 125.992 119.452 126.499 119.379C127.01 119.308 127.31 119.173 127.322 119.203Z" fill="#0F3970"/>
<path d="M111.276 116.823C111.296 116.822 111.337 117.094 111.242 117.52C111.15 117.942 110.886 118.52 110.378 118.967C109.869 119.413 109.262 119.599 108.832 119.634C108.397 119.673 108.133 119.596 108.138 119.576C108.141 119.545 108.405 119.573 108.814 119.503C109.221 119.436 109.78 119.241 110.255 118.826C110.728 118.41 110.994 117.88 111.114 117.485C111.238 117.088 111.245 116.822 111.276 116.823Z" fill="#0F3970"/>
<path d="M134.041 95.692L127.964 89.5575L127.964 89.559C126.789 88.3383 125.413 87.4348 123.767 86.839C122.968 86.5495 122.119 86.3761 121.138 86.3346C119.021 86.9897 116.904 86.9912 114.787 86.3386C113.915 86.4483 108.653 86.5382 106.854 88.3319L101.432 98.328L107.26 102.424L109.052 99.0072L108.765 105.405L107.804 116.706L126.634 116.901L126.39 106.652L126.377 99.2369L129.093 101.885L134.041 95.692Z" fill="#0F3970"/>
<path d="M123.086 74.693H111.161C110.81 74.693 110.525 74.408 110.525 74.0558C110.525 73.7041 110.81 73.4185 111.161 73.4185H123.086C123.437 73.4185 123.722 73.7036 123.722 74.0558C123.722 74.4075 123.437 74.693 123.086 74.693Z" fill="#97D4EA"/>
<path d="M122.678 73.583H111.569V72.7067C111.569 69.6345 114.056 67.1442 117.124 67.1442C120.192 67.1442 122.679 69.6345 122.679 72.7067V73.583H122.678Z" fill="#97D4EA"/>
<path d="M117.824 67.1442H116.122V73.833H117.824V67.1442Z" fill="#97D4EA"/>
<path d="M108.511 86.757L107.345 119.555L128.222 118.379L126.345 88.1743C126.345 88.1743 122.954 85.9345 121.138 86.3346L116.8 100.564L113.455 86.0328L108.511 86.757Z" fill="#97D4EA"/>
<path d="M127.847 110.851L107.657 110.767L107.725 108.873L127.71 109.046L127.847 110.851Z" fill="white"/>
<path d="M128.026 115.225L107.487 115.139L107.555 113.246H127.903L128.026 115.225Z" fill="white"/>
<path d="M129.682 101.267L131.618 102.963L117.737 101.617L116.105 106.02L133.929 109.191C136 109.471 139.315 108.114 139.68 105.401C139.885 103.881 139.382 102.351 138.316 101.249L133.359 96.5466" fill="#FFBE9D"/>
<path d="M116.085 73.4758C116.014 73.4758 115.957 72.062 115.957 70.3187C115.957 68.5744 116.015 67.161 116.085 67.161C116.156 67.161 116.214 68.5744 116.214 70.3187C116.214 72.062 116.156 73.4758 116.085 73.4758Z" fill="#263238"/>
<path d="M117.798 73.4758C117.727 73.4758 117.669 72.062 117.669 70.3187C117.669 68.5744 117.727 67.161 117.798 67.161C117.869 67.161 117.926 68.5744 117.926 70.3187C117.926 72.062 117.868 73.4758 117.798 73.4758Z" fill="#263238"/>
<path d="M122.87 73.4042C122.87 73.4753 120.322 73.5326 117.179 73.5326C114.035 73.5326 111.487 73.4748 111.487 73.4042C111.487 73.3336 114.035 73.2758 117.179 73.2758C120.322 73.2758 122.87 73.3331 122.87 73.4042Z" fill="#263238"/>
<g opacity="0.2">
<path d="M117.833 67.1279C117.833 69.2329 117.833 71.3378 117.833 73.4432L118.679 67.3675L117.833 67.1279Z" fill="black"/>
</g>
<g opacity="0.6">
<path d="M115.355 68.1821C115.367 68.2231 115.06 68.3313 114.616 68.5911C114.172 68.8485 113.603 69.2862 113.121 69.9032C112.642 70.5227 112.358 71.1827 112.218 71.6772C112.075 72.1722 112.046 72.4972 112.003 72.4942C111.976 72.4947 111.939 72.1613 112.041 71.6337C112.141 71.1081 112.413 70.3972 112.918 69.7451C113.425 69.095 114.047 68.6554 114.531 68.4306C115.017 68.2014 115.348 68.1549 115.355 68.1821Z" fill="white"/>
</g>
<path d="M116.163 79.4414C116.211 79.4918 115.944 79.8114 115.51 80.0717C115.077 80.3335 114.67 80.4195 114.648 80.3543C114.623 80.2861 114.969 80.0989 115.378 79.8514C115.787 79.6059 116.114 79.387 116.163 79.4414Z" fill="#263238"/>
<path d="M116.4 105.9C115.076 105.987 113.616 106.055 112.811 105.999C111.137 105.885 111.144 105.734 111.191 105.541C111.317 105.023 114.145 105.631 113.613 105.148C113.081 104.664 110.067 104.806 110.22 104.27C110.42 103.571 113.369 104.262 113.623 104.302C113.87 104.341 113.944 103.976 113.713 103.952C113.38 103.918 109.898 103.472 110.088 102.783C110.193 102.401 110.86 102.653 110.86 102.653C110.86 102.653 114.087 103.311 114.165 102.983C114.245 102.65 112.364 102.2 111.718 102.093C111.081 101.988 110.872 101.641 111.153 101.397C111.345 101.231 113.328 101.512 113.964 101.632C114.599 101.753 116.337 102.115 115.625 101.239C114.914 100.362 114.697 99.4207 114.815 99.1248C114.933 98.8289 115.388 98.8862 115.474 99.2261C115.545 99.5007 115.804 99.9216 116.011 100.23C116.182 100.484 116.394 100.709 116.64 100.891C117.119 101.246 117.511 101.49 117.783 101.646" fill="#FFBE9D"/>
<path d="M320.733 141.111L304.795 123.198L293.299 133.455L309.236 151.367L320.733 141.111Z" fill="#97D4EA"/>
<path d="M322.105 143.049C321.155 143.897 319.699 143.813 318.853 142.862C318.007 141.911 318.091 140.452 319.04 139.605C319.99 138.758 321.446 138.842 322.292 139.793C323.139 140.744 323.055 142.202 322.105 143.049Z" fill="#455A64"/>
<path d="M319.929 140.314L319.848 141.631L321.915 141.718" stroke="white" stroke-miterlimit="10"/>
<path d="M304.305 146.167C304.257 146.115 306.808 143.762 310.001 140.914C313.195 138.064 315.821 135.798 315.868 135.851C315.915 135.904 313.365 138.257 310.172 141.106C306.979 143.954 304.352 146.221 304.305 146.167Z" fill="#263238"/>
<path d="M314.482 147.115C314.429 147.162 310.753 143.093 306.272 138.027C301.789 132.959 298.199 128.814 298.253 128.767C298.306 128.72 301.981 132.788 306.464 137.856C310.945 142.922 314.535 147.069 314.482 147.115Z" fill="#FAFAFA"/>
<path d="M298.287 139.032C298.24 138.978 300.781 136.648 303.962 133.827C307.144 131.005 309.761 128.761 309.808 128.814C309.854 128.868 307.314 131.197 304.132 134.02C300.951 136.84 298.334 139.085 298.287 139.032Z" fill="#FAFAFA"/>
<path d="M306.735 148.759C306.688 148.706 309.249 146.358 312.454 143.515C315.66 140.672 318.296 138.41 318.343 138.464C318.39 138.517 315.83 140.864 312.624 143.708C309.419 146.551 306.782 148.812 306.735 148.759Z" fill="#FAFAFA"/>
<path d="M303.107 134.289C303.095 134.299 302.973 134.177 302.789 133.926C302.607 133.674 302.368 133.288 302.151 132.773C301.935 132.258 301.748 131.609 301.688 130.868C301.658 130.502 301.644 130.089 301.819 129.684C301.905 129.483 302.061 129.295 302.271 129.182C302.482 129.07 302.73 129.047 302.959 129.088C303.423 129.167 303.795 129.511 303.975 129.89C304.165 130.271 304.229 130.67 304.255 131.04C304.31 131.786 304.191 132.458 304.017 132.99C303.844 133.524 303.619 133.921 303.446 134.179C303.269 134.436 303.148 134.559 303.136 134.55C303.092 134.524 303.544 133.985 303.843 132.937C303.989 132.417 304.083 131.769 304.018 131.059C303.988 130.706 303.919 130.336 303.75 130.005C303.586 129.674 303.288 129.408 302.912 129.341C302.538 129.263 302.184 129.455 302.047 129.788C301.9 130.116 301.898 130.497 301.923 130.851C301.968 131.565 302.131 132.198 302.319 132.706C302.704 133.728 303.148 134.263 303.107 134.289Z" fill="#FAFAFA"/>
<path d="M302.981 134.706C302.973 134.695 303.086 134.585 303.322 134.431C303.556 134.275 303.917 134.074 304.395 133.904C304.874 133.739 305.472 133.604 306.147 133.599C306.484 133.595 306.837 133.623 307.201 133.691C307.384 133.728 307.581 133.785 307.756 133.914C307.926 134.041 308.071 134.241 308.076 134.489C308.08 134.737 307.93 134.942 307.775 135.07C307.619 135.204 307.44 135.294 307.27 135.362C306.928 135.508 306.579 135.596 306.242 135.639C305.566 135.722 304.949 135.628 304.467 135.467C303.981 135.306 303.626 135.087 303.403 134.915C303.177 134.743 303.078 134.62 303.086 134.61C303.116 134.565 303.573 135.022 304.519 135.293C304.987 135.426 305.576 135.496 306.21 135.405C306.526 135.357 306.853 135.27 307.17 135.131C307.479 135.008 307.82 134.785 307.819 134.493C307.818 134.354 307.726 134.211 307.602 134.119C307.478 134.025 307.316 133.973 307.149 133.938C306.809 133.872 306.468 133.839 306.147 133.836C305.5 133.828 304.921 133.94 304.451 134.078C303.509 134.368 303.006 134.748 302.981 134.706Z" fill="#FAFAFA"/>
<path d="M291.855 131.232L322.039 165.612L359.985 165.611V182.79H319.987L284.093 141.615L291.855 131.232Z" fill="#ABE6FC"/>
<path d="M258.082 104.467C258.084 104.458 258.188 104.477 258.385 104.522C258.58 104.576 258.879 104.617 259.24 104.751C259.977 104.973 261.011 105.422 262.158 106.191C263.309 106.953 264.526 108.089 265.63 109.543C266.728 111.001 267.69 112.789 268.36 114.788C269.014 116.791 269.362 118.776 269.543 120.585C269.725 122.396 269.76 124.034 269.759 125.407C269.756 126.78 269.721 127.89 269.691 128.657C269.674 129.018 269.66 129.31 269.649 129.539C269.636 129.741 269.625 129.846 269.616 129.846C269.607 129.846 269.601 129.74 269.597 129.538C269.595 129.309 269.593 129.016 269.591 128.655C269.591 127.888 269.598 126.778 269.578 125.408C269.556 124.039 269.502 122.407 269.308 120.609C269.116 118.813 268.763 116.849 268.117 114.869C267.456 112.898 266.514 111.131 265.441 109.685C264.363 108.244 263.177 107.111 262.055 106.34C260.937 105.564 259.928 105.094 259.208 104.846C258.489 104.591 258.076 104.493 258.082 104.467Z" fill="#263238"/>
<path d="M271.311 129.848C271.302 129.848 271.295 129.732 271.291 129.51C271.289 129.262 271.286 128.94 271.282 128.54C271.28 127.697 271.284 126.479 271.26 124.975C271.236 123.471 271.178 121.68 270.984 119.703C270.791 117.728 270.441 115.566 269.801 113.37C269.146 111.179 268.219 109.188 267.149 107.523C266.076 105.86 264.883 104.513 263.743 103.545C262.606 102.572 261.568 101.928 260.821 101.552C260.075 101.172 259.641 100.999 259.651 100.974C259.654 100.966 259.764 101.004 259.971 101.083C260.175 101.171 260.491 101.266 260.865 101.462C261.633 101.813 262.696 102.44 263.86 103.406C265.029 104.368 266.252 105.719 267.349 107.394C268.442 109.071 269.385 111.083 270.048 113.297C270.694 115.514 271.039 117.694 271.22 119.681C271.403 121.669 271.441 123.467 271.443 124.973C271.443 126.481 271.411 127.7 271.383 128.542C271.366 128.941 271.354 129.263 271.343 129.511C271.33 129.732 271.319 129.848 271.311 129.848Z" fill="#263238"/>
<path d="M221.567 76.5456C221.709 76.803 221.466 99.9494 221.466 99.9494L219.583 99.9706L218.949 76.5486L221.567 76.5456Z" fill="#3ECAFF"/>
<path d="M219.397 96.8095L221.566 96.9231L221.546 100.2L224.003 101.487L223.987 103.641L222.382 105.865L222.314 102.765L220.31 101.716L218.597 102.611L218.702 105.954L216.928 103.782L217.027 101.79L219.304 100.094L219.397 96.8095Z" fill="#3ECAFF"/>
<path d="M231.523 80.1938L249.796 102.265C251.711 104.578 255.135 104.899 257.445 102.982C259.755 101.064 260.075 97.635 258.16 95.3221L239.888 73.2506C237.973 70.9377 234.549 70.6171 232.239 72.5343C229.929 74.4515 229.609 77.8809 231.523 80.1938Z" fill="#B5E1F1"/>
<path d="M220.495 80.0752H236.755C238.638 80.0752 240.165 78.5468 240.165 76.6612C240.165 74.7756 238.638 73.2472 236.755 73.2472H220.495C218.612 73.2472 217.086 74.7756 217.086 76.6612C217.086 78.5468 218.612 80.0752 220.495 80.0752Z" fill="#B5E1F1"/>
<path d="M252.933 140.638C257.148 140.638 260.564 137.217 260.564 132.997V100.19C260.564 95.9702 257.148 92.5492 252.933 92.5492C248.718 92.5492 245.302 95.9702 245.302 100.19V132.997C245.302 137.217 248.718 140.638 252.933 140.638Z" fill="#B5E1F1"/>
<path d="M255.571 135.846C256.953 134.293 256.816 131.911 255.265 130.527C253.713 129.143 251.335 129.281 249.953 130.834C248.571 132.387 248.708 134.769 250.259 136.153C251.811 137.537 254.189 137.399 255.571 135.846Z" fill="#263238"/>
<path d="M255.591 101.813C257.06 100.342 257.06 97.9563 255.591 96.4851C254.122 95.0139 251.74 95.0139 250.27 96.4851C248.801 97.9563 248.801 100.342 250.27 101.813C251.74 103.284 254.122 103.284 255.591 101.813Z" fill="#263238"/>
<path d="M234.671 75.0453C233.779 75.938 233.779 77.3849 234.671 78.2771C235.562 79.1697 237.007 79.1697 237.898 78.2771C238.79 77.3844 238.79 75.9375 237.898 75.0453C237.007 74.1527 235.562 74.1527 234.671 75.0453Z" fill="#263238"/>
<path d="M219.047 75.5635C218.442 76.1697 218.442 77.1527 219.047 77.7594C219.653 78.3655 220.635 78.3655 221.24 77.7594C221.846 77.1527 221.846 76.1697 221.24 75.5635C220.635 74.9569 219.653 74.9569 219.047 75.5635Z" fill="#263238"/>
<path d="M245.342 100.816C245.333 100.816 245.323 100.747 245.312 100.613C245.307 100.479 245.275 100.28 245.289 100.024C245.289 99.5127 245.376 98.7662 245.656 97.8899C245.933 97.014 246.441 96.0191 247.236 95.0918C248.024 94.1661 249.126 93.3283 250.457 92.8437C251.795 92.3813 253.179 92.3363 254.374 92.5586C255.574 92.778 256.595 93.2305 257.361 93.7363C258.129 94.2407 258.667 94.7653 258.988 95.1635C259.161 95.3527 259.26 95.5276 259.34 95.6348C259.416 95.7459 259.452 95.8067 259.445 95.8116C259.394 95.863 258.804 94.8439 257.264 93.8904C256.503 93.4152 255.502 92.9928 254.333 92.7923C253.169 92.5892 251.832 92.6411 250.543 93.0862C249.262 93.5535 248.191 94.3558 247.414 95.2475C246.633 96.1401 246.12 97.0995 245.828 97.9486C245.231 99.6604 245.414 100.824 245.342 100.816Z" fill="#263238"/>
<path d="M231.765 72.7517C231.805 72.7769 231.535 73.1869 231.256 73.9136C230.976 74.6373 230.734 75.7004 230.783 76.886C230.839 78.0716 231.175 79.109 231.518 79.805C231.86 80.5045 232.165 80.8884 232.128 80.9175C232.114 80.9289 232.029 80.8409 231.884 80.671C231.736 80.5045 231.553 80.2368 231.357 79.889C231.157 79.5422 230.97 79.1011 230.813 78.5952C230.667 78.0859 230.558 77.5099 230.527 76.8978C230.504 76.2853 230.561 75.7018 230.662 75.1822C230.774 74.664 230.921 74.208 231.089 73.8449C231.253 73.4808 231.412 73.1983 231.545 73.0194C231.673 72.8366 231.75 72.7413 231.765 72.7517Z" fill="#263238"/>
<path d="M47.4321 98.7317C47.439 98.7593 46.9644 98.87 46.1405 99.1595C45.3147 99.442 44.1573 99.9785 42.8752 100.867C41.5886 101.749 40.2284 103.046 38.9917 104.698C37.7618 106.354 36.6814 108.379 35.9236 110.639C35.1831 112.907 34.7796 115.159 34.56 117.217C34.339 119.277 34.2779 121.145 34.2552 122.714C34.233 124.283 34.2433 125.554 34.2453 126.432C34.2438 126.851 34.2428 127.187 34.2423 127.444C34.2389 127.675 34.233 127.797 34.2241 127.797C34.2152 127.797 34.2039 127.676 34.1905 127.445C34.1792 127.188 34.1639 126.853 34.1451 126.434C34.1126 125.556 34.0746 124.285 34.0736 122.712C34.0731 121.14 34.1155 119.265 34.3247 117.192C34.5319 115.121 34.9315 112.85 35.6794 110.558C36.4465 108.271 37.5467 106.225 38.8017 104.556C40.0642 102.892 41.4559 101.59 42.7716 100.717C44.0833 99.8367 45.2659 99.3205 46.108 99.0646C46.5209 98.91 46.8633 98.8616 47.0853 98.7988C47.3112 98.7465 47.4301 98.7233 47.4321 98.7317Z" fill="#263238"/>
<path d="M32.2833 127.799C32.2744 127.799 32.2636 127.666 32.2507 127.412C32.2404 127.134 32.2261 126.764 32.2083 126.302C32.1782 125.338 32.1437 123.942 32.1456 122.216C32.1486 120.49 32.1945 118.432 32.4042 116.157C32.6128 113.882 33.009 111.387 33.748 108.849C34.5058 106.315 35.5857 104.013 36.8353 102.093C38.0898 100.176 39.4879 98.6294 40.8239 97.5273C42.1559 96.4197 43.3714 95.701 44.2486 95.2974C44.6758 95.0716 45.0384 94.9614 45.2703 94.8597C45.5071 94.7673 45.6324 94.7228 45.6354 94.7312C45.6383 94.7396 45.5194 94.7999 45.29 94.9076C45.0651 95.0247 44.7108 95.1487 44.293 95.3868C43.4346 95.8156 42.2447 96.5516 40.9413 97.6656C39.6335 98.7741 38.265 100.316 37.0336 102.222C35.8072 104.13 34.7445 106.412 33.9937 108.922C33.2606 111.439 32.8595 113.916 32.639 116.179C32.4175 118.443 32.3524 120.495 32.3262 122.217C32.3006 123.94 32.3075 125.336 32.307 126.3C32.3045 126.763 32.3025 127.133 32.301 127.411C32.2986 127.665 32.2922 127.799 32.2833 127.799Z" fill="#263238"/>
<path d="M89.0368 66.4641C88.8824 66.7629 89.8045 83.7901 89.8045 83.7901L91.9608 83.7575L92.0338 66.3885L89.0368 66.4641Z" fill="#3ECAFF"/>
<path d="M93.0378 74.6521L87.9299 75.0542L88.18 82.7819L82.4662 85.9672L82.6359 91.0465L86.5584 96.192L86.5263 88.8778L91.1883 86.2794L95.2845 88.2831L95.244 96.1727L99.2913 90.9398L98.9337 86.2488L93.4581 82.3911L93.0378 74.6521Z" fill="#3ECAFF"/>
<path d="M77.8472 70.9348L56.9214 96.2108C54.7286 98.8596 50.8066 99.2266 48.1618 97.0308C45.5166 94.835 45.15 90.9077 47.3429 88.2593L68.2686 62.9833C70.4615 60.3345 74.383 59.9675 77.0282 62.1633C79.673 64.3591 80.04 68.2859 77.8472 70.9348Z" fill="#B5E1F1"/>
<path d="M90.4764 70.7994H71.856C69.6997 70.7994 67.9518 69.0492 67.9518 66.8899C67.9518 64.7306 69.6997 62.9804 71.856 62.9804H90.4764C92.6327 62.9804 94.3806 64.7306 94.3806 66.8899C94.3806 69.0487 92.6323 70.7994 90.4764 70.7994Z" fill="#B5E1F1"/>
<path d="M53.3289 140.155C48.5027 140.155 44.59 136.237 44.59 131.404V93.8346C44.59 89.0018 48.5027 85.0839 53.3289 85.0839C58.1552 85.0839 62.0678 89.0018 62.0678 93.8346V131.404C62.0678 136.237 58.1552 140.155 53.3289 140.155Z" fill="#B5E1F1"/>
<path d="M56.5524 134.846C58.2348 133.162 58.2348 130.43 56.5524 128.745C54.8699 127.061 52.1421 127.061 50.4596 128.745C48.7771 130.43 48.7771 133.162 50.4596 134.846C52.1421 136.531 54.8699 136.531 56.5524 134.846Z" fill="#263238"/>
<path d="M57.5841 93.3335C57.9653 90.9816 56.3703 88.7656 54.0216 88.3839C51.6729 88.0022 49.4599 89.5994 49.0787 91.9513C48.6976 94.3031 50.2926 96.5191 52.6413 96.9008C54.99 97.2825 57.203 95.6854 57.5841 93.3335Z" fill="#263238"/>
<path d="M72.3943 69.5066C73.8378 69.5066 75.008 68.3348 75.008 66.8894C75.008 65.444 73.8378 64.2722 72.3943 64.2722C70.9508 64.2722 69.7806 65.444 69.7806 66.8894C69.7806 68.3348 70.9508 69.5066 72.3943 69.5066Z" fill="#263238"/>
<path d="M92.1341 65.6322C92.8277 66.3267 92.8277 67.4525 92.1341 68.1466C91.4404 68.8412 90.3161 68.8412 89.623 68.1466C88.9294 67.452 88.9294 66.3262 89.623 65.6322C90.3166 64.9381 91.4409 64.9381 92.1341 65.6322Z" fill="#263238"/>
<path d="M62.0219 94.5514C61.945 94.5618 62.1591 93.2275 61.4778 91.2629C61.1443 90.2887 60.5577 89.1871 59.6618 88.1625C58.7723 87.139 57.5434 86.2172 56.0723 85.6812C54.5918 85.1699 53.0576 85.1111 51.7226 85.3453C50.3822 85.5764 49.2337 86.0625 48.362 86.6089C46.5974 87.7056 45.925 88.8764 45.8717 88.82C45.8643 88.8151 45.9067 88.7464 45.994 88.6195C46.0868 88.4975 46.2017 88.2979 46.4 88.0825C46.769 87.6285 47.3852 87.0298 48.2653 86.4548C49.142 85.8778 50.3092 85.3616 51.6817 85.1116C53.0482 84.8587 54.6293 84.91 56.1582 85.4386C57.6776 85.9924 58.9381 86.9488 59.8404 88.0069C60.7491 89.0666 61.3313 90.2032 61.6495 91.2041C61.9716 92.2059 62.0737 93.0596 62.0752 93.6449C62.0935 93.9374 62.0574 94.1651 62.0525 94.3183C62.0412 94.4719 62.0308 94.5519 62.0219 94.5514Z" fill="#263238"/>
<path d="M77.5703 62.4118C77.5851 62.4019 77.6714 62.5121 77.8165 62.7215C77.9665 62.9275 78.1465 63.2521 78.333 63.6685C78.5239 64.084 78.6907 64.6056 78.8175 65.1979C78.9309 65.7922 78.996 66.4591 78.9699 67.1586C78.9344 67.8581 78.8101 68.5166 78.6443 69.0986C78.4652 69.677 78.2526 70.1819 78.0257 70.5791C77.8032 70.9772 77.595 71.2845 77.4272 71.4762C77.2644 71.6718 77.1682 71.7741 77.1544 71.7627C77.1155 71.7331 77.4697 71.2959 77.8643 70.4951C78.0656 70.0969 78.2546 69.599 78.4164 69.0333C78.5649 68.4643 78.6783 67.8255 78.7129 67.1468C78.738 66.468 78.6818 65.8219 78.5846 65.2419C78.4736 64.6644 78.3295 64.1516 78.1643 63.7372C77.8426 62.9048 77.5289 62.438 77.5703 62.4118Z" fill="#263238"/>
<path d="M284.092 141.615H21.4398C17.1528 141.615 13.6772 138.135 13.6772 133.842C13.6772 129.549 17.1528 126.069 21.4398 126.069H284.092C288.38 126.069 291.855 129.549 291.855 133.842C291.855 138.136 288.38 141.615 284.092 141.615Z" fill="#B5E1F1"/>
<path d="M255.486 135.182C255.977 133.106 254.695 131.024 252.621 130.532C250.547 130.04 248.468 131.325 247.977 133.401C247.486 135.478 248.769 137.56 250.842 138.052C252.916 138.543 254.995 137.259 255.486 135.182Z" fill="#263238"/>
<path d="M287.127 134.691C287.672 132.629 286.444 130.514 284.385 129.968C282.325 129.422 280.213 130.651 279.667 132.714C279.122 134.777 280.35 136.892 282.41 137.438C284.47 137.984 286.582 136.754 287.127 134.691Z" fill="#263238"/>
<path d="M219.333 137.037C220.84 135.528 220.84 133.082 219.333 131.573C217.826 130.064 215.383 130.064 213.876 131.573C212.37 133.082 212.37 135.528 213.876 137.037C215.383 138.546 217.826 138.546 219.333 137.037Z" fill="#263238"/>
<path d="M182.952 137.866C184.922 137.053 185.861 134.795 185.049 132.822C184.237 130.849 181.983 129.908 180.013 130.721C178.043 131.534 177.104 133.792 177.915 135.765C178.727 137.738 180.982 138.678 182.952 137.866Z" fill="#263238"/>
<path d="M150.113 135.186C150.604 133.11 149.321 131.028 147.248 130.536C145.174 130.044 143.095 131.329 142.604 133.405C142.113 135.482 143.396 137.564 145.469 138.055C147.543 138.547 149.622 137.263 150.113 135.186Z" fill="#263238"/>
<path d="M113.995 137C115.478 135.468 115.44 133.022 113.91 131.537C112.379 130.052 109.937 130.091 108.454 131.623C106.971 133.155 107.009 135.601 108.54 137.086C110.07 138.571 112.512 138.533 113.995 137Z" fill="#263238"/>
<path d="M77.5873 137.876C79.5558 137.06 80.4905 134.8 79.675 132.828C78.8595 130.857 76.6026 129.921 74.6341 130.737C72.6656 131.554 71.7309 133.814 72.5464 135.785C73.3619 137.757 75.6188 138.693 77.5873 137.876Z" fill="#263238"/>
<path d="M31.9643 135.201C32.454 133.125 31.1698 131.044 29.096 130.553C27.0222 130.063 24.9441 131.349 24.4544 133.426C23.9647 135.502 25.2489 137.583 27.3227 138.074C29.3965 138.564 31.4746 137.278 31.9643 135.201Z" fill="#263238"/>
<path d="M75.5235 183.447H31.4915L32.0741 141.615H76.1066L75.5235 183.447Z" fill="#ABE6FC"/>
<path d="M270.689 183.332H226.657L226.999 141.615H271.031L270.689 183.332Z" fill="#ABE6FC"/>
<path d="M62.5103 126.07C62.5103 126.141 58.4793 126.198 53.508 126.198C48.5352 126.198 44.5051 126.14 44.5051 126.07C44.5051 125.999 48.5352 125.941 53.508 125.941C58.4793 125.941 62.5103 125.998 62.5103 126.07Z" fill="#263238"/>
<path d="M282.981 140.155C282.981 140.155 283.104 140.144 283.347 140.13C283.589 140.124 283.95 140.077 284.419 139.977C284.885 139.869 285.455 139.679 286.083 139.346C286.702 139.002 287.373 138.5 287.972 137.781C288.566 137.062 289.068 136.114 289.318 134.987C289.542 133.862 289.514 132.549 289.008 131.277C288.513 130.013 287.562 128.785 286.188 128.013C285.507 127.625 284.732 127.35 283.907 127.233C283.083 127.12 282.211 127.174 281.323 127.162C267.082 127.172 246.479 127.186 221.021 127.203C170.1 127.213 99.7615 127.226 22.0743 127.24C20.8849 127.253 19.6944 127.57 18.6915 128.211C18.1878 128.523 17.7236 128.903 17.3324 129.349C16.9293 129.784 16.5953 130.281 16.3378 130.814C15.8015 131.873 15.6091 133.083 15.7083 134.259C15.8341 135.431 16.2653 136.575 16.9895 137.505C17.3432 137.974 17.7621 138.395 18.2357 138.742C18.6994 139.103 19.2223 139.382 19.7675 139.593C20.3091 139.821 20.8918 139.925 21.4704 139.995C22.0491 140.038 22.652 140.023 23.2459 140.026C25.6283 140.026 28.0017 140.026 30.3672 140.026C39.8279 140.027 49.1494 140.028 58.3091 140.028C76.6286 140.031 94.2988 140.033 111.132 140.035C144.797 140.046 175.114 140.055 200.573 140.063C226.031 140.08 246.632 140.094 260.872 140.104C267.989 140.115 273.516 140.123 277.266 140.128C279.138 140.134 280.567 140.138 281.529 140.141C282.489 140.147 282.981 140.155 282.981 140.155C282.981 140.155 282.489 140.164 281.529 140.168C280.566 140.171 279.138 140.175 277.265 140.181C273.515 140.187 267.989 140.195 260.871 140.205C246.632 140.215 226.031 140.229 200.573 140.246C175.113 140.254 144.797 140.264 111.131 140.274C94.2983 140.277 76.6281 140.279 58.3086 140.281C49.1489 140.282 39.8269 140.283 30.3667 140.283C28.0017 140.283 25.6278 140.283 23.2455 140.284C22.649 140.281 22.0585 140.297 21.4463 140.253C20.8444 140.18 20.2386 140.07 19.6747 139.834C19.1074 139.615 18.5637 139.324 18.0812 138.949C17.5884 138.589 17.1533 138.15 16.7853 137.662C16.0329 136.695 15.5825 135.505 15.4523 134.285C15.3482 133.063 15.5495 131.803 16.1069 130.701C16.3753 130.147 16.7226 129.63 17.1414 129.177C17.5484 128.714 18.0314 128.319 18.5548 127.993C19.5982 127.327 20.838 126.996 22.0733 126.984C99.7605 126.999 170.099 127.012 221.02 127.022C246.478 127.039 267.081 127.053 281.322 127.063C282.211 127.076 283.078 127.024 283.919 127.14C284.757 127.26 285.542 127.542 286.231 127.936C287.621 128.723 288.581 129.969 289.078 131.249C289.587 132.539 289.61 133.866 289.38 135C289.124 136.137 288.613 137.092 288.011 137.814C287.403 138.536 286.725 139.037 286.101 139.38C285.467 139.711 284.893 139.898 284.424 140.002C283.952 140.098 283.59 140.141 283.346 140.143C283.104 140.154 282.981 140.155 282.981 140.155Z" fill="#263238"/>
<path d="M234.158 109.72H208.754V126.069H234.158V109.72Z" fill="#97D4EA"/>
<path d="M236.644 109.987C236.644 111.338 235.55 112.433 234.202 112.433C232.853 112.433 231.759 111.339 231.759 109.987C231.759 108.637 232.853 107.542 234.202 107.542C235.551 107.542 236.644 108.637 236.644 109.987Z" fill="#455A64"/>
<path d="M232.947 109.783L233.931 110.776L235.458 109.199" stroke="white" stroke-miterlimit="10"/>
<path d="M226.555 126.298C226.484 126.298 226.426 122.617 226.426 118.077C226.426 113.535 226.484 109.855 226.555 109.855C226.626 109.855 226.683 113.535 226.683 118.077C226.683 122.617 226.625 126.298 226.555 126.298Z" fill="#263238"/>
<path d="M163.724 111.316H140.604V126.195H163.724V111.316Z" fill="#97D4EA"/>
<path d="M154.817 126.191C154.746 126.191 154.689 122.858 154.689 118.748C154.689 114.635 154.747 111.303 154.817 111.303C154.889 111.303 154.946 114.635 154.946 118.748C154.946 122.858 154.889 126.191 154.817 126.191Z" fill="#263238"/>
<path d="M81.7138 98.7321H65.3544V126.07H81.7138V98.7321Z" fill="#97D4EA"/>
<path d="M78.1544 125.994C78.0834 125.994 78.0261 119.924 78.0261 112.439C78.0261 104.952 78.0838 98.8838 78.1544 98.8838C78.2254 98.8838 78.2827 104.952 78.2827 112.439C78.2832 119.924 78.2254 125.994 78.1544 125.994Z" fill="#263238"/>
<path d="M354.417 150.295L330.458 150.364L330.502 165.783L354.462 165.714L354.417 150.295Z" fill="#97D4EA"/>
<path d="M356.763 150.534C356.767 151.808 355.738 152.844 354.467 152.848C353.194 152.852 352.16 151.822 352.156 150.548C352.152 149.274 353.181 148.239 354.453 148.235C355.726 148.231 356.76 149.261 356.763 150.534Z" fill="#455A64"/>
<path d="M353.275 150.352L354.207 151.286L355.642 149.794" stroke="white" stroke-miterlimit="10"/>
<path d="M347.292 165.945C347.221 165.945 347.153 162.474 347.141 158.192C347.129 153.909 347.176 150.438 347.247 150.437C347.318 150.437 347.386 153.908 347.398 158.191C347.41 162.473 347.363 165.945 347.292 165.945Z" fill="#263238"/>
<path d="M354.749 158.945C354.749 159.016 349.269 159.073 342.511 159.073C335.75 159.073 330.271 159.015 330.271 158.945C330.271 158.874 335.75 158.816 342.511 158.816C349.269 158.816 354.749 158.874 354.749 158.945Z" fill="#FAFAFA"/>
<path d="M337.967 165.724C337.896 165.724 337.839 162.274 337.839 158.02C337.839 153.763 337.897 150.314 337.967 150.314C338.038 150.314 338.096 153.763 338.096 158.02C338.096 162.274 338.039 165.724 337.967 165.724Z" fill="#FAFAFA"/>
<path d="M350.841 165.842C350.77 165.842 350.713 162.365 350.713 158.078C350.713 153.789 350.77 150.314 350.841 150.314C350.912 150.314 350.969 153.789 350.969 158.078C350.969 162.365 350.912 165.842 350.841 165.842Z" fill="#FAFAFA"/>
<path d="M337.618 158.968C337.617 158.983 337.445 158.993 337.135 158.965C336.827 158.934 336.379 158.858 335.851 158.678C335.323 158.499 334.713 158.209 334.119 157.763C333.826 157.543 333.508 157.279 333.321 156.879C333.228 156.682 333.191 156.44 333.245 156.208C333.301 155.975 333.449 155.774 333.631 155.63C333.998 155.334 334.502 155.284 334.904 155.4C335.314 155.51 335.656 155.726 335.95 155.952C336.544 156.405 336.967 156.94 337.249 157.423C337.533 157.907 337.682 158.339 337.76 158.64C337.835 158.942 337.846 159.115 337.832 159.118C337.783 159.134 337.679 158.437 337.094 157.519C336.802 157.064 336.381 156.564 335.807 156.142C335.523 155.931 335.2 155.737 334.841 155.644C334.485 155.548 334.088 155.595 333.789 155.832C333.483 156.061 333.391 156.454 333.55 156.777C333.698 157.104 333.982 157.359 334.263 157.574C334.826 158.014 335.407 158.312 335.912 158.507C336.931 158.897 337.625 158.919 337.618 158.968Z" fill="#FAFAFA"/>
<path d="M337.846 159.338C337.832 159.337 337.825 159.179 337.866 158.9C337.906 158.621 337.994 158.218 338.184 157.746C338.378 157.278 338.673 156.74 339.117 156.231C339.338 155.975 339.593 155.73 339.885 155.502C340.034 155.389 340.207 155.279 340.419 155.234C340.627 155.191 340.873 155.215 341.062 155.375C341.25 155.537 341.304 155.786 341.297 155.986C341.293 156.192 341.242 156.385 341.18 156.558C341.063 156.911 340.897 157.232 340.706 157.513C340.32 158.074 339.841 158.475 339.4 158.729C338.958 158.986 338.558 159.107 338.281 159.16C338.004 159.216 337.845 159.208 337.844 159.195C337.83 159.142 338.475 159.104 339.304 158.574C339.714 158.312 340.156 157.916 340.509 157.38C340.684 157.112 340.835 156.809 340.941 156.479C341.053 156.167 341.113 155.763 340.894 155.57C340.79 155.478 340.622 155.453 340.471 155.484C340.318 155.516 340.172 155.602 340.035 155.704C339.76 155.916 339.509 156.148 339.294 156.388C338.859 156.868 338.559 157.376 338.35 157.82C337.944 158.718 337.894 159.347 337.846 159.338Z" fill="#FAFAFA"/>
</svg>
