<svg width="461" height="201" viewBox="0 0 461 201" fill="none" xmlns="http://www.w3.org/2000/svg">
<g clip-path="url(#clip0_8_20964)">
<path d="M446.286 200.903C446.286 200.903 484.819 106.763 325.186 49.2774C35.9563 -54.8699 -24.506 103.972 7.85399 200.903H446.286Z" fill="#EAF9FE"/>
<path d="M224.345 178.352H227.949V178.364C228.083 178.364 228.216 178.352 228.352 178.352C231.915 178.352 235.025 180.609 236.694 183.966C238.365 180.609 241.475 178.352 245.038 178.352H248.641V178.364C248.774 178.364 248.909 178.352 249.043 178.352C252.606 178.352 255.716 180.609 257.386 183.966C259.057 180.609 262.165 178.352 265.728 178.352H269.332V178.364C269.466 178.364 269.601 178.352 269.735 178.352C275.062 178.352 279.381 183.393 279.381 189.613C279.381 195.833 275.062 200.874 269.735 200.874C269.601 200.874 269.466 200.874 269.332 200.863V200.874H265.728C262.165 200.874 259.057 198.617 257.386 195.26C255.716 198.617 252.606 200.874 249.043 200.874C248.909 200.874 248.774 200.874 248.641 200.863V200.874H245.038C241.475 200.874 238.365 198.617 236.694 195.26C235.033 198.617 231.915 200.874 228.352 200.874C228.216 200.874 228.083 200.874 227.949 200.863V200.874H224.345C219.018 200.874 214.701 195.833 214.701 189.613C214.701 183.393 219.018 178.352 224.345 178.352Z" fill="#1F1949"/>
<path d="M134.397 178.352H138.001V178.364C138.135 178.364 138.27 178.352 138.404 178.352C141.967 178.352 145.077 180.61 146.748 183.966C148.409 180.61 151.527 178.352 155.09 178.352H158.693V178.364C158.826 178.364 158.961 178.352 159.097 178.352C164.422 178.352 168.74 183.393 168.74 189.613C168.74 195.833 164.422 200.874 159.097 200.874C158.961 200.874 158.826 200.874 158.693 200.863V200.874H155.09C151.527 200.874 148.417 198.617 146.748 195.262C145.077 198.617 141.967 200.874 138.404 200.874C138.27 200.874 138.135 200.874 138.001 200.863V200.874H134.397C129.072 200.874 124.753 195.833 124.753 189.613C124.753 183.393 129.072 178.352 134.397 178.352Z" fill="#1F1949"/>
<path d="M121.618 191.231L319.614 191.231V182.873L121.618 182.873V191.231Z" fill="#1F1949"/>
<path d="M76.7382 182.922H121.616L121.616 103.947H76.7382V182.922Z" fill="#343766"/>
<path d="M121.616 182.922L319.564 182.922V103.947L121.616 103.947V182.922Z" fill="#39548B"/>
<path d="M319.564 176.81H121.616V182.922H319.564V176.81Z" fill="#B2BFDF"/>
<path d="M296.607 178.352H300.21V200.874H296.607C291.279 200.874 286.963 195.833 286.963 189.613C286.963 183.393 291.279 178.352 296.607 178.352Z" fill="#343766"/>
<path d="M300.614 200.874C305.941 200.874 310.259 195.832 310.259 189.613C310.259 183.394 305.941 178.352 300.614 178.352C295.287 178.352 290.968 183.394 290.968 189.613C290.968 195.832 295.287 200.874 300.614 200.874Z" fill="#1F1949"/>
<path d="M301.224 196.152C304.317 196.152 306.824 193.224 306.824 189.613C306.824 186.001 304.317 183.074 301.224 183.074C298.131 183.074 295.623 186.001 295.623 189.613C295.623 193.224 298.131 196.152 301.224 196.152Z" fill="#CAD2EA"/>
<path d="M301.224 192.883C302.77 192.883 304.024 191.419 304.024 189.613C304.024 187.807 302.77 186.343 301.224 186.343C299.677 186.343 298.424 187.807 298.424 189.613C298.424 191.419 299.677 192.883 301.224 192.883Z" fill="#343766"/>
<path d="M301.224 196.152C304.317 196.152 306.824 193.224 306.824 189.613C306.824 186.001 304.317 183.074 301.224 183.074C298.131 183.074 295.623 186.001 295.623 189.613C295.623 193.224 298.131 196.152 301.224 196.152Z" fill="#CAD2EA"/>
<path d="M301.224 192.883C302.77 192.883 304.024 191.419 304.024 189.613C304.024 187.807 302.77 186.343 301.224 186.343C299.677 186.343 298.424 187.807 298.424 189.613C298.424 191.419 299.677 192.883 301.224 192.883Z" fill="#343766"/>
<path d="M275.914 178.352H279.518V200.874H275.914C270.589 200.874 266.271 195.833 266.271 189.613C266.271 183.393 270.589 178.352 275.914 178.352Z" fill="#343766"/>
<path d="M279.921 200.874C285.248 200.874 289.567 195.832 289.567 189.613C289.567 183.394 285.248 178.352 279.921 178.352C274.594 178.352 270.276 183.394 270.276 189.613C270.276 195.832 274.594 200.874 279.921 200.874Z" fill="#1F1949"/>
<path d="M280.532 196.152C283.625 196.152 286.132 193.224 286.132 189.613C286.132 186.001 283.625 183.074 280.532 183.074C277.438 183.074 274.931 186.001 274.931 189.613C274.931 193.224 277.438 196.152 280.532 196.152Z" fill="#CAD2EA"/>
<path d="M280.532 192.883C282.078 192.883 283.332 191.419 283.332 189.613C283.332 187.807 282.078 186.343 280.532 186.343C278.985 186.343 277.731 187.807 277.731 189.613C277.731 191.419 278.985 192.883 280.532 192.883Z" fill="#343766"/>
<path d="M280.532 196.152C283.625 196.152 286.132 193.224 286.132 189.613C286.132 186.001 283.625 183.074 280.532 183.074C277.438 183.074 274.931 186.001 274.931 189.613C274.931 193.224 277.438 196.152 280.532 196.152Z" fill="#CAD2EA"/>
<path d="M280.532 192.883C282.078 192.883 283.332 191.419 283.332 189.613C283.332 187.807 282.078 186.343 280.532 186.343C278.985 186.343 277.731 187.807 277.731 189.613C277.731 191.419 278.985 192.883 280.532 192.883Z" fill="#343766"/>
<path d="M255.223 178.352H258.827V200.874H255.223C249.896 200.874 245.578 195.833 245.578 189.613C245.578 183.393 249.896 178.352 255.223 178.352Z" fill="#343766"/>
<path d="M259.229 200.874C264.556 200.874 268.874 195.832 268.874 189.613C268.874 183.394 264.556 178.352 259.229 178.352C253.902 178.352 249.584 183.394 249.584 189.613C249.584 195.832 253.902 200.874 259.229 200.874Z" fill="#1F1949"/>
<path d="M259.841 196.152C262.934 196.152 265.441 193.224 265.441 189.613C265.441 186.001 262.934 183.074 259.841 183.074C256.748 183.074 254.24 186.001 254.24 189.613C254.24 193.224 256.748 196.152 259.841 196.152Z" fill="#CAD2EA"/>
<path d="M259.841 192.883C261.387 192.883 262.641 191.419 262.641 189.613C262.641 187.807 261.387 186.343 259.841 186.343C258.294 186.343 257.041 187.807 257.041 189.613C257.041 191.419 258.294 192.883 259.841 192.883Z" fill="#343766"/>
<path d="M259.841 196.152C262.934 196.152 265.441 193.224 265.441 189.613C265.441 186.001 262.934 183.074 259.841 183.074C256.748 183.074 254.24 186.001 254.24 189.613C254.24 193.224 256.748 196.152 259.841 196.152Z" fill="#CAD2EA"/>
<path d="M259.841 192.883C261.387 192.883 262.641 191.419 262.641 189.613C262.641 187.807 261.387 186.343 259.841 186.343C258.294 186.343 257.041 187.807 257.041 189.613C257.041 191.419 258.294 192.883 259.841 192.883Z" fill="#343766"/>
<path d="M183.015 178.352H186.617V200.874H183.015C177.688 200.874 173.37 195.833 173.37 189.613C173.37 183.393 177.688 178.352 183.015 178.352Z" fill="#343766"/>
<path d="M187.021 200.874C192.348 200.874 196.666 195.832 196.666 189.613C196.666 183.394 192.348 178.352 187.021 178.352C181.694 178.352 177.375 183.394 177.375 189.613C177.375 195.832 181.694 200.874 187.021 200.874Z" fill="#1F1949"/>
<path d="M187.632 196.152C190.725 196.152 193.233 193.224 193.233 189.613C193.233 186.001 190.725 183.074 187.632 183.074C184.539 183.074 182.032 186.001 182.032 189.613C182.032 193.224 184.539 196.152 187.632 196.152Z" fill="#CAD2EA"/>
<path d="M187.632 192.883C189.179 192.883 190.433 191.419 190.433 189.613C190.433 187.807 189.179 186.343 187.632 186.343C186.086 186.343 184.832 187.807 184.832 189.613C184.832 191.419 186.086 192.883 187.632 192.883Z" fill="#343766"/>
<path d="M187.632 196.152C190.725 196.152 193.233 193.224 193.233 189.613C193.233 186.001 190.725 183.074 187.632 183.074C184.539 183.074 182.032 186.001 182.032 189.613C182.032 193.224 184.539 196.152 187.632 196.152Z" fill="#CAD2EA"/>
<path d="M187.632 192.883C189.179 192.883 190.433 191.419 190.433 189.613C190.433 187.807 189.179 186.343 187.632 186.343C186.086 186.343 184.832 187.807 184.832 189.613C184.832 191.419 186.086 192.883 187.632 192.883Z" fill="#343766"/>
<path d="M162.323 178.352H165.926V200.874H162.323C156.996 200.874 152.677 195.833 152.677 189.613C152.677 183.393 156.996 178.352 162.323 178.352Z" fill="#343766"/>
<path d="M166.33 200.874C171.657 200.874 175.975 195.832 175.975 189.613C175.975 183.394 171.657 178.352 166.33 178.352C161.003 178.352 156.684 183.394 156.684 189.613C156.684 195.832 161.003 200.874 166.33 200.874Z" fill="#1F1949"/>
<path d="M166.94 196.152C170.033 196.152 172.541 193.224 172.541 189.613C172.541 186.001 170.033 183.074 166.94 183.074C163.847 183.074 161.339 186.001 161.339 189.613C161.339 193.224 163.847 196.152 166.94 196.152Z" fill="#CAD2EA"/>
<path d="M166.94 192.883C168.486 192.883 169.74 191.419 169.74 189.613C169.74 187.807 168.486 186.343 166.94 186.343C165.393 186.343 164.14 187.807 164.14 189.613C164.14 191.419 165.393 192.883 166.94 192.883Z" fill="#343766"/>
<path d="M166.94 196.152C170.033 196.152 172.541 193.224 172.541 189.613C172.541 186.001 170.033 183.074 166.94 183.074C163.847 183.074 161.339 186.001 161.339 189.613C161.339 193.224 163.847 196.152 166.94 196.152Z" fill="#CAD2EA"/>
<path d="M166.94 192.883C168.486 192.883 169.74 191.419 169.74 189.613C169.74 187.807 168.486 186.343 166.94 186.343C165.393 186.343 164.14 187.807 164.14 189.613C164.14 191.419 165.393 192.883 166.94 192.883Z" fill="#343766"/>
<path d="M113.549 191.2H121.616V186.343H113.549V191.2Z" fill="#1F1949"/>
<path d="M33.0034 178.352H36.6072V178.364C36.7416 178.364 36.8746 178.352 37.0105 178.352C42.3376 178.352 46.6543 183.393 46.6543 189.613C46.6543 195.833 42.3376 200.874 37.0105 200.874C36.8746 200.874 36.7416 200.874 36.6072 200.863V200.874H33.0034C27.6778 200.874 23.3596 195.833 23.3596 189.613C23.3596 183.393 27.6778 178.352 33.0034 178.352Z" fill="#1F1949"/>
<path d="M71.7584 147.209C70.167 147.788 68.7517 148.771 67.6505 150.064C66.5494 151.357 65.7999 152.915 65.4752 154.586L63.3139 165.696L48.7673 169.27C47.2644 169.64 45.9284 170.507 44.9731 171.731C44.0179 172.956 43.4988 174.467 43.4991 176.024V182.873H19.5761V176.024C19.5759 174.467 20.0952 172.955 21.0507 171.731C22.0062 170.506 23.3427 169.64 24.8458 169.27L39.3939 165.696L41.5537 154.586C41.8788 152.915 42.6286 151.357 43.73 150.064C44.8314 148.771 46.2469 147.788 47.8385 147.209L68.9068 139.55C70.2671 139.054 71.7028 138.801 73.1495 138.801H97.071C95.6243 138.801 94.1886 139.054 92.8283 139.55L71.7584 147.209Z" fill="#E1E5EF"/>
<path d="M23.9079 191.231H18.8285C18.732 191.231 18.6359 191.221 18.5415 191.201H23.9079V191.231Z" fill="#E1E5EF"/>
<path d="M43.4991 176.024C43.499 174.467 44.0182 172.955 44.9738 171.731C45.9293 170.506 47.2657 169.64 48.7689 169.27L63.3154 165.696L65.4768 154.586C65.8015 152.915 66.5509 151.357 67.6521 150.064C68.7532 148.771 70.1685 147.788 71.76 147.209L92.8299 139.55C94.1901 139.054 95.6258 138.801 97.0725 138.801H110.643C111.414 138.801 112.154 139.109 112.699 139.658C113.245 140.206 113.551 140.95 113.551 141.726V182.873H43.4991V176.024Z" fill="#B2BFDF"/>
<mask id="mask0_8_20964" style="mask-type:luminance" maskUnits="userSpaceOnUse" x="43" y="138" width="71" height="45">
<path d="M43.4991 176.024C43.499 174.467 44.0182 172.955 44.9738 171.731C45.9293 170.506 47.2657 169.64 48.7689 169.27L63.3154 165.696L65.4768 154.586C65.8015 152.915 66.5509 151.357 67.6521 150.064C68.7532 148.771 70.1685 147.788 71.76 147.209L92.8299 139.55C94.1901 139.054 95.6258 138.801 97.0725 138.801H110.643C111.414 138.801 112.154 139.109 112.699 139.658C113.245 140.206 113.551 140.95 113.551 141.726V182.873H43.4991V176.024Z" fill="white"/>
</mask>
<g mask="url(#mask0_8_20964)">
<path d="M84.9426 164.821H113.549V154.917H84.9426V164.821Z" fill="#39548B"/>
</g>
<path d="M17.448 189.841V184.264C17.448 183.895 17.5934 183.542 17.8522 183.281C18.1111 183.02 18.4622 182.874 18.8285 182.873H42.7439C42.3774 182.873 42.0259 183.02 41.7667 183.28C41.5075 183.541 41.3619 183.895 41.3619 184.264V189.841C41.3605 190.161 41.4686 190.471 41.668 190.72C41.8674 190.97 42.146 191.142 42.4569 191.209H18.5415C18.2307 191.142 17.9523 190.969 17.7531 190.72C17.5539 190.471 17.4462 190.161 17.448 189.841Z" fill="#E1E5EF"/>
<path d="M17.448 189.841V184.264C17.448 183.895 17.5934 183.542 17.8522 183.281C18.1111 183.02 18.4622 182.874 18.8285 182.873H42.7439C42.3774 182.873 42.0259 183.02 41.7667 183.28C41.5075 183.541 41.3619 183.895 41.3619 184.264V189.841C41.3605 190.161 41.4686 190.471 41.668 190.72C41.8674 190.97 42.146 191.142 42.4569 191.209H18.5415C18.2307 191.142 17.9523 190.969 17.7531 190.72C17.5539 190.471 17.4462 190.161 17.448 189.841Z" fill="#343766"/>
<path d="M41.368 189.841V184.264C41.368 183.895 41.5136 183.541 41.7728 183.28C42.0319 183.02 42.3835 182.873 42.75 182.873H113.549V191.201H42.463C42.1534 191.135 41.8757 190.963 41.6764 190.716C41.4772 190.468 41.3683 190.159 41.368 189.841Z" fill="#B2BFDF"/>
<path d="M41.368 189.841V184.264C41.368 183.895 41.5136 183.541 41.7728 183.28C42.0319 183.02 42.3835 182.873 42.75 182.873H113.549V191.201H42.463C42.1534 191.135 41.8757 190.963 41.6764 190.716C41.4772 190.468 41.3683 190.159 41.368 189.841Z" fill="#1F1949"/>
<path d="M19.5761 182.873H43.4976V176.022H19.5761V182.873Z" fill="#CAD2EA"/>
<path d="M38.2596 181.667H41.9268C42.1337 181.667 42.3014 181.498 42.3014 181.29V177.841C42.3014 177.633 42.1337 177.465 41.9268 177.465H38.2596C38.0527 177.465 37.885 177.633 37.885 177.841V181.29C37.885 181.498 38.0527 181.667 38.2596 181.667Z" fill="#343766"/>
<path d="M19.6033 181.667H22.4368C22.6211 181.667 22.7706 181.516 22.7706 181.331V177.8C22.7706 177.615 22.6211 177.465 22.4368 177.465H19.6033C19.4189 177.465 19.2695 177.615 19.2695 177.8V181.331C19.2695 181.516 19.4189 181.667 19.6033 181.667Z" fill="#343766"/>
<path d="M24.4592 181.667H35.5575C35.731 181.667 35.8716 181.525 35.8716 181.35V177.781C35.8716 177.606 35.731 177.465 35.5575 177.465H24.4592C24.2857 177.465 24.145 177.606 24.145 177.781V181.35C24.145 181.525 24.2857 181.667 24.4592 181.667Z" fill="#8296C9"/>
<path d="M25.0875 178.762H34.8341C34.93 178.762 35.0078 178.684 35.0078 178.588V178.512C35.0078 178.415 34.93 178.337 34.8341 178.337H25.0875C24.9916 178.337 24.9138 178.415 24.9138 178.512V178.588C24.9138 178.684 24.9916 178.762 25.0875 178.762Z" fill="#CAD2EA"/>
<path d="M25.0875 179.831H34.8341C34.93 179.831 35.0078 179.753 35.0078 179.656V179.58C35.0078 179.483 34.93 179.405 34.8341 179.405H25.0875C24.9916 179.405 24.9138 179.483 24.9138 179.58V179.656C24.9138 179.753 24.9916 179.831 25.0875 179.831Z" fill="#CAD2EA"/>
<path d="M25.0875 180.898H34.8341C34.93 180.898 35.0078 180.819 35.0078 180.723V180.647C35.0078 180.55 34.93 180.472 34.8341 180.472H25.0875C24.9916 180.472 24.9138 180.55 24.9138 180.647V180.723C24.9138 180.819 24.9916 180.898 25.0875 180.898Z" fill="#CAD2EA"/>
<path d="M41.2456 164.821H60.8127C60.9428 164.821 61.0689 164.775 61.1695 164.692C61.27 164.609 61.3388 164.493 61.364 164.365L63.107 155.593C63.123 155.511 63.1208 155.426 63.1004 155.345C63.0801 155.264 63.0421 155.188 62.9893 155.124C62.9364 155.059 62.87 155.007 62.7948 154.971C62.7195 154.936 62.6374 154.917 62.5542 154.917H43.0324C42.94 154.917 42.8505 154.949 42.7792 155.008C42.7078 155.067 42.6591 155.149 42.6412 155.241L40.8544 164.342C40.8431 164.4 40.8446 164.46 40.859 164.518C40.8734 164.575 40.9003 164.629 40.9377 164.674C40.9751 164.72 41.0221 164.757 41.0753 164.782C41.1286 164.808 41.1867 164.821 41.2456 164.821Z" fill="#343766"/>
<mask id="mask1_8_20964" style="mask-type:luminance" maskUnits="userSpaceOnUse" x="40" y="154" width="24" height="11">
<path d="M41.2456 164.821H60.8127C60.9428 164.821 61.0689 164.775 61.1695 164.692C61.27 164.609 61.3388 164.493 61.364 164.365L63.107 155.593C63.123 155.511 63.1208 155.426 63.1004 155.345C63.0801 155.264 63.0421 155.188 62.9893 155.124C62.9364 155.059 62.87 155.007 62.7948 154.971C62.7195 154.936 62.6374 154.917 62.5542 154.917H43.0324C42.94 154.917 42.8505 154.949 42.7792 155.008C42.7078 155.067 42.6591 155.149 42.6412 155.241L40.8544 164.342C40.8431 164.4 40.8446 164.46 40.859 164.518C40.8734 164.575 40.9003 164.629 40.9377 164.674C40.9751 164.72 41.0221 164.757 41.0753 164.782C41.1286 164.808 41.1867 164.821 41.2456 164.821Z" fill="white"/>
</mask>
<g mask="url(#mask1_8_20964)">
<path d="M51.9829 166.24H57.6922V153.858H51.9829V166.24Z" fill="#39548B"/>
<path d="M46.458 166.059H49.7566V153.678H46.393L46.458 166.059Z" fill="#39548B"/>
</g>
<path d="M66.8301 164.821H69.8025C72.4131 164.821 74.9167 163.777 76.7627 161.92C78.6087 160.063 79.6457 157.544 79.6457 154.917H68.3526C68.1731 154.914 67.9985 154.976 67.8601 155.091C67.7217 155.206 67.6286 155.367 67.5974 155.545L66.0749 163.918C66.0537 164.029 66.0575 164.144 66.0859 164.253C66.1142 164.362 66.1665 164.464 66.2388 164.55C66.3112 164.637 66.4018 164.706 66.5041 164.753C66.6064 164.8 66.7177 164.823 66.8301 164.821Z" fill="#343766"/>
<mask id="mask2_8_20964" style="mask-type:luminance" maskUnits="userSpaceOnUse" x="66" y="154" width="14" height="11">
<path d="M66.8301 164.821H69.8025C72.4131 164.821 74.9167 163.777 76.7627 161.92C78.6087 160.063 79.6457 157.544 79.6457 154.917H68.3526C68.1731 154.914 67.9985 154.976 67.8601 155.091C67.7217 155.206 67.6286 155.367 67.5974 155.545L66.0749 163.918C66.0537 164.029 66.0575 164.144 66.0859 164.253C66.1142 164.362 66.1665 164.464 66.2388 164.55C66.3112 164.637 66.4018 164.706 66.5041 164.753C66.6064 164.8 66.7177 164.823 66.8301 164.821Z" fill="white"/>
</mask>
<g mask="url(#mask2_8_20964)">
<path d="M72.858 154.385L76.2065 164.573L72.858 165.438L68.7815 154.323L72.858 154.385Z" fill="#39548B"/>
</g>
<path d="M38.5239 188.519H39.7549C39.9417 188.519 40.0932 188.366 40.0932 188.178V186.005C40.0932 185.817 39.9417 185.665 39.7549 185.665H38.5239C38.3371 185.665 38.1856 185.817 38.1856 186.005V188.178C38.1856 188.366 38.3371 188.519 38.5239 188.519Z" fill="#F9DD89"/>
<path d="M18.6548 188.519H19.8857C20.0726 188.519 20.2241 188.366 20.2241 188.178V186.005C20.2241 185.817 20.0726 185.665 19.8857 185.665H18.6548C18.4679 185.665 18.3164 185.817 18.3164 186.005V188.178C18.3164 188.366 18.4679 188.519 18.6548 188.519Z" fill="#F9DD89"/>
<path d="M64.9692 166.669V163.325C64.9692 163.167 65.0317 163.015 65.143 162.903C65.2543 162.79 65.4053 162.727 65.5628 162.727H70.7465C70.9043 162.727 71.0557 162.79 71.1673 162.902C71.2789 163.014 71.3416 163.167 71.3416 163.325V164.541C71.3416 165.261 71.0572 165.952 70.551 166.461C70.0448 166.971 69.3583 167.257 68.6425 167.257H65.5628C65.4071 167.256 65.2577 167.195 65.1467 167.085C65.0357 166.975 64.972 166.825 64.9692 166.669Z" fill="#1F1949"/>
<path d="M64.9723 165.932H64.5192C64.433 165.932 64.3505 165.897 64.2896 165.836C64.2287 165.775 64.1944 165.692 64.1944 165.605V164.38C64.1944 164.293 64.2287 164.21 64.2896 164.149C64.3505 164.088 64.433 164.053 64.5192 164.053H64.9723V165.932Z" fill="#343766"/>
<path d="M103.763 142.454H110.72C110.872 142.454 111.018 142.393 111.126 142.285C111.233 142.177 111.294 142.031 111.294 141.878C111.294 141.725 111.234 141.578 111.126 141.47C111.019 141.361 110.873 141.301 110.72 141.301H103.763C103.612 141.301 103.466 141.362 103.359 141.47C103.251 141.579 103.191 141.725 103.191 141.878C103.191 142.031 103.251 142.177 103.359 142.285C103.466 142.393 103.612 142.454 103.763 142.454Z" fill="#343766"/>
<path d="M103.763 144.556H110.72C110.796 144.556 110.87 144.541 110.94 144.512C111.009 144.483 111.073 144.441 111.126 144.388C111.179 144.334 111.222 144.271 111.251 144.201C111.279 144.131 111.294 144.056 111.294 143.98C111.294 143.827 111.233 143.68 111.126 143.572C111.018 143.464 110.872 143.404 110.72 143.404H103.763C103.612 143.404 103.466 143.464 103.359 143.573C103.251 143.681 103.191 143.827 103.191 143.98C103.191 144.133 103.251 144.279 103.359 144.387C103.466 144.495 103.612 144.556 103.763 144.556Z" fill="#343766"/>
<path d="M103.763 146.659H110.72C110.872 146.659 111.018 146.598 111.126 146.49C111.233 146.382 111.294 146.236 111.294 146.083C111.294 145.93 111.234 145.783 111.126 145.675C111.019 145.566 110.873 145.506 110.72 145.506H103.763C103.612 145.506 103.466 145.567 103.359 145.675C103.251 145.783 103.191 145.93 103.191 146.083C103.191 146.236 103.251 146.382 103.359 146.49C103.466 146.598 103.612 146.659 103.763 146.659Z" fill="#343766"/>
<path d="M85.3474 148.811H45.1983V148.519H85.3474C87.871 148.519 90.2913 147.51 92.0758 145.715C93.8603 143.919 94.8628 141.484 94.8628 138.945H95.1543C95.1511 141.561 94.1168 144.069 92.2783 145.918C90.4398 147.768 87.9472 148.808 85.3474 148.811Z" fill="#1F1949"/>
<path d="M85.0876 183.638H84.7961V155.719C84.7953 155.058 84.5337 154.424 84.0687 153.956C83.6038 153.489 82.9734 153.226 82.316 153.226H41.9736V152.934H82.316C83.0502 152.935 83.7541 153.228 84.2733 153.75C84.7926 154.273 85.0849 154.981 85.0861 155.719L85.0876 183.638Z" fill="#1F1949"/>
<path d="M82.0412 171.462C82.1854 171.462 82.3237 171.404 82.4257 171.302C82.5276 171.199 82.5849 171.06 82.5849 170.915V168.381C82.5849 168.236 82.5276 168.097 82.4257 167.995C82.3237 167.892 82.1854 167.834 82.0412 167.834C81.897 167.834 81.7587 167.892 81.6567 167.995C81.5547 168.097 81.4974 168.236 81.4974 168.381V170.915C81.4974 171.06 81.5547 171.199 81.6567 171.302C81.7587 171.404 81.897 171.462 82.0412 171.462Z" fill="#1F1949"/>
<path d="M44.8434 178.338H46.0426C46.1677 178.338 46.2692 178.236 46.2692 178.11V176.904C46.2692 176.778 46.1677 176.676 46.0426 176.676H44.8434C44.7182 176.676 44.6168 176.778 44.6168 176.904V178.11C44.6168 178.236 44.7182 178.338 44.8434 178.338Z" fill="#F9DD89"/>
<path d="M62.5783 178.352H66.1821V200.874H62.5783C57.2527 200.874 52.9345 195.833 52.9345 189.613C52.9345 183.393 57.2527 178.352 62.5783 178.352Z" fill="#343766"/>
<path d="M66.5854 200.874C71.9124 200.874 76.2307 195.832 76.2307 189.613C76.2307 183.394 71.9124 178.352 66.5854 178.352C61.2584 178.352 56.9401 183.394 56.9401 189.613C56.9401 195.832 61.2584 200.874 66.5854 200.874Z" fill="#1F1949"/>
<path d="M67.1955 196.152C70.2886 196.152 72.7961 193.224 72.7961 189.613C72.7961 186.001 70.2886 183.074 67.1955 183.074C64.1025 183.074 61.595 186.001 61.595 189.613C61.595 193.224 64.1025 196.152 67.1955 196.152Z" fill="#CAD2EA"/>
<path d="M67.1956 192.883C68.7421 192.883 69.9958 191.419 69.9958 189.613C69.9958 187.807 68.7421 186.343 67.1956 186.343C65.649 186.343 64.3953 187.807 64.3953 189.613C64.3953 191.419 65.649 192.883 67.1956 192.883Z" fill="#343766"/>
<path d="M67.1955 196.152C70.2886 196.152 72.7961 193.224 72.7961 189.613C72.7961 186.001 70.2886 183.074 67.1955 183.074C64.1025 183.074 61.595 186.001 61.595 189.613C61.595 193.224 64.1025 196.152 67.1955 196.152Z" fill="#CAD2EA"/>
<path d="M67.1956 192.883C68.7421 192.883 69.9958 191.419 69.9958 189.613C69.9958 187.807 68.7421 186.343 67.1956 186.343C65.649 186.343 64.3953 187.807 64.3953 189.613C64.3953 191.419 65.649 192.883 67.1956 192.883Z" fill="#343766"/>
<path d="M113.549 186.344H121.616V182.875H113.549V186.344Z" fill="#8296C9"/>
<path d="M107.975 124.722V116.805C107.974 116.653 107.914 116.508 107.808 116.401C107.701 116.294 107.557 116.234 107.407 116.233H110.427C110.578 116.234 110.722 116.294 110.828 116.401C110.934 116.508 110.994 116.653 110.994 116.805V124.722C110.994 124.797 110.979 124.872 110.951 124.941C110.923 125.01 110.881 125.073 110.828 125.126C110.776 125.179 110.713 125.221 110.644 125.25C110.576 125.279 110.502 125.294 110.427 125.294H107.407C107.557 125.294 107.702 125.234 107.808 125.126C107.915 125.019 107.975 124.874 107.975 124.722Z" fill="#B2BFDF"/>
<path d="M84.9985 116.233H107.407C107.557 116.234 107.701 116.294 107.808 116.401C107.914 116.508 107.974 116.653 107.975 116.805V124.722C107.975 124.874 107.915 125.019 107.808 125.126C107.702 125.234 107.557 125.294 107.407 125.294H84.9985C84.924 125.294 84.8502 125.279 84.7814 125.25C84.7126 125.221 84.6501 125.179 84.5975 125.126C84.5449 125.073 84.5032 125.01 84.4748 124.941C84.4464 124.872 84.4319 124.797 84.4321 124.722V116.805C84.4321 116.653 84.4918 116.508 84.5979 116.401C84.7041 116.294 84.8482 116.234 84.9985 116.233Z" fill="#E1E5EF"/>
<path d="M86.0044 119.107H105.777V118.183H86.0044V119.107Z" fill="#B2BFDF"/>
<path d="M86.0044 121.285H105.777V120.361H86.0044V121.285Z" fill="#B2BFDF"/>
<path d="M86.0044 123.466H105.777V122.542H86.0044V123.466Z" fill="#B2BFDF"/>
<path d="M205.885 186.344H209.823C209.346 186.344 208.889 186.535 208.552 186.874C208.215 187.213 208.025 187.673 208.025 188.153V192.154C208.025 192.392 208.072 192.627 208.162 192.846C208.252 193.066 208.384 193.266 208.551 193.434C208.718 193.602 208.917 193.735 209.135 193.826C209.353 193.917 209.587 193.964 209.823 193.964H205.885C205.649 193.964 205.415 193.917 205.197 193.826C204.979 193.735 204.781 193.602 204.614 193.434C204.447 193.266 204.315 193.066 204.224 192.846C204.134 192.627 204.088 192.392 204.088 192.154V188.153C204.088 187.673 204.277 187.213 204.614 186.874C204.951 186.535 205.409 186.344 205.885 186.344Z" fill="#343766"/>
<path d="M235.057 186.344H209.823C208.83 186.344 208.025 187.154 208.025 188.153V192.155C208.025 193.154 208.83 193.964 209.823 193.964H235.057C236.049 193.964 236.854 193.154 236.854 192.155V188.153C236.854 187.154 236.049 186.344 235.057 186.344Z" fill="#B2BFDF"/>
<path d="M131.469 176.791V125.143H201.51V145.302H227.162V176.791H131.469Z" fill="#343766"/>
<path d="M198.471 174.071H217.083V153.744H198.471V174.071Z" fill="#F1B873"/>
<path d="M200.526 153.744H202.534L208.805 162.506L215.076 153.744H217.083L209.808 163.909L217.083 174.071H215.076L208.805 165.31L202.534 174.071H200.526L207.8 163.909L200.526 153.744Z" fill="#F1CA89"/>
<path d="M217.082 174.071H219.464V153.744H217.082V174.071Z" fill="#F1CA89"/>
<path d="M198.093 174.071H200.475V153.744H198.093V174.071Z" fill="#F1CA89"/>
<path d="M196.963 153.745H220.338V151.027H196.963V153.745Z" fill="#F1CA89"/>
<path d="M182.568 153.744H196.962V151.025H182.568V153.744Z" fill="#F1B873"/>
<path d="M182.612 176.791H196.963V174.073H182.612V176.791Z" fill="#F1B873"/>
<path d="M196.963 176.791H220.338V174.073H196.963V176.791Z" fill="#F1CA89"/>
<path d="M184.628 174.071H198.093V153.744H184.628V174.071Z" fill="#EFA856"/>
<path opacity="0.5" d="M198.093 154.88H219.465V153.744H198.093V154.88Z" fill="#EFA856"/>
<path opacity="0.8" d="M198.092 174.073V153.744H196.962V174.073H198.092Z" fill="#ED963E"/>
<path opacity="0.5" d="M198.095 174.071H219.491V172.934H198.095V174.071Z" fill="#EFA856"/>
<path d="M186.157 174.073V153.744H183.455V174.073H186.157Z" fill="#F1B873"/>
<path d="M185.29 153.744H186.842L191.692 162.506L196.542 153.744H198.093L192.469 163.909L198.093 174.071H196.542L191.692 165.31L186.842 174.071H185.29L190.916 163.909L185.29 153.744Z" fill="#F1B873"/>
<path opacity="0.8" d="M198.092 153.745H183.454V154.882H198.092V153.745Z" fill="#ED963E"/>
<path opacity="0.8" d="M198.092 172.936H183.454V174.073H198.092V172.936Z" fill="#ED963E"/>
<path d="M170.949 174.071H189.561V153.744H170.949V174.071Z" fill="#F1B873"/>
<path d="M173.004 153.744H175.011L181.283 162.506L187.554 153.744H189.561L182.287 163.909L189.561 174.071H187.554L181.283 165.31L175.011 174.071H173.004L180.28 163.909L173.004 153.744Z" fill="#F1CA89"/>
<path d="M189.561 174.071H191.943V153.744H189.561V174.071Z" fill="#F1CA89"/>
<path d="M170.571 174.071H172.953V153.744H170.571V174.071Z" fill="#F1CA89"/>
<path d="M169.441 153.745H192.816V151.027H169.441V153.745Z" fill="#F1CA89"/>
<path d="M155.047 153.744H169.441V151.025H155.047V153.744Z" fill="#F1B873"/>
<path d="M155.089 176.791H169.441V174.073H155.089V176.791Z" fill="#F1B873"/>
<path d="M169.441 176.791H192.816V174.073H169.441V176.791Z" fill="#F1CA89"/>
<path d="M157.106 174.071H170.571V153.744H157.106V174.071Z" fill="#EFA856"/>
<path opacity="0.5" d="M170.571 154.88H191.943V153.744H170.571V154.88Z" fill="#EFA856"/>
<path opacity="0.8" d="M170.571 174.071V153.742H169.441V174.071H170.571Z" fill="#ED963E"/>
<path opacity="0.5" d="M170.572 174.071H191.969V172.934H170.572V174.071Z" fill="#EFA856"/>
<path d="M158.634 174.073V153.744H155.932V174.073H158.634Z" fill="#F1B873"/>
<path d="M157.769 153.744H159.32L164.17 162.506L169.02 153.744H170.572L164.946 163.909L170.572 174.071H169.02L164.17 165.31L159.32 174.071H157.769L163.394 163.909L157.769 153.744Z" fill="#F1B873"/>
<path opacity="0.8" d="M170.569 153.745H155.932V154.882H170.569V153.745Z" fill="#ED963E"/>
<path opacity="0.8" d="M170.569 172.936H155.932V174.073H170.569V172.936Z" fill="#ED963E"/>
<path d="M142.303 174.071H160.915V153.744H142.303V174.071Z" fill="#F1B873"/>
<path d="M144.36 153.744H146.367L152.638 162.506L158.908 153.744H160.915L153.641 163.909L160.915 174.071H158.908L152.638 165.31L146.367 174.071H144.36L151.634 163.909L144.36 153.744Z" fill="#F1CA89"/>
<path d="M160.916 174.071H163.298V153.744H160.916V174.071Z" fill="#F1CA89"/>
<path d="M141.926 174.071H144.308V153.744H141.926V174.071Z" fill="#F1CA89"/>
<path d="M140.795 153.745H164.17V151.027H140.795V153.745Z" fill="#F1CA89"/>
<path d="M126.401 153.744H140.795V151.025H126.401V153.744Z" fill="#F1B873"/>
<path d="M126.443 176.791H140.795V174.073H126.443V176.791Z" fill="#F1B873"/>
<path d="M140.795 176.791H164.17V174.073H140.795V176.791Z" fill="#F1CA89"/>
<path d="M128.46 174.071H141.925V153.744H128.46V174.071Z" fill="#EFA856"/>
<path opacity="0.5" d="M141.925 154.88H163.297V153.744H141.925V154.88Z" fill="#EFA856"/>
<path opacity="0.8" d="M141.925 174.073V153.744H140.795V174.073H141.925Z" fill="#ED963E"/>
<path opacity="0.5" d="M141.926 174.071H163.323V172.934H141.926V174.071Z" fill="#EFA856"/>
<path d="M129.988 174.073V153.744H127.286V174.073H129.988Z" fill="#F1B873"/>
<path d="M129.123 153.744H130.674L135.524 162.506L140.374 153.744H141.926L136.3 163.909L141.926 174.071H140.374L135.524 165.31L130.674 174.071H129.123L134.748 163.909L129.123 153.744Z" fill="#F1B873"/>
<path opacity="0.8" d="M141.925 153.745H127.288V154.882H141.925V153.745Z" fill="#ED963E"/>
<path opacity="0.8" d="M141.925 172.936H127.288V174.073H141.925V172.936Z" fill="#ED963E"/>
<path d="M170.949 148.191H189.561V127.864H170.949V148.191Z" fill="#F1B873"/>
<path d="M173.004 127.863H175.011L181.283 136.624L187.554 127.863H189.561L182.287 138.027L189.561 148.191H187.554L181.283 139.43L175.011 148.191H173.004L180.28 138.027L173.004 127.863Z" fill="#F1CA89"/>
<path d="M189.561 148.191H191.943V127.864H189.561V148.191Z" fill="#F1CA89"/>
<path d="M170.571 148.191H172.953V127.864H170.571V148.191Z" fill="#F1CA89"/>
<path d="M169.441 127.863H192.816V125.145H169.441V127.863Z" fill="#F1CA89"/>
<path d="M155.047 127.863H169.441V125.145H155.047V127.863Z" fill="#F1B873"/>
<path d="M155.089 150.91H169.441V148.191H155.089V150.91Z" fill="#F1B873"/>
<path d="M169.441 150.91H192.816V148.191H169.441V150.91Z" fill="#F1CA89"/>
<path d="M157.106 148.191H170.571V127.864H157.106V148.191Z" fill="#EFA856"/>
<path opacity="0.5" d="M170.571 129H191.943V127.863H170.571V129Z" fill="#EFA856"/>
<path opacity="0.8" d="M170.571 148.191V127.862H169.441V148.191H170.571Z" fill="#ED963E"/>
<path opacity="0.5" d="M170.572 148.192H191.969V147.056H170.572V148.192Z" fill="#EFA856"/>
<path d="M158.636 148.192V127.863H155.934V148.192H158.636Z" fill="#F1B873"/>
<path d="M157.769 127.863H159.32L164.17 136.624L169.02 127.863H170.572L164.946 138.027L170.572 148.191H169.02L164.17 139.43L159.32 148.191H157.769L163.394 138.027L157.769 127.863Z" fill="#F1B873"/>
<path opacity="0.8" d="M170.569 127.863H155.932V129H170.569V127.863Z" fill="#ED963E"/>
<path opacity="0.8" d="M170.569 147.056H155.932V148.192H170.569V147.056Z" fill="#ED963E"/>
<path d="M142.303 148.191H160.915V127.864H142.303V148.191Z" fill="#F1B873"/>
<path d="M144.36 127.863H146.367L152.638 136.624L158.908 127.863H160.915L153.641 138.027L160.915 148.191H158.908L152.638 139.43L146.367 148.191H144.36L151.634 138.027L144.36 127.863Z" fill="#F1CA89"/>
<path d="M160.916 148.191H163.298V127.864H160.916V148.191Z" fill="#F1CA89"/>
<path d="M141.926 148.191H144.308V127.864H141.926V148.191Z" fill="#F1CA89"/>
<path d="M140.795 127.863H164.17V125.145H140.795V127.863Z" fill="#F1CA89"/>
<path d="M126.401 127.863H140.795V125.145H126.401V127.863Z" fill="#F1B873"/>
<path d="M126.443 150.91H140.795V148.191H126.443V150.91Z" fill="#F1B873"/>
<path d="M140.795 150.91H164.17V148.191H140.795V150.91Z" fill="#F1CA89"/>
<path d="M128.46 148.191H141.925V127.864H128.46V148.191Z" fill="#EFA856"/>
<path opacity="0.5" d="M141.925 129H163.297V127.863H141.925V129Z" fill="#EFA856"/>
<path opacity="0.8" d="M141.925 148.192V127.863H140.795V148.192H141.925Z" fill="#ED963E"/>
<path opacity="0.5" d="M141.926 148.192H163.323V147.056H141.926V148.192Z" fill="#EFA856"/>
<path d="M129.99 148.192V127.863H127.288V148.192H129.99Z" fill="#F1B873"/>
<path d="M129.123 127.863H130.674L135.524 136.624L140.374 127.863H141.926L136.3 138.027L141.926 148.191H140.374L135.524 139.43L130.674 148.191H129.123L134.748 138.027L129.123 127.863Z" fill="#F1B873"/>
<path opacity="0.8" d="M141.925 127.863H127.288V129H141.925V127.863Z" fill="#ED963E"/>
<path opacity="0.8" d="M141.925 147.056H127.288V148.192H141.925V147.056Z" fill="#ED963E"/>
<path d="M319.564 103.947H121.616V105.618H319.564V103.947Z" fill="#B2BFDF"/>
<path d="M453.64 54.8045H461L362.322 5.31587V0H346.943V5.31739L248.265 54.8045H255.625L346.943 9.11813V9.99651H352.341V200.9H356.922V9.99651H357.039L404.395 54.8045H409.65L362.322 9.99651V9.11661L453.64 54.8045Z" fill="#76D2F3"/>
<path d="M299.615 54.8045H304.87L352.227 9.99651H346.943L299.615 54.8045Z" fill="#76D2F3"/>
<path d="M405.067 200.901H409.648V58.7754H405.067V200.901Z" fill="#76D2F3"/>
<path d="M209.694 58.7739L461 58.7739V54.803L209.694 54.803V58.7739Z" fill="#76D2F3"/>
<path d="M209.694 61.289L461 61.289V58.7754L209.694 58.7754V61.289Z" fill="#76D2F3"/>
<path d="M352.341 54.8045H356.922V50.5175H352.341V54.8045Z" fill="#76D2F3"/>
<path d="M352.341 65.576H356.922V61.289H352.341V65.576Z" fill="#76D2F3"/>
<path d="M405.067 65.576H409.648V61.289H405.067V65.576Z" fill="#B2BFDF"/>
<path d="M356.924 103.234H405.069V99.0198H356.924V103.234Z" fill="#76D2F3"/>
<path d="M242.103 79.8961H226.26V82.2364H242.103V79.8961Z" fill="#343766"/>
<path d="M238.18 66.3724H234.684V62.1826H236.581V60.3468H231.782V62.1826H233.679V66.3724H230.293L228.787 69.1063H233.679H234.684H239.576L238.18 66.3724Z" fill="#343766"/>
<path d="M230.204 69.1063H230.07V79.8976H230.204V69.1063Z" fill="#343766"/>
<path d="M238.342 69.1063H238.208V79.8976H238.342V69.1063Z" fill="#343766"/>
<path d="M236.284 69.7641C236.471 68.6018 235.687 67.5066 234.531 67.3179C233.376 67.1293 232.288 67.9186 232.1 69.0809C231.913 70.2432 232.697 71.3384 233.852 71.5271C235.008 71.7158 236.096 70.9265 236.284 69.7641Z" fill="#1F1949"/>
<path d="M234.99 69.4178C234.99 69.5789 234.943 69.7364 234.854 69.8704C234.765 70.0043 234.639 70.1087 234.491 70.1704C234.343 70.232 234.18 70.2482 234.023 70.2167C233.866 70.1853 233.722 70.1077 233.608 69.9938C233.495 69.8799 233.418 69.7347 233.387 69.5767C233.356 69.4187 233.372 69.255 233.433 69.1061C233.494 68.9573 233.598 68.8301 233.731 68.7405C233.864 68.651 234.021 68.6033 234.181 68.6033C234.287 68.6031 234.393 68.624 234.491 68.6649C234.589 68.7057 234.678 68.7657 234.754 68.8414C234.829 68.9171 234.889 69.007 234.929 69.1059C234.97 69.2048 234.991 69.3108 234.99 69.4178Z" fill="#343766"/>
<path d="M252.979 82.2364H215.383V98.1855H252.979V82.2364Z" fill="#B2BFDF"/>
<path d="M218.095 83.4521H216.881V96.9698H218.095V83.4521Z" fill="#CAD2EA"/>
<path d="M221.131 83.4521H219.917V96.9698H221.131V83.4521Z" fill="#CAD2EA"/>
<path d="M224.165 83.4521H222.951V96.9698H224.165V83.4521Z" fill="#CAD2EA"/>
<path d="M227.201 83.4521H225.987V96.9698H227.201V83.4521Z" fill="#CAD2EA"/>
<path d="M230.236 83.4521H229.021V96.9698H230.236V83.4521Z" fill="#CAD2EA"/>
<path d="M233.272 83.4521H232.057V96.9698H233.272V83.4521Z" fill="#CAD2EA"/>
<path d="M236.306 83.4521H235.092V96.9698H236.306V83.4521Z" fill="#CAD2EA"/>
<path d="M239.342 83.4521H238.127V96.9698H239.342V83.4521Z" fill="#CAD2EA"/>
<path d="M242.376 83.4521H241.162V96.9698H242.376V83.4521Z" fill="#CAD2EA"/>
<path d="M245.412 83.4521H244.198V96.9698H245.412V83.4521Z" fill="#CAD2EA"/>
<path d="M248.448 83.4521H247.234V96.9698H248.448V83.4521Z" fill="#CAD2EA"/>
<path d="M251.482 83.4521H250.268V96.9698H251.482V83.4521Z" fill="#CAD2EA"/>
<path d="M103.031 78.0223H53.8332C53.9109 77.1055 54.1787 76.2153 54.6193 75.409C55.0599 74.6026 55.6635 73.8982 56.3912 73.3409C57.1189 72.7837 57.9546 72.386 58.8444 72.1736C59.7342 71.9612 60.6583 71.9388 61.5573 72.1077C61.148 67.0745 65.8438 62.3741 70.8628 62.441C75.8818 62.5078 80.3344 66.9529 80.8313 71.9785C83.8249 69.6063 88.9874 71.205 90.1353 74.8659C91.8632 72.2825 94.7148 70.1944 97.8035 70.3798C100.892 70.5652 104.004 75.0726 103.031 78.0223Z" fill="white"/>
<path d="M162.327 47.3778H111.296C112.442 45.0648 114.014 43.4266 116.528 42.8749C116.94 38.8645 120.526 35.4285 124.533 35.2127C128.54 34.9969 132.467 38.0211 133.307 41.9631C134.272 40.0119 137.492 39.8432 138.653 41.6835C139.12 39.6107 139.812 37.3661 141.596 36.2263C143.523 34.9954 146.225 35.5516 147.898 37.1123C149.572 38.673 150.338 41.0164 150.502 43.3111C150.95 42.8113 151.531 42.4519 152.176 42.2761C152.821 42.1002 153.503 42.1154 154.14 42.3198C154.777 42.5242 155.341 42.9091 155.766 43.4283C156.191 43.9476 156.458 44.5791 156.535 45.2472C157.027 44.0314 158.701 43.7093 159.892 44.2411C161.084 44.773 161.57 46.311 162.327 47.3778Z" fill="white"/>
<path d="M183.965 71.8189H158.545C159.136 69.7537 161.783 69.6671 163.919 69.6032C163.838 67.8206 164.674 66.0821 165.905 64.7949C167.89 62.7114 171.06 61.7069 173.759 62.6674C176.458 63.6278 178.361 66.7173 177.641 69.506C178.479 68.1382 180.491 67.9377 181.903 68.6777C183.316 69.4178 184.237 70.8372 184.98 72.2536C185.012 70.8919 183.933 73.1806 183.965 71.8189Z" fill="white"/>
<path d="M384.565 157.397C384.448 157.397 384.324 157.394 384.194 157.388C382.891 157.298 381.602 157.068 380.348 156.7C379.779 156.54 374.793 155.093 375.224 153.54C375.654 151.987 380.661 153.341 381.234 153.502C382.495 153.838 383.717 154.311 384.878 154.912C386.026 155.54 386.511 156.113 386.358 156.662C386.222 157.154 385.635 157.397 384.565 157.397ZM376.041 153.77C376.243 154.156 377.817 155.127 380.572 155.897C383.327 156.668 385.171 156.657 385.543 156.431C385.34 156.043 383.766 155.072 381.012 154.303C378.257 153.534 376.414 153.543 376.041 153.77Z" fill="#1F1949"/>
<path d="M379.726 153.981L377.859 154.247L376.39 154.115C376.39 154.115 377.306 154.811 379.013 155.4H379.347L379.726 153.981Z" fill="#C17276"/>
<path d="M375.533 154.446C375.533 154.446 376.684 154.353 377.22 154.622C377.757 154.891 378.356 155.551 378.356 155.551L377.45 155.66C377.45 155.66 376.316 155.66 375.94 155.265C375.724 155.04 375.582 154.754 375.533 154.446Z" fill="#C17276"/>
<path d="M406.067 181.344C405.886 181.344 405.706 181.344 405.528 181.36C405.35 181.375 405.172 181.344 404.99 181.344C402.4 181.344 399.915 182.38 398.084 184.223C396.252 186.066 395.223 188.566 395.223 191.172C395.223 193.779 396.252 196.278 398.084 198.121C399.915 199.965 402.4 201 404.99 201C405.172 201 405.35 201 405.528 200.985C405.706 200.97 405.886 201 406.067 201C408.658 201 411.142 199.965 412.974 198.121C414.806 196.278 415.835 193.779 415.835 191.172C415.835 188.566 414.806 186.066 412.974 184.223C411.142 182.38 408.658 181.344 406.067 181.344Z" fill="#1F1949"/>
<path d="M364.168 181.344C363.986 181.344 363.807 181.344 363.628 181.36C363.45 181.375 363.271 181.344 363.091 181.344C360.5 181.344 358.016 182.38 356.184 184.223C354.352 186.066 353.323 188.566 353.323 191.172C353.323 193.779 354.352 196.278 356.184 198.121C358.016 199.965 360.5 201 363.091 201C363.271 201 363.45 201 363.628 200.985C363.807 200.97 363.986 201 364.168 201C366.758 201 369.243 199.965 371.074 198.121C372.906 196.278 373.935 193.779 373.935 191.172C373.935 188.566 372.906 186.066 371.074 184.223C369.243 182.38 366.758 181.344 364.168 181.344Z" fill="#1F1949"/>
<path d="M368.522 136.483H346.721V138.937H368.522V136.483Z" fill="#F9DD89"/>
<path d="M365.143 138.939H358.691V195.371H365.143V138.939Z" fill="#343766"/>
<path d="M358.691 138.939H353.671V195.371H358.691V138.939Z" fill="#1F1949"/>
<path d="M353.671 138.939H351.254V195.371H353.671V138.939Z" fill="#343766"/>
<path d="M414.033 167.726V180.083H382.794V195.306H418.892C420.025 195.305 421.112 194.852 421.913 194.046C422.714 193.24 423.164 192.147 423.165 191.007V171.681C423.165 170.633 422.751 169.628 422.015 168.887C421.278 168.146 420.279 167.729 419.238 167.729L414.033 167.726Z" fill="#76D2F3"/>
<path d="M421.815 193.417C423.054 188.135 419.802 182.842 414.552 181.595C409.302 180.348 404.041 183.62 402.802 188.902C401.563 194.185 404.814 199.478 410.065 200.725C415.315 201.972 420.576 198.7 421.815 193.417Z" fill="#1F1949"/>
<path d="M422.891 193.416C424.131 188.133 420.879 182.84 415.629 181.593C410.378 180.347 405.118 183.618 403.879 188.901C402.639 194.183 405.891 199.477 411.141 200.723C416.392 201.97 421.652 198.699 422.891 193.416Z" fill="#343766"/>
<path d="M413.4 185.628C413.267 185.628 413.136 185.628 413.004 185.645C414.395 185.744 415.696 186.369 416.646 187.394C417.596 188.42 418.125 189.77 418.125 191.172C418.125 192.574 417.596 193.924 416.646 194.95C415.696 195.976 414.395 196.601 413.004 196.699C413.136 196.708 413.267 196.714 413.4 196.714C414.862 196.714 416.264 196.13 417.298 195.09C418.332 194.05 418.913 192.639 418.913 191.168C418.913 189.696 418.332 188.286 417.298 187.245C416.264 186.205 414.862 185.621 413.4 185.621V185.628Z" fill="#8296C9"/>
<path d="M413.005 196.699C415.829 196.699 418.119 194.225 418.119 191.172C418.119 188.12 415.829 185.645 413.005 185.645C410.18 185.645 407.89 188.12 407.89 191.172C407.89 194.225 410.18 196.699 413.005 196.699Z" fill="#CAD2EA"/>
<path d="M409.065 132.994H374.435C373.974 132.994 373.525 133.141 373.153 133.414C372.78 133.687 372.503 134.072 372.361 134.514L365.077 157.241V175.557H373.935L382.794 180.075H414.033V140.538C414.034 139.392 413.734 138.267 413.163 137.276L411.52 134.418C411.271 133.985 410.913 133.625 410.482 133.375C410.051 133.125 409.563 132.994 409.065 132.994ZM368.522 159.111L375.739 135.637C375.795 135.452 375.909 135.291 376.063 135.177C376.217 135.062 376.403 135 376.595 135H384.298C384.355 135 384.411 135.013 384.462 135.038C384.513 135.063 384.558 135.1 384.592 135.146C384.627 135.191 384.651 135.244 384.662 135.3C384.673 135.356 384.671 135.414 384.656 135.47L378.352 159.111H368.522ZM396.819 168.927H379.999L388.133 136.12C388.212 135.8 388.395 135.516 388.653 135.313C388.91 135.11 389.228 135 389.556 135H392.336C392.556 135 392.773 135.051 392.97 135.148C393.167 135.246 393.339 135.387 393.474 135.562L396.049 138.93C396.549 139.583 396.82 140.385 396.819 141.209V168.927ZM409.676 168.927H399.958V140.795C399.957 140.045 399.733 139.313 399.314 138.693L396.819 135.005H406.184C406.417 135.004 406.646 135.061 406.853 135.17C407.059 135.279 407.236 135.436 407.369 135.629L408.686 137.542C409.328 138.477 409.672 139.587 409.673 140.723L409.676 168.927Z" fill="#343766"/>
<path d="M351.19 142.823H349.062V161.905H351.19V142.823Z" fill="#CAD2EA"/>
<path d="M351.19 142.823V161.905H318.225V163.29H352.43V161.905V142.823H351.19Z" fill="#343766"/>
<path d="M357.451 142.823H355.323V161.905H357.451V142.823Z" fill="#8296C9"/>
<path d="M357.451 161.905V142.823H358.691V163.271H357.451V163.29H317.625V161.905H357.451Z" fill="#CAD2EA"/>
<path d="M378.356 159.116L373.935 175.557H365.077V159.116H378.356Z" fill="#1F1949"/>
<path d="M404.595 156.329L398.423 156.534L395.908 165.479L384.123 166.45V168.932H404.595L406.323 156.584L404.595 156.329Z" fill="#F4C54E"/>
<path d="M404.595 156.329L402.004 165.938L390.524 166.603V168.932H404.595L406.323 156.584L404.595 156.329Z" fill="#F9DD89"/>
<path d="M423.168 173.545H416.468V180.077H423.168V173.545Z" fill="#62C4E7"/>
<path d="M380 168.932L377.609 177.431L382.794 180.075H390.524V168.932H380Z" fill="#1F1949"/>
<path d="M389.489 161.218L381.249 163.894L377.609 177.431L382.794 165.851L389.411 161.915L389.489 161.218Z" fill="#343766"/>
<path d="M397.222 154.991L398.373 155.946C398.373 155.946 399.32 154.306 399.441 153.379C399.441 153.379 399.139 156.114 398.962 157.33C398.768 158.636 393.684 158.561 393.684 158.561C393.684 158.561 395.232 157.795 397.222 154.991Z" fill="#F4C54E"/>
<path d="M394.081 152.961C393.487 153.972 391.933 155.917 391.933 155.917L393.377 153.182C393.618 152.725 393.895 152.29 394.206 151.879L396.15 149.32L394.15 152.838C394.131 152.875 394.11 152.913 394.085 152.952L394.081 152.961Z" fill="#F4C54E"/>
<path d="M394.031 139.937C394.031 139.937 391.645 143.737 393.814 144.253C395.983 144.77 398.006 142.697 397.741 140.91C397.475 139.123 395.433 137.38 394.031 139.937Z" fill="#DA8C8D"/>
<mask id="mask3_8_20964" style="mask-type:luminance" maskUnits="userSpaceOnUse" x="392" y="138" width="6" height="7">
<path d="M394.031 139.937C394.031 139.937 391.645 143.737 393.814 144.253C395.983 144.77 398.006 142.697 397.741 140.91C397.475 139.123 395.433 137.38 394.031 139.937Z" fill="white"/>
</mask>
<g mask="url(#mask3_8_20964)">
<path d="M393.419 141.101C393.419 141.101 396.591 141.512 397.223 140.276C397.223 140.276 395.126 138.848 394.202 138.994C393.277 139.14 393.416 141.101 393.416 141.101" fill="#C17276"/>
</g>
<path d="M397.694 141.831C397.694 141.831 396.765 144.439 396.807 146.712C396.807 146.712 395.014 147.398 393.981 147.06C392.948 146.723 395.455 142.557 395.455 142.557L397.694 141.831Z" fill="#DA8C8D"/>
<path d="M393.662 142.016C393.662 142.016 394.513 142.146 394.677 142.516C394.783 142.79 394.841 143.079 394.851 143.372L393.662 142.361V142.016Z" fill="#343766"/>
<path d="M393.662 142.016L393.474 141.864C393.437 141.836 393.395 141.814 393.35 141.802C393.305 141.79 393.258 141.786 393.211 141.792C393.165 141.798 393.12 141.813 393.08 141.837C393.039 141.86 393.004 141.891 392.975 141.928L392.85 142.091L393.662 142.354V142.016Z" fill="#343766"/>
<path d="M394.496 144.334C394.496 144.334 394.847 144.334 395.834 143.928C395.834 143.928 395.482 144.84 394.205 144.972C394.211 144.978 394.381 144.566 394.496 144.334Z" fill="#C17276"/>
<path d="M396.476 140.041L396.578 141.538C396.591 141.727 396.675 141.904 396.812 142.035C396.812 142.035 396.896 141.591 397.096 141.604C397.295 141.618 397.686 142.434 396.794 142.749L396.831 143.509C396.836 143.605 396.864 143.699 396.912 143.782C396.96 143.866 397.027 143.937 397.108 143.989C397.108 143.989 398.138 142.653 398.289 141.939C398.289 141.939 397.534 140.711 396.476 140.041Z" fill="#343766"/>
<path d="M393.548 139.515C393.548 139.515 393.312 140.624 393.579 140.76C393.579 140.76 394.137 139.684 394.409 139.364C394.113 139.332 393.815 139.384 393.548 139.515Z" fill="#343766"/>
<path d="M398.289 141.939C398.289 141.939 396.458 138.972 393.735 139.191C393.735 139.191 394.091 137.158 396.726 137.988C399.36 138.817 398.289 141.939 398.289 141.939Z" fill="#F4C54E"/>
<path d="M396.813 140.276C396.813 140.276 395.585 138.799 393.209 139.024C392.024 139.137 393.548 139.515 393.548 139.515C393.548 139.515 394.83 139.17 396.813 140.276Z" fill="#F9DD89"/>
<path d="M397.222 145.805C397.222 145.805 394.54 144.62 392.184 146.25L388.341 150.128L390.098 153.522L390.991 157.896H399.195L399.44 153.379C399.44 153.379 402.358 148.214 397.222 145.805Z" fill="#76D2F3"/>
<mask id="mask4_8_20964" style="mask-type:luminance" maskUnits="userSpaceOnUse" x="388" y="145" width="13" height="13">
<path d="M397.222 145.805C397.222 145.805 394.54 144.62 392.184 146.25L388.341 150.128L390.098 153.522L390.991 157.896H399.195L399.44 153.379C399.44 153.379 402.358 148.214 397.222 145.805Z" fill="white"/>
</mask>
<g mask="url(#mask4_8_20964)">
<path d="M399.441 153.379L397.565 155.276L397.222 154.99L395.408 157.19H396.322L399.607 155.967L399.441 153.379Z" fill="#76D2F3"/>
<path d="M392.045 146.437C392.045 146.437 389.93 149.325 389.535 152.431L390.244 154.245L391.142 149.48L392.048 146.44" fill="#76D2F3"/>
</g>
<path d="M389.489 161.218C389.609 154.683 390.077 149.633 392.043 146.44C392.214 146.161 392.472 145.947 392.777 145.832L392.959 145.764C392.959 145.764 391.622 149.472 391.364 151.644L392.989 151.929C392.989 151.929 396.026 146.986 397.694 146.003L398.429 146.458C398.429 146.458 393.732 150.896 393.844 155.045C393.956 159.193 399.349 155.084 399.349 155.084L399.789 161.148C399.825 161.642 399.795 162.139 399.7 162.625C399.495 163.664 398.998 164.621 398.268 165.384C397.537 166.146 396.605 166.681 395.581 166.926L386.623 168.635L378.838 178.057L377.609 177.43L381.234 166.894C381.593 165.847 382.189 164.898 382.976 164.123C383.762 163.348 384.717 162.767 385.765 162.427L389.489 161.218Z" fill="#39548B"/>
<path d="M389.489 161.218L392.356 161.411L386.396 162.222L389.489 161.218Z" fill="#343766"/>
<path d="M397.222 154.991L394.304 152.49L391.933 155.917L383.7 154.002L383.214 155.964L391.235 159.155C391.693 159.337 392.19 159.392 392.676 159.316C393.323 159.212 393.912 158.879 394.338 158.377L397.222 154.991Z" fill="#DA8C8D"/>
<mask id="mask5_8_20964" style="mask-type:luminance" maskUnits="userSpaceOnUse" x="383" y="152" width="15" height="8">
<path d="M397.222 154.991L394.304 152.49L391.933 155.917L383.7 154.002L383.214 155.964L391.235 159.155C391.693 159.337 392.19 159.392 392.676 159.316C393.323 159.212 393.912 158.879 394.338 158.377L397.222 154.991Z" fill="white"/>
</mask>
<g mask="url(#mask5_8_20964)">
<path d="M393.377 153.185C393.377 153.185 394.927 155.412 397.01 155.344L397.629 154.478L394.211 151.881L393.377 153.185Z" fill="#C17276"/>
</g>
<path d="M388.568 150.565L385.301 153.306L383.792 153.636L383.7 154.002L388.341 155.101L389.897 153.897L389.976 153.265L388.568 150.565Z" fill="#C17276"/>
<path d="M382.966 182.449L382.794 182.326V180.083L373.935 175.565H365.077V195.306H389.556C389.557 192.789 388.959 190.309 387.813 188.072C386.666 185.836 385.004 183.907 382.966 182.449Z" fill="#62C4E7"/>
<path d="M380.516 193.417C381.755 188.134 378.503 182.841 373.253 181.595C368.003 180.348 362.742 183.619 361.503 188.902C360.264 194.185 363.515 199.478 368.766 200.725C374.016 201.971 379.277 198.7 380.516 193.417Z" fill="#1F1949"/>
<path d="M379.008 198.121C382.822 194.283 382.822 188.06 379.008 184.222C375.193 180.384 369.009 180.384 365.194 184.222C361.38 188.06 361.38 194.283 365.194 198.121C369.009 201.959 375.193 201.959 379.008 198.121Z" fill="#343766"/>
<path d="M372.1 185.628C371.967 185.628 371.836 185.628 371.704 185.645C373.095 185.744 374.396 186.369 375.346 187.394C376.296 188.42 376.825 189.77 376.825 191.172C376.825 192.574 376.296 193.924 375.346 194.95C374.396 195.976 373.095 196.601 371.704 196.699C371.836 196.708 371.967 196.714 372.1 196.714C373.562 196.714 374.965 196.13 375.998 195.09C377.032 194.05 377.613 192.639 377.613 191.168C377.613 189.696 377.032 188.286 375.998 187.245C374.965 186.205 373.562 185.621 372.1 185.621V185.628Z" fill="#8296C9"/>
<path d="M371.705 196.699C374.529 196.699 376.819 194.225 376.819 191.172C376.819 188.12 374.529 185.645 371.705 185.645C368.88 185.645 366.59 188.12 366.59 191.172C366.59 194.225 368.88 196.699 371.705 196.699Z" fill="#CAD2EA"/>
<path d="M373.935 175.629H365.122V178.647H373.935V175.629Z" fill="#76D2F3"/>
<path d="M410.089 168.932H409.263V180.075H410.089V168.932Z" fill="#343766"/>
<path d="M335.171 159.964H351.619H356.01V166.141H351.619V162.056H335.171V166.141H329.879V159.964H335.171Z" fill="#F1B873"/>
<path d="M351.02 166.141H351.639V162.055H351.02V166.141Z" fill="#E5A251"/>
<path d="M316.222 166.141H317.678V159.964H316.222V166.141Z" fill="#F1CA89"/>
<path d="M317.676 166.141H318.296V161.784H317.676V166.141Z" fill="#F1B873"/>
<path d="M309.114 166.141H309.733V161.784H309.114V166.141Z" fill="#F1B873"/>
<path d="M306.309 162.056H329.879V159.964H306.309V162.056Z" fill="#F1CA89"/>
<path d="M306.309 166.141H309.114V159.964H306.309V166.141Z" fill="#F1CA89"/>
<path d="M325.922 166.141H330.08V159.964H325.922V166.141Z" fill="#F1CA89"/>
<path d="M344.623 162.056H343.167V166.143H344.623V162.056Z" fill="#F1B873"/>
<path d="M343.167 162.056H342.548V166.143H343.167V162.056Z" fill="#E5A251"/>
<path d="M309.114 166.143H326.568V164.699H309.114V166.143Z" fill="#F1CA89"/>
<path d="M344.623 166.143H351.585V164.699H344.623V166.143Z" fill="#E5A251"/>
<path d="M335.171 166.143H343.163V164.699H335.171V166.143Z" fill="#E5A251"/>
<path d="M326.632 156.092H352.082V128.297H326.632V156.092Z" fill="#F1B873"/>
<path d="M329.444 128.298H332.188L340.763 140.278L349.337 128.298H352.082L342.134 142.194L352.082 156.092H349.337L340.763 144.112L332.188 156.092H329.444L339.39 142.194L329.444 128.298Z" fill="#F1CA89"/>
<path d="M352.082 156.092H355.338V128.297H352.082V156.092Z" fill="#F1CA89"/>
<path d="M326.117 156.092H329.373V128.297H326.117V156.092Z" fill="#F1CA89"/>
<path d="M324.571 128.298H356.533V124.579H324.571V128.298Z" fill="#F1CA89"/>
<path d="M304.89 128.297H324.57V124.579H304.89V128.297Z" fill="#F1B873"/>
<path d="M304.89 159.81H324.57V156.092H304.89V159.81Z" fill="#F1B873"/>
<path d="M324.571 159.81H356.533V156.092H324.571V159.81Z" fill="#F1CA89"/>
<path d="M307.705 156.092H326.116V128.297H307.705V156.092Z" fill="#EFA856"/>
<path opacity="0.5" d="M326.115 129.851H355.338V128.298H326.115V129.851Z" fill="#EFA856"/>
<path opacity="0.8" d="M326.114 156.093V128.297H324.57V156.093H326.114Z" fill="#ED963E"/>
<path opacity="0.5" d="M326.115 156.093H355.373V154.54H326.115V156.093Z" fill="#EFA856"/>
<path d="M309.794 156.093V128.297H306.099V156.093H309.794Z" fill="#F1B873"/>
<path d="M308.61 128.298H310.732L317.362 140.278L323.994 128.298H326.116L318.424 142.194L326.116 156.092H323.994L317.362 144.112L310.732 156.092H308.61L316.302 142.194L308.61 128.298Z" fill="#F1B873"/>
<path opacity="0.8" d="M326.113 128.298H306.099V129.851H326.113V128.298Z" fill="#ED963E"/>
<path opacity="0.8" d="M326.113 154.539H306.099V156.092H326.113V154.539Z" fill="#ED963E"/>
<path d="M356.533 160.049H315.615C315.552 160.049 315.492 160.024 315.447 159.979C315.403 159.934 315.378 159.874 315.378 159.81C315.378 159.747 315.403 159.686 315.447 159.642C315.492 159.597 315.552 159.572 315.615 159.572H356.533C356.596 159.572 356.656 159.597 356.7 159.642C356.745 159.686 356.77 159.747 356.77 159.81C356.77 159.874 356.745 159.934 356.7 159.979C356.656 160.024 356.596 160.049 356.533 160.049Z" fill="#E5A251"/>
<path d="M312.982 160.023H305.492C305.439 160.023 305.387 160.002 305.349 159.963C305.311 159.925 305.29 159.874 305.29 159.819C305.29 159.765 305.311 159.714 305.349 159.676C305.387 159.637 305.439 159.616 305.492 159.616H312.982C313.036 159.616 313.087 159.637 313.125 159.676C313.163 159.714 313.185 159.765 313.185 159.819C313.185 159.874 313.163 159.925 313.125 159.963C313.087 160.002 313.036 160.023 312.982 160.023Z" fill="#E5A251"/>
<path d="M325.272 162.056H305.098V163.29H325.272V162.056Z" fill="#CAD2EA"/>
<path opacity="0.3" d="M304.89 163.29H312.982V162.056H304.89V163.29Z" fill="#39548B"/>
<path opacity="0.3" d="M315.615 163.29H323.708V162.056H315.615V163.29Z" fill="#39548B"/>
</g>
<defs>
<clipPath id="clip0_8_20964">
<rect width="461" height="201" fill="white"/>
</clipPath>
</defs>
</svg>
