<svg width="300" height="202" viewBox="0 0 300 202" fill="none" xmlns="http://www.w3.org/2000/svg">
<path d="M269.942 193.117H250.07V193.257H269.942V193.117Z" fill="#EBEBEB"/>
<path d="M198.73 194.641H193.516V194.78H198.73V194.641Z" fill="#EBEBEB"/>
<path d="M249.467 187.93H237.953V188.069H249.467V187.93Z" fill="#EBEBEB"/>
<path d="M57.3906 188.867H31.4766V189.007H57.3906V188.867Z" fill="#EBEBEB"/>
<path d="M66.5324 188.867H62.7344V189.007H66.5324V188.867Z" fill="#EBEBEB"/>
<path d="M135.091 191.227H78.8828V191.366H135.091V191.227Z" fill="#EBEBEB"/>
<path d="M142.21 159.159H26.3557C24.4657 159.159 22.9297 157.726 22.9297 155.963V4.07033C22.9297 2.30758 24.4657 0.875 26.3557 0.875H142.21C144.1 0.875 145.636 2.30758 145.636 4.07033V155.963C145.636 157.726 144.1 159.159 142.21 159.159ZM26.3557 1.0149C24.5497 1.0149 23.0797 2.38593 23.0797 4.07033V155.963C23.0797 157.648 24.5497 159.019 26.3557 159.019H142.21C144.016 159.019 145.486 157.648 145.486 155.963V4.07033C145.486 2.38593 144.016 1.0149 142.21 1.0149H26.3557Z" fill="#EBEBEB"/>
<path d="M271.989 159.159H156.129C154.239 159.159 152.703 157.726 152.703 155.963V4.07033C152.703 2.30758 154.239 0.875 156.129 0.875H271.989C273.879 0.875 275.415 2.30758 275.415 4.07033V155.963C275.415 157.726 273.879 159.159 271.989 159.159ZM156.129 1.0149C154.323 1.0149 152.853 2.38593 152.853 4.07033V155.963C152.853 157.648 154.323 159.019 156.129 159.019H271.989C273.795 159.019 275.265 157.648 275.265 155.963V4.07033C275.265 2.38593 273.795 1.0149 271.989 1.0149H156.129Z" fill="#EBEBEB"/>
<path d="M300 184.117H0V184.257H300V184.117Z" fill="#EBEBEB"/>
<path d="M122.546 24.125H47.6719V168.603H122.546V24.125Z" fill="#F0F0F0"/>
<path d="M118.046 28.3203H52.1719V164.404H118.046V28.3203Z" fill="#FAFAFA"/>
<path d="M78.0234 164.404H97.8234L116.411 28.3203H96.6114L78.0234 164.404Z" fill="#F5F5F5"/>
<path d="M87.4161 28.3203L68.8281 164.404H73.6281L92.2161 28.3203H87.4161Z" fill="#F5F5F5"/>
<path d="M123.492 27.6192H46.7216L45.1016 24.0938H125.112L123.492 27.6192Z" fill="#F5F5F5"/>
<path d="M123.492 29.6661H46.7216L45.1016 26.1406H125.112L123.492 29.6661Z" fill="#F0F0F0"/>
<path d="M123.492 31.7052H46.7216L45.1016 28.1797H125.112L123.492 31.7052Z" fill="#E6E6E6"/>
<path d="M123.492 33.7442H46.7216L45.1016 30.2188H125.112L123.492 33.7442Z" fill="#E0E0E0"/>
<path d="M127.902 19.6797H42.3125V24.3803H127.902V19.6797Z" fill="#F0F0F0"/>
<path d="M43.1903 66.9987C42.7103 66.9987 42.3203 66.635 42.3203 66.1873V38.7724C42.3203 38.3247 42.7103 37.9609 43.1903 37.9609C43.6703 37.9609 44.0603 38.3247 44.0603 38.7724V66.1873C44.0603 66.635 43.6703 66.9987 43.1903 66.9987Z" fill="#E0E0E0"/>
<path d="M43.505 23.4375H42.875V39.7219H43.505V23.4375Z" fill="#E0E0E0"/>
<path d="M252.335 24.125H177.461V168.603H252.335V24.125Z" fill="#F0F0F0"/>
<path d="M247.835 28.3203H181.961V164.404H247.835V28.3203Z" fill="#FAFAFA"/>
<path d="M207.82 164.404H227.62L246.208 28.3203H226.408L207.82 164.404Z" fill="#F5F5F5"/>
<path d="M217.205 28.3203L198.617 164.404H203.417L222.005 28.3203H217.205Z" fill="#F5F5F5"/>
<path d="M253.281 27.6192H176.511L174.891 24.0938H254.901L253.281 27.6192Z" fill="#F5F5F5"/>
<path d="M253.281 29.6661H176.511L174.891 26.1406H254.901L253.281 29.6661Z" fill="#F0F0F0"/>
<path d="M253.281 31.7052H176.511L174.891 28.1797H254.901L253.281 31.7052Z" fill="#E6E6E6"/>
<path d="M253.281 33.7442H176.511L174.891 30.2188H254.901L253.281 33.7442Z" fill="#E0E0E0"/>
<path d="M257.692 19.6797H172.102V24.3803H257.692V19.6797Z" fill="#F0F0F0"/>
<path d="M172.979 66.9987C172.499 66.9987 172.109 66.635 172.109 66.1873V38.7724C172.109 38.3247 172.499 37.9609 172.979 37.9609C173.459 37.9609 173.849 38.3247 173.849 38.7724V66.1873C173.849 66.635 173.459 66.9987 172.979 66.9987Z" fill="#E0E0E0"/>
<path d="M173.294 23.4375H172.664V39.7219H173.294V23.4375Z" fill="#E0E0E0"/>
<path d="M240.906 129.371L244.242 170.149L246.27 169.981L241.308 129.203L240.906 129.371Z" fill="#E0E0E0"/>
<path d="M258.899 135.069L252.947 168.74L251.273 168.466L258.575 134.906L258.899 135.069Z" fill="#E0E0E0"/>
<path d="M250.879 121.771L249.829 171.116L247.789 170.993L250.471 121.586L250.879 121.771Z" fill="#E0E0E0"/>
<path d="M241.029 129.027C238.731 128.63 231.831 129.027 231.831 130.521C231.831 132.016 238.731 130.337 238.131 131.825C237.531 133.319 231.129 132.849 231.333 134.248C231.537 135.647 237.435 133.504 237.333 134.433C237.231 135.362 232.233 136.767 233.235 137.791C234.237 138.815 237.837 135.384 237.837 136.727C237.837 138.071 235.215 140.51 236.835 140.869C239.379 141.428 238.635 136.688 239.535 136.727C240.435 136.767 240.471 140.701 242.001 140.494C243.531 140.287 240.735 136.084 241.239 135.351C241.737 134.618 245.241 137.975 246.339 137.231C247.437 136.487 242.241 133.499 242.937 132.57C243.639 131.635 246.699 134.528 247.365 133.034C248.031 131.54 242.913 129.352 241.035 129.022L241.029 129.027Z" fill="#F0F0F0"/>
<path d="M250.946 124.439C253.016 123.437 258.194 119.156 257.21 117.981C256.226 116.806 251.894 122.088 251.384 120.572C250.874 119.055 256.22 115.742 255.14 114.758C254.06 113.773 250.826 118.848 250.292 118.059C249.758 117.265 252.77 113.291 251.306 113.056C249.842 112.821 249.272 117.595 248.384 116.537C247.496 115.479 247.952 112.049 246.44 112.698C244.07 113.717 247.784 117.024 247.046 117.511C246.308 117.998 243.686 114.914 242.618 115.955C241.55 116.996 246.53 118.703 246.614 119.57C246.704 120.432 241.73 119.8 241.352 121.02C240.98 122.239 247.046 121.607 247.112 122.743C247.178 123.879 242.858 123.359 243.314 124.92C243.77 126.481 249.254 125.267 250.952 124.444L250.946 124.439Z" fill="#EBEBEB"/>
<path d="M251.349 123.012C253.647 122.614 260.547 123.012 260.547 124.506C260.547 126 253.647 124.321 254.247 125.81C254.847 127.304 261.249 126.834 261.045 128.233C260.841 129.632 254.943 127.489 255.045 128.418C255.147 129.346 260.145 130.751 259.143 131.775C258.141 132.799 254.541 129.369 254.541 130.712C254.541 132.055 257.163 134.495 255.543 134.853C252.999 135.413 253.743 130.673 252.843 130.712C251.943 130.751 251.907 134.685 250.377 134.478C248.847 134.271 251.643 130.068 251.139 129.335C250.641 128.602 247.137 131.96 246.039 131.216C244.941 130.471 250.137 127.483 249.441 126.554C248.739 125.62 245.679 128.513 245.013 127.019C244.341 125.524 249.465 123.336 251.343 123.006L251.349 123.012Z" fill="#E6E6E6"/>
<path d="M256.775 135.149C258.101 133.828 262.925 130.935 263.711 131.931C264.497 132.927 259.001 134.97 260.189 135.692C261.377 136.414 265.409 133.168 266.015 134.198C266.621 135.227 261.545 136.492 262.103 137.074C262.661 137.65 266.741 136.296 266.615 137.438C266.489 138.579 262.271 137.936 262.979 138.837C263.687 139.738 266.723 140.169 265.829 141.148C264.425 142.687 262.421 139.178 261.845 139.615C261.263 140.051 263.315 142.704 262.181 143.263C261.053 143.823 260.705 139.732 259.985 139.475C259.265 139.212 258.695 143.062 257.567 143.067C256.439 143.067 258.341 138.697 257.381 138.389C256.421 138.087 255.899 141.422 254.663 140.728C253.427 140.034 255.695 136.229 256.781 135.149H256.775Z" fill="#F5F5F5"/>
<path d="M242.284 141.924C240.382 141.683 234.652 141.924 234.652 142.825C234.652 143.725 240.376 142.713 239.878 143.614C239.38 144.515 234.07 144.229 234.238 145.074C234.406 145.919 239.296 144.626 239.218 145.186C239.14 145.746 234.988 146.591 235.816 147.206C236.644 147.822 239.632 145.757 239.632 146.563C239.632 147.368 237.46 148.84 238.804 149.058C240.916 149.394 240.298 146.54 241.042 146.563C241.786 146.585 241.816 148.958 243.088 148.835C244.354 148.712 242.038 146.177 242.452 145.734C242.866 145.292 245.77 147.318 246.682 146.865C247.594 146.417 243.28 144.615 243.862 144.056C244.444 143.496 246.982 145.236 247.54 144.335C248.098 143.434 243.85 142.119 242.29 141.918L242.284 141.924Z" fill="#E6E6E6"/>
<path d="M255.962 146.142C257.864 145.902 263.594 146.142 263.594 147.043C263.594 147.944 257.87 146.931 258.368 147.832C258.866 148.733 264.176 148.448 264.008 149.293C263.84 150.138 258.95 148.845 259.028 149.405C259.106 149.964 263.258 150.809 262.43 151.425C261.602 152.041 258.614 149.976 258.614 150.781C258.614 151.587 260.786 153.059 259.442 153.277C257.33 153.613 257.948 150.759 257.204 150.781C256.46 150.804 256.43 153.177 255.158 153.053C253.892 152.93 256.208 150.395 255.794 149.953C255.38 149.511 252.476 151.537 251.564 151.084C250.652 150.636 254.966 148.834 254.384 148.274C253.802 147.715 251.264 149.455 250.706 148.554C250.148 147.653 254.396 146.338 255.956 146.137L255.962 146.142Z" fill="#EBEBEB"/>
<path d="M236.164 157.211L239.764 185.006H257.476L261.076 157.211H236.164Z" fill="#EBEBEB"/>
<path d="M248.219 66.9727C248.219 67.1965 248.309 67.3812 248.495 67.5267C248.675 67.6722 248.945 67.7897 249.287 67.8904V65.9766C248.921 66.0549 248.651 66.1836 248.477 66.3627C248.303 66.5362 248.219 66.7432 248.219 66.9727Z" fill="#B5E1F1"/>
<path d="M250.733 70.2009V72.0588C251.081 71.986 251.339 71.8685 251.513 71.7062C251.687 71.544 251.771 71.3537 251.771 71.1243C251.771 70.8948 251.681 70.7157 251.501 70.5702C251.321 70.4247 251.063 70.3016 250.727 70.1953L250.733 70.2009Z" fill="#B5E1F1"/>
<path d="M249.895 58.9766C243.949 58.9766 239.125 63.4758 239.125 69.0214C239.125 74.5671 243.949 79.0663 249.895 79.0663C255.841 79.0663 260.665 74.5671 260.665 69.0214C260.665 63.4758 255.841 58.9766 249.895 58.9766ZM253.231 72.8659C252.655 73.3919 251.821 73.7165 250.735 73.8396V75.3505H249.289V73.8844C248.575 73.8508 247.897 73.7333 247.255 73.5318C246.607 73.336 246.091 73.0897 245.695 72.8043L246.487 71.1591C246.853 71.4109 247.279 71.6236 247.771 71.7915C248.263 71.9593 248.767 72.0713 249.289 72.116V69.8664C248.605 69.7153 248.029 69.5419 247.555 69.3572C247.081 69.1669 246.691 68.8927 246.373 68.529C246.055 68.1652 245.899 67.684 245.899 67.0796C245.899 66.3353 246.193 65.6974 246.775 65.1602C247.357 64.6286 248.197 64.2984 249.295 64.1865V62.6923H250.741V64.1585C251.923 64.248 252.901 64.5222 253.675 64.9811L252.955 66.6375C252.235 66.2514 251.497 66.0164 250.747 65.938V68.2268C251.419 68.3723 251.989 68.5346 252.457 68.7192C252.925 68.9039 253.315 69.1781 253.633 69.5419C253.951 69.9056 254.107 70.3813 254.107 70.9744C254.107 71.7075 253.819 72.3399 253.243 72.8659H253.231Z" fill="#B5E1F1"/>
<g opacity="0.6">
<path d="M248.219 66.9727C248.219 67.1965 248.309 67.3812 248.495 67.5267C248.675 67.6722 248.945 67.7897 249.287 67.8904V65.9766C248.921 66.0549 248.651 66.1836 248.477 66.3627C248.303 66.5362 248.219 66.7432 248.219 66.9727Z" fill="white"/>
<path d="M250.733 70.2009V72.0588C251.081 71.986 251.339 71.8685 251.513 71.7062C251.687 71.544 251.771 71.3537 251.771 71.1243C251.771 70.8948 251.681 70.7157 251.501 70.5702C251.321 70.4247 251.063 70.3016 250.727 70.1953L250.733 70.2009Z" fill="white"/>
<path d="M249.895 58.9766C243.949 58.9766 239.125 63.4758 239.125 69.0214C239.125 74.5671 243.949 79.0663 249.895 79.0663C255.841 79.0663 260.665 74.5671 260.665 69.0214C260.665 63.4758 255.841 58.9766 249.895 58.9766ZM253.231 72.8659C252.655 73.3919 251.821 73.7165 250.735 73.8396V75.3505H249.289V73.8844C248.575 73.8508 247.897 73.7333 247.255 73.5318C246.607 73.336 246.091 73.0897 245.695 72.8043L246.487 71.1591C246.853 71.4109 247.279 71.6236 247.771 71.7915C248.263 71.9593 248.767 72.0713 249.289 72.116V69.8664C248.605 69.7153 248.029 69.5419 247.555 69.3572C247.081 69.1669 246.691 68.8927 246.373 68.529C246.055 68.1652 245.899 67.684 245.899 67.0796C245.899 66.3353 246.193 65.6974 246.775 65.1602C247.357 64.6286 248.197 64.2984 249.295 64.1865V62.6923H250.741V64.1585C251.923 64.248 252.901 64.5222 253.675 64.9811L252.955 66.6375C252.235 66.2514 251.497 66.0164 250.747 65.938V68.2268C251.419 68.3723 251.989 68.5346 252.457 68.7192C252.925 68.9039 253.315 69.1781 253.633 69.5419C253.951 69.9056 254.107 70.3813 254.107 70.9744C254.107 71.7075 253.819 72.3399 253.243 72.8659H253.231Z" fill="white"/>
</g>
<path d="M37.3594 101.757C37.3594 101.874 37.4074 101.969 37.5034 102.042C37.5994 102.115 37.7374 102.182 37.9174 102.232V101.242C37.7254 101.281 37.5874 101.348 37.4974 101.438C37.4074 101.527 37.3654 101.634 37.3654 101.757H37.3594Z" fill="#B5E1F1"/>
<path d="M38.6623 103.438V104.4C38.8423 104.36 38.9743 104.304 39.0643 104.221C39.1543 104.137 39.1963 104.036 39.1963 103.919C39.1963 103.801 39.1482 103.706 39.0582 103.633C38.9682 103.561 38.8302 103.493 38.6562 103.438H38.6623Z" fill="#B5E1F1"/>
<path d="M38.2303 97.625C35.1523 97.625 32.6562 99.9529 32.6562 102.824C32.6562 105.694 35.1523 108.022 38.2303 108.022C41.3083 108.022 43.8043 105.694 43.8043 102.824C43.8043 99.9529 41.3083 97.625 38.2303 97.625ZM39.9582 104.816C39.6582 105.09 39.2262 105.258 38.6682 105.32V106.103H37.9183V105.342C37.5522 105.325 37.1982 105.264 36.8622 105.163C36.5262 105.062 36.2562 104.933 36.0522 104.788L36.4662 103.937C36.6582 104.066 36.8802 104.178 37.1322 104.267C37.3842 104.357 37.6483 104.413 37.9183 104.435V103.271C37.5642 103.193 37.2642 103.104 37.0242 103.008C36.7782 102.913 36.5742 102.768 36.4122 102.577C36.2502 102.387 36.1662 102.141 36.1662 101.828C36.1662 101.441 36.3162 101.111 36.6162 100.837C36.9162 100.563 37.3542 100.389 37.9183 100.333V99.5612H38.6682V100.322C39.2802 100.367 39.7843 100.513 40.1863 100.748L39.8142 101.604C39.4422 101.402 39.0582 101.285 38.6682 101.24V102.426C39.0162 102.499 39.3102 102.583 39.5562 102.678C39.7962 102.773 40.0002 102.913 40.1682 103.104C40.3302 103.294 40.4142 103.54 40.4142 103.848C40.4142 104.228 40.2642 104.553 39.9642 104.827L39.9582 104.816Z" fill="#B5E1F1"/>
<g opacity="0.6">
<path d="M37.3594 101.757C37.3594 101.874 37.4074 101.969 37.5034 102.042C37.5994 102.115 37.7374 102.182 37.9174 102.232V101.242C37.7254 101.281 37.5874 101.348 37.4974 101.438C37.4074 101.527 37.3654 101.634 37.3654 101.757H37.3594Z" fill="white"/>
<path d="M38.6623 103.438V104.4C38.8423 104.36 38.9743 104.304 39.0643 104.221C39.1543 104.137 39.1963 104.036 39.1963 103.919C39.1963 103.801 39.1482 103.706 39.0582 103.633C38.9682 103.561 38.8302 103.493 38.6562 103.438H38.6623Z" fill="white"/>
<path d="M38.2303 97.625C35.1523 97.625 32.6562 99.9529 32.6562 102.824C32.6562 105.694 35.1523 108.022 38.2303 108.022C41.3083 108.022 43.8043 105.694 43.8043 102.824C43.8043 99.9529 41.3083 97.625 38.2303 97.625ZM39.9582 104.816C39.6582 105.09 39.2262 105.258 38.6682 105.32V106.103H37.9183V105.342C37.5522 105.325 37.1982 105.264 36.8622 105.163C36.5262 105.062 36.2562 104.933 36.0522 104.788L36.4662 103.937C36.6582 104.066 36.8802 104.178 37.1322 104.267C37.3842 104.357 37.6483 104.413 37.9183 104.435V103.271C37.5642 103.193 37.2642 103.104 37.0242 103.008C36.7782 102.913 36.5742 102.768 36.4122 102.577C36.2502 102.387 36.1662 102.141 36.1662 101.828C36.1662 101.441 36.3162 101.111 36.6162 100.837C36.9162 100.563 37.3542 100.389 37.9183 100.333V99.5612H38.6682V100.322C39.2802 100.367 39.7843 100.513 40.1863 100.748L39.8142 101.604C39.4422 101.402 39.0582 101.285 38.6682 101.24V102.426C39.0162 102.499 39.3102 102.583 39.5562 102.678C39.7962 102.773 40.0002 102.913 40.1682 103.104C40.3302 103.294 40.4142 103.54 40.4142 103.848C40.4142 104.228 40.2642 104.553 39.9642 104.827L39.9582 104.816Z" fill="white"/>
</g>
<path d="M242.6 89.3642C242.6 89.5096 242.66 89.627 242.774 89.7221C242.894 89.8172 243.062 89.8955 243.284 89.957V88.7266C243.05 88.7769 242.876 88.8608 242.762 88.9727C242.648 89.0845 242.594 89.2188 242.594 89.3698L242.6 89.3642Z" fill="#B5E1F1"/>
<path d="M244.219 91.4531V92.65C244.441 92.6053 244.609 92.527 244.723 92.4263C244.837 92.32 244.891 92.197 244.891 92.0516C244.891 91.9062 244.831 91.7887 244.717 91.6936C244.603 91.5985 244.435 91.5202 244.219 91.4531Z" fill="#B5E1F1"/>
<path d="M243.682 84.2031C239.842 84.2031 236.734 87.1019 236.734 90.6833C236.734 94.2648 239.842 97.1635 243.682 97.1635C247.522 97.1635 250.63 94.2648 250.63 90.6833C250.63 87.1019 247.522 84.2031 243.682 84.2031ZM245.836 93.1624C245.464 93.5037 244.924 93.7108 244.222 93.7947V94.7684H243.292V93.8227C242.83 93.8003 242.392 93.722 241.978 93.5989C241.564 93.4701 241.228 93.3135 240.97 93.1288L241.48 92.0711C241.714 92.2334 241.99 92.3677 242.308 92.4797C242.626 92.5916 242.95 92.6587 243.286 92.6867V91.2373C242.848 91.1366 242.47 91.0303 242.17 90.9072C241.864 90.7841 241.612 90.605 241.408 90.3755C241.204 90.1405 241.102 89.8271 241.102 89.441C241.102 88.9597 241.288 88.5456 241.666 88.2043C242.044 87.8573 242.584 87.6503 243.292 87.5719V86.6094H244.222V87.5551C244.984 87.6111 245.614 87.7902 246.112 88.0868L245.644 89.1556C245.176 88.9038 244.702 88.7583 244.216 88.7023V90.1797C244.648 90.2748 245.02 90.3811 245.32 90.4987C245.62 90.6162 245.872 90.7953 246.082 91.0303C246.286 91.2653 246.388 91.5731 246.388 91.9536C246.388 92.4293 246.202 92.8378 245.83 93.1736L245.836 93.1624Z" fill="#B5E1F1"/>
<g opacity="0.6">
<path d="M242.6 89.3642C242.6 89.5096 242.66 89.627 242.774 89.7221C242.894 89.8172 243.062 89.8955 243.284 89.957V88.7266C243.05 88.7769 242.876 88.8608 242.762 88.9727C242.648 89.0845 242.594 89.2188 242.594 89.3698L242.6 89.3642Z" fill="white"/>
<path d="M244.219 91.4531V92.65C244.441 92.6053 244.609 92.527 244.723 92.4263C244.837 92.32 244.891 92.197 244.891 92.0516C244.891 91.9062 244.831 91.7887 244.717 91.6936C244.603 91.5985 244.435 91.5202 244.219 91.4531Z" fill="white"/>
<path d="M243.682 84.2031C239.842 84.2031 236.734 87.1019 236.734 90.6833C236.734 94.2648 239.842 97.1635 243.682 97.1635C247.522 97.1635 250.63 94.2648 250.63 90.6833C250.63 87.1019 247.522 84.2031 243.682 84.2031ZM245.836 93.1624C245.464 93.5037 244.924 93.7108 244.222 93.7947V94.7684H243.292V93.8227C242.83 93.8003 242.392 93.722 241.978 93.5989C241.564 93.4701 241.228 93.3135 240.97 93.1288L241.48 92.0711C241.714 92.2334 241.99 92.3677 242.308 92.4797C242.626 92.5916 242.95 92.6587 243.286 92.6867V91.2373C242.848 91.1366 242.47 91.0303 242.17 90.9072C241.864 90.7841 241.612 90.605 241.408 90.3755C241.204 90.1405 241.102 89.8271 241.102 89.441C241.102 88.9597 241.288 88.5456 241.666 88.2043C242.044 87.8573 242.584 87.6503 243.292 87.5719V86.6094H244.222V87.5551C244.984 87.6111 245.614 87.7902 246.112 88.0868L245.644 89.1556C245.176 88.9038 244.702 88.7583 244.216 88.7023V90.1797C244.648 90.2748 245.02 90.3811 245.32 90.4987C245.62 90.6162 245.872 90.7953 246.082 91.0303C246.286 91.2653 246.388 91.5731 246.388 91.9536C246.388 92.4293 246.202 92.8378 245.83 93.1736L245.836 93.1624Z" fill="white"/>
</g>
<path d="M45.6857 119.325C45.6857 119.471 45.7457 119.588 45.8597 119.683C45.9797 119.778 46.1477 119.856 46.3697 119.918V118.688C46.1357 118.738 45.9617 118.822 45.8477 118.934C45.7337 119.045 45.6797 119.18 45.6797 119.331L45.6857 119.325Z" fill="#B5E1F1"/>
<path d="M47.3125 121.406V122.603C47.5345 122.558 47.7025 122.48 47.8165 122.379C47.9305 122.273 47.9845 122.15 47.9845 122.005C47.9845 121.859 47.9245 121.742 47.8105 121.647C47.6965 121.552 47.5285 121.473 47.3125 121.406Z" fill="#B5E1F1"/>
<path d="M46.7683 114.164C42.9283 114.164 39.8203 117.063 39.8203 120.644C39.8203 124.226 42.9283 127.124 46.7683 127.124C50.6083 127.124 53.7163 124.226 53.7163 120.644C53.7163 117.063 50.6083 114.164 46.7683 114.164ZM48.9223 123.123C48.5503 123.465 48.0103 123.672 47.3083 123.756V124.729H46.3783V123.784C45.9163 123.761 45.4783 123.683 45.0643 123.56C44.6503 123.431 44.3143 123.274 44.0563 123.09L44.5663 122.032C44.8003 122.194 45.0763 122.329 45.3943 122.441C45.7123 122.553 46.0363 122.62 46.3723 122.648V121.198C45.9343 121.098 45.5563 120.991 45.2563 120.868C44.9503 120.745 44.6983 120.566 44.4943 120.336C44.2903 120.101 44.1883 119.788 44.1883 119.402C44.1883 118.921 44.3743 118.507 44.7523 118.165C45.1303 117.818 45.6703 117.611 46.3783 117.533V116.57H47.3083V117.516C48.0703 117.572 48.7003 117.751 49.1983 118.048L48.7303 119.117C48.2623 118.865 47.7883 118.719 47.3023 118.663V120.141C47.7343 120.236 48.1063 120.336 48.4063 120.46C48.7063 120.577 48.9583 120.756 49.1683 120.991C49.3723 121.226 49.4743 121.534 49.4743 121.915C49.4743 122.39 49.2883 122.799 48.9163 123.134L48.9223 123.123Z" fill="#B5E1F1"/>
<g opacity="0.6">
<path d="M45.6857 119.325C45.6857 119.471 45.7457 119.588 45.8597 119.683C45.9797 119.778 46.1477 119.856 46.3697 119.918V118.688C46.1357 118.738 45.9617 118.822 45.8477 118.934C45.7337 119.045 45.6797 119.18 45.6797 119.331L45.6857 119.325Z" fill="white"/>
<path d="M47.3125 121.406V122.603C47.5345 122.558 47.7025 122.48 47.8165 122.379C47.9305 122.273 47.9845 122.15 47.9845 122.005C47.9845 121.859 47.9245 121.742 47.8105 121.647C47.6965 121.552 47.5285 121.473 47.3125 121.406Z" fill="white"/>
<path d="M46.7683 114.164C42.9283 114.164 39.8203 117.063 39.8203 120.644C39.8203 124.226 42.9283 127.124 46.7683 127.124C50.6083 127.124 53.7163 124.226 53.7163 120.644C53.7163 117.063 50.6083 114.164 46.7683 114.164ZM48.9223 123.123C48.5503 123.465 48.0103 123.672 47.3083 123.756V124.729H46.3783V123.784C45.9163 123.761 45.4783 123.683 45.0643 123.56C44.6503 123.431 44.3143 123.274 44.0563 123.09L44.5663 122.032C44.8003 122.194 45.0763 122.329 45.3943 122.441C45.7123 122.553 46.0363 122.62 46.3723 122.648V121.198C45.9343 121.098 45.5563 120.991 45.2563 120.868C44.9503 120.745 44.6983 120.566 44.4943 120.336C44.2903 120.101 44.1883 119.788 44.1883 119.402C44.1883 118.921 44.3743 118.507 44.7523 118.165C45.1303 117.818 45.6703 117.611 46.3783 117.533V116.57H47.3083V117.516C48.0703 117.572 48.7003 117.751 49.1983 118.048L48.7303 119.117C48.2623 118.865 47.7883 118.719 47.3023 118.663V120.141C47.7343 120.236 48.1063 120.336 48.4063 120.46C48.7063 120.577 48.9583 120.756 49.1683 120.991C49.3723 121.226 49.4743 121.534 49.4743 121.915C49.4743 122.39 49.2883 122.799 48.9163 123.134L48.9223 123.123Z" fill="white"/>
</g>
<path d="M250.27 35.9626C249.712 35.5932 249.028 35.375 248.29 35.375H192.85C190.948 35.375 189.406 36.8132 189.406 38.5871V46.2817C189.406 46.8692 189.574 47.4176 189.874 47.8933C190.168 48.369 191.662 49.7512 192.04 50.0086C192.604 50.3891 193.3 50.6186 194.056 50.6186H249.496C251.398 50.6186 252.94 49.1804 252.94 47.4065V39.7119C252.94 39.0012 252.694 38.3465 252.274 37.8205C251.998 37.4735 250.672 36.2312 250.276 35.9682L250.27 35.9626Z" fill="#B5E1F1"/>
<path opacity="0.4" d="M250.27 35.9626C249.712 35.5932 249.028 35.375 248.29 35.375H192.85C190.948 35.375 189.406 36.8132 189.406 38.5871V46.2817C189.406 46.8692 189.574 47.4176 189.874 47.8933C190.168 48.369 191.662 49.7512 192.04 50.0086C192.604 50.3891 193.3 50.6186 194.056 50.6186H249.496C251.398 50.6186 252.94 49.1804 252.94 47.4065V39.7119C252.94 39.0012 252.694 38.3465 252.274 37.8205C251.998 37.4735 250.672 36.2312 250.276 35.9682L250.27 35.9626Z" fill="white"/>
<path opacity="0.4" d="M248.29 35.375H192.85C190.948 35.375 189.406 36.8131 189.406 38.5871V46.2817C189.406 48.0557 190.948 49.4938 192.85 49.4938H248.29C250.192 49.4938 251.734 48.0557 251.734 46.2817V38.5871C251.734 36.8131 250.192 35.375 248.29 35.375Z" fill="white"/>
<path d="M197.638 37.8125L199.108 40.5825L202.384 41.0246L200.014 43.1791L200.572 46.2233L197.638 44.7851L194.71 46.2233L195.268 43.1791L192.898 41.0246L196.174 40.5825L197.638 37.8125Z" fill="#B5E1F1"/>
<path d="M209.279 37.8125L210.743 40.5825L214.025 41.0246L211.649 43.1791L212.213 46.2233L209.279 44.7851L206.351 46.2233L206.909 43.1791L204.539 41.0246L207.815 40.5825L209.279 37.8125Z" fill="#B5E1F1"/>
<path d="M220.918 37.8125L222.382 40.5825L225.658 41.0246L223.288 43.1791L223.846 46.2233L220.918 44.7851L217.984 46.2233L218.548 43.1791L216.172 41.0246L219.454 40.5825L220.918 37.8125Z" fill="#B5E1F1"/>
<path d="M232.559 37.8125L234.023 40.5825L237.298 41.0246L234.929 43.1791L235.487 46.2233L232.559 44.7851L229.625 46.2233L230.183 43.1791L227.812 41.0246L231.089 40.5825L232.559 37.8125Z" fill="#B5E1F1"/>
<path d="M244.193 37.8125L245.663 40.5825L248.939 41.0246L246.569 43.1791L247.127 46.2233L244.193 44.7851L241.265 46.2233L241.823 43.1791L239.453 41.0246L242.729 40.5825L244.193 37.8125Z" fill="#B5E1F1"/>
<path opacity="0.9" d="M197.638 37.8125L199.108 40.5825L202.384 41.0246L200.014 43.1791L200.572 46.2233L197.638 44.7851L194.71 46.2233L195.268 43.1791L192.898 41.0246L196.174 40.5825L197.638 37.8125Z" fill="white"/>
<path opacity="0.9" d="M209.279 37.8125L210.743 40.5825L214.025 41.0246L211.649 43.1791L212.213 46.2233L209.279 44.7851L206.351 46.2233L206.909 43.1791L204.539 41.0246L207.815 40.5825L209.279 37.8125Z" fill="white"/>
<path opacity="0.9" d="M220.918 37.8125L222.382 40.5825L225.658 41.0246L223.288 43.1791L223.846 46.2233L220.918 44.7851L217.984 46.2233L218.548 43.1791L216.172 41.0246L219.454 40.5825L220.918 37.8125Z" fill="white"/>
<path opacity="0.9" d="M232.559 37.8125L234.023 40.5825L237.298 41.0246L234.929 43.1791L235.487 46.2233L232.559 44.7851L229.625 46.2233L230.183 43.1791L227.812 41.0246L231.089 40.5825L232.559 37.8125Z" fill="white"/>
<path opacity="0.9" d="M244.193 37.8125L245.663 40.5825L248.939 41.0246L246.569 43.1791L247.127 46.2233L244.193 44.7851L241.265 46.2233L241.823 43.1791L239.453 41.0246L242.729 40.5825L244.193 37.8125Z" fill="white"/>
<path d="M160.699 120.812V118.702C160.699 115.809 158.174 113.453 155.072 113.453C151.97 113.453 149.444 115.809 149.444 118.702V120.812H147.938V131.769H162.205V120.812H160.699ZM150.955 118.702C150.955 116.587 152.804 114.863 155.072 114.863C157.34 114.863 159.188 116.587 159.188 118.702V120.812H150.95V118.702H150.955ZM155.827 126.251V128.02C155.827 128.406 155.491 128.719 155.077 128.719C154.663 128.719 154.327 128.406 154.327 128.02V126.251C153.871 125.977 153.595 125.462 153.709 124.897C153.817 124.388 154.268 123.974 154.82 123.879C155.702 123.727 156.476 124.36 156.476 125.16C156.476 125.619 156.218 126.022 155.834 126.251H155.827Z" fill="#B5E1F1"/>
<path opacity="0.6" d="M160.699 120.812V118.702C160.699 115.809 158.174 113.453 155.072 113.453C151.97 113.453 149.444 115.809 149.444 118.702V120.812H147.938V131.769H162.205V120.812H160.699ZM150.955 118.702C150.955 116.587 152.804 114.863 155.072 114.863C157.34 114.863 159.188 116.587 159.188 118.702V120.812H150.95V118.702H150.955ZM155.827 126.251V128.02C155.827 128.406 155.491 128.719 155.077 128.719C154.663 128.719 154.327 128.406 154.327 128.02V126.251C153.871 125.977 153.595 125.462 153.709 124.897C153.817 124.388 154.268 123.974 154.82 123.879C155.702 123.727 156.476 124.36 156.476 125.16C156.476 125.619 156.218 126.022 155.834 126.251H155.827Z" fill="white"/>
<path d="M40.2786 65.2183C41.4118 65.2183 42.3306 64.3615 42.3306 63.3045C42.3306 62.2475 41.4118 61.3906 40.2786 61.3906C39.1453 61.3906 38.2266 62.2475 38.2266 63.3045C38.2266 64.3615 39.1453 65.2183 40.2786 65.2183Z" fill="#B5E1F1"/>
<path d="M57.0139 63.2989C57.0139 64.3565 56.0959 65.2071 54.9679 65.2071C53.8399 65.2071 52.9219 64.3509 52.9219 63.2989C52.9219 62.2468 53.8399 61.3906 54.9679 61.3906C56.0959 61.3906 57.0139 62.2468 57.0139 63.2989Z" fill="#B5E1F1"/>
<path d="M69.6632 65.2071C70.7932 65.2071 71.7092 64.3528 71.7092 63.2989C71.7092 62.245 70.7932 61.3906 69.6632 61.3906C68.5332 61.3906 67.6172 62.245 67.6172 63.2989C67.6172 64.3528 68.5332 65.2071 69.6632 65.2071Z" fill="#B5E1F1"/>
<path d="M42.3324 50.5098C42.3324 51.5675 41.4144 52.4181 40.2864 52.4181C39.1584 52.4181 38.2344 51.5619 38.2344 50.5098C38.2344 49.4578 39.1524 48.6016 40.2864 48.6016C41.4204 48.6016 42.3324 49.4578 42.3324 50.5098Z" fill="#B5E1F1"/>
<path d="M57.0139 50.5098C57.0139 51.5675 56.0959 52.4181 54.9679 52.4181C53.8399 52.4181 52.9219 51.5619 52.9219 50.5098C52.9219 49.4578 53.8399 48.6016 54.9679 48.6016C56.0959 48.6016 57.0139 49.4578 57.0139 50.5098Z" fill="#B5E1F1"/>
<path d="M71.7074 50.5098C71.7074 51.5675 70.7894 52.4181 69.6554 52.4181C68.5214 52.4181 67.6094 51.5619 67.6094 50.5098C67.6094 49.4578 68.5274 48.6016 69.6554 48.6016C70.7834 48.6016 71.7074 49.4578 71.7074 50.5098Z" fill="#B5E1F1"/>
<path d="M40.2786 39.6246C41.4118 39.6246 42.3306 38.7677 42.3306 37.7107C42.3306 36.6537 41.4118 35.7969 40.2786 35.7969C39.1453 35.7969 38.2266 36.6537 38.2266 37.7107C38.2266 38.7677 39.1453 39.6246 40.2786 39.6246Z" fill="#B5E1F1"/>
<path d="M57.0139 37.7129C57.0139 38.7706 56.0959 39.6212 54.9679 39.6212C53.8399 39.6212 52.9219 38.765 52.9219 37.7129C52.9219 36.6609 53.8399 35.8047 54.9679 35.8047C56.0959 35.8047 57.0139 36.6609 57.0139 37.7129Z" fill="#B5E1F1"/>
<path d="M69.6632 39.6212C70.7932 39.6212 71.7092 38.7668 71.7092 37.7129C71.7092 36.659 70.7932 35.8047 69.6632 35.8047C68.5332 35.8047 67.6172 36.659 67.6172 37.7129C67.6172 38.7668 68.5332 39.6212 69.6632 39.6212Z" fill="#B5E1F1"/>
<g opacity="0.3">
<path d="M40.2786 65.2183C41.4118 65.2183 42.3306 64.3615 42.3306 63.3045C42.3306 62.2475 41.4118 61.3906 40.2786 61.3906C39.1453 61.3906 38.2266 62.2475 38.2266 63.3045C38.2266 64.3615 39.1453 65.2183 40.2786 65.2183Z" fill="white"/>
<path d="M57.0139 63.2989C57.0139 64.3565 56.0959 65.2071 54.9679 65.2071C53.8399 65.2071 52.9219 64.3509 52.9219 63.2989C52.9219 62.2468 53.8399 61.3906 54.9679 61.3906C56.0959 61.3906 57.0139 62.2468 57.0139 63.2989Z" fill="white"/>
<path d="M69.6632 65.2071C70.7932 65.2071 71.7092 64.3528 71.7092 63.2989C71.7092 62.245 70.7932 61.3906 69.6632 61.3906C68.5332 61.3906 67.6172 62.245 67.6172 63.2989C67.6172 64.3528 68.5332 65.2071 69.6632 65.2071Z" fill="white"/>
<path d="M42.3324 50.5098C42.3324 51.5675 41.4144 52.4181 40.2864 52.4181C39.1584 52.4181 38.2344 51.5619 38.2344 50.5098C38.2344 49.4578 39.1524 48.6016 40.2864 48.6016C41.4204 48.6016 42.3324 49.4578 42.3324 50.5098Z" fill="white"/>
<path d="M57.0139 50.5098C57.0139 51.5675 56.0959 52.4181 54.9679 52.4181C53.8399 52.4181 52.9219 51.5619 52.9219 50.5098C52.9219 49.4578 53.8399 48.6016 54.9679 48.6016C56.0959 48.6016 57.0139 49.4578 57.0139 50.5098Z" fill="white"/>
<path d="M71.7074 50.5098C71.7074 51.5675 70.7894 52.4181 69.6554 52.4181C68.5214 52.4181 67.6094 51.5619 67.6094 50.5098C67.6094 49.4578 68.5274 48.6016 69.6554 48.6016C70.7834 48.6016 71.7074 49.4578 71.7074 50.5098Z" fill="white"/>
<path d="M40.2786 39.6246C41.4118 39.6246 42.3306 38.7677 42.3306 37.7107C42.3306 36.6537 41.4118 35.7969 40.2786 35.7969C39.1453 35.7969 38.2266 36.6537 38.2266 37.7107C38.2266 38.7677 39.1453 39.6246 40.2786 39.6246Z" fill="white"/>
<path d="M57.0139 37.7129C57.0139 38.7706 56.0959 39.6212 54.9679 39.6212C53.8399 39.6212 52.9219 38.765 52.9219 37.7129C52.9219 36.6609 53.8399 35.8047 54.9679 35.8047C56.0959 35.8047 57.0139 36.6609 57.0139 37.7129Z" fill="white"/>
<path d="M69.6632 39.6212C70.7932 39.6212 71.7092 38.7668 71.7092 37.7129C71.7092 36.659 70.7932 35.8047 69.6632 35.8047C68.5332 35.8047 67.6172 36.659 67.6172 37.7129C67.6172 38.7668 68.5332 39.6212 69.6632 39.6212Z" fill="white"/>
</g>
<path d="M69.6562 63.303C69.6562 63.8123 69.2122 64.2264 68.6662 64.2264H40.7602C40.2742 64.2264 39.8422 63.9522 39.6622 63.5325C39.4822 63.1072 39.5962 62.6371 39.9562 62.3237L67.1482 38.6358H41.2582C40.7122 38.6358 40.2682 38.2216 40.2682 37.7124C40.2682 37.2032 40.7122 36.7891 41.2582 36.7891H69.1642C69.6502 36.7891 70.0822 37.0633 70.2622 37.483C70.4422 37.9083 70.3282 38.3783 69.9682 38.6917L42.7762 62.3797H68.6662C69.2122 62.3797 69.6562 62.7938 69.6562 63.303Z" fill="#B5E1F1"/>
<g opacity="0.6">
<path d="M69.6562 63.303C69.6562 63.8123 69.2122 64.2264 68.6662 64.2264H40.7602C40.2742 64.2264 39.8422 63.9522 39.6622 63.5325C39.4822 63.1072 39.5962 62.6371 39.9562 62.3237L67.1482 38.6358H41.2582C40.7122 38.6358 40.2682 38.2216 40.2682 37.7124C40.2682 37.2032 40.7122 36.7891 41.2582 36.7891H69.1642C69.6502 36.7891 70.0822 37.0633 70.2622 37.483C70.4422 37.9083 70.3282 38.3783 69.9682 38.6917L42.7762 62.3797H68.6662C69.2122 62.3797 69.6562 62.7938 69.6562 63.303Z" fill="white"/>
</g>
<path d="M178.553 168.752H221.885C226.757 168.752 230.711 165.064 230.711 160.52V63.9271C230.711 59.3831 226.757 55.6953 221.885 55.6953H178.553C173.681 55.6953 169.727 59.3831 169.727 63.9271V160.52C169.727 165.064 173.681 168.752 178.553 168.752Z" fill="#B5E1F1"/>
<path d="M180.802 168.752H224.134C229.006 168.752 232.96 165.064 232.96 160.52V63.9271C232.96 59.3831 229.006 55.6953 224.134 55.6953H180.802C175.93 55.6953 171.976 59.3831 171.976 63.9271V160.52C171.976 165.064 175.93 168.752 180.802 168.752Z" fill="#263238"/>
<path d="M180.798 57.5781H192.06C192.798 57.5781 193.422 58.0874 193.512 58.7701L193.56 59.1002C193.788 60.7679 195.306 62.0158 197.112 62.0158H207.822C209.622 62.0158 211.146 60.7679 211.374 59.1002L211.422 58.7701C211.518 58.0874 212.136 57.5781 212.874 57.5781H224.136C227.892 57.5781 230.94 60.4209 230.94 63.924V160.517C230.94 164.02 227.898 166.863 224.136 166.863H180.804C177.048 166.863 174 164.02 174 160.517V63.924C174 60.4209 177.048 57.5781 180.804 57.5781H180.798Z" fill="#B5E1F1"/>
<path opacity="0.8" d="M180.798 57.5781H192.06C192.798 57.5781 193.422 58.0874 193.512 58.7701L193.56 59.1002C193.788 60.7679 195.306 62.0158 197.112 62.0158H207.822C209.622 62.0158 211.146 60.7679 211.374 59.1002L211.422 58.7701C211.518 58.0874 212.136 57.5781 212.874 57.5781H224.136C227.892 57.5781 230.94 60.4209 230.94 63.924V160.517C230.94 164.02 227.898 166.863 224.136 166.863H180.804C177.048 166.863 174 164.02 174 160.517V63.924C174 60.4209 177.048 57.5781 180.804 57.5781H180.798Z" fill="white"/>
<g opacity="0.9">
<path d="M205.094 58.6596C205.094 59.1017 205.478 59.4598 205.952 59.4598C206.426 59.4598 206.81 59.1017 206.81 58.6596C206.81 58.2175 206.426 57.8594 205.952 57.8594C205.478 57.8594 205.094 58.2175 205.094 58.6596Z" fill="black"/>
<path d="M198.991 57.8516H201.943C202.417 57.8516 202.801 58.2097 202.801 58.6518C202.801 59.0939 202.417 59.452 201.943 59.452H198.991C198.517 59.452 198.133 59.0939 198.133 58.6518C198.133 58.2097 198.517 57.8516 198.991 57.8516Z" fill="black"/>
</g>
<path d="M180.287 61.1562H179.375V62.0059H180.287V61.1562Z" fill="#B5E1F1"/>
<path d="M181.203 61.1553V62.0059H182.115V61.1553V60.3047H181.203V61.1553Z" fill="#B5E1F1"/>
<path d="M183.023 59.4531V60.3037V61.1543V62.0049H183.935V61.1543V60.3037V59.4531H183.023Z" fill="#B5E1F1"/>
<path d="M222.21 59.5156V60.1368H221.766V61.3847H222.21V62.0059H226.218V59.5156H222.21ZM223.992 61.3847H222.654V60.1368H223.992V61.3847Z" fill="#B5E1F1"/>
<path opacity="0.9" d="M202.332 152.318C206.796 152.318 210.414 148.943 210.414 144.78C210.414 140.617 206.796 137.242 202.332 137.242C197.868 137.242 194.25 140.617 194.25 144.78C194.25 148.943 197.868 152.318 202.332 152.318Z" fill="white"/>
<path d="M202.178 148.81L195.128 142.234C194.51 141.658 194.51 140.729 195.128 140.158C195.746 139.587 196.742 139.587 197.354 140.158L202.178 144.657L210.134 137.237C210.752 136.661 211.748 136.661 212.36 137.237C212.978 137.813 212.978 138.742 212.36 139.313L202.178 148.81Z" fill="#0F3970"/>
<path opacity="0.3" d="M227.633 130.728H177.383C176.555 130.728 175.883 130.101 175.883 129.329C175.883 128.556 176.555 127.93 177.383 127.93H227.633C228.461 127.93 229.133 128.556 229.133 129.329C229.133 130.101 228.461 130.728 227.633 130.728Z" fill="black"/>
<path d="M134.64 102.93H83.8438V129.276H134.64V102.93Z" fill="#0F3970"/>
<path opacity="0.3" d="M134.64 102.93H83.8438V129.276H134.64V102.93Z" fill="white"/>
<path opacity="0.8" d="M132.361 125.133V107.075C131.167 107.075 130.195 106.168 130.195 105.055H88.291C88.291 106.168 87.319 107.075 86.125 107.075V125.133C87.319 125.133 88.291 126.04 88.291 127.153H130.195C130.195 126.04 131.167 125.133 132.361 125.133Z" fill="white"/>
<path d="M108 114.602C108 114.77 108.066 114.905 108.204 115.011C108.336 115.117 108.534 115.207 108.786 115.28V113.875C108.516 113.937 108.318 114.026 108.192 114.155C108.066 114.284 108 114.435 108 114.608V114.602Z" fill="#0F3970"/>
<path d="M109.859 116.982V118.348C110.117 118.292 110.303 118.208 110.435 118.09C110.561 117.973 110.627 117.827 110.627 117.665C110.627 117.503 110.561 117.363 110.429 117.256C110.297 117.15 110.111 117.061 109.859 116.977V116.982Z" fill="#0F3970"/>
<path d="M109.24 108.719C104.866 108.719 101.32 112.026 101.32 116.106C101.32 120.185 104.866 123.492 109.24 123.492C113.614 123.492 117.16 120.185 117.16 116.106C117.16 112.026 113.614 108.719 109.24 108.719ZM111.694 118.937C111.268 119.323 110.656 119.564 109.858 119.653V120.761H108.796V119.681C108.274 119.653 107.77 119.569 107.296 119.424C106.822 119.278 106.438 119.099 106.15 118.887L106.732 117.678C107.002 117.863 107.314 118.019 107.68 118.142C108.04 118.266 108.412 118.35 108.796 118.383V116.727C108.292 116.615 107.866 116.492 107.524 116.352C107.176 116.212 106.888 116.01 106.654 115.742C106.42 115.473 106.306 115.121 106.306 114.679C106.306 114.13 106.522 113.66 106.948 113.268C107.374 112.877 107.992 112.636 108.802 112.552V111.45H109.864V112.53C110.734 112.597 111.454 112.798 112.018 113.134L111.484 114.354C110.95 114.069 110.41 113.895 109.858 113.839V115.524C110.356 115.63 110.776 115.747 111.118 115.887C111.46 116.022 111.748 116.223 111.982 116.492C112.216 116.76 112.33 117.113 112.33 117.549C112.33 118.092 112.12 118.557 111.694 118.943V118.937Z" fill="#0F3970"/>
<g opacity="0.3">
<path d="M108 114.602C108 114.77 108.066 114.905 108.204 115.011C108.336 115.117 108.534 115.207 108.786 115.28V113.875C108.516 113.937 108.318 114.026 108.192 114.155C108.066 114.284 108 114.435 108 114.608V114.602Z" fill="white"/>
<path d="M109.859 116.982V118.348C110.117 118.292 110.303 118.208 110.435 118.09C110.561 117.973 110.627 117.827 110.627 117.665C110.627 117.503 110.561 117.363 110.429 117.256C110.297 117.15 110.111 117.061 109.859 116.977V116.982Z" fill="white"/>
<path d="M109.24 108.719C104.866 108.719 101.32 112.026 101.32 116.106C101.32 120.185 104.866 123.492 109.24 123.492C113.614 123.492 117.16 120.185 117.16 116.106C117.16 112.026 113.614 108.719 109.24 108.719ZM111.694 118.937C111.268 119.323 110.656 119.564 109.858 119.653V120.761H108.796V119.681C108.274 119.653 107.77 119.569 107.296 119.424C106.822 119.278 106.438 119.099 106.15 118.887L106.732 117.678C107.002 117.863 107.314 118.019 107.68 118.142C108.04 118.266 108.412 118.35 108.796 118.383V116.727C108.292 116.615 107.866 116.492 107.524 116.352C107.176 116.212 106.888 116.01 106.654 115.742C106.42 115.473 106.306 115.121 106.306 114.679C106.306 114.13 106.522 113.66 106.948 113.268C107.374 112.877 107.992 112.636 108.802 112.552V111.45H109.864V112.53C110.734 112.597 111.454 112.798 112.018 113.134L111.484 114.354C110.95 114.069 110.41 113.895 109.858 113.839V115.524C110.356 115.63 110.776 115.747 111.118 115.887C111.46 116.022 111.748 116.223 111.982 116.492C112.216 116.76 112.33 117.113 112.33 117.549C112.33 118.092 112.12 118.557 111.694 118.943V118.937Z" fill="white"/>
</g>
<path d="M94.7319 78.2141L83.9219 102.555L130.851 120.685L141.661 96.3441L94.7319 78.2141Z" fill="#0F3970"/>
<path opacity="0.3" d="M94.7319 78.2141L83.9219 102.555L130.851 120.685L141.661 96.3441L94.7319 78.2141Z" fill="white"/>
<path opacity="0.8" d="M95.1366 82.849L87.7266 99.5308C88.8306 99.9561 89.3586 101.137 88.8966 102.167L127.615 117.125C128.071 116.095 129.337 115.603 130.441 116.033L137.851 99.3517C136.747 98.9264 136.219 97.7457 136.681 96.716L97.9626 81.7578C97.5066 82.7875 96.2406 83.2799 95.1366 82.849Z" fill="white"/>
<path d="M113.315 101.276C113.381 101.125 113.375 100.974 113.297 100.828C113.219 100.683 113.075 100.532 112.865 100.375L112.289 101.673C112.565 101.712 112.781 101.696 112.955 101.623C113.123 101.55 113.249 101.433 113.315 101.276Z" fill="#0F3970"/>
<path d="M112.581 98.4142L113.145 97.1495C112.887 97.1103 112.677 97.1159 112.509 97.183C112.341 97.2502 112.227 97.3565 112.155 97.5076C112.089 97.6587 112.095 97.8098 112.167 97.9553C112.245 98.1008 112.383 98.2519 112.581 98.4142Z" fill="#0F3970"/>
<path d="M109.762 106.273C113.806 107.834 118.438 106.044 120.112 102.272C121.786 98.5002 119.866 94.1801 115.822 92.6188C111.778 91.0575 107.146 92.8482 105.472 96.6199C103.798 100.392 105.718 104.712 109.762 106.273ZM111.688 95.9596C112.24 95.7526 112.906 95.7526 113.68 95.954L114.136 94.9299L115.12 95.3105L114.676 96.3066C115.15 96.5192 115.576 96.7766 115.954 97.0788C116.332 97.381 116.614 97.6832 116.794 97.9798L115.756 98.8863C115.582 98.6177 115.354 98.3659 115.072 98.1197C114.79 97.8734 114.478 97.6664 114.142 97.5041L113.464 99.0318C113.884 99.3172 114.226 99.5802 114.49 99.8321C114.754 100.084 114.94 100.375 115.042 100.705C115.15 101.035 115.108 101.405 114.928 101.813C114.706 102.317 114.31 102.68 113.758 102.887C113.2 103.1 112.534 103.1 111.748 102.887L111.298 103.906L110.314 103.525L110.758 102.529C109.978 102.16 109.396 101.712 109.012 101.203L110.002 100.269C110.374 100.722 110.806 101.074 111.292 101.326L111.982 99.7705C111.568 99.4963 111.232 99.2333 110.968 98.9871C110.704 98.7408 110.524 98.4498 110.416 98.1197C110.308 97.7895 110.344 97.4202 110.524 97.0173C110.746 96.5192 111.13 96.1667 111.682 95.9596H111.688Z" fill="#0F3970"/>
<g opacity="0.3">
<path d="M113.315 101.276C113.381 101.125 113.375 100.974 113.297 100.828C113.219 100.683 113.075 100.532 112.865 100.375L112.289 101.673C112.565 101.712 112.781 101.696 112.955 101.623C113.123 101.55 113.249 101.433 113.315 101.276Z" fill="white"/>
<path d="M112.581 98.4142L113.145 97.1495C112.887 97.1103 112.677 97.1159 112.509 97.183C112.341 97.2502 112.227 97.3565 112.155 97.5076C112.089 97.6587 112.095 97.8098 112.167 97.9553C112.245 98.1008 112.383 98.2519 112.581 98.4142Z" fill="white"/>
<path d="M109.762 106.273C113.806 107.834 118.438 106.044 120.112 102.272C121.786 98.5002 119.866 94.1801 115.822 92.6188C111.778 91.0575 107.146 92.8482 105.472 96.6199C103.798 100.392 105.718 104.712 109.762 106.273ZM111.688 95.9596C112.24 95.7526 112.906 95.7526 113.68 95.954L114.136 94.9299L115.12 95.3105L114.676 96.3066C115.15 96.5192 115.576 96.7766 115.954 97.0788C116.332 97.381 116.614 97.6832 116.794 97.9798L115.756 98.8863C115.582 98.6177 115.354 98.3659 115.072 98.1197C114.79 97.8734 114.478 97.6664 114.142 97.5041L113.464 99.0318C113.884 99.3172 114.226 99.5802 114.49 99.8321C114.754 100.084 114.94 100.375 115.042 100.705C115.15 101.035 115.108 101.405 114.928 101.813C114.706 102.317 114.31 102.68 113.758 102.887C113.2 103.1 112.534 103.1 111.748 102.887L111.298 103.906L110.314 103.525L110.758 102.529C109.978 102.16 109.396 101.712 109.012 101.203L110.002 100.269C110.374 100.722 110.806 101.074 111.292 101.326L111.982 99.7705C111.568 99.4963 111.232 99.2333 110.968 98.9871C110.704 98.7408 110.524 98.4498 110.416 98.1197C110.308 97.7895 110.344 97.4202 110.524 97.0173C110.746 96.5192 111.13 96.1667 111.682 95.9596H111.688Z" fill="white"/>
</g>
<path d="M114.935 59.2611L94.9609 77.8906L130.879 111.39L150.853 92.761L114.935 59.2611Z" fill="#0F3970"/>
<path opacity="0.3" d="M114.935 59.2611L94.9609 77.8906L130.879 111.39L150.853 92.761L114.935 59.2611Z" fill="white"/>
<path opacity="0.8" d="M113.411 63.6953L99.7188 76.4654C100.565 77.2545 100.565 78.5304 99.7188 79.3194L129.353 106.958C130.199 106.169 131.567 106.169 132.413 106.958L146.105 94.1881C145.259 93.399 145.259 92.1231 146.105 91.3341L116.471 63.6953C115.625 64.4844 114.257 64.4844 113.411 63.6953Z" fill="white"/>
<path d="M122.641 87.2065C122.767 87.089 122.821 86.9492 122.809 86.787C122.791 86.6248 122.725 86.4347 122.599 86.2109L121.531 87.2065C121.765 87.3407 121.975 87.4079 122.167 87.3967C122.353 87.3911 122.515 87.324 122.647 87.2065H122.641Z" fill="#0F3970"/>
<path d="M123.141 84.2962L124.179 83.3286C123.957 83.1999 123.759 83.1328 123.579 83.1328C123.399 83.1328 123.249 83.1888 123.123 83.3062C122.997 83.4237 122.943 83.5635 122.955 83.7257C122.967 83.8879 123.033 84.078 123.147 84.2962H123.141Z" fill="#0F3970"/>
<path d="M117.306 90.5509C120.402 93.4385 125.418 93.4385 128.508 90.5509C131.604 87.6634 131.604 82.9851 128.508 80.1032C125.412 77.2156 120.396 77.2156 117.306 80.1032C114.21 82.9907 114.21 87.669 117.306 90.5509ZM123.318 81.7092C123.912 81.7148 124.524 81.9499 125.16 82.4143L126 81.6309L126.75 82.3304L125.934 83.0914C126.282 83.4552 126.57 83.8469 126.798 84.261C127.026 84.6751 127.158 85.0556 127.206 85.397L125.874 85.8671C125.826 85.5593 125.718 85.2403 125.556 84.9157C125.394 84.5912 125.196 84.289 124.95 84.0148L123.696 85.1844C123.966 85.5929 124.17 85.9622 124.314 86.2924C124.452 86.6169 124.506 86.9527 124.47 87.2997C124.434 87.641 124.248 87.9712 123.912 88.2846C123.498 88.6707 122.988 88.8609 122.388 88.8609C121.788 88.8609 121.17 88.6203 120.534 88.1447L119.7 88.9225L118.95 88.223L119.766 87.4619C119.202 86.8408 118.842 86.2252 118.698 85.6153L120 85.106C120.162 85.66 120.414 86.1357 120.756 86.5442L122.034 85.3522C121.764 84.9493 121.56 84.5912 121.416 84.2666C121.278 83.942 121.224 83.6119 121.26 83.2705C121.296 82.9292 121.482 82.599 121.812 82.2912C122.22 81.9107 122.724 81.7204 123.318 81.726V81.7092Z" fill="#0F3970"/>
<g opacity="0.3">
<path d="M122.641 87.2065C122.767 87.089 122.821 86.9492 122.809 86.787C122.791 86.6248 122.725 86.4347 122.599 86.2109L121.531 87.2065C121.765 87.3407 121.975 87.4079 122.167 87.3967C122.353 87.3911 122.515 87.324 122.647 87.2065H122.641Z" fill="white"/>
<path d="M123.141 84.2962L124.179 83.3286C123.957 83.1999 123.759 83.1328 123.579 83.1328C123.399 83.1328 123.249 83.1888 123.123 83.3062C122.997 83.4237 122.943 83.5635 122.955 83.7257C122.967 83.8879 123.033 84.078 123.147 84.2962H123.141Z" fill="white"/>
<path d="M117.306 90.5509C120.402 93.4385 125.418 93.4385 128.508 90.5509C131.604 87.6634 131.604 82.9851 128.508 80.1032C125.412 77.2156 120.396 77.2156 117.306 80.1032C114.21 82.9907 114.21 87.669 117.306 90.5509ZM123.318 81.7092C123.912 81.7148 124.524 81.9499 125.16 82.4143L126 81.6309L126.75 82.3304L125.934 83.0914C126.282 83.4552 126.57 83.8469 126.798 84.261C127.026 84.6751 127.158 85.0556 127.206 85.397L125.874 85.8671C125.826 85.5593 125.718 85.2403 125.556 84.9157C125.394 84.5912 125.196 84.289 124.95 84.0148L123.696 85.1844C123.966 85.5929 124.17 85.9622 124.314 86.2924C124.452 86.6169 124.506 86.9527 124.47 87.2997C124.434 87.641 124.248 87.9712 123.912 88.2846C123.498 88.6707 122.988 88.8609 122.388 88.8609C121.788 88.8609 121.17 88.6203 120.534 88.1447L119.7 88.9225L118.95 88.223L119.766 87.4619C119.202 86.8408 118.842 86.2252 118.698 85.6153L120 85.106C120.162 85.66 120.414 86.1357 120.756 86.5442L122.034 85.3522C121.764 84.9493 121.56 84.5912 121.416 84.2666C121.278 83.942 121.224 83.6119 121.26 83.2705C121.296 82.9292 121.482 82.599 121.812 82.2912C122.22 81.9107 122.724 81.7204 123.318 81.726V81.7092Z" fill="white"/>
</g>
<path d="M141.379 48.9647L115.281 59.0469L134.72 102.817L160.818 92.7343L141.379 48.9647Z" fill="#0F3970"/>
<path opacity="0.3" d="M141.379 48.9647L115.281 59.0469L134.72 102.817L160.818 92.7343L141.379 48.9647Z" fill="white"/>
<path opacity="0.8" d="M138.15 52.5156L120.264 59.4267C120.72 60.4564 120.198 61.6371 119.094 62.0624L135.132 98.1736C136.236 97.7483 137.502 98.2352 137.958 99.2648L155.844 92.3537C155.388 91.3241 155.91 90.1433 157.014 89.718L140.976 53.6068C139.872 54.0321 138.606 53.5453 138.15 52.5156Z" fill="white"/>
<path d="M137.026 77.5278C137.188 77.4663 137.296 77.3544 137.35 77.1978C137.404 77.0412 137.416 76.8398 137.392 76.5938L136 77.1307C136.162 77.3376 136.33 77.4719 136.51 77.5334C136.684 77.5949 136.858 77.5893 137.032 77.5278H137.026Z" fill="#0F3970"/>
<path d="M138.681 75.0258L140.037 74.5001C139.887 74.2987 139.731 74.1701 139.563 74.103C139.395 74.0414 139.233 74.0358 139.065 74.103C138.903 74.1645 138.795 74.2763 138.735 74.4273C138.681 74.5784 138.663 74.7797 138.675 75.0202L138.681 75.0258Z" fill="#0F3970"/>
<path d="M130.73 78.7172C132.404 82.489 137.042 84.2797 141.08 82.7184C145.124 81.1571 147.044 76.8314 145.37 73.0653C143.696 69.2935 139.058 67.5028 135.02 69.0641C130.976 70.6254 129.056 74.9511 130.73 78.7172ZM139.91 72.6903C140.456 72.9086 140.924 73.3451 141.326 73.9998L142.424 73.5745L142.832 74.4922L141.764 74.9064C141.938 75.3652 142.046 75.8297 142.082 76.2942C142.118 76.7586 142.088 77.156 141.992 77.4861L140.57 77.4469C140.648 77.1448 140.684 76.8146 140.672 76.4565C140.66 76.0983 140.594 75.7458 140.48 75.4044L138.842 76.0367C138.926 76.5124 138.962 76.9265 138.956 77.2791C138.956 77.6316 138.86 77.9618 138.686 78.264C138.512 78.5662 138.206 78.8068 137.768 78.9747C137.228 79.1817 136.676 79.1817 136.124 78.9635C135.572 78.7452 135.098 78.3031 134.702 77.6428L133.61 78.0625L133.202 77.1448L134.27 76.7307C134 75.9528 133.928 75.2589 134.042 74.6433L135.452 74.6321C135.374 75.1973 135.41 75.729 135.566 76.2326L137.234 75.5891C137.15 75.119 137.108 74.7161 137.108 74.3635C137.108 74.0166 137.198 73.692 137.378 73.3842C137.552 73.082 137.858 72.847 138.29 72.6791C138.824 72.4721 139.37 72.4777 139.91 72.6959V72.6903Z" fill="#0F3970"/>
<g opacity="0.3">
<path d="M137.026 77.5278C137.188 77.4663 137.296 77.3544 137.35 77.1978C137.404 77.0412 137.416 76.8398 137.392 76.5938L136 77.1307C136.162 77.3376 136.33 77.4719 136.51 77.5334C136.684 77.5949 136.858 77.5893 137.032 77.5278H137.026Z" fill="white"/>
<path d="M138.681 75.0258L140.037 74.5001C139.887 74.2987 139.731 74.1701 139.563 74.103C139.395 74.0414 139.233 74.0358 139.065 74.103C138.903 74.1645 138.795 74.2763 138.735 74.4273C138.681 74.5784 138.663 74.7797 138.675 75.0202L138.681 75.0258Z" fill="white"/>
<path d="M130.73 78.7172C132.404 82.489 137.042 84.2797 141.08 82.7184C145.124 81.1571 147.044 76.8314 145.37 73.0653C143.696 69.2935 139.058 67.5028 135.02 69.0641C130.976 70.6254 129.056 74.9511 130.73 78.7172ZM139.91 72.6903C140.456 72.9086 140.924 73.3451 141.326 73.9998L142.424 73.5745L142.832 74.4922L141.764 74.9064C141.938 75.3652 142.046 75.8297 142.082 76.2942C142.118 76.7586 142.088 77.156 141.992 77.4861L140.57 77.4469C140.648 77.1448 140.684 76.8146 140.672 76.4565C140.66 76.0983 140.594 75.7458 140.48 75.4044L138.842 76.0367C138.926 76.5124 138.962 76.9265 138.956 77.2791C138.956 77.6316 138.86 77.9618 138.686 78.264C138.512 78.5662 138.206 78.8068 137.768 78.9747C137.228 79.1817 136.676 79.1817 136.124 78.9635C135.572 78.7452 135.098 78.3031 134.702 77.6428L133.61 78.0625L133.202 77.1448L134.27 76.7307C134 75.9528 133.928 75.2589 134.042 74.6433L135.452 74.6321C135.374 75.1973 135.41 75.729 135.566 76.2326L137.234 75.5891C137.15 75.119 137.108 74.7161 137.108 74.3635C137.108 74.0166 137.198 73.692 137.378 73.3842C137.552 73.082 137.858 72.847 138.29 72.6791C138.824 72.4721 139.37 72.4777 139.91 72.6959V72.6903Z" fill="white"/>
</g>
<path d="M170.029 48.8906H141.781V96.2666H170.029V48.8906Z" fill="#0F3970"/>
<path opacity="0.3" d="M170.029 48.8906H141.781V96.2666H170.029V48.8906Z" fill="white"/>
<path opacity="0.8" d="M165.59 51.0156H146.229C146.229 52.1292 145.257 53.0358 144.062 53.0358V92.1184C145.257 92.1184 146.229 93.025 146.229 94.1386H165.59C165.59 93.025 166.563 92.1184 167.757 92.1184V53.0358C166.563 53.0358 165.59 52.1292 165.59 51.0156Z" fill="white"/>
<path d="M154.288 73.7264C154.468 73.7264 154.612 73.6648 154.726 73.5359C154.84 73.4126 154.936 73.2276 155.014 72.9922H153.508C153.574 73.2444 153.67 73.4294 153.808 73.5471C153.946 73.6648 154.108 73.7264 154.294 73.7264H154.288Z" fill="#0F3970"/>
<path d="M156.842 72.0065H158.306C158.246 71.7655 158.156 71.5917 158.03 71.4684C157.904 71.3507 157.748 71.2891 157.574 71.2891C157.4 71.2891 157.25 71.3507 157.136 71.474C157.022 71.5973 156.926 71.7711 156.836 72.0065H156.842Z" fill="#0F3970"/>
<path d="M147.984 72.5821C147.984 76.6616 151.53 79.9688 155.904 79.9688C160.278 79.9688 163.824 76.6616 163.824 72.5821C163.824 68.5026 160.278 65.1953 155.904 65.1953C151.53 65.1953 147.984 68.5026 147.984 72.5821ZM158.94 70.2933C159.354 70.6906 159.612 71.2614 159.708 72.0057H160.896V72.9962H159.738C159.708 73.483 159.618 73.9531 159.462 74.3952C159.306 74.8373 159.114 75.1954 158.886 75.464L157.59 74.9212C157.788 74.6694 157.956 74.3784 158.088 74.037C158.22 73.7013 158.31 73.3543 158.346 72.9962H156.57C156.45 73.4662 156.318 73.8636 156.168 74.1825C156.018 74.5071 155.802 74.7757 155.514 74.994C155.226 75.2122 154.848 75.3185 154.374 75.3185C153.786 75.3185 153.282 75.1171 152.862 74.7198C152.442 74.3224 152.184 73.746 152.094 72.9906H150.912V72.0001H152.07C152.142 71.1887 152.358 70.5171 152.718 69.9911L154.026 70.4836C153.72 70.9816 153.54 71.4852 153.474 72.0001H155.28C155.394 71.5356 155.52 71.1439 155.67 70.8249C155.814 70.5059 156.03 70.2373 156.318 70.0191C156.606 69.8008 156.984 69.6945 157.452 69.6945C158.034 69.6945 158.532 69.8904 158.946 70.2877L158.94 70.2933Z" fill="#0F3970"/>
<g opacity="0.3">
<path d="M154.288 73.7264C154.468 73.7264 154.612 73.6648 154.726 73.5359C154.84 73.4126 154.936 73.2276 155.014 72.9922H153.508C153.574 73.2444 153.67 73.4294 153.808 73.5471C153.946 73.6648 154.108 73.7264 154.294 73.7264H154.288Z" fill="white"/>
<path d="M156.842 72.0065H158.306C158.246 71.7655 158.156 71.5917 158.03 71.4684C157.904 71.3507 157.748 71.2891 157.574 71.2891C157.4 71.2891 157.25 71.3507 157.136 71.474C157.022 71.5973 156.926 71.7711 156.836 72.0065H156.842Z" fill="white"/>
<path d="M147.984 72.5821C147.984 76.6616 151.53 79.9688 155.904 79.9688C160.278 79.9688 163.824 76.6616 163.824 72.5821C163.824 68.5026 160.278 65.1953 155.904 65.1953C151.53 65.1953 147.984 68.5026 147.984 72.5821ZM158.94 70.2933C159.354 70.6906 159.612 71.2614 159.708 72.0057H160.896V72.9962H159.738C159.708 73.483 159.618 73.9531 159.462 74.3952C159.306 74.8373 159.114 75.1954 158.886 75.464L157.59 74.9212C157.788 74.6694 157.956 74.3784 158.088 74.037C158.22 73.7013 158.31 73.3543 158.346 72.9962H156.57C156.45 73.4662 156.318 73.8636 156.168 74.1825C156.018 74.5071 155.802 74.7757 155.514 74.994C155.226 75.2122 154.848 75.3185 154.374 75.3185C153.786 75.3185 153.282 75.1171 152.862 74.7198C152.442 74.3224 152.184 73.746 152.094 72.9906H150.912V72.0001H152.07C152.142 71.1887 152.358 70.5171 152.718 69.9911L154.026 70.4836C153.72 70.9816 153.54 71.4852 153.474 72.0001H155.28C155.394 71.5356 155.52 71.1439 155.67 70.8249C155.814 70.5059 156.03 70.2373 156.318 70.0191C156.606 69.8008 156.984 69.6945 157.452 69.6945C158.034 69.6945 158.532 69.8904 158.946 70.2877L158.94 70.2933Z" fill="white"/>
</g>
<path d="M170.439 48.9647L151 92.7344L177.098 102.817L196.537 59.0469L170.439 48.9647Z" fill="#0F3970"/>
<path opacity="0.3" d="M170.439 48.9647L151 92.7344L177.098 102.817L196.537 59.0469L170.439 48.9647Z" fill="white"/>
<path opacity="0.8" d="M191.562 59.4267L173.677 52.5156C173.221 53.5453 171.955 54.0377 170.851 53.6068L154.812 89.718C155.916 90.1433 156.445 91.3241 155.983 92.3537L173.869 99.2648C174.325 98.2352 175.59 97.7427 176.694 98.1736L192.733 62.0624C191.629 61.6371 191.1 60.4564 191.562 59.4267Z" fill="white"/>
<path d="M171.8 76.3783C171.962 76.4398 172.124 76.4342 172.28 76.3615C172.436 76.2888 172.598 76.1546 172.766 75.9588L171.374 75.4219C171.332 75.6792 171.35 75.8805 171.428 76.0427C171.506 76.1993 171.632 76.3168 171.8 76.3783Z" fill="#0F3970"/>
<path d="M174.867 75.6956L176.223 76.2157C176.265 75.9752 176.259 75.7794 176.187 75.6228C176.115 75.4662 176.001 75.36 175.839 75.2929C175.677 75.2313 175.515 75.2369 175.359 75.304C175.203 75.3767 175.041 75.5054 174.867 75.69V75.6956Z" fill="#0F3970"/>
<path d="M166.449 73.0653C164.775 76.837 166.695 81.1571 170.739 82.7184C174.783 84.2797 179.415 82.489 181.089 78.7172C182.763 74.9455 180.843 70.6254 176.799 69.0641C172.755 67.5028 168.123 69.2935 166.449 73.0653ZM177.507 74.8616C177.729 75.3764 177.729 75.9976 177.513 76.7195L178.611 77.1448L178.203 78.0625L177.135 77.6484C176.907 78.0905 176.631 78.4878 176.307 78.8404C175.983 79.1929 175.659 79.4559 175.341 79.6238L174.369 78.6557C174.657 78.4934 174.927 78.2808 175.191 78.0177C175.455 77.7547 175.677 77.4637 175.851 77.1504L174.213 76.518C173.907 76.9097 173.625 77.2287 173.355 77.4749C173.085 77.7211 172.773 77.8946 172.419 77.9898C172.065 78.0905 171.669 78.0513 171.231 77.8834C170.691 77.6764 170.301 77.307 170.079 76.7866C169.851 76.2662 169.851 75.645 170.079 74.9119L168.987 74.4922L169.395 73.5745L170.463 73.9886C170.859 73.2611 171.339 72.7183 171.885 72.3602L172.887 73.2835C172.401 73.6305 172.023 74.0334 171.753 74.4866L173.421 75.1302C173.715 74.7441 173.997 74.4307 174.261 74.1845C174.525 73.9382 174.837 73.7704 175.191 73.6696C175.545 73.5689 175.941 73.6025 176.373 73.7704C176.907 73.9774 177.285 74.3356 177.507 74.8504V74.8616Z" fill="#0F3970"/>
<g opacity="0.3">
<path d="M171.8 76.3783C171.962 76.4398 172.124 76.4342 172.28 76.3615C172.436 76.2888 172.598 76.1546 172.766 75.9588L171.374 75.4219C171.332 75.6792 171.35 75.8805 171.428 76.0427C171.506 76.1993 171.632 76.3168 171.8 76.3783Z" fill="white"/>
<path d="M174.867 75.6956L176.223 76.2157C176.265 75.9752 176.259 75.7794 176.187 75.6228C176.115 75.4662 176.001 75.36 175.839 75.2929C175.677 75.2313 175.515 75.2369 175.359 75.304C175.203 75.3767 175.041 75.5054 174.867 75.69V75.6956Z" fill="white"/>
<path d="M166.449 73.0653C164.775 76.837 166.695 81.1571 170.739 82.7184C174.783 84.2797 179.415 82.489 181.089 78.7172C182.763 74.9455 180.843 70.6254 176.799 69.0641C172.755 67.5028 168.123 69.2935 166.449 73.0653ZM177.507 74.8616C177.729 75.3764 177.729 75.9976 177.513 76.7195L178.611 77.1448L178.203 78.0625L177.135 77.6484C176.907 78.0905 176.631 78.4878 176.307 78.8404C175.983 79.1929 175.659 79.4559 175.341 79.6238L174.369 78.6557C174.657 78.4934 174.927 78.2808 175.191 78.0177C175.455 77.7547 175.677 77.4637 175.851 77.1504L174.213 76.518C173.907 76.9097 173.625 77.2287 173.355 77.4749C173.085 77.7211 172.773 77.8946 172.419 77.9898C172.065 78.0905 171.669 78.0513 171.231 77.8834C170.691 77.6764 170.301 77.307 170.079 76.7866C169.851 76.2662 169.851 75.645 170.079 74.9119L168.987 74.4922L169.395 73.5745L170.463 73.9886C170.859 73.2611 171.339 72.7183 171.885 72.3602L172.887 73.2835C172.401 73.6305 172.023 74.0334 171.753 74.4866L173.421 75.1302C173.715 74.7441 173.997 74.4307 174.261 74.1845C174.525 73.9382 174.837 73.7704 175.191 73.6696C175.545 73.5689 175.941 73.6025 176.373 73.7704C176.907 73.9774 177.285 74.3356 177.507 74.8504V74.8616Z" fill="white"/>
</g>
<path d="M196.879 59.2658L160.961 92.7656L180.935 111.395L216.853 77.8953L196.879 59.2658Z" fill="#0F3970"/>
<path opacity="0.3" d="M196.879 59.2658L160.961 92.7656L180.935 111.395L216.853 77.8953L196.879 59.2658Z" fill="white"/>
<path opacity="0.8" d="M212.097 76.4733L198.405 63.7031C197.559 64.4922 196.191 64.4922 195.345 63.7031L165.711 91.3419C166.557 92.1309 166.557 93.4068 165.711 94.1959L179.403 106.966C180.249 106.177 181.617 106.177 182.463 106.966L212.097 79.3272C211.251 78.5382 211.251 77.2623 212.097 76.4733Z" fill="white"/>
<path d="M186.893 85.0738C187.019 85.1912 187.169 85.2416 187.343 85.2304C187.517 85.2136 187.721 85.1521 187.961 85.0346L186.893 84.0391C186.749 84.2572 186.677 84.4529 186.689 84.6319C186.695 84.8053 186.767 84.9563 186.893 85.0794V85.0738Z" fill="#0F3970"/>
<path d="M190.008 85.5421L191.046 86.5097C191.184 86.3027 191.256 86.1182 191.256 85.9504C191.256 85.7826 191.196 85.6428 191.07 85.5253C190.944 85.4079 190.794 85.3575 190.62 85.3687C190.446 85.3799 190.242 85.4414 190.008 85.5477V85.5421Z" fill="#0F3970"/>
<path d="M183.306 80.1011C180.21 82.9886 180.21 87.6669 183.306 90.5488C186.402 93.4308 191.418 93.4364 194.508 90.5488C197.598 87.6613 197.604 82.983 194.508 80.1011C191.412 77.2191 186.396 77.2135 183.306 80.1011ZM192.786 85.7083C192.78 86.2623 192.528 86.8331 192.03 87.4263L192.87 88.2097L192.12 88.9092L191.304 88.1482C190.914 88.4727 190.494 88.7413 190.05 88.954C189.606 89.1666 189.198 89.2897 188.832 89.3345L188.328 88.0922C188.658 88.0474 189 87.9467 189.348 87.7956C189.696 87.6445 190.02 87.4598 190.314 87.2304L189.06 86.0608C188.622 86.3126 188.226 86.5029 187.872 86.6372C187.524 86.7659 187.164 86.8163 186.792 86.7827C186.426 86.7491 186.072 86.5757 185.736 86.2623C185.322 85.8762 185.118 85.4005 185.118 84.8409C185.118 84.2813 185.376 83.7049 185.886 83.1117L185.052 82.3339L185.802 81.6344L186.618 82.3954C187.284 81.8694 187.944 81.5336 188.598 81.3993L189.144 82.6137C188.55 82.7648 188.04 82.9998 187.602 83.3188L188.88 84.5107C189.312 84.2589 189.696 84.0686 190.044 83.9343C190.392 83.8056 190.746 83.7553 191.112 83.7888C191.478 83.8224 191.832 83.9959 192.162 84.3037C192.57 84.6842 192.774 85.1543 192.768 85.7083H192.786Z" fill="#0F3970"/>
<g opacity="0.3">
<path d="M186.893 85.0738C187.019 85.1912 187.169 85.2416 187.343 85.2304C187.517 85.2136 187.721 85.1521 187.961 85.0346L186.893 84.0391C186.749 84.2572 186.677 84.4529 186.689 84.6319C186.695 84.8053 186.767 84.9563 186.893 85.0794V85.0738Z" fill="white"/>
<path d="M190.008 85.5421L191.046 86.5097C191.184 86.3027 191.256 86.1182 191.256 85.9504C191.256 85.7826 191.196 85.6428 191.07 85.5253C190.944 85.4079 190.794 85.3575 190.62 85.3687C190.446 85.3799 190.242 85.4414 190.008 85.5477V85.5421Z" fill="white"/>
<path d="M183.306 80.1011C180.21 82.9886 180.21 87.6669 183.306 90.5488C186.402 93.4308 191.418 93.4364 194.508 90.5488C197.598 87.6613 197.604 82.983 194.508 80.1011C191.412 77.2191 186.396 77.2135 183.306 80.1011ZM192.786 85.7083C192.78 86.2623 192.528 86.8331 192.03 87.4263L192.87 88.2097L192.12 88.9092L191.304 88.1482C190.914 88.4727 190.494 88.7413 190.05 88.954C189.606 89.1666 189.198 89.2897 188.832 89.3345L188.328 88.0922C188.658 88.0474 189 87.9467 189.348 87.7956C189.696 87.6445 190.02 87.4598 190.314 87.2304L189.06 86.0608C188.622 86.3126 188.226 86.5029 187.872 86.6372C187.524 86.7659 187.164 86.8163 186.792 86.7827C186.426 86.7491 186.072 86.5757 185.736 86.2623C185.322 85.8762 185.118 85.4005 185.118 84.8409C185.118 84.2813 185.376 83.7049 185.886 83.1117L185.052 82.3339L185.802 81.6344L186.618 82.3954C187.284 81.8694 187.944 81.5336 188.598 81.3993L189.144 82.6137C188.55 82.7648 188.04 82.9998 187.602 83.3188L188.88 84.5107C189.312 84.2589 189.696 84.0686 190.044 83.9343C190.392 83.8056 190.746 83.7553 191.112 83.7888C191.478 83.8224 191.832 83.9959 192.162 84.3037C192.57 84.6842 192.774 85.1543 192.768 85.7083H192.786Z" fill="white"/>
</g>
<path d="M217.086 78.2138L170.156 96.3438L180.966 120.684L227.896 102.554L217.086 78.2138Z" fill="#0F3970"/>
<path opacity="0.3" d="M217.086 78.2138L170.156 96.3438L180.966 120.684L227.896 102.554L217.086 78.2138Z" fill="white"/>
<path opacity="0.8" d="M224.085 99.5386L216.675 82.8568C215.571 83.2821 214.305 82.7953 213.849 81.7656L175.131 96.7238C175.587 97.7535 175.065 98.9342 173.961 99.3595L181.371 116.041C182.475 115.616 183.741 116.103 184.197 117.133L222.915 102.174C222.459 101.145 222.981 99.9639 224.085 99.5386Z" fill="white"/>
<path d="M197.271 98.5038C197.337 98.6549 197.457 98.7556 197.625 98.806C197.793 98.8563 198.009 98.8675 198.273 98.8452L197.697 97.5469C197.475 97.698 197.331 97.8547 197.265 98.0225C197.199 98.1848 197.205 98.3471 197.271 98.5094V98.5038Z" fill="#0F3970"/>
<path d="M199.953 100.032L200.517 101.297C200.733 101.157 200.871 101.012 200.943 100.855C201.009 100.698 201.015 100.547 200.943 100.39C200.877 100.239 200.757 100.139 200.595 100.083C200.433 100.032 200.217 100.016 199.959 100.027L199.953 100.032Z" fill="#0F3970"/>
<path d="M195.996 92.6266C191.952 94.1879 190.032 98.5136 191.706 102.28C193.38 106.051 198.018 107.842 202.056 106.281C206.1 104.72 208.02 100.394 206.346 96.6278C204.672 92.856 200.034 91.0653 195.996 92.6266ZM202.458 101.189C202.224 101.698 201.756 102.134 201.054 102.509L201.51 103.533L200.526 103.914L200.082 102.918C199.59 103.08 199.092 103.181 198.594 103.214C198.096 103.248 197.67 103.22 197.316 103.13L197.358 101.804C197.682 101.877 198.036 101.91 198.42 101.899C198.804 101.888 199.182 101.826 199.548 101.72L198.87 100.192C198.36 100.271 197.916 100.304 197.538 100.299C197.16 100.299 196.806 100.209 196.482 100.047C196.158 99.8846 195.9 99.5992 195.72 99.1907C195.498 98.6871 195.498 98.1723 195.732 97.6574C195.966 97.1426 196.44 96.7005 197.148 96.3312L196.698 95.3127L197.682 94.9322L198.126 95.9282C198.96 95.6764 199.704 95.6093 200.364 95.7156L200.376 97.0307C199.77 96.9579 199.2 96.9915 198.66 97.137L199.35 98.6927C199.854 98.6143 200.286 98.5752 200.664 98.5752C201.036 98.5752 201.384 98.6591 201.714 98.827C202.038 98.9893 202.29 99.2747 202.47 99.6776C202.692 100.176 202.686 100.685 202.452 101.189H202.458Z" fill="#0F3970"/>
<g opacity="0.3">
<path d="M197.271 98.5038C197.337 98.6549 197.457 98.7556 197.625 98.806C197.793 98.8563 198.009 98.8675 198.273 98.8452L197.697 97.5469C197.475 97.698 197.331 97.8547 197.265 98.0225C197.199 98.1848 197.205 98.3471 197.271 98.5094V98.5038Z" fill="white"/>
<path d="M199.953 100.032L200.517 101.297C200.733 101.157 200.871 101.012 200.943 100.855C201.009 100.698 201.015 100.547 200.943 100.39C200.877 100.239 200.757 100.139 200.595 100.083C200.433 100.032 200.217 100.016 199.959 100.027L199.953 100.032Z" fill="white"/>
<path d="M195.996 92.6266C191.952 94.1879 190.032 98.5136 191.706 102.28C193.38 106.051 198.018 107.842 202.056 106.281C206.1 104.72 208.02 100.394 206.346 96.6278C204.672 92.856 200.034 91.0653 195.996 92.6266ZM202.458 101.189C202.224 101.698 201.756 102.134 201.054 102.509L201.51 103.533L200.526 103.914L200.082 102.918C199.59 103.08 199.092 103.181 198.594 103.214C198.096 103.248 197.67 103.22 197.316 103.13L197.358 101.804C197.682 101.877 198.036 101.91 198.42 101.899C198.804 101.888 199.182 101.826 199.548 101.72L198.87 100.192C198.36 100.271 197.916 100.304 197.538 100.299C197.16 100.299 196.806 100.209 196.482 100.047C196.158 99.8846 195.9 99.5992 195.72 99.1907C195.498 98.6871 195.498 98.1723 195.732 97.6574C195.966 97.1426 196.44 96.7005 197.148 96.3312L196.698 95.3127L197.682 94.9322L198.126 95.9282C198.96 95.6764 199.704 95.6093 200.364 95.7156L200.376 97.0307C199.77 96.9579 199.2 96.9915 198.66 97.137L199.35 98.6927C199.854 98.6143 200.286 98.5752 200.664 98.5752C201.036 98.5752 201.384 98.6591 201.714 98.827C202.038 98.9893 202.29 99.2747 202.47 99.6776C202.692 100.176 202.686 100.685 202.452 101.189H202.458Z" fill="white"/>
</g>
<path d="M227.976 102.93H177.18V129.276H227.976V102.93Z" fill="#0F3970"/>
<path opacity="0.8" d="M225.697 125.133V107.075C224.503 107.075 223.531 106.168 223.531 105.055H181.627C181.627 106.168 180.655 107.075 179.461 107.075V125.133C180.655 125.133 181.627 126.04 181.627 127.153H223.531C223.531 126.04 224.503 125.133 225.697 125.133Z" fill="white"/>
<path d="M201.344 114.602C201.344 114.77 201.41 114.905 201.548 115.011C201.68 115.117 201.878 115.207 202.13 115.28V113.875C201.86 113.937 201.662 114.026 201.536 114.155C201.41 114.284 201.344 114.435 201.344 114.608V114.602Z" fill="#263238"/>
<path d="M203.195 116.982V118.348C203.453 118.292 203.639 118.208 203.771 118.09C203.897 117.973 203.963 117.827 203.963 117.665C203.963 117.503 203.897 117.363 203.765 117.256C203.633 117.15 203.447 117.061 203.195 116.977V116.982Z" fill="#263238"/>
<path d="M202.576 108.719C198.202 108.719 194.656 112.026 194.656 116.106C194.656 120.185 198.202 123.492 202.576 123.492C206.95 123.492 210.496 120.185 210.496 116.106C210.496 112.026 206.95 108.719 202.576 108.719ZM205.03 118.937C204.604 119.323 203.992 119.564 203.194 119.653V120.761H202.132V119.681C201.61 119.653 201.106 119.569 200.632 119.424C200.158 119.278 199.774 119.099 199.486 118.887L200.068 117.678C200.338 117.863 200.65 118.019 201.016 118.142C201.376 118.266 201.748 118.35 202.132 118.383V116.727C201.628 116.615 201.202 116.492 200.86 116.352C200.512 116.212 200.224 116.01 199.99 115.742C199.756 115.473 199.642 115.121 199.642 114.679C199.642 114.13 199.858 113.66 200.284 113.268C200.71 112.877 201.328 112.636 202.138 112.552V111.45H203.2V112.53C204.07 112.597 204.79 112.798 205.354 113.134L204.82 114.354C204.286 114.069 203.746 113.895 203.194 113.839V115.524C203.692 115.63 204.112 115.747 204.454 115.887C204.796 116.022 205.084 116.223 205.318 116.492C205.552 116.76 205.666 117.113 205.666 117.549C205.666 118.092 205.456 118.557 205.03 118.943V118.937Z" fill="#263238"/>
<path d="M166.245 105.341C165.873 105.347 165.579 105.638 165.585 105.985L165.609 106.936C158.973 101.799 149.157 101.984 142.755 107.507C142.479 107.747 142.479 108.156 142.743 108.408C143.001 108.648 143.415 108.648 143.685 108.419C149.583 103.349 158.613 103.176 164.733 107.899L163.605 107.927C163.233 107.932 162.939 108.223 162.945 108.57C162.957 108.917 163.263 109.191 163.635 109.186L167.007 109.107L166.923 105.962C166.911 105.615 166.605 105.341 166.233 105.347L166.245 105.341Z" fill="#B5E1F1"/>
<path d="M131.002 168.533H87.6696C82.7976 168.533 78.8436 164.845 78.8436 160.301V63.7083C78.8436 59.1643 82.7976 55.4766 87.6696 55.4766H131.002C135.874 55.4766 139.828 59.1643 139.828 63.7083V160.301C139.828 164.845 135.874 168.533 131.002 168.533Z" fill="#B5E1F1"/>
<path d="M128.752 168.533H85.4197C80.5477 168.533 76.5938 164.845 76.5938 160.301V63.7083C76.5938 59.1643 80.5477 55.4766 85.4197 55.4766H128.752C133.624 55.4766 137.578 59.1643 137.578 63.7083V160.301C137.578 164.845 133.624 168.533 128.752 168.533Z" fill="#263238"/>
<path d="M128.753 57.365H117.491C116.753 57.365 116.129 57.8742 116.039 58.5569L115.991 58.8871C115.763 60.5547 114.245 61.8026 112.439 61.8026H101.729C99.9292 61.8026 98.4052 60.5547 98.1772 58.8871L98.1352 58.5569C98.0392 57.8742 97.4212 57.365 96.6832 57.365H85.4212C81.6652 57.365 78.6172 60.2078 78.6172 63.7109V160.304C78.6172 163.807 81.6652 166.65 85.4212 166.65H128.753C132.509 166.65 135.557 163.807 135.557 160.304V63.7053C135.557 60.2022 132.509 57.3594 128.753 57.3594V57.365Z" fill="#B5E1F1"/>
<path opacity="0.8" d="M128.753 57.365H117.491C116.753 57.365 116.129 57.8742 116.039 58.5569L115.991 58.8871C115.763 60.5547 114.245 61.8026 112.439 61.8026H101.729C99.9292 61.8026 98.4052 60.5547 98.1772 58.8871L98.1352 58.5569C98.0392 57.8742 97.4212 57.365 96.6832 57.365H85.4212C81.6652 57.365 78.6172 60.2078 78.6172 63.7109V160.304C78.6172 163.807 81.6652 166.65 85.4212 166.65H128.753C132.509 166.65 135.557 163.807 135.557 160.304V63.7053C135.557 60.2022 132.509 57.3594 128.753 57.3594V57.365Z" fill="white"/>
<g opacity="0.7">
<path d="M104.466 58.4409C104.466 58.8829 104.082 59.2411 103.608 59.2411C103.134 59.2411 102.75 58.8829 102.75 58.4409C102.75 57.9988 103.134 57.6406 103.608 57.6406C104.082 57.6406 104.466 57.9988 104.466 58.4409Z" fill="black"/>
<path d="M110.568 57.6328H107.616C107.142 57.6328 106.758 57.991 106.758 58.433C106.758 58.8751 107.142 59.2333 107.616 59.2333H110.568C111.042 59.2333 111.426 58.8751 111.426 58.433C111.426 57.991 111.042 57.6328 110.568 57.6328Z" fill="black"/>
</g>
<path d="M84.2479 60.9375H83.3359V61.7872H84.2479V60.9375Z" fill="#B5E1F1"/>
<path d="M85.1562 60.9365V61.7871H86.0683V60.9365V60.0859H85.1562V60.9365Z" fill="#B5E1F1"/>
<path d="M86.9766 59.2344V60.085V60.9356V61.7862H87.8886V60.9356V60.085V59.2344H86.9766Z" fill="#B5E1F1"/>
<path d="M126.163 59.2969V59.918H125.719V61.166H126.163V61.7871H130.171V59.2969H126.163ZM127.945 61.166H126.607V59.918H127.945V61.166Z" fill="#B5E1F1"/>
<path d="M112.009 79.0015H110.659V75.9629C110.659 74.0714 109.009 72.5325 106.981 72.5325C104.953 72.5325 103.303 74.0714 103.303 75.9629V79.0015H101.953V75.9629C101.953 73.3775 104.209 71.2734 106.981 71.2734C109.753 71.2734 112.009 73.3775 112.009 75.9629V79.0015Z" fill="#263238"/>
<path d="M100.602 77.8516V87.6446H113.352V77.8516H100.602ZM107.652 82.7145V84.2926C107.652 84.6395 107.352 84.9193 106.98 84.9193C106.608 84.9193 106.308 84.6395 106.308 84.2926V82.7145C105.9 82.4683 105.654 82.0094 105.756 81.5058C105.852 81.0469 106.254 80.6776 106.746 80.5936C107.538 80.4593 108.222 81.0245 108.222 81.7352C108.222 82.1437 107.994 82.5075 107.646 82.7089L107.652 82.7145Z" fill="#263238"/>
<path d="M97.6512 108.109H115.867C117.175 108.109 118.237 109.1 118.237 110.32V120.174C118.237 121.394 117.175 122.385 115.867 122.385H97.6512C96.3432 122.385 95.2812 121.394 95.2812 120.174V110.32C95.2812 109.1 96.3432 108.109 97.6512 108.109Z" fill="#0F3970"/>
<path d="M118.239 110.555H95.2891V114.343H118.239V110.555Z" fill="#234E86"/>
<g opacity="0.6">
<path d="M107.889 120.64H98.4391C97.9411 120.64 97.5391 120.265 97.5391 119.8C97.5391 119.336 97.9411 118.961 98.4391 118.961H107.889C108.387 118.961 108.789 119.336 108.789 119.8C108.789 120.265 108.387 120.64 107.889 120.64Z" fill="white"/>
<path d="M114.816 117.703H114.006C113.36 117.703 112.836 118.192 112.836 118.794V119.55C112.836 120.152 113.36 120.641 114.006 120.641H114.816C115.462 120.641 115.986 120.152 115.986 119.55V118.794C115.986 118.192 115.462 117.703 114.816 117.703Z" fill="white"/>
</g>
<path opacity="0.1" d="M122.905 149.112V137.724H117.715V126.806H120.769C121.999 126.806 122.995 125.877 122.995 124.73V105.748C122.995 104.601 121.999 103.672 120.769 103.672H93.1933C91.9633 103.672 90.9672 104.601 90.9672 105.748V124.73C90.9672 125.877 91.9633 126.806 93.1933 126.806H96.2473V135.519H91.0572V143.023C90.8892 143.129 90.7812 143.309 90.7812 143.516C90.7812 143.846 91.0692 144.109 91.4172 144.109C91.7652 144.109 92.0532 143.84 92.0532 143.516C92.0532 143.314 91.9453 143.129 91.7773 143.023V136.19H96.9672V131.26H101.437V152.57C101.269 152.676 101.161 152.855 101.161 153.062C101.161 153.393 101.449 153.656 101.797 153.656C102.145 153.656 102.433 153.387 102.433 153.062C102.433 152.861 102.325 152.676 102.157 152.57V130.589H96.9672V126.806H106.621V162.01C106.453 162.117 106.345 162.296 106.345 162.503C106.345 162.833 106.633 163.096 106.981 163.096C107.329 163.096 107.617 162.827 107.617 162.503C107.617 162.301 107.509 162.117 107.341 162.01V142.799H111.811V153.409C111.643 153.516 111.535 153.695 111.535 153.902C111.535 154.232 111.823 154.495 112.171 154.495C112.519 154.495 112.807 154.226 112.807 153.902C112.807 153.7 112.699 153.516 112.531 153.409V142.128H107.341V126.806H116.995V130.589H111.805V134.926C111.637 135.032 111.529 135.211 111.529 135.418C111.529 135.748 111.817 136.011 112.165 136.011C112.513 136.011 112.801 135.743 112.801 135.418C112.801 135.217 112.693 135.032 112.525 134.926V131.26H116.995V143.958C116.827 144.064 116.719 144.243 116.719 144.45C116.719 144.78 117.007 145.043 117.355 145.043C117.703 145.043 117.991 144.775 117.991 144.45C117.991 144.249 117.883 144.064 117.715 143.958V138.395H122.185V149.112C122.017 149.218 121.909 149.397 121.909 149.604C121.909 149.934 122.197 150.197 122.545 150.197C122.893 150.197 123.181 149.929 123.181 149.604C123.181 149.403 123.073 149.218 122.905 149.112ZM91.8672 124.735V105.754C91.8672 105.071 92.4613 104.517 93.1933 104.517H120.769C121.501 104.517 122.095 105.071 122.095 105.754V124.735C122.095 125.418 121.501 125.972 120.769 125.972H93.1933C92.4613 125.972 91.8672 125.418 91.8672 124.735Z" fill="#263238"/>
<path d="M84.0784 97.3706C83.8324 97.2978 83.6344 97.2083 83.4844 97.0908L83.7064 96.6263C83.8504 96.7326 84.0244 96.8166 84.2284 96.8837C84.4324 96.9509 84.6424 96.9845 84.8524 96.9845C85.1104 96.9845 85.3024 96.9453 85.4284 96.8669C85.5544 96.7886 85.6204 96.6879 85.6204 96.5648C85.6204 96.4752 85.5844 96.3969 85.5124 96.3353C85.4404 96.2738 85.3504 96.229 85.2424 96.1954C85.1344 96.1618 84.9844 96.1227 84.7984 96.0779C84.5344 96.0219 84.3184 95.9604 84.1564 95.9044C83.9944 95.8485 83.8504 95.7533 83.7364 95.6302C83.6164 95.5071 83.5624 95.3392 83.5624 95.1266C83.5624 94.9475 83.6164 94.7852 83.7184 94.6397C83.8204 94.4942 83.9764 94.3767 84.1864 94.2928C84.3964 94.2088 84.6544 94.1641 84.9544 94.1641C85.1644 94.1641 85.3744 94.1864 85.5784 94.2368C85.7824 94.2872 85.9624 94.3543 86.1064 94.4495L85.9024 94.9139C85.7524 94.83 85.5904 94.7684 85.4284 94.7237C85.2664 94.6789 85.1044 94.6565 84.9484 94.6565C84.6964 94.6565 84.5044 94.6957 84.3844 94.774C84.2584 94.8524 84.1984 94.9587 84.1984 95.093C84.1984 95.1825 84.2344 95.2609 84.3064 95.3168C84.3784 95.3728 84.4684 95.4232 84.5764 95.4567C84.6844 95.4903 84.8344 95.5295 85.0204 95.5743C85.2784 95.6302 85.4884 95.6862 85.6564 95.7477C85.8184 95.8093 85.9624 95.8988 86.0824 96.0219C86.2024 96.1451 86.2564 96.3129 86.2564 96.52C86.2564 96.6991 86.2024 96.8613 86.1004 97.0068C85.9984 97.1523 85.8364 97.2643 85.6264 97.3538C85.4164 97.4377 85.1584 97.4825 84.8524 97.4825C84.5824 97.4825 84.3244 97.4489 84.0784 97.3762V97.3706Z" fill="#263238"/>
<path d="M89.4886 96.9284V97.432H86.8906V94.2031H89.4226V94.7068H87.5386V95.5462H89.2126V96.0386H87.5386V96.9284H89.4946H89.4886Z" fill="#263238"/>
<path d="M90.8435 97.2676C90.5615 97.1221 90.3395 96.9263 90.1775 96.6745C90.0155 96.4226 89.9375 96.1372 89.9375 95.8183C89.9375 95.4993 90.0155 95.2139 90.1775 94.9621C90.3395 94.7103 90.5615 94.5144 90.8435 94.3689C91.1255 94.2234 91.4435 94.1562 91.7915 94.1562C92.0735 94.1562 92.3315 94.201 92.5715 94.2962C92.8055 94.3913 93.0035 94.52 93.1655 94.6991L92.7515 95.0628C92.4995 94.811 92.1935 94.6823 91.8275 94.6823C91.5875 94.6823 91.3775 94.7326 91.1915 94.8278C91.0055 94.9229 90.8555 95.0572 90.7535 95.2307C90.6455 95.4042 90.5975 95.6 90.5975 95.8183C90.5975 96.0365 90.6515 96.2324 90.7535 96.4059C90.8615 96.5793 91.0055 96.7136 91.1915 96.8088C91.3775 96.9039 91.5935 96.9543 91.8275 96.9543C92.1935 96.9543 92.4995 96.8256 92.7515 96.5681L93.1655 96.9375C93.0035 97.111 92.8055 97.2453 92.5715 97.3404C92.3375 97.4299 92.0735 97.4803 91.7915 97.4803C91.4435 97.4803 91.1255 97.4075 90.8435 97.2676Z" fill="#263238"/>
<path d="M94.1364 97.1075C93.8664 96.8556 93.7344 96.4975 93.7344 96.0274V94.2031H94.3764V96.005C94.3764 96.6374 94.6704 96.9564 95.2584 96.9564C95.8464 96.9564 96.1344 96.6374 96.1344 96.005V94.2031H96.7704V96.0274C96.7704 96.4975 96.6384 96.8556 96.3744 97.1075C96.1104 97.3593 95.7384 97.4824 95.2584 97.4824C94.7784 97.4824 94.4064 97.3593 94.1424 97.1075H94.1364Z" fill="#263238"/>
<path d="M99.9417 97.4376L99.2337 96.4919C99.2337 96.4919 99.1617 96.4919 99.1017 96.4919H98.3217V97.432H97.6797V94.2031H99.1077C99.4077 94.2031 99.6717 94.2479 99.8937 94.343C100.116 94.4382 100.29 94.5669 100.404 94.7403C100.524 94.9138 100.584 95.1153 100.584 95.3559C100.584 95.5965 100.518 95.8092 100.392 95.9827C100.266 96.1561 100.08 96.2904 99.8457 96.3744L100.644 97.4376H99.9537H99.9417ZM99.7077 94.8802C99.5637 94.7683 99.3477 94.7124 99.0717 94.7124H98.3217V95.9994H99.0717C99.3537 95.9994 99.5637 95.9435 99.7077 95.8316C99.8517 95.7196 99.9237 95.5574 99.9237 95.3559C99.9237 95.1544 99.8517 94.9922 99.7077 94.8802Z" fill="#263238"/>
<path d="M103.895 96.9284V97.432H101.297V94.2031H103.829V94.7068H101.945V95.5462H103.619V96.0386H101.945V96.9284H103.901H103.895Z" fill="#263238"/>
<path d="M108.177 94.3374C108.399 94.4326 108.573 94.5613 108.687 94.7347C108.807 94.9082 108.867 95.1097 108.867 95.3503C108.867 95.5909 108.807 95.7868 108.687 95.9603C108.567 96.1338 108.399 96.2681 108.177 96.3576C107.955 96.4527 107.691 96.4975 107.391 96.4975H106.611V97.432H105.969V94.2031H107.397C107.697 94.2031 107.961 94.2479 108.183 94.343L108.177 94.3374ZM108.003 95.826C108.147 95.714 108.219 95.5574 108.219 95.3503C108.219 95.1433 108.147 94.9866 108.003 94.8746C107.859 94.7627 107.643 94.7068 107.367 94.7068H106.617V95.9883H107.367C107.649 95.9883 107.859 95.9323 108.003 95.8204V95.826Z" fill="#263238"/>
<path d="M111.594 96.6822H109.86L109.518 97.432H108.852L110.412 94.2031H111.048L112.614 97.432H111.942L111.594 96.6822ZM111.378 96.2121L110.724 94.8019L110.076 96.2121H111.378Z" fill="#263238"/>
<path d="M114.332 96.2904V97.432H113.69V96.3016L112.328 94.2031H113.018L114.032 95.7756L115.058 94.2031H115.694L114.338 96.296L114.332 96.2904Z" fill="#263238"/>
<path d="M119.248 97.432V95.2888L118.103 97.0627H117.814L116.675 95.3167V97.432H116.062V94.2031H116.591L117.964 96.3464L119.314 94.2031H119.843V97.432H119.237H119.248Z" fill="#263238"/>
<path d="M123.395 96.9284V97.432H120.797V94.2031H123.329V94.7068H121.445V95.5462H123.119V96.0386H121.445V96.9284H123.401H123.395Z" fill="#263238"/>
<path d="M127.189 94.2031V97.432H126.661L124.753 95.244V97.432H124.117V94.2031H124.645L126.553 96.3912V94.2031H127.189Z" fill="#263238"/>
<path d="M128.818 94.7124H127.672V94.2031H130.612V94.7124H129.466V97.4376H128.824V94.7124H128.818Z" fill="#263238"/>
<path d="M118.809 43.5577C118.311 43.5577 117.909 43.1828 117.909 42.7183C117.909 41.1235 113.337 37.3741 107.085 37.3741C100.833 37.3741 96.2609 41.213 96.2609 42.7183C96.2609 43.1828 95.8589 43.5577 95.3609 43.5577C94.8629 43.5577 94.4609 43.1828 94.4609 42.7183C94.4609 40.0098 100.239 35.6953 107.085 35.6953C113.931 35.6953 119.709 39.9483 119.709 42.7183C119.709 43.1828 119.307 43.5577 118.809 43.5577Z" fill="#B5E1F1"/>
<path d="M115.493 47.7984C114.995 47.7984 114.593 47.4234 114.593 46.959C114.593 45.9181 111.347 43.3663 107.087 43.3663C102.827 43.3663 99.5813 46.1196 99.5813 46.959C99.5813 47.4234 99.1793 47.7984 98.6813 47.7984C98.1833 47.7984 97.7812 47.4234 97.7812 46.959C97.7812 44.922 102.041 41.6875 107.087 41.6875C112.133 41.6875 116.393 44.6366 116.393 46.959C116.393 47.4234 115.991 47.7984 115.493 47.7984Z" fill="#B5E1F1"/>
<path d="M101.994 52.0558C101.496 52.0558 101.094 51.6641 101.094 51.1996C101.094 49.6607 103.998 47.6797 107.082 47.6797C110.166 47.6797 113.07 49.6159 113.07 51.1996C113.07 51.6641 112.668 52.039 112.17 52.039C111.672 52.039 111.27 51.6641 111.27 51.1996C111.204 50.7351 109.464 49.3585 107.082 49.3585C104.7 49.3585 103.002 50.7799 102.894 51.2332C102.894 51.6976 102.492 52.0558 101.994 52.0558Z" fill="#B5E1F1"/>
<path d="M63.7114 114.648C63.7114 114.648 58.7674 134.251 58.4674 158.768C58.1674 183.284 61.0294 196.082 61.0294 196.082H66.3934C66.3934 196.082 68.3014 175.477 67.9354 164.772C67.8994 163.782 67.8514 162.886 67.7734 162.114C67.5094 159.433 67.6294 156.742 68.1814 154.1L70.8454 141.274C71.2654 139.26 71.9194 137.296 72.7774 135.41C72.8554 135.242 72.9334 135.063 73.0114 134.878C74.7214 130.933 77.1574 123.35 75.5494 114.654H63.7114V114.648Z" fill="#0F3970"/>
<path opacity="0.1" d="M73.0114 134.874C73.9774 132.647 75.1774 129.255 75.7414 125.159C75.1654 122.848 74.3614 117.582 73.2694 119.826C71.2354 124.001 71.3914 135.092 71.6014 138.422C71.9314 137.398 72.3214 136.39 72.7714 135.4C72.8494 135.232 72.9274 135.053 73.0054 134.868L73.0114 134.874Z" fill="black"/>
<path d="M62.4694 196.358L66.4654 196.375C66.6394 196.375 66.7894 196.487 66.8254 196.649L67.6534 200.152C67.7314 200.465 67.5214 200.773 67.1854 200.84C67.1434 200.852 67.1014 200.852 67.0534 200.857C65.3914 200.829 63.9094 200.74 61.8394 200.734C59.3914 200.734 60.0154 201.003 57.1354 201.036C55.4014 201.053 55.0894 199.217 55.8274 199.128C59.1934 198.742 60.1654 197.785 61.4614 196.666C61.7434 196.453 62.1034 196.341 62.4634 196.352L62.4694 196.358Z" fill="#263238"/>
<path d="M60.1016 194.773L60.7316 196.771H67.0316L67.2536 194.773H60.1016Z" fill="#B5E1F1"/>
<path opacity="0.5" d="M60.1016 194.773L60.7316 196.771H67.0316L67.2536 194.773H60.1016Z" fill="white"/>
<path d="M72.2891 114.648C72.2891 114.648 73.0691 149.764 82.8731 196.121L88.3811 196.009C88.3811 196.009 87.3671 169.965 85.8251 159.299C85.7651 158.896 85.7051 158.516 85.6451 158.163C85.1951 155.499 84.9971 152.808 85.1111 150.11L85.1231 149.875L85.8851 131.918C85.8851 131.918 86.1191 124.117 84.2111 114.648H72.2891Z" fill="#0F3970"/>
<path d="M84.1725 196.358L88.1685 196.375C88.3425 196.375 88.4925 196.487 88.5285 196.649L89.3565 200.152C89.4345 200.465 89.2245 200.773 88.8885 200.84C88.8465 200.852 88.8045 200.852 88.7565 200.857C87.0945 200.829 85.6125 200.74 83.5425 200.734C81.0945 200.734 81.7185 201.003 78.8385 201.036C77.1045 201.053 76.7925 199.217 77.5305 199.128C80.8965 198.742 81.8685 197.785 83.1645 196.666C83.4465 196.453 83.8065 196.341 84.1665 196.352L84.1725 196.358Z" fill="#263238"/>
<path d="M60.3484 88.5513H57.8824C57.3664 88.5513 56.9044 88.1596 56.8624 87.6784L56.2384 81.0527C56.1904 80.5714 56.5744 80.1797 57.0964 80.1797H59.5624C60.0784 80.1797 60.5404 80.5714 60.5824 81.0527L61.2064 87.6784C61.2544 88.1596 60.8704 88.5513 60.3484 88.5513Z" fill="#B5E1F1"/>
<path d="M60.0516 88.5513H57.5856C57.0696 88.5513 56.6076 88.1596 56.5656 87.6784L55.9416 81.0527C55.8936 80.5714 56.2776 80.1797 56.7996 80.1797H59.2656C59.7816 80.1797 60.2436 80.5714 60.2856 81.0527L60.9096 87.6784C60.9576 88.1596 60.5736 88.5513 60.0516 88.5513Z" fill="#263238"/>
<path opacity="0.3" d="M57.5096 81.1027C57.5336 81.3824 57.3116 81.6117 57.0116 81.6117C56.7116 81.6117 56.4477 81.3824 56.4237 81.1027C56.3997 80.8231 56.6217 80.5938 56.9217 80.5938C57.2217 80.5938 57.4856 80.8231 57.5096 81.1027Z" fill="white"/>
<path opacity="0.3" d="M57.2135 81.1044C57.2255 81.2275 57.1235 81.3339 56.9915 81.3339C56.8595 81.3339 56.7395 81.2331 56.7275 81.1044C56.7155 80.9813 56.8175 80.875 56.9495 80.875C57.0815 80.875 57.2015 80.9757 57.2135 81.1044Z" fill="black"/>
<path d="M65.6475 86.2653C65.5875 85.9575 65.1795 85.8456 64.9515 86.075C63.9915 87.0487 61.9155 89.399 60.0735 93.1708C57.5715 98.2855 50.0595 100.619 52.3275 103.842C54.5895 107.066 63.7695 97.9498 65.4975 95.4483C66.9015 93.4226 66.0255 88.1735 65.6475 86.2653Z" fill="#0F3970"/>
<path opacity="0.6" d="M57.2422 103.131C58.6102 100.148 58.1002 97.3558 57.7942 96.2422C56.6302 97.4229 55.3222 98.4358 54.2362 99.3704L52.5862 102.353C52.5862 102.353 52.5742 103.243 52.7122 104.217C53.6962 104.922 55.3942 104.317 57.2482 103.131H57.2422Z" fill="#072B59"/>
<path opacity="0.6" d="M65.9829 88.2321L64.6869 87.8516C64.6869 87.8516 62.7429 91.6121 61.7109 99.5529C63.4569 97.9188 64.9089 96.3016 65.4969 95.4454C66.5469 93.9233 66.3189 90.5992 65.9829 88.2265V88.2321Z" fill="#072B59"/>
<path d="M65.1 86.4389C64.332 88.4254 63.444 94.1334 63.462 107.234C63.462 110.048 63 116.741 63 116.741H84.99L88.104 86.5844C88.158 86.0303 87.696 85.5547 87.102 85.5547H66.45C65.844 85.5547 65.304 85.9072 65.1 86.4389Z" fill="#B5E1F1"/>
<path d="M75.8691 84.7346C75.2091 84.8074 74.5431 84.8242 73.8831 84.7738C73.6911 84.757 73.4751 84.7458 73.2471 84.7458C71.4591 84.729 68.7591 85.2606 69.2451 88.719C69.2451 88.719 70.1151 87.8012 71.2371 88.5007C71.2371 88.5007 72.1731 91.4722 72.8691 92.3452C72.8691 92.3452 76.6491 90.0117 77.7831 89.1331C78.9171 88.2545 80.5551 89.7598 80.5551 89.7598C80.5551 89.7598 84.1371 84.2813 76.8651 84.6507C76.5531 84.6675 76.2231 84.6954 75.8691 84.729V84.7346Z" fill="#0F3970"/>
<path d="M75.4656 85.1631C73.4976 85.3701 69.2436 83.9767 72.9096 91.9791C72.9096 91.9791 86.9016 83.9543 75.4656 85.1631Z" fill="#EBB376"/>
<path opacity="0.1" d="M86.6861 89.1406L85.4381 90.1367C85.4381 90.1367 84.3701 96.0629 86.5121 101.984L87.6821 90.6627L86.6921 89.1406H86.6861Z" fill="black"/>
<path opacity="0.1" d="M86.4183 86.1953C86.4183 86.1953 84.2643 87.4992 84.4743 92.7259C84.4743 92.7259 82.3143 87.8349 86.4183 86.1953Z" fill="black"/>
<path opacity="0.1" d="M66.0882 86.3047C66.0882 86.3047 64.0002 90.3338 64.6602 97.452L66.0882 86.3047Z" fill="black"/>
<path d="M77.7457 77.1306C77.7457 77.1306 77.8297 81.7977 79.6177 85.9555C79.6177 85.9555 75.8017 88.8655 73.0597 86.5151C73.0597 86.5151 74.0797 84.5957 73.1377 82.2789C72.2017 79.9622 77.7457 77.125 77.7457 77.125V77.1306Z" fill="#EBB376"/>
<path opacity="0.1" d="M77.7341 79.1406H76.1861L73.0601 81.5525C73.0301 81.7987 73.0481 82.0394 73.1441 82.28C73.5161 83.1921 73.5761 84.0427 73.5221 84.7367C77.9621 84.2218 77.7401 79.1406 77.7401 79.1406H77.7341Z" fill="black"/>
<path d="M67.2896 71.2422C65.1416 72.5349 65.7776 75.7918 68.0156 77.1292C68.6516 73.4023 67.2896 71.2422 67.2896 71.2422Z" fill="#263238"/>
<path d="M77.1281 73.3793C77.9321 76.8097 78.5921 78.7683 77.3201 81.0347C76.0961 83.2787 73.1501 84.1685 70.7441 83.0269C69.8561 82.6072 69.1301 81.9412 68.6621 81.1298C66.9701 78.343 65.9321 73.2058 69.0161 70.8163C71.0681 69.1375 74.1941 69.3278 75.9941 71.2416C76.5641 71.8516 76.9541 72.5847 77.1281 73.3793Z" fill="#EBB376"/>
<path d="M72.0017 75.9522C72.0857 76.2262 72.0017 76.4891 71.8037 76.5338C71.6117 76.5786 71.3957 76.4164 71.3057 76.1423C71.2217 75.8683 71.3057 75.5998 71.5097 75.5606C71.7137 75.5215 71.9177 75.6781 72.0017 75.9522Z" fill="#263238"/>
<path d="M68.723 76.9379C68.807 77.212 68.723 77.4749 68.525 77.5196C68.327 77.5644 68.117 77.4022 68.027 77.1281C67.937 76.8541 68.027 76.5912 68.231 76.5464C68.435 76.5017 68.639 76.6639 68.723 76.9435V76.9379Z" fill="#263238"/>
<path d="M69.8144 76.7578C69.7244 77.7035 69.4964 78.6269 69.1484 79.5166C69.7964 79.8132 70.6124 79.3544 70.6124 79.3544L69.8144 76.7578Z" fill="#D58745"/>
<path d="M72.7113 74.6436C72.7113 74.6436 72.7653 74.6268 72.7893 74.61C72.8493 74.5371 72.8373 74.4362 72.7593 74.3802C72.7593 74.3802 72.7593 74.3802 72.7533 74.3802C72.2973 74.0439 71.6973 73.943 71.1453 74.1111C71.0553 74.1448 71.0073 74.24 71.0433 74.3241C71.0793 74.4082 71.1813 74.453 71.2713 74.4194C71.6973 74.2961 72.1653 74.369 72.5253 74.6268C72.5733 74.666 72.6453 74.6772 72.7053 74.6492L72.7113 74.6436Z" fill="#263238"/>
<path d="M66.993 76.3007C67.047 76.2783 67.083 76.2336 67.095 76.1776C67.161 75.7467 67.437 75.3718 67.839 75.1591C67.923 75.1032 67.941 75.0025 67.887 74.9241C67.845 74.8626 67.761 74.8402 67.689 74.857C67.179 75.1144 66.831 75.5844 66.753 76.1217C66.735 76.2112 66.801 76.2951 66.897 76.3119C66.933 76.3175 66.969 76.3119 66.999 76.3007H66.993Z" fill="#263238"/>
<path d="M72.0753 80.5605C71.9073 80.6053 71.7393 80.6389 71.5653 80.6557C71.5113 80.6669 71.4573 80.6277 71.4453 80.5773C71.4453 80.5214 71.4813 80.4766 71.5413 80.471C72.4233 80.3815 73.2093 79.9114 73.6593 79.1951C73.6833 79.1448 73.7433 79.128 73.7973 79.1504C73.8513 79.1727 73.8693 79.2287 73.8453 79.2791C73.4673 79.9114 72.8253 80.3759 72.0753 80.5605Z" fill="#263238"/>
<path d="M77.7381 69.2087C77.7381 69.2087 81.8781 70.3727 78.0321 80.0818L77.0961 76.3045C77.0961 76.3045 74.9481 76.8753 74.4141 71.7885L77.7381 69.2031V69.2087Z" fill="#263238"/>
<path d="M79.3451 75.8149C79.3271 76.5983 78.9971 77.3482 78.4151 77.9134C77.6471 78.6465 76.7591 78.0925 76.5611 77.1299C76.3811 76.257 76.5671 74.8244 77.5451 74.4606C78.5231 74.0969 79.3571 74.8468 79.3451 75.8149Z" fill="#EBB376"/>
<path d="M74.1592 72.7547C71.8192 74.4615 66.2092 74.0921 64.5952 72.0048C62.8372 69.7216 65.4772 67.791 67.8652 67.0971C68.5312 66.9068 69.1552 67.3377 69.3232 67.9645C69.3532 68.0764 69.4132 68.1659 69.4972 68.2219C69.4972 68.2219 70.1752 67.6455 71.1352 67.1474C71.9572 66.7166 72.9292 66.9628 73.6252 67.556C73.9012 67.791 74.5792 67.8414 75.9412 67.4105C78.7672 66.5207 79.1452 69.218 77.8672 69.9399C76.8412 70.5163 75.0892 72.0664 74.1472 72.7547H74.1592Z" fill="#263238"/>
<path d="M86.6689 114.648L84.1669 117.984C84.1669 117.984 82.6069 117.631 82.0789 117.648C81.7249 117.665 80.7109 117.984 80.7109 117.984L84.8209 121.761L89.0689 116.26L86.6689 114.648Z" fill="#EBB376"/>
<path d="M87.5288 86.0246C87.8588 85.7671 88.3628 85.8735 88.5428 86.2372C90.0608 89.2703 96.0428 101.615 95.2568 106.568C94.3628 112.236 87.8348 118.823 87.8348 118.823L84.8828 116.489C84.8828 116.489 89.7128 108.907 89.7128 104.984C89.7128 102.399 88.0448 99.4886 87.0248 96.8976C86.0228 94.3626 83.7128 89.0576 87.5228 86.0246H87.5288Z" fill="#0F3970"/>
<path d="M54.4375 96.3796L56.6215 92.6191C56.6215 92.6191 55.4455 91.041 55.2955 90.4255C55.0855 89.5973 55.4875 87.0343 55.4875 87.0343C55.5115 86.6034 55.8715 86.2508 56.3335 86.2061L58.0495 86.0438C58.5715 85.9934 59.0395 86.3516 59.0875 86.8384C59.0875 86.8384 59.7715 90.5766 59.5855 91.8077C59.3455 93.4026 57.0835 97.8066 57.0835 97.8066L54.4435 96.3796H54.4375Z" fill="#EBB376"/>
<path d="M55.1241 94.375L58.4601 95.5054C58.4601 95.5054 56.1981 105.858 52.7961 104.526C49.4001 103.194 55.1181 94.375 55.1181 94.375H55.1241Z" fill="#0F3970"/>
<path d="M81.8516 194.742L82.4816 196.74H88.7816L89.0036 194.742H81.8516Z" fill="#B5E1F1"/>
<path opacity="0.5" d="M81.8516 194.742L82.4816 196.74H88.7816L89.0036 194.742H81.8516Z" fill="white"/>
</svg>
