<svg width="142" height="190" viewBox="0 0 142 190" fill="none" xmlns="http://www.w3.org/2000/svg">
<path d="M141.859 71.1434C141.859 110.096 110.281 141.673 71.3286 141.673C32.3759 141.673 8.1875 110.096 8.1875 71.1433C8.1875 32.1907 15.7113 0 54.6639 0C93.6166 0 141.859 32.1907 141.859 71.1434Z" fill="#FFDFCA"/>
<path fill-rule="evenodd" clip-rule="evenodd" d="M11.6837 142.393C8.71369 143.582 5.75859 144.744 2.82359 146.009C0.338588 147.081 -0.701363 149.758 0.498637 151.98C1.69864 154.201 4.68868 155.131 7.17368 154.058C10.0237 152.829 12.8937 151.703 15.7787 150.545C18.2987 149.535 19.4236 146.889 18.2936 144.636C17.1636 142.388 14.2037 141.383 11.6837 142.393Z" fill="#FFDFCA"/>
<path fill-rule="evenodd" clip-rule="evenodd" d="M31.4166 158.001C27.1366 166.288 23.3264 174.762 19.2464 183.124C18.1414 185.385 19.3016 188.022 21.8316 189.01C24.3616 189.993 27.3065 188.961 28.4115 186.699C32.4665 178.395 36.2414 169.979 40.4964 161.751C41.6514 159.512 40.5566 156.853 38.0516 155.82C35.5466 154.783 32.5716 155.762 31.4166 158.001Z" fill="#FFDFCA"/>
<path fill-rule="evenodd" clip-rule="evenodd" d="M67.7519 162.086C69.1169 169.671 70.7218 177.237 71.9868 184.835C72.3968 187.271 74.9419 188.956 77.6719 188.594C80.4019 188.228 82.2868 185.953 81.8818 183.512C80.6018 175.883 78.9969 168.285 77.6269 160.665C77.1869 158.229 74.622 156.571 71.897 156.964C69.172 157.353 67.3119 159.65 67.7519 162.086Z" fill="#FFDFCA"/>
<mask id="path-5-outside-1_63_15487" maskUnits="userSpaceOnUse" x="69" y="38" width="37" height="78" fill="black">
<rect fill="white" x="69" y="38" width="37" height="78"/>
<path d="M86.435 114V46.8L93.785 54.15H71.735V40.5H103.445V114H86.435Z"/>
</mask>
<path d="M86.435 114H84.435V116H86.435V114ZM86.435 46.8L87.8492 45.3858L84.435 41.9716V46.8H86.435ZM93.785 54.15V56.15H98.6134L95.1992 52.7358L93.785 54.15ZM71.735 54.15H69.735V56.15H71.735V54.15ZM71.735 40.5V38.5H69.735V40.5H71.735ZM103.445 40.5H105.445V38.5H103.445V40.5ZM103.445 114V116H105.445V114H103.445ZM88.435 114V46.8H84.435V114H88.435ZM85.0208 48.2142L92.3708 55.5642L95.1992 52.7358L87.8492 45.3858L85.0208 48.2142ZM93.785 52.15H71.735V56.15H93.785V52.15ZM73.735 54.15V40.5H69.735V54.15H73.735ZM71.735 42.5H103.445V38.5H71.735V42.5ZM101.445 40.5V114H105.445V40.5H101.445ZM103.445 112H86.435V116H103.445V112Z" fill="black" mask="url(#path-5-outside-1_63_15487)"/>
</svg>
