<svg width="142" height="190" viewBox="0 0 142 190" fill="none" xmlns="http://www.w3.org/2000/svg">
<path d="M141.859 71.1434C141.859 110.096 110.281 141.673 71.3286 141.673C32.3759 141.673 8.1875 110.096 8.1875 71.1433C8.1875 32.1907 15.7113 0 54.6639 0C93.6166 0 141.859 32.1907 141.859 71.1434Z" fill="#FFD8DD"/>
<path fill-rule="evenodd" clip-rule="evenodd" d="M11.6837 142.393C8.71369 143.582 5.75859 144.744 2.82359 146.009C0.338588 147.081 -0.701363 149.758 0.498637 151.98C1.69864 154.201 4.68868 155.131 7.17368 154.058C10.0237 152.829 12.8937 151.703 15.7787 150.545C18.2987 149.535 19.4236 146.889 18.2936 144.636C17.1636 142.388 14.2037 141.383 11.6837 142.393Z" fill="#FFD8DD"/>
<path fill-rule="evenodd" clip-rule="evenodd" d="M31.4166 158.001C27.1366 166.288 23.3264 174.762 19.2464 183.124C18.1414 185.385 19.3016 188.022 21.8316 189.01C24.3616 189.993 27.3065 188.961 28.4115 186.699C32.4665 178.395 36.2414 169.979 40.4964 161.751C41.6514 159.512 40.5566 156.853 38.0516 155.82C35.5466 154.783 32.5716 155.762 31.4166 158.001Z" fill="#FFD8DD"/>
<path fill-rule="evenodd" clip-rule="evenodd" d="M67.7519 162.086C69.1169 169.671 70.7218 177.237 71.9868 184.835C72.3968 187.271 74.9419 188.956 77.6719 188.594C80.4019 188.228 82.2868 185.953 81.8818 183.512C80.6018 175.883 78.9969 168.285 77.6269 160.665C77.1869 158.229 74.622 156.571 71.897 156.964C69.172 157.353 67.3119 159.65 67.7519 162.086Z" fill="#FFD8DD"/>
<mask id="path-5-outside-1_63_15498" maskUnits="userSpaceOnUse" x="48" y="37" width="65" height="79" fill="black">
<rect fill="white" x="48" y="37" width="65" height="79"/>
<path d="M54.465 114V102.975L82.815 76.2C85.055 74.17 86.7 72.35 87.75 70.74C88.8 69.13 89.5 67.66 89.85 66.33C90.27 65 90.48 63.775 90.48 62.655C90.48 59.715 89.465 57.475 87.435 55.935C85.475 54.325 82.57 53.52 78.72 53.52C75.64 53.52 72.77 54.115 70.11 55.305C67.52 56.495 65.315 58.35 63.495 60.87L51.105 52.89C53.905 48.69 57.825 45.365 62.865 42.915C67.905 40.465 73.715 39.24 80.295 39.24C85.755 39.24 90.515 40.15 94.575 41.97C98.705 43.72 101.89 46.205 104.13 49.425C106.44 52.645 107.595 56.495 107.595 60.975C107.595 63.355 107.28 65.735 106.65 68.115C106.09 70.425 104.9 72.875 103.08 75.465C101.33 78.055 98.74 80.96 95.31 84.18L71.79 106.335L68.535 100.14H110.01V114H54.465Z"/>
</mask>
<path d="M54.465 114H52.465V116H54.465V114ZM54.465 102.975L53.0918 101.521L52.465 102.113V102.975H54.465ZM82.815 76.2L81.472 74.718L81.4567 74.7318L81.4418 74.746L82.815 76.2ZM87.75 70.74L89.4252 71.8325V71.8325L87.75 70.74ZM89.85 66.33L87.9428 65.7277L87.9282 65.774L87.9159 65.821L89.85 66.33ZM87.435 55.935L86.1655 57.4804L86.1954 57.505L86.2262 57.5284L87.435 55.935ZM70.11 55.305L69.2933 53.4794L69.2841 53.4835L69.275 53.4876L70.11 55.305ZM63.495 60.87L62.412 62.5514L64.0062 63.5782L65.1164 62.041L63.495 60.87ZM51.105 52.89L49.4409 51.7806L48.3138 53.4712L50.022 54.5714L51.105 52.89ZM62.865 42.915L61.9906 41.1163L61.9906 41.1163L62.865 42.915ZM94.575 41.97L93.7569 43.795L93.7757 43.8035L93.7947 43.8115L94.575 41.97ZM104.13 49.425L102.488 50.5671L102.496 50.579L102.505 50.5908L104.13 49.425ZM106.65 68.115L104.717 67.6032L104.711 67.6235L104.706 67.6438L106.65 68.115ZM103.08 75.465L101.444 74.3151L101.433 74.3301L101.423 74.3453L103.08 75.465ZM95.31 84.18L93.9411 82.7218L93.9387 82.7242L95.31 84.18ZM71.79 106.335L70.0195 107.265L71.2444 109.597L73.1613 107.791L71.79 106.335ZM68.535 100.14V98.14H65.2249L66.7645 101.07L68.535 100.14ZM110.01 100.14H112.01V98.14H110.01V100.14ZM110.01 114V116H112.01V114H110.01ZM56.465 114V102.975H52.465V114H56.465ZM55.8382 104.429L84.1882 77.654L81.4418 74.746L53.0918 101.521L55.8382 104.429ZM84.158 77.682C86.4614 75.5945 88.2442 73.6435 89.4252 71.8325L86.0748 69.6475C85.1558 71.0565 83.6486 72.7455 81.472 74.718L84.158 77.682ZM89.4252 71.8325C90.5494 70.1088 91.3627 68.4403 91.7841 66.839L87.9159 65.821C87.6373 66.8797 87.0506 68.1512 86.0748 69.6475L89.4252 71.8325ZM91.7572 66.9323C92.2243 65.4531 92.48 64.0223 92.48 62.655H88.48C88.48 63.5277 88.3157 64.5469 87.9428 65.7277L91.7572 66.9323ZM92.48 62.655C92.48 59.1986 91.2533 56.3213 88.6438 54.3416L86.2262 57.5284C87.6767 58.6287 88.48 60.2314 88.48 62.655H92.48ZM88.7045 54.3895C86.2425 52.3672 82.8036 51.52 78.72 51.52V55.52C82.3364 55.52 84.7075 56.2828 86.1655 57.4804L88.7045 54.3895ZM78.72 51.52C75.3749 51.52 72.2247 52.1679 69.2933 53.4794L70.9267 57.1306C73.3153 56.0621 75.9051 55.52 78.72 55.52V51.52ZM69.275 53.4876C66.3436 54.8345 63.8768 56.9254 61.8736 59.699L65.1164 62.041C66.7532 59.7746 68.6964 58.1555 70.945 57.1224L69.275 53.4876ZM64.578 59.1886L52.188 51.2086L50.022 54.5714L62.412 62.5514L64.578 59.1886ZM52.7691 53.9994C55.3507 50.127 58.9831 47.0258 63.7394 44.7137L61.9906 41.1163C56.6669 43.7042 52.4593 47.2529 49.4409 51.7806L52.7691 53.9994ZM63.7394 44.7137C68.4634 42.4174 73.9655 41.24 80.295 41.24V37.24C73.4645 37.24 67.3466 38.5126 61.9906 41.1163L63.7394 44.7137ZM80.295 41.24C85.5355 41.24 90.0057 42.1135 93.7569 43.795L95.3931 40.145C91.0243 38.1865 85.9745 37.24 80.295 37.24V41.24ZM93.7947 43.8115C97.6284 45.4359 100.493 47.6994 102.488 50.5671L105.772 48.2829C103.287 44.7106 99.7816 42.0041 95.3553 40.1285L93.7947 43.8115ZM102.505 50.5908C104.54 53.4275 105.595 56.8564 105.595 60.975H109.595C109.595 56.1336 108.34 51.8625 105.755 48.2592L102.505 50.5908ZM105.595 60.975C105.595 63.1764 105.304 65.3844 104.717 67.6032L108.583 68.6268C109.256 66.0856 109.595 63.5336 109.595 60.975H105.595ZM104.706 67.6438C104.221 69.6443 103.165 71.866 101.444 74.3151L104.716 76.6149C106.635 73.884 107.959 71.2057 108.594 68.5862L104.706 67.6438ZM101.423 74.3453C99.7865 76.767 97.3113 79.558 93.9411 82.7219L96.6789 85.6381C100.169 82.362 102.874 79.343 104.737 76.5847L101.423 74.3453ZM93.9387 82.7242L70.4187 104.879L73.1613 107.791L96.6813 85.6358L93.9387 82.7242ZM73.5605 105.405L70.3055 99.2097L66.7645 101.07L70.0195 107.265L73.5605 105.405ZM68.535 102.14H110.01V98.14H68.535V102.14ZM108.01 100.14V114H112.01V100.14H108.01ZM110.01 112H54.465V116H110.01V112Z" fill="black" mask="url(#path-5-outside-1_63_15498)"/>
</svg>
