<svg width="312" height="182" viewBox="0 0 312 182" fill="none" xmlns="http://www.w3.org/2000/svg">
<g clip-path="url(#clip0_8_575)">
<path d="M8.51367 181.707V105.327H68.2597V54.9391H239.436V68.2103H302.219L303.252 181.707H8.51367Z" fill="#EAF9FE"/>
<path d="M200.199 11.5586H82.9964C78.9737 11.5586 75.7126 14.8344 75.7126 18.8752V174.39C75.7126 178.431 78.9737 181.707 82.9964 181.707H200.199C204.222 181.707 207.483 178.431 207.483 174.39V18.8752C207.483 14.8344 204.222 11.5586 200.199 11.5586Z" fill="#0F3970"/>
<path d="M199.275 21.6896H83.9205V171.576H199.275V21.6896Z" fill="white"/>
<path d="M150.538 8.88727C150.511 6.52327 149.558 4.26525 147.884 2.60312C146.21 0.940979 143.952 0.00878906 141.598 0.00878906C139.245 0.00878906 136.986 0.940979 135.312 2.60312C133.639 4.26525 132.685 6.52327 132.658 8.88727H124.373V23.1173H158.822V8.88727H150.538ZM141.598 10.315C140.975 10.315 140.365 10.1293 139.847 9.78159C139.329 9.43384 138.925 8.93956 138.687 8.36126C138.448 7.78296 138.386 7.14662 138.508 6.53271C138.629 5.91879 138.929 5.35487 139.37 4.91226C139.81 4.46965 140.372 4.16823 140.983 4.04611C141.594 3.924 142.228 3.98667 142.803 4.22621C143.379 4.46575 143.871 4.87139 144.217 5.39185C144.563 5.9123 144.748 6.52419 144.748 7.15013C144.748 7.9895 144.416 8.79449 143.825 9.38801C143.235 9.98153 142.433 10.315 141.598 10.315Z" fill="#9EA9BD"/>
<path d="M194.563 37.3427H116.483V42.1333H194.563V37.3427Z" fill="#F1F2F5"/>
<path d="M194.563 46.6987H116.483V51.4893H194.563V46.6987Z" fill="#F1F2F5"/>
<path d="M154.535 56.0538H116.483V60.8445H154.535V56.0538Z" fill="#F1F2F5"/>
<path d="M113.231 61.1961H91.2697V36.991H113.231V61.1961ZM91.9698 60.4928H112.53V37.6943H91.9698V60.4928Z" fill="#9EA9BD"/>
<path d="M99.3141 41.6268L104.46 48.818L118.648 35.4132L121.168 38.6812L103.725 55.422L96.2043 44.4705L99.3141 41.6268Z" fill="#00AEEF"/>
<path d="M194.563 68.2102H116.483V73.0008H194.563V68.2102Z" fill="#F1F2F5"/>
<path d="M194.563 77.5653H116.483V82.3559H194.563V77.5653Z" fill="#F1F2F5"/>
<path d="M154.535 86.9214H116.483V91.712H154.535V86.9214Z" fill="#F1F2F5"/>
<path d="M113.231 92.0637H91.2697V67.8586H113.231V92.0637ZM91.9698 91.3604H112.53V68.5619H91.9698V91.3604Z" fill="#9EA9BD"/>
<path d="M99.3141 72.4945L104.46 79.6857L118.648 66.2809L121.168 69.5489L103.725 86.2896L96.2043 75.337L99.3141 72.4945Z" fill="#00AEEF"/>
<path d="M194.563 99.0779H116.483V103.868H194.563V99.0779Z" fill="#F1F2F5"/>
<path d="M194.563 108.433H116.483V113.223H194.563V108.433Z" fill="#F1F2F5"/>
<path d="M154.535 117.788H116.483V122.578H154.535V117.788Z" fill="#F1F2F5"/>
<path d="M113.231 122.931H91.2697V98.7251H113.231V122.931ZM91.9698 122.228H112.53V99.4284H91.9698V122.228Z" fill="#9EA9BD"/>
<path d="M99.3141 103.362L104.46 110.553L118.648 97.1473L121.168 100.416L103.725 117.157L96.2043 106.205L99.3141 103.362Z" fill="#00AEEF"/>
<path d="M194.563 129.944H116.483V134.735H194.563V129.944Z" fill="#F1F2F5"/>
<path d="M194.563 139.301H116.483V144.091H194.563V139.301Z" fill="#F1F2F5"/>
<path d="M154.535 148.656H116.483V153.446H154.535V148.656Z" fill="#F1F2F5"/>
<path d="M113.231 153.798H91.2697V129.593H113.231V153.798ZM91.9698 153.095H112.53V130.296H91.9698V153.095Z" fill="#9EA9BD"/>
<path d="M99.3141 134.23L104.46 141.42L118.648 128.015L121.168 131.284L103.725 148.025L96.2043 137.072L99.3141 134.23Z" fill="#00AEEF"/>
<path d="M265.606 145.118H229.335V181.707H265.606V145.118Z" fill="#FFBD84"/>
<path d="M249.657 145.118H245.284V150.912H249.657V145.118Z" fill="#1D2238"/>
<path d="M291.575 145.118H265.605V181.707H291.575V145.118Z" fill="#FFDBBD"/>
<path d="M280.254 145.118H276.929V150.912H280.254V145.118Z" fill="#1D2238"/>
<path d="M258.615 75.0944H222.344V145.119H258.615V75.0944Z" fill="#97D4EA"/>
<path d="M242.667 75.0944H238.294V86.1818H242.667V75.0944Z" fill="#1D2238"/>
<path d="M284.585 75.0944H258.616V145.119H284.585V75.0944Z" fill="#B5E1F1"/>
<path d="M273.263 75.0944H269.938V86.1818H273.263V75.0944Z" fill="#1D2238"/>
<path d="M208.009 145.118H161.36V181.707H208.009V145.118Z" fill="#97D4EA"/>
<path d="M187.495 145.118H181.873V150.912H187.495V145.118Z" fill="#1D2238"/>
<path d="M238.877 145.118H208.009V181.707H238.877V145.118Z" fill="#B5E1F1"/>
<path d="M227.161 145.118H221.539V150.912H227.161V145.118Z" fill="#1D2238"/>
<path d="M203.365 108.529H167.094V145.118H203.365V108.529Z" fill="#D2D6E1"/>
<path d="M187.417 108.529H183.044V114.323H187.417V108.529Z" fill="#1D2238"/>
<path d="M229.335 108.529H203.366V145.118H229.335V108.529Z" fill="#F1F2F5"/>
<path d="M218.013 108.529H214.688V114.323H218.013V108.529Z" fill="#1D2238"/>
<path d="M312 181.414H0V182H312V181.414Z" fill="#1D2238"/>
<path d="M58.2104 73.7968L57.0062 74.6056L50.5883 64.9716C50.5355 64.8923 50.4988 64.8032 50.4802 64.7096C50.4617 64.616 50.4617 64.5197 50.4802 64.4261C50.4987 64.3325 50.5354 64.2434 50.5882 64.1641C50.641 64.0847 50.7088 64.0166 50.7878 63.9635C50.9474 63.8563 51.1428 63.817 51.3312 63.8544C51.5196 63.8917 51.6855 64.0027 51.7925 64.1628L58.2104 73.7968Z" fill="#1D2238"/>
<path d="M51.8567 76.3344C51.8567 76.3344 52.3526 72.1955 53.383 71.9974C54.4134 71.7994 57.4671 71.8802 58.0751 71.9974C58.683 72.1147 60.3633 73.186 60.7064 74.2585L54.1835 80.6199L51.8567 76.3344Z" fill="#F4AE7C"/>
<path d="M45.8424 41.5682C46.6957 42.7128 47.2769 44.0384 47.5414 45.4434C47.7013 46.3471 47.4341 47.2649 46.6418 47.7197L42.2169 41.5682H45.8424Z" fill="#1D2238"/>
<path d="M39.5436 40.4817C37.7288 40.4819 35.9809 41.1702 34.6494 42.4088C33.3178 43.6475 32.5007 45.3454 32.3614 47.163L32.3031 47.1536L30.7453 56.9189C30.5808 57.9511 30.8311 59.0067 31.4412 59.8536C32.0512 60.7005 32.9711 61.2694 33.9986 61.4352C36.1386 61.7798 37.7805 62.3905 38.4946 58.1661L38.6054 57.4733C38.9149 57.515 39.2267 57.5361 39.539 57.5366C41.4498 57.5366 43.2824 56.7742 44.6336 55.417C45.9849 54.0599 46.7442 52.2192 46.7445 50.2997V47.7198C46.7445 45.8009 45.986 43.9606 44.6357 42.6033C43.2854 41.2461 41.4538 40.4829 39.5436 40.4817Z" fill="#F4AE7C"/>
<path d="M43.9393 46.4889C43.9953 46.6757 44.0409 46.8655 44.0759 47.0574C44.0969 47.1524 44.1086 47.2473 44.1237 47.3423C44.1389 47.4372 44.1541 47.531 44.1634 47.6259C44.1856 47.8158 44.2066 48.0057 44.2159 48.1944L44.2346 48.4792L44.2416 48.7641L43.9218 48.4429C44.0385 48.4429 44.1622 48.4347 44.2824 48.4429C44.3443 48.4429 44.3921 48.4429 44.496 48.4523C44.5868 48.4637 44.6755 48.4877 44.7597 48.5238C44.9247 48.5969 45.0637 48.7187 45.1583 48.873C45.2529 49.0272 45.2986 49.2067 45.2894 49.3877C45.2751 49.5585 45.2115 49.7215 45.1062 49.8565C45.0033 49.9837 44.864 50.0762 44.7072 50.1214C44.6313 50.1428 44.5524 50.1511 44.4738 50.1461C44.4077 50.1405 44.3422 50.13 44.2778 50.1144C44.1611 50.0875 44.0374 50.057 43.9172 50.0195C43.9149 50.0188 43.9129 50.0177 43.9111 50.0162C43.9093 50.0147 43.9078 50.0129 43.9067 50.0108C43.9056 50.0087 43.9049 50.0064 43.9047 50.0041C43.9045 50.0018 43.9048 49.9994 43.9055 49.9972C43.9067 49.9937 43.9088 49.9905 43.9117 49.9883C43.9146 49.986 43.9182 49.9846 43.9218 49.9843H44.2824C44.3419 49.9843 44.3991 49.9843 44.4598 49.9784C44.5172 49.9712 44.5733 49.9562 44.6266 49.9339C44.7329 49.8894 44.8238 49.8143 44.8876 49.718C44.9515 49.6217 44.9856 49.5086 44.9856 49.3929C44.9856 49.2773 44.9515 49.1642 44.8876 49.0679C44.8238 48.9716 44.7329 48.8965 44.6266 48.852C44.5739 48.8308 44.5186 48.8166 44.4621 48.8098C44.4073 48.8098 44.3454 48.8098 44.2859 48.8098H43.8868V48.7617C43.8868 48.0034 43.8868 47.245 43.9032 46.4866C43.9035 46.4818 43.9056 46.4773 43.909 46.4741C43.9125 46.4708 43.9171 46.469 43.9218 46.469C43.9256 46.4691 43.9292 46.4704 43.9321 46.4727C43.9351 46.4751 43.9372 46.4783 43.9382 46.4819L43.9393 46.4889Z" fill="#1D2238"/>
<path d="M45.4306 47.0458C45.7071 47.0458 45.9312 46.8206 45.9312 46.5429C45.9312 46.2652 45.7071 46.04 45.4306 46.04C45.1542 46.04 44.9301 46.2652 44.9301 46.5429C44.9301 46.8206 45.1542 47.0458 45.4306 47.0458Z" fill="#1D2238"/>
<path d="M45.014 51.6254C45.014 51.6254 44.1843 50.4111 41.7677 50.4439L45.014 51.6254Z" fill="white"/>
<path d="M44.1692 44.5163C44.1237 44.7026 44.5111 44.9582 45.0338 45.0848C45.5566 45.2114 46.0175 45.1633 46.063 44.9758C46.1085 44.7882 45.7211 44.5339 45.1972 44.4073C44.6733 44.2807 44.2135 44.3287 44.1692 44.5163Z" fill="#1D2238"/>
<path d="M42.5309 47.279C42.8073 47.279 43.0315 47.0539 43.0315 46.7762C43.0315 46.4985 42.8073 46.2733 42.5309 46.2733C42.2544 46.2733 42.0303 46.4985 42.0303 46.7762C42.0303 47.0539 42.2544 47.279 42.5309 47.279Z" fill="#1D2238"/>
<path d="M41.273 45.2243C41.3208 45.4106 41.7817 45.4517 42.3033 45.3169C42.8249 45.1821 43.2077 44.9207 43.1598 44.7308C43.112 44.5409 42.6511 44.5034 42.1295 44.6382C41.6079 44.773 41.2251 45.0379 41.273 45.2243Z" fill="#1D2238"/>
<path d="M45.5006 51.9653C45.1434 51.9338 44.7898 51.8691 44.4445 51.7719C44.2718 51.7309 44.1061 51.6723 43.9358 51.6219C43.7654 51.5715 43.6044 51.5047 43.4387 51.4461C43.273 51.3875 43.1108 51.3148 42.9498 51.2444C42.7887 51.1741 42.6277 51.1003 42.4713 51.0159C42.149 50.8585 41.8419 50.6713 41.5541 50.4568C41.5514 50.4539 41.5499 50.4501 41.5499 50.4462C41.5499 50.4423 41.5514 50.4385 41.5541 50.4357C41.5568 50.434 41.5598 50.4331 41.5629 50.4331C41.566 50.4331 41.569 50.434 41.5717 50.4357L43.5495 51.1765L45.5087 51.9384C45.5122 51.9399 45.5149 51.9427 45.5164 51.9462C45.5179 51.9496 45.5181 51.9535 45.5169 51.9571C45.5158 51.9601 45.5137 51.9626 45.5109 51.9642C45.5081 51.9657 45.5048 51.9661 45.5017 51.9653H45.5006Z" fill="#1D2238"/>
<path d="M31.3241 47.8898C31.3241 47.8898 37.6008 42.3349 43.6756 42.3361C43.6756 42.3361 46.3303 42.2189 47.3105 44.4764C47.3105 44.4764 46.1436 35.2562 35.9916 36.8117C25.8397 38.3671 29.8935 48.7677 29.8935 48.7677L31.3241 47.8898Z" fill="#0F3970"/>
<path d="M38.4736 43.4718C38.4736 43.4718 37.2379 44.9792 34.6567 47.7197C34.0185 48.3972 32.9122 49.3338 32.9122 49.3338C32.9122 49.3338 33.1795 47.9166 32.7034 46.8816C32.7022 46.8863 35.5903 44.542 38.4736 43.4718Z" fill="#1D2238"/>
<path d="M42.4608 42.1978C42.4608 42.1978 43.2555 43.6419 45.28 43.7415C45.28 43.7415 42.0442 44.8093 40.7828 42.5506L42.4608 42.1978Z" fill="#1D2238"/>
<path d="M31.8444 50.1965L31.3672 53.0272L29.8981 48.7711L32.3614 47.1676L31.8444 50.1965Z" fill="#1D2238"/>
<path d="M31.7768 50.0265C32.5688 50.0265 33.2109 49.2283 33.2109 48.2437C33.2109 47.259 32.5688 46.4608 31.7768 46.4608C30.9847 46.4608 30.3427 47.259 30.3427 48.2437C30.3427 49.2283 30.9847 50.0265 31.7768 50.0265Z" fill="#F4AE7C"/>
<path d="M32.5972 47.756C32.4849 47.6554 32.353 47.5796 32.2098 47.5333C32.1519 47.5138 32.0911 47.5047 32.0301 47.5064C31.9765 47.5054 31.9233 47.5138 31.8725 47.531C31.776 47.5697 31.689 47.6292 31.6178 47.7054C31.5467 47.7815 31.493 47.8724 31.4606 47.9717C31.439 48.0252 31.4222 48.0805 31.4104 48.137C31.4104 48.1663 31.3988 48.1956 31.3953 48.2249V48.2694V48.3011C31.3953 48.3116 31.3953 48.3081 31.3953 48.3128C31.3915 48.3055 31.3873 48.2984 31.3824 48.2917C31.3611 48.2613 31.329 48.2403 31.2926 48.2331C31.2506 48.2331 31.3171 48.2518 31.3766 48.2436C31.505 48.2284 31.6672 48.1932 31.8317 48.1686C32.0044 48.1341 32.1828 48.1414 32.3521 48.1897C32.3565 48.1916 32.3601 48.195 32.362 48.1994C32.364 48.2037 32.3642 48.2087 32.3626 48.2132C32.3617 48.2165 32.3597 48.2194 32.3569 48.2215C32.3542 48.2236 32.3509 48.2248 32.3475 48.2249C32.1914 48.2413 32.0392 48.2836 31.897 48.3503C31.75 48.4077 31.6042 48.4746 31.4478 48.5203C31.3671 48.5495 31.28 48.5564 31.1957 48.5402C31.1728 48.5335 31.1513 48.5223 31.1327 48.5072C31.1141 48.4921 31.0986 48.4734 31.0872 48.4523C31.0655 48.4128 31.0538 48.3685 31.0534 48.3234C31.0458 48.1583 31.0724 47.9934 31.1316 47.8393C31.1894 47.6837 31.2844 47.5449 31.4081 47.4349C31.5323 47.3225 31.6897 47.2542 31.8562 47.2403C32.0217 47.2272 32.1865 47.2719 32.323 47.3669C32.4568 47.4618 32.5641 47.5898 32.6345 47.7384C32.6357 47.7405 32.6364 47.7428 32.6366 47.7451C32.6368 47.7475 32.6365 47.7498 32.6358 47.752C32.635 47.7543 32.6338 47.7563 32.6321 47.758C32.6305 47.7597 32.6285 47.761 32.6264 47.7619C32.6236 47.7638 32.6204 47.7648 32.617 47.7648C32.6137 47.7648 32.6104 47.7638 32.6077 47.7619L32.5972 47.756Z" fill="#1D2238"/>
<path d="M39.8085 42.9865C39.8085 42.9865 44.1131 37.1914 49.3163 38.5933C54.5195 39.9952 47.3104 44.4763 47.3104 44.4763C47.3104 44.4763 45.3057 41.0829 39.8085 42.9865Z" fill="#F1F2F5"/>
<path d="M35.5412 37.0883C35.5902 37.3426 35.0476 37.6615 34.33 37.8009C33.6123 37.9404 32.9915 37.8467 32.9425 37.5923C32.8935 37.3379 33.435 37.0179 34.1526 36.8785C34.8702 36.739 35.4922 36.8327 35.5412 37.0883Z" fill="#1D2238"/>
<path d="M38.6055 57.4779C37.4274 56.7809 36.3484 55.9272 35.3977 54.9402C35.3977 54.9402 36.0897 57.3548 38.4946 58.1707L38.6055 57.4779Z" fill="#1D2238"/>
<path d="M50.7435 172.809L61.6481 177.582C62.444 177.93 63.1191 178.508 63.588 179.242C64.0568 179.976 64.2983 180.833 64.2818 181.705L40.5729 181.653L41.8343 172.787L50.7435 172.809Z" fill="#142D4D"/>
<path d="M28.0576 173.288L36.4278 173.309L47.2371 178.04C47.9419 178.349 48.5401 178.86 48.9558 179.511C49.2829 180.023 49.4853 180.603 49.5497 181.203L26.9384 181.154L28.0576 173.288Z" fill="#142D4D" stroke="black"/>
<path d="M54.5136 172.719L52.3841 128.797C52.325 127.563 52.1795 126.334 51.9488 125.121L47.4248 101.25L20.0028 99.0955C20.0028 99.0955 17.3096 110.1 22.8279 120.693L25.6716 173.068L40.3067 172.974V172.81L54.5136 172.719Z" fill="#0F3970"/>
<path d="M38.1037 102.688L38.2904 104.879L38.4643 107.071L38.8143 111.456L39.4526 120.231L39.6113 122.425L39.7572 124.619L40.0442 129.008L40.6195 137.787L40.651 138.336C40.6615 138.519 40.651 138.703 40.651 138.886V139.985L40.6428 142.185L40.6288 146.583L40.6137 150.982L40.6032 153.181L40.581 155.381L40.4877 164.178L40.413 168.576L40.3756 170.775L40.3255 172.974H40.2858L40.2764 155.392V146.601V142.203V138.901C40.2764 138.718 40.2764 138.534 40.2764 138.351L40.2414 137.802L38.0652 102.69L38.1037 102.688Z" fill="#E2E2E2"/>
<path d="M59.7029 87.912L55.9431 82.0359L47.2591 84.3955L44.9919 68.7671C44.9697 68.5983 44.9487 68.4576 44.93 68.3451C44.3617 64.9072 38.3067 58.9268 38.3067 58.9268L36.9695 60.31L30.7453 56.9236C30.7453 56.9236 25.5713 59.0124 22.3938 63.0622C19.2164 67.112 20.0017 99.0932 20.0017 99.0932C20.0017 99.0932 26.4278 104.323 31.0767 105.188C35.7256 106.053 47.9243 102.688 47.9243 102.688C47.9243 102.688 47.713 100.004 47.4015 96.1311L59.7029 87.912Z" fill="#B5E1F1"/>
<path d="M36.9694 60.31L34.0382 62.8371C33.8069 63.0371 33.5123 63.1478 33.2071 63.1493C32.902 63.1508 32.6063 63.043 32.3731 62.8453C31.0206 61.6931 28.618 59.3289 29.373 57.5706L30.7452 56.9236L36.9694 60.31Z" fill="white"/>
<path d="M36.9695 60.3099L38.4176 61.8783C38.5088 61.9771 38.6221 62.0529 38.748 62.0994C38.874 62.1459 39.0092 62.1618 39.1424 62.1458C39.2757 62.1298 39.4033 62.0823 39.5148 62.0073C39.6263 61.9323 39.7186 61.8318 39.784 61.7142L40.2088 60.9511L38.3067 58.9268L36.9695 60.3099Z" fill="white"/>
<path d="M29.2295 67.0838L34.6404 82.622L51.4705 74.0652L54.1345 80.6293L39.1563 93.0694C37.7319 94.253 35.9808 94.9701 34.1386 95.1242C32.6027 95.2537 31.0592 94.9868 29.6548 94.3488C28.2504 93.7108 27.0315 92.7229 26.1139 91.4788C23.5783 88.0408 20.3658 83.3299 20.0461 81.1228C19.5012 77.4269 16.7239 70.3846 22.395 63.0621L29.2295 67.0838Z" fill="#B5E1F1"/>
<path d="M45.7981 76.9522C44.8872 77.4602 43.9739 77.9623 43.0582 78.4585C42.1411 78.9555 41.2192 79.4443 40.2985 79.9342C39.3779 80.4242 38.4537 80.9095 37.5272 81.3877C36.6007 81.8659 35.6765 82.3512 34.7476 82.8248L34.4839 82.9584L34.4232 82.6665C34.2844 81.996 34.1315 81.3221 33.974 80.6528C33.8165 79.9834 33.6531 79.313 33.4897 78.6519C33.149 77.318 32.7966 75.9876 32.3999 74.6665C32.0031 73.3455 31.583 72.0409 31.0848 70.7586C30.8351 70.1186 30.5713 69.4844 30.2679 68.8667C29.9762 68.2435 29.6298 67.6477 29.2329 67.0862C29.6768 67.6168 30.0676 68.19 30.3998 68.7975C30.7347 69.4035 31.0428 70.026 31.3181 70.6601C31.8771 71.9284 32.3473 73.2388 32.7779 74.5481C33.2085 75.8574 33.5866 77.1949 33.9296 78.5335C34.2727 79.8721 34.5913 81.2177 34.8632 82.5774L34.5399 82.4192C35.4734 81.9503 36.407 81.4815 37.3405 81.0208C38.274 80.5602 39.2075 80.1007 40.148 79.64C41.0885 79.1793 42.0244 78.7292 42.9672 78.2815C43.9101 77.8337 44.8506 77.3883 45.7981 76.9522Z" fill="#1D2238"/>
<path d="M20.0449 81.1251L20.605 82.1449L21.1605 83.167C21.53 83.8492 21.9034 84.5291 22.2807 85.2066C22.6553 85.8853 23.031 86.5628 23.4149 87.2344L23.9984 88.2425C24.1921 88.5801 24.383 88.9184 24.5713 89.2576C25.3298 90.6067 26.0719 91.9723 27.0906 93.0976C27.3437 93.3762 27.6167 93.6359 27.9074 93.8747C28.0486 93.999 28.2027 94.1021 28.3532 94.2123C28.5037 94.3225 28.6671 94.4151 28.8328 94.5006C29.4926 94.8562 30.2074 95.0971 30.9472 95.2133C32.4291 95.463 33.9741 95.2825 35.4187 94.8324C36.1444 94.6074 36.8461 94.3106 37.5133 93.9462C37.8455 93.7618 38.1679 93.5621 38.4806 93.3472C38.7922 93.1304 39.0851 92.8924 39.3885 92.6439C40.5896 91.6664 41.7954 90.6942 43.0058 89.7276L44.8262 88.2835L45.7364 87.5615L46.6524 86.8464L45.7807 87.6154L44.8962 88.3808L43.1459 89.9046C41.9728 90.915 40.7965 91.9223 39.6172 92.9264C39.3255 93.1761 39.0232 93.434 38.7035 93.6672C38.3828 93.8964 38.0506 94.1088 37.7082 94.3037C37.0216 94.6914 36.2985 95.0099 35.5494 95.2543C34.7981 95.4977 34.0232 95.6608 33.2378 95.7408C32.4479 95.8215 31.6509 95.7994 30.8667 95.6751C30.0764 95.5464 29.3134 95.2844 28.6099 94.9003C28.4325 94.8077 28.2657 94.6952 28.0965 94.5886C27.9273 94.4819 27.7686 94.3541 27.618 94.224C27.3111 93.9698 27.0244 93.6919 26.7604 93.3929C26.2464 92.7955 25.7856 92.1538 25.3835 91.4753C24.9715 90.8072 24.6098 90.1179 24.2481 89.4357C24.0684 89.0919 23.8863 88.7508 23.702 88.4124C23.5153 88.0713 23.3297 87.7302 23.1489 87.3868C22.7863 86.6999 22.4297 86.0099 22.0788 85.3168C21.728 84.6236 21.3853 83.9258 21.0508 83.2233L20.5432 82.1754L20.0449 81.1251Z" fill="#1D2238"/>
<path d="M32.673 88.2284C32.6321 88.0877 32.5995 87.9459 32.568 87.8017C32.5331 87.6583 32.5085 87.5126 32.4944 87.3657C32.4622 87.0714 32.4543 86.775 32.4711 86.4795C32.5013 85.8831 32.6237 85.2951 32.834 84.7365C33.0408 84.1759 33.3346 83.6517 33.7045 83.1834C34.0627 82.71 34.517 82.3185 35.0371 82.0347C34.7199 82.5028 34.4285 82.988 34.1643 83.4881C33.6513 84.4563 33.2676 85.488 33.023 86.5569C32.946 86.8253 32.9063 87.1007 32.8445 87.3774C32.7827 87.654 32.7512 87.9388 32.673 88.2284Z" fill="#1D2238"/>
<path d="M55.7961 86.6941L48.8484 83.7789C48.7488 83.7372 48.6612 83.6709 48.5937 83.5863C48.5262 83.5017 48.481 83.4013 48.4621 83.2946C48.4433 83.1878 48.4515 83.0779 48.486 82.9752C48.5205 82.8724 48.5801 82.78 48.6594 82.7064L66.5805 66.0313C66.6539 65.9632 66.742 65.9131 66.8379 65.885C66.9338 65.8569 67.0349 65.8516 67.1332 65.8695C67.2315 65.8873 67.3243 65.9278 67.4044 65.9878C67.4844 66.0478 67.5496 66.1257 67.5946 66.2153L71.387 73.7745C71.4573 73.9143 71.4781 74.074 71.4458 74.2273C71.4136 74.3805 71.3302 74.5181 71.2096 74.6173L56.6888 86.564C56.5658 86.665 56.4177 86.7305 56.2604 86.7535C56.1032 86.7764 55.9426 86.7559 55.7961 86.6941Z" fill="#4A4E60"/>
<path d="M47.3104 96.1921C47.1938 95.4747 47.1039 94.7574 47.0222 94.0377C46.979 93.679 46.9405 93.3191 46.9055 92.9593C46.8705 92.5994 46.832 92.2396 46.8005 91.8785C46.7328 91.1588 46.678 90.438 46.6231 89.7171C46.5928 89.3572 46.5753 88.995 46.5508 88.6352C46.5263 88.2753 46.5018 87.9131 46.4854 87.5521L46.4796 87.4103L46.5963 87.3481C46.9464 87.1559 47.2964 86.959 47.6535 86.7703C48.0106 86.5816 48.3618 86.3893 48.7189 86.2053C49.0759 86.0213 49.433 85.8361 49.7936 85.6567C50.1542 85.4774 50.5147 85.3051 50.8811 85.1316C50.5505 85.366 50.2168 85.5919 49.8799 85.8091C49.545 86.0306 49.2055 86.2475 48.8659 86.4632C48.5263 86.6788 48.1844 86.8887 47.8425 87.1008C47.5006 87.313 47.1552 87.5169 46.8122 87.7256L46.9207 87.5216C46.9545 87.8815 46.979 88.2425 47.0082 88.6024C47.0374 88.9622 47.0666 89.3232 47.0876 89.6843C47.1342 90.4063 47.1809 91.1272 47.2148 91.8504C47.2346 92.2114 47.2486 92.5725 47.2614 92.9335C47.2743 93.2945 47.2894 93.6567 47.2964 94.0189C47.3128 94.7421 47.3221 95.4665 47.3104 96.1921Z" fill="#1D2238"/>
<path d="M64.7905 81.036C64.7637 80.8567 64.7135 80.6762 64.6738 80.5027C64.584 80.1416 64.4988 79.7795 64.4113 79.4173C64.2884 78.9148 64.1666 78.4115 64.046 77.9075C64.0166 77.7854 63.9634 77.6704 63.8897 77.569C63.8159 77.4675 63.723 77.3817 63.6162 77.3163C63.5094 77.251 63.3908 77.2074 63.2673 77.188C63.1437 77.1687 63.0176 77.174 62.8961 77.2036C62.7746 77.2333 62.66 77.2866 62.5591 77.3607C62.4581 77.4348 62.3726 77.5282 62.3076 77.6354C62.2425 77.7427 62.1991 77.8618 62.1798 77.9859C62.1606 78.11 62.1659 78.2367 62.1954 78.3588L62.2304 78.503C62.0777 78.3718 61.8876 78.2927 61.6873 78.277C61.4871 78.2613 61.287 78.3099 61.116 78.4157C60.945 78.5216 60.8118 78.6792 60.7357 78.8659C60.6596 79.0526 60.6444 79.2588 60.6924 79.4548L60.8091 79.9307C60.7847 79.8817 60.7465 79.841 60.6994 79.8134C60.3937 79.6036 59.8826 79.654 59.6795 79.9881C59.5629 80.1897 59.5967 80.4206 59.613 80.6433C59.6877 81.6572 59.8336 82.6712 59.9433 83.6816L58.0961 85.4082L58.5185 86.0704C58.9001 85.938 59.2536 85.863 59.6352 85.7293C60.1428 85.5535 60.6632 85.4117 61.1522 85.1925C61.5341 85.01 61.8878 84.7731 62.2024 84.4892C62.8197 83.9451 63.3932 83.3529 63.9177 82.7181C64.1616 82.4309 64.402 82.139 64.6295 81.8378C64.7107 81.7229 64.767 81.5922 64.7947 81.454C64.8224 81.3159 64.821 81.1735 64.7905 81.036Z" fill="#F4AE7C"/>
<path d="M59.942 83.6804C59.942 83.6804 59.7355 84.4798 60.1252 85.0683C60.1252 85.0683 59.4391 84.9088 59.6795 83.9266L59.942 83.6804Z" fill="#1D2238"/>
<path d="M62.2303 78.5029C62.4978 78.7126 62.6959 78.9986 62.7986 79.3234C62.9013 79.6446 62.9818 79.9693 63.0647 80.2952C63.1475 80.621 63.2199 80.9469 63.2876 81.2751L63.3879 81.7674C63.4171 81.9327 63.4497 82.0968 63.4754 82.2632C63.4241 82.1026 63.3809 81.9409 63.3319 81.7803L63.2 81.2962C63.1125 80.9727 63.032 80.648 62.9503 80.3233L62.7169 79.3492C62.6786 79.1896 62.6164 79.0366 62.5326 78.8956C62.4483 78.7527 62.3468 78.6208 62.2303 78.5029Z" fill="#1D2238"/>
<path d="M60.8079 79.933C61.0726 80.0871 61.2716 80.3337 61.3668 80.6257C61.452 80.9141 61.5127 81.2048 61.5757 81.4955C61.6387 81.7862 61.6924 82.0816 61.7379 82.3722L61.8079 82.813C61.8266 82.9607 61.8487 83.1084 61.8639 83.2561C61.8231 83.1131 61.7892 82.9689 61.7472 82.8247L61.6469 82.3898C61.578 82.1003 61.5185 81.8096 61.4578 81.5189C61.3971 81.2282 61.3411 80.9328 61.2781 80.6492C61.2473 80.508 61.1864 80.3752 61.0996 80.26C61.0162 80.1393 60.9182 80.0295 60.8079 79.933Z" fill="#1D2238"/>
<path d="M49.6945 82.622C50.3829 81.9445 51.0831 81.281 51.7797 80.6129C52.4763 79.9448 53.18 79.2837 53.8801 78.6202L55.9992 76.6475L58.1276 74.6877C59.5535 73.3866 60.9783 72.0855 62.4147 70.7984L63.4906 69.8302L64.5712 68.8691C65.2907 68.2267 66.0134 67.5875 66.7392 66.9514L66.9143 66.7979L67.0158 67.0006L67.8326 68.6417L68.6494 70.2827L69.4511 71.9307C69.7203 72.4777 69.9851 73.0287 70.2458 73.5835C69.9424 73.0529 69.6421 72.5207 69.3449 71.987L68.4534 70.3858L67.5724 68.7788L66.7007 67.1647L66.9773 67.2151C66.2725 67.8739 65.5646 68.5295 64.8536 69.182L63.7893 70.162L62.7193 71.136C61.2957 72.4395 59.8616 73.7288 58.424 75.0182L56.2617 76.9417L54.0878 78.8512C53.3597 79.4841 52.6339 80.1206 51.8987 80.7454C51.1636 81.3701 50.4354 82.0031 49.6945 82.622Z" fill="#1D2238"/>
</g>
<defs>
<clipPath id="clip0_8_575">
<rect width="312" height="182" fill="white"/>
</clipPath>
</defs>
</svg>
